<svg xmlns="http://www.w3.org/2000/svg" xmlns:xlink="http://www.w3.org/1999/xlink" contentStyleType="text/css" height="747px" preserveAspectRatio="none" style="width:312px;height:747px;background:#FFFFFF;" version="1.1" viewBox="0 0 312 747" width="312px" zoomAndPan="magnify"><defs/><g><!--class Player--><g id="elem_Player"><rect codeLine="2" fill="#F1F1F1" height="105.2038" id="Player" rx="2.5" ry="2.5" style="stroke:#181818;stroke-width:0.5;" width="78.5277" x="49.5" y="7"/><ellipse cx="67.0983" cy="23" fill="#ADD1B2" rx="11" ry="11" style="stroke:#181818;stroke-width:1.0;"/><path d="M66.567,29.9219 Q64.817,29.9219 63.6764,29.1875 Q62.5514,28.4375 61.9889,27.0938 Q61.442,25.7344 61.442,23.9375 Q61.442,21.9063 62.0983,20.4531 Q62.7545,19 64.0358,18.2188 Q65.317,17.4375 67.192,17.4375 Q68.0826,17.4375 68.7545,17.625 Q69.4264,17.7969 70.1139,18.1406 L69.3014,20.1563 Q68.6764,19.8438 68.1295,19.7188 Q67.5983,19.5938 67.1139,19.5938 Q65.942,19.5938 65.2389,20.125 Q64.5358,20.6563 64.2389,21.6094 Q63.942,22.5625 63.942,23.8281 Q63.942,25.8438 64.6608,26.8125 Q65.3795,27.7656 66.9733,27.7656 Q67.567,27.7656 68.192,27.6094 Q68.817,27.4531 69.6451,27.0781 L69.6451,29.2969 Q68.9108,29.6094 68.1139,29.7656 Q67.3326,29.9219 66.567,29.9219 Z " fill="#000000"/><text fill="#000000" font-family="sans-serif" font-size="14" lengthAdjust="spacing" textLength="40.7538" x="81.6756" y="28.432">Player</text><line style="stroke:#181818;stroke-width:0.5;" x1="50.5" x2="127.0277" y1="39" y2="39"/><text fill="#000000" font-family="sans-serif" font-size="14" lengthAdjust="spacing" textLength="66.5277" x="55.5" y="57.9659">username</text><text fill="#000000" font-family="sans-serif" font-size="14" lengthAdjust="spacing" textLength="63.7418" x="55.5" y="77.0339">password</text><text fill="#000000" font-family="sans-serif" font-size="14" lengthAdjust="spacing" textLength="47.4318" x="55.5" y="96.1018">budget</text><line style="stroke:#181818;stroke-width:0.5;" x1="50.5" x2="127.0277" y1="104.2038" y2="104.2038"/></g><!--class Station--><g id="elem_Station"><rect codeLine="8" fill="#F1F1F1" height="162.4075" id="Station" rx="2.5" ry="2.5" style="stroke:#181818;stroke-width:0.5;" width="125.9036" x="26" y="191"/><ellipse cx="62.3848" cy="207" fill="#ADD1B2" rx="11" ry="11" style="stroke:#181818;stroke-width:1.0;"/><path d="M61.8535,213.9219 Q60.1035,213.9219 58.9629,213.1875 Q57.8379,212.4375 57.2754,211.0938 Q56.7285,209.7344 56.7285,207.9375 Q56.7285,205.9063 57.3848,204.4531 Q58.041,203 59.3223,202.2188 Q60.6035,201.4375 62.4785,201.4375 Q63.3692,201.4375 64.041,201.625 Q64.7129,201.7969 65.4004,202.1406 L64.5879,204.1563 Q63.9629,203.8438 63.416,203.7188 Q62.8848,203.5938 62.4004,203.5938 Q61.2285,203.5938 60.5254,204.125 Q59.8223,204.6563 59.5254,205.6094 Q59.2285,206.5625 59.2285,207.8281 Q59.2285,209.8438 59.9473,210.8125 Q60.666,211.7656 62.2598,211.7656 Q62.8535,211.7656 63.4785,211.6094 Q64.1035,211.4531 64.9317,211.0781 L64.9317,213.2969 Q64.1973,213.6094 63.4004,213.7656 Q62.6192,213.9219 61.8535,213.9219 Z " fill="#000000"/><text fill="#000000" font-family="sans-serif" font-size="14" lengthAdjust="spacing" textLength="46.3818" x="81.137" y="212.432">Station</text><line style="stroke:#181818;stroke-width:0.5;" x1="27" x2="150.9036" y1="223" y2="223"/><text fill="#000000" font-family="sans-serif" font-size="14" lengthAdjust="spacing" textLength="37.4919" x="32" y="241.9659">name</text><text fill="#000000" font-family="sans-serif" font-size="14" lengthAdjust="spacing" textLength="34.0759" x="32" y="261.0339">xAxis</text><text fill="#000000" font-family="sans-serif" font-size="14" lengthAdjust="spacing" textLength="33.8099" x="32" y="280.1018">yAxis</text><text fill="#000000" font-family="sans-serif" font-size="14" lengthAdjust="spacing" textLength="113.9036" x="32" y="299.1697">type: StationType</text><text fill="#000000" font-family="sans-serif" font-size="14" lengthAdjust="spacing" textLength="41.2159" x="32" y="318.2376">radius</text><text fill="#000000" font-family="sans-serif" font-size="14" lengthAdjust="spacing" textLength="26.9499" x="32" y="337.3055">cost</text><line style="stroke:#181818;stroke-width:0.5;" x1="27" x2="150.9036" y1="345.4075" y2="345.4075"/></g><!--class Cargo--><g id="elem_Cargo"><rect codeLine="17" fill="#F1F1F1" height="86.1358" id="Cargo" rx="2.5" ry="2.5" style="stroke:#181818;stroke-width:0.5;" width="71.5639" x="7" y="432"/><ellipse cx="22" cy="448" fill="#ADD1B2" rx="11" ry="11" style="stroke:#181818;stroke-width:1.0;"/><path d="M21.4688,454.9219 Q19.7188,454.9219 18.5781,454.1875 Q17.4531,453.4375 16.8906,452.0938 Q16.3438,450.7344 16.3438,448.9375 Q16.3438,446.9063 17,445.4531 Q17.6563,444 18.9375,443.2188 Q20.2188,442.4375 22.0938,442.4375 Q22.9844,442.4375 23.6563,442.625 Q24.3281,442.7969 25.0156,443.1406 L24.2031,445.1563 Q23.5781,444.8438 23.0313,444.7188 Q22.5,444.5938 22.0156,444.5938 Q20.8438,444.5938 20.1406,445.125 Q19.4375,445.6563 19.1406,446.6094 Q18.8438,447.5625 18.8438,448.8281 Q18.8438,450.8438 19.5625,451.8125 Q20.2813,452.7656 21.875,452.7656 Q22.4688,452.7656 23.0938,452.6094 Q23.7188,452.4531 24.5469,452.0781 L24.5469,454.2969 Q23.8125,454.6094 23.0156,454.7656 Q22.2344,454.9219 21.4688,454.9219 Z " fill="#000000"/><text fill="#000000" font-family="sans-serif" font-size="14" lengthAdjust="spacing" textLength="39.5639" x="36" y="453.432">Cargo</text><line style="stroke:#181818;stroke-width:0.5;" x1="8" x2="77.5639" y1="464" y2="464"/><text fill="#000000" font-family="sans-serif" font-size="14" lengthAdjust="spacing" textLength="51.7718" x="13" y="482.9659">amount</text><text fill="#000000" font-family="sans-serif" font-size="14" lengthAdjust="spacing" textLength="51.7578" x="13" y="502.0339">lifespan</text><line style="stroke:#181818;stroke-width:0.5;" x1="8" x2="77.5639" y1="510.1358" y2="510.1358"/></g><!--class Building--><g id="elem_Building"><rect codeLine="22" fill="#F1F1F1" height="143.3396" id="Building" rx="2.5" ry="2.5" style="stroke:#181818;stroke-width:0.5;" width="101.8656" x="159" y="597"/><ellipse cx="180.9326" cy="613" fill="#ADD1B2" rx="11" ry="11" style="stroke:#181818;stroke-width:1.0;"/><path d="M180.4014,619.9219 Q178.6514,619.9219 177.5108,619.1875 Q176.3858,618.4375 175.8233,617.0938 Q175.2764,615.7344 175.2764,613.9375 Q175.2764,611.9063 175.9326,610.4531 Q176.5889,609 177.8701,608.2188 Q179.1514,607.4375 181.0264,607.4375 Q181.917,607.4375 182.5889,607.625 Q183.2608,607.7969 183.9483,608.1406 L183.1358,610.1563 Q182.5108,609.8438 181.9639,609.7188 Q181.4326,609.5938 180.9483,609.5938 Q179.7764,609.5938 179.0733,610.125 Q178.3701,610.6563 178.0733,611.6094 Q177.7764,612.5625 177.7764,613.8281 Q177.7764,615.8438 178.4951,616.8125 Q179.2139,617.7656 180.8076,617.7656 Q181.4014,617.7656 182.0264,617.6094 Q182.6514,617.4531 183.4795,617.0781 L183.4795,619.2969 Q182.7451,619.6094 181.9483,619.7656 Q181.167,619.9219 180.4014,619.9219 Z " fill="#000000"/><text fill="#000000" font-family="sans-serif" font-size="14" lengthAdjust="spacing" textLength="54.4598" x="196.4732" y="618.432">Building</text><line style="stroke:#181818;stroke-width:0.5;" x1="160" x2="259.8656" y1="629" y2="629"/><text fill="#000000" font-family="sans-serif" font-size="14" lengthAdjust="spacing" textLength="37.4919" x="165" y="647.9659">name</text><text fill="#000000" font-family="sans-serif" font-size="14" lengthAdjust="spacing" textLength="89.8656" x="165" y="667.0339">upgradeLevel</text><text fill="#000000" font-family="sans-serif" font-size="14" lengthAdjust="spacing" textLength="87.4717" x="165" y="686.1018">availableYear</text><text fill="#000000" font-family="sans-serif" font-size="14" lengthAdjust="spacing" textLength="26.9499" x="165" y="705.1697">cost</text><text fill="#000000" font-family="sans-serif" font-size="14" lengthAdjust="spacing" textLength="37.1978" x="165" y="724.2376">effect</text><line style="stroke:#181818;stroke-width:0.5;" x1="160" x2="259.8656" y1="732.3396" y2="732.3396"/></g><!--class StationBuildingSlot--><g id="elem_StationBuildingSlot"><rect codeLine="30" fill="#F1F1F1" height="86.1358" id="StationBuildingSlot" rx="2.5" ry="2.5" style="stroke:#181818;stroke-width:0.5;" width="191.0313" x="114.5" y="432"/><ellipse cx="144.5155" cy="448" fill="#ADD1B2" rx="11" ry="11" style="stroke:#181818;stroke-width:1.0;"/><path d="M143.9843,454.9219 Q142.2343,454.9219 141.0936,454.1875 Q139.9686,453.4375 139.4061,452.0938 Q138.8593,450.7344 138.8593,448.9375 Q138.8593,446.9063 139.5155,445.4531 Q140.1718,444 141.453,443.2188 Q142.7343,442.4375 144.6093,442.4375 Q145.4999,442.4375 146.1718,442.625 Q146.8436,442.7969 147.5311,443.1406 L146.7186,445.1563 Q146.0936,444.8438 145.5468,444.7188 Q145.0155,444.5938 144.5311,444.5938 Q143.3593,444.5938 142.6561,445.125 Q141.953,445.6563 141.6561,446.6094 Q141.3593,447.5625 141.3593,448.8281 Q141.3593,450.8438 142.078,451.8125 Q142.7968,452.7656 144.3905,452.7656 Q144.9843,452.7656 145.6093,452.6094 Q146.2343,452.4531 147.0624,452.0781 L147.0624,454.2969 Q146.328,454.6094 145.5311,454.7656 Q144.7499,454.9219 143.9843,454.9219 Z " fill="#000000"/><text fill="#000000" font-family="sans-serif" font-size="14" lengthAdjust="spacing" textLength="125.6635" x="161.8523" y="453.432">StationBuildingSlot</text><line style="stroke:#181818;stroke-width:0.5;" x1="115.5" x2="304.5313" y1="464" y2="464"/><text fill="#000000" font-family="sans-serif" font-size="14" lengthAdjust="spacing" textLength="179.0313" x="120.5" y="482.9659">category: BuildingCategory</text><text fill="#000000" font-family="sans-serif" font-size="14" lengthAdjust="spacing" textLength="87.0377" x="120.5" y="502.0339">upgradeDate</text><line style="stroke:#181818;stroke-width:0.5;" x1="115.5" x2="304.5313" y1="510.1358" y2="510.1358"/></g><!--link Player to Station--><g id="link_Player_Station"><path codeLine="35" d="M89,112.26 C89,135.88 89,164.39 89,190.69 " fill="none" id="Player-Station" style="stroke:#181818;stroke-width:1.0;"/><polygon fill="#000000" points="94,156.853,96.9389,147.8079,91.0611,147.8079,94,156.853" style="stroke:#000000;stroke-width:1.0;"/><text fill="#000000" font-family="sans-serif" font-size="13" lengthAdjust="spacing" textLength="41.405" x="103" y="156.897">selects</text><text fill="#000000" font-family="sans-serif" font-size="13" lengthAdjust="spacing" textLength="7.436" x="81.6097" y="134.0381">1</text><text fill="#000000" font-family="sans-serif" font-size="13" lengthAdjust="spacing" textLength="7.436" x="81.7019" y="179.3214">1</text></g><!--link Station to Cargo--><g id="link_Station_Cargo"><path codeLine="36" d="M70.69,353.02 C64.52,379.95 57.89,408.93 52.66,431.77 " fill="none" id="Station-Cargo" style="stroke:#181818;stroke-width:1.0;"/><polygon fill="#000000" points="67.8841,397.7269,72.7676,389.5659,67.038,388.254,67.8841,397.7269" style="stroke:#000000;stroke-width:1.0;"/><text fill="#000000" font-family="sans-serif" font-size="13" lengthAdjust="spacing" textLength="37.713" x="78" y="397.897">stores</text><text fill="#000000" font-family="sans-serif" font-size="13" lengthAdjust="spacing" textLength="7.436" x="61.7039" y="375.1834">1</text><text fill="#000000" font-family="sans-serif" font-size="13" lengthAdjust="spacing" textLength="7.163" x="46.7299" y="420.1465">*</text></g><!--link Station to StationBuildingSlot--><g id="link_Station_StationBuildingSlot"><path codeLine="37" d="M137.17,353.02 C153.38,379.95 170.83,408.93 184.58,431.77 " fill="none" id="Station-StationBuildingSlot" style="stroke:#181818;stroke-width:1.0;"/><polygon fill="#000000" points="170.5789,397.1366,168.4315,387.8717,163.3958,390.9033,170.5789,397.1366" style="stroke:#000000;stroke-width:1.0;"/><text fill="#000000" font-family="sans-serif" font-size="13" lengthAdjust="spacing" textLength="21.554" x="177" y="397.897">has</text><text fill="#000000" font-family="sans-serif" font-size="13" lengthAdjust="spacing" textLength="7.436" x="134.3126" y="375.1834">1</text><text fill="#000000" font-family="sans-serif" font-size="13" lengthAdjust="spacing" textLength="21.567" x="157.6751" y="420.1465">1..*</text></g><!--link StationBuildingSlot to Building--><g id="link_StationBuildingSlot_Building"><path codeLine="38" d="M210,518.03 C210,541.15 210,570.45 210,596.97 " fill="none" id="StationBuildingSlot-Building" style="stroke:#181818;stroke-width:1.0;"/><polygon fill="#000000" points="215,562.853,217.9389,553.8079,212.0611,553.8079,215,562.853" style="stroke:#000000;stroke-width:1.0;"/><text fill="#000000" font-family="sans-serif" font-size="13" lengthAdjust="spacing" textLength="51.7401" x="224" y="562.897">contains</text><text fill="#000000" font-family="sans-serif" font-size="13" lengthAdjust="spacing" textLength="7.436" x="202.4744" y="540.185">1</text><text fill="#000000" font-family="sans-serif" font-size="13" lengthAdjust="spacing" textLength="21.84" x="187.9048" y="585.1338">0..1</text></g><!--SRC=[RL2xRiCm3Dpz5OJ7036QLKE1DXqx14YNZenCkm8KoT0ZZL7qtyl8ag4KqIBooBkJJchq7WuQPtBmqm2VwCaPF5Dg9Xv_MzUdvXJxaGANlqqZ4_4OC2XhCdDbNL-kogTgNgimJoGAuOERX3hiLLmMfFLtsdjqersKyMoZkGr1gu7yXAPUV8rAzygC_ryHfv7bwPqkf1E05rGQJve-2Ltj2K33G3BRCrn_hiWVjGtPGcAWqRfPhDxxZDJ6RumjYZdVTjV2Tfkk4fm0JvgTFJmt1IjhcpPdm4l1Edgqi-kwJVlmfGA-i6BSpGhxgUkuMlCJd8S9gCoDzmS0]--></g></svg>