<svg xmlns="http://www.w3.org/2000/svg" xmlns:xlink="http://www.w3.org/1999/xlink" contentStyleType="text/css" height="884px" preserveAspectRatio="none" style="width:696px;height:884px;background:#FFFFFF;" version="1.1" viewBox="0 0 696 884" width="696px" zoomAndPan="magnify"><title>Sequence Diagram: US02 - Add an industry</title><defs/><g><text fill="#000000" font-family="sans-serif" font-size="14" font-weight="bold" lengthAdjust="spacing" textLength="288.6201" x="201.6252" y="30.1074">Sequence Diagram: US02 - Add an industry</text><rect fill="#FFFFFF" height="649.7422" style="stroke:#181818;stroke-width:1.0;" width="10" x="21.2861" y="133.2422"/><rect fill="#FFFFFF" height="185.7461" style="stroke:#181818;stroke-width:1.0;" width="10" x="376.5103" y="156.5332"/><rect fill="#FFFFFF" height="31.291" style="stroke:#181818;stroke-width:1.0;" width="10" x="376.5103" y="373.5703"/><rect fill="#FFFFFF" height="142.125" style="stroke:#181818;stroke-width:1.0;" width="10" x="376.5103" y="436.1523"/><rect fill="#FFFFFF" height="173.416" style="stroke:#181818;stroke-width:1.0;" width="10" x="376.5103" y="609.5684"/><rect fill="#FFFFFF" height="79.543" style="stroke:#181818;stroke-width:1.0;" width="10" x="589.4155" y="231.4453"/><rect fill="#FFFFFF" height="79.543" style="stroke:#181818;stroke-width:1.0;" width="10" x="589.4155" y="467.4434"/><rect fill="#FFFFFF" height="79.543" style="stroke:#181818;stroke-width:1.0;" width="10" x="589.4155" y="640.8594"/><line style="stroke:#181818;stroke-width:0.5;stroke-dasharray:5.0,5.0;" x1="26" x2="26" y1="123.2422" y2="800.9844"/><line style="stroke:#181818;stroke-width:0.5;stroke-dasharray:5.0,5.0;" x1="381.2104" x2="381.2104" y1="123.2422" y2="800.9844"/><line style="stroke:#181818;stroke-width:0.5;stroke-dasharray:5.0,5.0;" x1="593.771" x2="593.771" y1="196.3438" y2="800.9844"/><text fill="#000000" font-family="sans-serif" font-size="14" lengthAdjust="spacing" textLength="36.5723" x="5" y="119.7285">Editor</text><ellipse cx="26.2861" cy="53.1211" fill="#E3E3E3" rx="8" ry="8" style="stroke:#181818;stroke-width:0.5;"/><path d="M26.2861,61.1211 L26.2861,88.1211 M13.2861,69.1211 L39.2861,69.1211 M26.2861,88.1211 L13.2861,103.1211 M26.2861,88.1211 L39.2861,103.1211 " fill="none" style="stroke:#181818;stroke-width:0.5;"/><text fill="#000000" font-family="sans-serif" font-size="14" lengthAdjust="spacing" textLength="36.5723" x="5" y="815.0918">Editor</text><ellipse cx="26.2861" cy="827.1055" fill="#E3E3E3" rx="8" ry="8" style="stroke:#181818;stroke-width:0.5;"/><path d="M26.2861,835.1055 L26.2861,862.1055 M13.2861,843.1055 L39.2861,843.1055 M26.2861,862.1055 L13.2861,877.1055 M26.2861,862.1055 L39.2861,877.1055 " fill="none" style="stroke:#181818;stroke-width:0.5;"/><rect fill="#E3E3E3" height="32.6211" rx="2.5" ry="2.5" style="stroke:#181818;stroke-width:0.5;" width="106.5996" x="328.2104" y="89.6211"/><text fill="#000000" font-family="sans-serif" font-size="14" lengthAdjust="spacing" textLength="92.5996" x="335.2104" y="111.7285">:AddIndustryUI</text><rect fill="#E3E3E3" height="32.6211" rx="2.5" ry="2.5" style="stroke:#181818;stroke-width:0.5;" width="106.5996" x="328.2104" y="799.9844"/><text fill="#000000" font-family="sans-serif" font-size="14" lengthAdjust="spacing" textLength="92.5996" x="335.2104" y="822.0918">:AddIndustryUI</text><rect fill="#E3E3E3" height="32.6211" rx="2.5" ry="2.5" style="stroke:#181818;stroke-width:0.5;" width="153.2891" x="517.771" y="799.9844"/><text fill="#000000" font-family="sans-serif" font-size="14" lengthAdjust="spacing" textLength="139.2891" x="524.771" y="822.0918">:AddIndustryController</text><rect fill="#FFFFFF" height="649.7422" style="stroke:#181818;stroke-width:1.0;" width="10" x="21.2861" y="133.2422"/><rect fill="#FFFFFF" height="185.7461" style="stroke:#181818;stroke-width:1.0;" width="10" x="376.5103" y="156.5332"/><rect fill="#FFFFFF" height="31.291" style="stroke:#181818;stroke-width:1.0;" width="10" x="376.5103" y="373.5703"/><rect fill="#FFFFFF" height="142.125" style="stroke:#181818;stroke-width:1.0;" width="10" x="376.5103" y="436.1523"/><rect fill="#FFFFFF" height="173.416" style="stroke:#181818;stroke-width:1.0;" width="10" x="376.5103" y="609.5684"/><rect fill="#FFFFFF" height="79.543" style="stroke:#181818;stroke-width:1.0;" width="10" x="589.4155" y="231.4453"/><rect fill="#FFFFFF" height="79.543" style="stroke:#181818;stroke-width:1.0;" width="10" x="589.4155" y="467.4434"/><rect fill="#FFFFFF" height="79.543" style="stroke:#181818;stroke-width:1.0;" width="10" x="589.4155" y="640.8594"/><polygon fill="#181818" points="364.5103,152.5332,374.5103,156.5332,364.5103,160.5332,368.5103,156.5332" style="stroke:#181818;stroke-width:1.0;"/><line style="stroke:#181818;stroke-width:1.0;" x1="31.2861" x2="370.5103" y1="156.5332" y2="156.5332"/><text fill="#000000" font-family="sans-serif" font-size="13" font-weight="bold" lengthAdjust="spacing" textLength="7.23" x="38.2861" y="151.2705">1</text><text fill="#000000" font-family="sans-serif" font-size="13" lengthAdjust="spacing" textLength="115.6162" x="49.5161" y="151.2705">asks to add industry</text><polygon fill="#181818" points="505.771,183.8242,515.771,187.8242,505.771,191.8242,509.771,187.8242" style="stroke:#181818;stroke-width:1.0;"/><line style="stroke:#181818;stroke-width:1.0;" x1="386.5103" x2="511.771" y1="187.8242" y2="187.8242"/><text fill="#000000" font-family="sans-serif" font-size="13" font-weight="bold" lengthAdjust="spacing" textLength="7.23" x="393.5103" y="182.5615">2</text><text fill="#000000" font-family="sans-serif" font-size="13" lengthAdjust="spacing" textLength="44.7891" x="404.7402" y="182.5615">create()</text><rect fill="#E3E3E3" height="32.6211" rx="2.5" ry="2.5" style="stroke:#181818;stroke-width:0.5;" width="153.2891" x="517.771" y="164.5332"/><text fill="#000000" font-family="sans-serif" font-size="14" lengthAdjust="spacing" textLength="139.2891" x="524.771" y="186.6406">:AddIndustryController</text><polygon fill="#181818" points="577.4155,227.4453,587.4155,231.4453,577.4155,235.4453,581.4155,231.4453" style="stroke:#181818;stroke-width:1.0;"/><line style="stroke:#181818;stroke-width:1.0;" x1="386.5103" x2="583.4155" y1="231.4453" y2="231.4453"/><text fill="#000000" font-family="sans-serif" font-size="13" font-weight="bold" lengthAdjust="spacing" textLength="7.23" x="393.5103" y="226.1826">3</text><text fill="#000000" font-family="sans-serif" font-size="13" lengthAdjust="spacing" textLength="135.8462" x="404.7402" y="226.1826">getIndustriesAvailable()</text><rect fill="none" height="43.252" style="stroke:#000000;stroke-width:1.5;" width="159.2891" x="514.771" y="239.4453"/><path d="M514.771,239.4453 L575.771,239.4453 L575.771,248.4453 L565.771,258.4453 L514.771,258.4453 L514.771,239.4453 " fill="#EEEEEE" style="stroke:#000000;stroke-width:2.0;"/><text fill="#000000" font-family="sans-serif" font-size="13" font-weight="bold" lengthAdjust="spacing" textLength="16.6182" x="527.771" y="255.4736">ref</text><text fill="#000000" font-family="sans-serif" font-size="12" lengthAdjust="spacing" textLength="124.7344" x="532.0483" y="275.3945">Get available industries</text><polygon fill="#181818" points="397.5103,306.9883,387.5103,310.9883,397.5103,314.9883,393.5103,310.9883" style="stroke:#181818;stroke-width:1.0;"/><line style="stroke:#181818;stroke-width:1.0;stroke-dasharray:2.0,2.0;" x1="391.5103" x2="593.4155" y1="310.9883" y2="310.9883"/><text fill="#000000" font-family="sans-serif" font-size="13" font-weight="bold" lengthAdjust="spacing" textLength="7.23" x="403.5103" y="305.7256">4</text><text fill="#000000" font-family="sans-serif" font-size="13" lengthAdjust="spacing" textLength="127.9053" x="414.7402" y="305.7256">availableIndustriesList</text><polygon fill="#181818" points="42.2861,338.2793,32.2861,342.2793,42.2861,346.2793,38.2861,342.2793" style="stroke:#181818;stroke-width:1.0;"/><line style="stroke:#181818;stroke-width:1.0;stroke-dasharray:2.0,2.0;" x1="36.2861" x2="380.5103" y1="342.2793" y2="342.2793"/><text fill="#000000" font-family="sans-serif" font-size="13" font-weight="bold" lengthAdjust="spacing" textLength="7.23" x="48.2861" y="337.0166">5</text><text fill="#000000" font-family="sans-serif" font-size="13" lengthAdjust="spacing" textLength="222.5552" x="59.5161" y="337.0166">shows all industries available in the list</text><polygon fill="#181818" points="364.5103,369.5703,374.5103,373.5703,364.5103,377.5703,368.5103,373.5703" style="stroke:#181818;stroke-width:1.0;"/><line style="stroke:#181818;stroke-width:1.0;" x1="31.2861" x2="370.5103" y1="373.5703" y2="373.5703"/><text fill="#000000" font-family="sans-serif" font-size="13" font-weight="bold" lengthAdjust="spacing" textLength="7.23" x="38.2861" y="368.3076">6</text><text fill="#000000" font-family="sans-serif" font-size="13" lengthAdjust="spacing" textLength="117.7744" x="49.5161" y="368.3076">selects industry type</text><polygon fill="#181818" points="42.2861,400.8613,32.2861,404.8613,42.2861,408.8613,38.2861,404.8613" style="stroke:#181818;stroke-width:1.0;"/><line style="stroke:#181818;stroke-width:1.0;stroke-dasharray:2.0,2.0;" x1="36.2861" x2="380.5103" y1="404.8613" y2="404.8613"/><text fill="#000000" font-family="sans-serif" font-size="13" font-weight="bold" lengthAdjust="spacing" textLength="7.23" x="48.2861" y="399.5986">7</text><text fill="#000000" font-family="sans-serif" font-size="13" lengthAdjust="spacing" textLength="309.9941" x="59.5161" y="399.5986">requests industry data (nameID, X and Y coordinates)</text><polygon fill="#181818" points="364.5103,432.1523,374.5103,436.1523,364.5103,440.1523,368.5103,436.1523" style="stroke:#181818;stroke-width:1.0;"/><line style="stroke:#181818;stroke-width:1.0;" x1="31.2861" x2="370.5103" y1="436.1523" y2="436.1523"/><text fill="#000000" font-family="sans-serif" font-size="13" font-weight="bold" lengthAdjust="spacing" textLength="7.23" x="38.2861" y="430.8896">8</text><text fill="#000000" font-family="sans-serif" font-size="13" lengthAdjust="spacing" textLength="198.6943" x="49.5161" y="430.8896">types industry data (nameID, X, Y)</text><polygon fill="#181818" points="577.4155,463.4434,587.4155,467.4434,577.4155,471.4434,581.4155,467.4434" style="stroke:#181818;stroke-width:1.0;"/><line style="stroke:#181818;stroke-width:1.0;" x1="386.5103" x2="583.4155" y1="467.4434" y2="467.4434"/><text fill="#000000" font-family="sans-serif" font-size="13" font-weight="bold" lengthAdjust="spacing" textLength="7.23" x="393.5103" y="462.1807">9</text><text fill="#000000" font-family="sans-serif" font-size="13" lengthAdjust="spacing" textLength="172.6753" x="404.7402" y="462.1807">validateIndustry(nameID, x, y)</text><rect fill="none" height="43.252" style="stroke:#000000;stroke-width:1.5;" width="159.2891" x="514.771" y="475.4434"/><path d="M514.771,475.4434 L575.771,475.4434 L575.771,484.4434 L565.771,494.4434 L514.771,494.4434 L514.771,475.4434 " fill="#EEEEEE" style="stroke:#000000;stroke-width:2.0;"/><text fill="#000000" font-family="sans-serif" font-size="13" font-weight="bold" lengthAdjust="spacing" textLength="16.6182" x="527.771" y="491.4717">ref</text><text fill="#000000" font-family="sans-serif" font-size="12" lengthAdjust="spacing" textLength="115.4063" x="536.7124" y="511.3926">Validate industry data</text><polygon fill="#181818" points="397.5103,542.9863,387.5103,546.9863,397.5103,550.9863,393.5103,546.9863" style="stroke:#181818;stroke-width:1.0;"/><line style="stroke:#181818;stroke-width:1.0;stroke-dasharray:2.0,2.0;" x1="391.5103" x2="593.4155" y1="546.9863" y2="546.9863"/><text fill="#000000" font-family="sans-serif" font-size="13" font-weight="bold" lengthAdjust="spacing" textLength="14.46" x="403.5103" y="541.7236">10</text><text fill="#000000" font-family="sans-serif" font-size="13" lengthAdjust="spacing" textLength="46.96" x="421.9702" y="541.7236">success</text><polygon fill="#181818" points="42.2861,574.2773,32.2861,578.2773,42.2861,582.2773,38.2861,578.2773" style="stroke:#181818;stroke-width:1.0;"/><line style="stroke:#181818;stroke-width:1.0;stroke-dasharray:2.0,2.0;" x1="36.2861" x2="380.5103" y1="578.2773" y2="578.2773"/><text fill="#000000" font-family="sans-serif" font-size="13" font-weight="bold" lengthAdjust="spacing" textLength="14.46" x="48.2861" y="573.0146">11</text><text fill="#000000" font-family="sans-serif" font-size="13" lengthAdjust="spacing" textLength="119.9326" x="66.7461" y="573.0146">asks for confirmation</text><polygon fill="#181818" points="364.5103,605.5684,374.5103,609.5684,364.5103,613.5684,368.5103,609.5684" style="stroke:#181818;stroke-width:1.0;"/><line style="stroke:#181818;stroke-width:1.0;" x1="31.2861" x2="370.5103" y1="609.5684" y2="609.5684"/><text fill="#000000" font-family="sans-serif" font-size="13" font-weight="bold" lengthAdjust="spacing" textLength="14.46" x="38.2861" y="604.3057">12</text><text fill="#000000" font-family="sans-serif" font-size="13" lengthAdjust="spacing" textLength="127.1626" x="56.7461" y="604.3057">confirms industry data</text><polygon fill="#181818" points="577.4155,636.8594,587.4155,640.8594,577.4155,644.8594,581.4155,640.8594" style="stroke:#181818;stroke-width:1.0;"/><line style="stroke:#181818;stroke-width:1.0;" x1="386.5103" x2="583.4155" y1="640.8594" y2="640.8594"/><text fill="#000000" font-family="sans-serif" font-size="13" font-weight="bold" lengthAdjust="spacing" textLength="14.46" x="393.5103" y="635.5967">13</text><text fill="#000000" font-family="sans-serif" font-size="13" lengthAdjust="spacing" textLength="163.998" x="411.9702" y="635.5967">createIndustry(nameID, x, y)</text><rect fill="none" height="43.252" style="stroke:#000000;stroke-width:1.5;" width="176.0996" x="514.771" y="648.8594"/><path d="M514.771,648.8594 L575.771,648.8594 L575.771,657.8594 L565.771,667.8594 L514.771,667.8594 L514.771,648.8594 " fill="#EEEEEE" style="stroke:#000000;stroke-width:2.0;"/><text fill="#000000" font-family="sans-serif" font-size="13" font-weight="bold" lengthAdjust="spacing" textLength="16.6182" x="527.771" y="664.8877">ref</text><text fill="#000000" font-family="sans-serif" font-size="12" lengthAdjust="spacing" textLength="168.0996" x="518.771" y="684.8086">Create and add industry to map</text><polygon fill="#181818" points="397.5103,716.4023,387.5103,720.4023,397.5103,724.4023,393.5103,720.4023" style="stroke:#181818;stroke-width:1.0;"/><line style="stroke:#181818;stroke-width:1.0;stroke-dasharray:2.0,2.0;" x1="391.5103" x2="593.4155" y1="720.4023" y2="720.4023"/><text fill="#000000" font-family="sans-serif" font-size="13" font-weight="bold" lengthAdjust="spacing" textLength="14.46" x="403.5103" y="715.1396">14</text><text fill="#000000" font-family="sans-serif" font-size="13" lengthAdjust="spacing" textLength="147.0308" x="421.9702" y="715.1396">success + industryDetails</text><polygon fill="#181818" points="42.2861,747.6934,32.2861,751.6934,42.2861,755.6934,38.2861,751.6934" style="stroke:#181818;stroke-width:1.0;"/><line style="stroke:#181818;stroke-width:1.0;stroke-dasharray:2.0,2.0;" x1="36.2861" x2="375.5103" y1="751.6934" y2="751.6934"/><text fill="#000000" font-family="sans-serif" font-size="13" font-weight="bold" lengthAdjust="spacing" textLength="14.46" x="48.2861" y="746.4307">15</text><text fill="#000000" font-family="sans-serif" font-size="13" lengthAdjust="spacing" textLength="155.3589" x="66.7461" y="746.4307">displays operation success</text><polygon fill="#181818" points="37.2861,778.9844,27.2861,782.9844,37.2861,786.9844,33.2861,782.9844" style="stroke:#181818;stroke-width:1.0;"/><line style="stroke:#181818;stroke-width:1.0;stroke-dasharray:2.0,2.0;" x1="31.2861" x2="380.5103" y1="782.9844" y2="782.9844"/><text fill="#000000" font-family="sans-serif" font-size="13" font-weight="bold" lengthAdjust="spacing" textLength="14.46" x="43.2861" y="777.7217">16</text><text fill="#000000" font-family="sans-serif" font-size="13" lengthAdjust="spacing" textLength="174.1416" x="61.7461" y="777.7217">shows industry details on map</text><!--SRC=[dLJBRjim4BphAnO-nQaD53tgK22mYy10JdLTDCSDkRO9KwH2KaxrzrqzJIMIOvGNIzREx71sI7zI9aU76MJMM75qDYC8hg34zrzo52Syq3QKci2H26WEEYxmHvJsJPa3x55xIX8iWZL5za8kIO8A3DlIQq564AmL7XYJmcxxzHiiuK5AG0FAoC87Lp9M1EjWzaCg_fq1Ug3wCU5UGGcLemamInctQJ6xJLsssqoNhAm9pcfD3UFgry-dkfCwOw2kGGAyccTOVcS-IBduv25OG9RPQuHszGJSkl-pMWnbWghB_NqAmX4NtSsdQb8uK6YLAl8FPrGQNtI5Y05zjrfz_CNH7koPtCSlZnG0Exvk0znZK4H63jwhLJ71idOXlJ1SH3uf7mOWIKDzIRnFvcbyJJahziq3QXsf6KY4S2JGCNr4tHaTJuavINCgVJyW26LEerEQ4EMgTFgOGM90k3EOqMQzW3ySKGdF8AnrKXacy_FRvLLgfgaNy3p_L6iNb3DgnVXk46LFytS1vRMut9YNtot_KEs7j5oFYo-48E__AnxrUTkpTyAQlN8P1cNDxLQtA3-XVypUznOtftN2u1jjNDKSTMZYYwEwI3BChzjvPMuJHiENliEQ0fya_nurwVx81AJokSRIWyt9rVQF3dJqM5zSRtG0WwiDJmqmUctlu7y0]--></g></svg>