<svg xmlns="http://www.w3.org/2000/svg" xmlns:xlink="http://www.w3.org/1999/xlink" contentStyleType="text/css" height="1071px" preserveAspectRatio="none" style="width:1018px;height:1071px;background:#FFFFFF;" version="1.1" viewBox="0 0 1018 1071" width="1018px" zoomAndPan="magnify"><title>Class Diagram: US02 - Add an Industry</title><defs/><g><text fill="#000000" font-family="sans-serif" font-size="14" font-weight="bold" lengthAdjust="spacing" textLength="259.8408" x="372.4087" y="25.1074">Class Diagram: US02 - Add an Industry</text><!--class AddIndustryUI--><g id="elem_AddIndustryUI"><rect codeLine="7" fill="#F1F1F1" height="48" id="AddIndustryUI" rx="2.5" ry="2.5" style="stroke:#181818;stroke-width:0.5;" width="120.71" x="666.5" y="46.6211"/><ellipse cx="681.5" cy="62.6211" fill="#ADD1B2" rx="11" ry="11" style="stroke:#181818;stroke-width:1.0;"/><path d="M684.2656,58.4961 Q684.4219,58.2773 684.6094,58.168 Q684.7969,58.0586 685.0156,58.0586 Q685.3906,58.0586 685.625,58.3242 Q685.8594,58.5742 685.8594,59.1836 L685.8594,60.6367 Q685.8594,61.2461 685.625,61.5117 Q685.3906,61.7773 685.0156,61.7773 Q684.6719,61.7773 684.4688,61.5742 Q684.2656,61.3867 684.1563,60.8711 Q684.1094,60.5117 683.9219,60.3242 Q683.5938,59.9492 682.9844,59.7305 Q682.375,59.5117 681.75,59.5117 Q680.9844,59.5117 680.3438,59.8398 Q679.7188,60.168 679.2188,60.918 Q678.7344,61.668 678.7344,62.6992 L678.7344,63.793 Q678.7344,65.0273 679.625,65.8555 Q680.5156,66.668 682.1094,66.668 Q683.0469,66.668 683.7031,66.418 Q684.0938,66.2617 684.5156,65.8242 Q684.7813,65.5586 684.9219,65.4805 Q685.0781,65.4023 685.2813,65.4023 Q685.6094,65.4023 685.8594,65.668 Q686.125,65.918 686.125,66.2617 Q686.125,66.6055 685.7813,67.0117 Q685.2813,67.5898 684.4844,67.918 Q683.4063,68.3711 682.1094,68.3711 Q680.5938,68.3711 679.3906,67.7461 Q678.4063,67.2461 677.7188,66.1836 Q677.0313,65.1055 677.0313,63.8242 L677.0313,62.668 Q677.0313,61.3398 677.6406,60.1992 Q678.2656,59.043 679.3594,58.4336 Q680.4531,57.8086 681.6875,57.8086 Q682.4219,57.8086 683.0625,57.9805 Q683.7188,58.1367 684.2656,58.4961 Z " fill="#000000"/><text fill="#000000" font-family="sans-serif" font-size="14" lengthAdjust="spacing" textLength="88.71" x="695.5" y="68.418">AddIndustryUI</text><line style="stroke:#181818;stroke-width:0.5;" x1="667.5" x2="786.21" y1="78.6211" y2="78.6211"/><line style="stroke:#181818;stroke-width:0.5;" x1="667.5" x2="786.21" y1="86.6211" y2="86.6211"/></g><!--class AddIndustryController--><g id="elem_AddIndustryController"><rect codeLine="10" fill="#F1F1F1" height="122.4844" id="AddIndustryController" rx="2.5" ry="2.5" style="stroke:#181818;stroke-width:0.5;" width="267.6299" x="371" y="173.6211"/><ellipse cx="432.8652" cy="189.6211" fill="#ADD1B2" rx="11" ry="11" style="stroke:#181818;stroke-width:1.0;"/><path d="M435.6309,185.4961 Q435.7871,185.2773 435.9746,185.168 Q436.1621,185.0586 436.3809,185.0586 Q436.7559,185.0586 436.9902,185.3242 Q437.2246,185.5742 437.2246,186.1836 L437.2246,187.6367 Q437.2246,188.2461 436.9902,188.5117 Q436.7559,188.7773 436.3809,188.7773 Q436.0371,188.7773 435.834,188.5742 Q435.6309,188.3867 435.5215,187.8711 Q435.4746,187.5117 435.2871,187.3242 Q434.959,186.9492 434.3496,186.7305 Q433.7402,186.5117 433.1152,186.5117 Q432.3496,186.5117 431.709,186.8398 Q431.084,187.168 430.584,187.918 Q430.0996,188.668 430.0996,189.6992 L430.0996,190.793 Q430.0996,192.0273 430.9902,192.8555 Q431.8809,193.668 433.4746,193.668 Q434.4121,193.668 435.0684,193.418 Q435.459,193.2617 435.8809,192.8242 Q436.1465,192.5586 436.2871,192.4805 Q436.4434,192.4023 436.6465,192.4023 Q436.9746,192.4023 437.2246,192.668 Q437.4902,192.918 437.4902,193.2617 Q437.4902,193.6055 437.1465,194.0117 Q436.6465,194.5898 435.8496,194.918 Q434.7715,195.3711 433.4746,195.3711 Q431.959,195.3711 430.7559,194.7461 Q429.7715,194.2461 429.084,193.1836 Q428.3965,192.1055 428.3965,190.8242 L428.3965,189.668 Q428.3965,188.3398 429.0059,187.1992 Q429.6309,186.043 430.7246,185.4336 Q431.8184,184.8086 433.0527,184.8086 Q433.7871,184.8086 434.4277,184.9805 Q435.084,185.1367 435.6309,185.4961 Z " fill="#000000"/><text fill="#000000" font-family="sans-serif" font-size="14" lengthAdjust="spacing" textLength="135.3994" x="453.3652" y="195.418">AddIndustryController</text><line style="stroke:#181818;stroke-width:0.5;" x1="372" x2="637.6299" y1="205.6211" y2="205.6211"/><line style="stroke:#181818;stroke-width:0.5;" x1="372" x2="637.6299" y1="213.6211" y2="213.6211"/><text fill="#000000" font-family="sans-serif" font-size="14" lengthAdjust="spacing" textLength="56.4102" x="377" y="232.7285">+create()</text><text fill="#000000" font-family="sans-serif" font-size="14" lengthAdjust="spacing" textLength="254.0781" x="377" y="251.3496">+getAvailableIndustries() : List&lt;Industry&gt;</text><text fill="#000000" font-family="sans-serif" font-size="14" lengthAdjust="spacing" textLength="255.6299" x="377" y="269.9707">+validateIndustry(nameID, x, y) : boolean</text><text fill="#000000" font-family="sans-serif" font-size="14" lengthAdjust="spacing" textLength="246.2578" x="377" y="288.5918">+createIndustry(nameID, x, y) : Industry</text></g><!--class IndustryRepository--><g id="elem_IndustryRepository"><rect codeLine="17" fill="#F1F1F1" height="66.6211" id="IndustryRepository" rx="2.5" ry="2.5" style="stroke:#181818;stroke-width:0.5;" width="266.0781" x="93" y="566.6211"/><ellipse cx="163.4307" cy="582.6211" fill="#ADD1B2" rx="11" ry="11" style="stroke:#181818;stroke-width:1.0;"/><path d="M166.1963,578.4961 Q166.3525,578.2773 166.54,578.168 Q166.7275,578.0586 166.9463,578.0586 Q167.3213,578.0586 167.5557,578.3242 Q167.79,578.5742 167.79,579.1836 L167.79,580.6367 Q167.79,581.2461 167.5557,581.5117 Q167.3213,581.7773 166.9463,581.7773 Q166.6025,581.7773 166.3994,581.5742 Q166.1963,581.3867 166.0869,580.8711 Q166.04,580.5117 165.8525,580.3242 Q165.5244,579.9492 164.915,579.7305 Q164.3057,579.5117 163.6807,579.5117 Q162.915,579.5117 162.2744,579.8398 Q161.6494,580.168 161.1494,580.918 Q160.665,581.668 160.665,582.6992 L160.665,583.793 Q160.665,585.0273 161.5557,585.8555 Q162.4463,586.668 164.04,586.668 Q164.9775,586.668 165.6338,586.418 Q166.0244,586.2617 166.4463,585.8242 Q166.7119,585.5586 166.8525,585.4805 Q167.0088,585.4023 167.2119,585.4023 Q167.54,585.4023 167.79,585.668 Q168.0557,585.918 168.0557,586.2617 Q168.0557,586.6055 167.7119,587.0117 Q167.2119,587.5898 166.415,587.918 Q165.3369,588.3711 164.04,588.3711 Q162.5244,588.3711 161.3213,587.7461 Q160.3369,587.2461 159.6494,586.1836 Q158.9619,585.1055 158.9619,583.8242 L158.9619,582.668 Q158.9619,581.3398 159.5713,580.1992 Q160.1963,579.043 161.29,578.4336 Q162.3838,577.8086 163.6182,577.8086 Q164.3525,577.8086 164.9932,577.9805 Q165.6494,578.1367 166.1963,578.4961 Z " fill="#000000"/><text fill="#000000" font-family="sans-serif" font-size="14" lengthAdjust="spacing" textLength="116.7168" x="183.9307" y="588.418">IndustryRepository</text><line style="stroke:#181818;stroke-width:0.5;" x1="94" x2="358.0781" y1="598.6211" y2="598.6211"/><line style="stroke:#181818;stroke-width:0.5;" x1="94" x2="358.0781" y1="606.6211" y2="606.6211"/><text fill="#000000" font-family="sans-serif" font-size="14" lengthAdjust="spacing" textLength="254.0781" x="99" y="625.7285">+getAvailableIndustries() : List&lt;Industry&gt;</text></g><!--class MapRepository--><g id="elem_MapRepository"><rect codeLine="21" fill="#F1F1F1" height="85.2422" id="MapRepository" rx="2.5" ry="2.5" style="stroke:#181818;stroke-width:0.5;" width="209.251" x="489.5" y="557.6211"/><ellipse cx="542.7998" cy="573.6211" fill="#ADD1B2" rx="11" ry="11" style="stroke:#181818;stroke-width:1.0;"/><path d="M545.5654,569.4961 Q545.7217,569.2773 545.9092,569.168 Q546.0967,569.0586 546.3154,569.0586 Q546.6904,569.0586 546.9248,569.3242 Q547.1592,569.5742 547.1592,570.1836 L547.1592,571.6367 Q547.1592,572.2461 546.9248,572.5117 Q546.6904,572.7773 546.3154,572.7773 Q545.9717,572.7773 545.7686,572.5742 Q545.5654,572.3867 545.4561,571.8711 Q545.4092,571.5117 545.2217,571.3242 Q544.8936,570.9492 544.2842,570.7305 Q543.6748,570.5117 543.0498,570.5117 Q542.2842,570.5117 541.6436,570.8398 Q541.0186,571.168 540.5186,571.918 Q540.0342,572.668 540.0342,573.6992 L540.0342,574.793 Q540.0342,576.0273 540.9248,576.8555 Q541.8154,577.668 543.4092,577.668 Q544.3467,577.668 545.0029,577.418 Q545.3936,577.2617 545.8154,576.8242 Q546.0811,576.5586 546.2217,576.4805 Q546.3779,576.4023 546.5811,576.4023 Q546.9092,576.4023 547.1592,576.668 Q547.4248,576.918 547.4248,577.2617 Q547.4248,577.6055 547.0811,578.0117 Q546.5811,578.5898 545.7842,578.918 Q544.7061,579.3711 543.4092,579.3711 Q541.8936,579.3711 540.6904,578.7461 Q539.7061,578.2461 539.0186,577.1836 Q538.3311,576.1055 538.3311,574.8242 L538.3311,573.668 Q538.3311,572.3398 538.9404,571.1992 Q539.5654,570.043 540.6592,569.4336 Q541.7529,568.8086 542.9873,568.8086 Q543.7217,568.8086 544.3623,568.9805 Q545.0186,569.1367 545.5654,569.4961 Z " fill="#000000"/><text fill="#000000" font-family="sans-serif" font-size="14" lengthAdjust="spacing" textLength="94.1514" x="563.2998" y="579.418">MapRepository</text><line style="stroke:#181818;stroke-width:0.5;" x1="490.5" x2="697.751" y1="589.6211" y2="589.6211"/><line style="stroke:#181818;stroke-width:0.5;" x1="490.5" x2="697.751" y1="597.6211" y2="597.6211"/><text fill="#000000" font-family="sans-serif" font-size="14" lengthAdjust="spacing" textLength="197.251" x="495.5" y="616.7285">+getCurrentMap(session) : Map</text><text fill="#000000" font-family="sans-serif" font-size="14" lengthAdjust="spacing" textLength="135.8027" x="495.5" y="635.3496">+save(map) : boolean</text></g><!--class Repositories--><g id="elem_Repositories"><rect codeLine="26" fill="#F1F1F1" height="103.8633" id="Repositories" rx="2.5" ry="2.5" style="stroke:#181818;stroke-width:0.5;" width="294.0645" x="158" y="374.6211"/><ellipse cx="261.8755" cy="390.6211" fill="#ADD1B2" rx="11" ry="11" style="stroke:#181818;stroke-width:1.0;"/><path d="M264.6411,386.4961 Q264.7974,386.2773 264.9849,386.168 Q265.1724,386.0586 265.3911,386.0586 Q265.7661,386.0586 266.0005,386.3242 Q266.2349,386.5742 266.2349,387.1836 L266.2349,388.6367 Q266.2349,389.2461 266.0005,389.5117 Q265.7661,389.7773 265.3911,389.7773 Q265.0474,389.7773 264.8442,389.5742 Q264.6411,389.3867 264.5317,388.8711 Q264.4849,388.5117 264.2974,388.3242 Q263.9692,387.9492 263.3599,387.7305 Q262.7505,387.5117 262.1255,387.5117 Q261.3599,387.5117 260.7192,387.8398 Q260.0942,388.168 259.5942,388.918 Q259.1099,389.668 259.1099,390.6992 L259.1099,391.793 Q259.1099,393.0273 260.0005,393.8555 Q260.8911,394.668 262.4849,394.668 Q263.4224,394.668 264.0786,394.418 Q264.4692,394.2617 264.8911,393.8242 Q265.1567,393.5586 265.2974,393.4805 Q265.4536,393.4023 265.6567,393.4023 Q265.9849,393.4023 266.2349,393.668 Q266.5005,393.918 266.5005,394.2617 Q266.5005,394.6055 266.1567,395.0117 Q265.6567,395.5898 264.8599,395.918 Q263.7817,396.3711 262.4849,396.3711 Q260.9692,396.3711 259.7661,395.7461 Q258.7817,395.2461 258.0942,394.1836 Q257.4067,393.1055 257.4067,391.8242 L257.4067,390.668 Q257.4067,389.3398 258.0161,388.1992 Q258.6411,387.043 259.7349,386.4336 Q260.8286,385.8086 262.063,385.8086 Q262.7974,385.8086 263.438,385.9805 Q264.0942,386.1367 264.6411,386.4961 Z " fill="#000000"/><text fill="#000000" font-family="sans-serif" font-size="14" lengthAdjust="spacing" textLength="77.8135" x="282.3755" y="396.418">Repositories</text><line style="stroke:#181818;stroke-width:0.5;" x1="159" x2="451.0645" y1="406.6211" y2="406.6211"/><line style="stroke:#181818;stroke-width:0.5;" x1="159" x2="451.0645" y1="414.6211" y2="414.6211"/><text fill="#000000" font-family="sans-serif" font-size="14" lengthAdjust="spacing" text-decoration="underline" textLength="179.3682" x="164" y="433.7285">+getInstance() : Repositories</text><text fill="#000000" font-family="sans-serif" font-size="14" lengthAdjust="spacing" textLength="282.0645" x="164" y="452.3496">+getIndustryRepository() : IndustryRepository</text><text fill="#000000" font-family="sans-serif" font-size="14" lengthAdjust="spacing" textLength="236.9336" x="164" y="470.9707">+getMapRepository() : MapRepository</text></g><!--class ApplicationSession--><g id="elem_ApplicationSession"><rect codeLine="32" fill="#F1F1F1" height="103.8633" id="ApplicationSession" rx="2.5" ry="2.5" style="stroke:#181818;stroke-width:0.5;" width="231.8506" x="657" y="374.6211"/><ellipse cx="709.5273" cy="390.6211" fill="#ADD1B2" rx="11" ry="11" style="stroke:#181818;stroke-width:1.0;"/><path d="M712.293,386.4961 Q712.4492,386.2773 712.6367,386.168 Q712.8242,386.0586 713.043,386.0586 Q713.418,386.0586 713.6523,386.3242 Q713.8867,386.5742 713.8867,387.1836 L713.8867,388.6367 Q713.8867,389.2461 713.6523,389.5117 Q713.418,389.7773 713.043,389.7773 Q712.6992,389.7773 712.4961,389.5742 Q712.293,389.3867 712.1836,388.8711 Q712.1367,388.5117 711.9492,388.3242 Q711.6211,387.9492 711.0117,387.7305 Q710.4023,387.5117 709.7773,387.5117 Q709.0117,387.5117 708.3711,387.8398 Q707.7461,388.168 707.2461,388.918 Q706.7617,389.668 706.7617,390.6992 L706.7617,391.793 Q706.7617,393.0273 707.6523,393.8555 Q708.543,394.668 710.1367,394.668 Q711.0742,394.668 711.7305,394.418 Q712.1211,394.2617 712.543,393.8242 Q712.8086,393.5586 712.9492,393.4805 Q713.1055,393.4023 713.3086,393.4023 Q713.6367,393.4023 713.8867,393.668 Q714.1523,393.918 714.1523,394.2617 Q714.1523,394.6055 713.8086,395.0117 Q713.3086,395.5898 712.5117,395.918 Q711.4336,396.3711 710.1367,396.3711 Q708.6211,396.3711 707.418,395.7461 Q706.4336,395.2461 705.7461,394.1836 Q705.0586,393.1055 705.0586,391.8242 L705.0586,390.668 Q705.0586,389.3398 705.668,388.1992 Q706.293,387.043 707.3867,386.4336 Q708.4805,385.8086 709.7148,385.8086 Q710.4492,385.8086 711.0898,385.9805 Q711.7461,386.1367 712.293,386.4961 Z " fill="#000000"/><text fill="#000000" font-family="sans-serif" font-size="14" lengthAdjust="spacing" textLength="118.2959" x="730.0273" y="396.418">ApplicationSession</text><line style="stroke:#181818;stroke-width:0.5;" x1="658" x2="887.8506" y1="406.6211" y2="406.6211"/><line style="stroke:#181818;stroke-width:0.5;" x1="658" x2="887.8506" y1="414.6211" y2="414.6211"/><text fill="#000000" font-family="sans-serif" font-size="14" lengthAdjust="spacing" text-decoration="underline" textLength="219.8506" x="663" y="433.7285">+getInstance() : ApplicationSession</text><text fill="#000000" font-family="sans-serif" font-size="14" lengthAdjust="spacing" textLength="181.6924" x="663" y="452.3496">+getCurrentSession() : Editor</text><text fill="#000000" font-family="sans-serif" font-size="14" lengthAdjust="spacing" textLength="149.7822" x="663" y="470.9707">+getCurrentMap() : Map</text></g><!--class Map--><g id="elem_Map"><rect codeLine="38" fill="#F1F1F1" height="141.1055" id="Map" rx="2.5" ry="2.5" style="stroke:#181818;stroke-width:0.5;" width="270.7539" x="360.5" y="721.6211"/><ellipse cx="478.0098" cy="737.6211" fill="#ADD1B2" rx="11" ry="11" style="stroke:#181818;stroke-width:1.0;"/><path d="M480.7754,733.4961 Q480.9316,733.2773 481.1191,733.168 Q481.3066,733.0586 481.5254,733.0586 Q481.9004,733.0586 482.1348,733.3242 Q482.3691,733.5742 482.3691,734.1836 L482.3691,735.6367 Q482.3691,736.2461 482.1348,736.5117 Q481.9004,736.7773 481.5254,736.7773 Q481.1816,736.7773 480.9785,736.5742 Q480.7754,736.3867 480.666,735.8711 Q480.6191,735.5117 480.4316,735.3242 Q480.1035,734.9492 479.4941,734.7305 Q478.8848,734.5117 478.2598,734.5117 Q477.4941,734.5117 476.8535,734.8398 Q476.2285,735.168 475.7285,735.918 Q475.2441,736.668 475.2441,737.6992 L475.2441,738.793 Q475.2441,740.0273 476.1348,740.8555 Q477.0254,741.668 478.6191,741.668 Q479.5566,741.668 480.2129,741.418 Q480.6035,741.2617 481.0254,740.8242 Q481.291,740.5586 481.4316,740.4805 Q481.5879,740.4023 481.791,740.4023 Q482.1191,740.4023 482.3691,740.668 Q482.6348,740.918 482.6348,741.2617 Q482.6348,741.6055 482.291,742.0117 Q481.791,742.5898 480.9941,742.918 Q479.916,743.3711 478.6191,743.3711 Q477.1035,743.3711 475.9004,742.7461 Q474.916,742.2461 474.2285,741.1836 Q473.541,740.1055 473.541,738.8242 L473.541,737.668 Q473.541,736.3398 474.1504,735.1992 Q474.7754,734.043 475.8691,733.4336 Q476.9629,732.8086 478.1973,732.8086 Q478.9316,732.8086 479.5723,732.9805 Q480.2285,733.1367 480.7754,733.4961 Z " fill="#000000"/><text fill="#000000" font-family="sans-serif" font-size="14" lengthAdjust="spacing" textLength="27.2344" x="498.5098" y="743.418">Map</text><line style="stroke:#181818;stroke-width:0.5;" x1="361.5" x2="630.2539" y1="753.6211" y2="753.6211"/><text fill="#000000" font-family="sans-serif" font-size="14" lengthAdjust="spacing" textLength="101.9238" x="366.5" y="772.7285">-nameID : String</text><text fill="#000000" font-family="sans-serif" font-size="14" lengthAdjust="spacing" textLength="68.4619" x="366.5" y="791.3496">-size : Size</text><text fill="#000000" font-family="sans-serif" font-size="14" lengthAdjust="spacing" textLength="164.1855" x="366.5" y="809.9707">-industries : List&lt;Industry&gt;</text><line style="stroke:#181818;stroke-width:0.5;" x1="361.5" x2="630.2539" y1="817.4844" y2="817.4844"/><text fill="#000000" font-family="sans-serif" font-size="14" lengthAdjust="spacing" textLength="219.8096" x="366.5" y="836.5918">+isCellEmpty(x: int, y: int) : boolean</text><text fill="#000000" font-family="sans-serif" font-size="14" lengthAdjust="spacing" textLength="258.7539" x="366.5" y="855.2129">+addIndustry(industry: Industry) : boolean</text></g><!--class Industry--><g id="elem_Industry"><rect codeLine="47" fill="#F1F1F1" height="122.4844" id="Industry" rx="2.5" ry="2.5" style="stroke:#181818;stroke-width:0.5;" width="297.9404" x="77" y="941.6211"/><ellipse cx="196.8203" cy="957.6211" fill="#ADD1B2" rx="11" ry="11" style="stroke:#181818;stroke-width:1.0;"/><path d="M199.5859,953.4961 Q199.7422,953.2773 199.9297,953.168 Q200.1172,953.0586 200.3359,953.0586 Q200.7109,953.0586 200.9453,953.3242 Q201.1797,953.5742 201.1797,954.1836 L201.1797,955.6367 Q201.1797,956.2461 200.9453,956.5117 Q200.7109,956.7773 200.3359,956.7773 Q199.9922,956.7773 199.7891,956.5742 Q199.5859,956.3867 199.4766,955.8711 Q199.4297,955.5117 199.2422,955.3242 Q198.9141,954.9492 198.3047,954.7305 Q197.6953,954.5117 197.0703,954.5117 Q196.3047,954.5117 195.6641,954.8398 Q195.0391,955.168 194.5391,955.918 Q194.0547,956.668 194.0547,957.6992 L194.0547,958.793 Q194.0547,960.0273 194.9453,960.8555 Q195.8359,961.668 197.4297,961.668 Q198.3672,961.668 199.0234,961.418 Q199.4141,961.2617 199.8359,960.8242 Q200.1016,960.5586 200.2422,960.4805 Q200.3984,960.4023 200.6016,960.4023 Q200.9297,960.4023 201.1797,960.668 Q201.4453,960.918 201.4453,961.2617 Q201.4453,961.6055 201.1016,962.0117 Q200.6016,962.5898 199.8047,962.918 Q198.7266,963.3711 197.4297,963.3711 Q195.9141,963.3711 194.7109,962.7461 Q193.7266,962.2461 193.0391,961.1836 Q192.3516,960.1055 192.3516,958.8242 L192.3516,957.668 Q192.3516,956.3398 192.9609,955.1992 Q193.5859,954.043 194.6797,953.4336 Q195.7734,952.8086 197.0078,952.8086 Q197.7422,952.8086 198.3828,952.9805 Q199.0391,953.1367 199.5859,953.4961 Z " fill="#000000"/><text fill="#000000" font-family="sans-serif" font-size="14" lengthAdjust="spacing" textLength="49.7998" x="217.3203" y="963.418">Industry</text><line style="stroke:#181818;stroke-width:0.5;" x1="78" x2="373.9404" y1="973.6211" y2="973.6211"/><text fill="#000000" font-family="sans-serif" font-size="14" lengthAdjust="spacing" textLength="101.9238" x="83" y="992.7285">-nameID : String</text><text fill="#000000" font-family="sans-serif" font-size="14" lengthAdjust="spacing" textLength="38.1172" x="83" y="1011.3496">-x : int</text><text fill="#000000" font-family="sans-serif" font-size="14" lengthAdjust="spacing" textLength="38.1172" x="83" y="1029.9707">-y : int</text><line style="stroke:#181818;stroke-width:0.5;" x1="78" x2="373.9404" y1="1037.4844" y2="1037.4844"/><text fill="#000000" font-family="sans-serif" font-size="14" lengthAdjust="spacing" text-decoration="underline" textLength="285.9404" x="83" y="1056.5918">+create(nameID: String, x: int, y: int) : Industry</text></g><!--class Editor--><g id="elem_Editor"><rect codeLine="54" fill="#F1F1F1" height="85.2422" id="Editor" rx="2.5" ry="2.5" style="stroke:#181818;stroke-width:0.5;" width="127.1582" x="884.5" y="557.6211"/><ellipse cx="925.8637" cy="573.6211" fill="#ADD1B2" rx="11" ry="11" style="stroke:#181818;stroke-width:1.0;"/><path d="M928.6293,569.4961 Q928.7855,569.2773 928.973,569.168 Q929.1605,569.0586 929.3793,569.0586 Q929.7543,569.0586 929.9887,569.3242 Q930.223,569.5742 930.223,570.1836 L930.223,571.6367 Q930.223,572.2461 929.9887,572.5117 Q929.7543,572.7773 929.3793,572.7773 Q929.0355,572.7773 928.8324,572.5742 Q928.6293,572.3867 928.5199,571.8711 Q928.473,571.5117 928.2855,571.3242 Q927.9574,570.9492 927.348,570.7305 Q926.7387,570.5117 926.1137,570.5117 Q925.348,570.5117 924.7074,570.8398 Q924.0824,571.168 923.5824,571.918 Q923.098,572.668 923.098,573.6992 L923.098,574.793 Q923.098,576.0273 923.9887,576.8555 Q924.8793,577.668 926.473,577.668 Q927.4105,577.668 928.0668,577.418 Q928.4574,577.2617 928.8793,576.8242 Q929.1449,576.5586 929.2855,576.4805 Q929.4418,576.4023 929.6449,576.4023 Q929.973,576.4023 930.223,576.668 Q930.4887,576.918 930.4887,577.2617 Q930.4887,577.6055 930.1449,578.0117 Q929.6449,578.5898 928.848,578.918 Q927.7699,579.3711 926.473,579.3711 Q924.9574,579.3711 923.7543,578.7461 Q922.7699,578.2461 922.0824,577.1836 Q921.3949,576.1055 921.3949,574.8242 L921.3949,573.668 Q921.3949,572.3398 922.0043,571.1992 Q922.6293,570.043 923.723,569.4336 Q924.8168,568.8086 926.0512,568.8086 Q926.7855,568.8086 927.4262,568.9805 Q928.0824,569.1367 928.6293,569.4961 Z " fill="#000000"/><text fill="#000000" font-family="sans-serif" font-size="14" lengthAdjust="spacing" textLength="36.5723" x="945.7223" y="579.418">Editor</text><line style="stroke:#181818;stroke-width:0.5;" x1="885.5" x2="1010.6582" y1="589.6211" y2="589.6211"/><text fill="#000000" font-family="sans-serif" font-size="14" lengthAdjust="spacing" textLength="115.1582" x="890.5" y="608.7285">-username : String</text><text fill="#000000" font-family="sans-serif" font-size="14" lengthAdjust="spacing" textLength="112.8203" x="890.5" y="627.3496">-password : String</text><line style="stroke:#181818;stroke-width:0.5;" x1="885.5" x2="1010.6582" y1="634.8633" y2="634.8633"/></g><!--link AddIndustryUI to AddIndustryController--><g id="link_AddIndustryUI_AddIndustryController"><path codeLine="59" d="M695.19,94.8311 C667.14,115.3011 629.8466,142.5141 592.3566,169.8741 " fill="none" id="AddIndustryUI-to-AddIndustryController" style="stroke:#181818;stroke-width:1.0;stroke-dasharray:7.0,7.0;"/><polygon fill="#181818" points="587.51,173.4111,597.1379,171.3366,591.5488,170.4636,592.4219,164.8745,587.51,173.4111" style="stroke:#181818;stroke-width:1.0;"/><text fill="#000000" font-family="sans-serif" font-size="13" lengthAdjust="spacing" textLength="27.46" x="649" y="139.6494">uses</text></g><!--link AddIndustryController to IndustryRepository--><g id="link_AddIndustryController_IndustryRepository"><path codeLine="60" d="M370.79,244.4611 C281.19,258.1711 169.45,292.0211 111,374.6211 C84.3,412.3511 93.81,435.7111 111,478.6211 C125.14,513.9211 150.5037,540.8944 176.2937,562.5344 " fill="none" id="AddIndustryController-to-IndustryRepository" style="stroke:#181818;stroke-width:1.0;stroke-dasharray:7.0,7.0;"/><polygon fill="#181818" points="180.89,566.3911,176.5667,557.5419,177.0598,563.1772,171.4244,563.6703,180.89,566.3911" style="stroke:#181818;stroke-width:1.0;"/><text fill="#000000" font-family="sans-serif" font-size="13" lengthAdjust="spacing" textLength="27.46" x="112" y="432.1494">uses</text></g><!--link AddIndustryController to MapRepository--><g id="link_AddIndustryController_MapRepository"><path codeLine="61" d="M522.94,296.0111 C525.73,305.8811 528.51,316.0211 531,325.6211 C552.17,407.2211 572.2356,497.5658 583.8356,551.3758 " fill="none" id="AddIndustryController-to-MapRepository" style="stroke:#181818;stroke-width:1.0;stroke-dasharray:7.0,7.0;"/><polygon fill="#181818" points="585.1,557.2411,587.1136,547.6003,584.0463,552.3534,579.2932,549.2861,585.1,557.2411" style="stroke:#181818;stroke-width:1.0;"/><text fill="#000000" font-family="sans-serif" font-size="13" lengthAdjust="spacing" textLength="27.46" x="568" y="432.1494">uses</text></g><!--link AddIndustryController to Repositories--><g id="link_AddIndustryController_Repositories"><path codeLine="62" d="M441.72,295.7411 C415.05,321.0711 388.6894,346.1079 363.1394,370.3879 " fill="none" id="AddIndustryController-to-Repositories" style="stroke:#181818;stroke-width:1.0;stroke-dasharray:7.0,7.0;"/><polygon fill="#181818" points="358.79,374.5211,368.0695,371.2209,362.4145,371.0768,362.5586,365.4218,358.79,374.5211" style="stroke:#181818;stroke-width:1.0;"/><text fill="#000000" font-family="sans-serif" font-size="13" lengthAdjust="spacing" textLength="27.46" x="406" y="340.6494">uses</text></g><!--link AddIndustryController to ApplicationSession--><g id="link_AddIndustryController_ApplicationSession"><path codeLine="63" d="M589.8,295.7411 C625.53,321.0711 661.7857,346.7705 696.0257,371.0505 " fill="none" id="AddIndustryController-to-ApplicationSession" style="stroke:#181818;stroke-width:1.0;stroke-dasharray:7.0,7.0;"/><polygon fill="#181818" points="700.92,374.5211,695.8922,366.0522,696.8414,371.6289,691.2647,372.578,700.92,374.5211" style="stroke:#181818;stroke-width:1.0;"/><text fill="#000000" font-family="sans-serif" font-size="13" lengthAdjust="spacing" textLength="27.46" x="656" y="340.6494">uses</text></g><!--link AddIndustryController to Map--><g id="link_AddIndustryController_Map"><path codeLine="64" d="M508.26,295.6711 C508.37,347.5411 501.83,422.7211 469,478.6211 C457.92,497.4811 439.66,489.0011 430,508.6211 C426.27,516.2011 428.97,519.2411 430,527.6211 C438.25,594.5511 456.1625,663.1822 471.8825,715.8022 " fill="none" id="AddIndustryController-to-Map" style="stroke:#181818;stroke-width:1.0;stroke-dasharray:7.0,7.0;"/><polygon fill="#181818" points="473.6,721.5511,474.8564,711.7827,472.1688,716.7603,467.1912,714.0727,473.6,721.5511" style="stroke:#181818;stroke-width:1.0;"/><text fill="#000000" font-family="sans-serif" font-size="13" lengthAdjust="spacing" textLength="27.46" x="431" y="523.6494">uses</text></g><!--link AddIndustryController to Industry--><g id="link_AddIndustryController_Industry"><path codeLine="65" d="M370.95,259.4611 C223.15,289.6611 6,347.3511 6,425.6211 C6,425.6211 6,425.6211 6,793.1211 C6,856.5311 49.7776,903.0684 101.3776,938.1384 " fill="none" id="AddIndustryController-to-Industry" style="stroke:#181818;stroke-width:1.0;stroke-dasharray:7.0,7.0;"/><polygon fill="#181818" points="106.34,941.5111,101.1449,933.1438,102.2047,938.7005,96.648,939.7603,106.34,941.5111" style="stroke:#181818;stroke-width:1.0;"/><text fill="#000000" font-family="sans-serif" font-size="13" lengthAdjust="spacing" textLength="27.46" x="7" y="605.6494">uses</text></g><!--reverse link Map to Industry--><g id="link_Map_Industry"><path codeLine="67" d="M396.2219,870.175 C363.2619,895.625 335.79,916.8411 303.99,941.3911 " fill="none" id="Map-backto-Industry" style="stroke:#181818;stroke-width:1.0;"/><polygon fill="none" points="405.72,862.8411,398.5263,863.342,396.2219,870.175,403.4156,869.6741,405.72,862.8411" style="stroke:#181818;stroke-width:1.0;"/><polygon fill="#000000" points="362.0425,905.3224,370.9979,902.1206,367.4056,897.4682,362.0425,905.3224" style="stroke:#000000;stroke-width:1.0;"/><text fill="#000000" font-family="sans-serif" font-size="13" lengthAdjust="spacing" textLength="48.4199" x="375" y="907.6494">contains</text><text fill="#000000" font-family="sans-serif" font-size="13" lengthAdjust="spacing" textLength="7.23" x="389.512" y="884.6768">1</text><text fill="#000000" font-family="sans-serif" font-size="13" lengthAdjust="spacing" textLength="5.0591" x="307.7254" y="930.3457">*</text></g><!--link MapRepository to Map--><g id="link_MapRepository_Map"><path codeLine="68" d="M572.49,642.8211 C560.6,665.8711 548.2693,689.768 534.6493,716.188 " fill="none" id="MapRepository-to-Map" style="stroke:#181818;stroke-width:1.0;"/><polygon fill="#181818" points="531.9,721.5211,539.5793,715.3544,534.1911,717.0769,532.4686,711.6887,531.9,721.5211" style="stroke:#181818;stroke-width:1.0;"/><text fill="#000000" font-family="sans-serif" font-size="13" lengthAdjust="spacing" textLength="40.46" x="557" y="687.6494">returns</text><text fill="#000000" font-family="sans-serif" font-size="13" lengthAdjust="spacing" textLength="7.23" x="528.2658" y="710.4018">1</text></g><!--link IndustryRepository to Industry--><g id="link_IndustryRepository_Industry"><path codeLine="69" d="M226,633.8911 C226,701.1511 226,849.6211 226,935.4211 " fill="none" id="IndustryRepository-to-Industry" style="stroke:#181818;stroke-width:1.0;"/><polygon fill="#181818" points="226,941.4211,230,932.4211,226,936.4211,222,932.4211,226,941.4211" style="stroke:#181818;stroke-width:1.0;"/><text fill="#000000" font-family="sans-serif" font-size="13" lengthAdjust="spacing" textLength="49.1372" x="227" y="797.6494">provides</text><text fill="#000000" font-family="sans-serif" font-size="13" lengthAdjust="spacing" textLength="5.0591" x="220.7178" y="930.3792">*</text></g><!--link Repositories to IndustryRepository--><g id="link_Repositories_IndustryRepository"><path codeLine="71" d="M281.3,479.0811 C268.21,507.4911 254.8597,536.4712 243.4897,561.1612 " fill="none" id="Repositories-to-IndustryRepository" style="stroke:#181818;stroke-width:1.0;"/><polygon fill="#181818" points="240.98,566.6111,248.3779,560.1094,243.0714,562.0695,241.1113,556.7631,240.98,566.6111" style="stroke:#181818;stroke-width:1.0;"/><polygon fill="#000000" points="268.908,522.8079,275.3618,515.8222,270.0231,513.363,268.908,522.8079" style="stroke:#000000;stroke-width:1.0;"/><text fill="#000000" font-family="sans-serif" font-size="13" lengthAdjust="spacing" textLength="49.1372" x="280" y="523.6494">provides</text></g><!--link Repositories to MapRepository--><g id="link_Repositories_MapRepository"><path codeLine="72" d="M413.02,478.6911 C431.3,488.1611 449.89,498.3311 467,508.6211 C491.59,523.4111 512.7544,537.9326 534.7744,554.0126 " fill="none" id="Repositories-to-MapRepository" style="stroke:#181818;stroke-width:1.0;"/><polygon fill="#181818" points="539.62,557.5511,534.7106,549.0131,535.582,554.6024,529.9927,555.4738,539.62,557.5511" style="stroke:#181818;stroke-width:1.0;"/><polygon fill="#000000" points="505.2521,520.8971,499.1061,513.6392,496.0138,518.6378,505.2521,520.8971" style="stroke:#000000;stroke-width:1.0;"/><text fill="#000000" font-family="sans-serif" font-size="13" lengthAdjust="spacing" textLength="49.1372" x="510" y="523.6494">provides</text></g><!--link ApplicationSession to Editor--><g id="link_ApplicationSession_Editor"><path codeLine="74" d="M823.64,478.7311 C839.38,494.4911 856.84,511.8411 873,527.6211 C882.91,537.3011 889.3124,543.4756 899.4724,553.1856 " fill="none" id="ApplicationSession-to-Editor" style="stroke:#181818;stroke-width:1.0;"/><polygon fill="#181818" points="903.81,557.3311,900.0672,548.2211,900.1953,553.8765,894.5399,554.0046,903.81,557.3311" style="stroke:#181818;stroke-width:1.0;"/><polygon fill="#000000" points="881.5678,521.7696,877.1726,513.3355,873.0546,517.5297,881.5678,521.7696" style="stroke:#000000;stroke-width:1.0;"/><text fill="#000000" font-family="sans-serif" font-size="13" lengthAdjust="spacing" textLength="31.0781" x="887" y="523.6494">holds</text></g><!--link ApplicationSession to Map--><g id="link_ApplicationSession_Map"><path codeLine="75" d="M769.58,478.8311 C764.26,525.3111 750.69,593.8411 716,642.6211 C693.9,673.7011 668.0485,696.808 636.4885,718.448 " fill="none" id="ApplicationSession-to-Map" style="stroke:#181818;stroke-width:1.0;"/><polygon fill="#181818" points="631.54,721.8411,641.2247,720.0505,635.6637,719.0136,636.7007,713.4526,631.54,721.8411" style="stroke:#181818;stroke-width:1.0;"/><polygon fill="#000000" points="755.5722,604.6376,762.5334,598.1574,757.3949,595.3033,755.5722,604.6376" style="stroke:#000000;stroke-width:1.0;"/><text fill="#000000" font-family="sans-serif" font-size="13" lengthAdjust="spacing" textLength="65.749" x="767" y="605.6494">currentMap</text></g><!--link Editor to AddIndustryUI--><g id="link_Editor_AddIndustryUI"><path codeLine="77" d="M944.83,557.3911 C940.33,511.4111 929.93,435.8411 907,374.6211 C864.83,262.0311 784.9413,148.5676 748.4113,99.6776 " fill="none" id="Editor-to-AddIndustryUI" style="stroke:#181818;stroke-width:1.0;stroke-dasharray:7.0,7.0;"/><polygon fill="#181818" points="744.82,94.8711,747.0027,104.475,747.8128,98.8765,753.4113,99.6866,744.82,94.8711" style="stroke:#181818;stroke-width:1.0;"/><polygon fill="#000000" points="897.0282,330.6718,897.8944,340.1428,903.2959,337.8249,897.0282,330.6718" style="stroke:#000000;stroke-width:1.0;"/><text fill="#000000" font-family="sans-serif" font-size="13" lengthAdjust="spacing" textLength="75.8608" x="908" y="340.6494">interacts with</text></g><!--SRC=[ZLJBRjim4BppAnO-AMqKf3qQXG73oS50UwcH3rXBh4o49WMIVgX1_hrBYQ8aIwwjYy3bxEnhblPTg18Dxg74x1qBld6Lv61uvb0LaZCR0NQ7kJu9LS0VbBP_aqcqTkcS4Tk3u-jCgutuo-6PCISSiQtyFRm8B0WzXxVDytT8OPddW0hMAZzOPoh6QXflRarlQ_XWdnCNAwsSqL9oGm2WxojaXgFZoKCu5jmjZoWaRYKFNeBRv07cy5DOzwDbMWJy4QN8YQ2r9mhtVFto2ET7gBpNLcl9KGsYNGN7ccBohUKtBxKLJfigPdv_gf7j5vRJHAk3CLmvkayijrPevMde620MZppPOzclAB96IWeVIJ-iGoUoJy- -LdHG6QzpwwEx1CPr9ls6TEREPL1C4lBj0Ji1bAKK6ML3-cgAkvtbs6VKh62luQ-vZpdPpxQH_I64-2aq0Y34XeQdYc2rVWl8HhzW4N6-u-c6gCAkk9Il-z9LoNbE7ev4LV_7CiHk9P90NNNDdXnoUpbkNTYWffIs4jBqA8Uexl_LVeOQ7qvLECKqcaR7_XqiDvxdagKax4cRlBCJm_25U7fQN7aQvfxMikbBxpQnb3TzXgjt4pxOgPle2ONVaz3zbRP8vhrctsQWqnHcNsPz03tV3eMoi633OjDqKViq4Grt1wCicsXY3HoIbaOVHUuZ3phYaPDJQF6KnCZXSWGzB9lee7S9Sfl3JilS0w_WcjAokFMUClXUw8oKLqkQ6yoSXPDmEmB_0m00]--></g></svg>