<svg xmlns="http://www.w3.org/2000/svg" xmlns:xlink="http://www.w3.org/1999/xlink" contentStyleType="text/css" height="1440px" preserveAspectRatio="none" style="width:1128px;height:1440px;background:#FFFFFF;" version="1.1" viewBox="0 0 1128 1440" width="1128px" zoomAndPan="magnify"><title>Class Diagram: US02 - Add an Industry</title><defs/><g><text fill="#000000" font-family="sans-serif" font-size="14" font-weight="bold" lengthAdjust="spacing" textLength="259.8408" x="427.498" y="25.1074">Class Diagram: US02 - Add an Industry</text><!--class AddIndustryUI--><g id="elem_AddIndustryUI"><rect codeLine="7" fill="#F1F1F1" height="48" id="AddIndustryUI" rx="2.5" ry="2.5" style="stroke:#181818;stroke-width:0.5;" width="120.71" x="818.5" y="46.6211"/><ellipse cx="833.5" cy="62.6211" fill="#ADD1B2" rx="11" ry="11" style="stroke:#181818;stroke-width:1.0;"/><path d="M836.2656,58.4961 Q836.4219,58.2773 836.6094,58.168 Q836.7969,58.0586 837.0156,58.0586 Q837.3906,58.0586 837.625,58.3242 Q837.8594,58.5742 837.8594,59.1836 L837.8594,60.6367 Q837.8594,61.2461 837.625,61.5117 Q837.3906,61.7773 837.0156,61.7773 Q836.6719,61.7773 836.4688,61.5742 Q836.2656,61.3867 836.1563,60.8711 Q836.1094,60.5117 835.9219,60.3242 Q835.5938,59.9492 834.9844,59.7305 Q834.375,59.5117 833.75,59.5117 Q832.9844,59.5117 832.3438,59.8398 Q831.7188,60.168 831.2188,60.918 Q830.7344,61.668 830.7344,62.6992 L830.7344,63.793 Q830.7344,65.0273 831.625,65.8555 Q832.5156,66.668 834.1094,66.668 Q835.0469,66.668 835.7031,66.418 Q836.0938,66.2617 836.5156,65.8242 Q836.7813,65.5586 836.9219,65.4805 Q837.0781,65.4023 837.2813,65.4023 Q837.6094,65.4023 837.8594,65.668 Q838.125,65.918 838.125,66.2617 Q838.125,66.6055 837.7813,67.0117 Q837.2813,67.5898 836.4844,67.918 Q835.4063,68.3711 834.1094,68.3711 Q832.5938,68.3711 831.3906,67.7461 Q830.4063,67.2461 829.7188,66.1836 Q829.0313,65.1055 829.0313,63.8242 L829.0313,62.668 Q829.0313,61.3398 829.6406,60.1992 Q830.2656,59.043 831.3594,58.4336 Q832.4531,57.8086 833.6875,57.8086 Q834.4219,57.8086 835.0625,57.9805 Q835.7188,58.1367 836.2656,58.4961 Z " fill="#000000"/><text fill="#000000" font-family="sans-serif" font-size="14" lengthAdjust="spacing" textLength="88.71" x="847.5" y="68.418">AddIndustryUI</text><line style="stroke:#181818;stroke-width:0.5;" x1="819.5" x2="938.21" y1="78.6211" y2="78.6211"/><line style="stroke:#181818;stroke-width:0.5;" x1="819.5" x2="938.21" y1="86.6211" y2="86.6211"/></g><!--class AddIndustryController--><g id="elem_AddIndustryController"><rect codeLine="10" fill="#F1F1F1" height="159.7266" id="AddIndustryController" rx="2.5" ry="2.5" style="stroke:#181818;stroke-width:0.5;" width="269.1953" x="580.5" y="173.6211"/><ellipse cx="643.1479" cy="189.6211" fill="#ADD1B2" rx="11" ry="11" style="stroke:#181818;stroke-width:1.0;"/><path d="M645.9136,185.4961 Q646.0698,185.2773 646.2573,185.168 Q646.4448,185.0586 646.6636,185.0586 Q647.0386,185.0586 647.2729,185.3242 Q647.5073,185.5742 647.5073,186.1836 L647.5073,187.6367 Q647.5073,188.2461 647.2729,188.5117 Q647.0386,188.7773 646.6636,188.7773 Q646.3198,188.7773 646.1167,188.5742 Q645.9136,188.3867 645.8042,187.8711 Q645.7573,187.5117 645.5698,187.3242 Q645.2417,186.9492 644.6323,186.7305 Q644.0229,186.5117 643.3979,186.5117 Q642.6323,186.5117 641.9917,186.8398 Q641.3667,187.168 640.8667,187.918 Q640.3823,188.668 640.3823,189.6992 L640.3823,190.793 Q640.3823,192.0273 641.2729,192.8555 Q642.1636,193.668 643.7573,193.668 Q644.6948,193.668 645.3511,193.418 Q645.7417,193.2617 646.1636,192.8242 Q646.4292,192.5586 646.5698,192.4805 Q646.7261,192.4023 646.9292,192.4023 Q647.2573,192.4023 647.5073,192.668 Q647.7729,192.918 647.7729,193.2617 Q647.7729,193.6055 647.4292,194.0117 Q646.9292,194.5898 646.1323,194.918 Q645.0542,195.3711 643.7573,195.3711 Q642.2417,195.3711 641.0386,194.7461 Q640.0542,194.2461 639.3667,193.1836 Q638.6792,192.1055 638.6792,190.8242 L638.6792,189.668 Q638.6792,188.3398 639.2886,187.1992 Q639.9136,186.043 641.0073,185.4336 Q642.1011,184.8086 643.3354,184.8086 Q644.0698,184.8086 644.7104,184.9805 Q645.3667,185.1367 645.9136,185.4961 Z " fill="#000000"/><text fill="#000000" font-family="sans-serif" font-size="14" lengthAdjust="spacing" textLength="135.3994" x="663.6479" y="195.418">AddIndustryController</text><line style="stroke:#181818;stroke-width:0.5;" x1="581.5" x2="848.6953" y1="205.6211" y2="205.6211"/><line style="stroke:#181818;stroke-width:0.5;" x1="581.5" x2="848.6953" y1="213.6211" y2="213.6211"/><text fill="#000000" font-family="sans-serif" font-size="14" lengthAdjust="spacing" textLength="56.4102" x="586.5" y="232.7285">+create()</text><text fill="#000000" font-family="sans-serif" font-size="14" lengthAdjust="spacing" textLength="254.0781" x="586.5" y="251.3496">+getAvailableIndustries() : List&lt;Industry&gt;</text><text fill="#000000" font-family="sans-serif" font-size="14" lengthAdjust="spacing" textLength="255.6299" x="586.5" y="269.9707">+validateIndustry(nameID, x, y) : boolean</text><text fill="#000000" font-family="sans-serif" font-size="14" lengthAdjust="spacing" textLength="198.8369" x="586.5" y="288.5918">+validatePosition(x, y) : boolean</text><text fill="#000000" font-family="sans-serif" font-size="14" lengthAdjust="spacing" textLength="257.1953" x="586.5" y="307.2129">+validateIndustryType(nameID) : boolean</text><text fill="#000000" font-family="sans-serif" font-size="14" lengthAdjust="spacing" textLength="246.2578" x="586.5" y="325.834">+createIndustry(nameID, x, y) : Industry</text></g><!--class IndustryRepository--><g id="elem_IndustryRepository"><rect codeLine="19" fill="#F1F1F1" height="85.2422" id="IndustryRepository" rx="2.5" ry="2.5" style="stroke:#181818;stroke-width:0.5;" width="266.0781" x="7" y="595.6211"/><ellipse cx="77.4307" cy="611.6211" fill="#ADD1B2" rx="11" ry="11" style="stroke:#181818;stroke-width:1.0;"/><path d="M80.1963,607.4961 Q80.3525,607.2773 80.54,607.168 Q80.7275,607.0586 80.9463,607.0586 Q81.3213,607.0586 81.5557,607.3242 Q81.79,607.5742 81.79,608.1836 L81.79,609.6367 Q81.79,610.2461 81.5557,610.5117 Q81.3213,610.7773 80.9463,610.7773 Q80.6025,610.7773 80.3994,610.5742 Q80.1963,610.3867 80.0869,609.8711 Q80.04,609.5117 79.8525,609.3242 Q79.5244,608.9492 78.915,608.7305 Q78.3057,608.5117 77.6807,608.5117 Q76.915,608.5117 76.2744,608.8398 Q75.6494,609.168 75.1494,609.918 Q74.665,610.668 74.665,611.6992 L74.665,612.793 Q74.665,614.0273 75.5557,614.8555 Q76.4463,615.668 78.04,615.668 Q78.9775,615.668 79.6338,615.418 Q80.0244,615.2617 80.4463,614.8242 Q80.7119,614.5586 80.8525,614.4805 Q81.0088,614.4023 81.2119,614.4023 Q81.54,614.4023 81.79,614.668 Q82.0557,614.918 82.0557,615.2617 Q82.0557,615.6055 81.7119,616.0117 Q81.2119,616.5898 80.415,616.918 Q79.3369,617.3711 78.04,617.3711 Q76.5244,617.3711 75.3213,616.7461 Q74.3369,616.2461 73.6494,615.1836 Q72.9619,614.1055 72.9619,612.8242 L72.9619,611.668 Q72.9619,610.3398 73.5713,609.1992 Q74.1963,608.043 75.29,607.4336 Q76.3838,606.8086 77.6182,606.8086 Q78.3525,606.8086 78.9932,606.9805 Q79.6494,607.1367 80.1963,607.4961 Z " fill="#000000"/><text fill="#000000" font-family="sans-serif" font-size="14" lengthAdjust="spacing" textLength="116.7168" x="97.9307" y="617.418">IndustryRepository</text><line style="stroke:#181818;stroke-width:0.5;" x1="8" x2="272.0781" y1="627.6211" y2="627.6211"/><line style="stroke:#181818;stroke-width:0.5;" x1="8" x2="272.0781" y1="635.6211" y2="635.6211"/><text fill="#000000" font-family="sans-serif" font-size="14" lengthAdjust="spacing" textLength="254.0781" x="13" y="654.7285">+getAvailableIndustries() : List&lt;Industry&gt;</text><text fill="#000000" font-family="sans-serif" font-size="14" lengthAdjust="spacing" textLength="215.168" x="13" y="673.3496">+save(industry: Industry) : boolean</text></g><!--class MapRepository--><g id="elem_MapRepository"><rect codeLine="24" fill="#F1F1F1" height="85.2422" id="MapRepository" rx="2.5" ry="2.5" style="stroke:#181818;stroke-width:0.5;" width="209.251" x="308.5" y="595.6211"/><ellipse cx="361.7998" cy="611.6211" fill="#ADD1B2" rx="11" ry="11" style="stroke:#181818;stroke-width:1.0;"/><path d="M364.5654,607.4961 Q364.7217,607.2773 364.9092,607.168 Q365.0967,607.0586 365.3154,607.0586 Q365.6904,607.0586 365.9248,607.3242 Q366.1592,607.5742 366.1592,608.1836 L366.1592,609.6367 Q366.1592,610.2461 365.9248,610.5117 Q365.6904,610.7773 365.3154,610.7773 Q364.9717,610.7773 364.7686,610.5742 Q364.5654,610.3867 364.4561,609.8711 Q364.4092,609.5117 364.2217,609.3242 Q363.8936,608.9492 363.2842,608.7305 Q362.6748,608.5117 362.0498,608.5117 Q361.2842,608.5117 360.6436,608.8398 Q360.0186,609.168 359.5186,609.918 Q359.0342,610.668 359.0342,611.6992 L359.0342,612.793 Q359.0342,614.0273 359.9248,614.8555 Q360.8154,615.668 362.4092,615.668 Q363.3467,615.668 364.0029,615.418 Q364.3936,615.2617 364.8154,614.8242 Q365.0811,614.5586 365.2217,614.4805 Q365.3779,614.4023 365.5811,614.4023 Q365.9092,614.4023 366.1592,614.668 Q366.4248,614.918 366.4248,615.2617 Q366.4248,615.6055 366.0811,616.0117 Q365.5811,616.5898 364.7842,616.918 Q363.7061,617.3711 362.4092,617.3711 Q360.8936,617.3711 359.6904,616.7461 Q358.7061,616.2461 358.0186,615.1836 Q357.3311,614.1055 357.3311,612.8242 L357.3311,611.668 Q357.3311,610.3398 357.9404,609.1992 Q358.5654,608.043 359.6592,607.4336 Q360.7529,606.8086 361.9873,606.8086 Q362.7217,606.8086 363.3623,606.9805 Q364.0186,607.1367 364.5654,607.4961 Z " fill="#000000"/><text fill="#000000" font-family="sans-serif" font-size="14" lengthAdjust="spacing" textLength="94.1514" x="382.2998" y="617.418">MapRepository</text><line style="stroke:#181818;stroke-width:0.5;" x1="309.5" x2="516.751" y1="627.6211" y2="627.6211"/><line style="stroke:#181818;stroke-width:0.5;" x1="309.5" x2="516.751" y1="635.6211" y2="635.6211"/><text fill="#000000" font-family="sans-serif" font-size="14" lengthAdjust="spacing" textLength="197.251" x="314.5" y="654.7285">+getCurrentMap(session) : Map</text><text fill="#000000" font-family="sans-serif" font-size="14" lengthAdjust="spacing" textLength="135.8027" x="314.5" y="673.3496">+save(map) : boolean</text></g><!--class Repositories--><g id="elem_Repositories"><rect codeLine="29" fill="#F1F1F1" height="103.8633" id="Repositories" rx="2.5" ry="2.5" style="stroke:#181818;stroke-width:0.5;" width="294.0645" x="171" y="412.6211"/><ellipse cx="274.8755" cy="428.6211" fill="#ADD1B2" rx="11" ry="11" style="stroke:#181818;stroke-width:1.0;"/><path d="M277.6411,424.4961 Q277.7974,424.2773 277.9849,424.168 Q278.1724,424.0586 278.3911,424.0586 Q278.7661,424.0586 279.0005,424.3242 Q279.2349,424.5742 279.2349,425.1836 L279.2349,426.6367 Q279.2349,427.2461 279.0005,427.5117 Q278.7661,427.7773 278.3911,427.7773 Q278.0474,427.7773 277.8442,427.5742 Q277.6411,427.3867 277.5317,426.8711 Q277.4849,426.5117 277.2974,426.3242 Q276.9692,425.9492 276.3599,425.7305 Q275.7505,425.5117 275.1255,425.5117 Q274.3599,425.5117 273.7192,425.8398 Q273.0942,426.168 272.5942,426.918 Q272.1099,427.668 272.1099,428.6992 L272.1099,429.793 Q272.1099,431.0273 273.0005,431.8555 Q273.8911,432.668 275.4849,432.668 Q276.4224,432.668 277.0786,432.418 Q277.4692,432.2617 277.8911,431.8242 Q278.1567,431.5586 278.2974,431.4805 Q278.4536,431.4023 278.6567,431.4023 Q278.9849,431.4023 279.2349,431.668 Q279.5005,431.918 279.5005,432.2617 Q279.5005,432.6055 279.1567,433.0117 Q278.6567,433.5898 277.8599,433.918 Q276.7817,434.3711 275.4849,434.3711 Q273.9692,434.3711 272.7661,433.7461 Q271.7817,433.2461 271.0942,432.1836 Q270.4067,431.1055 270.4067,429.8242 L270.4067,428.668 Q270.4067,427.3398 271.0161,426.1992 Q271.6411,425.043 272.7349,424.4336 Q273.8286,423.8086 275.063,423.8086 Q275.7974,423.8086 276.438,423.9805 Q277.0942,424.1367 277.6411,424.4961 Z " fill="#000000"/><text fill="#000000" font-family="sans-serif" font-size="14" lengthAdjust="spacing" textLength="77.8135" x="295.3755" y="434.418">Repositories</text><line style="stroke:#181818;stroke-width:0.5;" x1="172" x2="464.0645" y1="444.6211" y2="444.6211"/><line style="stroke:#181818;stroke-width:0.5;" x1="172" x2="464.0645" y1="452.6211" y2="452.6211"/><text fill="#000000" font-family="sans-serif" font-size="14" lengthAdjust="spacing" text-decoration="underline" textLength="179.3682" x="177" y="471.7285">+getInstance() : Repositories</text><text fill="#000000" font-family="sans-serif" font-size="14" lengthAdjust="spacing" textLength="282.0645" x="177" y="490.3496">+getIndustryRepository() : IndustryRepository</text><text fill="#000000" font-family="sans-serif" font-size="14" lengthAdjust="spacing" textLength="236.9336" x="177" y="508.9707">+getMapRepository() : MapRepository</text></g><!--class ApplicationSession--><g id="elem_ApplicationSession"><rect codeLine="35" fill="#F1F1F1" height="103.8633" id="ApplicationSession" rx="2.5" ry="2.5" style="stroke:#181818;stroke-width:0.5;" width="231.8506" x="599" y="412.6211"/><ellipse cx="651.5273" cy="428.6211" fill="#ADD1B2" rx="11" ry="11" style="stroke:#181818;stroke-width:1.0;"/><path d="M654.293,424.4961 Q654.4492,424.2773 654.6367,424.168 Q654.8242,424.0586 655.043,424.0586 Q655.418,424.0586 655.6523,424.3242 Q655.8867,424.5742 655.8867,425.1836 L655.8867,426.6367 Q655.8867,427.2461 655.6523,427.5117 Q655.418,427.7773 655.043,427.7773 Q654.6992,427.7773 654.4961,427.5742 Q654.293,427.3867 654.1836,426.8711 Q654.1367,426.5117 653.9492,426.3242 Q653.6211,425.9492 653.0117,425.7305 Q652.4023,425.5117 651.7773,425.5117 Q651.0117,425.5117 650.3711,425.8398 Q649.7461,426.168 649.2461,426.918 Q648.7617,427.668 648.7617,428.6992 L648.7617,429.793 Q648.7617,431.0273 649.6523,431.8555 Q650.543,432.668 652.1367,432.668 Q653.0742,432.668 653.7305,432.418 Q654.1211,432.2617 654.543,431.8242 Q654.8086,431.5586 654.9492,431.4805 Q655.1055,431.4023 655.3086,431.4023 Q655.6367,431.4023 655.8867,431.668 Q656.1523,431.918 656.1523,432.2617 Q656.1523,432.6055 655.8086,433.0117 Q655.3086,433.5898 654.5117,433.918 Q653.4336,434.3711 652.1367,434.3711 Q650.6211,434.3711 649.418,433.7461 Q648.4336,433.2461 647.7461,432.1836 Q647.0586,431.1055 647.0586,429.8242 L647.0586,428.668 Q647.0586,427.3398 647.668,426.1992 Q648.293,425.043 649.3867,424.4336 Q650.4805,423.8086 651.7148,423.8086 Q652.4492,423.8086 653.0898,423.9805 Q653.7461,424.1367 654.293,424.4961 Z " fill="#000000"/><text fill="#000000" font-family="sans-serif" font-size="14" lengthAdjust="spacing" textLength="118.2959" x="672.0273" y="434.418">ApplicationSession</text><line style="stroke:#181818;stroke-width:0.5;" x1="600" x2="829.8506" y1="444.6211" y2="444.6211"/><line style="stroke:#181818;stroke-width:0.5;" x1="600" x2="829.8506" y1="452.6211" y2="452.6211"/><text fill="#000000" font-family="sans-serif" font-size="14" lengthAdjust="spacing" text-decoration="underline" textLength="219.8506" x="605" y="471.7285">+getInstance() : ApplicationSession</text><text fill="#000000" font-family="sans-serif" font-size="14" lengthAdjust="spacing" textLength="181.6924" x="605" y="490.3496">+getCurrentSession() : Editor</text><text fill="#000000" font-family="sans-serif" font-size="14" lengthAdjust="spacing" textLength="149.7822" x="605" y="508.9707">+getCurrentMap() : Map</text></g><!--class Map--><g id="elem_Map"><rect codeLine="41" fill="#F1F1F1" height="178.3477" id="Map" rx="2.5" ry="2.5" style="stroke:#181818;stroke-width:0.5;" width="270.7539" x="452.5" y="759.6211"/><ellipse cx="570.0098" cy="775.6211" fill="#ADD1B2" rx="11" ry="11" style="stroke:#181818;stroke-width:1.0;"/><path d="M572.7754,771.4961 Q572.9316,771.2773 573.1191,771.168 Q573.3066,771.0586 573.5254,771.0586 Q573.9004,771.0586 574.1348,771.3242 Q574.3691,771.5742 574.3691,772.1836 L574.3691,773.6367 Q574.3691,774.2461 574.1348,774.5117 Q573.9004,774.7773 573.5254,774.7773 Q573.1816,774.7773 572.9785,774.5742 Q572.7754,774.3867 572.666,773.8711 Q572.6191,773.5117 572.4316,773.3242 Q572.1035,772.9492 571.4941,772.7305 Q570.8848,772.5117 570.2598,772.5117 Q569.4941,772.5117 568.8535,772.8398 Q568.2285,773.168 567.7285,773.918 Q567.2441,774.668 567.2441,775.6992 L567.2441,776.793 Q567.2441,778.0273 568.1348,778.8555 Q569.0254,779.668 570.6191,779.668 Q571.5566,779.668 572.2129,779.418 Q572.6035,779.2617 573.0254,778.8242 Q573.291,778.5586 573.4316,778.4805 Q573.5879,778.4023 573.791,778.4023 Q574.1191,778.4023 574.3691,778.668 Q574.6348,778.918 574.6348,779.2617 Q574.6348,779.6055 574.291,780.0117 Q573.791,780.5898 572.9941,780.918 Q571.916,781.3711 570.6191,781.3711 Q569.1035,781.3711 567.9004,780.7461 Q566.916,780.2461 566.2285,779.1836 Q565.541,778.1055 565.541,776.8242 L565.541,775.668 Q565.541,774.3398 566.1504,773.1992 Q566.7754,772.043 567.8691,771.4336 Q568.9629,770.8086 570.1973,770.8086 Q570.9316,770.8086 571.5723,770.9805 Q572.2285,771.1367 572.7754,771.4961 Z " fill="#000000"/><text fill="#000000" font-family="sans-serif" font-size="14" lengthAdjust="spacing" textLength="27.2344" x="590.5098" y="781.418">Map</text><line style="stroke:#181818;stroke-width:0.5;" x1="453.5" x2="722.2539" y1="791.6211" y2="791.6211"/><text fill="#000000" font-family="sans-serif" font-size="14" lengthAdjust="spacing" textLength="101.9238" x="458.5" y="810.7285">-nameID : String</text><text fill="#000000" font-family="sans-serif" font-size="14" lengthAdjust="spacing" textLength="68.4619" x="458.5" y="829.3496">-size : Size</text><text fill="#000000" font-family="sans-serif" font-size="14" lengthAdjust="spacing" textLength="164.1855" x="458.5" y="847.9707">-industries : List&lt;Industry&gt;</text><text fill="#000000" font-family="sans-serif" font-size="14" lengthAdjust="spacing" textLength="159.5303" x="458.5" y="866.5918">-positions : List&lt;Position&gt;</text><line style="stroke:#181818;stroke-width:0.5;" x1="453.5" x2="722.2539" y1="874.1055" y2="874.1055"/><text fill="#000000" font-family="sans-serif" font-size="14" lengthAdjust="spacing" textLength="219.8096" x="458.5" y="893.2129">+isCellEmpty(x: int, y: int) : boolean</text><text fill="#000000" font-family="sans-serif" font-size="14" lengthAdjust="spacing" textLength="258.7539" x="458.5" y="911.834">+addIndustry(industry: Industry) : boolean</text><text fill="#000000" font-family="sans-serif" font-size="14" lengthAdjust="spacing" textLength="215.1543" x="458.5" y="930.4551">+getPosition(x: int, y: int) : Position</text></g><!--class Industry--><g id="elem_Industry"><rect codeLine="52" fill="#F1F1F1" height="196.9688" id="Industry" rx="2.5" ry="2.5" style="stroke:#181818;stroke-width:0.5;" width="297.9404" x="610" y="1016.6211"/><ellipse cx="729.8203" cy="1032.6211" fill="#ADD1B2" rx="11" ry="11" style="stroke:#181818;stroke-width:1.0;"/><path d="M732.5859,1028.4961 Q732.7422,1028.2773 732.9297,1028.168 Q733.1172,1028.0586 733.3359,1028.0586 Q733.7109,1028.0586 733.9453,1028.3242 Q734.1797,1028.5742 734.1797,1029.1836 L734.1797,1030.6367 Q734.1797,1031.2461 733.9453,1031.5117 Q733.7109,1031.7773 733.3359,1031.7773 Q732.9922,1031.7773 732.7891,1031.5742 Q732.5859,1031.3867 732.4766,1030.8711 Q732.4297,1030.5117 732.2422,1030.3242 Q731.9141,1029.9492 731.3047,1029.7305 Q730.6953,1029.5117 730.0703,1029.5117 Q729.3047,1029.5117 728.6641,1029.8398 Q728.0391,1030.168 727.5391,1030.918 Q727.0547,1031.668 727.0547,1032.6992 L727.0547,1033.793 Q727.0547,1035.0273 727.9453,1035.8555 Q728.8359,1036.668 730.4297,1036.668 Q731.3672,1036.668 732.0234,1036.418 Q732.4141,1036.2617 732.8359,1035.8242 Q733.1016,1035.5586 733.2422,1035.4805 Q733.3984,1035.4023 733.6016,1035.4023 Q733.9297,1035.4023 734.1797,1035.668 Q734.4453,1035.918 734.4453,1036.2617 Q734.4453,1036.6055 734.1016,1037.0117 Q733.6016,1037.5898 732.8047,1037.918 Q731.7266,1038.3711 730.4297,1038.3711 Q728.9141,1038.3711 727.7109,1037.7461 Q726.7266,1037.2461 726.0391,1036.1836 Q725.3516,1035.1055 725.3516,1033.8242 L725.3516,1032.668 Q725.3516,1031.3398 725.9609,1030.1992 Q726.5859,1029.043 727.6797,1028.4336 Q728.7734,1027.8086 730.0078,1027.8086 Q730.7422,1027.8086 731.3828,1027.9805 Q732.0391,1028.1367 732.5859,1028.4961 Z " fill="#000000"/><text fill="#000000" font-family="sans-serif" font-size="14" lengthAdjust="spacing" textLength="49.7998" x="750.3203" y="1038.418">Industry</text><line style="stroke:#181818;stroke-width:0.5;" x1="611" x2="906.9404" y1="1048.6211" y2="1048.6211"/><text fill="#000000" font-family="sans-serif" font-size="14" lengthAdjust="spacing" textLength="101.9238" x="616" y="1067.7285">-nameID : String</text><text fill="#000000" font-family="sans-serif" font-size="14" lengthAdjust="spacing" textLength="79.3652" x="616" y="1086.3496">-type : String</text><text fill="#000000" font-family="sans-serif" font-size="14" lengthAdjust="spacing" textLength="125.2754" x="616" y="1104.9707">-availabilityYear : int</text><text fill="#000000" font-family="sans-serif" font-size="14" lengthAdjust="spacing" textLength="153.3232" x="616" y="1123.5918">-productionRate : double</text><text fill="#000000" font-family="sans-serif" font-size="14" lengthAdjust="spacing" textLength="182.8818" x="616" y="1142.2129">-suppliedCargo : List&lt;Cargo&gt;</text><text fill="#000000" font-family="sans-serif" font-size="14" lengthAdjust="spacing" textLength="196.8955" x="616" y="1160.834">-demandedCargo : List&lt;Cargo&gt;</text><text fill="#000000" font-family="sans-serif" font-size="14" lengthAdjust="spacing" textLength="114.3926" x="616" y="1179.4551">-position : Position</text><line style="stroke:#181818;stroke-width:0.5;" x1="611" x2="906.9404" y1="1186.9688" y2="1186.9688"/><text fill="#000000" font-family="sans-serif" font-size="14" lengthAdjust="spacing" text-decoration="underline" textLength="285.9404" x="616" y="1206.0762">+create(nameID: String, x: int, y: int) : Industry</text></g><!--class Position--><g id="elem_Position"><rect codeLine="63" fill="#F1F1F1" height="103.8633" id="Position" rx="2.5" ry="2.5" style="stroke:#181818;stroke-width:0.5;" width="134.1992" x="465" y="1311.1211"/><ellipse cx="503.5767" cy="1327.1211" fill="#ADD1B2" rx="11" ry="11" style="stroke:#181818;stroke-width:1.0;"/><path d="M506.3423,1322.9961 Q506.4985,1322.7773 506.686,1322.668 Q506.8735,1322.5586 507.0923,1322.5586 Q507.4673,1322.5586 507.7017,1322.8242 Q507.936,1323.0742 507.936,1323.6836 L507.936,1325.1367 Q507.936,1325.7461 507.7017,1326.0117 Q507.4673,1326.2773 507.0923,1326.2773 Q506.7485,1326.2773 506.5454,1326.0742 Q506.3423,1325.8867 506.2329,1325.3711 Q506.186,1325.0117 505.9985,1324.8242 Q505.6704,1324.4492 505.061,1324.2305 Q504.4517,1324.0117 503.8267,1324.0117 Q503.061,1324.0117 502.4204,1324.3398 Q501.7954,1324.668 501.2954,1325.418 Q500.811,1326.168 500.811,1327.1992 L500.811,1328.293 Q500.811,1329.5273 501.7017,1330.3555 Q502.5923,1331.168 504.186,1331.168 Q505.1235,1331.168 505.7798,1330.918 Q506.1704,1330.7617 506.5923,1330.3242 Q506.8579,1330.0586 506.9985,1329.9805 Q507.1548,1329.9023 507.3579,1329.9023 Q507.686,1329.9023 507.936,1330.168 Q508.2017,1330.418 508.2017,1330.7617 Q508.2017,1331.1055 507.8579,1331.5117 Q507.3579,1332.0898 506.561,1332.418 Q505.4829,1332.8711 504.186,1332.8711 Q502.6704,1332.8711 501.4673,1332.2461 Q500.4829,1331.7461 499.7954,1330.6836 Q499.1079,1329.6055 499.1079,1328.3242 L499.1079,1327.168 Q499.1079,1325.8398 499.7173,1324.6992 Q500.3423,1323.543 501.436,1322.9336 Q502.5298,1322.3086 503.7642,1322.3086 Q504.4985,1322.3086 505.1392,1322.4805 Q505.7954,1322.6367 506.3423,1322.9961 Z " fill="#000000"/><text fill="#000000" font-family="sans-serif" font-size="14" lengthAdjust="spacing" textLength="49.8066" x="522.8159" y="1332.918">Position</text><line style="stroke:#181818;stroke-width:0.5;" x1="466" x2="598.1992" y1="1343.1211" y2="1343.1211"/><text fill="#000000" font-family="sans-serif" font-size="14" lengthAdjust="spacing" textLength="38.1172" x="471" y="1362.2285">-x : int</text><text fill="#000000" font-family="sans-serif" font-size="14" lengthAdjust="spacing" textLength="38.1172" x="471" y="1380.8496">-y : int</text><text fill="#000000" font-family="sans-serif" font-size="14" lengthAdjust="spacing" textLength="122.1992" x="471" y="1399.4707">-occupied : boolean</text><line style="stroke:#181818;stroke-width:0.5;" x1="466" x2="598.1992" y1="1406.9844" y2="1406.9844"/></g><!--class IndustrySector--><g id="elem_IndustrySector"><rect codeLine="69" fill="#F1F1F1" height="141.1055" id="IndustrySector" rx="2.5" ry="2.5" style="stroke:#181818;stroke-width:0.5;" width="206.5371" x="644.5" y="1292.6211"/><ellipse cx="698.3877" cy="1308.6211" fill="#ADD1B2" rx="11" ry="11" style="stroke:#181818;stroke-width:1.0;"/><path d="M701.1533,1304.4961 Q701.3096,1304.2773 701.4971,1304.168 Q701.6846,1304.0586 701.9033,1304.0586 Q702.2783,1304.0586 702.5127,1304.3242 Q702.7471,1304.5742 702.7471,1305.1836 L702.7471,1306.6367 Q702.7471,1307.2461 702.5127,1307.5117 Q702.2783,1307.7773 701.9033,1307.7773 Q701.5596,1307.7773 701.3564,1307.5742 Q701.1533,1307.3867 701.0439,1306.8711 Q700.9971,1306.5117 700.8096,1306.3242 Q700.4814,1305.9492 699.8721,1305.7305 Q699.2627,1305.5117 698.6377,1305.5117 Q697.8721,1305.5117 697.2314,1305.8398 Q696.6064,1306.168 696.1064,1306.918 Q695.6221,1307.668 695.6221,1308.6992 L695.6221,1309.793 Q695.6221,1311.0273 696.5127,1311.8555 Q697.4033,1312.668 698.9971,1312.668 Q699.9346,1312.668 700.5908,1312.418 Q700.9814,1312.2617 701.4033,1311.8242 Q701.6689,1311.5586 701.8096,1311.4805 Q701.9658,1311.4023 702.1689,1311.4023 Q702.4971,1311.4023 702.7471,1311.668 Q703.0127,1311.918 703.0127,1312.2617 Q703.0127,1312.6055 702.6689,1313.0117 Q702.1689,1313.5898 701.3721,1313.918 Q700.2939,1314.3711 698.9971,1314.3711 Q697.4814,1314.3711 696.2783,1313.7461 Q695.2939,1313.2461 694.6064,1312.1836 Q693.9189,1311.1055 693.9189,1309.8242 L693.9189,1308.668 Q693.9189,1307.3398 694.5283,1306.1992 Q695.1533,1305.043 696.2471,1304.4336 Q697.3408,1303.8086 698.5752,1303.8086 Q699.3096,1303.8086 699.9502,1303.9805 Q700.6064,1304.1367 701.1533,1304.4961 Z " fill="#000000"/><text fill="#000000" font-family="sans-serif" font-size="14" lengthAdjust="spacing" textLength="90.2617" x="718.8877" y="1314.418">IndustrySector</text><line style="stroke:#181818;stroke-width:0.5;" x1="645.5" x2="850.0371" y1="1324.6211" y2="1324.6211"/><text fill="#000000" font-family="sans-serif" font-size="14" lengthAdjust="spacing" textLength="87.9238" x="650.5" y="1343.7285">-name : String</text><text fill="#000000" font-family="sans-serif" font-size="14" lengthAdjust="spacing" textLength="159.5166" x="650.5" y="1362.3496">-importsExports : boolean</text><text fill="#000000" font-family="sans-serif" font-size="14" lengthAdjust="spacing" textLength="192.999" x="650.5" y="1380.9707">-generatesCargo : List&lt;Cargo&gt;</text><text fill="#000000" font-family="sans-serif" font-size="14" lengthAdjust="spacing" textLength="194.5371" x="650.5" y="1399.5918">-consumesCargo : List&lt;Cargo&gt;</text><text fill="#000000" font-family="sans-serif" font-size="14" lengthAdjust="spacing" textLength="120.6064" x="650.5" y="1418.2129">-description : String</text><line style="stroke:#181818;stroke-width:0.5;" x1="645.5" x2="850.0371" y1="1425.7266" y2="1425.7266"/></g><!--class Cargo--><g id="elem_Cargo"><rect codeLine="77" fill="#F1F1F1" height="141.1055" id="Cargo" rx="2.5" ry="2.5" style="stroke:#181818;stroke-width:0.5;" width="235.3369" x="886.5" y="1292.6211"/><ellipse cx="980.853" cy="1308.6211" fill="#ADD1B2" rx="11" ry="11" style="stroke:#181818;stroke-width:1.0;"/><path d="M983.6187,1304.4961 Q983.7749,1304.2773 983.9624,1304.168 Q984.1499,1304.0586 984.3687,1304.0586 Q984.7437,1304.0586 984.978,1304.3242 Q985.2124,1304.5742 985.2124,1305.1836 L985.2124,1306.6367 Q985.2124,1307.2461 984.978,1307.5117 Q984.7437,1307.7773 984.3687,1307.7773 Q984.0249,1307.7773 983.8218,1307.5742 Q983.6187,1307.3867 983.5093,1306.8711 Q983.4624,1306.5117 983.2749,1306.3242 Q982.9468,1305.9492 982.3374,1305.7305 Q981.728,1305.5117 981.103,1305.5117 Q980.3374,1305.5117 979.6968,1305.8398 Q979.0718,1306.168 978.5718,1306.918 Q978.0874,1307.668 978.0874,1308.6992 L978.0874,1309.793 Q978.0874,1311.0273 978.978,1311.8555 Q979.8687,1312.668 981.4624,1312.668 Q982.3999,1312.668 983.0562,1312.418 Q983.4468,1312.2617 983.8687,1311.8242 Q984.1343,1311.5586 984.2749,1311.4805 Q984.4312,1311.4023 984.6343,1311.4023 Q984.9624,1311.4023 985.2124,1311.668 Q985.478,1311.918 985.478,1312.2617 Q985.478,1312.6055 985.1343,1313.0117 Q984.6343,1313.5898 983.8374,1313.918 Q982.7593,1314.3711 981.4624,1314.3711 Q979.9468,1314.3711 978.7437,1313.7461 Q977.7593,1313.2461 977.0718,1312.1836 Q976.3843,1311.1055 976.3843,1309.8242 L976.3843,1308.668 Q976.3843,1307.3398 976.9937,1306.1992 Q977.6187,1305.043 978.7124,1304.4336 Q979.8062,1303.8086 981.0405,1303.8086 Q981.7749,1303.8086 982.4155,1303.9805 Q983.0718,1304.1367 983.6187,1304.4961 Z " fill="#000000"/><text fill="#000000" font-family="sans-serif" font-size="14" lengthAdjust="spacing" textLength="38.1309" x="1001.353" y="1314.418">Cargo</text><line style="stroke:#181818;stroke-width:0.5;" x1="887.5" x2="1120.8369" y1="1324.6211" y2="1324.6211"/><text fill="#000000" font-family="sans-serif" font-size="14" lengthAdjust="spacing" textLength="87.9238" x="892.5" y="1343.7285">-name : String</text><text fill="#000000" font-family="sans-serif" font-size="14" lengthAdjust="spacing" textLength="77.8135" x="892.5" y="1362.3496">-amount : int</text><text fill="#000000" font-family="sans-serif" font-size="14" lengthAdjust="spacing" textLength="79.3721" x="892.5" y="1380.9707">-lifespan : int</text><text fill="#000000" font-family="sans-serif" font-size="14" lengthAdjust="spacing" textLength="79.3652" x="892.5" y="1399.5918">-type : String</text><text fill="#000000" font-family="sans-serif" font-size="14" lengthAdjust="spacing" textLength="223.3369" x="892.5" y="1418.2129">-productionResources : List&lt;String&gt;</text><line style="stroke:#181818;stroke-width:0.5;" x1="887.5" x2="1120.8369" y1="1425.7266" y2="1425.7266"/></g><!--class Editor--><g id="elem_Editor"><rect codeLine="85" fill="#F1F1F1" height="85.2422" id="Editor" rx="2.5" ry="2.5" style="stroke:#181818;stroke-width:0.5;" width="127.1582" x="703.5" y="595.6211"/><ellipse cx="744.8637" cy="611.6211" fill="#ADD1B2" rx="11" ry="11" style="stroke:#181818;stroke-width:1.0;"/><path d="M747.6293,607.4961 Q747.7855,607.2773 747.973,607.168 Q748.1605,607.0586 748.3793,607.0586 Q748.7543,607.0586 748.9887,607.3242 Q749.223,607.5742 749.223,608.1836 L749.223,609.6367 Q749.223,610.2461 748.9887,610.5117 Q748.7543,610.7773 748.3793,610.7773 Q748.0355,610.7773 747.8324,610.5742 Q747.6293,610.3867 747.5199,609.8711 Q747.473,609.5117 747.2855,609.3242 Q746.9574,608.9492 746.348,608.7305 Q745.7387,608.5117 745.1137,608.5117 Q744.348,608.5117 743.7074,608.8398 Q743.0824,609.168 742.5824,609.918 Q742.098,610.668 742.098,611.6992 L742.098,612.793 Q742.098,614.0273 742.9887,614.8555 Q743.8793,615.668 745.473,615.668 Q746.4105,615.668 747.0668,615.418 Q747.4574,615.2617 747.8793,614.8242 Q748.1449,614.5586 748.2855,614.4805 Q748.4418,614.4023 748.6449,614.4023 Q748.973,614.4023 749.223,614.668 Q749.4887,614.918 749.4887,615.2617 Q749.4887,615.6055 749.1449,616.0117 Q748.6449,616.5898 747.848,616.918 Q746.7699,617.3711 745.473,617.3711 Q743.9574,617.3711 742.7543,616.7461 Q741.7699,616.2461 741.0824,615.1836 Q740.3949,614.1055 740.3949,612.8242 L740.3949,611.668 Q740.3949,610.3398 741.0043,609.1992 Q741.6293,608.043 742.723,607.4336 Q743.8168,606.8086 745.0512,606.8086 Q745.7855,606.8086 746.4262,606.9805 Q747.0824,607.1367 747.6293,607.4961 Z " fill="#000000"/><text fill="#000000" font-family="sans-serif" font-size="14" lengthAdjust="spacing" textLength="36.5723" x="764.7223" y="617.418">Editor</text><line style="stroke:#181818;stroke-width:0.5;" x1="704.5" x2="829.6582" y1="627.6211" y2="627.6211"/><text fill="#000000" font-family="sans-serif" font-size="14" lengthAdjust="spacing" textLength="115.1582" x="709.5" y="646.7285">-username : String</text><text fill="#000000" font-family="sans-serif" font-size="14" lengthAdjust="spacing" textLength="112.8203" x="709.5" y="665.3496">-password : String</text><line style="stroke:#181818;stroke-width:0.5;" x1="704.5" x2="829.6582" y1="672.8633" y2="672.8633"/></g><!--link AddIndustryUI to AddIndustryController--><g id="link_AddIndustryUI_AddIndustryController"><path codeLine="90" d="M857.9,94.9111 C839.81,114.8711 816.708,140.3642 790.938,168.8142 " fill="none" id="AddIndustryUI-to-AddIndustryController" style="stroke:#181818;stroke-width:1.0;stroke-dasharray:7.0,7.0;"/><polygon fill="#181818" points="786.91,173.2611,795.9166,169.2761,790.2667,169.5553,789.9874,163.9054,786.91,173.2611" style="stroke:#181818;stroke-width:1.0;"/><text fill="#000000" font-family="sans-serif" font-size="13" lengthAdjust="spacing" textLength="27.46" x="832" y="139.6494">uses</text></g><!--link AddIndustryController to IndustryRepository--><g id="link_AddIndustryController_IndustryRepository"><path codeLine="91" d="M580.4,271.5911 C423.7,294.4311 179.22,340.7011 124,412.6211 C83.67,465.1511 101.6729,540.9158 119.8529,589.9158 " fill="none" id="AddIndustryController-to-IndustryRepository" style="stroke:#181818;stroke-width:1.0;stroke-dasharray:7.0,7.0;"/><polygon fill="#181818" points="121.94,595.5411,122.5595,585.7117,120.2007,590.8533,115.0591,588.4945,121.94,595.5411" style="stroke:#181818;stroke-width:1.0;"/><text fill="#000000" font-family="sans-serif" font-size="13" lengthAdjust="spacing" textLength="27.46" x="125" y="470.1494">uses</text></g><!--link AddIndustryController to MapRepository--><g id="link_AddIndustryController_MapRepository"><path codeLine="92" d="M625.48,333.7211 C600.39,357.8711 573.99,385.2911 552,412.6211 C526.56,444.2311 472.8769,534.2706 440.2969,590.0306 " fill="none" id="AddIndustryController-to-MapRepository" style="stroke:#181818;stroke-width:1.0;stroke-dasharray:7.0,7.0;"/><polygon fill="#181818" points="437.27,595.2111,445.2641,589.4583,439.7924,590.894,438.3567,585.4224,437.27,595.2111" style="stroke:#181818;stroke-width:1.0;"/><text fill="#000000" font-family="sans-serif" font-size="13" lengthAdjust="spacing" textLength="27.46" x="553" y="470.1494">uses</text></g><!--link AddIndustryController to Repositories--><g id="link_AddIndustryController_Repositories"><path codeLine="93" d="M580.36,313.7311 C547.17,329.2111 511.98,346.4111 480,363.6211 C452.35,378.5011 428.002,392.9376 401.912,409.1976 " fill="none" id="AddIndustryController-to-Repositories" style="stroke:#181818;stroke-width:1.0;stroke-dasharray:7.0,7.0;"/><polygon fill="#181818" points="396.82,412.3711,406.5737,411.0055,401.0634,409.7265,402.3424,404.2161,396.82,412.3711" style="stroke:#181818;stroke-width:1.0;"/><text fill="#000000" font-family="sans-serif" font-size="13" lengthAdjust="spacing" textLength="27.46" x="481" y="378.6494">uses</text></g><!--link AddIndustryController to ApplicationSession--><g id="link_AddIndustryController_ApplicationSession"><path codeLine="94" d="M715,333.6311 C715,359.9911 715,382.6511 715,406.3311 " fill="none" id="AddIndustryController-to-ApplicationSession" style="stroke:#181818;stroke-width:1.0;stroke-dasharray:7.0,7.0;"/><polygon fill="#181818" points="715,412.3311,719,403.3311,715,407.3311,711,403.3311,715,412.3311" style="stroke:#181818;stroke-width:1.0;"/><text fill="#000000" font-family="sans-serif" font-size="13" lengthAdjust="spacing" textLength="27.46" x="716" y="378.6494">uses</text></g><!--link AddIndustryController to Map--><g id="link_AddIndustryController_Map"><path codeLine="95" d="M800.11,334.0211 C819.6,357.2711 837.62,384.1611 848,412.6211 C888.83,524.5211 905.1,576.0911 848,680.6211 C820.87,730.2911 777.1993,764.5031 729.0493,790.9431 " fill="none" id="AddIndustryController-to-Map" style="stroke:#181818;stroke-width:1.0;stroke-dasharray:7.0,7.0;"/><polygon fill="#181818" points="723.79,793.8311,733.6042,793.0053,728.1727,791.4245,729.7536,785.993,723.79,793.8311" style="stroke:#181818;stroke-width:1.0;"/><text fill="#000000" font-family="sans-serif" font-size="13" lengthAdjust="spacing" textLength="27.46" x="886" y="561.6494">uses</text></g><!--link AddIndustryController to Industry--><g id="link_AddIndustryController_Industry"><path codeLine="96" d="M849.52,307.1411 C911.7,341.0411 972,392.3111 972,463.6211 C972,463.6211 972,463.6211 972,849.6211 C972,914.0311 937.4336,967.3795 892.9536,1012.2595 " fill="none" id="AddIndustryController-to-Industry" style="stroke:#181818;stroke-width:1.0;stroke-dasharray:7.0,7.0;"/><polygon fill="#181818" points="888.73,1016.5211,897.9065,1012.9444,892.2497,1012.9698,892.2244,1007.313,888.73,1016.5211" style="stroke:#181818;stroke-width:1.0;"/><text fill="#000000" font-family="sans-serif" font-size="13" lengthAdjust="spacing" textLength="27.46" x="973" y="643.6494">uses</text></g><!--reverse link Map to Industry--><g id="link_Map_Industry"><path codeLine="98" d="M651.4539,947.7693 C667.7739,973.0193 679.15,990.6211 695.83,1016.4011 " fill="none" id="Map-backto-Industry" style="stroke:#181818;stroke-width:1.0;"/><polygon fill="none" points="644.94,937.6911,644.8376,944.9015,651.4539,947.7693,651.5563,940.5589,644.94,937.6911" style="stroke:#181818;stroke-width:1.0;"/><polygon fill="#000000" points="681.7148,981.4654,679.2716,972.274,674.3357,975.4655,681.7148,981.4654" style="stroke:#000000;stroke-width:1.0;"/><text fill="#000000" font-family="sans-serif" font-size="13" lengthAdjust="spacing" textLength="48.4199" x="688" y="982.6494">contains</text><text fill="#000000" font-family="sans-serif" font-size="13" lengthAdjust="spacing" textLength="7.23" x="642.553" y="960.1019">1</text><text fill="#000000" font-family="sans-serif" font-size="13" lengthAdjust="spacing" textLength="5.0591" x="685.8067" y="1005.2327">*</text></g><!--reverse link Map to Position--><g id="link_Map_Position"><path codeLine="99" d="M546.5549,949.1394 C537.6749,974.1494 533.49,990.4011 529,1016.6211 C511.29,1119.9411 519.15,1243.1911 525.93,1311.0211 " fill="none" id="Map-backto-Position" style="stroke:#181818;stroke-width:1.0;"/><polygon fill="none" points="550.57,937.8311,544.793,942.1469,546.5549,949.1394,552.3319,944.8236,550.57,937.8311" style="stroke:#181818;stroke-width:1.0;"/><polygon fill="#000000" points="533.7155,1120.2585,537.1643,1111.3953,531.296,1111.0608,533.7155,1120.2585" style="stroke:#000000;stroke-width:1.0;"/><text fill="#000000" font-family="sans-serif" font-size="13" lengthAdjust="spacing" textLength="48.4199" x="543" y="1120.6494">contains</text><text fill="#000000" font-family="sans-serif" font-size="13" lengthAdjust="spacing" textLength="7.23" x="540.2002" y="959.9487">1</text><text fill="#000000" font-family="sans-serif" font-size="13" lengthAdjust="spacing" textLength="5.0591" x="519.769" y="1299.935">*</text></g><!--link MapRepository to Map--><g id="link_MapRepository_Map"><path codeLine="100" d="M447.99,680.8111 C466.94,703.3911 487.2532,727.5849 510.1532,754.8749 " fill="none" id="MapRepository-to-Map" style="stroke:#181818;stroke-width:1.0;"/><polygon fill="#181818" points="514.01,759.4711,511.2889,750.0056,510.796,755.6409,505.1606,755.148,514.01,759.4711" style="stroke:#181818;stroke-width:1.0;"/><text fill="#000000" font-family="sans-serif" font-size="13" lengthAdjust="spacing" textLength="40.46" x="486" y="725.6494">returns</text><text fill="#000000" font-family="sans-serif" font-size="13" lengthAdjust="spacing" textLength="7.23" x="500.6126" y="748.4104">1</text></g><!--link IndustryRepository to Industry--><g id="link_IndustryRepository_Industry"><path codeLine="101" d="M163.85,680.7811 C202.38,744.6111 284.17,866.6411 384,937.6211 C467.31,996.8511 507.97,972.1311 600,1016.6211 C603.21,1018.1711 601.0701,1017.0746 604.3101,1018.7046 " fill="none" id="IndustryRepository-to-Industry" style="stroke:#181818;stroke-width:1.0;"/><polygon fill="#181818" points="609.67,1021.4011,603.4278,1013.783,605.2034,1019.154,599.8324,1020.9296,609.67,1021.4011" style="stroke:#181818;stroke-width:1.0;"/><text fill="#000000" font-family="sans-serif" font-size="13" lengthAdjust="spacing" textLength="49.1372" x="385" y="854.1494">provides</text><text fill="#000000" font-family="sans-serif" font-size="13" lengthAdjust="spacing" textLength="5.0591" x="596.8443" y="1013.167">*</text></g><!--link Repositories to IndustryRepository--><g id="link_Repositories_IndustryRepository"><path codeLine="103" d="M264.59,517.0811 C238.58,542.1411 212.0421,567.7194 187.5321,591.3194 " fill="none" id="Repositories-to-IndustryRepository" style="stroke:#181818;stroke-width:1.0;"/><polygon fill="#181818" points="183.21,595.4811,192.4676,592.12,186.8118,592.0131,186.9187,586.3572,183.21,595.4811" style="stroke:#181818;stroke-width:1.0;"/><polygon fill="#000000" points="230.3992,559.7356,238.9522,555.5766,234.8741,551.3436,230.3992,559.7356" style="stroke:#000000;stroke-width:1.0;"/><text fill="#000000" font-family="sans-serif" font-size="13" lengthAdjust="spacing" textLength="49.1372" x="243" y="561.6494">provides</text></g><!--link Repositories to MapRepository--><g id="link_Repositories_MapRepository"><path codeLine="104" d="M346.5,517.0811 C360.39,542.1411 373.9514,566.6332 387.0314,590.2332 " fill="none" id="Repositories-to-MapRepository" style="stroke:#181818;stroke-width:1.0;"/><polygon fill="#181818" points="389.94,595.4811,389.0757,585.6702,387.5162,591.1079,382.0786,589.5483,389.94,595.4811" style="stroke:#181818;stroke-width:1.0;"/><polygon fill="#000000" points="379.4232,560.6401,377.6103,551.304,372.4688,554.1527,379.4232,560.6401" style="stroke:#000000;stroke-width:1.0;"/><text fill="#000000" font-family="sans-serif" font-size="13" lengthAdjust="spacing" textLength="49.1372" x="386" y="561.6494">provides</text></g><!--link ApplicationSession to Editor--><g id="link_ApplicationSession_Editor"><path codeLine="106" d="M730.6,517.0811 C738.2,542.1411 745.4781,566.1395 752.6381,589.7395 " fill="none" id="ApplicationSession-to-Editor" style="stroke:#181818;stroke-width:1.0;"/><polygon fill="#181818" points="754.38,595.4811,755.5948,585.7074,752.9284,590.6964,747.9394,588.03,754.38,595.4811" style="stroke:#181818;stroke-width:1.0;"/><polygon fill="#000000" points="751.4513,561.0514,751.6383,551.5426,746.0135,553.2487,751.4513,561.0514" style="stroke:#000000;stroke-width:1.0;"/><text fill="#000000" font-family="sans-serif" font-size="13" lengthAdjust="spacing" textLength="31.0781" x="759" y="561.6494">holds</text></g><!--link ApplicationSession to Map--><g id="link_ApplicationSession_Map"><path codeLine="107" d="M659.22,516.7811 C638.8,538.9011 617.82,566.4111 606,595.6211 C585.1,647.2611 580.4281,703.6817 581.1081,753.4817 " fill="none" id="ApplicationSession-to-Map" style="stroke:#181818;stroke-width:1.0;"/><polygon fill="#181818" points="581.19,759.4811,585.0667,750.4273,581.1217,754.4816,577.0675,750.5365,581.19,759.4811" style="stroke:#181818;stroke-width:1.0;"/><polygon fill="#000000" points="609.4331,643.0147,615.0585,635.3463,609.4768,633.5043,609.4331,643.0147" style="stroke:#000000;stroke-width:1.0;"/><text fill="#000000" font-family="sans-serif" font-size="13" lengthAdjust="spacing" textLength="65.749" x="620" y="643.6494">currentMap</text></g><!--link Editor to AddIndustryUI--><g id="link_Editor_AddIndustryUI"><path codeLine="109" d="M830.8,619.4411 C861.37,608.2411 896.55,590.9811 921,565.6211 C982.25,502.1011 980.54,469.1211 998,382.6211 C1020.64,270.4211 940.7282,150.4969 901.6982,99.7569 " fill="none" id="Editor-to-AddIndustryUI" style="stroke:#181818;stroke-width:1.0;stroke-dasharray:7.0,7.0;"/><polygon fill="#181818" points="898.04,95.0011,900.3568,104.5736,901.0885,98.9642,906.6978,99.6959,898.04,95.0011" style="stroke:#181818;stroke-width:1.0;"/><polygon fill="#000000" points="1006.6759,368.3125,1002.5413,376.8773,1008.3652,377.6718,1006.6759,368.3125" style="stroke:#000000;stroke-width:1.0;"/><text fill="#000000" font-family="sans-serif" font-size="13" lengthAdjust="spacing" textLength="75.8608" x="1015" y="378.6494">interacts with</text></g><!--link Industry to Position--><g id="link_Industry_Position"><path codeLine="111" d="M668.96,1213.7011 C638.26,1246.9711 605.17,1282.8311 579.2,1310.9711 " fill="none" id="Industry-Position" style="stroke:#181818;stroke-width:1.0;"/><polygon fill="#000000" points="640.6092,1256.9411,648.9031,1252.2869,644.5834,1248.3008,640.6092,1256.9411" style="stroke:#000000;stroke-width:1.0;"/><text fill="#000000" font-family="sans-serif" font-size="13" lengthAdjust="spacing" textLength="56.3735" x="653" y="1258.6494">located at</text><text fill="#000000" font-family="sans-serif" font-size="13" lengthAdjust="spacing" textLength="7.23" x="655.1013" y="1235.6049">1</text><text fill="#000000" font-family="sans-serif" font-size="13" lengthAdjust="spacing" textLength="7.23" x="578.0743" y="1299.8783">1</text></g><!--link Industry to IndustrySector--><g id="link_Industry_IndustrySector"><path codeLine="112" d="M754.64,1213.7011 C753.46,1239.9911 752.21,1267.9011 751.12,1292.3411 " fill="none" id="Industry-IndustrySector" style="stroke:#181818;stroke-width:1.0;"/><polygon fill="#000000" points="758.7764,1258.2616,762.1169,1249.357,756.2449,1249.0941,758.7764,1258.2616" style="stroke:#000000;stroke-width:1.0;"/><text fill="#000000" font-family="sans-serif" font-size="13" lengthAdjust="spacing" textLength="59.9917" x="768" y="1258.6494">belongs to</text><text fill="#000000" font-family="sans-serif" font-size="13" lengthAdjust="spacing" textLength="5.0591" x="749.1406" y="1235.6049">*</text><text fill="#000000" font-family="sans-serif" font-size="13" lengthAdjust="spacing" textLength="7.23" x="744.1165" y="1281.2032">1</text></g><!--link Industry to Cargo--><g id="link_Industry_Cargo"><path codeLine="113" d="M856.18,1213.7011 C882.37,1239.9911 910.17,1267.9011 934.51,1292.3411 " fill="none" id="Industry-Cargo" style="stroke:#181818;stroke-width:1.0;"/><polygon fill="#000000" points="912.5285,1256.8091,908.2276,1248.3266,904.0631,1252.4747,912.5285,1256.8091" style="stroke:#000000;stroke-width:1.0;"/><text fill="#000000" font-family="sans-serif" font-size="13" lengthAdjust="spacing" textLength="116.3398" x="918" y="1258.6494">produces/consumes</text><text fill="#000000" font-family="sans-serif" font-size="13" lengthAdjust="spacing" textLength="5.0591" x="858.1374" y="1235.6049">*</text><text fill="#000000" font-family="sans-serif" font-size="13" lengthAdjust="spacing" textLength="5.0591" x="922.0717" y="1281.2032">*</text></g><!--SRC=[bLN1Rjim3BtxAuIUtAxksXs38K2HzX1W0ufcE-oesgmhL9OCIKxZ5VttKROasx6ITBuOeXwfnqTIqgzCr5JHYjGqVwKbR4pBWIZ83HKbXqG7W7wXXNnZeYJFbElnJiwfrhV6AFRK65ZdKcpONo3NIMAOmMWhkq_k62qHlI2_DzVVI4PkYu9GGTQYQBHHRP9qOQpPctwloNlo4TbOIM6Kv1mK0WX-NqYkW1f8pzso17ExfOpJ9mxEYu5Epyc2_63QVFUHbWw_fPmL6C3RKq4hMDzTajqbQQtNavGSgDY3FqZD39CYFGxpKN-rDRZ8St2VmK42GQSWYBSyGcrfIDK6DVutVKsta39d7CuQamp7_gHr_CHLenG8W_kf1grH5kkFo_4X5QsZKKD8v1c2lcj33Si_RFIrm8N8eKjYZ1u8p0L9nyeDvi5baapg-8w0G_VLDMSvjSNUzCcTPZdtcOdbx1tylh1dHlNqGewBuCxFIDyfYDXWbKNfhDgE8DhmvomiD4Ay3J9IktOE0D_VoyJHOde5dDzNjMdJtG936cpFxZzlQ3eCx8dU2YaFypIBxRVc_JylXBiCUc6yBZXAiw1Xg8ufQN1gzssqdox6cMd_05Ma2-bbLB9eSals4MdWLY4R74HVcCQs1HGhgahfXUuMlWm5L5GKnn2-K55Tl2Kqo6x2hfsiP9utDRA9pQHNPuElWLIJVjlNWrMrL4RVxxhVNcapBAq0XLhemodXgw6RwXYY09qhLhkytV61REztZ2EjP2FC97lEda7NL4oCiNgFIWfQDYeVXgZ7BGSc_Hm7Aeq65QDJ8_PDgcAIo_JrkxfQ7dZs5ZQiJkARrYtoE9pqcTxi9-6JA_iaEdA1VeRGvpFroCHwdTsS4PbbvEpYR0p09ZEKuVssdA4UXf6QeaQIPDcoy-bvAJ2D4Zg9IDq1fqTZ1srPOVbDTBF8QAqy7adC7FOBDS8c4PsjYslA1NcHlB300xW-jJmyFJQayzthHkpFRcfmi7CS-JTcNYmuf6o5ijhUJBJb4i_4wuOQ10_OYu3TktJm9W4kHQc9aJ4F_FaRevzHq5_zLOBuVm00]--></g></svg>