<svg xmlns="http://www.w3.org/2000/svg" xmlns:xlink="http://www.w3.org/1999/xlink" contentStyleType="text/css" height="1274px" preserveAspectRatio="none" style="width:904px;height:1274px;background:#FFFFFF;" version="1.1" viewBox="0 0 904 1274" width="904px" zoomAndPan="magnify"><title>Sequence Diagram: US02 - Add an industry</title><defs/><g><text fill="#000000" font-family="sans-serif" font-size="14" font-weight="bold" lengthAdjust="spacing" textLength="288.6201" x="305.3967" y="30.1074">Sequence Diagram: US02 - Add an industry</text><rect fill="#FFFFFF" height="1040.1953" style="stroke:#181818;stroke-width:1.0;" width="10" x="21.2861" y="133.2422"/><rect fill="#FFFFFF" height="185.7461" style="stroke:#181818;stroke-width:1.0;" width="10" x="276.0903" y="156.5332"/><rect fill="#FFFFFF" height="142.125" style="stroke:#181818;stroke-width:1.0;" width="10" x="276.0903" y="373.5703"/><rect fill="#FFFFFF" height="79.543" style="stroke:#181818;stroke-width:1.0;" width="10" x="448.5547" y="231.4453"/><rect fill="#FFFFFF" height="79.543" style="stroke:#181818;stroke-width:1.0;" width="10" x="448.5547" y="404.8613"/><rect fill="#FFFFFF" height="185.7461" style="stroke:#181818;stroke-width:1.0;" width="10" x="576.8232" y="546.9863"/><rect fill="#FFFFFF" height="31.291" style="stroke:#181818;stroke-width:1.0;" width="10" x="576.8232" y="764.0234"/><rect fill="#FFFFFF" height="142.125" style="stroke:#181818;stroke-width:1.0;" width="10" x="576.8232" y="826.6055"/><rect fill="#FFFFFF" height="173.416" style="stroke:#181818;stroke-width:1.0;" width="10" x="576.8232" y="1000.0215"/><rect fill="#FFFFFF" height="79.543" style="stroke:#181818;stroke-width:1.0;" width="10" x="796.9585" y="621.8984"/><rect fill="#FFFFFF" height="79.543" style="stroke:#181818;stroke-width:1.0;" width="10" x="796.9585" y="857.8965"/><rect fill="#FFFFFF" height="79.543" style="stroke:#181818;stroke-width:1.0;" width="10" x="796.9585" y="1031.3125"/><line style="stroke:#181818;stroke-width:0.5;stroke-dasharray:5.0,5.0;" x1="26" x2="26" y1="123.2422" y2="1191.4375"/><line style="stroke:#181818;stroke-width:0.5;stroke-dasharray:5.0,5.0;" x1="280.4663" x2="280.4663" y1="123.2422" y2="1191.4375"/><line style="stroke:#181818;stroke-width:0.5;stroke-dasharray:5.0,5.0;" x1="452.5859" x2="452.5859" y1="196.3438" y2="1191.4375"/><line style="stroke:#181818;stroke-width:0.5;stroke-dasharray:5.0,5.0;" x1="581.5234" x2="581.5234" y1="123.2422" y2="1191.4375"/><line style="stroke:#181818;stroke-width:0.5;stroke-dasharray:5.0,5.0;" x1="801.314" x2="801.314" y1="586.7969" y2="1191.4375"/><text fill="#000000" font-family="sans-serif" font-size="14" lengthAdjust="spacing" textLength="36.5723" x="5" y="119.7285">Editor</text><ellipse cx="26.2861" cy="53.1211" fill="#E3E3E3" rx="8" ry="8" style="stroke:#181818;stroke-width:0.5;"/><path d="M26.2861,61.1211 L26.2861,88.1211 M13.2861,69.1211 L39.2861,69.1211 M26.2861,88.1211 L13.2861,103.1211 M26.2861,88.1211 L39.2861,103.1211 " fill="none" style="stroke:#181818;stroke-width:0.5;"/><text fill="#000000" font-family="sans-serif" font-size="14" lengthAdjust="spacing" textLength="36.5723" x="5" y="1205.5449">Editor</text><ellipse cx="26.2861" cy="1217.5586" fill="#E3E3E3" rx="8" ry="8" style="stroke:#181818;stroke-width:0.5;"/><path d="M26.2861,1225.5586 L26.2861,1252.5586 M13.2861,1233.5586 L39.2861,1233.5586 M26.2861,1252.5586 L13.2861,1267.5586 M26.2861,1252.5586 L39.2861,1267.5586 " fill="none" style="stroke:#181818;stroke-width:0.5;"/><rect fill="#E3E3E3" height="32.6211" rx="2.5" ry="2.5" style="stroke:#181818;stroke-width:0.5;" width="83.248" x="239.4663" y="89.6211"/><text fill="#000000" font-family="sans-serif" font-size="14" lengthAdjust="spacing" textLength="69.248" x="246.4663" y="111.7285">:EditMapUI</text><rect fill="#E3E3E3" height="32.6211" rx="2.5" ry="2.5" style="stroke:#181818;stroke-width:0.5;" width="83.248" x="239.4663" y="1190.4375"/><text fill="#000000" font-family="sans-serif" font-size="14" lengthAdjust="spacing" textLength="69.248" x="246.4663" y="1212.5449">:EditMapUI</text><rect fill="#E3E3E3" height="32.6211" rx="2.5" ry="2.5" style="stroke:#181818;stroke-width:0.5;" width="129.9375" x="388.5859" y="1190.4375"/><text fill="#000000" font-family="sans-serif" font-size="14" lengthAdjust="spacing" textLength="115.9375" x="395.5859" y="1212.5449">:EditMapController</text><rect fill="#E3E3E3" height="32.6211" rx="2.5" ry="2.5" style="stroke:#181818;stroke-width:0.5;" width="106.5996" x="528.5234" y="89.6211"/><text fill="#000000" font-family="sans-serif" font-size="14" lengthAdjust="spacing" textLength="92.5996" x="535.5234" y="111.7285">:AddIndustryUI</text><rect fill="#E3E3E3" height="32.6211" rx="2.5" ry="2.5" style="stroke:#181818;stroke-width:0.5;" width="106.5996" x="528.5234" y="1190.4375"/><text fill="#000000" font-family="sans-serif" font-size="14" lengthAdjust="spacing" textLength="92.5996" x="535.5234" y="1212.5449">:AddIndustryUI</text><rect fill="#E3E3E3" height="32.6211" rx="2.5" ry="2.5" style="stroke:#181818;stroke-width:0.5;" width="153.2891" x="725.314" y="1190.4375"/><text fill="#000000" font-family="sans-serif" font-size="14" lengthAdjust="spacing" textLength="139.2891" x="732.314" y="1212.5449">:AddIndustryController</text><rect fill="#FFFFFF" height="1040.1953" style="stroke:#181818;stroke-width:1.0;" width="10" x="21.2861" y="133.2422"/><rect fill="#FFFFFF" height="185.7461" style="stroke:#181818;stroke-width:1.0;" width="10" x="276.0903" y="156.5332"/><rect fill="#FFFFFF" height="142.125" style="stroke:#181818;stroke-width:1.0;" width="10" x="276.0903" y="373.5703"/><rect fill="#FFFFFF" height="79.543" style="stroke:#181818;stroke-width:1.0;" width="10" x="448.5547" y="231.4453"/><rect fill="#FFFFFF" height="79.543" style="stroke:#181818;stroke-width:1.0;" width="10" x="448.5547" y="404.8613"/><rect fill="#FFFFFF" height="185.7461" style="stroke:#181818;stroke-width:1.0;" width="10" x="576.8232" y="546.9863"/><rect fill="#FFFFFF" height="31.291" style="stroke:#181818;stroke-width:1.0;" width="10" x="576.8232" y="764.0234"/><rect fill="#FFFFFF" height="142.125" style="stroke:#181818;stroke-width:1.0;" width="10" x="576.8232" y="826.6055"/><rect fill="#FFFFFF" height="173.416" style="stroke:#181818;stroke-width:1.0;" width="10" x="576.8232" y="1000.0215"/><rect fill="#FFFFFF" height="79.543" style="stroke:#181818;stroke-width:1.0;" width="10" x="796.9585" y="621.8984"/><rect fill="#FFFFFF" height="79.543" style="stroke:#181818;stroke-width:1.0;" width="10" x="796.9585" y="857.8965"/><rect fill="#FFFFFF" height="79.543" style="stroke:#181818;stroke-width:1.0;" width="10" x="796.9585" y="1031.3125"/><polygon fill="#181818" points="264.0903,152.5332,274.0903,156.5332,264.0903,160.5332,268.0903,156.5332" style="stroke:#181818;stroke-width:1.0;"/><line style="stroke:#181818;stroke-width:1.0;" x1="31.2861" x2="270.0903" y1="156.5332" y2="156.5332"/><text fill="#000000" font-family="sans-serif" font-size="13" font-weight="bold" lengthAdjust="spacing" textLength="7.23" x="38.2861" y="151.2705">1</text><text fill="#000000" font-family="sans-serif" font-size="13" lengthAdjust="spacing" textLength="94.6563" x="49.5161" y="151.2705">asks to edit map</text><polygon fill="#181818" points="376.5859,183.8242,386.5859,187.8242,376.5859,191.8242,380.5859,187.8242" style="stroke:#181818;stroke-width:1.0;"/><line style="stroke:#181818;stroke-width:1.0;" x1="286.0903" x2="382.5859" y1="187.8242" y2="187.8242"/><text fill="#000000" font-family="sans-serif" font-size="13" font-weight="bold" lengthAdjust="spacing" textLength="7.23" x="293.0903" y="182.5615">2</text><text fill="#000000" font-family="sans-serif" font-size="13" lengthAdjust="spacing" textLength="44.7891" x="304.3203" y="182.5615">create()</text><rect fill="#E3E3E3" height="32.6211" rx="2.5" ry="2.5" style="stroke:#181818;stroke-width:0.5;" width="129.9375" x="388.5859" y="164.5332"/><text fill="#000000" font-family="sans-serif" font-size="14" lengthAdjust="spacing" textLength="115.9375" x="395.5859" y="186.6406">:EditMapController</text><polygon fill="#181818" points="436.5547,227.4453,446.5547,231.4453,436.5547,235.4453,440.5547,231.4453" style="stroke:#181818;stroke-width:1.0;"/><line style="stroke:#181818;stroke-width:1.0;" x1="286.0903" x2="442.5547" y1="231.4453" y2="231.4453"/><text fill="#000000" font-family="sans-serif" font-size="13" font-weight="bold" lengthAdjust="spacing" textLength="7.23" x="293.0903" y="226.1826">3</text><text fill="#000000" font-family="sans-serif" font-size="13" lengthAdjust="spacing" textLength="111.2744" x="304.3203" y="226.1826">getAvailableMaps()</text><rect fill="none" height="43.252" style="stroke:#000000;stroke-width:1.5;" width="135.9375" x="385.5859" y="239.4453"/><path d="M385.5859,239.4453 L446.5859,239.4453 L446.5859,248.4453 L436.5859,258.4453 L385.5859,258.4453 L385.5859,239.4453 " fill="#EEEEEE" style="stroke:#000000;stroke-width:2.0;"/><text fill="#000000" font-family="sans-serif" font-size="13" font-weight="bold" lengthAdjust="spacing" textLength="16.6182" x="398.5859" y="255.4736">ref</text><text fill="#000000" font-family="sans-serif" font-size="12" lengthAdjust="spacing" textLength="102.7207" x="402.1943" y="275.3945">Get available maps</text><polygon fill="#181818" points="297.0903,306.9883,287.0903,310.9883,297.0903,314.9883,293.0903,310.9883" style="stroke:#181818;stroke-width:1.0;"/><line style="stroke:#181818;stroke-width:1.0;stroke-dasharray:2.0,2.0;" x1="291.0903" x2="452.5547" y1="310.9883" y2="310.9883"/><text fill="#000000" font-family="sans-serif" font-size="13" font-weight="bold" lengthAdjust="spacing" textLength="7.23" x="303.0903" y="305.7256">4</text><text fill="#000000" font-family="sans-serif" font-size="13" lengthAdjust="spacing" textLength="103.3335" x="314.3203" y="305.7256">availableMapsList</text><polygon fill="#181818" points="42.2861,338.2793,32.2861,342.2793,42.2861,346.2793,38.2861,342.2793" style="stroke:#181818;stroke-width:1.0;"/><line style="stroke:#181818;stroke-width:1.0;stroke-dasharray:2.0,2.0;" x1="36.2861" x2="280.0903" y1="342.2793" y2="342.2793"/><text fill="#000000" font-family="sans-serif" font-size="13" font-weight="bold" lengthAdjust="spacing" textLength="7.23" x="48.2861" y="337.0166">5</text><text fill="#000000" font-family="sans-serif" font-size="13" lengthAdjust="spacing" textLength="161.1289" x="59.5161" y="337.0166">shows list of available maps</text><polygon fill="#181818" points="264.0903,369.5703,274.0903,373.5703,264.0903,377.5703,268.0903,373.5703" style="stroke:#181818;stroke-width:1.0;"/><line style="stroke:#181818;stroke-width:1.0;" x1="31.2861" x2="270.0903" y1="373.5703" y2="373.5703"/><text fill="#000000" font-family="sans-serif" font-size="13" font-weight="bold" lengthAdjust="spacing" textLength="7.23" x="38.2861" y="368.3076">6</text><text fill="#000000" font-family="sans-serif" font-size="13" lengthAdjust="spacing" textLength="80.2026" x="49.5161" y="368.3076">selects a map</text><polygon fill="#181818" points="436.5547,400.8613,446.5547,404.8613,436.5547,408.8613,440.5547,404.8613" style="stroke:#181818;stroke-width:1.0;"/><line style="stroke:#181818;stroke-width:1.0;" x1="286.0903" x2="442.5547" y1="404.8613" y2="404.8613"/><text fill="#000000" font-family="sans-serif" font-size="13" font-weight="bold" lengthAdjust="spacing" textLength="7.23" x="293.0903" y="399.5986">7</text><text fill="#000000" font-family="sans-serif" font-size="13" lengthAdjust="spacing" textLength="132.2344" x="304.3203" y="399.5986">loadMap(selectedMap)</text><rect fill="none" height="43.252" style="stroke:#000000;stroke-width:1.5;" width="135.9375" x="385.5859" y="412.8613"/><path d="M385.5859,412.8613 L446.5859,412.8613 L446.5859,421.8613 L436.5859,431.8613 L385.5859,431.8613 L385.5859,412.8613 " fill="#EEEEEE" style="stroke:#000000;stroke-width:2.0;"/><text fill="#000000" font-family="sans-serif" font-size="13" font-weight="bold" lengthAdjust="spacing" textLength="16.6182" x="398.5859" y="428.8896">ref</text><text fill="#000000" font-family="sans-serif" font-size="12" lengthAdjust="spacing" textLength="101.4023" x="402.8535" y="448.8105">Load selected map</text><polygon fill="#181818" points="297.0903,480.4043,287.0903,484.4043,297.0903,488.4043,293.0903,484.4043" style="stroke:#181818;stroke-width:1.0;"/><line style="stroke:#181818;stroke-width:1.0;stroke-dasharray:2.0,2.0;" x1="291.0903" x2="452.5547" y1="484.4043" y2="484.4043"/><text fill="#000000" font-family="sans-serif" font-size="13" font-weight="bold" lengthAdjust="spacing" textLength="7.23" x="303.0903" y="479.1416">8</text><text fill="#000000" font-family="sans-serif" font-size="13" lengthAdjust="spacing" textLength="64.3208" x="314.3203" y="479.1416">mapLayout</text><polygon fill="#181818" points="42.2861,511.6953,32.2861,515.6953,42.2861,519.6953,38.2861,515.6953" style="stroke:#181818;stroke-width:1.0;"/><line style="stroke:#181818;stroke-width:1.0;stroke-dasharray:2.0,2.0;" x1="36.2861" x2="280.0903" y1="515.6953" y2="515.6953"/><text fill="#000000" font-family="sans-serif" font-size="13" font-weight="bold" lengthAdjust="spacing" textLength="7.23" x="48.2861" y="510.4326">9</text><text fill="#000000" font-family="sans-serif" font-size="13" lengthAdjust="spacing" textLength="209.5742" x="59.5161" y="510.4326">loads and displays the selected map</text><polygon fill="#181818" points="564.8232,542.9863,574.8232,546.9863,564.8232,550.9863,568.8232,546.9863" style="stroke:#181818;stroke-width:1.0;"/><line style="stroke:#181818;stroke-width:1.0;" x1="31.2861" x2="570.8232" y1="546.9863" y2="546.9863"/><text fill="#000000" font-family="sans-serif" font-size="13" font-weight="bold" lengthAdjust="spacing" textLength="14.46" x="38.2861" y="541.7236">10</text><text fill="#000000" font-family="sans-serif" font-size="13" lengthAdjust="spacing" textLength="115.6162" x="56.7461" y="541.7236">asks to add industry</text><polygon fill="#181818" points="713.314,574.2773,723.314,578.2773,713.314,582.2773,717.314,578.2773" style="stroke:#181818;stroke-width:1.0;"/><line style="stroke:#181818;stroke-width:1.0;" x1="586.8232" x2="719.314" y1="578.2773" y2="578.2773"/><text fill="#000000" font-family="sans-serif" font-size="13" font-weight="bold" lengthAdjust="spacing" textLength="14.46" x="593.8232" y="573.0146">11</text><text fill="#000000" font-family="sans-serif" font-size="13" lengthAdjust="spacing" textLength="44.7891" x="612.2832" y="573.0146">create()</text><rect fill="#E3E3E3" height="32.6211" rx="2.5" ry="2.5" style="stroke:#181818;stroke-width:0.5;" width="153.2891" x="725.314" y="554.9863"/><text fill="#000000" font-family="sans-serif" font-size="14" lengthAdjust="spacing" textLength="139.2891" x="732.314" y="577.0938">:AddIndustryController</text><polygon fill="#181818" points="784.9585,617.8984,794.9585,621.8984,784.9585,625.8984,788.9585,621.8984" style="stroke:#181818;stroke-width:1.0;"/><line style="stroke:#181818;stroke-width:1.0;" x1="586.8232" x2="790.9585" y1="621.8984" y2="621.8984"/><text fill="#000000" font-family="sans-serif" font-size="13" font-weight="bold" lengthAdjust="spacing" textLength="14.46" x="593.8232" y="616.6357">12</text><text fill="#000000" font-family="sans-serif" font-size="13" lengthAdjust="spacing" textLength="135.8462" x="612.2832" y="616.6357">getIndustriesAvailable()</text><rect fill="none" height="43.252" style="stroke:#000000;stroke-width:1.5;" width="159.2891" x="722.314" y="629.8984"/><path d="M722.314,629.8984 L783.314,629.8984 L783.314,638.8984 L773.314,648.8984 L722.314,648.8984 L722.314,629.8984 " fill="#EEEEEE" style="stroke:#000000;stroke-width:2.0;"/><text fill="#000000" font-family="sans-serif" font-size="13" font-weight="bold" lengthAdjust="spacing" textLength="16.6182" x="735.314" y="645.9268">ref</text><text fill="#000000" font-family="sans-serif" font-size="12" lengthAdjust="spacing" textLength="124.7344" x="739.5913" y="665.8477">Get available industries</text><polygon fill="#181818" points="597.8232,697.4414,587.8232,701.4414,597.8232,705.4414,593.8232,701.4414" style="stroke:#181818;stroke-width:1.0;"/><line style="stroke:#181818;stroke-width:1.0;stroke-dasharray:2.0,2.0;" x1="591.8232" x2="800.9585" y1="701.4414" y2="701.4414"/><text fill="#000000" font-family="sans-serif" font-size="13" font-weight="bold" lengthAdjust="spacing" textLength="14.46" x="603.8232" y="696.1787">13</text><text fill="#000000" font-family="sans-serif" font-size="13" lengthAdjust="spacing" textLength="127.9053" x="622.2832" y="696.1787">availableIndustriesList</text><polygon fill="#181818" points="42.2861,728.7324,32.2861,732.7324,42.2861,736.7324,38.2861,732.7324" style="stroke:#181818;stroke-width:1.0;"/><line style="stroke:#181818;stroke-width:1.0;stroke-dasharray:2.0,2.0;" x1="36.2861" x2="580.8232" y1="732.7324" y2="732.7324"/><text fill="#000000" font-family="sans-serif" font-size="13" font-weight="bold" lengthAdjust="spacing" textLength="14.46" x="48.2861" y="727.4697">14</text><text fill="#000000" font-family="sans-serif" font-size="13" lengthAdjust="spacing" textLength="222.5552" x="66.7461" y="727.4697">shows all industries available in the list</text><polygon fill="#181818" points="564.8232,760.0234,574.8232,764.0234,564.8232,768.0234,568.8232,764.0234" style="stroke:#181818;stroke-width:1.0;"/><line style="stroke:#181818;stroke-width:1.0;" x1="31.2861" x2="570.8232" y1="764.0234" y2="764.0234"/><text fill="#000000" font-family="sans-serif" font-size="13" font-weight="bold" lengthAdjust="spacing" textLength="14.46" x="38.2861" y="758.7607">15</text><text fill="#000000" font-family="sans-serif" font-size="13" lengthAdjust="spacing" textLength="89.5908" x="56.7461" y="758.7607">selects industry</text><polygon fill="#181818" points="42.2861,791.3145,32.2861,795.3145,42.2861,799.3145,38.2861,795.3145" style="stroke:#181818;stroke-width:1.0;"/><line style="stroke:#181818;stroke-width:1.0;stroke-dasharray:2.0,2.0;" x1="36.2861" x2="580.8232" y1="795.3145" y2="795.3145"/><text fill="#000000" font-family="sans-serif" font-size="13" font-weight="bold" lengthAdjust="spacing" textLength="14.46" x="48.2861" y="790.0518">16</text><text fill="#000000" font-family="sans-serif" font-size="13" lengthAdjust="spacing" textLength="309.9941" x="66.7461" y="790.0518">requests industry data (nameID, X and Y coordinates)</text><polygon fill="#181818" points="564.8232,822.6055,574.8232,826.6055,564.8232,830.6055,568.8232,826.6055" style="stroke:#181818;stroke-width:1.0;"/><line style="stroke:#181818;stroke-width:1.0;" x1="31.2861" x2="570.8232" y1="826.6055" y2="826.6055"/><text fill="#000000" font-family="sans-serif" font-size="13" font-weight="bold" lengthAdjust="spacing" textLength="14.46" x="38.2861" y="821.3428">17</text><text fill="#000000" font-family="sans-serif" font-size="13" lengthAdjust="spacing" textLength="198.6943" x="56.7461" y="821.3428">types industry data (nameID, X, Y)</text><polygon fill="#181818" points="784.9585,853.8965,794.9585,857.8965,784.9585,861.8965,788.9585,857.8965" style="stroke:#181818;stroke-width:1.0;"/><line style="stroke:#181818;stroke-width:1.0;" x1="586.8232" x2="790.9585" y1="857.8965" y2="857.8965"/><text fill="#000000" font-family="sans-serif" font-size="13" font-weight="bold" lengthAdjust="spacing" textLength="14.46" x="593.8232" y="852.6338">18</text><text fill="#000000" font-family="sans-serif" font-size="13" lengthAdjust="spacing" textLength="172.6753" x="612.2832" y="852.6338">validateIndustry(nameID, x, y)</text><rect fill="none" height="43.252" style="stroke:#000000;stroke-width:1.5;" width="159.2891" x="722.314" y="865.8965"/><path d="M722.314,865.8965 L783.314,865.8965 L783.314,874.8965 L773.314,884.8965 L722.314,884.8965 L722.314,865.8965 " fill="#EEEEEE" style="stroke:#000000;stroke-width:2.0;"/><text fill="#000000" font-family="sans-serif" font-size="13" font-weight="bold" lengthAdjust="spacing" textLength="16.6182" x="735.314" y="881.9248">ref</text><text fill="#000000" font-family="sans-serif" font-size="12" lengthAdjust="spacing" textLength="115.4063" x="744.2554" y="901.8457">Validate industry data</text><polygon fill="#181818" points="597.8232,933.4395,587.8232,937.4395,597.8232,941.4395,593.8232,937.4395" style="stroke:#181818;stroke-width:1.0;"/><line style="stroke:#181818;stroke-width:1.0;stroke-dasharray:2.0,2.0;" x1="591.8232" x2="800.9585" y1="937.4395" y2="937.4395"/><text fill="#000000" font-family="sans-serif" font-size="13" font-weight="bold" lengthAdjust="spacing" textLength="14.46" x="603.8232" y="932.1768">19</text><text fill="#000000" font-family="sans-serif" font-size="13" lengthAdjust="spacing" textLength="46.96" x="622.2832" y="932.1768">success</text><polygon fill="#181818" points="42.2861,964.7305,32.2861,968.7305,42.2861,972.7305,38.2861,968.7305" style="stroke:#181818;stroke-width:1.0;"/><line style="stroke:#181818;stroke-width:1.0;stroke-dasharray:2.0,2.0;" x1="36.2861" x2="580.8232" y1="968.7305" y2="968.7305"/><text fill="#000000" font-family="sans-serif" font-size="13" font-weight="bold" lengthAdjust="spacing" textLength="14.46" x="48.2861" y="963.4678">20</text><text fill="#000000" font-family="sans-serif" font-size="13" lengthAdjust="spacing" textLength="119.9326" x="66.7461" y="963.4678">asks for confirmation</text><polygon fill="#181818" points="564.8232,996.0215,574.8232,1000.0215,564.8232,1004.0215,568.8232,1000.0215" style="stroke:#181818;stroke-width:1.0;"/><line style="stroke:#181818;stroke-width:1.0;" x1="31.2861" x2="570.8232" y1="1000.0215" y2="1000.0215"/><text fill="#000000" font-family="sans-serif" font-size="13" font-weight="bold" lengthAdjust="spacing" textLength="14.46" x="38.2861" y="994.7588">21</text><text fill="#000000" font-family="sans-serif" font-size="13" lengthAdjust="spacing" textLength="127.1626" x="56.7461" y="994.7588">confirms industry data</text><polygon fill="#181818" points="784.9585,1027.3125,794.9585,1031.3125,784.9585,1035.3125,788.9585,1031.3125" style="stroke:#181818;stroke-width:1.0;"/><line style="stroke:#181818;stroke-width:1.0;" x1="586.8232" x2="790.9585" y1="1031.3125" y2="1031.3125"/><text fill="#000000" font-family="sans-serif" font-size="13" font-weight="bold" lengthAdjust="spacing" textLength="14.46" x="593.8232" y="1026.0498">22</text><text fill="#000000" font-family="sans-serif" font-size="13" lengthAdjust="spacing" textLength="163.998" x="612.2832" y="1026.0498">createIndustry(nameID, x, y)</text><rect fill="none" height="43.252" style="stroke:#000000;stroke-width:1.5;" width="176.0996" x="722.314" y="1039.3125"/><path d="M722.314,1039.3125 L783.314,1039.3125 L783.314,1048.3125 L773.314,1058.3125 L722.314,1058.3125 L722.314,1039.3125 " fill="#EEEEEE" style="stroke:#000000;stroke-width:2.0;"/><text fill="#000000" font-family="sans-serif" font-size="13" font-weight="bold" lengthAdjust="spacing" textLength="16.6182" x="735.314" y="1055.3408">ref</text><text fill="#000000" font-family="sans-serif" font-size="12" lengthAdjust="spacing" textLength="168.0996" x="726.314" y="1075.2617">Create and add industry to map</text><polygon fill="#181818" points="597.8232,1106.8555,587.8232,1110.8555,597.8232,1114.8555,593.8232,1110.8555" style="stroke:#181818;stroke-width:1.0;"/><line style="stroke:#181818;stroke-width:1.0;stroke-dasharray:2.0,2.0;" x1="591.8232" x2="800.9585" y1="1110.8555" y2="1110.8555"/><text fill="#000000" font-family="sans-serif" font-size="13" font-weight="bold" lengthAdjust="spacing" textLength="14.46" x="603.8232" y="1105.5928">23</text><text fill="#000000" font-family="sans-serif" font-size="13" lengthAdjust="spacing" textLength="85.2554" x="622.2832" y="1105.5928">industryDetails</text><polygon fill="#181818" points="42.2861,1138.1465,32.2861,1142.1465,42.2861,1146.1465,38.2861,1142.1465" style="stroke:#181818;stroke-width:1.0;"/><line style="stroke:#181818;stroke-width:1.0;stroke-dasharray:2.0,2.0;" x1="36.2861" x2="575.8232" y1="1142.1465" y2="1142.1465"/><text fill="#000000" font-family="sans-serif" font-size="13" font-weight="bold" lengthAdjust="spacing" textLength="14.46" x="48.2861" y="1136.8838">24</text><text fill="#000000" font-family="sans-serif" font-size="13" lengthAdjust="spacing" textLength="155.3589" x="66.7461" y="1136.8838">displays operation success</text><polygon fill="#181818" points="37.2861,1169.4375,27.2861,1173.4375,37.2861,1177.4375,33.2861,1173.4375" style="stroke:#181818;stroke-width:1.0;"/><line style="stroke:#181818;stroke-width:1.0;stroke-dasharray:2.0,2.0;" x1="31.2861" x2="580.8232" y1="1173.4375" y2="1173.4375"/><text fill="#000000" font-family="sans-serif" font-size="13" font-weight="bold" lengthAdjust="spacing" textLength="14.46" x="43.2861" y="1168.1748">25</text><text fill="#000000" font-family="sans-serif" font-size="13" lengthAdjust="spacing" textLength="174.1416" x="61.7461" y="1168.1748">shows industry details on map</text><!--SRC=[fLRBRjim4BphAnOvsK4253tgK218YiA0UwcReZbkfBLDX29LadAgl-zIBujwsMrriMpj3eSpEvJjcr0v6imWqqedHwCp0cSAYcpt9CVa3G-qSwKaC9GuL0VPBx17JFMxK0VOexGKHLWuhOhibKmKEU6uRKU_2b89mPF00_V4yBpxy17kuI5D0HK8bHRMcP9x4wSDt7nE1N_U05gWwZRYjPn8H8xAmKtidt_5_7bJbMJ-RhhYKIjdj9Hasih7xz-sWrfciMaOD8WZk5x90BB2yxp52HsrT2FWgxw7-qyrGuYv_is2qzKJ_sDTvwyEeDuCzAwwkKRngztUnf0OukBLUh4mXWEvXnCAYQ-IM0tB3K57VzLg8p2u3Er1dyZC5dmX1zWkuQlig8HKElgjWOFxLfpuZEA9ReLrGLDA8wvJUsUuMlMOvrA_Mv0C17e_np64PU6dZ6CiaZpv5h0oRSQp2rv8ZIblRLLZaRzVBvlnzsviUGre5mYuzisunWt-s6Af2nVzfmr-sooSIY4LDfTOSW2E59AChlOZI17owT4T7ICLVNF0hVPZCK7daYexJUG5sIv5gndFHdPqNesUX94HtHhHfT1q7WLnEPDS2arerMHKKCeUcu1YPPdim_UWfrmwHsRHe1a-nhylRAyPKdG8AuKPRPxku6SrJo-GQ6rIeHZChgzdvigSvg7lu6LzaMix8oUKWljR3yeEvlSTb4kJSkMe_6ZmGxRHnK07asAB925h_saoggZjMRj4gxqm6JgXrVLIDrrsXl-Kl4E9wvpE27obZ8yLHZKq_JF3do73Ct8avu9lGw5Rt2To79tHYt1MymdTkxDIvsGgqITjdCpnMUkQ1t1py5zZO5llQ_FlvGy0]--></g></svg>