<svg xmlns="http://www.w3.org/2000/svg" xmlns:xlink="http://www.w3.org/1999/xlink" contentStyleType="text/css" height="1365px" preserveAspectRatio="none" style="width:1583px;height:1365px;background:#FFFFFF;" version="1.1" viewBox="0 0 1583 1365" width="1583px" zoomAndPan="magnify"><title>Sequence Diagram: US02 - Add an industry</title><defs/><g><text fill="#000000" font-family="sans-serif" font-size="14" font-weight="bold" lengthAdjust="spacing" textLength="288.6201" x="646.2346" y="30.1074">Sequence Diagram: US02 - Add an industry</text><rect fill="#FFFFFF" height="1130.8066" style="stroke:#181818;stroke-width:1.0;" width="10" x="21.2861" y="133.2422"/><rect fill="#FFFFFF" height="325.2402" style="stroke:#181818;stroke-width:1.0;" width="10" x="383.7402" y="156.5332"/><rect fill="#FFFFFF" height="31.291" style="stroke:#181818;stroke-width:1.0;" width="10" x="383.7402" y="513.0645"/><rect fill="#FFFFFF" height="344.2012" style="stroke:#181818;stroke-width:1.0;" width="10" x="383.7402" y="575.6465"/><rect fill="#FFFFFF" height="312.9102" style="stroke:#181818;stroke-width:1.0;" width="10" x="383.7402" y="951.1387"/><rect fill="#FFFFFF" height="219.0371" style="stroke:#181818;stroke-width:1.0;" width="10" x="603.8755" y="231.4453"/><rect fill="#FFFFFF" height="281.6191" style="stroke:#181818;stroke-width:1.0;" width="10" x="603.8755" y="606.9375"/><rect fill="#FFFFFF" height="219.0371" style="stroke:#181818;stroke-width:1.0;" width="10" x="603.8755" y="982.4297"/><rect fill="#FFFFFF" height="31.291" style="stroke:#181818;stroke-width:1.0;" width="10" x="736.4268" y="262.7363"/><rect fill="#FFFFFF" height="31.291" style="stroke:#181818;stroke-width:1.0;" width="10" x="840.1851" y="325.3184"/><rect fill="#FFFFFF" height="31.291" style="stroke:#181818;stroke-width:1.0;" width="10" x="840.1851" y="700.8105"/><rect fill="#FFFFFF" height="31.291" style="stroke:#181818;stroke-width:1.0;" width="10" x="965.3398" y="387.9004"/><rect fill="#FFFFFF" height="31.291" style="stroke:#181818;stroke-width:1.0;" width="10" x="1098.6636" y="763.3926"/><rect fill="#FFFFFF" height="31.291" style="stroke:#181818;stroke-width:1.0;" width="10" x="1098.6636" y="1138.8848"/><rect fill="#FFFFFF" height="31.291" style="stroke:#181818;stroke-width:1.0;" width="10" x="1230.832" y="638.2285"/><rect fill="#FFFFFF" height="31.291" style="stroke:#181818;stroke-width:1.0;" width="10" x="1475.7275" y="825.9746"/><rect fill="#FFFFFF" height="31.291" style="stroke:#181818;stroke-width:1.0;" width="10" x="1475.7275" y="1076.3027"/><rect fill="#FFFFFF" height="31.291" style="stroke:#181818;stroke-width:1.0;" width="10" x="1540.1895" y="1013.7207"/><line style="stroke:#181818;stroke-width:0.5;stroke-dasharray:5.0,5.0;" x1="26" x2="26" y1="123.2422" y2="1282.0488"/><line style="stroke:#181818;stroke-width:0.5;stroke-dasharray:5.0,5.0;" x1="388.4404" x2="388.4404" y1="123.2422" y2="1282.0488"/><line style="stroke:#181818;stroke-width:0.5;stroke-dasharray:5.0,5.0;" x1="608.231" x2="608.231" y1="196.3438" y2="1282.0488"/><line style="stroke:#181818;stroke-width:0.5;stroke-dasharray:5.0,5.0;" x1="740.52" x2="740.52" y1="123.2422" y2="1282.0488"/><line style="stroke:#181818;stroke-width:0.5;stroke-dasharray:5.0,5.0;" x1="844.3335" x2="844.3335" y1="123.2422" y2="1282.0488"/><line style="stroke:#181818;stroke-width:0.5;stroke-dasharray:5.0,5.0;" x1="970.0366" x2="970.0366" y1="123.2422" y2="1282.0488"/><line style="stroke:#181818;stroke-width:0.5;stroke-dasharray:5.0,5.0;" x1="1103.6431" x2="1103.6431" y1="123.2422" y2="1282.0488"/><line style="stroke:#181818;stroke-width:0.5;stroke-dasharray:5.0,5.0;" x1="1235.6841" x2="1235.6841" y1="123.2422" y2="1282.0488"/><line style="stroke:#181818;stroke-width:0.5;stroke-dasharray:5.0,5.0;" x1="1379.98" x2="1379.98" y1="123.2422" y2="1282.0488"/><line style="stroke:#181818;stroke-width:0.5;stroke-dasharray:5.0,5.0;" x1="1480.1655" x2="1480.1655" y1="123.2422" y2="1282.0488"/><line style="stroke:#181818;stroke-width:0.5;stroke-dasharray:5.0,5.0;" x1="1544.2896" x2="1544.2896" y1="123.2422" y2="1282.0488"/><text fill="#000000" font-family="sans-serif" font-size="14" lengthAdjust="spacing" textLength="36.5723" x="5" y="119.7285">Editor</text><ellipse cx="26.2861" cy="53.1211" fill="#E3E3E3" rx="8" ry="8" style="stroke:#181818;stroke-width:0.5;"/><path d="M26.2861,61.1211 L26.2861,88.1211 M13.2861,69.1211 L39.2861,69.1211 M26.2861,88.1211 L13.2861,103.1211 M26.2861,88.1211 L39.2861,103.1211 " fill="none" style="stroke:#181818;stroke-width:0.5;"/><text fill="#000000" font-family="sans-serif" font-size="14" lengthAdjust="spacing" textLength="36.5723" x="5" y="1296.1563">Editor</text><ellipse cx="26.2861" cy="1308.1699" fill="#E3E3E3" rx="8" ry="8" style="stroke:#181818;stroke-width:0.5;"/><path d="M26.2861,1316.1699 L26.2861,1343.1699 M13.2861,1324.1699 L39.2861,1324.1699 M26.2861,1343.1699 L13.2861,1358.1699 M26.2861,1343.1699 L39.2861,1358.1699 " fill="none" style="stroke:#181818;stroke-width:0.5;"/><rect fill="#E3E3E3" height="32.6211" rx="2.5" ry="2.5" style="stroke:#181818;stroke-width:0.5;" width="106.5996" x="335.4404" y="89.6211"/><text fill="#000000" font-family="sans-serif" font-size="14" lengthAdjust="spacing" textLength="92.5996" x="342.4404" y="111.7285">:AddIndustryUI</text><rect fill="#E3E3E3" height="32.6211" rx="2.5" ry="2.5" style="stroke:#181818;stroke-width:0.5;" width="106.5996" x="335.4404" y="1281.0488"/><text fill="#000000" font-family="sans-serif" font-size="14" lengthAdjust="spacing" textLength="92.5996" x="342.4404" y="1303.1563">:AddIndustryUI</text><rect fill="#E3E3E3" height="32.6211" rx="2.5" ry="2.5" style="stroke:#181818;stroke-width:0.5;" width="153.2891" x="532.231" y="1281.0488"/><text fill="#000000" font-family="sans-serif" font-size="14" lengthAdjust="spacing" textLength="139.2891" x="539.231" y="1303.1563">:AddIndustryController</text><rect fill="#E3E3E3" height="32.6211" rx="2.5" ry="2.5" style="stroke:#181818;stroke-width:0.5;" width="91.8135" x="695.52" y="89.6211"/><text fill="#000000" font-family="sans-serif" font-size="14" lengthAdjust="spacing" textLength="77.8135" x="702.52" y="111.7285">Repositories</text><rect fill="#E3E3E3" height="32.6211" rx="2.5" ry="2.5" style="stroke:#181818;stroke-width:0.5;" width="91.8135" x="695.52" y="1281.0488"/><text fill="#000000" font-family="sans-serif" font-size="14" lengthAdjust="spacing" textLength="77.8135" x="702.52" y="1303.1563">Repositories</text><rect fill="#E3E3E3" height="51.2422" rx="2.5" ry="2.5" style="stroke:#181818;stroke-width:0.5;" width="95.7031" x="797.3335" y="71"/><text fill="#000000" font-family="sans-serif" font-size="14" lengthAdjust="spacing" textLength="72.3652" x="809.0024" y="93.1074">repositories</text><text fill="#000000" font-family="sans-serif" font-size="14" lengthAdjust="spacing" textLength="81.7031" x="804.3335" y="111.7285">:Repositories</text><rect fill="#E3E3E3" height="51.2422" rx="2.5" ry="2.5" style="stroke:#181818;stroke-width:0.5;" width="95.7031" x="797.3335" y="1281.0488"/><text fill="#000000" font-family="sans-serif" font-size="14" lengthAdjust="spacing" textLength="72.3652" x="809.0024" y="1303.1563">repositories</text><text fill="#000000" font-family="sans-serif" font-size="14" lengthAdjust="spacing" textLength="81.7031" x="804.3335" y="1321.7773">:Repositories</text><rect fill="#E3E3E3" height="51.2422" rx="2.5" ry="2.5" style="stroke:#181818;stroke-width:0.5;" width="134.6064" x="903.0366" y="71"/><text fill="#000000" font-family="sans-serif" font-size="14" lengthAdjust="spacing" textLength="115.9375" x="912.3711" y="93.1074">industryRepository</text><text fill="#000000" font-family="sans-serif" font-size="14" lengthAdjust="spacing" textLength="120.6064" x="910.0366" y="111.7285">:IndustryRepository</text><rect fill="#E3E3E3" height="51.2422" rx="2.5" ry="2.5" style="stroke:#181818;stroke-width:0.5;" width="134.6064" x="903.0366" y="1281.0488"/><text fill="#000000" font-family="sans-serif" font-size="14" lengthAdjust="spacing" textLength="115.9375" x="912.3711" y="1303.1563">industryRepository</text><text fill="#000000" font-family="sans-serif" font-size="14" lengthAdjust="spacing" textLength="120.6064" x="910.0366" y="1321.7773">:IndustryRepository</text><rect fill="#E3E3E3" height="51.2422" rx="2.5" ry="2.5" style="stroke:#181818;stroke-width:0.5;" width="112.041" x="1047.6431" y="71"/><text fill="#000000" font-family="sans-serif" font-size="14" lengthAdjust="spacing" textLength="94.1514" x="1056.5879" y="93.1074">mapRepository</text><text fill="#000000" font-family="sans-serif" font-size="14" lengthAdjust="spacing" textLength="98.041" x="1054.6431" y="111.7285">:MapRepository</text><rect fill="#E3E3E3" height="51.2422" rx="2.5" ry="2.5" style="stroke:#181818;stroke-width:0.5;" width="112.041" x="1047.6431" y="1281.0488"/><text fill="#000000" font-family="sans-serif" font-size="14" lengthAdjust="spacing" textLength="94.1514" x="1056.5879" y="1303.1563">mapRepository</text><text fill="#000000" font-family="sans-serif" font-size="14" lengthAdjust="spacing" textLength="98.041" x="1054.6431" y="1321.7773">:MapRepository</text><rect fill="#E3E3E3" height="32.6211" rx="2.5" ry="2.5" style="stroke:#181818;stroke-width:0.5;" width="132.2959" x="1169.6841" y="89.6211"/><text fill="#000000" font-family="sans-serif" font-size="14" lengthAdjust="spacing" textLength="118.2959" x="1176.6841" y="111.7285">ApplicationSession</text><rect fill="#E3E3E3" height="32.6211" rx="2.5" ry="2.5" style="stroke:#181818;stroke-width:0.5;" width="132.2959" x="1169.6841" y="1281.0488"/><text fill="#000000" font-family="sans-serif" font-size="14" lengthAdjust="spacing" textLength="118.2959" x="1176.6841" y="1303.1563">ApplicationSession</text><rect fill="#E3E3E3" height="51.2422" rx="2.5" ry="2.5" style="stroke:#181818;stroke-width:0.5;" width="136.1855" x="1311.98" y="71"/><text fill="#000000" font-family="sans-serif" font-size="14" lengthAdjust="spacing" textLength="73.165" x="1343.4902" y="93.1074">appSession</text><text fill="#000000" font-family="sans-serif" font-size="14" lengthAdjust="spacing" textLength="122.1855" x="1318.98" y="111.7285">:ApplicationSession</text><rect fill="#E3E3E3" height="51.2422" rx="2.5" ry="2.5" style="stroke:#181818;stroke-width:0.5;" width="136.1855" x="1311.98" y="1281.0488"/><text fill="#000000" font-family="sans-serif" font-size="14" lengthAdjust="spacing" textLength="73.165" x="1343.4902" y="1303.1563">appSession</text><text fill="#000000" font-family="sans-serif" font-size="14" lengthAdjust="spacing" textLength="122.1855" x="1318.98" y="1321.7773">:ApplicationSession</text><rect fill="#E3E3E3" height="51.2422" rx="2.5" ry="2.5" style="stroke:#181818;stroke-width:0.5;" width="45.124" x="1458.1655" y="71"/><text fill="#000000" font-family="sans-serif" font-size="14" lengthAdjust="spacing" textLength="27.2344" x="1467.1104" y="93.1074">map</text><text fill="#000000" font-family="sans-serif" font-size="14" lengthAdjust="spacing" textLength="31.124" x="1465.1655" y="111.7285">:Map</text><rect fill="#E3E3E3" height="51.2422" rx="2.5" ry="2.5" style="stroke:#181818;stroke-width:0.5;" width="45.124" x="1458.1655" y="1281.0488"/><text fill="#000000" font-family="sans-serif" font-size="14" lengthAdjust="spacing" textLength="27.2344" x="1467.1104" y="1303.1563">map</text><text fill="#000000" font-family="sans-serif" font-size="14" lengthAdjust="spacing" textLength="31.124" x="1465.1655" y="1321.7773">:Map</text><rect fill="#E3E3E3" height="32.6211" rx="2.5" ry="2.5" style="stroke:#181818;stroke-width:0.5;" width="63.7998" x="1513.2896" y="89.6211"/><text fill="#000000" font-family="sans-serif" font-size="14" lengthAdjust="spacing" textLength="49.7998" x="1520.2896" y="111.7285">Industry</text><rect fill="#E3E3E3" height="32.6211" rx="2.5" ry="2.5" style="stroke:#181818;stroke-width:0.5;" width="63.7998" x="1513.2896" y="1281.0488"/><text fill="#000000" font-family="sans-serif" font-size="14" lengthAdjust="spacing" textLength="49.7998" x="1520.2896" y="1303.1563">Industry</text><rect fill="#FFFFFF" height="1130.8066" style="stroke:#181818;stroke-width:1.0;" width="10" x="21.2861" y="133.2422"/><rect fill="#FFFFFF" height="325.2402" style="stroke:#181818;stroke-width:1.0;" width="10" x="383.7402" y="156.5332"/><rect fill="#FFFFFF" height="31.291" style="stroke:#181818;stroke-width:1.0;" width="10" x="383.7402" y="513.0645"/><rect fill="#FFFFFF" height="344.2012" style="stroke:#181818;stroke-width:1.0;" width="10" x="383.7402" y="575.6465"/><rect fill="#FFFFFF" height="312.9102" style="stroke:#181818;stroke-width:1.0;" width="10" x="383.7402" y="951.1387"/><rect fill="#FFFFFF" height="219.0371" style="stroke:#181818;stroke-width:1.0;" width="10" x="603.8755" y="231.4453"/><rect fill="#FFFFFF" height="281.6191" style="stroke:#181818;stroke-width:1.0;" width="10" x="603.8755" y="606.9375"/><rect fill="#FFFFFF" height="219.0371" style="stroke:#181818;stroke-width:1.0;" width="10" x="603.8755" y="982.4297"/><rect fill="#FFFFFF" height="31.291" style="stroke:#181818;stroke-width:1.0;" width="10" x="736.4268" y="262.7363"/><rect fill="#FFFFFF" height="31.291" style="stroke:#181818;stroke-width:1.0;" width="10" x="840.1851" y="325.3184"/><rect fill="#FFFFFF" height="31.291" style="stroke:#181818;stroke-width:1.0;" width="10" x="840.1851" y="700.8105"/><rect fill="#FFFFFF" height="31.291" style="stroke:#181818;stroke-width:1.0;" width="10" x="965.3398" y="387.9004"/><rect fill="#FFFFFF" height="31.291" style="stroke:#181818;stroke-width:1.0;" width="10" x="1098.6636" y="763.3926"/><rect fill="#FFFFFF" height="31.291" style="stroke:#181818;stroke-width:1.0;" width="10" x="1098.6636" y="1138.8848"/><rect fill="#FFFFFF" height="31.291" style="stroke:#181818;stroke-width:1.0;" width="10" x="1230.832" y="638.2285"/><rect fill="#FFFFFF" height="31.291" style="stroke:#181818;stroke-width:1.0;" width="10" x="1475.7275" y="825.9746"/><rect fill="#FFFFFF" height="31.291" style="stroke:#181818;stroke-width:1.0;" width="10" x="1475.7275" y="1076.3027"/><rect fill="#FFFFFF" height="31.291" style="stroke:#181818;stroke-width:1.0;" width="10" x="1540.1895" y="1013.7207"/><polygon fill="#181818" points="371.7402,152.5332,381.7402,156.5332,371.7402,160.5332,375.7402,156.5332" style="stroke:#181818;stroke-width:1.0;"/><line style="stroke:#181818;stroke-width:1.0;" x1="31.2861" x2="377.7402" y1="156.5332" y2="156.5332"/><text fill="#000000" font-family="sans-serif" font-size="13" font-weight="bold" lengthAdjust="spacing" textLength="7.23" x="38.2861" y="151.2705">1</text><text fill="#000000" font-family="sans-serif" font-size="13" lengthAdjust="spacing" textLength="115.6162" x="49.5161" y="151.2705">asks to add industry</text><polygon fill="#181818" points="520.231,183.8242,530.231,187.8242,520.231,191.8242,524.231,187.8242" style="stroke:#181818;stroke-width:1.0;"/><line style="stroke:#181818;stroke-width:1.0;" x1="393.7402" x2="526.231" y1="187.8242" y2="187.8242"/><text fill="#000000" font-family="sans-serif" font-size="13" font-weight="bold" lengthAdjust="spacing" textLength="7.23" x="400.7402" y="182.5615">2</text><text fill="#000000" font-family="sans-serif" font-size="13" lengthAdjust="spacing" textLength="44.7891" x="411.9702" y="182.5615">create()</text><rect fill="#E3E3E3" height="32.6211" rx="2.5" ry="2.5" style="stroke:#181818;stroke-width:0.5;" width="153.2891" x="532.231" y="164.5332"/><text fill="#000000" font-family="sans-serif" font-size="14" lengthAdjust="spacing" textLength="139.2891" x="539.231" y="186.6406">:AddIndustryController</text><polygon fill="#181818" points="591.8755,227.4453,601.8755,231.4453,591.8755,235.4453,595.8755,231.4453" style="stroke:#181818;stroke-width:1.0;"/><line style="stroke:#181818;stroke-width:1.0;" x1="393.7402" x2="597.8755" y1="231.4453" y2="231.4453"/><text fill="#000000" font-family="sans-serif" font-size="13" font-weight="bold" lengthAdjust="spacing" textLength="7.23" x="400.7402" y="226.1826">3</text><text fill="#000000" font-family="sans-serif" font-size="13" lengthAdjust="spacing" textLength="135.8462" x="411.9702" y="226.1826">getAvailableIndustries()</text><polygon fill="#181818" points="724.4268,258.7363,734.4268,262.7363,724.4268,266.7363,728.4268,262.7363" style="stroke:#181818;stroke-width:1.0;"/><line style="stroke:#181818;stroke-width:1.0;" x1="613.8755" x2="730.4268" y1="262.7363" y2="262.7363"/><text fill="#000000" font-family="sans-serif" font-size="13" font-weight="bold" lengthAdjust="spacing" textLength="7.23" x="620.8755" y="257.4736">4</text><text fill="#000000" font-family="sans-serif" font-size="13" lengthAdjust="spacing" textLength="75.8735" x="632.1055" y="257.4736">getInstance()</text><polygon fill="#181818" points="624.8755,290.0273,614.8755,294.0273,624.8755,298.0273,620.8755,294.0273" style="stroke:#181818;stroke-width:1.0;"/><line style="stroke:#181818;stroke-width:1.0;stroke-dasharray:2.0,2.0;" x1="618.8755" x2="740.4268" y1="294.0273" y2="294.0273"/><text fill="#000000" font-family="sans-serif" font-size="13" font-weight="bold" lengthAdjust="spacing" textLength="7.23" x="630.8755" y="288.7646">5</text><text fill="#000000" font-family="sans-serif" font-size="13" lengthAdjust="spacing" textLength="67.1963" x="642.1055" y="288.7646">repositories</text><polygon fill="#181818" points="828.1851,321.3184,838.1851,325.3184,828.1851,329.3184,832.1851,325.3184" style="stroke:#181818;stroke-width:1.0;"/><line style="stroke:#181818;stroke-width:1.0;" x1="613.8755" x2="834.1851" y1="325.3184" y2="325.3184"/><text fill="#000000" font-family="sans-serif" font-size="13" font-weight="bold" lengthAdjust="spacing" textLength="7.23" x="620.8755" y="320.0557">6</text><text fill="#000000" font-family="sans-serif" font-size="13" lengthAdjust="spacing" textLength="135.1099" x="632.1055" y="320.0557">getIndustryRepository()</text><polygon fill="#181818" points="624.8755,352.6094,614.8755,356.6094,624.8755,360.6094,620.8755,356.6094" style="stroke:#181818;stroke-width:1.0;"/><line style="stroke:#181818;stroke-width:1.0;stroke-dasharray:2.0,2.0;" x1="618.8755" x2="844.1851" y1="356.6094" y2="356.6094"/><text fill="#000000" font-family="sans-serif" font-size="13" font-weight="bold" lengthAdjust="spacing" textLength="7.23" x="630.8755" y="351.3467">7</text><text fill="#000000" font-family="sans-serif" font-size="13" lengthAdjust="spacing" textLength="107.6563" x="642.1055" y="351.3467">industryRepository</text><polygon fill="#181818" points="953.3398,383.9004,963.3398,387.9004,953.3398,391.9004,957.3398,387.9004" style="stroke:#181818;stroke-width:1.0;"/><line style="stroke:#181818;stroke-width:1.0;" x1="613.8755" x2="959.3398" y1="387.9004" y2="387.9004"/><text fill="#000000" font-family="sans-serif" font-size="13" font-weight="bold" lengthAdjust="spacing" textLength="7.23" x="620.8755" y="382.6377">8</text><text fill="#000000" font-family="sans-serif" font-size="13" lengthAdjust="spacing" textLength="135.8462" x="632.1055" y="382.6377">getAvailableIndustries()</text><polygon fill="#181818" points="624.8755,415.1914,614.8755,419.1914,624.8755,423.1914,620.8755,419.1914" style="stroke:#181818;stroke-width:1.0;"/><line style="stroke:#181818;stroke-width:1.0;stroke-dasharray:2.0,2.0;" x1="618.8755" x2="969.3398" y1="419.1914" y2="419.1914"/><text fill="#000000" font-family="sans-serif" font-size="13" font-weight="bold" lengthAdjust="spacing" textLength="7.23" x="630.8755" y="413.9287">9</text><text fill="#000000" font-family="sans-serif" font-size="13" lengthAdjust="spacing" textLength="127.9053" x="642.1055" y="413.9287">availableIndustriesList</text><polygon fill="#181818" points="404.7402,446.4824,394.7402,450.4824,404.7402,454.4824,400.7402,450.4824" style="stroke:#181818;stroke-width:1.0;"/><line style="stroke:#181818;stroke-width:1.0;stroke-dasharray:2.0,2.0;" x1="398.7402" x2="607.8755" y1="450.4824" y2="450.4824"/><text fill="#000000" font-family="sans-serif" font-size="13" font-weight="bold" lengthAdjust="spacing" textLength="14.46" x="410.7402" y="445.2197">10</text><text fill="#000000" font-family="sans-serif" font-size="13" lengthAdjust="spacing" textLength="127.9053" x="429.2002" y="445.2197">availableIndustriesList</text><polygon fill="#181818" points="42.2861,477.7734,32.2861,481.7734,42.2861,485.7734,38.2861,481.7734" style="stroke:#181818;stroke-width:1.0;"/><line style="stroke:#181818;stroke-width:1.0;stroke-dasharray:2.0,2.0;" x1="36.2861" x2="387.7402" y1="481.7734" y2="481.7734"/><text fill="#000000" font-family="sans-serif" font-size="13" font-weight="bold" lengthAdjust="spacing" textLength="14.46" x="48.2861" y="476.5107">11</text><text fill="#000000" font-family="sans-serif" font-size="13" lengthAdjust="spacing" textLength="222.5552" x="66.7461" y="476.5107">shows all industries available in the list</text><polygon fill="#181818" points="371.7402,509.0645,381.7402,513.0645,371.7402,517.0645,375.7402,513.0645" style="stroke:#181818;stroke-width:1.0;"/><line style="stroke:#181818;stroke-width:1.0;" x1="31.2861" x2="377.7402" y1="513.0645" y2="513.0645"/><text fill="#000000" font-family="sans-serif" font-size="13" font-weight="bold" lengthAdjust="spacing" textLength="14.46" x="38.2861" y="507.8018">12</text><text fill="#000000" font-family="sans-serif" font-size="13" lengthAdjust="spacing" textLength="117.7744" x="56.7461" y="507.8018">selects industry type</text><polygon fill="#181818" points="42.2861,540.3555,32.2861,544.3555,42.2861,548.3555,38.2861,544.3555" style="stroke:#181818;stroke-width:1.0;"/><line style="stroke:#181818;stroke-width:1.0;stroke-dasharray:2.0,2.0;" x1="36.2861" x2="387.7402" y1="544.3555" y2="544.3555"/><text fill="#000000" font-family="sans-serif" font-size="13" font-weight="bold" lengthAdjust="spacing" textLength="14.46" x="48.2861" y="539.0928">13</text><text fill="#000000" font-family="sans-serif" font-size="13" lengthAdjust="spacing" textLength="309.9941" x="66.7461" y="539.0928">requests industry data (nameID, X and Y coordinates)</text><polygon fill="#181818" points="371.7402,571.6465,381.7402,575.6465,371.7402,579.6465,375.7402,575.6465" style="stroke:#181818;stroke-width:1.0;"/><line style="stroke:#181818;stroke-width:1.0;" x1="31.2861" x2="377.7402" y1="575.6465" y2="575.6465"/><text fill="#000000" font-family="sans-serif" font-size="13" font-weight="bold" lengthAdjust="spacing" textLength="14.46" x="38.2861" y="570.3838">14</text><text fill="#000000" font-family="sans-serif" font-size="13" lengthAdjust="spacing" textLength="198.6943" x="56.7461" y="570.3838">types industry data (nameID, X, Y)</text><polygon fill="#181818" points="591.8755,602.9375,601.8755,606.9375,591.8755,610.9375,595.8755,606.9375" style="stroke:#181818;stroke-width:1.0;"/><line style="stroke:#181818;stroke-width:1.0;" x1="393.7402" x2="597.8755" y1="606.9375" y2="606.9375"/><text fill="#000000" font-family="sans-serif" font-size="13" font-weight="bold" lengthAdjust="spacing" textLength="14.46" x="400.7402" y="601.6748">15</text><text fill="#000000" font-family="sans-serif" font-size="13" lengthAdjust="spacing" textLength="172.6753" x="419.2002" y="601.6748">validateIndustry(nameID, x, y)</text><polygon fill="#181818" points="1218.832,634.2285,1228.832,638.2285,1218.832,642.2285,1222.832,638.2285" style="stroke:#181818;stroke-width:1.0;"/><line style="stroke:#181818;stroke-width:1.0;" x1="613.8755" x2="1224.832" y1="638.2285" y2="638.2285"/><text fill="#000000" font-family="sans-serif" font-size="13" font-weight="bold" lengthAdjust="spacing" textLength="14.46" x="620.8755" y="632.9658">16</text><text fill="#000000" font-family="sans-serif" font-size="13" lengthAdjust="spacing" textLength="75.8735" x="639.3354" y="632.9658">getInstance()</text><polygon fill="#181818" points="624.8755,665.5195,614.8755,669.5195,624.8755,673.5195,620.8755,669.5195" style="stroke:#181818;stroke-width:1.0;"/><line style="stroke:#181818;stroke-width:1.0;stroke-dasharray:2.0,2.0;" x1="618.8755" x2="1234.832" y1="669.5195" y2="669.5195"/><text fill="#000000" font-family="sans-serif" font-size="13" font-weight="bold" lengthAdjust="spacing" textLength="14.46" x="630.8755" y="664.2568">17</text><text fill="#000000" font-family="sans-serif" font-size="13" lengthAdjust="spacing" textLength="114.5435" x="649.3354" y="664.2568">cMap = appSession</text><polygon fill="#181818" points="828.1851,696.8105,838.1851,700.8105,828.1851,704.8105,832.1851,700.8105" style="stroke:#181818;stroke-width:1.0;"/><line style="stroke:#181818;stroke-width:1.0;" x1="613.8755" x2="834.1851" y1="700.8105" y2="700.8105"/><text fill="#000000" font-family="sans-serif" font-size="13" font-weight="bold" lengthAdjust="spacing" textLength="14.46" x="620.8755" y="695.5479">18</text><text fill="#000000" font-family="sans-serif" font-size="13" lengthAdjust="spacing" textLength="117.7681" x="639.3354" y="695.5479">getIMapRepository()</text><polygon fill="#181818" points="624.8755,728.1016,614.8755,732.1016,624.8755,736.1016,620.8755,732.1016" style="stroke:#181818;stroke-width:1.0;"/><line style="stroke:#181818;stroke-width:1.0;stroke-dasharray:2.0,2.0;" x1="618.8755" x2="844.1851" y1="732.1016" y2="732.1016"/><text fill="#000000" font-family="sans-serif" font-size="13" font-weight="bold" lengthAdjust="spacing" textLength="14.46" x="630.8755" y="726.8389">19</text><text fill="#000000" font-family="sans-serif" font-size="13" lengthAdjust="spacing" textLength="87.4263" x="649.3354" y="726.8389">mapRepository</text><polygon fill="#181818" points="1086.6636,759.3926,1096.6636,763.3926,1086.6636,767.3926,1090.6636,763.3926" style="stroke:#181818;stroke-width:1.0;"/><line style="stroke:#181818;stroke-width:1.0;" x1="613.8755" x2="1092.6636" y1="763.3926" y2="763.3926"/><text fill="#000000" font-family="sans-serif" font-size="13" font-weight="bold" lengthAdjust="spacing" textLength="14.46" x="620.8755" y="758.1299">20</text><text fill="#000000" font-family="sans-serif" font-size="13" lengthAdjust="spacing" textLength="127.1563" x="639.3354" y="758.1299">getCurrentMap(cMap)</text><polygon fill="#181818" points="624.8755,790.6836,614.8755,794.6836,624.8755,798.6836,620.8755,794.6836" style="stroke:#181818;stroke-width:1.0;"/><line style="stroke:#181818;stroke-width:1.0;stroke-dasharray:2.0,2.0;" x1="618.8755" x2="1102.6636" y1="794.6836" y2="794.6836"/><text fill="#000000" font-family="sans-serif" font-size="13" font-weight="bold" lengthAdjust="spacing" textLength="14.46" x="630.8755" y="789.4209">21</text><text fill="#000000" font-family="sans-serif" font-size="13" lengthAdjust="spacing" textLength="25.2891" x="649.3354" y="789.4209">map</text><polygon fill="#181818" points="1463.7275,821.9746,1473.7275,825.9746,1463.7275,829.9746,1467.7275,825.9746" style="stroke:#181818;stroke-width:1.0;"/><line style="stroke:#181818;stroke-width:1.0;" x1="613.8755" x2="1469.7275" y1="825.9746" y2="825.9746"/><text fill="#000000" font-family="sans-serif" font-size="13" font-weight="bold" lengthAdjust="spacing" textLength="14.46" x="620.8755" y="820.7119">22</text><text fill="#000000" font-family="sans-serif" font-size="13" lengthAdjust="spacing" textLength="97.5063" x="639.3354" y="820.7119">isCellEmpty(x, y)</text><polygon fill="#181818" points="624.8755,853.2656,614.8755,857.2656,624.8755,861.2656,620.8755,857.2656" style="stroke:#181818;stroke-width:1.0;"/><line style="stroke:#181818;stroke-width:1.0;stroke-dasharray:2.0,2.0;" x1="618.8755" x2="1479.7275" y1="857.2656" y2="857.2656"/><text fill="#000000" font-family="sans-serif" font-size="13" font-weight="bold" lengthAdjust="spacing" textLength="14.46" x="630.8755" y="852.0029">23</text><text fill="#000000" font-family="sans-serif" font-size="13" lengthAdjust="spacing" textLength="66.46" x="649.3354" y="852.0029">cellIsEmpty</text><polygon fill="#181818" points="404.7402,884.5566,394.7402,888.5566,404.7402,892.5566,400.7402,888.5566" style="stroke:#181818;stroke-width:1.0;"/><line style="stroke:#181818;stroke-width:1.0;stroke-dasharray:2.0,2.0;" x1="398.7402" x2="607.8755" y1="888.5566" y2="888.5566"/><text fill="#000000" font-family="sans-serif" font-size="13" font-weight="bold" lengthAdjust="spacing" textLength="14.46" x="410.7402" y="883.2939">24</text><text fill="#000000" font-family="sans-serif" font-size="13" lengthAdjust="spacing" textLength="46.96" x="429.2002" y="883.2939">success</text><polygon fill="#181818" points="42.2861,915.8477,32.2861,919.8477,42.2861,923.8477,38.2861,919.8477" style="stroke:#181818;stroke-width:1.0;"/><line style="stroke:#181818;stroke-width:1.0;stroke-dasharray:2.0,2.0;" x1="36.2861" x2="387.7402" y1="919.8477" y2="919.8477"/><text fill="#000000" font-family="sans-serif" font-size="13" font-weight="bold" lengthAdjust="spacing" textLength="14.46" x="48.2861" y="914.585">25</text><text fill="#000000" font-family="sans-serif" font-size="13" lengthAdjust="spacing" textLength="119.9326" x="66.7461" y="914.585">asks for confirmation</text><polygon fill="#181818" points="371.7402,947.1387,381.7402,951.1387,371.7402,955.1387,375.7402,951.1387" style="stroke:#181818;stroke-width:1.0;"/><line style="stroke:#181818;stroke-width:1.0;" x1="31.2861" x2="377.7402" y1="951.1387" y2="951.1387"/><text fill="#000000" font-family="sans-serif" font-size="13" font-weight="bold" lengthAdjust="spacing" textLength="14.46" x="38.2861" y="945.876">26</text><text fill="#000000" font-family="sans-serif" font-size="13" lengthAdjust="spacing" textLength="127.1626" x="56.7461" y="945.876">confirms industry data</text><polygon fill="#181818" points="591.8755,978.4297,601.8755,982.4297,591.8755,986.4297,595.8755,982.4297" style="stroke:#181818;stroke-width:1.0;"/><line style="stroke:#181818;stroke-width:1.0;" x1="393.7402" x2="597.8755" y1="982.4297" y2="982.4297"/><text fill="#000000" font-family="sans-serif" font-size="13" font-weight="bold" lengthAdjust="spacing" textLength="14.46" x="400.7402" y="977.167">27</text><text fill="#000000" font-family="sans-serif" font-size="13" lengthAdjust="spacing" textLength="163.998" x="419.2002" y="977.167">createIndustry(nameID, x, y)</text><polygon fill="#181818" points="1528.1895,1009.7207,1538.1895,1013.7207,1528.1895,1017.7207,1532.1895,1013.7207" style="stroke:#181818;stroke-width:1.0;"/><line style="stroke:#181818;stroke-width:1.0;" x1="613.8755" x2="1534.1895" y1="1013.7207" y2="1013.7207"/><text fill="#000000" font-family="sans-serif" font-size="13" font-weight="bold" lengthAdjust="spacing" textLength="14.46" x="620.8755" y="1008.458">28</text><text fill="#000000" font-family="sans-serif" font-size="13" lengthAdjust="spacing" textLength="117.7554" x="639.3354" y="1008.458">create(nameID, x, y)</text><polygon fill="#181818" points="624.8755,1041.0117,614.8755,1045.0117,624.8755,1049.0117,620.8755,1045.0117" style="stroke:#181818;stroke-width:1.0;"/><line style="stroke:#181818;stroke-width:1.0;stroke-dasharray:2.0,2.0;" x1="618.8755" x2="1544.1895" y1="1045.0117" y2="1045.0117"/><text fill="#000000" font-family="sans-serif" font-size="13" font-weight="bold" lengthAdjust="spacing" textLength="14.46" x="630.8755" y="1039.749">29</text><text fill="#000000" font-family="sans-serif" font-size="13" lengthAdjust="spacing" textLength="70.0908" x="649.3354" y="1039.749">newIndustry</text><polygon fill="#181818" points="1463.7275,1072.3027,1473.7275,1076.3027,1463.7275,1080.3027,1467.7275,1076.3027" style="stroke:#181818;stroke-width:1.0;"/><line style="stroke:#181818;stroke-width:1.0;" x1="613.8755" x2="1469.7275" y1="1076.3027" y2="1076.3027"/><text fill="#000000" font-family="sans-serif" font-size="13" font-weight="bold" lengthAdjust="spacing" textLength="14.46" x="620.8755" y="1071.04">30</text><text fill="#000000" font-family="sans-serif" font-size="13" lengthAdjust="spacing" textLength="146.6816" x="639.3354" y="1071.04">addIndustry(newIndustry)</text><polygon fill="#181818" points="624.8755,1103.5938,614.8755,1107.5938,624.8755,1111.5938,620.8755,1107.5938" style="stroke:#181818;stroke-width:1.0;"/><line style="stroke:#181818;stroke-width:1.0;stroke-dasharray:2.0,2.0;" x1="618.8755" x2="1479.7275" y1="1107.5938" y2="1107.5938"/><text fill="#000000" font-family="sans-serif" font-size="13" font-weight="bold" lengthAdjust="spacing" textLength="14.46" x="630.8755" y="1102.3311">31</text><text fill="#000000" font-family="sans-serif" font-size="13" lengthAdjust="spacing" textLength="46.96" x="649.3354" y="1102.3311">success</text><polygon fill="#181818" points="1086.6636,1134.8848,1096.6636,1138.8848,1086.6636,1142.8848,1090.6636,1138.8848" style="stroke:#181818;stroke-width:1.0;"/><line style="stroke:#181818;stroke-width:1.0;" x1="613.8755" x2="1092.6636" y1="1138.8848" y2="1138.8848"/><text fill="#000000" font-family="sans-serif" font-size="13" font-weight="bold" lengthAdjust="spacing" textLength="14.46" x="620.8755" y="1133.6221">32</text><text fill="#000000" font-family="sans-serif" font-size="13" lengthAdjust="spacing" textLength="101.8672" x="639.3354" y="1133.6221">save(currentMap)</text><polygon fill="#181818" points="624.8755,1166.1758,614.8755,1170.1758,624.8755,1174.1758,620.8755,1170.1758" style="stroke:#181818;stroke-width:1.0;"/><line style="stroke:#181818;stroke-width:1.0;stroke-dasharray:2.0,2.0;" x1="618.8755" x2="1102.6636" y1="1170.1758" y2="1170.1758"/><text fill="#000000" font-family="sans-serif" font-size="13" font-weight="bold" lengthAdjust="spacing" textLength="14.46" x="630.8755" y="1164.9131">33</text><text fill="#000000" font-family="sans-serif" font-size="13" lengthAdjust="spacing" textLength="46.96" x="649.3354" y="1164.9131">success</text><polygon fill="#181818" points="404.7402,1197.4668,394.7402,1201.4668,404.7402,1205.4668,400.7402,1201.4668" style="stroke:#181818;stroke-width:1.0;"/><line style="stroke:#181818;stroke-width:1.0;stroke-dasharray:2.0,2.0;" x1="398.7402" x2="607.8755" y1="1201.4668" y2="1201.4668"/><text fill="#000000" font-family="sans-serif" font-size="13" font-weight="bold" lengthAdjust="spacing" textLength="14.46" x="410.7402" y="1196.2041">34</text><text fill="#000000" font-family="sans-serif" font-size="13" lengthAdjust="spacing" textLength="147.0308" x="429.2002" y="1196.2041">success + industryDetails</text><polygon fill="#181818" points="42.2861,1228.7578,32.2861,1232.7578,42.2861,1236.7578,38.2861,1232.7578" style="stroke:#181818;stroke-width:1.0;"/><line style="stroke:#181818;stroke-width:1.0;stroke-dasharray:2.0,2.0;" x1="36.2861" x2="382.7402" y1="1232.7578" y2="1232.7578"/><text fill="#000000" font-family="sans-serif" font-size="13" font-weight="bold" lengthAdjust="spacing" textLength="14.46" x="48.2861" y="1227.4951">35</text><text fill="#000000" font-family="sans-serif" font-size="13" lengthAdjust="spacing" textLength="155.3589" x="66.7461" y="1227.4951">displays operation success</text><polygon fill="#181818" points="37.2861,1260.0488,27.2861,1264.0488,37.2861,1268.0488,33.2861,1264.0488" style="stroke:#181818;stroke-width:1.0;"/><line style="stroke:#181818;stroke-width:1.0;stroke-dasharray:2.0,2.0;" x1="31.2861" x2="387.7402" y1="1264.0488" y2="1264.0488"/><text fill="#000000" font-family="sans-serif" font-size="13" font-weight="bold" lengthAdjust="spacing" textLength="14.46" x="43.2861" y="1258.7861">36</text><text fill="#000000" font-family="sans-serif" font-size="13" lengthAdjust="spacing" textLength="174.1416" x="61.7461" y="1258.7861">shows industry details on map</text><!--SRC=[hLRVQzim47xtNt7qAUbQ67iCR12IC0pz4UeMDXWKLLPJKLdo92MT__kT5SUH7SaEOtf9RDrz-ixttPtCEvSbqQI0Gab5txGg65YzPObfTqf2tyc6PROI33IZbiYDy0tC6ydL1vSRU2N2i2GXMwlajdXXEaaij-YMiTzR9Yc39ISRz9d1K_Rv2rp3FC-1IE0otnghA_IbLccuMEKSVo-0663kRu9dMKvvIQI5YndwfOtFK-hCdjAuoK99gvKGR8-uU7ouwHe_i5AP-XZEZ3DvMAtliwwDzcn-oLdOvJbBxxxVh1xlxxhEXm1RhmeXqfEN7b1wj-n25AJiUD_wpvxZxNpTTPoNfU2KMAvanep17sSzNw-VirMMfNskf2mREpnbt3aMClBTitGE9wmEmRlTEjWwzNn7B3jaF05S-_zm_GqJ33EqVJTW5H3KJIiQQ5OBW5feNzOBNH6WJllbvGoePcWqcKPCPh1XThuZN90NmHgQc6Hqw7YqfpavGM_LBsj4bnC7cKg3fKFx1tUWzhA3m78xSDrozDLuuf2p7k8mlMC66w9zMOvIzZGG9N-qyS8uhOlHOBopah70K5S3wHo9gHPbF1hSzU8WfmVSS6F7Wt7A3mVXD7yUj0Vhr9ZuiaQSVHNDi5Mh3mD4YCE7Hx3Z0VWIx1i3uSDxq8UoyciICPd0eM3QL8AjIXQioGWfNGy7uoFan1AOI5AmT7a5Ft12vF0Jg58wvnB1pFHyUZMREFGL_9oESZqaUKS4H_z38geMviyLLDE1vf245EgrqA7-q2Bv_Rel66_F4oN5vWjVuTZFOvhnePEpsqHd0CLOZxM7U6lepBlat8uGPuyJoF5URBLcqYBxIVs11ddNKolC67UwN8SPra11ReuLDmicnAeeRJKPq5A8JPS7HPZKEA0O7yTakEEOBQKec7_gC6v0lsBvKILVkIxSpU7yQcsyUWKxMA7zAjsFz_zJesv-DFU5E507B3OrklD2ie-qVtq9VAI1wT18XnnlkHCFT81WI4MdIWff8AIauVdhA1goOnFQLjtet8qH31NU6JGZ1HWHFNngfRTa5WVZ2NQq4WBLa7DJ2b8PK2NJhXI2Z8DJ-bW1Unw0pdMVYHMJzzXSeFy2]--></g></svg>