<svg xmlns="http://www.w3.org/2000/svg" xmlns:xlink="http://www.w3.org/1999/xlink" contentStyleType="text/css" height="530px" preserveAspectRatio="none" style="width:782px;height:530px;background:#FFFFFF;" version="1.1" viewBox="0 0 782 530" width="782px" zoomAndPan="magnify"><defs/><g><rect fill="#FFFFFF" height="336.2012" style="stroke:#181818;stroke-width:1.0;" width="10" x="21.2861" y="93.6211"/><rect fill="#FFFFFF" height="31.291" style="stroke:#181818;stroke-width:1.0;" width="10" x="253.7231" y="116.9121"/><rect fill="#FFFFFF" height="250.3281" style="stroke:#181818;stroke-width:1.0;" width="10" x="253.7231" y="179.4941"/><rect fill="#FFFFFF" height="156.4551" style="stroke:#181818;stroke-width:1.0;" width="10" x="406.1226" y="210.7852"/><rect fill="#FFFFFF" height="31.291" style="stroke:#181818;stroke-width:1.0;" width="10" x="585.0342" y="242.0762"/><rect fill="#FFFFFF" height="31.291" style="stroke:#181818;stroke-width:1.0;" width="10" x="701.6372" y="304.6582"/><line style="stroke:#181818;stroke-width:0.5;stroke-dasharray:5.0,5.0;" x1="26" x2="26" y1="83.6211" y2="447.8223"/><line style="stroke:#181818;stroke-width:0.5;stroke-dasharray:5.0,5.0;" x1="258.1958" x2="258.1958" y1="83.6211" y2="447.8223"/><line style="stroke:#181818;stroke-width:0.5;stroke-dasharray:5.0,5.0;" x1="410.2505" x2="410.2505" y1="83.6211" y2="447.8223"/><line style="stroke:#181818;stroke-width:0.5;stroke-dasharray:5.0,5.0;" x1="589.4619" x2="589.4619" y1="83.6211" y2="447.8223"/><line style="stroke:#181818;stroke-width:0.5;stroke-dasharray:5.0,5.0;" x1="706.6064" x2="706.6064" y1="83.6211" y2="447.8223"/><text fill="#000000" font-family="sans-serif" font-size="14" lengthAdjust="spacing" textLength="36.5723" x="5" y="80.1074">Editor</text><ellipse cx="26.2861" cy="13.5" fill="#E3E3E3" rx="8" ry="8" style="stroke:#181818;stroke-width:0.5;"/><path d="M26.2861,21.5 L26.2861,48.5 M13.2861,29.5 L39.2861,29.5 M26.2861,48.5 L13.2861,63.5 M26.2861,48.5 L39.2861,63.5 " fill="none" style="stroke:#181818;stroke-width:0.5;"/><text fill="#000000" font-family="sans-serif" font-size="14" lengthAdjust="spacing" textLength="36.5723" x="5" y="461.9297">Editor</text><ellipse cx="26.2861" cy="473.9434" fill="#E3E3E3" rx="8" ry="8" style="stroke:#181818;stroke-width:0.5;"/><path d="M26.2861,481.9434 L26.2861,508.9434 M13.2861,489.9434 L39.2861,489.9434 M26.2861,508.9434 L13.2861,523.9434 M26.2861,508.9434 L39.2861,523.9434 " fill="none" style="stroke:#181818;stroke-width:0.5;"/><rect fill="#E3E3E3" height="32.6211" rx="2.5" ry="2.5" style="stroke:#181818;stroke-width:0.5;" width="119.0547" x="199.1958" y="50"/><text fill="#000000" font-family="sans-serif" font-size="14" lengthAdjust="spacing" textLength="105.0547" x="206.1958" y="72.1074">:SaveScenarioUI</text><rect fill="#E3E3E3" height="32.6211" rx="2.5" ry="2.5" style="stroke:#181818;stroke-width:0.5;" width="119.0547" x="199.1958" y="446.8223"/><text fill="#000000" font-family="sans-serif" font-size="14" lengthAdjust="spacing" textLength="105.0547" x="206.1958" y="468.9297">:SaveScenarioUI</text><rect fill="#E3E3E3" height="32.6211" rx="2.5" ry="2.5" style="stroke:#181818;stroke-width:0.5;" width="165.7441" x="328.2505" y="50"/><text fill="#000000" font-family="sans-serif" font-size="14" lengthAdjust="spacing" textLength="151.7441" x="335.2505" y="72.1074">:SaveScenarioController</text><rect fill="#E3E3E3" height="32.6211" rx="2.5" ry="2.5" style="stroke:#181818;stroke-width:0.5;" width="165.7441" x="328.2505" y="446.8223"/><text fill="#000000" font-family="sans-serif" font-size="14" lengthAdjust="spacing" textLength="151.7441" x="335.2505" y="468.9297">:SaveScenarioController</text><rect fill="#E3E3E3" height="32.6211" rx="2.5" ry="2.5" style="stroke:#181818;stroke-width:0.5;" width="73.1445" x="553.4619" y="50"/><text fill="#000000" font-family="sans-serif" font-size="14" lengthAdjust="spacing" textLength="59.1445" x="560.4619" y="72.1074">:Scenario</text><rect fill="#E3E3E3" height="32.6211" rx="2.5" ry="2.5" style="stroke:#181818;stroke-width:0.5;" width="73.1445" x="553.4619" y="446.8223"/><text fill="#000000" font-family="sans-serif" font-size="14" lengthAdjust="spacing" textLength="59.1445" x="560.4619" y="468.9297">:Scenario</text><rect fill="#E3E3E3" height="32.6211" rx="2.5" ry="2.5" style="stroke:#181818;stroke-width:0.5;" width="140.0615" x="636.6064" y="50"/><text fill="#000000" font-family="sans-serif" font-size="14" lengthAdjust="spacing" textLength="126.0615" x="643.6064" y="72.1074">:ScenarioRepository</text><rect fill="#E3E3E3" height="32.6211" rx="2.5" ry="2.5" style="stroke:#181818;stroke-width:0.5;" width="140.0615" x="636.6064" y="446.8223"/><text fill="#000000" font-family="sans-serif" font-size="14" lengthAdjust="spacing" textLength="126.0615" x="643.6064" y="468.9297">:ScenarioRepository</text><rect fill="#FFFFFF" height="336.2012" style="stroke:#181818;stroke-width:1.0;" width="10" x="21.2861" y="93.6211"/><rect fill="#FFFFFF" height="31.291" style="stroke:#181818;stroke-width:1.0;" width="10" x="253.7231" y="116.9121"/><rect fill="#FFFFFF" height="250.3281" style="stroke:#181818;stroke-width:1.0;" width="10" x="253.7231" y="179.4941"/><rect fill="#FFFFFF" height="156.4551" style="stroke:#181818;stroke-width:1.0;" width="10" x="406.1226" y="210.7852"/><rect fill="#FFFFFF" height="31.291" style="stroke:#181818;stroke-width:1.0;" width="10" x="585.0342" y="242.0762"/><rect fill="#FFFFFF" height="31.291" style="stroke:#181818;stroke-width:1.0;" width="10" x="701.6372" y="304.6582"/><polygon fill="#181818" points="241.7231,112.9121,251.7231,116.9121,241.7231,120.9121,245.7231,116.9121" style="stroke:#181818;stroke-width:1.0;"/><line style="stroke:#181818;stroke-width:1.0;" x1="31.2861" x2="247.7231" y1="116.9121" y2="116.9121"/><text fill="#000000" font-family="sans-serif" font-size="13" font-weight="bold" lengthAdjust="spacing" textLength="7.23" x="38.2861" y="111.6494">1</text><text fill="#000000" font-family="sans-serif" font-size="13" lengthAdjust="spacing" textLength="192.207" x="49.5161" y="111.6494">requests to save current scenario</text><polygon fill="#181818" points="42.2861,144.2031,32.2861,148.2031,42.2861,152.2031,38.2861,148.2031" style="stroke:#181818;stroke-width:1.0;"/><line style="stroke:#181818;stroke-width:1.0;stroke-dasharray:2.0,2.0;" x1="36.2861" x2="257.7231" y1="148.2031" y2="148.2031"/><text fill="#000000" font-family="sans-serif" font-size="13" font-weight="bold" lengthAdjust="spacing" textLength="7.23" x="48.2861" y="142.9404">2</text><text fill="#000000" font-family="sans-serif" font-size="13" lengthAdjust="spacing" textLength="155.3525" x="59.5161" y="142.9404">requests save confirmation</text><polygon fill="#181818" points="241.7231,175.4941,251.7231,179.4941,241.7231,183.4941,245.7231,179.4941" style="stroke:#181818;stroke-width:1.0;"/><line style="stroke:#181818;stroke-width:1.0;" x1="31.2861" x2="247.7231" y1="179.4941" y2="179.4941"/><text fill="#000000" font-family="sans-serif" font-size="13" font-weight="bold" lengthAdjust="spacing" textLength="7.23" x="38.2861" y="174.2314">3</text><text fill="#000000" font-family="sans-serif" font-size="13" lengthAdjust="spacing" textLength="138.0107" x="49.5161" y="174.2314">confirms save operation</text><polygon fill="#181818" points="394.1226,206.7852,404.1226,210.7852,394.1226,214.7852,398.1226,210.7852" style="stroke:#181818;stroke-width:1.0;"/><line style="stroke:#181818;stroke-width:1.0;" x1="263.7231" x2="400.1226" y1="210.7852" y2="210.7852"/><text fill="#000000" font-family="sans-serif" font-size="13" font-weight="bold" lengthAdjust="spacing" textLength="7.23" x="270.7231" y="205.5225">4</text><text fill="#000000" font-family="sans-serif" font-size="13" lengthAdjust="spacing" textLength="87.4263" x="281.9531" y="205.5225">saveScenario()</text><polygon fill="#181818" points="573.0342,238.0762,583.0342,242.0762,573.0342,246.0762,577.0342,242.0762" style="stroke:#181818;stroke-width:1.0;"/><line style="stroke:#181818;stroke-width:1.0;" x1="416.1226" x2="579.0342" y1="242.0762" y2="242.0762"/><text fill="#000000" font-family="sans-serif" font-size="13" font-weight="bold" lengthAdjust="spacing" textLength="7.23" x="423.1226" y="236.8135">5</text><text fill="#000000" font-family="sans-serif" font-size="13" lengthAdjust="spacing" textLength="56.3418" x="434.3525" y="236.8135">serialize()</text><polygon fill="#181818" points="427.1226,269.3672,417.1226,273.3672,427.1226,277.3672,423.1226,273.3672" style="stroke:#181818;stroke-width:1.0;"/><line style="stroke:#181818;stroke-width:1.0;stroke-dasharray:2.0,2.0;" x1="421.1226" x2="589.0342" y1="273.3672" y2="273.3672"/><text fill="#000000" font-family="sans-serif" font-size="13" font-weight="bold" lengthAdjust="spacing" textLength="7.23" x="433.1226" y="268.1045">6</text><text fill="#000000" font-family="sans-serif" font-size="13" lengthAdjust="spacing" textLength="133.6816" x="444.3525" y="268.1045">serializedScenarioData</text><polygon fill="#181818" points="689.6372,300.6582,699.6372,304.6582,689.6372,308.6582,693.6372,304.6582" style="stroke:#181818;stroke-width:1.0;"/><line style="stroke:#181818;stroke-width:1.0;" x1="416.1226" x2="695.6372" y1="304.6582" y2="304.6582"/><text fill="#000000" font-family="sans-serif" font-size="13" font-weight="bold" lengthAdjust="spacing" textLength="7.23" x="423.1226" y="299.3955">7</text><text fill="#000000" font-family="sans-serif" font-size="13" lengthAdjust="spacing" textLength="221.1079" x="434.3525" y="299.3955">saveScenario(serializedScenarioData)</text><polygon fill="#181818" points="427.1226,331.9492,417.1226,335.9492,427.1226,339.9492,423.1226,335.9492" style="stroke:#181818;stroke-width:1.0;"/><line style="stroke:#181818;stroke-width:1.0;stroke-dasharray:2.0,2.0;" x1="421.1226" x2="705.6372" y1="335.9492" y2="335.9492"/><text fill="#000000" font-family="sans-serif" font-size="13" font-weight="bold" lengthAdjust="spacing" textLength="7.23" x="433.1226" y="330.6865">8</text><text fill="#000000" font-family="sans-serif" font-size="13" lengthAdjust="spacing" textLength="46.96" x="444.3525" y="330.6865">success</text><polygon fill="#181818" points="274.7231,363.2402,264.7231,367.2402,274.7231,371.2402,270.7231,367.2402" style="stroke:#181818;stroke-width:1.0;"/><line style="stroke:#181818;stroke-width:1.0;stroke-dasharray:2.0,2.0;" x1="268.7231" x2="410.1226" y1="367.2402" y2="367.2402"/><text fill="#000000" font-family="sans-serif" font-size="13" font-weight="bold" lengthAdjust="spacing" textLength="7.23" x="280.7231" y="361.9775">9</text><text fill="#000000" font-family="sans-serif" font-size="13" lengthAdjust="spacing" textLength="46.96" x="291.9531" y="361.9775">success</text><polygon fill="#181818" points="42.2861,394.5313,32.2861,398.5313,42.2861,402.5313,38.2861,398.5313" style="stroke:#181818;stroke-width:1.0;"/><line style="stroke:#181818;stroke-width:1.0;stroke-dasharray:2.0,2.0;" x1="36.2861" x2="252.7231" y1="398.5313" y2="398.5313"/><text fill="#000000" font-family="sans-serif" font-size="13" font-weight="bold" lengthAdjust="spacing" textLength="14.46" x="48.2861" y="393.2686">10</text><text fill="#000000" font-family="sans-serif" font-size="13" lengthAdjust="spacing" textLength="155.3589" x="66.7461" y="393.2686">displays operation success</text><polygon fill="#181818" points="37.2861,425.8223,27.2861,429.8223,37.2861,433.8223,33.2861,429.8223" style="stroke:#181818;stroke-width:1.0;"/><line style="stroke:#181818;stroke-width:1.0;stroke-dasharray:2.0,2.0;" x1="31.2861" x2="257.7231" y1="429.8223" y2="429.8223"/><text fill="#000000" font-family="sans-serif" font-size="13" font-weight="bold" lengthAdjust="spacing" textLength="14.46" x="43.2861" y="424.5596">11</text><text fill="#000000" font-family="sans-serif" font-size="13" lengthAdjust="spacing" textLength="179.207" x="61.7461" y="424.5596">displays saved scenario details</text><!--SRC=[VP91Ri8m44NtEON5gbrm0HP85MI1L9KgWGDCdG4i73lrE5Jqz7KSnvWGweqJ-R_lxvcXir0D6AXPhPNc9wDhPDQqc54yQO2VuOYblKfa1ha5TPIfW4vGwH-XZkm0aZ3BeBLQjVKN6lVDhJPibbV2xJC6nFBrPhSjiip1Ld3HWB9ijYZXWYL71KRe_SOBzvj_D2kjhD5IOc-wsXNlOtLG-lDobN-y5Plj4qs1ZQOkuTMhY_npwwEB2rYCYVkTpPSk6bkuMdotI9QOrOnSDCPROz3vKd2zERYdCBSSDdTqy4aSUbohWp0rMA5LLc4AZwyEqW3g1arFJLsuzCLn42NbUtdrvr7lwyV2ydh73KNhM3G2fFZ50Dx1iRWiMH6U9ma6bsh8iGOB4KlU_63v4AxhqVXHq_uJYNs3qxJUBKtQSev4Kz7ks56ieJyfdg2nofFJK0bg95pfriyxdwVohWHL73ftdmKXQJn1oM-Ovpy0]--></g></svg>