<svg xmlns="http://www.w3.org/2000/svg" xmlns:xlink="http://www.w3.org/1999/xlink" contentStyleType="text/css" height="315px" preserveAspectRatio="none" style="width:400px;height:315px;background:#FFFFFF;" version="1.1" viewBox="0 0 400 315" width="400px" zoomAndPan="magnify"><defs/><g><!--class SaveScenarioUI--><g id="elem_SaveScenarioUI"><rect codeLine="5" fill="#F1F1F1" height="48" id="SaveScenarioUI" rx="2.5" ry="2.5" style="stroke:#181818;stroke-width:0.5;" width="133.165" x="89" y="7"/><ellipse cx="104" cy="23" fill="#C2C2C2" rx="11" ry="11" style="stroke:#181818;stroke-width:1.0;"/><path d="M106.7656,18.875 Q106.9219,18.6563 107.1094,18.5469 Q107.2969,18.4375 107.5156,18.4375 Q107.8906,18.4375 108.125,18.7031 Q108.3594,18.9531 108.3594,19.5625 L108.3594,21.0156 Q108.3594,21.625 108.125,21.8906 Q107.8906,22.1563 107.5156,22.1563 Q107.1719,22.1563 106.9688,21.9531 Q106.7656,21.7656 106.6563,21.25 Q106.6094,20.8906 106.4219,20.7031 Q106.0938,20.3281 105.4844,20.1094 Q104.875,19.8906 104.25,19.8906 Q103.4844,19.8906 102.8438,20.2188 Q102.2188,20.5469 101.7188,21.2969 Q101.2344,22.0469 101.2344,23.0781 L101.2344,24.1719 Q101.2344,25.4063 102.125,26.2344 Q103.0156,27.0469 104.6094,27.0469 Q105.5469,27.0469 106.2031,26.7969 Q106.5938,26.6406 107.0156,26.2031 Q107.2813,25.9375 107.4219,25.8594 Q107.5781,25.7813 107.7813,25.7813 Q108.1094,25.7813 108.3594,26.0469 Q108.625,26.2969 108.625,26.6406 Q108.625,26.9844 108.2813,27.3906 Q107.7813,27.9688 106.9844,28.2969 Q105.9063,28.75 104.6094,28.75 Q103.0938,28.75 101.8906,28.125 Q100.9063,27.625 100.2188,26.5625 Q99.5313,25.4844 99.5313,24.2031 L99.5313,23.0469 Q99.5313,21.7188 100.1406,20.5781 Q100.7656,19.4219 101.8594,18.8125 Q102.9531,18.1875 104.1875,18.1875 Q104.9219,18.1875 105.5625,18.3594 Q106.2188,18.5156 106.7656,18.875 Z " fill="#000000"/><text fill="#000000" font-family="sans-serif" font-size="14" lengthAdjust="spacing" textLength="101.165" x="118" y="28.7969">SaveScenarioUI</text><line style="stroke:#181818;stroke-width:0.5;" x1="90" x2="221.165" y1="39" y2="39"/><line style="stroke:#181818;stroke-width:0.5;" x1="90" x2="221.165" y1="47" y2="47"/></g><!--class SaveScenarioController--><g id="elem_SaveScenarioController"><rect codeLine="8" fill="#F1F1F1" height="66.6211" id="SaveScenarioController" rx="2.5" ry="2.5" style="stroke:#181818;stroke-width:0.5;" width="179.8545" x="65.5" y="115"/><ellipse cx="80.5" cy="131" fill="#C2C2C2" rx="11" ry="11" style="stroke:#181818;stroke-width:1.0;"/><path d="M83.2656,126.875 Q83.4219,126.6563 83.6094,126.5469 Q83.7969,126.4375 84.0156,126.4375 Q84.3906,126.4375 84.625,126.7031 Q84.8594,126.9531 84.8594,127.5625 L84.8594,129.0156 Q84.8594,129.625 84.625,129.8906 Q84.3906,130.1563 84.0156,130.1563 Q83.6719,130.1563 83.4688,129.9531 Q83.2656,129.7656 83.1563,129.25 Q83.1094,128.8906 82.9219,128.7031 Q82.5938,128.3281 81.9844,128.1094 Q81.375,127.8906 80.75,127.8906 Q79.9844,127.8906 79.3438,128.2188 Q78.7188,128.5469 78.2188,129.2969 Q77.7344,130.0469 77.7344,131.0781 L77.7344,132.1719 Q77.7344,133.4063 78.625,134.2344 Q79.5156,135.0469 81.1094,135.0469 Q82.0469,135.0469 82.7031,134.7969 Q83.0938,134.6406 83.5156,134.2031 Q83.7813,133.9375 83.9219,133.8594 Q84.0781,133.7813 84.2813,133.7813 Q84.6094,133.7813 84.8594,134.0469 Q85.125,134.2969 85.125,134.6406 Q85.125,134.9844 84.7813,135.3906 Q84.2813,135.9688 83.4844,136.2969 Q82.4063,136.75 81.1094,136.75 Q79.5938,136.75 78.3906,136.125 Q77.4063,135.625 76.7188,134.5625 Q76.0313,133.4844 76.0313,132.2031 L76.0313,131.0469 Q76.0313,129.7188 76.6406,128.5781 Q77.2656,127.4219 78.3594,126.8125 Q79.4531,126.1875 80.6875,126.1875 Q81.4219,126.1875 82.0625,126.3594 Q82.7188,126.5156 83.2656,126.875 Z " fill="#000000"/><text fill="#000000" font-family="sans-serif" font-size="14" lengthAdjust="spacing" textLength="147.8545" x="94.5" y="136.7969">SaveScenarioController</text><line style="stroke:#181818;stroke-width:0.5;" x1="66.5" x2="244.3545" y1="147" y2="147"/><line style="stroke:#181818;stroke-width:0.5;" x1="66.5" x2="244.3545" y1="155" y2="155"/><ellipse cx="76.5" cy="169.8105" fill="#A6A6A6" rx="3" ry="3" style="stroke:#545454;stroke-width:1.0;"/><text fill="#000000" font-family="sans-serif" font-size="14" lengthAdjust="spacing" textLength="94.1514" x="85.5" y="174.1074">saveScenario()</text></g><!--class Scenario--><g id="elem_Scenario"><rect codeLine="12" fill="#F1F1F1" height="66.6211" id="Scenario" rx="2.5" ry="2.5" style="stroke:#181818;stroke-width:0.5;" width="87.2549" x="7" y="242"/><ellipse cx="22" cy="258" fill="#C2C2C2" rx="11" ry="11" style="stroke:#181818;stroke-width:1.0;"/><path d="M24.7656,253.875 Q24.9219,253.6563 25.1094,253.5469 Q25.2969,253.4375 25.5156,253.4375 Q25.8906,253.4375 26.125,253.7031 Q26.3594,253.9531 26.3594,254.5625 L26.3594,256.0156 Q26.3594,256.625 26.125,256.8906 Q25.8906,257.1563 25.5156,257.1563 Q25.1719,257.1563 24.9688,256.9531 Q24.7656,256.7656 24.6563,256.25 Q24.6094,255.8906 24.4219,255.7031 Q24.0938,255.3281 23.4844,255.1094 Q22.875,254.8906 22.25,254.8906 Q21.4844,254.8906 20.8438,255.2188 Q20.2188,255.5469 19.7188,256.2969 Q19.2344,257.0469 19.2344,258.0781 L19.2344,259.1719 Q19.2344,260.4063 20.125,261.2344 Q21.0156,262.0469 22.6094,262.0469 Q23.5469,262.0469 24.2031,261.7969 Q24.5938,261.6406 25.0156,261.2031 Q25.2813,260.9375 25.4219,260.8594 Q25.5781,260.7813 25.7813,260.7813 Q26.1094,260.7813 26.3594,261.0469 Q26.625,261.2969 26.625,261.6406 Q26.625,261.9844 26.2813,262.3906 Q25.7813,262.9688 24.9844,263.2969 Q23.9063,263.75 22.6094,263.75 Q21.0938,263.75 19.8906,263.125 Q18.9063,262.625 18.2188,261.5625 Q17.5313,260.4844 17.5313,259.2031 L17.5313,258.0469 Q17.5313,256.7188 18.1406,255.5781 Q18.7656,254.4219 19.8594,253.8125 Q20.9531,253.1875 22.1875,253.1875 Q22.9219,253.1875 23.5625,253.3594 Q24.2188,253.5156 24.7656,253.875 Z " fill="#000000"/><text fill="#000000" font-family="sans-serif" font-size="14" lengthAdjust="spacing" textLength="55.2549" x="36" y="263.7969">Scenario</text><line style="stroke:#181818;stroke-width:0.5;" x1="8" x2="93.2549" y1="274" y2="274"/><line style="stroke:#181818;stroke-width:0.5;" x1="8" x2="93.2549" y1="282" y2="282"/><ellipse cx="18" cy="296.8105" fill="#A6A6A6" rx="3" ry="3" style="stroke:#545454;stroke-width:1.0;"/><text fill="#000000" font-family="sans-serif" font-size="14" lengthAdjust="spacing" textLength="60.6758" x="27" y="301.1074">serialize()</text></g><!--class ScenarioRepository--><g id="elem_ScenarioRepository"><rect codeLine="16" fill="#F1F1F1" height="66.6211" id="ScenarioRepository" rx="2.5" ry="2.5" style="stroke:#181818;stroke-width:0.5;" width="264.1162" x="129.5" y="242"/><ellipse cx="196.2222" cy="258" fill="#C2C2C2" rx="11" ry="11" style="stroke:#181818;stroke-width:1.0;"/><path d="M198.9878,253.875 Q199.144,253.6563 199.3315,253.5469 Q199.519,253.4375 199.7378,253.4375 Q200.1128,253.4375 200.3472,253.7031 Q200.5815,253.9531 200.5815,254.5625 L200.5815,256.0156 Q200.5815,256.625 200.3472,256.8906 Q200.1128,257.1563 199.7378,257.1563 Q199.394,257.1563 199.1909,256.9531 Q198.9878,256.7656 198.8784,256.25 Q198.8315,255.8906 198.644,255.7031 Q198.3159,255.3281 197.7065,255.1094 Q197.0972,254.8906 196.4722,254.8906 Q195.7065,254.8906 195.0659,255.2188 Q194.4409,255.5469 193.9409,256.2969 Q193.4565,257.0469 193.4565,258.0781 L193.4565,259.1719 Q193.4565,260.4063 194.3472,261.2344 Q195.2378,262.0469 196.8315,262.0469 Q197.769,262.0469 198.4253,261.7969 Q198.8159,261.6406 199.2378,261.2031 Q199.5034,260.9375 199.644,260.8594 Q199.8003,260.7813 200.0034,260.7813 Q200.3315,260.7813 200.5815,261.0469 Q200.8472,261.2969 200.8472,261.6406 Q200.8472,261.9844 200.5034,262.3906 Q200.0034,262.9688 199.2065,263.2969 Q198.1284,263.75 196.8315,263.75 Q195.3159,263.75 194.1128,263.125 Q193.1284,262.625 192.4409,261.5625 Q191.7534,260.4844 191.7534,259.2031 L191.7534,258.0469 Q191.7534,256.7188 192.3628,255.5781 Q192.9878,254.4219 194.0815,253.8125 Q195.1753,253.1875 196.4097,253.1875 Q197.144,253.1875 197.7847,253.3594 Q198.4409,253.5156 198.9878,253.875 Z " fill="#000000"/><text fill="#000000" font-family="sans-serif" font-size="14" lengthAdjust="spacing" textLength="122.1719" x="216.7222" y="263.7969">ScenarioRepository</text><line style="stroke:#181818;stroke-width:0.5;" x1="130.5" x2="392.6162" y1="274" y2="274"/><line style="stroke:#181818;stroke-width:0.5;" x1="130.5" x2="392.6162" y1="282" y2="282"/><ellipse cx="140.5" cy="296.8105" fill="#A6A6A6" rx="3" ry="3" style="stroke:#545454;stroke-width:1.0;"/><text fill="#000000" font-family="sans-serif" font-size="14" lengthAdjust="spacing" textLength="238.1162" x="149.5" y="301.1074">saveScenario(serializedScenarioData)</text></g><!--link SaveScenarioUI to SaveScenarioController--><g id="link_SaveScenarioUI_SaveScenarioController"><path codeLine="20" d="M155.5,55.1 C155.5,72.21 155.5,89.77 155.5,108.82 " fill="none" id="SaveScenarioUI-to-SaveScenarioController" style="stroke:#181818;stroke-width:1.0;"/><polygon fill="#181818" points="155.5,114.82,159.5,105.82,155.5,109.82,151.5,105.82,155.5,114.82" style="stroke:#181818;stroke-width:1.0;"/></g><!--link SaveScenarioController to Scenario--><g id="link_SaveScenarioController_Scenario"><path codeLine="21" d="M128.19,182.02 C112.75,200.39 97.3687,218.6954 81.8987,237.1154 " fill="none" id="SaveScenarioController-to-Scenario" style="stroke:#181818;stroke-width:1.0;"/><polygon fill="#181818" points="78.04,241.71,86.8912,237.3906,81.2556,237.8812,80.7651,232.2456,78.04,241.71" style="stroke:#181818;stroke-width:1.0;"/></g><!--link SaveScenarioController to ScenarioRepository--><g id="link_SaveScenarioController_ScenarioRepository"><path codeLine="22" d="M183.07,182.02 C198.65,200.39 214.1994,218.7138 229.8194,237.1338 " fill="none" id="SaveScenarioController-to-ScenarioRepository" style="stroke:#181818;stroke-width:1.0;"/><polygon fill="#181818" points="233.7,241.71,230.93,232.2587,230.4662,237.8965,224.8284,237.4328,233.7,241.71" style="stroke:#181818;stroke-width:1.0;"/></g><!--SRC=[ZO_13e9034Jl-nKzQWo_u4KlNYL-GBDKsB1iIRjgqFZl4eAmCP3OuyoRoLHh5reKRA3XmBOIRWYYtCZevBHeQomfZvqd4B8HG-bJG2ii-E522LVqIiPOZwgGuvroIm75yUK4B_DUSWuSeh3t93q1_Ur04tkpJMAZDeCa3hrxqX9rffRLHPPkkNWA5r_fY167ef_bMRPVcMnMFXaIe_mFCsyr7m00]--></g></svg>