<svg xmlns="http://www.w3.org/2000/svg" xmlns:xlink="http://www.w3.org/1999/xlink" contentStyleType="text/css" height="1370px" preserveAspectRatio="none" style="width:1151px;height:1370px;background:#FFFFFF;" version="1.1" viewBox="0 0 1151 1370" width="1151px" zoomAndPan="magnify"><defs/><g><!--class Player--><g id="elem_Player"><rect codeLine="14" fill="#ADD8E6" height="92.4844" id="Player" rx="2.5" ry="2.5" style="stroke:#0000FF;stroke-width:0.5;" width="74.2549" x="506.5" y="7"/><text fill="#000000" font-family="sans-serif" font-size="14" lengthAdjust="spacing" textLength="39.6826" x="523.7861" y="27.1074">Player</text><line style="stroke:#0000FF;stroke-width:0.5;" x1="507.5" x2="579.7549" y1="35.6211" y2="35.6211"/><text fill="#000000" font-family="sans-serif" font-size="14" lengthAdjust="spacing" textLength="62.2549" x="512.5" y="54.7285">username</text><text fill="#000000" font-family="sans-serif" font-size="14" lengthAdjust="spacing" textLength="59.917" x="512.5" y="73.3496">password</text><text fill="#000000" font-family="sans-serif" font-size="14" lengthAdjust="spacing" textLength="42.8203" x="512.5" y="91.9707">budget</text></g><!--class Editor--><g id="elem_Editor"><rect codeLine="19" fill="#ADD8E6" height="111.1055" id="Editor" rx="2.5" ry="2.5" style="stroke:#0000FF;stroke-width:0.5;" width="120.9512" x="605" y="178"/><text fill="#000000" font-family="sans-serif" font-size="14" lengthAdjust="spacing" textLength="36.5723" x="647.1895" y="198.1074">Editor</text><line style="stroke:#0000FF;stroke-width:0.5;" x1="606" x2="724.9512" y1="206.6211" y2="206.6211"/><text fill="#000000" font-family="sans-serif" font-size="14" lengthAdjust="spacing" textLength="62.2549" x="611" y="225.7285">username</text><text fill="#000000" font-family="sans-serif" font-size="14" lengthAdjust="spacing" textLength="59.917" x="611" y="244.3496">password</text><text fill="#000000" font-family="sans-serif" font-size="14" lengthAdjust="spacing" textLength="80.9307" x="611" y="262.9707">createdMaps</text><text fill="#000000" font-family="sans-serif" font-size="14" lengthAdjust="spacing" textLength="108.9512" x="611" y="281.5918">createdScenarios</text></g><!--class Map--><g id="elem_Map"><rect codeLine="25" fill="#ADD8E6" height="92.4844" id="Map" rx="2.5" ry="2.5" style="stroke:#0000FF;stroke-width:0.5;" width="61.0205" x="562" y="659.5"/><text fill="#000000" font-family="sans-serif" font-size="14" lengthAdjust="spacing" textLength="27.2344" x="578.8931" y="679.6074">Map</text><line style="stroke:#0000FF;stroke-width:0.5;" x1="563" x2="622.0205" y1="688.1211" y2="688.1211"/><text fill="#000000" font-family="sans-serif" font-size="14" lengthAdjust="spacing" textLength="49.0205" x="568" y="707.2285">nameID</text><text fill="#000000" font-family="sans-serif" font-size="14" lengthAdjust="spacing" textLength="32.6826" x="568" y="725.8496">width</text><text fill="#000000" font-family="sans-serif" font-size="14" lengthAdjust="spacing" textLength="38.1445" x="568" y="744.4707">height</text></g><!--class Scenario--><g id="elem_Scenario"><rect codeLine="30" fill="#ADD8E6" height="111.1055" id="Scenario" rx="2.5" ry="2.5" style="stroke:#0000FF;stroke-width:0.5;" width="166.8545" x="736" y="404"/><text fill="#000000" font-family="sans-serif" font-size="14" lengthAdjust="spacing" textLength="55.2549" x="791.7998" y="424.1074">Scenario</text><line style="stroke:#0000FF;stroke-width:0.5;" x1="737" x2="901.8545" y1="432.6211" y2="432.6211"/><text fill="#000000" font-family="sans-serif" font-size="14" lengthAdjust="spacing" textLength="49.0205" x="742" y="451.7285">nameID</text><text fill="#000000" font-family="sans-serif" font-size="14" lengthAdjust="spacing" textLength="99.5791" x="742" y="470.3496">timeRestrictions</text><text fill="#000000" font-family="sans-serif" font-size="14" lengthAdjust="spacing" textLength="154.8545" x="742" y="488.9707">technologicalRestrictions</text><text fill="#000000" font-family="sans-serif" font-size="14" lengthAdjust="spacing" textLength="128.3721" x="742" y="507.5918">historicalRestrictions</text></g><!--class Simulator--><g id="elem_Simulator"><rect codeLine="36" fill="#ADD8E6" height="92.4844" id="Simulator" rx="2.5" ry="2.5" style="stroke:#0000FF;stroke-width:0.5;" width="65.1309" x="939" y="847"/><text fill="#000000" font-family="sans-serif" font-size="14" lengthAdjust="spacing" textLength="59.1309" x="942" y="867.1074">Simulator</text><line style="stroke:#0000FF;stroke-width:0.5;" x1="940" x2="1003.1309" y1="875.6211" y2="875.6211"/><text fill="#000000" font-family="sans-serif" font-size="14" lengthAdjust="spacing" textLength="37.3516" x="945" y="894.7285">status</text><text fill="#000000" font-family="sans-serif" font-size="14" lengthAdjust="spacing" textLength="51.3447" x="945" y="913.3496">runTime</text><text fill="#000000" font-family="sans-serif" font-size="14" lengthAdjust="spacing" textLength="36.5723" x="945" y="931.9707">report</text></g><!--class City--><g id="elem_City"><rect codeLine="41" fill="#ADD8E6" height="148.3477" id="City" rx="2.5" ry="2.5" style="stroke:#0000FF;stroke-width:0.5;" width="116.2959" x="620.5" y="997"/><text fill="#000000" font-family="sans-serif" font-size="14" lengthAdjust="spacing" textLength="24.1104" x="666.5928" y="1017.1074">City</text><line style="stroke:#0000FF;stroke-width:0.5;" x1="621.5" x2="735.7959" y1="1025.6211" y2="1025.6211"/><text fill="#000000" font-family="sans-serif" font-size="14" lengthAdjust="spacing" textLength="49.0205" x="626.5" y="1044.7285">nameID</text><text fill="#000000" font-family="sans-serif" font-size="14" lengthAdjust="spacing" textLength="48.2549" x="626.5" y="1063.3496">position</text><text fill="#000000" font-family="sans-serif" font-size="14" lengthAdjust="spacing" textLength="79.3789" x="626.5" y="1081.9707">houseBlocks</text><text fill="#000000" font-family="sans-serif" font-size="14" lengthAdjust="spacing" textLength="94.9512" x="626.5" y="1100.5918">productionRate</text><text fill="#000000" font-family="sans-serif" font-size="14" lengthAdjust="spacing" textLength="90.2822" x="626.5" y="1119.2129">suppliedCargo</text><text fill="#000000" font-family="sans-serif" font-size="14" lengthAdjust="spacing" textLength="104.2959" x="626.5" y="1137.834">demandedCargo</text></g><!--class Industry--><g id="elem_Industry"><rect codeLine="50" fill="#ADD8E6" height="204.2109" id="Industry" rx="2.5" ry="2.5" style="stroke:#0000FF;stroke-width:0.5;" width="116.2959" x="771.5" y="969"/><text fill="#000000" font-family="sans-serif" font-size="14" lengthAdjust="spacing" textLength="49.7998" x="804.748" y="989.1074">Industry</text><line style="stroke:#0000FF;stroke-width:0.5;" x1="772.5" x2="886.7959" y1="997.6211" y2="997.6211"/><text fill="#000000" font-family="sans-serif" font-size="14" lengthAdjust="spacing" textLength="49.0205" x="777.5" y="1016.7285">nameID</text><text fill="#000000" font-family="sans-serif" font-size="14" lengthAdjust="spacing" textLength="48.2549" x="777.5" y="1035.3496">position</text><text fill="#000000" font-family="sans-serif" font-size="14" lengthAdjust="spacing" textLength="38.124" x="777.5" y="1053.9707">sector</text><text fill="#000000" font-family="sans-serif" font-size="14" lengthAdjust="spacing" textLength="26.4619" x="777.5" y="1072.5918">type</text><text fill="#000000" font-family="sans-serif" font-size="14" lengthAdjust="spacing" textLength="67.7031" x="777.5" y="1091.2129">description</text><text fill="#000000" font-family="sans-serif" font-size="14" lengthAdjust="spacing" textLength="94.1582" x="777.5" y="1109.834">availabilityYear</text><text fill="#000000" font-family="sans-serif" font-size="14" lengthAdjust="spacing" textLength="94.9512" x="777.5" y="1128.4551">productionRate</text><text fill="#000000" font-family="sans-serif" font-size="14" lengthAdjust="spacing" textLength="90.2822" x="777.5" y="1147.0762">suppliedCargo</text><text fill="#000000" font-family="sans-serif" font-size="14" lengthAdjust="spacing" textLength="104.2959" x="777.5" y="1165.6973">demandedCargo</text></g><!--class Cargo--><g id="elem_Cargo"><rect codeLine="63" fill="#ADD8E6" height="111.1055" id="Cargo" rx="2.5" ry="2.5" style="stroke:#0000FF;stroke-width:0.5;" width="60.2549" x="293.5" y="1252"/><text fill="#000000" font-family="sans-serif" font-size="14" lengthAdjust="spacing" textLength="38.1309" x="304.562" y="1272.1074">Cargo</text><line style="stroke:#0000FF;stroke-width:0.5;" x1="294.5" x2="352.7549" y1="1280.6211" y2="1280.6211"/><text fill="#000000" font-family="sans-serif" font-size="14" lengthAdjust="spacing" textLength="35.0205" x="299.5" y="1299.7285">name</text><text fill="#000000" font-family="sans-serif" font-size="14" lengthAdjust="spacing" textLength="46.6963" x="299.5" y="1318.3496">amount</text><text fill="#000000" font-family="sans-serif" font-size="14" lengthAdjust="spacing" textLength="48.2549" x="299.5" y="1336.9707">lifespan</text><text fill="#000000" font-family="sans-serif" font-size="14" lengthAdjust="spacing" textLength="26.4619" x="299.5" y="1355.5918">type</text></g><!--class Station--><g id="elem_Station"><rect codeLine="69" fill="#ADD8E6" height="222.832" id="Station" rx="2.5" ry="2.5" style="stroke:#0000FF;stroke-width:0.5;" width="115.4961" x="382" y="594"/><text fill="#000000" font-family="sans-serif" font-size="14" lengthAdjust="spacing" textLength="43.5859" x="417.9551" y="614.1074">Station</text><line style="stroke:#0000FF;stroke-width:0.5;" x1="383" x2="496.4961" y1="622.6211" y2="622.6211"/><text fill="#000000" font-family="sans-serif" font-size="14" lengthAdjust="spacing" textLength="49.0205" x="388" y="641.7285">nameID</text><text fill="#000000" font-family="sans-serif" font-size="14" lengthAdjust="spacing" textLength="48.2549" x="388" y="660.3496">position</text><text fill="#000000" font-family="sans-serif" font-size="14" lengthAdjust="spacing" textLength="26.4619" x="388" y="678.9707">type</text><text fill="#000000" font-family="sans-serif" font-size="14" lengthAdjust="spacing" textLength="103.4961" x="388" y="697.5918">economicRadius</text><text fill="#000000" font-family="sans-serif" font-size="14" lengthAdjust="spacing" textLength="25.6758" x="388" y="716.2129">cost</text><text fill="#000000" font-family="sans-serif" font-size="14" lengthAdjust="spacing" textLength="101.165" x="388" y="734.834">storageCapacity</text><text fill="#000000" font-family="sans-serif" font-size="14" lengthAdjust="spacing" textLength="70.8203" x="388" y="753.4551">centerPoint</text><text fill="#000000" font-family="sans-serif" font-size="14" lengthAdjust="spacing" textLength="79.3857" x="388" y="772.0762">buildingSlots</text><text fill="#000000" font-family="sans-serif" font-size="14" lengthAdjust="spacing" textLength="93.3926" x="388" y="790.6973">availableCargo</text><text fill="#000000" font-family="sans-serif" font-size="14" lengthAdjust="spacing" textLength="100.3994" x="388" y="809.3184">requestedCargo</text></g><!--class Building--><g id="elem_Building"><rect codeLine="81" fill="#ADD8E6" height="129.7266" id="Building" rx="2.5" ry="2.5" style="stroke:#0000FF;stroke-width:0.5;" width="134.9785" x="339" y="1006"/><text fill="#000000" font-family="sans-serif" font-size="14" lengthAdjust="spacing" textLength="49.8135" x="381.5825" y="1026.1074">Building</text><line style="stroke:#0000FF;stroke-width:0.5;" x1="340" x2="472.9785" y1="1034.6211" y2="1034.6211"/><text fill="#000000" font-family="sans-serif" font-size="14" lengthAdjust="spacing" textLength="49.0205" x="345" y="1053.7285">nameID</text><text fill="#000000" font-family="sans-serif" font-size="14" lengthAdjust="spacing" textLength="26.4619" x="345" y="1072.3496">type</text><text fill="#000000" font-family="sans-serif" font-size="14" lengthAdjust="spacing" textLength="94.1582" x="345" y="1090.9707">availabilityYear</text><text fill="#000000" font-family="sans-serif" font-size="14" lengthAdjust="spacing" textLength="84.8271" x="345" y="1109.5918">evolutionCost</text><text fill="#000000" font-family="sans-serif" font-size="14" lengthAdjust="spacing" textLength="122.9785" x="345" y="1128.2129">evolutionStagesLeft</text></g><!--class RailwayLine--><g id="elem_RailwayLine"><rect codeLine="88" fill="#ADD8E6" height="92.4844" id="RailwayLine" rx="2.5" ry="2.5" style="stroke:#0000FF;stroke-width:0.5;" width="81.4824" x="366" y="413.5"/><text fill="#000000" font-family="sans-serif" font-size="14" lengthAdjust="spacing" textLength="75.4824" x="369" y="433.6074">RailwayLine</text><line style="stroke:#0000FF;stroke-width:0.5;" x1="367" x2="446.4824" y1="442.1211" y2="442.1211"/><text fill="#000000" font-family="sans-serif" font-size="14" lengthAdjust="spacing" textLength="38.1445" x="372" y="461.2285">length</text><text fill="#000000" font-family="sans-serif" font-size="14" lengthAdjust="spacing" textLength="61.4619" x="372" y="479.8496">trackType</text><text fill="#000000" font-family="sans-serif" font-size="14" lengthAdjust="spacing" textLength="25.6758" x="372" y="498.4707">cost</text></g><!--class Locomotive--><g id="elem_Locomotive"><rect codeLine="94" fill="#ADD8E6" height="222.832" id="Locomotive" rx="2.5" ry="2.5" style="stroke:#0000FF;stroke-width:0.5;" width="124.0615" x="1020.5" y="594"/><text fill="#000000" font-family="sans-serif" font-size="14" lengthAdjust="spacing" textLength="71.5928" x="1046.7344" y="614.1074">Locomotive</text><line style="stroke:#0000FF;stroke-width:0.5;" x1="1021.5" x2="1143.5615" y1="622.6211" y2="622.6211"/><text fill="#000000" font-family="sans-serif" font-size="14" lengthAdjust="spacing" textLength="49.0205" x="1026.5" y="641.7285">nameID</text><text fill="#000000" font-family="sans-serif" font-size="14" lengthAdjust="spacing" textLength="26.4619" x="1026.5" y="660.3496">type</text><text fill="#000000" font-family="sans-serif" font-size="14" lengthAdjust="spacing" textLength="38.1309" x="1026.5" y="678.9707">power</text><text fill="#000000" font-family="sans-serif" font-size="14" lengthAdjust="spacing" textLength="75.4893" x="1026.5" y="697.5918">acceleration</text><text fill="#000000" font-family="sans-serif" font-size="14" lengthAdjust="spacing" textLength="59.9443" x="1026.5" y="716.2129">topSpeed</text><text fill="#000000" font-family="sans-serif" font-size="14" lengthAdjust="spacing" textLength="56.7998" x="1026.5" y="734.834">startYear</text><text fill="#000000" font-family="sans-serif" font-size="14" lengthAdjust="spacing" textLength="51.3584" x="1026.5" y="753.4551">fuelCost</text><text fill="#000000" font-family="sans-serif" font-size="14" lengthAdjust="spacing" textLength="94.1582" x="1026.5" y="772.0762">availabilityYear</text><text fill="#000000" font-family="sans-serif" font-size="14" lengthAdjust="spacing" textLength="98.0479" x="1026.5" y="790.6973">acquisitionPrice</text><text fill="#000000" font-family="sans-serif" font-size="14" lengthAdjust="spacing" textLength="112.0615" x="1026.5" y="809.3184">maintenancePrice</text></g><!--class Train--><g id="elem_Train"><rect codeLine="106" fill="#ADD8E6" height="55.2422" id="Train" rx="2.5" ry="2.5" style="stroke:#0000FF;stroke-width:0.5;" width="61.0205" x="231" y="25.5"/><text fill="#000000" font-family="sans-serif" font-size="14" lengthAdjust="spacing" textLength="31.8965" x="245.562" y="45.6074">Train</text><line style="stroke:#0000FF;stroke-width:0.5;" x1="232" x2="291.0205" y1="54.1211" y2="54.1211"/><text fill="#000000" font-family="sans-serif" font-size="14" lengthAdjust="spacing" textLength="49.0205" x="237" y="73.2285">nameID</text></g><!--class Carriage--><g id="elem_Carriage"><rect codeLine="109" fill="#ADD8E6" height="55.2422" id="Carriage" rx="2.5" ry="2.5" style="stroke:#0000FF;stroke-width:0.5;" width="113.165" x="7" y="319"/><text fill="#000000" font-family="sans-serif" font-size="14" lengthAdjust="spacing" textLength="53.6895" x="36.7378" y="339.1074">Carriage</text><line style="stroke:#0000FF;stroke-width:0.5;" x1="8" x2="119.165" y1="347.6211" y2="347.6211"/><text fill="#000000" font-family="sans-serif" font-size="14" lengthAdjust="spacing" textLength="101.165" x="13" y="366.7285">storageCapacity</text></g><!--class Route--><g id="elem_Route"><rect codeLine="112" fill="#ADD8E6" height="92.4844" id="Route" rx="2.5" ry="2.5" style="stroke:#0000FF;stroke-width:0.5;" width="116.3027" x="210.5" y="187.5"/><text fill="#000000" font-family="sans-serif" font-size="14" lengthAdjust="spacing" textLength="37.3584" x="249.9722" y="207.6074">Route</text><line style="stroke:#0000FF;stroke-width:0.5;" x1="211.5" x2="325.8027" y1="216.1211" y2="216.1211"/><text fill="#000000" font-family="sans-serif" font-size="14" lengthAdjust="spacing" textLength="49.0205" x="216.5" y="235.2285">nameID</text><text fill="#000000" font-family="sans-serif" font-size="14" lengthAdjust="spacing" textLength="104.3027" x="216.5" y="253.8496">stationSequence</text><text fill="#000000" font-family="sans-serif" font-size="14" lengthAdjust="spacing" textLength="56.8066" x="216.5" y="272.4707">cargoList</text></g><!--link Editor to Map--><g id="link_Editor_Map"><path codeLine="122" d="M659.4,289.19 C651.81,354.71 637.85,467.7 621.5,564 C616.06,596.04 608.63,631.93 602.65,659.41 " fill="none" id="Editor-Map" style="stroke:#181818;stroke-width:1.0;"/><polygon fill="#000000" points="649.7424,464.5878,654.0179,456.0924,648.2079,455.2018,649.7424,464.5878" style="stroke:#000000;stroke-width:1.0;"/><text fill="#000000" font-family="sans-serif" font-size="13" lengthAdjust="spacing" textLength="42.6309" x="659.5" y="465.0283">creates</text><text fill="#000000" font-family="sans-serif" font-size="13" lengthAdjust="spacing" textLength="7.23" x="651.247" y="311.0528">1</text><text fill="#000000" font-family="sans-serif" font-size="13" lengthAdjust="spacing" textLength="5.0591" x="598.7764" y="648.4062">*</text></g><!--link Editor to Scenario--><g id="link_Editor_Scenario"><path codeLine="123" d="M684.83,289.14 C695.73,316.04 710.91,348.15 729.5,374 C736.88,384.27 745.64,394.29 754.75,403.63 " fill="none" id="Editor-Scenario" style="stroke:#181818;stroke-width:1.0;"/><polygon fill="#000000" points="737.106,350.9127,734.8999,341.6615,729.8835,344.7251,737.106,350.9127" style="stroke:#000000;stroke-width:1.0;"/><text fill="#000000" font-family="sans-serif" font-size="13" lengthAdjust="spacing" textLength="42.6309" x="743.5" y="352.0283">creates</text><text fill="#000000" font-family="sans-serif" font-size="13" lengthAdjust="spacing" textLength="7.23" x="679.7763" y="310.9967">1</text><text fill="#000000" font-family="sans-serif" font-size="13" lengthAdjust="spacing" textLength="5.0591" x="741.5664" y="392.8245">*</text></g><!--link Scenario to Map--><g id="link_Scenario_Map"><path codeLine="125" d="M735.72,512.55 C705.57,534.63 673.38,562.56 650.5,594 C635.77,614.23 622.53,638.7 612.43,659.46 " fill="none" id="Scenario-Map" style="stroke:#181818;stroke-width:1.0;"/><polygon fill="#000000" points="696.2858,558.4755,704.3516,553.4362,699.8491,549.6577,696.2858,558.4755" style="stroke:#000000;stroke-width:1.0;"/><text fill="#000000" font-family="sans-serif" font-size="13" lengthAdjust="spacing" textLength="27.46" x="708.5" y="560.0283">uses</text><text fill="#000000" font-family="sans-serif" font-size="13" lengthAdjust="spacing" textLength="5.0591" x="723.0448" y="513.5543">*</text><text fill="#000000" font-family="sans-serif" font-size="13" lengthAdjust="spacing" textLength="7.23" x="607.9619" y="648.1221">1</text></g><!--link Player to Scenario--><g id="link_Player_Scenario"><path codeLine="126" d="M580.68,67.81 C625.5,86.28 700.18,123.19 743.5,178 C795.59,243.91 812.07,342.74 817.23,403.79 " fill="none" id="Player-Scenario" style="stroke:#181818;stroke-width:1.0;"/><polygon fill="#000000" points="803.3784,237.7339,800.5744,228.6461,795.7682,232.0299,803.3784,237.7339" style="stroke:#000000;stroke-width:1.0;"/><text fill="#000000" font-family="sans-serif" font-size="13" lengthAdjust="spacing" textLength="30.3481" x="809.5" y="239.0283">plays</text><text fill="#000000" font-family="sans-serif" font-size="13" lengthAdjust="spacing" textLength="7.23" x="588.6864" y="86.4084">1</text><text fill="#000000" font-family="sans-serif" font-size="13" lengthAdjust="spacing" textLength="5.0591" x="811.632" y="392.6033">*</text></g><!--link Scenario to Simulator--><g id="link_Scenario_Simulator"><path codeLine="127" d="M849.49,515.04 C859.64,531.5 871.68,549.13 884.5,564 C897.88,579.52 909.37,576.19 919.5,594 C965.35,674.56 972.7,785.69 972.84,846.94 " fill="none" id="Scenario-Simulator" style="stroke:#181818;stroke-width:1.0;"/><polygon fill="#000000" points="891.2418,559.3323,890.8457,549.83,885.336,551.8776,891.2418,559.3323" style="stroke:#000000;stroke-width:1.0;"/><text fill="#000000" font-family="sans-serif" font-size="13" lengthAdjust="spacing" textLength="39.019" x="898.5" y="560.0283">runs in</text><text fill="#000000" font-family="sans-serif" font-size="13" lengthAdjust="spacing" textLength="5.0591" x="848.0253" y="537.2853">*</text><text fill="#000000" font-family="sans-serif" font-size="13" lengthAdjust="spacing" textLength="7.23" x="965.5168" y="835.599">1</text></g><!--link Map to City--><g id="link_Map_City"><path codeLine="129" d="M583.87,751.8 C576.62,799.52 570.22,876.3 589.5,939 C593.48,951.94 607.57,974.32 623.41,996.95 " fill="none" id="Map-City" style="stroke:#181818;stroke-width:1.0;"/><polygon fill="#000000" points="595.2962,898.0817,596.7573,888.6841,590.9545,889.62,595.2962,898.0817" style="stroke:#000000;stroke-width:1.0;"/><text fill="#000000" font-family="sans-serif" font-size="13" lengthAdjust="spacing" textLength="48.4199" x="603.5" y="898.5283">contains</text><text fill="#000000" font-family="sans-serif" font-size="13" lengthAdjust="spacing" textLength="7.23" x="575.1038" y="773.8629">1</text><text fill="#000000" font-family="sans-serif" font-size="13" lengthAdjust="spacing" textLength="5.0591" x="612.7293" y="985.8495">*</text></g><!--link Map to Industry--><g id="link_Map_Industry"><path codeLine="130" d="M605.9,751.66 C614.94,774.54 629.19,800.82 650.5,817 C701.19,855.47 746.37,801.16 790.5,847 C807.57,864.73 817.27,918.49 822.73,968.78 " fill="none" id="Map-Industry" style="stroke:#181818;stroke-width:1.0;"/><polygon fill="#000000" points="826.0332,896.6834,821.7211,888.2065,817.5621,892.36,826.0332,896.6834" style="stroke:#000000;stroke-width:1.0;"/><text fill="#000000" font-family="sans-serif" font-size="13" lengthAdjust="spacing" textLength="48.4199" x="831.5" y="898.5283">contains</text><text fill="#000000" font-family="sans-serif" font-size="13" lengthAdjust="spacing" textLength="7.23" x="600.432" y="774.0433">1</text><text fill="#000000" font-family="sans-serif" font-size="13" lengthAdjust="spacing" textLength="5.0591" x="817.0405" y="957.6803">*</text></g><!--link Industry to Cargo--><g id="link_Industry_Cargo"><path codeLine="132" d="M771.5,1156.02 C749.07,1181.8 721.14,1207.24 689.5,1222 C572.78,1276.44 418.31,1297.18 353.82,1303.81 " fill="none" id="Industry-Cargo" style="stroke:#181818;stroke-width:1.0;"/><polygon fill="#000000" points="717.7864,1214.3134,727.2937,1214.0668,725.3331,1208.5256,717.7864,1214.3134" style="stroke:#000000;stroke-width:1.0;"/><text fill="#000000" font-family="sans-serif" font-size="13" lengthAdjust="spacing" textLength="116.3398" x="731.5" y="1218.0283">produces/consumes</text><text fill="#000000" font-family="sans-serif" font-size="13" lengthAdjust="spacing" textLength="5.0591" x="758.3544" y="1163.3361">*</text><text fill="#000000" font-family="sans-serif" font-size="13" lengthAdjust="spacing" textLength="5.0591" x="361.796" y="1297.8896">*</text></g><!--link City to Cargo--><g id="link_City_Cargo"><path codeLine="133" d="M630.33,1145.07 C621.8,1155.18 612.43,1164.87 602.5,1173 C561.37,1206.67 416.96,1268.12 353.64,1294.23 " fill="none" id="City-Cargo" style="stroke:#181818;stroke-width:1.0;"/><polygon fill="#000000" points="554.0988,1215.0181,563.4552,1213.313,560.6661,1208.139,554.0988,1215.0181" style="stroke:#000000;stroke-width:1.0;"/><text fill="#000000" font-family="sans-serif" font-size="13" lengthAdjust="spacing" textLength="116.3398" x="567.5" y="1218.0283">produces/consumes</text><text fill="#000000" font-family="sans-serif" font-size="13" lengthAdjust="spacing" textLength="5.0591" x="620.0924" y="1167.6104">*</text><text fill="#000000" font-family="sans-serif" font-size="13" lengthAdjust="spacing" textLength="5.0591" x="361.5721" y="1285.9745">*</text></g><!--link Player to Station--><g id="link_Player_Station"><path codeLine="135" d="M540.64,99.21 C537.31,146.65 531.03,223.31 521.5,289 C506.4,393.05 482.58,510.51 464.5,593.92 " fill="none" id="Player-Station" style="stroke:#181818;stroke-width:1.0;"/><polygon fill="#000000" points="521.7394,351.5873,526.0201,343.0946,520.2106,342.2004,521.7394,351.5873" style="stroke:#000000;stroke-width:1.0;"/><text fill="#000000" font-family="sans-serif" font-size="13" lengthAdjust="spacing" textLength="33.9663" x="531.5" y="352.0283">builds</text><text fill="#000000" font-family="sans-serif" font-size="13" lengthAdjust="spacing" textLength="7.23" x="532.6642" y="121.601">1</text><text fill="#000000" font-family="sans-serif" font-size="13" lengthAdjust="spacing" textLength="5.0591" x="460.997" y="582.8959">*</text></g><!--link Player to RailwayLine--><g id="link_Player_RailwayLine"><path codeLine="136" d="M511.91,99.01 C497.18,121.79 480.51,150.41 469.5,178 C452.58,220.42 427.66,345.53 414.82,413.43 " fill="none" id="Player-RailwayLine" style="stroke:#181818;stroke-width:1.0;"/><polygon fill="#000000" points="473.0248,238.4229,478.5016,230.6476,472.8854,228.9134,473.0248,238.4229" style="stroke:#000000;stroke-width:1.0;"/><text fill="#000000" font-family="sans-serif" font-size="13" lengthAdjust="spacing" textLength="33.9663" x="483.5" y="239.0283">builds</text><text fill="#000000" font-family="sans-serif" font-size="13" lengthAdjust="spacing" textLength="7.23" x="499.5349" y="121.3704">1</text><text fill="#000000" font-family="sans-serif" font-size="13" lengthAdjust="spacing" textLength="5.0591" x="410.6788" y="402.0875">*</text></g><!--link Station to Building--><g id="link_Station_Building"><path codeLine="137" d="M381.86,793.13 C373.04,810.32 365.28,828.73 360.5,847 C346.63,899.96 361.23,960.89 377.56,1005.66 " fill="none" id="Station-Building" style="stroke:#181818;stroke-width:1.0;"/><polygon fill="#000000" points="365.3989,898.1445,368.5202,889.1607,362.6435,889.0418,365.3989,898.1445" style="stroke:#000000;stroke-width:1.0;"/><text fill="#000000" font-family="sans-serif" font-size="13" lengthAdjust="spacing" textLength="81.6689" x="374.5" y="898.5283">upgraded with</text><text fill="#000000" font-family="sans-serif" font-size="13" lengthAdjust="spacing" textLength="7.23" x="366.6264" y="800.8223">1</text><text fill="#000000" font-family="sans-serif" font-size="13" lengthAdjust="spacing" textLength="5.0591" x="369.1257" y="994.6429">*</text></g><!--link Station to City--><g id="link_Station_City"><path codeLine="139" d="M454.73,817.26 C465.64,859.99 484.36,906.35 516.5,939 C544.9,967.85 569.81,945.13 602.5,969 C613.22,976.83 623.12,986.6 631.99,996.95 " fill="none" id="Station-City" style="stroke:#181818;stroke-width:1.0;"/><polygon fill="#000000" points="525.0114,896.705,520.7515,888.2019,516.567,892.3297,525.0114,896.705" style="stroke:#000000;stroke-width:1.0;"/><text fill="#000000" font-family="sans-serif" font-size="13" lengthAdjust="spacing" textLength="38.2891" x="530.5" y="898.5283">serves</text><text fill="#000000" font-family="sans-serif" font-size="13" lengthAdjust="spacing" textLength="7.23" x="448.4729" y="839.0072">1</text><text fill="#000000" font-family="sans-serif" font-size="13" lengthAdjust="spacing" textLength="5.0591" x="622.1539" y="985.8495">*</text></g><!--link Station to Industry--><g id="link_Station_Industry"><path codeLine="140" d="M497.09,779.01 C511.3,793.28 527.4,806.93 544.5,817 C590.39,844.01 616.26,817.36 660.5,847 C702.97,875.44 697.8,898.91 729.5,939 C740.27,952.61 743.77,955.36 754.5,969 C760.04,976.04 765.73,983.41 771.37,990.83 " fill="none" id="Station-Industry" style="stroke:#181818;stroke-width:1.0;"/><polygon fill="#000000" points="738.4573,896.2016,733.0948,888.347,729.5021,892.9991,738.4573,896.2016" style="stroke:#000000;stroke-width:1.0;"/><text fill="#000000" font-family="sans-serif" font-size="13" lengthAdjust="spacing" textLength="38.2891" x="743.5" y="898.5283">serves</text><text fill="#000000" font-family="sans-serif" font-size="13" lengthAdjust="spacing" textLength="7.23" x="505.6621" y="785.2126">1</text><text fill="#000000" font-family="sans-serif" font-size="13" lengthAdjust="spacing" textLength="5.0591" x="758.5866" y="976.5026">*</text></g><!--link Station to Cargo--><g id="link_Station_Cargo"><path codeLine="141" d="M381.79,772.36 C342.01,822.44 292.63,895.13 271.5,969 C246.57,1056.17 254.76,1083.89 271.5,1173 C276.53,1199.77 286.77,1228.06 296.84,1251.68 " fill="none" id="Station-Cargo" style="stroke:#181818;stroke-width:1.0;"/><polygon fill="#000000" points="275.6274,1076.0688,280.0997,1067.6754,274.3121,1066.6496,275.6274,1076.0688" style="stroke:#000000;stroke-width:1.0;"/><text fill="#000000" font-family="sans-serif" font-size="13" lengthAdjust="spacing" textLength="35.4009" x="285.5" y="1076.5283">stores</text><text fill="#000000" font-family="sans-serif" font-size="13" lengthAdjust="spacing" textLength="7.23" x="366.9304" y="776.8951">1</text><text fill="#000000" font-family="sans-serif" font-size="13" lengthAdjust="spacing" textLength="5.0591" x="288.2742" y="1240.8806">*</text></g><!--link RailwayLine to Station--><g id="link_RailwayLine_Station"><path codeLine="143" d="M399.54,505.56 C397.87,518.28 396.33,532.16 395.5,545 C394.46,561.05 394.8866,571.8105 397.8966,588.0505 " fill="none" id="RailwayLine-to-Station" style="stroke:#181818;stroke-width:1.0;"/><polygon fill="#181818" points="398.99,593.95,401.2828,584.3718,398.0788,589.0337,393.4168,585.8297,398.99,593.95" style="stroke:#181818;stroke-width:1.0;"/><polygon fill="#000000" points="400.4004,559.6445,403.5189,550.6598,397.6422,550.5427,400.4004,559.6445" style="stroke:#000000;stroke-width:1.0;"/><text fill="#000000" font-family="sans-serif" font-size="13" lengthAdjust="spacing" textLength="52.0317" x="409.5" y="560.0283">connects</text><text fill="#000000" font-family="sans-serif" font-size="13" lengthAdjust="spacing" textLength="7.23" x="390.919" y="527.928">1</text><text fill="#000000" font-family="sans-serif" font-size="13" lengthAdjust="spacing" textLength="7.23" x="388.8862" y="582.5534">2</text></g><!--link Player to Locomotive--><g id="link_Player_Locomotive"><path codeLine="145" d="M580.68,56.08 C659.77,62.24 847.35,86.21 968.5,178 C1106.79,282.77 1084.48,372.35 1101.5,545 C1103.06,560.82 1102.98,577.5 1101.92,593.88 " fill="none" id="Player-Locomotive" style="stroke:#181818;stroke-width:1.0;"/><polygon fill="#000000" points="1094.9798,350.2359,1090.7951,341.6954,1086.5744,345.7862,1094.9798,350.2359" style="stroke:#000000;stroke-width:1.0;"/><text fill="#000000" font-family="sans-serif" font-size="13" lengthAdjust="spacing" textLength="27.46" x="1100.5" y="352.0283">buys</text><text fill="#000000" font-family="sans-serif" font-size="13" lengthAdjust="spacing" textLength="7.23" x="588.6864" y="52.0222">1</text><text fill="#000000" font-family="sans-serif" font-size="13" lengthAdjust="spacing" textLength="5.0591" x="1098.0567" y="582.8532">*</text></g><!--link Train to Locomotive--><g id="link_Train_Locomotive"><path codeLine="146" d="M292.38,60.16 C411.76,84 837.05,169.4 848.5,178 C922.43,233.53 1011.74,458.54 1044.5,545 C1050.4,560.57 1055.59,577.36 1060.08,593.99 " fill="none" id="Train-Locomotive" style="stroke:#181818;stroke-width:1.0;"/><polygon fill="#000000" points="981.6051,349.5,975.8568,341.9232,972.5011,346.7491,981.6051,349.5" style="stroke:#000000;stroke-width:1.0;"/><text fill="#000000" font-family="sans-serif" font-size="13" lengthAdjust="spacing" textLength="67.209" x="986.5" y="352.0283">powered by</text><text fill="#000000" font-family="sans-serif" font-size="13" lengthAdjust="spacing" textLength="7.23" x="299.9235" y="56.9005">1</text><text fill="#000000" font-family="sans-serif" font-size="13" lengthAdjust="spacing" textLength="7.23" x="1051.2634" y="582.5963">1</text></g><!--link Train to Carriage--><g id="link_Train_Carriage"><path codeLine="147" d="M230.68,71.36 C209.04,84.81 180.65,105.13 161.5,129 C113.6,188.69 83.66,275.55 70.81,318.87 " fill="none" id="Train-Carriage" style="stroke:#181818;stroke-width:1.0;"/><polygon fill="#000000" points="163.7871,142.8456,171.1635,136.8422,166.226,133.653,163.7871,142.8456" style="stroke:#000000;stroke-width:1.0;"/><text fill="#000000" font-family="sans-serif" font-size="13" lengthAdjust="spacing" textLength="74.4326" x="175.5" y="144.0283">composed of</text><text fill="#000000" font-family="sans-serif" font-size="13" lengthAdjust="spacing" textLength="7.23" x="215.7677" y="70.6741">1</text><text fill="#000000" font-family="sans-serif" font-size="13" lengthAdjust="spacing" textLength="5.0591" x="66.9101" y="307.5489">*</text></g><!--link Carriage to Cargo--><g id="link_Carriage_Cargo"><path codeLine="148" d="M58.83,374.07 C52.38,413.22 41.5,488.76 41.5,553.5 C41.5,553.5 41.5,553.5 41.5,1072 C41.5,1201.89 220.57,1273.68 293.32,1297.48 " fill="none" id="Carriage-Cargo" style="stroke:#181818;stroke-width:1.0;"/><polygon fill="#000000" points="47.7306,710.4917,48.3529,701.0015,42.6559,702.4482,47.7306,710.4917" style="stroke:#000000;stroke-width:1.0;"/><text fill="#000000" font-family="sans-serif" font-size="13" lengthAdjust="spacing" textLength="39.0063" x="55.5" y="711.0283">carries</text><text fill="#000000" font-family="sans-serif" font-size="13" lengthAdjust="spacing" textLength="5.0591" x="52.1597" y="396.4452">*</text><text fill="#000000" font-family="sans-serif" font-size="13" lengthAdjust="spacing" textLength="7.23" x="278.1075" y="1290.0167">1</text></g><!--link Train to Route--><g id="link_Train_Route"><path codeLine="150" d="M260.17,80.72 C259.53,95.04 258.82,112.97 258.5,129 C258.33,137.44 258,139.57 258.5,148 C259.26,160.83 260.65,174.7 262.17,187.42 " fill="none" id="Train-Route" style="stroke:#181818;stroke-width:1.0;"/><polygon fill="#000000" points="263.5937,143.6446,266.3626,134.5461,260.4858,134.6562,263.5937,143.6446" style="stroke:#000000;stroke-width:1.0;"/><text fill="#000000" font-family="sans-serif" font-size="13" lengthAdjust="spacing" textLength="66.4917" x="272.5" y="144.0283">assigned to</text><text fill="#000000" font-family="sans-serif" font-size="13" lengthAdjust="spacing" textLength="7.23" x="252.1363" y="102.6768">1</text><text fill="#000000" font-family="sans-serif" font-size="13" lengthAdjust="spacing" textLength="21.6836" x="238.6221" y="176.076">0..1</text></g><!--link Route to Station--><g id="link_Route_Station"><path codeLine="151" d="M263.24,279.53 C258.39,336.48 255.93,436.57 286.5,515 C306.92,567.4 347.42,616.5 381.62,651.59 " fill="none" id="Route-Station" style="stroke:#181818;stroke-width:1.0;"/><polygon fill="#000000" points="293.016,464.4101,293.0741,454.8998,287.473,456.6819,293.016,464.4101" style="stroke:#000000;stroke-width:1.0;"/><text fill="#000000" font-family="sans-serif" font-size="13" lengthAdjust="spacing" textLength="47.6963" x="300.5" y="465.0283">includes</text><text fill="#000000" font-family="sans-serif" font-size="13" lengthAdjust="spacing" textLength="7.23" x="254.8931" y="301.8934">1</text><text fill="#000000" font-family="sans-serif" font-size="13" lengthAdjust="spacing" textLength="5.0591" x="368.8558" y="640.6514">*</text></g><!--link Route to Cargo--><g id="link_Route_Cargo"><path codeLine="152" d="M233.63,279.77 C203.75,323.15 165.5,391.73 165.5,458.5 C165.5,458.5 165.5,458.5 165.5,1072 C165.5,1162.57 247.57,1244.4 293.41,1283.04 " fill="none" id="Route-Cargo" style="stroke:#181818;stroke-width:1.0;"/><polygon fill="#000000" points="170.7974,710.6367,173.1931,701.4328,167.3257,701.7824,170.7974,710.6367" style="stroke:#000000;stroke-width:1.0;"/><text fill="#000000" font-family="sans-serif" font-size="13" lengthAdjust="spacing" textLength="53.479" x="179.5" y="711.0283">manages</text><text fill="#000000" font-family="sans-serif" font-size="13" lengthAdjust="spacing" textLength="5.0591" x="222.8891" y="302.1702">*</text><text fill="#000000" font-family="sans-serif" font-size="13" lengthAdjust="spacing" textLength="5.0591" x="280.4423" y="1272.0569">*</text></g><!--link Scenario to Locomotive--><g id="link_Scenario_Locomotive"><path codeLine="154" d="M903.01,511.69 C917.99,522.07 933.08,533.39 946.5,545 C972.92,567.85 998.65,596 1020.5,622.25 " fill="none" id="Scenario-Locomotive" style="stroke:#181818;stroke-width:1.0;"/><polygon fill="#000000" points="971.1413,558.072,966.5682,549.7331,962.5401,554.0137,971.1413,558.072" style="stroke:#000000;stroke-width:1.0;"/><text fill="#000000" font-family="sans-serif" font-size="13" lengthAdjust="spacing" textLength="59.979" x="976.5" y="560.0283">configures</text><text fill="#000000" font-family="sans-serif" font-size="13" lengthAdjust="spacing" textLength="7.23" x="910.776" y="512.6177">1</text><text fill="#000000" font-family="sans-serif" font-size="13" lengthAdjust="spacing" textLength="5.0591" x="1007.6389" y="608.1243">*</text></g><!--link Scenario to Industry--><g id="link_Scenario_Industry"><path codeLine="155" d="M807.23,515.22 C793.74,589.44 780.82,723.45 837.5,817 C851.13,839.49 875.44,824.17 888.5,847 C908.8,882.49 897.09,899.02 888.5,939 C886.38,948.88 883.45,958.91 880.03,968.8 " fill="none" id="Scenario-Industry" style="stroke:#181818;stroke-width:1.0;"/><polygon fill="#000000" points="843.2924,710.5823,844.7608,701.1858,838.9572,702.1173,843.2924,710.5823" style="stroke:#000000;stroke-width:1.0;"/><text fill="#000000" font-family="sans-serif" font-size="13" lengthAdjust="spacing" textLength="59.979" x="851.5" y="711.0283">configures</text><text fill="#000000" font-family="sans-serif" font-size="13" lengthAdjust="spacing" textLength="7.23" x="798.3309" y="537.0864">1</text><text fill="#000000" font-family="sans-serif" font-size="13" lengthAdjust="spacing" textLength="5.0591" x="878.5485" y="957.7017">*</text></g><!--link Scenario to Station--><g id="link_Scenario_Station"><path codeLine="156" d="M735.72,503.78 C726.64,507.82 717.45,511.65 708.5,515 C659.83,533.21 640.79,519.52 595.5,545 C558.2,565.99 524.03,598.57 497.25,628.83 " fill="none" id="Scenario-Station" style="stroke:#181818;stroke-width:1.0;"/><polygon fill="#000000" points="596.0719,556.9675,605.4473,555.3697,602.7176,550.1642,596.0719,556.9675" style="stroke:#000000;stroke-width:1.0;"/><text fill="#000000" font-family="sans-serif" font-size="13" lengthAdjust="spacing" textLength="59.979" x="609.5" y="560.0283">configures</text><text fill="#000000" font-family="sans-serif" font-size="13" lengthAdjust="spacing" textLength="7.23" x="720.6912" y="504.1153">1</text><text fill="#000000" font-family="sans-serif" font-size="13" lengthAdjust="spacing" textLength="5.0591" x="505.3167" y="614.4444">*</text></g><!--link Route to RailwayLine--><g id="link_Route_RailwayLine"><path codeLine="158" d="M295.72,279.51 C312.33,306.88 334.04,342.52 353.5,374 C361.42,386.81 370.08,400.68 378.06,413.4 " fill="none" id="Route-RailwayLine" style="stroke:#181818;stroke-width:1.0;"/><polygon fill="#000000" points="361.1192,350.9046,358.8844,341.6603,353.8776,344.7394,361.1192,350.9046" style="stroke:#000000;stroke-width:1.0;"/><text fill="#000000" font-family="sans-serif" font-size="13" lengthAdjust="spacing" textLength="48.4199" x="367.5" y="352.0283">contains</text><text fill="#000000" font-family="sans-serif" font-size="13" lengthAdjust="spacing" textLength="19.5127" x="279.4495" y="301.8704">1..*</text><text fill="#000000" font-family="sans-serif" font-size="13" lengthAdjust="spacing" textLength="19.5127" x="353.4898" y="402.3947">1..*</text></g><!--link Building to Building--><g id="link_Building_Building"><path codeLine="160" d="M474.03,1044.83 C493.73,1045.73 509,1054.46 509,1071 C509,1087.54 493.73,1096.27 474.03,1097.17 " fill="none" id="Building-Building" style="stroke:#181818;stroke-width:1.0;"/><polygon fill="#000000" points="514.2282,1076.1403,516.7513,1066.9705,510.8795,1067.2388,514.2282,1076.1403" style="stroke:#000000;stroke-width:1.0;"/><text fill="#000000" font-family="sans-serif" font-size="13" lengthAdjust="spacing" textLength="68.6499" x="528" y="1076.5283">evolves into</text><text fill="#000000" font-family="sans-serif" font-size="13" lengthAdjust="spacing" textLength="7.23" x="481.8127" y="1038.0972">1</text><text fill="#000000" font-family="sans-serif" font-size="13" lengthAdjust="spacing" textLength="21.6836" x="482.1132" y="1096.0496">0..1</text></g><!--link Player to Route--><g id="link_Player_Route"><path codeLine="162" d="M506.33,76 C481.77,90.7 448.98,110.64 420.5,129 C389.11,149.24 354.66,172.6 326.51,192 " fill="none" id="Player-Route" style="stroke:#181818;stroke-width:1.0;"/><polygon fill="#000000" points="421.2984,141.3559,430.4923,138.9224,427.306,133.9831,421.2984,141.3559" style="stroke:#000000;stroke-width:1.0;"/><text fill="#000000" font-family="sans-serif" font-size="13" lengthAdjust="spacing" textLength="41.9199" x="434.5" y="144.0283">defines</text><text fill="#000000" font-family="sans-serif" font-size="13" lengthAdjust="spacing" textLength="7.23" x="491.3206" y="75.864">1</text><text fill="#000000" font-family="sans-serif" font-size="13" lengthAdjust="spacing" textLength="5.0591" x="334.6247" y="182.2966">*</text></g><!--link Simulator to Cargo--><g id="link_Simulator_Cargo"><path codeLine="164" d="M972.87,939.31 C972.33,1016.52 957.98,1170.28 856.5,1222 C766.87,1267.68 458.5205,1295.6966 359.5505,1303.6966 " fill="none" id="Simulator-to-Cargo" style="stroke:#181818;stroke-width:1.0;"/><polygon fill="#181818" points="353.57,1304.18,362.863,1307.4419,358.5537,1303.7772,362.2185,1299.4679,353.57,1304.18" style="stroke:#181818;stroke-width:1.0;"/><polygon fill="#000000" points="972.2014,1073.6994,981.4787,1071.606,978.4765,1066.5527,972.2014,1073.6994" style="stroke:#000000;stroke-width:1.0;"/><text fill="#000000" font-family="sans-serif" font-size="13" lengthAdjust="spacing" textLength="57.8208" x="985.5" y="1076.5283">generates</text><text fill="#000000" font-family="sans-serif" font-size="13" lengthAdjust="spacing" textLength="7.23" x="965.5644" y="961.3743">1</text><text fill="#000000" font-family="sans-serif" font-size="13" lengthAdjust="spacing" textLength="5.0591" x="361.891" y="1319.5595">*</text></g><!--link Scenario to City--><g id="link_Scenario_City"><path codeLine="166" d="M782.68,515.05 C771.03,531.26 757.73,548.74 744.5,564 C731.94,578.48 721.62,576.63 713.5,594 C652.05,725.34 658.26,899.55 668.34,996.64 " fill="none" id="Scenario-City" style="stroke:#181818;stroke-width:1.0;"/><polygon fill="#000000" points="717.345,710.5103,722.2939,702.3887,716.575,701.0309,717.345,710.5103" style="stroke:#000000;stroke-width:1.0;"/><text fill="#000000" font-family="sans-serif" font-size="13" lengthAdjust="spacing" textLength="59.979" x="727.5" y="711.0283">configures</text><text fill="#000000" font-family="sans-serif" font-size="13" lengthAdjust="spacing" textLength="7.23" x="770.5381" y="537.2966">1</text><text fill="#000000" font-family="sans-serif" font-size="13" lengthAdjust="spacing" textLength="5.0591" x="662.1221" y="985.768">*</text></g><!--SRC=[dLNBZXit4BphAmQw633WZJT77GnabHmMa865j9SSAR8rqrWEIVCXGGdstzDDpbCxCWAVD3CiLdTLFnJUq3ZXHLk5HYXxGLDN9w43hC9m8hK8uOyOFHvJX6TfpG7_WUhhBQJwTrLLJqA-rTucexPMMr_ji6xYaqx0PzOhyELx_lG-eG2JsbzXQ5119T5B3UMvXTXO5LQhajIB5bVmcJa5y4QqJEJew49az7XCgeP8J0N_by9e2tvsOtQdggG74K5z5ovCtmyIZF1emy17Y4p6DCz_qiC5LMpejm4MDk3wctDmn1Rs4CXx6T4QZXL1DeOSg54AVNFMOA3aFnmCCR1DMlJoGXGnyIsVp2jcaHwSzMDEMupNUJxE1cHEZcN9dITjvHjpE6zLok7sv0Ep9-SqWjeANrjwLz0Ae_htzxuypqObolH-c02I4cRTLmUP9qYFhZiLPu5Q755Jfd-3yB-KIQ-MtuSycBobBepqeF44mGdJPp7uIGvIdBkvToa3ZOnjKUw5mcouj27c0bWlQjWA9oJbpmTW8lWNYpdiCQ5MD947RMCOnMhebNZuaQZEevIIrbDtxwQLIZ8BZi7PwiGfRqjUmplfgo7iu3Isn9vkNyHrXmOolGPJvtQEdkRsjSJ8-eOIxwoqhOruXiM4dBq0Po6a10rUzDvPTt00gZIgZrskfmIwItD1YP0_4XRxNwZxcRuLP2QDbf5GFlLANZsTJ3Dw7_l08mdlXcHUey47IxjmhYUKRZXmKKoEBRaiEonch5QVgZteZ0aDka2R83PKmpC6K1LDPaJgKug2GDkhsqFhntNrvKkr_hpEcsJJBPfGVLj033ja2biDNnd2oCUUYmQO4TsAN2PoTCYW9PPndsnuYOIA3AM0J3uXork4Ch8cakFCTGCOTi0Cj1e-zn6PAy_efXjo2B_HXP3QB2F7-P_O9StTC6_At2qRCst_2R2_Eq4EGqWskzeBMZYbu5oHZ_3E9Fg_ESCTnebDFuFrihbpYzPfqWNuhLh_FbLCpXZQitUScGmmQyxjKAQd1ptUWF9Ca-3ZzGEqP5W6Z0Etj2y9QKzSmVvWqcEz7CbdHS-SyEl30psLUTnKD9jO6oACbg3bwsAHqKYTL2RiK1yxX_udU07EX-YEBsJX2UjKB5z2pxlyvzXPPKReeEVXuVCw-yCFqwQSJz3GWtEl9gt9gvuxYNQaNIv-3hcXFyqJqHShXgaVccdYMGs6b_XzryPrC0hx3m00]--></g></svg>