<svg xmlns="http://www.w3.org/2000/svg" xmlns:xlink="http://www.w3.org/1999/xlink" contentStyleType="text/css" height="916.2px" preserveAspectRatio="none" style="width:605px;height:916px;background:#FFFFFF;" version="1.1" viewBox="0 0 605 916" width="605.4px" zoomAndPan="magnify"><title>Domain Model - US10 : Assign a train to a route</title><defs/><g><text fill="#000000" font-family="sans-serif" font-size="8.4" font-weight="bold" lengthAdjust="spacing" textLength="189.4922" x="204.016" y="15.0645">Domain Model - US10 : Assign a train to a route</text><!--class Player--><g id="elem_Player"><rect codeLine="18" fill="#ADD8E6" height="77.8359" id="Player" rx="1.5" ry="1.5" style="stroke:#0000FF;stroke-width:0.3;" width="79.1086" x="294.9" y="27.9727"/><text fill="#000000" font-family="sans-serif" font-size="8.4" lengthAdjust="spacing" textLength="23.8096" x="322.5495" y="40.0371">Player</text><line style="stroke:#0000FF;stroke-width:0.3;" x1="295.5" x2="373.4086" y1="45.1453" y2="45.1453"/><text fill="#000000" font-family="sans-serif" font-size="8.4" lengthAdjust="spacing" textLength="37.3529" x="298.5" y="56.6098">username</text><text fill="#000000" font-family="sans-serif" font-size="8.4" lengthAdjust="spacing" textLength="35.9502" x="298.5" y="67.7824">password</text><text fill="#000000" font-family="sans-serif" font-size="8.4" lengthAdjust="spacing" textLength="45.7652" x="298.5" y="78.9551">initialBudget</text><text fill="#000000" font-family="sans-serif" font-size="8.4" lengthAdjust="spacing" textLength="52.7666" x="298.5" y="90.1277">currentBudget</text><text fill="#000000" font-family="sans-serif" font-size="8.4" lengthAdjust="spacing" textLength="71.9086" x="298.5" y="101.3004">ownedLocomotives</text></g><!--class Position--><g id="elem_Position"><rect codeLine="26" fill="#ADD8E6" height="55.4906" id="Position" rx="1.5" ry="1.5" style="stroke:#0000FF;stroke-width:0.3;" width="40.8246" x="465.3" y="856.5727"/><text fill="#000000" font-family="sans-serif" font-size="8.4" lengthAdjust="spacing" textLength="29.884" x="470.7703" y="868.6371">Position</text><line style="stroke:#0000FF;stroke-width:0.3;" x1="465.9" x2="505.5246" y1="873.7453" y2="873.7453"/><text fill="#000000" font-family="sans-serif" font-size="8.4" lengthAdjust="spacing" textLength="4.2" x="468.9" y="885.2098">x</text><text fill="#000000" font-family="sans-serif" font-size="8.4" lengthAdjust="spacing" textLength="4.2" x="468.9" y="896.3824">y</text><text fill="#000000" font-family="sans-serif" font-size="8.4" lengthAdjust="spacing" textLength="33.6246" x="468.9" y="907.5551">occupied</text></g><!--class City--><g id="elem_City"><rect codeLine="32" fill="#ADD8E6" height="66.6633" id="City" rx="1.5" ry="1.5" style="stroke:#0000FF;stroke-width:0.3;" width="69.7775" x="476.1" y="606.0727"/><text fill="#000000" font-family="sans-serif" font-size="8.4" lengthAdjust="spacing" textLength="14.4662" x="503.7557" y="618.1371">City</text><line style="stroke:#0000FF;stroke-width:0.3;" x1="476.7" x2="545.2775" y1="623.2453" y2="623.2453"/><text fill="#000000" font-family="sans-serif" font-size="8.4" lengthAdjust="spacing" textLength="29.4123" x="479.7" y="634.7098">nameID</text><text fill="#000000" font-family="sans-serif" font-size="8.4" lengthAdjust="spacing" textLength="38.2799" x="479.7" y="645.8824">trafficRate</text><text fill="#000000" font-family="sans-serif" font-size="8.4" lengthAdjust="spacing" textLength="54.1693" x="479.7" y="657.0551">suppliedCargo</text><text fill="#000000" font-family="sans-serif" font-size="8.4" lengthAdjust="spacing" textLength="62.5775" x="479.7" y="668.2277">demandedCargo</text></g><!--class HouseBlock--><g id="elem_HouseBlock"><rect codeLine="39" fill="#ADD8E6" height="33.1453" id="HouseBlock" rx="1.5" ry="1.5" style="stroke:#0000FF;stroke-width:0.3;" width="83.3045" x="381" y="753.6727"/><text fill="#000000" font-family="sans-serif" font-size="8.4" lengthAdjust="spacing" textLength="44.8219" x="400.2413" y="765.7371">HouseBlock</text><line style="stroke:#0000FF;stroke-width:0.3;" x1="381.6" x2="463.7045" y1="770.8453" y2="770.8453"/><text fill="#000000" font-family="sans-serif" font-size="8.4" lengthAdjust="spacing" textLength="76.1045" x="384.6" y="782.3098">automaticPlacement</text></g><!--class Industry--><g id="elem_Industry"><rect codeLine="44" fill="#ADD8E6" height="89.0086" id="Industry" rx="1.5" ry="1.5" style="stroke:#0000FF;stroke-width:0.3;" width="69.7775" x="152.7" y="594.9727"/><text fill="#000000" font-family="sans-serif" font-size="8.4" lengthAdjust="spacing" textLength="29.8799" x="172.6488" y="607.0371">Industry</text><line style="stroke:#0000FF;stroke-width:0.3;" x1="153.3" x2="221.8775" y1="612.1453" y2="612.1453"/><text fill="#000000" font-family="sans-serif" font-size="8.4" lengthAdjust="spacing" textLength="29.4123" x="156.3" y="623.6098">nameID</text><text fill="#000000" font-family="sans-serif" font-size="8.4" lengthAdjust="spacing" textLength="15.8771" x="156.3" y="634.7824">type</text><text fill="#000000" font-family="sans-serif" font-size="8.4" lengthAdjust="spacing" textLength="56.4949" x="156.3" y="645.9551">availabilityYear</text><text fill="#000000" font-family="sans-serif" font-size="8.4" lengthAdjust="spacing" textLength="56.9707" x="156.3" y="657.1277">productionRate</text><text fill="#000000" font-family="sans-serif" font-size="8.4" lengthAdjust="spacing" textLength="54.1693" x="156.3" y="668.3004">suppliedCargo</text><text fill="#000000" font-family="sans-serif" font-size="8.4" lengthAdjust="spacing" textLength="62.5775" x="156.3" y="679.473">demandedCargo</text></g><!--class IndustrySector--><g id="elem_IndustrySector"><rect codeLine="53" fill="#ADD8E6" height="77.8359" id="IndustrySector" rx="1.5" ry="1.5" style="stroke:#0000FF;stroke-width:0.3;" width="68.3625" x="177.3" y="469.5727"/><text fill="#000000" font-family="sans-serif" font-size="8.4" lengthAdjust="spacing" textLength="54.157" x="184.4027" y="481.6371">IndustrySector</text><line style="stroke:#0000FF;stroke-width:0.3;" x1="177.9" x2="245.0625" y1="486.7453" y2="486.7453"/><text fill="#000000" font-family="sans-serif" font-size="8.4" lengthAdjust="spacing" textLength="21.0123" x="180.9" y="498.2098">name</text><text fill="#000000" font-family="sans-serif" font-size="8.4" lengthAdjust="spacing" textLength="56.015" x="180.9" y="509.3824">importsExports</text><text fill="#000000" font-family="sans-serif" font-size="8.4" lengthAdjust="spacing" textLength="60.2396" x="180.9" y="520.5551">generatesCargo</text><text fill="#000000" font-family="sans-serif" font-size="8.4" lengthAdjust="spacing" textLength="61.1625" x="180.9" y="531.7277">consumesCargo</text><text fill="#000000" font-family="sans-serif" font-size="8.4" lengthAdjust="spacing" textLength="40.6219" x="180.9" y="542.9004">description</text></g><!--class Station--><g id="elem_Station"><rect codeLine="61" fill="#ADD8E6" height="77.8359" id="Station" rx="1.5" ry="1.5" style="stroke:#0000FF;stroke-width:0.3;" width="67.899" x="320.4" y="469.5727"/><text fill="#000000" font-family="sans-serif" font-size="8.4" lengthAdjust="spacing" textLength="26.1516" x="341.2737" y="481.6371">Station</text><line style="stroke:#0000FF;stroke-width:0.3;" x1="321" x2="387.699" y1="486.7453" y2="486.7453"/><text fill="#000000" font-family="sans-serif" font-size="8.4" lengthAdjust="spacing" textLength="29.4123" x="324" y="498.2098">nameID</text><text fill="#000000" font-family="sans-serif" font-size="8.4" lengthAdjust="spacing" textLength="60.699" x="324" y="509.3824">storageCapacity</text><text fill="#000000" font-family="sans-serif" font-size="8.4" lengthAdjust="spacing" textLength="47.6314" x="324" y="520.5551">buildingSlots</text><text fill="#000000" font-family="sans-serif" font-size="8.4" lengthAdjust="spacing" textLength="56.0355" x="324" y="531.7277">availableCargo</text><text fill="#000000" font-family="sans-serif" font-size="8.4" lengthAdjust="spacing" textLength="60.2396" x="324" y="542.9004">requestedCargo</text></g><!--class StationType--><g id="elem_StationType"><rect codeLine="69" fill="#ADD8E6" height="66.6633" id="StationType" rx="1.5" ry="1.5" style="stroke:#0000FF;stroke-width:0.3;" width="69.2977" x="319.8" y="606.0727"/><text fill="#000000" font-family="sans-serif" font-size="8.4" lengthAdjust="spacing" textLength="44.826" x="332.0358" y="618.1371">StationType</text><line style="stroke:#0000FF;stroke-width:0.3;" x1="320.4" x2="388.4977" y1="623.2453" y2="623.2453"/><text fill="#000000" font-family="sans-serif" font-size="8.4" lengthAdjust="spacing" textLength="21.0123" x="323.4" y="634.7098">name</text><text fill="#000000" font-family="sans-serif" font-size="8.4" lengthAdjust="spacing" textLength="62.0977" x="323.4" y="645.8824">economicRadius</text><text fill="#000000" font-family="sans-serif" font-size="8.4" lengthAdjust="spacing" textLength="15.4055" x="323.4" y="657.0551">cost</text><text fill="#000000" font-family="sans-serif" font-size="8.4" lengthAdjust="spacing" textLength="42.4922" x="323.4" y="668.2277">centerPoint</text></g><!--class RailwayLine--><g id="elem_RailwayLine"><rect codeLine="76" fill="#ADD8E6" height="55.4906" id="RailwayLine" rx="1.5" ry="1.5" style="stroke:#0000FF;stroke-width:0.3;" width="48.8895" x="386.4" y="366.9727"/><text fill="#000000" font-family="sans-serif" font-size="8.4" lengthAdjust="spacing" textLength="45.2895" x="388.2" y="379.0371">RailwayLine</text><line style="stroke:#0000FF;stroke-width:0.3;" x1="387" x2="434.6895" y1="384.1453" y2="384.1453"/><text fill="#000000" font-family="sans-serif" font-size="8.4" lengthAdjust="spacing" textLength="22.8867" x="390" y="395.6098">length</text><text fill="#000000" font-family="sans-serif" font-size="8.4" lengthAdjust="spacing" textLength="36.8771" x="390" y="406.7824">trackType</text><text fill="#000000" font-family="sans-serif" font-size="8.4" lengthAdjust="spacing" textLength="15.4055" x="390" y="417.9551">cost</text></g><!--class Locomotive--><g id="elem_Locomotive"><rect codeLine="82" fill="#ADD8E6" height="144.8719" id="Locomotive" rx="1.5" ry="1.5" style="stroke:#0000FF;stroke-width:0.3;" width="74.4369" x="243.9" y="153.3727"/><text fill="#000000" font-family="sans-serif" font-size="8.4" lengthAdjust="spacing" textLength="42.9557" x="259.6406" y="165.4371">Locomotive</text><line style="stroke:#0000FF;stroke-width:0.3;" x1="244.5" x2="317.7369" y1="170.5453" y2="170.5453"/><text fill="#000000" font-family="sans-serif" font-size="8.4" lengthAdjust="spacing" textLength="29.4123" x="247.5" y="182.0098">nameID</text><text fill="#000000" font-family="sans-serif" font-size="8.4" lengthAdjust="spacing" textLength="22.8785" x="247.5" y="193.1824">owner</text><text fill="#000000" font-family="sans-serif" font-size="8.4" lengthAdjust="spacing" textLength="15.8771" x="247.5" y="204.3551">type</text><text fill="#000000" font-family="sans-serif" font-size="8.4" lengthAdjust="spacing" textLength="22.8785" x="247.5" y="215.5277">power</text><text fill="#000000" font-family="sans-serif" font-size="8.4" lengthAdjust="spacing" textLength="45.2936" x="247.5" y="226.7004">acceleration</text><text fill="#000000" font-family="sans-serif" font-size="8.4" lengthAdjust="spacing" textLength="35.9666" x="247.5" y="237.873">topSpeed</text><text fill="#000000" font-family="sans-serif" font-size="8.4" lengthAdjust="spacing" textLength="34.0799" x="247.5" y="249.0457">startYear</text><text fill="#000000" font-family="sans-serif" font-size="8.4" lengthAdjust="spacing" textLength="30.815" x="247.5" y="260.2184">fuelCost</text><text fill="#000000" font-family="sans-serif" font-size="8.4" lengthAdjust="spacing" textLength="56.4949" x="247.5" y="271.391">availabilityYear</text><text fill="#000000" font-family="sans-serif" font-size="8.4" lengthAdjust="spacing" textLength="58.8287" x="247.5" y="282.5637">acquisitionPrice</text><text fill="#000000" font-family="sans-serif" font-size="8.4" lengthAdjust="spacing" textLength="67.2369" x="247.5" y="293.7363">maintenancePrice</text></g><!--class Route--><g id="elem_Route"><rect codeLine="95" fill="#ADD8E6" height="55.4906" id="Route" rx="1.5" ry="1.5" style="stroke:#0000FF;stroke-width:0.3;" width="69.7816" x="149.7" y="198.0727"/><text fill="#000000" font-family="sans-serif" font-size="8.4" lengthAdjust="spacing" textLength="22.415" x="173.3833" y="210.1371">Route</text><line style="stroke:#0000FF;stroke-width:0.3;" x1="150.3" x2="218.8816" y1="215.2453" y2="215.2453"/><text fill="#000000" font-family="sans-serif" font-size="8.4" lengthAdjust="spacing" textLength="29.4123" x="153.3" y="226.7098">nameID</text><text fill="#000000" font-family="sans-serif" font-size="8.4" lengthAdjust="spacing" textLength="62.5816" x="153.3" y="237.8824">stationSequence</text><text fill="#000000" font-family="sans-serif" font-size="8.4" lengthAdjust="spacing" textLength="34.084" x="153.3" y="249.0551">cargoList</text></g><!--class Carriage--><g id="elem_Carriage"><rect codeLine="101" fill="#ADD8E6" height="33.1453" id="Carriage" rx="1.5" ry="1.5" style="stroke:#0000FF;stroke-width:0.3;" width="67.899" x="4.2" y="315.9727"/><text fill="#000000" font-family="sans-serif" font-size="8.4" lengthAdjust="spacing" textLength="32.2137" x="22.0427" y="328.0371">Carriage</text><line style="stroke:#0000FF;stroke-width:0.3;" x1="4.8" x2="71.499" y1="333.1453" y2="333.1453"/><text fill="#000000" font-family="sans-serif" font-size="8.4" lengthAdjust="spacing" textLength="60.699" x="7.8" y="344.6098">storageCapacity</text></g><!--class Cargo--><g id="elem_Cargo"><rect codeLine="105" fill="#ADD8E6" height="77.8359" id="Cargo" rx="1.5" ry="1.5" style="stroke:#0000FF;stroke-width:0.3;" width="86.5775" x="108.3" y="731.1727"/><text fill="#000000" font-family="sans-serif" font-size="8.4" lengthAdjust="spacing" textLength="22.8785" x="140.1495" y="743.2371">Cargo</text><line style="stroke:#0000FF;stroke-width:0.3;" x1="108.9" x2="194.2775" y1="748.3453" y2="748.3453"/><text fill="#000000" font-family="sans-serif" font-size="8.4" lengthAdjust="spacing" textLength="21.0123" x="111.9" y="759.8098">name</text><text fill="#000000" font-family="sans-serif" font-size="8.4" lengthAdjust="spacing" textLength="28.0178" x="111.9" y="770.9824">amount</text><text fill="#000000" font-family="sans-serif" font-size="8.4" lengthAdjust="spacing" textLength="28.9529" x="111.9" y="782.1551">lifespan</text><text fill="#000000" font-family="sans-serif" font-size="8.4" lengthAdjust="spacing" textLength="15.8771" x="111.9" y="793.3277">type</text><text fill="#000000" font-family="sans-serif" font-size="8.4" lengthAdjust="spacing" textLength="79.3775" x="111.9" y="804.5004">productionResources</text></g><!--class Train--><g id="elem_Train"><rect codeLine="113" fill="#ADD8E6" height="33.1453" id="Train" rx="1.5" ry="1.5" style="stroke:#0000FF;stroke-width:0.3;" width="36.6123" x="93.6" y="50.4727"/><text fill="#000000" font-family="sans-serif" font-size="8.4" lengthAdjust="spacing" textLength="19.1379" x="102.3372" y="62.5371">Train</text><line style="stroke:#0000FF;stroke-width:0.3;" x1="94.2" x2="129.6123" y1="67.6453" y2="67.6453"/><text fill="#000000" font-family="sans-serif" font-size="8.4" lengthAdjust="spacing" textLength="29.4123" x="97.2" y="79.1098">nameID</text></g><!--link Player to Station--><g id="link_Player_Station"><path codeLine="117" d="M339.432,106.0627 C340.074,112.0507 340.662,118.1707 341.1,123.9727 C343.65,157.6867 350.442,378.8647 353.154,469.4167 " fill="none" id="Player-Station" style="stroke:#181818;stroke-width:0.6;"/><polygon fill="#000000" points="352.6132,335.5578,354.1705,330.0681,350.6463,330.2012,352.6132,335.5578" style="stroke:#000000;stroke-width:0.6;"/><text fill="#000000" font-family="sans-serif" font-size="7.8" lengthAdjust="spacing" textLength="20.3798" x="357.9" y="335.7896">builds</text><text fill="#000000" font-family="sans-serif" font-size="7.8" lengthAdjust="spacing" textLength="4.338" x="335.5359" y="119.0542">1</text><text fill="#000000" font-family="sans-serif" font-size="7.8" lengthAdjust="spacing" textLength="3.0354" x="349.8611" y="462.8117">*</text></g><!--link Player to RailwayLine--><g id="link_Player_RailwayLine"><path codeLine="118" d="M359.94,106.0147 C363.468,111.9247 366.9,118.0387 369.9,123.9727 C411.252,205.8307 428.4,225.8707 445.5,315.9727 C448.236,330.3847 450.24,335.0947 445.5,348.9727 C443.172,355.7947 439.338,362.3887 435.054,368.3227 " fill="none" id="Player-RailwayLine" style="stroke:#181818;stroke-width:0.6;"/><polygon fill="#000000" points="445.1259,228.644,445.3271,222.9413,441.9366,223.9121,445.1259,228.644" style="stroke:#000000;stroke-width:0.6;"/><text fill="#000000" font-family="sans-serif" font-size="7.8" lengthAdjust="spacing" textLength="20.3798" x="449.7" y="228.9896">builds</text><text fill="#000000" font-family="sans-serif" font-size="7.8" lengthAdjust="spacing" textLength="4.338" x="358.1588" y="119.0013">1</text><text fill="#000000" font-family="sans-serif" font-size="7.8" lengthAdjust="spacing" textLength="3.0354" x="440.119" y="360.3562">*</text></g><!--link Player to Locomotive--><g id="link_Player_Locomotive"><path codeLine="119" d="M319.914,106.0147 C317.718,112.0087 315.516,118.1467 313.5,123.9727 C310.242,133.3807 306.918,143.3167 303.702,153.1387 " fill="none" id="Player-Locomotive" style="stroke:#181818;stroke-width:0.6;"/><polygon fill="#000000" points="315.5241,132.5968,318.957,128.0386,315.6221,126.8913,315.5241,132.5968" style="stroke:#000000;stroke-width:0.6;"/><text fill="#000000" font-family="sans-serif" font-size="7.8" lengthAdjust="spacing" textLength="16.476" x="321.9" y="132.9896">buys</text><text fill="#000000" font-family="sans-serif" font-size="7.8" lengthAdjust="spacing" textLength="4.338" x="314.0051" y="119.0013">1</text><text fill="#000000" font-family="sans-serif" font-size="7.8" lengthAdjust="spacing" textLength="3.0354" x="301.9879" y="146.6219">*</text></g><!--link Player to Route--><g id="link_Player_Route"><path codeLine="120" d="M294.738,70.1587 C258.792,74.8567 207.774,87.9067 182.7,123.9727 C167.82,145.3747 170.808,175.9687 175.944,197.8867 " fill="none" id="Player-Route" style="stroke:#181818;stroke-width:0.6;"/><polygon fill="#000000" points="183.6569,131.9567,188.6441,129.1837,186.0617,126.7818,183.6569,131.9567" style="stroke:#000000;stroke-width:0.6;"/><text fill="#000000" font-family="sans-serif" font-size="7.8" lengthAdjust="spacing" textLength="25.152" x="191.1" y="132.9896">defines</text><text fill="#000000" font-family="sans-serif" font-size="7.8" lengthAdjust="spacing" textLength="4.338" x="285.711" y="68.1739">1</text><text fill="#000000" font-family="sans-serif" font-size="7.8" lengthAdjust="spacing" textLength="3.0354" x="171.4563" y="191.265">*</text></g><!--link Route to Station--><g id="link_Route_Station"><path codeLine="122" d="M200.472,253.2727 C222.894,291.1207 265.044,362.0467 301.5,422.1727 C310.884,437.6527 321.312,454.6387 330.402,469.3867 " fill="none" id="Route-Station" style="stroke:#181818;stroke-width:0.6;"/><polygon fill="#000000" points="306.0458,397.2311,304.7607,391.6713,301.7382,393.4885,306.0458,397.2311" style="stroke:#000000;stroke-width:0.6;"/><text fill="#000000" font-family="sans-serif" font-size="7.8" lengthAdjust="spacing" textLength="28.6178" x="309.9" y="397.8896">includes</text><text fill="#000000" font-family="sans-serif" font-size="7.8" lengthAdjust="spacing" textLength="4.338" x="198.3928" y="266.688">1</text><text fill="#000000" font-family="sans-serif" font-size="7.8" lengthAdjust="spacing" textLength="3.0354" x="324.6206" y="462.7784">*</text></g><!--link Route to Cargo--><g id="link_Route_Cargo"><path codeLine="123" d="M165.648,253.3507 C145.218,285.3907 115.5,341.0827 115.5,393.9727 C115.5,393.9727 115.5,393.9727 115.5,639.9727 C115.5,671.3827 125.436,705.5587 134.868,730.9267 " fill="none" id="Route-Cargo" style="stroke:#181818;stroke-width:0.6;"/><polygon fill="#000000" points="118.307,511.6537,120.4158,506.3513,116.8964,506.1245,118.307,511.6537" style="stroke:#000000;stroke-width:0.6;"/><text fill="#000000" font-family="sans-serif" font-size="7.8" lengthAdjust="spacing" textLength="32.0874" x="123.9" y="511.8896">manages</text><text fill="#000000" font-family="sans-serif" font-size="7.8" lengthAdjust="spacing" textLength="3.0354" x="159.5204" y="266.7779">*</text><text fill="#000000" font-family="sans-serif" font-size="7.8" lengthAdjust="spacing" textLength="3.0354" x="129.877" y="724.3118">*</text></g><!--link Train to Locomotive--><g id="link_Train_Locomotive"><path codeLine="125" d="M130.344,73.8487 C153.198,82.3507 192.354,99.3427 218.7,123.9727 C227.964,132.6367 236.382,142.9747 243.816,153.6787 " fill="none" id="Train-Locomotive" style="stroke:#181818;stroke-width:0.6;"/><polygon fill="#000000" points="233.1536,131.4861,229.7296,126.9212,227.7003,129.8057,233.1536,131.4861" style="stroke:#000000;stroke-width:0.6;"/><text fill="#000000" font-family="sans-serif" font-size="7.8" lengthAdjust="spacing" textLength="40.3254" x="236.1" y="132.9896">powered by</text><text fill="#000000" font-family="sans-serif" font-size="7.8" lengthAdjust="spacing" textLength="4.338" x="135.1093" y="72.4797">1</text><text fill="#000000" font-family="sans-serif" font-size="7.8" lengthAdjust="spacing" textLength="4.338" x="236.9733" y="146.7126">1</text></g><!--link Train to Route--><g id="link_Train_Route"><path codeLine="126" d="M108.246,83.7127 C105.798,97.7887 104.028,118.5367 110.1,135.3727 C118.788,159.4507 137.052,181.6327 153.312,197.9167 " fill="none" id="Train-Route" style="stroke:#181818;stroke-width:0.6;"/><polygon fill="#000000" points="114.2012,132.5505,113.8494,126.8551,110.5689,128.1496,114.2012,132.5505" style="stroke:#000000;stroke-width:0.6;"/><text fill="#000000" font-family="sans-serif" font-size="7.8" lengthAdjust="spacing" textLength="39.895" x="118.5" y="132.9896">assigned to</text><text fill="#000000" font-family="sans-serif" font-size="7.8" lengthAdjust="spacing" textLength="4.338" x="102.8011" y="96.9104">1</text><text fill="#000000" font-family="sans-serif" font-size="7.8" lengthAdjust="spacing" textLength="3.0354" x="145.5002" y="191.2994">*</text></g><!--link Train to Carriage--><g id="link_Train_Carriage"><path codeLine="127" d="M93.516,78.4087 C78.738,88.2367 58.938,104.2027 49.5,123.9727 C18.36,189.2167 28.92,279.4087 35.028,315.7447 " fill="none" id="Train-Carriage" style="stroke:#181818;stroke-width:0.6;"/><polygon fill="#000000" points="51.7822,132.6728,54.7929,127.8253,51.3686,126.9815,51.7822,132.6728" style="stroke:#000000;stroke-width:0.6;"/><text fill="#000000" font-family="sans-serif" font-size="7.8" lengthAdjust="spacing" textLength="44.6596" x="57.9" y="132.9896">composed of</text><text fill="#000000" font-family="sans-serif" font-size="7.8" lengthAdjust="spacing" textLength="4.338" x="84.3383" y="78.1736">1</text><text fill="#000000" font-family="sans-serif" font-size="7.8" lengthAdjust="spacing" textLength="3.0354" x="31.0209" y="309.19">*</text></g><!--link RailwayLine to Station--><g id="link_RailwayLine_Station"><path codeLine="129" d="M397.188,422.1907 C390.12,436.3327 381.336,453.9007 373.566,469.4407 " fill="none" id="RailwayLine-Station" style="stroke:#181818;stroke-width:0.6;"/><polygon fill="#000000" points="389.5585,448.6433,393.5625,444.5776,390.4081,443.0006,389.5585,448.6433" style="stroke:#000000;stroke-width:0.6;"/><text fill="#000000" font-family="sans-serif" font-size="7.8" lengthAdjust="spacing" textLength="31.219" x="396.3" y="449.1896">connects</text><text fill="#000000" font-family="sans-serif" font-size="7.8" lengthAdjust="spacing" textLength="4.338" x="390.5858" y="435.6087">1</text><text fill="#000000" font-family="sans-serif" font-size="7.8" lengthAdjust="spacing" textLength="4.338" x="371.2457" y="462.8383">2</text></g><!--link Station to Cargo--><g id="link_Station_Cargo"><path codeLine="131" d="M320.34,542.5027 C306.306,557.5747 290.694,576.1987 279.3,594.9727 C250.038,643.1887 268.098,668.9407 233.1,713.1727 C222.738,726.2707 208.512,737.5447 194.838,746.4907 " fill="none" id="Station-Cargo" style="stroke:#181818;stroke-width:0.6;"/><polygon fill="#000000" points="280.728,642.0151,285.0737,638.3168,282.0699,636.4688,280.728,642.0151" style="stroke:#000000;stroke-width:0.6;"/><text fill="#000000" font-family="sans-serif" font-size="7.8" lengthAdjust="spacing" textLength="21.2405" x="287.7" y="642.6896">stores</text><text fill="#000000" font-family="sans-serif" font-size="7.8" lengthAdjust="spacing" textLength="4.338" x="311.2971" y="544.6164">1</text><text fill="#000000" font-family="sans-serif" font-size="7.8" lengthAdjust="spacing" textLength="3.0354" x="199.7344" y="752.8938">*</text></g><!--link Station to City--><g id="link_Station_City"><path codeLine="132" d="M388.314,533.9827 C410.676,550.6447 440.31,573.4207 465.3,594.9727 C469.374,598.4827 473.556,602.2567 477.66,606.0607 " fill="none" id="Station-City" style="stroke:#181818;stroke-width:0.6;"/><polygon fill="#000000" points="446.6349,573.2436,443.5182,568.4636,441.3038,571.2085,446.6349,573.2436" style="stroke:#000000;stroke-width:0.6;"/><text fill="#000000" font-family="sans-serif" font-size="7.8" lengthAdjust="spacing" textLength="22.9734" x="449.7" y="574.5896">serves</text><text fill="#000000" font-family="sans-serif" font-size="7.8" lengthAdjust="spacing" textLength="4.338" x="393.1694" y="534.9516">1</text><text fill="#000000" font-family="sans-serif" font-size="7.8" lengthAdjust="spacing" textLength="3.0354" x="470.1998" y="599.3632">*</text></g><!--link Station to Industry--><g id="link_Station_Industry"><path codeLine="133" d="M320.328,519.3667 C294.546,528.3787 259.38,543.5467 234.3,565.5727 C224.952,573.7867 216.768,584.3047 209.97,594.7927 " fill="none" id="Station-Industry" style="stroke:#181818;stroke-width:0.6;"/><polygon fill="#000000" points="234.8232,573.0528,240.2988,571.4463,238.3088,568.5346,234.8232,573.0528" style="stroke:#000000;stroke-width:0.6;"/><text fill="#000000" font-family="sans-serif" font-size="7.8" lengthAdjust="spacing" textLength="22.9734" x="242.7" y="574.5896">serves</text><text fill="#000000" font-family="sans-serif" font-size="7.8" lengthAdjust="spacing" textLength="4.338" x="311.2834" y="518.3715">1</text><text fill="#000000" font-family="sans-serif" font-size="7.8" lengthAdjust="spacing" textLength="3.0354" x="208.9619" y="588.2729">*</text></g><!--link Carriage to Cargo--><g id="link_Carriage_Cargo"><path codeLine="135" d="M38.376,349.0507 C38.73,370.8127 39.3,410.9887 39.3,445.2727 C39.3,445.2727 39.3,445.2727 39.3,639.9727 C39.3,683.9467 76.674,720.3307 108.282,743.2387 " fill="none" id="Carriage-Cargo" style="stroke:#181818;stroke-width:0.6;"/><polygon fill="#000000" points="42.8239,511.6139,43.6125,505.9623,40.1399,506.5781,42.8239,511.6139" style="stroke:#000000;stroke-width:0.6;"/><text fill="#000000" font-family="sans-serif" font-size="7.8" lengthAdjust="spacing" textLength="23.4038" x="47.7" y="511.8896">carries</text><text fill="#000000" font-family="sans-serif" font-size="7.8" lengthAdjust="spacing" textLength="3.0354" x="35.1013" y="362.2129">*</text><text fill="#000000" font-family="sans-serif" font-size="7.8" lengthAdjust="spacing" textLength="4.338" x="99.1232" y="737.9705">1</text></g><!--link Route to RailwayLine--><g id="link_Route_RailwayLine"><path codeLine="136" d="M195.822,253.3567 C203.85,269.0467 216.21,287.6887 233.1,297.9727 C290.67,333.0367 331.212,273.6787 383.7,315.9727 C398.934,328.2427 405.594,349.6087 408.498,366.8767 " fill="none" id="Route-RailwayLine" style="stroke:#181818;stroke-width:0.6;"/><polygon fill="#000000" points="409.7466,333.9726,405.7892,329.8615,404.1285,332.9727,409.7466,333.9726" style="stroke:#000000;stroke-width:0.6;"/><text fill="#000000" font-family="sans-serif" font-size="7.8" lengthAdjust="spacing" textLength="29.052" x="412.5" y="335.7896">contains</text><text fill="#000000" font-family="sans-serif" font-size="7.8" lengthAdjust="spacing" textLength="11.7076" x="185.2925" y="266.7848">1..*</text><text fill="#000000" font-family="sans-serif" font-size="7.8" lengthAdjust="spacing" textLength="11.7076" x="395.9387" y="360.2682">1..*</text></g><!--link City to Cargo--><g id="link_City_Cargo"><path codeLine="138" d="M481.446,672.8707 C476.424,677.0647 470.976,680.8867 465.3,683.7727 C424.26,704.6167 408.528,693.2047 363.3,701.7727 C330.954,707.8987 248.892,719.5327 218.1,731.1727 C210.3,734.1247 202.332,737.9227 194.754,741.9787 " fill="none" id="City-Cargo" style="stroke:#181818;stroke-width:0.6;"/><polygon fill="#000000" points="363.3835,708.263,369.0727,708.7055,368.2462,705.2769,363.3835,708.263" style="stroke:#000000;stroke-width:0.6;"/><text fill="#000000" font-family="sans-serif" font-size="7.8" lengthAdjust="spacing" textLength="69.8039" x="371.7" y="710.7896">produces/consumes</text><text fill="#000000" font-family="sans-serif" font-size="7.8" lengthAdjust="spacing" textLength="3.0354" x="474.6648" y="685.9986">*</text><text fill="#000000" font-family="sans-serif" font-size="7.8" lengthAdjust="spacing" textLength="3.0354" x="199.6412" y="736.5726">*</text></g><!--link City to Position--><g id="link_City_Position"><path codeLine="140" d="M507.504,672.8227 C502.476,721.3987 493.158,811.4587 488.502,856.4827 " fill="none" id="City-Position" style="stroke:#181818;stroke-width:0.6;"/><polygon fill="#000000" points="503.3913,773.244,505.7038,768.0273,502.1958,767.6643,503.3913,773.244" style="stroke:#000000;stroke-width:0.6;"/><text fill="#000000" font-family="sans-serif" font-size="7.8" lengthAdjust="spacing" textLength="33.8241" x="509.1" y="773.4896">located at</text><text fill="#000000" font-family="sans-serif" font-size="7.8" lengthAdjust="spacing" textLength="4.338" x="502.6318" y="685.9447">1</text><text fill="#000000" font-family="sans-serif" font-size="7.8" lengthAdjust="spacing" textLength="4.338" x="484.4134" y="849.8751">1</text></g><!--link Industry to Position--><g id="link_Industry_Position"><path codeLine="141" d="M220.35,683.7967 C253.578,727.3147 303.426,790.2007 327.9,809.1727 C371.706,843.1267 433.518,866.5567 465.21,877.1587 " fill="none" id="Industry-Position" style="stroke:#181818;stroke-width:0.6;"/><polygon fill="#000000" points="333.2544,772.1192,330.0881,767.3719,327.9024,770.1397,333.2544,772.1192" style="stroke:#000000;stroke-width:0.6;"/><text fill="#000000" font-family="sans-serif" font-size="7.8" lengthAdjust="spacing" textLength="33.8241" x="336.3" y="773.4896">located at</text><text fill="#000000" font-family="sans-serif" font-size="7.8" lengthAdjust="spacing" textLength="4.338" x="219.3191" y="697.3191">1</text><text fill="#000000" font-family="sans-serif" font-size="7.8" lengthAdjust="spacing" textLength="4.338" x="456.0808" y="872.713">1</text></g><!--link Station to Position--><g id="link_Station_Position"><path codeLine="142" d="M388.344,512.3947 C435.444,518.8927 518.928,538.2127 556.5,594.9727 C569.664,614.8567 552.894,797.2627 548.1,809.1727 C539.106,831.5407 520.686,852.1327 506.184,865.9567 " fill="none" id="Station-Position" style="stroke:#181818;stroke-width:0.6;"/><polygon fill="#000000" points="562.8486,710.406,562.8055,704.6999,559.4597,705.815,562.8486,710.406" style="stroke:#000000;stroke-width:0.6;"/><text fill="#000000" font-family="sans-serif" font-size="7.8" lengthAdjust="spacing" textLength="33.8241" x="567.3" y="710.7896">located at</text><text fill="#000000" font-family="sans-serif" font-size="7.8" lengthAdjust="spacing" textLength="4.338" x="393.2035" y="510.4627">1</text><text fill="#000000" font-family="sans-serif" font-size="7.8" lengthAdjust="spacing" textLength="4.338" x="510.8536" y="859.3528">1</text></g><!--link City to HouseBlock--><g id="link_City_HouseBlock"><path codeLine="144" d="M476.628,672.7747 C468.366,681.6967 460.002,691.6987 453.3,701.7727 C442.356,718.2247 433.56,739.2247 428.262,753.4687 " fill="none" id="City-HouseBlock" style="stroke:#181818;stroke-width:0.6;"/><polygon fill="#000000" points="454.7577,710.1331,459.0602,706.3848,456.0353,704.5717,454.7577,710.1331" style="stroke:#000000;stroke-width:0.6;"/><text fill="#000000" font-family="sans-serif" font-size="7.8" lengthAdjust="spacing" textLength="29.052" x="461.7" y="710.7896">contains</text><text fill="#000000" font-family="sans-serif" font-size="7.8" lengthAdjust="spacing" textLength="4.338" x="466.8555" y="675.3339">1</text><text fill="#000000" font-family="sans-serif" font-size="7.8" lengthAdjust="spacing" textLength="11.7076" x="416.8759" y="746.9192">1..*</text></g><!--link HouseBlock to Position--><g id="link_HouseBlock_Position"><path codeLine="145" d="M431.592,786.6967 C441.702,804.7927 458.37,834.6427 470.544,856.4347 " fill="none" id="HouseBlock-Position" style="stroke:#181818;stroke-width:0.6;"/><polygon fill="#000000" points="463.7629,835.5791,462.656,829.9812,459.577,831.7009,463.7629,835.5791" style="stroke:#000000;stroke-width:0.6;"/><text fill="#000000" font-family="sans-serif" font-size="7.8" lengthAdjust="spacing" textLength="12.576" x="467.7" y="836.1896">has</text><text fill="#000000" font-family="sans-serif" font-size="7.8" lengthAdjust="spacing" textLength="4.338" x="428.9896" y="800.1176">1</text><text fill="#000000" font-family="sans-serif" font-size="7.8" lengthAdjust="spacing" textLength="4.338" x="463.8179" y="849.82">1</text></g><!--link Industry to Cargo--><g id="link_Industry_Cargo"><path codeLine="147" d="M156.774,683.8627 C153.888,689.6707 151.404,695.7187 149.7,701.7727 C147.084,711.0667 146.328,721.3627 146.508,731.0647 " fill="none" id="Industry-Cargo" style="stroke:#181818;stroke-width:0.6;"/><polygon fill="#000000" points="152.0624,710.4914,154.9389,705.5631,151.4927,704.8136,152.0624,710.4914" style="stroke:#000000;stroke-width:0.6;"/><text fill="#000000" font-family="sans-serif" font-size="7.8" lengthAdjust="spacing" textLength="69.8039" x="158.1" y="710.7896">produces/consumes</text><text fill="#000000" font-family="sans-serif" font-size="7.8" lengthAdjust="spacing" textLength="3.0354" x="150.5948" y="697.1595">*</text><text fill="#000000" font-family="sans-serif" font-size="7.8" lengthAdjust="spacing" textLength="3.0354" x="142.7902" y="724.4649">*</text></g><!--link Station to StationType--><g id="link_Station_StationType"><path codeLine="149" d="M354.3,547.7047 C354.3,566.2087 354.3,588.1567 354.3,605.8627 " fill="none" id="Station-StationType" style="stroke:#181818;stroke-width:0.6;"/><polygon fill="#000000" points="357.3,574.36,359.0634,568.9329,355.5366,568.9329,357.3,574.36" style="stroke:#000000;stroke-width:0.6;"/><text fill="#000000" font-family="sans-serif" font-size="7.8" lengthAdjust="spacing" textLength="35.995" x="362.7" y="574.5896">defined by</text><text fill="#000000" font-family="sans-serif" font-size="7.8" lengthAdjust="spacing" textLength="3.0354" x="351.142" y="560.7005">*</text><text fill="#000000" font-family="sans-serif" font-size="7.8" lengthAdjust="spacing" textLength="4.338" x="349.8343" y="599.3808">1</text></g><!--link IndustrySector to Industry--><g id="link_IndustrySector_Industry"><path codeLine="150" d="M180.552,547.6387 C177.258,553.3807 174.414,559.4347 172.5,565.5727 C169.584,574.9207 169.692,585.1267 171.294,594.8587 " fill="none" id="IndustrySector-Industry" style="stroke:#181818;stroke-width:0.6;"/><polygon fill="#000000" points="174.9228,574.3039,177.6974,569.3175,174.2365,568.639,174.9228,574.3039" style="stroke:#000000;stroke-width:0.6;"/><text fill="#000000" font-family="sans-serif" font-size="7.8" lengthAdjust="spacing" textLength="29.052" x="180.9" y="574.5896">contains</text><text fill="#000000" font-family="sans-serif" font-size="7.8" lengthAdjust="spacing" textLength="4.338" x="172.953" y="560.6277">1</text><text fill="#000000" font-family="sans-serif" font-size="7.8" lengthAdjust="spacing" textLength="3.0354" x="166.5441" y="588.1901">*</text></g><!--link StationType to StationType--><g id="link_StationType_StationType"><path codeLine="152" d="M388.986,626.7727 C400.548,626.7727 409.8,630.9727 409.8,639.3727 C409.8,647.7727 400.548,651.9727 388.986,651.9727 " fill="none" id="StationType-StationType" style="stroke:#181818;stroke-width:0.6;"/><polygon fill="#000000" points="412.8,642.46,414.5634,637.0329,411.0366,637.0329,412.8,642.46" style="stroke:#000000;stroke-width:0.6;"/><text fill="#000000" font-family="sans-serif" font-size="7.8" lengthAdjust="spacing" textLength="40.333" x="421.2" y="642.6896">can change</text><text fill="#000000" font-family="sans-serif" font-size="7.8" lengthAdjust="spacing" textLength="4.338" x="393.9184" y="622.6187">1</text><text fill="#000000" font-family="sans-serif" font-size="7.8" lengthAdjust="spacing" textLength="3.0354" x="393.8309" y="651.2049">*</text></g><!--SRC=[dLPDJnin4Btlhx1oHA8bFUPGYOHAHKebHEYXnuazsLZnsei_2DkA_zwnzyi92w8z8Fpn_ERDcx4txY1r3HOgLWC_G8aRtoXa5ha7NIeit01mUn3cA7N9Tg1SliCLE7VjlPNRuF6M6xsHlv5TdKFOduAn9SKfhGbQh8mobgrbkVTB5J3k6IlGjkjfwIMZG1sg_s4ezb8Wuz9oIYUDA_Hx8rnHUEafsHjJWTJiXn6es2NxkPbViGMxTawMcW7pDkvwGqCAwh4escJk53HeawBWq6geee2QjeuaWePIIoz1BOCeqTES1sjH-s5kZXh5sd1J6I-Vq4Mj7RLnTDJeHFvCVqs4SnvgYMA4hQHl4YJ6lhsX0MdTxII_1n-rk53NYawim9Q6vW8hqAAV3pJV3UbVAiCFYGo29qEyv9GWnueKHsY7lTKYE6_FmpPrZ0TF81LifI9Tln1ijCCQ4NZCvTyqzN4sr8Z63j6YgrLjh7VVdjC_MYXHeoLorrDI_xbGZNE1ZbjPHn5ZW8s7mU4X3qUnw0wiW2u3vK0hso2Le9xVA9E2TIagxCajFWPq_bK27Vy3EPEhHn9dgbWX8ODBObtg3R8PxPsHhTijnpt5EaApbhhbKAXBls_Bp0yFhUc9O3WojjDfPh7Nx5YfsXpJ53X75TsBtj2kgJSreaXMWFLT4NS1rQhLEL5Yu8z1jlrwPoMFzF4-UTIWERPBBtr6yGATUvwYRwAFEftcqScrpDCYSwsaogIZvrNAKQN9tOQANeaeMyaTkXfqvi3OcEXCi3o_Vm_focSoQQUxxhFvZ5rUijd5R6YXHTibZdsT0EKrV1UOLIxYcZVeee4BQkaT4KP8qLewAKjghe98i0vrCQ1QhnPKAarU9gOswvvfVYOfjGmAjcq8UmhjTH4Aqgj9C7el9s137HVKjtIH7I7DBgMH-TGV-98dGnT7qsEGbFQhfymfdzWSAPqfJ7ml2OBswIt8yBvbi69GtVit7-Fnk9TRFF_qwMAMG76Grp_buCcHbZIAcIX8svZeFlVFs0WUApDy81QCtcrw_0G3Jy11_WUmvzc_0psBdnBBlXedYMNhqynxI2cDKZ_emQ1tB4B-oFQNeklGim_8T8dpUkHShszJ5uA3PdnFluoGZlm5]--></g></svg>