<svg xmlns="http://www.w3.org/2000/svg" xmlns:xlink="http://www.w3.org/1999/xlink" contentStyleType="text/css" height="1527px" preserveAspectRatio="none" style="width:1048px;height:1527px;background:#FFFFFF;" version="1.1" viewBox="0 0 1048 1527" width="1048px" zoomAndPan="magnify"><title>Domain Model - US10 : Assign a train to a route</title><defs/><g><text fill="#000000" font-family="sans-serif" font-size="14" font-weight="bold" lengthAdjust="spacing" textLength="315.8203" x="359.5266" y="25.1074">Domain Model - US10 : Assign a train to a route</text><!--class Player--><g id="elem_Player"><rect codeLine="18" fill="#ADD8E6" height="129.7266" id="Player" rx="2.5" ry="2.5" style="stroke:#0000FF;stroke-width:0.5;" width="131.8477" x="491.5" y="46.6211"/><text fill="#000000" font-family="sans-serif" font-size="14" lengthAdjust="spacing" textLength="39.6826" x="537.5825" y="66.7285">Player</text><line style="stroke:#0000FF;stroke-width:0.5;" x1="492.5" x2="622.3477" y1="75.2422" y2="75.2422"/><text fill="#000000" font-family="sans-serif" font-size="14" lengthAdjust="spacing" textLength="62.2549" x="497.5" y="94.3496">username</text><text fill="#000000" font-family="sans-serif" font-size="14" lengthAdjust="spacing" textLength="59.917" x="497.5" y="112.9707">password</text><text fill="#000000" font-family="sans-serif" font-size="14" lengthAdjust="spacing" textLength="76.2754" x="497.5" y="131.5918">initialBudget</text><text fill="#000000" font-family="sans-serif" font-size="14" lengthAdjust="spacing" textLength="87.9443" x="497.5" y="150.2129">currentBudget</text><text fill="#000000" font-family="sans-serif" font-size="14" lengthAdjust="spacing" textLength="119.8477" x="497.5" y="168.834">ownedLocomotives</text></g><!--class Position--><g id="elem_Position"><rect codeLine="26" fill="#ADD8E6" height="92.4844" id="Position" rx="2.5" ry="2.5" style="stroke:#0000FF;stroke-width:0.5;" width="68.041" x="775.5" y="1427.6211"/><text fill="#000000" font-family="sans-serif" font-size="14" lengthAdjust="spacing" textLength="49.8066" x="784.6172" y="1447.7285">Position</text><line style="stroke:#0000FF;stroke-width:0.5;" x1="776.5" x2="842.541" y1="1456.2422" y2="1456.2422"/><text fill="#000000" font-family="sans-serif" font-size="14" lengthAdjust="spacing" textLength="7" x="781.5" y="1475.3496">x</text><text fill="#000000" font-family="sans-serif" font-size="14" lengthAdjust="spacing" textLength="7" x="781.5" y="1493.9707">y</text><text fill="#000000" font-family="sans-serif" font-size="14" lengthAdjust="spacing" textLength="56.041" x="781.5" y="1512.5918">occupied</text></g><!--class City--><g id="elem_City"><rect codeLine="32" fill="#ADD8E6" height="111.1055" id="City" rx="2.5" ry="2.5" style="stroke:#0000FF;stroke-width:0.5;" width="116.2959" x="793.5" y="1019.6211"/><text fill="#000000" font-family="sans-serif" font-size="14" lengthAdjust="spacing" textLength="24.1104" x="839.5928" y="1039.7285">City</text><line style="stroke:#0000FF;stroke-width:0.5;" x1="794.5" x2="908.7959" y1="1048.2422" y2="1048.2422"/><text fill="#000000" font-family="sans-serif" font-size="14" lengthAdjust="spacing" textLength="49.0205" x="799.5" y="1067.3496">nameID</text><text fill="#000000" font-family="sans-serif" font-size="14" lengthAdjust="spacing" textLength="94.9512" x="799.5" y="1085.9707">productionRate</text><text fill="#000000" font-family="sans-serif" font-size="14" lengthAdjust="spacing" textLength="90.2822" x="799.5" y="1104.5918">suppliedCargo</text><text fill="#000000" font-family="sans-serif" font-size="14" lengthAdjust="spacing" textLength="104.2959" x="799.5" y="1123.2129">demandedCargo</text></g><!--class HouseBlock--><g id="elem_HouseBlock"><rect codeLine="39" fill="#ADD8E6" height="55.2422" id="HouseBlock" rx="2.5" ry="2.5" style="stroke:#0000FF;stroke-width:0.5;" width="138.8408" x="635" y="1265.6211"/><text fill="#000000" font-family="sans-serif" font-size="14" lengthAdjust="spacing" textLength="74.7031" x="667.0688" y="1285.7285">HouseBlock</text><line style="stroke:#0000FF;stroke-width:0.5;" x1="636" x2="772.8408" y1="1294.2422" y2="1294.2422"/><text fill="#000000" font-family="sans-serif" font-size="14" lengthAdjust="spacing" textLength="126.8408" x="641" y="1313.3496">automaticPlacement</text></g><!--class Industry--><g id="elem_Industry"><rect codeLine="44" fill="#ADD8E6" height="166.9688" id="Industry" rx="2.5" ry="2.5" style="stroke:#0000FF;stroke-width:0.5;" width="116.2959" x="254.5" y="991.6211"/><text fill="#000000" font-family="sans-serif" font-size="14" lengthAdjust="spacing" textLength="49.7998" x="287.748" y="1011.7285">Industry</text><line style="stroke:#0000FF;stroke-width:0.5;" x1="255.5" x2="369.7959" y1="1020.2422" y2="1020.2422"/><text fill="#000000" font-family="sans-serif" font-size="14" lengthAdjust="spacing" textLength="49.0205" x="260.5" y="1039.3496">nameID</text><text fill="#000000" font-family="sans-serif" font-size="14" lengthAdjust="spacing" textLength="26.4619" x="260.5" y="1057.9707">type</text><text fill="#000000" font-family="sans-serif" font-size="14" lengthAdjust="spacing" textLength="67.7031" x="260.5" y="1076.5918">description</text><text fill="#000000" font-family="sans-serif" font-size="14" lengthAdjust="spacing" textLength="94.1582" x="260.5" y="1095.2129">availabilityYear</text><text fill="#000000" font-family="sans-serif" font-size="14" lengthAdjust="spacing" textLength="94.9512" x="260.5" y="1113.834">productionRate</text><text fill="#000000" font-family="sans-serif" font-size="14" lengthAdjust="spacing" textLength="90.2822" x="260.5" y="1132.4551">suppliedCargo</text><text fill="#000000" font-family="sans-serif" font-size="14" lengthAdjust="spacing" textLength="104.2959" x="260.5" y="1151.0762">demandedCargo</text></g><!--class IndustrySector--><g id="elem_IndustrySector"><rect codeLine="54" fill="#ADD8E6" height="111.1055" id="IndustrySector" rx="2.5" ry="2.5" style="stroke:#0000FF;stroke-width:0.5;" width="113.9375" x="295.5" y="792.1211"/><text fill="#000000" font-family="sans-serif" font-size="14" lengthAdjust="spacing" textLength="90.2617" x="307.3379" y="812.2285">IndustrySector</text><line style="stroke:#0000FF;stroke-width:0.5;" x1="296.5" x2="408.4375" y1="820.7422" y2="820.7422"/><text fill="#000000" font-family="sans-serif" font-size="14" lengthAdjust="spacing" textLength="35.0205" x="301.5" y="839.8496">name</text><text fill="#000000" font-family="sans-serif" font-size="14" lengthAdjust="spacing" textLength="93.3584" x="301.5" y="858.4707">importsExports</text><text fill="#000000" font-family="sans-serif" font-size="14" lengthAdjust="spacing" textLength="100.3994" x="301.5" y="877.0918">generatesCargo</text><text fill="#000000" font-family="sans-serif" font-size="14" lengthAdjust="spacing" textLength="101.9375" x="301.5" y="895.7129">consumesCargo</text></g><!--class Station--><g id="elem_Station"><rect codeLine="61" fill="#ADD8E6" height="129.7266" id="Station" rx="2.5" ry="2.5" style="stroke:#0000FF;stroke-width:0.5;" width="113.165" x="534" y="782.6211"/><text fill="#000000" font-family="sans-serif" font-size="14" lengthAdjust="spacing" textLength="43.5859" x="568.7896" y="802.7285">Station</text><line style="stroke:#0000FF;stroke-width:0.5;" x1="535" x2="646.165" y1="811.2422" y2="811.2422"/><text fill="#000000" font-family="sans-serif" font-size="14" lengthAdjust="spacing" textLength="49.0205" x="540" y="830.3496">nameID</text><text fill="#000000" font-family="sans-serif" font-size="14" lengthAdjust="spacing" textLength="101.165" x="540" y="848.9707">storageCapacity</text><text fill="#000000" font-family="sans-serif" font-size="14" lengthAdjust="spacing" textLength="79.3857" x="540" y="867.5918">buildingSlots</text><text fill="#000000" font-family="sans-serif" font-size="14" lengthAdjust="spacing" textLength="93.3926" x="540" y="886.2129">availableCargo</text><text fill="#000000" font-family="sans-serif" font-size="14" lengthAdjust="spacing" textLength="100.3994" x="540" y="904.834">requestedCargo</text></g><!--class StationType--><g id="elem_StationType"><rect codeLine="69" fill="#ADD8E6" height="111.1055" id="StationType" rx="2.5" ry="2.5" style="stroke:#0000FF;stroke-width:0.5;" width="115.4961" x="533" y="1019.6211"/><text fill="#000000" font-family="sans-serif" font-size="14" lengthAdjust="spacing" textLength="74.71" x="553.3931" y="1039.7285">StationType</text><line style="stroke:#0000FF;stroke-width:0.5;" x1="534" x2="647.4961" y1="1048.2422" y2="1048.2422"/><text fill="#000000" font-family="sans-serif" font-size="14" lengthAdjust="spacing" textLength="35.0205" x="539" y="1067.3496">name</text><text fill="#000000" font-family="sans-serif" font-size="14" lengthAdjust="spacing" textLength="103.4961" x="539" y="1085.9707">economicRadius</text><text fill="#000000" font-family="sans-serif" font-size="14" lengthAdjust="spacing" textLength="25.6758" x="539" y="1104.5918">cost</text><text fill="#000000" font-family="sans-serif" font-size="14" lengthAdjust="spacing" textLength="70.8203" x="539" y="1123.2129">centerPoint</text></g><!--class RailwayLine--><g id="elem_RailwayLine"><rect codeLine="76" fill="#ADD8E6" height="92.4844" id="RailwayLine" rx="2.5" ry="2.5" style="stroke:#0000FF;stroke-width:0.5;" width="81.4824" x="644" y="611.6211"/><text fill="#000000" font-family="sans-serif" font-size="14" lengthAdjust="spacing" textLength="75.4824" x="647" y="631.7285">RailwayLine</text><line style="stroke:#0000FF;stroke-width:0.5;" x1="645" x2="724.4824" y1="640.2422" y2="640.2422"/><text fill="#000000" font-family="sans-serif" font-size="14" lengthAdjust="spacing" textLength="38.1445" x="650" y="659.3496">length</text><text fill="#000000" font-family="sans-serif" font-size="14" lengthAdjust="spacing" textLength="61.4619" x="650" y="677.9707">trackType</text><text fill="#000000" font-family="sans-serif" font-size="14" lengthAdjust="spacing" textLength="25.6758" x="650" y="696.5918">cost</text></g><!--class Locomotive--><g id="elem_Locomotive"><rect codeLine="82" fill="#ADD8E6" height="241.4531" id="Locomotive" rx="2.5" ry="2.5" style="stroke:#0000FF;stroke-width:0.5;" width="124.0615" x="406.5" y="255.6211"/><text fill="#000000" font-family="sans-serif" font-size="14" lengthAdjust="spacing" textLength="71.5928" x="432.7344" y="275.7285">Locomotive</text><line style="stroke:#0000FF;stroke-width:0.5;" x1="407.5" x2="529.5615" y1="284.2422" y2="284.2422"/><text fill="#000000" font-family="sans-serif" font-size="14" lengthAdjust="spacing" textLength="49.0205" x="412.5" y="303.3496">nameID</text><text fill="#000000" font-family="sans-serif" font-size="14" lengthAdjust="spacing" textLength="38.1309" x="412.5" y="321.9707">owner</text><text fill="#000000" font-family="sans-serif" font-size="14" lengthAdjust="spacing" textLength="26.4619" x="412.5" y="340.5918">type</text><text fill="#000000" font-family="sans-serif" font-size="14" lengthAdjust="spacing" textLength="38.1309" x="412.5" y="359.2129">power</text><text fill="#000000" font-family="sans-serif" font-size="14" lengthAdjust="spacing" textLength="75.4893" x="412.5" y="377.834">acceleration</text><text fill="#000000" font-family="sans-serif" font-size="14" lengthAdjust="spacing" textLength="59.9443" x="412.5" y="396.4551">topSpeed</text><text fill="#000000" font-family="sans-serif" font-size="14" lengthAdjust="spacing" textLength="56.7998" x="412.5" y="415.0762">startYear</text><text fill="#000000" font-family="sans-serif" font-size="14" lengthAdjust="spacing" textLength="51.3584" x="412.5" y="433.6973">fuelCost</text><text fill="#000000" font-family="sans-serif" font-size="14" lengthAdjust="spacing" textLength="94.1582" x="412.5" y="452.3184">availabilityYear</text><text fill="#000000" font-family="sans-serif" font-size="14" lengthAdjust="spacing" textLength="98.0479" x="412.5" y="470.9395">acquisitionPrice</text><text fill="#000000" font-family="sans-serif" font-size="14" lengthAdjust="spacing" textLength="112.0615" x="412.5" y="489.5605">maintenancePrice</text></g><!--class Route--><g id="elem_Route"><rect codeLine="95" fill="#ADD8E6" height="92.4844" id="Route" rx="2.5" ry="2.5" style="stroke:#0000FF;stroke-width:0.5;" width="116.3027" x="249.5" y="330.1211"/><text fill="#000000" font-family="sans-serif" font-size="14" lengthAdjust="spacing" textLength="37.3584" x="288.9722" y="350.2285">Route</text><line style="stroke:#0000FF;stroke-width:0.5;" x1="250.5" x2="364.8027" y1="358.7422" y2="358.7422"/><text fill="#000000" font-family="sans-serif" font-size="14" lengthAdjust="spacing" textLength="49.0205" x="255.5" y="377.8496">nameID</text><text fill="#000000" font-family="sans-serif" font-size="14" lengthAdjust="spacing" textLength="104.3027" x="255.5" y="396.4707">stationSequence</text><text fill="#000000" font-family="sans-serif" font-size="14" lengthAdjust="spacing" textLength="56.8066" x="255.5" y="415.0918">cargoList</text></g><!--class Carriage--><g id="elem_Carriage"><rect codeLine="101" fill="#ADD8E6" height="55.2422" id="Carriage" rx="2.5" ry="2.5" style="stroke:#0000FF;stroke-width:0.5;" width="113.165" x="7" y="526.6211"/><text fill="#000000" font-family="sans-serif" font-size="14" lengthAdjust="spacing" textLength="53.6895" x="36.7378" y="546.7285">Carriage</text><line style="stroke:#0000FF;stroke-width:0.5;" x1="8" x2="119.165" y1="555.2422" y2="555.2422"/><text fill="#000000" font-family="sans-serif" font-size="14" lengthAdjust="spacing" textLength="101.165" x="13" y="574.3496">storageCapacity</text></g><!--class Cargo--><g id="elem_Cargo"><rect codeLine="105" fill="#ADD8E6" height="111.1055" id="Cargo" rx="2.5" ry="2.5" style="stroke:#0000FF;stroke-width:0.5;" width="60.2549" x="222.5" y="1237.6211"/><text fill="#000000" font-family="sans-serif" font-size="14" lengthAdjust="spacing" textLength="38.1309" x="233.562" y="1257.7285">Cargo</text><line style="stroke:#0000FF;stroke-width:0.5;" x1="223.5" x2="281.7549" y1="1266.2422" y2="1266.2422"/><text fill="#000000" font-family="sans-serif" font-size="14" lengthAdjust="spacing" textLength="35.0205" x="228.5" y="1285.3496">name</text><text fill="#000000" font-family="sans-serif" font-size="14" lengthAdjust="spacing" textLength="46.6963" x="228.5" y="1303.9707">amount</text><text fill="#000000" font-family="sans-serif" font-size="14" lengthAdjust="spacing" textLength="48.2549" x="228.5" y="1322.5918">lifespan</text><text fill="#000000" font-family="sans-serif" font-size="14" lengthAdjust="spacing" textLength="26.4619" x="228.5" y="1341.2129">type</text></g><!--class Train--><g id="elem_Train"><rect codeLine="112" fill="#ADD8E6" height="55.2422" id="Train" rx="2.5" ry="2.5" style="stroke:#0000FF;stroke-width:0.5;" width="61.0205" x="156" y="84.1211"/><text fill="#000000" font-family="sans-serif" font-size="14" lengthAdjust="spacing" textLength="31.8965" x="170.562" y="104.2285">Train</text><line style="stroke:#0000FF;stroke-width:0.5;" x1="157" x2="216.0205" y1="112.7422" y2="112.7422"/><text fill="#000000" font-family="sans-serif" font-size="14" lengthAdjust="spacing" textLength="49.0205" x="162" y="131.8496">nameID</text></g><!--link Player to Station--><g id="link_Player_Station"><path codeLine="116" d="M565.72,176.7711 C566.79,186.7511 567.77,196.9511 568.5,206.6211 C572.75,262.8111 584.07,631.4411 588.59,782.3611 " fill="none" id="Player-Station" style="stroke:#181818;stroke-width:1.0;"/><polygon fill="#000000" points="587.6887,559.263,590.2842,550.1135,584.4105,550.3353,587.6887,559.263" style="stroke:#000000;stroke-width:1.0;"/><text fill="#000000" font-family="sans-serif" font-size="13" lengthAdjust="spacing" textLength="33.9663" x="596.5" y="559.6494">builds</text><text fill="#000000" font-family="sans-serif" font-size="13" lengthAdjust="spacing" textLength="7.23" x="559.2265" y="198.4237">1</text><text fill="#000000" font-family="sans-serif" font-size="13" lengthAdjust="spacing" textLength="5.0591" x="583.1019" y="771.3528">*</text></g><!--link Player to RailwayLine--><g id="link_Player_RailwayLine"><path codeLine="117" d="M599.9,176.6911 C605.78,186.5411 611.5,196.7311 616.5,206.6211 C685.42,343.0511 714,376.4511 742.5,526.6211 C747.06,550.6411 750.4,558.4911 742.5,581.6211 C738.62,592.9911 732.23,603.9811 725.09,613.8711 " fill="none" id="Player-RailwayLine" style="stroke:#181818;stroke-width:1.0;"/><polygon fill="#000000" points="741.8765,381.0734,742.2118,371.5688,736.561,373.1869,741.8765,381.0734" style="stroke:#000000;stroke-width:1.0;"/><text fill="#000000" font-family="sans-serif" font-size="13" lengthAdjust="spacing" textLength="33.9663" x="749.5" y="381.6494">builds</text><text fill="#000000" font-family="sans-serif" font-size="13" lengthAdjust="spacing" textLength="7.23" x="596.9313" y="198.3354">1</text><text fill="#000000" font-family="sans-serif" font-size="13" lengthAdjust="spacing" textLength="5.0591" x="733.5317" y="600.5937">*</text></g><!--link Player to Locomotive--><g id="link_Player_Locomotive"><path codeLine="118" d="M533.19,176.6911 C529.53,186.6811 525.86,196.9111 522.5,206.6211 C517.07,222.3011 511.53,238.8611 506.17,255.2311 " fill="none" id="Player-Locomotive" style="stroke:#181818;stroke-width:1.0;"/><polygon fill="#000000" points="525.8734,220.9946,531.595,213.3976,526.0369,211.4855,525.8734,220.9946" style="stroke:#000000;stroke-width:1.0;"/><text fill="#000000" font-family="sans-serif" font-size="13" lengthAdjust="spacing" textLength="27.46" x="536.5" y="221.6494">buys</text><text fill="#000000" font-family="sans-serif" font-size="13" lengthAdjust="spacing" textLength="7.23" x="523.3418" y="198.3354">1</text><text fill="#000000" font-family="sans-serif" font-size="13" lengthAdjust="spacing" textLength="5.0591" x="503.3131" y="244.3698">*</text></g><!--link Player to Route--><g id="link_Player_Route"><path codeLine="119" d="M491.23,116.9311 C431.32,124.7611 346.29,146.5111 304.5,206.6211 C279.7,242.2911 284.68,293.2811 293.24,329.8111 " fill="none" id="Player-Route" style="stroke:#181818;stroke-width:1.0;"/><polygon fill="#000000" points="306.0948,219.9279,314.4069,215.3061,310.1028,211.3031,306.0948,219.9279" style="stroke:#000000;stroke-width:1.0;"/><text fill="#000000" font-family="sans-serif" font-size="13" lengthAdjust="spacing" textLength="41.9199" x="318.5" y="221.6494">defines</text><text fill="#000000" font-family="sans-serif" font-size="13" lengthAdjust="spacing" textLength="7.23" x="476.1849" y="113.6232">1</text><text fill="#000000" font-family="sans-serif" font-size="13" lengthAdjust="spacing" textLength="5.0591" x="285.7605" y="318.775">*</text></g><!--link Route to Station--><g id="link_Route_Station"><path codeLine="121" d="M334.12,422.1211 C371.49,485.2011 441.74,603.4111 502.5,703.6211 C518.14,729.4211 535.52,757.7311 550.67,782.3111 " fill="none" id="Route-Station" style="stroke:#181818;stroke-width:1.0;"/><polygon fill="#000000" points="510.0763,662.0518,507.9345,652.7855,502.897,655.8141,510.0763,662.0518" style="stroke:#000000;stroke-width:1.0;"/><text fill="#000000" font-family="sans-serif" font-size="13" lengthAdjust="spacing" textLength="47.6963" x="516.5" y="663.1494">includes</text><text fill="#000000" font-family="sans-serif" font-size="13" lengthAdjust="spacing" textLength="7.23" x="330.6547" y="444.4799">1</text><text fill="#000000" font-family="sans-serif" font-size="13" lengthAdjust="spacing" textLength="5.0591" x="541.0344" y="771.2973">*</text></g><!--link Route to Cargo--><g id="link_Route_Cargo"><path codeLine="122" d="M276.08,422.2511 C242.03,475.6511 192.5,568.4711 192.5,656.6211 C192.5,656.6211 192.5,656.6211 192.5,1076.1211 C192.5,1132.5511 211.75,1194.3511 228.44,1237.3411 " fill="none" id="Route-Cargo" style="stroke:#181818;stroke-width:1.0;"/><polygon fill="#000000" points="197.2083,852.7581,200.6699,843.8999,194.8021,843.5569,197.2083,852.7581" style="stroke:#000000;stroke-width:1.0;"/><text fill="#000000" font-family="sans-serif" font-size="13" lengthAdjust="spacing" textLength="53.479" x="206.5" y="853.1494">manages</text><text fill="#000000" font-family="sans-serif" font-size="13" lengthAdjust="spacing" textLength="5.0591" x="265.8673" y="444.6298">*</text><text fill="#000000" font-family="sans-serif" font-size="13" lengthAdjust="spacing" textLength="5.0591" x="220.1911" y="1226.5466">*</text></g><!--link Train to Locomotive--><g id="link_Train_Locomotive"><path codeLine="124" d="M217.24,123.0811 C255.33,137.2511 320.59,165.5711 364.5,206.6211 C379.94,221.0611 393.97,238.2911 406.36,256.1311 " fill="none" id="Train-Locomotive" style="stroke:#181818;stroke-width:1.0;"/><polygon fill="#000000" points="388.5894,219.1436,382.8827,211.5354,379.5006,216.3428,388.5894,219.1436" style="stroke:#000000;stroke-width:1.0;"/><text fill="#000000" font-family="sans-serif" font-size="13" lengthAdjust="spacing" textLength="67.209" x="393.5" y="221.6494">powered by</text><text fill="#000000" font-family="sans-serif" font-size="13" lengthAdjust="spacing" textLength="7.23" x="225.1822" y="120.7996">1</text><text fill="#000000" font-family="sans-serif" font-size="13" lengthAdjust="spacing" textLength="7.23" x="394.9555" y="244.521">1</text></g><!--link Train to Route--><g id="link_Train_Route"><path codeLine="125" d="M180.41,139.5211 C176.33,162.9811 173.38,197.5611 183.5,225.6211 C197.98,265.7511 228.42,302.7211 255.52,329.8611 " fill="none" id="Train-Route" style="stroke:#181818;stroke-width:1.0;"/><polygon fill="#000000" points="190.3353,220.9176,189.749,211.4251,184.2814,213.5827,190.3353,220.9176" style="stroke:#000000;stroke-width:1.0;"/><text fill="#000000" font-family="sans-serif" font-size="13" lengthAdjust="spacing" textLength="66.4917" x="197.5" y="221.6494">assigned to</text><text fill="#000000" font-family="sans-serif" font-size="13" lengthAdjust="spacing" textLength="7.23" x="171.3351" y="161.5173">1</text><text fill="#000000" font-family="sans-serif" font-size="13" lengthAdjust="spacing" textLength="5.0591" x="242.5004" y="318.8323">*</text></g><!--link Train to Carriage--><g id="link_Train_Carriage"><path codeLine="126" d="M155.86,130.6811 C131.23,147.0611 98.23,173.6711 82.5,206.6211 C30.6,315.3611 48.2,465.6811 58.38,526.2411 " fill="none" id="Train-Carriage" style="stroke:#181818;stroke-width:1.0;"/><polygon fill="#000000" points="86.3036,221.1214,91.3214,213.0422,85.6143,211.6358,86.3036,221.1214" style="stroke:#000000;stroke-width:1.0;"/><text fill="#000000" font-family="sans-serif" font-size="13" lengthAdjust="spacing" textLength="74.4326" x="96.5" y="221.6494">composed of</text><text fill="#000000" font-family="sans-serif" font-size="13" lengthAdjust="spacing" textLength="7.23" x="140.5639" y="130.2894">1</text><text fill="#000000" font-family="sans-serif" font-size="13" lengthAdjust="spacing" textLength="5.0591" x="51.7015" y="515.3166">*</text></g><!--link RailwayLine to Station--><g id="link_RailwayLine_Station"><path codeLine="128" d="M661.98,703.6511 C650.2,727.2211 635.56,756.5011 622.61,782.4011 " fill="none" id="RailwayLine-Station" style="stroke:#181818;stroke-width:1.0;"/><polygon fill="#000000" points="649.2642,747.7389,655.9376,740.9627,650.6801,738.3343,649.2642,747.7389" style="stroke:#000000;stroke-width:1.0;"/><text fill="#000000" font-family="sans-serif" font-size="13" lengthAdjust="spacing" textLength="52.0317" x="660.5" y="748.6494">connects</text><text fill="#000000" font-family="sans-serif" font-size="13" lengthAdjust="spacing" textLength="7.23" x="650.9764" y="726.0145">1</text><text fill="#000000" font-family="sans-serif" font-size="13" lengthAdjust="spacing" textLength="7.23" x="618.7428" y="771.3972">2</text></g><!--link Station to Cargo--><g id="link_Station_Cargo"><path codeLine="130" d="M533.76,903.5511 C510.21,928.6911 484.1,959.9011 465.5,991.6211 C413.94,1079.5411 452.48,1128.2811 388.5,1207.6211 C360.23,1242.6711 313.28,1267.2011 282.61,1280.4911 " fill="none" id="Station-Cargo" style="stroke:#181818;stroke-width:1.0;"/><polygon fill="#000000" points="467.7276,1079.4276,475.1887,1073.5299,470.2972,1070.2707,467.7276,1079.4276" style="stroke:#000000;stroke-width:1.0;"/><text fill="#000000" font-family="sans-serif" font-size="13" lengthAdjust="spacing" textLength="35.4009" x="479.5" y="1080.6494">stores</text><text fill="#000000" font-family="sans-serif" font-size="13" lengthAdjust="spacing" textLength="7.23" x="518.6696" y="906.9907">1</text><text fill="#000000" font-family="sans-serif" font-size="13" lengthAdjust="spacing" textLength="5.0591" x="290.9412" y="1293.4849">*</text></g><!--link Station to City--><g id="link_Station_City"><path codeLine="131" d="M647.1,888.5211 C684.78,916.0011 734.66,954.1711 775.5,991.6211 C784.97,1000.3111 794.61,1010.0011 803.7,1019.6011 " fill="none" id="Station-City" style="stroke:#181818;stroke-width:1.0;"/><polygon fill="#000000" points="745.3341,955.4759,740.2845,947.4166,736.5118,951.9239,745.3341,955.4759" style="stroke:#000000;stroke-width:1.0;"/><text fill="#000000" font-family="sans-serif" font-size="13" lengthAdjust="spacing" textLength="38.2891" x="750.5" y="957.6494">serves</text><text fill="#000000" font-family="sans-serif" font-size="13" lengthAdjust="spacing" textLength="7.23" x="655.1803" y="889.9411">1</text><text fill="#000000" font-family="sans-serif" font-size="13" lengthAdjust="spacing" textLength="5.0591" x="792.2401" y="1008.4387">*</text></g><!--link Station to Industry--><g id="link_Station_Industry"><path codeLine="132" d="M533.98,865.0611 C490.78,879.8511 431.82,905.0911 390.5,942.6211 C375.37,956.3611 362.29,973.7311 351.38,991.3111 " fill="none" id="Station-Industry" style="stroke:#181818;stroke-width:1.0;"/><polygon fill="#000000" points="391.3873,955.1101,400.4986,952.3835,397.1559,947.5487,391.3873,955.1101" style="stroke:#000000;stroke-width:1.0;"/><text fill="#000000" font-family="sans-serif" font-size="13" lengthAdjust="spacing" textLength="38.2891" x="404.5" y="957.6494">serves</text><text fill="#000000" font-family="sans-serif" font-size="13" lengthAdjust="spacing" textLength="7.23" x="518.9192" y="863.3287">1</text><text fill="#000000" font-family="sans-serif" font-size="13" lengthAdjust="spacing" textLength="5.0591" x="349.4962" y="980.4204">*</text></g><!--link Carriage to Cargo--><g id="link_Carriage_Cargo"><path codeLine="134" d="M63.96,581.7511 C64.55,618.0211 65.5,684.9811 65.5,742.1211 C65.5,742.1211 65.5,742.1211 65.5,1076.1211 C65.5,1170.8611 169.59,1244.4711 222.46,1275.7411 " fill="none" id="Carriage-Cargo" style="stroke:#181818;stroke-width:1.0;"/><polygon fill="#000000" points="71.6133,852.6411,72.4645,843.1687,66.7342,844.4774,71.6133,852.6411" style="stroke:#000000;stroke-width:1.0;"/><text fill="#000000" font-family="sans-serif" font-size="13" lengthAdjust="spacing" textLength="39.0063" x="79.5" y="853.1494">carries</text><text fill="#000000" font-family="sans-serif" font-size="13" lengthAdjust="spacing" textLength="5.0591" x="58.5022" y="603.6882">*</text><text fill="#000000" font-family="sans-serif" font-size="13" lengthAdjust="spacing" textLength="7.23" x="207.2816" y="1266.4838">1</text></g><!--link Route to RailwayLine--><g id="link_Route_RailwayLine"><path codeLine="135" d="M326.37,422.2611 C339.75,448.4111 360.35,479.4811 388.5,496.6211 C484.45,555.0611 552.02,456.1311 639.5,526.6211 C664.89,547.0711 675.99,582.6811 680.83,611.4611 " fill="none" id="Route-RailwayLine" style="stroke:#181818;stroke-width:1.0;"/><polygon fill="#000000" points="682.911,556.621,676.3154,549.7691,673.5475,554.9545,682.911,556.621" style="stroke:#000000;stroke-width:1.0;"/><text fill="#000000" font-family="sans-serif" font-size="13" lengthAdjust="spacing" textLength="48.4199" x="687.5" y="559.6494">contains</text><text fill="#000000" font-family="sans-serif" font-size="13" lengthAdjust="spacing" textLength="19.5127" x="308.8209" y="444.6414">1..*</text><text fill="#000000" font-family="sans-serif" font-size="13" lengthAdjust="spacing" textLength="19.5127" x="659.8979" y="600.447">1..*</text></g><!--link City to Cargo--><g id="link_City_Cargo"><path codeLine="137" d="M810.47,1131.0211 C800.15,1141.6411 788.32,1151.6211 775.5,1158.6211 C707.79,1195.6111 680.31,1174.2711 604.5,1188.6211 C497.11,1208.9511 466.96,1202.3611 363.5,1237.6211 C335.05,1247.3211 304.52,1262.7111 282.69,1274.6611 " fill="none" id="City-Cargo" style="stroke:#181818;stroke-width:1.0;"/><polygon fill="#000000" points="604.6755,1199.5796,614.1749,1200.0401,612.6313,1194.3686,604.6755,1199.5796" style="stroke:#000000;stroke-width:1.0;"/><text fill="#000000" font-family="sans-serif" font-size="13" lengthAdjust="spacing" textLength="116.3398" x="618.5" y="1203.6494">produces/consumes</text><text fill="#000000" font-family="sans-serif" font-size="13" lengthAdjust="spacing" textLength="5.0591" x="800.1504" y="1152.9095">*</text><text fill="#000000" font-family="sans-serif" font-size="13" lengthAdjust="spacing" textLength="5.0591" x="290.6343" y="1265.1405">*</text></g><!--link City to Position--><g id="link_City_Position"><path codeLine="139" d="M845.7,1130.8411 C837.34,1209.7611 822.06,1354.0911 814.29,1427.3611 " fill="none" id="City-Position" style="stroke:#181818;stroke-width:1.0;"/><polygon fill="#000000" points="837.9733,1298.2388,841.8487,1289.5536,836.0035,1288.9344,837.9733,1298.2388" style="stroke:#000000;stroke-width:1.0;"/><text fill="#000000" font-family="sans-serif" font-size="13" lengthAdjust="spacing" textLength="56.3735" x="847.5" y="1298.6494">located at</text><text fill="#000000" font-family="sans-serif" font-size="13" lengthAdjust="spacing" textLength="7.23" x="837.5625" y="1152.7075">1</text><text fill="#000000" font-family="sans-serif" font-size="13" lengthAdjust="spacing" textLength="7.23" x="807.4933" y="1416.3323">1</text></g><!--link Industry to Position--><g id="link_Industry_Position"><path codeLine="140" d="M368.93,1158.8111 C412.22,1217.5411 476.31,1295.1611 546.5,1348.6211 C619.99,1404.5911 722.81,1443.9111 775.47,1461.7811 " fill="none" id="Industry-Position" style="stroke:#181818;stroke-width:1.0;"/><polygon fill="#000000" points="555.5091,1296.2544,550.0127,1288.4929,546.5004,1293.206,555.5091,1296.2544" style="stroke:#000000;stroke-width:1.0;"/><text fill="#000000" font-family="sans-serif" font-size="13" lengthAdjust="spacing" textLength="56.3735" x="560.5" y="1298.6494">located at</text><text fill="#000000" font-family="sans-serif" font-size="13" lengthAdjust="spacing" textLength="7.23" x="366.3105" y="1180.4872">1</text><text fill="#000000" font-family="sans-serif" font-size="13" lengthAdjust="spacing" textLength="7.23" x="760.281" y="1454.3389">1</text></g><!--link Station to Position--><g id="link_Station_Position"><path codeLine="141" d="M647.24,853.9911 C725.74,864.8211 864.88,897.0211 927.5,991.6211 C1015.16,1124.0411 972.28,1201.5011 912.5,1348.6211 C897.54,1385.4411 867.49,1419.5611 843.68,1442.6511 " fill="none" id="Station-Position" style="stroke:#181818;stroke-width:1.0;"/><polygon fill="#000000" points="977.0827,1203.0095,977.0073,1193.4992,971.4317,1195.3598,977.0827,1203.0095" style="stroke:#000000;stroke-width:1.0;"/><text fill="#000000" font-family="sans-serif" font-size="13" lengthAdjust="spacing" textLength="56.3735" x="984.5" y="1203.6494">located at</text><text fill="#000000" font-family="sans-serif" font-size="13" lengthAdjust="spacing" textLength="7.23" x="655.3391" y="850.7711">1</text><text fill="#000000" font-family="sans-serif" font-size="13" lengthAdjust="spacing" textLength="7.23" x="851.471" y="1431.5188">1</text></g><!--link City to HouseBlock--><g id="link_City_HouseBlock"><path codeLine="143" d="M800.02,1130.8911 C784.71,1148.5911 768.56,1168.7811 755.5,1188.6211 C739.31,1213.2211 724.9,1243.6911 715.56,1265.1911 " fill="none" id="City-HouseBlock" style="stroke:#181818;stroke-width:1.0;"/><polygon fill="#000000" points="757.8382,1202.4992,765.1413,1196.407,760.1656,1193.2778,757.8382,1202.4992" style="stroke:#000000;stroke-width:1.0;"/><text fill="#000000" font-family="sans-serif" font-size="13" lengthAdjust="spacing" textLength="48.4199" x="769.5" y="1203.6494">contains</text><text fill="#000000" font-family="sans-serif" font-size="13" lengthAdjust="spacing" textLength="7.23" x="786.3153" y="1152.7636">1</text><text fill="#000000" font-family="sans-serif" font-size="13" lengthAdjust="spacing" textLength="19.5127" x="696.9747" y="1254.2557">1..*</text></g><!--link HouseBlock to Position--><g id="link_HouseBlock_Position"><path codeLine="144" d="M720.22,1320.8411 C736.75,1348.9511 763.07,1393.6811 782.85,1427.3211 " fill="none" id="HouseBlock-Position" style="stroke:#181818;stroke-width:1.0;"/><polygon fill="#000000" points="770.0349,1392.5764,767.9824,1383.2899,762.916,1386.2699,770.0349,1392.5764" style="stroke:#000000;stroke-width:1.0;"/><text fill="#000000" font-family="sans-serif" font-size="13" lengthAdjust="spacing" textLength="20.96" x="776.5" y="1393.6494">has</text><text fill="#000000" font-family="sans-serif" font-size="13" lengthAdjust="spacing" textLength="7.23" x="715.9357" y="1342.7979">1</text><text fill="#000000" font-family="sans-serif" font-size="13" lengthAdjust="spacing" textLength="7.23" x="771.4356" y="1416.2865">1</text></g><!--link Industry to Cargo--><g id="link_Industry_Cargo"><path codeLine="146" d="M260.12,1158.9111 C255.8,1168.6411 252.1,1178.6611 249.5,1188.6211 C245.44,1204.1911 244.58,1221.5211 245.19,1237.4811 " fill="none" id="Industry-Cargo" style="stroke:#181818;stroke-width:1.0;"/><polygon fill="#000000" points="253.5666,1203.1787,258.1424,1194.8413,252.3679,1193.744,253.5666,1203.1787" style="stroke:#000000;stroke-width:1.0;"/><text fill="#000000" font-family="sans-serif" font-size="13" lengthAdjust="spacing" textLength="116.3398" x="263.5" y="1203.6494">produces/consumes</text><text fill="#000000" font-family="sans-serif" font-size="13" lengthAdjust="spacing" textLength="5.0591" x="250.5654" y="1180.5955">*</text><text fill="#000000" font-family="sans-serif" font-size="13" lengthAdjust="spacing" textLength="5.0591" x="238.9206" y="1226.3034">*</text></g><!--link Station to StationType--><g id="link_Station_StationType"><path codeLine="148" d="M590.5,912.6411 C590.5,946.3611 590.5,987.2911 590.5,1019.5011 " fill="none" id="Station-StationType" style="stroke:#181818;stroke-width:1.0;"/><polygon fill="#000000" points="595.5,957.2666,598.4389,948.2215,592.5611,948.2215,595.5,957.2666" style="stroke:#000000;stroke-width:1.0;"/><text fill="#000000" font-family="sans-serif" font-size="13" lengthAdjust="spacing" textLength="59.9917" x="604.5" y="957.6494">defined by</text><text fill="#000000" font-family="sans-serif" font-size="13" lengthAdjust="spacing" textLength="5.0591" x="585.2367" y="934.2803">*</text><text fill="#000000" font-family="sans-serif" font-size="13" lengthAdjust="spacing" textLength="7.23" x="583.0345" y="1008.3259">1</text></g><!--link IndustrySector to Industry--><g id="link_IndustrySector_Industry"><path codeLine="149" d="M306.63,903.3611 C298.76,915.5811 291.76,928.9811 287.5,942.6211 C282.65,958.1511 282.33,975.0211 284.41,991.3311 " fill="none" id="IndustrySector-Industry" style="stroke:#181818;stroke-width:1.0;"/><polygon fill="#000000" points="291.2755,957.1143,296.3401,949.0644,290.6412,947.625,291.2755,957.1143" style="stroke:#000000;stroke-width:1.0;"/><text fill="#000000" font-family="sans-serif" font-size="13" lengthAdjust="spacing" textLength="48.4199" x="301.5" y="957.6494">contains</text><text fill="#000000" font-family="sans-serif" font-size="13" lengthAdjust="spacing" textLength="7.23" x="293.6309" y="925.23">1</text><text fill="#000000" font-family="sans-serif" font-size="13" lengthAdjust="spacing" textLength="5.0591" x="276.771" y="980.4421">*</text></g><!--link StationType to StationType--><g id="link_StationType_StationType"><path codeLine="151" d="M648.31,1052.2411 C667.58,1052.2411 683,1059.8711 683,1075.1211 C683,1090.3711 667.58,1098.0011 648.31,1098.0011 " fill="none" id="StationType-StationType" style="stroke:#181818;stroke-width:1.0;"/><polygon fill="#000000" points="688,1080.2666,690.9389,1071.2215,685.0611,1071.2215,688,1080.2666" style="stroke:#000000;stroke-width:1.0;"/><text fill="#000000" font-family="sans-serif" font-size="13" lengthAdjust="spacing" textLength="67.2217" x="702" y="1080.6494">can change</text><text fill="#000000" font-family="sans-serif" font-size="13" lengthAdjust="spacing" textLength="7.23" x="656.5307" y="1045.0652">1</text><text fill="#000000" font-family="sans-serif" font-size="13" lengthAdjust="spacing" textLength="5.0591" x="656.3848" y="1096.9742">*</text></g><!--SRC=[fLPDJnin4Btlhx1oHA8bFUPG2KAb8gKIOkcXnuazsLXuxSKVXBJYltVitNMS9I3K7X1hx_ERDszcl74FKdTWeMKTy0TeiFPxXSmYzw0RXPNB0BS5ONPIDsm3ofLlk0BdBhstSXqytd2ZQ_aRsSKKmlvKZ5rHdCQQeCNIA6FPIZPRVwK2ndV62hJzVjfwAIXGX_PV6Agj5CYuj9pIISyj-gqHhggyz9JijMb1QlR325JidFsivnTimIwTaurcmBoDRxsXHmhgiQhwP6uLxD4cHS6XrT160Hszsf48UfHQUWdgAeW6FQrvi1QrpskpqoXMXflMUFc4BceTg8sZeqOdycVwsqSuvw6JA0wmfVJx18cnRwvZT6j4uF7e7VWenuMkKtHe2ROnj1ROWXRZEZDzDvJ2bJBy8V51yEI9bvnovDYIw0WTi3TQ1EVj9BBVTvZu7RUoYmeYpnD81MkfIEWl1FiV2iUeDNMciJbsjBdjZFNkstFwHniDQhH4xaPAQaWNsd6TAMiFsUISXoDs6eCbq3oGQjfP1wa4jNsjJA8Vab8uqbjy3EZyAya3_pqvK-f5acDQoUz0oE2IF9VQWsn6UsjaxtRFSKUnTh1VITrpADIDtqQ_BKt1VMzw8iX73Xrrd5biDtkeL6TsQGcSeuf-zINpfgixH96i0Ek7icq2gcMlyqHHWJy6sRVihPKyqiUHygX1S-otNiQCuWnDFK_Hw-YZJgTvT78boxJ8N2kfCkdej4ebgZ6bsz3IHH5bAxb1ru4U7SX7xjDy5uBepJ3Ri_cCdP-psTaiDykYxmV7lfu0bTLw5rZKAEBsRz15gnOq4HiYZ92gD- -aBAcv2YB11jHPHlMkBAWecbnBJ7tM8zDy8Yar1mgstXFs63hg8XIaAv9WT3cUWEMABQX3QKWT8SqcfL7uD1xuKYP38w9fq9FISVUOEUKJso2bSmeJBqU2e7rw2v9liW9MPTMZV_D3F1xVbHRFFtqwcoLGV2ZhdtBmv4XF6iMSA4X_6wBxF5vH1_2XClbhi61qGzF59XXu0cRv7y1Eity7EecV4Yk-3qU95VkdcRUGKZf8_Q07MU-X2ELrEWx5qA6JZyFf4fVrABbUJzCGWeDcV4i_Wv2E_0K0]--></g></svg>