<svg xmlns="http://www.w3.org/2000/svg" xmlns:xlink="http://www.w3.org/1999/xlink" contentStyleType="text/css" height="1392px" preserveAspectRatio="none" style="width:935px;height:1392px;background:#FFFFFF;" version="1.1" viewBox="0 0 935 1392" width="935px" zoomAndPan="magnify"><title>Domain Model - US10 : Assign a train to a route</title><defs/><g><text fill="#000000" font-family="sans-serif" font-size="14" font-weight="bold" lengthAdjust="spacing" textLength="315.8203" x="302.6566" y="25.1074">Domain Model - US10 : Assign a train to a route</text><!--class Player--><g id="elem_Player"><rect codeLine="18" fill="#ADD8E6" height="92.4844" id="Player" rx="2.5" ry="2.5" style="stroke:#0000FF;stroke-width:0.5;" width="74.2549" x="495.76" y="46.6211"/><text fill="#000000" font-family="sans-serif" font-size="14" lengthAdjust="spacing" textLength="39.6826" x="513.0461" y="66.7285">Player</text><line style="stroke:#0000FF;stroke-width:0.5;" x1="496.76" x2="569.0149" y1="75.2422" y2="75.2422"/><text fill="#000000" font-family="sans-serif" font-size="14" lengthAdjust="spacing" textLength="62.2549" x="501.76" y="94.3496">username</text><text fill="#000000" font-family="sans-serif" font-size="14" lengthAdjust="spacing" textLength="59.917" x="501.76" y="112.9707">password</text><text fill="#000000" font-family="sans-serif" font-size="14" lengthAdjust="spacing" textLength="42.8203" x="501.76" y="131.5918">budget</text></g><!--class Position--><g id="elem_Position"><rect codeLine="24" fill="#ADD8E6" height="92.4844" id="Position" rx="2.5" ry="2.5" style="stroke:#0000FF;stroke-width:0.5;" width="68.041" x="785.76" y="1284.1211"/><text fill="#000000" font-family="sans-serif" font-size="14" lengthAdjust="spacing" textLength="49.8066" x="794.8772" y="1304.2285">Position</text><line style="stroke:#0000FF;stroke-width:0.5;" x1="786.76" x2="852.801" y1="1312.7422" y2="1312.7422"/><text fill="#000000" font-family="sans-serif" font-size="14" lengthAdjust="spacing" textLength="7" x="791.76" y="1331.8496">x</text><text fill="#000000" font-family="sans-serif" font-size="14" lengthAdjust="spacing" textLength="7" x="791.76" y="1350.4707">y</text><text fill="#000000" font-family="sans-serif" font-size="14" lengthAdjust="spacing" textLength="56.041" x="791.76" y="1369.0918">occupied</text></g><!--class City--><g id="elem_City"><rect codeLine="30" fill="#ADD8E6" height="129.7266" id="City" rx="2.5" ry="2.5" style="stroke:#0000FF;stroke-width:0.5;" width="116.2959" x="579.76" y="1037.6211"/><text fill="#000000" font-family="sans-serif" font-size="14" lengthAdjust="spacing" textLength="24.1104" x="625.8528" y="1057.7285">City</text><line style="stroke:#0000FF;stroke-width:0.5;" x1="580.76" x2="695.0559" y1="1066.2422" y2="1066.2422"/><text fill="#000000" font-family="sans-serif" font-size="14" lengthAdjust="spacing" textLength="49.0205" x="585.76" y="1085.3496">nameID</text><text fill="#000000" font-family="sans-serif" font-size="14" lengthAdjust="spacing" textLength="79.3789" x="585.76" y="1103.9707">houseBlocks</text><text fill="#000000" font-family="sans-serif" font-size="14" lengthAdjust="spacing" textLength="94.9512" x="585.76" y="1122.5918">productionRate</text><text fill="#000000" font-family="sans-serif" font-size="14" lengthAdjust="spacing" textLength="90.2822" x="585.76" y="1141.2129">suppliedCargo</text><text fill="#000000" font-family="sans-serif" font-size="14" lengthAdjust="spacing" textLength="104.2959" x="585.76" y="1159.834">demandedCargo</text></g><!--class Industry--><g id="elem_Industry"><rect codeLine="38" fill="#ADD8E6" height="185.5898" id="Industry" rx="2.5" ry="2.5" style="stroke:#0000FF;stroke-width:0.5;" width="116.2959" x="428.76" y="1009.6211"/><text fill="#000000" font-family="sans-serif" font-size="14" lengthAdjust="spacing" textLength="49.7998" x="462.008" y="1029.7285">Industry</text><line style="stroke:#0000FF;stroke-width:0.5;" x1="429.76" x2="544.0559" y1="1038.2422" y2="1038.2422"/><text fill="#000000" font-family="sans-serif" font-size="14" lengthAdjust="spacing" textLength="49.0205" x="434.76" y="1057.3496">nameID</text><text fill="#000000" font-family="sans-serif" font-size="14" lengthAdjust="spacing" textLength="38.124" x="434.76" y="1075.9707">sector</text><text fill="#000000" font-family="sans-serif" font-size="14" lengthAdjust="spacing" textLength="26.4619" x="434.76" y="1094.5918">type</text><text fill="#000000" font-family="sans-serif" font-size="14" lengthAdjust="spacing" textLength="67.7031" x="434.76" y="1113.2129">description</text><text fill="#000000" font-family="sans-serif" font-size="14" lengthAdjust="spacing" textLength="94.1582" x="434.76" y="1131.834">availabilityYear</text><text fill="#000000" font-family="sans-serif" font-size="14" lengthAdjust="spacing" textLength="94.9512" x="434.76" y="1150.4551">productionRate</text><text fill="#000000" font-family="sans-serif" font-size="14" lengthAdjust="spacing" textLength="90.2822" x="434.76" y="1169.0762">suppliedCargo</text><text fill="#000000" font-family="sans-serif" font-size="14" lengthAdjust="spacing" textLength="104.2959" x="434.76" y="1187.6973">demandedCargo</text></g><!--class Station--><g id="elem_Station"><rect codeLine="49" fill="#ADD8E6" height="204.2109" id="Station" rx="2.5" ry="2.5" style="stroke:#0000FF;stroke-width:0.5;" width="115.4961" x="505.26" y="726.6211"/><text fill="#000000" font-family="sans-serif" font-size="14" lengthAdjust="spacing" textLength="43.5859" x="541.2151" y="746.7285">Station</text><line style="stroke:#0000FF;stroke-width:0.5;" x1="506.26" x2="619.7561" y1="755.2422" y2="755.2422"/><text fill="#000000" font-family="sans-serif" font-size="14" lengthAdjust="spacing" textLength="49.0205" x="511.26" y="774.3496">nameID</text><text fill="#000000" font-family="sans-serif" font-size="14" lengthAdjust="spacing" textLength="26.4619" x="511.26" y="792.9707">type</text><text fill="#000000" font-family="sans-serif" font-size="14" lengthAdjust="spacing" textLength="103.4961" x="511.26" y="811.5918">economicRadius</text><text fill="#000000" font-family="sans-serif" font-size="14" lengthAdjust="spacing" textLength="25.6758" x="511.26" y="830.2129">cost</text><text fill="#000000" font-family="sans-serif" font-size="14" lengthAdjust="spacing" textLength="101.165" x="511.26" y="848.834">storageCapacity</text><text fill="#000000" font-family="sans-serif" font-size="14" lengthAdjust="spacing" textLength="70.8203" x="511.26" y="867.4551">centerPoint</text><text fill="#000000" font-family="sans-serif" font-size="14" lengthAdjust="spacing" textLength="79.3857" x="511.26" y="886.0762">buildingSlots</text><text fill="#000000" font-family="sans-serif" font-size="14" lengthAdjust="spacing" textLength="93.3926" x="511.26" y="904.6973">availableCargo</text><text fill="#000000" font-family="sans-serif" font-size="14" lengthAdjust="spacing" textLength="100.3994" x="511.26" y="923.3184">requestedCargo</text></g><!--class RailwayLine--><g id="elem_RailwayLine"><rect codeLine="61" fill="#ADD8E6" height="92.4844" id="RailwayLine" rx="2.5" ry="2.5" style="stroke:#0000FF;stroke-width:0.5;" width="81.4824" x="522.26" y="555.6211"/><text fill="#000000" font-family="sans-serif" font-size="14" lengthAdjust="spacing" textLength="75.4824" x="525.26" y="575.7285">RailwayLine</text><line style="stroke:#0000FF;stroke-width:0.5;" x1="523.26" x2="602.7424" y1="584.2422" y2="584.2422"/><text fill="#000000" font-family="sans-serif" font-size="14" lengthAdjust="spacing" textLength="38.1445" x="528.26" y="603.3496">length</text><text fill="#000000" font-family="sans-serif" font-size="14" lengthAdjust="spacing" textLength="61.4619" x="528.26" y="621.9707">trackType</text><text fill="#000000" font-family="sans-serif" font-size="14" lengthAdjust="spacing" textLength="25.6758" x="528.26" y="640.5918">cost</text></g><!--class Locomotive--><g id="elem_Locomotive"><rect codeLine="67" fill="#ADD8E6" height="222.832" id="Locomotive" rx="2.5" ry="2.5" style="stroke:#0000FF;stroke-width:0.5;" width="124.0615" x="371.76" y="217.6211"/><text fill="#000000" font-family="sans-serif" font-size="14" lengthAdjust="spacing" textLength="71.5928" x="397.9944" y="237.7285">Locomotive</text><line style="stroke:#0000FF;stroke-width:0.5;" x1="372.76" x2="494.8215" y1="246.2422" y2="246.2422"/><text fill="#000000" font-family="sans-serif" font-size="14" lengthAdjust="spacing" textLength="49.0205" x="377.76" y="265.3496">nameID</text><text fill="#000000" font-family="sans-serif" font-size="14" lengthAdjust="spacing" textLength="26.4619" x="377.76" y="283.9707">type</text><text fill="#000000" font-family="sans-serif" font-size="14" lengthAdjust="spacing" textLength="38.1309" x="377.76" y="302.5918">power</text><text fill="#000000" font-family="sans-serif" font-size="14" lengthAdjust="spacing" textLength="75.4893" x="377.76" y="321.2129">acceleration</text><text fill="#000000" font-family="sans-serif" font-size="14" lengthAdjust="spacing" textLength="59.9443" x="377.76" y="339.834">topSpeed</text><text fill="#000000" font-family="sans-serif" font-size="14" lengthAdjust="spacing" textLength="56.7998" x="377.76" y="358.4551">startYear</text><text fill="#000000" font-family="sans-serif" font-size="14" lengthAdjust="spacing" textLength="51.3584" x="377.76" y="377.0762">fuelCost</text><text fill="#000000" font-family="sans-serif" font-size="14" lengthAdjust="spacing" textLength="94.1582" x="377.76" y="395.6973">availabilityYear</text><text fill="#000000" font-family="sans-serif" font-size="14" lengthAdjust="spacing" textLength="98.0479" x="377.76" y="414.3184">acquisitionPrice</text><text fill="#000000" font-family="sans-serif" font-size="14" lengthAdjust="spacing" textLength="112.0615" x="377.76" y="432.9395">maintenancePrice</text></g><!--class Route--><g id="elem_Route"><rect codeLine="80" fill="#ADD8E6" height="92.4844" id="Route" rx="2.5" ry="2.5" style="stroke:#0000FF;stroke-width:0.5;" width="116.3027" x="220.76" y="283.1211"/><text fill="#000000" font-family="sans-serif" font-size="14" lengthAdjust="spacing" textLength="37.3584" x="260.2322" y="303.2285">Route</text><line style="stroke:#0000FF;stroke-width:0.5;" x1="221.76" x2="336.0627" y1="311.7422" y2="311.7422"/><text fill="#000000" font-family="sans-serif" font-size="14" lengthAdjust="spacing" textLength="49.0205" x="226.76" y="330.8496">nameID</text><text fill="#000000" font-family="sans-serif" font-size="14" lengthAdjust="spacing" textLength="104.3027" x="226.76" y="349.4707">stationSequence</text><text fill="#000000" font-family="sans-serif" font-size="14" lengthAdjust="spacing" textLength="56.8066" x="226.76" y="368.0918">cargoList</text></g><!--class Carriage--><g id="elem_Carriage"><rect codeLine="86" fill="#ADD8E6" height="55.2422" id="Carriage" rx="2.5" ry="2.5" style="stroke:#0000FF;stroke-width:0.5;" width="113.165" x="17.26" y="470.6211"/><text fill="#000000" font-family="sans-serif" font-size="14" lengthAdjust="spacing" textLength="53.6895" x="46.9978" y="490.7285">Carriage</text><line style="stroke:#0000FF;stroke-width:0.5;" x1="18.26" x2="129.425" y1="499.2422" y2="499.2422"/><text fill="#000000" font-family="sans-serif" font-size="14" lengthAdjust="spacing" textLength="101.165" x="23.26" y="518.3496">storageCapacity</text></g><!--class Cargo--><g id="elem_Cargo"><rect codeLine="90" fill="#ADD8E6" height="111.1055" id="Cargo" rx="2.5" ry="2.5" style="stroke:#0000FF;stroke-width:0.5;" width="60.2549" x="278.76" y="1274.6211"/><text fill="#000000" font-family="sans-serif" font-size="14" lengthAdjust="spacing" textLength="38.1309" x="289.822" y="1294.7285">Cargo</text><line style="stroke:#0000FF;stroke-width:0.5;" x1="279.76" x2="338.0149" y1="1303.2422" y2="1303.2422"/><text fill="#000000" font-family="sans-serif" font-size="14" lengthAdjust="spacing" textLength="35.0205" x="284.76" y="1322.3496">name</text><text fill="#000000" font-family="sans-serif" font-size="14" lengthAdjust="spacing" textLength="46.6963" x="284.76" y="1340.9707">amount</text><text fill="#000000" font-family="sans-serif" font-size="14" lengthAdjust="spacing" textLength="48.2549" x="284.76" y="1359.5918">lifespan</text><text fill="#000000" font-family="sans-serif" font-size="14" lengthAdjust="spacing" textLength="26.4619" x="284.76" y="1378.2129">type</text></g><!--class Train--><g id="elem_Train"><rect codeLine="97" fill="#ADD8E6" height="55.2422" id="Train" rx="2.5" ry="2.5" style="stroke:#0000FF;stroke-width:0.5;" width="61.0205" x="131.26" y="65.1211"/><text fill="#000000" font-family="sans-serif" font-size="14" lengthAdjust="spacing" textLength="31.8965" x="145.822" y="85.2285">Train</text><line style="stroke:#0000FF;stroke-width:0.5;" x1="132.26" x2="191.2805" y1="93.7422" y2="93.7422"/><text fill="#000000" font-family="sans-serif" font-size="14" lengthAdjust="spacing" textLength="49.0205" x="137.26" y="112.8496">nameID</text></g><!--link Player to Station--><g id="link_Player_Station"><path codeLine="101" d="M569.85,137.0811 C586.79,159.5911 605.18,188.4411 614.76,217.6211 C678.59,412.1111 632.65,472.9811 637.76,677.6211 C637.97,686.0611 639.93,688.4611 637.76,696.6211 C633.75,711.6911 627.55,726.8311 620.4,741.2011 " fill="none" id="Player-Station" style="stroke:#181818;stroke-width:1.0;"/><polygon fill="#000000" points="651.1769,503.2492,653.3514,493.9905,647.494,494.4807,651.1769,503.2492" style="stroke:#000000;stroke-width:1.0;"/><text fill="#000000" font-family="sans-serif" font-size="13" lengthAdjust="spacing" textLength="33.9663" x="659.76" y="503.6494">builds</text><text fill="#000000" font-family="sans-serif" font-size="13" lengthAdjust="spacing" textLength="7.23" x="578.2191" y="141.5062">1</text><text fill="#000000" font-family="sans-serif" font-size="13" lengthAdjust="spacing" textLength="5.0591" x="628.8265" y="724.7463">*</text></g><!--link Player to RailwayLine--><g id="link_Player_RailwayLine"><path codeLine="102" d="M540.14,138.7411 C541.53,148.5711 542.84,158.9311 543.76,168.6211 C557.14,309.3111 561.11,476.6911 562.28,555.4311 " fill="none" id="Player-RailwayLine" style="stroke:#181818;stroke-width:1.0;"/><polygon fill="#000000" points="564.0253,334.2596,566.4802,325.0713,560.6106,325.3831,564.0253,334.2596" style="stroke:#000000;stroke-width:1.0;"/><text fill="#000000" font-family="sans-serif" font-size="13" lengthAdjust="spacing" textLength="33.9663" x="572.76" y="334.6494">builds</text><text fill="#000000" font-family="sans-serif" font-size="13" lengthAdjust="spacing" textLength="7.23" x="533.7322" y="161.1183">1</text><text fill="#000000" font-family="sans-serif" font-size="13" lengthAdjust="spacing" textLength="5.0591" x="556.8112" y="544.4126">*</text></g><!--link Player to Locomotive--><g id="link_Player_Locomotive"><path codeLine="103" d="M511.26,138.6511 C506.7,148.4811 501.99,158.8611 497.76,168.6211 C490.94,184.3611 483.95,201.0811 477.21,217.5411 " fill="none" id="Player-Locomotive" style="stroke:#181818;stroke-width:1.0;"/><polygon fill="#000000" points="500.7786,182.8573,507.0613,175.7173,501.6647,173.3881,500.7786,182.8573" style="stroke:#000000;stroke-width:1.0;"/><text fill="#000000" font-family="sans-serif" font-size="13" lengthAdjust="spacing" textLength="27.46" x="511.76" y="183.6494">buys</text><text fill="#000000" font-family="sans-serif" font-size="13" lengthAdjust="spacing" textLength="7.23" x="500.43" y="161.0145">1</text><text fill="#000000" font-family="sans-serif" font-size="13" lengthAdjust="spacing" textLength="5.0591" x="474.9612" y="206.517">*</text></g><!--link Player to Route--><g id="link_Player_Route"><path codeLine="104" d="M495.69,99.1511 C431.94,109.5011 305.84,133.9211 279.76,168.6211 C255.47,200.9411 258.56,248.2711 265.7,282.9811 " fill="none" id="Player-Route" style="stroke:#181818;stroke-width:1.0;"/><polygon fill="#000000" points="280.8543,181.3884,289.7547,178.0367,286.0848,173.4453,280.8543,181.3884" style="stroke:#000000;stroke-width:1.0;"/><text fill="#000000" font-family="sans-serif" font-size="13" lengthAdjust="spacing" textLength="41.9199" x="293.76" y="183.6494">defines</text><text fill="#000000" font-family="sans-serif" font-size="13" lengthAdjust="spacing" textLength="7.23" x="480.3199" y="95.7532">1</text><text fill="#000000" font-family="sans-serif" font-size="13" lengthAdjust="spacing" textLength="5.0591" x="258.3967" y="271.97">*</text></g><!--link Route to Station--><g id="link_Route_Station"><path codeLine="106" d="M299.71,375.3411 C329.22,437.8911 385.82,553.7211 442.76,647.6211 C462.23,679.7311 484.8,714.2311 505.08,744.3411 " fill="none" id="Route-Station" style="stroke:#181818;stroke-width:1.0;"/><polygon fill="#000000" points="450.1916,606.1355,448.3608,596.8028,443.2248,599.6613,450.1916,606.1355" style="stroke:#000000;stroke-width:1.0;"/><text fill="#000000" font-family="sans-serif" font-size="13" lengthAdjust="spacing" textLength="47.6963" x="456.76" y="607.1494">includes</text><text fill="#000000" font-family="sans-serif" font-size="13" lengthAdjust="spacing" textLength="7.23" x="295.3765" y="397.7336">1</text><text fill="#000000" font-family="sans-serif" font-size="13" lengthAdjust="spacing" textLength="5.0591" x="492.3414" y="729.4871">*</text></g><!--link Route to Cargo--><g id="link_Route_Cargo"><path codeLine="107" d="M262.91,375.4311 C245.74,428.6511 220.76,519.9311 220.76,600.6211 C220.76,600.6211 220.76,600.6211 220.76,1103.6211 C220.76,1168.9711 253.23,1238.1311 278.72,1282.3611 " fill="none" id="Route-Cargo" style="stroke:#181818;stroke-width:1.0;"/><polygon fill="#000000" points="225.8471,833.7658,228.628,824.6709,222.751,824.7734,225.8471,833.7658" style="stroke:#000000;stroke-width:1.0;"/><text fill="#000000" font-family="sans-serif" font-size="13" lengthAdjust="spacing" textLength="53.479" x="234.76" y="834.1494">manages</text><text fill="#000000" font-family="sans-serif" font-size="13" lengthAdjust="spacing" textLength="5.0591" x="255.197" y="397.4954">*</text><text fill="#000000" font-family="sans-serif" font-size="13" lengthAdjust="spacing" textLength="5.0591" x="265.7645" y="1265.6987">*</text></g><!--link Train to Locomotive--><g id="link_Train_Locomotive"><path codeLine="109" d="M192.32,100.2011 C230.53,109.7311 296.21,130.5411 339.76,168.6211 C355.49,182.3711 369.29,199.4211 381.13,217.2111 " fill="none" id="Train-Locomotive" style="stroke:#181818;stroke-width:1.0;"/><polygon fill="#000000" points="367.01,180.9005,360.8698,173.6377,357.7735,178.6339,367.01,180.9005" style="stroke:#000000;stroke-width:1.0;"/><text fill="#000000" font-family="sans-serif" font-size="13" lengthAdjust="spacing" textLength="67.209" x="371.76" y="183.6494">powered by</text><text fill="#000000" font-family="sans-serif" font-size="13" lengthAdjust="spacing" textLength="7.23" x="200.2206" y="97.0223">1</text><text fill="#000000" font-family="sans-serif" font-size="13" lengthAdjust="spacing" textLength="7.23" x="370.5396" y="206.5404">1</text></g><!--link Train to Route--><g id="link_Train_Route"><path codeLine="110" d="M155.66,120.4111 C152.51,139.7011 150.79,166.0211 158.76,187.6211 C172.31,224.3411 200.19,257.9711 225.68,283.1111 " fill="none" id="Train-Route" style="stroke:#181818;stroke-width:1.0;"/><polygon fill="#000000" points="165.7365,182.8593,164.8605,173.3892,159.4614,175.7128,165.7365,182.8593" style="stroke:#000000;stroke-width:1.0;"/><text fill="#000000" font-family="sans-serif" font-size="13" lengthAdjust="spacing" textLength="66.4917" x="172.76" y="183.6494">assigned to</text><text fill="#000000" font-family="sans-serif" font-size="13" lengthAdjust="spacing" textLength="7.23" x="146.5829" y="142.3832">1</text><text fill="#000000" font-family="sans-serif" font-size="13" lengthAdjust="spacing" textLength="5.0591" x="212.1507" y="271.7778">*</text></g><!--link Train to Carriage--><g id="link_Train_Carriage"><path codeLine="111" d="M130.86,106.2611 C106.06,118.2511 72.97,138.9011 57.76,168.6211 C6,269.7711 44.38,412.1611 64.03,470.5611 " fill="none" id="Train-Carriage" style="stroke:#181818;stroke-width:1.0;"/><polygon fill="#000000" points="61.8578,183.1845,66.3806,174.8182,60.5992,173.7576,61.8578,183.1845" style="stroke:#000000;stroke-width:1.0;"/><text fill="#000000" font-family="sans-serif" font-size="13" lengthAdjust="spacing" textLength="74.4326" x="71.76" y="183.6494">composed of</text><text fill="#000000" font-family="sans-serif" font-size="13" lengthAdjust="spacing" textLength="7.23" x="115.9292" y="104.4837">1</text><text fill="#000000" font-family="sans-serif" font-size="13" lengthAdjust="spacing" textLength="5.0591" x="56.1896" y="459.2562">*</text></g><!--link RailwayLine to Station--><g id="link_RailwayLine_Station"><path codeLine="113" d="M562.76,647.8811 C562.76,670.4711 562.76,692.7611 562.76,720.1811 " fill="none" id="RailwayLine-to-Station" style="stroke:#181818;stroke-width:1.0;"/><polygon fill="#181818" points="562.76,726.1811,566.76,717.1811,562.76,721.1811,558.76,717.1811,562.76,726.1811" style="stroke:#181818;stroke-width:1.0;"/><polygon fill="#000000" points="567.76,692.2666,570.6989,683.2215,564.8211,683.2215,567.76,692.2666" style="stroke:#000000;stroke-width:1.0;"/><text fill="#000000" font-family="sans-serif" font-size="13" lengthAdjust="spacing" textLength="52.0317" x="576.76" y="692.6494">connects</text><text fill="#000000" font-family="sans-serif" font-size="13" lengthAdjust="spacing" textLength="7.23" x="555.2047" y="670.2797">1</text><text fill="#000000" font-family="sans-serif" font-size="13" lengthAdjust="spacing" textLength="7.23" x="555.5046" y="715.4118">2</text></g><!--link Station to Cargo--><g id="link_Station_Cargo"><path codeLine="115" d="M504.85,865.2911 C458.37,897.1711 395.48,948.2411 361.76,1009.6211 C315.53,1093.7611 307.39,1207.8011 307.1,1274.4211 " fill="none" id="Station-Cargo" style="stroke:#181818;stroke-width:1.0;"/><polygon fill="#000000" points="364.5841,1107.2683,371.1664,1100.4036,365.8743,1097.8457,364.5841,1107.2683" style="stroke:#000000;stroke-width:1.0;"/><text fill="#000000" font-family="sans-serif" font-size="13" lengthAdjust="spacing" textLength="35.4009" x="375.76" y="1108.1494">stores</text><text fill="#000000" font-family="sans-serif" font-size="13" lengthAdjust="spacing" textLength="7.23" x="489.9648" y="865.9338">1</text><text fill="#000000" font-family="sans-serif" font-size="13" lengthAdjust="spacing" textLength="5.0591" x="301.5545" y="1263.2357">*</text></g><!--link Station to City--><g id="link_Station_City"><path codeLine="116" d="M590.69,930.9011 C600.52,966.5511 611.29,1005.6011 620.04,1037.3511 " fill="none" id="Station-City" style="stroke:#181818;stroke-width:1.0;"/><polygon fill="#000000" points="608.089,975.0867,608.518,965.5859,602.8516,967.1482,608.089,975.0867" style="stroke:#000000;stroke-width:1.0;"/><text fill="#000000" font-family="sans-serif" font-size="13" lengthAdjust="spacing" textLength="38.2891" x="615.76" y="975.6494">serves</text><text fill="#000000" font-family="sans-serif" font-size="13" lengthAdjust="spacing" textLength="7.23" x="585.3984" y="952.7214">1</text><text fill="#000000" font-family="sans-serif" font-size="13" lengthAdjust="spacing" textLength="5.0591" x="612.8155" y="1026.3417">*</text></g><!--link Station to Industry--><g id="link_Station_Industry"><path codeLine="117" d="M534.46,930.9011 C527.29,956.5811 519.62,984.0311 512.57,1009.2411 " fill="none" id="Station-Industry" style="stroke:#181818;stroke-width:1.0;"/><polygon fill="#000000" points="528.4144,975.0821,533.6791,967.1617,528.0181,965.5798,528.4144,975.0821" style="stroke:#000000;stroke-width:1.0;"/><text fill="#000000" font-family="sans-serif" font-size="13" lengthAdjust="spacing" textLength="38.2891" x="538.76" y="975.6494">serves</text><text fill="#000000" font-family="sans-serif" font-size="13" lengthAdjust="spacing" textLength="7.23" x="525.2147" y="952.7214">1</text><text fill="#000000" font-family="sans-serif" font-size="13" lengthAdjust="spacing" textLength="5.0591" x="509.3456" y="998.4961">*</text></g><!--link Carriage to Cargo--><g id="link_Carriage_Cargo"><path codeLine="119" d="M75.15,525.7411 C76.92,562.0011 79.76,628.9511 79.76,686.1211 C79.76,686.1211 79.76,686.1211 79.76,1103.6211 C79.76,1213.8211 216.06,1288.2011 278.35,1316.4411 " fill="none" id="Carriage-Cargo" style="stroke:#181818;stroke-width:1.0;"/><polygon fill="#000000" points="86.0045,833.6092,86.5996,824.1173,80.9067,825.5803,86.0045,833.6092" style="stroke:#000000;stroke-width:1.0;"/><text fill="#000000" font-family="sans-serif" font-size="13" lengthAdjust="spacing" textLength="39.0063" x="93.76" y="834.1494">carries</text><text fill="#000000" font-family="sans-serif" font-size="13" lengthAdjust="spacing" textLength="5.0591" x="69.8956" y="547.676">*</text><text fill="#000000" font-family="sans-serif" font-size="13" lengthAdjust="spacing" textLength="7.23" x="263.5054" y="1308.3617">1</text></g><!--link Route to RailwayLine--><g id="link_Route_RailwayLine"><path codeLine="120" d="M304.78,375.3011 C318.01,396.3311 335.21,420.9811 353.76,440.6211 C405.53,495.4311 477.39,546.0611 521.93,575.1211 " fill="none" id="Route-RailwayLine" style="stroke:#181818;stroke-width:1.0;"/><polygon fill="#000000" points="459.4393,501.6523,454.7734,493.3649,450.7933,497.6902,459.4393,501.6523" style="stroke:#000000;stroke-width:1.0;"/><text fill="#000000" font-family="sans-serif" font-size="13" lengthAdjust="spacing" textLength="48.4199" x="464.76" y="503.6494">contains</text><text fill="#000000" font-family="sans-serif" font-size="13" lengthAdjust="spacing" textLength="19.5127" x="310.2351" y="397.6875">1..*</text><text fill="#000000" font-family="sans-serif" font-size="13" lengthAdjust="spacing" textLength="19.5127" x="494.5966" y="566.3365">1..*</text></g><!--link Industry to Cargo--><g id="link_Industry_Cargo"><path codeLine="122" d="M428.52,1154.4311 C406.67,1175.1911 382.59,1200.2711 363.76,1225.6211 C352.6,1240.6511 342.35,1258.2411 333.81,1274.6211 " fill="none" id="Industry-Cargo" style="stroke:#181818;stroke-width:1.0;"/><polygon fill="#000000" points="365.6653,1239.1938,373.572,1233.9084,368.9553,1230.2704,365.6653,1239.1938" style="stroke:#000000;stroke-width:1.0;"/><text fill="#000000" font-family="sans-serif" font-size="13" lengthAdjust="spacing" textLength="116.3398" x="377.76" y="1240.6494">produces/consumes</text><text fill="#000000" font-family="sans-serif" font-size="13" lengthAdjust="spacing" textLength="5.0591" x="415.7225" y="1157.0534">*</text><text fill="#000000" font-family="sans-serif" font-size="13" lengthAdjust="spacing" textLength="5.0591" x="331.6867" y="1263.4613">*</text></g><!--link City to Cargo--><g id="link_City_Cargo"><path codeLine="123" d="M588.8,1167.6911 C580.47,1177.3811 571.64,1187.0111 562.76,1195.6211 C495.53,1260.8311 390.06,1302.2611 338.77,1319.6711 " fill="none" id="City-Cargo" style="stroke:#181818;stroke-width:1.0;"/><polygon fill="#000000" points="527.4874,1237.8637,536.7431,1235.6769,533.6901,1230.6541,527.4874,1237.8637" style="stroke:#000000;stroke-width:1.0;"/><text fill="#000000" font-family="sans-serif" font-size="13" lengthAdjust="spacing" textLength="116.3398" x="540.76" y="1240.6494">produces/consumes</text><text fill="#000000" font-family="sans-serif" font-size="13" lengthAdjust="spacing" textLength="5.0591" x="578.481" y="1189.3354">*</text><text fill="#000000" font-family="sans-serif" font-size="13" lengthAdjust="spacing" textLength="5.0591" x="347.0756" y="1311.8672">*</text></g><!--link City to Position--><g id="link_City_Position"><path codeLine="125" d="M695.83,1142.4011 C724.6,1164.0511 757.97,1193.1811 780.76,1225.6211 C793.01,1243.0611 801.97,1264.8411 808.19,1283.9111 " fill="none" id="City-Position" style="stroke:#181818;stroke-width:1.0;"/><polygon fill="#000000" points="798.8691,1239.1824,795.5463,1230.2712,790.943,1233.9262,798.8691,1239.1824" style="stroke:#000000;stroke-width:1.0;"/><text fill="#000000" font-family="sans-serif" font-size="13" lengthAdjust="spacing" textLength="56.3735" x="804.76" y="1240.6494">located at</text><text fill="#000000" font-family="sans-serif" font-size="13" lengthAdjust="spacing" textLength="7.23" x="704.099" y="1143.6706">1</text><text fill="#000000" font-family="sans-serif" font-size="13" lengthAdjust="spacing" textLength="7.23" x="798.9905" y="1272.8897">1</text></g><!--link Industry to Position--><g id="link_Industry_Position"><path codeLine="126" d="M544.87,1181.5911 C550.55,1186.7611 556.53,1191.5211 562.76,1195.6211 C602.59,1221.8211 622.57,1205.4211 665.76,1225.6211 C709.82,1246.2311 755.48,1278.5411 785.53,1301.5711 " fill="none" id="Industry-Position" style="stroke:#181818;stroke-width:1.0;"/><polygon fill="#000000" points="710.2347,1237.4975,703.4511,1230.8316,700.8286,1236.092,710.2347,1237.4975" style="stroke:#000000;stroke-width:1.0;"/><text fill="#000000" font-family="sans-serif" font-size="13" lengthAdjust="spacing" textLength="56.3735" x="714.76" y="1240.6494">located at</text><text fill="#000000" font-family="sans-serif" font-size="13" lengthAdjust="spacing" textLength="7.23" x="553.1444" y="1188.1359">1</text><text fill="#000000" font-family="sans-serif" font-size="13" lengthAdjust="spacing" textLength="7.23" x="770.2972" y="1290.4736">1</text></g><!--link Station to Position--><g id="link_Station_Position"><path codeLine="127" d="M620.48,879.0811 C695.58,947.7811 822.72,1080.1511 869.76,1225.6211 C877,1248.0311 866.95,1271.7711 854,1290.8511 " fill="none" id="Station-Position" style="stroke:#181818;stroke-width:1.0;"/><polygon fill="#000000" points="864.2265,1107.1159,862.321,1097.7982,857.2081,1100.6978,864.2265,1107.1159" style="stroke:#000000;stroke-width:1.0;"/><text fill="#000000" font-family="sans-serif" font-size="13" lengthAdjust="spacing" textLength="56.3735" x="870.76" y="1108.1494">located at</text><text fill="#000000" font-family="sans-serif" font-size="13" lengthAdjust="spacing" textLength="7.23" x="628.6886" y="881.7532">1</text><text fill="#000000" font-family="sans-serif" font-size="13" lengthAdjust="spacing" textLength="7.23" x="861.8034" y="1278.0069">1</text></g><!--SRC=[fLJ1Rjim3BtxAuGS2xHhTioXG9jU2cH0qNI77Hc9SOJAeYjHpRnX_pvAJXmtIxPXEnYGfKVolKTAySNw5W8qgWNz0ZKkkNEe0ce6NpkiuW286p2qjRvMQt1nVA8Tn7ZB7EmgCJveyalx3TNrCKHzhvIwapfreEJDd1m5jR3rXkzSmdn6mM3ezylMZr4AzAdvbmpLnXfKsWOjSigwGTwGYLN5baNiFJLWlVf41fswL9-NqsirKxSnsjehK1poAPCifIXZLVLY7Xrq60gZ535uQ3A1LewsGaAMgsHgvCnW5q3HiYLVGhxAryb7MgVMeZd0vfQx0iaP7-vbiI4fSET8lyHS8P19EYTw0iubOsfR9odc46gIVuCDUBF_7_8-U9CYXwFSKJfDGHRSjLY2emwspUdb3zx0EbXP9vo-88J_ABza6CGFrNT5KKQ66gkVmDYKDMgAd5CBDPd9ESXm2eDyW9unF9BrN1ospiX4BXrnFD1rkESIy3LXv5_8F0bk2zt2UYo47FgQDvbGaE5wxbaL4aF8WZGrnFODJqfeQOlP7j0Q7GRO6SZKBbj4KyH0u9s9wuHktciyOJ7ersJxMNaCLkVqUK8PFNYD_TP1Ifx9evxsLY-pU5_2TPQ_i6CzuaYmOcu9FJPwZAffo9wvDNBnCczdrnXRy7iBXf3dSbz6XEHaTrScqucwl5IJYyam3hE-YL7Td02Ds_HRuAWv6TUTIPUjcic0hYLXXbIzUITfMQzTCWMsGrqCgDwLcNJ5YsibKwzwdsbwHAbC1ngrwWJx7hhd9IWeJux0vB4v0HiwDfFHR5gAWgHraJ7ogG-uKPEFOpLomRpSz49rl_i-TH6Kvw3eEON9xv90CBoTWmnFp0XM3RJt1auFzNG-6tiylRgwc1HGNem7e6XWiQGa7IgTw4h_Gc7y804nDILz8V-Ns1tuqChXuPufUOJbrJCAM8074d_67hjr7leJ]--></g></svg>