<svg xmlns="http://www.w3.org/2000/svg" xmlns:xlink="http://www.w3.org/1999/xlink" contentStyleType="text/css" height="1410px" preserveAspectRatio="none" style="width:974px;height:1410px;background:#FFFFFF;" version="1.1" viewBox="0 0 974 1410" width="974px" zoomAndPan="magnify"><defs/><g><rect fill="#FFFFFF" height="1216.2422" style="stroke:#181818;stroke-width:1.0;" width="10" x="22.8413" y="93.6211"/><rect fill="#FFFFFF" height="185.7461" style="stroke:#181818;stroke-width:1.0;" width="10" x="294.9619" y="116.9121"/><rect fill="#FFFFFF" height="142.125" style="stroke:#181818;stroke-width:1.0;" width="10" x="294.9619" y="333.9492"/><rect fill="#FFFFFF" height="142.125" style="stroke:#181818;stroke-width:1.0;" width="10" x="294.9619" y="507.3652"/><rect fill="#FFFFFF" height="79.543" style="stroke:#181818;stroke-width:1.0;" width="10" x="508.5972" y="191.8242"/><rect fill="#FFFFFF" height="79.543" style="stroke:#181818;stroke-width:1.0;" width="10" x="508.5972" y="365.2402"/><rect fill="#FFFFFF" height="79.543" style="stroke:#181818;stroke-width:1.0;" width="10" x="508.5972" y="538.6563"/><rect fill="#FFFFFF" height="233.998" style="stroke:#181818;stroke-width:1.0;" width="10" x="635.3071" y="680.7813"/><rect fill="#FFFFFF" height="142.125" style="stroke:#181818;stroke-width:1.0;" width="10" x="635.3071" y="946.0703"/><rect fill="#FFFFFF" height="190.377" style="stroke:#181818;stroke-width:1.0;" width="10" x="635.3071" y="1119.4863"/><rect fill="#FFFFFF" height="127.7949" style="stroke:#181818;stroke-width:1.0;" width="10" x="873.5205" y="755.6934"/><rect fill="#FFFFFF" height="79.543" style="stroke:#181818;stroke-width:1.0;" width="10" x="873.5205" y="977.3613"/><rect fill="#FFFFFF" height="127.7949" style="stroke:#181818;stroke-width:1.0;" width="10" x="873.5205" y="1150.7773"/><line style="stroke:#181818;stroke-width:0.5;stroke-dasharray:5.0,5.0;" x1="27" x2="27" y1="83.6211" y2="1327.8633"/><line style="stroke:#181818;stroke-width:0.5;stroke-dasharray:5.0,5.0;" x1="299.3999" x2="299.3999" y1="83.6211" y2="1327.8633"/><line style="stroke:#181818;stroke-width:0.5;stroke-dasharray:5.0,5.0;" x1="512.6904" x2="512.6904" y1="156.7227" y2="1327.8633"/><line style="stroke:#181818;stroke-width:0.5;stroke-dasharray:5.0,5.0;" x1="639.5039" x2="639.5039" y1="83.6211" y2="1327.8633"/><line style="stroke:#181818;stroke-width:0.5;stroke-dasharray:5.0,5.0;" x1="878.3726" x2="878.3726" y1="720.5918" y2="1327.8633"/><text fill="#000000" font-family="sans-serif" font-size="14" lengthAdjust="spacing" textLength="39.6826" x="5" y="80.1074">Player</text><ellipse cx="27.8413" cy="13.5" fill="#E3E3E3" rx="8" ry="8" style="stroke:#181818;stroke-width:0.5;"/><path d="M27.8413,21.5 L27.8413,48.5 M14.8413,29.5 L40.8413,29.5 M27.8413,48.5 L14.8413,63.5 M27.8413,48.5 L40.8413,63.5 " fill="none" style="stroke:#181818;stroke-width:0.5;"/><text fill="#000000" font-family="sans-serif" font-size="14" lengthAdjust="spacing" textLength="39.6826" x="5" y="1341.9707">Player</text><ellipse cx="27.8413" cy="1353.9844" fill="#E3E3E3" rx="8" ry="8" style="stroke:#181818;stroke-width:0.5;"/><path d="M27.8413,1361.9844 L27.8413,1388.9844 M14.8413,1369.9844 L40.8413,1369.9844 M27.8413,1388.9844 L14.8413,1403.9844 M27.8413,1388.9844 L40.8413,1403.9844 " fill="none" style="stroke:#181818;stroke-width:0.5;"/><rect fill="#E3E3E3" height="32.6211" rx="2.5" ry="2.5" style="stroke:#181818;stroke-width:0.5;" width="59.124" x="270.3999" y="50"/><text fill="#000000" font-family="sans-serif" font-size="14" lengthAdjust="spacing" textLength="45.124" x="277.3999" y="72.1074">:MapUI</text><rect fill="#E3E3E3" height="32.6211" rx="2.5" ry="2.5" style="stroke:#181818;stroke-width:0.5;" width="59.124" x="270.3999" y="1326.8633"/><text fill="#000000" font-family="sans-serif" font-size="14" lengthAdjust="spacing" textLength="45.124" x="277.3999" y="1348.9707">:MapUI</text><rect fill="#E3E3E3" height="32.6211" rx="2.5" ry="2.5" style="stroke:#181818;stroke-width:0.5;" width="105.8135" x="460.6904" y="1326.8633"/><text fill="#000000" font-family="sans-serif" font-size="14" lengthAdjust="spacing" textLength="91.8135" x="467.6904" y="1348.9707">:MapController</text><rect fill="#E3E3E3" height="32.6211" rx="2.5" ry="2.5" style="stroke:#181818;stroke-width:0.5;" width="127.6064" x="576.5039" y="50"/><text fill="#000000" font-family="sans-serif" font-size="14" lengthAdjust="spacing" textLength="113.6064" x="583.5039" y="72.1074">:BuyLocomotiveUI</text><rect fill="#E3E3E3" height="32.6211" rx="2.5" ry="2.5" style="stroke:#181818;stroke-width:0.5;" width="127.6064" x="576.5039" y="1326.8633"/><text fill="#000000" font-family="sans-serif" font-size="14" lengthAdjust="spacing" textLength="113.6064" x="583.5039" y="1348.9707">:BuyLocomotiveUI</text><rect fill="#E3E3E3" height="32.6211" rx="2.5" ry="2.5" style="stroke:#181818;stroke-width:0.5;" width="174.2959" x="791.3726" y="1326.8633"/><text fill="#000000" font-family="sans-serif" font-size="14" lengthAdjust="spacing" textLength="160.2959" x="798.3726" y="1348.9707">:BuyLocomotiveController</text><rect fill="#FFFFFF" height="1216.2422" style="stroke:#181818;stroke-width:1.0;" width="10" x="22.8413" y="93.6211"/><rect fill="#FFFFFF" height="185.7461" style="stroke:#181818;stroke-width:1.0;" width="10" x="294.9619" y="116.9121"/><rect fill="#FFFFFF" height="142.125" style="stroke:#181818;stroke-width:1.0;" width="10" x="294.9619" y="333.9492"/><rect fill="#FFFFFF" height="142.125" style="stroke:#181818;stroke-width:1.0;" width="10" x="294.9619" y="507.3652"/><rect fill="#FFFFFF" height="79.543" style="stroke:#181818;stroke-width:1.0;" width="10" x="508.5972" y="191.8242"/><rect fill="#FFFFFF" height="79.543" style="stroke:#181818;stroke-width:1.0;" width="10" x="508.5972" y="365.2402"/><rect fill="#FFFFFF" height="79.543" style="stroke:#181818;stroke-width:1.0;" width="10" x="508.5972" y="538.6563"/><rect fill="#FFFFFF" height="233.998" style="stroke:#181818;stroke-width:1.0;" width="10" x="635.3071" y="680.7813"/><rect fill="#FFFFFF" height="142.125" style="stroke:#181818;stroke-width:1.0;" width="10" x="635.3071" y="946.0703"/><rect fill="#FFFFFF" height="190.377" style="stroke:#181818;stroke-width:1.0;" width="10" x="635.3071" y="1119.4863"/><rect fill="#FFFFFF" height="127.7949" style="stroke:#181818;stroke-width:1.0;" width="10" x="873.5205" y="755.6934"/><rect fill="#FFFFFF" height="79.543" style="stroke:#181818;stroke-width:1.0;" width="10" x="873.5205" y="977.3613"/><rect fill="#FFFFFF" height="127.7949" style="stroke:#181818;stroke-width:1.0;" width="10" x="873.5205" y="1150.7773"/><polygon fill="#181818" points="282.9619,112.9121,292.9619,116.9121,282.9619,120.9121,286.9619,116.9121" style="stroke:#181818;stroke-width:1.0;"/><line style="stroke:#181818;stroke-width:1.0;" x1="32.8413" x2="288.9619" y1="116.9121" y2="116.9121"/><text fill="#000000" font-family="sans-serif" font-size="13" font-weight="bold" lengthAdjust="spacing" textLength="7.23" x="39.8413" y="111.6494">1</text><text fill="#000000" font-family="sans-serif" font-size="13" lengthAdjust="spacing" textLength="156.0825" x="51.0713" y="111.6494">asks to see available maps</text><polygon fill="#181818" points="448.6904,144.2031,458.6904,148.2031,448.6904,152.2031,452.6904,148.2031" style="stroke:#181818;stroke-width:1.0;"/><line style="stroke:#181818;stroke-width:1.0;" x1="304.9619" x2="454.6904" y1="148.2031" y2="148.2031"/><text fill="#000000" font-family="sans-serif" font-size="13" font-weight="bold" lengthAdjust="spacing" textLength="7.23" x="311.9619" y="142.9404">2</text><text fill="#000000" font-family="sans-serif" font-size="13" lengthAdjust="spacing" textLength="44.7891" x="323.1919" y="142.9404">create()</text><rect fill="#E3E3E3" height="32.6211" rx="2.5" ry="2.5" style="stroke:#181818;stroke-width:0.5;" width="105.8135" x="460.6904" y="124.9121"/><text fill="#000000" font-family="sans-serif" font-size="14" lengthAdjust="spacing" textLength="91.8135" x="467.6904" y="147.0195">:MapController</text><polygon fill="#181818" points="496.5972,187.8242,506.5972,191.8242,496.5972,195.8242,500.5972,191.8242" style="stroke:#181818;stroke-width:1.0;"/><line style="stroke:#181818;stroke-width:1.0;" x1="304.9619" x2="502.5972" y1="191.8242" y2="191.8242"/><text fill="#000000" font-family="sans-serif" font-size="13" font-weight="bold" lengthAdjust="spacing" textLength="7.23" x="311.9619" y="186.5615">3</text><text fill="#000000" font-family="sans-serif" font-size="13" lengthAdjust="spacing" textLength="111.2744" x="323.1919" y="186.5615">getAvailableMaps()</text><rect fill="none" height="43.252" style="stroke:#000000;stroke-width:1.5;" width="111.8135" x="457.6904" y="199.8242"/><path d="M457.6904,199.8242 L518.6904,199.8242 L518.6904,208.8242 L508.6904,218.8242 L457.6904,218.8242 L457.6904,199.8242 " fill="#EEEEEE" style="stroke:#000000;stroke-width:2.0;"/><text fill="#000000" font-family="sans-serif" font-size="13" font-weight="bold" lengthAdjust="spacing" textLength="16.6182" x="470.6904" y="215.8525">ref</text><text fill="#000000" font-family="sans-serif" font-size="12" lengthAdjust="spacing" textLength="102.7207" x="462.2368" y="235.7734">Get available maps</text><polygon fill="#181818" points="315.9619,267.3672,305.9619,271.3672,315.9619,275.3672,311.9619,271.3672" style="stroke:#181818;stroke-width:1.0;"/><line style="stroke:#181818;stroke-width:1.0;stroke-dasharray:2.0,2.0;" x1="309.9619" x2="512.5972" y1="271.3672" y2="271.3672"/><text fill="#000000" font-family="sans-serif" font-size="13" font-weight="bold" lengthAdjust="spacing" textLength="7.23" x="321.9619" y="266.1045">4</text><text fill="#000000" font-family="sans-serif" font-size="13" lengthAdjust="spacing" textLength="103.3335" x="333.1919" y="266.1045">availableMapsList</text><polygon fill="#181818" points="43.8413,298.6582,33.8413,302.6582,43.8413,306.6582,39.8413,302.6582" style="stroke:#181818;stroke-width:1.0;"/><line style="stroke:#181818;stroke-width:1.0;stroke-dasharray:2.0,2.0;" x1="37.8413" x2="298.9619" y1="302.6582" y2="302.6582"/><text fill="#000000" font-family="sans-serif" font-size="13" font-weight="bold" lengthAdjust="spacing" textLength="7.23" x="49.8413" y="297.3955">5</text><text fill="#000000" font-family="sans-serif" font-size="13" lengthAdjust="spacing" textLength="203.0425" x="61.0713" y="297.3955">shows list of available maps to play</text><polygon fill="#181818" points="282.9619,329.9492,292.9619,333.9492,282.9619,337.9492,286.9619,333.9492" style="stroke:#181818;stroke-width:1.0;"/><line style="stroke:#181818;stroke-width:1.0;" x1="32.8413" x2="288.9619" y1="333.9492" y2="333.9492"/><text fill="#000000" font-family="sans-serif" font-size="13" font-weight="bold" lengthAdjust="spacing" textLength="7.23" x="39.8413" y="328.6865">6</text><text fill="#000000" font-family="sans-serif" font-size="13" lengthAdjust="spacing" textLength="80.2026" x="51.0713" y="328.6865">selects a map</text><polygon fill="#181818" points="496.5972,361.2402,506.5972,365.2402,496.5972,369.2402,500.5972,365.2402" style="stroke:#181818;stroke-width:1.0;"/><line style="stroke:#181818;stroke-width:1.0;" x1="304.9619" x2="502.5972" y1="365.2402" y2="365.2402"/><text fill="#000000" font-family="sans-serif" font-size="13" font-weight="bold" lengthAdjust="spacing" textLength="7.23" x="311.9619" y="359.9775">7</text><text fill="#000000" font-family="sans-serif" font-size="13" lengthAdjust="spacing" textLength="148.1162" x="323.1919" y="359.9775">getMapScenarios(mapID)</text><rect fill="none" height="43.252" style="stroke:#000000;stroke-width:1.5;" width="111.8135" x="457.6904" y="373.2402"/><path d="M457.6904,373.2402 L518.6904,373.2402 L518.6904,382.2402 L508.6904,392.2402 L457.6904,392.2402 L457.6904,373.2402 " fill="#EEEEEE" style="stroke:#000000;stroke-width:2.0;"/><text fill="#000000" font-family="sans-serif" font-size="13" font-weight="bold" lengthAdjust="spacing" textLength="16.6182" x="470.6904" y="389.2686">ref</text><text fill="#000000" font-family="sans-serif" font-size="12" lengthAdjust="spacing" textLength="100.7109" x="463.2417" y="409.1895">Get map scenarios</text><polygon fill="#181818" points="315.9619,440.7832,305.9619,444.7832,315.9619,448.7832,311.9619,444.7832" style="stroke:#181818;stroke-width:1.0;"/><line style="stroke:#181818;stroke-width:1.0;stroke-dasharray:2.0,2.0;" x1="309.9619" x2="512.5972" y1="444.7832" y2="444.7832"/><text fill="#000000" font-family="sans-serif" font-size="13" font-weight="bold" lengthAdjust="spacing" textLength="7.23" x="321.9619" y="439.5205">8</text><text fill="#000000" font-family="sans-serif" font-size="13" lengthAdjust="spacing" textLength="83.0972" x="333.1919" y="439.5205">mapScenarios</text><polygon fill="#181818" points="43.8413,472.0742,33.8413,476.0742,43.8413,480.0742,39.8413,476.0742" style="stroke:#181818;stroke-width:1.0;"/><line style="stroke:#181818;stroke-width:1.0;stroke-dasharray:2.0,2.0;" x1="37.8413" x2="298.9619" y1="476.0742" y2="476.0742"/><text fill="#000000" font-family="sans-serif" font-size="13" font-weight="bold" lengthAdjust="spacing" textLength="7.23" x="49.8413" y="470.8115">9</text><text fill="#000000" font-family="sans-serif" font-size="13" lengthAdjust="spacing" textLength="226.8906" x="61.0713" y="470.8115">shows list of available scenarios to play</text><polygon fill="#181818" points="282.9619,503.3652,292.9619,507.3652,282.9619,511.3652,286.9619,507.3652" style="stroke:#181818;stroke-width:1.0;"/><line style="stroke:#181818;stroke-width:1.0;" x1="32.8413" x2="288.9619" y1="507.3652" y2="507.3652"/><text fill="#000000" font-family="sans-serif" font-size="13" font-weight="bold" lengthAdjust="spacing" textLength="14.46" x="39.8413" y="502.1025">10</text><text fill="#000000" font-family="sans-serif" font-size="13" lengthAdjust="spacing" textLength="104.0508" x="58.3013" y="502.1025">selects a scenario</text><polygon fill="#181818" points="496.5972,534.6563,506.5972,538.6563,496.5972,542.6563,500.5972,538.6563" style="stroke:#181818;stroke-width:1.0;"/><line style="stroke:#181818;stroke-width:1.0;" x1="304.9619" x2="502.5972" y1="538.6563" y2="538.6563"/><text fill="#000000" font-family="sans-serif" font-size="13" font-weight="bold" lengthAdjust="spacing" textLength="14.46" x="311.9619" y="533.3936">11</text><text fill="#000000" font-family="sans-serif" font-size="13" lengthAdjust="spacing" textLength="166.1753" x="330.4219" y="533.3936">loadMap(mapID, scenarioID)</text><rect fill="none" height="43.252" style="stroke:#000000;stroke-width:1.5;" width="111.8135" x="457.6904" y="546.6563"/><path d="M457.6904,546.6563 L518.6904,546.6563 L518.6904,555.6563 L508.6904,565.6563 L457.6904,565.6563 L457.6904,546.6563 " fill="#EEEEEE" style="stroke:#000000;stroke-width:2.0;"/><text fill="#000000" font-family="sans-serif" font-size="13" font-weight="bold" lengthAdjust="spacing" textLength="16.6182" x="470.6904" y="562.6846">ref</text><text fill="#000000" font-family="sans-serif" font-size="12" lengthAdjust="spacing" textLength="53.373" x="486.9106" y="582.6055">Load map</text><polygon fill="#181818" points="315.9619,614.1992,305.9619,618.1992,315.9619,622.1992,311.9619,618.1992" style="stroke:#181818;stroke-width:1.0;"/><line style="stroke:#181818;stroke-width:1.0;stroke-dasharray:2.0,2.0;" x1="309.9619" x2="512.5972" y1="618.1992" y2="618.1992"/><text fill="#000000" font-family="sans-serif" font-size="13" font-weight="bold" lengthAdjust="spacing" textLength="14.46" x="321.9619" y="612.9365">12</text><text fill="#000000" font-family="sans-serif" font-size="13" lengthAdjust="spacing" textLength="64.3208" x="340.4219" y="612.9365">mapLayout</text><polygon fill="#181818" points="43.8413,645.4902,33.8413,649.4902,43.8413,653.4902,39.8413,649.4902" style="stroke:#181818;stroke-width:1.0;"/><line style="stroke:#181818;stroke-width:1.0;stroke-dasharray:2.0,2.0;" x1="37.8413" x2="298.9619" y1="649.4902" y2="649.4902"/><text fill="#000000" font-family="sans-serif" font-size="13" font-weight="bold" lengthAdjust="spacing" textLength="14.46" x="49.8413" y="644.2275">13</text><text fill="#000000" font-family="sans-serif" font-size="13" lengthAdjust="spacing" textLength="209.5742" x="68.3013" y="644.2275">loads and displays the selected map</text><polygon fill="#181818" points="623.3071,676.7813,633.3071,680.7813,623.3071,684.7813,627.3071,680.7813" style="stroke:#181818;stroke-width:1.0;"/><line style="stroke:#181818;stroke-width:1.0;" x1="32.8413" x2="629.3071" y1="680.7813" y2="680.7813"/><text fill="#000000" font-family="sans-serif" font-size="13" font-weight="bold" lengthAdjust="spacing" textLength="14.46" x="39.8413" y="675.5186">14</text><text fill="#000000" font-family="sans-serif" font-size="13" lengthAdjust="spacing" textLength="142.3462" x="58.3013" y="675.5186">asks to buy a locomotive</text><polygon fill="#181818" points="779.3726,708.0723,789.3726,712.0723,779.3726,716.0723,783.3726,712.0723" style="stroke:#181818;stroke-width:1.0;"/><line style="stroke:#181818;stroke-width:1.0;stroke-dasharray:2.0,2.0;" x1="645.3071" x2="785.3726" y1="712.0723" y2="712.0723"/><text fill="#000000" font-family="sans-serif" font-size="13" font-weight="bold" lengthAdjust="spacing" textLength="14.46" x="652.3071" y="706.8096">15</text><text fill="#000000" font-family="sans-serif" font-size="13" lengthAdjust="spacing" textLength="44.7891" x="670.7671" y="706.8096">create()</text><rect fill="#E3E3E3" height="32.6211" rx="2.5" ry="2.5" style="stroke:#181818;stroke-width:0.5;" width="174.2959" x="791.3726" y="688.7813"/><text fill="#000000" font-family="sans-serif" font-size="14" lengthAdjust="spacing" textLength="160.2959" x="798.3726" y="710.8887">:BuyLocomotiveController</text><polygon fill="#181818" points="861.5205,751.6934,871.5205,755.6934,861.5205,759.6934,865.5205,755.6934" style="stroke:#181818;stroke-width:1.0;"/><line style="stroke:#181818;stroke-width:1.0;" x1="645.3071" x2="867.5205" y1="755.6934" y2="755.6934"/><text fill="#000000" font-family="sans-serif" font-size="13" font-weight="bold" lengthAdjust="spacing" textLength="14.46" x="652.3071" y="750.4307">16</text><text fill="#000000" font-family="sans-serif" font-size="13" lengthAdjust="spacing" textLength="152.4644" x="670.7671" y="750.4307">getAvailableLocomotives()</text><rect fill="none" height="43.252" style="stroke:#000000;stroke-width:1.5;" width="180.2959" x="788.3726" y="763.6934"/><path d="M788.3726,763.6934 L849.3726,763.6934 L849.3726,772.6934 L839.3726,782.6934 L788.3726,782.6934 L788.3726,763.6934 " fill="#EEEEEE" style="stroke:#000000;stroke-width:2.0;"/><text fill="#000000" font-family="sans-serif" font-size="13" font-weight="bold" lengthAdjust="spacing" textLength="16.6182" x="801.3726" y="779.7217">ref</text><text fill="#000000" font-family="sans-serif" font-size="12" lengthAdjust="spacing" textLength="165.4219" x="795.8096" y="799.6426">Get Current Scenario and Date</text><rect fill="none" height="43.252" style="stroke:#000000;stroke-width:1.5;" width="180.2959" x="788.3726" y="811.9453"/><path d="M788.3726,811.9453 L849.3726,811.9453 L849.3726,820.9453 L839.3726,830.9453 L788.3726,830.9453 L788.3726,811.9453 " fill="#EEEEEE" style="stroke:#000000;stroke-width:2.0;"/><text fill="#000000" font-family="sans-serif" font-size="13" font-weight="bold" lengthAdjust="spacing" textLength="16.6182" x="801.3726" y="827.9736">ref</text><text fill="#000000" font-family="sans-serif" font-size="12" lengthAdjust="spacing" textLength="142.0723" x="807.4844" y="847.8945">Get Available Locomotives</text><polygon fill="#181818" points="656.3071,879.4883,646.3071,883.4883,656.3071,887.4883,652.3071,883.4883" style="stroke:#181818;stroke-width:1.0;"/><line style="stroke:#181818;stroke-width:1.0;stroke-dasharray:2.0,2.0;" x1="650.3071" x2="877.5205" y1="883.4883" y2="883.4883"/><text fill="#000000" font-family="sans-serif" font-size="13" font-weight="bold" lengthAdjust="spacing" textLength="14.46" x="662.3071" y="878.2256">17</text><text fill="#000000" font-family="sans-serif" font-size="13" lengthAdjust="spacing" textLength="124.2935" x="680.7671" y="878.2256">availableLocomotives</text><polygon fill="#181818" points="43.8413,910.7793,33.8413,914.7793,43.8413,918.7793,39.8413,914.7793" style="stroke:#181818;stroke-width:1.0;"/><line style="stroke:#181818;stroke-width:1.0;stroke-dasharray:2.0,2.0;" x1="37.8413" x2="639.3071" y1="914.7793" y2="914.7793"/><text fill="#000000" font-family="sans-serif" font-size="13" font-weight="bold" lengthAdjust="spacing" textLength="14.46" x="49.8413" y="909.5166">18</text><text fill="#000000" font-family="sans-serif" font-size="13" lengthAdjust="spacing" textLength="408.9795" x="68.3013" y="909.5166">shows a list of available locomotives (for the scenario and current date)</text><polygon fill="#181818" points="623.3071,942.0703,633.3071,946.0703,623.3071,950.0703,627.3071,946.0703" style="stroke:#181818;stroke-width:1.0;"/><line style="stroke:#181818;stroke-width:1.0;" x1="32.8413" x2="629.3071" y1="946.0703" y2="946.0703"/><text fill="#000000" font-family="sans-serif" font-size="13" font-weight="bold" lengthAdjust="spacing" textLength="14.46" x="39.8413" y="940.8076">19</text><text fill="#000000" font-family="sans-serif" font-size="13" lengthAdjust="spacing" textLength="117.0508" x="58.3013" y="940.8076">selects a locomotive</text><polygon fill="#181818" points="861.5205,973.3613,871.5205,977.3613,861.5205,981.3613,865.5205,977.3613" style="stroke:#181818;stroke-width:1.0;"/><line style="stroke:#181818;stroke-width:1.0;" x1="645.3071" x2="867.5205" y1="977.3613" y2="977.3613"/><text fill="#000000" font-family="sans-serif" font-size="13" font-weight="bold" lengthAdjust="spacing" textLength="14.46" x="652.3071" y="972.0986">20</text><text fill="#000000" font-family="sans-serif" font-size="13" lengthAdjust="spacing" textLength="168.3462" x="670.7671" y="972.0986">getLocomotive(locomotiveID)</text><rect fill="none" height="43.252" style="stroke:#000000;stroke-width:1.5;" width="180.2959" x="788.3726" y="985.3613"/><path d="M788.3726,985.3613 L849.3726,985.3613 L849.3726,994.3613 L839.3726,1004.3613 L788.3726,1004.3613 L788.3726,985.3613 " fill="#EEEEEE" style="stroke:#000000;stroke-width:2.0;"/><text fill="#000000" font-family="sans-serif" font-size="13" font-weight="bold" lengthAdjust="spacing" textLength="16.6182" x="801.3726" y="1001.3896">ref</text><text fill="#000000" font-family="sans-serif" font-size="12" lengthAdjust="spacing" textLength="84.041" x="836.5" y="1021.3105">Get Locomotive</text><polygon fill="#181818" points="656.3071,1052.9043,646.3071,1056.9043,656.3071,1060.9043,652.3071,1056.9043" style="stroke:#181818;stroke-width:1.0;"/><line style="stroke:#181818;stroke-width:1.0;stroke-dasharray:2.0,2.0;" x1="650.3071" x2="877.5205" y1="1056.9043" y2="1056.9043"/><text fill="#000000" font-family="sans-serif" font-size="13" font-weight="bold" lengthAdjust="spacing" textLength="14.46" x="662.3071" y="1051.6416">21</text><text fill="#000000" font-family="sans-serif" font-size="13" lengthAdjust="spacing" textLength="62.1372" x="680.7671" y="1051.6416">locomotive</text><polygon fill="#181818" points="43.8413,1084.1953,33.8413,1088.1953,43.8413,1092.1953,39.8413,1088.1953" style="stroke:#181818;stroke-width:1.0;"/><line style="stroke:#181818;stroke-width:1.0;stroke-dasharray:2.0,2.0;" x1="37.8413" x2="639.3071" y1="1088.1953" y2="1088.1953"/><text fill="#000000" font-family="sans-serif" font-size="13" font-weight="bold" lengthAdjust="spacing" textLength="14.46" x="49.8413" y="1082.9326">22</text><text fill="#000000" font-family="sans-serif" font-size="13" lengthAdjust="spacing" textLength="296.9814" x="68.3013" y="1082.9326">shows locomotive details and requests confirmation</text><polygon fill="#181818" points="623.3071,1115.4863,633.3071,1119.4863,623.3071,1123.4863,627.3071,1119.4863" style="stroke:#181818;stroke-width:1.0;"/><line style="stroke:#181818;stroke-width:1.0;" x1="32.8413" x2="629.3071" y1="1119.4863" y2="1119.4863"/><text fill="#000000" font-family="sans-serif" font-size="13" font-weight="bold" lengthAdjust="spacing" textLength="14.46" x="39.8413" y="1114.2236">23</text><text fill="#000000" font-family="sans-serif" font-size="13" lengthAdjust="spacing" textLength="106.209" x="58.3013" y="1114.2236">confirms purchase</text><polygon fill="#181818" points="861.5205,1146.7773,871.5205,1150.7773,861.5205,1154.7773,865.5205,1150.7773" style="stroke:#181818;stroke-width:1.0;"/><line style="stroke:#181818;stroke-width:1.0;" x1="645.3071" x2="867.5205" y1="1150.7773" y2="1150.7773"/><text fill="#000000" font-family="sans-serif" font-size="13" font-weight="bold" lengthAdjust="spacing" textLength="14.46" x="652.3071" y="1145.5146">24</text><text fill="#000000" font-family="sans-serif" font-size="13" lengthAdjust="spacing" textLength="190.7534" x="670.7671" y="1145.5146">purchaseLocomotive(locomotive)</text><rect fill="none" height="43.252" style="stroke:#000000;stroke-width:1.5;" width="180.2959" x="788.3726" y="1158.7773"/><path d="M788.3726,1158.7773 L849.3726,1158.7773 L849.3726,1167.7773 L839.3726,1177.7773 L788.3726,1177.7773 L788.3726,1158.7773 " fill="#EEEEEE" style="stroke:#000000;stroke-width:2.0;"/><text fill="#000000" font-family="sans-serif" font-size="13" font-weight="bold" lengthAdjust="spacing" textLength="16.6182" x="801.3726" y="1174.8057">ref</text><text fill="#000000" font-family="sans-serif" font-size="12" lengthAdjust="spacing" textLength="134.0449" x="811.498" y="1194.7266">Get Player From Session</text><rect fill="none" height="43.252" style="stroke:#000000;stroke-width:1.5;" width="180.2959" x="788.3726" y="1207.0293"/><path d="M788.3726,1207.0293 L849.3726,1207.0293 L849.3726,1216.0293 L839.3726,1226.0293 L788.3726,1226.0293 L788.3726,1207.0293 " fill="#EEEEEE" style="stroke:#000000;stroke-width:2.0;"/><text fill="#000000" font-family="sans-serif" font-size="13" font-weight="bold" lengthAdjust="spacing" textLength="16.6182" x="801.3726" y="1223.0576">ref</text><text fill="#000000" font-family="sans-serif" font-size="12" lengthAdjust="spacing" textLength="115.3945" x="820.8232" y="1242.9785">Purchase Locomotive</text><polygon fill="#181818" points="656.3071,1274.5723,646.3071,1278.5723,656.3071,1282.5723,652.3071,1278.5723" style="stroke:#181818;stroke-width:1.0;"/><line style="stroke:#181818;stroke-width:1.0;stroke-dasharray:2.0,2.0;" x1="650.3071" x2="877.5205" y1="1278.5723" y2="1278.5723"/><text fill="#000000" font-family="sans-serif" font-size="13" font-weight="bold" lengthAdjust="spacing" textLength="14.46" x="662.3071" y="1273.3096">25</text><text fill="#000000" font-family="sans-serif" font-size="13" lengthAdjust="spacing" textLength="22.4009" x="680.7671" y="1273.3096">true</text><polygon fill="#181818" points="38.8413,1305.8633,28.8413,1309.8633,38.8413,1313.8633,34.8413,1309.8633" style="stroke:#181818;stroke-width:1.0;"/><line style="stroke:#181818;stroke-width:1.0;stroke-dasharray:2.0,2.0;" x1="32.8413" x2="639.3071" y1="1309.8633" y2="1309.8633"/><text fill="#000000" font-family="sans-serif" font-size="13" font-weight="bold" lengthAdjust="spacing" textLength="14.46" x="44.8413" y="1304.6006">26</text><text fill="#000000" font-family="sans-serif" font-size="13" lengthAdjust="spacing" textLength="155.3589" x="63.3013" y="1304.6006">displays operation success</text><!--SRC=[jLRBRjim4BppAnQ-r0sQ7_2XG9gqHG0LCEBsq2DDhMt25AcIb5F_VLUY7jJ3YDKaF4dYQdPsXhkIEqgTSyipo8msuc1DXk1jWSorEpaNHxx7ZJyh18l2SxrNSO0xyDGyIxs77LSE6UE5Dxh8jcWP-t2GASBE6ByrVnaNtbXOh1K_erq0Tx1Exdv_VMA4vAMGETSU5giVFF_rM6rdvTLuzzveRurIDGX5tVzyIWPnNufpOeJ9Z9SdhF56OBsW0Mo5MNAM9-wneSg0LhY6sy-1uOh2Zmwy0OS8_CIbubkIYpPT5L-k5YWKrJokxcgaCkFDpGg4HGfSVhmOj88z-hic3odYek1XigeE62oBEp0dj1S3olKT_QLgceKwxJshuU0sqYRccKZdUo-aU95hNJKX1RrNTDRCimD5661s0sgb_3cTB3QDJ99FM-TGqQbsmCi7SzsgZA2wDW8rjzAu9MqyFhoN6RGFhadrFrva4TMtjw6bzh8NBrZH8B7vXYZ3Kt8a6F6fHNeVKn9ArZityxn8-DaKh-Y7ibQIIwUGIbSAJieViDOH-yp6xJ0mWR2xGROjpcI3QcSZwsaM6L0p2gCB9cPNiASglZ-ski4RJoysqdyaVja9zuMrI2EyESsL20-KcKKEb1ZiIi2M5aIyBeErKep0Mfk3dXFLJbaIFZO3KMjlceRZ4otNEUHWkQElQ-L_B8gebKefJP0vIZkUYXNhhX6lF06nmLsbo-xjkFskT2JfftwL3MgCDLFy3e7Uz2H_w3kBVmfq99KmUYTjnhqq-agLwrSSv8KL1-wkbBY9djHvjihXPmo-qRyVRD2vXlxC5bhNfDxKjUfNTBPVxIWqEThA3t2545JRb2_HRVs7zmy0]--></g></svg>