<svg xmlns="http://www.w3.org/2000/svg" xmlns:xlink="http://www.w3.org/1999/xlink" contentStyleType="text/css" height="847px" preserveAspectRatio="none" style="width:816px;height:847px;background:#FFFFFF;" version="1.1" viewBox="0 0 816 847" width="816px" zoomAndPan="magnify"><defs/><g><rect fill="#FFFFFF" height="652.373" style="stroke:#181818;stroke-width:1.0;" width="10" x="22.8413" y="93.6211"/><rect fill="#FFFFFF" height="233.998" style="stroke:#181818;stroke-width:1.0;" width="10" x="477.0508" y="116.9121"/><rect fill="#FFFFFF" height="142.125" style="stroke:#181818;stroke-width:1.0;" width="10" x="477.0508" y="382.2012"/><rect fill="#FFFFFF" height="190.377" style="stroke:#181818;stroke-width:1.0;" width="10" x="477.0508" y="555.6172"/><rect fill="#FFFFFF" height="127.7949" style="stroke:#181818;stroke-width:1.0;" width="10" x="715.2642" y="191.8242"/><rect fill="#FFFFFF" height="79.543" style="stroke:#181818;stroke-width:1.0;" width="10" x="715.2642" y="413.4922"/><rect fill="#FFFFFF" height="127.7949" style="stroke:#181818;stroke-width:1.0;" width="10" x="715.2642" y="586.9082"/><line style="stroke:#181818;stroke-width:0.5;stroke-dasharray:5.0,5.0;" x1="27" x2="27" y1="83.6211" y2="763.9941"/><line style="stroke:#181818;stroke-width:0.5;stroke-dasharray:5.0,5.0;" x1="481.2476" x2="481.2476" y1="83.6211" y2="763.9941"/><line style="stroke:#181818;stroke-width:0.5;stroke-dasharray:5.0,5.0;" x1="720.1162" x2="720.1162" y1="156.7227" y2="763.9941"/><text fill="#000000" font-family="sans-serif" font-size="14" lengthAdjust="spacing" textLength="39.6826" x="5" y="80.1074">Player</text><ellipse cx="27.8413" cy="13.5" fill="#E3E3E3" rx="8" ry="8" style="stroke:#181818;stroke-width:0.5;"/><path d="M27.8413,21.5 L27.8413,48.5 M14.8413,29.5 L40.8413,29.5 M27.8413,48.5 L14.8413,63.5 M27.8413,48.5 L40.8413,63.5 " fill="none" style="stroke:#181818;stroke-width:0.5;"/><text fill="#000000" font-family="sans-serif" font-size="14" lengthAdjust="spacing" textLength="39.6826" x="5" y="778.1016">Player</text><ellipse cx="27.8413" cy="790.1152" fill="#E3E3E3" rx="8" ry="8" style="stroke:#181818;stroke-width:0.5;"/><path d="M27.8413,798.1152 L27.8413,825.1152 M14.8413,806.1152 L40.8413,806.1152 M27.8413,825.1152 L14.8413,840.1152 M27.8413,825.1152 L40.8413,840.1152 " fill="none" style="stroke:#181818;stroke-width:0.5;"/><rect fill="#E3E3E3" height="32.6211" rx="2.5" ry="2.5" style="stroke:#181818;stroke-width:0.5;" width="127.6064" x="418.2476" y="50"/><text fill="#000000" font-family="sans-serif" font-size="14" lengthAdjust="spacing" textLength="113.6064" x="425.2476" y="72.1074">:BuyLocomotiveUI</text><rect fill="#E3E3E3" height="32.6211" rx="2.5" ry="2.5" style="stroke:#181818;stroke-width:0.5;" width="127.6064" x="418.2476" y="762.9941"/><text fill="#000000" font-family="sans-serif" font-size="14" lengthAdjust="spacing" textLength="113.6064" x="425.2476" y="785.1016">:BuyLocomotiveUI</text><rect fill="#E3E3E3" height="32.6211" rx="2.5" ry="2.5" style="stroke:#181818;stroke-width:0.5;" width="174.2959" x="633.1162" y="762.9941"/><text fill="#000000" font-family="sans-serif" font-size="14" lengthAdjust="spacing" textLength="160.2959" x="640.1162" y="785.1016">:BuyLocomotiveController</text><rect fill="#FFFFFF" height="652.373" style="stroke:#181818;stroke-width:1.0;" width="10" x="22.8413" y="93.6211"/><rect fill="#FFFFFF" height="233.998" style="stroke:#181818;stroke-width:1.0;" width="10" x="477.0508" y="116.9121"/><rect fill="#FFFFFF" height="142.125" style="stroke:#181818;stroke-width:1.0;" width="10" x="477.0508" y="382.2012"/><rect fill="#FFFFFF" height="190.377" style="stroke:#181818;stroke-width:1.0;" width="10" x="477.0508" y="555.6172"/><rect fill="#FFFFFF" height="127.7949" style="stroke:#181818;stroke-width:1.0;" width="10" x="715.2642" y="191.8242"/><rect fill="#FFFFFF" height="79.543" style="stroke:#181818;stroke-width:1.0;" width="10" x="715.2642" y="413.4922"/><rect fill="#FFFFFF" height="127.7949" style="stroke:#181818;stroke-width:1.0;" width="10" x="715.2642" y="586.9082"/><polygon fill="#181818" points="465.0508,112.9121,475.0508,116.9121,465.0508,120.9121,469.0508,116.9121" style="stroke:#181818;stroke-width:1.0;"/><line style="stroke:#181818;stroke-width:1.0;" x1="32.8413" x2="471.0508" y1="116.9121" y2="116.9121"/><text fill="#000000" font-family="sans-serif" font-size="13" font-weight="bold" lengthAdjust="spacing" textLength="7.23" x="39.8413" y="111.6494">1</text><text fill="#000000" font-family="sans-serif" font-size="13" lengthAdjust="spacing" textLength="142.3462" x="51.0713" y="111.6494">asks to buy a locomotive</text><polygon fill="#181818" points="621.1162,144.2031,631.1162,148.2031,621.1162,152.2031,625.1162,148.2031" style="stroke:#181818;stroke-width:1.0;"/><line style="stroke:#181818;stroke-width:1.0;stroke-dasharray:2.0,2.0;" x1="487.0508" x2="627.1162" y1="148.2031" y2="148.2031"/><text fill="#000000" font-family="sans-serif" font-size="13" font-weight="bold" lengthAdjust="spacing" textLength="7.23" x="494.0508" y="142.9404">2</text><text fill="#000000" font-family="sans-serif" font-size="13" lengthAdjust="spacing" textLength="44.7891" x="505.2808" y="142.9404">create()</text><rect fill="#E3E3E3" height="32.6211" rx="2.5" ry="2.5" style="stroke:#181818;stroke-width:0.5;" width="174.2959" x="633.1162" y="124.9121"/><text fill="#000000" font-family="sans-serif" font-size="14" lengthAdjust="spacing" textLength="160.2959" x="640.1162" y="147.0195">:BuyLocomotiveController</text><polygon fill="#181818" points="703.2642,187.8242,713.2642,191.8242,703.2642,195.8242,707.2642,191.8242" style="stroke:#181818;stroke-width:1.0;"/><line style="stroke:#181818;stroke-width:1.0;" x1="487.0508" x2="709.2642" y1="191.8242" y2="191.8242"/><text fill="#000000" font-family="sans-serif" font-size="13" font-weight="bold" lengthAdjust="spacing" textLength="7.23" x="494.0508" y="186.5615">3</text><text fill="#000000" font-family="sans-serif" font-size="13" lengthAdjust="spacing" textLength="152.4644" x="505.2808" y="186.5615">getAvailableLocomotives()</text><rect fill="none" height="43.252" style="stroke:#000000;stroke-width:1.5;" width="180.2959" x="630.1162" y="199.8242"/><path d="M630.1162,199.8242 L691.1162,199.8242 L691.1162,208.8242 L681.1162,218.8242 L630.1162,218.8242 L630.1162,199.8242 " fill="#EEEEEE" style="stroke:#000000;stroke-width:2.0;"/><text fill="#000000" font-family="sans-serif" font-size="13" font-weight="bold" lengthAdjust="spacing" textLength="16.6182" x="643.1162" y="215.8525">ref</text><text fill="#000000" font-family="sans-serif" font-size="12" lengthAdjust="spacing" textLength="165.4219" x="637.5532" y="235.7734">Get Current Scenario and Date</text><rect fill="none" height="43.252" style="stroke:#000000;stroke-width:1.5;" width="180.2959" x="630.1162" y="248.0762"/><path d="M630.1162,248.0762 L691.1162,248.0762 L691.1162,257.0762 L681.1162,267.0762 L630.1162,267.0762 L630.1162,248.0762 " fill="#EEEEEE" style="stroke:#000000;stroke-width:2.0;"/><text fill="#000000" font-family="sans-serif" font-size="13" font-weight="bold" lengthAdjust="spacing" textLength="16.6182" x="643.1162" y="264.1045">ref</text><text fill="#000000" font-family="sans-serif" font-size="12" lengthAdjust="spacing" textLength="142.0723" x="649.228" y="284.0254">Get Available Locomotives</text><polygon fill="#181818" points="498.0508,315.6191,488.0508,319.6191,498.0508,323.6191,494.0508,319.6191" style="stroke:#181818;stroke-width:1.0;"/><line style="stroke:#181818;stroke-width:1.0;stroke-dasharray:2.0,2.0;" x1="492.0508" x2="719.2642" y1="319.6191" y2="319.6191"/><text fill="#000000" font-family="sans-serif" font-size="13" font-weight="bold" lengthAdjust="spacing" textLength="7.23" x="504.0508" y="314.3564">4</text><text fill="#000000" font-family="sans-serif" font-size="13" lengthAdjust="spacing" textLength="124.2935" x="515.2808" y="314.3564">availableLocomotives</text><polygon fill="#181818" points="43.8413,346.9102,33.8413,350.9102,43.8413,354.9102,39.8413,350.9102" style="stroke:#181818;stroke-width:1.0;"/><line style="stroke:#181818;stroke-width:1.0;stroke-dasharray:2.0,2.0;" x1="37.8413" x2="481.0508" y1="350.9102" y2="350.9102"/><text fill="#000000" font-family="sans-serif" font-size="13" font-weight="bold" lengthAdjust="spacing" textLength="7.23" x="49.8413" y="345.6475">5</text><text fill="#000000" font-family="sans-serif" font-size="13" lengthAdjust="spacing" textLength="408.9795" x="61.0713" y="345.6475">shows a list of available locomotives (for the scenario and current date)</text><polygon fill="#181818" points="465.0508,378.2012,475.0508,382.2012,465.0508,386.2012,469.0508,382.2012" style="stroke:#181818;stroke-width:1.0;"/><line style="stroke:#181818;stroke-width:1.0;" x1="32.8413" x2="471.0508" y1="382.2012" y2="382.2012"/><text fill="#000000" font-family="sans-serif" font-size="13" font-weight="bold" lengthAdjust="spacing" textLength="7.23" x="39.8413" y="376.9385">6</text><text fill="#000000" font-family="sans-serif" font-size="13" lengthAdjust="spacing" textLength="117.0508" x="51.0713" y="376.9385">selects a locomotive</text><polygon fill="#181818" points="703.2642,409.4922,713.2642,413.4922,703.2642,417.4922,707.2642,413.4922" style="stroke:#181818;stroke-width:1.0;"/><line style="stroke:#181818;stroke-width:1.0;" x1="487.0508" x2="709.2642" y1="413.4922" y2="413.4922"/><text fill="#000000" font-family="sans-serif" font-size="13" font-weight="bold" lengthAdjust="spacing" textLength="7.23" x="494.0508" y="408.2295">7</text><text fill="#000000" font-family="sans-serif" font-size="13" lengthAdjust="spacing" textLength="168.3462" x="505.2808" y="408.2295">getLocomotive(locomotiveID)</text><rect fill="none" height="43.252" style="stroke:#000000;stroke-width:1.5;" width="180.2959" x="630.1162" y="421.4922"/><path d="M630.1162,421.4922 L691.1162,421.4922 L691.1162,430.4922 L681.1162,440.4922 L630.1162,440.4922 L630.1162,421.4922 " fill="#EEEEEE" style="stroke:#000000;stroke-width:2.0;"/><text fill="#000000" font-family="sans-serif" font-size="13" font-weight="bold" lengthAdjust="spacing" textLength="16.6182" x="643.1162" y="437.5205">ref</text><text fill="#000000" font-family="sans-serif" font-size="12" lengthAdjust="spacing" textLength="84.041" x="678.2437" y="457.4414">Get Locomotive</text><polygon fill="#181818" points="498.0508,489.0352,488.0508,493.0352,498.0508,497.0352,494.0508,493.0352" style="stroke:#181818;stroke-width:1.0;"/><line style="stroke:#181818;stroke-width:1.0;stroke-dasharray:2.0,2.0;" x1="492.0508" x2="719.2642" y1="493.0352" y2="493.0352"/><text fill="#000000" font-family="sans-serif" font-size="13" font-weight="bold" lengthAdjust="spacing" textLength="7.23" x="504.0508" y="487.7725">8</text><text fill="#000000" font-family="sans-serif" font-size="13" lengthAdjust="spacing" textLength="62.1372" x="515.2808" y="487.7725">locomotive</text><polygon fill="#181818" points="43.8413,520.3262,33.8413,524.3262,43.8413,528.3262,39.8413,524.3262" style="stroke:#181818;stroke-width:1.0;"/><line style="stroke:#181818;stroke-width:1.0;stroke-dasharray:2.0,2.0;" x1="37.8413" x2="481.0508" y1="524.3262" y2="524.3262"/><text fill="#000000" font-family="sans-serif" font-size="13" font-weight="bold" lengthAdjust="spacing" textLength="7.23" x="49.8413" y="519.0635">9</text><text fill="#000000" font-family="sans-serif" font-size="13" lengthAdjust="spacing" textLength="296.9814" x="61.0713" y="519.0635">shows locomotive details and requests confirmation</text><polygon fill="#181818" points="465.0508,551.6172,475.0508,555.6172,465.0508,559.6172,469.0508,555.6172" style="stroke:#181818;stroke-width:1.0;"/><line style="stroke:#181818;stroke-width:1.0;" x1="32.8413" x2="471.0508" y1="555.6172" y2="555.6172"/><text fill="#000000" font-family="sans-serif" font-size="13" font-weight="bold" lengthAdjust="spacing" textLength="14.46" x="39.8413" y="550.3545">10</text><text fill="#000000" font-family="sans-serif" font-size="13" lengthAdjust="spacing" textLength="106.209" x="58.3013" y="550.3545">confirms purchase</text><polygon fill="#181818" points="703.2642,582.9082,713.2642,586.9082,703.2642,590.9082,707.2642,586.9082" style="stroke:#181818;stroke-width:1.0;"/><line style="stroke:#181818;stroke-width:1.0;" x1="487.0508" x2="709.2642" y1="586.9082" y2="586.9082"/><text fill="#000000" font-family="sans-serif" font-size="13" font-weight="bold" lengthAdjust="spacing" textLength="14.46" x="494.0508" y="581.6455">11</text><text fill="#000000" font-family="sans-serif" font-size="13" lengthAdjust="spacing" textLength="190.7534" x="512.5107" y="581.6455">purchaseLocomotive(locomotive)</text><rect fill="none" height="43.252" style="stroke:#000000;stroke-width:1.5;" width="180.2959" x="630.1162" y="594.9082"/><path d="M630.1162,594.9082 L691.1162,594.9082 L691.1162,603.9082 L681.1162,613.9082 L630.1162,613.9082 L630.1162,594.9082 " fill="#EEEEEE" style="stroke:#000000;stroke-width:2.0;"/><text fill="#000000" font-family="sans-serif" font-size="13" font-weight="bold" lengthAdjust="spacing" textLength="16.6182" x="643.1162" y="610.9365">ref</text><text fill="#000000" font-family="sans-serif" font-size="12" lengthAdjust="spacing" textLength="134.0449" x="653.2417" y="630.8574">Get Player From Session</text><rect fill="none" height="43.252" style="stroke:#000000;stroke-width:1.5;" width="180.2959" x="630.1162" y="643.1602"/><path d="M630.1162,643.1602 L691.1162,643.1602 L691.1162,652.1602 L681.1162,662.1602 L630.1162,662.1602 L630.1162,643.1602 " fill="#EEEEEE" style="stroke:#000000;stroke-width:2.0;"/><text fill="#000000" font-family="sans-serif" font-size="13" font-weight="bold" lengthAdjust="spacing" textLength="16.6182" x="643.1162" y="659.1885">ref</text><text fill="#000000" font-family="sans-serif" font-size="12" lengthAdjust="spacing" textLength="115.3945" x="662.5669" y="679.1094">Purchase Locomotive</text><polygon fill="#181818" points="498.0508,710.7031,488.0508,714.7031,498.0508,718.7031,494.0508,714.7031" style="stroke:#181818;stroke-width:1.0;"/><line style="stroke:#181818;stroke-width:1.0;stroke-dasharray:2.0,2.0;" x1="492.0508" x2="719.2642" y1="714.7031" y2="714.7031"/><text fill="#000000" font-family="sans-serif" font-size="13" font-weight="bold" lengthAdjust="spacing" textLength="14.46" x="504.0508" y="709.4404">12</text><text fill="#000000" font-family="sans-serif" font-size="13" lengthAdjust="spacing" textLength="22.4009" x="522.5107" y="709.4404">true</text><polygon fill="#181818" points="38.8413,741.9941,28.8413,745.9941,38.8413,749.9941,34.8413,745.9941" style="stroke:#181818;stroke-width:1.0;"/><line style="stroke:#181818;stroke-width:1.0;stroke-dasharray:2.0,2.0;" x1="32.8413" x2="481.0508" y1="745.9941" y2="745.9941"/><text fill="#000000" font-family="sans-serif" font-size="13" font-weight="bold" lengthAdjust="spacing" textLength="14.46" x="44.8413" y="740.7314">13</text><text fill="#000000" font-family="sans-serif" font-size="13" lengthAdjust="spacing" textLength="155.3589" x="63.3013" y="740.7314">displays operation success</text><!--SRC=[hLJ1Zjf03BtFLrXSIbVY1pXKsh9jXSG1BTr3ZsRYa16JSJgUiENlQv8GGfUkYDev9PddP_iznx9teSA89PGSs1QHIu8KQpBItrHezxYZJJfwWaWsOTZv8K0ApFZLXHtaw8MCmJfngCijHMC-52uZo9dJbdyPj8aZJDOUZnGdW0BhrUEFByz6cPAphiAGO3B_N1zNRBdav0xqico0ByltG0iEARBt7UlY-_FAdBAv0oOw9p6Wfts6sITbXBc2zmA9OLiV0S7tX0ss9z3aq1sDccdmASF3WnBOI8gOVhm2jFTwkwFqU43dSUlfKgqCuFr3f1puGB4j7WRd6oLOr36Izhsn530w1WmPF6dc7adwGJdCdOHzMJ2ew-zalHHlo9fEPxsUDxhjuHbTq_mfQkVDN4UAN-NaXvC4d5zO1mu9J7CTfbGGo50KsocLQPfMva5QDVBM50Xv7MovVmA61bywdLwYbq-ZBLvTf_ud6_nRhf7YNnWqCgdyqgWRwMTDeb9P3hcB9IR7uKwLkn21gewsGBbJuZFwfiwZLMvt3tpLLGSR4ZcNF_8NMdT5_LVNciqxsg_CIQLD2N15iV43fBPMUxlbo-2rMuk_0G00]--></g></svg>