<svg xmlns="http://www.w3.org/2000/svg" xmlns:xlink="http://www.w3.org/1999/xlink" contentStyleType="text/css" height="562px" preserveAspectRatio="none" style="width:638px;height:562px;background:#FFFFFF;" version="1.1" viewBox="0 0 638 562" width="638px" zoomAndPan="magnify"><defs/><g><rect fill="#FFFFFF" height="368.123" style="stroke:#181818;stroke-width:1.0;" width="10" x="22.8413" y="93.6211"/><rect fill="#FFFFFF" height="123.1641" style="stroke:#181818;stroke-width:1.0;" width="10" x="365.0527" y="116.9121"/><rect fill="#FFFFFF" height="79.543" style="stroke:#181818;stroke-width:1.0;" width="10" x="365.0527" y="271.3672"/><rect fill="#FFFFFF" height="79.543" style="stroke:#181818;stroke-width:1.0;" width="10" x="365.0527" y="382.2012"/><line style="stroke:#181818;stroke-width:0.5;stroke-dasharray:5.0,5.0;" x1="27" x2="27" y1="83.6211" y2="479.7441"/><line style="stroke:#181818;stroke-width:0.5;stroke-dasharray:5.0,5.0;" x1="369.2495" x2="369.2495" y1="83.6211" y2="479.7441"/><line style="stroke:#181818;stroke-width:0.5;stroke-dasharray:5.0,5.0;" x1="542.0718" x2="542.0718" y1="156.7227" y2="479.7441"/><text fill="#000000" font-family="sans-serif" font-size="14" lengthAdjust="spacing" textLength="39.6826" x="5" y="80.1074">Player</text><ellipse cx="27.8413" cy="13.5" fill="#E2E2F0" rx="8" ry="8" style="stroke:#181818;stroke-width:0.5;"/><path d="M27.8413,21.5 L27.8413,48.5 M14.8413,29.5 L40.8413,29.5 M27.8413,48.5 L14.8413,63.5 M27.8413,48.5 L40.8413,63.5 " fill="none" style="stroke:#181818;stroke-width:0.5;"/><text fill="#000000" font-family="sans-serif" font-size="14" lengthAdjust="spacing" textLength="39.6826" x="5" y="493.8516">Player</text><ellipse cx="27.8413" cy="505.8652" fill="#E2E2F0" rx="8" ry="8" style="stroke:#181818;stroke-width:0.5;"/><path d="M27.8413,513.8652 L27.8413,540.8652 M14.8413,521.8652 L40.8413,521.8652 M27.8413,540.8652 L14.8413,555.8652 M27.8413,540.8652 L40.8413,555.8652 " fill="none" style="stroke:#181818;stroke-width:0.5;"/><rect fill="#E2E2F0" height="32.6211" rx="2.5" ry="2.5" style="stroke:#181818;stroke-width:0.5;" width="127.6064" x="306.2495" y="50"/><text fill="#000000" font-family="sans-serif" font-size="14" lengthAdjust="spacing" textLength="113.6064" x="313.2495" y="72.1074">:BuyLocomotiveUI</text><rect fill="#E2E2F0" height="32.6211" rx="2.5" ry="2.5" style="stroke:#181818;stroke-width:0.5;" width="127.6064" x="306.2495" y="478.7441"/><text fill="#000000" font-family="sans-serif" font-size="14" lengthAdjust="spacing" textLength="113.6064" x="313.2495" y="500.8516">:BuyLocomotiveUI</text><rect fill="#E2E2F0" height="32.6211" rx="2.5" ry="2.5" style="stroke:#181818;stroke-width:0.5;" width="174.2959" x="455.0718" y="478.7441"/><text fill="#000000" font-family="sans-serif" font-size="14" lengthAdjust="spacing" textLength="160.2959" x="462.0718" y="500.8516">:BuyLocomotiveController</text><rect fill="#FFFFFF" height="368.123" style="stroke:#181818;stroke-width:1.0;" width="10" x="22.8413" y="93.6211"/><rect fill="#FFFFFF" height="123.1641" style="stroke:#181818;stroke-width:1.0;" width="10" x="365.0527" y="116.9121"/><rect fill="#FFFFFF" height="79.543" style="stroke:#181818;stroke-width:1.0;" width="10" x="365.0527" y="271.3672"/><rect fill="#FFFFFF" height="79.543" style="stroke:#181818;stroke-width:1.0;" width="10" x="365.0527" y="382.2012"/><polygon fill="#181818" points="353.0527,112.9121,363.0527,116.9121,353.0527,120.9121,357.0527,116.9121" style="stroke:#181818;stroke-width:1.0;"/><line style="stroke:#181818;stroke-width:1.0;" x1="32.8413" x2="359.0527" y1="116.9121" y2="116.9121"/><text fill="#000000" font-family="sans-serif" font-size="13" font-weight="bold" lengthAdjust="spacing" textLength="7.23" x="39.8413" y="111.6494">1</text><text fill="#000000" font-family="sans-serif" font-size="13" lengthAdjust="spacing" textLength="142.3462" x="51.0713" y="111.6494">asks to buy a locomotive</text><polygon fill="#181818" points="443.0718,144.2031,453.0718,148.2031,443.0718,152.2031,447.0718,148.2031" style="stroke:#181818;stroke-width:1.0;"/><line style="stroke:#181818;stroke-width:1.0;stroke-dasharray:2.0,2.0;" x1="375.0527" x2="449.0718" y1="148.2031" y2="148.2031"/><text fill="#000000" font-family="sans-serif" font-size="13" font-weight="bold" lengthAdjust="spacing" textLength="7.23" x="382.0527" y="142.9404">2</text><text fill="#000000" font-family="sans-serif" font-size="13" lengthAdjust="spacing" textLength="44.7891" x="393.2827" y="142.9404">create()</text><rect fill="#E2E2F0" height="32.6211" rx="2.5" ry="2.5" style="stroke:#181818;stroke-width:0.5;" width="174.2959" x="455.0718" y="124.9121"/><text fill="#000000" font-family="sans-serif" font-size="14" lengthAdjust="spacing" textLength="160.2959" x="462.0718" y="147.0195">:BuyLocomotiveController</text><rect fill="none" height="43.252" style="stroke:#000000;stroke-width:1.5;" width="329.1182" x="303.2495" y="168.5332"/><path d="M303.2495,168.5332 L364.2495,168.5332 L364.2495,177.5332 L354.2495,187.5332 L303.2495,187.5332 L303.2495,168.5332 " fill="#EEEEEE" style="stroke:#000000;stroke-width:2.0;"/><text fill="#000000" font-family="sans-serif" font-size="13" font-weight="bold" lengthAdjust="spacing" textLength="16.6182" x="316.2495" y="184.5615">ref</text><text fill="#000000" font-family="sans-serif" font-size="12" lengthAdjust="spacing" textLength="142.0723" x="396.7725" y="204.4824">Get Available Locomotives</text><polygon fill="#181818" points="43.8413,236.0762,33.8413,240.0762,43.8413,244.0762,39.8413,240.0762" style="stroke:#181818;stroke-width:1.0;"/><line style="stroke:#181818;stroke-width:1.0;stroke-dasharray:2.0,2.0;" x1="37.8413" x2="369.0527" y1="240.0762" y2="240.0762"/><text fill="#000000" font-family="sans-serif" font-size="13" font-weight="bold" lengthAdjust="spacing" textLength="7.23" x="49.8413" y="234.8135">3</text><text fill="#000000" font-family="sans-serif" font-size="13" lengthAdjust="spacing" textLength="197.9771" x="61.0713" y="234.8135">shows list of available locomotives</text><polygon fill="#181818" points="353.0527,267.3672,363.0527,271.3672,353.0527,275.3672,357.0527,271.3672" style="stroke:#181818;stroke-width:1.0;"/><line style="stroke:#181818;stroke-width:1.0;" x1="32.8413" x2="359.0527" y1="271.3672" y2="271.3672"/><text fill="#000000" font-family="sans-serif" font-size="13" font-weight="bold" lengthAdjust="spacing" textLength="7.23" x="39.8413" y="266.1045">4</text><text fill="#000000" font-family="sans-serif" font-size="13" lengthAdjust="spacing" textLength="117.0508" x="51.0713" y="266.1045">selects a locomotive</text><rect fill="none" height="43.252" style="stroke:#000000;stroke-width:1.5;" width="329.1182" x="303.2495" y="279.3672"/><path d="M303.2495,279.3672 L364.2495,279.3672 L364.2495,288.3672 L354.2495,298.3672 L303.2495,298.3672 L303.2495,279.3672 " fill="#EEEEEE" style="stroke:#000000;stroke-width:2.0;"/><text fill="#000000" font-family="sans-serif" font-size="13" font-weight="bold" lengthAdjust="spacing" textLength="16.6182" x="316.2495" y="295.3955">ref</text><text fill="#000000" font-family="sans-serif" font-size="12" lengthAdjust="spacing" textLength="124.0547" x="405.7813" y="315.3164">Get Locomotive Details</text><polygon fill="#181818" points="43.8413,346.9102,33.8413,350.9102,43.8413,354.9102,39.8413,350.9102" style="stroke:#181818;stroke-width:1.0;"/><line style="stroke:#181818;stroke-width:1.0;stroke-dasharray:2.0,2.0;" x1="37.8413" x2="369.0527" y1="350.9102" y2="350.9102"/><text fill="#000000" font-family="sans-serif" font-size="13" font-weight="bold" lengthAdjust="spacing" textLength="7.23" x="49.8413" y="345.6475">5</text><text fill="#000000" font-family="sans-serif" font-size="13" lengthAdjust="spacing" textLength="296.9814" x="61.0713" y="345.6475">shows locomotive details and requests confirmation</text><polygon fill="#181818" points="353.0527,378.2012,363.0527,382.2012,353.0527,386.2012,357.0527,382.2012" style="stroke:#181818;stroke-width:1.0;"/><line style="stroke:#181818;stroke-width:1.0;" x1="32.8413" x2="359.0527" y1="382.2012" y2="382.2012"/><text fill="#000000" font-family="sans-serif" font-size="13" font-weight="bold" lengthAdjust="spacing" textLength="7.23" x="39.8413" y="376.9385">6</text><text fill="#000000" font-family="sans-serif" font-size="13" lengthAdjust="spacing" textLength="106.209" x="51.0713" y="376.9385">confirms purchase</text><rect fill="none" height="43.252" style="stroke:#000000;stroke-width:1.5;" width="329.1182" x="303.2495" y="390.2012"/><path d="M303.2495,390.2012 L364.2495,390.2012 L364.2495,399.2012 L354.2495,409.2012 L303.2495,409.2012 L303.2495,390.2012 " fill="#EEEEEE" style="stroke:#000000;stroke-width:2.0;"/><text fill="#000000" font-family="sans-serif" font-size="13" font-weight="bold" lengthAdjust="spacing" textLength="16.6182" x="316.2495" y="406.2295">ref</text><text fill="#000000" font-family="sans-serif" font-size="12" lengthAdjust="spacing" textLength="115.3945" x="410.1113" y="426.1504">Purchase Locomotive</text><polygon fill="#181818" points="38.8413,457.7441,28.8413,461.7441,38.8413,465.7441,34.8413,461.7441" style="stroke:#181818;stroke-width:1.0;"/><line style="stroke:#181818;stroke-width:1.0;stroke-dasharray:2.0,2.0;" x1="32.8413" x2="369.0527" y1="461.7441" y2="461.7441"/><text fill="#000000" font-family="sans-serif" font-size="13" font-weight="bold" lengthAdjust="spacing" textLength="7.23" x="44.8413" y="456.4814">7</text><text fill="#000000" font-family="sans-serif" font-size="13" lengthAdjust="spacing" textLength="155.3589" x="56.0713" y="456.4814">displays operation success</text><!--SRC=[dPB1Ri8m38RlUGgB2niQBy1X4cFJXCG1iN7OqQGkZKZZBavWlFr2wKg548BvrAg_F_jBsfUDSHLwBA5anxhmN1847qcTlbIeDxYcZx2t19vqGBUstO0KcF7Ek3NaQ8MKmXZOnN95Ngb-OJA2d3ci-4UX3koXDxUu9zy359ZFnbzl2vL8mMXJeGlG6xt4_OmrbnpCbfRJEhYSNWjDs0NFrZRKoUTYfWxJp1O3_GrHaEhu3CFdH8HH2cy40iCgxW71ji0wsmBIS6WgTGrJys72O900sbDAF3ogDk4f1zwIJz6duoRGgNSACDwYiRXAvtaoa3P5BZimrFd8PlDHEd3U2LWZ0JW7R67s39PHL-2IlP1D5ohNpUyGE-d0AuMqr_rM9q9s903MdT-H96sgsUN6bnWCknibcnQ1AdfTeFpRSDxqTpHlrykCLEct5-2AVBq-IDIQvE9TTLwFX5y0]--></g></svg>