<svg xmlns="http://www.w3.org/2000/svg" xmlns:xlink="http://www.w3.org/1999/xlink" contentStyleType="text/css" height="321px" preserveAspectRatio="none" style="width:591px;height:321px;background:#FFFFFF;" version="1.1" viewBox="0 0 591 321" width="591px" zoomAndPan="magnify"><defs/><g><rect fill="#FFFFFF" height="179.7461" style="stroke:#181818;stroke-width:1.0;" width="10" x="87.1479" y="67.2422"/><rect fill="#FFFFFF" height="31.291" style="stroke:#181818;stroke-width:1.0;" width="10" x="250.4438" y="90.5332"/><rect fill="#FFFFFF" height="31.291" style="stroke:#181818;stroke-width:1.0;" width="10" x="394.6846" y="153.1152"/><rect fill="#FFFFFF" height="31.291" style="stroke:#181818;stroke-width:1.0;" width="10" x="526.4668" y="215.6973"/><line style="stroke:#181818;stroke-width:0.5;stroke-dasharray:5.0,5.0;" x1="92" x2="92" y1="57.2422" y2="264.9883"/><line style="stroke:#181818;stroke-width:0.5;stroke-dasharray:5.0,5.0;" x1="255.2959" x2="255.2959" y1="57.2422" y2="264.9883"/><line style="stroke:#181818;stroke-width:0.5;stroke-dasharray:5.0,5.0;" x1="399.5918" x2="399.5918" y1="57.2422" y2="264.9883"/><line style="stroke:#181818;stroke-width:0.5;stroke-dasharray:5.0,5.0;" x1="530.7773" x2="530.7773" y1="57.2422" y2="264.9883"/><rect fill="#E2E2F0" height="32.6211" rx="2.5" ry="2.5" style="stroke:#181818;stroke-width:0.5;" width="174.2959" x="5" y="23.6211"/><text fill="#000000" font-family="sans-serif" font-size="14" lengthAdjust="spacing" textLength="160.2959" x="12" y="45.7285">:BuyLocomotiveController</text><rect fill="#E2E2F0" height="32.6211" rx="2.5" ry="2.5" style="stroke:#181818;stroke-width:0.5;" width="174.2959" x="5" y="263.9883"/><text fill="#000000" font-family="sans-serif" font-size="14" lengthAdjust="spacing" textLength="160.2959" x="12" y="286.0957">:BuyLocomotiveController</text><rect fill="#E2E2F0" height="32.6211" rx="2.5" ry="2.5" style="stroke:#181818;stroke-width:0.5;" width="132.2959" x="189.2959" y="23.6211"/><text fill="#000000" font-family="sans-serif" font-size="14" lengthAdjust="spacing" textLength="118.2959" x="196.2959" y="45.7285">ApplicationSession</text><rect fill="#E2E2F0" height="32.6211" rx="2.5" ry="2.5" style="stroke:#181818;stroke-width:0.5;" width="132.2959" x="189.2959" y="263.9883"/><text fill="#000000" font-family="sans-serif" font-size="14" lengthAdjust="spacing" textLength="118.2959" x="196.2959" y="286.0957">ApplicationSession</text><rect fill="#E2E2F0" height="51.2422" rx="2.5" ry="2.5" style="stroke:#181818;stroke-width:0.5;" width="136.1855" x="331.5918" y="5"/><text fill="#000000" font-family="sans-serif" font-size="14" lengthAdjust="spacing" textLength="73.165" x="363.1021" y="27.1074">appSession</text><text fill="#000000" font-family="sans-serif" font-size="14" lengthAdjust="spacing" textLength="122.1855" x="338.5918" y="45.7285">:ApplicationSession</text><rect fill="#E2E2F0" height="51.2422" rx="2.5" ry="2.5" style="stroke:#181818;stroke-width:0.5;" width="136.1855" x="331.5918" y="263.9883"/><text fill="#000000" font-family="sans-serif" font-size="14" lengthAdjust="spacing" textLength="73.165" x="363.1021" y="286.0957">appSession</text><text fill="#000000" font-family="sans-serif" font-size="14" lengthAdjust="spacing" textLength="122.1855" x="338.5918" y="304.7168">:ApplicationSession</text><rect fill="#E2E2F0" height="51.2422" rx="2.5" ry="2.5" style="stroke:#181818;stroke-width:0.5;" width="107.3789" x="477.7773" y="5"/><text fill="#000000" font-family="sans-serif" font-size="14" lengthAdjust="spacing" textLength="93.3789" x="484.7773" y="27.1074">currentSession</text><text fill="#000000" font-family="sans-serif" font-size="14" lengthAdjust="spacing" textLength="83.2549" x="489.8394" y="45.7285">:UserSession</text><rect fill="#E2E2F0" height="51.2422" rx="2.5" ry="2.5" style="stroke:#181818;stroke-width:0.5;" width="107.3789" x="477.7773" y="263.9883"/><text fill="#000000" font-family="sans-serif" font-size="14" lengthAdjust="spacing" textLength="93.3789" x="484.7773" y="286.0957">currentSession</text><text fill="#000000" font-family="sans-serif" font-size="14" lengthAdjust="spacing" textLength="83.2549" x="489.8394" y="304.7168">:UserSession</text><rect fill="#FFFFFF" height="179.7461" style="stroke:#181818;stroke-width:1.0;" width="10" x="87.1479" y="67.2422"/><rect fill="#FFFFFF" height="31.291" style="stroke:#181818;stroke-width:1.0;" width="10" x="250.4438" y="90.5332"/><rect fill="#FFFFFF" height="31.291" style="stroke:#181818;stroke-width:1.0;" width="10" x="394.6846" y="153.1152"/><rect fill="#FFFFFF" height="31.291" style="stroke:#181818;stroke-width:1.0;" width="10" x="526.4668" y="215.6973"/><polygon fill="#181818" points="238.4438,86.5332,248.4438,90.5332,238.4438,94.5332,242.4438,90.5332" style="stroke:#181818;stroke-width:1.0;"/><line style="stroke:#181818;stroke-width:1.0;" x1="97.1479" x2="244.4438" y1="90.5332" y2="90.5332"/><text fill="#000000" font-family="sans-serif" font-size="13" lengthAdjust="spacing" textLength="75.8735" x="104.1479" y="85.2705">getInstance()</text><polygon fill="#181818" points="108.1479,117.8242,98.1479,121.8242,108.1479,125.8242,104.1479,121.8242" style="stroke:#181818;stroke-width:1.0;"/><line style="stroke:#181818;stroke-width:1.0;stroke-dasharray:2.0,2.0;" x1="102.1479" x2="254.4438" y1="121.8242" y2="121.8242"/><text fill="#000000" font-family="sans-serif" font-size="13" lengthAdjust="spacing" textLength="67.939" x="114.1479" y="116.5615">appSession</text><polygon fill="#181818" points="382.6846,149.1152,392.6846,153.1152,382.6846,157.1152,386.6846,153.1152" style="stroke:#181818;stroke-width:1.0;"/><line style="stroke:#181818;stroke-width:1.0;" x1="97.1479" x2="388.6846" y1="153.1152" y2="153.1152"/><text fill="#000000" font-family="sans-serif" font-size="13" lengthAdjust="spacing" textLength="116.3271" x="104.1479" y="147.8525">getCurrentSession()</text><polygon fill="#181818" points="108.1479,180.4063,98.1479,184.4063,108.1479,188.4063,104.1479,184.4063" style="stroke:#181818;stroke-width:1.0;"/><line style="stroke:#181818;stroke-width:1.0;stroke-dasharray:2.0,2.0;" x1="102.1479" x2="398.6846" y1="184.4063" y2="184.4063"/><text fill="#000000" font-family="sans-serif" font-size="13" lengthAdjust="spacing" textLength="86.709" x="114.1479" y="179.1436">currentSession</text><polygon fill="#181818" points="514.4668,211.6973,524.4668,215.6973,514.4668,219.6973,518.4668,215.6973" style="stroke:#181818;stroke-width:1.0;"/><line style="stroke:#181818;stroke-width:1.0;" x1="97.1479" x2="520.4668" y1="215.6973" y2="215.6973"/><text fill="#000000" font-family="sans-serif" font-size="13" lengthAdjust="spacing" textLength="106.9263" x="104.1479" y="210.4346">getCurrentPlayer()</text><polygon fill="#181818" points="103.1479,242.9883,93.1479,246.9883,103.1479,250.9883,99.1479,246.9883" style="stroke:#181818;stroke-width:1.0;"/><line style="stroke:#181818;stroke-width:1.0;stroke-dasharray:2.0,2.0;" x1="97.1479" x2="530.4668" y1="246.9883" y2="246.9883"/><text fill="#000000" font-family="sans-serif" font-size="13" lengthAdjust="spacing" textLength="35.4072" x="109.1479" y="241.7256">player</text><!--SRC=[XP51Ri8m44NtESM83Us22sHHYKQeGa8K9R2hXAPc21QEnxATjjo-Rg34iIZr9f7yv-NzoTWTfJPeiO66DOk3vOR0svQo_iQWE69DbJyf0al2ewvL7707tF6dr3NiKJdAil51xWZspFwTlx8Gyb98Wzh3A7zkJmiMtB2N7rImzfQL8Zi2T52ioyKmFZL6IO5Uigx8kV3eWjFLQblDgch-kXpcqPXBxatd_mzlg_doPJ5RfnZHMalQzwYD8nipYarPpfRhgqI68lH1J-SE4CxF2qoUuiz13ZNvkNPXXO8U7hlSTJ8k1PSJ3qy2h8FcqDViaZkw2VbBeszz5Ye6RUzeHUkw8HXX8zNXAk_eHl21UBBgWV9AuObiQfp-d5_Nb1HPcWwKsgMW-2hCVGC0]--></g></svg>