<svg xmlns="http://www.w3.org/2000/svg" xmlns:xlink="http://www.w3.org/1999/xlink" contentStyleType="text/css" height="1935px" preserveAspectRatio="none" style="width:1882px;height:1935px;background:#FFFFFF;" version="1.1" viewBox="0 0 1882 1935" width="1882px" zoomAndPan="magnify"><defs/><g><rect fill="#FFFFFF" height="1740.7539" style="stroke:#181818;stroke-width:1.0;" width="10" x="22.8413" y="93.6211"/><rect fill="#FFFFFF" height="325.2402" style="stroke:#181818;stroke-width:1.0;" width="10" x="484.2808" y="116.9121"/><rect fill="#FFFFFF" height="281.6191" style="stroke:#181818;stroke-width:1.0;" width="10" x="484.2808" y="473.4434"/><rect fill="#FFFFFF" height="1048.0215" style="stroke:#181818;stroke-width:1.0;" width="10" x="484.2808" y="786.3535"/><rect fill="#FFFFFF" height="219.0371" style="stroke:#181818;stroke-width:1.0;" width="10" x="838.0913" y="191.8242"/><rect fill="#FFFFFF" height="219.0371" style="stroke:#181818;stroke-width:1.0;" width="10" x="838.0913" y="504.7344"/><rect fill="#FFFFFF" height="985.4395" style="stroke:#181818;stroke-width:1.0;" width="10" x="838.0913" y="817.6445"/><rect fill="#FFFFFF" height="167.4551" style="stroke:#181818;stroke-width:1.0;" width="10" x="843.0913" y="1169.8457"/><rect fill="#FFFFFF" height="31.291" style="stroke:#181818;stroke-width:1.0;" width="10" x="1084.9165" y="223.1152"/><rect fill="#FFFFFF" height="31.291" style="stroke:#181818;stroke-width:1.0;" width="10" x="1084.9165" y="536.0254"/><rect fill="#FFFFFF" height="31.291" style="stroke:#181818;stroke-width:1.0;" width="10" x="1084.9165" y="848.9355"/><rect fill="#FFFFFF" height="31.291" style="stroke:#181818;stroke-width:1.0;" width="10" x="1188.6748" y="285.6973"/><rect fill="#FFFFFF" height="31.291" style="stroke:#181818;stroke-width:1.0;" width="10" x="1188.6748" y="598.6074"/><rect fill="#FFFFFF" height="31.291" style="stroke:#181818;stroke-width:1.0;" width="10" x="1188.6748" y="911.5176"/><rect fill="#FFFFFF" height="31.291" style="stroke:#181818;stroke-width:1.0;" width="10" x="1188.6748" y="1036.6816"/><rect fill="#FFFFFF" height="31.291" style="stroke:#181818;stroke-width:1.0;" width="10" x="1324.7261" y="348.2793"/><rect fill="#FFFFFF" height="31.291" style="stroke:#181818;stroke-width:1.0;" width="10" x="1324.7261" y="661.1895"/><rect fill="#FFFFFF" height="31.291" style="stroke:#181818;stroke-width:1.0;" width="10" x="1324.7261" y="974.0996"/><rect fill="#FFFFFF" height="31.291" style="stroke:#181818;stroke-width:1.0;" width="10" x="1324.7261" y="1677.9199"/><rect fill="#FFFFFF" height="31.291" style="stroke:#181818;stroke-width:1.0;" width="10" x="1475.1704" y="1099.2637"/><rect fill="#FFFFFF" height="31.291" style="stroke:#181818;stroke-width:1.0;" width="10" x="1475.1704" y="1740.502"/><rect fill="#FFFFFF" height="31.291" style="stroke:#181818;stroke-width:1.0;" width="10" x="1592.1563" y="1206.1367"/><rect fill="#FFFFFF" height="31.291" style="stroke:#181818;stroke-width:1.0;" width="10" x="1592.1563" y="1615.3379"/><rect fill="#FFFFFF" height="31.291" style="stroke:#181818;stroke-width:1.0;" width="10" x="1675.6836" y="1268.7188"/><rect fill="#FFFFFF" height="208.4551" style="stroke:#181818;stroke-width:1.0;" width="10" x="1675.6836" y="1375.5918"/><rect fill="#FFFFFF" height="42.291" style="stroke:#181818;stroke-width:1.0;" width="10" x="1680.6836" y="1414.8828"/><rect fill="#FFFFFF" height="42.291" style="stroke:#181818;stroke-width:1.0;" width="10" x="1680.6836" y="1503.4648"/><line style="stroke:#181818;stroke-width:0.5;stroke-dasharray:5.0,5.0;" x1="27" x2="27" y1="83.6211" y2="1852.375"/><line style="stroke:#181818;stroke-width:0.5;stroke-dasharray:5.0,5.0;" x1="488.4775" x2="488.4775" y1="83.6211" y2="1852.375"/><line style="stroke:#181818;stroke-width:0.5;stroke-dasharray:5.0,5.0;" x1="842.9434" x2="842.9434" y1="156.7227" y2="1852.375"/><line style="stroke:#181818;stroke-width:0.5;stroke-dasharray:5.0,5.0;" x1="1089.0098" x2="1089.0098" y1="83.6211" y2="1852.375"/><line style="stroke:#181818;stroke-width:0.5;stroke-dasharray:5.0,5.0;" x1="1192.8232" x2="1192.8232" y1="83.6211" y2="1852.375"/><line style="stroke:#181818;stroke-width:0.5;stroke-dasharray:5.0,5.0;" x1="1329.5264" x2="1329.5264" y1="83.6211" y2="1852.375"/><line style="stroke:#181818;stroke-width:0.5;stroke-dasharray:5.0,5.0;" x1="1479.9258" x2="1479.9258" y1="83.6211" y2="1852.375"/><line style="stroke:#181818;stroke-width:0.5;stroke-dasharray:5.0,5.0;" x1="1596.415" x2="1596.415" y1="83.6211" y2="1852.375"/><line style="stroke:#181818;stroke-width:0.5;stroke-dasharray:5.0,5.0;" x1="1679.8975" x2="1679.8975" y1="83.6211" y2="1852.375"/><text fill="#000000" font-family="sans-serif" font-size="14" lengthAdjust="spacing" textLength="39.6826" x="5" y="80.1074">Player</text><ellipse cx="27.8413" cy="13.5" fill="#E2E2F0" rx="8" ry="8" style="stroke:#181818;stroke-width:0.5;"/><path d="M27.8413,21.5 L27.8413,48.5 M14.8413,29.5 L40.8413,29.5 M27.8413,48.5 L14.8413,63.5 M27.8413,48.5 L40.8413,63.5 " fill="none" style="stroke:#181818;stroke-width:0.5;"/><text fill="#000000" font-family="sans-serif" font-size="14" lengthAdjust="spacing" textLength="39.6826" x="5" y="1866.4824">Player</text><ellipse cx="27.8413" cy="1878.4961" fill="#E2E2F0" rx="8" ry="8" style="stroke:#181818;stroke-width:0.5;"/><path d="M27.8413,1886.4961 L27.8413,1913.4961 M14.8413,1894.4961 L40.8413,1894.4961 M27.8413,1913.4961 L14.8413,1928.4961 M27.8413,1913.4961 L40.8413,1928.4961 " fill="none" style="stroke:#181818;stroke-width:0.5;"/><rect fill="#E2E2F0" height="32.6211" rx="2.5" ry="2.5" style="stroke:#181818;stroke-width:0.5;" width="127.6064" x="425.4775" y="50"/><text fill="#000000" font-family="sans-serif" font-size="14" lengthAdjust="spacing" textLength="113.6064" x="432.4775" y="72.1074">:BuyLocomotiveUI</text><rect fill="#E2E2F0" height="32.6211" rx="2.5" ry="2.5" style="stroke:#181818;stroke-width:0.5;" width="127.6064" x="425.4775" y="1851.375"/><text fill="#000000" font-family="sans-serif" font-size="14" lengthAdjust="spacing" textLength="113.6064" x="432.4775" y="1873.4824">:BuyLocomotiveUI</text><rect fill="#E2E2F0" height="32.6211" rx="2.5" ry="2.5" style="stroke:#181818;stroke-width:0.5;" width="174.2959" x="755.9434" y="1851.375"/><text fill="#000000" font-family="sans-serif" font-size="14" lengthAdjust="spacing" textLength="160.2959" x="762.9434" y="1873.4824">:BuyLocomotiveController</text><rect fill="#E2E2F0" height="32.6211" rx="2.5" ry="2.5" style="stroke:#181818;stroke-width:0.5;" width="91.8135" x="1044.0098" y="50"/><text fill="#000000" font-family="sans-serif" font-size="14" lengthAdjust="spacing" textLength="77.8135" x="1051.0098" y="72.1074">Repositories</text><rect fill="#E2E2F0" height="32.6211" rx="2.5" ry="2.5" style="stroke:#181818;stroke-width:0.5;" width="91.8135" x="1044.0098" y="1851.375"/><text fill="#000000" font-family="sans-serif" font-size="14" lengthAdjust="spacing" textLength="77.8135" x="1051.0098" y="1873.4824">Repositories</text><rect fill="#E2E2F0" height="51.2422" rx="2.5" ry="2.5" style="stroke:#181818;stroke-width:0.5;" width="95.7031" x="1145.8232" y="31.3789"/><text fill="#000000" font-family="sans-serif" font-size="14" lengthAdjust="spacing" textLength="72.3652" x="1157.4922" y="53.4863">repositories</text><text fill="#000000" font-family="sans-serif" font-size="14" lengthAdjust="spacing" textLength="81.7031" x="1152.8232" y="72.1074">:Repositories</text><rect fill="#E2E2F0" height="51.2422" rx="2.5" ry="2.5" style="stroke:#181818;stroke-width:0.5;" width="95.7031" x="1145.8232" y="1851.375"/><text fill="#000000" font-family="sans-serif" font-size="14" lengthAdjust="spacing" textLength="72.3652" x="1157.4922" y="1873.4824">repositories</text><text fill="#000000" font-family="sans-serif" font-size="14" lengthAdjust="spacing" textLength="81.7031" x="1152.8232" y="1892.1035">:Repositories</text><rect fill="#E2E2F0" height="51.2422" rx="2.5" ry="2.5" style="stroke:#181818;stroke-width:0.5;" width="156.3994" x="1251.5264" y="31.3789"/><text fill="#000000" font-family="sans-serif" font-size="14" lengthAdjust="spacing" textLength="133.834" x="1262.8091" y="53.4863">locomotiveRepository</text><text fill="#000000" font-family="sans-serif" font-size="14" lengthAdjust="spacing" textLength="142.3994" x="1258.5264" y="72.1074">:LocomotiveRepository</text><rect fill="#E2E2F0" height="51.2422" rx="2.5" ry="2.5" style="stroke:#181818;stroke-width:0.5;" width="156.3994" x="1251.5264" y="1851.375"/><text fill="#000000" font-family="sans-serif" font-size="14" lengthAdjust="spacing" textLength="133.834" x="1262.8091" y="1873.4824">locomotiveRepository</text><text fill="#000000" font-family="sans-serif" font-size="14" lengthAdjust="spacing" textLength="142.3994" x="1258.5264" y="1892.1035">:LocomotiveRepository</text><rect fill="#E2E2F0" height="51.2422" rx="2.5" ry="2.5" style="stroke:#181818;stroke-width:0.5;" width="124.4893" x="1417.9258" y="31.3789"/><text fill="#000000" font-family="sans-serif" font-size="14" lengthAdjust="spacing" textLength="105.0479" x="1427.6465" y="53.4863">playerRepository</text><text fill="#000000" font-family="sans-serif" font-size="14" lengthAdjust="spacing" textLength="110.4893" x="1424.9258" y="72.1074">:PlayerRepository</text><rect fill="#E2E2F0" height="51.2422" rx="2.5" ry="2.5" style="stroke:#181818;stroke-width:0.5;" width="124.4893" x="1417.9258" y="1851.375"/><text fill="#000000" font-family="sans-serif" font-size="14" lengthAdjust="spacing" textLength="105.0479" x="1427.6465" y="1873.4824">playerRepository</text><text fill="#000000" font-family="sans-serif" font-size="14" lengthAdjust="spacing" textLength="110.4893" x="1424.9258" y="1892.1035">:PlayerRepository</text><rect fill="#E2E2F0" height="51.2422" rx="2.5" ry="2.5" style="stroke:#181818;stroke-width:0.5;" width="89.4824" x="1552.415" y="31.3789"/><text fill="#000000" font-family="sans-serif" font-size="14" lengthAdjust="spacing" textLength="66.917" x="1563.6978" y="53.4863">locomotive</text><text fill="#000000" font-family="sans-serif" font-size="14" lengthAdjust="spacing" textLength="75.4824" x="1559.415" y="72.1074">:Locomotive</text><rect fill="#E2E2F0" height="51.2422" rx="2.5" ry="2.5" style="stroke:#181818;stroke-width:0.5;" width="89.4824" x="1552.415" y="1851.375"/><text fill="#000000" font-family="sans-serif" font-size="14" lengthAdjust="spacing" textLength="66.917" x="1563.6978" y="1873.4824">locomotive</text><text fill="#000000" font-family="sans-serif" font-size="14" lengthAdjust="spacing" textLength="75.4824" x="1559.415" y="1892.1035">:Locomotive</text><rect fill="#E2E2F0" height="51.2422" rx="2.5" ry="2.5" style="stroke:#181818;stroke-width:0.5;" width="57.5723" x="1651.8975" y="31.3789"/><text fill="#000000" font-family="sans-serif" font-size="14" lengthAdjust="spacing" textLength="38.1309" x="1661.6182" y="53.4863">player</text><text fill="#000000" font-family="sans-serif" font-size="14" lengthAdjust="spacing" textLength="43.5723" x="1658.8975" y="72.1074">:Player</text><rect fill="#E2E2F0" height="51.2422" rx="2.5" ry="2.5" style="stroke:#181818;stroke-width:0.5;" width="57.5723" x="1651.8975" y="1851.375"/><text fill="#000000" font-family="sans-serif" font-size="14" lengthAdjust="spacing" textLength="38.1309" x="1661.6182" y="1873.4824">player</text><text fill="#000000" font-family="sans-serif" font-size="14" lengthAdjust="spacing" textLength="43.5723" x="1658.8975" y="1892.1035">:Player</text><rect fill="#FFFFFF" height="1740.7539" style="stroke:#181818;stroke-width:1.0;" width="10" x="22.8413" y="93.6211"/><rect fill="#FFFFFF" height="325.2402" style="stroke:#181818;stroke-width:1.0;" width="10" x="484.2808" y="116.9121"/><rect fill="#FFFFFF" height="281.6191" style="stroke:#181818;stroke-width:1.0;" width="10" x="484.2808" y="473.4434"/><rect fill="#FFFFFF" height="1048.0215" style="stroke:#181818;stroke-width:1.0;" width="10" x="484.2808" y="786.3535"/><rect fill="#FFFFFF" height="219.0371" style="stroke:#181818;stroke-width:1.0;" width="10" x="838.0913" y="191.8242"/><rect fill="#FFFFFF" height="219.0371" style="stroke:#181818;stroke-width:1.0;" width="10" x="838.0913" y="504.7344"/><rect fill="#FFFFFF" height="985.4395" style="stroke:#181818;stroke-width:1.0;" width="10" x="838.0913" y="817.6445"/><rect fill="#FFFFFF" height="167.4551" style="stroke:#181818;stroke-width:1.0;" width="10" x="843.0913" y="1169.8457"/><rect fill="#FFFFFF" height="31.291" style="stroke:#181818;stroke-width:1.0;" width="10" x="1084.9165" y="223.1152"/><rect fill="#FFFFFF" height="31.291" style="stroke:#181818;stroke-width:1.0;" width="10" x="1084.9165" y="536.0254"/><rect fill="#FFFFFF" height="31.291" style="stroke:#181818;stroke-width:1.0;" width="10" x="1084.9165" y="848.9355"/><rect fill="#FFFFFF" height="31.291" style="stroke:#181818;stroke-width:1.0;" width="10" x="1188.6748" y="285.6973"/><rect fill="#FFFFFF" height="31.291" style="stroke:#181818;stroke-width:1.0;" width="10" x="1188.6748" y="598.6074"/><rect fill="#FFFFFF" height="31.291" style="stroke:#181818;stroke-width:1.0;" width="10" x="1188.6748" y="911.5176"/><rect fill="#FFFFFF" height="31.291" style="stroke:#181818;stroke-width:1.0;" width="10" x="1188.6748" y="1036.6816"/><rect fill="#FFFFFF" height="31.291" style="stroke:#181818;stroke-width:1.0;" width="10" x="1324.7261" y="348.2793"/><rect fill="#FFFFFF" height="31.291" style="stroke:#181818;stroke-width:1.0;" width="10" x="1324.7261" y="661.1895"/><rect fill="#FFFFFF" height="31.291" style="stroke:#181818;stroke-width:1.0;" width="10" x="1324.7261" y="974.0996"/><rect fill="#FFFFFF" height="31.291" style="stroke:#181818;stroke-width:1.0;" width="10" x="1324.7261" y="1677.9199"/><rect fill="#FFFFFF" height="31.291" style="stroke:#181818;stroke-width:1.0;" width="10" x="1475.1704" y="1099.2637"/><rect fill="#FFFFFF" height="31.291" style="stroke:#181818;stroke-width:1.0;" width="10" x="1475.1704" y="1740.502"/><rect fill="#FFFFFF" height="31.291" style="stroke:#181818;stroke-width:1.0;" width="10" x="1592.1563" y="1206.1367"/><rect fill="#FFFFFF" height="31.291" style="stroke:#181818;stroke-width:1.0;" width="10" x="1592.1563" y="1615.3379"/><rect fill="#FFFFFF" height="31.291" style="stroke:#181818;stroke-width:1.0;" width="10" x="1675.6836" y="1268.7188"/><rect fill="#FFFFFF" height="208.4551" style="stroke:#181818;stroke-width:1.0;" width="10" x="1675.6836" y="1375.5918"/><rect fill="#FFFFFF" height="42.291" style="stroke:#181818;stroke-width:1.0;" width="10" x="1680.6836" y="1414.8828"/><rect fill="#FFFFFF" height="42.291" style="stroke:#181818;stroke-width:1.0;" width="10" x="1680.6836" y="1503.4648"/><polygon fill="#181818" points="472.2808,112.9121,482.2808,116.9121,472.2808,120.9121,476.2808,116.9121" style="stroke:#181818;stroke-width:1.0;"/><line style="stroke:#181818;stroke-width:1.0;" x1="32.8413" x2="478.2808" y1="116.9121" y2="116.9121"/><text fill="#000000" font-family="sans-serif" font-size="13" font-weight="bold" lengthAdjust="spacing" textLength="7.23" x="39.8413" y="111.6494">1</text><text fill="#000000" font-family="sans-serif" font-size="13" lengthAdjust="spacing" textLength="142.3462" x="51.0713" y="111.6494">asks to buy a locomotive</text><polygon fill="#181818" points="743.9434,144.2031,753.9434,148.2031,743.9434,152.2031,747.9434,148.2031" style="stroke:#181818;stroke-width:1.0;"/><line style="stroke:#181818;stroke-width:1.0;stroke-dasharray:2.0,2.0;" x1="494.2808" x2="749.9434" y1="148.2031" y2="148.2031"/><text fill="#000000" font-family="sans-serif" font-size="13" font-weight="bold" lengthAdjust="spacing" textLength="7.23" x="501.2808" y="142.9404">2</text><text fill="#000000" font-family="sans-serif" font-size="13" lengthAdjust="spacing" textLength="44.7891" x="512.5107" y="142.9404">create()</text><rect fill="#E2E2F0" height="32.6211" rx="2.5" ry="2.5" style="stroke:#181818;stroke-width:0.5;" width="174.2959" x="755.9434" y="124.9121"/><text fill="#000000" font-family="sans-serif" font-size="14" lengthAdjust="spacing" textLength="160.2959" x="762.9434" y="147.0195">:BuyLocomotiveController</text><polygon fill="#181818" points="826.0913,187.8242,836.0913,191.8242,826.0913,195.8242,830.0913,191.8242" style="stroke:#181818;stroke-width:1.0;"/><line style="stroke:#181818;stroke-width:1.0;" x1="494.2808" x2="832.0913" y1="191.8242" y2="191.8242"/><text fill="#000000" font-family="sans-serif" font-size="13" font-weight="bold" lengthAdjust="spacing" textLength="7.23" x="501.2808" y="186.5615">3</text><text fill="#000000" font-family="sans-serif" font-size="13" lengthAdjust="spacing" textLength="152.4644" x="512.5107" y="186.5615">getAvailableLocomotives()</text><polygon fill="#181818" points="1072.9165,219.1152,1082.9165,223.1152,1072.9165,227.1152,1076.9165,223.1152" style="stroke:#181818;stroke-width:1.0;"/><line style="stroke:#181818;stroke-width:1.0;" x1="848.0913" x2="1078.9165" y1="223.1152" y2="223.1152"/><text fill="#000000" font-family="sans-serif" font-size="13" font-weight="bold" lengthAdjust="spacing" textLength="7.23" x="855.0913" y="217.8525">4</text><text fill="#000000" font-family="sans-serif" font-size="13" lengthAdjust="spacing" textLength="75.8735" x="866.3213" y="217.8525">getInstance()</text><polygon fill="#181818" points="859.0913,250.4063,849.0913,254.4063,859.0913,258.4063,855.0913,254.4063" style="stroke:#181818;stroke-width:1.0;"/><line style="stroke:#181818;stroke-width:1.0;stroke-dasharray:2.0,2.0;" x1="853.0913" x2="1088.9165" y1="254.4063" y2="254.4063"/><text fill="#000000" font-family="sans-serif" font-size="13" font-weight="bold" lengthAdjust="spacing" textLength="7.23" x="865.0913" y="249.1436">5</text><text fill="#000000" font-family="sans-serif" font-size="13" lengthAdjust="spacing" textLength="67.1963" x="876.3213" y="249.1436">repositories</text><polygon fill="#181818" points="1176.6748,281.6973,1186.6748,285.6973,1176.6748,289.6973,1180.6748,285.6973" style="stroke:#181818;stroke-width:1.0;"/><line style="stroke:#181818;stroke-width:1.0;" x1="848.0913" x2="1182.6748" y1="285.6973" y2="285.6973"/><text fill="#000000" font-family="sans-serif" font-size="13" font-weight="bold" lengthAdjust="spacing" textLength="7.23" x="855.0913" y="280.4346">6</text><text fill="#000000" font-family="sans-serif" font-size="13" lengthAdjust="spacing" textLength="155.3462" x="866.3213" y="280.4346">getLocomotiveRepository()</text><polygon fill="#181818" points="859.0913,312.9883,849.0913,316.9883,859.0913,320.9883,855.0913,316.9883" style="stroke:#181818;stroke-width:1.0;"/><line style="stroke:#181818;stroke-width:1.0;stroke-dasharray:2.0,2.0;" x1="853.0913" x2="1192.6748" y1="316.9883" y2="316.9883"/><text fill="#000000" font-family="sans-serif" font-size="13" font-weight="bold" lengthAdjust="spacing" textLength="7.23" x="865.0913" y="311.7256">7</text><text fill="#000000" font-family="sans-serif" font-size="13" lengthAdjust="spacing" textLength="124.2744" x="876.3213" y="311.7256">locomotiveRepository</text><polygon fill="#181818" points="1312.7261,344.2793,1322.7261,348.2793,1312.7261,352.2793,1316.7261,348.2793" style="stroke:#181818;stroke-width:1.0;"/><line style="stroke:#181818;stroke-width:1.0;" x1="848.0913" x2="1318.7261" y1="348.2793" y2="348.2793"/><text fill="#000000" font-family="sans-serif" font-size="13" font-weight="bold" lengthAdjust="spacing" textLength="7.23" x="855.0913" y="343.0166">8</text><text fill="#000000" font-family="sans-serif" font-size="13" lengthAdjust="spacing" textLength="319.376" x="866.3213" y="343.0166">getAvailableLocomotives(currentScenario, currentDate)</text><polygon fill="#181818" points="859.0913,375.5703,849.0913,379.5703,859.0913,383.5703,855.0913,379.5703" style="stroke:#181818;stroke-width:1.0;"/><line style="stroke:#181818;stroke-width:1.0;stroke-dasharray:2.0,2.0;" x1="853.0913" x2="1328.7261" y1="379.5703" y2="379.5703"/><text fill="#000000" font-family="sans-serif" font-size="13" font-weight="bold" lengthAdjust="spacing" textLength="7.23" x="865.0913" y="374.3076">9</text><text fill="#000000" font-family="sans-serif" font-size="13" lengthAdjust="spacing" textLength="124.2935" x="876.3213" y="374.3076">availableLocomotives</text><polygon fill="#181818" points="505.2808,406.8613,495.2808,410.8613,505.2808,414.8613,501.2808,410.8613" style="stroke:#181818;stroke-width:1.0;"/><line style="stroke:#181818;stroke-width:1.0;stroke-dasharray:2.0,2.0;" x1="499.2808" x2="842.0913" y1="410.8613" y2="410.8613"/><text fill="#000000" font-family="sans-serif" font-size="13" font-weight="bold" lengthAdjust="spacing" textLength="14.46" x="511.2808" y="405.5986">10</text><text fill="#000000" font-family="sans-serif" font-size="13" lengthAdjust="spacing" textLength="124.2935" x="529.7407" y="405.5986">availableLocomotives</text><polygon fill="#181818" points="43.8413,438.1523,33.8413,442.1523,43.8413,446.1523,39.8413,442.1523" style="stroke:#181818;stroke-width:1.0;"/><line style="stroke:#181818;stroke-width:1.0;stroke-dasharray:2.0,2.0;" x1="37.8413" x2="488.2808" y1="442.1523" y2="442.1523"/><text fill="#000000" font-family="sans-serif" font-size="13" font-weight="bold" lengthAdjust="spacing" textLength="14.46" x="49.8413" y="436.8896">11</text><text fill="#000000" font-family="sans-serif" font-size="13" lengthAdjust="spacing" textLength="408.9795" x="68.3013" y="436.8896">shows a list of available locomotives (for the scenario and current date)</text><polygon fill="#181818" points="472.2808,469.4434,482.2808,473.4434,472.2808,477.4434,476.2808,473.4434" style="stroke:#181818;stroke-width:1.0;"/><line style="stroke:#181818;stroke-width:1.0;" x1="32.8413" x2="478.2808" y1="473.4434" y2="473.4434"/><text fill="#000000" font-family="sans-serif" font-size="13" font-weight="bold" lengthAdjust="spacing" textLength="14.46" x="39.8413" y="468.1807">12</text><text fill="#000000" font-family="sans-serif" font-size="13" lengthAdjust="spacing" textLength="117.0508" x="58.3013" y="468.1807">selects a locomotive</text><polygon fill="#181818" points="826.0913,500.7344,836.0913,504.7344,826.0913,508.7344,830.0913,504.7344" style="stroke:#181818;stroke-width:1.0;"/><line style="stroke:#181818;stroke-width:1.0;" x1="494.2808" x2="832.0913" y1="504.7344" y2="504.7344"/><text fill="#000000" font-family="sans-serif" font-size="13" font-weight="bold" lengthAdjust="spacing" textLength="14.46" x="501.2808" y="499.4717">13</text><text fill="#000000" font-family="sans-serif" font-size="13" lengthAdjust="spacing" textLength="208.0825" x="519.7407" y="499.4717">getLocomotiveDetails(locomotiveID)</text><polygon fill="#181818" points="1072.9165,532.0254,1082.9165,536.0254,1072.9165,540.0254,1076.9165,536.0254" style="stroke:#181818;stroke-width:1.0;"/><line style="stroke:#181818;stroke-width:1.0;" x1="848.0913" x2="1078.9165" y1="536.0254" y2="536.0254"/><text fill="#000000" font-family="sans-serif" font-size="13" font-weight="bold" lengthAdjust="spacing" textLength="14.46" x="855.0913" y="530.7627">14</text><text fill="#000000" font-family="sans-serif" font-size="13" lengthAdjust="spacing" textLength="75.8735" x="873.5513" y="530.7627">getInstance()</text><polygon fill="#181818" points="859.0913,563.3164,849.0913,567.3164,859.0913,571.3164,855.0913,567.3164" style="stroke:#181818;stroke-width:1.0;"/><line style="stroke:#181818;stroke-width:1.0;stroke-dasharray:2.0,2.0;" x1="853.0913" x2="1088.9165" y1="567.3164" y2="567.3164"/><text fill="#000000" font-family="sans-serif" font-size="13" font-weight="bold" lengthAdjust="spacing" textLength="14.46" x="865.0913" y="562.0537">15</text><text fill="#000000" font-family="sans-serif" font-size="13" lengthAdjust="spacing" textLength="67.1963" x="883.5513" y="562.0537">repositories</text><polygon fill="#181818" points="1176.6748,594.6074,1186.6748,598.6074,1176.6748,602.6074,1180.6748,598.6074" style="stroke:#181818;stroke-width:1.0;"/><line style="stroke:#181818;stroke-width:1.0;" x1="848.0913" x2="1182.6748" y1="598.6074" y2="598.6074"/><text fill="#000000" font-family="sans-serif" font-size="13" font-weight="bold" lengthAdjust="spacing" textLength="14.46" x="855.0913" y="593.3447">16</text><text fill="#000000" font-family="sans-serif" font-size="13" lengthAdjust="spacing" textLength="155.3462" x="873.5513" y="593.3447">getLocomotiveRepository()</text><polygon fill="#181818" points="859.0913,625.8984,849.0913,629.8984,859.0913,633.8984,855.0913,629.8984" style="stroke:#181818;stroke-width:1.0;"/><line style="stroke:#181818;stroke-width:1.0;stroke-dasharray:2.0,2.0;" x1="853.0913" x2="1192.6748" y1="629.8984" y2="629.8984"/><text fill="#000000" font-family="sans-serif" font-size="13" font-weight="bold" lengthAdjust="spacing" textLength="14.46" x="865.0913" y="624.6357">17</text><text fill="#000000" font-family="sans-serif" font-size="13" lengthAdjust="spacing" textLength="124.2744" x="883.5513" y="624.6357">locomotiveRepository</text><polygon fill="#181818" points="1312.7261,657.1895,1322.7261,661.1895,1312.7261,665.1895,1316.7261,661.1895" style="stroke:#181818;stroke-width:1.0;"/><line style="stroke:#181818;stroke-width:1.0;" x1="848.0913" x2="1318.7261" y1="661.1895" y2="661.1895"/><text fill="#000000" font-family="sans-serif" font-size="13" font-weight="bold" lengthAdjust="spacing" textLength="14.46" x="855.0913" y="655.9268">18</text><text fill="#000000" font-family="sans-serif" font-size="13" lengthAdjust="spacing" textLength="168.3462" x="873.5513" y="655.9268">getLocomotive(locomotiveID)</text><polygon fill="#181818" points="859.0913,688.4805,849.0913,692.4805,859.0913,696.4805,855.0913,692.4805" style="stroke:#181818;stroke-width:1.0;"/><line style="stroke:#181818;stroke-width:1.0;stroke-dasharray:2.0,2.0;" x1="853.0913" x2="1328.7261" y1="692.4805" y2="692.4805"/><text fill="#000000" font-family="sans-serif" font-size="13" font-weight="bold" lengthAdjust="spacing" textLength="14.46" x="865.0913" y="687.2178">19</text><text fill="#000000" font-family="sans-serif" font-size="13" lengthAdjust="spacing" textLength="62.1372" x="883.5513" y="687.2178">locomotive</text><polygon fill="#181818" points="505.2808,719.7715,495.2808,723.7715,505.2808,727.7715,501.2808,723.7715" style="stroke:#181818;stroke-width:1.0;"/><line style="stroke:#181818;stroke-width:1.0;stroke-dasharray:2.0,2.0;" x1="499.2808" x2="842.0913" y1="723.7715" y2="723.7715"/><text fill="#000000" font-family="sans-serif" font-size="13" font-weight="bold" lengthAdjust="spacing" textLength="14.46" x="511.2808" y="718.5088">20</text><text fill="#000000" font-family="sans-serif" font-size="13" lengthAdjust="spacing" textLength="62.1372" x="529.7407" y="718.5088">locomotive</text><polygon fill="#181818" points="43.8413,751.0625,33.8413,755.0625,43.8413,759.0625,39.8413,755.0625" style="stroke:#181818;stroke-width:1.0;"/><line style="stroke:#181818;stroke-width:1.0;stroke-dasharray:2.0,2.0;" x1="37.8413" x2="488.2808" y1="755.0625" y2="755.0625"/><text fill="#000000" font-family="sans-serif" font-size="13" font-weight="bold" lengthAdjust="spacing" textLength="14.46" x="49.8413" y="749.7998">21</text><text fill="#000000" font-family="sans-serif" font-size="13" lengthAdjust="spacing" textLength="296.9814" x="68.3013" y="749.7998">shows locomotive details and requests confirmation</text><polygon fill="#181818" points="472.2808,782.3535,482.2808,786.3535,472.2808,790.3535,476.2808,786.3535" style="stroke:#181818;stroke-width:1.0;"/><line style="stroke:#181818;stroke-width:1.0;" x1="32.8413" x2="478.2808" y1="786.3535" y2="786.3535"/><text fill="#000000" font-family="sans-serif" font-size="13" font-weight="bold" lengthAdjust="spacing" textLength="14.46" x="39.8413" y="781.0908">22</text><text fill="#000000" font-family="sans-serif" font-size="13" lengthAdjust="spacing" textLength="106.209" x="58.3013" y="781.0908">confirms purchase</text><polygon fill="#181818" points="826.0913,813.6445,836.0913,817.6445,826.0913,821.6445,830.0913,817.6445" style="stroke:#181818;stroke-width:1.0;"/><line style="stroke:#181818;stroke-width:1.0;" x1="494.2808" x2="832.0913" y1="817.6445" y2="817.6445"/><text fill="#000000" font-family="sans-serif" font-size="13" font-weight="bold" lengthAdjust="spacing" textLength="14.46" x="501.2808" y="812.3818">23</text><text fill="#000000" font-family="sans-serif" font-size="13" lengthAdjust="spacing" textLength="306.3506" x="519.7407" y="812.3818">purchaseLocomotive(locomotiveID, playerUsername)</text><polygon fill="#181818" points="1072.9165,844.9355,1082.9165,848.9355,1072.9165,852.9355,1076.9165,848.9355" style="stroke:#181818;stroke-width:1.0;"/><line style="stroke:#181818;stroke-width:1.0;" x1="848.0913" x2="1078.9165" y1="848.9355" y2="848.9355"/><text fill="#000000" font-family="sans-serif" font-size="13" font-weight="bold" lengthAdjust="spacing" textLength="14.46" x="855.0913" y="843.6729">24</text><text fill="#000000" font-family="sans-serif" font-size="13" lengthAdjust="spacing" textLength="75.8735" x="873.5513" y="843.6729">getInstance()</text><polygon fill="#181818" points="859.0913,876.2266,849.0913,880.2266,859.0913,884.2266,855.0913,880.2266" style="stroke:#181818;stroke-width:1.0;"/><line style="stroke:#181818;stroke-width:1.0;stroke-dasharray:2.0,2.0;" x1="853.0913" x2="1088.9165" y1="880.2266" y2="880.2266"/><text fill="#000000" font-family="sans-serif" font-size="13" font-weight="bold" lengthAdjust="spacing" textLength="14.46" x="865.0913" y="874.9639">25</text><text fill="#000000" font-family="sans-serif" font-size="13" lengthAdjust="spacing" textLength="67.1963" x="883.5513" y="874.9639">repositories</text><polygon fill="#181818" points="1176.6748,907.5176,1186.6748,911.5176,1176.6748,915.5176,1180.6748,911.5176" style="stroke:#181818;stroke-width:1.0;"/><line style="stroke:#181818;stroke-width:1.0;" x1="848.0913" x2="1182.6748" y1="911.5176" y2="911.5176"/><text fill="#000000" font-family="sans-serif" font-size="13" font-weight="bold" lengthAdjust="spacing" textLength="14.46" x="855.0913" y="906.2549">26</text><text fill="#000000" font-family="sans-serif" font-size="13" lengthAdjust="spacing" textLength="155.3462" x="873.5513" y="906.2549">getLocomotiveRepository()</text><polygon fill="#181818" points="859.0913,938.8086,849.0913,942.8086,859.0913,946.8086,855.0913,942.8086" style="stroke:#181818;stroke-width:1.0;"/><line style="stroke:#181818;stroke-width:1.0;stroke-dasharray:2.0,2.0;" x1="853.0913" x2="1192.6748" y1="942.8086" y2="942.8086"/><text fill="#000000" font-family="sans-serif" font-size="13" font-weight="bold" lengthAdjust="spacing" textLength="14.46" x="865.0913" y="937.5459">27</text><text fill="#000000" font-family="sans-serif" font-size="13" lengthAdjust="spacing" textLength="124.2744" x="883.5513" y="937.5459">locomotiveRepository</text><polygon fill="#181818" points="1312.7261,970.0996,1322.7261,974.0996,1312.7261,978.0996,1316.7261,974.0996" style="stroke:#181818;stroke-width:1.0;"/><line style="stroke:#181818;stroke-width:1.0;" x1="848.0913" x2="1318.7261" y1="974.0996" y2="974.0996"/><text fill="#000000" font-family="sans-serif" font-size="13" font-weight="bold" lengthAdjust="spacing" textLength="14.46" x="855.0913" y="968.8369">28</text><text fill="#000000" font-family="sans-serif" font-size="13" lengthAdjust="spacing" textLength="168.3462" x="873.5513" y="968.8369">getLocomotive(locomotiveID)</text><polygon fill="#181818" points="859.0913,1001.3906,849.0913,1005.3906,859.0913,1009.3906,855.0913,1005.3906" style="stroke:#181818;stroke-width:1.0;"/><line style="stroke:#181818;stroke-width:1.0;stroke-dasharray:2.0,2.0;" x1="853.0913" x2="1328.7261" y1="1005.3906" y2="1005.3906"/><text fill="#000000" font-family="sans-serif" font-size="13" font-weight="bold" lengthAdjust="spacing" textLength="14.46" x="865.0913" y="1000.1279">29</text><text fill="#000000" font-family="sans-serif" font-size="13" lengthAdjust="spacing" textLength="62.1372" x="883.5513" y="1000.1279">locomotive</text><polygon fill="#181818" points="1176.6748,1032.6816,1186.6748,1036.6816,1176.6748,1040.6816,1180.6748,1036.6816" style="stroke:#181818;stroke-width:1.0;"/><line style="stroke:#181818;stroke-width:1.0;" x1="848.0913" x2="1182.6748" y1="1036.6816" y2="1036.6816"/><text fill="#000000" font-family="sans-serif" font-size="13" font-weight="bold" lengthAdjust="spacing" textLength="14.46" x="855.0913" y="1031.4189">30</text><text fill="#000000" font-family="sans-serif" font-size="13" lengthAdjust="spacing" textLength="125.7153" x="873.5513" y="1031.4189">getPlayerRepository()</text><polygon fill="#181818" points="859.0913,1063.9727,849.0913,1067.9727,859.0913,1071.9727,855.0913,1067.9727" style="stroke:#181818;stroke-width:1.0;"/><line style="stroke:#181818;stroke-width:1.0;stroke-dasharray:2.0,2.0;" x1="853.0913" x2="1192.6748" y1="1067.9727" y2="1067.9727"/><text fill="#000000" font-family="sans-serif" font-size="13" font-weight="bold" lengthAdjust="spacing" textLength="14.46" x="865.0913" y="1062.71">31</text><text fill="#000000" font-family="sans-serif" font-size="13" lengthAdjust="spacing" textLength="97.5444" x="883.5513" y="1062.71">playerRepository</text><polygon fill="#181818" points="1463.1704,1095.2637,1473.1704,1099.2637,1463.1704,1103.2637,1467.1704,1099.2637" style="stroke:#181818;stroke-width:1.0;"/><line style="stroke:#181818;stroke-width:1.0;" x1="848.0913" x2="1469.1704" y1="1099.2637" y2="1099.2637"/><text fill="#000000" font-family="sans-serif" font-size="13" font-weight="bold" lengthAdjust="spacing" textLength="14.46" x="855.0913" y="1094.001">32</text><text fill="#000000" font-family="sans-serif" font-size="13" lengthAdjust="spacing" textLength="234.0889" x="873.5513" y="1094.001">getPlayerByUsername(playerUsername)</text><polygon fill="#181818" points="859.0913,1126.5547,849.0913,1130.5547,859.0913,1134.5547,855.0913,1130.5547" style="stroke:#181818;stroke-width:1.0;"/><line style="stroke:#181818;stroke-width:1.0;stroke-dasharray:2.0,2.0;" x1="853.0913" x2="1479.1704" y1="1130.5547" y2="1130.5547"/><text fill="#000000" font-family="sans-serif" font-size="13" font-weight="bold" lengthAdjust="spacing" textLength="14.46" x="865.0913" y="1125.292">33</text><text fill="#000000" font-family="sans-serif" font-size="13" lengthAdjust="spacing" textLength="35.4072" x="883.5513" y="1125.292">player</text><line style="stroke:#181818;stroke-width:1.0;" x1="848.0913" x2="895.0913" y1="1156.8457" y2="1156.8457"/><line style="stroke:#181818;stroke-width:1.0;" x1="895.0913" x2="895.0913" y1="1156.8457" y2="1169.8457"/><line style="stroke:#181818;stroke-width:1.0;" x1="854.0913" x2="895.0913" y1="1169.8457" y2="1169.8457"/><polygon fill="#181818" points="864.0913,1165.8457,854.0913,1169.8457,864.0913,1173.8457,860.0913,1169.8457" style="stroke:#181818;stroke-width:1.0;"/><text fill="#000000" font-family="sans-serif" font-size="13" font-weight="bold" lengthAdjust="spacing" textLength="14.46" x="860.0913" y="1151.583">34</text><text fill="#000000" font-family="sans-serif" font-size="13" lengthAdjust="spacing" textLength="194.3652" x="878.5513" y="1151.583">checkBalance(locomotive, player)</text><polygon fill="#181818" points="1580.1563,1202.1367,1590.1563,1206.1367,1580.1563,1210.1367,1584.1563,1206.1367" style="stroke:#181818;stroke-width:1.0;"/><line style="stroke:#181818;stroke-width:1.0;" x1="853.0913" x2="1586.1563" y1="1206.1367" y2="1206.1367"/><text fill="#000000" font-family="sans-serif" font-size="13" font-weight="bold" lengthAdjust="spacing" textLength="14.46" x="860.0913" y="1200.874">35</text><text fill="#000000" font-family="sans-serif" font-size="13" lengthAdjust="spacing" textLength="56.3481" x="878.5513" y="1200.874">getPrice()</text><polygon fill="#181818" points="864.0913,1233.4277,854.0913,1237.4277,864.0913,1241.4277,860.0913,1237.4277" style="stroke:#181818;stroke-width:1.0;"/><line style="stroke:#181818;stroke-width:1.0;stroke-dasharray:2.0,2.0;" x1="858.0913" x2="1596.1563" y1="1237.4277" y2="1237.4277"/><text fill="#000000" font-family="sans-serif" font-size="13" font-weight="bold" lengthAdjust="spacing" textLength="14.46" x="870.0913" y="1232.165">36</text><text fill="#000000" font-family="sans-serif" font-size="13" lengthAdjust="spacing" textLength="28.1772" x="888.5513" y="1232.165">price</text><polygon fill="#181818" points="1663.6836,1264.7188,1673.6836,1268.7188,1663.6836,1272.7188,1667.6836,1268.7188" style="stroke:#181818;stroke-width:1.0;"/><line style="stroke:#181818;stroke-width:1.0;" x1="853.0913" x2="1669.6836" y1="1268.7188" y2="1268.7188"/><text fill="#000000" font-family="sans-serif" font-size="13" font-weight="bold" lengthAdjust="spacing" textLength="14.46" x="860.0913" y="1263.4561">37</text><text fill="#000000" font-family="sans-serif" font-size="13" lengthAdjust="spacing" textLength="73.709" x="878.5513" y="1263.4561">getBalance()</text><polygon fill="#181818" points="864.0913,1296.0098,854.0913,1300.0098,864.0913,1304.0098,860.0913,1300.0098" style="stroke:#181818;stroke-width:1.0;"/><line style="stroke:#181818;stroke-width:1.0;stroke-dasharray:2.0,2.0;" x1="858.0913" x2="1679.6836" y1="1300.0098" y2="1300.0098"/><text fill="#000000" font-family="sans-serif" font-size="13" font-weight="bold" lengthAdjust="spacing" textLength="14.46" x="870.0913" y="1294.7471">38</text><text fill="#000000" font-family="sans-serif" font-size="13" lengthAdjust="spacing" textLength="45.5381" x="888.5513" y="1294.7471">balance</text><line style="stroke:#181818;stroke-width:1.0;stroke-dasharray:2.0,2.0;" x1="853.0913" x2="895.0913" y1="1336.3008" y2="1336.3008"/><line style="stroke:#181818;stroke-width:1.0;stroke-dasharray:2.0,2.0;" x1="895.0913" x2="895.0913" y1="1336.3008" y2="1349.3008"/><line style="stroke:#181818;stroke-width:1.0;stroke-dasharray:2.0,2.0;" x1="848.0913" x2="895.0913" y1="1349.3008" y2="1349.3008"/><polygon fill="#181818" points="858.0913,1345.3008,848.0913,1349.3008,858.0913,1353.3008,854.0913,1349.3008" style="stroke:#181818;stroke-width:1.0;"/><text fill="#000000" font-family="sans-serif" font-size="13" font-weight="bold" lengthAdjust="spacing" textLength="14.46" x="860.0913" y="1331.0381">39</text><text fill="#000000" font-family="sans-serif" font-size="13" lengthAdjust="spacing" textLength="22.4009" x="878.5513" y="1331.0381">true</text><polygon fill="#181818" points="1663.6836,1371.5918,1673.6836,1375.5918,1663.6836,1379.5918,1667.6836,1375.5918" style="stroke:#181818;stroke-width:1.0;"/><line style="stroke:#181818;stroke-width:1.0;" x1="848.0913" x2="1669.6836" y1="1375.5918" y2="1375.5918"/><text fill="#000000" font-family="sans-serif" font-size="13" font-weight="bold" lengthAdjust="spacing" textLength="14.46" x="855.0913" y="1370.3291">40</text><text fill="#000000" font-family="sans-serif" font-size="13" lengthAdjust="spacing" textLength="190.7534" x="873.5513" y="1370.3291">purchaseLocomotive(locomotive)</text><line style="stroke:#181818;stroke-width:1.0;" x1="1685.6836" x2="1732.6836" y1="1401.8828" y2="1401.8828"/><line style="stroke:#181818;stroke-width:1.0;" x1="1732.6836" x2="1732.6836" y1="1401.8828" y2="1414.8828"/><line style="stroke:#181818;stroke-width:1.0;" x1="1691.6836" x2="1732.6836" y1="1414.8828" y2="1414.8828"/><polygon fill="#181818" points="1701.6836,1410.8828,1691.6836,1414.8828,1701.6836,1418.8828,1697.6836,1414.8828" style="stroke:#181818;stroke-width:1.0;"/><text fill="#000000" font-family="sans-serif" font-size="13" font-weight="bold" lengthAdjust="spacing" textLength="14.46" x="1697.6836" y="1396.6201">41</text><text fill="#000000" font-family="sans-serif" font-size="13" lengthAdjust="spacing" textLength="127.1626" x="1716.1436" y="1396.6201">removeBalance(price)</text><line style="stroke:#181818;stroke-width:1.0;stroke-dasharray:2.0,2.0;" x1="1690.6836" x2="1732.6836" y1="1456.1738" y2="1456.1738"/><line style="stroke:#181818;stroke-width:1.0;stroke-dasharray:2.0,2.0;" x1="1732.6836" x2="1732.6836" y1="1456.1738" y2="1469.1738"/><line style="stroke:#181818;stroke-width:1.0;stroke-dasharray:2.0,2.0;" x1="1685.6836" x2="1732.6836" y1="1469.1738" y2="1469.1738"/><polygon fill="#181818" points="1695.6836,1465.1738,1685.6836,1469.1738,1695.6836,1473.1738,1691.6836,1469.1738" style="stroke:#181818;stroke-width:1.0;"/><text fill="#000000" font-family="sans-serif" font-size="13" font-weight="bold" lengthAdjust="spacing" textLength="14.46" x="1697.6836" y="1450.9111">42</text><text fill="#000000" font-family="sans-serif" font-size="13" lengthAdjust="spacing" textLength="22.4009" x="1716.1436" y="1450.9111">true</text><line style="stroke:#181818;stroke-width:1.0;" x1="1685.6836" x2="1732.6836" y1="1490.4648" y2="1490.4648"/><line style="stroke:#181818;stroke-width:1.0;" x1="1732.6836" x2="1732.6836" y1="1490.4648" y2="1503.4648"/><line style="stroke:#181818;stroke-width:1.0;" x1="1691.6836" x2="1732.6836" y1="1503.4648" y2="1503.4648"/><polygon fill="#181818" points="1701.6836,1499.4648,1691.6836,1503.4648,1701.6836,1507.4648,1697.6836,1503.4648" style="stroke:#181818;stroke-width:1.0;"/><text fill="#000000" font-family="sans-serif" font-size="13" font-weight="bold" lengthAdjust="spacing" textLength="14.46" x="1697.6836" y="1485.2021">43</text><text fill="#000000" font-family="sans-serif" font-size="13" lengthAdjust="spacing" textLength="158.9644" x="1716.1436" y="1485.2021">addLocomotive(locomotive)</text><line style="stroke:#181818;stroke-width:1.0;stroke-dasharray:2.0,2.0;" x1="1690.6836" x2="1732.6836" y1="1544.7559" y2="1544.7559"/><line style="stroke:#181818;stroke-width:1.0;stroke-dasharray:2.0,2.0;" x1="1732.6836" x2="1732.6836" y1="1544.7559" y2="1557.7559"/><line style="stroke:#181818;stroke-width:1.0;stroke-dasharray:2.0,2.0;" x1="1685.6836" x2="1732.6836" y1="1557.7559" y2="1557.7559"/><polygon fill="#181818" points="1695.6836,1553.7559,1685.6836,1557.7559,1695.6836,1561.7559,1691.6836,1557.7559" style="stroke:#181818;stroke-width:1.0;"/><text fill="#000000" font-family="sans-serif" font-size="13" font-weight="bold" lengthAdjust="spacing" textLength="14.46" x="1697.6836" y="1539.4932">44</text><text fill="#000000" font-family="sans-serif" font-size="13" lengthAdjust="spacing" textLength="22.4009" x="1716.1436" y="1539.4932">true</text><polygon fill="#181818" points="859.0913,1580.0469,849.0913,1584.0469,859.0913,1588.0469,855.0913,1584.0469" style="stroke:#181818;stroke-width:1.0;"/><line style="stroke:#181818;stroke-width:1.0;stroke-dasharray:2.0,2.0;" x1="853.0913" x2="1679.6836" y1="1584.0469" y2="1584.0469"/><text fill="#000000" font-family="sans-serif" font-size="13" font-weight="bold" lengthAdjust="spacing" textLength="14.46" x="865.0913" y="1578.7842">45</text><text fill="#000000" font-family="sans-serif" font-size="13" lengthAdjust="spacing" textLength="22.4009" x="883.5513" y="1578.7842">true</text><polygon fill="#181818" points="1580.1563,1611.3379,1590.1563,1615.3379,1580.1563,1619.3379,1584.1563,1615.3379" style="stroke:#181818;stroke-width:1.0;"/><line style="stroke:#181818;stroke-width:1.0;" x1="848.0913" x2="1586.1563" y1="1615.3379" y2="1615.3379"/><text fill="#000000" font-family="sans-serif" font-size="13" font-weight="bold" lengthAdjust="spacing" textLength="14.46" x="855.0913" y="1610.0752">46</text><text fill="#000000" font-family="sans-serif" font-size="13" lengthAdjust="spacing" textLength="99.6963" x="873.5513" y="1610.0752">setOwner(player)</text><polygon fill="#181818" points="859.0913,1642.6289,849.0913,1646.6289,859.0913,1650.6289,855.0913,1646.6289" style="stroke:#181818;stroke-width:1.0;"/><line style="stroke:#181818;stroke-width:1.0;stroke-dasharray:2.0,2.0;" x1="853.0913" x2="1596.1563" y1="1646.6289" y2="1646.6289"/><text fill="#000000" font-family="sans-serif" font-size="13" font-weight="bold" lengthAdjust="spacing" textLength="14.46" x="865.0913" y="1641.3662">47</text><text fill="#000000" font-family="sans-serif" font-size="13" lengthAdjust="spacing" textLength="22.4009" x="883.5513" y="1641.3662">true</text><polygon fill="#181818" points="1312.7261,1673.9199,1322.7261,1677.9199,1312.7261,1681.9199,1316.7261,1677.9199" style="stroke:#181818;stroke-width:1.0;"/><line style="stroke:#181818;stroke-width:1.0;" x1="848.0913" x2="1318.7261" y1="1677.9199" y2="1677.9199"/><text fill="#000000" font-family="sans-serif" font-size="13" font-weight="bold" lengthAdjust="spacing" textLength="14.46" x="855.0913" y="1672.6572">48</text><text fill="#000000" font-family="sans-serif" font-size="13" lengthAdjust="spacing" textLength="98.2554" x="873.5513" y="1672.6572">save(locomotive)</text><polygon fill="#181818" points="859.0913,1705.2109,849.0913,1709.2109,859.0913,1713.2109,855.0913,1709.2109" style="stroke:#181818;stroke-width:1.0;"/><line style="stroke:#181818;stroke-width:1.0;stroke-dasharray:2.0,2.0;" x1="853.0913" x2="1328.7261" y1="1709.2109" y2="1709.2109"/><text fill="#000000" font-family="sans-serif" font-size="13" font-weight="bold" lengthAdjust="spacing" textLength="14.46" x="865.0913" y="1703.9482">49</text><text fill="#000000" font-family="sans-serif" font-size="13" lengthAdjust="spacing" textLength="22.4009" x="883.5513" y="1703.9482">true</text><polygon fill="#181818" points="1463.1704,1736.502,1473.1704,1740.502,1463.1704,1744.502,1467.1704,1740.502" style="stroke:#181818;stroke-width:1.0;"/><line style="stroke:#181818;stroke-width:1.0;" x1="848.0913" x2="1469.1704" y1="1740.502" y2="1740.502"/><text fill="#000000" font-family="sans-serif" font-size="13" font-weight="bold" lengthAdjust="spacing" textLength="14.46" x="855.0913" y="1735.2393">50</text><text fill="#000000" font-family="sans-serif" font-size="13" lengthAdjust="spacing" textLength="71.5254" x="873.5513" y="1735.2393">save(player)</text><polygon fill="#181818" points="859.0913,1767.793,849.0913,1771.793,859.0913,1775.793,855.0913,1771.793" style="stroke:#181818;stroke-width:1.0;"/><line style="stroke:#181818;stroke-width:1.0;stroke-dasharray:2.0,2.0;" x1="853.0913" x2="1479.1704" y1="1771.793" y2="1771.793"/><text fill="#000000" font-family="sans-serif" font-size="13" font-weight="bold" lengthAdjust="spacing" textLength="14.46" x="865.0913" y="1766.5303">51</text><text fill="#000000" font-family="sans-serif" font-size="13" lengthAdjust="spacing" textLength="22.4009" x="883.5513" y="1766.5303">true</text><polygon fill="#181818" points="505.2808,1799.084,495.2808,1803.084,505.2808,1807.084,501.2808,1803.084" style="stroke:#181818;stroke-width:1.0;"/><line style="stroke:#181818;stroke-width:1.0;stroke-dasharray:2.0,2.0;" x1="499.2808" x2="842.0913" y1="1803.084" y2="1803.084"/><text fill="#000000" font-family="sans-serif" font-size="13" font-weight="bold" lengthAdjust="spacing" textLength="14.46" x="511.2808" y="1797.8213">52</text><text fill="#000000" font-family="sans-serif" font-size="13" lengthAdjust="spacing" textLength="22.4009" x="529.7407" y="1797.8213">true</text><polygon fill="#181818" points="38.8413,1830.375,28.8413,1834.375,38.8413,1838.375,34.8413,1834.375" style="stroke:#181818;stroke-width:1.0;"/><line style="stroke:#181818;stroke-width:1.0;stroke-dasharray:2.0,2.0;" x1="32.8413" x2="488.2808" y1="1834.375" y2="1834.375"/><text fill="#000000" font-family="sans-serif" font-size="13" font-weight="bold" lengthAdjust="spacing" textLength="14.46" x="44.8413" y="1829.1123">53</text><text fill="#000000" font-family="sans-serif" font-size="13" lengthAdjust="spacing" textLength="155.3589" x="63.3013" y="1829.1123">displays operation success</text><!--SRC=[xLTDRnen4BtlhnZb4XebVu13fP2WYee614cbIfKYunt0OjUcjfUKVr_Z_V8kNWVI77B8dj0oVlDcvZtRUwasZ6-992caWWkwbY95q3B3gFvdI-Y6h72kzmc2HAe9NoLkW5gJMBmmle8bIHH64Scqu5cwG1b5bsiM8oo5q0lnDo9K2maNquJiKLu0KJ0Tt_uQpYA3f1bbMy8rNFG7sNuig4Y5PZjy6jd0fr4ew4vmBKMI5AXtZxDnCto6Mw6OoSvGsP3PS3gPDsEa4_ERz_rBdkUZXs_ZuUFaeRaugRXKw_O6PEnvRS76axld0s0JPMixqq2OjbuvRVC0r3GQoSkKan-Jnz7FeIzfbSfDC1byZmvJOpkYiHnM1ER9VyFDLpCPw9ib6mLQm2BR0u6QXOsj0CmGeNZCgXkp-32fgoi3G2MQYDwNg16H1vY_LwXlTuGbP95WNPOoyMLubSGE7vp7GXWeExySQyILqJ55Ptq38rS7j9uSeAJT1rSmZU0OMqZTV6ezvSnyWWcoT0JfvUiag9dxr1gimCdYhQMKSs1KD9CIkPvJv4GoSGt5YtkJfAF0oYJjogfqDxL4Y2TfLqqLiAUOIj8XF0VBwgsjwy8UVRCxYXTri0HJ6iIoHdLceA2tDFkYNYEeeZj0U5ms2EAgGqvQuoMV4HKcPezMOHDsUgmkzHwr8QfwDShe_jDi7z5iTH4TmtgxfLeIUgEHF2XdsgT6C2kjBgq_9Fx9K1cnKy6NJAP4Cy5Fz4cnHC4satHDrAacASCxkduD-Mdwf51oakAdPJujSuPbEfhUlWE-VyFR5y__QhPpEtNv3_QbAtfT9cbKurvosvMuAPpkvxXTv5r0B_42XQwHRWOaiGwi1rfwkuFkaQzR-YlktaL793joTrjqvMKTF8-3vvP_G3sARsglHEsaMb_zSwfb8m9adQy57ra7qI6xo753TDsl43_T6iv-jdRWDC-OpcA3UtjOfBxItR9RcIIcOeTbP-tOtgszZKH7NJcZmm7-98vFQD97A-8qiNGGZLwrjK8zUU4eUy5j8c1ilwb3NBlyx3ds53b5pcUTTQym2soqpHF2KWisxGr7mGaZVktYse0u-SeQCtMeHO7OehHNKb0PfQYKxsfwn2hw1m00]--></g></svg>