<svg xmlns="http://www.w3.org/2000/svg" xmlns:xlink="http://www.w3.org/1999/xlink" contentStyleType="text/css" height="870px" preserveAspectRatio="none" style="width:1124px;height:870px;background:#FFFFFF;" version="1.1" viewBox="0 0 1124 870" width="1124px" zoomAndPan="magnify"><defs/><g><rect fill="#FFFFFF" height="705.8203" style="stroke:#181818;stroke-width:1.0;" width="10" x="270.8442" y="90.5332"/><rect fill="#FFFFFF" height="167.4551" style="stroke:#181818;stroke-width:1.0;" width="10" x="275.8442" y="156.1152"/><rect fill="#FFFFFF" height="31.291" style="stroke:#181818;stroke-width:1.0;" width="10" x="528.5112" y="254.9883"/><rect fill="#FFFFFF" height="208.4551" style="stroke:#181818;stroke-width:1.0;" width="10" x="528.5112" y="361.8613"/><rect fill="#FFFFFF" height="42.291" style="stroke:#181818;stroke-width:1.0;" width="10" x="533.5112" y="401.1523"/><rect fill="#FFFFFF" height="42.291" style="stroke:#181818;stroke-width:1.0;" width="10" x="533.5112" y="489.7344"/><rect fill="#FFFFFF" height="31.291" style="stroke:#181818;stroke-width:1.0;" width="10" x="758.0073" y="192.4063"/><rect fill="#FFFFFF" height="31.291" style="stroke:#181818;stroke-width:1.0;" width="10" x="758.0073" y="601.6074"/><rect fill="#FFFFFF" height="31.291" style="stroke:#181818;stroke-width:1.0;" width="10" x="890.9482" y="664.1895"/><rect fill="#FFFFFF" height="31.291" style="stroke:#181818;stroke-width:1.0;" width="10" x="1041.3926" y="726.7715"/><rect fill="none" height="660.5293" style="stroke:#000000;stroke-width:1.5;" width="939.9409" x="178.6963" y="105.5332"/><line style="stroke:#181818;stroke-width:0.5;stroke-dasharray:5.0,5.0;" x1="275.6963" x2="275.6963" y1="57.2422" y2="814.3535"/><line style="stroke:#181818;stroke-width:0.5;stroke-dasharray:5.0,5.0;" x1="532.7251" x2="532.7251" y1="57.2422" y2="814.3535"/><line style="stroke:#181818;stroke-width:0.5;stroke-dasharray:5.0,5.0;" x1="762.2661" x2="762.2661" y1="57.2422" y2="814.3535"/><line style="stroke:#181818;stroke-width:0.5;stroke-dasharray:5.0,5.0;" x1="895.7485" x2="895.7485" y1="57.2422" y2="814.3535"/><line style="stroke:#181818;stroke-width:0.5;stroke-dasharray:5.0,5.0;" x1="1046.1479" x2="1046.1479" y1="57.2422" y2="814.3535"/><rect fill="#E3E3E3" height="32.6211" rx="2.5" ry="2.5" style="stroke:#181818;stroke-width:0.5;" width="174.2959" x="188.6963" y="23.6211"/><text fill="#000000" font-family="sans-serif" font-size="14" lengthAdjust="spacing" textLength="160.2959" x="195.6963" y="45.7285">:BuyLocomotiveController</text><rect fill="#E3E3E3" height="32.6211" rx="2.5" ry="2.5" style="stroke:#181818;stroke-width:0.5;" width="174.2959" x="188.6963" y="813.3535"/><text fill="#000000" font-family="sans-serif" font-size="14" lengthAdjust="spacing" textLength="160.2959" x="195.6963" y="835.4609">:BuyLocomotiveController</text><rect fill="#E3E3E3" height="51.2422" rx="2.5" ry="2.5" style="stroke:#181818;stroke-width:0.5;" width="57.5723" x="504.7251" y="5"/><text fill="#000000" font-family="sans-serif" font-size="14" lengthAdjust="spacing" textLength="38.1309" x="514.4458" y="27.1074">player</text><text fill="#000000" font-family="sans-serif" font-size="14" lengthAdjust="spacing" textLength="43.5723" x="511.7251" y="45.7285">:Player</text><rect fill="#E3E3E3" height="51.2422" rx="2.5" ry="2.5" style="stroke:#181818;stroke-width:0.5;" width="57.5723" x="504.7251" y="813.3535"/><text fill="#000000" font-family="sans-serif" font-size="14" lengthAdjust="spacing" textLength="38.1309" x="514.4458" y="835.4609">player</text><text fill="#000000" font-family="sans-serif" font-size="14" lengthAdjust="spacing" textLength="43.5723" x="511.7251" y="854.082">:Player</text><rect fill="#E3E3E3" height="51.2422" rx="2.5" ry="2.5" style="stroke:#181818;stroke-width:0.5;" width="89.4824" x="718.2661" y="5"/><text fill="#000000" font-family="sans-serif" font-size="14" lengthAdjust="spacing" textLength="66.917" x="729.5488" y="27.1074">locomotive</text><text fill="#000000" font-family="sans-serif" font-size="14" lengthAdjust="spacing" textLength="75.4824" x="725.2661" y="45.7285">:Locomotive</text><rect fill="#E3E3E3" height="51.2422" rx="2.5" ry="2.5" style="stroke:#181818;stroke-width:0.5;" width="89.4824" x="718.2661" y="813.3535"/><text fill="#000000" font-family="sans-serif" font-size="14" lengthAdjust="spacing" textLength="66.917" x="729.5488" y="835.4609">locomotive</text><text fill="#000000" font-family="sans-serif" font-size="14" lengthAdjust="spacing" textLength="75.4824" x="725.2661" y="854.082">:Locomotive</text><rect fill="#E3E3E3" height="51.2422" rx="2.5" ry="2.5" style="stroke:#181818;stroke-width:0.5;" width="156.3994" x="817.7485" y="5"/><text fill="#000000" font-family="sans-serif" font-size="14" lengthAdjust="spacing" textLength="133.834" x="829.0313" y="27.1074">locomotiveRepository</text><text fill="#000000" font-family="sans-serif" font-size="14" lengthAdjust="spacing" textLength="142.3994" x="824.7485" y="45.7285">:LocomotiveRepository</text><rect fill="#E3E3E3" height="51.2422" rx="2.5" ry="2.5" style="stroke:#181818;stroke-width:0.5;" width="156.3994" x="817.7485" y="813.3535"/><text fill="#000000" font-family="sans-serif" font-size="14" lengthAdjust="spacing" textLength="133.834" x="829.0313" y="835.4609">locomotiveRepository</text><text fill="#000000" font-family="sans-serif" font-size="14" lengthAdjust="spacing" textLength="142.3994" x="824.7485" y="854.082">:LocomotiveRepository</text><rect fill="#E3E3E3" height="51.2422" rx="2.5" ry="2.5" style="stroke:#181818;stroke-width:0.5;" width="124.4893" x="984.1479" y="5"/><text fill="#000000" font-family="sans-serif" font-size="14" lengthAdjust="spacing" textLength="105.0479" x="993.8687" y="27.1074">playerRepository</text><text fill="#000000" font-family="sans-serif" font-size="14" lengthAdjust="spacing" textLength="110.4893" x="991.1479" y="45.7285">:PlayerRepository</text><rect fill="#E3E3E3" height="51.2422" rx="2.5" ry="2.5" style="stroke:#181818;stroke-width:0.5;" width="124.4893" x="984.1479" y="813.3535"/><text fill="#000000" font-family="sans-serif" font-size="14" lengthAdjust="spacing" textLength="105.0479" x="993.8687" y="835.4609">playerRepository</text><text fill="#000000" font-family="sans-serif" font-size="14" lengthAdjust="spacing" textLength="110.4893" x="991.1479" y="854.082">:PlayerRepository</text><rect fill="#FFFFFF" height="705.8203" style="stroke:#181818;stroke-width:1.0;" width="10" x="270.8442" y="90.5332"/><rect fill="#FFFFFF" height="167.4551" style="stroke:#181818;stroke-width:1.0;" width="10" x="275.8442" y="156.1152"/><rect fill="#FFFFFF" height="31.291" style="stroke:#181818;stroke-width:1.0;" width="10" x="528.5112" y="254.9883"/><rect fill="#FFFFFF" height="208.4551" style="stroke:#181818;stroke-width:1.0;" width="10" x="528.5112" y="361.8613"/><rect fill="#FFFFFF" height="42.291" style="stroke:#181818;stroke-width:1.0;" width="10" x="533.5112" y="401.1523"/><rect fill="#FFFFFF" height="42.291" style="stroke:#181818;stroke-width:1.0;" width="10" x="533.5112" y="489.7344"/><rect fill="#FFFFFF" height="31.291" style="stroke:#181818;stroke-width:1.0;" width="10" x="758.0073" y="192.4063"/><rect fill="#FFFFFF" height="31.291" style="stroke:#181818;stroke-width:1.0;" width="10" x="758.0073" y="601.6074"/><rect fill="#FFFFFF" height="31.291" style="stroke:#181818;stroke-width:1.0;" width="10" x="890.9482" y="664.1895"/><rect fill="#FFFFFF" height="31.291" style="stroke:#181818;stroke-width:1.0;" width="10" x="1041.3926" y="726.7715"/><polygon fill="#181818" points="258.8442,86.5332,268.8442,90.5332,258.8442,94.5332,262.8442,90.5332" style="stroke:#181818;stroke-width:1.0;"/><line style="stroke:#181818;stroke-width:1.0;" x1="0" x2="264.8442" y1="90.5332" y2="90.5332"/><text fill="#000000" font-family="sans-serif" font-size="13" font-weight="bold" lengthAdjust="spacing" textLength="14.46" x="7" y="85.2705">16</text><text fill="#000000" font-family="sans-serif" font-size="13" lengthAdjust="spacing" textLength="233.3843" x="25.46" y="85.2705">purchaseLocomotive(locomotive, player)</text><path d="M178.6963,105.5332 L358.7935,105.5332 L358.7935,114.8242 L348.7935,124.8242 L178.6963,124.8242 L178.6963,105.5332 " fill="#EEEEEE" style="stroke:#000000;stroke-width:1.5;"/><rect fill="none" height="660.5293" style="stroke:#000000;stroke-width:1.5;" width="939.9409" x="178.6963" y="105.5332"/><text fill="#000000" font-family="sans-serif" font-size="13" font-weight="bold" lengthAdjust="spacing" textLength="135.0972" x="193.6963" y="120.5615">Purchase Locomotive</text><line style="stroke:#181818;stroke-width:1.0;" x1="280.8442" x2="327.8442" y1="143.1152" y2="143.1152"/><line style="stroke:#181818;stroke-width:1.0;" x1="327.8442" x2="327.8442" y1="143.1152" y2="156.1152"/><line style="stroke:#181818;stroke-width:1.0;" x1="286.8442" x2="327.8442" y1="156.1152" y2="156.1152"/><polygon fill="#181818" points="296.8442,152.1152,286.8442,156.1152,296.8442,160.1152,292.8442,156.1152" style="stroke:#181818;stroke-width:1.0;"/><text fill="#000000" font-family="sans-serif" font-size="13" font-weight="bold" lengthAdjust="spacing" textLength="25.3018" x="292.8442" y="137.8525">16.1</text><text fill="#000000" font-family="sans-serif" font-size="13" lengthAdjust="spacing" textLength="194.3652" x="322.146" y="137.8525">checkBalance(locomotive, player)</text><polygon fill="#181818" points="746.0073,188.4063,756.0073,192.4063,746.0073,196.4063,750.0073,192.4063" style="stroke:#181818;stroke-width:1.0;"/><line style="stroke:#181818;stroke-width:1.0;" x1="285.8442" x2="752.0073" y1="192.4063" y2="192.4063"/><text fill="#000000" font-family="sans-serif" font-size="13" font-weight="bold" lengthAdjust="spacing" textLength="25.3018" x="292.8442" y="187.1436">16.2</text><text fill="#000000" font-family="sans-serif" font-size="13" lengthAdjust="spacing" textLength="56.3481" x="322.146" y="187.1436">getPrice()</text><polygon fill="#181818" points="296.8442,219.6973,286.8442,223.6973,296.8442,227.6973,292.8442,223.6973" style="stroke:#181818;stroke-width:1.0;"/><line style="stroke:#181818;stroke-width:1.0;stroke-dasharray:2.0,2.0;" x1="290.8442" x2="762.0073" y1="223.6973" y2="223.6973"/><text fill="#000000" font-family="sans-serif" font-size="13" font-weight="bold" lengthAdjust="spacing" textLength="25.3018" x="302.8442" y="218.4346">16.3</text><text fill="#000000" font-family="sans-serif" font-size="13" lengthAdjust="spacing" textLength="28.1772" x="332.146" y="218.4346">price</text><polygon fill="#181818" points="516.5112,250.9883,526.5112,254.9883,516.5112,258.9883,520.5112,254.9883" style="stroke:#181818;stroke-width:1.0;"/><line style="stroke:#181818;stroke-width:1.0;" x1="285.8442" x2="522.5112" y1="254.9883" y2="254.9883"/><text fill="#000000" font-family="sans-serif" font-size="13" font-weight="bold" lengthAdjust="spacing" textLength="25.3018" x="292.8442" y="249.7256">16.4</text><text fill="#000000" font-family="sans-serif" font-size="13" lengthAdjust="spacing" textLength="73.709" x="322.146" y="249.7256">getBalance()</text><polygon fill="#181818" points="296.8442,282.2793,286.8442,286.2793,296.8442,290.2793,292.8442,286.2793" style="stroke:#181818;stroke-width:1.0;"/><line style="stroke:#181818;stroke-width:1.0;stroke-dasharray:2.0,2.0;" x1="290.8442" x2="532.5112" y1="286.2793" y2="286.2793"/><text fill="#000000" font-family="sans-serif" font-size="13" font-weight="bold" lengthAdjust="spacing" textLength="25.3018" x="302.8442" y="281.0166">16.5</text><text fill="#000000" font-family="sans-serif" font-size="13" lengthAdjust="spacing" textLength="45.5381" x="332.146" y="281.0166">balance</text><line style="stroke:#181818;stroke-width:1.0;stroke-dasharray:2.0,2.0;" x1="285.8442" x2="327.8442" y1="322.5703" y2="322.5703"/><line style="stroke:#181818;stroke-width:1.0;stroke-dasharray:2.0,2.0;" x1="327.8442" x2="327.8442" y1="322.5703" y2="335.5703"/><line style="stroke:#181818;stroke-width:1.0;stroke-dasharray:2.0,2.0;" x1="280.8442" x2="327.8442" y1="335.5703" y2="335.5703"/><polygon fill="#181818" points="290.8442,331.5703,280.8442,335.5703,290.8442,339.5703,286.8442,335.5703" style="stroke:#181818;stroke-width:1.0;"/><text fill="#000000" font-family="sans-serif" font-size="13" font-weight="bold" lengthAdjust="spacing" textLength="25.3018" x="292.8442" y="317.3076">16.6</text><text fill="#000000" font-family="sans-serif" font-size="13" lengthAdjust="spacing" textLength="22.4009" x="322.146" y="317.3076">true</text><polygon fill="#181818" points="516.5112,357.8613,526.5112,361.8613,516.5112,365.8613,520.5112,361.8613" style="stroke:#181818;stroke-width:1.0;"/><line style="stroke:#181818;stroke-width:1.0;" x1="280.8442" x2="522.5112" y1="361.8613" y2="361.8613"/><text fill="#000000" font-family="sans-serif" font-size="13" font-weight="bold" lengthAdjust="spacing" textLength="25.3018" x="287.8442" y="356.5986">16.7</text><text fill="#000000" font-family="sans-serif" font-size="13" lengthAdjust="spacing" textLength="190.7534" x="317.146" y="356.5986">purchaseLocomotive(locomotive)</text><line style="stroke:#181818;stroke-width:1.0;" x1="538.5112" x2="585.5112" y1="388.1523" y2="388.1523"/><line style="stroke:#181818;stroke-width:1.0;" x1="585.5112" x2="585.5112" y1="388.1523" y2="401.1523"/><line style="stroke:#181818;stroke-width:1.0;" x1="544.5112" x2="585.5112" y1="401.1523" y2="401.1523"/><polygon fill="#181818" points="554.5112,397.1523,544.5112,401.1523,554.5112,405.1523,550.5112,401.1523" style="stroke:#181818;stroke-width:1.0;"/><text fill="#000000" font-family="sans-serif" font-size="13" font-weight="bold" lengthAdjust="spacing" textLength="25.3018" x="550.5112" y="382.8896">16.8</text><text fill="#000000" font-family="sans-serif" font-size="13" lengthAdjust="spacing" textLength="127.1626" x="579.813" y="382.8896">removeBalance(price)</text><line style="stroke:#181818;stroke-width:1.0;stroke-dasharray:2.0,2.0;" x1="543.5112" x2="585.5112" y1="442.4434" y2="442.4434"/><line style="stroke:#181818;stroke-width:1.0;stroke-dasharray:2.0,2.0;" x1="585.5112" x2="585.5112" y1="442.4434" y2="455.4434"/><line style="stroke:#181818;stroke-width:1.0;stroke-dasharray:2.0,2.0;" x1="538.5112" x2="585.5112" y1="455.4434" y2="455.4434"/><polygon fill="#181818" points="548.5112,451.4434,538.5112,455.4434,548.5112,459.4434,544.5112,455.4434" style="stroke:#181818;stroke-width:1.0;"/><text fill="#000000" font-family="sans-serif" font-size="13" font-weight="bold" lengthAdjust="spacing" textLength="25.3018" x="550.5112" y="437.1807">16.9</text><text fill="#000000" font-family="sans-serif" font-size="13" lengthAdjust="spacing" textLength="22.4009" x="579.813" y="437.1807">true</text><line style="stroke:#181818;stroke-width:1.0;" x1="538.5112" x2="585.5112" y1="476.7344" y2="476.7344"/><line style="stroke:#181818;stroke-width:1.0;" x1="585.5112" x2="585.5112" y1="476.7344" y2="489.7344"/><line style="stroke:#181818;stroke-width:1.0;" x1="544.5112" x2="585.5112" y1="489.7344" y2="489.7344"/><polygon fill="#181818" points="554.5112,485.7344,544.5112,489.7344,554.5112,493.7344,550.5112,489.7344" style="stroke:#181818;stroke-width:1.0;"/><text fill="#000000" font-family="sans-serif" font-size="13" font-weight="bold" lengthAdjust="spacing" textLength="32.5317" x="550.5112" y="471.4717">16.10</text><text fill="#000000" font-family="sans-serif" font-size="13" lengthAdjust="spacing" textLength="158.9644" x="587.043" y="471.4717">addLocomotive(locomotive)</text><line style="stroke:#181818;stroke-width:1.0;stroke-dasharray:2.0,2.0;" x1="543.5112" x2="585.5112" y1="531.0254" y2="531.0254"/><line style="stroke:#181818;stroke-width:1.0;stroke-dasharray:2.0,2.0;" x1="585.5112" x2="585.5112" y1="531.0254" y2="544.0254"/><line style="stroke:#181818;stroke-width:1.0;stroke-dasharray:2.0,2.0;" x1="538.5112" x2="585.5112" y1="544.0254" y2="544.0254"/><polygon fill="#181818" points="548.5112,540.0254,538.5112,544.0254,548.5112,548.0254,544.5112,544.0254" style="stroke:#181818;stroke-width:1.0;"/><text fill="#000000" font-family="sans-serif" font-size="13" font-weight="bold" lengthAdjust="spacing" textLength="32.5317" x="550.5112" y="525.7627">16.11</text><text fill="#000000" font-family="sans-serif" font-size="13" lengthAdjust="spacing" textLength="22.4009" x="587.043" y="525.7627">true</text><polygon fill="#181818" points="291.8442,566.3164,281.8442,570.3164,291.8442,574.3164,287.8442,570.3164" style="stroke:#181818;stroke-width:1.0;"/><line style="stroke:#181818;stroke-width:1.0;stroke-dasharray:2.0,2.0;" x1="285.8442" x2="532.5112" y1="570.3164" y2="570.3164"/><text fill="#000000" font-family="sans-serif" font-size="13" font-weight="bold" lengthAdjust="spacing" textLength="32.5317" x="297.8442" y="565.0537">16.12</text><text fill="#000000" font-family="sans-serif" font-size="13" lengthAdjust="spacing" textLength="22.4009" x="334.376" y="565.0537">true</text><polygon fill="#181818" points="746.0073,597.6074,756.0073,601.6074,746.0073,605.6074,750.0073,601.6074" style="stroke:#181818;stroke-width:1.0;"/><line style="stroke:#181818;stroke-width:1.0;" x1="280.8442" x2="752.0073" y1="601.6074" y2="601.6074"/><text fill="#000000" font-family="sans-serif" font-size="13" font-weight="bold" lengthAdjust="spacing" textLength="32.5317" x="287.8442" y="596.3447">16.13</text><text fill="#000000" font-family="sans-serif" font-size="13" lengthAdjust="spacing" textLength="99.6963" x="324.376" y="596.3447">setOwner(player)</text><polygon fill="#181818" points="291.8442,628.8984,281.8442,632.8984,291.8442,636.8984,287.8442,632.8984" style="stroke:#181818;stroke-width:1.0;"/><line style="stroke:#181818;stroke-width:1.0;stroke-dasharray:2.0,2.0;" x1="285.8442" x2="762.0073" y1="632.8984" y2="632.8984"/><text fill="#000000" font-family="sans-serif" font-size="13" font-weight="bold" lengthAdjust="spacing" textLength="32.5317" x="297.8442" y="627.6357">16.14</text><text fill="#000000" font-family="sans-serif" font-size="13" lengthAdjust="spacing" textLength="22.4009" x="334.376" y="627.6357">true</text><polygon fill="#181818" points="878.9482,660.1895,888.9482,664.1895,878.9482,668.1895,882.9482,664.1895" style="stroke:#181818;stroke-width:1.0;"/><line style="stroke:#181818;stroke-width:1.0;" x1="280.8442" x2="884.9482" y1="664.1895" y2="664.1895"/><text fill="#000000" font-family="sans-serif" font-size="13" font-weight="bold" lengthAdjust="spacing" textLength="32.5317" x="287.8442" y="658.9268">16.15</text><text fill="#000000" font-family="sans-serif" font-size="13" lengthAdjust="spacing" textLength="98.2554" x="324.376" y="658.9268">save(locomotive)</text><polygon fill="#181818" points="291.8442,691.4805,281.8442,695.4805,291.8442,699.4805,287.8442,695.4805" style="stroke:#181818;stroke-width:1.0;"/><line style="stroke:#181818;stroke-width:1.0;stroke-dasharray:2.0,2.0;" x1="285.8442" x2="894.9482" y1="695.4805" y2="695.4805"/><text fill="#000000" font-family="sans-serif" font-size="13" font-weight="bold" lengthAdjust="spacing" textLength="32.5317" x="297.8442" y="690.2178">16.16</text><text fill="#000000" font-family="sans-serif" font-size="13" lengthAdjust="spacing" textLength="22.4009" x="334.376" y="690.2178">true</text><polygon fill="#181818" points="1029.3926,722.7715,1039.3926,726.7715,1029.3926,730.7715,1033.3926,726.7715" style="stroke:#181818;stroke-width:1.0;"/><line style="stroke:#181818;stroke-width:1.0;" x1="280.8442" x2="1035.3926" y1="726.7715" y2="726.7715"/><text fill="#000000" font-family="sans-serif" font-size="13" font-weight="bold" lengthAdjust="spacing" textLength="32.5317" x="287.8442" y="721.5088">16.17</text><text fill="#000000" font-family="sans-serif" font-size="13" lengthAdjust="spacing" textLength="71.5254" x="324.376" y="721.5088">save(player)</text><polygon fill="#181818" points="291.8442,754.0625,281.8442,758.0625,291.8442,762.0625,287.8442,758.0625" style="stroke:#181818;stroke-width:1.0;"/><line style="stroke:#181818;stroke-width:1.0;stroke-dasharray:2.0,2.0;" x1="285.8442" x2="1045.3926" y1="758.0625" y2="758.0625"/><text fill="#000000" font-family="sans-serif" font-size="13" font-weight="bold" lengthAdjust="spacing" textLength="32.5317" x="297.8442" y="752.7998">16.18</text><text fill="#000000" font-family="sans-serif" font-size="13" lengthAdjust="spacing" textLength="22.4009" x="334.376" y="752.7998">true</text><polygon fill="#181818" points="11,792.3535,1,796.3535,11,800.3535,7,796.3535" style="stroke:#181818;stroke-width:1.0;"/><line style="stroke:#181818;stroke-width:1.0;stroke-dasharray:2.0,2.0;" x1="5" x2="274.8442" y1="796.3535" y2="796.3535"/><text fill="#000000" font-family="sans-serif" font-size="13" font-weight="bold" lengthAdjust="spacing" textLength="14.46" x="17" y="791.0908">17</text><text fill="#000000" font-family="sans-serif" font-size="13" lengthAdjust="spacing" textLength="22.4009" x="35.46" y="791.0908">true</text><!--SRC=[lPHHIyCm4CVV-oaEdnISu8l24C6DFGYJbZa4GP1RUdPbRLBIrB5lRvUkJPgbRlXWdyhbxf_VtUMktAIyG8avv88BjfOY9r2oeg3iJWfa6qpeLUqo0abC8Kyosw5SOoosAK_W2xEIWg0sgvIb1N855-D9jPiB9dAXqc-Q2gwao3AI5u0bJ9UBUT-zo717yeEF8_sZlQBvq_jiqVVBEidQr-Xh_tau3L_2vVFRR2XcGOKeKoNahXTjpAtEvs8MXJx2daBac2pgHY30IWbUvIkIS7iNZ1vrvcCeAidMM991k3IGrz1STUM4tzm6o6e7LDGK4EelaQ8g83heWH4CzF7-s_j2TpLR4zjCC4FE_9UsOSTtkOActcD8I4KohIMlUgwTYDKRS3vp12DJeRrOppKcdvWNh6c1Xcep7S0wF34NgJ5REAj6PWZe8EE1wHJqT7b2TNM3eGn-VIYUNddoQNCnef9oyKrjPNIb_roULhENtXdLEQR2E3wHvJ-ZdMoT6-oRYv9KkEKaBmV7Qs0ol5CnHE8R28j6BwEQ1KyzdsxpEIJQU1x7OV7v7xGDCbWGUu4Uz-LS55U5UDnGsJlrNbiUHYDRp1tE7m00]--></g></svg>