<svg xmlns="http://www.w3.org/2000/svg" xmlns:xlink="http://www.w3.org/1999/xlink" contentStyleType="text/css" height="1057px" preserveAspectRatio="none" style="width:1216px;height:1057px;background:#FFFFFF;" version="1.1" viewBox="0 0 1216 1057" width="1216px" zoomAndPan="magnify"><defs/><g><!--class ApplicationSession--><g id="elem_ApplicationSession"><rect codeLine="11" fill="#F1F1F1" height="141.1055" id="ApplicationSession" rx="2.5" ry="2.5" style="stroke:#181818;stroke-width:0.5;" width="150.8994" x="74.5" y="264"/><ellipse cx="89.7716" cy="280" fill="#ADD1B2" rx="11" ry="11" style="stroke:#181818;stroke-width:1.0;"/><path d="M92.5372,275.875 Q92.6935,275.6563 92.881,275.5469 Q93.0685,275.4375 93.2872,275.4375 Q93.6622,275.4375 93.8966,275.7031 Q94.131,275.9531 94.131,276.5625 L94.131,278.0156 Q94.131,278.625 93.8966,278.8906 Q93.6622,279.1563 93.2872,279.1563 Q92.9435,279.1563 92.7403,278.9531 Q92.5372,278.7656 92.4278,278.25 Q92.381,277.8906 92.1935,277.7031 Q91.8653,277.3281 91.256,277.1094 Q90.6466,276.8906 90.0216,276.8906 Q89.256,276.8906 88.6153,277.2188 Q87.9903,277.5469 87.4903,278.2969 Q87.006,279.0469 87.006,280.0781 L87.006,281.1719 Q87.006,282.4063 87.8966,283.2344 Q88.7872,284.0469 90.381,284.0469 Q91.3185,284.0469 91.9747,283.7969 Q92.3653,283.6406 92.7872,283.2031 Q93.0528,282.9375 93.1935,282.8594 Q93.3497,282.7813 93.5528,282.7813 Q93.881,282.7813 94.131,283.0469 Q94.3966,283.2969 94.3966,283.6406 Q94.3966,283.9844 94.0528,284.3906 Q93.5528,284.9688 92.756,285.2969 Q91.6778,285.75 90.381,285.75 Q88.8653,285.75 87.6622,285.125 Q86.6778,284.625 85.9903,283.5625 Q85.3028,282.4844 85.3028,281.2031 L85.3028,280.0469 Q85.3028,278.7188 85.9122,277.5781 Q86.5372,276.4219 87.631,275.8125 Q88.7247,275.1875 89.9591,275.1875 Q90.6935,275.1875 91.3341,275.3594 Q91.9903,275.5156 92.5372,275.875 Z " fill="#000000"/><text fill="#000000" font-family="sans-serif" font-size="14" lengthAdjust="spacing" textLength="118.2959" x="103.8319" y="285.7969">ApplicationSession</text><line style="stroke:#181818;stroke-width:0.5;" x1="75.5" x2="224.3994" y1="296" y2="296"/><line style="stroke:#181818;stroke-width:0.5;" x1="75.5" x2="224.3994" y1="304" y2="304"/><text fill="#000000" font-family="sans-serif" font-size="14" lengthAdjust="spacing" textLength="132.2822" x="80.5" y="323.1074">-ApplicationSession()</text><text fill="#000000" font-family="sans-serif" font-size="14" lengthAdjust="spacing" text-decoration="underline" textLength="89.8857" x="80.5" y="341.7285">+getInstance()</text><text fill="#000000" font-family="sans-serif" font-size="14" lengthAdjust="spacing" textLength="133.4512" x="80.5" y="360.3496">+getCurrentSession()</text><text fill="#000000" font-family="sans-serif" font-size="14" lengthAdjust="spacing" textLength="138.8994" x="80.5" y="378.9707">+getCurrentScenario()</text><text fill="#000000" font-family="sans-serif" font-size="14" lengthAdjust="spacing" textLength="113.2168" x="80.5" y="397.5918">+getCurrentDate()</text></g><!--class UserSession--><g id="elem_UserSession"><rect codeLine="19" fill="#F1F1F1" height="66.6211" id="UserSession" rx="2.5" ry="2.5" style="stroke:#181818;stroke-width:0.5;" width="113.541" x="7" y="549"/><ellipse cx="22.9791" cy="565" fill="#ADD1B2" rx="11" ry="11" style="stroke:#181818;stroke-width:1.0;"/><path d="M25.7447,560.875 Q25.901,560.6563 26.0885,560.5469 Q26.276,560.4375 26.4947,560.4375 Q26.8697,560.4375 27.1041,560.7031 Q27.3385,560.9531 27.3385,561.5625 L27.3385,563.0156 Q27.3385,563.625 27.1041,563.8906 Q26.8697,564.1563 26.4947,564.1563 Q26.151,564.1563 25.9479,563.9531 Q25.7447,563.7656 25.6354,563.25 Q25.5885,562.8906 25.401,562.7031 Q25.0729,562.3281 24.4635,562.1094 Q23.8541,561.8906 23.2291,561.8906 Q22.4635,561.8906 21.8229,562.2188 Q21.1979,562.5469 20.6979,563.2969 Q20.2135,564.0469 20.2135,565.0781 L20.2135,566.1719 Q20.2135,567.4063 21.1041,568.2344 Q21.9947,569.0469 23.5885,569.0469 Q24.526,569.0469 25.1822,568.7969 Q25.5729,568.6406 25.9947,568.2031 Q26.2604,567.9375 26.401,567.8594 Q26.5572,567.7813 26.7604,567.7813 Q27.0885,567.7813 27.3385,568.0469 Q27.6041,568.2969 27.6041,568.6406 Q27.6041,568.9844 27.2604,569.3906 Q26.7604,569.9688 25.9635,570.2969 Q24.8854,570.75 23.5885,570.75 Q22.0729,570.75 20.8697,570.125 Q19.8854,569.625 19.1979,568.5625 Q18.5104,567.4844 18.5104,566.2031 L18.5104,565.0469 Q18.5104,563.7188 19.1197,562.5781 Q19.7447,561.4219 20.8385,560.8125 Q21.9322,560.1875 23.1666,560.1875 Q23.901,560.1875 24.5416,560.3594 Q25.1979,560.5156 25.7447,560.875 Z " fill="#000000"/><text fill="#000000" font-family="sans-serif" font-size="14" lengthAdjust="spacing" textLength="79.3652" x="37.1967" y="570.7969">UserSession</text><line style="stroke:#181818;stroke-width:0.5;" x1="8" x2="119.541" y1="581" y2="581"/><line style="stroke:#181818;stroke-width:0.5;" x1="8" x2="119.541" y1="589" y2="589"/><text fill="#000000" font-family="sans-serif" font-size="14" lengthAdjust="spacing" textLength="101.541" x="13" y="608.1074">+getUsername()</text></g><!--class Player--><g id="elem_Player"><rect codeLine="23" fill="#F1F1F1" height="196.9688" id="Player" rx="2.5" ry="2.5" style="stroke:#181818;stroke-width:0.5;" width="257.9092" x="438" y="484"/><ellipse cx="542.8633" cy="500" fill="#ADD1B2" rx="11" ry="11" style="stroke:#181818;stroke-width:1.0;"/><path d="M545.6289,495.875 Q545.7852,495.6563 545.9727,495.5469 Q546.1602,495.4375 546.3789,495.4375 Q546.7539,495.4375 546.9883,495.7031 Q547.2227,495.9531 547.2227,496.5625 L547.2227,498.0156 Q547.2227,498.625 546.9883,498.8906 Q546.7539,499.1563 546.3789,499.1563 Q546.0352,499.1563 545.832,498.9531 Q545.6289,498.7656 545.5195,498.25 Q545.4727,497.8906 545.2852,497.7031 Q544.957,497.3281 544.3477,497.1094 Q543.7383,496.8906 543.1133,496.8906 Q542.3477,496.8906 541.707,497.2188 Q541.082,497.5469 540.582,498.2969 Q540.0977,499.0469 540.0977,500.0781 L540.0977,501.1719 Q540.0977,502.4063 540.9883,503.2344 Q541.8789,504.0469 543.4727,504.0469 Q544.4102,504.0469 545.0664,503.7969 Q545.457,503.6406 545.8789,503.2031 Q546.1445,502.9375 546.2852,502.8594 Q546.4414,502.7813 546.6445,502.7813 Q546.9727,502.7813 547.2227,503.0469 Q547.4883,503.2969 547.4883,503.6406 Q547.4883,503.9844 547.1445,504.3906 Q546.6445,504.9688 545.8477,505.2969 Q544.7695,505.75 543.4727,505.75 Q541.957,505.75 540.7539,505.125 Q539.7695,504.625 539.082,503.5625 Q538.3945,502.4844 538.3945,501.2031 L538.3945,500.0469 Q538.3945,498.7188 539.0039,497.5781 Q539.6289,496.4219 540.7227,495.8125 Q541.8164,495.1875 543.0508,495.1875 Q543.7852,495.1875 544.4258,495.3594 Q545.082,495.5156 545.6289,495.875 Z " fill="#000000"/><text fill="#000000" font-family="sans-serif" font-size="14" lengthAdjust="spacing" textLength="39.6826" x="563.3633" y="505.7969">Player</text><line style="stroke:#181818;stroke-width:0.5;" x1="439" x2="694.9092" y1="516" y2="516"/><text fill="#000000" font-family="sans-serif" font-size="14" lengthAdjust="spacing" textLength="115.1582" x="444" y="535.1074">-username : String</text><text fill="#000000" font-family="sans-serif" font-size="14" lengthAdjust="spacing" textLength="112.8203" x="444" y="553.7285">-password : String</text><text fill="#000000" font-family="sans-serif" font-size="14" lengthAdjust="spacing" textLength="134.6475" x="444" y="572.3496">-initialBudget : double</text><text fill="#000000" font-family="sans-serif" font-size="14" lengthAdjust="spacing" textLength="146.3164" x="444" y="590.9707">-currentBudget : double</text><text fill="#000000" font-family="sans-serif" font-size="14" lengthAdjust="spacing" textLength="245.9092" x="444" y="609.5918">-ownedLocomotives : List&lt;Locomotive&gt;</text><line style="stroke:#181818;stroke-width:0.5;" x1="439" x2="694.9092" y1="617.1055" y2="617.1055"/><text fill="#000000" font-family="sans-serif" font-size="14" lengthAdjust="spacing" textLength="170.0234" x="444" y="636.2129">+hasSufficientMoney(price)</text><text fill="#000000" font-family="sans-serif" font-size="14" lengthAdjust="spacing" textLength="152.8994" x="444" y="654.834">+removeMoney(amount)</text><text fill="#000000" font-family="sans-serif" font-size="14" lengthAdjust="spacing" textLength="179.3682" x="444" y="673.4551">+addLocomotive(locomotive)</text></g><!--class Locomotive--><g id="elem_Locomotive"><rect codeLine="35" fill="#F1F1F1" height="290.0742" id="Locomotive" rx="2.5" ry="2.5" style="stroke:#181818;stroke-width:0.5;" width="182.4336" x="663" y="760"/><ellipse cx="714.1704" cy="776" fill="#ADD1B2" rx="11" ry="11" style="stroke:#181818;stroke-width:1.0;"/><path d="M716.936,771.875 Q717.0923,771.6563 717.2798,771.5469 Q717.4673,771.4375 717.686,771.4375 Q718.061,771.4375 718.2954,771.7031 Q718.5298,771.9531 718.5298,772.5625 L718.5298,774.0156 Q718.5298,774.625 718.2954,774.8906 Q718.061,775.1563 717.686,775.1563 Q717.3423,775.1563 717.1392,774.9531 Q716.936,774.7656 716.8267,774.25 Q716.7798,773.8906 716.5923,773.7031 Q716.2642,773.3281 715.6548,773.1094 Q715.0454,772.8906 714.4204,772.8906 Q713.6548,772.8906 713.0142,773.2188 Q712.3892,773.5469 711.8892,774.2969 Q711.4048,775.0469 711.4048,776.0781 L711.4048,777.1719 Q711.4048,778.4063 712.2954,779.2344 Q713.186,780.0469 714.7798,780.0469 Q715.7173,780.0469 716.3735,779.7969 Q716.7642,779.6406 717.186,779.2031 Q717.4517,778.9375 717.5923,778.8594 Q717.7485,778.7813 717.9517,778.7813 Q718.2798,778.7813 718.5298,779.0469 Q718.7954,779.2969 718.7954,779.6406 Q718.7954,779.9844 718.4517,780.3906 Q717.9517,780.9688 717.1548,781.2969 Q716.0767,781.75 714.7798,781.75 Q713.2642,781.75 712.061,781.125 Q711.0767,780.625 710.3892,779.5625 Q709.7017,778.4844 709.7017,777.2031 L709.7017,776.0469 Q709.7017,774.7188 710.311,773.5781 Q710.936,772.4219 712.0298,771.8125 Q713.1235,771.1875 714.3579,771.1875 Q715.0923,771.1875 715.7329,771.3594 Q716.3892,771.5156 716.936,771.875 Z " fill="#000000"/><text fill="#000000" font-family="sans-serif" font-size="14" lengthAdjust="spacing" textLength="71.5928" x="734.6704" y="781.7969">Locomotive</text><line style="stroke:#181818;stroke-width:0.5;" x1="664" x2="844.4336" y1="792" y2="792"/><text fill="#000000" font-family="sans-serif" font-size="14" lengthAdjust="spacing" textLength="101.9238" x="669" y="811.1074">-nameID : String</text><text fill="#000000" font-family="sans-serif" font-size="14" lengthAdjust="spacing" textLength="94.1445" x="669" y="829.7285">-owner : Player</text><text fill="#000000" font-family="sans-serif" font-size="14" lengthAdjust="spacing" textLength="79.3652" x="669" y="848.3496">-type : String</text><text fill="#000000" font-family="sans-serif" font-size="14" lengthAdjust="spacing" textLength="96.5029" x="669" y="866.9707">-power : double</text><text fill="#000000" font-family="sans-serif" font-size="14" lengthAdjust="spacing" textLength="133.8613" x="669" y="885.5918">-acceleration : double</text><text fill="#000000" font-family="sans-serif" font-size="14" lengthAdjust="spacing" textLength="118.3164" x="669" y="904.2129">-topSpeed : double</text><text fill="#000000" font-family="sans-serif" font-size="14" lengthAdjust="spacing" textLength="87.917" x="669" y="922.834">-startYear : int</text><text fill="#000000" font-family="sans-serif" font-size="14" lengthAdjust="spacing" textLength="109.7305" x="669" y="941.4551">-fuelCost : double</text><text fill="#000000" font-family="sans-serif" font-size="14" lengthAdjust="spacing" textLength="125.2754" x="669" y="960.0762">-availabilityYear : int</text><text fill="#000000" font-family="sans-serif" font-size="14" lengthAdjust="spacing" textLength="156.4199" x="669" y="978.6973">-acquisitionPrice : double</text><text fill="#000000" font-family="sans-serif" font-size="14" lengthAdjust="spacing" textLength="170.4336" x="669" y="997.3184">-maintenancePrice : double</text><line style="stroke:#181818;stroke-width:0.5;" x1="664" x2="844.4336" y1="1004.832" y2="1004.832"/><text fill="#000000" font-family="sans-serif" font-size="14" lengthAdjust="spacing" textLength="68.8584" x="669" y="1023.9395">+getPrice()</text><text fill="#000000" font-family="sans-serif" font-size="14" lengthAdjust="spacing" textLength="115.541" x="669" y="1042.5605">+setOwner(player)</text></g><!--class Scenario--><g id="elem_Scenario"><rect codeLine="52" fill="#F1F1F1" height="196.9688" id="Scenario" rx="2.5" ry="2.5" style="stroke:#181818;stroke-width:0.5;" width="272.3125" x="731" y="484"/><ellipse cx="835.2788" cy="500" fill="#ADD1B2" rx="11" ry="11" style="stroke:#181818;stroke-width:1.0;"/><path d="M838.0444,495.875 Q838.2007,495.6563 838.3882,495.5469 Q838.5757,495.4375 838.7944,495.4375 Q839.1694,495.4375 839.4038,495.7031 Q839.6382,495.9531 839.6382,496.5625 L839.6382,498.0156 Q839.6382,498.625 839.4038,498.8906 Q839.1694,499.1563 838.7944,499.1563 Q838.4507,499.1563 838.2476,498.9531 Q838.0444,498.7656 837.9351,498.25 Q837.8882,497.8906 837.7007,497.7031 Q837.3726,497.3281 836.7632,497.1094 Q836.1538,496.8906 835.5288,496.8906 Q834.7632,496.8906 834.1226,497.2188 Q833.4976,497.5469 832.9976,498.2969 Q832.5132,499.0469 832.5132,500.0781 L832.5132,501.1719 Q832.5132,502.4063 833.4038,503.2344 Q834.2944,504.0469 835.8882,504.0469 Q836.8257,504.0469 837.4819,503.7969 Q837.8726,503.6406 838.2944,503.2031 Q838.5601,502.9375 838.7007,502.8594 Q838.8569,502.7813 839.0601,502.7813 Q839.3882,502.7813 839.6382,503.0469 Q839.9038,503.2969 839.9038,503.6406 Q839.9038,503.9844 839.5601,504.3906 Q839.0601,504.9688 838.2632,505.2969 Q837.1851,505.75 835.8882,505.75 Q834.3726,505.75 833.1694,505.125 Q832.1851,504.625 831.4976,503.5625 Q830.8101,502.4844 830.8101,501.2031 L830.8101,500.0469 Q830.8101,498.7188 831.4194,497.5781 Q832.0444,496.4219 833.1382,495.8125 Q834.2319,495.1875 835.4663,495.1875 Q836.2007,495.1875 836.8413,495.3594 Q837.4976,495.5156 838.0444,495.875 Z " fill="#000000"/><text fill="#000000" font-family="sans-serif" font-size="14" lengthAdjust="spacing" textLength="55.2549" x="855.7788" y="505.7969">Scenario</text><line style="stroke:#181818;stroke-width:0.5;" x1="732" x2="1002.3125" y1="516" y2="516"/><text fill="#000000" font-family="sans-serif" font-size="14" lengthAdjust="spacing" textLength="101.9238" x="737" y="535.1074">-nameID : String</text><text fill="#000000" font-family="sans-serif" font-size="14" lengthAdjust="spacing" textLength="87.9238" x="737" y="553.7285">-editor : Editor</text><text fill="#000000" font-family="sans-serif" font-size="14" lengthAdjust="spacing" textLength="102.7031" x="737" y="572.3496">-startDate : Date</text><text fill="#000000" font-family="sans-serif" font-size="14" lengthAdjust="spacing" textLength="98.834" x="737" y="590.9707">-endDate : Date</text><text fill="#000000" font-family="sans-serif" font-size="14" lengthAdjust="spacing" textLength="176.6201" x="737" y="609.5918">-tweakedCityList : List&lt;City&gt;</text><text fill="#000000" font-family="sans-serif" font-size="14" lengthAdjust="spacing" textLength="231.1162" x="737" y="628.2129">-availableIndustryList : List&lt;Industry&gt;</text><text fill="#000000" font-family="sans-serif" font-size="14" lengthAdjust="spacing" textLength="259.916" x="737" y="646.834">-availableLocomotives : List&lt;Locomotive&gt;</text><line style="stroke:#181818;stroke-width:0.5;" x1="732" x2="1002.3125" y1="654.3477" y2="654.3477"/><text fill="#000000" font-family="sans-serif" font-size="14" lengthAdjust="spacing" textLength="260.3125" x="737" y="673.4551">+getAvailableLocomotives(scenario, date)</text></g><!--class LocomotiveRepository--><g id="elem_LocomotiveRepository"><rect codeLine="64" fill="#F1F1F1" height="66.6211" id="LocomotiveRepository" rx="2.5" ry="2.5" style="stroke:#181818;stroke-width:0.5;" width="201.4717" x="1008.5" y="301"/><ellipse cx="1037.4329" cy="317" fill="#ADD1B2" rx="11" ry="11" style="stroke:#181818;stroke-width:1.0;"/><path d="M1040.1985,312.875 Q1040.3547,312.6563 1040.5422,312.5469 Q1040.7297,312.4375 1040.9485,312.4375 Q1041.3235,312.4375 1041.5579,312.7031 Q1041.7922,312.9531 1041.7922,313.5625 L1041.7922,315.0156 Q1041.7922,315.625 1041.5579,315.8906 Q1041.3235,316.1563 1040.9485,316.1563 Q1040.6047,316.1563 1040.4016,315.9531 Q1040.1985,315.7656 1040.0891,315.25 Q1040.0422,314.8906 1039.8547,314.7031 Q1039.5266,314.3281 1038.9172,314.1094 Q1038.3079,313.8906 1037.6829,313.8906 Q1036.9172,313.8906 1036.2766,314.2188 Q1035.6516,314.5469 1035.1516,315.2969 Q1034.6672,316.0469 1034.6672,317.0781 L1034.6672,318.1719 Q1034.6672,319.4063 1035.5579,320.2344 Q1036.4485,321.0469 1038.0422,321.0469 Q1038.9797,321.0469 1039.636,320.7969 Q1040.0266,320.6406 1040.4485,320.2031 Q1040.7141,319.9375 1040.8547,319.8594 Q1041.011,319.7813 1041.2141,319.7813 Q1041.5422,319.7813 1041.7922,320.0469 Q1042.0579,320.2969 1042.0579,320.6406 Q1042.0579,320.9844 1041.7141,321.3906 Q1041.2141,321.9688 1040.4172,322.2969 Q1039.3391,322.75 1038.0422,322.75 Q1036.5266,322.75 1035.3235,322.125 Q1034.3391,321.625 1033.6516,320.5625 Q1032.9641,319.4844 1032.9641,318.2031 L1032.9641,317.0469 Q1032.9641,315.7188 1033.5735,314.5781 Q1034.1985,313.4219 1035.2922,312.8125 Q1036.386,312.1875 1037.6204,312.1875 Q1038.3547,312.1875 1038.9954,312.3594 Q1039.6516,312.5156 1040.1985,312.875 Z " fill="#000000"/><text fill="#000000" font-family="sans-serif" font-size="14" lengthAdjust="spacing" textLength="138.5098" x="1054.5291" y="322.7969">LocomotiveRepository</text><line style="stroke:#181818;stroke-width:0.5;" x1="1009.5" x2="1208.9717" y1="333" y2="333"/><line style="stroke:#181818;stroke-width:0.5;" x1="1009.5" x2="1208.9717" y1="341" y2="341"/><text fill="#000000" font-family="sans-serif" font-size="14" lengthAdjust="spacing" textLength="189.4717" x="1014.5" y="360.1074">+getLocomotive(locomotiveID)</text></g><!--class PlayerRepository--><g id="elem_PlayerRepository"><rect codeLine="68" fill="#F1F1F1" height="66.6211" id="PlayerRepository" rx="2.5" ry="2.5" style="stroke:#181818;stroke-width:0.5;" width="231.8164" x="481" y="301"/><ellipse cx="539.3584" cy="317" fill="#ADD1B2" rx="11" ry="11" style="stroke:#181818;stroke-width:1.0;"/><path d="M542.124,312.875 Q542.2803,312.6563 542.4678,312.5469 Q542.6553,312.4375 542.874,312.4375 Q543.249,312.4375 543.4834,312.7031 Q543.7178,312.9531 543.7178,313.5625 L543.7178,315.0156 Q543.7178,315.625 543.4834,315.8906 Q543.249,316.1563 542.874,316.1563 Q542.5303,316.1563 542.3271,315.9531 Q542.124,315.7656 542.0146,315.25 Q541.9678,314.8906 541.7803,314.7031 Q541.4521,314.3281 540.8428,314.1094 Q540.2334,313.8906 539.6084,313.8906 Q538.8428,313.8906 538.2021,314.2188 Q537.5771,314.5469 537.0771,315.2969 Q536.5928,316.0469 536.5928,317.0781 L536.5928,318.1719 Q536.5928,319.4063 537.4834,320.2344 Q538.374,321.0469 539.9678,321.0469 Q540.9053,321.0469 541.5615,320.7969 Q541.9521,320.6406 542.374,320.2031 Q542.6396,319.9375 542.7803,319.8594 Q542.9365,319.7813 543.1396,319.7813 Q543.4678,319.7813 543.7178,320.0469 Q543.9834,320.2969 543.9834,320.6406 Q543.9834,320.9844 543.6396,321.3906 Q543.1396,321.9688 542.3428,322.2969 Q541.2646,322.75 539.9678,322.75 Q538.4521,322.75 537.249,322.125 Q536.2646,321.625 535.5771,320.5625 Q534.8896,319.4844 534.8896,318.2031 L534.8896,317.0469 Q534.8896,315.7188 535.499,314.5781 Q536.124,313.4219 537.2178,312.8125 Q538.3115,312.1875 539.5459,312.1875 Q540.2803,312.1875 540.9209,312.3594 Q541.5771,312.5156 542.124,312.875 Z " fill="#000000"/><text fill="#000000" font-family="sans-serif" font-size="14" lengthAdjust="spacing" textLength="106.5996" x="559.8584" y="322.7969">PlayerRepository</text><line style="stroke:#181818;stroke-width:0.5;" x1="482" x2="711.8164" y1="333" y2="333"/><line style="stroke:#181818;stroke-width:0.5;" x1="482" x2="711.8164" y1="341" y2="341"/><text fill="#000000" font-family="sans-serif" font-size="14" lengthAdjust="spacing" textLength="219.8164" x="487" y="360.1074">+getPlayerByUsername(username)</text></g><!--class ScenarioRepository--><g id="elem_ScenarioRepository"><rect codeLine="72" fill="#F1F1F1" height="66.6211" id="ScenarioRepository" rx="2.5" ry="2.5" style="stroke:#181818;stroke-width:0.5;" width="154.1719" x="819" y="301"/><ellipse cx="834" cy="317" fill="#ADD1B2" rx="11" ry="11" style="stroke:#181818;stroke-width:1.0;"/><path d="M836.7656,312.875 Q836.9219,312.6563 837.1094,312.5469 Q837.2969,312.4375 837.5156,312.4375 Q837.8906,312.4375 838.125,312.7031 Q838.3594,312.9531 838.3594,313.5625 L838.3594,315.0156 Q838.3594,315.625 838.125,315.8906 Q837.8906,316.1563 837.5156,316.1563 Q837.1719,316.1563 836.9688,315.9531 Q836.7656,315.7656 836.6563,315.25 Q836.6094,314.8906 836.4219,314.7031 Q836.0938,314.3281 835.4844,314.1094 Q834.875,313.8906 834.25,313.8906 Q833.4844,313.8906 832.8438,314.2188 Q832.2188,314.5469 831.7188,315.2969 Q831.2344,316.0469 831.2344,317.0781 L831.2344,318.1719 Q831.2344,319.4063 832.125,320.2344 Q833.0156,321.0469 834.6094,321.0469 Q835.5469,321.0469 836.2031,320.7969 Q836.5938,320.6406 837.0156,320.2031 Q837.2813,319.9375 837.4219,319.8594 Q837.5781,319.7813 837.7813,319.7813 Q838.1094,319.7813 838.3594,320.0469 Q838.625,320.2969 838.625,320.6406 Q838.625,320.9844 838.2813,321.3906 Q837.7813,321.9688 836.9844,322.2969 Q835.9063,322.75 834.6094,322.75 Q833.0938,322.75 831.8906,322.125 Q830.9063,321.625 830.2188,320.5625 Q829.5313,319.4844 829.5313,318.2031 L829.5313,317.0469 Q829.5313,315.7188 830.1406,314.5781 Q830.7656,313.4219 831.8594,312.8125 Q832.9531,312.1875 834.1875,312.1875 Q834.9219,312.1875 835.5625,312.3594 Q836.2188,312.5156 836.7656,312.875 Z " fill="#000000"/><text fill="#000000" font-family="sans-serif" font-size="14" lengthAdjust="spacing" textLength="122.1719" x="848" y="322.7969">ScenarioRepository</text><line style="stroke:#181818;stroke-width:0.5;" x1="820" x2="972.1719" y1="333" y2="333"/><line style="stroke:#181818;stroke-width:0.5;" x1="820" x2="972.1719" y1="341" y2="341"/><text fill="#000000" font-family="sans-serif" font-size="14" lengthAdjust="spacing" textLength="138.8994" x="825" y="360.1074">+getCurrentScenario()</text></g><!--class Repositories--><g id="elem_Repositories"><rect codeLine="76" fill="#F1F1F1" height="141.1055" id="Repositories" rx="2.5" ry="2.5" style="stroke:#181818;stroke-width:0.5;" width="187.4717" x="764.5" y="25.5"/><ellipse cx="815.0791" cy="41.5" fill="#ADD1B2" rx="11" ry="11" style="stroke:#181818;stroke-width:1.0;"/><path d="M817.8447,37.375 Q818.001,37.1563 818.1885,37.0469 Q818.376,36.9375 818.5947,36.9375 Q818.9697,36.9375 819.2041,37.2031 Q819.4385,37.4531 819.4385,38.0625 L819.4385,39.5156 Q819.4385,40.125 819.2041,40.3906 Q818.9697,40.6563 818.5947,40.6563 Q818.251,40.6563 818.0479,40.4531 Q817.8447,40.2656 817.7354,39.75 Q817.6885,39.3906 817.501,39.2031 Q817.1729,38.8281 816.5635,38.6094 Q815.9541,38.3906 815.3291,38.3906 Q814.5635,38.3906 813.9229,38.7188 Q813.2979,39.0469 812.7979,39.7969 Q812.3135,40.5469 812.3135,41.5781 L812.3135,42.6719 Q812.3135,43.9063 813.2041,44.7344 Q814.0947,45.5469 815.6885,45.5469 Q816.626,45.5469 817.2822,45.2969 Q817.6729,45.1406 818.0947,44.7031 Q818.3604,44.4375 818.501,44.3594 Q818.6572,44.2813 818.8604,44.2813 Q819.1885,44.2813 819.4385,44.5469 Q819.7041,44.7969 819.7041,45.1406 Q819.7041,45.4844 819.3604,45.8906 Q818.8604,46.4688 818.0635,46.7969 Q816.9854,47.25 815.6885,47.25 Q814.1729,47.25 812.9697,46.625 Q811.9854,46.125 811.2979,45.0625 Q810.6104,43.9844 810.6104,42.7031 L810.6104,41.5469 Q810.6104,40.2188 811.2197,39.0781 Q811.8447,37.9219 812.9385,37.3125 Q814.0322,36.6875 815.2666,36.6875 Q816.001,36.6875 816.6416,36.8594 Q817.2979,37.0156 817.8447,37.375 Z " fill="#000000"/><text fill="#000000" font-family="sans-serif" font-size="14" lengthAdjust="spacing" textLength="77.8135" x="835.5791" y="47.2969">Repositories</text><line style="stroke:#181818;stroke-width:0.5;" x1="765.5" x2="950.9717" y1="57.5" y2="57.5"/><line style="stroke:#181818;stroke-width:0.5;" x1="765.5" x2="950.9717" y1="65.5" y2="65.5"/><text fill="#000000" font-family="sans-serif" font-size="14" lengthAdjust="spacing" textLength="91.7998" x="770.5" y="84.6074">-Repositories()</text><text fill="#000000" font-family="sans-serif" font-size="14" lengthAdjust="spacing" text-decoration="underline" textLength="89.8857" x="770.5" y="103.2285">+getInstance()</text><text fill="#000000" font-family="sans-serif" font-size="14" lengthAdjust="spacing" textLength="175.4717" x="770.5" y="121.8496">+getLocomotiveRepository()</text><text fill="#000000" font-family="sans-serif" font-size="14" lengthAdjust="spacing" textLength="143.5615" x="770.5" y="140.4707">+getPlayerRepository()</text><text fill="#000000" font-family="sans-serif" font-size="14" lengthAdjust="spacing" textLength="159.1338" x="770.5" y="159.0918">+getScenarioRepository()</text></g><!--class BuyLocomotiveController--><g id="elem_BuyLocomotiveController"><rect codeLine="84" fill="#F1F1F1" height="178.3477" id="BuyLocomotiveController" rx="2.5" ry="2.5" style="stroke:#181818;stroke-width:0.5;" width="225.6025" x="473" y="7"/><ellipse cx="504.7383" cy="23" fill="#ADD1B2" rx="11" ry="11" style="stroke:#181818;stroke-width:1.0;"/><path d="M507.504,18.875 Q507.6602,18.6563 507.8477,18.5469 Q508.0352,18.4375 508.254,18.4375 Q508.629,18.4375 508.8633,18.7031 Q509.0977,18.9531 509.0977,19.5625 L509.0977,21.0156 Q509.0977,21.625 508.8633,21.8906 Q508.629,22.1563 508.254,22.1563 Q507.9102,22.1563 507.7071,21.9531 Q507.504,21.7656 507.3946,21.25 Q507.3477,20.8906 507.1602,20.7031 Q506.8321,20.3281 506.2227,20.1094 Q505.6133,19.8906 504.9883,19.8906 Q504.2227,19.8906 503.5821,20.2188 Q502.9571,20.5469 502.4571,21.2969 Q501.9727,22.0469 501.9727,23.0781 L501.9727,24.1719 Q501.9727,25.4063 502.8633,26.2344 Q503.754,27.0469 505.3477,27.0469 Q506.2852,27.0469 506.9415,26.7969 Q507.3321,26.6406 507.754,26.2031 Q508.0196,25.9375 508.1602,25.8594 Q508.3165,25.7813 508.5196,25.7813 Q508.8477,25.7813 509.0977,26.0469 Q509.3633,26.2969 509.3633,26.6406 Q509.3633,26.9844 509.0196,27.3906 Q508.5196,27.9688 507.7227,28.2969 Q506.6446,28.75 505.3477,28.75 Q503.8321,28.75 502.629,28.125 Q501.6446,27.625 500.9571,26.5625 Q500.2696,25.4844 500.2696,24.2031 L500.2696,23.0469 Q500.2696,21.7188 500.879,20.5781 Q501.504,19.4219 502.5977,18.8125 Q503.6915,18.1875 504.9258,18.1875 Q505.6602,18.1875 506.3008,18.3594 Q506.9571,18.5156 507.504,18.875 Z " fill="#000000"/><text fill="#000000" font-family="sans-serif" font-size="14" lengthAdjust="spacing" textLength="156.4063" x="522.458" y="28.7969">BuyLocomotiveController</text><line style="stroke:#181818;stroke-width:0.5;" x1="474" x2="697.6025" y1="39" y2="39"/><line style="stroke:#181818;stroke-width:0.5;" x1="474" x2="697.6025" y1="47" y2="47"/><text fill="#000000" font-family="sans-serif" font-size="14" lengthAdjust="spacing" textLength="173.9063" x="479" y="66.1074">+BuyLocomotiveController()</text><text fill="#000000" font-family="sans-serif" font-size="14" lengthAdjust="spacing" textLength="172.3682" x="479" y="84.7285">+getAvailableLocomotives()</text><text fill="#000000" font-family="sans-serif" font-size="14" lengthAdjust="spacing" textLength="189.4717" x="479" y="103.3496">+getLocomotive(locomotiveID)</text><text fill="#000000" font-family="sans-serif" font-size="14" lengthAdjust="spacing" textLength="213.6025" x="479" y="121.9707">+purchaseLocomotive(locomotive)</text><text fill="#000000" font-family="sans-serif" font-size="14" lengthAdjust="spacing" textLength="189.8682" x="479" y="140.5918">-getCurrentScenarioAndDate()</text><text fill="#000000" font-family="sans-serif" font-size="14" lengthAdjust="spacing" textLength="155.5996" x="479" y="159.2129">-getPlayerFromSession()</text><text fill="#000000" font-family="sans-serif" font-size="14" lengthAdjust="spacing" textLength="177.4063" x="479" y="177.834">-checkBalance(price, player)</text></g><!--class BuyLocomotiveUI--><g id="elem_BuyLocomotiveUI"><rect codeLine="94" fill="#F1F1F1" height="48" id="BuyLocomotiveUI" rx="2.5" ry="2.5" style="stroke:#181818;stroke-width:0.5;" width="141.7168" x="296" y="72"/><ellipse cx="311" cy="88" fill="#ADD1B2" rx="11" ry="11" style="stroke:#181818;stroke-width:1.0;"/><path d="M313.7656,83.875 Q313.9219,83.6563 314.1094,83.5469 Q314.2969,83.4375 314.5156,83.4375 Q314.8906,83.4375 315.125,83.7031 Q315.3594,83.9531 315.3594,84.5625 L315.3594,86.0156 Q315.3594,86.625 315.125,86.8906 Q314.8906,87.1563 314.5156,87.1563 Q314.1719,87.1563 313.9688,86.9531 Q313.7656,86.7656 313.6563,86.25 Q313.6094,85.8906 313.4219,85.7031 Q313.0938,85.3281 312.4844,85.1094 Q311.875,84.8906 311.25,84.8906 Q310.4844,84.8906 309.8438,85.2188 Q309.2188,85.5469 308.7188,86.2969 Q308.2344,87.0469 308.2344,88.0781 L308.2344,89.1719 Q308.2344,90.4063 309.125,91.2344 Q310.0156,92.0469 311.6094,92.0469 Q312.5469,92.0469 313.2031,91.7969 Q313.5938,91.6406 314.0156,91.2031 Q314.2813,90.9375 314.4219,90.8594 Q314.5781,90.7813 314.7813,90.7813 Q315.1094,90.7813 315.3594,91.0469 Q315.625,91.2969 315.625,91.6406 Q315.625,91.9844 315.2813,92.3906 Q314.7813,92.9688 313.9844,93.2969 Q312.9063,93.75 311.6094,93.75 Q310.0938,93.75 308.8906,93.125 Q307.9063,92.625 307.2188,91.5625 Q306.5313,90.4844 306.5313,89.2031 L306.5313,88.0469 Q306.5313,86.7188 307.1406,85.5781 Q307.7656,84.4219 308.8594,83.8125 Q309.9531,83.1875 311.1875,83.1875 Q311.9219,83.1875 312.5625,83.3594 Q313.2188,83.5156 313.7656,83.875 Z " fill="#000000"/><text fill="#000000" font-family="sans-serif" font-size="14" lengthAdjust="spacing" textLength="109.7168" x="325" y="93.7969">BuyLocomotiveUI</text><line style="stroke:#181818;stroke-width:0.5;" x1="297" x2="436.7168" y1="104" y2="104"/><line style="stroke:#181818;stroke-width:0.5;" x1="297" x2="436.7168" y1="112" y2="112"/></g><!--link BuyLocomotiveUI to BuyLocomotiveController--><g id="link_BuyLocomotiveUI_BuyLocomotiveController"><path codeLine="97" d="M438.2,96 C439.36,96 440,96 440,96 C440,96 449.77,96 466.66,96 " fill="none" id="BuyLocomotiveUI-to-BuyLocomotiveController" style="stroke:#181818;stroke-width:1.0;stroke-dasharray:7.0,7.0;"/><polygon fill="#181818" points="472.66,96,463.66,92,467.66,96,463.66,100,472.66,96" style="stroke:#181818;stroke-width:1.0;"/></g><!--link BuyLocomotiveController to ApplicationSession--><g id="link_BuyLocomotiveController_ApplicationSession"><path codeLine="99" d="M472.94,172.95 C462.08,180.25 455,185 455,185 C455,185 331,215 331,215 C331,215 280.33,248.1737 230.73,280.6437 " fill="none" id="BuyLocomotiveController-to-ApplicationSession" style="stroke:#181818;stroke-width:1.0;stroke-dasharray:7.0,7.0;"/><polygon fill="#181818" points="225.71,283.93,235.4308,282.3472,229.8933,281.1914,231.0491,275.6539,225.71,283.93" style="stroke:#181818;stroke-width:1.0;"/></g><!--link BuyLocomotiveController to UserSession--><g id="link_BuyLocomotiveController_UserSession"><path codeLine="100" d="M472.94,172.95 C462.08,180.25 455,185 455,185 C455,185 297,215 297,215 C297,215 57,264 57,264 C57,264 57,405 57,405 C57,405 60.4428,491.6747 62.4628,542.7247 " fill="none" id="BuyLocomotiveController-to-UserSession" style="stroke:#181818;stroke-width:1.0;stroke-dasharray:7.0,7.0;"/><polygon fill="#181818" points="62.7,548.72,66.341,539.5689,62.5023,543.7239,58.3473,539.8852,62.7,548.72" style="stroke:#181818;stroke-width:1.0;"/></g><!--link BuyLocomotiveController to Locomotive--><g id="link_BuyLocomotiveController_Locomotive"><path codeLine="101" d="M506,185.22 C490.52,202.3 479,215 479,215 C479,215 455,264 455,264 C455,264 420,484 420,484 C420,484 420,681 420,681 C420,681 558.8499,773.7085 657.7399,839.7285 " fill="none" id="BuyLocomotiveController-to-Locomotive" style="stroke:#181818;stroke-width:1.0;stroke-dasharray:7.0,7.0;"/><polygon fill="#181818" points="662.73,843.06,657.4658,834.7361,658.5716,840.2838,653.0238,841.3896,662.73,843.06" style="stroke:#181818;stroke-width:1.0;"/></g><!--link BuyLocomotiveController to LocomotiveRepository--><g id="link_BuyLocomotiveController_LocomotiveRepository"><path codeLine="102" d="M699.13,158.84 C725.98,173.51 747,185 747,185 C747,185 1000,215 1000,215 C1000,215 1042.5979,261.3142 1074.8679,296.3942 " fill="none" id="BuyLocomotiveController-to-LocomotiveRepository" style="stroke:#181818;stroke-width:1.0;stroke-dasharray:7.0,7.0;"/><polygon fill="#181818" points="1078.93,300.81,1075.7807,291.4782,1075.5449,297.1302,1069.893,296.8943,1078.93,300.81" style="stroke:#181818;stroke-width:1.0;"/></g><!--link BuyLocomotiveController to Player--><g id="link_BuyLocomotiveController_Player"><path codeLine="103" d="M520.9,185.39 C491.39,225.45 463,264 463,264 C463,264 463,405 463,405 C463,405 482.4243,437.9705 506.4743,478.7905 " fill="none" id="BuyLocomotiveController-to-Player" style="stroke:#181818;stroke-width:1.0;stroke-dasharray:7.0,7.0;"/><polygon fill="#181818" points="509.52,483.96,508.3977,474.1753,506.9819,479.6521,501.5051,478.2362,509.52,483.96" style="stroke:#181818;stroke-width:1.0;"/></g><!--link BuyLocomotiveController to PlayerRepository--><g id="link_BuyLocomotiveController_PlayerRepository"><path codeLine="104" d="M590.1,185.06 C591.98,225.51 593.8108,265.0165 595.2008,294.8565 " fill="none" id="BuyLocomotiveController-to-PlayerRepository" style="stroke:#181818;stroke-width:1.0;stroke-dasharray:7.0,7.0;"/><polygon fill="#181818" points="595.48,300.85,599.0569,291.6736,595.2473,295.8554,591.0656,292.0459,595.48,300.85" style="stroke:#181818;stroke-width:1.0;"/></g><!--link BuyLocomotiveController to Scenario--><g id="link_BuyLocomotiveController_Scenario"><path codeLine="105" d="M699.15,181.5 C724.47,200.42 744,215 744,215 C744,215 802,405 802,405 C802,405 813.9769,437.5095 829.0069,478.3295 " fill="none" id="BuyLocomotiveController-to-Scenario" style="stroke:#181818;stroke-width:1.0;stroke-dasharray:7.0,7.0;"/><polygon fill="#181818" points="831.08,483.96,831.7239,474.1322,829.3524,479.268,824.2166,476.8964,831.08,483.96" style="stroke:#181818;stroke-width:1.0;"/></g><!--link BuyLocomotiveController to ScenarioRepository--><g id="link_BuyLocomotiveController_ScenarioRepository"><path codeLine="106" d="M699.24,161.87 C747.11,189.29 792,215 792,215 C792,215 832.5621,261.2206 863.3521,296.3006 " fill="none" id="BuyLocomotiveController-to-ScenarioRepository" style="stroke:#181818;stroke-width:1.0;stroke-dasharray:7.0,7.0;"/><polygon fill="#181818" points="867.31,300.81,864.3794,291.4073,864.0117,297.0522,858.3668,296.6845,867.31,300.81" style="stroke:#181818;stroke-width:1.0;"/></g><!--link BuyLocomotiveController to Repositories--><g id="link_BuyLocomotiveController_Repositories"><path codeLine="107" d="M699.08,96 C721.52,96 748.14,96 758.24,96 " fill="none" id="BuyLocomotiveController-to-Repositories" style="stroke:#181818;stroke-width:1.0;stroke-dasharray:7.0,7.0;"/><polygon fill="#181818" points="764.24,96,755.24,92,759.24,96,755.24,100,764.24,96" style="stroke:#181818;stroke-width:1.0;"/></g><!--link Repositories to Repositories--><g id="link_Repositories_Repositories"><path codeLine="109" d="M951.56,72.71 C971.81,74.99 986.5,82.75 986.5,96 C986.5,109.25 977.7723,116.3387 957.5223,118.6187 " fill="none" id="Repositories-to-Repositories" style="stroke:#181818;stroke-width:1.0;"/><polygon fill="#181818" points="951.56,119.29,960.951,122.2579,956.5286,118.7306,960.0559,114.3081,951.56,119.29" style="stroke:#181818;stroke-width:1.0;"/><text fill="#000000" font-family="sans-serif" font-size="13" lengthAdjust="spacing" textLength="48.4199" x="992.5" y="101.5283">instance</text><text fill="#000000" font-family="sans-serif" font-size="13" lengthAdjust="spacing" textLength="7.23" x="959.8907" y="117.5973">1</text></g><!--link Repositories to LocomotiveRepository--><g id="link_Repositories_LocomotiveRepository"><path codeLine="110" d="M951.5,150.82 C1005.57,181.94 1063,215 1063,215 C1063,215 1080.5184,260.1368 1094.1384,295.2168 " fill="none" id="Repositories-to-LocomotiveRepository" style="stroke:#181818;stroke-width:1.0;"/><polygon fill="#181818" points="1096.31,300.81,1096.7814,290.9724,1094.5003,296.149,1089.3238,293.8679,1096.31,300.81" style="stroke:#181818;stroke-width:1.0;"/><text fill="#000000" font-family="sans-serif" font-size="13" lengthAdjust="spacing" textLength="124.2744" x="1070" y="230.0283">locomotiveRepository</text><text fill="#000000" font-family="sans-serif" font-size="13" lengthAdjust="spacing" textLength="7.23" x="1086.2007" y="289.8597">1</text></g><!--link Repositories to PlayerRepository--><g id="link_Repositories_PlayerRepository"><path codeLine="111" d="M781.1,166.68 C732.23,210.96 675.6761,262.2111 637.6261,296.6911 " fill="none" id="Repositories-to-PlayerRepository" style="stroke:#181818;stroke-width:1.0;"/><polygon fill="#181818" points="633.18,300.72,642.5351,297.6407,636.8851,297.3626,637.1632,291.7125,633.18,300.72" style="stroke:#181818;stroke-width:1.0;"/><text fill="#000000" font-family="sans-serif" font-size="13" lengthAdjust="spacing" textLength="97.5444" x="728" y="230.0283">playerRepository</text><text fill="#000000" font-family="sans-serif" font-size="13" lengthAdjust="spacing" textLength="7.23" x="632.449" y="289.7525">1</text></g><!--link Repositories to ScenarioRepository--><g id="link_Repositories_ScenarioRepository"><path codeLine="112" d="M869.2,166.68 C876.31,210.96 884.2382,260.316 889.7782,294.796 " fill="none" id="Repositories-to-ScenarioRepository" style="stroke:#181818;stroke-width:1.0;"/><polygon fill="#181818" points="890.73,300.72,893.2516,291.1994,889.9368,295.7833,885.3529,292.4685,890.73,300.72" style="stroke:#181818;stroke-width:1.0;"/><text fill="#000000" font-family="sans-serif" font-size="13" lengthAdjust="spacing" textLength="111.2744" x="880" y="230.0283">scenarioRepository</text><text fill="#000000" font-family="sans-serif" font-size="13" lengthAdjust="spacing" textLength="7.23" x="882.0638" y="289.7525">1</text></g><!--link ApplicationSession to ApplicationSession--><g id="link_ApplicationSession_ApplicationSession"><path codeLine="114" d="M225.66,314.07 C245.5,315.28 260.5,322.09 260.5,334.5 C260.5,346.91 251.4889,353.3548 231.6489,354.5648 " fill="none" id="ApplicationSession-to-ApplicationSession" style="stroke:#181818;stroke-width:1.0;"/><polygon fill="#181818" points="225.66,354.93,234.8868,358.3747,230.6507,354.6256,234.3998,350.3895,225.66,354.93" style="stroke:#181818;stroke-width:1.0;"/><text fill="#000000" font-family="sans-serif" font-size="13" lengthAdjust="spacing" textLength="48.4199" x="266.5" y="340.0283">instance</text><text fill="#000000" font-family="sans-serif" font-size="13" lengthAdjust="spacing" textLength="7.23" x="233.4686" y="353.1418">1</text></g><!--link ApplicationSession to UserSession--><g id="link_ApplicationSession_UserSession"><path codeLine="115" d="M125.7,405.01 C109.21,452.18 90.1395,506.716 77.3795,543.226 " fill="none" id="ApplicationSession-to-UserSession" style="stroke:#181818;stroke-width:1.0;stroke-dasharray:7.0,7.0;"/><polygon fill="#181818" points="75.4,548.89,82.1453,541.7136,77.0496,544.17,74.5933,539.0742,75.4,548.89" style="stroke:#181818;stroke-width:1.0;"/></g><!--link LocomotiveRepository to Locomotive--><g id="link_LocomotiveRepository_Locomotive"><path codeLine="117" d="M1100.72,368 C1078.81,454.01 1021,681 1021,681 C1021,681 927.0952,759.4339 849.7452,824.0339 " fill="none" id="LocomotiveRepository-to-Locomotive" style="stroke:#181818;stroke-width:1.0;"/><polygon fill="#181818" points="845.14,827.88,854.6118,825.181,848.9776,824.6749,849.4837,819.0408,845.14,827.88" style="stroke:#181818;stroke-width:1.0;"/><text fill="#000000" font-family="sans-serif" font-size="13" lengthAdjust="spacing" textLength="68.6372" x="1071" y="588.0283">locomotives</text><text fill="#000000" font-family="sans-serif" font-size="13" lengthAdjust="spacing" textLength="5.0591" x="853.4631" y="817.2924">*</text></g><!--link PlayerRepository to Player--><g id="link_PlayerRepository_Player"><path codeLine="118" d="M593.02,368.17 C589.41,397.7 584.6462,436.7741 579.6362,477.8641 " fill="none" id="PlayerRepository-to-Player" style="stroke:#181818;stroke-width:1.0;"/><polygon fill="#181818" points="578.91,483.82,583.9699,475.3703,579.5152,478.8568,576.0287,474.402,578.91,483.82" style="stroke:#181818;stroke-width:1.0;"/><text fill="#000000" font-family="sans-serif" font-size="13" lengthAdjust="spacing" textLength="41.9072" x="586" y="450.0283">players</text><text fill="#000000" font-family="sans-serif" font-size="13" lengthAdjust="spacing" textLength="5.0591" x="574.6362" y="472.6547">*</text></g><!--link ScenarioRepository to Scenario--><g id="link_ScenarioRepository_Scenario"><path codeLine="119" d="M892.15,368.17 C888.67,397.7 884.0619,436.7712 879.2219,477.8612 " fill="none" id="ScenarioRepository-to-Scenario" style="stroke:#181818;stroke-width:1.0;"/><polygon fill="#181818" points="878.52,483.82,883.5454,475.3497,879.1049,478.8543,875.6003,474.4139,878.52,483.82" style="stroke:#181818;stroke-width:1.0;"/><text fill="#000000" font-family="sans-serif" font-size="13" lengthAdjust="spacing" textLength="55.6372" x="885" y="450.0283">scenarios</text><text fill="#000000" font-family="sans-serif" font-size="13" lengthAdjust="spacing" textLength="5.0591" x="874.2009" y="472.6547">*</text></g><!--link Player to Locomotive--><g id="link_Player_Locomotive"><path codeLine="121" d="M624.12,681.4 C638.57,706.16 651.3668,728.0873 666.8368,754.6073 " fill="none" id="Player-to-Locomotive" style="stroke:#181818;stroke-width:1.0;"/><polygon fill="#181818" points="669.86,759.79,668.7803,750.0005,667.3406,755.4711,661.87,754.0315,669.86,759.79" style="stroke:#181818;stroke-width:1.0;"/><text fill="#000000" font-family="sans-serif" font-size="13" lengthAdjust="spacing" textLength="111.2871" x="650" y="726.0283">ownedLocomotives</text><text fill="#000000" font-family="sans-serif" font-size="13" lengthAdjust="spacing" textLength="5.0591" x="660.383" y="748.8982">*</text></g><!--link Scenario to Locomotive--><g id="link_Scenario_Locomotive"><path codeLine="122" d="M832.48,681.4 C823.75,706.16 816.185,727.6114 806.835,754.1314 " fill="none" id="Scenario-to-Locomotive" style="stroke:#181818;stroke-width:1.0;"/><polygon fill="#181818" points="804.84,759.79,811.6049,752.6321,806.5025,755.0745,804.0601,749.9721,804.84,759.79" style="stroke:#181818;stroke-width:1.0;"/><text fill="#000000" font-family="sans-serif" font-size="13" lengthAdjust="spacing" textLength="124.2935" x="821" y="726.0283">availableLocomotives</text><text fill="#000000" font-family="sans-serif" font-size="13" lengthAdjust="spacing" textLength="5.0591" x="802.3229" y="748.8982">*</text></g><!--SRC=[ZLPDRzim3BthLmYzD5q_i5s38K2ITa203YiMzB2Z8ZE945do9Bc1L_I_Z_AdRAkjSqdCzyYGJoJbItiIAcE6fJJLIlEZqIbGPt8W7P8nVc87sBf20ZN07LC76HBiaINwBDI1xfcq8IA50bTaG3Cj2_z0BYEWDawJm8jBPktIEIDskOCDrseh_W7zIiYbXBsZJbCZ3aT74-7J4LeHKlhGPPP9mPatRS5Q_AAlXEBdDWBDhahechvQXtR-HW_WDWeV58SMHDiwDmQK6xe520V5ZD0Hw9uv7-kjoV3PWkcdLhAzMR6qHtsIh03J5f3N53gdMvH67MfxXjopDidGBfHmWibLdc1y11ETx_3OAf1NsSL1VLQGF6gkK-t42rZ47uLrtplJecJMwH-PtURxlU028_xK2efPPWI7HWm3gNw12c2fpfLh49O4VpEJxSz0X0vlXV0YREw7vVga3HehrMfZsLv3lVIv9FPAPfo315Esnn1pEjjc0CdGZerYt1zWFfXGhhRkSv1hRKUYiXSc9Di9ALmnScByRowiyF_-vAKREgSCkTXZs9WHl6kZ4coxq8BxvLMPPQKcWQfDmtwYAIJ2QP_fG_aZhDltDGB-go6hP6nqPs0dIDPOj6-XffFyyw8lZ8IDIdBhJ8_Os4RawUs9iYmZNZDRQt134ymtsdA_8TFMLrw4infjsStzQ7BZtXMsAjg9R-OwSZpn2EEbqpgs3W9bQSusD4xUUJ4HGdnOOeYDqmzpNEL55tojbJDQodRFNR-7XtyGFS-h2ITKCRBSS5nQyCxkgLGR2xsi6dmMC2eLVk2jsRySSC4UWPzMJ9QwbklmXex6i5VgymObG6Xel5ky9yc06sXvXqxZ2-z3Ud0nVSZhW8cqhWi-TAZtzkUKYV6QKvj4cX9pqHiaGdgpThkW5zyk-lFd5tmrM0DkJOxkcJcLCUMY0KPhPbwts6UEaVqoftQi1OcyJzKX8aXGRmGTzXY9bbzc-2NKfgU89QEQ6u_wRQcHm998aGstlVwwgl50wmZH58QlH6tqE3rsJP7_]--></g></svg>