<svg xmlns="http://www.w3.org/2000/svg" xmlns:xlink="http://www.w3.org/1999/xlink" contentStyleType="text/css" height="1127px" preserveAspectRatio="none" style="width:1665px;height:1127px;background:#FFFFFF;" version="1.1" viewBox="0 0 1665 1127" width="1665px" zoomAndPan="magnify"><defs/><g><!--class ApplicationSession--><g id="elem_ApplicationSession"><rect codeLine="11" fill="#F1F1F1" height="103.8633" id="ApplicationSession" rx="2.5" ry="2.5" style="stroke:#181818;stroke-width:0.5;" width="150.2959" x="15" y="260"/><ellipse cx="30" cy="276" fill="#ADD1B2" rx="11" ry="11" style="stroke:#181818;stroke-width:1.0;"/><path d="M32.7656,271.875 Q32.9219,271.6563 33.1094,271.5469 Q33.2969,271.4375 33.5156,271.4375 Q33.8906,271.4375 34.125,271.7031 Q34.3594,271.9531 34.3594,272.5625 L34.3594,274.0156 Q34.3594,274.625 34.125,274.8906 Q33.8906,275.1563 33.5156,275.1563 Q33.1719,275.1563 32.9688,274.9531 Q32.7656,274.7656 32.6563,274.25 Q32.6094,273.8906 32.4219,273.7031 Q32.0938,273.3281 31.4844,273.1094 Q30.875,272.8906 30.25,272.8906 Q29.4844,272.8906 28.8438,273.2188 Q28.2188,273.5469 27.7188,274.2969 Q27.2344,275.0469 27.2344,276.0781 L27.2344,277.1719 Q27.2344,278.4063 28.125,279.2344 Q29.0156,280.0469 30.6094,280.0469 Q31.5469,280.0469 32.2031,279.7969 Q32.5938,279.6406 33.0156,279.2031 Q33.2813,278.9375 33.4219,278.8594 Q33.5781,278.7813 33.7813,278.7813 Q34.1094,278.7813 34.3594,279.0469 Q34.625,279.2969 34.625,279.6406 Q34.625,279.9844 34.2813,280.3906 Q33.7813,280.9688 32.9844,281.2969 Q31.9063,281.75 30.6094,281.75 Q29.0938,281.75 27.8906,281.125 Q26.9063,280.625 26.2188,279.5625 Q25.5313,278.4844 25.5313,277.2031 L25.5313,276.0469 Q25.5313,274.7188 26.1406,273.5781 Q26.7656,272.4219 27.8594,271.8125 Q28.9531,271.1875 30.1875,271.1875 Q30.9219,271.1875 31.5625,271.3594 Q32.2188,271.5156 32.7656,271.875 Z " fill="#000000"/><text fill="#000000" font-family="sans-serif" font-size="14" lengthAdjust="spacing" textLength="118.2959" x="44" y="281.7969">ApplicationSession</text><line style="stroke:#181818;stroke-width:0.5;" x1="16" x2="164.2959" y1="292" y2="292"/><line style="stroke:#181818;stroke-width:0.5;" x1="16" x2="164.2959" y1="300" y2="300"/><text fill="#000000" font-family="sans-serif" font-size="14" lengthAdjust="spacing" textLength="132.2822" x="21" y="319.1074">-ApplicationSession()</text><text fill="#000000" font-family="sans-serif" font-size="14" lengthAdjust="spacing" text-decoration="underline" textLength="89.8857" x="21" y="337.7285">+getInstance()</text><text fill="#000000" font-family="sans-serif" font-size="14" lengthAdjust="spacing" textLength="133.4512" x="21" y="356.3496">+getCurrentSession()</text></g><!--class UserSession--><g id="elem_UserSession"><rect codeLine="18" fill="#F1F1F1" height="66.6211" id="UserSession" rx="2.5" ry="2.5" style="stroke:#181818;stroke-width:0.5;" width="113.541" x="158" y="601"/><ellipse cx="173.9791" cy="617" fill="#ADD1B2" rx="11" ry="11" style="stroke:#181818;stroke-width:1.0;"/><path d="M176.7447,612.875 Q176.901,612.6563 177.0885,612.5469 Q177.276,612.4375 177.4947,612.4375 Q177.8697,612.4375 178.1041,612.7031 Q178.3385,612.9531 178.3385,613.5625 L178.3385,615.0156 Q178.3385,615.625 178.1041,615.8906 Q177.8697,616.1563 177.4947,616.1563 Q177.151,616.1563 176.9479,615.9531 Q176.7447,615.7656 176.6354,615.25 Q176.5885,614.8906 176.401,614.7031 Q176.0729,614.3281 175.4635,614.1094 Q174.8541,613.8906 174.2291,613.8906 Q173.4635,613.8906 172.8229,614.2188 Q172.1979,614.5469 171.6979,615.2969 Q171.2135,616.0469 171.2135,617.0781 L171.2135,618.1719 Q171.2135,619.4063 172.1041,620.2344 Q172.9947,621.0469 174.5885,621.0469 Q175.526,621.0469 176.1822,620.7969 Q176.5729,620.6406 176.9947,620.2031 Q177.2604,619.9375 177.401,619.8594 Q177.5572,619.7813 177.7604,619.7813 Q178.0885,619.7813 178.3385,620.0469 Q178.6041,620.2969 178.6041,620.6406 Q178.6041,620.9844 178.2604,621.3906 Q177.7604,621.9688 176.9635,622.2969 Q175.8854,622.75 174.5885,622.75 Q173.0729,622.75 171.8697,622.125 Q170.8854,621.625 170.1979,620.5625 Q169.5104,619.4844 169.5104,618.2031 L169.5104,617.0469 Q169.5104,615.7188 170.1197,614.5781 Q170.7447,613.4219 171.8385,612.8125 Q172.9322,612.1875 174.1666,612.1875 Q174.901,612.1875 175.5416,612.3594 Q176.1979,612.5156 176.7447,612.875 Z " fill="#000000"/><text fill="#000000" font-family="sans-serif" font-size="14" lengthAdjust="spacing" textLength="79.3652" x="188.1967" y="622.7969">UserSession</text><line style="stroke:#181818;stroke-width:0.5;" x1="159" x2="270.541" y1="633" y2="633"/><line style="stroke:#181818;stroke-width:0.5;" x1="159" x2="270.541" y1="641" y2="641"/><text fill="#000000" font-family="sans-serif" font-size="14" lengthAdjust="spacing" textLength="101.541" x="164" y="660.1074">+getUsername()</text></g><!--class Player--><g id="elem_Player"><rect codeLine="23" fill="#F1F1F1" height="215.5898" id="Player" rx="2.5" ry="2.5" style="stroke:#181818;stroke-width:0.5;" width="370.3604" x="278" y="905"/><ellipse cx="439.0889" cy="921" fill="#ADD1B2" rx="11" ry="11" style="stroke:#181818;stroke-width:1.0;"/><path d="M441.8545,916.875 Q442.0107,916.6563 442.1982,916.5469 Q442.3857,916.4375 442.6045,916.4375 Q442.9795,916.4375 443.2139,916.7031 Q443.4482,916.9531 443.4482,917.5625 L443.4482,919.0156 Q443.4482,919.625 443.2139,919.8906 Q442.9795,920.1563 442.6045,920.1563 Q442.2607,920.1563 442.0576,919.9531 Q441.8545,919.7656 441.7451,919.25 Q441.6982,918.8906 441.5107,918.7031 Q441.1826,918.3281 440.5732,918.1094 Q439.9639,917.8906 439.3389,917.8906 Q438.5732,917.8906 437.9326,918.2188 Q437.3076,918.5469 436.8076,919.2969 Q436.3232,920.0469 436.3232,921.0781 L436.3232,922.1719 Q436.3232,923.4063 437.2139,924.2344 Q438.1045,925.0469 439.6982,925.0469 Q440.6357,925.0469 441.292,924.7969 Q441.6826,924.6406 442.1045,924.2031 Q442.3701,923.9375 442.5107,923.8594 Q442.667,923.7813 442.8701,923.7813 Q443.1982,923.7813 443.4482,924.0469 Q443.7139,924.2969 443.7139,924.6406 Q443.7139,924.9844 443.3701,925.3906 Q442.8701,925.9688 442.0732,926.2969 Q440.9951,926.75 439.6982,926.75 Q438.1826,926.75 436.9795,926.125 Q435.9951,925.625 435.3076,924.5625 Q434.6201,923.4844 434.6201,922.2031 L434.6201,921.0469 Q434.6201,919.7188 435.2295,918.5781 Q435.8545,917.4219 436.9482,916.8125 Q438.042,916.1875 439.2764,916.1875 Q440.0107,916.1875 440.6514,916.3594 Q441.3076,916.5156 441.8545,916.875 Z " fill="#000000"/><text fill="#000000" font-family="sans-serif" font-size="14" lengthAdjust="spacing" textLength="39.6826" x="459.5889" y="926.7969">Player</text><line style="stroke:#181818;stroke-width:0.5;" x1="279" x2="647.3604" y1="937" y2="937"/><text fill="#000000" font-family="sans-serif" font-size="14" lengthAdjust="spacing" textLength="115.1582" x="284" y="956.1074">-username : String</text><text fill="#000000" font-family="sans-serif" font-size="14" lengthAdjust="spacing" textLength="112.8203" x="284" y="974.7285">-password : String</text><text fill="#000000" font-family="sans-serif" font-size="14" lengthAdjust="spacing" textLength="134.6475" x="284" y="993.3496">-initialBudget : double</text><text fill="#000000" font-family="sans-serif" font-size="14" lengthAdjust="spacing" textLength="146.3164" x="284" y="1011.9707">-currentBudget : double</text><text fill="#000000" font-family="sans-serif" font-size="14" lengthAdjust="spacing" textLength="245.9092" x="284" y="1030.5918">-ownedLocomotives : List&lt;Locomotive&gt;</text><line style="stroke:#181818;stroke-width:0.5;" x1="279" x2="647.3604" y1="1038.1055" y2="1038.1055"/><text fill="#000000" font-family="sans-serif" font-size="14" lengthAdjust="spacing" textLength="141.2646" x="284" y="1057.2129">+getBalance() : double</text><text fill="#000000" font-family="sans-serif" font-size="14" lengthAdjust="spacing" textLength="358.3604" x="284" y="1075.834">+purchaseLocomotive(locomotive : Locomotive) : boolean</text><text fill="#000000" font-family="sans-serif" font-size="14" lengthAdjust="spacing" textLength="273.1641" x="284" y="1094.4551">-removeBalance(amount : double) : boolean</text><text fill="#000000" font-family="sans-serif" font-size="14" lengthAdjust="spacing" textLength="320.6123" x="284" y="1113.0762">-addLocomotive(locomotive : Locomotive) : boolean</text></g><!--class Locomotive--><g id="elem_Locomotive"><rect codeLine="36" fill="#F1F1F1" height="383.1797" id="Locomotive" rx="2.5" ry="2.5" style="stroke:#181818;stroke-width:0.5;" width="240.3887" x="420" y="443"/><ellipse cx="500.1479" cy="459" fill="#ADD1B2" rx="11" ry="11" style="stroke:#181818;stroke-width:1.0;"/><path d="M502.9136,454.875 Q503.0698,454.6563 503.2573,454.5469 Q503.4448,454.4375 503.6636,454.4375 Q504.0386,454.4375 504.2729,454.7031 Q504.5073,454.9531 504.5073,455.5625 L504.5073,457.0156 Q504.5073,457.625 504.2729,457.8906 Q504.0386,458.1563 503.6636,458.1563 Q503.3198,458.1563 503.1167,457.9531 Q502.9136,457.7656 502.8042,457.25 Q502.7573,456.8906 502.5698,456.7031 Q502.2417,456.3281 501.6323,456.1094 Q501.0229,455.8906 500.3979,455.8906 Q499.6323,455.8906 498.9917,456.2188 Q498.3667,456.5469 497.8667,457.2969 Q497.3823,458.0469 497.3823,459.0781 L497.3823,460.1719 Q497.3823,461.4063 498.2729,462.2344 Q499.1636,463.0469 500.7573,463.0469 Q501.6948,463.0469 502.3511,462.7969 Q502.7417,462.6406 503.1636,462.2031 Q503.4292,461.9375 503.5698,461.8594 Q503.7261,461.7813 503.9292,461.7813 Q504.2573,461.7813 504.5073,462.0469 Q504.7729,462.2969 504.7729,462.6406 Q504.7729,462.9844 504.4292,463.3906 Q503.9292,463.9688 503.1323,464.2969 Q502.0542,464.75 500.7573,464.75 Q499.2417,464.75 498.0386,464.125 Q497.0542,463.625 496.3667,462.5625 Q495.6792,461.4844 495.6792,460.2031 L495.6792,459.0469 Q495.6792,457.7188 496.2886,456.5781 Q496.9136,455.4219 498.0073,454.8125 Q499.1011,454.1875 500.3354,454.1875 Q501.0698,454.1875 501.7104,454.3594 Q502.3667,454.5156 502.9136,454.875 Z " fill="#000000"/><text fill="#000000" font-family="sans-serif" font-size="14" lengthAdjust="spacing" textLength="71.5928" x="520.6479" y="464.7969">Locomotive</text><line style="stroke:#181818;stroke-width:0.5;" x1="421" x2="659.3887" y1="475" y2="475"/><text fill="#000000" font-family="sans-serif" font-size="14" lengthAdjust="spacing" textLength="101.9238" x="426" y="494.1074">-nameID : String</text><text fill="#000000" font-family="sans-serif" font-size="14" lengthAdjust="spacing" textLength="79.3652" x="426" y="512.7285">-type : String</text><text fill="#000000" font-family="sans-serif" font-size="14" lengthAdjust="spacing" textLength="96.5029" x="426" y="531.3496">-power : double</text><text fill="#000000" font-family="sans-serif" font-size="14" lengthAdjust="spacing" textLength="133.8613" x="426" y="549.9707">-acceleration : double</text><text fill="#000000" font-family="sans-serif" font-size="14" lengthAdjust="spacing" textLength="118.3164" x="426" y="568.5918">-topSpeed : double</text><text fill="#000000" font-family="sans-serif" font-size="14" lengthAdjust="spacing" textLength="87.917" x="426" y="587.2129">-startYear : int</text><text fill="#000000" font-family="sans-serif" font-size="14" lengthAdjust="spacing" textLength="109.7305" x="426" y="605.834">-fuelCost : double</text><text fill="#000000" font-family="sans-serif" font-size="14" lengthAdjust="spacing" textLength="125.2754" x="426" y="624.4551">-availabilityYear : int</text><text fill="#000000" font-family="sans-serif" font-size="14" lengthAdjust="spacing" textLength="156.4199" x="426" y="643.0762">-acquisitionPrice : double</text><text fill="#000000" font-family="sans-serif" font-size="14" lengthAdjust="spacing" textLength="170.4336" x="426" y="661.6973">-maintenancePrice : double</text><text fill="#000000" font-family="sans-serif" font-size="14" lengthAdjust="spacing" textLength="94.1445" x="426" y="680.3184">-owner : Player</text><text fill="#000000" font-family="sans-serif" font-size="14" lengthAdjust="spacing" textLength="124.5029" x="426" y="698.9395">-scenario : Scenario</text><line style="stroke:#181818;stroke-width:0.5;" x1="421" x2="659.3887" y1="706.4531" y2="706.4531"/><text fill="#000000" font-family="sans-serif" font-size="14" lengthAdjust="spacing" textLength="122.5684" x="426" y="725.5605">+getPrice() : double</text><text fill="#000000" font-family="sans-serif" font-size="14" lengthAdjust="spacing" textLength="116.3271" x="426" y="744.1816">+getType() : String</text><text fill="#000000" font-family="sans-serif" font-size="14" lengthAdjust="spacing" textLength="129.5479" x="426" y="762.8027">+getOwner() : Player</text><text fill="#000000" font-family="sans-serif" font-size="14" lengthAdjust="spacing" textLength="228.3887" x="426" y="781.4238">+setOwner(player : Player) : boolean</text><text fill="#000000" font-family="sans-serif" font-size="14" lengthAdjust="spacing" textLength="164.5889" x="426" y="800.0449">+getAvailableDate() : Date</text><text fill="#000000" font-family="sans-serif" font-size="14" lengthAdjust="spacing" textLength="159.1406" x="426" y="818.666">+getScenario() : Scenario</text></g><!--class Scenario--><g id="elem_Scenario"><rect codeLine="58" fill="#F1F1F1" height="215.5898" id="Scenario" rx="2.5" ry="2.5" style="stroke:#181818;stroke-width:0.5;" width="219.7578" x="683" y="905"/><ellipse cx="761.0015" cy="921" fill="#ADD1B2" rx="11" ry="11" style="stroke:#181818;stroke-width:1.0;"/><path d="M763.7671,916.875 Q763.9233,916.6563 764.1108,916.5469 Q764.2983,916.4375 764.5171,916.4375 Q764.8921,916.4375 765.1265,916.7031 Q765.3608,916.9531 765.3608,917.5625 L765.3608,919.0156 Q765.3608,919.625 765.1265,919.8906 Q764.8921,920.1563 764.5171,920.1563 Q764.1733,920.1563 763.9702,919.9531 Q763.7671,919.7656 763.6577,919.25 Q763.6108,918.8906 763.4233,918.7031 Q763.0952,918.3281 762.4858,918.1094 Q761.8765,917.8906 761.2515,917.8906 Q760.4858,917.8906 759.8452,918.2188 Q759.2202,918.5469 758.7202,919.2969 Q758.2358,920.0469 758.2358,921.0781 L758.2358,922.1719 Q758.2358,923.4063 759.1265,924.2344 Q760.0171,925.0469 761.6108,925.0469 Q762.5483,925.0469 763.2046,924.7969 Q763.5952,924.6406 764.0171,924.2031 Q764.2827,923.9375 764.4233,923.8594 Q764.5796,923.7813 764.7827,923.7813 Q765.1108,923.7813 765.3608,924.0469 Q765.6265,924.2969 765.6265,924.6406 Q765.6265,924.9844 765.2827,925.3906 Q764.7827,925.9688 763.9858,926.2969 Q762.9077,926.75 761.6108,926.75 Q760.0952,926.75 758.8921,926.125 Q757.9077,925.625 757.2202,924.5625 Q756.5327,923.4844 756.5327,922.2031 L756.5327,921.0469 Q756.5327,919.7188 757.1421,918.5781 Q757.7671,917.4219 758.8608,916.8125 Q759.9546,916.1875 761.189,916.1875 Q761.9233,916.1875 762.564,916.3594 Q763.2202,916.5156 763.7671,916.875 Z " fill="#000000"/><text fill="#000000" font-family="sans-serif" font-size="14" lengthAdjust="spacing" textLength="55.2549" x="781.5015" y="926.7969">Scenario</text><line style="stroke:#181818;stroke-width:0.5;" x1="684" x2="901.7578" y1="937" y2="937"/><text fill="#000000" font-family="sans-serif" font-size="14" lengthAdjust="spacing" textLength="101.9238" x="689" y="956.1074">-nameID : String</text><text fill="#000000" font-family="sans-serif" font-size="14" lengthAdjust="spacing" textLength="152.4824" x="689" y="974.7285">-timeRestrictions : String</text><text fill="#000000" font-family="sans-serif" font-size="14" lengthAdjust="spacing" textLength="207.7578" x="689" y="993.3496">-technologicalRestrictions : String</text><text fill="#000000" font-family="sans-serif" font-size="14" lengthAdjust="spacing" textLength="181.2754" x="689" y="1011.9707">-historicalRestrictions : String</text><line style="stroke:#181818;stroke-width:0.5;" x1="684" x2="901.7578" y1="1019.4844" y2="1019.4844"/><text fill="#000000" font-family="sans-serif" font-size="14" lengthAdjust="spacing" textLength="96.8789" x="689" y="1038.5918">+getId() : String</text><text fill="#000000" font-family="sans-serif" font-size="14" lengthAdjust="spacing" textLength="122.5479" x="689" y="1057.2129">+getName() : String</text><text fill="#000000" font-family="sans-serif" font-size="14" lengthAdjust="spacing" textLength="155.2305" x="689" y="1075.834">+getDescription() : String</text><text fill="#000000" font-family="sans-serif" font-size="14" lengthAdjust="spacing" textLength="137.3408" x="689" y="1094.4551">+getStartDate() : Date</text><text fill="#000000" font-family="sans-serif" font-size="14" lengthAdjust="spacing" textLength="132.6855" x="689" y="1113.0762">+getEndDate() : Date</text></g><!--class LocomotiveRepository--><g id="elem_LocomotiveRepository"><rect codeLine="71" fill="#F1F1F1" height="103.8633" id="LocomotiveRepository" rx="2.5" ry="2.5" style="stroke:#181818;stroke-width:0.5;" width="547.7734" x="491" y="260"/><ellipse cx="691.3818" cy="276" fill="#ADD1B2" rx="11" ry="11" style="stroke:#181818;stroke-width:1.0;"/><path d="M694.1475,271.875 Q694.3037,271.6563 694.4912,271.5469 Q694.6787,271.4375 694.8975,271.4375 Q695.2725,271.4375 695.5068,271.7031 Q695.7412,271.9531 695.7412,272.5625 L695.7412,274.0156 Q695.7412,274.625 695.5068,274.8906 Q695.2725,275.1563 694.8975,275.1563 Q694.5537,275.1563 694.3506,274.9531 Q694.1475,274.7656 694.0381,274.25 Q693.9912,273.8906 693.8037,273.7031 Q693.4756,273.3281 692.8662,273.1094 Q692.2568,272.8906 691.6318,272.8906 Q690.8662,272.8906 690.2256,273.2188 Q689.6006,273.5469 689.1006,274.2969 Q688.6162,275.0469 688.6162,276.0781 L688.6162,277.1719 Q688.6162,278.4063 689.5068,279.2344 Q690.3975,280.0469 691.9912,280.0469 Q692.9287,280.0469 693.585,279.7969 Q693.9756,279.6406 694.3975,279.2031 Q694.6631,278.9375 694.8037,278.8594 Q694.96,278.7813 695.1631,278.7813 Q695.4912,278.7813 695.7412,279.0469 Q696.0068,279.2969 696.0068,279.6406 Q696.0068,279.9844 695.6631,280.3906 Q695.1631,280.9688 694.3662,281.2969 Q693.2881,281.75 691.9912,281.75 Q690.4756,281.75 689.2725,281.125 Q688.2881,280.625 687.6006,279.5625 Q686.9131,278.4844 686.9131,277.2031 L686.9131,276.0469 Q686.9131,274.7188 687.5225,273.5781 Q688.1475,272.4219 689.2412,271.8125 Q690.335,271.1875 691.5693,271.1875 Q692.3037,271.1875 692.9443,271.3594 Q693.6006,271.5156 694.1475,271.875 Z " fill="#000000"/><text fill="#000000" font-family="sans-serif" font-size="14" lengthAdjust="spacing" textLength="138.5098" x="711.8818" y="281.7969">LocomotiveRepository</text><line style="stroke:#181818;stroke-width:0.5;" x1="492" x2="1037.7734" y1="292" y2="292"/><line style="stroke:#181818;stroke-width:0.5;" x1="492" x2="1037.7734" y1="300" y2="300"/><text fill="#000000" font-family="sans-serif" font-size="14" lengthAdjust="spacing" textLength="535.7734" x="497" y="319.1074">+getAvailableLocomotives(scenario : Scenario, currentDate : Date) : List&lt;Locomotive&gt;</text><text fill="#000000" font-family="sans-serif" font-size="14" lengthAdjust="spacing" textLength="320.9746" x="497" y="337.7285">+getLocomotive(locomotiveID : String) : Locomotive</text><text fill="#000000" font-family="sans-serif" font-size="14" lengthAdjust="spacing" textLength="258.7471" x="497" y="356.3496">+save(locomotive : Locomotive) : boolean</text></g><!--class PlayerRepository--><g id="elem_PlayerRepository"><rect codeLine="77" fill="#F1F1F1" height="85.2422" id="PlayerRepository" rx="2.5" ry="2.5" style="stroke:#181818;stroke-width:0.5;" width="331.4092" x="1074.5" y="269.5"/><ellipse cx="1182.6548" cy="285.5" fill="#ADD1B2" rx="11" ry="11" style="stroke:#181818;stroke-width:1.0;"/><path d="M1185.4204,281.375 Q1185.5767,281.1563 1185.7642,281.0469 Q1185.9517,280.9375 1186.1704,280.9375 Q1186.5454,280.9375 1186.7798,281.2031 Q1187.0142,281.4531 1187.0142,282.0625 L1187.0142,283.5156 Q1187.0142,284.125 1186.7798,284.3906 Q1186.5454,284.6563 1186.1704,284.6563 Q1185.8267,284.6563 1185.6235,284.4531 Q1185.4204,284.2656 1185.311,283.75 Q1185.2642,283.3906 1185.0767,283.2031 Q1184.7485,282.8281 1184.1392,282.6094 Q1183.5298,282.3906 1182.9048,282.3906 Q1182.1392,282.3906 1181.4985,282.7188 Q1180.8735,283.0469 1180.3735,283.7969 Q1179.8892,284.5469 1179.8892,285.5781 L1179.8892,286.6719 Q1179.8892,287.9063 1180.7798,288.7344 Q1181.6704,289.5469 1183.2642,289.5469 Q1184.2017,289.5469 1184.8579,289.2969 Q1185.2485,289.1406 1185.6704,288.7031 Q1185.936,288.4375 1186.0767,288.3594 Q1186.2329,288.2813 1186.436,288.2813 Q1186.7642,288.2813 1187.0142,288.5469 Q1187.2798,288.7969 1187.2798,289.1406 Q1187.2798,289.4844 1186.936,289.8906 Q1186.436,290.4688 1185.6392,290.7969 Q1184.561,291.25 1183.2642,291.25 Q1181.7485,291.25 1180.5454,290.625 Q1179.561,290.125 1178.8735,289.0625 Q1178.186,287.9844 1178.186,286.7031 L1178.186,285.5469 Q1178.186,284.2188 1178.7954,283.0781 Q1179.4204,281.9219 1180.5142,281.3125 Q1181.6079,280.6875 1182.8423,280.6875 Q1183.5767,280.6875 1184.2173,280.8594 Q1184.8735,281.0156 1185.4204,281.375 Z " fill="#000000"/><text fill="#000000" font-family="sans-serif" font-size="14" lengthAdjust="spacing" textLength="106.5996" x="1203.1548" y="291.2969">PlayerRepository</text><line style="stroke:#181818;stroke-width:0.5;" x1="1075.5" x2="1404.9092" y1="301.5" y2="301.5"/><line style="stroke:#181818;stroke-width:0.5;" x1="1075.5" x2="1404.9092" y1="309.5" y2="309.5"/><text fill="#000000" font-family="sans-serif" font-size="14" lengthAdjust="spacing" textLength="319.4092" x="1080.5" y="328.6074">+getPlayerByUsername(username : String) : Player</text><text fill="#000000" font-family="sans-serif" font-size="14" lengthAdjust="spacing" textLength="198.0508" x="1080.5" y="347.2285">+save(player : Player) : boolean</text></g><!--class ScenarioRepository--><g id="elem_ScenarioRepository"><rect codeLine="82" fill="#F1F1F1" height="66.6211" id="ScenarioRepository" rx="2.5" ry="2.5" style="stroke:#181818;stroke-width:0.5;" width="217.8232" x="1441" y="278.5"/><ellipse cx="1484.6431" cy="294.5" fill="#ADD1B2" rx="11" ry="11" style="stroke:#181818;stroke-width:1.0;"/><path d="M1487.4087,290.375 Q1487.565,290.1563 1487.7525,290.0469 Q1487.94,289.9375 1488.1587,289.9375 Q1488.5337,289.9375 1488.7681,290.2031 Q1489.0025,290.4531 1489.0025,291.0625 L1489.0025,292.5156 Q1489.0025,293.125 1488.7681,293.3906 Q1488.5337,293.6563 1488.1587,293.6563 Q1487.815,293.6563 1487.6119,293.4531 Q1487.4087,293.2656 1487.2994,292.75 Q1487.2525,292.3906 1487.065,292.2031 Q1486.7369,291.8281 1486.1275,291.6094 Q1485.5181,291.3906 1484.8931,291.3906 Q1484.1275,291.3906 1483.4869,291.7188 Q1482.8619,292.0469 1482.3619,292.7969 Q1481.8775,293.5469 1481.8775,294.5781 L1481.8775,295.6719 Q1481.8775,296.9063 1482.7681,297.7344 Q1483.6587,298.5469 1485.2525,298.5469 Q1486.19,298.5469 1486.8462,298.2969 Q1487.2369,298.1406 1487.6587,297.7031 Q1487.9244,297.4375 1488.065,297.3594 Q1488.2212,297.2813 1488.4244,297.2813 Q1488.7525,297.2813 1489.0025,297.5469 Q1489.2681,297.7969 1489.2681,298.1406 Q1489.2681,298.4844 1488.9244,298.8906 Q1488.4244,299.4688 1487.6275,299.7969 Q1486.5494,300.25 1485.2525,300.25 Q1483.7369,300.25 1482.5337,299.625 Q1481.5494,299.125 1480.8619,298.0625 Q1480.1744,296.9844 1480.1744,295.7031 L1480.1744,294.5469 Q1480.1744,293.2188 1480.7837,292.0781 Q1481.4087,290.9219 1482.5025,290.3125 Q1483.5962,289.6875 1484.8306,289.6875 Q1485.565,289.6875 1486.2056,289.8594 Q1486.8619,290.0156 1487.4087,290.375 Z " fill="#000000"/><text fill="#000000" font-family="sans-serif" font-size="14" lengthAdjust="spacing" textLength="122.1719" x="1505.0083" y="300.2969">ScenarioRepository</text><line style="stroke:#181818;stroke-width:0.5;" x1="1442" x2="1657.8232" y1="310.5" y2="310.5"/><line style="stroke:#181818;stroke-width:0.5;" x1="1442" x2="1657.8232" y1="318.5" y2="318.5"/><text fill="#000000" font-family="sans-serif" font-size="14" lengthAdjust="spacing" textLength="205.8232" x="1447" y="337.6074">+getCurrentScenario() : Scenario</text></g><!--class Repositories--><g id="elem_Repositories"><rect codeLine="86" fill="#F1F1F1" height="141.1055" id="Repositories" rx="2.5" ry="2.5" style="stroke:#181818;stroke-width:0.5;" width="337.6504" x="727" y="30.5"/><ellipse cx="852.6685" cy="46.5" fill="#ADD1B2" rx="11" ry="11" style="stroke:#181818;stroke-width:1.0;"/><path d="M855.4341,42.375 Q855.5903,42.1563 855.7778,42.0469 Q855.9653,41.9375 856.1841,41.9375 Q856.5591,41.9375 856.7935,42.2031 Q857.0278,42.4531 857.0278,43.0625 L857.0278,44.5156 Q857.0278,45.125 856.7935,45.3906 Q856.5591,45.6563 856.1841,45.6563 Q855.8403,45.6563 855.6372,45.4531 Q855.4341,45.2656 855.3247,44.75 Q855.2778,44.3906 855.0903,44.2031 Q854.7622,43.8281 854.1528,43.6094 Q853.5435,43.3906 852.9185,43.3906 Q852.1528,43.3906 851.5122,43.7188 Q850.8872,44.0469 850.3872,44.7969 Q849.9028,45.5469 849.9028,46.5781 L849.9028,47.6719 Q849.9028,48.9063 850.7935,49.7344 Q851.6841,50.5469 853.2778,50.5469 Q854.2153,50.5469 854.8716,50.2969 Q855.2622,50.1406 855.6841,49.7031 Q855.9497,49.4375 856.0903,49.3594 Q856.2466,49.2813 856.4497,49.2813 Q856.7778,49.2813 857.0278,49.5469 Q857.2935,49.7969 857.2935,50.1406 Q857.2935,50.4844 856.9497,50.8906 Q856.4497,51.4688 855.6528,51.7969 Q854.5747,52.25 853.2778,52.25 Q851.7622,52.25 850.5591,51.625 Q849.5747,51.125 848.8872,50.0625 Q848.1997,48.9844 848.1997,47.7031 L848.1997,46.5469 Q848.1997,45.2188 848.8091,44.0781 Q849.4341,42.9219 850.5278,42.3125 Q851.6216,41.6875 852.856,41.6875 Q853.5903,41.6875 854.231,41.8594 Q854.8872,42.0156 855.4341,42.375 Z " fill="#000000"/><text fill="#000000" font-family="sans-serif" font-size="14" lengthAdjust="spacing" textLength="77.8135" x="873.1685" y="52.2969">Repositories</text><line style="stroke:#181818;stroke-width:0.5;" x1="728" x2="1063.6504" y1="62.5" y2="62.5"/><line style="stroke:#181818;stroke-width:0.5;" x1="728" x2="1063.6504" y1="70.5" y2="70.5"/><text fill="#000000" font-family="sans-serif" font-size="14" lengthAdjust="spacing" textLength="91.7998" x="733" y="89.6074">-Repositories()</text><text fill="#000000" font-family="sans-serif" font-size="14" lengthAdjust="spacing" text-decoration="underline" textLength="89.8857" x="733" y="108.2285">+getInstance()</text><text fill="#000000" font-family="sans-serif" font-size="14" lengthAdjust="spacing" textLength="325.6504" x="733" y="126.8496">+getLocomotiveRepository() : LocomotiveRepository</text><text fill="#000000" font-family="sans-serif" font-size="14" lengthAdjust="spacing" textLength="261.8301" x="733" y="145.4707">+getPlayerRepository() : PlayerRepository</text><text fill="#000000" font-family="sans-serif" font-size="14" lengthAdjust="spacing" textLength="292.9746" x="733" y="164.0918">+getScenarioRepository() : ScenarioRepository</text></g><!--class BuyLocomotiveController--><g id="elem_BuyLocomotiveController"><rect codeLine="94" fill="#F1F1F1" height="159.7266" id="BuyLocomotiveController" rx="2.5" ry="2.5" style="stroke:#181818;stroke-width:0.5;" width="508.0703" x="184" y="21"/><ellipse cx="355.582" cy="37" fill="#ADD1B2" rx="11" ry="11" style="stroke:#181818;stroke-width:1.0;"/><path d="M358.3477,32.875 Q358.5039,32.6563 358.6914,32.5469 Q358.8789,32.4375 359.0977,32.4375 Q359.4727,32.4375 359.707,32.7031 Q359.9414,32.9531 359.9414,33.5625 L359.9414,35.0156 Q359.9414,35.625 359.707,35.8906 Q359.4727,36.1563 359.0977,36.1563 Q358.7539,36.1563 358.5508,35.9531 Q358.3477,35.7656 358.2383,35.25 Q358.1914,34.8906 358.0039,34.7031 Q357.6758,34.3281 357.0664,34.1094 Q356.457,33.8906 355.832,33.8906 Q355.0664,33.8906 354.4258,34.2188 Q353.8008,34.5469 353.3008,35.2969 Q352.8164,36.0469 352.8164,37.0781 L352.8164,38.1719 Q352.8164,39.4063 353.707,40.2344 Q354.5977,41.0469 356.1914,41.0469 Q357.1289,41.0469 357.7852,40.7969 Q358.1758,40.6406 358.5977,40.2031 Q358.8633,39.9375 359.0039,39.8594 Q359.1602,39.7813 359.3633,39.7813 Q359.6914,39.7813 359.9414,40.0469 Q360.207,40.2969 360.207,40.6406 Q360.207,40.9844 359.8633,41.3906 Q359.3633,41.9688 358.5664,42.2969 Q357.4883,42.75 356.1914,42.75 Q354.6758,42.75 353.4727,42.125 Q352.4883,41.625 351.8008,40.5625 Q351.1133,39.4844 351.1133,38.2031 L351.1133,37.0469 Q351.1133,35.7188 351.7227,34.5781 Q352.3477,33.4219 353.4414,32.8125 Q354.5352,32.1875 355.7695,32.1875 Q356.5039,32.1875 357.1445,32.3594 Q357.8008,32.5156 358.3477,32.875 Z " fill="#000000"/><text fill="#000000" font-family="sans-serif" font-size="14" lengthAdjust="spacing" textLength="156.4063" x="376.082" y="42.7969">BuyLocomotiveController</text><line style="stroke:#181818;stroke-width:0.5;" x1="185" x2="691.0703" y1="53" y2="53"/><line style="stroke:#181818;stroke-width:0.5;" x1="185" x2="691.0703" y1="61" y2="61"/><text fill="#000000" font-family="sans-serif" font-size="14" lengthAdjust="spacing" textLength="173.9063" x="190" y="80.1074">+BuyLocomotiveController()</text><text fill="#000000" font-family="sans-serif" font-size="14" lengthAdjust="spacing" textLength="293.7676" x="190" y="98.7285">+getAvailableLocomotives() : List&lt;Locomotive&gt;</text><text fill="#000000" font-family="sans-serif" font-size="14" lengthAdjust="spacing" textLength="363.7676" x="190" y="117.3496">+getLocomotiveDetails(locomotiveID : String) : Locomotive</text><text fill="#000000" font-family="sans-serif" font-size="14" lengthAdjust="spacing" textLength="496.0703" x="190" y="135.9707">+purchaseLocomotive(locomotiveID : String, playerUsername : String) : boolean</text><text fill="#000000" font-family="sans-serif" font-size="14" lengthAdjust="spacing" textLength="410.0879" x="190" y="154.5918">-checkBalance(locomotive : Locomotive, player : Player) : boolean</text><text fill="#000000" font-family="sans-serif" font-size="14" lengthAdjust="spacing" textLength="315.8955" x="190" y="173.2129">-getPlayerByUsername(username : String) : Player</text></g><g id="elem_GMN12"><path d="M1178.5,78.5 L1178.5,123.082 L1411.2324,123.082 L1411.2324,88.5 L1401.2324,78.5 L1178.5,78.5 " fill="#FEFFDD" style="stroke:#181818;stroke-width:0.5;"/><path d="M1401.2324,78.5 L1401.2324,88.5 L1411.2324,88.5 L1401.2324,78.5 " fill="#FEFFDD" style="stroke:#181818;stroke-width:1.0;"/><text fill="#000000" font-family="sans-serif" font-size="13" lengthAdjust="spacing" textLength="211.7324" x="1184.5" y="97.5283">Gets available locomotives based on</text><text fill="#000000" font-family="sans-serif" font-size="13" lengthAdjust="spacing" textLength="147.4243" x="1184.5" y="114.8193">current scenario and date</text></g><g id="elem_GMN15"><path d="M695.5,612 L695.5,656.582 A0,0 0 0 0 695.5,656.582 L888.4644,656.582 A0,0 0 0 0 888.4644,656.582 L888.4644,622 L878.4644,612 L794.17,612 L769.31,364.14 L786.17,612 L695.5,612 A0,0 0 0 0 695.5,612 " fill="#FEFFDD" style="stroke:#181818;stroke-width:0.5;"/><path d="M878.4644,612 L878.4644,622 L888.4644,622 L878.4644,612 " fill="#FEFFDD" style="stroke:#181818;stroke-width:0.5;"/><text fill="#000000" font-family="sans-serif" font-size="13" lengthAdjust="spacing" textLength="168.3525" x="701.5" y="631.0283">- filters locomotives based on</text><text fill="#000000" font-family="sans-serif" font-size="13" lengthAdjust="spacing" textLength="166.937" x="701.5" y="648.3193">scenario and availability date</text></g><!--class BuyLocomotiveUI--><g id="elem_BuyLocomotiveUI"><rect codeLine="113" fill="#F1F1F1" height="48" id="BuyLocomotiveUI" rx="2.5" ry="2.5" style="stroke:#181818;stroke-width:0.5;" width="141.7168" x="7" y="77"/><ellipse cx="22" cy="93" fill="#ADD1B2" rx="11" ry="11" style="stroke:#181818;stroke-width:1.0;"/><path d="M24.7656,88.875 Q24.9219,88.6563 25.1094,88.5469 Q25.2969,88.4375 25.5156,88.4375 Q25.8906,88.4375 26.125,88.7031 Q26.3594,88.9531 26.3594,89.5625 L26.3594,91.0156 Q26.3594,91.625 26.125,91.8906 Q25.8906,92.1563 25.5156,92.1563 Q25.1719,92.1563 24.9688,91.9531 Q24.7656,91.7656 24.6563,91.25 Q24.6094,90.8906 24.4219,90.7031 Q24.0938,90.3281 23.4844,90.1094 Q22.875,89.8906 22.25,89.8906 Q21.4844,89.8906 20.8438,90.2188 Q20.2188,90.5469 19.7188,91.2969 Q19.2344,92.0469 19.2344,93.0781 L19.2344,94.1719 Q19.2344,95.4063 20.125,96.2344 Q21.0156,97.0469 22.6094,97.0469 Q23.5469,97.0469 24.2031,96.7969 Q24.5938,96.6406 25.0156,96.2031 Q25.2813,95.9375 25.4219,95.8594 Q25.5781,95.7813 25.7813,95.7813 Q26.1094,95.7813 26.3594,96.0469 Q26.625,96.2969 26.625,96.6406 Q26.625,96.9844 26.2813,97.3906 Q25.7813,97.9688 24.9844,98.2969 Q23.9063,98.75 22.6094,98.75 Q21.0938,98.75 19.8906,98.125 Q18.9063,97.625 18.2188,96.5625 Q17.5313,95.4844 17.5313,94.2031 L17.5313,93.0469 Q17.5313,91.7188 18.1406,90.5781 Q18.7656,89.4219 19.8594,88.8125 Q20.9531,88.1875 22.1875,88.1875 Q22.9219,88.1875 23.5625,88.3594 Q24.2188,88.5156 24.7656,88.875 Z " fill="#000000"/><text fill="#000000" font-family="sans-serif" font-size="14" lengthAdjust="spacing" textLength="109.7168" x="36" y="98.7969">BuyLocomotiveUI</text><line style="stroke:#181818;stroke-width:0.5;" x1="8" x2="147.7168" y1="109" y2="109"/><line style="stroke:#181818;stroke-width:0.5;" x1="8" x2="147.7168" y1="117" y2="117"/></g><!--link BuyLocomotiveController to GMN12--><g id="link_BuyLocomotiveController_GMN12"><path d="M681.1,20.95 C708.33,11.98 726.5,6 726.5,6 C726.5,6 1142.5,6 1142.5,6 C1142.5,6 1213.76,50.39 1258.86,78.49 " fill="none" id="BuyLocomotiveController-GMN12" style="stroke:#181818;stroke-width:1.0;stroke-dasharray:7.0,7.0;"/></g><!--link BuyLocomotiveUI to BuyLocomotiveController--><g id="link_BuyLocomotiveUI_BuyLocomotiveController"><path codeLine="116" d="M149.19,101 C162.31,101 168.69,101 177.7,101 " fill="none" id="BuyLocomotiveUI-to-BuyLocomotiveController" style="stroke:#181818;stroke-width:1.0;stroke-dasharray:7.0,7.0;"/><polygon fill="#181818" points="183.7,101,174.7,97,178.7,101,174.7,105,183.7,101" style="stroke:#181818;stroke-width:1.0;"/></g><!--link BuyLocomotiveController to ApplicationSession--><g id="link_BuyLocomotiveController_ApplicationSession"><path codeLine="118" d="M306.44,181.01 C258.7,209.68 211.5731,237.9799 170.3631,262.7399 " fill="none" id="BuyLocomotiveController-to-ApplicationSession" style="stroke:#181818;stroke-width:1.0;stroke-dasharray:7.0,7.0;"/><polygon fill="#181818" points="165.22,265.83,174.9947,264.6236,169.5059,263.2549,170.8746,257.7661,165.22,265.83" style="stroke:#181818;stroke-width:1.0;"/></g><!--link BuyLocomotiveController to UserSession--><g id="link_BuyLocomotiveController_UserSession"><path codeLine="119" d="M367.51,181.22 C352.46,198.12 341,211 341,211 C341,211 256.105,495.6803 226.495,594.9503 " fill="none" id="BuyLocomotiveController-to-UserSession" style="stroke:#181818;stroke-width:1.0;stroke-dasharray:7.0,7.0;"/><polygon fill="#181818" points="224.78,600.7,231.1856,593.2188,226.2092,595.9086,223.5194,590.9322,224.78,600.7" style="stroke:#181818;stroke-width:1.0;"/></g><!--link BuyLocomotiveController to Locomotive--><g id="link_BuyLocomotiveController_Locomotive"><path codeLine="120" d="M448.6,181.32 C458.9,258.43 473,364 473,364 C473,364 480.1125,392.6072 491.1125,436.8572 " fill="none" id="BuyLocomotiveController-to-Locomotive" style="stroke:#181818;stroke-width:1.0;stroke-dasharray:7.0,7.0;"/><polygon fill="#181818" points="492.56,442.68,494.2706,432.9808,491.3538,437.8277,486.5069,434.9108,492.56,442.68" style="stroke:#181818;stroke-width:1.0;"/></g><!--link BuyLocomotiveController to LocomotiveRepository--><g id="link_BuyLocomotiveController_LocomotiveRepository"><path codeLine="121" d="M561.62,181.01 C602.86,207.37 642.644,232.7994 679.704,256.4794 " fill="none" id="BuyLocomotiveController-to-LocomotiveRepository" style="stroke:#181818;stroke-width:1.0;stroke-dasharray:7.0,7.0;"/><polygon fill="#181818" points="684.76,259.71,679.3297,251.4934,680.5467,257.0178,675.0223,258.2348,684.76,259.71" style="stroke:#181818;stroke-width:1.0;"/></g><!--link BuyLocomotiveController to Player--><g id="link_BuyLocomotiveController_Player"><path codeLine="122" d="M429.65,181.09 C419.02,281.82 402,443 402,443 C402,443 402,826 402,826 C402,826 412.4404,857.8287 426.0004,899.1787 " fill="none" id="BuyLocomotiveController-to-Player" style="stroke:#181818;stroke-width:1.0;stroke-dasharray:7.0,7.0;"/><polygon fill="#181818" points="427.87,904.88,428.8664,895.0817,426.312,900.1289,421.2647,897.5745,427.87,904.88" style="stroke:#181818;stroke-width:1.0;"/></g><!--link BuyLocomotiveController to PlayerRepository--><g id="link_BuyLocomotiveController_PlayerRepository"><path codeLine="123" d="M668.39,181.06 C744.92,207.32 811,230 811,230 C811,230 1056,260 1056,260 C1056,260 1064.1675,262.2693 1084.3975,267.8693 " fill="none" id="BuyLocomotiveController-to-PlayerRepository" style="stroke:#181818;stroke-width:1.0;stroke-dasharray:7.0,7.0;"/><polygon fill="#181818" points="1090.18,269.47,1082.5733,263.2139,1085.3612,268.1361,1080.4391,270.924,1090.18,269.47" style="stroke:#181818;stroke-width:1.0;"/></g><!--link BuyLocomotiveController to Repositories--><g id="link_BuyLocomotiveController_Repositories"><path codeLine="124" d="M692.07,101 C705.51,101 711.78,101 720.95,101 " fill="none" id="BuyLocomotiveController-to-Repositories" style="stroke:#181818;stroke-width:1.0;stroke-dasharray:7.0,7.0;"/><polygon fill="#181818" points="726.95,101,717.95,97,721.95,101,717.95,105,726.95,101" style="stroke:#181818;stroke-width:1.0;"/></g><!--link Repositories to Repositories--><g id="link_Repositories_Repositories"><path codeLine="126" d="M1065.23,81.79 C1086.22,85.21 1100,91.61 1100,101 C1100,110.39 1092.1419,115.8251 1071.1519,119.2451 " fill="none" id="Repositories-to-Repositories" style="stroke:#181818;stroke-width:1.0;"/><polygon fill="#181818" points="1065.23,120.21,1074.7561,122.7106,1070.1649,119.4059,1073.4696,114.8147,1065.23,120.21" style="stroke:#181818;stroke-width:1.0;"/><text fill="#000000" font-family="sans-serif" font-size="13" lengthAdjust="spacing" textLength="48.4199" x="1106" y="106.5283">instance</text><text fill="#000000" font-family="sans-serif" font-size="13" lengthAdjust="spacing" textLength="7.23" x="1072.5293" y="117.6941">1</text></g><!--link Repositories to LocomotiveRepository--><g id="link_Repositories_LocomotiveRepository"><path codeLine="127" d="M852.38,171.59 C834.29,200.45 816.876,228.2358 800.226,254.8058 " fill="none" id="Repositories-to-LocomotiveRepository" style="stroke:#181818;stroke-width:1.0;"/><polygon fill="#181818" points="797.04,259.89,805.2085,254.3877,799.695,255.6531,798.4295,250.1397,797.04,259.89" style="stroke:#181818;stroke-width:1.0;"/><text fill="#000000" font-family="sans-serif" font-size="13" lengthAdjust="spacing" textLength="124.2744" x="828" y="226.0283">locomotiveRepository</text><text fill="#000000" font-family="sans-serif" font-size="13" lengthAdjust="spacing" textLength="7.23" x="793.9057" y="248.8026">1</text></g><!--link Repositories to PlayerRepository--><g id="link_Repositories_PlayerRepository"><path codeLine="128" d="M1010.55,171.59 C1063.9,204.01 1120.4725,238.374 1166.4325,266.304 " fill="none" id="Repositories-to-PlayerRepository" style="stroke:#181818;stroke-width:1.0;"/><polygon fill="#181818" points="1171.56,269.42,1165.9461,261.3278,1167.2871,266.8234,1161.7915,268.1644,1171.56,269.42" style="stroke:#181818;stroke-width:1.0;"/><text fill="#000000" font-family="sans-serif" font-size="13" lengthAdjust="spacing" textLength="97.5444" x="1100" y="226.0283">playerRepository</text><text fill="#000000" font-family="sans-serif" font-size="13" lengthAdjust="spacing" textLength="7.23" x="1153.0803" y="258.3113">1</text></g><!--link Repositories to ScenarioRepository--><g id="link_Repositories_ScenarioRepository"><path codeLine="129" d="M1065.28,152.75 C1219.39,198.95 1423,260 1423,260 C1423,260 1438.3918,266.1851 1463.2818,276.1751 " fill="none" id="Repositories-to-ScenarioRepository" style="stroke:#181818;stroke-width:1.0;"/><polygon fill="#181818" points="1468.85,278.41,1461.9876,271.3455,1464.2098,276.5476,1459.0077,278.7698,1468.85,278.41" style="stroke:#181818;stroke-width:1.0;"/><text fill="#000000" font-family="sans-serif" font-size="13" lengthAdjust="spacing" textLength="111.2744" x="1323" y="226.0283">scenarioRepository</text><text fill="#000000" font-family="sans-serif" font-size="13" lengthAdjust="spacing" textLength="7.23" x="1445.2246" y="267.2178">1</text></g><!--link ApplicationSession to ApplicationSession--><g id="link_ApplicationSession_ApplicationSession"><path codeLine="131" d="M165.06,295.27 C184.94,296.23 200,301.8 200,312 C200,322.2 190.933,327.4806 171.053,328.4406 " fill="none" id="ApplicationSession-to-ApplicationSession" style="stroke:#181818;stroke-width:1.0;"/><polygon fill="#181818" points="165.06,328.73,174.2425,332.2912,170.0542,328.4888,173.8566,324.3006,165.06,328.73" style="stroke:#181818;stroke-width:1.0;"/><text fill="#000000" font-family="sans-serif" font-size="13" lengthAdjust="spacing" textLength="48.4199" x="206" y="317.5283">instance</text><text fill="#000000" font-family="sans-serif" font-size="13" lengthAdjust="spacing" textLength="7.23" x="173.1581" y="326.6291">1</text></g><!--link ApplicationSession to UserSession--><g id="link_ApplicationSession_UserSession"><path codeLine="132" d="M109.94,364.14 C135.86,430.59 178.1896,539.1202 200.0096,595.0602 " fill="none" id="ApplicationSession-to-UserSession" style="stroke:#181818;stroke-width:1.0;stroke-dasharray:7.0,7.0;"/><polygon fill="#181818" points="202.19,600.65,202.646,590.8117,200.373,595.9918,195.1929,593.7189,202.19,600.65" style="stroke:#181818;stroke-width:1.0;"/></g><!--link LocomotiveRepository to Locomotive--><g id="link_LocomotiveRepository_Locomotive"><path codeLine="134" d="M720.67,364.3 C706.78,380.37 695,394 695,394 C695,394 683.5894,411.6225 663.2794,443.0125 " fill="none" id="LocomotiveRepository-to-Locomotive" style="stroke:#181818;stroke-width:1.0;"/><polygon fill="#181818" points="660.02,448.05,668.2674,442.6667,662.7361,443.8521,661.5507,438.3208,660.02,448.05" style="stroke:#181818;stroke-width:1.0;"/><text fill="#000000" font-family="sans-serif" font-size="13" lengthAdjust="spacing" textLength="68.6372" x="696" y="409.0283">locomotives</text><text fill="#000000" font-family="sans-serif" font-size="13" lengthAdjust="spacing" textLength="5.0591" x="668.2407" y="431.9839">*</text></g><!--link PlayerRepository to Player--><g id="link_PlayerRepository_Player"><path codeLine="136" d="M1212.95,354.55 C1133.44,476.67 906,826 906,826 C906,826 820,875 820,875 C820,875 665,905 665,905 C665,905 663.9214,905.5701 653.4314,911.1301 " fill="none" id="PlayerRepository-to-Player" style="stroke:#181818;stroke-width:1.0;"/><polygon fill="#181818" points="648.13,913.94,657.9553,913.2594,652.5478,911.5984,654.2088,906.1909,648.13,913.94" style="stroke:#181818;stroke-width:1.0;"/><text fill="#000000" font-family="sans-serif" font-size="13" lengthAdjust="spacing" textLength="41.9072" x="1155" y="640.0283">players</text><text fill="#000000" font-family="sans-serif" font-size="13" lengthAdjust="spacing" textLength="5.0591" x="656.6252" y="906.1104">*</text></g><!--link Player to Locomotive--><g id="link_Player_Locomotive"><path codeLine="138" d="M492.75,904.73 C497.56,887.39 501,875 501,875 C501,875 503.3154,860.772 507.9754,832.162 " fill="none" id="Player-to-Locomotive" style="stroke:#181818;stroke-width:1.0;"/><polygon fill="#181818" points="508.94,826.24,503.5452,834.4799,508.1362,831.175,511.4411,835.766,508.94,826.24" style="stroke:#181818;stroke-width:1.0;"/><text fill="#000000" font-family="sans-serif" font-size="13" lengthAdjust="spacing" textLength="111.2871" x="505" y="871.0283">ownedLocomotives</text><text fill="#000000" font-family="sans-serif" font-size="13" lengthAdjust="spacing" textLength="5.0591" x="502.6226" y="848.0924">*</text></g><!--link Locomotive to Player--><g id="link_Locomotive_Player"><path codeLine="139" d="M467.33,826.26 C460.46,844.29 456,856 456,856 C456,856 456,875 456,875 C456,875 456.3224,881.3979 457.2124,898.7379 " fill="none" id="Locomotive-to-Player" style="stroke:#181818;stroke-width:1.0;"/><polygon fill="#181818" points="457.52,904.73,461.0534,895.5368,457.2637,899.7366,453.0639,895.9469,457.52,904.73" style="stroke:#181818;stroke-width:1.0;"/><text fill="#000000" font-family="sans-serif" font-size="13" lengthAdjust="spacing" textLength="35.4072" x="457" y="871.0283">owner</text><text fill="#000000" font-family="sans-serif" font-size="13" lengthAdjust="spacing" textLength="21.6836" x="435.4078" y="893.5726">0..1</text></g><!--link Locomotive to Scenario--><g id="link_Locomotive_Scenario"><path codeLine="140" d="M660.02,814.1 C680.88,845.15 698.6332,871.5702 717.6932,899.9302 " fill="none" id="Locomotive-to-Scenario" style="stroke:#181818;stroke-width:1.0;"/><polygon fill="#181818" points="721.04,904.91,719.3397,895.209,718.251,900.7601,712.6999,899.6715,721.04,904.91" style="stroke:#181818;stroke-width:1.0;"/><text fill="#000000" font-family="sans-serif" font-size="13" lengthAdjust="spacing" textLength="113.4644" x="698" y="871.0283">availableInScenario</text><text fill="#000000" font-family="sans-serif" font-size="13" lengthAdjust="spacing" textLength="7.23" x="708.7508" y="893.7652">1</text></g><!--SRC=[bLTBJzmw5DxdLrZT09U2sYswGk9HLIDLlQXJ5brwdCECXUEJsWveBkf_hnznuZZE0AmovpilV_vyR8xq8vSjLRGX3KfaEuKD4ACwg4QafUoHRc5jzWA80cQet8hKGUzeZSzSRia35Jf519TWzYsG5iNU_QYE2Y0gWrKInGJL-ieOnJUTWHL3kUR_0_bKLKS27WmnI1JVxWofkMk7ewmg7qEksbPmHfrf3LexvAKYzk-i01sVUEYKl6XZxUmFsO9PIVj3CXX0Qxlfb09fnh0_iTwz1ZKjv0ESMT86KjSxGVUWI6odwrt81LdRXSfjRs-jxpEgEhTpoGsduhghRNuBrjXjx2O4a8K6oo0-IwY_8SC63Ny2RV5lN9j_HzEbznpRlwOYK31DTKhQJh4TrJ267elXq-KTVhZG3Q80Alis53Ju134rRR2JOwjpTrhNxwio43t20zcEwDLjJgdNNau_FjjDoXYaZ840vRMJOmRRTGjGvtQh8cL-0NN9k3IzzQ43SODwjaVqYN91Drnmivy5KVQxuvgxwdUACyY36sfzGJfUYxWJWCiO51ZxOpP2SNG4z9-P2dokkGOiyjCIvu64EW_yvofv9AbrIdH4sd068fplkizn5QWGS4jDgE8-HZns6ng8hG-x7oslxJrlu0TeQ_BpGyzmO3k90hTsP8X3ZZjxb50TzXgRNzL5thxxML40Ra4pnLlZnqu1NpkLBH3rHTPJf712Va2BLbcezkIbi0N9r3Wk2EPZ73mkVL_bP6cy-Cp58vtipidaU4Vvq7TEWA2kyje2ThqVHlHi4C_bw-eVaEvCU-NAyHOvhDyXbjj97JMS6jzyQvLs-NXAy0Za16KXkN5-7BE0kNbSudMt7rkuGMaK2Z5SZQTBUBgseaBVAhrRC3PQlqE11- -z9FWZ2JAvBsbgUh-n7R37U1ikY3kcMnoOP-zMjDq4YVQmXlSJFYoHxTD_1QFZrMIVVY9vGsmi6pN1q4O_1SOxXSgQr6xaWFrmzVgg6pG66rTsKOFsZkJ2WDB5Sc6KJkgaLsTUjA2t-vNLcMKXDvvVBb9HBGdst0OLNfo7tDC7uo6_H89lSqjeF1JGo-1rbxVakvmCfggQpAwpI_BXyuVfF7ElcZ2eCj_UkNWnNIHAIBeg9fXD_el-2BqMM1ZT5uFEak1gljznfGKaMMy1pVLG5PVlE_mdvMR2YALzjkWOSXUdH-1WS2tdpFzFIDe90P_EppydIVspSkQKS6bzXk6naiDLznS0]--></g></svg>