<svg xmlns="http://www.w3.org/2000/svg" xmlns:xlink="http://www.w3.org/1999/xlink" contentStyleType="text/css" height="507px" preserveAspectRatio="none" style="width:419px;height:507px;background:#FFFFFF;" version="1.1" viewBox="0 0 419 507" width="419px" zoomAndPan="magnify"><title>System Sequence Diagram: US02 - Add an industry</title><defs/><g><text fill="#000000" font-family="sans-serif" font-size="14" font-weight="bold" lengthAdjust="spacing" textLength="342.3164" x="37.7383" y="30.1074">System Sequence Diagram: US02 - Add an industry</text><rect fill="#FFFFFF" height="282.6191" style="stroke:#181818;stroke-width:1.0;" width="10" x="21.2861" y="133.2422"/><rect fill="#FFFFFF" height="31.291" style="stroke:#181818;stroke-width:1.0;" width="10" x="376.5103" y="156.5332"/><rect fill="#FFFFFF" height="31.291" style="stroke:#181818;stroke-width:1.0;" width="10" x="376.5103" y="219.1152"/><rect fill="#FFFFFF" height="31.291" style="stroke:#181818;stroke-width:1.0;" width="10" x="376.5103" y="281.6973"/><rect fill="#FFFFFF" height="62.582" style="stroke:#181818;stroke-width:1.0;" width="10" x="376.5103" y="344.2793"/><line style="stroke:#181818;stroke-width:0.5;stroke-dasharray:5.0,5.0;" x1="26" x2="26" y1="123.2422" y2="424.8613"/><line style="stroke:#181818;stroke-width:0.5;stroke-dasharray:5.0,5.0;" x1="381.2275" x2="381.2275" y1="123.2422" y2="424.8613"/><text fill="#000000" font-family="sans-serif" font-size="14" lengthAdjust="spacing" textLength="36.5723" x="5" y="119.7285">Editor</text><ellipse cx="26.2861" cy="53.1211" fill="#E3E3E3" rx="8" ry="8" style="stroke:#181818;stroke-width:0.5;"/><path d="M26.2861,61.1211 L26.2861,88.1211 M13.2861,69.1211 L39.2861,69.1211 M26.2861,88.1211 L13.2861,103.1211 M26.2861,88.1211 L39.2861,103.1211 " fill="none" style="stroke:#181818;stroke-width:0.5;"/><text fill="#000000" font-family="sans-serif" font-size="14" lengthAdjust="spacing" textLength="36.5723" x="5" y="438.9688">Editor</text><ellipse cx="26.2861" cy="450.9824" fill="#E3E3E3" rx="8" ry="8" style="stroke:#181818;stroke-width:0.5;"/><path d="M26.2861,458.9824 L26.2861,485.9824 M13.2861,466.9824 L39.2861,466.9824 M26.2861,485.9824 L13.2861,500.9824 M26.2861,485.9824 L39.2861,500.9824 " fill="none" style="stroke:#181818;stroke-width:0.5;"/><rect fill="#E3E3E3" height="32.6211" rx="2.5" ry="2.5" style="stroke:#181818;stroke-width:0.5;" width="64.5654" x="349.2275" y="89.6211"/><text fill="#000000" font-family="sans-serif" font-size="14" lengthAdjust="spacing" textLength="50.5654" x="356.2275" y="111.7285">:System</text><rect fill="#E3E3E3" height="32.6211" rx="2.5" ry="2.5" style="stroke:#181818;stroke-width:0.5;" width="64.5654" x="349.2275" y="423.8613"/><text fill="#000000" font-family="sans-serif" font-size="14" lengthAdjust="spacing" textLength="50.5654" x="356.2275" y="445.9688">:System</text><rect fill="#FFFFFF" height="282.6191" style="stroke:#181818;stroke-width:1.0;" width="10" x="21.2861" y="133.2422"/><rect fill="#FFFFFF" height="31.291" style="stroke:#181818;stroke-width:1.0;" width="10" x="376.5103" y="156.5332"/><rect fill="#FFFFFF" height="31.291" style="stroke:#181818;stroke-width:1.0;" width="10" x="376.5103" y="219.1152"/><rect fill="#FFFFFF" height="31.291" style="stroke:#181818;stroke-width:1.0;" width="10" x="376.5103" y="281.6973"/><rect fill="#FFFFFF" height="62.582" style="stroke:#181818;stroke-width:1.0;" width="10" x="376.5103" y="344.2793"/><polygon fill="#181818" points="364.5103,152.5332,374.5103,156.5332,364.5103,160.5332,368.5103,156.5332" style="stroke:#181818;stroke-width:1.0;"/><line style="stroke:#181818;stroke-width:1.0;" x1="31.2861" x2="370.5103" y1="156.5332" y2="156.5332"/><text fill="#000000" font-family="sans-serif" font-size="13" font-weight="bold" lengthAdjust="spacing" textLength="7.23" x="38.2861" y="151.2705">1</text><text fill="#000000" font-family="sans-serif" font-size="13" lengthAdjust="spacing" textLength="115.6162" x="49.5161" y="151.2705">asks to add industry</text><polygon fill="#181818" points="42.2861,183.8242,32.2861,187.8242,42.2861,191.8242,38.2861,187.8242" style="stroke:#181818;stroke-width:1.0;"/><line style="stroke:#181818;stroke-width:1.0;stroke-dasharray:2.0,2.0;" x1="36.2861" x2="380.5103" y1="187.8242" y2="187.8242"/><text fill="#000000" font-family="sans-serif" font-size="13" font-weight="bold" lengthAdjust="spacing" textLength="7.23" x="48.2861" y="182.5615">2</text><text fill="#000000" font-family="sans-serif" font-size="13" lengthAdjust="spacing" textLength="222.5552" x="59.5161" y="182.5615">shows all industries available in the list</text><polygon fill="#181818" points="364.5103,215.1152,374.5103,219.1152,364.5103,223.1152,368.5103,219.1152" style="stroke:#181818;stroke-width:1.0;"/><line style="stroke:#181818;stroke-width:1.0;" x1="31.2861" x2="370.5103" y1="219.1152" y2="219.1152"/><text fill="#000000" font-family="sans-serif" font-size="13" font-weight="bold" lengthAdjust="spacing" textLength="7.23" x="38.2861" y="213.8525">3</text><text fill="#000000" font-family="sans-serif" font-size="13" lengthAdjust="spacing" textLength="117.7744" x="49.5161" y="213.8525">selects industry type</text><polygon fill="#181818" points="42.2861,246.4063,32.2861,250.4063,42.2861,254.4063,38.2861,250.4063" style="stroke:#181818;stroke-width:1.0;"/><line style="stroke:#181818;stroke-width:1.0;stroke-dasharray:2.0,2.0;" x1="36.2861" x2="380.5103" y1="250.4063" y2="250.4063"/><text fill="#000000" font-family="sans-serif" font-size="13" font-weight="bold" lengthAdjust="spacing" textLength="7.23" x="48.2861" y="245.1436">4</text><text fill="#000000" font-family="sans-serif" font-size="13" lengthAdjust="spacing" textLength="309.9941" x="59.5161" y="245.1436">requests industry data (nameID, X and Y coordinates)</text><polygon fill="#181818" points="364.5103,277.6973,374.5103,281.6973,364.5103,285.6973,368.5103,281.6973" style="stroke:#181818;stroke-width:1.0;"/><line style="stroke:#181818;stroke-width:1.0;" x1="31.2861" x2="370.5103" y1="281.6973" y2="281.6973"/><text fill="#000000" font-family="sans-serif" font-size="13" font-weight="bold" lengthAdjust="spacing" textLength="7.23" x="38.2861" y="276.4346">5</text><text fill="#000000" font-family="sans-serif" font-size="13" lengthAdjust="spacing" textLength="109.1162" x="49.5161" y="276.4346">types industry data</text><polygon fill="#181818" points="42.2861,308.9883,32.2861,312.9883,42.2861,316.9883,38.2861,312.9883" style="stroke:#181818;stroke-width:1.0;"/><line style="stroke:#181818;stroke-width:1.0;stroke-dasharray:2.0,2.0;" x1="36.2861" x2="380.5103" y1="312.9883" y2="312.9883"/><text fill="#000000" font-family="sans-serif" font-size="13" font-weight="bold" lengthAdjust="spacing" textLength="7.23" x="48.2861" y="307.7256">6</text><text fill="#000000" font-family="sans-serif" font-size="13" lengthAdjust="spacing" textLength="119.9326" x="59.5161" y="307.7256">asks for confirmation</text><polygon fill="#181818" points="364.5103,340.2793,374.5103,344.2793,364.5103,348.2793,368.5103,344.2793" style="stroke:#181818;stroke-width:1.0;"/><line style="stroke:#181818;stroke-width:1.0;" x1="31.2861" x2="370.5103" y1="344.2793" y2="344.2793"/><text fill="#000000" font-family="sans-serif" font-size="13" font-weight="bold" lengthAdjust="spacing" textLength="7.23" x="38.2861" y="339.0166">7</text><text fill="#000000" font-family="sans-serif" font-size="13" lengthAdjust="spacing" textLength="127.1626" x="49.5161" y="339.0166">confirms industry data</text><polygon fill="#181818" points="42.2861,371.5703,32.2861,375.5703,42.2861,379.5703,38.2861,375.5703" style="stroke:#181818;stroke-width:1.0;"/><line style="stroke:#181818;stroke-width:1.0;stroke-dasharray:2.0,2.0;" x1="36.2861" x2="375.5103" y1="375.5703" y2="375.5703"/><text fill="#000000" font-family="sans-serif" font-size="13" font-weight="bold" lengthAdjust="spacing" textLength="7.23" x="48.2861" y="370.3076">8</text><text fill="#000000" font-family="sans-serif" font-size="13" lengthAdjust="spacing" textLength="155.3589" x="59.5161" y="370.3076">displays operation success</text><polygon fill="#181818" points="42.2861,402.8613,32.2861,406.8613,42.2861,410.8613,38.2861,406.8613" style="stroke:#181818;stroke-width:1.0;"/><line style="stroke:#181818;stroke-width:1.0;stroke-dasharray:2.0,2.0;" x1="36.2861" x2="380.5103" y1="406.8613" y2="406.8613"/><text fill="#000000" font-family="sans-serif" font-size="13" font-weight="bold" lengthAdjust="spacing" textLength="7.23" x="48.2861" y="401.5986">9</text><text fill="#000000" font-family="sans-serif" font-size="13" lengthAdjust="spacing" textLength="174.1416" x="59.5161" y="401.5986">shows industry details on map</text><!--SRC=[hP9FIyD04CNl-HH3JmeMn6CFWb0FdeEWn-dkD1swV-BEf2NVtccQnb94gRYNJBBxVk_DP6NBgSM24M9EsMrAZWHQEgfascdHRR6XMlj0KCWffYQS7v0D-hpdrC0QWr1LOQSvTN55fQgKrMHrBqeHQlheA3c29MDZqWMyrlSFC8Sdxm4JSFATQEaDuJGNc3rxjkSCK826iZ9BPSSj9eNPuiWTzcKe1oNlKEaagC3MiORvutWC5YRP2cW6DEl95yOrGKRgwVkedXleY5nOztalW26SA4pskaCEkBBEEO5k20ABJXHFb_nlGngRWirRfdoWVKj_2LaEWvTpaaT5k4aOwMLv1sysVG_lu78kdfD1vVRwk8Tq5nP_2JlycRMXNKvhBX6LSxe-pQZ-Xq2UfGtO2-IMof06f7EEH7w_65_cf7OdZ94WOljJEvy0]--></g></svg>