<svg xmlns="http://www.w3.org/2000/svg" xmlns:xlink="http://www.w3.org/1999/xlink" contentStyleType="text/css" height="964px" preserveAspectRatio="none" style="width:413px;height:964px;background:#FFFFFF;" version="1.1" viewBox="0 0 413 964" width="413px" zoomAndPan="magnify"><defs/><g><!--cluster Railway Simulation System--><g id="cluster_Railway Simulation System"><rect fill="none" height="951" rx="2.5" ry="2.5" style="stroke:#181818;stroke-width:1.0;" width="264" x="143" y="7"/><text fill="#000000" font-family="sans-serif" font-size="14" font-weight="bold" lengthAdjust="spacing" textLength="181.2822" x="184.3589" y="24.1074">Railway Simulation System</text></g><g id="elem_US01 - Create a Map"><ellipse cx="274.7653" cy="64.7531" fill="#F1F1F1" rx="89.2653" ry="20.2531" style="stroke:#181818;stroke-width:0.5;"/><text fill="#000000" font-family="sans-serif" font-size="14" lengthAdjust="spacing" textLength="132.2822" x="205.6242" y="69.5568">US01 - Create a Map</text></g><g id="elem_US02 - Add an Industry"><ellipse cx="275.1578" cy="141.8316" fill="#F1F1F1" rx="94.6578" ry="21.3316" style="stroke:#181818;stroke-width:0.5;"/><text fill="#000000" font-family="sans-serif" font-size="14" lengthAdjust="spacing" textLength="145.5234" x="199.5818" y="146.5807">US02 - Add an Industry</text></g><g id="elem_US03 - Add a City"><ellipse cx="274.8903" cy="217.1781" fill="#F1F1F1" rx="81.3903" ry="18.6781" style="stroke:#181818;stroke-width:0.5;"/><text fill="#000000" font-family="sans-serif" font-size="14" lengthAdjust="spacing" textLength="112.0479" x="215.8663" y="221.9818">US03 - Add a City</text></g><g id="elem_US04 - Create a Scenario"><ellipse cx="274.9402" cy="293.088" fill="#F1F1F1" rx="100.9402" ry="22.588" style="stroke:#181818;stroke-width:0.5;"/><text fill="#000000" font-family="sans-serif" font-size="14" lengthAdjust="spacing" textLength="160.3027" x="193.9571" y="297.1927">US04 - Create a Scenario</text></g><g id="elem_US05 - Build a Station"><ellipse cx="274.9692" cy="371.1938" fill="#F1F1F1" rx="91.4692" ry="20.6938" style="stroke:#181818;stroke-width:0.5;"/><text fill="#000000" font-family="sans-serif" font-size="14" lengthAdjust="spacing" textLength="137.7441" x="203.0972" y="375.9976">US05 - Build a Station</text></g><g id="elem_US06 - Upgrade a Station"><ellipse cx="274.9461" cy="449.0892" fill="#F1F1F1" rx="100.9461" ry="22.5892" style="stroke:#181818;stroke-width:0.5;"/><text fill="#000000" font-family="sans-serif" font-size="14" lengthAdjust="spacing" textLength="160.3164" x="193.9579" y="453.1933">US06 - Upgrade a Station</text></g><g id="elem_US07 - List Stations"><ellipse cx="274.875" cy="526.075" fill="#F1F1F1" rx="85.875" ry="19.575" style="stroke:#181818;stroke-width:0.5;"/><text fill="#000000" font-family="sans-serif" font-size="14" lengthAdjust="spacing" textLength="123.7236" x="210.0132" y="530.8787">US07 - List Stations</text></g><g id="elem_US08 - Build a Railway Line"><ellipse cx="274.7908" cy="604.7582" fill="#F1F1F1" rx="106.7908" ry="23.7582" style="stroke:#181818;stroke-width:0.5;"/><text fill="#000000" font-family="sans-serif" font-size="14" lengthAdjust="spacing" textLength="173.5303" x="188.0257" y="608.555">US08 - Build a Railway Line</text></g><g id="elem_US09 - Buy a Train"><ellipse cx="275.0583" cy="683.2117" fill="#F1F1F1" rx="84.0583" ry="19.2117" style="stroke:#181818;stroke-width:0.5;"/><text fill="#000000" font-family="sans-serif" font-size="14" lengthAdjust="spacing" textLength="119.0479" x="212.5344" y="688.0154">US09 - Buy a Train</text></g><g id="elem_US10 - Assign a Train to Route"><ellipse cx="274.9213" cy="763.0843" fill="#F1F1F1" rx="115.9213" ry="25.5843" style="stroke:#181818;stroke-width:0.5;"/><text fill="#000000" font-family="sans-serif" font-size="14" lengthAdjust="spacing" textLength="193.7578" x="178.0424" y="766.8811">US10 - Assign a Train to Route</text></g><g id="elem_US11 - List Trains"><ellipse cx="274.8851" cy="842.177" fill="#F1F1F1" rx="81.3851" ry="18.677" style="stroke:#181818;stroke-width:0.5;"/><text fill="#000000" font-family="sans-serif" font-size="14" lengthAdjust="spacing" textLength="112.0342" x="215.868" y="846.9807">US11 - List Trains</text></g><g id="elem_US12 - Create a Simulator"><ellipse cx="275.1367" cy="918.9273" fill="#F1F1F1" rx="102.6367" ry="22.9273" style="stroke:#181818;stroke-width:0.5;"/><text fill="#000000" font-family="sans-serif" font-size="14" lengthAdjust="spacing" textLength="164.1787" x="192.6937" y="922.858">US12 - Create a Simulator</text></g><!--entity Editor--><g id="elem_Editor"><ellipse cx="52.2861" cy="149" fill="#F1F1F1" rx="8" ry="8" style="stroke:#181818;stroke-width:0.5;"/><path d="M52.2861,157 L52.2861,184 M39.2861,165 L65.2861,165 M52.2861,184 L39.2861,199 M52.2861,184 L65.2861,199 " fill="none" style="stroke:#181818;stroke-width:0.5;"/><text fill="#000000" font-family="sans-serif" font-size="14" lengthAdjust="spacing" textLength="36.5723" x="34" y="215.6074">Editor</text></g><!--entity Player--><g id="elem_Player"><ellipse cx="52.3413" cy="574" fill="#F1F1F1" rx="8" ry="8" style="stroke:#181818;stroke-width:0.5;"/><path d="M52.3413,582 L52.3413,609 M39.3413,590 L65.3413,590 M52.3413,609 L39.3413,624 M52.3413,609 L65.3413,624 " fill="none" style="stroke:#181818;stroke-width:0.5;"/><text fill="#000000" font-family="sans-serif" font-size="14" lengthAdjust="spacing" textLength="39.6826" x="32.5" y="640.6074">Player</text></g><!--entity PO--><g id="elem_PO"><ellipse cx="52.686" cy="888" fill="#F1F1F1" rx="8" ry="8" style="stroke:#181818;stroke-width:0.5;"/><path d="M52.686,896 L52.686,923 M39.686,904 L65.686,904 M52.686,923 L39.686,938 M52.686,923 L65.686,938 " fill="none" style="stroke:#181818;stroke-width:0.5;"/><text fill="#000000" font-family="sans-serif" font-size="14" lengthAdjust="spacing" textLength="93.3721" x="6" y="954.6074">Product Owner</text></g><!--link Editor to US01 - Create a Map--><g id="link_Editor_US01 - Create a Map"><path d="M71.06,158.34 C86.25,140.96 109.71,117.21 135,103 C155.83,91.3 180.46,83.04 203.16,77.28 " fill="none" id="Editor-US01 - Create a Map" style="stroke:#181818;stroke-width:1.0;"/></g><!--link Editor to US02 - Add an Industry--><g id="link_Editor_US02 - Add an Industry"><path d="M71.17,176.95 C98.71,172.21 153.46,162.77 199.14,154.9 " fill="none" id="Editor-US02 - Add an Industry" style="stroke:#181818;stroke-width:1.0;"/></g><!--link Editor to US03 - Add a City--><g id="link_Editor_US03 - Add a City"><path d="M71.17,182.97 C100.71,187.92 161.52,198.13 208.89,206.08 " fill="none" id="Editor-US03 - Add a City" style="stroke:#181818;stroke-width:1.0;"/></g><!--link Editor to US04 - Create a Scenario--><g id="link_Editor_US04 - Create a Scenario"><path d="M71.02,200.09 C86.37,216.52 110.07,239.21 135,253 C154.67,263.88 177.57,272.04 199.05,278.06 " fill="none" id="Editor-US04 - Create a Scenario" style="stroke:#181818;stroke-width:1.0;"/></g><!--link Player to US05 - Build a Station--><g id="link_Player_US05 - Build a Station"><path d="M59.45,565.15 C68.2,520.68 88.8,449.66 135,409 C151.15,394.78 172.14,385.83 192.89,380.21 " fill="none" id="Player-US05 - Build a Station" style="stroke:#181818;stroke-width:1.0;"/></g><!--link Player to US06 - Upgrade a Station--><g id="link_Player_US06 - Upgrade a Station"><path d="M72.47,565.24 C86.44,539.95 107.74,508.43 135,489 C152.18,476.76 173.05,468.24 193.34,462.33 " fill="none" id="Player-US06 - Upgrade a Station" style="stroke:#181818;stroke-width:1.0;"/></g><!--link Player to US07 - List Stations--><g id="link_Player_US07 - List Stations"><path d="M72.71,593.59 C88.89,584.36 112.87,571.53 135,563 C159.7,553.48 187.77,545.5 212.2,539.41 " fill="none" id="Player-US07 - List Stations" style="stroke:#181818;stroke-width:1.0;"/></g><!--link Player to US08 - Build a Railway Line--><g id="link_Player_US08 - Build a Railway Line"><path d="M72.68,605 C94.37,605 131.43,605 167.88,605 " fill="none" id="Player-US08 - Build a Railway Line" style="stroke:#181818;stroke-width:1.0;"/></g><!--link Player to US09 - Buy a Train--><g id="link_Player_US09 - Buy a Train"><path d="M72.75,616.11 C88.95,625.1 112.94,637.62 135,646 C160.33,655.62 189.16,663.74 213.97,669.89 " fill="none" id="Player-US09 - Buy a Train" style="stroke:#181818;stroke-width:1.0;"/></g><!--link Player to US10 - Assign a Train to Route--><g id="link_Player_US10 - Assign a Train to Route"><path d="M72.63,643.57 C86.75,668.36 108.13,699.48 135,719 C151.07,730.68 170.36,739.33 189.38,745.72 " fill="none" id="Player-US10 - Assign a Train to Route" style="stroke:#181818;stroke-width:1.0;"/></g><!--link Player to US11 - List Trains--><g id="link_Player_US11 - List Trains"><path d="M58.83,644.74 C67.07,690.34 87.28,764.19 135,806 C152.53,821.36 175.8,830.3 198.27,835.47 " fill="none" id="Player-US11 - List Trains" style="stroke:#181818;stroke-width:1.0;"/></g><!--link PO to US12 - Create a Simulator--><g id="link_PO_US12 - Create a Simulator"><path d="M99.19,919 C120.51,919 146.8,919 172.46,919 " fill="none" id="PO-US12 - Create a Simulator" style="stroke:#181818;stroke-width:1.0;"/></g><!--SRC=[VT7DQiCm303Wkvz2vBGS0attVzpA3eEEX6Pz015hcS2rYwrGmjYxpsbcwC3C5oFyMR8bGny2ui3py2cWsLClxAp2Nfo75yrn-mrQWnEbe6YzqsClq9mi-G8mGDieDLz7EnY2OeTiJZX1nuVHu9mKkYa87GhuKWhYMh93LS7LlblLKC764me1mXiUounPH_EaDQ25Lwl787xAiUl4OCEI5JUNnRgUB7fsvVAivPz9taRvFBAPitLo_aUPONUHxO-3Hqt_m_i8jnmacP133nT5Kn-tR2bd7yzsYlBT8-Tgrgkv7o7mO9EQHxvpe-GordLwufc6r9OcdQ__D6yPh_Eb-lu1]--></g></svg>