<svg xmlns="http://www.w3.org/2000/svg" xmlns:xlink="http://www.w3.org/1999/xlink" contentStyleType="text/css" height="2564px" preserveAspectRatio="none" style="width:480px;height:2564px;background:#FFFFFF;" version="1.1" viewBox="0 0 480 2564" width="480px" zoomAndPan="magnify"><defs/><g><!--cluster Railway Simulation System--><g id="cluster_Railway Simulation System"><rect fill="none" height="2551" rx="2.5" ry="2.5" style="stroke:#181818;stroke-width:1.0;" width="331" x="143" y="7"/><text fill="#000000" font-family="sans-serif" font-size="14" font-weight="bold" lengthAdjust="spacing" textLength="181.2822" x="217.8589" y="24.1074">Railway Simulation System</text></g><g id="elem_US01 - Create a Map"><ellipse cx="308.2653" cy="64.7531" fill="#F1F1F1" rx="89.2653" ry="20.2531" style="stroke:#181818;stroke-width:0.5;"/><text fill="#000000" font-family="sans-serif" font-size="14" lengthAdjust="spacing" textLength="132.2822" x="239.1242" y="69.5568">US01 - Create a Map</text></g><g id="elem_US02 - Add an Industry"><ellipse cx="308.6578" cy="141.8316" fill="#F1F1F1" rx="94.6578" ry="21.3316" style="stroke:#181818;stroke-width:0.5;"/><text fill="#000000" font-family="sans-serif" font-size="14" lengthAdjust="spacing" textLength="145.5234" x="233.0818" y="146.5807">US02 - Add an Industry</text></g><g id="elem_US03 - Add a City"><ellipse cx="308.3903" cy="217.1781" fill="#F1F1F1" rx="81.3903" ry="18.6781" style="stroke:#181818;stroke-width:0.5;"/><text fill="#000000" font-family="sans-serif" font-size="14" lengthAdjust="spacing" textLength="112.0479" x="249.3663" y="221.9818">US03 - Add a City</text></g><g id="elem_US04 - Create a Scenario"><ellipse cx="308.4402" cy="293.088" fill="#F1F1F1" rx="100.9402" ry="22.588" style="stroke:#181818;stroke-width:0.5;"/><text fill="#000000" font-family="sans-serif" font-size="14" lengthAdjust="spacing" textLength="160.3027" x="227.4571" y="297.1927">US04 - Create a Scenario</text></g><g id="elem_US19 - Save a Map"><ellipse cx="308.2692" cy="369.9538" fill="#F1F1F1" rx="85.2692" ry="19.4538" style="stroke:#181818;stroke-width:0.5;"/><text fill="#000000" font-family="sans-serif" font-size="14" lengthAdjust="spacing" textLength="122.1719" x="244.1832" y="374.7575">US19 - Save a Map</text></g><g id="elem_US20 - Load a Map"><ellipse cx="308.4713" cy="443.8943" fill="#F1F1F1" rx="84.9713" ry="19.3943" style="stroke:#181818;stroke-width:0.5;"/><text fill="#000000" font-family="sans-serif" font-size="14" lengthAdjust="spacing" textLength="121.4063" x="244.7682" y="448.698">US20 - Load a Map</text></g><g id="elem_US21 - Save a Scenario"><ellipse cx="308.6085" cy="520.2217" fill="#F1F1F1" rx="96.6085" ry="21.7217" style="stroke:#181818;stroke-width:0.5;"/><text fill="#000000" font-family="sans-serif" font-size="14" lengthAdjust="spacing" textLength="150.1924" x="231.3535" y="524.7707">US21 - Save a Scenario</text></g><g id="elem_US22 - Load a Scenario"><ellipse cx="308.2864" cy="598.1573" fill="#F1F1F1" rx="96.2864" ry="21.6573" style="stroke:#181818;stroke-width:0.5;"/><text fill="#000000" font-family="sans-serif" font-size="14" lengthAdjust="spacing" textLength="149.4268" x="231.3086" y="602.7394">US22 - Load a Scenario</text></g><g id="elem_US05 - Build a Station"><ellipse cx="308.4692" cy="675.1938" fill="#F1F1F1" rx="91.4692" ry="20.6938" style="stroke:#181818;stroke-width:0.5;"/><text fill="#000000" font-family="sans-serif" font-size="14" lengthAdjust="spacing" textLength="137.7441" x="236.5972" y="679.9976">US05 - Build a Station</text></g><g id="elem_US06 - Upgrade a Station"><ellipse cx="308.4461" cy="753.0892" fill="#F1F1F1" rx="100.9461" ry="22.5892" style="stroke:#181818;stroke-width:0.5;"/><text fill="#000000" font-family="sans-serif" font-size="14" lengthAdjust="spacing" textLength="160.3164" x="227.4579" y="757.1933">US06 - Upgrade a Station</text></g><g id="elem_US07 - List Stations"><ellipse cx="308.375" cy="830.075" fill="#F1F1F1" rx="85.875" ry="19.575" style="stroke:#181818;stroke-width:0.5;"/><text fill="#000000" font-family="sans-serif" font-size="14" lengthAdjust="spacing" textLength="123.7236" x="243.5132" y="834.8787">US07 - List Stations</text></g><g id="elem_US08 - Build a Railway Line"><ellipse cx="308.2908" cy="908.7582" fill="#F1F1F1" rx="106.7908" ry="23.7582" style="stroke:#181818;stroke-width:0.5;"/><text fill="#000000" font-family="sans-serif" font-size="14" lengthAdjust="spacing" textLength="173.5303" x="221.5257" y="912.555">US08 - Build a Railway Line</text></g><g id="elem_US09 - Buy a Locomotive"><ellipse cx="308.2634" cy="990.9527" fill="#F1F1F1" rx="100.2634" ry="22.4527" style="stroke:#181818;stroke-width:0.5;"/><text fill="#000000" font-family="sans-serif" font-size="14" lengthAdjust="spacing" textLength="158.7441" x="227.8627" y="995.1268">US09 - Buy a Locomotive</text></g><g id="elem_US10 - Assign a Train to Route"><ellipse cx="308.4213" cy="1074.0843" fill="#F1F1F1" rx="115.9213" ry="25.5843" style="stroke:#181818;stroke-width:0.5;"/><text fill="#000000" font-family="sans-serif" font-size="14" lengthAdjust="spacing" textLength="193.7578" x="211.5424" y="1077.8811">US10 - Assign a Train to Route</text></g><g id="elem_US11 - List Trains"><ellipse cx="308.3851" cy="1153.177" fill="#F1F1F1" rx="81.3851" ry="18.677" style="stroke:#181818;stroke-width:0.5;"/><text fill="#000000" font-family="sans-serif" font-size="14" lengthAdjust="spacing" textLength="112.0342" x="249.368" y="1157.9807">US11 - List Trains</text></g><g id="elem_US12 - Play a Game"><ellipse cx="308.7118" cy="1226.9424" fill="#F1F1F1" rx="87.7118" ry="19.9424" style="stroke:#181818;stroke-width:0.5;"/><text fill="#000000" font-family="sans-serif" font-size="14" lengthAdjust="spacing" textLength="128.3857" x="241.5189" y="1231.7461">US12 - Play a Game</text></g><g id="elem_US13 - Verify Train Travel"><ellipse cx="308.6022" cy="1305.2204" fill="#F1F1F1" rx="101.6022" ry="22.7204" style="stroke:#181818;stroke-width:0.5;"/><text fill="#000000" font-family="sans-serif" font-size="14" lengthAdjust="spacing" textLength="161.8203" x="227.0494" y="1309.2572">US13 - Verify Train Travel</text></g><g id="elem_US14 - View Maintenance Route"><ellipse cx="308.6971" cy="1388.9394" fill="#F1F1F1" rx="120.1971" ry="26.4394" style="stroke:#181818;stroke-width:0.5;"/><text fill="#000000" font-family="sans-serif" font-size="14" lengthAdjust="spacing" textLength="203.1094" x="207.1424" y="1392.7363">US14 - View Maintenance Route</text></g><g id="elem_US15 - Analyze Station Profit"><ellipse cx="308.2814" cy="1474.9563" fill="#F1F1F1" rx="110.2814" ry="24.4563" style="stroke:#181818;stroke-width:0.5;"/><text fill="#000000" font-family="sans-serif" font-size="14" lengthAdjust="spacing" textLength="181.3096" x="217.6266" y="1478.7532">US15 - Analyze Station Profit</text></g><g id="elem_US16 - Compare Passenger Arrivals"><ellipse cx="308.4772" cy="1563.0954" fill="#F1F1F1" rx="130.9772" ry="28.5954" style="stroke:#181818;stroke-width:0.5;"/><text fill="#000000" font-family="sans-serif" font-size="14" lengthAdjust="spacing" textLength="226.4199" x="195.2673" y="1566.8923">US16 - Compare Passenger Arrivals</text></g><g id="elem_US17 - Analyze Cargo Arrivals"><ellipse cx="308.643" cy="1652.2286" fill="#F1F1F1" rx="114.143" ry="25.2286" style="stroke:#181818;stroke-width:0.5;"/><text fill="#000000" font-family="sans-serif" font-size="14" lengthAdjust="spacing" textLength="189.8477" x="213.7192" y="1656.0255">US17 - Analyze Cargo Arrivals</text></g><g id="elem_US18 - Analyze Distribution"><ellipse cx="308.7443" cy="1736.0489" fill="#F1F1F1" rx="105.7443" ry="23.5489" style="stroke:#181818;stroke-width:0.5;"/><text fill="#000000" font-family="sans-serif" font-size="14" lengthAdjust="spacing" textLength="171.1855" x="223.1515" y="1739.8457">US18 - Analyze Distribution</text></g><g id="elem_US23 - Save a Simulation"><ellipse cx="308.4402" cy="1817.088" fill="#F1F1F1" rx="100.9402" ry="22.588" style="stroke:#181818;stroke-width:0.5;"/><text fill="#000000" font-family="sans-serif" font-size="14" lengthAdjust="spacing" textLength="160.3027" x="227.4571" y="1821.1927">US23 - Save a Simulation</text></g><g id="elem_US24 - Load a Simulation"><ellipse cx="308.6073" cy="1897.0215" fill="#F1F1F1" rx="100.6073" ry="22.5215" style="stroke:#181818;stroke-width:0.5;"/><text fill="#000000" font-family="sans-serif" font-size="14" lengthAdjust="spacing" textLength="159.5371" x="227.9107" y="1901.1603">US24 - Load a Simulation</text></g><g id="elem_US25 - View Financial Results"><ellipse cx="308.439" cy="1980.0878" fill="#F1F1F1" rx="113.439" ry="25.0878" style="stroke:#181818;stroke-width:0.5;"/><text fill="#000000" font-family="sans-serif" font-size="14" lengthAdjust="spacing" textLength="188.2959" x="214.291" y="1983.8847">US25 - View Financial Results</text></g><g id="elem_US27 - Get Shortest Route"><ellipse cx="308.5174" cy="2063.2035" fill="#F1F1F1" rx="104.0174" ry="23.2035" style="stroke:#181818;stroke-width:0.5;"/><text fill="#000000" font-family="sans-serif" font-size="14" lengthAdjust="spacing" textLength="167.3027" x="224.8661" y="2067.0004">US27 - Get Shortest Route</text></g><g id="elem_US31 - Analyze Cargo Revenue"><ellipse cx="308.4149" cy="2147.083" fill="#F1F1F1" rx="118.4149" ry="26.083" style="stroke:#181818;stroke-width:0.5;"/><text fill="#000000" font-family="sans-serif" font-size="14" lengthAdjust="spacing" textLength="199.2197" x="208.805" y="2150.8799">US31 - Analyze Cargo Revenue</text></g><g id="elem_US26 - Analyze Algorithm Efficiency"><ellipse cx="308.3923" cy="2236.8785" fill="#F1F1F1" rx="129.8923" ry="28.3785" style="stroke:#181818;stroke-width:0.5;"/><text fill="#000000" font-family="sans-serif" font-size="14" lengthAdjust="spacing" textLength="224.0889" x="196.3478" y="2240.6753">US26 - Analyze Algorithm Efficiency</text></g><g id="elem_US28 - Analyze Route Algorithm Efficiency"><ellipse cx="308.2741" cy="2332.7548" fill="#F1F1F1" rx="149.2741" ry="32.2548" style="stroke:#181818;stroke-width:0.5;"/><text fill="#000000" font-family="sans-serif" font-size="14" lengthAdjust="spacing" textLength="265.3369" x="175.6056" y="2336.5517">US28 - Analyze Route Algorithm Efficiency</text></g><g id="elem_US29 - Run Variable-Size Tests"><ellipse cx="308.546" cy="2427.0092" fill="#F1F1F1" rx="118.046" ry="26.0092" style="stroke:#181818;stroke-width:0.5;"/><text fill="#000000" font-family="sans-serif" font-size="14" lengthAdjust="spacing" textLength="198.4131" x="209.3394" y="2430.8061">US29 - Run Variable-Size Tests</text></g><g id="elem_US30 - Obtain Best-Fitting Curve"><ellipse cx="308.397" cy="2515.0794" fill="#F1F1F1" rx="120.897" ry="26.5794" style="stroke:#181818;stroke-width:0.5;"/><text fill="#000000" font-family="sans-serif" font-size="14" lengthAdjust="spacing" textLength="204.6338" x="206.0801" y="2518.8763">US30 - Obtain Best-Fitting Curve</text></g><!--entity Editor--><g id="elem_Editor"><ellipse cx="52.2861" cy="301" fill="#F1F1F1" rx="8" ry="8" style="stroke:#181818;stroke-width:0.5;"/><path d="M52.2861,309 L52.2861,336 M39.2861,317 L65.2861,317 M52.2861,336 L39.2861,351 M52.2861,336 L65.2861,351 " fill="none" style="stroke:#181818;stroke-width:0.5;"/><text fill="#000000" font-family="sans-serif" font-size="14" lengthAdjust="spacing" textLength="36.5723" x="34" y="367.6074">Editor</text></g><!--entity Player--><g id="elem_Player"><ellipse cx="52.3413" cy="1358" fill="#F1F1F1" rx="8" ry="8" style="stroke:#181818;stroke-width:0.5;"/><path d="M52.3413,1366 L52.3413,1393 M39.3413,1374 L65.3413,1374 M52.3413,1393 L39.3413,1408 M52.3413,1393 L65.3413,1408 " fill="none" style="stroke:#181818;stroke-width:0.5;"/><text fill="#000000" font-family="sans-serif" font-size="14" lengthAdjust="spacing" textLength="39.6826" x="32.5" y="1424.6074">Player</text></g><!--entity PO--><g id="elem_PO"><ellipse cx="52.686" cy="2349" fill="#F1F1F1" rx="8" ry="8" style="stroke:#181818;stroke-width:0.5;"/><path d="M52.686,2357 L52.686,2384 M39.686,2365 L65.686,2365 M52.686,2384 L39.686,2399 M52.686,2384 L65.686,2399 " fill="none" style="stroke:#181818;stroke-width:0.5;"/><text fill="#000000" font-family="sans-serif" font-size="14" lengthAdjust="spacing" textLength="93.3721" x="6" y="2415.6074">Product Owner</text></g><!--link Editor to US01 - Create a Map--><g id="link_Editor_US01 - Create a Map"><path d="M56.18,292.4 C61.87,240.93 79.62,151.85 135,103 C158.11,82.61 189.66,72.38 219.46,67.46 " fill="none" id="Editor-US01 - Create a Map" style="stroke:#181818;stroke-width:1.0;"/></g><!--link Editor to US02 - Add an Industry--><g id="link_Editor_US02 - Add an Industry"><path d="M64.6,292.39 C76.38,257.74 98.45,208.73 135,181 C158.48,163.18 188.61,153.24 217.1,147.78 " fill="none" id="Editor-US02 - Add an Industry" style="stroke:#181818;stroke-width:1.0;"/></g><!--link Editor to US03 - Add a City--><g id="link_Editor_US03 - Add a City"><path d="M71.02,308.98 C86.02,290.94 109.24,266.67 135,253 C164.59,237.3 200.43,228.44 231.76,223.45 " fill="none" id="Editor-US03 - Add a City" style="stroke:#181818;stroke-width:1.0;"/></g><!--link Editor to US04 - Create a Scenario--><g id="link_Editor_US04 - Create a Scenario"><path d="M71.36,329.26 C102.87,324.42 170.15,314.09 224.87,305.69 " fill="none" id="Editor-US04 - Create a Scenario" style="stroke:#181818;stroke-width:1.0;"/></g><!--link Editor to US19 - Save a Map--><g id="link_Editor_US19 - Save a Map"><path d="M71.36,334.67 C105.12,339.72 179.99,350.92 236.43,359.37 " fill="none" id="Editor-US19 - Save a Map" style="stroke:#181818;stroke-width:1.0;"/></g><!--link Editor to US20 - Load a Map--><g id="link_Editor_US20 - Load a Map"><path d="M71.28,353.8 C86.44,370.9 109.73,393.92 135,407 C164.24,422.13 199.34,431.08 230.23,436.37 " fill="none" id="Editor-US20 - Load a Map" style="stroke:#181818;stroke-width:1.0;"/></g><!--link Editor to US21 - Save a Scenario--><g id="link_Editor_US21 - Save a Scenario"><path d="M64.97,371.76 C76.91,405.92 98.99,453.83 135,481 C158.16,498.47 187.73,508.36 215.82,513.88 " fill="none" id="Editor-US21 - Save a Scenario" style="stroke:#181818;stroke-width:1.0;"/></g><!--link Editor to US22 - Load a Scenario--><g id="link_Editor_US22 - Load a Scenario"><path d="M56.38,371.65 C62.29,422.7 80.27,510.59 135,559 C156.62,578.12 185.62,588.46 213.66,593.89 " fill="none" id="Editor-US22 - Load a Scenario" style="stroke:#181818;stroke-width:1.0;"/></g><!--link Player to US05 - Build a Station--><g id="link_Player_US05 - Build a Station"><path d="M55.65,1349.07 C63.44,1211.11 92,760.38 135,713 C155.71,690.18 186.75,679.42 216.81,674.77 " fill="none" id="Player-US05 - Build a Station" style="stroke:#181818;stroke-width:1.0;"/></g><!--link Player to US06 - Upgrade a Station--><g id="link_Player_US06 - Upgrade a Station"><path d="M53.28,1349.48 C53.47,1229.85 60.4,874.79 135,793 C153.75,772.44 180.8,761.42 207.94,755.76 " fill="none" id="Player-US06 - Upgrade a Station" style="stroke:#181818;stroke-width:1.0;"/></g><!--link Player to US07 - List Stations--><g id="link_Player_US07 - List Stations"><path d="M54.08,1349.33 C56.53,1239.78 69.24,936.58 135,867 C157.3,843.4 190.71,833.01 222.2,828.92 " fill="none" id="Player-US07 - List Stations" style="stroke:#181818;stroke-width:1.0;"/></g><!--link Player to US08 - Build a Railway Line--><g id="link_Player_US08 - Build a Railway Line"><path d="M55.51,1349.22 C61.21,1252.41 80.76,1008.3 135,951 C153.12,931.86 178.37,920.82 203.98,914.61 " fill="none" id="Player-US08 - Build a Railway Line" style="stroke:#181818;stroke-width:1.0;"/></g><!--link Player to US09 - Buy a Locomotive--><g id="link_Player_US09 - Buy a Locomotive"><path d="M57.26,1349.4 C66.01,1265.9 90.41,1075.77 135,1031 C154.63,1011.29 181.94,1000.51 209.05,994.82 " fill="none" id="Player-US09 - Buy a Locomotive" style="stroke:#181818;stroke-width:1.0;"/></g><!--link Player to US10 - Assign a Train to Route--><g id="link_Player_US10 - Assign a Train to Route"><path d="M53.72,1349.48 C56.28,1290.29 70.09,1178.94 135,1117 C152.75,1100.06 176.11,1089.5 199.89,1082.98 " fill="none" id="Player-US10 - Assign a Train to Route" style="stroke:#181818;stroke-width:1.0;"/></g><!--link Player to US11 - List Trains--><g id="link_Player_US11 - List Trains"><path d="M58.47,1349.46 C66.4,1303.74 86.32,1229.57 135,1189 C160.5,1167.75 195.37,1158.04 227.09,1153.92 " fill="none" id="Player-US11 - List Trains" style="stroke:#181818;stroke-width:1.0;"/></g><!--link Player to US12 - Play a Game--><g id="link_Player_US12 - Play a Game"><path d="M69.67,1349.47 C83.09,1321.63 104.87,1285.75 135,1265 C160.89,1247.17 193.7,1237.53 223.74,1232.37 " fill="none" id="Player-US12 - Play a Game" style="stroke:#181818;stroke-width:1.0;"/></g><!--link Player to US13 - Verify Train Travel--><g id="link_Player_US13 - Verify Train Travel"><path d="M72.57,1376.81 C88.66,1366.99 112.59,1353.47 135,1345 C164.62,1333.8 198.33,1325.14 228.04,1318.79 " fill="none" id="Player-US13 - Verify Train Travel" style="stroke:#181818;stroke-width:1.0;"/></g><!--link Player to US14 - View Maintenance Route--><g id="link_Player_US14 - View Maintenance Route"><path d="M72.59,1389 C97.63,1389 143.64,1389 188.35,1389 " fill="none" id="Player-US14 - View Maintenance Route" style="stroke:#181818;stroke-width:1.0;"/></g><!--link Player to US15 - Analyze Station Profit--><g id="link_Player_US15 - Analyze Station Profit"><path d="M72.59,1401.13 C88.7,1410.91 112.64,1424.4 135,1433 C163.2,1443.84 195.08,1452.53 223.7,1459.14 " fill="none" id="Player-US15 - Analyze Station Profit" style="stroke:#181818;stroke-width:1.0;"/></g><!--link Player to US16 - Compare Passenger Arrivals--><g id="link_Player_US16 - Compare Passenger Arrivals"><path d="M69.36,1428.79 C82.74,1457.41 104.61,1494.74 135,1517 C153.75,1530.74 176.32,1540.37 198.87,1547.13 " fill="none" id="Player-US16 - Compare Passenger Arrivals" style="stroke:#181818;stroke-width:1.0;"/></g><!--link Player to US17 - Analyze Cargo Arrivals--><g id="link_Player_US17 - Analyze Cargo Arrivals"><path d="M57.09,1428.56 C63.74,1478.05 82.5,1562 135,1609 C153.74,1625.78 178.03,1636.23 202.44,1642.69 " fill="none" id="Player-US17 - Analyze Cargo Arrivals" style="stroke:#181818;stroke-width:1.0;"/></g><!--link Player to US18 - Analyze Distribution--><g id="link_Player_US18 - Analyze Distribution"><path d="M59.01,1428.6 C70.07,1502.44 97.19,1657.02 135,1694 C154.17,1712.75 180.24,1723.61 206.29,1729.77 " fill="none" id="Player-US18 - Analyze Distribution" style="stroke:#181818;stroke-width:1.0;"/></g><!--link Player to US23 - Save a Simulation--><g id="link_Player_US23 - Save a Simulation"><path d="M56.49,1428.52 C64.02,1517.1 86.66,1727.64 135,1777 C154.36,1796.77 181.43,1807.58 208.39,1813.29 " fill="none" id="Player-US23 - Save a Simulation" style="stroke:#181818;stroke-width:1.0;"/></g><!--link Player to US24 - Load a Simulation--><g id="link_Player_US24 - Load a Simulation"><path d="M54.93,1428.52 C59.42,1529.85 76.62,1795.29 135,1857 C154.23,1877.32 181.58,1888.25 208.85,1893.9 " fill="none" id="Player-US24 - Load a Simulation" style="stroke:#181818;stroke-width:1.0;"/></g><!--link Player to US25 - View Financial Results--><g id="link_Player_US25 - View Financial Results"><path d="M53.88,1428.88 C55.79,1542.13 67.2,1862.31 135,1937 C151.7,1955.4 174.95,1966.48 198.99,1973.02 " fill="none" id="Player-US25 - View Financial Results" style="stroke:#181818;stroke-width:1.0;"/></g><!--link Player to US27 - Get Shortest Route--><g id="link_Player_US27 - Get Shortest Route"><path d="M52.95,1428.71 C52.05,1553.43 55.97,1934.18 135,2022 C153.12,2042.14 179.17,2053.27 205.55,2059.22 " fill="none" id="Player-US27 - Get Shortest Route" style="stroke:#181818;stroke-width:1.0;"/></g><!--link Player to US31 - Analyze Cargo Revenue--><g id="link_Player_US31 - Analyze Cargo Revenue"><path d="M55.42,1428.63 C62.69,1571.13 90.35,2051.82 135,2103 C150.64,2120.93 172.48,2132.06 195.38,2138.85 " fill="none" id="Player-US31 - Analyze Cargo Revenue" style="stroke:#181818;stroke-width:1.0;"/></g><!--link PO to US26 - Analyze Algorithm Efficiency--><g id="link_PO_US26 - Analyze Algorithm Efficiency"><path d="M78.15,2340.41 C92.46,2320.47 112.17,2297.52 135,2283 C155.53,2269.95 179.69,2260.57 203.32,2253.85 " fill="none" id="PO-US26 - Analyze Algorithm Efficiency" style="stroke:#181818;stroke-width:1.0;"/></g><!--link PO to US28 - Analyze Route Algorithm Efficiency--><g id="link_PO_US28 - Analyze Route Algorithm Efficiency"><path d="M99.2,2371.54 C125.77,2366.63 160.52,2360.2 194.01,2354 " fill="none" id="PO-US28 - Analyze Route Algorithm Efficiency" style="stroke:#181818;stroke-width:1.0;"/></g><!--link PO to US29 - Run Variable-Size Tests--><g id="link_PO_US29 - Run Variable-Size Tests"><path d="M99.2,2388.46 C132.13,2394.55 177.62,2402.97 217.7,2410.38 " fill="none" id="PO-US29 - Run Variable-Size Tests" style="stroke:#181818;stroke-width:1.0;"/></g><!--link PO to US30 - Obtain Best-Fitting Curve--><g id="link_PO_US30 - Obtain Best-Fitting Curve"><path d="M81.2,2419.94 C95.4,2437.65 114.09,2457.32 135,2470 C157.36,2483.56 183.76,2493.07 209.09,2499.73 " fill="none" id="PO-US30 - Obtain Best-Fitting Curve" style="stroke:#181818;stroke-width:1.0;"/></g><!--SRC=[ZPHDZ-8m38Rl_0gBqym1QLhcyyWm7rg95OZES3UjAPRI12KkgBlQ_xv9XoxLRa3RGwkqJspdzUigsWY80SlbLg1WIxcmqGFCnLXuBTW_Zek5meQwnN1XJL7d0lE39Zi4TB2O3mPXE-fI4GoNoEg03MHSrGf3KCWQ9rGDuUTW0FxwYWwZ4LnzPZS9Z61g2OK0uJlkhYDCwfb9KG1g-AQBsebjOjYums3A4YLk-ycod3HQDX4mUV9WXllpDQKtdfWPBCuJoId6XLHfUWfqmbhkI_ckzZlFFTUiMb1QPQyZsBt7FdUbnO8kWmyXBplf61U37dj9kyxEM5ECVMhPnfCpavlA2EzZN1AKcpZ7fVReXqNMmObBKqiKJxewMpHMPH8a36zyl7Uieb62DrPaUTCSK_hxdbGC3IPPCHryNrcBxuZEwNnveIqJZQhvGPsIu8TamnAZGtUcfjgX9LYWSwHB_t5YBUzHHS_sq8i_HLkQY_HZZtxnebbUrsSCa8vx_lmph37mjkVGY-1TfzmR1zKO5Ip9rKfYjQRXPE_a_RSrLiWt-9p6u-GV3PQq9rrJDoZpBkPzZvoeqbYMRGMlcmtdJ3e__XHEV5-lDlr_xGfENzOQLdvOSQrebB7V_-7FuFv2ny7iyxK4nptxxwCt5c5TmhIsOJf-_GO0]--></g></svg>