<svg xmlns="http://www.w3.org/2000/svg" xmlns:xlink="http://www.w3.org/1999/xlink" contentStyleType="text/css" height="677px" preserveAspectRatio="none" style="width:616px;height:677px;background:#FFFFFF;" version="1.1" viewBox="0 0 616 677" width="616px" zoomAndPan="magnify"><title>System Sequence Diagram : US03 - Add a city</title><defs/><g><text fill="#000000" font-family="sans-serif" font-size="14" font-weight="bold" lengthAdjust="spacing" textLength="306.5508" x="161.8428" y="30.1074">System Sequence Diagram : US03 - Add a city</text><rect fill="#FFFFFF" height="452.0742" style="stroke:#181818;stroke-width:1.0;" width="10" x="21.2861" y="133.2422"/><rect fill="#FFFFFF" height="31.291" style="stroke:#181818;stroke-width:1.0;" width="10" x="495.7383" y="156.5332"/><rect fill="#FFFFFF" height="31.291" style="stroke:#181818;stroke-width:1.0;" width="10" x="495.7383" y="219.1152"/><rect fill="#FFFFFF" height="31.291" style="stroke:#181818;stroke-width:1.0;" width="10" x="495.7383" y="281.6973"/><rect fill="#FFFFFF" height="31.291" style="stroke:#181818;stroke-width:1.0;" width="10" x="495.7383" y="344.2793"/><rect fill="#FFFFFF" height="75.582" style="stroke:#181818;stroke-width:1.0;" width="10" x="495.7383" y="406.8613"/><rect fill="#FFFFFF" height="62.582" style="stroke:#181818;stroke-width:1.0;" width="10" x="495.7383" y="513.7344"/><line style="stroke:#181818;stroke-width:0.5;stroke-dasharray:5.0,5.0;" x1="26" x2="26" y1="123.2422" y2="594.3164"/><line style="stroke:#181818;stroke-width:0.5;stroke-dasharray:5.0,5.0;" x1="500.4556" x2="500.4556" y1="123.2422" y2="594.3164"/><text fill="#000000" font-family="sans-serif" font-size="14" lengthAdjust="spacing" textLength="36.5723" x="5" y="119.7285">Editor</text><ellipse cx="26.2861" cy="53.1211" fill="#E3E3E3" rx="8" ry="8" style="stroke:#181818;stroke-width:0.5;"/><path d="M26.2861,61.1211 L26.2861,88.1211 M13.2861,69.1211 L39.2861,69.1211 M26.2861,88.1211 L13.2861,103.1211 M26.2861,88.1211 L39.2861,103.1211 " fill="none" style="stroke:#181818;stroke-width:0.5;"/><text fill="#000000" font-family="sans-serif" font-size="14" lengthAdjust="spacing" textLength="36.5723" x="5" y="608.4238">Editor</text><ellipse cx="26.2861" cy="620.4375" fill="#E3E3E3" rx="8" ry="8" style="stroke:#181818;stroke-width:0.5;"/><path d="M26.2861,628.4375 L26.2861,655.4375 M13.2861,636.4375 L39.2861,636.4375 M26.2861,655.4375 L13.2861,670.4375 M26.2861,655.4375 L39.2861,670.4375 " fill="none" style="stroke:#181818;stroke-width:0.5;"/><rect fill="#E3E3E3" height="32.6211" rx="2.5" ry="2.5" style="stroke:#181818;stroke-width:0.5;" width="64.5654" x="468.4556" y="89.6211"/><text fill="#000000" font-family="sans-serif" font-size="14" lengthAdjust="spacing" textLength="50.5654" x="475.4556" y="111.7285">:System</text><rect fill="#E3E3E3" height="32.6211" rx="2.5" ry="2.5" style="stroke:#181818;stroke-width:0.5;" width="64.5654" x="468.4556" y="593.3164"/><text fill="#000000" font-family="sans-serif" font-size="14" lengthAdjust="spacing" textLength="50.5654" x="475.4556" y="615.4238">:System</text><rect fill="#FFFFFF" height="452.0742" style="stroke:#181818;stroke-width:1.0;" width="10" x="21.2861" y="133.2422"/><rect fill="#FFFFFF" height="31.291" style="stroke:#181818;stroke-width:1.0;" width="10" x="495.7383" y="156.5332"/><rect fill="#FFFFFF" height="31.291" style="stroke:#181818;stroke-width:1.0;" width="10" x="495.7383" y="219.1152"/><rect fill="#FFFFFF" height="31.291" style="stroke:#181818;stroke-width:1.0;" width="10" x="495.7383" y="281.6973"/><rect fill="#FFFFFF" height="31.291" style="stroke:#181818;stroke-width:1.0;" width="10" x="495.7383" y="344.2793"/><rect fill="#FFFFFF" height="75.582" style="stroke:#181818;stroke-width:1.0;" width="10" x="495.7383" y="406.8613"/><rect fill="#FFFFFF" height="62.582" style="stroke:#181818;stroke-width:1.0;" width="10" x="495.7383" y="513.7344"/><polygon fill="#181818" points="483.7383,152.5332,493.7383,156.5332,483.7383,160.5332,487.7383,156.5332" style="stroke:#181818;stroke-width:1.0;"/><line style="stroke:#181818;stroke-width:1.0;" x1="31.2861" x2="489.7383" y1="156.5332" y2="156.5332"/><text fill="#000000" font-family="sans-serif" font-size="13" font-weight="bold" lengthAdjust="spacing" textLength="7.23" x="38.2861" y="151.2705">1</text><text fill="#000000" font-family="sans-serif" font-size="13" lengthAdjust="spacing" textLength="94.6563" x="49.5161" y="151.2705">asks to edit map</text><polygon fill="#181818" points="42.2861,183.8242,32.2861,187.8242,42.2861,191.8242,38.2861,187.8242" style="stroke:#181818;stroke-width:1.0;"/><line style="stroke:#181818;stroke-width:1.0;stroke-dasharray:2.0,2.0;" x1="36.2861" x2="499.7383" y1="187.8242" y2="187.8242"/><text fill="#000000" font-family="sans-serif" font-size="13" font-weight="bold" lengthAdjust="spacing" textLength="7.23" x="48.2861" y="182.5615">2</text><text fill="#000000" font-family="sans-serif" font-size="13" lengthAdjust="spacing" textLength="161.1289" x="59.5161" y="182.5615">shows list of available maps</text><polygon fill="#181818" points="483.7383,215.1152,493.7383,219.1152,483.7383,223.1152,487.7383,219.1152" style="stroke:#181818;stroke-width:1.0;"/><line style="stroke:#181818;stroke-width:1.0;" x1="31.2861" x2="489.7383" y1="219.1152" y2="219.1152"/><text fill="#000000" font-family="sans-serif" font-size="13" font-weight="bold" lengthAdjust="spacing" textLength="7.23" x="38.2861" y="213.8525">3</text><text fill="#000000" font-family="sans-serif" font-size="13" lengthAdjust="spacing" textLength="80.2026" x="49.5161" y="213.8525">selects a map</text><polygon fill="#181818" points="42.2861,246.4063,32.2861,250.4063,42.2861,254.4063,38.2861,250.4063" style="stroke:#181818;stroke-width:1.0;"/><line style="stroke:#181818;stroke-width:1.0;stroke-dasharray:2.0,2.0;" x1="36.2861" x2="499.7383" y1="250.4063" y2="250.4063"/><text fill="#000000" font-family="sans-serif" font-size="13" font-weight="bold" lengthAdjust="spacing" textLength="7.23" x="48.2861" y="245.1436">4</text><text fill="#000000" font-family="sans-serif" font-size="13" lengthAdjust="spacing" textLength="209.5742" x="59.5161" y="245.1436">loads and displays the selected map</text><polygon fill="#181818" points="483.7383,277.6973,493.7383,281.6973,483.7383,285.6973,487.7383,281.6973" style="stroke:#181818;stroke-width:1.0;"/><line style="stroke:#181818;stroke-width:1.0;" x1="31.2861" x2="489.7383" y1="281.6973" y2="281.6973"/><text fill="#000000" font-family="sans-serif" font-size="13" font-weight="bold" lengthAdjust="spacing" textLength="7.23" x="38.2861" y="276.4346">5</text><text fill="#000000" font-family="sans-serif" font-size="13" lengthAdjust="spacing" textLength="89.5972" x="49.5161" y="276.4346">asks to add city</text><polygon fill="#181818" points="42.2861,308.9883,32.2861,312.9883,42.2861,316.9883,38.2861,312.9883" style="stroke:#181818;stroke-width:1.0;"/><line style="stroke:#181818;stroke-width:1.0;stroke-dasharray:2.0,2.0;" x1="36.2861" x2="499.7383" y1="312.9883" y2="312.9883"/><text fill="#000000" font-family="sans-serif" font-size="13" font-weight="bold" lengthAdjust="spacing" textLength="7.23" x="48.2861" y="307.7256">6</text><text fill="#000000" font-family="sans-serif" font-size="13" lengthAdjust="spacing" textLength="429.2222" x="59.5161" y="307.7256">requests city data (nameID, X and Y coordinates, number of house blocks)</text><polygon fill="#181818" points="483.7383,340.2793,493.7383,344.2793,483.7383,348.2793,487.7383,344.2793" style="stroke:#181818;stroke-width:1.0;"/><line style="stroke:#181818;stroke-width:1.0;stroke-dasharray:2.0,2.0;" x1="31.2861" x2="489.7383" y1="344.2793" y2="344.2793"/><text fill="#000000" font-family="sans-serif" font-size="13" font-weight="bold" lengthAdjust="spacing" textLength="7.23" x="38.2861" y="339.0166">7</text><text fill="#000000" font-family="sans-serif" font-size="13" lengthAdjust="spacing" textLength="83.0972" x="49.5161" y="339.0166">types city data</text><polygon fill="#181818" points="42.2861,371.5703,32.2861,375.5703,42.2861,379.5703,38.2861,375.5703" style="stroke:#181818;stroke-width:1.0;"/><line style="stroke:#181818;stroke-width:1.0;stroke-dasharray:2.0,2.0;" x1="36.2861" x2="499.7383" y1="375.5703" y2="375.5703"/><text fill="#000000" font-family="sans-serif" font-size="13" font-weight="bold" lengthAdjust="spacing" textLength="7.23" x="48.2861" y="370.3076">8</text><text fill="#000000" font-family="sans-serif" font-size="13" lengthAdjust="spacing" textLength="400.3022" x="59.5161" y="370.3076">asks if the editor wants to assign the blocks manually or automatically</text><polygon fill="#181818" points="483.7383,402.8613,493.7383,406.8613,483.7383,410.8613,487.7383,406.8613" style="stroke:#181818;stroke-width:1.0;"/><line style="stroke:#181818;stroke-width:1.0;" x1="31.2861" x2="489.7383" y1="406.8613" y2="406.8613"/><text fill="#000000" font-family="sans-serif" font-size="13" font-weight="bold" lengthAdjust="spacing" textLength="7.23" x="38.2861" y="401.5986">9</text><text fill="#000000" font-family="sans-serif" font-size="13" lengthAdjust="spacing" textLength="82.3735" x="49.5161" y="401.5986">selects yes/no</text><line style="stroke:#181818;stroke-width:1.0;stroke-dasharray:2.0,2.0;" x1="505.7383" x2="547.7383" y1="438.1523" y2="438.1523"/><line style="stroke:#181818;stroke-width:1.0;stroke-dasharray:2.0,2.0;" x1="547.7383" x2="547.7383" y1="438.1523" y2="451.1523"/><line style="stroke:#181818;stroke-width:1.0;stroke-dasharray:2.0,2.0;" x1="506.7383" x2="547.7383" y1="451.1523" y2="451.1523"/><polygon fill="#181818" points="516.7383,447.1523,506.7383,451.1523,516.7383,455.1523,512.7383,451.1523" style="stroke:#181818;stroke-width:1.0;"/><text fill="#000000" font-family="sans-serif" font-size="13" font-weight="bold" lengthAdjust="spacing" textLength="14.46" x="512.7383" y="432.8896">10</text><text fill="#000000" font-family="sans-serif" font-size="13" lengthAdjust="spacing" textLength="78.0381" x="531.1982" y="432.8896">assign blocks</text><polygon fill="#181818" points="42.2861,478.4434,32.2861,482.4434,42.2861,486.4434,38.2861,482.4434" style="stroke:#181818;stroke-width:1.0;"/><line style="stroke:#181818;stroke-width:1.0;stroke-dasharray:2.0,2.0;" x1="36.2861" x2="499.7383" y1="482.4434" y2="482.4434"/><text fill="#000000" font-family="sans-serif" font-size="13" font-weight="bold" lengthAdjust="spacing" textLength="14.46" x="48.2861" y="477.1807">11</text><text fill="#000000" font-family="sans-serif" font-size="13" lengthAdjust="spacing" textLength="119.9326" x="66.7461" y="477.1807">asks for confirmation</text><polygon fill="#181818" points="483.7383,509.7344,493.7383,513.7344,483.7383,517.7344,487.7383,513.7344" style="stroke:#181818;stroke-width:1.0;"/><line style="stroke:#181818;stroke-width:1.0;" x1="31.2861" x2="489.7383" y1="513.7344" y2="513.7344"/><text fill="#000000" font-family="sans-serif" font-size="13" font-weight="bold" lengthAdjust="spacing" textLength="14.46" x="38.2861" y="508.4717">12</text><text fill="#000000" font-family="sans-serif" font-size="13" lengthAdjust="spacing" textLength="101.1436" x="56.7461" y="508.4717">confirms city data</text><polygon fill="#181818" points="42.2861,541.0254,32.2861,545.0254,42.2861,549.0254,38.2861,545.0254" style="stroke:#181818;stroke-width:1.0;"/><line style="stroke:#181818;stroke-width:1.0;stroke-dasharray:2.0,2.0;" x1="36.2861" x2="494.7383" y1="545.0254" y2="545.0254"/><text fill="#000000" font-family="sans-serif" font-size="13" font-weight="bold" lengthAdjust="spacing" textLength="14.46" x="48.2861" y="539.7627">13</text><text fill="#000000" font-family="sans-serif" font-size="13" lengthAdjust="spacing" textLength="155.3589" x="66.7461" y="539.7627">displays operation success</text><polygon fill="#181818" points="42.2861,572.3164,32.2861,576.3164,42.2861,580.3164,38.2861,576.3164" style="stroke:#181818;stroke-width:1.0;"/><line style="stroke:#181818;stroke-width:1.0;stroke-dasharray:2.0,2.0;" x1="36.2861" x2="499.7383" y1="576.3164" y2="576.3164"/><text fill="#000000" font-family="sans-serif" font-size="13" font-weight="bold" lengthAdjust="spacing" textLength="14.46" x="48.2861" y="571.0537">14</text><text fill="#000000" font-family="sans-serif" font-size="13" lengthAdjust="spacing" textLength="104.7681" x="66.7461" y="571.0537">display city details</text><!--SRC=[fLEnZjim3Dtr5KIc5hYW1RfbA53qRhWvEA0T6ObsXCYYAyeN-EzBIxx4LwH9YcgHOUezllT4oS777XDsq75akq_S4UGqa95JfKTxm9QsUGm4YMp6s8Rb0TcZuwEFBJGOX0mEcUFGxIWPatrMr7QKJ1riwTT0qH8yUcmdv0PUjf-_m1g-EGS8rkVH6BIP4woUdDTz1IXGFursozxw7cE6rQPobhgYlolqvRc0_IjcUiFK3TPVpuUqAyf183EGLg73ti2yJl0p9IpMcMEjZ9Lxe_xvA12yPE06y1Lzm9swLc8vmHrTu2xL2nALau8cBHhAVyiBZ4w9eWFdfGyuglKzpHt8lMjmMUNr457lhjpS5PNccaJbIjDaYFgTYC1XHlWGiQFdnmVuKRJ_1CkSd8zAB0zGvslAUy-34Em2suDyl2FkPUH_ECfZJmi9vaRab-CkiVYcP4orpr4djaObujjOIbMmXXy73644FJQzcmvrnASVrvtSd9kHv5FaUmRdlOi5rIos2ht7TADgBCV6fya5nziM_cfZfbbUnhzxUHDt6dlkAHLb88Er978VS1P1MH_shGVz6m00]--></g></svg>