<svg xmlns="http://www.w3.org/2000/svg" xmlns:xlink="http://www.w3.org/1999/xlink" contentStyleType="text/css" height="539px" preserveAspectRatio="none" style="width:1443px;height:539px;background:#FFFFFF;" version="1.1" viewBox="0 0 1443 539" width="1443px" zoomAndPan="magnify"><title>Class Diagram: US07 - List Stations</title><defs/><g><text fill="#000000" font-family="sans-serif" font-size="14" font-weight="bold" lengthAdjust="spacing" textLength="238.9231" x="595.2684" y="24.9659">Class Diagram: US07 - List Stations</text><!--class ListStationUI--><g id="elem_ListStationUI"><rect codeLine="11" fill="#F1F1F1" height="124.2717" id="ListStationUI" rx="2.5" ry="2.5" style="stroke:#181818;stroke-width:0.5;" width="158.2154" x="7" y="244.5679"/><ellipse cx="40.9656" cy="260.5679" fill="#ADD1B2" rx="11" ry="11" style="stroke:#181818;stroke-width:1.0;"/><path d="M40.4343,267.4898 Q38.6843,267.4898 37.5437,266.7554 Q36.4187,266.0054 35.8562,264.6617 Q35.3093,263.3023 35.3093,261.5054 Q35.3093,259.4742 35.9656,258.021 Q36.6218,256.5679 37.9031,255.7867 Q39.1843,255.0054 41.0593,255.0054 Q41.95,255.0054 42.6218,255.1929 Q43.2937,255.3648 43.9812,255.7085 L43.1687,257.7242 Q42.5437,257.4117 41.9968,257.2867 Q41.4656,257.1617 40.9812,257.1617 Q39.8093,257.1617 39.1062,257.6929 Q38.4031,258.2242 38.1062,259.1773 Q37.8093,260.1304 37.8093,261.396 Q37.8093,263.4117 38.5281,264.3804 Q39.2468,265.3335 40.8406,265.3335 Q41.4343,265.3335 42.0593,265.1773 Q42.6843,265.021 43.5125,264.646 L43.5125,266.8648 Q42.7781,267.1773 41.9812,267.3335 Q41.2,267.4898 40.4343,267.4898 Z " fill="#000000"/><text fill="#000000" font-family="sans-serif" font-size="14" lengthAdjust="spacing" textLength="84.0697" x="59.1802" y="265.9999">ListStationUI</text><line style="stroke:#181818;stroke-width:0.5;" x1="8" x2="164.2154" y1="276.5679" y2="276.5679"/><line style="stroke:#181818;stroke-width:0.5;" x1="8" x2="164.2154" y1="284.5679" y2="284.5679"/><text fill="#000000" font-family="sans-serif" font-size="14" lengthAdjust="spacing" textLength="88.4797" x="13" y="303.5339">+listStations()</text><text fill="#000000" font-family="sans-serif" font-size="14" lengthAdjust="spacing" textLength="146.2154" x="13" y="322.6018">+showAvailableMaps()</text><text fill="#000000" font-family="sans-serif" font-size="14" lengthAdjust="spacing" textLength="120.3295" x="13" y="341.6697">+showStationList()</text><text fill="#000000" font-family="sans-serif" font-size="14" lengthAdjust="spacing" textLength="142.5755" x="13" y="360.7376">+showStationDetails()</text></g><!--class ListStationController--><g id="elem_ListStationController"><rect codeLine="18" fill="#F1F1F1" height="105.2038" id="ListStationController" rx="2.5" ry="2.5" style="stroke:#181818;stroke-width:0.5;" width="200.0613" x="226" y="254.0679"/><ellipse cx="255.7572" cy="270.0679" fill="#ADD1B2" rx="11" ry="11" style="stroke:#181818;stroke-width:1.0;"/><path d="M255.226,276.9898 Q253.476,276.9898 252.3353,276.2554 Q251.2103,275.5054 250.6478,274.1617 Q250.101,272.8023 250.101,271.0054 Q250.101,268.9742 250.7572,267.521 Q251.4135,266.0679 252.6947,265.2867 Q253.976,264.5054 255.851,264.5054 Q256.7416,264.5054 257.4135,264.6929 Q258.0853,264.8648 258.7728,265.2085 L257.9603,267.2242 Q257.3353,266.9117 256.7885,266.7867 Q256.2572,266.6617 255.7728,266.6617 Q254.601,266.6617 253.8978,267.1929 Q253.1947,267.7242 252.8978,268.6773 Q252.601,269.6304 252.601,270.896 Q252.601,272.9117 253.3197,273.8804 Q254.0385,274.8335 255.6322,274.8335 Q256.226,274.8335 256.851,274.6773 Q257.476,274.521 258.3041,274.146 L258.3041,276.3648 Q257.5697,276.6773 256.7728,276.8335 Q255.9916,276.9898 255.226,276.9898 Z " fill="#000000"/><text fill="#000000" font-family="sans-serif" font-size="14" lengthAdjust="spacing" textLength="135.2675" x="273.0366" y="275.4999">ListStationController</text><line style="stroke:#181818;stroke-width:0.5;" x1="227" x2="425.0613" y1="286.0679" y2="286.0679"/><line style="stroke:#181818;stroke-width:0.5;" x1="227" x2="425.0613" y1="294.0679" y2="294.0679"/><text fill="#000000" font-family="sans-serif" font-size="14" lengthAdjust="spacing" textLength="130.3675" x="232" y="313.0339">+listAvailableMaps()</text><text fill="#000000" font-family="sans-serif" font-size="14" lengthAdjust="spacing" textLength="133.9655" x="232" y="332.1018">+getStations(mapId)</text><text fill="#000000" font-family="sans-serif" font-size="14" lengthAdjust="spacing" textLength="188.0613" x="232" y="351.1697">+getStationDetails(stationId)</text></g><!--class ApplicationSession--><g id="elem_ApplicationSession"><rect codeLine="24" fill="#F1F1F1" height="105.2038" id="ApplicationSession" rx="2.5" ry="2.5" style="stroke:#181818;stroke-width:0.5;" width="155.4795" x="487" y="47.0679"/><ellipse cx="502" cy="63.0679" fill="#ADD1B2" rx="11" ry="11" style="stroke:#181818;stroke-width:1.0;"/><path d="M501.4688,69.9898 Q499.7188,69.9898 498.5781,69.2554 Q497.4531,68.5054 496.8906,67.1617 Q496.3438,65.8023 496.3438,64.0054 Q496.3438,61.9742 497,60.521 Q497.6563,59.0679 498.9375,58.2867 Q500.2188,57.5054 502.0938,57.5054 Q502.9844,57.5054 503.6563,57.6929 Q504.3281,57.8648 505.0156,58.2085 L504.2031,60.2242 Q503.5781,59.9117 503.0313,59.7867 Q502.5,59.6617 502.0156,59.6617 Q500.8438,59.6617 500.1406,60.1929 Q499.4375,60.7242 499.1406,61.6773 Q498.8438,62.6304 498.8438,63.896 Q498.8438,65.9117 499.5625,66.8804 Q500.2813,67.8335 501.875,67.8335 Q502.4688,67.8335 503.0938,67.6773 Q503.7188,67.521 504.5469,67.146 L504.5469,69.3648 Q503.8125,69.6773 503.0156,69.8335 Q502.2344,69.9898 501.4688,69.9898 Z " fill="#000000"/><text fill="#000000" font-family="sans-serif" font-size="14" lengthAdjust="spacing" textLength="123.4795" x="516" y="68.4999">ApplicationSession</text><line style="stroke:#181818;stroke-width:0.5;" x1="488" x2="641.4795" y1="79.0679" y2="79.0679"/><line style="stroke:#181818;stroke-width:0.5;" x1="488" x2="641.4795" y1="87.0679" y2="87.0679"/><text fill="#000000" font-family="sans-serif" font-size="14" lengthAdjust="spacing" textLength="136.3875" x="493" y="106.0339">-ApplicationSession()</text><text fill="#000000" font-family="sans-serif" font-size="14" lengthAdjust="spacing" text-decoration="underline" textLength="94.2476" x="493" y="125.1018">+getInstance()</text><text fill="#000000" font-family="sans-serif" font-size="14" lengthAdjust="spacing" textLength="138.3615" x="493" y="144.1697">+getCurrentSession()</text></g><!--class UserSession--><g id="elem_UserSession"><rect codeLine="29" fill="#F1F1F1" height="67.0679" id="UserSession" rx="2.5" ry="2.5" style="stroke:#181818;stroke-width:0.5;" width="139.9455" x="796" y="66.0679"/><ellipse cx="823.4199" cy="82.0679" fill="#ADD1B2" rx="11" ry="11" style="stroke:#181818;stroke-width:1.0;"/><path d="M822.8887,88.9898 Q821.1387,88.9898 819.998,88.2554 Q818.873,87.5054 818.3105,86.1617 Q817.7637,84.8023 817.7637,83.0054 Q817.7637,80.9742 818.4199,79.521 Q819.0762,78.0679 820.3574,77.2867 Q821.6387,76.5054 823.5137,76.5054 Q824.4043,76.5054 825.0762,76.6929 Q825.748,76.8648 826.4355,77.2085 L825.623,79.2242 Q824.998,78.9117 824.4512,78.7867 Q823.9199,78.6617 823.4355,78.6617 Q822.2637,78.6617 821.5605,79.1929 Q820.8574,79.7242 820.5605,80.6773 Q820.2637,81.6304 820.2637,82.896 Q820.2637,84.9117 820.9824,85.8804 Q821.7012,86.8335 823.2949,86.8335 Q823.8887,86.8335 824.5137,86.6773 Q825.1387,86.521 825.9668,86.146 L825.9668,88.3648 Q825.2324,88.6773 824.4355,88.8335 Q823.6543,88.9898 822.8887,88.9898 Z " fill="#000000"/><text fill="#000000" font-family="sans-serif" font-size="14" lengthAdjust="spacing" textLength="80.3457" x="840.1799" y="87.4999">UserSession</text><line style="stroke:#181818;stroke-width:0.5;" x1="797" x2="934.9455" y1="98.0679" y2="98.0679"/><line style="stroke:#181818;stroke-width:0.5;" x1="797" x2="934.9455" y1="106.0679" y2="106.0679"/><text fill="#000000" font-family="sans-serif" font-size="14" lengthAdjust="spacing" textLength="127.9455" x="802" y="125.0339">+getCurrentEditor()</text></g><!--class Repositories--><g id="elem_Repositories"><rect codeLine="33" fill="#F1F1F1" height="86.1358" id="Repositories" rx="2.5" ry="2.5" style="stroke:#181818;stroke-width:0.5;" width="128.4096" x="500.5" y="187.5679"/><ellipse cx="522.1995" cy="203.5679" fill="#ADD1B2" rx="11" ry="11" style="stroke:#181818;stroke-width:1.0;"/><path d="M521.6683,210.4898 Q519.9183,210.4898 518.7777,209.7554 Q517.6527,209.0054 517.0902,207.6617 Q516.5433,206.3023 516.5433,204.5054 Q516.5433,202.4742 517.1995,201.021 Q517.8558,199.5679 519.137,198.7867 Q520.4183,198.0054 522.2933,198.0054 Q523.1839,198.0054 523.8558,198.1929 Q524.5277,198.3648 525.2152,198.7085 L524.4027,200.7242 Q523.7777,200.4117 523.2308,200.2867 Q522.6995,200.1617 522.2152,200.1617 Q521.0433,200.1617 520.3402,200.6929 Q519.637,201.2242 519.3402,202.1773 Q519.0433,203.1304 519.0433,204.396 Q519.0433,206.4117 519.762,207.3804 Q520.4808,208.3335 522.0745,208.3335 Q522.6683,208.3335 523.2933,208.1773 Q523.9183,208.021 524.7464,207.646 L524.7464,209.8648 Q524.012,210.1773 523.2152,210.3335 Q522.4339,210.4898 521.6683,210.4898 Z " fill="#000000"/><text fill="#000000" font-family="sans-serif" font-size="14" lengthAdjust="spacing" textLength="81.5217" x="537.6883" y="208.9999">Repositories</text><line style="stroke:#181818;stroke-width:0.5;" x1="501.5" x2="627.9096" y1="219.5679" y2="219.5679"/><line style="stroke:#181818;stroke-width:0.5;" x1="501.5" x2="627.9096" y1="227.5679" y2="227.5679"/><text fill="#000000" font-family="sans-serif" font-size="14" lengthAdjust="spacing" textLength="94.2476" x="506.5" y="246.5339">+getInstance()</text><text fill="#000000" font-family="sans-serif" font-size="14" lengthAdjust="spacing" textLength="116.4096" x="506.5" y="265.6018">+mapRepository()</text></g><!--class MapRepository--><g id="elem_MapRepository"><rect codeLine="38" fill="#F1F1F1" height="86.1358" id="MapRepository" rx="2.5" ry="2.5" style="stroke:#181818;stroke-width:0.5;" width="131.6096" x="800" y="240.5679"/><ellipse cx="815" cy="256.5679" fill="#ADD1B2" rx="11" ry="11" style="stroke:#181818;stroke-width:1.0;"/><path d="M814.4688,263.4898 Q812.7188,263.4898 811.5781,262.7554 Q810.4531,262.0054 809.8906,260.6617 Q809.3438,259.3023 809.3438,257.5054 Q809.3438,255.4742 810,254.021 Q810.6563,252.5679 811.9375,251.7867 Q813.2188,251.0054 815.0938,251.0054 Q815.9844,251.0054 816.6563,251.1929 Q817.3281,251.3648 818.0156,251.7085 L817.2031,253.7242 Q816.5781,253.4117 816.0313,253.2867 Q815.5,253.1617 815.0156,253.1617 Q813.8438,253.1617 813.1406,253.6929 Q812.4375,254.2242 812.1406,255.1773 Q811.8438,256.1304 811.8438,257.396 Q811.8438,259.4117 812.5625,260.3804 Q813.2813,261.3335 814.875,261.3335 Q815.4688,261.3335 816.0938,261.1773 Q816.7188,261.021 817.5469,260.646 L817.5469,262.8648 Q816.8125,263.1773 816.0156,263.3335 Q815.2344,263.4898 814.4688,263.4898 Z " fill="#000000"/><text fill="#000000" font-family="sans-serif" font-size="14" lengthAdjust="spacing" textLength="99.6096" x="829" y="261.9999">MapRepository</text><line style="stroke:#181818;stroke-width:0.5;" x1="801" x2="930.6096" y1="272.5679" y2="272.5679"/><line style="stroke:#181818;stroke-width:0.5;" x1="801" x2="930.6096" y1="280.5679" y2="280.5679"/><text fill="#000000" font-family="sans-serif" font-size="14" lengthAdjust="spacing" textLength="90.0057" x="806" y="299.5339">+getAllMaps()</text><text fill="#000000" font-family="sans-serif" font-size="14" lengthAdjust="spacing" textLength="83.4817" x="806" y="318.6018">+findMap(id)</text></g><!--class Map--><g id="elem_Map"><rect codeLine="43" fill="#F1F1F1" height="86.1358" id="Map" rx="2.5" ry="2.5" style="stroke:#181818;stroke-width:0.5;" width="85.6957" x="521.5" y="379.5679"/><ellipse cx="547.5402" cy="395.5679" fill="#ADD1B2" rx="11" ry="11" style="stroke:#181818;stroke-width:1.0;"/><path d="M547.009,402.4898 Q545.259,402.4898 544.1183,401.7554 Q542.9933,401.0054 542.4308,399.6617 Q541.884,398.3023 541.884,396.5054 Q541.884,394.4742 542.5402,393.021 Q543.1965,391.5679 544.4777,390.7867 Q545.759,390.0054 547.634,390.0054 Q548.5246,390.0054 549.1965,390.1929 Q549.8683,390.3648 550.5558,390.7085 L549.7433,392.7242 Q549.1183,392.4117 548.5715,392.2867 Q548.0402,392.1617 547.5558,392.1617 Q546.384,392.1617 545.6808,392.6929 Q544.9777,393.2242 544.6808,394.1773 Q544.384,395.1304 544.384,396.396 Q544.384,398.4117 545.1027,399.3804 Q545.8215,400.3335 547.4152,400.3335 Q548.009,400.3335 548.634,400.1773 Q549.259,400.021 550.0871,399.646 L550.0871,401.8648 Q549.3527,402.1773 548.5558,402.3335 Q547.7746,402.4898 547.009,402.4898 Z " fill="#000000"/><text fill="#000000" font-family="sans-serif" font-size="14" lengthAdjust="spacing" textLength="29.1619" x="563.9936" y="400.9999">Map</text><line style="stroke:#181818;stroke-width:0.5;" x1="522.5" x2="606.1957" y1="411.5679" y2="411.5679"/><text fill="#000000" font-family="sans-serif" font-size="14" lengthAdjust="spacing" textLength="55.3558" x="527.5" y="430.5339">-nameId</text><line style="stroke:#181818;stroke-width:0.5;" x1="522.5" x2="606.1957" y1="438.6358" y2="438.6358"/><text fill="#000000" font-family="sans-serif" font-size="14" lengthAdjust="spacing" textLength="73.6957" x="527.5" y="457.6018">+getCities()</text></g><!--class City--><g id="elem_City"><rect codeLine="48" fill="#F1F1F1" height="86.1358" id="City" rx="2.5" ry="2.5" style="stroke:#181818;stroke-width:0.5;" width="103.0557" x="814.5" y="379.5679"/><ellipse cx="850.3808" cy="395.5679" fill="#ADD1B2" rx="11" ry="11" style="stroke:#181818;stroke-width:1.0;"/><path d="M849.8495,402.4898 Q848.0995,402.4898 846.9589,401.7554 Q845.8339,401.0054 845.2714,399.6617 Q844.7245,398.3023 844.7245,396.5054 Q844.7245,394.4742 845.3808,393.021 Q846.037,391.5679 847.3183,390.7867 Q848.5995,390.0054 850.4745,390.0054 Q851.3652,390.0054 852.037,390.1929 Q852.7089,390.3648 853.3964,390.7085 L852.5839,392.7242 Q851.9589,392.4117 851.412,392.2867 Q850.8808,392.1617 850.3964,392.1617 Q849.2245,392.1617 848.5214,392.6929 Q847.8183,393.2242 847.5214,394.1773 Q847.2245,395.1304 847.2245,396.396 Q847.2245,398.4117 847.9433,399.3804 Q848.662,400.3335 850.2558,400.3335 Q850.8495,400.3335 851.4745,400.1773 Q852.0995,400.021 852.9277,399.646 L852.9277,401.8648 Q852.1933,402.1773 851.3964,402.3335 Q850.6152,402.4898 849.8495,402.4898 Z " fill="#000000"/><text fill="#000000" font-family="sans-serif" font-size="14" lengthAdjust="spacing" textLength="24.6539" x="869.021" y="400.9999">City</text><line style="stroke:#181818;stroke-width:0.5;" x1="815.5" x2="916.5557" y1="411.5679" y2="411.5679"/><text fill="#000000" font-family="sans-serif" font-size="14" lengthAdjust="spacing" textLength="41.9998" x="820.5" y="430.5339">-name</text><line style="stroke:#181818;stroke-width:0.5;" x1="815.5" x2="916.5557" y1="438.6358" y2="438.6358"/><text fill="#000000" font-family="sans-serif" font-size="14" lengthAdjust="spacing" textLength="91.0557" x="820.5" y="457.6018">+getStations()</text></g><!--class Station--><g id="elem_Station"><rect codeLine="53" fill="#F1F1F1" height="219.6113" id="Station" rx="2.5" ry="2.5" style="stroke:#181818;stroke-width:0.5;" width="162.3594" x="1037" y="312.5679"/><ellipse cx="1090.7388" cy="328.5679" fill="#ADD1B2" rx="11" ry="11" style="stroke:#181818;stroke-width:1.0;"/><path d="M1090.2075,335.4898 Q1088.4575,335.4898 1087.3169,334.7554 Q1086.1919,334.0054 1085.6294,332.6617 Q1085.0825,331.3023 1085.0825,329.5054 Q1085.0825,327.4742 1085.7388,326.021 Q1086.395,324.5679 1087.6763,323.7867 Q1088.9575,323.0054 1090.8325,323.0054 Q1091.7232,323.0054 1092.395,323.1929 Q1093.0669,323.3648 1093.7544,323.7085 L1092.9419,325.7242 Q1092.3169,325.4117 1091.77,325.2867 Q1091.2388,325.1617 1090.7544,325.1617 Q1089.5825,325.1617 1088.8794,325.6929 Q1088.1763,326.2242 1087.8794,327.1773 Q1087.5825,328.1304 1087.5825,329.396 Q1087.5825,331.4117 1088.3013,332.3804 Q1089.02,333.3335 1090.6138,333.3335 Q1091.2075,333.3335 1091.8325,333.1773 Q1092.4575,333.021 1093.2857,332.646 L1093.2857,334.8648 Q1092.5513,335.1773 1091.7544,335.3335 Q1090.9732,335.4898 1090.2075,335.4898 Z " fill="#000000"/><text fill="#000000" font-family="sans-serif" font-size="14" lengthAdjust="spacing" textLength="46.3818" x="1111.2388" y="333.9999">Station</text><line style="stroke:#181818;stroke-width:0.5;" x1="1038" x2="1198.3594" y1="344.5679" y2="344.5679"/><text fill="#000000" font-family="sans-serif" font-size="14" lengthAdjust="spacing" textLength="41.9998" x="1043" y="363.5339">-name</text><text fill="#000000" font-family="sans-serif" font-size="14" lengthAdjust="spacing" textLength="110.5716" x="1043" y="382.6018">-storageCapacity</text><text fill="#000000" font-family="sans-serif" font-size="14" lengthAdjust="spacing" textLength="90.0057" x="1043" y="401.6697">-buildingSlots</text><text fill="#000000" font-family="sans-serif" font-size="14" lengthAdjust="spacing" textLength="98.2656" x="1043" y="420.7376">-cargoDemand</text><text fill="#000000" font-family="sans-serif" font-size="14" lengthAdjust="spacing" textLength="86.2537" x="1043" y="439.8055">-cargoSupply</text><line style="stroke:#181818;stroke-width:0.5;" x1="1038" x2="1198.3594" y1="447.9075" y2="447.9075"/><text fill="#000000" font-family="sans-serif" font-size="14" lengthAdjust="spacing" textLength="82.9217" x="1043" y="466.8734">+getDetails()</text><text fill="#000000" font-family="sans-serif" font-size="14" lengthAdjust="spacing" textLength="99.1336" x="1043" y="485.9414">+getBuildings()</text><text fill="#000000" font-family="sans-serif" font-size="14" lengthAdjust="spacing" textLength="150.3594" x="1043" y="505.0093">+getDemandedCargo()</text><text fill="#000000" font-family="sans-serif" font-size="14" lengthAdjust="spacing" textLength="121.8415" x="1043" y="524.0772">+getSupplyCargo()</text></g><!--class Building--><g id="elem_Building"><rect codeLine="65" fill="#F1F1F1" height="86.1358" id="Building" rx="2.5" ry="2.5" style="stroke:#181818;stroke-width:0.5;" width="86.4598" x="1350" y="379.5679"/><ellipse cx="1365" cy="395.5679" fill="#ADD1B2" rx="11" ry="11" style="stroke:#181818;stroke-width:1.0;"/><path d="M1364.4688,402.4898 Q1362.7188,402.4898 1361.5781,401.7554 Q1360.4531,401.0054 1359.8906,399.6617 Q1359.3438,398.3023 1359.3438,396.5054 Q1359.3438,394.4742 1360,393.021 Q1360.6563,391.5679 1361.9375,390.7867 Q1363.2188,390.0054 1365.0938,390.0054 Q1365.9844,390.0054 1366.6563,390.1929 Q1367.3281,390.3648 1368.0156,390.7085 L1367.2031,392.7242 Q1366.5781,392.4117 1366.0313,392.2867 Q1365.5,392.1617 1365.0156,392.1617 Q1363.8438,392.1617 1363.1406,392.6929 Q1362.4375,393.2242 1362.1406,394.1773 Q1361.8438,395.1304 1361.8438,396.396 Q1361.8438,398.4117 1362.5625,399.3804 Q1363.2813,400.3335 1364.875,400.3335 Q1365.4688,400.3335 1366.0938,400.1773 Q1366.7188,400.021 1367.5469,399.646 L1367.5469,401.8648 Q1366.8125,402.1773 1366.0156,402.3335 Q1365.2344,402.4898 1364.4688,402.4898 Z " fill="#000000"/><text fill="#000000" font-family="sans-serif" font-size="14" lengthAdjust="spacing" textLength="54.4598" x="1379" y="400.9999">Building</text><line style="stroke:#181818;stroke-width:0.5;" x1="1351" x2="1435.4598" y1="411.5679" y2="411.5679"/><text fill="#000000" font-family="sans-serif" font-size="14" lengthAdjust="spacing" textLength="41.9998" x="1356" y="430.5339">-name</text><text fill="#000000" font-family="sans-serif" font-size="14" lengthAdjust="spacing" textLength="33.2079" x="1356" y="449.6018">-type</text><line style="stroke:#181818;stroke-width:0.5;" x1="1351" x2="1435.4598" y1="457.7038" y2="457.7038"/></g><!--reverse link ApplicationSession to UserSession--><g id="link_ApplicationSession_UserSession"><path codeLine="73" d="M648.24,99.5679 C695.64,99.5679 749.97,99.5679 795.88,99.5679 " fill="none" id="ApplicationSession-backto-UserSession" style="stroke:#181818;stroke-width:1.0;stroke-dasharray:7.0,7.0;"/><polygon fill="#181818" points="642.24,99.5679,651.24,103.5679,647.24,99.5679,651.24,95.5679,642.24,99.5679" style="stroke:#181818;stroke-width:1.0;"/></g><!--reverse link ListStationUI to ListStationController--><g id="link_ListStationUI_ListStationController"><path codeLine="74" d="M171.26,306.5679 C190.63,306.5679 205.65,306.5679 225.87,306.5679 " fill="none" id="ListStationUI-backto-ListStationController" style="stroke:#181818;stroke-width:1.0;stroke-dasharray:7.0,7.0;"/><polygon fill="#181818" points="165.26,306.5679,174.26,310.5679,170.26,306.5679,174.26,302.5679,165.26,306.5679" style="stroke:#181818;stroke-width:1.0;"/></g><!--reverse link ListStationController to ApplicationSession--><g id="link_ListStationController_ApplicationSession"><path codeLine="75" d="M391.495,250.1164 C427.075,218.9764 467.53,183.5679 503.17,152.3779 " fill="none" id="ListStationController-backto-ApplicationSession" style="stroke:#181818;stroke-width:1.0;stroke-dasharray:7.0,7.0;"/><polygon fill="#181818" points="386.98,254.0679,396.3869,251.1506,390.7425,250.7749,391.1181,245.1306,386.98,254.0679" style="stroke:#181818;stroke-width:1.0;"/></g><!--link ListStationController to MapRepository--><g id="link_ListStationController_MapRepository"><path codeLine="77" d="M426.3,302.3179 C535.15,297.6679 700.6555,290.5943 793.7055,286.6143 " fill="none" id="ListStationController-to-MapRepository" style="stroke:#181818;stroke-width:1.0;stroke-dasharray:7.0,7.0;"/><polygon fill="#181818" points="799.7,286.3579,790.5373,282.7462,794.7046,286.5716,790.8792,290.7389,799.7,286.3579" style="stroke:#181818;stroke-width:1.0;"/></g><!--link ListStationController to Repositories--><g id="link_ListStationController_Repositories"><path codeLine="79" d="M426.27,274.6679 C451.3,266.6279 471.7776,260.0433 494.4976,252.7433 " fill="none" id="ListStationController-to-Repositories" style="stroke:#181818;stroke-width:1.0;stroke-dasharray:7.0,7.0;"/><polygon fill="#181818" points="500.21,250.9079,490.4178,249.8528,495.4497,252.4374,492.865,257.4693,500.21,250.9079" style="stroke:#181818;stroke-width:1.0;"/></g><!--link ListStationController to Map--><g id="link_ListStationController_Map"><path codeLine="80" d="M426.27,355.2579 C459.51,371.5679 489.4336,386.2346 515.9036,399.2246 " fill="none" id="ListStationController-to-Map" style="stroke:#181818;stroke-width:1.0;stroke-dasharray:7.0,7.0;"/><polygon fill="#181818" points="521.29,401.8679,514.9727,394.312,516.8014,399.6651,511.4482,401.4938,521.29,401.8679" style="stroke:#181818;stroke-width:1.0;"/></g><!--link Repositories to MapRepository--><g id="link_Repositories_MapRepository"><path codeLine="81" d="M628.65,241.7479 C678.94,250.6379 743.1618,262.0024 793.9618,270.9924 " fill="none" id="Repositories-to-MapRepository" style="stroke:#181818;stroke-width:1.0;"/><polygon fill="#181818" points="799.87,272.0379,791.7047,266.5308,794.9465,271.1666,790.3107,274.4084,799.87,272.0379" style="stroke:#181818;stroke-width:1.0;"/><text fill="#000000" font-family="sans-serif" font-size="13" lengthAdjust="spacing" textLength="92.8591" x="673" y="247.4649">mapRepository</text><text fill="#000000" font-family="sans-serif" font-size="13" lengthAdjust="spacing" textLength="7.436" x="784.4342" y="285.6004">1</text></g><!--link Map to City--><g id="link_Map_City"><path codeLine="82" d="M607.78,422.5679 C662.12,422.5679 750.36,422.5679 808.44,422.5679 " fill="none" id="Map-to-City" style="stroke:#181818;stroke-width:1.0;"/><polygon fill="#181818" points="814.44,422.5679,805.44,418.5679,809.44,422.5679,805.44,426.5679,814.44,422.5679" style="stroke:#181818;stroke-width:1.0;"/><text fill="#000000" font-family="sans-serif" font-size="13" lengthAdjust="spacing" textLength="7.436" x="615.2946" y="437.8651">1</text><text fill="#000000" font-family="sans-serif" font-size="13" lengthAdjust="spacing" textLength="7.163" x="799.3609" y="437.7552">*</text></g><!--reverse link City to Station--><g id="link_City_Station"><path codeLine="83" d="M923.59,422.5679 C957.83,422.5679 997.79,422.5679 1036.95,422.5679 " fill="none" id="City-backto-Station" style="stroke:#181818;stroke-width:1.0;"/><polygon fill="#181818" points="917.59,422.5679,926.59,426.5679,922.59,422.5679,926.59,418.5679,917.59,422.5679" style="stroke:#181818;stroke-width:1.0;"/><text fill="#000000" font-family="sans-serif" font-size="13" lengthAdjust="spacing" textLength="39.091" x="967" y="418.4649">serves</text><text fill="#000000" font-family="sans-serif" font-size="13" lengthAdjust="spacing" textLength="7.163" x="925.6892" y="437.7552">*</text><text fill="#000000" font-family="sans-serif" font-size="13" lengthAdjust="spacing" textLength="7.436" x="1021.6309" y="437.3555">1</text></g><!--link Station to Building--><g id="link_Station_Building"><path codeLine="84" d="M1199.06,422.5679 C1248.47,422.5679 1303.84,422.5679 1343.92,422.5679 " fill="none" id="Station-to-Building" style="stroke:#181818;stroke-width:1.0;"/><polygon fill="#181818" points="1349.92,422.5679,1340.92,418.5679,1344.92,422.5679,1340.92,426.5679,1349.92,422.5679" style="stroke:#181818;stroke-width:1.0;"/><text fill="#000000" font-family="sans-serif" font-size="13" lengthAdjust="spacing" textLength="89.6871" x="1230" y="418.4649">upgraded with</text><text fill="#000000" font-family="sans-serif" font-size="13" lengthAdjust="spacing" textLength="7.436" x="1207.3876" y="437.3555">1</text><text fill="#000000" font-family="sans-serif" font-size="13" lengthAdjust="spacing" textLength="7.163" x="1334.8886" y="437.9749">*</text></g><!--SRC=[VLHDRzim3BthLn2vh5lWe3iD28e2cRE3WVOo8pz0iHb7g28Pajp0BVBVHod-a1El5njyVEIZnITBF3Xm6eoeZWvAOR1mGYl6x9jGDJVy13KltdY5kMibWizpLKcC2FR8ItqMge83bpREIA7GjJL2hMNhWoXNI6xjnZaZzet3hD0g5ny8ZumvuKWfzNdO2buHUmsx_F4N9F0Yh8FSSJ-aPImq2M27xJBuP01BEKBsuRj7x56VD-zSIBwN-Chh2Ew8liqTk4L7DPvycP5BjN96Iubcb9qHgN0SviJhhBn1Un5x3Nr-KDlKjHH5m7Eqbbv12kWmxbD1Zbh3PsXLN814CaM1Ad184fOsng1oOzcbazjPDB7ESYJ_AONJ9Zw9lrXhwq61Tc1Fv9RqkGEhZMjVuyHGl95oFBQ3K2L53wASrWLselW9ix8VKJYQ8UvFI3iIRxSG4JjimaqiJKMcJpcvdnfvQDy8MPBBSwcTlMwWuARIMpnnLKP0tj1UsavnzCyr_jrr6P5hFPQfhntz4fhqs31iNpwTrjynps7i6-r4ThTZnZbFgrMyOJQzEJuxQsusRtdFlnTX_s6lLi_JfNz5Z9trTJysCM6IFCFYv-B6NMkOs91v3n6Bo8iVY-0KvXy-U4eINz-ROWrqMkyqGm_uP10Xxh2CDJGr_QPeYN0MxiZ-0G00]--></g></svg>