<svg xmlns="http://www.w3.org/2000/svg" xmlns:xlink="http://www.w3.org/1999/xlink" contentStyleType="text/css" height="705px" preserveAspectRatio="none" style="width:883px;height:705px;background:#FFFFFF;" version="1.1" viewBox="0 0 883 705" width="883px" zoomAndPan="magnify"><title>System Sequence Diagram: US07 - List all stations from a selected map</title><defs/><g><text fill="#000000" font-family="sans-serif" font-size="14" font-weight="bold" lengthAdjust="spacing" textLength="490.8522" x="195.3031" y="29.9659">System Sequence Diagram: US07 - List all stations from a selected map</text><rect fill="#FFFFFF" height="469.5902" style="stroke:#181818;stroke-width:1.0;" width="10" x="23.3769" y="134.1358"/><rect fill="#FFFFFF" height="445.8842" style="stroke:#181818;stroke-width:1.0;" width="10" x="175.14" y="157.8419"/><rect fill="#FFFFFF" height="382.4722" style="stroke:#181818;stroke-width:1.0;" width="10" x="387.7952" y="189.5479"/><rect fill="#FFFFFF" height="31.706" style="stroke:#181818;stroke-width:1.0;" width="10" x="528.8903" y="221.2539"/><rect fill="#FFFFFF" height="31.706" style="stroke:#181818;stroke-width:1.0;" width="10" x="528.8903" y="284.6659"/><rect fill="#FFFFFF" height="31.706" style="stroke:#181818;stroke-width:1.0;" width="10" x="643.456" y="348.0779"/><rect fill="#FFFFFF" height="31.706" style="stroke:#181818;stroke-width:1.0;" width="10" x="731.8417" y="411.49"/><rect fill="#FFFFFF" height="31.706" style="stroke:#181818;stroke-width:1.0;" width="10" x="782.7496" y="501.608"/><rect fill="none" height="83.118" style="stroke:#000000;stroke-width:1.5;" width="508.9151" x="308.1614" y="458.196"/><line style="stroke:#181818;stroke-width:0.5;stroke-dasharray:5.0,5.0;" x1="28" x2="28" y1="124.1358" y2="621.7261"/><line style="stroke:#181818;stroke-width:0.5;stroke-dasharray:5.0,5.0;" x1="180.1052" x2="180.1052" y1="124.1358" y2="621.7261"/><line style="stroke:#181818;stroke-width:0.5;stroke-dasharray:5.0,5.0;" x1="392.1614" x2="392.1614" y1="124.1358" y2="621.7261"/><line style="stroke:#181818;stroke-width:0.5;stroke-dasharray:5.0,5.0;" x1="533.1294" x2="533.1294" y1="124.1358" y2="621.7261"/><line style="stroke:#181818;stroke-width:0.5;stroke-dasharray:5.0,5.0;" x1="647.6511" x2="647.6511" y1="124.1358" y2="621.7261"/><line style="stroke:#181818;stroke-width:0.5;stroke-dasharray:5.0,5.0;" x1="736.2608" x2="736.2608" y1="124.1358" y2="621.7261"/><line style="stroke:#181818;stroke-width:0.5;stroke-dasharray:5.0,5.0;" x1="787.4227" x2="787.4227" y1="124.1358" y2="621.7261"/><line style="stroke:#181818;stroke-width:0.5;stroke-dasharray:5.0,5.0;" x1="847.0766" x2="847.0766" y1="124.1358" y2="621.7261"/><text fill="#000000" font-family="sans-serif" font-size="14" lengthAdjust="spacing" textLength="40.7538" x="5" y="120.0339">Player</text><ellipse cx="28.3769" cy="53.5679" fill="#E3E3E3" rx="8" ry="8" style="stroke:#181818;stroke-width:0.5;"/><path d="M28.3769,61.5679 L28.3769,88.5679 M15.3769,69.5679 L41.3769,69.5679 M28.3769,88.5679 L15.3769,103.5679 M28.3769,88.5679 L41.3769,103.5679 " fill="none" style="stroke:#181818;stroke-width:0.5;"/><text fill="#000000" font-family="sans-serif" font-size="14" lengthAdjust="spacing" textLength="40.7538" x="5" y="635.692">Player</text><ellipse cx="28.3769" cy="648.294" fill="#E3E3E3" rx="8" ry="8" style="stroke:#181818;stroke-width:0.5;"/><path d="M28.3769,656.294 L28.3769,683.294 M15.3769,664.294 L41.3769,664.294 M28.3769,683.294 L15.3769,698.294 M28.3769,683.294 L41.3769,698.294 " fill="none" style="stroke:#181818;stroke-width:0.5;"/><rect fill="#E3E3E3" height="33.0679" rx="2.5" ry="2.5" style="stroke:#181818;stroke-width:0.5;" width="98.0697" x="131.1052" y="90.0679"/><text fill="#000000" font-family="sans-serif" font-size="14" lengthAdjust="spacing" textLength="84.0697" x="138.1052" y="112.0339">ListStationUI</text><rect fill="#E3E3E3" height="33.0679" rx="2.5" ry="2.5" style="stroke:#181818;stroke-width:0.5;" width="98.0697" x="131.1052" y="620.7261"/><text fill="#000000" font-family="sans-serif" font-size="14" lengthAdjust="spacing" textLength="84.0697" x="138.1052" y="642.692">ListStationUI</text><rect fill="#E3E3E3" height="33.0679" rx="2.5" ry="2.5" style="stroke:#181818;stroke-width:0.5;" width="149.2675" x="318.1614" y="90.0679"/><text fill="#000000" font-family="sans-serif" font-size="14" lengthAdjust="spacing" textLength="135.2675" x="325.1614" y="112.0339">ListStationController</text><rect fill="#E3E3E3" height="33.0679" rx="2.5" ry="2.5" style="stroke:#181818;stroke-width:0.5;" width="149.2675" x="318.1614" y="620.7261"/><text fill="#000000" font-family="sans-serif" font-size="14" lengthAdjust="spacing" textLength="135.2675" x="325.1614" y="642.692">ListStationController</text><rect fill="#E3E3E3" height="33.0679" rx="2.5" ry="2.5" style="stroke:#181818;stroke-width:0.5;" width="95.5217" x="486.1294" y="90.0679"/><text fill="#000000" font-family="sans-serif" font-size="14" lengthAdjust="spacing" textLength="81.5217" x="493.1294" y="112.0339">Repositories</text><rect fill="#E3E3E3" height="33.0679" rx="2.5" ry="2.5" style="stroke:#181818;stroke-width:0.5;" width="95.5217" x="486.1294" y="620.7261"/><text fill="#000000" font-family="sans-serif" font-size="14" lengthAdjust="spacing" textLength="81.5217" x="493.1294" y="642.692">Repositories</text><rect fill="#E3E3E3" height="33.0679" rx="2.5" ry="2.5" style="stroke:#181818;stroke-width:0.5;" width="113.6096" x="591.6511" y="90.0679"/><text fill="#000000" font-family="sans-serif" font-size="14" lengthAdjust="spacing" textLength="99.6096" x="598.6511" y="112.0339">MapRepository</text><rect fill="#E3E3E3" height="33.0679" rx="2.5" ry="2.5" style="stroke:#181818;stroke-width:0.5;" width="113.6096" x="591.6511" y="620.7261"/><text fill="#000000" font-family="sans-serif" font-size="14" lengthAdjust="spacing" textLength="99.6096" x="598.6511" y="642.692">MapRepository</text><rect fill="#E3E3E3" height="33.0679" rx="2.5" ry="2.5" style="stroke:#181818;stroke-width:0.5;" width="43.1619" x="715.2608" y="90.0679"/><text fill="#000000" font-family="sans-serif" font-size="14" lengthAdjust="spacing" textLength="29.1619" x="722.2608" y="112.0339">Map</text><rect fill="#E3E3E3" height="33.0679" rx="2.5" ry="2.5" style="stroke:#181818;stroke-width:0.5;" width="43.1619" x="715.2608" y="620.7261"/><text fill="#000000" font-family="sans-serif" font-size="14" lengthAdjust="spacing" textLength="29.1619" x="722.2608" y="642.692">Map</text><rect fill="#E3E3E3" height="33.0679" rx="2.5" ry="2.5" style="stroke:#181818;stroke-width:0.5;" width="38.6539" x="768.4227" y="90.0679"/><text fill="#000000" font-family="sans-serif" font-size="14" lengthAdjust="spacing" textLength="24.6539" x="775.4227" y="112.0339">City</text><rect fill="#E3E3E3" height="33.0679" rx="2.5" ry="2.5" style="stroke:#181818;stroke-width:0.5;" width="38.6539" x="768.4227" y="620.7261"/><text fill="#000000" font-family="sans-serif" font-size="14" lengthAdjust="spacing" textLength="24.6539" x="775.4227" y="642.692">City</text><rect fill="#E3E3E3" height="33.0679" rx="2.5" ry="2.5" style="stroke:#181818;stroke-width:0.5;" width="60.3818" x="817.0766" y="90.0679"/><text fill="#000000" font-family="sans-serif" font-size="14" lengthAdjust="spacing" textLength="46.3818" x="824.0766" y="112.0339">Station</text><rect fill="#E3E3E3" height="33.0679" rx="2.5" ry="2.5" style="stroke:#181818;stroke-width:0.5;" width="60.3818" x="817.0766" y="620.7261"/><text fill="#000000" font-family="sans-serif" font-size="14" lengthAdjust="spacing" textLength="46.3818" x="824.0766" y="642.692">Station</text><rect fill="#FFFFFF" height="469.5902" style="stroke:#181818;stroke-width:1.0;" width="10" x="23.3769" y="134.1358"/><rect fill="#FFFFFF" height="445.8842" style="stroke:#181818;stroke-width:1.0;" width="10" x="175.14" y="157.8419"/><rect fill="#FFFFFF" height="382.4722" style="stroke:#181818;stroke-width:1.0;" width="10" x="387.7952" y="189.5479"/><rect fill="#FFFFFF" height="31.706" style="stroke:#181818;stroke-width:1.0;" width="10" x="528.8903" y="221.2539"/><rect fill="#FFFFFF" height="31.706" style="stroke:#181818;stroke-width:1.0;" width="10" x="528.8903" y="284.6659"/><rect fill="#FFFFFF" height="31.706" style="stroke:#181818;stroke-width:1.0;" width="10" x="643.456" y="348.0779"/><rect fill="#FFFFFF" height="31.706" style="stroke:#181818;stroke-width:1.0;" width="10" x="731.8417" y="411.49"/><rect fill="#FFFFFF" height="31.706" style="stroke:#181818;stroke-width:1.0;" width="10" x="782.7496" y="501.608"/><polygon fill="#181818" points="163.14,153.8419,173.14,157.8419,163.14,161.8419,167.14,157.8419" style="stroke:#181818;stroke-width:1.0;"/><line style="stroke:#181818;stroke-width:1.0;" x1="33.3769" x2="169.14" y1="157.8419" y2="157.8419"/><text fill="#000000" font-family="sans-serif" font-size="13" font-weight="bold" lengthAdjust="spacing" textLength="7.436" x="40.3769" y="152.0328">1</text><text fill="#000000" font-family="sans-serif" font-size="13" lengthAdjust="spacing" textLength="72.2281" x="51.8129" y="152.0328">selects map</text><polygon fill="#181818" points="375.7952,185.5479,385.7952,189.5479,375.7952,193.5479,379.7952,189.5479" style="stroke:#181818;stroke-width:1.0;"/><line style="stroke:#181818;stroke-width:1.0;" x1="185.14" x2="381.7952" y1="189.5479" y2="189.5479"/><text fill="#000000" font-family="sans-serif" font-size="13" font-weight="bold" lengthAdjust="spacing" textLength="7.436" x="192.14" y="183.7389">2</text><text fill="#000000" font-family="sans-serif" font-size="13" lengthAdjust="spacing" textLength="104.5591" x="203.576" y="183.7389">getStations(map)</text><polygon fill="#181818" points="516.8903,217.2539,526.8903,221.2539,516.8903,225.2539,520.8903,221.2539" style="stroke:#181818;stroke-width:1.0;"/><line style="stroke:#181818;stroke-width:1.0;" x1="397.7952" x2="522.8903" y1="221.2539" y2="221.2539"/><text fill="#000000" font-family="sans-serif" font-size="13" font-weight="bold" lengthAdjust="spacing" textLength="7.436" x="404.7952" y="215.4449">3</text><text fill="#000000" font-family="sans-serif" font-size="13" lengthAdjust="spacing" textLength="80.0801" x="416.2312" y="215.4449">getInstance()</text><polygon fill="#181818" points="408.7952,248.9599,398.7952,252.9599,408.7952,256.9599,404.7952,252.9599" style="stroke:#181818;stroke-width:1.0;"/><line style="stroke:#181818;stroke-width:1.0;stroke-dasharray:2.0,2.0;" x1="402.7952" x2="532.8903" y1="252.9599" y2="252.9599"/><text fill="#000000" font-family="sans-serif" font-size="13" font-weight="bold" lengthAdjust="spacing" textLength="7.436" x="414.7952" y="247.1509">4</text><text fill="#000000" font-family="sans-serif" font-size="13" lengthAdjust="spacing" textLength="72.9821" x="426.2312" y="247.1509">repositories</text><polygon fill="#181818" points="516.8903,280.6659,526.8903,284.6659,516.8903,288.6659,520.8903,284.6659" style="stroke:#181818;stroke-width:1.0;"/><line style="stroke:#181818;stroke-width:1.0;" x1="397.7952" x2="522.8903" y1="284.6659" y2="284.6659"/><text fill="#000000" font-family="sans-serif" font-size="13" font-weight="bold" lengthAdjust="spacing" textLength="7.436" x="404.7952" y="278.8569">5</text><text fill="#000000" font-family="sans-serif" font-size="13" lengthAdjust="spacing" textLength="100.6591" x="416.2312" y="278.8569">mapRepository()</text><polygon fill="#181818" points="408.7952,312.3719,398.7952,316.3719,408.7952,320.3719,404.7952,316.3719" style="stroke:#181818;stroke-width:1.0;"/><line style="stroke:#181818;stroke-width:1.0;stroke-dasharray:2.0,2.0;" x1="402.7952" x2="532.8903" y1="316.3719" y2="316.3719"/><text fill="#000000" font-family="sans-serif" font-size="13" font-weight="bold" lengthAdjust="spacing" textLength="7.436" x="414.7952" y="310.5629">6</text><text fill="#000000" font-family="sans-serif" font-size="13" lengthAdjust="spacing" textLength="92.8591" x="426.2312" y="310.5629">mapRepository</text><polygon fill="#181818" points="631.456,344.0779,641.456,348.0779,631.456,352.0779,635.456,348.0779" style="stroke:#181818;stroke-width:1.0;"/><line style="stroke:#181818;stroke-width:1.0;" x1="397.7952" x2="637.456" y1="348.0779" y2="348.0779"/><text fill="#000000" font-family="sans-serif" font-size="13" font-weight="bold" lengthAdjust="spacing" textLength="7.436" x="404.7952" y="342.2689">7</text><text fill="#000000" font-family="sans-serif" font-size="13" lengthAdjust="spacing" textLength="86.1771" x="416.2312" y="342.2689">findMap(map)</text><polygon fill="#181818" points="408.7952,375.784,398.7952,379.784,408.7952,383.784,404.7952,379.784" style="stroke:#181818;stroke-width:1.0;"/><line style="stroke:#181818;stroke-width:1.0;stroke-dasharray:2.0,2.0;" x1="402.7952" x2="647.456" y1="379.784" y2="379.784"/><text fill="#000000" font-family="sans-serif" font-size="13" font-weight="bold" lengthAdjust="spacing" textLength="7.436" x="414.7952" y="373.975">8</text><text fill="#000000" font-family="sans-serif" font-size="13" lengthAdjust="spacing" textLength="27.079" x="426.2312" y="373.975">Map</text><polygon fill="#181818" points="719.8417,407.49,729.8417,411.49,719.8417,415.49,723.8417,411.49" style="stroke:#181818;stroke-width:1.0;"/><line style="stroke:#181818;stroke-width:1.0;" x1="397.7952" x2="725.8417" y1="411.49" y2="411.49"/><text fill="#000000" font-family="sans-serif" font-size="13" font-weight="bold" lengthAdjust="spacing" textLength="7.436" x="404.7952" y="405.681">9</text><text fill="#000000" font-family="sans-serif" font-size="13" lengthAdjust="spacing" textLength="60.9961" x="416.2312" y="405.681">getCities()</text><polygon fill="#181818" points="408.7952,439.196,398.7952,443.196,408.7952,447.196,404.7952,443.196" style="stroke:#181818;stroke-width:1.0;"/><line style="stroke:#181818;stroke-width:1.0;stroke-dasharray:2.0,2.0;" x1="402.7952" x2="735.8417" y1="443.196" y2="443.196"/><text fill="#000000" font-family="sans-serif" font-size="13" font-weight="bold" lengthAdjust="spacing" textLength="14.872" x="414.7952" y="437.387">10</text><text fill="#000000" font-family="sans-serif" font-size="13" lengthAdjust="spacing" textLength="67.9251" x="433.6672" y="437.387">list of cities</text><path d="M308.1614,458.196 L381.5014,458.196 L381.5014,467.902 L371.5014,477.902 L308.1614,477.902 L308.1614,458.196 " fill="#EEEEEE" style="stroke:#000000;stroke-width:1.5;"/><rect fill="none" height="83.118" style="stroke:#000000;stroke-width:1.5;" width="508.9151" x="308.1614" y="458.196"/><text fill="#000000" font-family="sans-serif" font-size="13" font-weight="bold" lengthAdjust="spacing" textLength="28.34" x="323.1614" y="473.093">loop</text><text fill="#000000" font-family="sans-serif" font-size="11" font-weight="bold" lengthAdjust="spacing" textLength="75.0525" x="396.5014" y="471.9549">[for each city]</text><polygon fill="#181818" points="770.7496,497.608,780.7496,501.608,770.7496,505.608,774.7496,501.608" style="stroke:#181818;stroke-width:1.0;"/><line style="stroke:#181818;stroke-width:1.0;" x1="397.7952" x2="776.7496" y1="501.608" y2="501.608"/><text fill="#000000" font-family="sans-serif" font-size="13" font-weight="bold" lengthAdjust="spacing" textLength="14.872" x="404.7952" y="495.799">11</text><text fill="#000000" font-family="sans-serif" font-size="13" lengthAdjust="spacing" textLength="77.1161" x="423.6672" y="495.799">getStations()</text><polygon fill="#181818" points="408.7952,529.314,398.7952,533.314,408.7952,537.314,404.7952,533.314" style="stroke:#181818;stroke-width:1.0;"/><line style="stroke:#181818;stroke-width:1.0;stroke-dasharray:2.0,2.0;" x1="402.7952" x2="786.7496" y1="533.314" y2="533.314"/><text fill="#000000" font-family="sans-serif" font-size="13" font-weight="bold" lengthAdjust="spacing" textLength="14.872" x="414.7952" y="527.505">12</text><text fill="#000000" font-family="sans-serif" font-size="13" lengthAdjust="spacing" textLength="85.1111" x="433.6672" y="527.505">list of stations</text><polygon fill="#181818" points="196.14,568.0201,186.14,572.0201,196.14,576.0201,192.14,572.0201" style="stroke:#181818;stroke-width:1.0;"/><line style="stroke:#181818;stroke-width:1.0;stroke-dasharray:2.0,2.0;" x1="190.14" x2="391.7952" y1="572.0201" y2="572.0201"/><text fill="#000000" font-family="sans-serif" font-size="13" font-weight="bold" lengthAdjust="spacing" textLength="14.872" x="202.14" y="566.2111">13</text><text fill="#000000" font-family="sans-serif" font-size="13" lengthAdjust="spacing" textLength="159.7831" x="221.012" y="566.2111">aggregated list of stations</text><polygon fill="#181818" points="39.3769,599.7261,29.3769,603.7261,39.3769,607.7261,35.3769,603.7261" style="stroke:#181818;stroke-width:1.0;"/><line style="stroke:#181818;stroke-width:1.0;" x1="33.3769" x2="179.14" y1="603.7261" y2="603.7261"/><text fill="#000000" font-family="sans-serif" font-size="13" font-weight="bold" lengthAdjust="spacing" textLength="14.872" x="45.3769" y="597.9171">14</text><text fill="#000000" font-family="sans-serif" font-size="13" lengthAdjust="spacing" textLength="98.8911" x="64.2489" y="597.9171">show station list</text><!--SRC=[fPJ1ReCm38RlUGeVsqEbtIRri4jtgRH9qr0Vm0CJeeQ49M4LRpy3RPTGYgRjX8ZzV_uJn_57PHfqM4DjZSqhPsk2u5eI_XffC3-Yf2nqci1H7j187IVu2WjxKaP2YTgJm3POqzOVv8G8Ah0gwtoW6ZBwRCda1CyA9IktSCWU7c43Bye7GAt11mpA6WybEm44JveBKW4rDa9W7go3DuqTexbsKBbgq8H1dutIm_vUP6TDS5RhYVQT6kiLWnNv9F2ApJNMJIF9_qw5DE5SSN2ilZ3GnVJuWSrJQXcsvvtwOQDNLRglL98oVZR7B4cNPRzYtdeM61s7c0TnXVXmHl3US8-uXwk8cXnX8jaik7Ingg1vsg-jrN6t_cykmVt1NN9vc5SgK_3Qf1tf5KirI-xw2nXvIZ6BfiOcyeLb-wlKILz_iQhkfzIMa0_gYG4XjBKDb3oWl5xrIPq0kEkbdvd9LLrp_XMv6_L3sczCNLuEraJ61WgPukwXp4mYIkb8Ol_gtC0ZzFmetSpeUU9vm2jxke06y1qO3teKEByRtm00]--></g></svg>