<svg xmlns="http://www.w3.org/2000/svg" xmlns:xlink="http://www.w3.org/1999/xlink" contentStyleType="text/css" height="735px" preserveAspectRatio="none" style="width:1092px;height:735px;background:#FFFFFF;" version="1.1" viewBox="0 0 1092 735" width="1092px" zoomAndPan="magnify"><title>System Sequence Diagram: US07 - Select a Map</title><defs/><g><text fill="#000000" font-family="sans-serif" font-size="14" font-weight="bold" lengthAdjust="spacing" textLength="326.7727" x="381.9601" y="29.9659">System Sequence Diagram: US07 - Select a Map</text><rect fill="#FFFFFF" height="499.2963" style="stroke:#181818;stroke-width:1.0;" width="10" x="23.3769" y="134.1358"/><rect fill="#FFFFFF" height="475.5902" style="stroke:#181818;stroke-width:1.0;" width="10" x="202.895" y="157.8419"/><rect fill="#FFFFFF" height="412.1782" style="stroke:#181818;stroke-width:1.0;" width="10" x="356.9511" y="189.5479"/><rect fill="#FFFFFF" height="31.706" style="stroke:#181818;stroke-width:1.0;" width="10" x="510.3246" y="221.2539"/><rect fill="#FFFFFF" height="31.706" style="stroke:#181818;stroke-width:1.0;" width="10" x="659.6802" y="284.6659"/><rect fill="#FFFFFF" height="31.706" style="stroke:#181818;stroke-width:1.0;" width="10" x="796.4287" y="348.0779"/><rect fill="#FFFFFF" height="31.706" style="stroke:#181818;stroke-width:1.0;" width="10" x="910.3224" y="411.49"/><rect fill="#FFFFFF" height="31.706" style="stroke:#181818;stroke-width:1.0;" width="10" x="910.3224" y="474.902"/><rect fill="#FFFFFF" height="31.706" style="stroke:#181818;stroke-width:1.0;" width="10" x="1024.8881" y="538.314"/><line style="stroke:#181818;stroke-width:0.5;stroke-dasharray:5.0,5.0;" x1="28" x2="28" y1="124.1358" y2="651.4321"/><line style="stroke:#181818;stroke-width:0.5;stroke-dasharray:5.0,5.0;" x1="207.8602" x2="207.8602" y1="124.1358" y2="651.4321"/><line style="stroke:#181818;stroke-width:0.5;stroke-dasharray:5.0,5.0;" x1="361.3174" x2="361.3174" y1="124.1358" y2="651.4321"/><line style="stroke:#181818;stroke-width:0.5;stroke-dasharray:5.0,5.0;" x1="514.5849" x2="514.5849" y1="124.1358" y2="651.4321"/><line style="stroke:#181818;stroke-width:0.5;stroke-dasharray:5.0,5.0;" x1="664.0644" x2="664.0644" y1="124.1358" y2="651.4321"/><line style="stroke:#181818;stroke-width:0.5;stroke-dasharray:5.0,5.0;" x1="801.2959" x2="801.2959" y1="124.1358" y2="651.4321"/><line style="stroke:#181818;stroke-width:0.5;stroke-dasharray:5.0,5.0;" x1="914.5616" x2="914.5616" y1="124.1358" y2="651.4321"/><line style="stroke:#181818;stroke-width:0.5;stroke-dasharray:5.0,5.0;" x1="1029.0833" x2="1029.0833" y1="124.1358" y2="651.4321"/><text fill="#000000" font-family="sans-serif" font-size="14" lengthAdjust="spacing" textLength="40.7538" x="5" y="120.0339">Player</text><ellipse cx="28.3769" cy="53.5679" fill="#E3E3E3" rx="8" ry="8" style="stroke:#181818;stroke-width:0.5;"/><path d="M28.3769,61.5679 L28.3769,88.5679 M15.3769,69.5679 L41.3769,69.5679 M28.3769,88.5679 L15.3769,103.5679 M28.3769,88.5679 L41.3769,103.5679 " fill="none" style="stroke:#181818;stroke-width:0.5;"/><text fill="#000000" font-family="sans-serif" font-size="14" lengthAdjust="spacing" textLength="40.7538" x="5" y="665.398">Player</text><ellipse cx="28.3769" cy="678" fill="#E3E3E3" rx="8" ry="8" style="stroke:#181818;stroke-width:0.5;"/><path d="M28.3769,686 L28.3769,713 M15.3769,694 L41.3769,694 M28.3769,713 L15.3769,728 M28.3769,713 L41.3769,728 " fill="none" style="stroke:#181818;stroke-width:0.5;"/><rect fill="#E3E3E3" height="33.0679" rx="2.5" ry="2.5" style="stroke:#181818;stroke-width:0.5;" width="98.0697" x="158.8602" y="90.0679"/><text fill="#000000" font-family="sans-serif" font-size="14" lengthAdjust="spacing" textLength="84.0697" x="165.8602" y="112.0339">ListStationUI</text><rect fill="#E3E3E3" height="33.0679" rx="2.5" ry="2.5" style="stroke:#181818;stroke-width:0.5;" width="98.0697" x="158.8602" y="650.4321"/><text fill="#000000" font-family="sans-serif" font-size="14" lengthAdjust="spacing" textLength="84.0697" x="165.8602" y="672.398">ListStationUI</text><rect fill="#E3E3E3" height="33.0679" rx="2.5" ry="2.5" style="stroke:#181818;stroke-width:0.5;" width="149.2675" x="287.3174" y="90.0679"/><text fill="#000000" font-family="sans-serif" font-size="14" lengthAdjust="spacing" textLength="135.2675" x="294.3174" y="112.0339">ListStationController</text><rect fill="#E3E3E3" height="33.0679" rx="2.5" ry="2.5" style="stroke:#181818;stroke-width:0.5;" width="149.2675" x="287.3174" y="650.4321"/><text fill="#000000" font-family="sans-serif" font-size="14" lengthAdjust="spacing" textLength="135.2675" x="294.3174" y="672.398">ListStationController</text><rect fill="#E3E3E3" height="33.0679" rx="2.5" ry="2.5" style="stroke:#181818;stroke-width:0.5;" width="137.4795" x="446.5849" y="90.0679"/><text fill="#000000" font-family="sans-serif" font-size="14" lengthAdjust="spacing" textLength="123.4795" x="453.5849" y="112.0339">ApplicationSession</text><rect fill="#E3E3E3" height="33.0679" rx="2.5" ry="2.5" style="stroke:#181818;stroke-width:0.5;" width="137.4795" x="446.5849" y="650.4321"/><text fill="#000000" font-family="sans-serif" font-size="14" lengthAdjust="spacing" textLength="123.4795" x="453.5849" y="672.398">ApplicationSession</text><rect fill="#E3E3E3" height="52.1358" rx="2.5" ry="2.5" style="stroke:#181818;stroke-width:0.5;" width="141.2315" x="594.0644" y="71"/><text fill="#000000" font-family="sans-serif" font-size="14" lengthAdjust="spacing" textLength="74.8017" x="627.2793" y="92.9659">appSession</text><text fill="#000000" font-family="sans-serif" font-size="14" lengthAdjust="spacing" textLength="127.2315" x="601.0644" y="112.0339">:ApplicationSession</text><rect fill="#E3E3E3" height="52.1358" rx="2.5" ry="2.5" style="stroke:#181818;stroke-width:0.5;" width="141.2315" x="594.0644" y="650.4321"/><text fill="#000000" font-family="sans-serif" font-size="14" lengthAdjust="spacing" textLength="74.8017" x="627.2793" y="672.398">appSession</text><text fill="#000000" font-family="sans-serif" font-size="14" lengthAdjust="spacing" textLength="127.2315" x="601.0644" y="691.466">:ApplicationSession</text><rect fill="#E3E3E3" height="52.1358" rx="2.5" ry="2.5" style="stroke:#181818;stroke-width:0.5;" width="112.2656" x="745.2959" y="71"/><text fill="#000000" font-family="sans-serif" font-size="14" lengthAdjust="spacing" textLength="98.2656" x="752.2959" y="92.9659">currentSession</text><text fill="#000000" font-family="sans-serif" font-size="14" lengthAdjust="spacing" textLength="84.0977" x="759.3799" y="112.0339">:UserSession</text><rect fill="#E3E3E3" height="52.1358" rx="2.5" ry="2.5" style="stroke:#181818;stroke-width:0.5;" width="112.2656" x="745.2959" y="650.4321"/><text fill="#000000" font-family="sans-serif" font-size="14" lengthAdjust="spacing" textLength="98.2656" x="752.2959" y="672.398">currentSession</text><text fill="#000000" font-family="sans-serif" font-size="14" lengthAdjust="spacing" textLength="84.0977" x="759.3799" y="691.466">:UserSession</text><rect fill="#E3E3E3" height="33.0679" rx="2.5" ry="2.5" style="stroke:#181818;stroke-width:0.5;" width="95.5217" x="867.5616" y="90.0679"/><text fill="#000000" font-family="sans-serif" font-size="14" lengthAdjust="spacing" textLength="81.5217" x="874.5616" y="112.0339">Repositories</text><rect fill="#E3E3E3" height="33.0679" rx="2.5" ry="2.5" style="stroke:#181818;stroke-width:0.5;" width="95.5217" x="867.5616" y="650.4321"/><text fill="#000000" font-family="sans-serif" font-size="14" lengthAdjust="spacing" textLength="81.5217" x="874.5616" y="672.398">Repositories</text><rect fill="#E3E3E3" height="33.0679" rx="2.5" ry="2.5" style="stroke:#181818;stroke-width:0.5;" width="113.6096" x="973.0833" y="90.0679"/><text fill="#000000" font-family="sans-serif" font-size="14" lengthAdjust="spacing" textLength="99.6096" x="980.0833" y="112.0339">MapRepository</text><rect fill="#E3E3E3" height="33.0679" rx="2.5" ry="2.5" style="stroke:#181818;stroke-width:0.5;" width="113.6096" x="973.0833" y="650.4321"/><text fill="#000000" font-family="sans-serif" font-size="14" lengthAdjust="spacing" textLength="99.6096" x="980.0833" y="672.398">MapRepository</text><rect fill="#FFFFFF" height="499.2963" style="stroke:#181818;stroke-width:1.0;" width="10" x="23.3769" y="134.1358"/><rect fill="#FFFFFF" height="475.5902" style="stroke:#181818;stroke-width:1.0;" width="10" x="202.895" y="157.8419"/><rect fill="#FFFFFF" height="412.1782" style="stroke:#181818;stroke-width:1.0;" width="10" x="356.9511" y="189.5479"/><rect fill="#FFFFFF" height="31.706" style="stroke:#181818;stroke-width:1.0;" width="10" x="510.3246" y="221.2539"/><rect fill="#FFFFFF" height="31.706" style="stroke:#181818;stroke-width:1.0;" width="10" x="659.6802" y="284.6659"/><rect fill="#FFFFFF" height="31.706" style="stroke:#181818;stroke-width:1.0;" width="10" x="796.4287" y="348.0779"/><rect fill="#FFFFFF" height="31.706" style="stroke:#181818;stroke-width:1.0;" width="10" x="910.3224" y="411.49"/><rect fill="#FFFFFF" height="31.706" style="stroke:#181818;stroke-width:1.0;" width="10" x="910.3224" y="474.902"/><rect fill="#FFFFFF" height="31.706" style="stroke:#181818;stroke-width:1.0;" width="10" x="1024.8881" y="538.314"/><polygon fill="#181818" points="190.895,153.8419,200.895,157.8419,190.895,161.8419,194.895,157.8419" style="stroke:#181818;stroke-width:1.0;"/><line style="stroke:#181818;stroke-width:1.0;" x1="33.3769" x2="196.895" y1="157.8419" y2="157.8419"/><text fill="#000000" font-family="sans-serif" font-size="13" font-weight="bold" lengthAdjust="spacing" textLength="7.436" x="40.3769" y="152.0328">1</text><text fill="#000000" font-family="sans-serif" font-size="13" lengthAdjust="spacing" textLength="74.7241" x="51.8129" y="152.0328">listStations()</text><polygon fill="#181818" points="344.9511,185.5479,354.9511,189.5479,344.9511,193.5479,348.9511,189.5479" style="stroke:#181818;stroke-width:1.0;"/><line style="stroke:#181818;stroke-width:1.0;" x1="212.895" x2="350.9511" y1="189.5479" y2="189.5479"/><text fill="#000000" font-family="sans-serif" font-size="13" font-weight="bold" lengthAdjust="spacing" textLength="7.436" x="219.895" y="183.7389">2</text><text fill="#000000" font-family="sans-serif" font-size="13" lengthAdjust="spacing" textLength="113.6201" x="231.331" y="183.7389">listAvailableMaps()</text><polygon fill="#181818" points="498.3246,217.2539,508.3246,221.2539,498.3246,225.2539,502.3246,221.2539" style="stroke:#181818;stroke-width:1.0;"/><line style="stroke:#181818;stroke-width:1.0;" x1="366.9511" x2="504.3246" y1="221.2539" y2="221.2539"/><text fill="#000000" font-family="sans-serif" font-size="13" font-weight="bold" lengthAdjust="spacing" textLength="7.436" x="373.9511" y="215.4449">3</text><text fill="#000000" font-family="sans-serif" font-size="13" lengthAdjust="spacing" textLength="80.0801" x="385.3871" y="215.4449">getInstance()</text><polygon fill="#181818" points="377.9511,248.9599,367.9511,252.9599,377.9511,256.9599,373.9511,252.9599" style="stroke:#181818;stroke-width:1.0;"/><line style="stroke:#181818;stroke-width:1.0;stroke-dasharray:2.0,2.0;" x1="371.9511" x2="514.3246" y1="252.9599" y2="252.9599"/><text fill="#000000" font-family="sans-serif" font-size="13" font-weight="bold" lengthAdjust="spacing" textLength="7.436" x="383.9511" y="247.1509">4</text><text fill="#000000" font-family="sans-serif" font-size="13" lengthAdjust="spacing" textLength="69.4591" x="395.3871" y="247.1509">appSession</text><polygon fill="#181818" points="647.6802,280.6659,657.6802,284.6659,647.6802,288.6659,651.6802,284.6659" style="stroke:#181818;stroke-width:1.0;"/><line style="stroke:#181818;stroke-width:1.0;" x1="366.9511" x2="653.6802" y1="284.6659" y2="284.6659"/><text fill="#000000" font-family="sans-serif" font-size="13" font-weight="bold" lengthAdjust="spacing" textLength="7.436" x="373.9511" y="278.8569">5</text><text fill="#000000" font-family="sans-serif" font-size="13" lengthAdjust="spacing" textLength="121.0431" x="385.3871" y="278.8569">getCurrentSession()</text><polygon fill="#181818" points="377.9511,312.3719,367.9511,316.3719,377.9511,320.3719,373.9511,316.3719" style="stroke:#181818;stroke-width:1.0;"/><line style="stroke:#181818;stroke-width:1.0;stroke-dasharray:2.0,2.0;" x1="371.9511" x2="663.6802" y1="316.3719" y2="316.3719"/><text fill="#000000" font-family="sans-serif" font-size="13" font-weight="bold" lengthAdjust="spacing" textLength="7.436" x="383.9511" y="310.5629">6</text><text fill="#000000" font-family="sans-serif" font-size="13" lengthAdjust="spacing" textLength="91.2471" x="395.3871" y="310.5629">currentSession</text><polygon fill="#181818" points="784.4287,344.0779,794.4287,348.0779,784.4287,352.0779,788.4287,348.0779" style="stroke:#181818;stroke-width:1.0;"/><line style="stroke:#181818;stroke-width:1.0;" x1="366.9511" x2="790.4287" y1="348.0779" y2="348.0779"/><text fill="#000000" font-family="sans-serif" font-size="13" font-weight="bold" lengthAdjust="spacing" textLength="7.436" x="373.9511" y="342.2689">7</text><text fill="#000000" font-family="sans-serif" font-size="13" lengthAdjust="spacing" textLength="111.3711" x="385.3871" y="342.2689">getCurrentEditor()</text><polygon fill="#181818" points="377.9511,375.784,367.9511,379.784,377.9511,383.784,373.9511,379.784" style="stroke:#181818;stroke-width:1.0;"/><line style="stroke:#181818;stroke-width:1.0;stroke-dasharray:2.0,2.0;" x1="371.9511" x2="800.4287" y1="379.784" y2="379.784"/><text fill="#000000" font-family="sans-serif" font-size="13" font-weight="bold" lengthAdjust="spacing" textLength="7.436" x="383.9511" y="373.975">8</text><text fill="#000000" font-family="sans-serif" font-size="13" lengthAdjust="spacing" textLength="81.5751" x="395.3871" y="373.975">currentEditor</text><polygon fill="#181818" points="898.3224,407.49,908.3224,411.49,898.3224,415.49,902.3224,411.49" style="stroke:#181818;stroke-width:1.0;"/><line style="stroke:#181818;stroke-width:1.0;" x1="366.9511" x2="904.3224" y1="411.49" y2="411.49"/><text fill="#000000" font-family="sans-serif" font-size="13" font-weight="bold" lengthAdjust="spacing" textLength="7.436" x="373.9511" y="405.681">9</text><text fill="#000000" font-family="sans-serif" font-size="13" lengthAdjust="spacing" textLength="80.0801" x="385.3871" y="405.681">getInstance()</text><polygon fill="#181818" points="377.9511,439.196,367.9511,443.196,377.9511,447.196,373.9511,443.196" style="stroke:#181818;stroke-width:1.0;"/><line style="stroke:#181818;stroke-width:1.0;stroke-dasharray:2.0,2.0;" x1="371.9511" x2="914.3224" y1="443.196" y2="443.196"/><text fill="#000000" font-family="sans-serif" font-size="13" font-weight="bold" lengthAdjust="spacing" textLength="14.872" x="383.9511" y="437.387">10</text><text fill="#000000" font-family="sans-serif" font-size="13" lengthAdjust="spacing" textLength="72.9821" x="402.8231" y="437.387">repositories</text><polygon fill="#181818" points="898.3224,470.902,908.3224,474.902,898.3224,478.902,902.3224,474.902" style="stroke:#181818;stroke-width:1.0;"/><line style="stroke:#181818;stroke-width:1.0;" x1="366.9511" x2="904.3224" y1="474.902" y2="474.902"/><text fill="#000000" font-family="sans-serif" font-size="13" font-weight="bold" lengthAdjust="spacing" textLength="14.872" x="373.9511" y="469.093">11</text><text fill="#000000" font-family="sans-serif" font-size="13" lengthAdjust="spacing" textLength="100.6591" x="392.8231" y="469.093">mapRepository()</text><polygon fill="#181818" points="377.9511,502.608,367.9511,506.608,377.9511,510.608,373.9511,506.608" style="stroke:#181818;stroke-width:1.0;"/><line style="stroke:#181818;stroke-width:1.0;stroke-dasharray:2.0,2.0;" x1="371.9511" x2="914.3224" y1="506.608" y2="506.608"/><text fill="#000000" font-family="sans-serif" font-size="13" font-weight="bold" lengthAdjust="spacing" textLength="14.872" x="383.9511" y="500.799">12</text><text fill="#000000" font-family="sans-serif" font-size="13" lengthAdjust="spacing" textLength="92.8591" x="402.8231" y="500.799">mapRepository</text><polygon fill="#181818" points="1012.8881,534.314,1022.8881,538.314,1012.8881,542.314,1016.8881,538.314" style="stroke:#181818;stroke-width:1.0;"/><line style="stroke:#181818;stroke-width:1.0;" x1="366.9511" x2="1018.8881" y1="538.314" y2="538.314"/><text fill="#000000" font-family="sans-serif" font-size="13" font-weight="bold" lengthAdjust="spacing" textLength="14.872" x="373.9511" y="532.505">13</text><text fill="#000000" font-family="sans-serif" font-size="13" lengthAdjust="spacing" textLength="76.1411" x="392.8231" y="532.505">getAllMaps()</text><polygon fill="#181818" points="377.9511,566.0201,367.9511,570.0201,377.9511,574.0201,373.9511,570.0201" style="stroke:#181818;stroke-width:1.0;"/><line style="stroke:#181818;stroke-width:1.0;stroke-dasharray:2.0,2.0;" x1="371.9511" x2="1028.8881" y1="570.0201" y2="570.0201"/><text fill="#000000" font-family="sans-serif" font-size="13" font-weight="bold" lengthAdjust="spacing" textLength="14.872" x="383.9511" y="564.2111">14</text><text fill="#000000" font-family="sans-serif" font-size="13" lengthAdjust="spacing" textLength="70.3951" x="402.8231" y="564.2111">list of maps</text><polygon fill="#181818" points="223.895,597.7261,213.895,601.7261,223.895,605.7261,219.895,601.7261" style="stroke:#181818;stroke-width:1.0;"/><line style="stroke:#181818;stroke-width:1.0;stroke-dasharray:2.0,2.0;" x1="217.895" x2="360.9511" y1="601.7261" y2="601.7261"/><text fill="#000000" font-family="sans-serif" font-size="13" font-weight="bold" lengthAdjust="spacing" textLength="14.872" x="229.895" y="595.9171">15</text><text fill="#000000" font-family="sans-serif" font-size="13" lengthAdjust="spacing" textLength="70.3951" x="248.767" y="595.9171">list of maps</text><polygon fill="#181818" points="39.3769,629.4321,29.3769,633.4321,39.3769,637.4321,35.3769,633.4321" style="stroke:#181818;stroke-width:1.0;"/><line style="stroke:#181818;stroke-width:1.0;" x1="33.3769" x2="206.895" y1="633.4321" y2="633.4321"/><text fill="#000000" font-family="sans-serif" font-size="13" font-weight="bold" lengthAdjust="spacing" textLength="14.872" x="45.3769" y="627.6231">16</text><text fill="#000000" font-family="sans-serif" font-size="13" lengthAdjust="spacing" textLength="126.6461" x="64.2489" y="627.6231">show available maps</text><!--SRC=[fLN1QkCm4BtxAuQUTW-1tWevB8Gqb40t6wBcjb2cojGLbIMj92VaxrTjqbhZMcbeJyACtjFJcz5pU5R6eSS66ckiVFAs8OY-fIgyLnpAPwn9nBqcy2GZcbhd6y8JRknEcHeUKGUgi8tMjCq3-QgAAYQKs8T83GZwrvAH1DSAwuGSmrfSNi4e5NJY1OJVwAeAPRGUbXhtYI4T4PLK3as4MnMYY1YLDUjvgJAr9dghTGzxCN5EA_cwHL08QRa0331PBk_5J8ZvdmNVZyuTz_qruy_1zsA-kBcTtVLfPEizcTXHhGFvd6EwNgrcYxj14IjoDgZaXgB02icdzzh-rJ6rnKXlfXqM6FtYbi4OTFSTVlpiWDnQZk8qdRz7kiaMbSO7JKbKYJDhIZNCbGx9t4pKDSMv2MdO9EMaURzomEY4ogwLrOO6cSuIrRNu86_AMbiGcSt5CDKfuNnu2kAp4yhNw4qPky1iyp96kVx-JFRHPsW-aEQI-wHbiVdOboU1FGu6EINFvwXC7MCxMrgJlyFlYsDqNr37Ok7Wt4Jh_hlauS4neqyUEzZ75vNCkbuO5TGLmcY8S3WuFeJICUN6wGTaTu1lCNIABcLRLZYcvNy0]--></g></svg>