<svg xmlns="http://www.w3.org/2000/svg" xmlns:xlink="http://www.w3.org/1999/xlink" contentStyleType="text/css" height="557.4px" preserveAspectRatio="none" style="width:884px;height:557px;background:#FFFFFF;" version="1.1" viewBox="0 0 884 557" width="884.4px" zoomAndPan="magnify"><title>Class Diagram: US07 - List Stations and View Details</title><defs/><g><text fill="#000000" font-family="sans-serif" font-size="8.4" font-weight="bold" lengthAdjust="spacing" textLength="210.9967" x="332.5644" y="15.0645">Class Diagram: US07 - List Stations and View Details</text><!--class ApplicationSession--><g id="elem_ApplicationSession"><rect codeLine="9" fill="#F1F1F1" height="62.318" id="ApplicationSession" rx="1.5" ry="1.5" style="stroke:#181818;stroke-width:0.3;" width="90.1775" x="4.2" y="314.1727"/><ellipse cx="13.2" cy="323.7727" fill="#ADD1B2" rx="6.6" ry="6.6" style="stroke:#181818;stroke-width:0.6;"/><path d="M14.8594,321.2977 Q14.9531,321.1664 15.0656,321.1008 Q15.1781,321.0352 15.3094,321.0352 Q15.5344,321.0352 15.675,321.1945 Q15.8156,321.3445 15.8156,321.7102 L15.8156,322.582 Q15.8156,322.9477 15.675,323.107 Q15.5344,323.2664 15.3094,323.2664 Q15.1031,323.2664 14.9813,323.1445 Q14.8594,323.032 14.7938,322.7227 Q14.7656,322.507 14.6531,322.3945 Q14.4562,322.1695 14.0906,322.0383 Q13.725,321.907 13.35,321.907 Q12.8906,321.907 12.5063,322.1039 Q12.1313,322.3008 11.8312,322.7508 Q11.5406,323.2008 11.5406,323.8195 L11.5406,324.4758 Q11.5406,325.2164 12.075,325.7133 Q12.6094,326.2008 13.5656,326.2008 Q14.1281,326.2008 14.5219,326.0508 Q14.7563,325.957 15.0094,325.6945 Q15.1688,325.5352 15.2531,325.4883 Q15.3469,325.4414 15.4688,325.4414 Q15.6656,325.4414 15.8156,325.6008 Q15.975,325.7508 15.975,325.957 Q15.975,326.1633 15.7687,326.407 Q15.4688,326.7539 14.9906,326.9508 Q14.3438,327.2227 13.5656,327.2227 Q12.6563,327.2227 11.9344,326.8477 Q11.3438,326.5477 10.9313,325.9102 Q10.5187,325.2633 10.5187,324.4945 L10.5187,323.8008 Q10.5187,323.0039 10.8844,322.3195 Q11.2594,321.6258 11.9156,321.2602 Q12.5719,320.8852 13.3125,320.8852 Q13.7531,320.8852 14.1375,320.9883 Q14.5313,321.082 14.8594,321.2977 Z " fill="#000000"/><text fill="#000000" font-family="sans-serif" font-size="8.4" lengthAdjust="spacing" textLength="70.9775" x="21.6" y="327.2508">ApplicationSession</text><line style="stroke:#181818;stroke-width:0.3;" x1="4.8" x2="93.7775" y1="333.3727" y2="333.3727"/><line style="stroke:#181818;stroke-width:0.3;" x1="4.8" x2="93.7775" y1="338.1727" y2="338.1727"/><text fill="#000000" font-family="sans-serif" font-size="8.4" lengthAdjust="spacing" textLength="79.3693" x="7.8" y="349.6371">-ApplicationSession()</text><text fill="#000000" font-family="sans-serif" font-size="8.4" lengthAdjust="spacing" textLength="53.9314" x="7.8" y="360.8098">+getInstance()</text><text fill="#000000" font-family="sans-serif" font-size="8.4" lengthAdjust="spacing" textLength="80.0707" x="7.8" y="371.9824">+getCurrentSession()</text></g><!--class ListStationController--><g id="elem_ListStationController"><rect codeLine="15" fill="#F1F1F1" height="73.4906" id="ListStationController" rx="1.5" ry="1.5" style="stroke:#181818;stroke-width:0.3;" width="171.7875" x="98.4" y="159.9727"/><ellipse cx="143.9253" cy="169.5727" fill="#ADD1B2" rx="6.6" ry="6.6" style="stroke:#181818;stroke-width:0.6;"/><path d="M145.5847,167.0977 Q145.6784,166.9664 145.7909,166.9008 Q145.9034,166.8352 146.0347,166.8352 Q146.2597,166.8352 146.4003,166.9945 Q146.5409,167.1445 146.5409,167.5102 L146.5409,168.382 Q146.5409,168.7477 146.4003,168.907 Q146.2597,169.0664 146.0347,169.0664 Q145.8284,169.0664 145.7065,168.9445 Q145.5847,168.832 145.519,168.5227 Q145.4909,168.307 145.3784,168.1945 Q145.1815,167.9695 144.8159,167.8383 Q144.4503,167.707 144.0753,167.707 Q143.6159,167.707 143.2315,167.9039 Q142.8565,168.1008 142.5565,168.5508 Q142.2659,169.0008 142.2659,169.6195 L142.2659,170.2758 Q142.2659,171.0164 142.8003,171.5133 Q143.3347,172.0008 144.2909,172.0008 Q144.8534,172.0008 145.2472,171.8508 Q145.4815,171.757 145.7347,171.4945 Q145.894,171.3352 145.9784,171.2883 Q146.0722,171.2414 146.194,171.2414 Q146.3909,171.2414 146.5409,171.4008 Q146.7003,171.5508 146.7003,171.757 Q146.7003,171.9633 146.494,172.207 Q146.194,172.5539 145.7159,172.7508 Q145.069,173.0227 144.2909,173.0227 Q143.3815,173.0227 142.6597,172.6477 Q142.069,172.3477 141.6565,171.7102 Q141.244,171.0633 141.244,170.2945 L141.244,169.6008 Q141.244,168.8039 141.6097,168.1195 Q141.9847,167.4258 142.6409,167.0602 Q143.2972,166.6852 144.0378,166.6852 Q144.4784,166.6852 144.8628,166.7883 Q145.2565,166.882 145.5847,167.0977 Z " fill="#000000"/><text fill="#000000" font-family="sans-serif" font-size="8.4" lengthAdjust="spacing" textLength="75.6369" x="156.2253" y="173.0508">ListStationController</text><line style="stroke:#181818;stroke-width:0.3;" x1="99" x2="269.5875" y1="179.1727" y2="179.1727"/><line style="stroke:#181818;stroke-width:0.3;" x1="99" x2="269.5875" y1="183.9727" y2="183.9727"/><text fill="#000000" font-family="sans-serif" font-size="8.4" lengthAdjust="spacing" textLength="123.0305" x="102" y="195.4371">+getAvailableMaps() : List&lt;Map&gt;</text><text fill="#000000" font-family="sans-serif" font-size="8.4" lengthAdjust="spacing" textLength="89.41" x="102" y="206.6098">+loadMap(mapId) : Map</text><text fill="#000000" font-family="sans-serif" font-size="8.4" lengthAdjust="spacing" textLength="131.9104" x="102" y="217.7824">+getStations(mapId) : List&lt;Station&gt;</text><text fill="#000000" font-family="sans-serif" font-size="8.4" lengthAdjust="spacing" textLength="164.5875" x="102" y="228.9551">+getStationDetails(stationId) : StationDetails</text></g><!--class Repositories--><g id="elem_Repositories"><rect codeLine="22" fill="#F1F1F1" height="62.318" id="Repositories" rx="1.5" ry="1.5" style="stroke:#181818;stroke-width:0.3;" width="137.683" x="115.5" y="314.1727"/><ellipse cx="158.4475" cy="323.7727" fill="#ADD1B2" rx="6.6" ry="6.6" style="stroke:#181818;stroke-width:0.6;"/><path d="M160.1068,321.2977 Q160.2006,321.1664 160.3131,321.1008 Q160.4256,321.0352 160.5568,321.0352 Q160.7818,321.0352 160.9225,321.1945 Q161.0631,321.3445 161.0631,321.7102 L161.0631,322.582 Q161.0631,322.9477 160.9225,323.107 Q160.7818,323.2664 160.5568,323.2664 Q160.3506,323.2664 160.2287,323.1445 Q160.1068,323.032 160.0412,322.7227 Q160.0131,322.507 159.9006,322.3945 Q159.7037,322.1695 159.3381,322.0383 Q158.9725,321.907 158.5975,321.907 Q158.1381,321.907 157.7537,322.1039 Q157.3787,322.3008 157.0787,322.7508 Q156.7881,323.2008 156.7881,323.8195 L156.7881,324.4758 Q156.7881,325.2164 157.3225,325.7133 Q157.8568,326.2008 158.8131,326.2008 Q159.3756,326.2008 159.7693,326.0508 Q160.0037,325.957 160.2568,325.6945 Q160.4162,325.5352 160.5006,325.4883 Q160.5943,325.4414 160.7162,325.4414 Q160.9131,325.4414 161.0631,325.6008 Q161.2225,325.7508 161.2225,325.957 Q161.2225,326.1633 161.0162,326.407 Q160.7162,326.7539 160.2381,326.9508 Q159.5912,327.2227 158.8131,327.2227 Q157.9037,327.2227 157.1818,326.8477 Q156.5912,326.5477 156.1787,325.9102 Q155.7662,325.2633 155.7662,324.4945 L155.7662,323.8008 Q155.7662,323.0039 156.1318,322.3195 Q156.5068,321.6258 157.1631,321.2602 Q157.8193,320.8852 158.56,320.8852 Q159.0006,320.8852 159.385,320.9883 Q159.7787,321.082 160.1068,321.2977 Z " fill="#000000"/><text fill="#000000" font-family="sans-serif" font-size="8.4" lengthAdjust="spacing" textLength="46.6881" x="170.7475" y="327.2508">Repositories</text><line style="stroke:#181818;stroke-width:0.3;" x1="116.1" x2="252.583" y1="333.3727" y2="333.3727"/><text fill="#000000" font-family="sans-serif" font-size="8.4" lengthAdjust="spacing" textLength="122.7803" x="119.1" y="344.8371">-mapRepository : MapRepository</text><line style="stroke:#181818;stroke-width:0.3;" x1="116.1" x2="252.583" y1="349.3453" y2="349.3453"/><text fill="#000000" font-family="sans-serif" font-size="8.4" lengthAdjust="spacing" textLength="107.6209" x="119.1" y="360.8098">+getInstance() : Repositories</text><text fill="#000000" font-family="sans-serif" font-size="8.4" lengthAdjust="spacing" textLength="130.483" x="119.1" y="371.9824">+mapRepository() : MapRepository</text></g><!--class MapRepository--><g id="elem_MapRepository"><rect codeLine="28" fill="#F1F1F1" height="51.1453" id="MapRepository" rx="1.5" ry="1.5" style="stroke:#181818;stroke-width:0.3;" width="96.1424" x="172.2" y="480.0727"/><ellipse cx="190.4032" cy="489.6727" fill="#ADD1B2" rx="6.6" ry="6.6" style="stroke:#181818;stroke-width:0.6;"/><path d="M192.0626,487.1977 Q192.1563,487.0664 192.2688,487.0008 Q192.3813,486.9352 192.5126,486.9352 Q192.7376,486.9352 192.8782,487.0945 Q193.0188,487.2445 193.0188,487.6102 L193.0188,488.482 Q193.0188,488.8477 192.8782,489.007 Q192.7376,489.1664 192.5126,489.1664 Q192.3063,489.1664 192.1845,489.0445 Q192.0626,488.932 191.997,488.6227 Q191.9688,488.407 191.8563,488.2945 Q191.6595,488.0695 191.2938,487.9383 Q190.9282,487.807 190.5532,487.807 Q190.0938,487.807 189.7095,488.0039 Q189.3345,488.2008 189.0345,488.6508 Q188.7438,489.1008 188.7438,489.7195 L188.7438,490.3758 Q188.7438,491.1164 189.2782,491.6133 Q189.8126,492.1008 190.7688,492.1008 Q191.3313,492.1008 191.7251,491.9508 Q191.9595,491.857 192.2126,491.5945 Q192.372,491.4352 192.4563,491.3883 Q192.5501,491.3414 192.672,491.3414 Q192.8688,491.3414 193.0188,491.5008 Q193.1782,491.6508 193.1782,491.857 Q193.1782,492.0633 192.972,492.307 Q192.672,492.6539 192.1938,492.8508 Q191.547,493.1227 190.7688,493.1227 Q189.8595,493.1227 189.1376,492.7477 Q188.547,492.4477 188.1345,491.8102 Q187.722,491.1633 187.722,490.3945 L187.722,489.7008 Q187.722,488.9039 188.0876,488.2195 Q188.4626,487.5258 189.1188,487.1602 Q189.7751,486.7852 190.5157,486.7852 Q190.9563,486.7852 191.3407,486.8883 Q191.7345,486.982 192.0626,487.1977 Z " fill="#000000"/><text fill="#000000" font-family="sans-serif" font-size="8.4" lengthAdjust="spacing" textLength="56.4908" x="200.8484" y="493.1508">MapRepository</text><line style="stroke:#181818;stroke-width:0.3;" x1="172.8" x2="267.7424" y1="499.2727" y2="499.2727"/><line style="stroke:#181818;stroke-width:0.3;" x1="172.8" x2="267.7424" y1="504.0727" y2="504.0727"/><text fill="#000000" font-family="sans-serif" font-size="8.4" lengthAdjust="spacing" textLength="88.9424" x="175.8" y="515.5371">+getMaps() : List&lt;Map&gt;</text><text fill="#000000" font-family="sans-serif" font-size="8.4" lengthAdjust="spacing" textLength="87.0721" x="175.8" y="526.7098">+findMap(mapId) : Map</text></g><!--class Map--><g id="elem_Map"><rect codeLine="33" fill="#F1F1F1" height="84.6633" id="Map" rx="1.5" ry="1.5" style="stroke:#181818;stroke-width:0.3;" width="112.2451" x="678.9" y="27.9727"/><ellipse cx="724.3022" cy="37.5727" fill="#ADD1B2" rx="6.6" ry="6.6" style="stroke:#181818;stroke-width:0.6;"/><path d="M725.9616,35.0977 Q726.0554,34.9664 726.1679,34.9008 Q726.2804,34.8352 726.4116,34.8352 Q726.6366,34.8352 726.7772,34.9945 Q726.9179,35.1445 726.9179,35.5102 L726.9179,36.382 Q726.9179,36.7477 726.7772,36.907 Q726.6366,37.0664 726.4116,37.0664 Q726.2054,37.0664 726.0835,36.9445 Q725.9616,36.832 725.896,36.5227 Q725.8679,36.307 725.7554,36.1945 Q725.5585,35.9695 725.1929,35.8383 Q724.8272,35.707 724.4522,35.707 Q723.9929,35.707 723.6085,35.9039 Q723.2335,36.1008 722.9335,36.5508 Q722.6429,37.0008 722.6429,37.6195 L722.6429,38.2758 Q722.6429,39.0164 723.1772,39.5133 Q723.7116,40.0008 724.6679,40.0008 Q725.2304,40.0008 725.6241,39.8508 Q725.8585,39.757 726.1116,39.4945 Q726.271,39.3352 726.3554,39.2883 Q726.4491,39.2414 726.571,39.2414 Q726.7679,39.2414 726.9179,39.4008 Q727.0772,39.5508 727.0772,39.757 Q727.0772,39.9633 726.871,40.207 Q726.571,40.5539 726.0929,40.7508 Q725.446,41.0227 724.6679,41.0227 Q723.7585,41.0227 723.0366,40.6477 Q722.446,40.3477 722.0335,39.7102 Q721.621,39.0633 721.621,38.2945 L721.621,37.6008 Q721.621,36.8039 721.9866,36.1195 Q722.3616,35.4258 723.0179,35.0602 Q723.6741,34.6852 724.4147,34.6852 Q724.8554,34.6852 725.2397,34.7883 Q725.6335,34.882 725.9616,35.0977 Z " fill="#000000"/><text fill="#000000" font-family="sans-serif" font-size="8.4" lengthAdjust="spacing" textLength="16.3406" x="736.6022" y="41.0508">Map</text><line style="stroke:#181818;stroke-width:0.3;" x1="679.5" x2="790.5451" y1="47.1727" y2="47.1727"/><text fill="#000000" font-family="sans-serif" font-size="8.4" lengthAdjust="spacing" textLength="61.1543" x="682.5" y="58.6371">-nameID : String</text><text fill="#000000" font-family="sans-serif" font-size="8.4" lengthAdjust="spacing" textLength="72.8191" x="682.5" y="69.8098">-cityList : List&lt;City&gt;</text><text fill="#000000" font-family="sans-serif" font-size="8.4" lengthAdjust="spacing" textLength="105.0451" x="682.5" y="80.9824">-industryList : List&lt;Industry&gt;</text><text fill="#000000" font-family="sans-serif" font-size="8.4" lengthAdjust="spacing" textLength="41.0771" x="682.5" y="92.1551">-size : Size</text><line style="stroke:#181818;stroke-width:0.3;" x1="679.5" x2="790.5451" y1="96.6633" y2="96.6633"/><text fill="#000000" font-family="sans-serif" font-size="8.4" lengthAdjust="spacing" textLength="87.5314" x="682.5" y="108.1277">+getCities() : List&lt;City&gt;</text></g><!--class City--><g id="elem_City"><rect codeLine="41" fill="#F1F1F1" height="73.4906" id="City" rx="1.5" ry="1.5" style="stroke:#181818;stroke-width:0.3;" width="115.7643" x="563.1" y="159.9727"/><ellipse cx="611.199" cy="169.5727" fill="#ADD1B2" rx="6.6" ry="6.6" style="stroke:#181818;stroke-width:0.6;"/><path d="M612.8584,167.0977 Q612.9521,166.9664 613.0646,166.9008 Q613.1771,166.8352 613.3084,166.8352 Q613.5334,166.8352 613.674,166.9945 Q613.8146,167.1445 613.8146,167.5102 L613.8146,168.382 Q613.8146,168.7477 613.674,168.907 Q613.5334,169.0664 613.3084,169.0664 Q613.1021,169.0664 612.9803,168.9445 Q612.8584,168.832 612.7928,168.5227 Q612.7646,168.307 612.6521,168.1945 Q612.4553,167.9695 612.0896,167.8383 Q611.724,167.707 611.349,167.707 Q610.8896,167.707 610.5053,167.9039 Q610.1303,168.1008 609.8303,168.5508 Q609.5396,169.0008 609.5396,169.6195 L609.5396,170.2758 Q609.5396,171.0164 610.074,171.5133 Q610.6084,172.0008 611.5646,172.0008 Q612.1271,172.0008 612.5209,171.8508 Q612.7553,171.757 613.0084,171.4945 Q613.1678,171.3352 613.2521,171.2883 Q613.3459,171.2414 613.4678,171.2414 Q613.6646,171.2414 613.8146,171.4008 Q613.974,171.5508 613.974,171.757 Q613.974,171.9633 613.7678,172.207 Q613.4678,172.5539 612.9896,172.7508 Q612.3428,173.0227 611.5646,173.0227 Q610.6553,173.0227 609.9334,172.6477 Q609.3428,172.3477 608.9303,171.7102 Q608.5178,171.0633 608.5178,170.2945 L608.5178,169.6008 Q608.5178,168.8039 608.8834,168.1195 Q609.2584,167.4258 609.9146,167.0602 Q610.5709,166.6852 611.3115,166.6852 Q611.7521,166.6852 612.1365,166.7883 Q612.5303,166.882 612.8584,167.0977 Z " fill="#000000"/><text fill="#000000" font-family="sans-serif" font-size="8.4" lengthAdjust="spacing" textLength="14.4662" x="623.499" y="173.0508">City</text><line style="stroke:#181818;stroke-width:0.3;" x1="563.7" x2="678.2643" y1="179.1727" y2="179.1727"/><text fill="#000000" font-family="sans-serif" font-size="8.4" lengthAdjust="spacing" textLength="52.7543" x="566.7" y="190.6371">-name : String</text><text fill="#000000" font-family="sans-serif" font-size="8.4" lengthAdjust="spacing" textLength="68.6355" x="566.7" y="201.8098">-position : Position</text><text fill="#000000" font-family="sans-serif" font-size="8.4" lengthAdjust="spacing" textLength="87.7816" x="566.7" y="212.9824">-stations : List&lt;Station&gt;</text><line style="stroke:#181818;stroke-width:0.3;" x1="563.7" x2="678.2643" y1="217.4906" y2="217.4906"/><text fill="#000000" font-family="sans-serif" font-size="8.4" lengthAdjust="spacing" textLength="108.5643" x="566.7" y="228.9551">+getStations() : List&lt;Station&gt;</text></g><!--class Size--><g id="elem_Size"><rect codeLine="48" fill="#F1F1F1" height="73.4906" id="Size" rx="1.5" ry="1.5" style="stroke:#181818;stroke-width:0.3;" width="69.5314" x="700.2" y="159.9727"/><ellipse cx="724.4959" cy="169.5727" fill="#ADD1B2" rx="6.6" ry="6.6" style="stroke:#181818;stroke-width:0.6;"/><path d="M726.1552,167.0977 Q726.249,166.9664 726.3615,166.9008 Q726.474,166.8352 726.6052,166.8352 Q726.8302,166.8352 726.9709,166.9945 Q727.1115,167.1445 727.1115,167.5102 L727.1115,168.382 Q727.1115,168.7477 726.9709,168.907 Q726.8302,169.0664 726.6052,169.0664 Q726.399,169.0664 726.2771,168.9445 Q726.1552,168.832 726.0896,168.5227 Q726.0615,168.307 725.949,168.1945 Q725.7521,167.9695 725.3865,167.8383 Q725.0209,167.707 724.6459,167.707 Q724.1865,167.707 723.8021,167.9039 Q723.4271,168.1008 723.1271,168.5508 Q722.8365,169.0008 722.8365,169.6195 L722.8365,170.2758 Q722.8365,171.0164 723.3709,171.5133 Q723.9052,172.0008 724.8615,172.0008 Q725.424,172.0008 725.8177,171.8508 Q726.0521,171.757 726.3052,171.4945 Q726.4646,171.3352 726.549,171.2883 Q726.6427,171.2414 726.7646,171.2414 Q726.9615,171.2414 727.1115,171.4008 Q727.2709,171.5508 727.2709,171.757 Q727.2709,171.9633 727.0646,172.207 Q726.7646,172.5539 726.2865,172.7508 Q725.6396,173.0227 724.8615,173.0227 Q723.9521,173.0227 723.2302,172.6477 Q722.6396,172.3477 722.2271,171.7102 Q721.8146,171.0633 721.8146,170.2945 L721.8146,169.6008 Q721.8146,168.8039 722.1802,168.1195 Q722.5552,167.4258 723.2115,167.0602 Q723.8677,166.6852 724.6084,166.6852 Q725.049,166.6852 725.4334,166.7883 Q725.8271,166.882 726.1552,167.0977 Z " fill="#000000"/><text fill="#000000" font-family="sans-serif" font-size="8.4" lengthAdjust="spacing" textLength="16.3406" x="736.295" y="173.0508">Size</text><line style="stroke:#181818;stroke-width:0.3;" x1="700.8" x2="769.1314" y1="179.1727" y2="179.1727"/><text fill="#000000" font-family="sans-serif" font-size="8.4" lengthAdjust="spacing" textLength="38.2799" x="703.8" y="190.6371">-width : int</text><text fill="#000000" font-family="sans-serif" font-size="8.4" lengthAdjust="spacing" textLength="41.557" x="703.8" y="201.8098">-height : int</text><line style="stroke:#181818;stroke-width:0.3;" x1="700.8" x2="769.1314" y1="206.318" y2="206.318"/><text fill="#000000" font-family="sans-serif" font-size="8.4" lengthAdjust="spacing" textLength="59.5219" x="703.8" y="217.7824">+getWidth() : int</text><text fill="#000000" font-family="sans-serif" font-size="8.4" lengthAdjust="spacing" textLength="62.3314" x="703.8" y="228.9551">+getHeight() : int</text></g><!--class Station--><g id="elem_Station"><rect codeLine="55" fill="#F1F1F1" height="129.3539" id="Station" rx="1.5" ry="1.5" style="stroke:#181818;stroke-width:0.3;" width="146.1117" x="547.8" y="280.5727"/><ellipse cx="605.2301" cy="290.1727" fill="#ADD1B2" rx="6.6" ry="6.6" style="stroke:#181818;stroke-width:0.6;"/><path d="M606.8895,287.6977 Q606.9832,287.5664 607.0957,287.5008 Q607.2082,287.4352 607.3395,287.4352 Q607.5645,287.4352 607.7051,287.5945 Q607.8457,287.7445 607.8457,288.1102 L607.8457,288.982 Q607.8457,289.3477 607.7051,289.507 Q607.5645,289.6664 607.3395,289.6664 Q607.1332,289.6664 607.0113,289.5445 Q606.8895,289.432 606.8238,289.1227 Q606.7957,288.907 606.6832,288.7945 Q606.4863,288.5695 606.1207,288.4383 Q605.7551,288.307 605.3801,288.307 Q604.9207,288.307 604.5363,288.5039 Q604.1613,288.7008 603.8613,289.1508 Q603.5707,289.6008 603.5707,290.2195 L603.5707,290.8758 Q603.5707,291.6164 604.1051,292.1133 Q604.6395,292.6008 605.5957,292.6008 Q606.1582,292.6008 606.552,292.4508 Q606.7863,292.357 607.0395,292.0945 Q607.1988,291.9352 607.2832,291.8883 Q607.377,291.8414 607.4988,291.8414 Q607.6957,291.8414 607.8457,292.0008 Q608.0051,292.1508 608.0051,292.357 Q608.0051,292.5633 607.7988,292.807 Q607.4988,293.1539 607.0207,293.3508 Q606.3738,293.6227 605.5957,293.6227 Q604.6863,293.6227 603.9645,293.2477 Q603.3738,292.9477 602.9613,292.3102 Q602.5488,291.6633 602.5488,290.8945 L602.5488,290.2008 Q602.5488,289.4039 602.9145,288.7195 Q603.2895,288.0258 603.9457,287.6602 Q604.602,287.2852 605.3426,287.2852 Q605.7832,287.2852 606.1676,287.3883 Q606.5613,287.482 606.8895,287.6977 Z " fill="#000000"/><text fill="#000000" font-family="sans-serif" font-size="8.4" lengthAdjust="spacing" textLength="26.1516" x="617.5301" y="293.6508">Station</text><line style="stroke:#181818;stroke-width:0.3;" x1="548.4" x2="693.3117" y1="299.7727" y2="299.7727"/><text fill="#000000" font-family="sans-serif" font-size="8.4" lengthAdjust="spacing" textLength="61.1543" x="551.4" y="311.2371">-nameID : String</text><text fill="#000000" font-family="sans-serif" font-size="8.4" lengthAdjust="spacing" textLength="79.3693" x="551.4" y="322.4098">-storageCapacity : int</text><text fill="#000000" font-family="sans-serif" font-size="8.4" lengthAdjust="spacing" textLength="66.3018" x="551.4" y="333.5824">-buildingSlots : int</text><text fill="#000000" font-family="sans-serif" font-size="8.4" lengthAdjust="spacing" textLength="111.5953" x="551.4" y="344.7551">-availableCargo : List&lt;Cargo&gt;</text><text fill="#000000" font-family="sans-serif" font-size="8.4" lengthAdjust="spacing" textLength="115.7994" x="551.4" y="355.9277">-requestedCargo : List&lt;Cargo&gt;</text><line style="stroke:#181818;stroke-width:0.3;" x1="548.4" x2="693.3117" y1="360.4359" y2="360.4359"/><text fill="#000000" font-family="sans-serif" font-size="8.4" lengthAdjust="spacing" textLength="106.6816" x="551.4" y="371.9004">+getDetails() : StationDetails</text><text fill="#000000" font-family="sans-serif" font-size="8.4" lengthAdjust="spacing" textLength="116.0373" x="551.4" y="383.073">+getBuildings() : List&lt;Building&gt;</text><text fill="#000000" font-family="sans-serif" font-size="8.4" lengthAdjust="spacing" textLength="138.9117" x="551.4" y="394.2457">+getDemandedCargo() : List&lt;Cargo&gt;</text><text fill="#000000" font-family="sans-serif" font-size="8.4" lengthAdjust="spacing" textLength="123.5021" x="551.4" y="405.4184">+getSupplyCargo() : List&lt;Cargo&gt;</text></g><!--class StationType--><g id="elem_StationType"><rect codeLine="67" fill="#F1F1F1" height="73.4906" id="StationType" rx="1.5" ry="1.5" style="stroke:#181818;stroke-width:0.3;" width="89.3748" x="314.7" y="468.9727"/><ellipse cx="335.107" cy="478.5727" fill="#ADD1B2" rx="6.6" ry="6.6" style="stroke:#181818;stroke-width:0.6;"/><path d="M336.7663,476.0977 Q336.8601,475.9664 336.9726,475.9008 Q337.0851,475.8352 337.2163,475.8352 Q337.4413,475.8352 337.582,475.9945 Q337.7226,476.1445 337.7226,476.5102 L337.7226,477.382 Q337.7226,477.7477 337.582,477.907 Q337.4413,478.0664 337.2163,478.0664 Q337.0101,478.0664 336.8882,477.9445 Q336.7663,477.832 336.7007,477.5227 Q336.6726,477.307 336.5601,477.1945 Q336.3632,476.9695 335.9976,476.8383 Q335.632,476.707 335.257,476.707 Q334.7976,476.707 334.4132,476.9039 Q334.0382,477.1008 333.7382,477.5508 Q333.4476,478.0008 333.4476,478.6195 L333.4476,479.2758 Q333.4476,480.0164 333.982,480.5133 Q334.5163,481.0008 335.4726,481.0008 Q336.0351,481.0008 336.4288,480.8508 Q336.6632,480.757 336.9163,480.4945 Q337.0757,480.3352 337.1601,480.2883 Q337.2538,480.2414 337.3757,480.2414 Q337.5726,480.2414 337.7226,480.4008 Q337.882,480.5508 337.882,480.757 Q337.882,480.9633 337.6757,481.207 Q337.3757,481.5539 336.8976,481.7508 Q336.2507,482.0227 335.4726,482.0227 Q334.5632,482.0227 333.8413,481.6477 Q333.2507,481.3477 332.8382,480.7102 Q332.4257,480.0633 332.4257,479.2945 L332.4257,478.6008 Q332.4257,477.8039 332.7913,477.1195 Q333.1663,476.4258 333.8226,476.0602 Q334.4788,475.6852 335.2195,475.6852 Q335.6601,475.6852 336.0445,475.7883 Q336.4382,475.882 336.7663,476.0977 Z " fill="#000000"/><text fill="#000000" font-family="sans-serif" font-size="8.4" lengthAdjust="spacing" textLength="44.826" x="346.0419" y="482.0508">StationType</text><line style="stroke:#181818;stroke-width:0.3;" x1="315.3" x2="403.4748" y1="488.1727" y2="488.1727"/><text fill="#000000" font-family="sans-serif" font-size="8.4" lengthAdjust="spacing" textLength="52.7543" x="318.3" y="499.6371">-name : String</text><text fill="#000000" font-family="sans-serif" font-size="8.4" lengthAdjust="spacing" textLength="80.768" x="318.3" y="510.8098">-economicRadius : int</text><text fill="#000000" font-family="sans-serif" font-size="8.4" lengthAdjust="spacing" textLength="34.0758" x="318.3" y="521.9824">-cost : int</text><text fill="#000000" font-family="sans-serif" font-size="8.4" lengthAdjust="spacing" textLength="82.1748" x="318.3" y="533.1551">-centerPoint : Position</text><line style="stroke:#181818;stroke-width:0.3;" x1="315.3" x2="403.4748" y1="537.6633" y2="537.6633"/></g><!--class Building--><g id="elem_Building"><rect codeLine="74" fill="#F1F1F1" height="95.8359" id="Building" rx="1.5" ry="1.5" style="stroke:#181818;stroke-width:0.3;" width="99.6574" x="425.4" y="457.5727"/><ellipse cx="457.7347" cy="467.1727" fill="#ADD1B2" rx="6.6" ry="6.6" style="stroke:#181818;stroke-width:0.6;"/><path d="M459.394,464.6977 Q459.4878,464.5664 459.6003,464.5008 Q459.7128,464.4352 459.844,464.4352 Q460.069,464.4352 460.2097,464.5945 Q460.3503,464.7445 460.3503,465.1102 L460.3503,465.982 Q460.3503,466.3477 460.2097,466.507 Q460.069,466.6664 459.844,466.6664 Q459.6378,466.6664 459.5159,466.5445 Q459.394,466.432 459.3284,466.1227 Q459.3003,465.907 459.1878,465.7945 Q458.9909,465.5695 458.6253,465.4383 Q458.2597,465.307 457.8847,465.307 Q457.4253,465.307 457.0409,465.5039 Q456.6659,465.7008 456.3659,466.1508 Q456.0753,466.6008 456.0753,467.2195 L456.0753,467.8758 Q456.0753,468.6164 456.6097,469.1133 Q457.144,469.6008 458.1003,469.6008 Q458.6628,469.6008 459.0565,469.4508 Q459.2909,469.357 459.544,469.0945 Q459.7034,468.9352 459.7878,468.8883 Q459.8815,468.8414 460.0034,468.8414 Q460.2003,468.8414 460.3503,469.0008 Q460.5097,469.1508 460.5097,469.357 Q460.5097,469.5633 460.3034,469.807 Q460.0034,470.1539 459.5253,470.3508 Q458.8784,470.6227 458.1003,470.6227 Q457.1909,470.6227 456.469,470.2477 Q455.8784,469.9477 455.4659,469.3102 Q455.0534,468.6633 455.0534,467.8945 L455.0534,467.2008 Q455.0534,466.4039 455.419,465.7195 Q455.794,465.0258 456.4503,464.6602 Q457.1065,464.2852 457.8472,464.2852 Q458.2878,464.2852 458.6722,464.3883 Q459.0659,464.482 459.394,464.6977 Z " fill="#000000"/><text fill="#000000" font-family="sans-serif" font-size="8.4" lengthAdjust="spacing" textLength="29.8881" x="470.0347" y="470.6508">Building</text><line style="stroke:#181818;stroke-width:0.3;" x1="426" x2="524.4574" y1="476.7727" y2="476.7727"/><text fill="#000000" font-family="sans-serif" font-size="8.4" lengthAdjust="spacing" textLength="61.1543" x="429" y="488.2371">-nameID : String</text><text fill="#000000" font-family="sans-serif" font-size="8.4" lengthAdjust="spacing" textLength="47.6191" x="429" y="499.4098">-type : String</text><text fill="#000000" font-family="sans-serif" font-size="8.4" lengthAdjust="spacing" textLength="75.1652" x="429" y="510.5824">-availabilityYear : int</text><text fill="#000000" font-family="sans-serif" font-size="8.4" lengthAdjust="spacing" textLength="69.5666" x="429" y="521.7551">-evolutionCost : int</text><text fill="#000000" font-family="sans-serif" font-size="8.4" lengthAdjust="spacing" textLength="92.4574" x="429" y="532.9277">-evolutionStagesLeft : int</text><text fill="#000000" font-family="sans-serif" font-size="8.4" lengthAdjust="spacing" textLength="52.2867" x="429" y="544.1004">-effect : String</text><line style="stroke:#181818;stroke-width:0.3;" x1="426" x2="524.4574" y1="548.6086" y2="548.6086"/></g><!--class Cargo--><g id="elem_Cargo"><rect codeLine="83" fill="#F1F1F1" height="84.6633" id="Cargo" rx="1.5" ry="1.5" style="stroke:#181818;stroke-width:0.3;" width="155.209" x="546.3" y="463.2727"/><ellipse cx="609.9152" cy="472.8727" fill="#ADD1B2" rx="6.6" ry="6.6" style="stroke:#181818;stroke-width:0.6;"/><path d="M611.5746,470.3977 Q611.6684,470.2664 611.7809,470.2008 Q611.8934,470.1352 612.0246,470.1352 Q612.2496,470.1352 612.3902,470.2945 Q612.5309,470.4445 612.5309,470.8102 L612.5309,471.682 Q612.5309,472.0477 612.3902,472.207 Q612.2496,472.3664 612.0246,472.3664 Q611.8184,472.3664 611.6965,472.2445 Q611.5746,472.132 611.509,471.8227 Q611.4809,471.607 611.3684,471.4945 Q611.1715,471.2695 610.8059,471.1383 Q610.4402,471.007 610.0652,471.007 Q609.6059,471.007 609.2215,471.2039 Q608.8465,471.4008 608.5465,471.8508 Q608.2559,472.3008 608.2559,472.9195 L608.2559,473.5758 Q608.2559,474.3164 608.7902,474.8133 Q609.3246,475.3008 610.2809,475.3008 Q610.8434,475.3008 611.2371,475.1508 Q611.4715,475.057 611.7246,474.7945 Q611.884,474.6352 611.9684,474.5883 Q612.0621,474.5414 612.184,474.5414 Q612.3809,474.5414 612.5309,474.7008 Q612.6902,474.8508 612.6902,475.057 Q612.6902,475.2633 612.484,475.507 Q612.184,475.8539 611.7059,476.0508 Q611.059,476.3227 610.2809,476.3227 Q609.3715,476.3227 608.6496,475.9477 Q608.059,475.6477 607.6465,475.0102 Q607.234,474.3633 607.234,473.5945 L607.234,472.9008 Q607.234,472.1039 607.5996,471.4195 Q607.9746,470.7258 608.6309,470.3602 Q609.2871,469.9852 610.0277,469.9852 Q610.4684,469.9852 610.8527,470.0883 Q611.2465,470.182 611.5746,470.3977 Z " fill="#000000"/><text fill="#000000" font-family="sans-serif" font-size="8.4" lengthAdjust="spacing" textLength="22.8785" x="622.2152" y="476.3508">Cargo</text><line style="stroke:#181818;stroke-width:0.3;" x1="546.9" x2="700.909" y1="482.4727" y2="482.4727"/><text fill="#000000" font-family="sans-serif" font-size="8.4" lengthAdjust="spacing" textLength="52.7543" x="549.9" y="493.9371">-name : String</text><text fill="#000000" font-family="sans-serif" font-size="8.4" lengthAdjust="spacing" textLength="46.6881" x="549.9" y="505.1098">-amount : int</text><text fill="#000000" font-family="sans-serif" font-size="8.4" lengthAdjust="spacing" textLength="47.6232" x="549.9" y="516.2824">-lifespan : int</text><text fill="#000000" font-family="sans-serif" font-size="8.4" lengthAdjust="spacing" textLength="47.6191" x="549.9" y="527.4551">-type : String</text><text fill="#000000" font-family="sans-serif" font-size="8.4" lengthAdjust="spacing" textLength="148.009" x="549.9" y="538.6277">-productionResources : List&lt;Resource&gt;</text><line style="stroke:#181818;stroke-width:0.3;" x1="546.9" x2="700.909" y1="543.1359" y2="543.1359"/></g><!--class Position--><g id="elem_Position"><rect codeLine="91" fill="#F1F1F1" height="84.6633" id="Position" rx="1.5" ry="1.5" style="stroke:#181818;stroke-width:0.3;" width="157.3254" x="723" y="463.2727"/><ellipse cx="784.1707" cy="472.8727" fill="#ADD1B2" rx="6.6" ry="6.6" style="stroke:#181818;stroke-width:0.6;"/><path d="M785.8301,470.3977 Q785.9238,470.2664 786.0363,470.2008 Q786.1488,470.1352 786.2801,470.1352 Q786.5051,470.1352 786.6457,470.2945 Q786.7863,470.4445 786.7863,470.8102 L786.7863,471.682 Q786.7863,472.0477 786.6457,472.207 Q786.5051,472.3664 786.2801,472.3664 Q786.0738,472.3664 785.952,472.2445 Q785.8301,472.132 785.7645,471.8227 Q785.7363,471.607 785.6238,471.4945 Q785.427,471.2695 785.0613,471.1383 Q784.6957,471.007 784.3207,471.007 Q783.8613,471.007 783.477,471.2039 Q783.102,471.4008 782.802,471.8508 Q782.5113,472.3008 782.5113,472.9195 L782.5113,473.5758 Q782.5113,474.3164 783.0457,474.8133 Q783.5801,475.3008 784.5363,475.3008 Q785.0988,475.3008 785.4926,475.1508 Q785.727,475.057 785.9801,474.7945 Q786.1395,474.6352 786.2238,474.5883 Q786.3176,474.5414 786.4395,474.5414 Q786.6363,474.5414 786.7863,474.7008 Q786.9457,474.8508 786.9457,475.057 Q786.9457,475.2633 786.7395,475.507 Q786.4395,475.8539 785.9613,476.0508 Q785.3145,476.3227 784.5363,476.3227 Q783.627,476.3227 782.9051,475.9477 Q782.3145,475.6477 781.902,475.0102 Q781.4895,474.3633 781.4895,473.5945 L781.4895,472.9008 Q781.4895,472.1039 781.8551,471.4195 Q782.2301,470.7258 782.8863,470.3602 Q783.5426,469.9852 784.2832,469.9852 Q784.7238,469.9852 785.1082,470.0883 Q785.502,470.182 785.8301,470.3977 Z " fill="#000000"/><text fill="#000000" font-family="sans-serif" font-size="8.4" lengthAdjust="spacing" textLength="29.884" x="796.4707" y="476.3508">Position</text><line style="stroke:#181818;stroke-width:0.3;" x1="723.6" x2="879.7254" y1="482.4727" y2="482.4727"/><text fill="#000000" font-family="sans-serif" font-size="8.4" lengthAdjust="spacing" textLength="22.8703" x="726.6" y="493.9371">-x : int</text><text fill="#000000" font-family="sans-serif" font-size="8.4" lengthAdjust="spacing" textLength="22.8703" x="726.6" y="505.1098">-y : int</text><text fill="#000000" font-family="sans-serif" font-size="8.4" lengthAdjust="spacing" textLength="73.3195" x="726.6" y="516.2824">-occupied : boolean</text><line style="stroke:#181818;stroke-width:0.3;" x1="723.6" x2="879.7254" y1="520.7906" y2="520.7906"/><text fill="#000000" font-family="sans-serif" font-size="8.4" lengthAdjust="spacing" textLength="88.9506" x="726.6" y="532.2551">+isOccupied() : boolean</text><text fill="#000000" font-family="sans-serif" font-size="8.4" lengthAdjust="spacing" textLength="150.1254" x="726.6" y="543.4277">+setOccupied(occupied : boolean) : void</text></g><!--class ListStationUI--><g id="elem_ListStationUI"><rect codeLine="99" fill="#F1F1F1" height="28.8" id="ListStationUI" rx="1.5" ry="1.5" style="stroke:#181818;stroke-width:0.3;" width="66.8232" x="150.9" y="55.8727"/><ellipse cx="159.9" cy="65.4727" fill="#ADD1B2" rx="6.6" ry="6.6" style="stroke:#181818;stroke-width:0.6;"/><path d="M161.5594,62.9977 Q161.6531,62.8664 161.7656,62.8008 Q161.8781,62.7352 162.0094,62.7352 Q162.2344,62.7352 162.375,62.8945 Q162.5156,63.0445 162.5156,63.4102 L162.5156,64.282 Q162.5156,64.6477 162.375,64.807 Q162.2344,64.9664 162.0094,64.9664 Q161.8031,64.9664 161.6813,64.8445 Q161.5594,64.732 161.4938,64.4227 Q161.4656,64.207 161.3531,64.0945 Q161.1563,63.8695 160.7906,63.7383 Q160.425,63.607 160.05,63.607 Q159.5906,63.607 159.2062,63.8039 Q158.8312,64.0008 158.5313,64.4508 Q158.2406,64.9008 158.2406,65.5195 L158.2406,66.1758 Q158.2406,66.9164 158.775,67.4133 Q159.3094,67.9008 160.2656,67.9008 Q160.8281,67.9008 161.2219,67.7508 Q161.4562,67.657 161.7094,67.3945 Q161.8688,67.2352 161.9531,67.1883 Q162.0469,67.1414 162.1688,67.1414 Q162.3656,67.1414 162.5156,67.3008 Q162.675,67.4508 162.675,67.657 Q162.675,67.8633 162.4688,68.107 Q162.1688,68.4539 161.6906,68.6508 Q161.0438,68.9227 160.2656,68.9227 Q159.3563,68.9227 158.6344,68.5477 Q158.0438,68.2477 157.6313,67.6102 Q157.2188,66.9633 157.2188,66.1945 L157.2188,65.5008 Q157.2188,64.7039 157.5844,64.0195 Q157.9594,63.3258 158.6156,62.9602 Q159.2719,62.5852 160.0125,62.5852 Q160.4531,62.5852 160.8375,62.6883 Q161.2313,62.782 161.5594,62.9977 Z " fill="#000000"/><text fill="#000000" font-family="sans-serif" font-size="8.4" lengthAdjust="spacing" textLength="47.6232" x="168.3" y="68.9508">ListStationUI</text><line style="stroke:#181818;stroke-width:0.3;" x1="151.5" x2="217.1232" y1="75.0727" y2="75.0727"/><line style="stroke:#181818;stroke-width:0.3;" x1="151.5" x2="217.1232" y1="79.8727" y2="79.8727"/></g><!--link ListStationUI to ListStationController--><g id="link_ListStationUI_ListStationController"><path codeLine="103" d="M184.2,84.7387 C184.2,102.7447 184.2,131.2267 184.2,156.3247 " fill="none" id="ListStationUI-to-ListStationController" style="stroke:#181818;stroke-width:0.6;stroke-dasharray:7.0,7.0;"/><polygon fill="#181818" points="184.2,159.9247,186.6,154.5247,184.2,156.9247,181.8,154.5247,184.2,159.9247" style="stroke:#181818;stroke-width:0.6;"/></g><!--link ListStationController to ApplicationSession--><g id="link_ListStationController_ApplicationSession"><path codeLine="104" d="M149.922,233.2687 C128.52,255.8107 105,280.5727 105,280.5727 C105,280.5727 92.6378,294.7937 78.3158,311.2697 " fill="none" id="ListStationController-to-ApplicationSession" style="stroke:#181818;stroke-width:0.6;stroke-dasharray:7.0,7.0;"/><polygon fill="#181818" points="75.954,313.9867,81.308,311.4857,77.9221,311.7225,77.6853,308.3367,75.954,313.9867" style="stroke:#181818;stroke-width:0.6;"/></g><!--link ListStationController to MapRepository--><g id="link_ListStationController_MapRepository"><path codeLine="105" d="M218.478,233.2687 C239.88,255.8107 263.4,280.5727 263.4,280.5727 C263.4,280.5727 263.4,410.1727 263.4,410.1727 C263.4,410.1727 262.8,439.5727 262.8,439.5727 C262.8,439.5727 250.4314,458.5645 238.3894,477.0445 " fill="none" id="ListStationController-to-MapRepository" style="stroke:#181818;stroke-width:0.6;stroke-dasharray:7.0,7.0;"/><polygon fill="#181818" points="236.424,480.0607,241.3829,476.8467,238.0618,477.5472,237.3613,474.2262,236.424,480.0607" style="stroke:#181818;stroke-width:0.6;"/></g><!--link ListStationController to Repositories--><g id="link_ListStationController_Repositories"><path codeLine="106" d="M184.2,233.2807 C184.2,258.0307 184.2,286.9087 184.2,310.4287 " fill="none" id="ListStationController-to-Repositories" style="stroke:#181818;stroke-width:0.6;stroke-dasharray:7.0,7.0;"/><polygon fill="#181818" points="184.2,314.0287,186.6,308.6287,184.2,311.0287,181.8,308.6287,184.2,314.0287" style="stroke:#181818;stroke-width:0.6;"/></g><!--link Repositories to MapRepository--><g id="link_Repositories_MapRepository"><path codeLine="107" d="M191.142,376.6267 C197.946,406.6807 207.3925,448.4216 213.7285,476.3876 " fill="none" id="Repositories-to-MapRepository" style="stroke:#181818;stroke-width:0.6;"/><polygon fill="#181818" points="214.524,479.8987,215.6715,474.1018,213.8611,476.9728,210.9901,475.1624,214.524,479.8987" style="stroke:#181818;stroke-width:0.6;"/><text fill="#000000" font-family="sans-serif" font-size="7.8" lengthAdjust="spacing" textLength="52.4558" x="205.2" y="437.1896">mapRepository</text></g><!--reverse link Map to City--><g id="link_Map_City"><path codeLine="108" d="M692.0315,118.0256 C678.1115,133.2956 667.356,145.1047 653.928,159.8347 " fill="none" id="Map-backto-City" style="stroke:#181818;stroke-width:0.6;"/><polygon fill="#181818" points="696.882,112.7047,692.6831,113.7483,692.0315,118.0256,696.2304,116.982,696.882,112.7047" style="stroke:#181818;stroke-width:0.6;"/><text fill="#000000" font-family="sans-serif" font-size="7.8" lengthAdjust="spacing" textLength="29.052" x="678.6" y="139.5896">contains</text><text fill="#000000" font-family="sans-serif" font-size="7.8" lengthAdjust="spacing" textLength="4.338" x="688.7276" y="125.8061">1</text><text fill="#000000" font-family="sans-serif" font-size="7.8" lengthAdjust="spacing" textLength="3.0354" x="654.566" y="153.2074">*</text></g><!--reverse link Map to Size--><g id="link_Map_Size"><path codeLine="109" d="M735,119.9047 C735,135.1747 735,145.1047 735,159.8347 " fill="none" id="Map-backto-Size" style="stroke:#181818;stroke-width:0.6;"/><polygon fill="#181818" points="735,112.7047,732.6,116.3047,735,119.9047,737.4,116.3047,735,112.7047" style="stroke:#181818;stroke-width:0.6;"/><text fill="#000000" font-family="sans-serif" font-size="7.8" lengthAdjust="spacing" textLength="12.576" x="735.6" y="139.5896">has</text><text fill="#000000" font-family="sans-serif" font-size="7.8" lengthAdjust="spacing" textLength="4.338" x="730.5979" y="125.8061">1</text><text fill="#000000" font-family="sans-serif" font-size="7.8" lengthAdjust="spacing" textLength="4.338" x="730.5691" y="153.2074">1</text></g><!--reverse link City to Station--><g id="link_City_Station"><path codeLine="110" d="M621,240.4807 C621,254.7307 621,264.3487 621,280.5427 " fill="none" id="City-backto-Station" style="stroke:#181818;stroke-width:0.6;"/><polygon fill="#181818" points="621,233.2807,618.6,236.8807,621,240.4807,623.4,236.8807,621,233.2807" style="stroke:#181818;stroke-width:0.6;"/><text fill="#000000" font-family="sans-serif" font-size="7.8" lengthAdjust="spacing" textLength="29.052" x="621.6" y="260.1896">contains</text><text fill="#000000" font-family="sans-serif" font-size="7.8" lengthAdjust="spacing" textLength="4.338" x="616.5546" y="246.7859">1</text><text fill="#000000" font-family="sans-serif" font-size="7.8" lengthAdjust="spacing" textLength="3.0354" x="617.9059" y="273.8575">*</text></g><!--link Station to StationType--><g id="link_Station_StationType"><path codeLine="111" d="M547.65,385.6327 C488.322,417.7087 414.6,457.5727 414.6,457.5727 C414.6,457.5727 411.8053,459.9735 404.2513,466.4595 " fill="none" id="Station-to-StationType" style="stroke:#181818;stroke-width:0.6;"/><polygon fill="#181818" points="401.52,468.8047,407.1804,467.1078,403.7961,466.8503,404.0536,463.466,401.52,468.8047" style="stroke:#181818;stroke-width:0.6;"/><text fill="#000000" font-family="sans-serif" font-size="7.8" lengthAdjust="spacing" textLength="35.995" x="465.6" y="437.1896">defined by</text><text fill="#000000" font-family="sans-serif" font-size="7.8" lengthAdjust="spacing" textLength="3.0354" x="539.8653" y="386.1156">*</text><text fill="#000000" font-family="sans-serif" font-size="7.8" lengthAdjust="spacing" textLength="4.338" x="401.9567" y="462.174">1</text></g><!--reverse link Station to Building--><g id="link_Station_Building"><path codeLine="112" d="M557.2507,415.4921 C542.7907,431.2661 532.428,442.5667 518.826,457.3927 " fill="none" id="Station-backto-Building" style="stroke:#181818;stroke-width:0.6;"/><polygon fill="#181818" points="562.116,410.1847,557.9142,411.2166,557.2507,415.4921,561.4525,414.4601,562.116,410.1847" style="stroke:#181818;stroke-width:0.6;"/><text fill="#000000" font-family="sans-serif" font-size="7.8" lengthAdjust="spacing" textLength="29.052" x="544.8" y="437.1896">contains</text><text fill="#000000" font-family="sans-serif" font-size="7.8" lengthAdjust="spacing" textLength="4.338" x="554.0229" y="423.0939">1</text><text fill="#000000" font-family="sans-serif" font-size="7.8" lengthAdjust="spacing" textLength="3.0354" x="519.5769" y="450.8795">*</text></g><!--reverse link Station to Cargo--><g id="link_Station_Cargo"><path codeLine="113" d="M622.3476,417.3834 C622.6836,435.2274 622.902,446.9347 623.208,463.1287 " fill="none" id="Station-backto-Cargo" style="stroke:#181818;stroke-width:0.6;"/><polygon fill="#181818" points="622.212,410.1847,619.8802,413.8292,622.3476,417.3834,624.6794,413.7388,622.212,410.1847" style="stroke:#181818;stroke-width:0.6;"/><text fill="#000000" font-family="sans-serif" font-size="7.8" lengthAdjust="spacing" textLength="21.2405" x="623.4" y="437.1896">stores</text><text fill="#000000" font-family="sans-serif" font-size="7.8" lengthAdjust="spacing" textLength="4.338" x="617.9688" y="423.0939">1</text><text fill="#000000" font-family="sans-serif" font-size="7.8" lengthAdjust="spacing" textLength="3.0354" x="619.9833" y="456.4484">*</text></g><!--link Station to Position--><g id="link_Station_Position"><path codeLine="114" d="M693.936,410.1847 C714.198,428.0287 732.9758,444.5559 751.3718,460.7499 " fill="none" id="Station-to-Position" style="stroke:#181818;stroke-width:0.6;"/><polygon fill="#181818" points="754.074,463.1287,751.6066,457.7591,751.8222,461.1464,748.4349,461.362,754.074,463.1287" style="stroke:#181818;stroke-width:0.6;"/><text fill="#000000" font-family="sans-serif" font-size="7.8" lengthAdjust="spacing" textLength="33.8241" x="723" y="437.1896">located at</text><text fill="#000000" font-family="sans-serif" font-size="7.8" lengthAdjust="spacing" textLength="4.338" x="694.2876" y="423.0939">1</text><text fill="#000000" font-family="sans-serif" font-size="7.8" lengthAdjust="spacing" textLength="4.338" x="744.757" y="456.4484">1</text></g><!--link Map to Position--><g id="link_Map_Position"><path codeLine="115" d="M756.462,112.8127 C768.294,135.9247 780.6,159.9727 780.6,159.9727 C780.6,159.9727 793.2452,367.7413 798.8372,459.5953 " fill="none" id="Map-to-Position" style="stroke:#181818;stroke-width:0.6;"/><polygon fill="#181818" points="799.056,463.1887,801.1234,457.6528,798.8737,460.1942,796.3323,457.9445,799.056,463.1887" style="stroke:#181818;stroke-width:0.6;"/><text fill="#000000" font-family="sans-serif" font-size="7.8" lengthAdjust="spacing" textLength="20.8025" x="787.2" y="260.1896">tracks</text><text fill="#000000" font-family="sans-serif" font-size="7.8" lengthAdjust="spacing" textLength="4.338" x="754.1725" y="125.9247">1</text><text fill="#000000" font-family="sans-serif" font-size="7.8" lengthAdjust="spacing" textLength="3.0354" x="795.6343" y="456.5146">*</text></g><!--SRC=[VLPDRzim3BtxLmYvB6tXeZiD28O0NNfOW0uhwdN3ZehDE48LoHFbTjcm_pvAjYMvTdjoI3uzVeeAFWhLSCEFhE7b8w-Xi2S9p41fkQebP1W0UE2LVXQgPdikCRL8eS2U6c2DbYSd9BPISiHhQutOjHQsfLQ5-0FiAikiiEHfu-piHl2Qq2lsK5nzO3cx5MXPORaLMY7ZgcBV1Jop6x1SICmopygkcqQAqeCAGAGF-vinba_ropFINzHWjmefiHA2OjCQ0yf6tB-1tSNGXx3HoXej9HZlm9sxVg98-4x25zxWyeojFFuZIMk7a9fNz7jvvCssSbOI-fD3Mj7cJ_RgzHZLPxp4JkpmOrkC-1uQZS9g8m2xIf2Be3nrKKHvKX82f1JEFY9OdaqeWk-HEbHflZXxeQR5IPcwu1K_mlR6vsjex9og5FRaPwDdt93iA7DYRD6QaN7Rwpm0tTGH5Ns6pWjBISReEguGXXDZ7ACeV9fksbRihl_fNGpp-cP74uy149pwk-6TFelA7WWeb7NY0KHzi45sV3ySmfD5tMSF2yh8stbwjQv8NQFBl-6q1LpUmU-k5R8YK26rnQZcm_HlkAbrgA0JVBKD_6e1BLJpTXVgCDap0zq1FlMkau8DgiXnfDtGUqawcVefMje6ftd4o_fySqjilkT0cqiVHNdFAz4cbIWrsaIYLGBcJfEO3aVmCoJmQYFy6aqLVQM5fBRy16wYBtZIikssKnf2K5DEDU0jx5FZVa-RFJg8q-xxD9ywF-fM9IHIx04Rhg9c4dLZTDMMBefxGDsQ4iAj61H9zOSwTVv_Hzva47LPjes0YZGxhILmT-Kk17xjzRwtYGN11jFqh0C_QL7DRlk7BGL2XdUq3MLtPm-YmMmCkRnSppyHsVp3uV3JX-aDy7ZHleuRhUpH4v3dBrWewz52pzokNRnViFCyPulpHRVqLencdMwYmh6TlaMtHGySCmzDpmux9Za-g9pP1UCfagksOXNGOq2TsPqYEE4CzsMED8sxNpDkZy4OClYzYqjRQke1EUKs9EXHvoEKDVIF2BF_]--></g></svg>