<svg xmlns="http://www.w3.org/2000/svg" xmlns:xlink="http://www.w3.org/1999/xlink" contentStyleType="text/css" height="501px" preserveAspectRatio="none" style="width:1393px;height:501px;background:#FFFFFF;" version="1.1" viewBox="0 0 1393 501" width="1393px" zoomAndPan="magnify"><title>Class Diagram: US07 - List Stations</title><defs/><g><text fill="#000000" font-family="sans-serif" font-size="14" font-weight="bold" lengthAdjust="spacing" textLength="238.9231" x="570.2684" y="24.9659">Class Diagram: US07 - List Stations</text><!--class ListStationUI--><g id="elem_ListStationUI"><rect codeLine="11" fill="#F1F1F1" height="48" id="ListStationUI" rx="2.5" ry="2.5" style="stroke:#181818;stroke-width:0.5;" width="116.0697" x="7" y="216.5679"/><ellipse cx="22" cy="232.5679" fill="#ADD1B2" rx="11" ry="11" style="stroke:#181818;stroke-width:1.0;"/><path d="M21.4688,239.4898 Q19.7188,239.4898 18.5781,238.7554 Q17.4531,238.0054 16.8906,236.6617 Q16.3438,235.3023 16.3438,233.5054 Q16.3438,231.4742 17,230.021 Q17.6563,228.5679 18.9375,227.7867 Q20.2188,227.0054 22.0938,227.0054 Q22.9844,227.0054 23.6563,227.1929 Q24.3281,227.3648 25.0156,227.7085 L24.2031,229.7242 Q23.5781,229.4117 23.0313,229.2867 Q22.5,229.1617 22.0156,229.1617 Q20.8438,229.1617 20.1406,229.6929 Q19.4375,230.2242 19.1406,231.1773 Q18.8438,232.1304 18.8438,233.396 Q18.8438,235.4117 19.5625,236.3804 Q20.2813,237.3335 21.875,237.3335 Q22.4688,237.3335 23.0938,237.1773 Q23.7188,237.021 24.5469,236.646 L24.5469,238.8648 Q23.8125,239.1773 23.0156,239.3335 Q22.2344,239.4898 21.4688,239.4898 Z " fill="#000000"/><text fill="#000000" font-family="sans-serif" font-size="14" lengthAdjust="spacing" textLength="84.0697" x="36" y="237.9999">ListStationUI</text><line style="stroke:#181818;stroke-width:0.5;" x1="8" x2="122.0697" y1="248.5679" y2="248.5679"/><line style="stroke:#181818;stroke-width:0.5;" x1="8" x2="122.0697" y1="256.5679" y2="256.5679"/></g><!--class ListStationController--><g id="elem_ListStationController"><rect codeLine="15" fill="#F1F1F1" height="105.2038" id="ListStationController" rx="2.5" ry="2.5" style="stroke:#181818;stroke-width:0.5;" width="200.0613" x="184" y="188.0679"/><ellipse cx="213.7572" cy="204.0679" fill="#ADD1B2" rx="11" ry="11" style="stroke:#181818;stroke-width:1.0;"/><path d="M213.226,210.9898 Q211.476,210.9898 210.3353,210.2554 Q209.2103,209.5054 208.6478,208.1617 Q208.101,206.8023 208.101,205.0054 Q208.101,202.9742 208.7572,201.521 Q209.4135,200.0679 210.6947,199.2867 Q211.976,198.5054 213.851,198.5054 Q214.7416,198.5054 215.4135,198.6929 Q216.0853,198.8648 216.7728,199.2085 L215.9603,201.2242 Q215.3353,200.9117 214.7885,200.7867 Q214.2572,200.6617 213.7728,200.6617 Q212.601,200.6617 211.8978,201.1929 Q211.1947,201.7242 210.8978,202.6773 Q210.601,203.6304 210.601,204.896 Q210.601,206.9117 211.3197,207.8804 Q212.0385,208.8335 213.6322,208.8335 Q214.226,208.8335 214.851,208.6773 Q215.476,208.521 216.3041,208.146 L216.3041,210.3648 Q215.5697,210.6773 214.7728,210.8335 Q213.9916,210.9898 213.226,210.9898 Z " fill="#000000"/><text fill="#000000" font-family="sans-serif" font-size="14" lengthAdjust="spacing" textLength="135.2675" x="231.0366" y="209.4999">ListStationController</text><line style="stroke:#181818;stroke-width:0.5;" x1="185" x2="383.0613" y1="220.0679" y2="220.0679"/><line style="stroke:#181818;stroke-width:0.5;" x1="185" x2="383.0613" y1="228.0679" y2="228.0679"/><text fill="#000000" font-family="sans-serif" font-size="14" lengthAdjust="spacing" textLength="130.3675" x="190" y="247.0339">+listAvailableMaps()</text><text fill="#000000" font-family="sans-serif" font-size="14" lengthAdjust="spacing" textLength="133.9655" x="190" y="266.1018">+getStations(mapId)</text><text fill="#000000" font-family="sans-serif" font-size="14" lengthAdjust="spacing" textLength="188.0613" x="190" y="285.1697">+getStationDetails(stationId)</text></g><!--class ApplicationSession--><g id="elem_ApplicationSession"><rect codeLine="21" fill="#F1F1F1" height="67.0679" id="ApplicationSession" rx="2.5" ry="2.5" style="stroke:#181818;stroke-width:0.5;" width="155.4795" x="445" y="47.0679"/><ellipse cx="460" cy="63.0679" fill="#ADD1B2" rx="11" ry="11" style="stroke:#181818;stroke-width:1.0;"/><path d="M459.4688,69.9898 Q457.7188,69.9898 456.5781,69.2554 Q455.4531,68.5054 454.8906,67.1617 Q454.3438,65.8023 454.3438,64.0054 Q454.3438,61.9742 455,60.521 Q455.6563,59.0679 456.9375,58.2867 Q458.2188,57.5054 460.0938,57.5054 Q460.9844,57.5054 461.6563,57.6929 Q462.3281,57.8648 463.0156,58.2085 L462.2031,60.2242 Q461.5781,59.9117 461.0313,59.7867 Q460.5,59.6617 460.0156,59.6617 Q458.8438,59.6617 458.1406,60.1929 Q457.4375,60.7242 457.1406,61.6773 Q456.8438,62.6304 456.8438,63.896 Q456.8438,65.9117 457.5625,66.8804 Q458.2813,67.8335 459.875,67.8335 Q460.4688,67.8335 461.0938,67.6773 Q461.7188,67.521 462.5469,67.146 L462.5469,69.3648 Q461.8125,69.6773 461.0156,69.8335 Q460.2344,69.9898 459.4688,69.9898 Z " fill="#000000"/><text fill="#000000" font-family="sans-serif" font-size="14" lengthAdjust="spacing" textLength="123.4795" x="474" y="68.4999">ApplicationSession</text><line style="stroke:#181818;stroke-width:0.5;" x1="446" x2="599.4795" y1="79.0679" y2="79.0679"/><line style="stroke:#181818;stroke-width:0.5;" x1="446" x2="599.4795" y1="87.0679" y2="87.0679"/><text fill="#000000" font-family="sans-serif" font-size="14" lengthAdjust="spacing" textLength="94.2476" x="451" y="106.0339">+getInstance()</text></g><!--class Repositories--><g id="elem_Repositories"><rect codeLine="25" fill="#F1F1F1" height="86.1358" id="Repositories" rx="2.5" ry="2.5" style="stroke:#181818;stroke-width:0.5;" width="128.4096" x="458.5" y="149.5679"/><ellipse cx="480.1995" cy="165.5679" fill="#ADD1B2" rx="11" ry="11" style="stroke:#181818;stroke-width:1.0;"/><path d="M479.6683,172.4898 Q477.9183,172.4898 476.7777,171.7554 Q475.6527,171.0054 475.0902,169.6617 Q474.5433,168.3023 474.5433,166.5054 Q474.5433,164.4742 475.1995,163.021 Q475.8558,161.5679 477.137,160.7867 Q478.4183,160.0054 480.2933,160.0054 Q481.1839,160.0054 481.8558,160.1929 Q482.5277,160.3648 483.2152,160.7085 L482.4027,162.7242 Q481.7777,162.4117 481.2308,162.2867 Q480.6995,162.1617 480.2152,162.1617 Q479.0433,162.1617 478.3402,162.6929 Q477.637,163.2242 477.3402,164.1773 Q477.0433,165.1304 477.0433,166.396 Q477.0433,168.4117 477.762,169.3804 Q478.4808,170.3335 480.0745,170.3335 Q480.6683,170.3335 481.2933,170.1773 Q481.9183,170.021 482.7464,169.646 L482.7464,171.8648 Q482.012,172.1773 481.2152,172.3335 Q480.4339,172.4898 479.6683,172.4898 Z " fill="#000000"/><text fill="#000000" font-family="sans-serif" font-size="14" lengthAdjust="spacing" textLength="81.5217" x="495.6883" y="170.9999">Repositories</text><line style="stroke:#181818;stroke-width:0.5;" x1="459.5" x2="585.9096" y1="181.5679" y2="181.5679"/><line style="stroke:#181818;stroke-width:0.5;" x1="459.5" x2="585.9096" y1="189.5679" y2="189.5679"/><text fill="#000000" font-family="sans-serif" font-size="14" lengthAdjust="spacing" textLength="94.2476" x="464.5" y="208.5339">+getInstance()</text><text fill="#000000" font-family="sans-serif" font-size="14" lengthAdjust="spacing" textLength="116.4096" x="464.5" y="227.6018">+mapRepository()</text></g><!--class MapRepository--><g id="elem_MapRepository"><rect codeLine="30" fill="#F1F1F1" height="86.1358" id="MapRepository" rx="2.5" ry="2.5" style="stroke:#181818;stroke-width:0.5;" width="131.6096" x="754" y="194.5679"/><ellipse cx="769" cy="210.5679" fill="#ADD1B2" rx="11" ry="11" style="stroke:#181818;stroke-width:1.0;"/><path d="M768.4688,217.4898 Q766.7188,217.4898 765.5781,216.7554 Q764.4531,216.0054 763.8906,214.6617 Q763.3438,213.3023 763.3438,211.5054 Q763.3438,209.4742 764,208.021 Q764.6563,206.5679 765.9375,205.7867 Q767.2188,205.0054 769.0938,205.0054 Q769.9844,205.0054 770.6563,205.1929 Q771.3281,205.3648 772.0156,205.7085 L771.2031,207.7242 Q770.5781,207.4117 770.0313,207.2867 Q769.5,207.1617 769.0156,207.1617 Q767.8438,207.1617 767.1406,207.6929 Q766.4375,208.2242 766.1406,209.1773 Q765.8438,210.1304 765.8438,211.396 Q765.8438,213.4117 766.5625,214.3804 Q767.2813,215.3335 768.875,215.3335 Q769.4688,215.3335 770.0938,215.1773 Q770.7188,215.021 771.5469,214.646 L771.5469,216.8648 Q770.8125,217.1773 770.0156,217.3335 Q769.2344,217.4898 768.4688,217.4898 Z " fill="#000000"/><text fill="#000000" font-family="sans-serif" font-size="14" lengthAdjust="spacing" textLength="99.6096" x="783" y="215.9999">MapRepository</text><line style="stroke:#181818;stroke-width:0.5;" x1="755" x2="884.6096" y1="226.5679" y2="226.5679"/><line style="stroke:#181818;stroke-width:0.5;" x1="755" x2="884.6096" y1="234.5679" y2="234.5679"/><text fill="#000000" font-family="sans-serif" font-size="14" lengthAdjust="spacing" textLength="73.8357" x="760" y="253.5339">+getMaps()</text><text fill="#000000" font-family="sans-serif" font-size="14" lengthAdjust="spacing" textLength="100.8136" x="760" y="272.6018">+findMap(map)</text></g><!--class Map--><g id="elem_Map"><rect codeLine="35" fill="#F1F1F1" height="86.1358" id="Map" rx="2.5" ry="2.5" style="stroke:#181818;stroke-width:0.5;" width="85.6957" x="479.5" y="341.5679"/><ellipse cx="505.5402" cy="357.5679" fill="#ADD1B2" rx="11" ry="11" style="stroke:#181818;stroke-width:1.0;"/><path d="M505.009,364.4898 Q503.259,364.4898 502.1183,363.7554 Q500.9933,363.0054 500.4308,361.6617 Q499.884,360.3023 499.884,358.5054 Q499.884,356.4742 500.5402,355.021 Q501.1965,353.5679 502.4777,352.7867 Q503.759,352.0054 505.634,352.0054 Q506.5246,352.0054 507.1965,352.1929 Q507.8683,352.3648 508.5558,352.7085 L507.7433,354.7242 Q507.1183,354.4117 506.5715,354.2867 Q506.0402,354.1617 505.5558,354.1617 Q504.384,354.1617 503.6808,354.6929 Q502.9777,355.2242 502.6808,356.1773 Q502.384,357.1304 502.384,358.396 Q502.384,360.4117 503.1027,361.3804 Q503.8215,362.3335 505.4152,362.3335 Q506.009,362.3335 506.634,362.1773 Q507.259,362.021 508.0871,361.646 L508.0871,363.8648 Q507.3527,364.1773 506.5558,364.3335 Q505.7746,364.4898 505.009,364.4898 Z " fill="#000000"/><text fill="#000000" font-family="sans-serif" font-size="14" lengthAdjust="spacing" textLength="29.1619" x="521.9936" y="362.9999">Map</text><line style="stroke:#181818;stroke-width:0.5;" x1="480.5" x2="564.1957" y1="373.5679" y2="373.5679"/><text fill="#000000" font-family="sans-serif" font-size="14" lengthAdjust="spacing" textLength="55.3558" x="485.5" y="392.5339">-nameId</text><line style="stroke:#181818;stroke-width:0.5;" x1="480.5" x2="564.1957" y1="400.6358" y2="400.6358"/><text fill="#000000" font-family="sans-serif" font-size="14" lengthAdjust="spacing" textLength="73.6957" x="485.5" y="419.6018">+getCities()</text></g><!--class City--><g id="elem_City"><rect codeLine="40" fill="#F1F1F1" height="86.1358" id="City" rx="2.5" ry="2.5" style="stroke:#181818;stroke-width:0.5;" width="103.0557" x="768.5" y="341.5679"/><ellipse cx="804.3808" cy="357.5679" fill="#ADD1B2" rx="11" ry="11" style="stroke:#181818;stroke-width:1.0;"/><path d="M803.8495,364.4898 Q802.0995,364.4898 800.9589,363.7554 Q799.8339,363.0054 799.2714,361.6617 Q798.7245,360.3023 798.7245,358.5054 Q798.7245,356.4742 799.3808,355.021 Q800.037,353.5679 801.3183,352.7867 Q802.5995,352.0054 804.4745,352.0054 Q805.3652,352.0054 806.037,352.1929 Q806.7089,352.3648 807.3964,352.7085 L806.5839,354.7242 Q805.9589,354.4117 805.412,354.2867 Q804.8808,354.1617 804.3964,354.1617 Q803.2245,354.1617 802.5214,354.6929 Q801.8183,355.2242 801.5214,356.1773 Q801.2245,357.1304 801.2245,358.396 Q801.2245,360.4117 801.9433,361.3804 Q802.662,362.3335 804.2558,362.3335 Q804.8495,362.3335 805.4745,362.1773 Q806.0995,362.021 806.9277,361.646 L806.9277,363.8648 Q806.1933,364.1773 805.3964,364.3335 Q804.6152,364.4898 803.8495,364.4898 Z " fill="#000000"/><text fill="#000000" font-family="sans-serif" font-size="14" lengthAdjust="spacing" textLength="24.6539" x="823.021" y="362.9999">City</text><line style="stroke:#181818;stroke-width:0.5;" x1="769.5" x2="870.5557" y1="373.5679" y2="373.5679"/><text fill="#000000" font-family="sans-serif" font-size="14" lengthAdjust="spacing" textLength="41.9998" x="774.5" y="392.5339">-name</text><line style="stroke:#181818;stroke-width:0.5;" x1="769.5" x2="870.5557" y1="400.6358" y2="400.6358"/><text fill="#000000" font-family="sans-serif" font-size="14" lengthAdjust="spacing" textLength="91.0557" x="774.5" y="419.6018">+getStations()</text></g><!--class Station--><g id="elem_Station"><rect codeLine="45" fill="#F1F1F1" height="219.6113" id="Station" rx="2.5" ry="2.5" style="stroke:#181818;stroke-width:0.5;" width="162.3594" x="987" y="274.5679"/><ellipse cx="1040.7388" cy="290.5679" fill="#ADD1B2" rx="11" ry="11" style="stroke:#181818;stroke-width:1.0;"/><path d="M1040.2075,297.4898 Q1038.4575,297.4898 1037.3169,296.7554 Q1036.1919,296.0054 1035.6294,294.6617 Q1035.0825,293.3023 1035.0825,291.5054 Q1035.0825,289.4742 1035.7388,288.021 Q1036.395,286.5679 1037.6763,285.7867 Q1038.9575,285.0054 1040.8325,285.0054 Q1041.7232,285.0054 1042.395,285.1929 Q1043.0669,285.3648 1043.7544,285.7085 L1042.9419,287.7242 Q1042.3169,287.4117 1041.77,287.2867 Q1041.2388,287.1617 1040.7544,287.1617 Q1039.5825,287.1617 1038.8794,287.6929 Q1038.1763,288.2242 1037.8794,289.1773 Q1037.5825,290.1304 1037.5825,291.396 Q1037.5825,293.4117 1038.3013,294.3804 Q1039.02,295.3335 1040.6138,295.3335 Q1041.2075,295.3335 1041.8325,295.1773 Q1042.4575,295.021 1043.2857,294.646 L1043.2857,296.8648 Q1042.5513,297.1773 1041.7544,297.3335 Q1040.9732,297.4898 1040.2075,297.4898 Z " fill="#000000"/><text fill="#000000" font-family="sans-serif" font-size="14" lengthAdjust="spacing" textLength="46.3818" x="1061.2388" y="295.9999">Station</text><line style="stroke:#181818;stroke-width:0.5;" x1="988" x2="1148.3594" y1="306.5679" y2="306.5679"/><text fill="#000000" font-family="sans-serif" font-size="14" lengthAdjust="spacing" textLength="41.9998" x="993" y="325.5339">-name</text><text fill="#000000" font-family="sans-serif" font-size="14" lengthAdjust="spacing" textLength="110.5716" x="993" y="344.6018">-storageCapacity</text><text fill="#000000" font-family="sans-serif" font-size="14" lengthAdjust="spacing" textLength="90.0057" x="993" y="363.6697">-buildingSlots</text><text fill="#000000" font-family="sans-serif" font-size="14" lengthAdjust="spacing" textLength="98.2656" x="993" y="382.7376">-cargoDemand</text><text fill="#000000" font-family="sans-serif" font-size="14" lengthAdjust="spacing" textLength="86.2537" x="993" y="401.8055">-cargoSupply</text><line style="stroke:#181818;stroke-width:0.5;" x1="988" x2="1148.3594" y1="409.9075" y2="409.9075"/><text fill="#000000" font-family="sans-serif" font-size="14" lengthAdjust="spacing" textLength="82.9217" x="993" y="428.8734">+getDetails()</text><text fill="#000000" font-family="sans-serif" font-size="14" lengthAdjust="spacing" textLength="99.1336" x="993" y="447.9414">+getBuildings()</text><text fill="#000000" font-family="sans-serif" font-size="14" lengthAdjust="spacing" textLength="150.3594" x="993" y="467.0093">+getDemandedCargo()</text><text fill="#000000" font-family="sans-serif" font-size="14" lengthAdjust="spacing" textLength="121.8415" x="993" y="486.0772">+getSupplyCargo()</text></g><!--class Building--><g id="elem_Building"><rect codeLine="57" fill="#F1F1F1" height="86.1358" id="Building" rx="2.5" ry="2.5" style="stroke:#181818;stroke-width:0.5;" width="86.4598" x="1300" y="341.5679"/><ellipse cx="1315" cy="357.5679" fill="#ADD1B2" rx="11" ry="11" style="stroke:#181818;stroke-width:1.0;"/><path d="M1314.4688,364.4898 Q1312.7188,364.4898 1311.5781,363.7554 Q1310.4531,363.0054 1309.8906,361.6617 Q1309.3438,360.3023 1309.3438,358.5054 Q1309.3438,356.4742 1310,355.021 Q1310.6563,353.5679 1311.9375,352.7867 Q1313.2188,352.0054 1315.0938,352.0054 Q1315.9844,352.0054 1316.6563,352.1929 Q1317.3281,352.3648 1318.0156,352.7085 L1317.2031,354.7242 Q1316.5781,354.4117 1316.0313,354.2867 Q1315.5,354.1617 1315.0156,354.1617 Q1313.8438,354.1617 1313.1406,354.6929 Q1312.4375,355.2242 1312.1406,356.1773 Q1311.8438,357.1304 1311.8438,358.396 Q1311.8438,360.4117 1312.5625,361.3804 Q1313.2813,362.3335 1314.875,362.3335 Q1315.4688,362.3335 1316.0938,362.1773 Q1316.7188,362.021 1317.5469,361.646 L1317.5469,363.8648 Q1316.8125,364.1773 1316.0156,364.3335 Q1315.2344,364.4898 1314.4688,364.4898 Z " fill="#000000"/><text fill="#000000" font-family="sans-serif" font-size="14" lengthAdjust="spacing" textLength="54.4598" x="1329" y="362.9999">Building</text><line style="stroke:#181818;stroke-width:0.5;" x1="1301" x2="1385.4598" y1="373.5679" y2="373.5679"/><text fill="#000000" font-family="sans-serif" font-size="14" lengthAdjust="spacing" textLength="41.9998" x="1306" y="392.5339">-name</text><text fill="#000000" font-family="sans-serif" font-size="14" lengthAdjust="spacing" textLength="33.2079" x="1306" y="411.6018">-type</text><line style="stroke:#181818;stroke-width:0.5;" x1="1301" x2="1385.4598" y1="419.7038" y2="419.7038"/></g><!--link ListStationUI to ListStationController--><g id="link_ListStationUI_ListStationController"><path codeLine="65" d="M123.01,240.5679 C141.72,240.5679 157.09,240.5679 177.99,240.5679 " fill="none" id="ListStationUI-to-ListStationController" style="stroke:#181818;stroke-width:1.0;stroke-dasharray:7.0,7.0;"/><polygon fill="#181818" points="183.99,240.5679,174.99,236.5679,178.99,240.5679,174.99,244.5679,183.99,240.5679" style="stroke:#181818;stroke-width:1.0;"/></g><!--link ListStationController to ApplicationSession--><g id="link_ListStationController_ApplicationSession"><path codeLine="66" d="M362.19,187.9879 C403.1,160.1079 445,131.5679 445,131.5679 C445,131.5679 451.6782,127.1169 465.9082,117.6269 " fill="none" id="ListStationController-to-ApplicationSession" style="stroke:#181818;stroke-width:1.0;stroke-dasharray:7.0,7.0;"/><polygon fill="#181818" points="470.9,114.2979,461.193,115.9636,466.7402,117.0721,465.6317,122.6193,470.9,114.2979" style="stroke:#181818;stroke-width:1.0;"/></g><!--link ListStationController to MapRepository--><g id="link_ListStationController_MapRepository"><path codeLine="68" d="M384.05,247.9979 C416.79,250.4479 445,252.5679 445,252.5679 C445,252.5679 600,252.5679 600,252.5679 C600,252.5679 683.344,246.8577 747.904,242.4377 " fill="none" id="ListStationController-to-MapRepository" style="stroke:#181818;stroke-width:1.0;stroke-dasharray:7.0,7.0;"/><polygon fill="#181818" points="753.89,242.0279,744.6378,238.652,748.9017,242.3694,745.1842,246.6333,753.89,242.0279" style="stroke:#181818;stroke-width:1.0;"/></g><!--link ListStationController to Repositories--><g id="link_ListStationController_Repositories"><path codeLine="70" d="M384.27,220.4179 C409.3,215.3379 429.6098,211.221 452.3298,206.611 " fill="none" id="ListStationController-to-Repositories" style="stroke:#181818;stroke-width:1.0;stroke-dasharray:7.0,7.0;"/><polygon fill="#181818" points="458.21,205.4179,448.5943,203.2875,453.3099,206.4122,450.1851,211.1277,458.21,205.4179" style="stroke:#181818;stroke-width:1.0;"/></g><!--link ListStationController to Map--><g id="link_ListStationController_Map"><path codeLine="71" d="M371.39,293.1679 C408.2,315.5779 444.3457,337.5868 474.2757,355.8168 " fill="none" id="ListStationController-to-Map" style="stroke:#181818;stroke-width:1.0;stroke-dasharray:7.0,7.0;"/><polygon fill="#181818" points="479.4,358.9379,473.7943,350.84,475.1298,356.337,469.6328,357.6724,479.4,358.9379" style="stroke:#181818;stroke-width:1.0;"/></g><!--link Repositories to MapRepository--><g id="link_Repositories_MapRepository"><path codeLine="72" d="M586.53,202.1679 C635.77,209.6679 698.0385,219.1439 747.8385,226.7339 " fill="none" id="Repositories-to-MapRepository" style="stroke:#181818;stroke-width:1.0;"/><polygon fill="#181818" points="753.77,227.6379,745.4754,222.3276,748.8271,226.8846,744.2701,230.2362,753.77,227.6379" style="stroke:#181818;stroke-width:1.0;"/><text fill="#000000" font-family="sans-serif" font-size="13" lengthAdjust="spacing" textLength="92.8591" x="631" y="206.4649">mapRepository</text><text fill="#000000" font-family="sans-serif" font-size="13" lengthAdjust="spacing" textLength="7.436" x="738.7552" y="241.4026">1</text></g><!--link Map to City--><g id="link_Map_City"><path codeLine="73" d="M565.52,384.5679 C618.98,384.5679 705.22,384.5679 762.46,384.5679 " fill="none" id="Map-to-City" style="stroke:#181818;stroke-width:1.0;"/><polygon fill="#181818" points="768.46,384.5679,759.46,380.5679,763.46,384.5679,759.46,388.5679,768.46,384.5679" style="stroke:#181818;stroke-width:1.0;"/><text fill="#000000" font-family="sans-serif" font-size="13" lengthAdjust="spacing" textLength="7.436" x="573.2862" y="399.92">1</text><text fill="#000000" font-family="sans-serif" font-size="13" lengthAdjust="spacing" textLength="7.163" x="753.3839" y="399.7552">*</text></g><!--reverse link City to Station--><g id="link_City_Station"><path codeLine="74" d="M877.67,384.5679 C910.87,384.5679 948.96,384.5679 986.85,384.5679 " fill="none" id="City-backto-Station" style="stroke:#181818;stroke-width:1.0;"/><polygon fill="#181818" points="871.67,384.5679,880.67,388.5679,876.67,384.5679,880.67,380.5679,871.67,384.5679" style="stroke:#181818;stroke-width:1.0;"/><text fill="#000000" font-family="sans-serif" font-size="13" lengthAdjust="spacing" textLength="39.091" x="917" y="380.4649">serves</text><text fill="#000000" font-family="sans-serif" font-size="13" lengthAdjust="spacing" textLength="7.163" x="879.4358" y="399.7003">*</text><text fill="#000000" font-family="sans-serif" font-size="13" lengthAdjust="spacing" textLength="7.436" x="971.521" y="399.3555">1</text></g><!--link Station to Building--><g id="link_Station_Building"><path codeLine="75" d="M1149.06,384.5679 C1198.47,384.5679 1253.84,384.5679 1293.92,384.5679 " fill="none" id="Station-to-Building" style="stroke:#181818;stroke-width:1.0;"/><polygon fill="#181818" points="1299.92,384.5679,1290.92,380.5679,1294.92,384.5679,1290.92,388.5679,1299.92,384.5679" style="stroke:#181818;stroke-width:1.0;"/><text fill="#000000" font-family="sans-serif" font-size="13" lengthAdjust="spacing" textLength="89.6871" x="1180" y="380.4649">upgraded with</text><text fill="#000000" font-family="sans-serif" font-size="13" lengthAdjust="spacing" textLength="7.436" x="1157.3876" y="399.3555">1</text><text fill="#000000" font-family="sans-serif" font-size="13" lengthAdjust="spacing" textLength="7.163" x="1284.8886" y="399.9749">*</text></g><!--SRC=[VLF1Rjim3BthAuXSbgrmqPu614E1rBaOM2yp-W6ApJX45Kcmc1RUi7ylvTYEd0QvsE3ZUoHDFXlSCR23bfezGqqjLapEAXNUo7hTwWDuNRtf1alk34BCQziOJ0XXhsltGRQ1dJOXpHYoo9r7yCvqCKXobT4Xh9bRsXuPYyhPaluYF2Z5nD8fZtdOa6w4lOBNyk4dPF2R0aF9EWuPbEgBzE20lHRmJwd_LpAvizmwOx0L1i2TaTJwNPFHMuClseVbzmWtE0h2yg1zKL-W6sJHX6KuXJ4_TLjxRwZgyH93a5VVIlGW1Geh6blXCb7yGUy2iMi9msciEL406M9YTQds9KrCulENxCZM4iMlcAjwRcRr0OjwKEN4Ca5QNP3kJBpSJ48Si1at2pAJU2RNOXuf5A7jaKmj9YcDuz1l9QjqsxWD7hIj4w0yoXgxeUEuxl4ApqELCtBIOvr7xVc6VP4HcuOTvVDfeqKZHwblSX4pc6lkgllxf-jkKjSz5lbV_Q1ki6Vtl4LCJNExdfhvAykUOF6uk33E2cOEKz4WmXBouiUYju6AZnZyohAe7o- -We3jkymm0Z7PDn7kjEaL7Btymd8X-23Ugqy0]--></g></svg>