<svg xmlns="http://www.w3.org/2000/svg" xmlns:xlink="http://www.w3.org/1999/xlink" contentStyleType="text/css" height="559px" preserveAspectRatio="none" style="width:512px;height:559px;background:#FFFFFF;" version="1.1" viewBox="0 0 512 559" width="512px" zoomAndPan="magnify"><title>System Sequence Diagram : US07 - Get Stations</title><defs/><g><text fill="#000000" font-family="sans-serif" font-size="14" font-weight="bold" lengthAdjust="spacing" textLength="322.1025" x="96.7322" y="30.1074">System Sequence Diagram : US07 - Get Stations</text><rect fill="#FFFFFF" height="415.7832" style="stroke:#181818;stroke-width:1.0;" width="10" x="132.1162" y="88.2422"/><rect fill="#FFFFFF" height="31.291" style="stroke:#181818;stroke-width:1.0;" width="10" x="316.0742" y="169.1152"/><rect fill="#FFFFFF" height="31.291" style="stroke:#181818;stroke-width:1.0;" width="10" x="316.0742" y="231.6973"/><rect fill="#FFFFFF" height="31.291" style="stroke:#181818;stroke-width:1.0;" width="10" x="412.8394" y="294.2793"/><rect fill="#FFFFFF" height="31.291" style="stroke:#181818;stroke-width:1.0;" width="10" x="462.5117" y="383.1523"/><rect fill="none" height="347.2012" style="stroke:#000000;stroke-width:1.5;" width="459.4814" x="47.0854" y="126.5332"/><rect fill="none" height="81.873" style="stroke:#000000;stroke-width:1.5;" width="439.4814" x="57.0854" y="340.5703"/><line style="stroke:#181818;stroke-width:0.5;stroke-dasharray:5.0,5.0;" x1="137.0854" x2="137.0854" y1="78.2422" y2="522.0254"/><line style="stroke:#181818;stroke-width:0.5;stroke-dasharray:5.0,5.0;" x1="320.9263" x2="320.9263" y1="78.2422" y2="522.0254"/><line style="stroke:#181818;stroke-width:0.5;stroke-dasharray:5.0,5.0;" x1="417.2222" x2="417.2222" y1="78.2422" y2="522.0254"/><line style="stroke:#181818;stroke-width:0.5;stroke-dasharray:5.0,5.0;" x1="467.4565" x2="467.4565" y1="78.2422" y2="522.0254"/><rect fill="#E3E3E3" height="32.6211" rx="2.5" ry="2.5" style="stroke:#181818;stroke-width:0.5;" width="140.0615" x="67.0854" y="44.6211"/><text fill="#000000" font-family="sans-serif" font-size="14" lengthAdjust="spacing" textLength="126.0615" x="74.0854" y="66.7285">ListStationController</text><rect fill="#E3E3E3" height="32.6211" rx="2.5" ry="2.5" style="stroke:#181818;stroke-width:0.5;" width="140.0615" x="67.0854" y="521.0254"/><text fill="#000000" font-family="sans-serif" font-size="14" lengthAdjust="spacing" textLength="126.0615" x="74.0854" y="543.1328">ListStationController</text><rect fill="#E3E3E3" height="32.6211" rx="2.5" ry="2.5" style="stroke:#181818;stroke-width:0.5;" width="132.2959" x="254.9263" y="44.6211"/><text fill="#000000" font-family="sans-serif" font-size="14" lengthAdjust="spacing" textLength="118.2959" x="261.9263" y="66.7285">ApplicationSession</text><rect fill="#E3E3E3" height="32.6211" rx="2.5" ry="2.5" style="stroke:#181818;stroke-width:0.5;" width="132.2959" x="254.9263" y="521.0254"/><text fill="#000000" font-family="sans-serif" font-size="14" lengthAdjust="spacing" textLength="118.2959" x="261.9263" y="543.1328">ApplicationSession</text><rect fill="#E3E3E3" height="32.6211" rx="2.5" ry="2.5" style="stroke:#181818;stroke-width:0.5;" width="41.2344" x="397.2222" y="44.6211"/><text fill="#000000" font-family="sans-serif" font-size="14" lengthAdjust="spacing" textLength="27.2344" x="404.2222" y="66.7285">Map</text><rect fill="#E3E3E3" height="32.6211" rx="2.5" ry="2.5" style="stroke:#181818;stroke-width:0.5;" width="41.2344" x="397.2222" y="521.0254"/><text fill="#000000" font-family="sans-serif" font-size="14" lengthAdjust="spacing" textLength="27.2344" x="404.2222" y="543.1328">Map</text><rect fill="#E3E3E3" height="32.6211" rx="2.5" ry="2.5" style="stroke:#181818;stroke-width:0.5;" width="38.1104" x="448.4565" y="44.6211"/><text fill="#000000" font-family="sans-serif" font-size="14" lengthAdjust="spacing" textLength="24.1104" x="455.4565" y="66.7285">City</text><rect fill="#E3E3E3" height="32.6211" rx="2.5" ry="2.5" style="stroke:#181818;stroke-width:0.5;" width="38.1104" x="448.4565" y="521.0254"/><text fill="#000000" font-family="sans-serif" font-size="14" lengthAdjust="spacing" textLength="24.1104" x="455.4565" y="543.1328">City</text><rect fill="#FFFFFF" height="415.7832" style="stroke:#181818;stroke-width:1.0;" width="10" x="132.1162" y="88.2422"/><rect fill="#FFFFFF" height="31.291" style="stroke:#181818;stroke-width:1.0;" width="10" x="316.0742" y="169.1152"/><rect fill="#FFFFFF" height="31.291" style="stroke:#181818;stroke-width:1.0;" width="10" x="316.0742" y="231.6973"/><rect fill="#FFFFFF" height="31.291" style="stroke:#181818;stroke-width:1.0;" width="10" x="412.8394" y="294.2793"/><rect fill="#FFFFFF" height="31.291" style="stroke:#181818;stroke-width:1.0;" width="10" x="462.5117" y="383.1523"/><polygon fill="#181818" points="120.1162,107.5332,130.1162,111.5332,120.1162,115.5332,124.1162,111.5332" style="stroke:#181818;stroke-width:1.0;"/><line style="stroke:#181818;stroke-width:1.0;stroke-dasharray:2.0,2.0;" x1="0" x2="126.1162" y1="111.5332" y2="111.5332"/><text fill="#000000" font-family="sans-serif" font-size="13" font-weight="bold" lengthAdjust="spacing" textLength="14.46" x="7" y="106.2705">10</text><text fill="#000000" font-family="sans-serif" font-size="13" lengthAdjust="spacing" textLength="94.6563" x="25.46" y="106.2705">loadMap(mapId)</text><path d="M47.0854,126.5332 L165.0391,126.5332 L165.0391,135.8242 L155.0391,145.8242 L47.0854,145.8242 L47.0854,126.5332 " fill="#EEEEEE" style="stroke:#000000;stroke-width:1.5;"/><rect fill="none" height="347.2012" style="stroke:#000000;stroke-width:1.5;" width="459.4814" x="47.0854" y="126.5332"/><text fill="#000000" font-family="sans-serif" font-size="13" font-weight="bold" lengthAdjust="spacing" textLength="72.9536" x="62.0854" y="141.5615">GetStations</text><polygon fill="#181818" points="304.0742,165.1152,314.0742,169.1152,304.0742,173.1152,308.0742,169.1152" style="stroke:#181818;stroke-width:1.0;"/><line style="stroke:#181818;stroke-width:1.0;" x1="142.1162" x2="310.0742" y1="169.1152" y2="169.1152"/><text fill="#000000" font-family="sans-serif" font-size="13" font-weight="bold" lengthAdjust="spacing" textLength="25.3018" x="149.1162" y="163.8525">10.1</text><text fill="#000000" font-family="sans-serif" font-size="13" lengthAdjust="spacing" textLength="75.8735" x="178.418" y="163.8525">getInstance()</text><polygon fill="#181818" points="153.1162,196.4063,143.1162,200.4063,153.1162,204.4063,149.1162,200.4063" style="stroke:#181818;stroke-width:1.0;"/><line style="stroke:#181818;stroke-width:1.0;stroke-dasharray:2.0,2.0;" x1="147.1162" x2="320.0742" y1="200.4063" y2="200.4063"/><text fill="#000000" font-family="sans-serif" font-size="13" font-weight="bold" lengthAdjust="spacing" textLength="25.3018" x="159.1162" y="195.1436">10.2</text><text fill="#000000" font-family="sans-serif" font-size="13" lengthAdjust="spacing" textLength="93.2217" x="188.418" y="195.1436">sessionInstance</text><polygon fill="#181818" points="304.0742,227.6973,314.0742,231.6973,304.0742,235.6973,308.0742,231.6973" style="stroke:#181818;stroke-width:1.0;"/><line style="stroke:#181818;stroke-width:1.0;" x1="142.1162" x2="310.0742" y1="231.6973" y2="231.6973"/><text fill="#000000" font-family="sans-serif" font-size="13" font-weight="bold" lengthAdjust="spacing" textLength="25.3018" x="149.1162" y="226.4346">10.3</text><text fill="#000000" font-family="sans-serif" font-size="13" lengthAdjust="spacing" textLength="95.3672" x="178.418" y="226.4346">getCurrentMap()</text><polygon fill="#181818" points="153.1162,258.9883,143.1162,262.9883,153.1162,266.9883,149.1162,262.9883" style="stroke:#181818;stroke-width:1.0;"/><line style="stroke:#181818;stroke-width:1.0;stroke-dasharray:2.0,2.0;" x1="147.1162" x2="320.0742" y1="262.9883" y2="262.9883"/><text fill="#000000" font-family="sans-serif" font-size="13" font-weight="bold" lengthAdjust="spacing" textLength="25.3018" x="159.1162" y="257.7256">10.4</text><text fill="#000000" font-family="sans-serif" font-size="13" lengthAdjust="spacing" textLength="65.749" x="188.418" y="257.7256">currentMap</text><polygon fill="#181818" points="400.8394,290.2793,410.8394,294.2793,400.8394,298.2793,404.8394,294.2793" style="stroke:#181818;stroke-width:1.0;"/><line style="stroke:#181818;stroke-width:1.0;" x1="142.1162" x2="406.8394" y1="294.2793" y2="294.2793"/><text fill="#000000" font-family="sans-serif" font-size="13" font-weight="bold" lengthAdjust="spacing" textLength="25.3018" x="149.1162" y="289.0166">10.5</text><text fill="#000000" font-family="sans-serif" font-size="13" lengthAdjust="spacing" textLength="59.2363" x="178.418" y="289.0166">getCities()</text><polygon fill="#181818" points="153.1162,321.5703,143.1162,325.5703,153.1162,329.5703,149.1162,325.5703" style="stroke:#181818;stroke-width:1.0;"/><line style="stroke:#181818;stroke-width:1.0;stroke-dasharray:2.0,2.0;" x1="147.1162" x2="416.8394" y1="325.5703" y2="325.5703"/><text fill="#000000" font-family="sans-serif" font-size="13" font-weight="bold" lengthAdjust="spacing" textLength="25.3018" x="159.1162" y="320.3076">10.6</text><text fill="#000000" font-family="sans-serif" font-size="13" lengthAdjust="spacing" textLength="49.8481" x="188.418" y="320.3076">citiesList</text><path d="M57.0854,340.5703 L129.52,340.5703 L129.52,349.8613 L119.52,359.8613 L57.0854,359.8613 L57.0854,340.5703 " fill="#EEEEEE" style="stroke:#000000;stroke-width:1.5;"/><rect fill="none" height="81.873" style="stroke:#000000;stroke-width:1.5;" width="439.4814" x="57.0854" y="340.5703"/><text fill="#000000" font-family="sans-serif" font-size="13" font-weight="bold" lengthAdjust="spacing" textLength="27.4346" x="72.0854" y="355.5986">loop</text><text fill="#000000" font-family="sans-serif" font-size="11" font-weight="bold" lengthAdjust="spacing" textLength="135.7007" x="144.52" y="354.4404">[for each city in citiesList]</text><polygon fill="#181818" points="450.5117,379.1523,460.5117,383.1523,450.5117,387.1523,454.5117,383.1523" style="stroke:#181818;stroke-width:1.0;"/><line style="stroke:#181818;stroke-width:1.0;" x1="142.1162" x2="456.5117" y1="383.1523" y2="383.1523"/><text fill="#000000" font-family="sans-serif" font-size="13" font-weight="bold" lengthAdjust="spacing" textLength="25.3018" x="149.1162" y="377.8896">10.7</text><text fill="#000000" font-family="sans-serif" font-size="13" lengthAdjust="spacing" textLength="73.7026" x="178.418" y="377.8896">getStations()</text><polygon fill="#181818" points="153.1162,410.4434,143.1162,414.4434,153.1162,418.4434,149.1162,414.4434" style="stroke:#181818;stroke-width:1.0;"/><line style="stroke:#181818;stroke-width:1.0;stroke-dasharray:2.0,2.0;" x1="147.1162" x2="466.5117" y1="414.4434" y2="414.4434"/><text fill="#000000" font-family="sans-serif" font-size="13" font-weight="bold" lengthAdjust="spacing" textLength="25.3018" x="159.1162" y="409.1807">10.8</text><text fill="#000000" font-family="sans-serif" font-size="13" lengthAdjust="spacing" textLength="66.4727" x="188.418" y="409.1807">cityStations</text><line style="stroke:#181818;stroke-width:1.0;stroke-dasharray:2.0,2.0;" x1="142.1162" x2="184.1162" y1="452.7344" y2="452.7344"/><line style="stroke:#181818;stroke-width:1.0;stroke-dasharray:2.0,2.0;" x1="184.1162" x2="184.1162" y1="452.7344" y2="465.7344"/><line style="stroke:#181818;stroke-width:1.0;stroke-dasharray:2.0,2.0;" x1="143.1162" x2="184.1162" y1="465.7344" y2="465.7344"/><polygon fill="#181818" points="153.1162,461.7344,143.1162,465.7344,153.1162,469.7344,149.1162,465.7344" style="stroke:#181818;stroke-width:1.0;"/><text fill="#000000" font-family="sans-serif" font-size="13" font-weight="bold" lengthAdjust="spacing" textLength="25.3018" x="149.1162" y="447.4717">10.9</text><text fill="#000000" font-family="sans-serif" font-size="13" lengthAdjust="spacing" textLength="120.6563" x="178.418" y="447.4717">compileStationsList()</text><polygon fill="#181818" points="11,500.0254,1,504.0254,11,508.0254,7,504.0254" style="stroke:#181818;stroke-width:1.0;"/><line style="stroke:#181818;stroke-width:1.0;stroke-dasharray:2.0,2.0;" x1="5" x2="136.1162" y1="504.0254" y2="504.0254"/><text fill="#000000" font-family="sans-serif" font-size="13" font-weight="bold" lengthAdjust="spacing" textLength="14.46" x="17" y="498.7627">11</text><text fill="#000000" font-family="sans-serif" font-size="13" lengthAdjust="spacing" textLength="65.0317" x="35.46" y="498.7627">stationsList</text><!--SRC=[hPF1QiCm38RlVWeTsqD6UngKCHWTZC9s2di0pL5JKyVsR6KZRpyxROF3qWosdKAi___rMSZXg8n3ZmqqrbXvyBOXOD-I24F5eJnYJILtci2JP3IrpWNXW9NzLAQ6FUf00bksfctUo0l1YgEhx09J0oMzjsGamQF2EZaty5gkRg609s8e6LbP4uI8iQoaScWOdbNWSsLh3NkhTSpD5G_EQILxHKaXnC-e_89kzBzLtEM8A5bz8DELJfaKrYjH5FVJmWreYrLijcZGxQgb4BMthKit6ousYhfP2vYEWjZZ-wNYi6hYdGbn_f8Mo-WUq2T605CHL-bZU3XfBWrYG4Lp3Nv3lssz9yDfIl_EBuViFw57_vbLiQ8mvZo59yaiIUzCrJ59SiSJRQs3lVKGAuSaxa2PiMc6Bwtl2V2oLZrY1jalU3hffJ-0TiDo9aS6UquXKysCQoxRDavfkiGdMGHDSVahM8kxehZse4Bc5HdQz4Fz0W00]--></g></svg>