<svg xmlns="http://www.w3.org/2000/svg" xmlns:xlink="http://www.w3.org/1999/xlink" contentStyleType="text/css" height="665.7px" preserveAspectRatio="none" style="width:575px;height:665px;background:#FFFFFF;" version="1.1" viewBox="0 0 575 665" width="575.4px" zoomAndPan="magnify"><title>System Sequence Diagram : US07 - List stations and view details</title><defs/><g><text fill="#000000" font-family="sans-serif" font-size="9.8" font-weight="bold" lengthAdjust="spacing" textLength="303.355" x="135.5556" y="21.0752">System Sequence Diagram : US07 - List stations and view details</text><rect fill="#FFFFFF" height="508.1686" style="stroke:#181818;stroke-width:0.6999999999999998;" width="7" x="15.9889" y="93.2695"/><rect fill="#FFFFFF" height="99.4875" style="stroke:#181818;stroke-width:0.6999999999999998;" width="7" x="194.3519" y="109.5732"/><rect fill="#FFFFFF" height="99.4875" style="stroke:#181818;stroke-width:0.6999999999999998;" width="7" x="194.3519" y="230.9645"/><rect fill="#FFFFFF" height="121.3912" style="stroke:#181818;stroke-width:0.6999999999999998;" width="7" x="194.3519" y="352.3557"/><rect fill="#FFFFFF" height="99.4875" style="stroke:#181818;stroke-width:0.6999999999999998;" width="7" x="194.3519" y="495.6506"/><rect fill="#FFFFFF" height="55.6801" style="stroke:#181818;stroke-width:0.6999999999999998;" width="7" x="336.8316" y="131.477"/><rect fill="#FFFFFF" height="55.6801" style="stroke:#181818;stroke-width:0.6999999999999998;" width="7" x="336.8316" y="252.8682"/><rect fill="#FFFFFF" height="55.6801" style="stroke:#181818;stroke-width:0.6999999999999998;" width="7" x="336.8316" y="374.2594"/><rect fill="#FFFFFF" height="55.6801" style="stroke:#181818;stroke-width:0.6999999999999998;" width="7" x="336.8316" y="517.5543"/><line style="stroke:#181818;stroke-width:0.3499999999999999;stroke-dasharray:5.0,5.0;" x1="18.9" x2="18.9" y1="86.2695" y2="607.7381"/><line style="stroke:#181818;stroke-width:0.3499999999999999;stroke-dasharray:5.0,5.0;" x1="197.3716" x2="197.3716" y1="86.2695" y2="607.7381"/><line style="stroke:#181818;stroke-width:0.3499999999999999;stroke-dasharray:5.0,5.0;" x1="340.3101" x2="340.3101" y1="86.2695" y2="607.7381"/><line style="stroke:#181818;stroke-width:0.3499999999999999;stroke-dasharray:5.0,5.0;" x1="434.1531" x2="434.1531" y1="86.2695" y2="607.7381"/><line style="stroke:#181818;stroke-width:0.3499999999999999;stroke-dasharray:5.0,5.0;" x1="525.2591" x2="525.2591" y1="86.2695" y2="607.7381"/><text fill="#000000" font-family="sans-serif" font-size="9.8" lengthAdjust="spacing" textLength="27.7778" x="3.5" y="83.81">Player</text><ellipse cx="19.4889" cy="37.1848" fill="#E3E3E3" rx="5.6" ry="5.6" style="stroke:#181818;stroke-width:0.3499999999999999;"/><path d="M19.4889,42.7848 L19.4889,61.6848 M10.3889,48.3848 L28.5889,48.3848 M19.4889,61.6848 L10.3889,72.1848 M19.4889,61.6848 L28.5889,72.1848 " fill="none" style="stroke:#181818;stroke-width:0.3499999999999999;"/><text fill="#000000" font-family="sans-serif" font-size="9.8" lengthAdjust="spacing" textLength="27.7778" x="3.5" y="617.6133">Player</text><ellipse cx="19.4889" cy="626.0229" fill="#E3E3E3" rx="5.6" ry="5.6" style="stroke:#181818;stroke-width:0.3499999999999999;"/><path d="M19.4889,631.6229 L19.4889,650.5229 M10.3889,637.2229 L28.5889,637.2229 M19.4889,650.5229 L10.3889,661.0229 M19.4889,650.5229 L28.5889,661.0229 " fill="none" style="stroke:#181818;stroke-width:0.3499999999999999;"/><rect fill="#E3E3E3" height="22.8348" rx="1.75" ry="1.75" style="stroke:#181818;stroke-width:0.3499999999999999;" width="65.3604" x="165.1716" y="62.7348"/><text fill="#000000" font-family="sans-serif" font-size="9.8" lengthAdjust="spacing" textLength="55.5604" x="170.0716" y="78.21">ListStationUI</text><rect fill="#E3E3E3" height="22.8348" rx="1.75" ry="1.75" style="stroke:#181818;stroke-width:0.3499999999999999;" width="65.3604" x="165.1716" y="607.0381"/><text fill="#000000" font-family="sans-serif" font-size="9.8" lengthAdjust="spacing" textLength="55.5604" x="170.0716" y="622.5133">ListStationUI</text><rect fill="#E3E3E3" height="22.8348" rx="1.75" ry="1.75" style="stroke:#181818;stroke-width:0.3499999999999999;" width="98.0431" x="291.3101" y="62.7348"/><text fill="#000000" font-family="sans-serif" font-size="9.8" lengthAdjust="spacing" textLength="88.2431" x="296.2101" y="78.21">ListStationController</text><rect fill="#E3E3E3" height="22.8348" rx="1.75" ry="1.75" style="stroke:#181818;stroke-width:0.3499999999999999;" width="98.0431" x="291.3101" y="607.0381"/><text fill="#000000" font-family="sans-serif" font-size="9.8" lengthAdjust="spacing" textLength="88.2431" x="296.2101" y="622.5133">ListStationController</text><rect fill="#E3E3E3" height="22.8348" rx="1.75" ry="1.75" style="stroke:#181818;stroke-width:0.3499999999999999;" width="75.706" x="396.3531" y="62.7348"/><text fill="#000000" font-family="sans-serif" font-size="9.8" lengthAdjust="spacing" textLength="65.906" x="401.2531" y="78.21">MapRepository</text><rect fill="#E3E3E3" height="22.8348" rx="1.75" ry="1.75" style="stroke:#181818;stroke-width:0.3499999999999999;" width="75.706" x="396.3531" y="607.0381"/><text fill="#000000" font-family="sans-serif" font-size="9.8" lengthAdjust="spacing" textLength="65.906" x="401.2531" y="622.5133">MapRepository</text><rect fill="#E3E3E3" height="22.8348" rx="1.75" ry="1.75" style="stroke:#181818;stroke-width:0.3499999999999999;" width="92.6071" x="479.0591" y="62.7348"/><text fill="#000000" font-family="sans-serif" font-size="9.8" lengthAdjust="spacing" textLength="82.8071" x="483.9591" y="78.21">ApplicationSession</text><rect fill="#E3E3E3" height="22.8348" rx="1.75" ry="1.75" style="stroke:#181818;stroke-width:0.3499999999999999;" width="92.6071" x="479.0591" y="607.0381"/><text fill="#000000" font-family="sans-serif" font-size="9.8" lengthAdjust="spacing" textLength="82.8071" x="483.9591" y="622.5133">ApplicationSession</text><rect fill="#FFFFFF" height="508.1686" style="stroke:#181818;stroke-width:0.6999999999999998;" width="7" x="15.9889" y="93.2695"/><rect fill="#FFFFFF" height="99.4875" style="stroke:#181818;stroke-width:0.6999999999999998;" width="7" x="194.3519" y="109.5732"/><rect fill="#FFFFFF" height="99.4875" style="stroke:#181818;stroke-width:0.6999999999999998;" width="7" x="194.3519" y="230.9645"/><rect fill="#FFFFFF" height="121.3912" style="stroke:#181818;stroke-width:0.6999999999999998;" width="7" x="194.3519" y="352.3557"/><rect fill="#FFFFFF" height="99.4875" style="stroke:#181818;stroke-width:0.6999999999999998;" width="7" x="194.3519" y="495.6506"/><rect fill="#FFFFFF" height="55.6801" style="stroke:#181818;stroke-width:0.6999999999999998;" width="7" x="336.8316" y="131.477"/><rect fill="#FFFFFF" height="55.6801" style="stroke:#181818;stroke-width:0.6999999999999998;" width="7" x="336.8316" y="252.8682"/><rect fill="#FFFFFF" height="55.6801" style="stroke:#181818;stroke-width:0.6999999999999998;" width="7" x="336.8316" y="374.2594"/><rect fill="#FFFFFF" height="55.6801" style="stroke:#181818;stroke-width:0.6999999999999998;" width="7" x="336.8316" y="517.5543"/><polygon fill="#181818" points="185.9519,106.7732,192.9519,109.5732,185.9519,112.3732,188.7519,109.5732" style="stroke:#181818;stroke-width:0.6999999999999998;"/><line style="stroke:#181818;stroke-width:0.6999999999999998;" x1="22.9889" x2="190.1519" y1="109.5732" y2="109.5732"/><text fill="#000000" font-family="sans-serif" font-size="9.1" font-weight="bold" lengthAdjust="spacing" textLength="5.061" x="27.8889" y="105.8894">1</text><text fill="#000000" font-family="sans-serif" font-size="9.1" lengthAdjust="spacing" textLength="109.2578" x="35.7499" y="105.8894">asks to see available maps</text><polygon fill="#181818" points="328.4316,128.677,335.4316,131.477,328.4316,134.277,331.2316,131.477" style="stroke:#181818;stroke-width:0.6999999999999998;"/><line style="stroke:#181818;stroke-width:0.6999999999999998;stroke-dasharray:2.0,2.0;" x1="201.3519" x2="332.6316" y1="131.477" y2="131.477"/><text fill="#000000" font-family="sans-serif" font-size="9.1" font-weight="bold" lengthAdjust="spacing" textLength="5.061" x="206.2519" y="127.7931">2</text><text fill="#000000" font-family="sans-serif" font-size="9.1" lengthAdjust="spacing" textLength="77.8921" x="214.1128" y="127.7931">getAvailableMaps()</text><rect fill="none" height="30.2764" style="stroke:#000000;stroke-width:1.0499999999999998;" width="102.2431" x="289.2101" y="137.077"/><path d="M289.2101,137.077 L331.9101,137.077 L331.9101,143.377 L324.9101,150.377 L289.2101,150.377 L289.2101,137.077 " fill="#EEEEEE" style="stroke:#000000;stroke-width:1.3999999999999997;"/><text fill="#000000" font-family="sans-serif" font-size="9.1" font-weight="bold" lengthAdjust="spacing" textLength="11.6327" x="298.3101" y="148.2968">ref</text><text fill="#000000" font-family="sans-serif" font-size="8.4" lengthAdjust="spacing" textLength="68.168" x="306.2476" y="162.2414">GetAvailableMaps</text><polygon fill="#181818" points="209.0519,184.357,202.0519,187.157,209.0519,189.957,206.2519,187.157" style="stroke:#181818;stroke-width:0.6999999999999998;"/><line style="stroke:#181818;stroke-width:0.6999999999999998;stroke-dasharray:2.0,2.0;" x1="204.8519" x2="339.6316" y1="187.157" y2="187.157"/><text fill="#000000" font-family="sans-serif" font-size="9.1" font-weight="bold" lengthAdjust="spacing" textLength="5.061" x="213.2519" y="183.4731">3</text><text fill="#000000" font-family="sans-serif" font-size="9.1" lengthAdjust="spacing" textLength="72.3334" x="221.1128" y="183.4731">availableMapsList</text><polygon fill="#181818" points="30.6889,206.2607,23.6889,209.0607,30.6889,211.8607,27.8889,209.0607" style="stroke:#181818;stroke-width:0.6999999999999998;"/><line style="stroke:#181818;stroke-width:0.6999999999999998;stroke-dasharray:2.0,2.0;" x1="26.4889" x2="197.1519" y1="209.0607" y2="209.0607"/><text fill="#000000" font-family="sans-serif" font-size="9.1" font-weight="bold" lengthAdjust="spacing" textLength="5.061" x="34.8889" y="205.3769">4</text><text fill="#000000" font-family="sans-serif" font-size="9.1" lengthAdjust="spacing" textLength="112.7902" x="42.7499" y="205.3769">shows list of available maps</text><polygon fill="#181818" points="185.9519,228.1645,192.9519,230.9645,185.9519,233.7645,188.7519,230.9645" style="stroke:#181818;stroke-width:0.6999999999999998;"/><line style="stroke:#181818;stroke-width:0.6999999999999998;" x1="22.9889" x2="190.1519" y1="230.9645" y2="230.9645"/><text fill="#000000" font-family="sans-serif" font-size="9.1" font-weight="bold" lengthAdjust="spacing" textLength="5.061" x="27.8889" y="227.2806">5</text><text fill="#000000" font-family="sans-serif" font-size="9.1" lengthAdjust="spacing" textLength="56.1418" x="35.7499" y="227.2806">selects a map</text><polygon fill="#181818" points="328.4316,250.0682,335.4316,252.8682,328.4316,255.6682,331.2316,252.8682" style="stroke:#181818;stroke-width:0.6999999999999998;"/><line style="stroke:#181818;stroke-width:0.6999999999999998;stroke-dasharray:2.0,2.0;" x1="201.3519" x2="332.6316" y1="252.8682" y2="252.8682"/><text fill="#000000" font-family="sans-serif" font-size="9.1" font-weight="bold" lengthAdjust="spacing" textLength="5.061" x="206.2519" y="249.1843">6</text><text fill="#000000" font-family="sans-serif" font-size="9.1" lengthAdjust="spacing" textLength="66.2594" x="214.1128" y="249.1843">loadMap(mapId)</text><rect fill="none" height="30.2764" style="stroke:#000000;stroke-width:1.0499999999999998;" width="102.2431" x="289.2101" y="258.4682"/><path d="M289.2101,258.4682 L331.9101,258.4682 L331.9101,264.7682 L324.9101,271.7682 L289.2101,271.7682 L289.2101,258.4682 " fill="#EEEEEE" style="stroke:#000000;stroke-width:1.3999999999999997;"/><text fill="#000000" font-family="sans-serif" font-size="9.1" font-weight="bold" lengthAdjust="spacing" textLength="11.6327" x="298.3101" y="269.688">ref</text><text fill="#000000" font-family="sans-serif" font-size="8.4" lengthAdjust="spacing" textLength="35.0273" x="322.8179" y="283.6326">LoadMap</text><polygon fill="#181818" points="209.0519,305.7482,202.0519,308.5482,209.0519,311.3482,206.2519,308.5482" style="stroke:#181818;stroke-width:0.6999999999999998;"/><line style="stroke:#181818;stroke-width:0.6999999999999998;stroke-dasharray:2.0,2.0;" x1="204.8519" x2="339.6316" y1="308.5482" y2="308.5482"/><text fill="#000000" font-family="sans-serif" font-size="9.1" font-weight="bold" lengthAdjust="spacing" textLength="5.061" x="213.2519" y="304.8644">7</text><text fill="#000000" font-family="sans-serif" font-size="9.1" lengthAdjust="spacing" textLength="51.5963" x="221.1128" y="304.8644">selectedMap</text><polygon fill="#181818" points="30.6889,327.652,23.6889,330.452,30.6889,333.252,27.8889,330.452" style="stroke:#181818;stroke-width:0.6999999999999998;"/><line style="stroke:#181818;stroke-width:0.6999999999999998;stroke-dasharray:2.0,2.0;" x1="26.4889" x2="197.1519" y1="330.452" y2="330.452"/><text fill="#000000" font-family="sans-serif" font-size="9.1" font-weight="bold" lengthAdjust="spacing" textLength="5.061" x="34.8889" y="326.7681">8</text><text fill="#000000" font-family="sans-serif" font-size="9.1" lengthAdjust="spacing" textLength="146.702" x="42.7499" y="326.7681">loads and displays the selected map</text><polygon fill="#181818" points="185.9519,349.5557,192.9519,352.3557,185.9519,355.1557,188.7519,352.3557" style="stroke:#181818;stroke-width:0.6999999999999998;"/><line style="stroke:#181818;stroke-width:0.6999999999999998;" x1="22.9889" x2="190.1519" y1="352.3557" y2="352.3557"/><text fill="#000000" font-family="sans-serif" font-size="9.1" font-weight="bold" lengthAdjust="spacing" textLength="5.061" x="27.8889" y="348.6718">9</text><text fill="#000000" font-family="sans-serif" font-size="9.1" lengthAdjust="spacing" textLength="130.0083" x="35.7499" y="348.6718">request to see available stations</text><polygon fill="#181818" points="328.4316,371.4594,335.4316,374.2594,328.4316,377.0594,331.2316,374.2594" style="stroke:#181818;stroke-width:0.6999999999999998;"/><line style="stroke:#181818;stroke-width:0.6999999999999998;stroke-dasharray:2.0,2.0;" x1="201.3519" x2="332.6316" y1="374.2594" y2="374.2594"/><text fill="#000000" font-family="sans-serif" font-size="9.1" font-weight="bold" lengthAdjust="spacing" textLength="10.122" x="206.2519" y="370.5755">10</text><text fill="#000000" font-family="sans-serif" font-size="9.1" lengthAdjust="spacing" textLength="76.8834" x="219.1738" y="370.5755">getStations(mapId)</text><rect fill="none" height="30.2764" style="stroke:#000000;stroke-width:1.0499999999999998;" width="102.2431" x="289.2101" y="379.8594"/><path d="M289.2101,379.8594 L331.9101,379.8594 L331.9101,386.1594 L324.9101,393.1594 L289.2101,393.1594 L289.2101,379.8594 " fill="#EEEEEE" style="stroke:#000000;stroke-width:1.3999999999999997;"/><text fill="#000000" font-family="sans-serif" font-size="9.1" font-weight="bold" lengthAdjust="spacing" textLength="11.6327" x="298.3101" y="391.0792">ref</text><text fill="#000000" font-family="sans-serif" font-size="8.4" lengthAdjust="spacing" textLength="43.8908" x="318.3862" y="405.0238">GetStations</text><polygon fill="#181818" points="209.0519,427.1395,202.0519,429.9395,209.0519,432.7395,206.2519,429.9395" style="stroke:#181818;stroke-width:0.6999999999999998;"/><line style="stroke:#181818;stroke-width:0.6999999999999998;stroke-dasharray:2.0,2.0;" x1="204.8519" x2="339.6316" y1="429.9395" y2="429.9395"/><text fill="#000000" font-family="sans-serif" font-size="9.1" font-weight="bold" lengthAdjust="spacing" textLength="10.122" x="213.2519" y="426.2556">11</text><text fill="#000000" font-family="sans-serif" font-size="9.1" lengthAdjust="spacing" textLength="45.5222" x="226.1738" y="426.2556">stationsList</text><polygon fill="#181818" points="30.6889,449.0432,23.6889,451.8432,30.6889,454.6432,27.8889,451.8432" style="stroke:#181818;stroke-width:0.6999999999999998;"/><line style="stroke:#181818;stroke-width:0.6999999999999998;stroke-dasharray:2.0,2.0;" x1="26.4889" x2="193.6519" y1="451.8432" y2="451.8432"/><text fill="#000000" font-family="sans-serif" font-size="9.1" font-weight="bold" lengthAdjust="spacing" textLength="10.122" x="34.8889" y="448.1593">12</text><text fill="#000000" font-family="sans-serif" font-size="9.1" lengthAdjust="spacing" textLength="128.9818" x="47.8109" y="448.1593">displays list of available stations</text><polygon fill="#181818" points="30.6889,470.9469,23.6889,473.7469,30.6889,476.5469,27.8889,473.7469" style="stroke:#181818;stroke-width:0.6999999999999998;"/><line style="stroke:#181818;stroke-width:0.6999999999999998;stroke-dasharray:2.0,2.0;" x1="26.4889" x2="197.1519" y1="473.7469" y2="473.7469"/><text fill="#000000" font-family="sans-serif" font-size="9.1" font-weight="bold" lengthAdjust="spacing" textLength="10.122" x="34.8889" y="470.063">13</text><text fill="#000000" font-family="sans-serif" font-size="9.1" lengthAdjust="spacing" textLength="141.1211" x="47.8109" y="470.063">requests to select a specific station</text><polygon fill="#181818" points="185.9519,492.8506,192.9519,495.6506,185.9519,498.4506,188.7519,495.6506" style="stroke:#181818;stroke-width:0.6999999999999998;"/><line style="stroke:#181818;stroke-width:0.6999999999999998;" x1="22.9889" x2="190.1519" y1="495.6506" y2="495.6506"/><text fill="#000000" font-family="sans-serif" font-size="9.1" font-weight="bold" lengthAdjust="spacing" textLength="10.122" x="27.8889" y="491.9667">14</text><text fill="#000000" font-family="sans-serif" font-size="9.1" lengthAdjust="spacing" textLength="98.1227" x="40.8109" y="491.9667">selects a specific station</text><polygon fill="#181818" points="328.4316,514.7543,335.4316,517.5543,328.4316,520.3543,331.2316,517.5543" style="stroke:#181818;stroke-width:0.6999999999999998;"/><line style="stroke:#181818;stroke-width:0.6999999999999998;stroke-dasharray:2.0,2.0;" x1="201.3519" x2="332.6316" y1="517.5543" y2="517.5543"/><text fill="#000000" font-family="sans-serif" font-size="9.1" font-weight="bold" lengthAdjust="spacing" textLength="10.122" x="206.2519" y="513.8704">15</text><text fill="#000000" font-family="sans-serif" font-size="9.1" lengthAdjust="spacing" textLength="109.2578" x="219.1738" y="513.8704">getStationDetails(stationId)</text><rect fill="none" height="30.2764" style="stroke:#000000;stroke-width:1.0499999999999998;" width="102.2431" x="289.2101" y="523.1543"/><path d="M289.2101,523.1543 L331.9101,523.1543 L331.9101,529.4543 L324.9101,536.4543 L289.2101,536.4543 L289.2101,523.1543 " fill="#EEEEEE" style="stroke:#000000;stroke-width:1.3999999999999997;"/><text fill="#000000" font-family="sans-serif" font-size="9.1" font-weight="bold" lengthAdjust="spacing" textLength="11.6327" x="298.3101" y="534.3741">ref</text><text fill="#000000" font-family="sans-serif" font-size="8.4" lengthAdjust="spacing" textLength="65.3666" x="307.6483" y="548.3187">GetStationDetails</text><polygon fill="#181818" points="209.0519,570.4344,202.0519,573.2344,209.0519,576.0344,206.2519,573.2344" style="stroke:#181818;stroke-width:0.6999999999999998;"/><line style="stroke:#181818;stroke-width:0.6999999999999998;stroke-dasharray:2.0,2.0;" x1="204.8519" x2="339.6316" y1="573.2344" y2="573.2344"/><text fill="#000000" font-family="sans-serif" font-size="9.1" font-weight="bold" lengthAdjust="spacing" textLength="10.122" x="213.2519" y="569.5505">16</text><text fill="#000000" font-family="sans-serif" font-size="9.1" lengthAdjust="spacing" textLength="54.6267" x="226.1738" y="569.5505">stationDetails</text><polygon fill="#181818" points="30.6889,592.3381,23.6889,595.1381,30.6889,597.9381,27.8889,595.1381" style="stroke:#181818;stroke-width:0.6999999999999998;"/><line style="stroke:#181818;stroke-width:0.6999999999999998;stroke-dasharray:2.0,2.0;" x1="26.4889" x2="197.1519" y1="595.1381" y2="595.1381"/><text fill="#000000" font-family="sans-serif" font-size="9.1" font-weight="bold" lengthAdjust="spacing" textLength="10.122" x="34.8889" y="591.4542">17</text><text fill="#000000" font-family="sans-serif" font-size="9.1" lengthAdjust="spacing" textLength="79.4162" x="47.8109" y="591.4542">show station details</text><!--SRC=[lPR1QkCm48RlVegXf-mXiBU571RA5agX2ykQFi3KdZWYigJLA0bv-nt7jcB7Tf9IKrziBEd_H_FDoEQjCWuzbb1QOxEDjoL1y3jAE8uupBPOK1gEci1J5j0KkZk1DvZRWp85h54p9RWBrkpAT_994bIGLUcH0vMGqhyTcOpWIM5HhLp1M_hz1opXLN403XYKDGneSjWhEa1E0PNc9C4iM0yFVpGUoJy0CjIFYKGGLAOScd0IIMkDjvUfaL_M16-rlbZx6zrVSfQL-1nx8u_EQPMTrgR4BBTJE6gFWTeewXiiV_PZaFqXRnc21IO2tCjcy5toKQBZ19ehYlNZRuVxYik-ntatubLGU6mjP3-y-7RLevE9EC_J6knUrCRdjTEUBvpY09byBF1EcCkn97Mrgi6eaTEzaG_JL4DPINdQ0uEkAiokfo2C6tKmn8S9rk93Mff3ghTIdfdk2hJ5NDAp4EsN_6wmW-Zl1FnQkuro_IZWDZFKKxn9zZROAYNrOP4hTl9IEcr3qQs7OPBlbTxrrN4bLJDet_QWcXsoT73pbhy8zFFPSIxOZTp7-lYQNm-xS8cqXpqz87D5fi7R7CzLpKZhigDChLNMAdsgWCudmgJi_9NpL7yp5utJbzPGuprl9LsApbfBrSUXDOg_6pUP_mS0]--></g></svg>