<svg xmlns="http://www.w3.org/2000/svg" xmlns:xlink="http://www.w3.org/1999/xlink" contentStyleType="text/css" height="462px" preserveAspectRatio="none" style="width:731px;height:462px;background:#FFFFFF;" version="1.1" viewBox="0 0 731 462" width="731px" zoomAndPan="magnify"><title>System Sequence Diagram : Ref - Get available maps</title><defs/><g><text fill="#000000" font-family="sans-serif" font-size="14" font-weight="bold" lengthAdjust="spacing" textLength="363.7047" x="185.5069" y="29.9659">System Sequence Diagram : Ref - Get available maps</text><rect fill="#FFFFFF" height="279.3541" style="stroke:#181818;stroke-width:1.0;" width="10" x="146.4481" y="108.2038"/><rect fill="#FFFFFF" height="31.706" style="stroke:#181818;stroke-width:1.0;" width="10" x="386.2404" y="253.7338"/><rect fill="#FFFFFF" height="31.706" style="stroke:#181818;stroke-width:1.0;" width="10" x="504.558" y="317.1459"/><rect fill="#FFFFFF" height="31.706" style="stroke:#181818;stroke-width:1.0;" width="10" x="641.9786" y="190.3218"/><rect fill="none" height="209.9421" style="stroke:#000000;stroke-width:1.5;" width="658.904" x="66.8144" y="146.9098"/><line style="stroke:#181818;stroke-width:0.5;stroke-dasharray:5.0,5.0;" x1="150.8144" x2="150.8144" y1="98.2038" y2="405.5579"/><line style="stroke:#181818;stroke-width:0.5;stroke-dasharray:5.0,5.0;" x1="283.0819" x2="283.0819" y1="98.2038" y2="405.5579"/><line style="stroke:#181818;stroke-width:0.5;stroke-dasharray:5.0,5.0;" x1="390.6036" x2="390.6036" y1="98.2038" y2="405.5579"/><line style="stroke:#181818;stroke-width:0.5;stroke-dasharray:5.0,5.0;" x1="508.8772" x2="508.8772" y1="98.2038" y2="405.5579"/><line style="stroke:#181818;stroke-width:0.5;stroke-dasharray:5.0,5.0;" x1="646.2389" x2="646.2389" y1="98.2038" y2="405.5579"/><rect fill="#E3E3E3" height="33.0679" rx="2.5" ry="2.5" style="stroke:#181818;stroke-width:0.5;" width="149.2675" x="76.8144" y="64.1358"/><text fill="#000000" font-family="sans-serif" font-size="14" lengthAdjust="spacing" textLength="135.2675" x="83.8144" y="86.1018">ListStationController</text><rect fill="#E3E3E3" height="33.0679" rx="2.5" ry="2.5" style="stroke:#181818;stroke-width:0.5;" width="149.2675" x="76.8144" y="404.5579"/><text fill="#000000" font-family="sans-serif" font-size="14" lengthAdjust="spacing" textLength="135.2675" x="83.8144" y="426.5238">ListStationController</text><rect fill="#E3E3E3" height="33.0679" rx="2.5" ry="2.5" style="stroke:#181818;stroke-width:0.5;" width="95.5217" x="236.0819" y="64.1358"/><text fill="#000000" font-family="sans-serif" font-size="14" lengthAdjust="spacing" textLength="81.5217" x="243.0819" y="86.1018">Repositories</text><rect fill="#E3E3E3" height="33.0679" rx="2.5" ry="2.5" style="stroke:#181818;stroke-width:0.5;" width="95.5217" x="236.0819" y="404.5579"/><text fill="#000000" font-family="sans-serif" font-size="14" lengthAdjust="spacing" textLength="81.5217" x="243.0819" y="426.5238">Repositories</text><rect fill="#E3E3E3" height="52.1358" rx="2.5" ry="2.5" style="stroke:#181818;stroke-width:0.5;" width="99.2737" x="341.6036" y="45.0679"/><text fill="#000000" font-family="sans-serif" font-size="14" lengthAdjust="spacing" textLength="78.5957" x="351.9425" y="67.0339">repositories</text><text fill="#000000" font-family="sans-serif" font-size="14" lengthAdjust="spacing" textLength="85.2737" x="348.6036" y="86.1018">:Repositories</text><rect fill="#E3E3E3" height="52.1358" rx="2.5" ry="2.5" style="stroke:#181818;stroke-width:0.5;" width="99.2737" x="341.6036" y="404.5579"/><text fill="#000000" font-family="sans-serif" font-size="14" lengthAdjust="spacing" textLength="78.5957" x="351.9425" y="426.5238">repositories</text><text fill="#000000" font-family="sans-serif" font-size="14" lengthAdjust="spacing" textLength="85.2737" x="348.6036" y="445.5918">:Repositories</text><rect fill="#E3E3E3" height="52.1358" rx="2.5" ry="2.5" style="stroke:#181818;stroke-width:0.5;" width="117.3616" x="450.8772" y="45.0679"/><text fill="#000000" font-family="sans-serif" font-size="14" lengthAdjust="spacing" textLength="100.0016" x="459.5572" y="67.0339">mapRepository</text><text fill="#000000" font-family="sans-serif" font-size="14" lengthAdjust="spacing" textLength="103.3616" x="457.8772" y="86.1018">:MapRepository</text><rect fill="#E3E3E3" height="52.1358" rx="2.5" ry="2.5" style="stroke:#181818;stroke-width:0.5;" width="117.3616" x="450.8772" y="404.5579"/><text fill="#000000" font-family="sans-serif" font-size="14" lengthAdjust="spacing" textLength="100.0016" x="459.5572" y="426.5238">mapRepository</text><text fill="#000000" font-family="sans-serif" font-size="14" lengthAdjust="spacing" textLength="103.3616" x="457.8772" y="445.5918">:MapRepository</text><rect fill="#E3E3E3" height="33.0679" rx="2.5" ry="2.5" style="stroke:#181818;stroke-width:0.5;" width="137.4795" x="578.2389" y="64.1358"/><text fill="#000000" font-family="sans-serif" font-size="14" lengthAdjust="spacing" textLength="123.4795" x="585.2389" y="86.1018">ApplicationSession</text><rect fill="#E3E3E3" height="33.0679" rx="2.5" ry="2.5" style="stroke:#181818;stroke-width:0.5;" width="137.4795" x="578.2389" y="404.5579"/><text fill="#000000" font-family="sans-serif" font-size="14" lengthAdjust="spacing" textLength="123.4795" x="585.2389" y="426.5238">ApplicationSession</text><rect fill="#FFFFFF" height="279.3541" style="stroke:#181818;stroke-width:1.0;" width="10" x="146.4481" y="108.2038"/><rect fill="#FFFFFF" height="31.706" style="stroke:#181818;stroke-width:1.0;" width="10" x="386.2404" y="253.7338"/><rect fill="#FFFFFF" height="31.706" style="stroke:#181818;stroke-width:1.0;" width="10" x="504.558" y="317.1459"/><rect fill="#FFFFFF" height="31.706" style="stroke:#181818;stroke-width:1.0;" width="10" x="641.9786" y="190.3218"/><polygon fill="#181818" points="134.4481,127.9098,144.4481,131.9098,134.4481,135.9098,138.4481,131.9098" style="stroke:#181818;stroke-width:1.0;"/><line style="stroke:#181818;stroke-width:1.0;stroke-dasharray:2.0,2.0;" x1="0" x2="140.4481" y1="131.9098" y2="131.9098"/><text fill="#000000" font-family="sans-serif" font-size="13" font-weight="bold" lengthAdjust="spacing" textLength="7.436" x="7" y="126.1008">1</text><text fill="#000000" font-family="sans-serif" font-size="13" lengthAdjust="spacing" textLength="116.0121" x="18.436" y="126.1008">getAvailableMaps()</text><path d="M66.8144,146.9098 L229.0224,146.9098 L229.0224,156.6158 L219.0224,166.6158 L66.8144,166.6158 L66.8144,146.9098 " fill="#EEEEEE" style="stroke:#000000;stroke-width:1.5;"/><rect fill="none" height="209.9421" style="stroke:#000000;stroke-width:1.5;" width="658.904" x="66.8144" y="146.9098"/><text fill="#000000" font-family="sans-serif" font-size="13" font-weight="bold" lengthAdjust="spacing" textLength="117.2081" x="81.8144" y="161.8068">GetAvailableMaps</text><polygon fill="#181818" points="629.9786,186.3218,639.9786,190.3218,629.9786,194.3218,633.9786,190.3218" style="stroke:#181818;stroke-width:1.0;"/><line style="stroke:#181818;stroke-width:1.0;" x1="156.4481" x2="635.9786" y1="190.3218" y2="190.3218"/><text fill="#000000" font-family="sans-serif" font-size="13" font-weight="bold" lengthAdjust="spacing" textLength="7.436" x="163.4481" y="184.5128">2</text><text fill="#000000" font-family="sans-serif" font-size="13" lengthAdjust="spacing" textLength="80.0801" x="174.8841" y="184.5128">getInstance()</text><polygon fill="#181818" points="167.4481,218.0278,157.4481,222.0278,167.4481,226.0278,163.4481,222.0278" style="stroke:#181818;stroke-width:1.0;"/><line style="stroke:#181818;stroke-width:1.0;stroke-dasharray:2.0,2.0;" x1="161.4481" x2="645.9786" y1="222.0278" y2="222.0278"/><text fill="#000000" font-family="sans-serif" font-size="13" font-weight="bold" lengthAdjust="spacing" textLength="7.436" x="173.4481" y="216.2188">3</text><text fill="#000000" font-family="sans-serif" font-size="13" lengthAdjust="spacing" textLength="69.4591" x="184.8841" y="216.2188">appSession</text><polygon fill="#181818" points="374.2404,249.7338,384.2404,253.7338,374.2404,257.7338,378.2404,253.7338" style="stroke:#181818;stroke-width:1.0;"/><line style="stroke:#181818;stroke-width:1.0;" x1="156.4481" x2="380.2404" y1="253.7338" y2="253.7338"/><text fill="#000000" font-family="sans-serif" font-size="13" font-weight="bold" lengthAdjust="spacing" textLength="7.436" x="163.4481" y="247.9248">4</text><text fill="#000000" font-family="sans-serif" font-size="13" lengthAdjust="spacing" textLength="120.3151" x="174.8841" y="247.9248">getMapRepository()</text><polygon fill="#181818" points="167.4481,281.4398,157.4481,285.4398,167.4481,289.4398,163.4481,285.4398" style="stroke:#181818;stroke-width:1.0;"/><line style="stroke:#181818;stroke-width:1.0;stroke-dasharray:2.0,2.0;" x1="161.4481" x2="390.2404" y1="285.4398" y2="285.4398"/><text fill="#000000" font-family="sans-serif" font-size="13" font-weight="bold" lengthAdjust="spacing" textLength="7.436" x="173.4481" y="279.6308">5</text><text fill="#000000" font-family="sans-serif" font-size="13" lengthAdjust="spacing" textLength="92.8591" x="184.8841" y="279.6308">mapRepository</text><polygon fill="#181818" points="492.558,313.1459,502.558,317.1459,492.558,321.1459,496.558,317.1459" style="stroke:#181818;stroke-width:1.0;"/><line style="stroke:#181818;stroke-width:1.0;" x1="156.4481" x2="498.558" y1="317.1459" y2="317.1459"/><text fill="#000000" font-family="sans-serif" font-size="13" font-weight="bold" lengthAdjust="spacing" textLength="7.436" x="163.4481" y="311.3369">6</text><text fill="#000000" font-family="sans-serif" font-size="13" lengthAdjust="spacing" textLength="61.1261" x="174.8841" y="311.3369">getMaps()</text><polygon fill="#181818" points="167.4481,344.8519,157.4481,348.8519,167.4481,352.8519,163.4481,348.8519" style="stroke:#181818;stroke-width:1.0;"/><line style="stroke:#181818;stroke-width:1.0;stroke-dasharray:2.0,2.0;" x1="161.4481" x2="508.558" y1="348.8519" y2="348.8519"/><text fill="#000000" font-family="sans-serif" font-size="13" font-weight="bold" lengthAdjust="spacing" textLength="7.436" x="173.4481" y="343.0429">7</text><text fill="#000000" font-family="sans-serif" font-size="13" lengthAdjust="spacing" textLength="54.7561" x="184.8841" y="343.0429">mapsList</text><polygon fill="#181818" points="11,383.5579,1,387.5579,11,391.5579,7,387.5579" style="stroke:#181818;stroke-width:1.0;"/><line style="stroke:#181818;stroke-width:1.0;stroke-dasharray:2.0,2.0;" x1="5" x2="150.4481" y1="387.5579" y2="387.5579"/><text fill="#000000" font-family="sans-serif" font-size="13" font-weight="bold" lengthAdjust="spacing" textLength="7.436" x="17" y="381.7489">8</text><text fill="#000000" font-family="sans-serif" font-size="13" lengthAdjust="spacing" textLength="54.7561" x="28.436" y="381.7489">mapsList</text><!--SRC=[XPFRRi8m38RlynGMLzj5Nm1Daog6418daLrEGgOr9Q9DiiHbuksNLXpI0bjkgjh-_twsKtzGsgB32YgZJRPtfY9WLvFmrup5x805IJwL18uoHbsKSO7VOsv-b2vWXwKdWJKRNLTRSaAmug2I9yzKWQJlcdH6yA6mQ9H3MDCE4fWG0nvHbRWDrHLQBqJmPfKfYvfXfZnBHbP6ZuncPygI7A27DCz7Ya-tO4Us9ckyOkCK-KvYuABCbnx6XOF6TprUBUL6JXUJsVXpkUYA0zzLS0hgUVmUoUVfgYjChIrLrhOXoVlmQAlJrMeZnr9EmuU4m8pL4PaUz9Oax_VH8HJ4wMLuWSM_l0fHE5FRPgwTZ81mxXoWiRqnj8PJxSEUCmfUZUO65R72-KGnU8A8rfuxRbKvFJHyZjVRHulO6NkVix_02sil_eoti-8-Sj_xF-nm3ox0_Z5dSrEwX27o1vjlVeZ7M8qLwLoy9SazKYIELz2l-mK0]--></g></svg>