<svg xmlns="http://www.w3.org/2000/svg" xmlns:xlink="http://www.w3.org/1999/xlink" contentStyleType="text/css" height="521px" preserveAspectRatio="none" style="width:536px;height:521px;background:#FFFFFF;" version="1.1" viewBox="0 0 536 521" width="536px" zoomAndPan="magnify"><title>System Sequence Diagram : Ref - List Stations</title><defs/><g><text fill="#000000" font-family="sans-serif" font-size="14" font-weight="bold" lengthAdjust="spacing" textLength="317.1268" x="111.0439" y="29.9659">System Sequence Diagram : Ref - List Stations</text><rect fill="#FFFFFF" height="384.4722" style="stroke:#181818;stroke-width:1.0;" width="10" x="99.6338" y="89.1358"/><rect fill="#FFFFFF" height="31.706" style="stroke:#181818;stroke-width:1.0;" width="10" x="232.0284" y="139.5479"/><rect fill="#FFFFFF" height="31.706" style="stroke:#181818;stroke-width:1.0;" width="10" x="232.0284" y="202.9599"/><rect fill="#FFFFFF" height="31.706" style="stroke:#181818;stroke-width:1.0;" width="10" x="346.594" y="266.3719"/><rect fill="#FFFFFF" height="31.706" style="stroke:#181818;stroke-width:1.0;" width="10" x="434.9798" y="329.784"/><rect fill="#FFFFFF" height="31.706" style="stroke:#181818;stroke-width:1.0;" width="10" x="485.8877" y="419.902"/><rect fill="none" height="370.4722" style="stroke:#000000;stroke-width:1.5;" width="520.2146" x="10" y="96.1358"/><rect fill="none" height="83.118" style="stroke:#000000;stroke-width:1.5;" width="500.2146" x="20" y="376.49"/><line style="stroke:#181818;stroke-width:0.5;stroke-dasharray:5.0,5.0;" x1="104" x2="104" y1="79.1358" y2="483.608"/><line style="stroke:#181818;stroke-width:0.5;stroke-dasharray:5.0,5.0;" x1="236.2675" x2="236.2675" y1="79.1358" y2="483.608"/><line style="stroke:#181818;stroke-width:0.5;stroke-dasharray:5.0,5.0;" x1="350.7892" x2="350.7892" y1="79.1358" y2="483.608"/><line style="stroke:#181818;stroke-width:0.5;stroke-dasharray:5.0,5.0;" x1="439.3988" x2="439.3988" y1="79.1358" y2="483.608"/><line style="stroke:#181818;stroke-width:0.5;stroke-dasharray:5.0,5.0;" x1="490.5607" x2="490.5607" y1="79.1358" y2="483.608"/><rect fill="#E2E2F0" height="33.0679" rx="2.5" ry="2.5" style="stroke:#181818;stroke-width:0.5;" width="149.2675" x="30" y="45.0679"/><text fill="#000000" font-family="sans-serif" font-size="14" lengthAdjust="spacing" textLength="135.2675" x="37" y="67.0339">ListStationController</text><rect fill="#E2E2F0" height="33.0679" rx="2.5" ry="2.5" style="stroke:#181818;stroke-width:0.5;" width="149.2675" x="30" y="482.608"/><text fill="#000000" font-family="sans-serif" font-size="14" lengthAdjust="spacing" textLength="135.2675" x="37" y="504.574">ListStationController</text><rect fill="#E2E2F0" height="33.0679" rx="2.5" ry="2.5" style="stroke:#181818;stroke-width:0.5;" width="95.5217" x="189.2675" y="45.0679"/><text fill="#000000" font-family="sans-serif" font-size="14" lengthAdjust="spacing" textLength="81.5217" x="196.2675" y="67.0339">Repositories</text><rect fill="#E2E2F0" height="33.0679" rx="2.5" ry="2.5" style="stroke:#181818;stroke-width:0.5;" width="95.5217" x="189.2675" y="482.608"/><text fill="#000000" font-family="sans-serif" font-size="14" lengthAdjust="spacing" textLength="81.5217" x="196.2675" y="504.574">Repositories</text><rect fill="#E2E2F0" height="33.0679" rx="2.5" ry="2.5" style="stroke:#181818;stroke-width:0.5;" width="113.6096" x="294.7892" y="45.0679"/><text fill="#000000" font-family="sans-serif" font-size="14" lengthAdjust="spacing" textLength="99.6096" x="301.7892" y="67.0339">MapRepository</text><rect fill="#E2E2F0" height="33.0679" rx="2.5" ry="2.5" style="stroke:#181818;stroke-width:0.5;" width="113.6096" x="294.7892" y="482.608"/><text fill="#000000" font-family="sans-serif" font-size="14" lengthAdjust="spacing" textLength="99.6096" x="301.7892" y="504.574">MapRepository</text><rect fill="#E2E2F0" height="33.0679" rx="2.5" ry="2.5" style="stroke:#181818;stroke-width:0.5;" width="43.1619" x="418.3988" y="45.0679"/><text fill="#000000" font-family="sans-serif" font-size="14" lengthAdjust="spacing" textLength="29.1619" x="425.3988" y="67.0339">Map</text><rect fill="#E2E2F0" height="33.0679" rx="2.5" ry="2.5" style="stroke:#181818;stroke-width:0.5;" width="43.1619" x="418.3988" y="482.608"/><text fill="#000000" font-family="sans-serif" font-size="14" lengthAdjust="spacing" textLength="29.1619" x="425.3988" y="504.574">Map</text><rect fill="#E2E2F0" height="33.0679" rx="2.5" ry="2.5" style="stroke:#181818;stroke-width:0.5;" width="38.6539" x="471.5607" y="45.0679"/><text fill="#000000" font-family="sans-serif" font-size="14" lengthAdjust="spacing" textLength="24.6539" x="478.5607" y="67.0339">City</text><rect fill="#E2E2F0" height="33.0679" rx="2.5" ry="2.5" style="stroke:#181818;stroke-width:0.5;" width="38.6539" x="471.5607" y="482.608"/><text fill="#000000" font-family="sans-serif" font-size="14" lengthAdjust="spacing" textLength="24.6539" x="478.5607" y="504.574">City</text><rect fill="#FFFFFF" height="384.4722" style="stroke:#181818;stroke-width:1.0;" width="10" x="99.6338" y="89.1358"/><rect fill="#FFFFFF" height="31.706" style="stroke:#181818;stroke-width:1.0;" width="10" x="232.0284" y="139.5479"/><rect fill="#FFFFFF" height="31.706" style="stroke:#181818;stroke-width:1.0;" width="10" x="232.0284" y="202.9599"/><rect fill="#FFFFFF" height="31.706" style="stroke:#181818;stroke-width:1.0;" width="10" x="346.594" y="266.3719"/><rect fill="#FFFFFF" height="31.706" style="stroke:#181818;stroke-width:1.0;" width="10" x="434.9798" y="329.784"/><rect fill="#FFFFFF" height="31.706" style="stroke:#181818;stroke-width:1.0;" width="10" x="485.8877" y="419.902"/><path d="M10,96.1358 L131.5441,96.1358 L131.5441,105.8419 L121.5441,115.8419 L10,115.8419 L10,96.1358 " fill="#EEEEEE" style="stroke:#000000;stroke-width:1.5;"/><rect fill="none" height="370.4722" style="stroke:#000000;stroke-width:1.5;" width="520.2146" x="10" y="96.1358"/><text fill="#000000" font-family="sans-serif" font-size="13" font-weight="bold" lengthAdjust="spacing" textLength="76.5441" x="25" y="111.0328">ListStations</text><polygon fill="#181818" points="220.0284,135.5479,230.0284,139.5479,220.0284,143.5479,224.0284,139.5479" style="stroke:#181818;stroke-width:1.0;"/><line style="stroke:#181818;stroke-width:1.0;" x1="109.6338" x2="226.0284" y1="139.5479" y2="139.5479"/><text fill="#000000" font-family="sans-serif" font-size="13" lengthAdjust="spacing" textLength="80.0801" x="116.6338" y="133.7389">getInstance()</text><polygon fill="#181818" points="120.6338,167.2539,110.6338,171.2539,120.6338,175.2539,116.6338,171.2539" style="stroke:#181818;stroke-width:1.0;"/><line style="stroke:#181818;stroke-width:1.0;stroke-dasharray:2.0,2.0;" x1="114.6338" x2="236.0284" y1="171.2539" y2="171.2539"/><text fill="#000000" font-family="sans-serif" font-size="13" lengthAdjust="spacing" textLength="72.9821" x="126.6338" y="165.4449">repositories</text><polygon fill="#181818" points="220.0284,198.9599,230.0284,202.9599,220.0284,206.9599,224.0284,202.9599" style="stroke:#181818;stroke-width:1.0;"/><line style="stroke:#181818;stroke-width:1.0;" x1="109.6338" x2="226.0284" y1="202.9599" y2="202.9599"/><text fill="#000000" font-family="sans-serif" font-size="13" lengthAdjust="spacing" textLength="100.6591" x="116.6338" y="197.1509">mapRepository()</text><polygon fill="#181818" points="120.6338,230.6659,110.6338,234.6659,120.6338,238.6659,116.6338,234.6659" style="stroke:#181818;stroke-width:1.0;"/><line style="stroke:#181818;stroke-width:1.0;stroke-dasharray:2.0,2.0;" x1="114.6338" x2="236.0284" y1="234.6659" y2="234.6659"/><text fill="#000000" font-family="sans-serif" font-size="13" lengthAdjust="spacing" textLength="92.8591" x="126.6338" y="228.8569">mapRepository</text><polygon fill="#181818" points="334.594,262.3719,344.594,266.3719,334.594,270.3719,338.594,266.3719" style="stroke:#181818;stroke-width:1.0;"/><line style="stroke:#181818;stroke-width:1.0;" x1="109.6338" x2="340.594" y1="266.3719" y2="266.3719"/><text fill="#000000" font-family="sans-serif" font-size="13" lengthAdjust="spacing" textLength="86.1771" x="116.6338" y="260.5629">findMap(map)</text><polygon fill="#181818" points="120.6338,294.0779,110.6338,298.0779,120.6338,302.0779,116.6338,298.0779" style="stroke:#181818;stroke-width:1.0;"/><line style="stroke:#181818;stroke-width:1.0;stroke-dasharray:2.0,2.0;" x1="114.6338" x2="350.594" y1="298.0779" y2="298.0779"/><text fill="#000000" font-family="sans-serif" font-size="13" lengthAdjust="spacing" textLength="27.079" x="126.6338" y="292.2689">Map</text><polygon fill="#181818" points="422.9798,325.784,432.9798,329.784,422.9798,333.784,426.9798,329.784" style="stroke:#181818;stroke-width:1.0;"/><line style="stroke:#181818;stroke-width:1.0;" x1="109.6338" x2="428.9798" y1="329.784" y2="329.784"/><text fill="#000000" font-family="sans-serif" font-size="13" lengthAdjust="spacing" textLength="60.9961" x="116.6338" y="323.975">getCities()</text><polygon fill="#181818" points="120.6338,357.49,110.6338,361.49,120.6338,365.49,116.6338,361.49" style="stroke:#181818;stroke-width:1.0;"/><line style="stroke:#181818;stroke-width:1.0;stroke-dasharray:2.0,2.0;" x1="114.6338" x2="438.9798" y1="361.49" y2="361.49"/><text fill="#000000" font-family="sans-serif" font-size="13" lengthAdjust="spacing" textLength="67.9251" x="126.6338" y="355.681">list of cities</text><path d="M20,376.49 L93.34,376.49 L93.34,386.196 L83.34,396.196 L20,396.196 L20,376.49 " fill="#EEEEEE" style="stroke:#000000;stroke-width:1.5;"/><rect fill="none" height="83.118" style="stroke:#000000;stroke-width:1.5;" width="500.2146" x="20" y="376.49"/><text fill="#000000" font-family="sans-serif" font-size="13" font-weight="bold" lengthAdjust="spacing" textLength="28.34" x="35" y="391.387">loop</text><text fill="#000000" font-family="sans-serif" font-size="11" font-weight="bold" lengthAdjust="spacing" textLength="75.0525" x="108.34" y="390.2489">[for each city]</text><polygon fill="#181818" points="473.8877,415.902,483.8877,419.902,473.8877,423.902,477.8877,419.902" style="stroke:#181818;stroke-width:1.0;"/><line style="stroke:#181818;stroke-width:1.0;" x1="109.6338" x2="479.8877" y1="419.902" y2="419.902"/><text fill="#000000" font-family="sans-serif" font-size="13" lengthAdjust="spacing" textLength="77.1161" x="116.6338" y="414.093">getStations()</text><polygon fill="#181818" points="120.6338,447.608,110.6338,451.608,120.6338,455.608,116.6338,451.608" style="stroke:#181818;stroke-width:1.0;"/><line style="stroke:#181818;stroke-width:1.0;stroke-dasharray:2.0,2.0;" x1="114.6338" x2="489.8877" y1="451.608" y2="451.608"/><text fill="#000000" font-family="sans-serif" font-size="13" lengthAdjust="spacing" textLength="85.1111" x="126.6338" y="445.799">list of stations</text><!--SRC=[fPF1ReCm38RlUGeVkmClqCCkx39fkvGdYC0mIv1aYJk9jvz3HnTN55KR1oJo-__zWGqJZmZDd1WdQF3pZAv5U24xH3l14KxOGmLlb1WQjapU9ME2ZKmj1UjuaNwKsZkEVXmngeeJ1f-8VIHCIdYtuQhDjufwhebdOspBz6KPx_GSeZ-7KXFIpKgedXMKlEQ0_EeIMtdvmzDl8uMkB9LaR8SV8PQk3hVJ7aQRog_qVpWLzmSwDJJ9wybrSdQGt89DZrPxzkZou0ic7RCBTHcYB8hW7pH9xh_RTSphxNje5_SDW36Zzm5w7q7EFtBHR42kkpHvMoyuwo8AK7PSO-irOobz12sjAvrT1U2IXAupowqGjl-HRm00]--></g></svg>