<svg xmlns="http://www.w3.org/2000/svg" xmlns:xlink="http://www.w3.org/1999/xlink" contentStyleType="text/css" height="409px" preserveAspectRatio="none" style="width:432px;height:409px;background:#FFFFFF;" version="1.1" viewBox="0 0 432 409" width="432px" zoomAndPan="magnify"><defs/><g><rect fill="#FFFFFF" height="214.3281" style="stroke:#181818;stroke-width:1.0;" width="10" x="22.8413" y="93.6211"/><rect fill="#FFFFFF" height="48.582" style="stroke:#181818;stroke-width:1.0;" width="10" x="389.6563" y="116.9121"/><rect fill="#FFFFFF" height="31.291" style="stroke:#181818;stroke-width:1.0;" width="10" x="389.6563" y="196.7852"/><rect fill="#FFFFFF" height="48.582" style="stroke:#181818;stroke-width:1.0;" width="10" x="389.6563" y="259.3672"/><line style="stroke:#181818;stroke-width:0.5;stroke-dasharray:5.0,5.0;" x1="27" x2="27" y1="83.6211" y2="325.9492"/><line style="stroke:#181818;stroke-width:0.5;stroke-dasharray:5.0,5.0;" x1="394.3735" x2="394.3735" y1="83.6211" y2="325.9492"/><text fill="#000000" font-family="sans-serif" font-size="14" lengthAdjust="spacing" textLength="39.6826" x="5" y="80.1074">Player</text><ellipse cx="27.8413" cy="13.5" fill="#E3E3E3" rx="8" ry="8" style="stroke:#181818;stroke-width:0.5;"/><path d="M27.8413,21.5 L27.8413,48.5 M14.8413,29.5 L40.8413,29.5 M27.8413,48.5 L14.8413,63.5 M27.8413,48.5 L40.8413,63.5 " fill="none" style="stroke:#181818;stroke-width:0.5;"/><text fill="#000000" font-family="sans-serif" font-size="14" lengthAdjust="spacing" textLength="39.6826" x="5" y="340.0566">Player</text><ellipse cx="27.8413" cy="352.0703" fill="#E3E3E3" rx="8" ry="8" style="stroke:#181818;stroke-width:0.5;"/><path d="M27.8413,360.0703 L27.8413,387.0703 M14.8413,368.0703 L40.8413,368.0703 M27.8413,387.0703 L14.8413,402.0703 M27.8413,387.0703 L40.8413,402.0703 " fill="none" style="stroke:#181818;stroke-width:0.5;"/><rect fill="#E3E3E3" height="32.6211" rx="2.5" ry="2.5" style="stroke:#181818;stroke-width:0.5;" width="64.5654" x="362.3735" y="50"/><text fill="#000000" font-family="sans-serif" font-size="14" lengthAdjust="spacing" textLength="50.5654" x="369.3735" y="72.1074">:System</text><rect fill="#E3E3E3" height="32.6211" rx="2.5" ry="2.5" style="stroke:#181818;stroke-width:0.5;" width="64.5654" x="362.3735" y="324.9492"/><text fill="#000000" font-family="sans-serif" font-size="14" lengthAdjust="spacing" textLength="50.5654" x="369.3735" y="347.0566">:System</text><rect fill="#FFFFFF" height="214.3281" style="stroke:#181818;stroke-width:1.0;" width="10" x="22.8413" y="93.6211"/><rect fill="#FFFFFF" height="48.582" style="stroke:#181818;stroke-width:1.0;" width="10" x="389.6563" y="116.9121"/><rect fill="#FFFFFF" height="31.291" style="stroke:#181818;stroke-width:1.0;" width="10" x="389.6563" y="196.7852"/><rect fill="#FFFFFF" height="48.582" style="stroke:#181818;stroke-width:1.0;" width="10" x="389.6563" y="259.3672"/><polygon fill="#181818" points="377.6563,112.9121,387.6563,116.9121,377.6563,120.9121,381.6563,116.9121" style="stroke:#181818;stroke-width:1.0;"/><line style="stroke:#181818;stroke-width:1.0;" x1="32.8413" x2="383.6563" y1="116.9121" y2="116.9121"/><text fill="#000000" font-family="sans-serif" font-size="13" font-weight="bold" lengthAdjust="spacing" textLength="7.23" x="39.8413" y="111.6494">1</text><text fill="#000000" font-family="sans-serif" font-size="13" lengthAdjust="spacing" textLength="220.397" x="51.0713" y="111.6494">asks to check lines maintenance route</text><polygon fill="#181818" points="43.8413,161.4941,33.8413,165.4941,43.8413,169.4941,39.8413,165.4941" style="stroke:#181818;stroke-width:1.0;"/><line style="stroke:#181818;stroke-width:1.0;stroke-dasharray:2.0,2.0;" x1="37.8413" x2="393.6563" y1="165.4941" y2="165.4941"/><text fill="#000000" font-family="sans-serif" font-size="13" font-weight="bold" lengthAdjust="spacing" textLength="7.23" x="49.8413" y="151.5859">2</text><text fill="#000000" font-family="sans-serif" font-size="13" lengthAdjust="spacing" textLength="321.585" x="61.0713" y="142.9404">shows maintenance type options and asks to select one</text><text fill="#000000" font-family="sans-serif" font-size="13" lengthAdjust="spacing" textLength="184.2407" x="61.0713" y="160.2314">(all lines or only electrified lines)</text><polygon fill="#181818" points="377.6563,192.7852,387.6563,196.7852,377.6563,200.7852,381.6563,196.7852" style="stroke:#181818;stroke-width:1.0;"/><line style="stroke:#181818;stroke-width:1.0;" x1="32.8413" x2="383.6563" y1="196.7852" y2="196.7852"/><text fill="#000000" font-family="sans-serif" font-size="13" font-weight="bold" lengthAdjust="spacing" textLength="7.23" x="39.8413" y="191.5225">3</text><text fill="#000000" font-family="sans-serif" font-size="13" lengthAdjust="spacing" textLength="146.6943" x="51.0713" y="191.5225">selects maintenance type</text><polygon fill="#181818" points="43.8413,224.0762,33.8413,228.0762,43.8413,232.0762,39.8413,228.0762" style="stroke:#181818;stroke-width:1.0;"/><line style="stroke:#181818;stroke-width:1.0;stroke-dasharray:2.0,2.0;" x1="37.8413" x2="393.6563" y1="228.0762" y2="228.0762"/><text fill="#000000" font-family="sans-serif" font-size="13" font-weight="bold" lengthAdjust="spacing" textLength="7.23" x="49.8413" y="222.8135">4</text><text fill="#000000" font-family="sans-serif" font-size="13" lengthAdjust="spacing" textLength="296.2642" x="61.0713" y="222.8135">loads and displays the railway network visualization</text><polygon fill="#181818" points="377.6563,255.3672,387.6563,259.3672,377.6563,263.3672,381.6563,259.3672" style="stroke:#181818;stroke-width:1.0;"/><line style="stroke:#181818;stroke-width:1.0;" x1="32.8413" x2="383.6563" y1="259.3672" y2="259.3672"/><text fill="#000000" font-family="sans-serif" font-size="13" font-weight="bold" lengthAdjust="spacing" textLength="7.23" x="39.8413" y="254.1045">5</text><text fill="#000000" font-family="sans-serif" font-size="13" lengthAdjust="spacing" textLength="226.1924" x="51.0713" y="254.1045">requests maintenance route calculation</text><polygon fill="#181818" points="38.8413,303.9492,28.8413,307.9492,38.8413,311.9492,34.8413,307.9492" style="stroke:#181818;stroke-width:1.0;"/><line style="stroke:#181818;stroke-width:1.0;stroke-dasharray:2.0,2.0;" x1="32.8413" x2="393.6563" y1="307.9492" y2="307.9492"/><text fill="#000000" font-family="sans-serif" font-size="13" font-weight="bold" lengthAdjust="spacing" textLength="7.23" x="44.8413" y="294.041">6</text><text fill="#000000" font-family="sans-serif" font-size="13" lengthAdjust="spacing" textLength="179.9434" x="56.0713" y="285.3955">displays the maintenance route</text><text fill="#000000" font-family="sans-serif" font-size="13" lengthAdjust="spacing" textLength="188.6206" x="56.0713" y="302.6865">(passing once through each line)</text><!--SRC=[bLAzSi8m3Dxp53gcTk056FeClMFjeZeYySMHKaic5vw-8WaK3ZhWIMT9tv-jNUG1C_RG2qjei_G4bWjLUkqC63fiQ6zJ8iWK3Bb9jmFQOYrZv0OEc9Ig2ei9b_wRijV19CFcC-54UGEei9ILxreCSK0ssEpsanhrStyfvyruHAFBGWL-bXgs7-iOx7obKp21q5Be84KcXHuZ6p5oSCbIZERbA-A50jQpOcqTTYNOkIiPxu5i6WXai2YiW5nVcPMInmB2zCLlcD8gmdqBfmdcRew7IFNIUP-9Qtggvud31VzHpEkcac2zQA-Z3dxh-bkF26CQSG8c6oLtS8nQCCKJdhs-A3RJJo6r9sy00LCewG_q9UbtWX-mFVW1LS-VKEPu_2kNfWMNtSwX_vlvpTN2zGi0]--></g></svg>