<svg xmlns="http://www.w3.org/2000/svg" xmlns:xlink="http://www.w3.org/1999/xlink" contentStyleType="text/css" height="417px" preserveAspectRatio="none" style="width:685px;height:417px;background:#FFFFFF;" version="1.1" viewBox="0 0 685 417" width="685px" zoomAndPan="magnify"><defs/><g><rect fill="#FFFFFF" height="252.3281" style="stroke:#181818;stroke-width:1.0;" width="10" x="331.5469" y="90.5332"/><rect fill="#FFFFFF" height="31.291" style="stroke:#181818;stroke-width:1.0;" width="10" x="478.8774" y="273.2793"/><rect fill="#FFFFFF" height="31.291" style="stroke:#181818;stroke-width:1.0;" width="10" x="574.853" y="148.1152"/><rect fill="#FFFFFF" height="31.291" style="stroke:#181818;stroke-width:1.0;" width="10" x="637.3701" y="210.6973"/><rect fill="none" height="207.0371" style="stroke:#000000;stroke-width:1.5;" width="429.6953" x="250.2988" y="105.5332"/><line style="stroke:#181818;stroke-width:0.5;stroke-dasharray:5.0,5.0;" x1="336.2988" x2="336.2988" y1="57.2422" y2="360.8613"/><line style="stroke:#181818;stroke-width:0.5;stroke-dasharray:5.0,5.0;" x1="483.7949" x2="483.7949" y1="57.2422" y2="360.8613"/><line style="stroke:#181818;stroke-width:0.5;stroke-dasharray:5.0,5.0;" x1="578.96" x2="578.96" y1="57.2422" y2="360.8613"/><line style="stroke:#181818;stroke-width:0.5;stroke-dasharray:5.0,5.0;" x1="641.7461" x2="641.7461" y1="57.2422" y2="360.8613"/><rect fill="#E3E3E3" height="32.6211" rx="2.5" ry="2.5" style="stroke:#181818;stroke-width:0.5;" width="152.4961" x="260.2988" y="23.6211"/><text fill="#000000" font-family="sans-serif" font-size="14" lengthAdjust="spacing" textLength="138.4961" x="267.2988" y="45.7285">:AssignTrainController</text><rect fill="#E3E3E3" height="32.6211" rx="2.5" ry="2.5" style="stroke:#181818;stroke-width:0.5;" width="152.4961" x="260.2988" y="359.8613"/><text fill="#000000" font-family="sans-serif" font-size="14" lengthAdjust="spacing" textLength="138.4961" x="267.2988" y="381.9688">:AssignTrainController</text><rect fill="#E3E3E3" height="51.2422" rx="2.5" ry="2.5" style="stroke:#181818;stroke-width:0.5;" width="122.165" x="422.7949" y="5"/><text fill="#000000" font-family="sans-serif" font-size="14" lengthAdjust="spacing" textLength="98.8271" x="434.4639" y="27.1074">routeRepository</text><text fill="#000000" font-family="sans-serif" font-size="14" lengthAdjust="spacing" textLength="108.165" x="429.7949" y="45.7285">:RouteRepository</text><rect fill="#E3E3E3" height="51.2422" rx="2.5" ry="2.5" style="stroke:#181818;stroke-width:0.5;" width="122.165" x="422.7949" y="359.8613"/><text fill="#000000" font-family="sans-serif" font-size="14" lengthAdjust="spacing" textLength="98.8271" x="434.4639" y="381.9688">routeRepository</text><text fill="#000000" font-family="sans-serif" font-size="14" lengthAdjust="spacing" textLength="108.165" x="429.7949" y="400.5898">:RouteRepository</text><rect fill="#E3E3E3" height="51.2422" rx="2.5" ry="2.5" style="stroke:#181818;stroke-width:0.5;" width="49.7861" x="554.96" y="5"/><text fill="#000000" font-family="sans-serif" font-size="14" lengthAdjust="spacing" textLength="27.2344" x="566.2358" y="27.1074">train</text><text fill="#000000" font-family="sans-serif" font-size="14" lengthAdjust="spacing" textLength="35.7861" x="561.96" y="45.7285">:Train</text><rect fill="#E3E3E3" height="51.2422" rx="2.5" ry="2.5" style="stroke:#181818;stroke-width:0.5;" width="49.7861" x="554.96" y="359.8613"/><text fill="#000000" font-family="sans-serif" font-size="14" lengthAdjust="spacing" textLength="27.2344" x="566.2358" y="381.9688">train</text><text fill="#000000" font-family="sans-serif" font-size="14" lengthAdjust="spacing" textLength="35.7861" x="561.96" y="400.5898">:Train</text><rect fill="#E3E3E3" height="51.2422" rx="2.5" ry="2.5" style="stroke:#181818;stroke-width:0.5;" width="55.248" x="614.7461" y="5"/><text fill="#000000" font-family="sans-serif" font-size="14" lengthAdjust="spacing" textLength="31.9102" x="626.415" y="27.1074">route</text><text fill="#000000" font-family="sans-serif" font-size="14" lengthAdjust="spacing" textLength="41.248" x="621.7461" y="45.7285">:Route</text><rect fill="#E3E3E3" height="51.2422" rx="2.5" ry="2.5" style="stroke:#181818;stroke-width:0.5;" width="55.248" x="614.7461" y="359.8613"/><text fill="#000000" font-family="sans-serif" font-size="14" lengthAdjust="spacing" textLength="31.9102" x="626.415" y="381.9688">route</text><text fill="#000000" font-family="sans-serif" font-size="14" lengthAdjust="spacing" textLength="41.248" x="621.7461" y="400.5898">:Route</text><rect fill="#FFFFFF" height="252.3281" style="stroke:#181818;stroke-width:1.0;" width="10" x="331.5469" y="90.5332"/><rect fill="#FFFFFF" height="31.291" style="stroke:#181818;stroke-width:1.0;" width="10" x="478.8774" y="273.2793"/><rect fill="#FFFFFF" height="31.291" style="stroke:#181818;stroke-width:1.0;" width="10" x="574.853" y="148.1152"/><rect fill="#FFFFFF" height="31.291" style="stroke:#181818;stroke-width:1.0;" width="10" x="637.3701" y="210.6973"/><polygon fill="#181818" points="319.5469,86.5332,329.5469,90.5332,319.5469,94.5332,323.5469,90.5332" style="stroke:#181818;stroke-width:1.0;"/><line style="stroke:#181818;stroke-width:1.0;" x1="0" x2="325.5469" y1="90.5332" y2="90.5332"/><text fill="#000000" font-family="sans-serif" font-size="13" font-weight="bold" lengthAdjust="spacing" textLength="14.46" x="7" y="85.2705">25</text><text fill="#000000" font-family="sans-serif" font-size="13" lengthAdjust="spacing" textLength="294.0869" x="25.46" y="85.2705">assignTrainToRoute(selectedRoute, selectedTrain)</text><path d="M250.2988,105.5332 L422.417,105.5332 L422.417,114.8242 L412.417,124.8242 L250.2988,124.8242 L250.2988,105.5332 " fill="#EEEEEE" style="stroke:#000000;stroke-width:1.5;"/><rect fill="none" height="207.0371" style="stroke:#000000;stroke-width:1.5;" width="429.6953" x="250.2988" y="105.5332"/><text fill="#000000" font-family="sans-serif" font-size="13" font-weight="bold" lengthAdjust="spacing" textLength="127.1182" x="265.2988" y="120.5615">Assign train to route</text><polygon fill="#181818" points="562.853,144.1152,572.853,148.1152,562.853,152.1152,566.853,148.1152" style="stroke:#181818;stroke-width:1.0;"/><line style="stroke:#181818;stroke-width:1.0;" x1="341.5469" x2="568.853" y1="148.1152" y2="148.1152"/><text fill="#000000" font-family="sans-serif" font-size="13" font-weight="bold" lengthAdjust="spacing" textLength="25.3018" x="348.5469" y="142.8525">25.1</text><text fill="#000000" font-family="sans-serif" font-size="13" lengthAdjust="spacing" textLength="179.207" x="377.8486" y="142.8525">assignToRoute(selectedRoute)</text><polygon fill="#181818" points="352.5469,175.4063,342.5469,179.4063,352.5469,183.4063,348.5469,179.4063" style="stroke:#181818;stroke-width:1.0;"/><line style="stroke:#181818;stroke-width:1.0;stroke-dasharray:2.0,2.0;" x1="346.5469" x2="578.853" y1="179.4063" y2="179.4063"/><text fill="#000000" font-family="sans-serif" font-size="13" font-weight="bold" lengthAdjust="spacing" textLength="25.3018" x="358.5469" y="174.1436">25.2</text><text fill="#000000" font-family="sans-serif" font-size="13" lengthAdjust="spacing" textLength="46.96" x="387.8486" y="174.1436">success</text><polygon fill="#181818" points="625.3701,206.6973,635.3701,210.6973,625.3701,214.6973,629.3701,210.6973" style="stroke:#181818;stroke-width:1.0;"/><line style="stroke:#181818;stroke-width:1.0;" x1="341.5469" x2="631.3701" y1="210.6973" y2="210.6973"/><text fill="#000000" font-family="sans-serif" font-size="13" font-weight="bold" lengthAdjust="spacing" textLength="25.3018" x="348.5469" y="205.4346">25.3</text><text fill="#000000" font-family="sans-serif" font-size="13" lengthAdjust="spacing" textLength="85.2554" x="377.8486" y="205.4346">addTrain(train)</text><polygon fill="#181818" points="352.5469,237.9883,342.5469,241.9883,352.5469,245.9883,348.5469,241.9883" style="stroke:#181818;stroke-width:1.0;"/><line style="stroke:#181818;stroke-width:1.0;stroke-dasharray:2.0,2.0;" x1="346.5469" x2="641.3701" y1="241.9883" y2="241.9883"/><text fill="#000000" font-family="sans-serif" font-size="13" font-weight="bold" lengthAdjust="spacing" textLength="25.3018" x="358.5469" y="236.7256">25.4</text><text fill="#000000" font-family="sans-serif" font-size="13" lengthAdjust="spacing" textLength="46.96" x="387.8486" y="236.7256">success</text><polygon fill="#181818" points="466.8774,269.2793,476.8774,273.2793,466.8774,277.2793,470.8774,273.2793" style="stroke:#181818;stroke-width:1.0;"/><line style="stroke:#181818;stroke-width:1.0;" x1="341.5469" x2="472.8774" y1="273.2793" y2="273.2793"/><text fill="#000000" font-family="sans-serif" font-size="13" font-weight="bold" lengthAdjust="spacing" textLength="25.3018" x="348.5469" y="268.0166">25.5</text><text fill="#000000" font-family="sans-serif" font-size="13" lengthAdjust="spacing" textLength="65.749" x="377.8486" y="268.0166">save(route)</text><polygon fill="#181818" points="352.5469,300.5703,342.5469,304.5703,352.5469,308.5703,348.5469,304.5703" style="stroke:#181818;stroke-width:1.0;"/><line style="stroke:#181818;stroke-width:1.0;stroke-dasharray:2.0,2.0;" x1="346.5469" x2="482.8774" y1="304.5703" y2="304.5703"/><text fill="#000000" font-family="sans-serif" font-size="13" font-weight="bold" lengthAdjust="spacing" textLength="25.3018" x="358.5469" y="299.3076">25.6</text><text fill="#000000" font-family="sans-serif" font-size="13" lengthAdjust="spacing" textLength="46.96" x="387.8486" y="299.3076">success</text><polygon fill="#181818" points="11,338.8613,1,342.8613,11,346.8613,7,342.8613" style="stroke:#181818;stroke-width:1.0;"/><line style="stroke:#181818;stroke-width:1.0;stroke-dasharray:2.0,2.0;" x1="5" x2="335.5469" y1="342.8613" y2="342.8613"/><text fill="#000000" font-family="sans-serif" font-size="13" font-weight="bold" lengthAdjust="spacing" textLength="14.46" x="17" y="337.5986">26</text><text fill="#000000" font-family="sans-serif" font-size="13" lengthAdjust="spacing" textLength="106.2153" x="35.46" y="337.5986">assignmentDetails</text><!--SRC=[ZP9HIyD03CVVxrE4FMrW1GLz62ACkGT1d7JrJP3OnkvOUrVkqic-lRVKTJsTiBnT-az-_oJr6sqQT5X3ROtDryxM1EnQKhx_qc2-mP9MlAi87EMCfgo60h_6mdvfKy8dLfuKjcnDMt-GW-iRfOA8TQuRD0oZwSnxNPhCeJPpQzZPgY8t0lGmpzAdMEniovHIOxrcwtPlPfh66QbB5o_BrNkwVCqMSJdl8Q58O2BDqjdZymd6eNFNJpgfv5uSJKEgTvnPaOqzLM4FLCZh0WvFqKmKvgotoDHD56tZyagLWTX0jmOGYy0Mn8PI469V1O4kPdlyAV94zFleaTs4C0Z9GDAFuziy9-zxJK6_YYCJienWekY66tCtuXzkjxGXLpBdSNys7d6FHmsbkAMn-sVYuVaZ_Z5_fej18p95TBXRfUwI9FeXQZByG8owyaeDsiZHlm40]--></g></svg>