<svg xmlns="http://www.w3.org/2000/svg" xmlns:xlink="http://www.w3.org/1999/xlink" contentStyleType="text/css" height="541px" preserveAspectRatio="none" style="width:846px;height:541px;background:#FFFFFF;" version="1.1" viewBox="0 0 846 541" width="846px" zoomAndPan="magnify"><defs/><g><rect fill="#FFFFFF" height="376.8125" style="stroke:#181818;stroke-width:1.0;" width="10" x="179.0444" y="90.5332"/><rect fill="#FFFFFF" height="156.1152" style="stroke:#181818;stroke-width:1.0;" width="10" x="380.3779" y="148.1152"/><rect fill="#FFFFFF" height="93.5332" style="stroke:#181818;stroke-width:1.0;" width="10" x="497.916" y="179.4063"/><rect fill="#FFFFFF" height="93.5332" style="stroke:#181818;stroke-width:1.0;" width="10" x="584.9365" y="335.5215"/><rect fill="none" height="331.5215" style="stroke:#000000;stroke-width:1.5;" width="742.6846" x="97.7964" y="105.5332"/><line style="stroke:#181818;stroke-width:0.5;stroke-dasharray:5.0,5.0;" x1="183.7964" x2="183.7964" y1="57.2422" y2="485.3457"/><line style="stroke:#181818;stroke-width:0.5;stroke-dasharray:5.0,5.0;" x1="385.0264" x2="385.0264" y1="57.2422" y2="485.3457"/><line style="stroke:#181818;stroke-width:0.5;stroke-dasharray:5.0,5.0;" x1="502.5229" x2="502.5229" y1="57.2422" y2="485.3457"/><line style="stroke:#181818;stroke-width:0.5;stroke-dasharray:5.0,5.0;" x1="589.3091" x2="589.3091" y1="57.2422" y2="485.3457"/><line style="stroke:#181818;stroke-width:0.5;stroke-dasharray:5.0,5.0;" x1="672.564" x2="672.564" y1="228.5273" y2="485.3457"/><line style="stroke:#181818;stroke-width:0.5;stroke-dasharray:5.0,5.0;" x1="769.3501" x2="769.3501" y1="384.6426" y2="485.3457"/><rect fill="#E3E3E3" height="32.6211" rx="2.5" ry="2.5" style="stroke:#181818;stroke-width:0.5;" width="152.4961" x="107.7964" y="23.6211"/><text fill="#000000" font-family="sans-serif" font-size="14" lengthAdjust="spacing" textLength="138.4961" x="114.7964" y="45.7285">:AssignTrainController</text><rect fill="#E3E3E3" height="32.6211" rx="2.5" ry="2.5" style="stroke:#181818;stroke-width:0.5;" width="152.4961" x="107.7964" y="484.3457"/><text fill="#000000" font-family="sans-serif" font-size="14" lengthAdjust="spacing" textLength="138.4961" x="114.7964" y="506.4531">:AssignTrainController</text><rect fill="#E3E3E3" height="51.2422" rx="2.5" ry="2.5" style="stroke:#181818;stroke-width:0.5;" width="116.7031" x="327.0264" y="5"/><text fill="#000000" font-family="sans-serif" font-size="14" lengthAdjust="spacing" textLength="94.1514" x="338.3022" y="27.1074">trainRepository</text><text fill="#000000" font-family="sans-serif" font-size="14" lengthAdjust="spacing" textLength="102.7031" x="334.0264" y="45.7285">:TrainRepository</text><rect fill="#E3E3E3" height="51.2422" rx="2.5" ry="2.5" style="stroke:#181818;stroke-width:0.5;" width="116.7031" x="327.0264" y="484.3457"/><text fill="#000000" font-family="sans-serif" font-size="14" lengthAdjust="spacing" textLength="94.1514" x="338.3022" y="506.4531">trainRepository</text><text fill="#000000" font-family="sans-serif" font-size="14" lengthAdjust="spacing" textLength="102.7031" x="334.0264" y="525.0742">:TrainRepository</text><rect fill="#E3E3E3" height="51.2422" rx="2.5" ry="2.5" style="stroke:#181818;stroke-width:0.5;" width="56.7861" x="474.5229" y="5"/><text fill="#000000" font-family="sans-serif" font-size="14" lengthAdjust="spacing" textLength="34.2344" x="485.7988" y="27.1074">trains</text><text fill="#000000" font-family="sans-serif" font-size="14" lengthAdjust="spacing" textLength="42.7861" x="481.5229" y="45.7285">:Trains</text><rect fill="#E3E3E3" height="51.2422" rx="2.5" ry="2.5" style="stroke:#181818;stroke-width:0.5;" width="56.7861" x="474.5229" y="484.3457"/><text fill="#000000" font-family="sans-serif" font-size="14" lengthAdjust="spacing" textLength="34.2344" x="485.7988" y="506.4531">trains</text><text fill="#000000" font-family="sans-serif" font-size="14" lengthAdjust="spacing" textLength="42.7861" x="481.5229" y="525.0742">:Trains</text><rect fill="#E3E3E3" height="32.6211" rx="2.5" ry="2.5" style="stroke:#181818;stroke-width:0.5;" width="97.2549" x="541.3091" y="23.6211"/><text fill="#000000" font-family="sans-serif" font-size="14" lengthAdjust="spacing" textLength="83.2549" x="548.3091" y="45.7285">:TrainMapper</text><rect fill="#E3E3E3" height="32.6211" rx="2.5" ry="2.5" style="stroke:#181818;stroke-width:0.5;" width="97.2549" x="541.3091" y="484.3457"/><text fill="#000000" font-family="sans-serif" font-size="14" lengthAdjust="spacing" textLength="83.2549" x="548.3091" y="506.4531">:TrainMapper</text><rect fill="#E3E3E3" height="51.2422" rx="2.5" ry="2.5" style="stroke:#181818;stroke-width:0.5;" width="49.7861" x="648.564" y="484.3457"/><text fill="#000000" font-family="sans-serif" font-size="14" lengthAdjust="spacing" textLength="27.2344" x="659.8398" y="506.4531">train</text><text fill="#000000" font-family="sans-serif" font-size="14" lengthAdjust="spacing" textLength="35.7861" x="655.564" y="525.0742">:Train</text><rect fill="#E3E3E3" height="51.2422" rx="2.5" ry="2.5" style="stroke:#181818;stroke-width:0.5;" width="122.1309" x="708.3501" y="484.3457"/><text fill="#000000" font-family="sans-serif" font-size="14" lengthAdjust="spacing" textLength="99.5791" x="719.626" y="506.4531">trainDetailsDTO</text><text fill="#000000" font-family="sans-serif" font-size="14" lengthAdjust="spacing" textLength="108.1309" x="715.3501" y="525.0742">:TrainDetailsDTO</text><rect fill="#FFFFFF" height="376.8125" style="stroke:#181818;stroke-width:1.0;" width="10" x="179.0444" y="90.5332"/><rect fill="#FFFFFF" height="156.1152" style="stroke:#181818;stroke-width:1.0;" width="10" x="380.3779" y="148.1152"/><rect fill="#FFFFFF" height="93.5332" style="stroke:#181818;stroke-width:1.0;" width="10" x="497.916" y="179.4063"/><rect fill="#FFFFFF" height="93.5332" style="stroke:#181818;stroke-width:1.0;" width="10" x="584.9365" y="335.5215"/><polygon fill="#181818" points="167.0444,86.5332,177.0444,90.5332,167.0444,94.5332,171.0444,90.5332" style="stroke:#181818;stroke-width:1.0;"/><line style="stroke:#181818;stroke-width:1.0;" x1="0" x2="173.0444" y1="90.5332" y2="90.5332"/><text fill="#000000" font-family="sans-serif" font-size="13" font-weight="bold" lengthAdjust="spacing" textLength="7.23" x="7" y="85.2705">3</text><text fill="#000000" font-family="sans-serif" font-size="13" lengthAdjust="spacing" textLength="148.8145" x="18.23" y="85.2705">getTrainDetails(trainDTO)</text><path d="M97.7964,105.5332 L277.1572,105.5332 L277.1572,114.8242 L267.1572,124.8242 L97.7964,124.8242 L97.7964,105.5332 " fill="#EEEEEE" style="stroke:#000000;stroke-width:1.5;"/><rect fill="none" height="331.5215" style="stroke:#000000;stroke-width:1.5;" width="742.6846" x="97.7964" y="105.5332"/><text fill="#000000" font-family="sans-serif" font-size="13" font-weight="bold" lengthAdjust="spacing" textLength="134.3608" x="112.7964" y="120.5615">Get Train Details DTO</text><polygon fill="#181818" points="368.3779,144.1152,378.3779,148.1152,368.3779,152.1152,372.3779,148.1152" style="stroke:#181818;stroke-width:1.0;"/><line style="stroke:#181818;stroke-width:1.0;" x1="189.0444" x2="374.3779" y1="148.1152" y2="148.1152"/><text fill="#000000" font-family="sans-serif" font-size="13" font-weight="bold" lengthAdjust="spacing" textLength="18.0718" x="196.0444" y="142.8525">3.1</text><text fill="#000000" font-family="sans-serif" font-size="13" lengthAdjust="spacing" textLength="150.2617" x="218.1162" y="142.8525">getTrain(trainDTO.getId())</text><polygon fill="#181818" points="485.916,175.4063,495.916,179.4063,485.916,183.4063,489.916,179.4063" style="stroke:#181818;stroke-width:1.0;"/><line style="stroke:#181818;stroke-width:1.0;" x1="390.3779" x2="491.916" y1="179.4063" y2="179.4063"/><text fill="#000000" font-family="sans-serif" font-size="13" font-weight="bold" lengthAdjust="spacing" textLength="18.0718" x="397.3779" y="174.1436">3.2</text><text fill="#000000" font-family="sans-serif" font-size="13" lengthAdjust="spacing" textLength="66.4663" x="419.4497" y="174.1436">getTrain(id)</text><polygon fill="#181818" points="636.564,206.6973,646.564,210.6973,636.564,214.6973,640.564,210.6973" style="stroke:#181818;stroke-width:1.0;"/><line style="stroke:#181818;stroke-width:1.0;stroke-dasharray:2.0,2.0;" x1="507.916" x2="642.564" y1="210.6973" y2="210.6973"/><text fill="#000000" font-family="sans-serif" font-size="13" font-weight="bold" lengthAdjust="spacing" textLength="18.0718" x="514.916" y="205.4346">3.3</text><text fill="#000000" font-family="sans-serif" font-size="13" lengthAdjust="spacing" textLength="44.7891" x="536.9878" y="205.4346">create()</text><rect fill="#E3E3E3" height="51.2422" rx="2.5" ry="2.5" style="stroke:#181818;stroke-width:0.5;" width="49.7861" x="648.564" y="187.4063"/><text fill="#000000" font-family="sans-serif" font-size="14" lengthAdjust="spacing" textLength="27.2344" x="659.8398" y="209.5137">train</text><text fill="#000000" font-family="sans-serif" font-size="14" lengthAdjust="spacing" textLength="35.7861" x="655.564" y="228.1348">:Train</text><polygon fill="#181818" points="401.3779,268.9395,391.3779,272.9395,401.3779,276.9395,397.3779,272.9395" style="stroke:#181818;stroke-width:1.0;"/><line style="stroke:#181818;stroke-width:1.0;stroke-dasharray:2.0,2.0;" x1="395.3779" x2="501.916" y1="272.9395" y2="272.9395"/><text fill="#000000" font-family="sans-serif" font-size="13" font-weight="bold" lengthAdjust="spacing" textLength="18.0718" x="407.3779" y="267.6768">3.4</text><text fill="#000000" font-family="sans-serif" font-size="13" lengthAdjust="spacing" textLength="25.2891" x="429.4497" y="267.6768">train</text><polygon fill="#181818" points="200.0444,300.2305,190.0444,304.2305,200.0444,308.2305,196.0444,304.2305" style="stroke:#181818;stroke-width:1.0;"/><line style="stroke:#181818;stroke-width:1.0;stroke-dasharray:2.0,2.0;" x1="194.0444" x2="384.3779" y1="304.2305" y2="304.2305"/><text fill="#000000" font-family="sans-serif" font-size="13" font-weight="bold" lengthAdjust="spacing" textLength="18.0718" x="206.0444" y="298.9678">3.5</text><text fill="#000000" font-family="sans-serif" font-size="13" lengthAdjust="spacing" textLength="25.2891" x="228.1162" y="298.9678">train</text><polygon fill="#181818" points="572.9365,331.5215,582.9365,335.5215,572.9365,339.5215,576.9365,335.5215" style="stroke:#181818;stroke-width:1.0;"/><line style="stroke:#181818;stroke-width:1.0;" x1="189.0444" x2="578.9365" y1="335.5215" y2="335.5215"/><text fill="#000000" font-family="sans-serif" font-size="13" font-weight="bold" lengthAdjust="spacing" textLength="18.0718" x="196.0444" y="330.2588">3.6</text><text fill="#000000" font-family="sans-serif" font-size="13" lengthAdjust="spacing" textLength="111.9663" x="218.1162" y="330.2588">toDetailsDTO(train)</text><polygon fill="#181818" points="696.3501,362.8125,706.3501,366.8125,696.3501,370.8125,700.3501,366.8125" style="stroke:#181818;stroke-width:1.0;"/><line style="stroke:#181818;stroke-width:1.0;stroke-dasharray:2.0,2.0;" x1="594.9365" x2="702.3501" y1="366.8125" y2="366.8125"/><text fill="#000000" font-family="sans-serif" font-size="13" font-weight="bold" lengthAdjust="spacing" textLength="18.0718" x="601.9365" y="361.5498">3.7</text><text fill="#000000" font-family="sans-serif" font-size="13" lengthAdjust="spacing" textLength="44.7891" x="624.0083" y="361.5498">create()</text><rect fill="#E3E3E3" height="51.2422" rx="2.5" ry="2.5" style="stroke:#181818;stroke-width:0.5;" width="122.1309" x="708.3501" y="343.5215"/><text fill="#000000" font-family="sans-serif" font-size="14" lengthAdjust="spacing" textLength="99.5791" x="719.626" y="365.6289">trainDetailsDTO</text><text fill="#000000" font-family="sans-serif" font-size="14" lengthAdjust="spacing" textLength="108.1309" x="715.3501" y="384.25">:TrainDetailsDTO</text><polygon fill="#181818" points="200.0444,425.0547,190.0444,429.0547,200.0444,433.0547,196.0444,429.0547" style="stroke:#181818;stroke-width:1.0;"/><line style="stroke:#181818;stroke-width:1.0;stroke-dasharray:2.0,2.0;" x1="194.0444" x2="588.9365" y1="429.0547" y2="429.0547"/><text fill="#000000" font-family="sans-serif" font-size="13" font-weight="bold" lengthAdjust="spacing" textLength="18.0718" x="206.0444" y="423.792">3.8</text><text fill="#000000" font-family="sans-serif" font-size="13" lengthAdjust="spacing" textLength="92.4663" x="228.1162" y="423.792">trainDetailsDTO</text><polygon fill="#181818" points="11,463.3457,1,467.3457,11,471.3457,7,467.3457" style="stroke:#181818;stroke-width:1.0;"/><line style="stroke:#181818;stroke-width:1.0;stroke-dasharray:2.0,2.0;" x1="5" x2="183.0444" y1="467.3457" y2="467.3457"/><text fill="#000000" font-family="sans-serif" font-size="13" font-weight="bold" lengthAdjust="spacing" textLength="7.23" x="17" y="462.083">4</text><text fill="#000000" font-family="sans-serif" font-size="13" lengthAdjust="spacing" textLength="92.4663" x="28.23" y="462.083">trainDetailsDTO</text><!--SRC=[XLBHQeCm57ttAovzgWKBOtkICIXj6OLsBUhZO6HwPqCraIHkzEzdZPgahLiUxptdt7jEhZnHLX51IYWvu-bHy191YHezENGgafv8Zh4w5mW2KqLONjW0UIGP_w4iXozIIFIyfgneIYl254p2XPGqPuaWb2qvKu8N1Oe940dB9DgwO7L1HLXnIHKNvtSM9cwbvINHOlFs4QqF-pjisPEamSPNAxNz7QcgRX4jk5iS3kleZcIlQB1tG2jKX1PobUnxkAbOGrRhPB7PnXzDrVD8hJYhoqyKyEW5BsqW8UIeRFvKooTxtoNC7poIAlfD5EeaeNcvu7K5hwYWbO1E0oxZe7iNC3JJJ8ncvZ1itbGssTJt1zemp8eVh6VAWtXi2TFCT-2kNEpq1haOWbvhDWiX5TWmflw_uCvLQyO1P_ZNNDl2y1skoBM0pc4aMtrHZGGtjw0J7esrEyBRhNJ3icXTqcWsDrJBabbft9or3R9CsxHkyAajF0U1zdqhR0cs9_eB]--></g></svg>