<svg xmlns="http://www.w3.org/2000/svg" xmlns:xlink="http://www.w3.org/1999/xlink" contentStyleType="text/css" height="816px" preserveAspectRatio="none" style="width:924px;height:816px;background:#FFFFFF;" version="1.1" viewBox="0 0 924 816" width="924px" zoomAndPan="magnify"><defs/><g><!--class AssignTrainUI--><g id="elem_AssignTrainUI"><rect codeLine="9" fill="#F1F1F1" height="107.0086" id="AssignTrainUI" rx="1.5" ry="1.5" style="stroke:#181818;stroke-width:0.3;" width="93.3369" x="420" y="4.2"/><ellipse cx="438.624" cy="13.8" fill="#C2C2C2" rx="6.6" ry="6.6" style="stroke:#181818;stroke-width:0.6;"/><path d="M440.2834,11.325 Q440.3771,11.1938 440.4896,11.1281 Q440.6021,11.0625 440.7334,11.0625 Q440.9584,11.0625 441.099,11.2219 Q441.2396,11.3719 441.2396,11.7375 L441.2396,12.6094 Q441.2396,12.975 441.099,13.1344 Q440.9584,13.2938 440.7334,13.2938 Q440.5271,13.2938 440.4053,13.1719 Q440.2834,13.0594 440.2178,12.75 Q440.1896,12.5344 440.0771,12.4219 Q439.8803,12.1969 439.5146,12.0656 Q439.149,11.9344 438.774,11.9344 Q438.3146,11.9344 437.9303,12.1313 Q437.5553,12.3281 437.2553,12.7781 Q436.9646,13.2281 436.9646,13.8469 L436.9646,14.5031 Q436.9646,15.2437 437.499,15.7406 Q438.0334,16.2281 438.9896,16.2281 Q439.5521,16.2281 439.9459,16.0781 Q440.1803,15.9844 440.4334,15.7219 Q440.5928,15.5625 440.6771,15.5156 Q440.7709,15.4688 440.8928,15.4688 Q441.0896,15.4688 441.2396,15.6281 Q441.399,15.7781 441.399,15.9844 Q441.399,16.1906 441.1928,16.4344 Q440.8928,16.7813 440.4146,16.9781 Q439.7678,17.25 438.9896,17.25 Q438.0803,17.25 437.3584,16.875 Q436.7678,16.575 436.3553,15.9375 Q435.9428,15.2906 435.9428,14.5219 L435.9428,13.8281 Q435.9428,13.0313 436.3084,12.3469 Q436.6834,11.6531 437.3396,11.2875 Q437.9959,10.9125 438.7365,10.9125 Q439.1771,10.9125 439.5615,11.0156 Q439.9553,11.1094 440.2834,11.325 Z " fill="#000000"/><text fill="#000000" font-family="sans-serif" font-size="8.4" lengthAdjust="spacing" textLength="52.7502" x="449.1627" y="17.2781">AssignTrainUI</text><line style="stroke:#181818;stroke-width:0.3;" x1="420.6" x2="512.7369" y1="23.4" y2="23.4"/><line style="stroke:#181818;stroke-width:0.3;" x1="420.6" x2="512.7369" y1="28.2" y2="28.2"/><text fill="#000000" font-family="sans-serif" font-size="8.4" lengthAdjust="spacing" textLength="33.8461" x="423.6" y="39.6645">+create()</text><text fill="#000000" font-family="sans-serif" font-size="8.4" lengthAdjust="spacing" textLength="82.8803" x="423.6" y="50.8371">+getAvailableRoutes()</text><text fill="#000000" font-family="sans-serif" font-size="8.4" lengthAdjust="spacing" textLength="70.268" x="423.6" y="62.0098">+getRouteDetails()</text><text fill="#000000" font-family="sans-serif" font-size="8.4" lengthAdjust="spacing" textLength="67.9383" x="423.6" y="73.1824">+getRoutePoints()</text><text fill="#000000" font-family="sans-serif" font-size="8.4" lengthAdjust="spacing" textLength="79.6031" x="423.6" y="84.3551">+getAvailableTrains()</text><text fill="#000000" font-family="sans-serif" font-size="8.4" lengthAdjust="spacing" textLength="66.9908" x="423.6" y="95.5277">+getTrainDetails()</text><text fill="#000000" font-family="sans-serif" font-size="8.4" lengthAdjust="spacing" textLength="86.1369" x="423.6" y="106.7004">+assignTrainToRoute()</text></g><!--class AssignTrainController--><g id="elem_AssignTrainController"><rect codeLine="20" fill="#F1F1F1" height="118.1812" id="AssignTrainController" rx="1.5" ry="1.5" style="stroke:#181818;stroke-width:0.3;" width="255.3035" x="339" y="147"/><ellipse cx="423.7198" cy="156.6" fill="#C2C2C2" rx="6.6" ry="6.6" style="stroke:#181818;stroke-width:0.6;"/><path d="M425.3792,154.125 Q425.4729,153.9938 425.5854,153.9281 Q425.6979,153.8625 425.8292,153.8625 Q426.0542,153.8625 426.1948,154.0219 Q426.3354,154.1719 426.3354,154.5375 L426.3354,155.4094 Q426.3354,155.775 426.1948,155.9344 Q426.0542,156.0938 425.8292,156.0938 Q425.6229,156.0938 425.5011,155.9719 Q425.3792,155.8594 425.3136,155.55 Q425.2854,155.3344 425.1729,155.2219 Q424.9761,154.9969 424.6104,154.8656 Q424.2448,154.7344 423.8698,154.7344 Q423.4104,154.7344 423.0261,154.9313 Q422.6511,155.1281 422.3511,155.5781 Q422.0604,156.0281 422.0604,156.6469 L422.0604,157.3031 Q422.0604,158.0438 422.5948,158.5406 Q423.1292,159.0281 424.0854,159.0281 Q424.6479,159.0281 425.0417,158.8781 Q425.2761,158.7844 425.5292,158.5219 Q425.6886,158.3625 425.7729,158.3156 Q425.8667,158.2687 425.9886,158.2687 Q426.1854,158.2687 426.3354,158.4281 Q426.4948,158.5781 426.4948,158.7844 Q426.4948,158.9906 426.2886,159.2344 Q425.9886,159.5812 425.5104,159.7781 Q424.8636,160.05 424.0854,160.05 Q423.1761,160.05 422.4542,159.675 Q421.8636,159.375 421.4511,158.7375 Q421.0386,158.0906 421.0386,157.3219 L421.0386,156.6281 Q421.0386,155.8312 421.4042,155.1469 Q421.7792,154.4531 422.4354,154.0875 Q423.0917,153.7125 423.8323,153.7125 Q424.2729,153.7125 424.6573,153.8156 Q425.0511,153.9094 425.3792,154.125 Z " fill="#000000"/><text fill="#000000" font-family="sans-serif" font-size="8.4" lengthAdjust="spacing" textLength="80.7639" x="436.0198" y="160.0781">AssignTrainController</text><line style="stroke:#181818;stroke-width:0.3;" x1="339.6" x2="593.7035" y1="166.2" y2="166.2"/><line style="stroke:#181818;stroke-width:0.3;" x1="339.6" x2="593.7035" y1="171" y2="171"/><text fill="#000000" font-family="sans-serif" font-size="8.4" lengthAdjust="spacing" textLength="33.8461" x="342.6" y="182.4645">+create()</text><text fill="#000000" font-family="sans-serif" font-size="8.4" lengthAdjust="spacing" textLength="82.8803" x="342.6" y="193.6371">+getAvailableRoutes()</text><text fill="#000000" font-family="sans-serif" font-size="8.4" lengthAdjust="spacing" textLength="151.9588" x="342.6" y="204.8098">+getRouteDetails(routeDTO: RouteDTO)</text><text fill="#000000" font-family="sans-serif" font-size="8.4" lengthAdjust="spacing" textLength="149.6291" x="342.6" y="215.9824">+getRoutePoints(routeDTO: RouteDTO)</text><text fill="#000000" font-family="sans-serif" font-size="8.4" lengthAdjust="spacing" textLength="205.6523" x="342.6" y="227.1551">+setCargoMode(pointOfRouteDTO: PointOfRouteDTO)</text><text fill="#000000" font-family="sans-serif" font-size="8.4" lengthAdjust="spacing" textLength="79.6031" x="342.6" y="238.3277">+getAvailableTrains()</text><text fill="#000000" font-family="sans-serif" font-size="8.4" lengthAdjust="spacing" textLength="142.599" x="342.6" y="249.5004">+getTrainDetails(trainDTO: TrainDTO)</text><text fill="#000000" font-family="sans-serif" font-size="8.4" lengthAdjust="spacing" textLength="248.1035" x="342.6" y="260.673">+assignTrainToRoute(routeDTO: RouteDTO, trainDTO: TrainDTO)</text></g><!--class RouteRepository--><g id="elem_RouteRepository"><rect codeLine="32" fill="#F1F1F1" height="62.318" id="RouteRepository" rx="1.5" ry="1.5" style="stroke:#181818;stroke-width:0.3;" width="114.8291" x="84.3" y="306.6"/><ellipse cx="108.1787" cy="316.2" fill="#C2C2C2" rx="6.6" ry="6.6" style="stroke:#181818;stroke-width:0.6;"/><path d="M109.8381,313.725 Q109.9319,313.5938 110.0444,313.5281 Q110.1569,313.4625 110.2881,313.4625 Q110.5131,313.4625 110.6537,313.6219 Q110.7944,313.7719 110.7944,314.1375 L110.7944,315.0094 Q110.7944,315.375 110.6537,315.5344 Q110.5131,315.6937 110.2881,315.6937 Q110.0819,315.6937 109.96,315.5719 Q109.8381,315.4594 109.7725,315.15 Q109.7444,314.9344 109.6319,314.8219 Q109.435,314.5969 109.0694,314.4656 Q108.7037,314.3344 108.3287,314.3344 Q107.8694,314.3344 107.485,314.5313 Q107.11,314.7281 106.81,315.1781 Q106.5194,315.6281 106.5194,316.2469 L106.5194,316.9031 Q106.5194,317.6438 107.0537,318.1406 Q107.5881,318.6281 108.5444,318.6281 Q109.1069,318.6281 109.5006,318.4781 Q109.735,318.3844 109.9881,318.1219 Q110.1475,317.9625 110.2319,317.9156 Q110.3256,317.8688 110.4475,317.8688 Q110.6444,317.8688 110.7944,318.0281 Q110.9537,318.1781 110.9537,318.3844 Q110.9537,318.5906 110.7475,318.8344 Q110.4475,319.1813 109.9694,319.3781 Q109.3225,319.65 108.5444,319.65 Q107.635,319.65 106.9131,319.275 Q106.3225,318.975 105.91,318.3375 Q105.4975,317.6906 105.4975,316.9219 L105.4975,316.2281 Q105.4975,315.4313 105.8631,314.7469 Q106.2381,314.0531 106.8944,313.6875 Q107.5506,313.3125 108.2912,313.3125 Q108.7319,313.3125 109.1162,313.4156 Q109.51,313.5094 109.8381,313.725 Z " fill="#000000"/><text fill="#000000" font-family="sans-serif" font-size="8.4" lengthAdjust="spacing" textLength="62.5652" x="119.8851" y="319.6781">RouteRepository</text><line style="stroke:#181818;stroke-width:0.3;" x1="84.9" x2="198.5291" y1="325.8" y2="325.8"/><line style="stroke:#181818;stroke-width:0.3;" x1="84.9" x2="198.5291" y1="330.6" y2="330.6"/><text fill="#000000" font-family="sans-serif" font-size="8.4" lengthAdjust="spacing" textLength="70.7314" x="87.9" y="342.0645">+getListOfRoutes()</text><text fill="#000000" font-family="sans-serif" font-size="8.4" lengthAdjust="spacing" textLength="64.6693" x="87.9" y="353.2371">+getRoute(id: int)</text><text fill="#000000" font-family="sans-serif" font-size="8.4" lengthAdjust="spacing" textLength="107.6291" x="87.9" y="364.4098">+getRoutePoints(routeId: int)</text></g><!--class TrainRepository--><g id="elem_TrainRepository"><rect codeLine="38" fill="#F1F1F1" height="51.1453" id="TrainRepository" rx="1.5" ry="1.5" style="stroke:#181818;stroke-width:0.3;" width="78.4881" x="253.5" y="312.3"/><ellipse cx="262.5" cy="321.9" fill="#C2C2C2" rx="6.6" ry="6.6" style="stroke:#181818;stroke-width:0.6;"/><path d="M264.1594,319.425 Q264.2531,319.2938 264.3656,319.2281 Q264.4781,319.1625 264.6094,319.1625 Q264.8344,319.1625 264.975,319.3219 Q265.1156,319.4719 265.1156,319.8375 L265.1156,320.7094 Q265.1156,321.075 264.975,321.2344 Q264.8344,321.3938 264.6094,321.3938 Q264.4031,321.3938 264.2813,321.2719 Q264.1594,321.1594 264.0938,320.85 Q264.0656,320.6344 263.9531,320.5219 Q263.7562,320.2969 263.3906,320.1656 Q263.025,320.0344 262.65,320.0344 Q262.1906,320.0344 261.8063,320.2313 Q261.4313,320.4281 261.1312,320.8781 Q260.8406,321.3281 260.8406,321.9469 L260.8406,322.6031 Q260.8406,323.3438 261.375,323.8406 Q261.9094,324.3281 262.8656,324.3281 Q263.4281,324.3281 263.8219,324.1781 Q264.0563,324.0844 264.3094,323.8219 Q264.4688,323.6625 264.5531,323.6156 Q264.6469,323.5687 264.7688,323.5687 Q264.9656,323.5687 265.1156,323.7281 Q265.275,323.8781 265.275,324.0844 Q265.275,324.2906 265.0687,324.5344 Q264.7688,324.8812 264.2906,325.0781 Q263.6438,325.35 262.8656,325.35 Q261.9563,325.35 261.2344,324.975 Q260.6438,324.675 260.2313,324.0375 Q259.8187,323.3906 259.8187,322.6219 L259.8187,321.9281 Q259.8187,321.1312 260.1844,320.4469 Q260.5594,319.7531 261.2156,319.3875 Q261.8719,319.0125 262.6125,319.0125 Q263.0531,319.0125 263.4375,319.1156 Q263.8313,319.2094 264.1594,319.425 Z " fill="#000000"/><text fill="#000000" font-family="sans-serif" font-size="8.4" lengthAdjust="spacing" textLength="59.2881" x="270.9" y="325.3781">TrainRepository</text><line style="stroke:#181818;stroke-width:0.3;" x1="254.1" x2="331.3881" y1="331.5" y2="331.5"/><line style="stroke:#181818;stroke-width:0.3;" x1="254.1" x2="331.3881" y1="336.3" y2="336.3"/><text fill="#000000" font-family="sans-serif" font-size="8.4" lengthAdjust="spacing" textLength="67.4543" x="257.1" y="347.7645">+getListOfTrains()</text><text fill="#000000" font-family="sans-serif" font-size="8.4" lengthAdjust="spacing" textLength="61.3922" x="257.1" y="358.9371">+getTrain(id: int)</text></g><!--class Routes--><g id="elem_Routes"><rect codeLine="44" fill="#F1F1F1" height="62.318" id="Routes" rx="1.5" ry="1.5" style="stroke:#181818;stroke-width:0.3;" width="114.8291" x="68.7" y="410.4"/><ellipse cx="110.257" cy="420" fill="#C2C2C2" rx="6.6" ry="6.6" style="stroke:#181818;stroke-width:0.6;"/><path d="M111.9164,417.525 Q112.0102,417.3938 112.1227,417.3281 Q112.2352,417.2625 112.3664,417.2625 Q112.5914,417.2625 112.732,417.4219 Q112.8727,417.5719 112.8727,417.9375 L112.8727,418.8094 Q112.8727,419.175 112.732,419.3344 Q112.5914,419.4938 112.3664,419.4938 Q112.1602,419.4938 112.0383,419.3719 Q111.9164,419.2594 111.8508,418.95 Q111.8227,418.7344 111.7102,418.6219 Q111.5133,418.3969 111.1477,418.2656 Q110.782,418.1344 110.407,418.1344 Q109.9477,418.1344 109.5633,418.3313 Q109.1883,418.5281 108.8883,418.9781 Q108.5977,419.4281 108.5977,420.0469 L108.5977,420.7031 Q108.5977,421.4437 109.132,421.9406 Q109.6664,422.4281 110.6227,422.4281 Q111.1852,422.4281 111.5789,422.2781 Q111.8133,422.1844 112.0664,421.9219 Q112.2258,421.7625 112.3102,421.7156 Q112.4039,421.6688 112.5258,421.6688 Q112.7227,421.6688 112.8727,421.8281 Q113.032,421.9781 113.032,422.1844 Q113.032,422.3906 112.8258,422.6344 Q112.5258,422.9813 112.0477,423.1781 Q111.4008,423.45 110.6227,423.45 Q109.7133,423.45 108.9914,423.075 Q108.4008,422.775 107.9883,422.1375 Q107.5758,421.4906 107.5758,420.7219 L107.5758,420.0281 Q107.5758,419.2313 107.9414,418.5469 Q108.3164,417.8531 108.9727,417.4875 Q109.6289,417.1125 110.3695,417.1125 Q110.8102,417.1125 111.1945,417.2156 Q111.5883,417.3094 111.9164,417.525 Z " fill="#000000"/><text fill="#000000" font-family="sans-serif" font-size="8.4" lengthAdjust="spacing" textLength="26.615" x="122.557" y="423.4781">Routes</text><line style="stroke:#181818;stroke-width:0.3;" x1="69.3" x2="182.9291" y1="429.6" y2="429.6"/><line style="stroke:#181818;stroke-width:0.3;" x1="69.3" x2="182.9291" y1="434.4" y2="434.4"/><text fill="#000000" font-family="sans-serif" font-size="8.4" lengthAdjust="spacing" textLength="70.7314" x="72.3" y="445.8645">+getListOfRoutes()</text><text fill="#000000" font-family="sans-serif" font-size="8.4" lengthAdjust="spacing" textLength="64.6693" x="72.3" y="457.0371">+getRoute(id: int)</text><text fill="#000000" font-family="sans-serif" font-size="8.4" lengthAdjust="spacing" textLength="107.6291" x="72.3" y="468.2098">+getRoutePoints(routeId: int)</text></g><!--class Trains--><g id="elem_Trains"><rect codeLine="50" fill="#F1F1F1" height="51.1453" id="Trains" rx="1.5" ry="1.5" style="stroke:#181818;stroke-width:0.3;" width="74.6543" x="200.4" y="531.3"/><ellipse cx="223.8524" cy="540.9" fill="#C2C2C2" rx="6.6" ry="6.6" style="stroke:#181818;stroke-width:0.6;"/><path d="M225.5118,538.425 Q225.6055,538.2937 225.718,538.2281 Q225.8305,538.1625 225.9618,538.1625 Q226.1868,538.1625 226.3274,538.3219 Q226.468,538.4719 226.468,538.8375 L226.468,539.7094 Q226.468,540.075 226.3274,540.2344 Q226.1868,540.3938 225.9618,540.3938 Q225.7555,540.3938 225.6336,540.2719 Q225.5118,540.1594 225.4461,539.85 Q225.418,539.6344 225.3055,539.5219 Q225.1086,539.2969 224.743,539.1656 Q224.3774,539.0344 224.0024,539.0344 Q223.543,539.0344 223.1586,539.2312 Q222.7836,539.4281 222.4836,539.8781 Q222.193,540.3281 222.193,540.9469 L222.193,541.6031 Q222.193,542.3438 222.7274,542.8406 Q223.2618,543.3281 224.218,543.3281 Q224.7805,543.3281 225.1743,543.1781 Q225.4086,543.0844 225.6618,542.8219 Q225.8211,542.6625 225.9055,542.6156 Q225.9993,542.5688 226.1211,542.5688 Q226.318,542.5688 226.468,542.7281 Q226.6274,542.8781 226.6274,543.0844 Q226.6274,543.2906 226.4211,543.5344 Q226.1211,543.8813 225.643,544.0781 Q224.9961,544.35 224.218,544.35 Q223.3086,544.35 222.5868,543.975 Q221.9961,543.675 221.5836,543.0375 Q221.1711,542.3906 221.1711,541.6219 L221.1711,540.9281 Q221.1711,540.1313 221.5368,539.4469 Q221.9118,538.7531 222.568,538.3875 Q223.2243,538.0125 223.9649,538.0125 Q224.4055,538.0125 224.7899,538.1156 Q225.1836,538.2094 225.5118,538.425 Z " fill="#000000"/><text fill="#000000" font-family="sans-serif" font-size="8.4" lengthAdjust="spacing" textLength="23.3379" x="235.464" y="544.3781">Trains</text><line style="stroke:#181818;stroke-width:0.3;" x1="201" x2="274.4543" y1="550.5" y2="550.5"/><line style="stroke:#181818;stroke-width:0.3;" x1="201" x2="274.4543" y1="555.3" y2="555.3"/><text fill="#000000" font-family="sans-serif" font-size="8.4" lengthAdjust="spacing" textLength="67.4543" x="204" y="566.7645">+getListOfTrains()</text><text fill="#000000" font-family="sans-serif" font-size="8.4" lengthAdjust="spacing" textLength="61.3922" x="204" y="577.9371">+getTrain(id: int)</text></g><!--class Route--><g id="elem_Route"><rect codeLine="55" fill="#F1F1F1" height="95.8359" id="Route" rx="1.5" ry="1.5" style="stroke:#181818;stroke-width:0.3;" width="149.8236" x="29.4" y="508.8"/><ellipse cx="90.5543" cy="518.4" fill="#C2C2C2" rx="6.6" ry="6.6" style="stroke:#181818;stroke-width:0.6;"/><path d="M92.2137,515.925 Q92.3074,515.7937 92.4199,515.7281 Q92.5324,515.6625 92.6637,515.6625 Q92.8887,515.6625 93.0293,515.8219 Q93.1699,515.9719 93.1699,516.3375 L93.1699,517.2094 Q93.1699,517.575 93.0293,517.7344 Q92.8887,517.8938 92.6637,517.8938 Q92.4574,517.8938 92.3355,517.7719 Q92.2137,517.6594 92.148,517.35 Q92.1199,517.1344 92.0074,517.0219 Q91.8105,516.7969 91.4449,516.6656 Q91.0793,516.5344 90.7043,516.5344 Q90.2449,516.5344 89.8605,516.7312 Q89.4855,516.9281 89.1855,517.3781 Q88.8949,517.8281 88.8949,518.4469 L88.8949,519.1031 Q88.8949,519.8438 89.4293,520.3406 Q89.9637,520.8281 90.9199,520.8281 Q91.4824,520.8281 91.8762,520.6781 Q92.1105,520.5844 92.3637,520.3219 Q92.523,520.1625 92.6074,520.1156 Q92.7012,520.0688 92.823,520.0688 Q93.0199,520.0688 93.1699,520.2281 Q93.3293,520.3781 93.3293,520.5844 Q93.3293,520.7906 93.123,521.0344 Q92.823,521.3813 92.3449,521.5781 Q91.698,521.85 90.9199,521.85 Q90.0105,521.85 89.2887,521.475 Q88.698,521.175 88.2855,520.5375 Q87.873,519.8906 87.873,519.1219 L87.873,518.4281 Q87.873,517.6313 88.2387,516.9469 Q88.6137,516.2531 89.2699,515.8875 Q89.9262,515.5125 90.6668,515.5125 Q91.1074,515.5125 91.4918,515.6156 Q91.8855,515.7094 92.2137,515.925 Z " fill="#000000"/><text fill="#000000" font-family="sans-serif" font-size="8.4" lengthAdjust="spacing" textLength="22.415" x="102.8543" y="521.8781">Route</text><line style="stroke:#181818;stroke-width:0.3;" x1="30" x2="178.6236" y1="528" y2="528"/><text fill="#000000" font-family="sans-serif" font-size="8.4" lengthAdjust="spacing" textLength="22.8744" x="33" y="539.4645">-id: int</text><text fill="#000000" font-family="sans-serif" font-size="8.4" lengthAdjust="spacing" textLength="50.4205" x="33" y="550.6371">-name: String</text><text fill="#000000" font-family="sans-serif" font-size="8.4" lengthAdjust="spacing" textLength="103.1912" x="33" y="561.8098">-points: List&lt;PointOfRoute&gt;</text><line style="stroke:#181818;stroke-width:0.3;" x1="30" x2="178.6236" y1="566.318" y2="566.318"/><text fill="#000000" font-family="sans-serif" font-size="8.4" lengthAdjust="spacing" textLength="111.3656" x="33" y="577.7824">+getPointOfRoute(pointId: int)</text><text fill="#000000" font-family="sans-serif" font-size="8.4" lengthAdjust="spacing" textLength="94.0652" x="33" y="588.9551">+assignTrain(train: Train)</text><text fill="#000000" font-family="sans-serif" font-size="8.4" lengthAdjust="spacing" textLength="142.6236" x="33" y="600.1277">+validateTrainAssignment(train: Train)</text></g><!--class Train--><g id="elem_Train"><rect codeLine="64" fill="#F1F1F1" height="73.4906" id="Train" rx="1.5" ry="1.5" style="stroke:#181818;stroke-width:0.3;" width="97.5492" x="188.7" y="640.8"/><ellipse cx="225.3557" cy="650.4" fill="#C2C2C2" rx="6.6" ry="6.6" style="stroke:#181818;stroke-width:0.6;"/><path d="M227.015,647.925 Q227.1088,647.7937 227.2213,647.7281 Q227.3338,647.6625 227.465,647.6625 Q227.69,647.6625 227.8307,647.8219 Q227.9713,647.9719 227.9713,648.3375 L227.9713,649.2094 Q227.9713,649.575 227.8307,649.7344 Q227.69,649.8938 227.465,649.8938 Q227.2588,649.8938 227.1369,649.7719 Q227.015,649.6594 226.9494,649.35 Q226.9213,649.1344 226.8088,649.0219 Q226.6119,648.7969 226.2463,648.6656 Q225.8807,648.5344 225.5057,648.5344 Q225.0463,648.5344 224.6619,648.7312 Q224.2869,648.9281 223.9869,649.3781 Q223.6963,649.8281 223.6963,650.4469 L223.6963,651.1031 Q223.6963,651.8438 224.2307,652.3406 Q224.765,652.8281 225.7213,652.8281 Q226.2838,652.8281 226.6775,652.6781 Q226.9119,652.5844 227.165,652.3219 Q227.3244,652.1625 227.4088,652.1156 Q227.5025,652.0688 227.6244,652.0688 Q227.8213,652.0688 227.9713,652.2281 Q228.1307,652.3781 228.1307,652.5844 Q228.1307,652.7906 227.9244,653.0344 Q227.6244,653.3813 227.1463,653.5781 Q226.4994,653.85 225.7213,653.85 Q224.8119,653.85 224.09,653.475 Q223.4994,653.175 223.0869,652.5375 Q222.6744,651.8906 222.6744,651.1219 L222.6744,650.4281 Q222.6744,649.6313 223.04,648.9469 Q223.415,648.2531 224.0713,647.8875 Q224.7275,647.5125 225.4682,647.5125 Q225.9088,647.5125 226.2932,647.6156 Q226.6869,647.7094 227.015,647.925 Z " fill="#000000"/><text fill="#000000" font-family="sans-serif" font-size="8.4" lengthAdjust="spacing" textLength="19.1379" x="237.6557" y="653.8781">Train</text><line style="stroke:#181818;stroke-width:0.3;" x1="189.3" x2="285.6492" y1="660" y2="660"/><text fill="#000000" font-family="sans-serif" font-size="8.4" lengthAdjust="spacing" textLength="22.8744" x="192.3" y="671.4645">-id: int</text><text fill="#000000" font-family="sans-serif" font-size="8.4" lengthAdjust="spacing" textLength="50.4205" x="192.3" y="682.6371">-name: String</text><text fill="#000000" font-family="sans-serif" font-size="8.4" lengthAdjust="spacing" textLength="49.026" x="192.3" y="693.8098">-route: Route</text><line style="stroke:#181818;stroke-width:0.3;" x1="189.3" x2="285.6492" y1="698.318" y2="698.318"/><text fill="#000000" font-family="sans-serif" font-size="8.4" lengthAdjust="spacing" textLength="90.3492" x="192.3" y="709.7824">+setRoute(route: Route)</text></g><!--class PointOfRoute--><g id="elem_PointOfRoute"><rect codeLine="71" fill="#F1F1F1" height="73.4906" id="PointOfRoute" rx="1.5" ry="1.5" style="stroke:#181818;stroke-width:0.3;" width="163.3793" x="4.2" y="640.8"/><ellipse cx="58.1253" cy="650.4" fill="#C2C2C2" rx="6.6" ry="6.6" style="stroke:#181818;stroke-width:0.6;"/><path d="M59.7847,647.925 Q59.8784,647.7937 59.9909,647.7281 Q60.1034,647.6625 60.2347,647.6625 Q60.4597,647.6625 60.6003,647.8219 Q60.7409,647.9719 60.7409,648.3375 L60.7409,649.2094 Q60.7409,649.575 60.6003,649.7344 Q60.4597,649.8938 60.2347,649.8938 Q60.0284,649.8938 59.9065,649.7719 Q59.7847,649.6594 59.719,649.35 Q59.6909,649.1344 59.5784,649.0219 Q59.3815,648.7969 59.0159,648.6656 Q58.6503,648.5344 58.2753,648.5344 Q57.8159,648.5344 57.4315,648.7312 Q57.0565,648.9281 56.7565,649.3781 Q56.4659,649.8281 56.4659,650.4469 L56.4659,651.1031 Q56.4659,651.8438 57.0003,652.3406 Q57.5347,652.8281 58.4909,652.8281 Q59.0534,652.8281 59.4472,652.6781 Q59.6815,652.5844 59.9347,652.3219 Q60.094,652.1625 60.1784,652.1156 Q60.2722,652.0688 60.394,652.0688 Q60.5909,652.0688 60.7409,652.2281 Q60.9003,652.3781 60.9003,652.5844 Q60.9003,652.7906 60.694,653.0344 Q60.394,653.3813 59.9159,653.5781 Q59.269,653.85 58.4909,653.85 Q57.5815,653.85 56.8597,653.475 Q56.269,653.175 55.8565,652.5375 Q55.444,651.8906 55.444,651.1219 L55.444,650.4281 Q55.444,649.6313 55.8097,648.9469 Q56.1847,648.2531 56.8409,647.8875 Q57.4972,647.5125 58.2378,647.5125 Q58.6784,647.5125 59.0628,647.6156 Q59.4565,647.7094 59.7847,647.925 Z " fill="#000000"/><text fill="#000000" font-family="sans-serif" font-size="8.4" lengthAdjust="spacing" textLength="50.4287" x="70.4253" y="653.8781">PointOfRoute</text><line style="stroke:#181818;stroke-width:0.3;" x1="4.8" x2="166.9793" y1="660" y2="660"/><text fill="#000000" font-family="sans-serif" font-size="8.4" lengthAdjust="spacing" textLength="22.8744" x="7.8" y="671.4645">-id: int</text><text fill="#000000" font-family="sans-serif" font-size="8.4" lengthAdjust="spacing" textLength="42.4881" x="7.8" y="682.6371">-routeId: int</text><text fill="#000000" font-family="sans-serif" font-size="8.4" lengthAdjust="spacing" textLength="93.3803" x="7.8" y="693.8098">-cargoMode: CargoMode</text><line style="stroke:#181818;stroke-width:0.3;" x1="4.8" x2="166.9793" y1="698.318" y2="698.318"/><text fill="#000000" font-family="sans-serif" font-size="8.4" lengthAdjust="spacing" textLength="156.1793" x="7.8" y="709.7824">+setCargoMode(cargoMode: CargoMode)</text></g><!--class CargoMode--><g id="elem_CargoMode"><rect codeLine="78" fill="#F1F1F1" height="62.318" id="CargoMode" rx="1.5" ry="1.5" style="stroke:#181818;stroke-width:0.3;" width="63.0908" x="54.3" y="750"/><ellipse cx="63.3" cy="759.6" fill="#ABABAB" rx="6.6" ry="6.6" style="stroke:#181818;stroke-width:0.6;"/><path d="M62.6156,760.0781 L62.6156,761.5781 L65.2125,761.5781 L65.2125,761.025 Q65.2125,760.6594 65.3531,760.5 Q65.5031,760.3406 65.7281,760.3406 Q65.9531,760.3406 66.0938,760.5 Q66.2344,760.6594 66.2344,761.025 L66.2344,762.6 L61.4344,762.6 Q61.0594,762.6 60.9,762.4594 Q60.75,762.3188 60.75,762.0844 Q60.75,761.8594 60.9094,761.7188 Q61.0687,761.5781 61.4344,761.5781 L61.5938,761.5781 L61.5938,757.5844 L61.4344,757.5844 Q61.0594,757.5844 60.9,757.4438 Q60.75,757.3031 60.75,757.0688 Q60.75,756.8438 60.9,756.7031 Q61.0594,756.5625 61.4344,756.5625 L66.0094,756.5625 L66.0094,758.1188 Q66.0094,758.4844 65.8687,758.6438 Q65.7375,758.7937 65.5031,758.7937 Q65.2781,758.7937 65.1375,758.6438 Q64.9969,758.4844 64.9969,758.1188 L64.9969,757.5844 L62.6156,757.5844 L62.6156,759.0563 L63.5062,759.0563 Q63.5062,758.6625 63.5813,758.55 Q63.7406,758.3063 64.0219,758.3063 Q64.2469,758.3063 64.3875,758.4656 Q64.5281,758.6156 64.5281,758.9812 L64.5281,760.1625 Q64.5281,760.4906 64.4531,760.6031 Q64.2938,760.8375 64.0219,760.8375 Q63.7406,760.8375 63.5813,760.5938 Q63.5062,760.4812 63.5062,760.0781 L62.6156,760.0781 Z " fill="#000000"/><text fill="#000000" font-family="sans-serif" font-size="8.4" lengthAdjust="spacing" textLength="43.8908" x="71.7" y="763.0781">CargoMode</text><line style="stroke:#181818;stroke-width:0.3;" x1="54.9" x2="116.7908" y1="769.2" y2="769.2"/><text fill="#000000" font-family="sans-serif" font-size="8.4" lengthAdjust="spacing" textLength="20.5406" x="57.9" y="780.6645">FULL</text><text fill="#000000" font-family="sans-serif" font-size="8.4" lengthAdjust="spacing" textLength="21.4717" x="57.9" y="791.8371">HALF</text><text fill="#000000" font-family="sans-serif" font-size="8.4" lengthAdjust="spacing" textLength="45.2936" x="57.9" y="803.0098">AVAILABLE</text><line style="stroke:#181818;stroke-width:0.3;" x1="54.9" x2="116.7908" y1="807.518" y2="807.518"/></g><!--class RouteDTO--><g id="elem_RouteDTO"><rect codeLine="85" fill="#F1F1F1" height="51.1453" id="RouteDTO" rx="1.5" ry="1.5" style="stroke:#181818;stroke-width:0.3;" width="59.3461" x="258.3" y="416.1"/><ellipse cx="267.3" cy="425.7" fill="#C2C2C2" rx="6.6" ry="6.6" style="stroke:#181818;stroke-width:0.6;"/><path d="M268.9594,423.225 Q269.0531,423.0938 269.1656,423.0281 Q269.2781,422.9625 269.4094,422.9625 Q269.6344,422.9625 269.775,423.1219 Q269.9156,423.2719 269.9156,423.6375 L269.9156,424.5094 Q269.9156,424.875 269.775,425.0344 Q269.6344,425.1937 269.4094,425.1937 Q269.2031,425.1937 269.0813,425.0719 Q268.9594,424.9594 268.8938,424.65 Q268.8656,424.4344 268.7531,424.3219 Q268.5563,424.0969 268.1906,423.9656 Q267.825,423.8344 267.45,423.8344 Q266.9906,423.8344 266.6063,424.0313 Q266.2313,424.2281 265.9313,424.6781 Q265.6406,425.1281 265.6406,425.7469 L265.6406,426.4031 Q265.6406,427.1438 266.175,427.6406 Q266.7094,428.1281 267.6656,428.1281 Q268.2281,428.1281 268.6219,427.9781 Q268.8563,427.8844 269.1094,427.6219 Q269.2688,427.4625 269.3531,427.4156 Q269.4469,427.3688 269.5687,427.3688 Q269.7656,427.3688 269.9156,427.5281 Q270.075,427.6781 270.075,427.8844 Q270.075,428.0906 269.8688,428.3344 Q269.5687,428.6813 269.0906,428.8781 Q268.4437,429.15 267.6656,429.15 Q266.7562,429.15 266.0344,428.775 Q265.4437,428.475 265.0313,427.8375 Q264.6188,427.1906 264.6188,426.4219 L264.6188,425.7281 Q264.6188,424.9313 264.9844,424.2469 Q265.3594,423.5531 266.0156,423.1875 Q266.6719,422.8125 267.4125,422.8125 Q267.8531,422.8125 268.2375,422.9156 Q268.6312,423.0094 268.9594,423.225 Z " fill="#000000"/><text fill="#000000" font-family="sans-serif" font-size="8.4" lengthAdjust="spacing" textLength="40.1461" x="275.7" y="429.1781">RouteDTO</text><line style="stroke:#181818;stroke-width:0.3;" x1="258.9" x2="317.0461" y1="435.3" y2="435.3"/><text fill="#000000" font-family="sans-serif" font-size="8.4" lengthAdjust="spacing" textLength="22.8744" x="261.9" y="446.7645">-id: int</text><text fill="#000000" font-family="sans-serif" font-size="8.4" lengthAdjust="spacing" textLength="50.4205" x="261.9" y="457.9371">-name: String</text><line style="stroke:#181818;stroke-width:0.3;" x1="258.9" x2="317.0461" y1="462.4453" y2="462.4453"/></g><!--class RouteDetailsDTO--><g id="elem_RouteDetailsDTO"><rect codeLine="90" fill="#F1F1F1" height="62.318" id="RouteDetailsDTO" rx="1.5" ry="1.5" style="stroke:#181818;stroke-width:0.3;" width="128.1223" x="339" y="410.4"/><ellipse cx="367.6002" cy="420" fill="#C2C2C2" rx="6.6" ry="6.6" style="stroke:#181818;stroke-width:0.6;"/><path d="M369.2596,417.525 Q369.3533,417.3938 369.4658,417.3281 Q369.5783,417.2625 369.7096,417.2625 Q369.9346,417.2625 370.0752,417.4219 Q370.2158,417.5719 370.2158,417.9375 L370.2158,418.8094 Q370.2158,419.175 370.0752,419.3344 Q369.9346,419.4938 369.7096,419.4938 Q369.5033,419.4938 369.3814,419.3719 Q369.2596,419.2594 369.1939,418.95 Q369.1658,418.7344 369.0533,418.6219 Q368.8564,418.3969 368.4908,418.2656 Q368.1252,418.1344 367.7502,418.1344 Q367.2908,418.1344 366.9064,418.3313 Q366.5314,418.5281 366.2314,418.9781 Q365.9408,419.4281 365.9408,420.0469 L365.9408,420.7031 Q365.9408,421.4437 366.4752,421.9406 Q367.0096,422.4281 367.9658,422.4281 Q368.5283,422.4281 368.9221,422.2781 Q369.1564,422.1844 369.4096,421.9219 Q369.5689,421.7625 369.6533,421.7156 Q369.7471,421.6688 369.8689,421.6688 Q370.0658,421.6688 370.2158,421.8281 Q370.3752,421.9781 370.3752,422.1844 Q370.3752,422.3906 370.1689,422.6344 Q369.8689,422.9813 369.3908,423.1781 Q368.7439,423.45 367.9658,423.45 Q367.0564,423.45 366.3346,423.075 Q365.7439,422.775 365.3314,422.1375 Q364.9189,421.4906 364.9189,420.7219 L364.9189,420.0281 Q364.9189,419.2313 365.2846,418.5469 Q365.6596,417.8531 366.3158,417.4875 Q366.9721,417.1125 367.7127,417.1125 Q368.1533,417.1125 368.5377,417.2156 Q368.9314,417.3094 369.2596,417.525 Z " fill="#000000"/><text fill="#000000" font-family="sans-serif" font-size="8.4" lengthAdjust="spacing" textLength="65.8219" x="379.9002" y="423.4781">RouteDetailsDTO</text><line style="stroke:#181818;stroke-width:0.3;" x1="339.6" x2="466.5223" y1="429.6" y2="429.6"/><text fill="#000000" font-family="sans-serif" font-size="8.4" lengthAdjust="spacing" textLength="22.8744" x="342.6" y="441.0645">-id: int</text><text fill="#000000" font-family="sans-serif" font-size="8.4" lengthAdjust="spacing" textLength="50.4205" x="342.6" y="452.2371">-name: String</text><text fill="#000000" font-family="sans-serif" font-size="8.4" lengthAdjust="spacing" textLength="120.9223" x="342.6" y="463.4098">-points: List&lt;PointOfRouteDTO&gt;</text><line style="stroke:#181818;stroke-width:0.3;" x1="339.6" x2="466.5223" y1="467.918" y2="467.918"/></g><!--class PointOfRouteDTO--><g id="elem_PointOfRouteDTO"><rect codeLine="96" fill="#F1F1F1" height="62.318" id="PointOfRouteDTO" rx="1.5" ry="1.5" style="stroke:#181818;stroke-width:0.3;" width="100.5803" x="637.8" y="410.4"/><ellipse cx="652.7492" cy="420" fill="#C2C2C2" rx="6.6" ry="6.6" style="stroke:#181818;stroke-width:0.6;"/><path d="M654.4086,417.525 Q654.5024,417.3938 654.6149,417.3281 Q654.7274,417.2625 654.8586,417.2625 Q655.0836,417.2625 655.2242,417.4219 Q655.3649,417.5719 655.3649,417.9375 L655.3649,418.8094 Q655.3649,419.175 655.2242,419.3344 Q655.0836,419.4938 654.8586,419.4938 Q654.6524,419.4938 654.5305,419.3719 Q654.4086,419.2594 654.343,418.95 Q654.3149,418.7344 654.2024,418.6219 Q654.0055,418.3969 653.6399,418.2656 Q653.2742,418.1344 652.8992,418.1344 Q652.4399,418.1344 652.0555,418.3313 Q651.6805,418.5281 651.3805,418.9781 Q651.0899,419.4281 651.0899,420.0469 L651.0899,420.7031 Q651.0899,421.4437 651.6242,421.9406 Q652.1586,422.4281 653.1149,422.4281 Q653.6774,422.4281 654.0711,422.2781 Q654.3055,422.1844 654.5586,421.9219 Q654.718,421.7625 654.8024,421.7156 Q654.8961,421.6688 655.018,421.6688 Q655.2149,421.6688 655.3649,421.8281 Q655.5242,421.9781 655.5242,422.1844 Q655.5242,422.3906 655.318,422.6344 Q655.018,422.9813 654.5399,423.1781 Q653.893,423.45 653.1149,423.45 Q652.2055,423.45 651.4836,423.075 Q650.893,422.775 650.4805,422.1375 Q650.068,421.4906 650.068,420.7219 L650.068,420.0281 Q650.068,419.2313 650.4336,418.5469 Q650.8086,417.8531 651.4649,417.4875 Q652.1211,417.1125 652.8617,417.1125 Q653.3024,417.1125 653.6867,417.2156 Q654.0805,417.3094 654.4086,417.525 Z " fill="#000000"/><text fill="#000000" font-family="sans-serif" font-size="8.4" lengthAdjust="spacing" textLength="68.1598" x="662.4713" y="423.4781">PointOfRouteDTO</text><line style="stroke:#181818;stroke-width:0.3;" x1="638.4" x2="737.7803" y1="429.6" y2="429.6"/><text fill="#000000" font-family="sans-serif" font-size="8.4" lengthAdjust="spacing" textLength="22.8744" x="641.4" y="441.0645">-id: int</text><text fill="#000000" font-family="sans-serif" font-size="8.4" lengthAdjust="spacing" textLength="42.4881" x="641.4" y="452.2371">-routeId: int</text><text fill="#000000" font-family="sans-serif" font-size="8.4" lengthAdjust="spacing" textLength="93.3803" x="641.4" y="463.4098">-cargoMode: CargoMode</text><line style="stroke:#181818;stroke-width:0.3;" x1="638.4" x2="737.7803" y1="467.918" y2="467.918"/></g><!--class TrainDTO--><g id="elem_TrainDTO"><rect codeLine="102" fill="#F1F1F1" height="51.1453" id="TrainDTO" rx="1.5" ry="1.5" style="stroke:#181818;stroke-width:0.3;" width="57.6205" x="759.6" y="416.1"/><ellipse cx="769.2982" cy="425.7" fill="#C2C2C2" rx="6.6" ry="6.6" style="stroke:#181818;stroke-width:0.6;"/><path d="M770.9576,423.225 Q771.0513,423.0938 771.1638,423.0281 Q771.2763,422.9625 771.4076,422.9625 Q771.6326,422.9625 771.7732,423.1219 Q771.9138,423.2719 771.9138,423.6375 L771.9138,424.5094 Q771.9138,424.875 771.7732,425.0344 Q771.6326,425.1937 771.4076,425.1937 Q771.2013,425.1937 771.0795,425.0719 Q770.9576,424.9594 770.892,424.65 Q770.8638,424.4344 770.7513,424.3219 Q770.5545,424.0969 770.1888,423.9656 Q769.8232,423.8344 769.4482,423.8344 Q768.9888,423.8344 768.6045,424.0313 Q768.2295,424.2281 767.9295,424.6781 Q767.6388,425.1281 767.6388,425.7469 L767.6388,426.4031 Q767.6388,427.1438 768.1732,427.6406 Q768.7076,428.1281 769.6638,428.1281 Q770.2263,428.1281 770.6201,427.9781 Q770.8545,427.8844 771.1076,427.6219 Q771.267,427.4625 771.3513,427.4156 Q771.4451,427.3688 771.567,427.3688 Q771.7638,427.3688 771.9138,427.5281 Q772.0732,427.6781 772.0732,427.8844 Q772.0732,428.0906 771.867,428.3344 Q771.567,428.6813 771.0888,428.8781 Q770.442,429.15 769.6638,429.15 Q768.7545,429.15 768.0326,428.775 Q767.442,428.475 767.0295,427.8375 Q766.617,427.1906 766.617,426.4219 L766.617,425.7281 Q766.617,424.9313 766.9826,424.2469 Q767.3576,423.5531 768.0138,423.1875 Q768.6701,422.8125 769.4107,422.8125 Q769.8513,422.8125 770.2357,422.9156 Q770.6295,423.0094 770.9576,423.225 Z " fill="#000000"/><text fill="#000000" font-family="sans-serif" font-size="8.4" lengthAdjust="spacing" textLength="36.8689" x="777.8534" y="429.1781">TrainDTO</text><line style="stroke:#181818;stroke-width:0.3;" x1="760.2" x2="816.6205" y1="435.3" y2="435.3"/><text fill="#000000" font-family="sans-serif" font-size="8.4" lengthAdjust="spacing" textLength="22.8744" x="763.2" y="446.7645">-id: int</text><text fill="#000000" font-family="sans-serif" font-size="8.4" lengthAdjust="spacing" textLength="50.4205" x="763.2" y="457.9371">-name: String</text><line style="stroke:#181818;stroke-width:0.3;" x1="760.2" x2="816.6205" y1="462.4453" y2="462.4453"/></g><!--class TrainDetailsDTO--><g id="elem_TrainDetailsDTO"><rect codeLine="107" fill="#F1F1F1" height="62.318" id="TrainDetailsDTO" rx="1.5" ry="1.5" style="stroke:#181818;stroke-width:0.3;" width="81.7447" x="838.2" y="410.4"/><ellipse cx="847.2" cy="420" fill="#C2C2C2" rx="6.6" ry="6.6" style="stroke:#181818;stroke-width:0.6;"/><path d="M848.8594,417.525 Q848.9531,417.3938 849.0656,417.3281 Q849.1781,417.2625 849.3094,417.2625 Q849.5344,417.2625 849.675,417.4219 Q849.8156,417.5719 849.8156,417.9375 L849.8156,418.8094 Q849.8156,419.175 849.675,419.3344 Q849.5344,419.4938 849.3094,419.4938 Q849.1031,419.4938 848.9812,419.3719 Q848.8594,419.2594 848.7937,418.95 Q848.7656,418.7344 848.6531,418.6219 Q848.4563,418.3969 848.0906,418.2656 Q847.725,418.1344 847.35,418.1344 Q846.8906,418.1344 846.5063,418.3313 Q846.1313,418.5281 845.8313,418.9781 Q845.5406,419.4281 845.5406,420.0469 L845.5406,420.7031 Q845.5406,421.4437 846.075,421.9406 Q846.6094,422.4281 847.5656,422.4281 Q848.1281,422.4281 848.5219,422.2781 Q848.7563,422.1844 849.0094,421.9219 Q849.1687,421.7625 849.2531,421.7156 Q849.3469,421.6688 849.4688,421.6688 Q849.6656,421.6688 849.8156,421.8281 Q849.975,421.9781 849.975,422.1844 Q849.975,422.3906 849.7688,422.6344 Q849.4688,422.9813 848.9906,423.1781 Q848.3438,423.45 847.5656,423.45 Q846.6563,423.45 845.9344,423.075 Q845.3438,422.775 844.9313,422.1375 Q844.5188,421.4906 844.5188,420.7219 L844.5188,420.0281 Q844.5188,419.2313 844.8844,418.5469 Q845.2594,417.8531 845.9156,417.4875 Q846.5719,417.1125 847.3125,417.1125 Q847.7531,417.1125 848.1375,417.2156 Q848.5313,417.3094 848.8594,417.525 Z " fill="#000000"/><text fill="#000000" font-family="sans-serif" font-size="8.4" lengthAdjust="spacing" textLength="62.5447" x="855.6" y="423.4781">TrainDetailsDTO</text><line style="stroke:#181818;stroke-width:0.3;" x1="838.8" x2="919.3447" y1="429.6" y2="429.6"/><text fill="#000000" font-family="sans-serif" font-size="8.4" lengthAdjust="spacing" textLength="22.8744" x="841.8" y="441.0645">-id: int</text><text fill="#000000" font-family="sans-serif" font-size="8.4" lengthAdjust="spacing" textLength="50.4205" x="841.8" y="452.2371">-name: String</text><text fill="#000000" font-family="sans-serif" font-size="8.4" lengthAdjust="spacing" textLength="66.757" x="841.8" y="463.4098">-route: RouteDTO</text><line style="stroke:#181818;stroke-width:0.3;" x1="838.8" x2="919.3447" y1="467.918" y2="467.918"/></g><!--class TrainRouteAssignmentDTO--><g id="elem_TrainRouteAssignmentDTO"><rect codeLine="113" fill="#F1F1F1" height="62.318" id="TrainRouteAssignmentDTO" rx="1.5" ry="1.5" style="stroke:#181818;stroke-width:0.3;" width="128.1223" x="488.4" y="410.4"/><ellipse cx="499.9882" cy="420" fill="#C2C2C2" rx="6.6" ry="6.6" style="stroke:#181818;stroke-width:0.6;"/><path d="M501.6476,417.525 Q501.7413,417.3938 501.8538,417.3281 Q501.9663,417.2625 502.0976,417.2625 Q502.3226,417.2625 502.4632,417.4219 Q502.6038,417.5719 502.6038,417.9375 L502.6038,418.8094 Q502.6038,419.175 502.4632,419.3344 Q502.3226,419.4938 502.0976,419.4938 Q501.8913,419.4938 501.7695,419.3719 Q501.6476,419.2594 501.582,418.95 Q501.5538,418.7344 501.4413,418.6219 Q501.2445,418.3969 500.8788,418.2656 Q500.5132,418.1344 500.1382,418.1344 Q499.6788,418.1344 499.2945,418.3313 Q498.9195,418.5281 498.6195,418.9781 Q498.3288,419.4281 498.3288,420.0469 L498.3288,420.7031 Q498.3288,421.4437 498.8632,421.9406 Q499.3976,422.4281 500.3538,422.4281 Q500.9163,422.4281 501.3101,422.2781 Q501.5445,422.1844 501.7976,421.9219 Q501.957,421.7625 502.0413,421.7156 Q502.1351,421.6688 502.257,421.6688 Q502.4538,421.6688 502.6038,421.8281 Q502.7632,421.9781 502.7632,422.1844 Q502.7632,422.3906 502.557,422.6344 Q502.257,422.9813 501.7788,423.1781 Q501.132,423.45 500.3538,423.45 Q499.4445,423.45 498.7226,423.075 Q498.132,422.775 497.7195,422.1375 Q497.307,421.4906 497.307,420.7219 L497.307,420.0281 Q497.307,419.2313 497.6726,418.5469 Q498.0476,417.8531 498.7038,417.4875 Q499.3601,417.1125 500.1007,417.1125 Q500.5413,417.1125 500.9257,417.2156 Q501.3195,417.3094 501.6476,417.525 Z " fill="#000000"/><text fill="#000000" font-family="sans-serif" font-size="8.4" lengthAdjust="spacing" textLength="103.1707" x="508.9634" y="423.4781">TrainRouteAssignmentDTO</text><line style="stroke:#181818;stroke-width:0.3;" x1="489" x2="615.9223" y1="429.6" y2="429.6"/><text fill="#000000" font-family="sans-serif" font-size="8.4" lengthAdjust="spacing" textLength="66.757" x="492" y="441.0645">-route: RouteDTO</text><text fill="#000000" font-family="sans-serif" font-size="8.4" lengthAdjust="spacing" textLength="60.6744" x="492" y="452.2371">-train: TrainDTO</text><text fill="#000000" font-family="sans-serif" font-size="8.4" lengthAdjust="spacing" textLength="120.9223" x="492" y="463.4098">-points: List&lt;PointOfRouteDTO&gt;</text><line style="stroke:#181818;stroke-width:0.3;" x1="489" x2="615.9223" y1="467.918" y2="467.918"/></g><!--class RouteMapper--><g id="elem_RouteMapper"><rect codeLine="120" fill="#F1F1F1" height="73.4906" id="RouteMapper" rx="1.5" ry="1.5" style="stroke:#181818;stroke-width:0.3;" width="193.7062" x="369.9" y="301.2"/><ellipse cx="438.755" cy="310.8" fill="#C2C2C2" rx="6.6" ry="6.6" style="stroke:#181818;stroke-width:0.6;"/><path d="M440.4144,308.325 Q440.5081,308.1937 440.6206,308.1281 Q440.7331,308.0625 440.8644,308.0625 Q441.0894,308.0625 441.23,308.2219 Q441.3706,308.3719 441.3706,308.7375 L441.3706,309.6094 Q441.3706,309.975 441.23,310.1344 Q441.0894,310.2938 440.8644,310.2938 Q440.6581,310.2938 440.5362,310.1719 Q440.4144,310.0594 440.3487,309.75 Q440.3206,309.5344 440.2081,309.4219 Q440.0112,309.1969 439.6456,309.0656 Q439.28,308.9344 438.905,308.9344 Q438.4456,308.9344 438.0612,309.1312 Q437.6862,309.3281 437.3862,309.7781 Q437.0956,310.2281 437.0956,310.8469 L437.0956,311.5031 Q437.0956,312.2438 437.63,312.7406 Q438.1644,313.2281 439.1206,313.2281 Q439.6831,313.2281 440.0769,313.0781 Q440.3112,312.9844 440.5644,312.7219 Q440.7237,312.5625 440.8081,312.5156 Q440.9019,312.4688 441.0237,312.4688 Q441.2206,312.4688 441.3706,312.6281 Q441.53,312.7781 441.53,312.9844 Q441.53,313.1906 441.3237,313.4344 Q441.0237,313.7813 440.5456,313.9781 Q439.8987,314.25 439.1206,314.25 Q438.2112,314.25 437.4894,313.875 Q436.8987,313.575 436.4862,312.9375 Q436.0737,312.2906 436.0737,311.5219 L436.0737,310.8281 Q436.0737,310.0313 436.4394,309.3469 Q436.8144,308.6531 437.4706,308.2875 Q438.1269,307.9125 438.8675,307.9125 Q439.3081,307.9125 439.6925,308.0156 Q440.0862,308.1094 440.4144,308.325 Z " fill="#000000"/><text fill="#000000" font-family="sans-serif" font-size="8.4" lengthAdjust="spacing" textLength="50.8963" x="451.055" y="314.2781">RouteMapper</text><line style="stroke:#181818;stroke-width:0.3;" x1="370.5" x2="563.0063" y1="320.4" y2="320.4"/><line style="stroke:#181818;stroke-width:0.3;" x1="370.5" x2="563.0063" y1="325.2" y2="325.2"/><text fill="#000000" font-family="sans-serif" font-size="8.4" lengthAdjust="spacing" textLength="81.4652" x="373.5" y="336.6645">+toDTO(route: Route)</text><text fill="#000000" font-family="sans-serif" font-size="8.4" lengthAdjust="spacing" textLength="107.141" x="373.5" y="347.8371">+toDetailsDTO(route: Route)</text><text fill="#000000" font-family="sans-serif" font-size="8.4" lengthAdjust="spacing" textLength="177.6633" x="373.5" y="359.0098">+updatePointOfRouteDTO(point: PointOfRoute)</text><text fill="#000000" font-family="sans-serif" font-size="8.4" lengthAdjust="spacing" textLength="186.5063" x="373.5" y="370.1824">+createAssignmentDTO(route: Route, train: Train)</text></g><!--class TrainMapper--><g id="elem_TrainMapper"><rect codeLine="127" fill="#F1F1F1" height="51.1453" id="TrainMapper" rx="1.5" ry="1.5" style="stroke:#181818;stroke-width:0.3;" width="108.2584" x="734.4" y="312.3"/><ellipse cx="762.1696" cy="321.9" fill="#C2C2C2" rx="6.6" ry="6.6" style="stroke:#181818;stroke-width:0.6;"/><path d="M763.829,319.425 Q763.9228,319.2938 764.0353,319.2281 Q764.1478,319.1625 764.279,319.1625 Q764.504,319.1625 764.6446,319.3219 Q764.7853,319.4719 764.7853,319.8375 L764.7853,320.7094 Q764.7853,321.075 764.6446,321.2344 Q764.504,321.3938 764.279,321.3938 Q764.0728,321.3938 763.9509,321.2719 Q763.829,321.1594 763.7634,320.85 Q763.7353,320.6344 763.6228,320.5219 Q763.4259,320.2969 763.0603,320.1656 Q762.6946,320.0344 762.3196,320.0344 Q761.8603,320.0344 761.4759,320.2313 Q761.1009,320.4281 760.8009,320.8781 Q760.5103,321.3281 760.5103,321.9469 L760.5103,322.6031 Q760.5103,323.3438 761.0446,323.8406 Q761.579,324.3281 762.5353,324.3281 Q763.0978,324.3281 763.4915,324.1781 Q763.7259,324.0844 763.979,323.8219 Q764.1384,323.6625 764.2228,323.6156 Q764.3165,323.5687 764.4384,323.5687 Q764.6353,323.5687 764.7853,323.7281 Q764.9446,323.8781 764.9446,324.0844 Q764.9446,324.2906 764.7384,324.5344 Q764.4384,324.8812 763.9603,325.0781 Q763.3134,325.35 762.5353,325.35 Q761.6259,325.35 760.904,324.975 Q760.3134,324.675 759.9009,324.0375 Q759.4884,323.3906 759.4884,322.6219 L759.4884,321.9281 Q759.4884,321.1312 759.854,320.4469 Q760.229,319.7531 760.8853,319.3875 Q761.5415,319.0125 762.2821,319.0125 Q762.7228,319.0125 763.1071,319.1156 Q763.5009,319.2094 763.829,319.425 Z " fill="#000000"/><text fill="#000000" font-family="sans-serif" font-size="8.4" lengthAdjust="spacing" textLength="47.6191" x="774.4696" y="325.3781">TrainMapper</text><line style="stroke:#181818;stroke-width:0.3;" x1="735" x2="842.0584" y1="331.5" y2="331.5"/><line style="stroke:#181818;stroke-width:0.3;" x1="735" x2="842.0584" y1="336.3" y2="336.3"/><text fill="#000000" font-family="sans-serif" font-size="8.4" lengthAdjust="spacing" textLength="75.3826" x="738" y="347.7645">+toDTO(train: Train)</text><text fill="#000000" font-family="sans-serif" font-size="8.4" lengthAdjust="spacing" textLength="101.0584" x="738" y="358.9371">+toDetailsDTO(train: Train)</text></g><!--class PointOfRouteMapper--><g id="elem_PointOfRouteMapper"><rect codeLine="132" fill="#F1F1F1" height="39.9727" id="PointOfRouteMapper" rx="1.5" ry="1.5" style="stroke:#181818;stroke-width:0.3;" width="115.7479" x="593.1" y="317.7"/><ellipse cx="610.0371" cy="327.3" fill="#C2C2C2" rx="6.6" ry="6.6" style="stroke:#181818;stroke-width:0.6;"/><path d="M611.6964,324.825 Q611.7902,324.6937 611.9027,324.6281 Q612.0152,324.5625 612.1464,324.5625 Q612.3714,324.5625 612.5121,324.7219 Q612.6527,324.8719 612.6527,325.2375 L612.6527,326.1094 Q612.6527,326.475 612.5121,326.6344 Q612.3714,326.7938 612.1464,326.7938 Q611.9402,326.7938 611.8183,326.6719 Q611.6964,326.5594 611.6308,326.25 Q611.6027,326.0344 611.4902,325.9219 Q611.2933,325.6969 610.9277,325.5656 Q610.5621,325.4344 610.1871,325.4344 Q609.7277,325.4344 609.3433,325.6312 Q608.9683,325.8281 608.6683,326.2781 Q608.3777,326.7281 608.3777,327.3469 L608.3777,328.0031 Q608.3777,328.7438 608.9121,329.2406 Q609.4464,329.7281 610.4027,329.7281 Q610.9652,329.7281 611.3589,329.5781 Q611.5933,329.4844 611.8464,329.2219 Q612.0058,329.0625 612.0902,329.0156 Q612.1839,328.9688 612.3058,328.9688 Q612.5027,328.9688 612.6527,329.1281 Q612.8121,329.2781 612.8121,329.4844 Q612.8121,329.6906 612.6058,329.9344 Q612.3058,330.2813 611.8277,330.4781 Q611.1808,330.75 610.4027,330.75 Q609.4933,330.75 608.7714,330.375 Q608.1808,330.075 607.7683,329.4375 Q607.3558,328.7906 607.3558,328.0219 L607.3558,327.3281 Q607.3558,326.5313 607.7214,325.8469 Q608.0964,325.1531 608.7527,324.7875 Q609.4089,324.4125 610.1496,324.4125 Q610.5902,324.4125 610.9746,324.5156 Q611.3683,324.6094 611.6964,324.825 Z " fill="#000000"/><text fill="#000000" font-family="sans-serif" font-size="8.4" lengthAdjust="spacing" textLength="78.91" x="620.2008" y="330.7781">PointOfRouteMapper</text><line style="stroke:#181818;stroke-width:0.3;" x1="593.7" x2="708.2479" y1="336.9" y2="336.9"/><line style="stroke:#181818;stroke-width:0.3;" x1="593.7" x2="708.2479" y1="341.7" y2="341.7"/><text fill="#000000" font-family="sans-serif" font-size="8.4" lengthAdjust="spacing" textLength="108.5479" x="596.7" y="353.1645">+toDTO(point: PointOfRoute)</text></g><!--link AssignTrainUI to AssignTrainController--><g id="link_AssignTrainUI_AssignTrainController"><path codeLine="137" d="M466.8,111.168 C466.8,122.718 466.8,131.4 466.8,143.16 " fill="none" id="AssignTrainUI-to-AssignTrainController" style="stroke:#181818;stroke-width:0.6;"/><polygon fill="#181818" points="466.8,146.76,469.2,141.36,466.8,143.76,464.4,141.36,466.8,146.76" style="stroke:#181818;stroke-width:0.6;"/></g><!--link AssignTrainController to RouteRepository--><g id="link_AssignTrainController_RouteRepository"><path codeLine="138" d="M338.97,257.994 C290.508,277.446 241.0669,297.2851 202.2889,312.8491 " fill="none" id="AssignTrainController-to-RouteRepository" style="stroke:#181818;stroke-width:0.6;"/><polygon fill="#181818" points="198.948,314.19,204.8534,314.4059,201.7321,313.0726,203.0655,309.9513,198.948,314.19" style="stroke:#181818;stroke-width:0.6;"/></g><!--link AssignTrainController to TrainRepository--><g id="link_AssignTrainController_TrainRepository"><path codeLine="139" d="M388.71,265.272 C366.66,281.802 346.7278,296.7537 328.8838,310.1397 " fill="none" id="AssignTrainController-to-TrainRepository" style="stroke:#181818;stroke-width:0.6;"/><polygon fill="#181818" points="326.004,312.3,331.7639,310.9794,328.4038,310.4997,328.8834,307.1397,326.004,312.3" style="stroke:#181818;stroke-width:0.6;"/></g><!--link AssignTrainController to RouteMapper--><g id="link_AssignTrainController_RouteMapper"><path codeLine="140" d="M466.8,265.272 C466.8,277.464 466.8,286.38 466.8,297.474 " fill="none" id="AssignTrainController-to-RouteMapper" style="stroke:#181818;stroke-width:0.6;"/><polygon fill="#181818" points="466.8,301.074,469.2,295.674,466.8,298.074,464.4,295.674,466.8,301.074" style="stroke:#181818;stroke-width:0.6;"/></g><!--link AssignTrainController to TrainMapper--><g id="link_AssignTrainController_TrainMapper"><path codeLine="141" d="M594.768,254.574 C657.354,277.986 719.4,301.2 719.4,301.2 C719.4,301.2 725.61,304.4434 737.472,310.6294 " fill="none" id="AssignTrainController-to-TrainMapper" style="stroke:#181818;stroke-width:0.6;"/><polygon fill="#181818" points="740.664,312.294,736.9857,307.669,738.004,310.9068,734.7662,311.9251,740.664,312.294" style="stroke:#181818;stroke-width:0.6;"/></g><!--link AssignTrainController to PointOfRouteMapper--><g id="link_AssignTrainController_PointOfRouteMapper"><path codeLine="142" d="M549.468,265.272 C576.06,284.106 600.7705,301.6149 620.4865,315.5829 " fill="none" id="AssignTrainController-to-PointOfRouteMapper" style="stroke:#181818;stroke-width:0.6;"/><polygon fill="#181818" points="623.424,317.664,620.4051,312.584,620.9761,315.9297,617.6303,316.5007,623.424,317.664" style="stroke:#181818;stroke-width:0.6;"/></g><!--link RouteRepository to Routes--><g id="link_RouteRepository_Routes"><path codeLine="144" d="M136.92,369.186 C134.946,382.17 133.1951,393.6949 131.2211,406.6789 " fill="none" id="RouteRepository-to-Routes" style="stroke:#181818;stroke-width:0.6;"/><polygon fill="#181818" points="130.68,410.238,133.8644,405.2601,131.1309,407.2721,129.1189,404.5386,130.68,410.238" style="stroke:#181818;stroke-width:0.6;"/></g><!--link TrainRepository to Trains--><g id="link_TrainRepository_Trains"><path codeLine="145" d="M277.188,363.378 C264.192,384.174 247.8,410.4 247.8,410.4 C247.8,410.4 242.5192,485.8588 239.6032,527.5468 " fill="none" id="TrainRepository-to-Trains" style="stroke:#181818;stroke-width:0.6;"/><polygon fill="#181818" points="239.352,531.138,242.1229,525.9186,239.5613,528.1453,237.3346,525.5837,239.352,531.138" style="stroke:#181818;stroke-width:0.6;"/></g><!--link Routes to Route--><g id="link_Routes_Route"><path codeLine="147" d="M120.186,472.902 C118.098,483.912 116.3619,493.0649 114.0699,505.1669 " fill="none" id="Routes-to-Route" style="stroke:#181818;stroke-width:0.6;"/><polygon fill="#181818" points="113.4,508.704,116.7629,503.8449,113.9582,505.7564,112.0468,502.9517,113.4,508.704" style="stroke:#181818;stroke-width:0.6;"/></g><!--link Trains to Train--><g id="link_Trains_Train"><path codeLine="148" d="M237.6,582.432 C237.6,599.322 237.6,618.276 237.6,637.104 " fill="none" id="Trains-to-Train" style="stroke:#181818;stroke-width:0.6;"/><polygon fill="#181818" points="237.6,640.704,240,635.304,237.6,637.704,235.2,635.304,237.6,640.704" style="stroke:#181818;stroke-width:0.6;"/></g><!--link Route to PointOfRoute--><g id="link_Route_PointOfRoute"><path codeLine="149" d="M96.996,604.932 C95.142,616.836 93.734,625.8489 91.982,637.0989 " fill="none" id="Route-to-PointOfRoute" style="stroke:#181818;stroke-width:0.6;"/><polygon fill="#181818" points="91.428,640.656,94.6304,635.6896,91.8896,637.6917,89.8875,634.951,91.428,640.656" style="stroke:#181818;stroke-width:0.6;"/></g><!--link Route to Train--><g id="link_Route_Train"><path codeLine="150" d="M157.428,604.932 C170.706,616.836 182.0537,627.0026 194.5997,638.2526 " fill="none" id="Route-to-Train" style="stroke:#181818;stroke-width:0.6;"/><polygon fill="#181818" points="197.28,640.656,194.8619,635.2641,195.0465,638.6532,191.6574,638.8378,197.28,640.656" style="stroke:#181818;stroke-width:0.6;"/></g><!--link RouteMapper to RouteDTO--><g id="link_RouteMapper_RouteDTO"><path codeLine="152" d="M397.296,374.508 C362.712,392.472 328.2,410.4 328.2,410.4 C328.2,410.4 326.6299,411.5907 320.7139,416.0967 " fill="none" id="RouteMapper-to-RouteDTO" style="stroke:#181818;stroke-width:0.6;"/><polygon fill="#181818" points="317.85,418.278,323.6,416.9153,320.2366,416.4602,320.6916,413.0968,317.85,418.278" style="stroke:#181818;stroke-width:0.6;"/></g><!--link RouteMapper to RouteDetailsDTO--><g id="link_RouteMapper_RouteDetailsDTO"><path codeLine="153" d="M444.378,374.574 C437.154,386.226 431.119,395.9643 424.159,407.1903 " fill="none" id="RouteMapper-to-RouteDetailsDTO" style="stroke:#181818;stroke-width:0.6;"/><polygon fill="#181818" points="422.262,410.25,427.1472,406.9251,423.8428,407.7003,423.0677,404.3959,422.262,410.25" style="stroke:#181818;stroke-width:0.6;"/></g><!--link RouteMapper to PointOfRouteDTO--><g id="link_RouteMapper_PointOfRouteDTO"><path codeLine="154" d="M547.134,374.508 C587.106,392.472 627,410.4 627,410.4 C627,410.4 628.0995,410.9512 634.4415,414.1192 " fill="none" id="RouteMapper-to-PointOfRouteDTO" style="stroke:#181818;stroke-width:0.6;"/><polygon fill="#181818" points="637.662,415.728,633.9037,411.1678,634.9782,414.3874,631.7587,415.4619,637.662,415.728" style="stroke:#181818;stroke-width:0.6;"/></g><!--link RouteMapper to TrainRouteAssignmentDTO--><g id="link_RouteMapper_TrainRouteAssignmentDTO"><path codeLine="155" d="M497.052,374.574 C506.796,386.226 515.1911,396.2619 524.5751,407.4879 " fill="none" id="RouteMapper-to-TrainRouteAssignmentDTO" style="stroke:#181818;stroke-width:0.6;"/><polygon fill="#181818" points="526.884,410.25,525.2621,404.5676,524.9599,407.9483,521.5793,407.6461,526.884,410.25" style="stroke:#181818;stroke-width:0.6;"/></g><!--link TrainMapper to TrainDTO--><g id="link_TrainMapper_TrainDTO"><path codeLine="157" d="M788.4,363.498 C788.4,379.458 788.4,396.438 788.4,412.38 " fill="none" id="TrainMapper-to-TrainDTO" style="stroke:#181818;stroke-width:0.6;"/><polygon fill="#181818" points="788.4,415.98,790.8,410.58,788.4,412.98,786,410.58,788.4,415.98" style="stroke:#181818;stroke-width:0.6;"/></g><!--link TrainMapper to TrainDetailsDTO--><g id="link_TrainMapper_TrainDetailsDTO"><path codeLine="158" d="M810.564,363.498 C823.032,377.616 836.315,392.6596 849.509,407.5996 " fill="none" id="TrainMapper-to-TrainDetailsDTO" style="stroke:#181818;stroke-width:0.6;"/><polygon fill="#181818" points="851.892,410.298,850.1164,404.6618,849.9061,408.0494,846.5186,407.8391,851.892,410.298" style="stroke:#181818;stroke-width:0.6;"/></g><!--link PointOfRouteMapper to PointOfRouteDTO--><g id="link_PointOfRouteMapper_PointOfRouteDTO"><path codeLine="160" d="M658.086,357.942 C663.438,372.708 669.6622,389.8798 675.8182,406.8478 " fill="none" id="PointOfRouteMapper-to-PointOfRouteDTO" style="stroke:#181818;stroke-width:0.6;"/><polygon fill="#181818" points="677.046,410.232,677.4604,404.3372,676.0229,407.4119,672.9482,405.9743,677.046,410.232" style="stroke:#181818;stroke-width:0.6;"/></g><!--link PointOfRoute to CargoMode--><g id="link_PointOfRoute_CargoMode"><path codeLine="162" d="M85.8,714.174 C85.8,725.826 85.8,735.024 85.8,746.25 " fill="none" id="PointOfRoute-to-CargoMode" style="stroke:#181818;stroke-width:0.6;"/><polygon fill="#181818" points="85.8,749.85,88.2,744.45,85.8,746.85,83.4,744.45,85.8,749.85" style="stroke:#181818;stroke-width:0.6;"/></g><!--SRC=[lLPDRniX4BtpAxZ5KMEfPwkojCs7QcaZHxRJErcJ3GeBAy2ftAZ_lS1Y5bZMTbAfFi7COsRU-0siV2MiHG8riE6CLo-2DnWgiSD0Ua-BgbTKuxNQKmm5hXHYDGq1yWLj-I_2QlYCg0mzb32izYs6BQTxim61iw98oa8fGPvs2YygpjRaDuPV0RY0ZmjOeZqMm89W8IMfsKOWmhJd7K3z-m8hWP72aqkthR4gtX2Xw8dY5TSXPUYobXkiD61eV-24APcDP9D6Bcj98w6-mWstCRNhZw5opPaId58inYW5Y7-d9kncivp1bLkDa1q7IgokaQZvFT_YIMlGo-ULHp_4Xa_qJDcDYRLngoDT79Pv1NC1RAzNkEMIA2xsKQ_joS3ttXTM4daWC-pfX6ndKBCzri750Q8BwBBPcevb6sbFdyrokU6DDWvvoFzHllnSrK6PBi0KEh_RCTJW6LpheMUrCrc5oHaqQRw5wfhtgK9p9yb5p2rGJgSlfus3_mrHijKZPOtTx3MOgGGRD-5y2hQLJg7z40K2ThuWGyXe957u1pbJTPZB6VGZcflQ7CucnspNz2QN-EwnBEtYHr7UsKNnirYKnVVorcbninmAqHZFw50i2tS7d7dsX41qb7c-e-FnpsrgB8MFSWtlkmzn3TMY3wQtYZ7twWqZfmSxQoZltdgoeHVm7hLjyc9PXBCVRWV5zP54ujxZwMS1kzRCOvAzc-tuaRcCtiI8VHJu2XuRvcpXkPiYAdmaObXUDd2MXdkYA5A4C_b2MWdY3vlfT9x_BW3vhmM3Jzws8yZaNJeLi-DrAjv9rB1L0AJliSyfGVfu-aJI7PCz6hYdocCwn21jOEvW8FpZV3Wp7tc7ryF0dyXtu1-PMW12JNgWyUGTVGKWexrS9H7E8lgxxIy0]--></g></svg>