<svg xmlns="http://www.w3.org/2000/svg" xmlns:xlink="http://www.w3.org/1999/xlink" contentStyleType="text/css" height="959px" preserveAspectRatio="none" style="width:1159px;height:959px;background:#FFFFFF;" version="1.1" viewBox="0 0 1159 959" width="1159px" zoomAndPan="magnify"><defs/><g><rect fill="#FFFFFF" height="795.0918" style="stroke:#181818;stroke-width:1.0;" width="10" x="145.8335" y="90.5332"/><rect fill="#FFFFFF" height="311.9883" style="stroke:#181818;stroke-width:1.0;" width="10" x="293.707" y="148.1152"/><rect fill="#FFFFFF" height="249.4063" style="stroke:#181818;stroke-width:1.0;" width="10" x="441.5806" y="179.4063"/><rect fill="#FFFFFF" height="30" style="stroke:#181818;stroke-width:1.0;" width="10" x="562.375" y="299.2305"/><rect fill="#FFFFFF" height="355.9395" style="stroke:#181818;stroke-width:1.0;" width="10" x="664.9644" y="491.3945"/><rect fill="#FFFFFF" height="36.291" style="stroke:#181818;stroke-width:1.0;" width="10" x="669.9644" y="680.5098"/><rect fill="#FFFFFF" height="30" style="stroke:#181818;stroke-width:1.0;" width="10" x="868.0415" y="360.5215"/><rect fill="#FFFFFF" height="30" style="stroke:#181818;stroke-width:1.0;" width="10" x="868.0415" y="611.2188"/><rect fill="#FFFFFF" height="30" style="stroke:#181818;stroke-width:1.0;" width="10" x="980.7412" y="779.043"/><rect fill="none" height="749.8008" style="stroke:#000000;stroke-width:1.5;" width="1089.2314" x="64.5854" y="105.5332"/><rect fill="none" height="141.873" style="stroke:#000000;stroke-width:1.5;" width="518.8159" x="408.1875" y="256.6484"/><rect fill="none" height="248.4063" style="stroke:#000000;stroke-width:1.5;" width="532.48" x="611.3369" y="568.6367"/><line style="stroke:#181818;stroke-width:0.5;stroke-dasharray:5.0,5.0;" x1="150.5854" x2="150.5854" y1="57.2422" y2="903.625"/><line style="stroke:#181818;stroke-width:0.5;stroke-dasharray:5.0,5.0;" x1="298.3555" x2="298.3555" y1="57.2422" y2="903.625"/><line style="stroke:#181818;stroke-width:0.5;stroke-dasharray:5.0,5.0;" x1="446.1875" x2="446.1875" y1="57.2422" y2="903.625"/><line style="stroke:#181818;stroke-width:0.5;stroke-dasharray:5.0,5.0;" x1="566.4131" x2="566.4131" y1="57.2422" y2="903.625"/><line style="stroke:#181818;stroke-width:0.5;stroke-dasharray:5.0,5.0;" x1="669.3369" x2="669.3369" y1="57.2422" y2="903.625"/><line style="stroke:#181818;stroke-width:0.5;stroke-dasharray:5.0,5.0;" x1="872.0796" x2="872.0796" y1="228.5273" y2="903.625"/><line style="stroke:#181818;stroke-width:0.5;stroke-dasharray:5.0,5.0;" x1="985.0034" x2="985.0034" y1="540.5156" y2="903.625"/><line style="stroke:#181818;stroke-width:0.5;stroke-dasharray:5.0,5.0;" x1="1093.479" x2="1093.479" y1="734.6309" y2="903.625"/><rect fill="#E3E3E3" height="32.6211" rx="2.5" ry="2.5" style="stroke:#181818;stroke-width:0.5;" width="152.4961" x="74.5854" y="23.6211"/><text fill="#000000" font-family="sans-serif" font-size="14" lengthAdjust="spacing" textLength="138.4961" x="81.5854" y="45.7285">:AssignTrainController</text><rect fill="#E3E3E3" height="32.6211" rx="2.5" ry="2.5" style="stroke:#181818;stroke-width:0.5;" width="152.4961" x="74.5854" y="902.625"/><text fill="#000000" font-family="sans-serif" font-size="14" lengthAdjust="spacing" textLength="138.4961" x="81.5854" y="924.7324">:AssignTrainController</text><rect fill="#E3E3E3" height="51.2422" rx="2.5" ry="2.5" style="stroke:#181818;stroke-width:0.5;" width="116.7031" x="240.3555" y="5"/><text fill="#000000" font-family="sans-serif" font-size="14" lengthAdjust="spacing" textLength="94.1514" x="251.6313" y="27.1074">trainRepository</text><text fill="#000000" font-family="sans-serif" font-size="14" lengthAdjust="spacing" textLength="102.7031" x="247.3555" y="45.7285">:TrainRepository</text><rect fill="#E3E3E3" height="51.2422" rx="2.5" ry="2.5" style="stroke:#181818;stroke-width:0.5;" width="116.7031" x="240.3555" y="902.625"/><text fill="#000000" font-family="sans-serif" font-size="14" lengthAdjust="spacing" textLength="94.1514" x="251.6313" y="924.7324">trainRepository</text><text fill="#000000" font-family="sans-serif" font-size="14" lengthAdjust="spacing" textLength="102.7031" x="247.3555" y="943.3535">:TrainRepository</text><rect fill="#E3E3E3" height="51.2422" rx="2.5" ry="2.5" style="stroke:#181818;stroke-width:0.5;" width="56.7861" x="418.1875" y="5"/><text fill="#000000" font-family="sans-serif" font-size="14" lengthAdjust="spacing" textLength="34.2344" x="429.4634" y="27.1074">trains</text><text fill="#000000" font-family="sans-serif" font-size="14" lengthAdjust="spacing" textLength="42.7861" x="425.1875" y="45.7285">:Trains</text><rect fill="#E3E3E3" height="51.2422" rx="2.5" ry="2.5" style="stroke:#181818;stroke-width:0.5;" width="56.7861" x="418.1875" y="902.625"/><text fill="#000000" font-family="sans-serif" font-size="14" lengthAdjust="spacing" textLength="34.2344" x="429.4634" y="924.7324">trains</text><text fill="#000000" font-family="sans-serif" font-size="14" lengthAdjust="spacing" textLength="42.7861" x="425.1875" y="943.3535">:Trains</text><rect fill="#E3E3E3" height="32.6211" rx="2.5" ry="2.5" style="stroke:#181818;stroke-width:0.5;" width="87.9238" x="523.4131" y="23.6211"/><text fill="#000000" font-family="sans-serif" font-size="14" lengthAdjust="spacing" textLength="73.9238" x="530.4131" y="45.7285">:List&lt;Train&gt;</text><rect fill="#E3E3E3" height="32.6211" rx="2.5" ry="2.5" style="stroke:#181818;stroke-width:0.5;" width="87.9238" x="523.4131" y="902.625"/><text fill="#000000" font-family="sans-serif" font-size="14" lengthAdjust="spacing" textLength="73.9238" x="530.4131" y="924.7324">:List&lt;Train&gt;</text><rect fill="#E3E3E3" height="32.6211" rx="2.5" ry="2.5" style="stroke:#181818;stroke-width:0.5;" width="97.2549" x="621.3369" y="23.6211"/><text fill="#000000" font-family="sans-serif" font-size="14" lengthAdjust="spacing" textLength="83.2549" x="628.3369" y="45.7285">:TrainMapper</text><rect fill="#E3E3E3" height="32.6211" rx="2.5" ry="2.5" style="stroke:#181818;stroke-width:0.5;" width="97.2549" x="621.3369" y="902.625"/><text fill="#000000" font-family="sans-serif" font-size="14" lengthAdjust="spacing" textLength="83.2549" x="628.3369" y="924.7324">:TrainMapper</text><rect fill="#E3E3E3" height="51.2422" rx="2.5" ry="2.5" style="stroke:#181818;stroke-width:0.5;" width="87.9238" x="829.0796" y="902.625"/><text fill="#000000" font-family="sans-serif" font-size="14" lengthAdjust="spacing" textLength="49.0068" x="848.5381" y="924.7324">listTrain</text><text fill="#000000" font-family="sans-serif" font-size="14" lengthAdjust="spacing" textLength="73.9238" x="836.0796" y="943.3535">:List&lt;Train&gt;</text><rect fill="#E3E3E3" height="51.2422" rx="2.5" ry="2.5" style="stroke:#181818;stroke-width:0.5;" width="117.4756" x="927.0034" y="902.625"/><text fill="#000000" font-family="sans-serif" font-size="14" lengthAdjust="spacing" textLength="78.5586" x="946.4619" y="924.7324">listTrainDTO</text><text fill="#000000" font-family="sans-serif" font-size="14" lengthAdjust="spacing" textLength="103.4756" x="934.0034" y="943.3535">:List&lt;TrainDTO&gt;</text><rect fill="#E3E3E3" height="51.2422" rx="2.5" ry="2.5" style="stroke:#181818;stroke-width:0.5;" width="79.3379" x="1054.479" y="902.625"/><text fill="#000000" font-family="sans-serif" font-size="14" lengthAdjust="spacing" textLength="56.7861" x="1065.7549" y="924.7324">trainDTO</text><text fill="#000000" font-family="sans-serif" font-size="14" lengthAdjust="spacing" textLength="65.3379" x="1061.479" y="943.3535">:TrainDTO</text><rect fill="#FFFFFF" height="795.0918" style="stroke:#181818;stroke-width:1.0;" width="10" x="145.8335" y="90.5332"/><rect fill="#FFFFFF" height="311.9883" style="stroke:#181818;stroke-width:1.0;" width="10" x="293.707" y="148.1152"/><rect fill="#FFFFFF" height="249.4063" style="stroke:#181818;stroke-width:1.0;" width="10" x="441.5806" y="179.4063"/><rect fill="#FFFFFF" height="30" style="stroke:#181818;stroke-width:1.0;" width="10" x="562.375" y="299.2305"/><rect fill="#FFFFFF" height="355.9395" style="stroke:#181818;stroke-width:1.0;" width="10" x="664.9644" y="491.3945"/><rect fill="#FFFFFF" height="36.291" style="stroke:#181818;stroke-width:1.0;" width="10" x="669.9644" y="680.5098"/><rect fill="#FFFFFF" height="30" style="stroke:#181818;stroke-width:1.0;" width="10" x="868.0415" y="360.5215"/><rect fill="#FFFFFF" height="30" style="stroke:#181818;stroke-width:1.0;" width="10" x="868.0415" y="611.2188"/><rect fill="#FFFFFF" height="30" style="stroke:#181818;stroke-width:1.0;" width="10" x="980.7412" y="779.043"/><polygon fill="#181818" points="133.8335,86.5332,143.8335,90.5332,133.8335,94.5332,137.8335,90.5332" style="stroke:#181818;stroke-width:1.0;"/><line style="stroke:#181818;stroke-width:1.0;" x1="0" x2="139.8335" y1="90.5332" y2="90.5332"/><text fill="#000000" font-family="sans-serif" font-size="13" font-weight="bold" lengthAdjust="spacing" textLength="7.23" x="7" y="85.2705">3</text><text fill="#000000" font-family="sans-serif" font-size="13" lengthAdjust="spacing" textLength="115.6035" x="18.23" y="85.2705">getAvailableTrains()</text><path d="M64.5854,105.5332 L220.8154,105.5332 L220.8154,114.8242 L210.8154,124.8242 L64.5854,124.8242 L64.5854,105.5332 " fill="#EEEEEE" style="stroke:#000000;stroke-width:1.5;"/><rect fill="none" height="749.8008" style="stroke:#000000;stroke-width:1.5;" width="1089.2314" x="64.5854" y="105.5332"/><text fill="#000000" font-family="sans-serif" font-size="13" font-weight="bold" lengthAdjust="spacing" textLength="111.23" x="79.5854" y="120.5615">Get TrainDTO List</text><polygon fill="#181818" points="281.707,144.1152,291.707,148.1152,281.707,152.1152,285.707,148.1152" style="stroke:#181818;stroke-width:1.0;"/><line style="stroke:#181818;stroke-width:1.0;" x1="155.8335" x2="287.707" y1="148.1152" y2="148.1152"/><text fill="#000000" font-family="sans-serif" font-size="13" font-weight="bold" lengthAdjust="spacing" textLength="18.0718" x="162.8335" y="142.8525">3.1</text><text fill="#000000" font-family="sans-serif" font-size="13" lengthAdjust="spacing" textLength="96.8018" x="184.9053" y="142.8525">getListOfTrains()</text><polygon fill="#181818" points="429.5806,175.4063,439.5806,179.4063,429.5806,183.4063,433.5806,179.4063" style="stroke:#181818;stroke-width:1.0;"/><line style="stroke:#181818;stroke-width:1.0;" x1="303.707" x2="435.5806" y1="179.4063" y2="179.4063"/><text fill="#000000" font-family="sans-serif" font-size="13" font-weight="bold" lengthAdjust="spacing" textLength="18.0718" x="310.707" y="174.1436">3.2</text><text fill="#000000" font-family="sans-serif" font-size="13" lengthAdjust="spacing" textLength="96.8018" x="332.7788" y="174.1436">getListOfTrains()</text><polygon fill="#181818" points="817.0796,206.6973,827.0796,210.6973,817.0796,214.6973,821.0796,210.6973" style="stroke:#181818;stroke-width:1.0;"/><line style="stroke:#181818;stroke-width:1.0;stroke-dasharray:2.0,2.0;" x1="451.5806" x2="823.0796" y1="210.6973" y2="210.6973"/><text fill="#000000" font-family="sans-serif" font-size="13" font-weight="bold" lengthAdjust="spacing" textLength="18.0718" x="458.5806" y="205.4346">3.3</text><text fill="#000000" font-family="sans-serif" font-size="13" lengthAdjust="spacing" textLength="44.7891" x="480.6523" y="205.4346">create()</text><rect fill="#E3E3E3" height="51.2422" rx="2.5" ry="2.5" style="stroke:#181818;stroke-width:0.5;" width="87.9238" x="829.0796" y="187.4063"/><text fill="#000000" font-family="sans-serif" font-size="14" lengthAdjust="spacing" textLength="49.0068" x="848.5381" y="209.5137">listTrain</text><text fill="#000000" font-family="sans-serif" font-size="14" lengthAdjust="spacing" textLength="73.9238" x="836.0796" y="228.1348">:List&lt;Train&gt;</text><path d="M408.1875,256.6484 L480.6221,256.6484 L480.6221,265.9395 L470.6221,275.9395 L408.1875,275.9395 L408.1875,256.6484 " fill="#EEEEEE" style="stroke:#000000;stroke-width:1.5;"/><rect fill="none" height="141.873" style="stroke:#000000;stroke-width:1.5;" width="518.8159" x="408.1875" y="256.6484"/><text fill="#000000" font-family="sans-serif" font-size="13" font-weight="bold" lengthAdjust="spacing" textLength="27.4346" x="423.1875" y="271.6768">loop</text><text fill="#000000" font-family="sans-serif" font-size="11" font-weight="bold" lengthAdjust="spacing" textLength="117.9546" x="495.6221" y="270.5186">[for each known Train]</text><polygon fill="#181818" points="550.375,295.2305,560.375,299.2305,550.375,303.2305,554.375,299.2305" style="stroke:#181818;stroke-width:1.0;"/><line style="stroke:#181818;stroke-width:1.0;" x1="451.5806" x2="556.375" y1="299.2305" y2="299.2305"/><text fill="#000000" font-family="sans-serif" font-size="13" font-weight="bold" lengthAdjust="spacing" textLength="18.0718" x="458.5806" y="293.9678">3.4</text><text fill="#000000" font-family="sans-serif" font-size="13" lengthAdjust="spacing" textLength="69.7227" x="480.6523" y="293.9678">train = get(i)</text><polygon fill="#181818" points="856.0415,356.5215,866.0415,360.5215,856.0415,364.5215,860.0415,360.5215" style="stroke:#181818;stroke-width:1.0;"/><line style="stroke:#181818;stroke-width:1.0;" x1="451.5806" x2="862.0415" y1="360.5215" y2="360.5215"/><text fill="#000000" font-family="sans-serif" font-size="13" font-weight="bold" lengthAdjust="spacing" textLength="18.0718" x="458.5806" y="355.2588">3.5</text><text fill="#000000" font-family="sans-serif" font-size="13" lengthAdjust="spacing" textLength="55.6372" x="480.6523" y="355.2588">add(train)</text><polygon fill="#181818" points="314.707,424.8125,304.707,428.8125,314.707,432.8125,310.707,428.8125" style="stroke:#181818;stroke-width:1.0;"/><line style="stroke:#181818;stroke-width:1.0;stroke-dasharray:2.0,2.0;" x1="308.707" x2="445.5806" y1="428.8125" y2="428.8125"/><text fill="#000000" font-family="sans-serif" font-size="13" font-weight="bold" lengthAdjust="spacing" textLength="18.0718" x="320.707" y="423.5498">3.6</text><text fill="#000000" font-family="sans-serif" font-size="13" lengthAdjust="spacing" textLength="45.5063" x="342.7788" y="423.5498">listTrain</text><polygon fill="#181818" points="166.8335,456.1035,156.8335,460.1035,166.8335,464.1035,162.8335,460.1035" style="stroke:#181818;stroke-width:1.0;"/><line style="stroke:#181818;stroke-width:1.0;stroke-dasharray:2.0,2.0;" x1="160.8335" x2="297.707" y1="460.1035" y2="460.1035"/><text fill="#000000" font-family="sans-serif" font-size="13" font-weight="bold" lengthAdjust="spacing" textLength="18.0718" x="172.8335" y="454.8408">3.7</text><text fill="#000000" font-family="sans-serif" font-size="13" lengthAdjust="spacing" textLength="45.5063" x="194.9053" y="454.8408">listTrain</text><polygon fill="#181818" points="652.9644,487.3945,662.9644,491.3945,652.9644,495.3945,656.9644,491.3945" style="stroke:#181818;stroke-width:1.0;"/><line style="stroke:#181818;stroke-width:1.0;" x1="155.8335" x2="658.9644" y1="491.3945" y2="491.3945"/><text fill="#000000" font-family="sans-serif" font-size="13" font-weight="bold" lengthAdjust="spacing" textLength="18.0718" x="162.8335" y="486.1318">3.8</text><text fill="#000000" font-family="sans-serif" font-size="13" lengthAdjust="spacing" textLength="92.4473" x="184.9053" y="486.1318">toDTO(listTrain)</text><polygon fill="#181818" points="915.0034,518.6855,925.0034,522.6855,915.0034,526.6855,919.0034,522.6855" style="stroke:#181818;stroke-width:1.0;"/><line style="stroke:#181818;stroke-width:1.0;stroke-dasharray:2.0,2.0;" x1="674.9644" x2="921.0034" y1="522.6855" y2="522.6855"/><text fill="#000000" font-family="sans-serif" font-size="13" font-weight="bold" lengthAdjust="spacing" textLength="18.0718" x="681.9644" y="517.4229">3.9</text><text fill="#000000" font-family="sans-serif" font-size="13" lengthAdjust="spacing" textLength="44.7891" x="704.0361" y="517.4229">create()</text><rect fill="#E3E3E3" height="51.2422" rx="2.5" ry="2.5" style="stroke:#181818;stroke-width:0.5;" width="117.4756" x="927.0034" y="499.3945"/><text fill="#000000" font-family="sans-serif" font-size="14" lengthAdjust="spacing" textLength="78.5586" x="946.4619" y="521.502">listTrainDTO</text><text fill="#000000" font-family="sans-serif" font-size="14" lengthAdjust="spacing" textLength="103.4756" x="934.0034" y="540.123">:List&lt;TrainDTO&gt;</text><path d="M611.3369,568.6367 L683.7715,568.6367 L683.7715,577.9277 L673.7715,587.9277 L611.3369,587.9277 L611.3369,568.6367 " fill="#EEEEEE" style="stroke:#000000;stroke-width:1.5;"/><rect fill="none" height="248.4063" style="stroke:#000000;stroke-width:1.5;" width="532.48" x="611.3369" y="568.6367"/><text fill="#000000" font-family="sans-serif" font-size="13" font-weight="bold" lengthAdjust="spacing" textLength="27.4346" x="626.3369" y="583.665">loop</text><text fill="#000000" font-family="sans-serif" font-size="11" font-weight="bold" lengthAdjust="spacing" textLength="144.2407" x="698.7715" y="582.5068">[for each object in listTrain]</text><polygon fill="#181818" points="856.0415,607.2188,866.0415,611.2188,856.0415,615.2188,860.0415,611.2188" style="stroke:#181818;stroke-width:1.0;"/><line style="stroke:#181818;stroke-width:1.0;" x1="674.9644" x2="862.0415" y1="611.2188" y2="611.2188"/><text fill="#000000" font-family="sans-serif" font-size="13" font-weight="bold" lengthAdjust="spacing" textLength="25.3018" x="681.9644" y="605.9561">3.10</text><text fill="#000000" font-family="sans-serif" font-size="13" lengthAdjust="spacing" textLength="69.7227" x="711.2661" y="605.9561">train = get(i)</text><line style="stroke:#181818;stroke-width:1.0;" x1="674.9644" x2="721.9644" y1="667.5098" y2="667.5098"/><line style="stroke:#181818;stroke-width:1.0;" x1="721.9644" x2="721.9644" y1="667.5098" y2="680.5098"/><line style="stroke:#181818;stroke-width:1.0;" x1="680.9644" x2="721.9644" y1="680.5098" y2="680.5098"/><polygon fill="#181818" points="690.9644,676.5098,680.9644,680.5098,690.9644,684.5098,686.9644,680.5098" style="stroke:#181818;stroke-width:1.0;"/><text fill="#000000" font-family="sans-serif" font-size="13" font-weight="bold" lengthAdjust="spacing" textLength="25.3018" x="686.9644" y="662.2471">3.11</text><text fill="#000000" font-family="sans-serif" font-size="13" lengthAdjust="spacing" textLength="139.7754" x="716.2661" y="662.2471">trainDTO = toDTO(train)</text><polygon fill="#181818" points="1042.479,712.8008,1052.479,716.8008,1042.479,720.8008,1046.479,716.8008" style="stroke:#181818;stroke-width:1.0;"/><line style="stroke:#181818;stroke-width:1.0;stroke-dasharray:2.0,2.0;" x1="674.9644" x2="1048.479" y1="716.8008" y2="716.8008"/><text fill="#000000" font-family="sans-serif" font-size="13" font-weight="bold" lengthAdjust="spacing" textLength="25.3018" x="681.9644" y="711.5381">3.12</text><text fill="#000000" font-family="sans-serif" font-size="13" lengthAdjust="spacing" textLength="44.7891" x="711.2661" y="711.5381">create()</text><rect fill="#E3E3E3" height="51.2422" rx="2.5" ry="2.5" style="stroke:#181818;stroke-width:0.5;" width="79.3379" x="1054.479" y="693.5098"/><text fill="#000000" font-family="sans-serif" font-size="14" lengthAdjust="spacing" textLength="56.7861" x="1065.7549" y="715.6172">trainDTO</text><text fill="#000000" font-family="sans-serif" font-size="14" lengthAdjust="spacing" textLength="65.3379" x="1061.479" y="734.2383">:TrainDTO</text><polygon fill="#181818" points="968.7412,775.043,978.7412,779.043,968.7412,783.043,972.7412,779.043" style="stroke:#181818;stroke-width:1.0;"/><line style="stroke:#181818;stroke-width:1.0;" x1="674.9644" x2="974.7412" y1="779.043" y2="779.043"/><text fill="#000000" font-family="sans-serif" font-size="13" font-weight="bold" lengthAdjust="spacing" textLength="25.3018" x="681.9644" y="773.7803">3.13</text><text fill="#000000" font-family="sans-serif" font-size="13" lengthAdjust="spacing" textLength="83.0781" x="711.2661" y="773.7803">add(trainDTO)</text><polygon fill="#181818" points="166.8335,843.334,156.8335,847.334,166.8335,851.334,162.8335,847.334" style="stroke:#181818;stroke-width:1.0;"/><line style="stroke:#181818;stroke-width:1.0;stroke-dasharray:2.0,2.0;" x1="160.8335" x2="668.9644" y1="847.334" y2="847.334"/><text fill="#000000" font-family="sans-serif" font-size="13" font-weight="bold" lengthAdjust="spacing" textLength="25.3018" x="172.8335" y="842.0713">3.14</text><text fill="#000000" font-family="sans-serif" font-size="13" lengthAdjust="spacing" textLength="72.9473" x="202.1353" y="842.0713">listTrainDTO</text><polygon fill="#181818" points="11,881.625,1,885.625,11,889.625,7,885.625" style="stroke:#181818;stroke-width:1.0;"/><line style="stroke:#181818;stroke-width:1.0;stroke-dasharray:2.0,2.0;" x1="5" x2="149.8335" y1="885.625" y2="885.625"/><text fill="#000000" font-family="sans-serif" font-size="13" font-weight="bold" lengthAdjust="spacing" textLength="7.23" x="17" y="880.3623">4</text><text fill="#000000" font-family="sans-serif" font-size="13" lengthAdjust="spacing" textLength="72.9473" x="28.23" y="880.3623">listTrainDTO</text><!--SRC=[ZLLDQ-Cm4BtxLmmzfOKiBBidqmP2joo5T1Di7nUAOYkEDeva9AMb_txraIYoP3lMpTARDwCtRsHn8BH571tXo2WhzvmTCKX-mebm9oqg3wZ6kVngC71SIaJhnWU8FQhO9w4rx50ZS9AeRKbAqY8guIvT2a5gMd14w3EZahEcmVmEa83d8bjrmLAZCjmoGIJZNtzfMdHtJ5oHBL__l6SlctLFjBW4YIis3qfQ4I4V3MXXGAlNl0WWvlGDjUsvLflpRRdPl6HTQAF835eb3ebjL4plOduLwqwO-WuZtzLUpprjv2N8Yz7m19qaewVZ5dFuaSmNHkeKQYoN7uWqQDjWgz7ilelzzZr1fIGVI6BR7b2hvkpKmcyiuP8ETCM9ETHB8q5bkJR6vDAWzSubkg1T0g-FuAthjkFCn_XYpZpf73hI7EQkIYtjmqCA9SSgJkiGXZICjR1Z730gzt2Wx9DQ0IAads1Xt9I2QH8ywRfdvButn1Lj3083gy9Tt8tirzkbWAfgPkguaT-pwOGgHj2OLXEajmPnCv2CvGbQwNl3sJfcYger9XlmgnrgrJ6cd3rpP8E6FJy2FNNPay1aUY27ZTOr6Tl-KmyiAEFqgnEdwZRyXkccDho_sHChSN9Utegdix83JknNTz3aiSYXlfDkrDV4SNLr7c-arDSaWSrxF5da21rDL2H2C0C-mUYj7RFt_lyq6u_pkHsHWDQZC_-6_m00]--></g></svg>