<svg xmlns="http://www.w3.org/2000/svg" xmlns:xlink="http://www.w3.org/1999/xlink" contentStyleType="text/css" height="959px" preserveAspectRatio="none" style="width:1530px;height:959px;background:#FFFFFF;" version="1.1" viewBox="0 0 1530 959" width="1530px" zoomAndPan="magnify"><defs/><g><rect fill="#FFFFFF" height="795.0918" style="stroke:#181818;stroke-width:1.0;" width="10" x="184.8525" y="90.5332"/><rect fill="#FFFFFF" height="311.9883" style="stroke:#181818;stroke-width:1.0;" width="10" x="431.7305" y="148.1152"/><rect fill="#FFFFFF" height="249.4063" style="stroke:#181818;stroke-width:1.0;" width="10" x="620.8257" y="179.4063"/><rect fill="#FFFFFF" height="30" style="stroke:#181818;stroke-width:1.0;" width="10" x="744.521" y="299.2305"/><rect fill="#FFFFFF" height="355.9395" style="stroke:#181818;stroke-width:1.0;" width="10" x="899.2617" y="491.3945"/><rect fill="#FFFFFF" height="36.291" style="stroke:#181818;stroke-width:1.0;" width="10" x="904.2617" y="680.5098"/><rect fill="#FFFFFF" height="30" style="stroke:#181818;stroke-width:1.0;" width="10" x="1108.1406" y="360.5215"/><rect fill="#FFFFFF" height="30" style="stroke:#181818;stroke-width:1.0;" width="10" x="1108.1406" y="611.2188"/><rect fill="#FFFFFF" height="30" style="stroke:#181818;stroke-width:1.0;" width="10" x="1272.9917" y="779.043"/><rect fill="none" height="749.8008" style="stroke:#000000;stroke-width:1.5;" width="1420.6899" x="103.6045" y="105.5332"/><rect fill="none" height="141.873" style="stroke:#000000;stroke-width:1.5;" width="608.4766" x="584.7017" y="256.6484"/><rect fill="none" height="248.4063" style="stroke:#000000;stroke-width:1.5;" width="694.7358" x="819.5586" y="568.6367"/><line style="stroke:#181818;stroke-width:0.5;stroke-dasharray:5.0,5.0;" x1="189.6045" x2="189.6045" y1="57.2422" y2="903.625"/><line style="stroke:#181818;stroke-width:0.5;stroke-dasharray:5.0,5.0;" x1="436.6479" x2="436.6479" y1="57.2422" y2="903.625"/><line style="stroke:#181818;stroke-width:0.5;stroke-dasharray:5.0,5.0;" x1="625.7017" x2="625.7017" y1="57.2422" y2="903.625"/><line style="stroke:#181818;stroke-width:0.5;stroke-dasharray:5.0,5.0;" x1="749.4834" x2="749.4834" y1="57.2422" y2="903.625"/><line style="stroke:#181818;stroke-width:0.5;stroke-dasharray:5.0,5.0;" x1="903.5586" x2="903.5586" y1="57.2422" y2="903.625"/><line style="stroke:#181818;stroke-width:0.5;stroke-dasharray:5.0,5.0;" x1="1113.103" x2="1113.103" y1="228.5273" y2="903.625"/><line style="stroke:#181818;stroke-width:0.5;stroke-dasharray:5.0,5.0;" x1="1277.1782" x2="1277.1782" y1="540.5156" y2="903.625"/><line style="stroke:#181818;stroke-width:0.5;stroke-dasharray:5.0,5.0;" x1="1437.8052" x2="1437.8052" y1="734.6309" y2="903.625"/><rect fill="#E3E3E3" height="32.6211" rx="2.5" ry="2.5" style="stroke:#181818;stroke-width:0.5;" width="152.4961" x="113.6045" y="23.6211"/><text fill="#000000" font-family="sans-serif" font-size="14" lengthAdjust="spacing" textLength="138.4961" x="120.6045" y="45.7285">:AssignTrainController</text><rect fill="#E3E3E3" height="32.6211" rx="2.5" ry="2.5" style="stroke:#181818;stroke-width:0.5;" width="152.4961" x="113.6045" y="902.625"/><text fill="#000000" font-family="sans-serif" font-size="14" lengthAdjust="spacing" textLength="138.4961" x="120.6045" y="924.7324">:AssignTrainController</text><rect fill="#E3E3E3" height="51.2422" rx="2.5" ry="2.5" style="stroke:#181818;stroke-width:0.5;" width="122.165" x="375.6479" y="5"/><text fill="#000000" font-family="sans-serif" font-size="14" lengthAdjust="spacing" textLength="98.8271" x="387.3169" y="27.1074">routeRepository</text><text fill="#000000" font-family="sans-serif" font-size="14" lengthAdjust="spacing" textLength="108.165" x="382.6479" y="45.7285">:RouteRepository</text><rect fill="#E3E3E3" height="51.2422" rx="2.5" ry="2.5" style="stroke:#181818;stroke-width:0.5;" width="122.165" x="375.6479" y="902.625"/><text fill="#000000" font-family="sans-serif" font-size="14" lengthAdjust="spacing" textLength="98.8271" x="387.3169" y="924.7324">routeRepository</text><text fill="#000000" font-family="sans-serif" font-size="14" lengthAdjust="spacing" textLength="108.165" x="382.6479" y="943.3535">:RouteRepository</text><rect fill="#E3E3E3" height="51.2422" rx="2.5" ry="2.5" style="stroke:#181818;stroke-width:0.5;" width="62.248" x="594.7017" y="5"/><text fill="#000000" font-family="sans-serif" font-size="14" lengthAdjust="spacing" textLength="38.9102" x="606.3706" y="27.1074">routes</text><text fill="#000000" font-family="sans-serif" font-size="14" lengthAdjust="spacing" textLength="48.248" x="601.7017" y="45.7285">:Routes</text><rect fill="#E3E3E3" height="51.2422" rx="2.5" ry="2.5" style="stroke:#181818;stroke-width:0.5;" width="62.248" x="594.7017" y="902.625"/><text fill="#000000" font-family="sans-serif" font-size="14" lengthAdjust="spacing" textLength="38.9102" x="606.3706" y="924.7324">routes</text><text fill="#000000" font-family="sans-serif" font-size="14" lengthAdjust="spacing" textLength="48.248" x="601.7017" y="943.3535">:Routes</text><rect fill="#E3E3E3" height="32.6211" rx="2.5" ry="2.5" style="stroke:#181818;stroke-width:0.5;" width="140.0752" x="679.4834" y="23.6211"/><text fill="#000000" font-family="sans-serif" font-size="14" lengthAdjust="spacing" textLength="126.0752" x="686.4834" y="45.7285">:List&lt;PointOfRoute&gt;</text><rect fill="#E3E3E3" height="32.6211" rx="2.5" ry="2.5" style="stroke:#181818;stroke-width:0.5;" width="140.0752" x="679.4834" y="902.625"/><text fill="#000000" font-family="sans-serif" font-size="14" lengthAdjust="spacing" textLength="126.0752" x="686.4834" y="924.7324">:List&lt;PointOfRoute&gt;</text><rect fill="#E3E3E3" height="32.6211" rx="2.5" ry="2.5" style="stroke:#181818;stroke-width:0.5;" width="149.4063" x="829.5586" y="23.6211"/><text fill="#000000" font-family="sans-serif" font-size="14" lengthAdjust="spacing" textLength="135.4063" x="836.5586" y="45.7285">:PointOfRouteMapper</text><rect fill="#E3E3E3" height="32.6211" rx="2.5" ry="2.5" style="stroke:#181818;stroke-width:0.5;" width="149.4063" x="829.5586" y="902.625"/><text fill="#000000" font-family="sans-serif" font-size="14" lengthAdjust="spacing" textLength="135.4063" x="836.5586" y="924.7324">:PointOfRouteMapper</text><rect fill="#E3E3E3" height="51.2422" rx="2.5" ry="2.5" style="stroke:#181818;stroke-width:0.5;" width="140.0752" x="1043.103" y="902.625"/><text fill="#000000" font-family="sans-serif" font-size="14" lengthAdjust="spacing" textLength="101.1582" x="1062.5615" y="924.7324">listPointOfRoute</text><text fill="#000000" font-family="sans-serif" font-size="14" lengthAdjust="spacing" textLength="126.0752" x="1050.103" y="943.3535">:List&lt;PointOfRoute&gt;</text><rect fill="#E3E3E3" height="51.2422" rx="2.5" ry="2.5" style="stroke:#181818;stroke-width:0.5;" width="169.627" x="1193.1782" y="902.625"/><text fill="#000000" font-family="sans-serif" font-size="14" lengthAdjust="spacing" textLength="130.71" x="1212.6367" y="924.7324">listPointOfRouteDTO</text><text fill="#000000" font-family="sans-serif" font-size="14" lengthAdjust="spacing" textLength="155.627" x="1200.1782" y="943.3535">:List&lt;PointOfRouteDTO&gt;</text><rect fill="#E3E3E3" height="51.2422" rx="2.5" ry="2.5" style="stroke:#181818;stroke-width:0.5;" width="131.4893" x="1372.8052" y="902.625"/><text fill="#000000" font-family="sans-serif" font-size="14" lengthAdjust="spacing" textLength="112.0479" x="1382.5259" y="924.7324">pointOfRouteDTO</text><text fill="#000000" font-family="sans-serif" font-size="14" lengthAdjust="spacing" textLength="117.4893" x="1379.8052" y="943.3535">:PointOfRouteDTO</text><rect fill="#FFFFFF" height="795.0918" style="stroke:#181818;stroke-width:1.0;" width="10" x="184.8525" y="90.5332"/><rect fill="#FFFFFF" height="311.9883" style="stroke:#181818;stroke-width:1.0;" width="10" x="431.7305" y="148.1152"/><rect fill="#FFFFFF" height="249.4063" style="stroke:#181818;stroke-width:1.0;" width="10" x="620.8257" y="179.4063"/><rect fill="#FFFFFF" height="30" style="stroke:#181818;stroke-width:1.0;" width="10" x="744.521" y="299.2305"/><rect fill="#FFFFFF" height="355.9395" style="stroke:#181818;stroke-width:1.0;" width="10" x="899.2617" y="491.3945"/><rect fill="#FFFFFF" height="36.291" style="stroke:#181818;stroke-width:1.0;" width="10" x="904.2617" y="680.5098"/><rect fill="#FFFFFF" height="30" style="stroke:#181818;stroke-width:1.0;" width="10" x="1108.1406" y="360.5215"/><rect fill="#FFFFFF" height="30" style="stroke:#181818;stroke-width:1.0;" width="10" x="1108.1406" y="611.2188"/><rect fill="#FFFFFF" height="30" style="stroke:#181818;stroke-width:1.0;" width="10" x="1272.9917" y="779.043"/><polygon fill="#181818" points="172.8525,86.5332,182.8525,90.5332,172.8525,94.5332,176.8525,90.5332" style="stroke:#181818;stroke-width:1.0;"/><line style="stroke:#181818;stroke-width:1.0;" x1="0" x2="178.8525" y1="90.5332" y2="90.5332"/><text fill="#000000" font-family="sans-serif" font-size="13" font-weight="bold" lengthAdjust="spacing" textLength="7.23" x="7" y="85.2705">3</text><text fill="#000000" font-family="sans-serif" font-size="13" lengthAdjust="spacing" textLength="154.6226" x="18.23" y="85.2705">getRoutePoints(routeDTO)</text><path d="M103.6045,105.5332 L311.8154,105.5332 L311.8154,114.8242 L301.8154,124.8242 L103.6045,124.8242 L103.6045,105.5332 " fill="#EEEEEE" style="stroke:#000000;stroke-width:1.5;"/><rect fill="none" height="749.8008" style="stroke:#000000;stroke-width:1.5;" width="1420.6899" x="103.6045" y="105.5332"/><text fill="#000000" font-family="sans-serif" font-size="13" font-weight="bold" lengthAdjust="spacing" textLength="163.2109" x="118.6045" y="120.5615">Get PointOfRouteDTO List</text><polygon fill="#181818" points="419.7305,144.1152,429.7305,148.1152,419.7305,152.1152,423.7305,148.1152" style="stroke:#181818;stroke-width:1.0;"/><line style="stroke:#181818;stroke-width:1.0;" x1="194.8525" x2="425.7305" y1="148.1152" y2="148.1152"/><text fill="#000000" font-family="sans-serif" font-size="13" font-weight="bold" lengthAdjust="spacing" textLength="18.0718" x="201.8525" y="142.8525">3.1</text><text fill="#000000" font-family="sans-serif" font-size="13" lengthAdjust="spacing" textLength="195.8062" x="223.9243" y="142.8525">getRoutePoints(routeDTO.getId())</text><polygon fill="#181818" points="608.8257,175.4063,618.8257,179.4063,608.8257,183.4063,612.8257,179.4063" style="stroke:#181818;stroke-width:1.0;"/><line style="stroke:#181818;stroke-width:1.0;" x1="441.7305" x2="614.8257" y1="179.4063" y2="179.4063"/><text fill="#000000" font-family="sans-serif" font-size="13" font-weight="bold" lengthAdjust="spacing" textLength="18.0718" x="448.7305" y="174.1436">3.2</text><text fill="#000000" font-family="sans-serif" font-size="13" lengthAdjust="spacing" textLength="138.0234" x="470.8022" y="174.1436">getRoutePoints(routeId)</text><polygon fill="#181818" points="1031.103,206.6973,1041.103,210.6973,1031.103,214.6973,1035.103,210.6973" style="stroke:#181818;stroke-width:1.0;"/><line style="stroke:#181818;stroke-width:1.0;stroke-dasharray:2.0,2.0;" x1="630.8257" x2="1037.103" y1="210.6973" y2="210.6973"/><text fill="#000000" font-family="sans-serif" font-size="13" font-weight="bold" lengthAdjust="spacing" textLength="18.0718" x="637.8257" y="205.4346">3.3</text><text fill="#000000" font-family="sans-serif" font-size="13" lengthAdjust="spacing" textLength="44.7891" x="659.8975" y="205.4346">create()</text><rect fill="#E3E3E3" height="51.2422" rx="2.5" ry="2.5" style="stroke:#181818;stroke-width:0.5;" width="140.0752" x="1043.103" y="187.4063"/><text fill="#000000" font-family="sans-serif" font-size="14" lengthAdjust="spacing" textLength="101.1582" x="1062.5615" y="209.5137">listPointOfRoute</text><text fill="#000000" font-family="sans-serif" font-size="14" lengthAdjust="spacing" textLength="126.0752" x="1050.103" y="228.1348">:List&lt;PointOfRoute&gt;</text><path d="M584.7017,256.6484 L657.1362,256.6484 L657.1362,265.9395 L647.1362,275.9395 L584.7017,275.9395 L584.7017,256.6484 " fill="#EEEEEE" style="stroke:#000000;stroke-width:1.5;"/><rect fill="none" height="141.873" style="stroke:#000000;stroke-width:1.5;" width="608.4766" x="584.7017" y="256.6484"/><text fill="#000000" font-family="sans-serif" font-size="13" font-weight="bold" lengthAdjust="spacing" textLength="27.4346" x="599.7017" y="271.6768">loop</text><text fill="#000000" font-family="sans-serif" font-size="11" font-weight="bold" lengthAdjust="spacing" textLength="167.4385" x="672.1362" y="270.5186">[for each PointOfRoute in route]</text><polygon fill="#181818" points="732.521,295.2305,742.521,299.2305,732.521,303.2305,736.521,299.2305" style="stroke:#181818;stroke-width:1.0;"/><line style="stroke:#181818;stroke-width:1.0;" x1="630.8257" x2="738.521" y1="299.2305" y2="299.2305"/><text fill="#000000" font-family="sans-serif" font-size="13" font-weight="bold" lengthAdjust="spacing" textLength="18.0718" x="637.8257" y="293.9678">3.4</text><text fill="#000000" font-family="sans-serif" font-size="13" lengthAdjust="spacing" textLength="72.6235" x="659.8975" y="293.9678">point = get(i)</text><polygon fill="#181818" points="1096.1406,356.5215,1106.1406,360.5215,1096.1406,364.5215,1100.1406,360.5215" style="stroke:#181818;stroke-width:1.0;"/><line style="stroke:#181818;stroke-width:1.0;" x1="630.8257" x2="1102.1406" y1="360.5215" y2="360.5215"/><text fill="#000000" font-family="sans-serif" font-size="13" font-weight="bold" lengthAdjust="spacing" textLength="18.0718" x="637.8257" y="355.2588">3.5</text><text fill="#000000" font-family="sans-serif" font-size="13" lengthAdjust="spacing" textLength="58.5381" x="659.8975" y="355.2588">add(point)</text><polygon fill="#181818" points="452.7305,424.8125,442.7305,428.8125,452.7305,432.8125,448.7305,428.8125" style="stroke:#181818;stroke-width:1.0;"/><line style="stroke:#181818;stroke-width:1.0;stroke-dasharray:2.0,2.0;" x1="446.7305" x2="624.8257" y1="428.8125" y2="428.8125"/><text fill="#000000" font-family="sans-serif" font-size="13" font-weight="bold" lengthAdjust="spacing" textLength="18.0718" x="458.7305" y="423.5498">3.6</text><text fill="#000000" font-family="sans-serif" font-size="13" lengthAdjust="spacing" textLength="93.9326" x="480.8022" y="423.5498">listPointOfRoute</text><polygon fill="#181818" points="205.8525,456.1035,195.8525,460.1035,205.8525,464.1035,201.8525,460.1035" style="stroke:#181818;stroke-width:1.0;"/><line style="stroke:#181818;stroke-width:1.0;stroke-dasharray:2.0,2.0;" x1="199.8525" x2="435.7305" y1="460.1035" y2="460.1035"/><text fill="#000000" font-family="sans-serif" font-size="13" font-weight="bold" lengthAdjust="spacing" textLength="18.0718" x="211.8525" y="454.8408">3.7</text><text fill="#000000" font-family="sans-serif" font-size="13" lengthAdjust="spacing" textLength="93.9326" x="233.9243" y="454.8408">listPointOfRoute</text><polygon fill="#181818" points="887.2617,487.3945,897.2617,491.3945,887.2617,495.3945,891.2617,491.3945" style="stroke:#181818;stroke-width:1.0;"/><line style="stroke:#181818;stroke-width:1.0;" x1="194.8525" x2="893.2617" y1="491.3945" y2="491.3945"/><text fill="#000000" font-family="sans-serif" font-size="13" font-weight="bold" lengthAdjust="spacing" textLength="18.0718" x="201.8525" y="486.1318">3.8</text><text fill="#000000" font-family="sans-serif" font-size="13" lengthAdjust="spacing" textLength="140.8735" x="223.9243" y="486.1318">toDTO(listPointOfRoute)</text><polygon fill="#181818" points="1181.1782,518.6855,1191.1782,522.6855,1181.1782,526.6855,1185.1782,522.6855" style="stroke:#181818;stroke-width:1.0;"/><line style="stroke:#181818;stroke-width:1.0;stroke-dasharray:2.0,2.0;" x1="909.2617" x2="1187.1782" y1="522.6855" y2="522.6855"/><text fill="#000000" font-family="sans-serif" font-size="13" font-weight="bold" lengthAdjust="spacing" textLength="18.0718" x="916.2617" y="517.4229">3.9</text><text fill="#000000" font-family="sans-serif" font-size="13" lengthAdjust="spacing" textLength="44.7891" x="938.3335" y="517.4229">create()</text><rect fill="#E3E3E3" height="51.2422" rx="2.5" ry="2.5" style="stroke:#181818;stroke-width:0.5;" width="169.627" x="1193.1782" y="499.3945"/><text fill="#000000" font-family="sans-serif" font-size="14" lengthAdjust="spacing" textLength="130.71" x="1212.6367" y="521.502">listPointOfRouteDTO</text><text fill="#000000" font-family="sans-serif" font-size="14" lengthAdjust="spacing" textLength="155.627" x="1200.1782" y="540.123">:List&lt;PointOfRouteDTO&gt;</text><path d="M819.5586,568.6367 L891.9932,568.6367 L891.9932,577.9277 L881.9932,587.9277 L819.5586,587.9277 L819.5586,568.6367 " fill="#EEEEEE" style="stroke:#000000;stroke-width:1.5;"/><rect fill="none" height="248.4063" style="stroke:#000000;stroke-width:1.5;" width="694.7358" x="819.5586" y="568.6367"/><text fill="#000000" font-family="sans-serif" font-size="13" font-weight="bold" lengthAdjust="spacing" textLength="27.4346" x="834.5586" y="583.665">loop</text><text fill="#000000" font-family="sans-serif" font-size="11" font-weight="bold" lengthAdjust="spacing" textLength="188.2246" x="906.9932" y="582.5068">[for each object in listPointOfRoute]</text><polygon fill="#181818" points="1096.1406,607.2188,1106.1406,611.2188,1096.1406,615.2188,1100.1406,611.2188" style="stroke:#181818;stroke-width:1.0;"/><line style="stroke:#181818;stroke-width:1.0;" x1="909.2617" x2="1102.1406" y1="611.2188" y2="611.2188"/><text fill="#000000" font-family="sans-serif" font-size="13" font-weight="bold" lengthAdjust="spacing" textLength="25.3018" x="916.2617" y="605.9561">3.10</text><text fill="#000000" font-family="sans-serif" font-size="13" lengthAdjust="spacing" textLength="72.6235" x="945.5635" y="605.9561">point = get(i)</text><line style="stroke:#181818;stroke-width:1.0;" x1="909.2617" x2="956.2617" y1="667.5098" y2="667.5098"/><line style="stroke:#181818;stroke-width:1.0;" x1="956.2617" x2="956.2617" y1="667.5098" y2="680.5098"/><line style="stroke:#181818;stroke-width:1.0;" x1="915.2617" x2="956.2617" y1="680.5098" y2="680.5098"/><polygon fill="#181818" points="925.2617,676.5098,915.2617,680.5098,925.2617,684.5098,921.2617,680.5098" style="stroke:#181818;stroke-width:1.0;"/><text fill="#000000" font-family="sans-serif" font-size="13" font-weight="bold" lengthAdjust="spacing" textLength="25.3018" x="921.2617" y="662.2471">3.11</text><text fill="#000000" font-family="sans-serif" font-size="13" lengthAdjust="spacing" textLength="145.5771" x="950.5635" y="662.2471">pointDTO = toDTO(point)</text><polygon fill="#181818" points="1360.8052,712.8008,1370.8052,716.8008,1360.8052,720.8008,1364.8052,716.8008" style="stroke:#181818;stroke-width:1.0;"/><line style="stroke:#181818;stroke-width:1.0;stroke-dasharray:2.0,2.0;" x1="909.2617" x2="1366.8052" y1="716.8008" y2="716.8008"/><text fill="#000000" font-family="sans-serif" font-size="13" font-weight="bold" lengthAdjust="spacing" textLength="25.3018" x="916.2617" y="711.5381">3.12</text><text fill="#000000" font-family="sans-serif" font-size="13" lengthAdjust="spacing" textLength="44.7891" x="945.5635" y="711.5381">create()</text><rect fill="#E3E3E3" height="51.2422" rx="2.5" ry="2.5" style="stroke:#181818;stroke-width:0.5;" width="131.4893" x="1372.8052" y="693.5098"/><text fill="#000000" font-family="sans-serif" font-size="14" lengthAdjust="spacing" textLength="112.0479" x="1382.5259" y="715.6172">pointOfRouteDTO</text><text fill="#000000" font-family="sans-serif" font-size="14" lengthAdjust="spacing" textLength="117.4893" x="1379.8052" y="734.2383">:PointOfRouteDTO</text><polygon fill="#181818" points="1260.9917,775.043,1270.9917,779.043,1260.9917,783.043,1264.9917,779.043" style="stroke:#181818;stroke-width:1.0;"/><line style="stroke:#181818;stroke-width:1.0;" x1="909.2617" x2="1266.9917" y1="779.043" y2="779.043"/><text fill="#000000" font-family="sans-serif" font-size="13" font-weight="bold" lengthAdjust="spacing" textLength="25.3018" x="916.2617" y="773.7803">3.13</text><text fill="#000000" font-family="sans-serif" font-size="13" lengthAdjust="spacing" textLength="85.979" x="945.5635" y="773.7803">add(pointDTO)</text><polygon fill="#181818" points="205.8525,843.334,195.8525,847.334,205.8525,851.334,201.8525,847.334" style="stroke:#181818;stroke-width:1.0;"/><line style="stroke:#181818;stroke-width:1.0;stroke-dasharray:2.0,2.0;" x1="199.8525" x2="903.2617" y1="847.334" y2="847.334"/><text fill="#000000" font-family="sans-serif" font-size="13" font-weight="bold" lengthAdjust="spacing" textLength="25.3018" x="211.8525" y="842.0713">3.14</text><text fill="#000000" font-family="sans-serif" font-size="13" lengthAdjust="spacing" textLength="121.3735" x="241.1543" y="842.0713">listPointOfRouteDTO</text><polygon fill="#181818" points="11,881.625,1,885.625,11,889.625,7,885.625" style="stroke:#181818;stroke-width:1.0;"/><line style="stroke:#181818;stroke-width:1.0;stroke-dasharray:2.0,2.0;" x1="5" x2="188.8525" y1="885.625" y2="885.625"/><text fill="#000000" font-family="sans-serif" font-size="13" font-weight="bold" lengthAdjust="spacing" textLength="7.23" x="17" y="880.3623">4</text><text fill="#000000" font-family="sans-serif" font-size="13" lengthAdjust="spacing" textLength="121.3735" x="28.23" y="880.3623">listPointOfRouteDTO</text><!--SRC=[ZLLHRvim47xdLvpw19LIQTgUK1kfwg8fKZeGiBT9aGiEyKfiP3kR-kzdd1HiOmX-FExxllFTTqQy4zeYZavmOfILHyvE62G_uq3qNrfKlgCQv_AZmS1nAH6j6pD17575_X5Qmm4r0WU12ajIaXPH2NVnin2afWL7XBumAZbh6ipl00buARATdSpPMU8CjqmGoVZ7RnfdTaJZikHNiTbdcpJneCKdI0ovkLFIZWZvc392PNBGkMkTkzlcXPDf9hsYjhrMdYRRdyN-zJbDDvcDQ1Ir2LBLJAXTECQQBiFt8l6HgB3BirSncwiTyJWK1aC73j1PCde-lM4ENuFLMeyeXXfB3T1W4V8hEBBp7xu4g9JaBvBuCbfGfrR9BVp04Xnbw6uKw9pkT01GWiDi9sKVL7nRXL7KWtjPmnbWd27SI-H- -cqLMKYREG-iZprr3Yl5EmpY_Zw6acE52wCnf66iXGFZW55vjDe2X88kOuGnfTRQg37euS9JTu-GH5v8Nxws6KoS2jjvDzI7UyQ0gYhKTTpGDyo-e8gPR4ohsI6O_d4tAPYGyytMj4o_1vE4Bjd5WYDpcyz6398fCuSkfyVLrcjZLMb-SJpOxVEq3sqFihS_wbtlt3VRih6YROORXbng1hyH5bRosLnTI_VCF5txFE5IVvDzPKtqsctpeXlvPZdVtKx7M3Vz-Yvei7xL5pTvb3tQjb4J_8jXyinUlXSmVYJVTE1njRhiZP_TODN_cly0]--></g></svg>