<svg xmlns="http://www.w3.org/2000/svg" xmlns:xlink="http://www.w3.org/1999/xlink" contentStyleType="text/css" height="802.9px" preserveAspectRatio="none" style="width:667px;height:802px;background:#FFFFFF;" version="1.1" viewBox="0 0 667 802" width="667.1px" zoomAndPan="magnify"><title>Class Diagram: US01 - Create a Map</title><defs/><g><text fill="#000000" font-family="sans-serif" font-size="9.8" font-weight="bold" lengthAdjust="spacing" textLength="168.2987" x="244.5006" y="17.5752">Class Diagram: US01 - Create a Map</text><!--class CreateMapUI--><g id="elem_CreateMapUI"><rect codeLine="7" fill="#F1F1F1" height="85.7391" id="CreateMapUI" rx="1.75" ry="1.75" style="stroke:#181818;stroke-width:0.3499999999999999;" width="237.9966" x="228.2" y="32.6348"/><ellipse cx="315.0841" cy="43.8348" fill="#ADD1B2" rx="7.7" ry="7.7" style="stroke:#181818;stroke-width:0.6999999999999998;"/><path d="M317.02,40.9473 Q317.1294,40.7941 317.2606,40.7176 Q317.3919,40.641 317.545,40.641 Q317.8075,40.641 317.9716,40.827 Q318.1356,41.002 318.1356,41.4285 L318.1356,42.4457 Q318.1356,42.8723 317.9716,43.0582 Q317.8075,43.2441 317.545,43.2441 Q317.3044,43.2441 317.1622,43.102 Q317.02,42.9707 316.9435,42.6098 Q316.9106,42.3582 316.7794,42.227 Q316.5497,41.9645 316.1231,41.8113 Q315.6966,41.6582 315.2591,41.6582 Q314.7231,41.6582 314.2747,41.8879 Q313.8372,42.1176 313.4872,42.6426 Q313.1481,43.1676 313.1481,43.8895 L313.1481,44.6551 Q313.1481,45.5191 313.7716,46.0988 Q314.395,46.6676 315.5106,46.6676 Q316.1669,46.6676 316.6263,46.4926 Q316.8997,46.3832 317.195,46.077 Q317.381,45.891 317.4794,45.8363 Q317.5888,45.7816 317.731,45.7816 Q317.9606,45.7816 318.1356,45.9676 Q318.3216,46.1426 318.3216,46.3832 Q318.3216,46.6238 318.081,46.9082 Q317.731,47.3129 317.1731,47.5426 Q316.4185,47.8598 315.5106,47.8598 Q314.4497,47.8598 313.6075,47.4223 Q312.9185,47.0723 312.4372,46.3285 Q311.956,45.5738 311.956,44.677 L311.956,43.8676 Q311.956,42.9379 312.3825,42.1395 Q312.82,41.3301 313.5856,40.9035 Q314.3513,40.466 315.2153,40.466 Q315.7294,40.466 316.1778,40.5863 Q316.6372,40.6957 317.02,40.9473 Z " fill="#000000"/><text fill="#000000" font-family="sans-serif" font-size="9.8" lengthAdjust="spacing" textLength="58.2784" x="329.4341" y="47.8926">CreateMapUI</text><line style="stroke:#181818;stroke-width:0.3499999999999999;" x1="228.9" x2="465.4966" y1="55.0348" y2="55.0348"/><line style="stroke:#181818;stroke-width:0.3499999999999999;" x1="228.9" x2="465.4966" y1="60.6348" y2="60.6348"/><text fill="#000000" font-family="sans-serif" font-size="9.8" lengthAdjust="spacing" textLength="133.7212" x="232.4" y="74.01">+displayRequestForMapData()</text><text fill="#000000" font-family="sans-serif" font-size="9.8" lengthAdjust="spacing" textLength="229.5966" x="232.4" y="87.0447">+displayConfirmationRequest(nameID, width, height)</text><text fill="#000000" font-family="sans-serif" font-size="9.8" lengthAdjust="spacing" textLength="98.8565" x="232.4" y="100.0795">+displaySuccess(map)</text><text fill="#000000" font-family="sans-serif" font-size="9.8" lengthAdjust="spacing" textLength="110.8386" x="232.4" y="113.1143">+displayMapDetails(map)</text></g><!--class CreateMapController--><g id="elem_CreateMapController"><rect codeLine="14" fill="#F1F1F1" height="72.7043" id="CreateMapController" rx="1.75" ry="1.75" style="stroke:#181818;stroke-width:0.3499999999999999;" width="232.0247" x="231.35" y="160.7348"/><ellipse cx="298.9068" cy="171.9348" fill="#ADD1B2" rx="7.7" ry="7.7" style="stroke:#181818;stroke-width:0.6999999999999998;"/><path d="M300.8428,169.0473 Q300.9521,168.8941 301.0834,168.8176 Q301.2146,168.741 301.3678,168.741 Q301.6303,168.741 301.7943,168.927 Q301.9584,169.102 301.9584,169.5285 L301.9584,170.5457 Q301.9584,170.9723 301.7943,171.1582 Q301.6303,171.3441 301.3678,171.3441 Q301.1271,171.3441 300.985,171.202 Q300.8428,171.0707 300.7662,170.7098 Q300.7334,170.4582 300.6021,170.327 Q300.3725,170.0645 299.9459,169.9113 Q299.5193,169.7582 299.0818,169.7582 Q298.5459,169.7582 298.0975,169.9879 Q297.66,170.2176 297.31,170.7426 Q296.9709,171.2676 296.9709,171.9895 L296.9709,172.7551 Q296.9709,173.6191 297.5943,174.1988 Q298.2178,174.7676 299.3334,174.7676 Q299.9896,174.7676 300.449,174.5926 Q300.7225,174.4832 301.0178,174.177 Q301.2037,173.991 301.3021,173.9363 Q301.4115,173.8816 301.5537,173.8816 Q301.7834,173.8816 301.9584,174.0676 Q302.1443,174.2426 302.1443,174.4832 Q302.1443,174.7238 301.9037,175.0082 Q301.5537,175.4129 300.9959,175.6426 Q300.2412,175.9598 299.3334,175.9598 Q298.2725,175.9598 297.4303,175.5223 Q296.7412,175.1723 296.26,174.4285 Q295.7787,173.6738 295.7787,172.777 L295.7787,171.9676 Q295.7787,171.0379 296.2053,170.2395 Q296.6428,169.4301 297.4084,169.0035 Q298.174,168.566 299.0381,168.566 Q299.5521,168.566 300.0006,168.6863 Q300.46,168.7957 300.8428,169.0473 Z " fill="#000000"/><text fill="#000000" font-family="sans-serif" font-size="9.8" lengthAdjust="spacing" textLength="90.961" x="313.2568" y="175.9926">CreateMapController</text><line style="stroke:#181818;stroke-width:0.3499999999999999;" x1="232.05" x2="462.6747" y1="183.1348" y2="183.1348"/><line style="stroke:#181818;stroke-width:0.3499999999999999;" x1="232.05" x2="462.6747" y1="188.7348" y2="188.7348"/><text fill="#000000" font-family="sans-serif" font-size="9.8" lengthAdjust="spacing" textLength="39.4871" x="235.55" y="202.11">+create()</text><text fill="#000000" font-family="sans-serif" font-size="9.8" lengthAdjust="spacing" textLength="223.6247" x="235.55" y="215.1447">+validateMapData(nameID, width, height) : boolean</text><text fill="#000000" font-family="sans-serif" font-size="9.8" lengthAdjust="spacing" textLength="180.5679" x="235.55" y="228.1795">+createMap(nameID, width, height) : Map</text></g><!--class MapRepository--><g id="elem_MapRepository"><rect codeLine="20" fill="#F1F1F1" height="59.6695" id="MapRepository" rx="1.75" ry="1.75" style="stroke:#181818;stroke-width:0.3499999999999999;" width="136.1206" x="365.4" y="410.6348"/><ellipse cx="397.5323" cy="421.8348" fill="#ADD1B2" rx="7.7" ry="7.7" style="stroke:#181818;stroke-width:0.6999999999999998;"/><path d="M399.4683,418.9473 Q399.5776,418.7941 399.7089,418.7176 Q399.8401,418.641 399.9933,418.641 Q400.2558,418.641 400.4198,418.827 Q400.5839,419.002 400.5839,419.4285 L400.5839,420.4457 Q400.5839,420.8723 400.4198,421.0582 Q400.2558,421.2441 399.9933,421.2441 Q399.7526,421.2441 399.6104,421.102 Q399.4683,420.9707 399.3917,420.6098 Q399.3589,420.3582 399.2276,420.227 Q398.9979,419.9645 398.5714,419.8113 Q398.1448,419.6582 397.7073,419.6582 Q397.1714,419.6582 396.7229,419.8879 Q396.2854,420.1176 395.9354,420.6426 Q395.5964,421.1676 395.5964,421.8895 L395.5964,422.6551 Q395.5964,423.5191 396.2198,424.0988 Q396.8433,424.6676 397.9589,424.6676 Q398.6151,424.6676 399.0745,424.4926 Q399.3479,424.3832 399.6433,424.077 Q399.8292,423.891 399.9276,423.8363 Q400.037,423.7816 400.1792,423.7816 Q400.4089,423.7816 400.5839,423.9676 Q400.7698,424.1426 400.7698,424.3832 Q400.7698,424.6238 400.5292,424.9082 Q400.1792,425.3129 399.6214,425.5426 Q398.8667,425.8598 397.9589,425.8598 Q396.8979,425.8598 396.0558,425.4223 Q395.3667,425.0723 394.8854,424.3285 Q394.4042,423.5738 394.4042,422.677 L394.4042,421.8676 Q394.4042,420.9379 394.8308,420.1395 Q395.2683,419.3301 396.0339,418.9035 Q396.7995,418.466 397.6636,418.466 Q398.1776,418.466 398.6261,418.5863 Q399.0854,418.6957 399.4683,418.9473 Z " fill="#000000"/><text fill="#000000" font-family="sans-serif" font-size="9.8" lengthAdjust="spacing" textLength="65.906" x="411.8823" y="425.8926">MapRepository</text><line style="stroke:#181818;stroke-width:0.3499999999999999;" x1="366.1" x2="500.8206" y1="433.0348" y2="433.0348"/><line style="stroke:#181818;stroke-width:0.3499999999999999;" x1="366.1" x2="500.8206" y1="438.6348" y2="438.6348"/><text fill="#000000" font-family="sans-serif" font-size="9.8" lengthAdjust="spacing" textLength="95.0619" x="369.6" y="452.01">+save(map) : boolean</text><text fill="#000000" font-family="sans-serif" font-size="9.8" lengthAdjust="spacing" textLength="127.7206" x="369.6" y="465.0447">+getMapByID(nameID) : Map</text></g><!--class Repositories--><g id="elem_Repositories"><rect codeLine="25" fill="#F1F1F1" height="59.6695" id="Repositories" rx="1.75" ry="1.75" style="stroke:#181818;stroke-width:0.3499999999999999;" width="174.2535" x="346.15" y="276.2348"/><ellipse cx="403.067" cy="287.4348" fill="#ADD1B2" rx="7.7" ry="7.7" style="stroke:#181818;stroke-width:0.6999999999999998;"/><path d="M405.003,284.5473 Q405.1124,284.3941 405.2436,284.3176 Q405.3749,284.241 405.528,284.241 Q405.7905,284.241 405.9545,284.427 Q406.1186,284.602 406.1186,285.0285 L406.1186,286.0457 Q406.1186,286.4723 405.9545,286.6582 Q405.7905,286.8441 405.528,286.8441 Q405.2874,286.8441 405.1452,286.702 Q405.003,286.5707 404.9264,286.2098 Q404.8936,285.9582 404.7624,285.827 Q404.5327,285.5645 404.1061,285.4113 Q403.6795,285.2582 403.242,285.2582 Q402.7061,285.2582 402.2577,285.4879 Q401.8202,285.7176 401.4702,286.2426 Q401.1311,286.7676 401.1311,287.4895 L401.1311,288.2551 Q401.1311,289.1191 401.7545,289.6988 Q402.378,290.2676 403.4936,290.2676 Q404.1499,290.2676 404.6092,290.0926 Q404.8827,289.9832 405.178,289.677 Q405.3639,289.491 405.4624,289.4363 Q405.5717,289.3816 405.7139,289.3816 Q405.9436,289.3816 406.1186,289.5676 Q406.3045,289.7426 406.3045,289.9832 Q406.3045,290.2238 406.0639,290.5082 Q405.7139,290.9129 405.1561,291.1426 Q404.4014,291.4598 403.4936,291.4598 Q402.4327,291.4598 401.5905,291.0223 Q400.9014,290.6723 400.4202,289.9285 Q399.9389,289.1738 399.9389,288.277 L399.9389,287.4676 Q399.9389,286.5379 400.3655,285.7395 Q400.803,284.9301 401.5686,284.5035 Q402.3342,284.066 403.1983,284.066 Q403.7124,284.066 404.1608,284.1863 Q404.6202,284.2957 405.003,284.5473 Z " fill="#000000"/><text fill="#000000" font-family="sans-serif" font-size="9.8" lengthAdjust="spacing" textLength="54.4694" x="417.417" y="291.4926">Repositories</text><line style="stroke:#181818;stroke-width:0.3499999999999999;" x1="346.85" x2="519.7035" y1="298.6348" y2="298.6348"/><line style="stroke:#181818;stroke-width:0.3499999999999999;" x1="346.85" x2="519.7035" y1="304.2348" y2="304.2348"/><text fill="#000000" font-family="sans-serif" font-size="9.8" lengthAdjust="spacing" text-decoration="underline" textLength="125.5577" x="350.35" y="317.61">+getInstance() : Repositories</text><text fill="#000000" font-family="sans-serif" font-size="9.8" lengthAdjust="spacing" textLength="165.8535" x="350.35" y="330.6447">+getMapRepository() : MapRepository</text></g><!--class ApplicationSession--><g id="elem_ApplicationSession"><rect codeLine="30" fill="#F1F1F1" height="59.6695" id="ApplicationSession" rx="1.75" ry="1.75" style="stroke:#181818;stroke-width:0.3499999999999999;" width="162.2954" x="4.9" y="276.2348"/><ellipse cx="41.6691" cy="287.4348" fill="#ADD1B2" rx="7.7" ry="7.7" style="stroke:#181818;stroke-width:0.6999999999999998;"/><path d="M43.6051,284.5473 Q43.7145,284.3941 43.8457,284.3176 Q43.977,284.241 44.1301,284.241 Q44.3926,284.241 44.5566,284.427 Q44.7207,284.602 44.7207,285.0285 L44.7207,286.0457 Q44.7207,286.4723 44.5566,286.6582 Q44.3926,286.8441 44.1301,286.8441 Q43.8895,286.8441 43.7473,286.702 Q43.6051,286.5707 43.5285,286.2098 Q43.4957,285.9582 43.3645,285.827 Q43.1348,285.5645 42.7082,285.4113 Q42.2816,285.2582 41.8441,285.2582 Q41.3082,285.2582 40.8598,285.4879 Q40.4223,285.7176 40.0723,286.2426 Q39.7332,286.7676 39.7332,287.4895 L39.7332,288.2551 Q39.7332,289.1191 40.3566,289.6988 Q40.9801,290.2676 42.0957,290.2676 Q42.752,290.2676 43.2113,290.0926 Q43.4848,289.9832 43.7801,289.677 Q43.966,289.491 44.0645,289.4363 Q44.1738,289.3816 44.316,289.3816 Q44.5457,289.3816 44.7207,289.5676 Q44.9066,289.7426 44.9066,289.9832 Q44.9066,290.2238 44.666,290.5082 Q44.316,290.9129 43.7582,291.1426 Q43.0035,291.4598 42.0957,291.4598 Q41.0348,291.4598 40.1926,291.0223 Q39.5035,290.6723 39.0223,289.9285 Q38.541,289.1738 38.541,288.277 L38.541,287.4676 Q38.541,286.5379 38.9676,285.7395 Q39.4051,284.9301 40.1707,284.5035 Q40.9363,284.066 41.8004,284.066 Q42.3145,284.066 42.7629,284.1863 Q43.2223,284.2957 43.6051,284.5473 Z " fill="#000000"/><text fill="#000000" font-family="sans-serif" font-size="9.8" lengthAdjust="spacing" textLength="82.8071" x="56.0191" y="291.4926">ApplicationSession</text><line style="stroke:#181818;stroke-width:0.3499999999999999;" x1="5.6" x2="166.4954" y1="298.6348" y2="298.6348"/><line style="stroke:#181818;stroke-width:0.3499999999999999;" x1="5.6" x2="166.4954" y1="304.2348" y2="304.2348"/><text fill="#000000" font-family="sans-serif" font-size="9.8" lengthAdjust="spacing" text-decoration="underline" textLength="153.8954" x="9.1" y="317.61">+getInstance() : ApplicationSession</text><text fill="#000000" font-family="sans-serif" font-size="9.8" lengthAdjust="spacing" textLength="127.1847" x="9.1" y="330.6447">+getCurrentSession() : Editor</text></g><!--class Map--><g id="elem_Map"><rect codeLine="35" fill="#F1F1F1" height="111.8086" id="Map" rx="1.75" ry="1.75" style="stroke:#181818;stroke-width:0.3499999999999999;" width="206.9266" x="246.4" y="545.0348"/><ellipse cx="337.3562" cy="556.2348" fill="#ADD1B2" rx="7.7" ry="7.7" style="stroke:#181818;stroke-width:0.6999999999999998;"/><path d="M339.2922,553.3473 Q339.4016,553.1941 339.5328,553.1176 Q339.6641,553.041 339.8172,553.041 Q340.0797,553.041 340.2437,553.227 Q340.4078,553.402 340.4078,553.8285 L340.4078,554.8457 Q340.4078,555.2723 340.2437,555.4582 Q340.0797,555.6441 339.8172,555.6441 Q339.5766,555.6441 339.4344,555.502 Q339.2922,555.3707 339.2156,555.0098 Q339.1828,554.7582 339.0516,554.627 Q338.8219,554.3645 338.3953,554.2113 Q337.9687,554.0582 337.5312,554.0582 Q336.9953,554.0582 336.5469,554.2879 Q336.1094,554.5176 335.7594,555.0426 Q335.4203,555.5676 335.4203,556.2895 L335.4203,557.0551 Q335.4203,557.9191 336.0437,558.4988 Q336.6672,559.0676 337.7828,559.0676 Q338.4391,559.0676 338.8984,558.8926 Q339.1719,558.7832 339.4672,558.477 Q339.6531,558.291 339.7516,558.2363 Q339.8609,558.1816 340.0031,558.1816 Q340.2328,558.1816 340.4078,558.3676 Q340.5937,558.5426 340.5937,558.7832 Q340.5937,559.0238 340.3531,559.3082 Q340.0031,559.7129 339.4453,559.9426 Q338.6906,560.2598 337.7828,560.2598 Q336.7219,560.2598 335.8797,559.8223 Q335.1906,559.4723 334.7094,558.7285 Q334.2281,557.9738 334.2281,557.077 L334.2281,556.2676 Q334.2281,555.3379 334.6547,554.5395 Q335.0922,553.7301 335.8578,553.3035 Q336.6234,552.866 337.4875,552.866 Q338.0016,552.866 338.45,552.9863 Q338.9094,553.0957 339.2922,553.3473 Z " fill="#000000"/><text fill="#000000" font-family="sans-serif" font-size="9.8" lengthAdjust="spacing" textLength="19.0641" x="351.7062" y="560.2926">Map</text><line style="stroke:#181818;stroke-width:0.3499999999999999;" x1="247.1" x2="452.6266" y1="567.4348" y2="567.4348"/><text fill="#000000" font-family="sans-serif" font-size="9.8" lengthAdjust="spacing" textLength="71.3467" x="250.6" y="580.81">-nameID : String</text><text fill="#000000" font-family="sans-serif" font-size="9.8" lengthAdjust="spacing" textLength="47.9233" x="250.6" y="593.8447">-size : Size</text><text fill="#000000" font-family="sans-serif" font-size="9.8" lengthAdjust="spacing" textLength="84.9557" x="250.6" y="606.8795">-cityList : List&lt;City&gt;</text><text fill="#000000" font-family="sans-serif" font-size="9.8" lengthAdjust="spacing" textLength="122.5526" x="250.6" y="619.9143">-industryList : List&lt;Industry&gt;</text><line style="stroke:#181818;stroke-width:0.3499999999999999;" x1="247.1" x2="452.6266" y1="625.1738" y2="625.1738"/><text fill="#000000" font-family="sans-serif" font-size="9.8" lengthAdjust="spacing" textLength="168.5954" x="250.6" y="638.549">+validateMapName(nameID) : boolean</text><text fill="#000000" font-family="sans-serif" font-size="9.8" lengthAdjust="spacing" textLength="198.5266" x="250.6" y="651.5838">+createMap(nameID: String, size: Size) : Map</text></g><!--class Size--><g id="elem_Size"><rect codeLine="45" fill="#F1F1F1" height="85.7391" id="Size" rx="1.75" ry="1.75" style="stroke:#181818;stroke-width:0.3499999999999999;" width="203.1559" x="446.6" y="712.3348"/><ellipse cx="535.6709" cy="723.5348" fill="#ADD1B2" rx="7.7" ry="7.7" style="stroke:#181818;stroke-width:0.6999999999999998;"/><path d="M537.6068,720.6473 Q537.7162,720.4941 537.8475,720.4176 Q537.9787,720.341 538.1318,720.341 Q538.3943,720.341 538.5584,720.527 Q538.7225,720.702 538.7225,721.1285 L538.7225,722.1457 Q538.7225,722.5723 538.5584,722.7582 Q538.3943,722.9441 538.1318,722.9441 Q537.8912,722.9441 537.749,722.802 Q537.6068,722.6707 537.5303,722.3098 Q537.4975,722.0582 537.3662,721.927 Q537.1365,721.6645 536.71,721.5113 Q536.2834,721.3582 535.8459,721.3582 Q535.31,721.3582 534.8615,721.5879 Q534.424,721.8176 534.074,722.3426 Q533.735,722.8676 533.735,723.5895 L533.735,724.3551 Q533.735,725.2191 534.3584,725.7988 Q534.9818,726.3676 536.0975,726.3676 Q536.7537,726.3676 537.2131,726.1926 Q537.4865,726.0832 537.7818,725.777 Q537.9678,725.591 538.0662,725.5363 Q538.1756,725.4816 538.3178,725.4816 Q538.5475,725.4816 538.7225,725.6676 Q538.9084,725.8426 538.9084,726.0832 Q538.9084,726.3238 538.6678,726.6082 Q538.3178,727.0129 537.76,727.2426 Q537.0053,727.5598 536.0975,727.5598 Q535.0365,727.5598 534.1943,727.1223 Q533.5053,726.7723 533.024,726.0285 Q532.5428,725.2738 532.5428,724.377 L532.5428,723.5676 Q532.5428,722.6379 532.9693,721.8395 Q533.4068,721.0301 534.1725,720.6035 Q534.9381,720.166 535.8021,720.166 Q536.3162,720.166 536.7646,720.2863 Q537.224,720.3957 537.6068,720.6473 Z " fill="#000000"/><text fill="#000000" font-family="sans-serif" font-size="9.8" lengthAdjust="spacing" textLength="19.0641" x="550.0209" y="727.5926">Size</text><line style="stroke:#181818;stroke-width:0.3499999999999999;" x1="447.3" x2="649.0559" y1="734.7348" y2="734.7348"/><text fill="#000000" font-family="sans-serif" font-size="9.8" lengthAdjust="spacing" textLength="44.6599" x="450.8" y="748.11">-width : int</text><text fill="#000000" font-family="sans-serif" font-size="9.8" lengthAdjust="spacing" textLength="48.4832" x="450.8" y="761.1447">-height : int</text><line style="stroke:#181818;stroke-width:0.3499999999999999;" x1="447.3" x2="649.0559" y1="766.4043" y2="766.4043"/><text fill="#000000" font-family="sans-serif" font-size="9.8" lengthAdjust="spacing" textLength="194.7559" x="450.8" y="779.7795">+validateSize(width: int, height: int) : boolean</text><text fill="#000000" font-family="sans-serif" font-size="9.8" lengthAdjust="spacing" textLength="172.3996" x="450.8" y="792.8143">+createSize(width: int, height: int) : Size</text></g><!--class Editor--><g id="elem_Editor"><rect codeLine="53" fill="#F1F1F1" height="98.7738" id="Editor" rx="1.75" ry="1.75" style="stroke:#181818;stroke-width:0.3499999999999999;" width="206.9266" x="64.4" y="391.0348"/><ellipse cx="152.088" cy="402.2348" fill="#ADD1B2" rx="7.7" ry="7.7" style="stroke:#181818;stroke-width:0.6999999999999998;"/><path d="M154.0239,399.3473 Q154.1333,399.1941 154.2646,399.1176 Q154.3958,399.041 154.5489,399.041 Q154.8114,399.041 154.9755,399.227 Q155.1396,399.402 155.1396,399.8285 L155.1396,400.8457 Q155.1396,401.2723 154.9755,401.4582 Q154.8114,401.6441 154.5489,401.6441 Q154.3083,401.6441 154.1661,401.502 Q154.0239,401.3707 153.9474,401.0098 Q153.9146,400.7582 153.7833,400.627 Q153.5536,400.3645 153.1271,400.2113 Q152.7005,400.0582 152.263,400.0582 Q151.7271,400.0582 151.2786,400.2879 Q150.8411,400.5176 150.4911,401.0426 Q150.1521,401.5676 150.1521,402.2895 L150.1521,403.0551 Q150.1521,403.9191 150.7755,404.4988 Q151.3989,405.0676 152.5146,405.0676 Q153.1708,405.0676 153.6302,404.8926 Q153.9036,404.7832 154.1989,404.477 Q154.3849,404.291 154.4833,404.2363 Q154.5927,404.1816 154.7349,404.1816 Q154.9646,404.1816 155.1396,404.3676 Q155.3255,404.5426 155.3255,404.7832 Q155.3255,405.0238 155.0849,405.3082 Q154.7349,405.7129 154.1771,405.9426 Q153.4224,406.2598 152.5146,406.2598 Q151.4536,406.2598 150.6114,405.8223 Q149.9224,405.4723 149.4411,404.7285 Q148.9599,403.9738 148.9599,403.077 L148.9599,402.2676 Q148.9599,401.3379 149.3864,400.5395 Q149.8239,399.7301 150.5896,399.3035 Q151.3552,398.866 152.2192,398.866 Q152.7333,398.866 153.1817,398.9863 Q153.6411,399.0957 154.0239,399.3473 Z " fill="#000000"/><text fill="#000000" font-family="sans-serif" font-size="9.8" lengthAdjust="spacing" textLength="25.6006" x="166.438" y="406.2926">Editor</text><line style="stroke:#181818;stroke-width:0.3499999999999999;" x1="65.1" x2="270.6266" y1="413.4348" y2="413.4348"/><text fill="#000000" font-family="sans-serif" font-size="9.8" lengthAdjust="spacing" textLength="80.6107" x="68.6" y="426.81">-username : String</text><text fill="#000000" font-family="sans-serif" font-size="9.8" lengthAdjust="spacing" textLength="78.9742" x="68.6" y="439.8447">-password : String</text><text fill="#000000" font-family="sans-serif" font-size="9.8" lengthAdjust="spacing" textLength="113.8437" x="68.6" y="452.8795">-createdMaps : List&lt;Map&gt;</text><line style="stroke:#181818;stroke-width:0.3499999999999999;" x1="65.1" x2="270.6266" y1="458.1391" y2="458.1391"/><text fill="#000000" font-family="sans-serif" font-size="9.8" lengthAdjust="spacing" textLength="198.5266" x="68.6" y="471.5143">+createMap(nameID: String, size: Size) : Map</text><text fill="#000000" font-family="sans-serif" font-size="9.8" lengthAdjust="spacing" textLength="134.2858" x="68.6" y="484.549">+addMap(map: Map) : boolean</text></g><!--link CreateMapUI to CreateMapController--><g id="link_CreateMapUI_CreateMapController"><path codeLine="62" d="M347.2,118.1468 C347.2,131.9788 347.2,143.0178 347.2,156.3458 " fill="none" id="CreateMapUI-to-CreateMapController" style="stroke:#181818;stroke-width:0.6999999999999998;stroke-dasharray:7.0,7.0;"/><polygon fill="#181818" points="347.2,160.5458,350,154.2458,347.2,157.0458,344.4,154.2458,347.2,160.5458" style="stroke:#181818;stroke-width:0.6999999999999998;"/></g><!--link CreateMapController to MapRepository--><g id="link_CreateMapController_MapRepository"><path codeLine="64" d="M463.204,206.8088 C509.565,216.7768 558.656,236.7478 587.3,276.2348 C624.442,327.4398 556.336,377.3933 498.768,408.5783 " fill="none" id="CreateMapController-to-MapRepository" style="stroke:#181818;stroke-width:0.6999999999999998;stroke-dasharray:7.0,7.0;"/><polygon fill="#181818" points="495.075,410.5788,501.9481,410.04,498.1525,408.9117,499.2808,405.116,495.075,410.5788" style="stroke:#181818;stroke-width:0.6999999999999998;"/></g><!--link CreateMapController to Repositories--><g id="link_CreateMapController_Repositories"><path codeLine="65" d="M375.872,233.6118 C386.925,247.4088 396.7867,259.7132 407.2867,272.8172 " fill="none" id="CreateMapController-to-Repositories" style="stroke:#181818;stroke-width:0.6999999999999998;stroke-dasharray:7.0,7.0;"/><polygon fill="#181818" points="409.913,276.0948,408.1586,269.4275,407.7244,273.3634,403.7885,272.9292,409.913,276.0948" style="stroke:#181818;stroke-width:0.6999999999999998;"/></g><!--link CreateMapController to ApplicationSession--><g id="link_CreateMapController_ApplicationSession"><path codeLine="66" d="M260.442,233.5418 C226.751,247.4018 192.548,261.4764 160.586,274.6294 " fill="none" id="CreateMapController-to-ApplicationSession" style="stroke:#181818;stroke-width:0.6999999999999998;stroke-dasharray:7.0,7.0;"/><polygon fill="#181818" points="156.702,276.2278,163.5935,276.4196,159.9387,274.8958,161.4624,271.2409,156.702,276.2278" style="stroke:#181818;stroke-width:0.6999999999999998;"/></g><!--link CreateMapController to Map--><g id="link_CreateMapController_Map"><path codeLine="67" d="M339.836,233.5838 C337.435,246.9048 335.083,262.1998 333.9,276.2348 C325.969,370.4058 334.8631,476.1542 342.2761,540.7432 " fill="none" id="CreateMapController-to-Map" style="stroke:#181818;stroke-width:0.6999999999999998;stroke-dasharray:7.0,7.0;"/><polygon fill="#181818" points="342.755,544.9158,344.8184,538.3376,342.3559,541.4386,339.2549,538.9761,342.755,544.9158" style="stroke:#181818;stroke-width:0.6999999999999998;"/></g><!--link CreateMapController to Size--><g id="link_CreateMapController_Size"><path codeLine="68" d="M463.155,215.2998 C552.972,232.2118 662.2,261.7308 662.2,305.2848 C662.2,305.2848 662.2,305.2848 662.2,601.7348 C662.2,645.2328 635.143,681.4193 605.862,709.1393 " fill="none" id="CreateMapController-to-Size" style="stroke:#181818;stroke-width:0.6999999999999998;stroke-dasharray:7.0,7.0;"/><polygon fill="#181818" points="602.812,712.0268,609.312,709.729,605.3537,709.6206,605.4621,705.6623,602.812,712.0268" style="stroke:#181818;stroke-width:0.6999999999999998;"/></g><!--link CreateMapController to Editor--><g id="link_CreateMapController_Editor"><path codeLine="69" d="M309.169,233.7238 C302.694,240.4228 296.226,247.5278 290.5,254.5348 C271.026,278.3768 230.4037,341.017 200.9197,387.413 " fill="none" id="CreateMapController-to-Editor" style="stroke:#181818;stroke-width:0.6999999999999998;stroke-dasharray:7.0,7.0;"/><polygon fill="#181818" points="198.667,390.9578,204.4092,387.1424,200.5442,388.0038,199.6828,384.1388,198.667,390.9578" style="stroke:#181818;stroke-width:0.6999999999999998;"/></g><!--link Map to Size--><g id="link_Map_Size"><path codeLine="71" d="M421.799,657.0418 C445.382,675.2138 467.878,692.5373 489.991,709.5753 " fill="none" id="Map-to-Size" style="stroke:#181818;stroke-width:0.6999999999999998;"/><polygon fill="#181818" points="493.318,712.1388,490.0365,706.0756,490.5455,710.0026,486.6186,710.5116,493.318,712.1388" style="stroke:#181818;stroke-width:0.6999999999999998;"/><text fill="#000000" font-family="sans-serif" font-size="9.1" lengthAdjust="spacing" textLength="16.1827" x="461.3" y="688.5546">size</text><text fill="#000000" font-family="sans-serif" font-size="9.1" lengthAdjust="spacing" textLength="5.061" x="422.8773" y="672.203">1</text><text fill="#000000" font-family="sans-serif" font-size="9.1" lengthAdjust="spacing" textLength="5.061" x="481.8008" y="704.4029">1</text></g><!--link MapRepository to Map--><g id="link_MapRepository_Map"><path codeLine="72" d="M418.019,470.2958 C407.127,491.1278 394.0873,516.0575 380.9483,541.1665 " fill="none" id="MapRepository-to-Map" style="stroke:#181818;stroke-width:0.6999999999999998;"/><polygon fill="#181818" points="379.001,544.8878,384.4028,540.604,380.6237,541.7867,379.441,538.0076,379.001,544.8878" style="stroke:#181818;stroke-width:0.6999999999999998;"/><text fill="#000000" font-family="sans-serif" font-size="9.1" lengthAdjust="spacing" textLength="17.7023" x="397.6" y="521.2546">map</text><text fill="#000000" font-family="sans-serif" font-size="9.1" lengthAdjust="spacing" textLength="5.061" x="376.5687" y="537.1012">1</text></g><!--link Editor to Map--><g id="link_Editor_Map"><path codeLine="73" d="M204.435,489.9168 C214.256,501.6908 225.309,513.8078 236.6,524.0348 C244.517,531.2028 249.7937,535.6821 258.6557,542.3601 " fill="none" id="Editor-to-Map" style="stroke:#181818;stroke-width:0.6999999999999998;"/><polygon fill="#181818" points="262.01,544.8878,258.6637,538.8602,259.2148,542.7814,255.2935,543.3325,262.01,544.8878" style="stroke:#181818;stroke-width:0.6999999999999998;"/><text fill="#000000" font-family="sans-serif" font-size="9.1" lengthAdjust="spacing" textLength="52.6049" x="237.3" y="521.2546">createdMaps</text><text fill="#000000" font-family="sans-serif" font-size="9.1" lengthAdjust="spacing" textLength="5.061" x="202.9018" y="505.2045">1</text><text fill="#000000" font-family="sans-serif" font-size="9.1" lengthAdjust="spacing" textLength="3.5414" x="250.2516" y="537.1012">*</text></g><!--link Repositories to Repositories--><g id="link_Repositories_Repositories"><path codeLine="75" d="M520.604,297.2208 C535.024,298.4598 544.95,301.3858 544.95,305.9848 C544.95,310.5838 539.2086,313.1502 524.7886,314.3892 " fill="none" id="Repositories-to-Repositories" style="stroke:#181818;stroke-width:0.6999999999999998;"/><polygon fill="#181818" points="520.604,314.7488,527.1206,316.9992,524.0912,314.4491,526.6412,311.4197,520.604,314.7488" style="stroke:#181818;stroke-width:0.6999999999999998;"/><text fill="#000000" font-family="sans-serif" font-size="9.1" lengthAdjust="spacing" textLength="33.8939" x="549.15" y="309.8546">instance</text><text fill="#000000" font-family="sans-serif" font-size="9.1" lengthAdjust="spacing" textLength="5.061" x="526.0797" y="312.8411">1</text></g><!--link Repositories to MapRepository--><g id="link_Repositories_MapRepository"><path codeLine="76" d="M433.3,335.8748 C433.3,358.0508 433.3,384.2098 433.3,406.3648 " fill="none" id="Repositories-to-MapRepository" style="stroke:#181818;stroke-width:0.6999999999999998;"/><polygon fill="#181818" points="433.3,410.5648,436.1,404.2648,433.3,407.0648,430.5,404.2648,433.3,410.5648" style="stroke:#181818;stroke-width:0.6999999999999998;"/><text fill="#000000" font-family="sans-serif" font-size="9.1" lengthAdjust="spacing" textLength="61.1984" x="434" y="367.2546">mapRepository</text><text fill="#000000" font-family="sans-serif" font-size="9.1" lengthAdjust="spacing" textLength="5.061" x="427.9968" y="402.7865">1</text></g><!--link ApplicationSession to ApplicationSession--><g id="link_ApplicationSession_ApplicationSession"><path codeLine="78" d="M167.426,297.1088 C181.79,298.2778 191.8,301.2318 191.8,305.9848 C191.8,310.7378 185.9762,313.3511 171.6122,314.5201 " fill="none" id="ApplicationSession-to-ApplicationSession" style="stroke:#181818;stroke-width:0.6999999999999998;"/><polygon fill="#181818" points="167.426,314.8608,173.9324,317.1405,170.9145,314.5769,173.4781,311.559,167.426,314.8608" style="stroke:#181818;stroke-width:0.6999999999999998;"/><text fill="#000000" font-family="sans-serif" font-size="9.1" lengthAdjust="spacing" textLength="33.8939" x="196" y="309.8546">instance</text><text fill="#000000" font-family="sans-serif" font-size="9.1" lengthAdjust="spacing" textLength="5.061" x="172.8014" y="312.9691">1</text></g><!--link ApplicationSession to Editor--><g id="link_ApplicationSession_Editor"><path codeLine="79" d="M104.076,335.8748 C114.009,352.0098 124.4067,368.8945 135.7957,387.3885 " fill="none" id="ApplicationSession-to-Editor" style="stroke:#181818;stroke-width:0.6999999999999998;"/><polygon fill="#181818" points="137.998,390.9648,137.0787,384.1321,136.1627,387.9845,132.3103,387.0686,137.998,390.9648" style="stroke:#181818;stroke-width:0.6999999999999998;"/><text fill="#000000" font-family="sans-serif" font-size="9.1" lengthAdjust="spacing" textLength="60.6963" x="125.3" y="367.2546">currentSession</text><text fill="#000000" font-family="sans-serif" font-size="9.1" lengthAdjust="spacing" textLength="5.061" x="129.7738" y="383.1813">1</text></g><!--SRC=[bLJBRjim4BppAuYSrDOEagjH64Zj5X3GzX0X7x2H69a8JQhaAeORvD-xf2XPpmJrHURkpCvmkQHxbhe22qTUGVuCfSZmh0It8aVGfHBCTG1tWCASf2xv4oZNp-GAdBj3jFAnHf7cHcVoh-0tZA54ghRpURwNK19wmn-ocrk-vZih00K7_WignaAD6AF0GyfV6QVV5rv8Loautui_jN3umrXAxm4X-JG4x8n-alO8A8sEu4J3KQJx5J_90WyhVX2oFE28bzLvBfnBZb2DCbv884WLasyJcwI9rYWbR6St3xdEt0ieMJJWO7hU4T_mHsEK03seGgHbWczRvuWMzw8oJgAnvywBWnSHh4_gbmA9yksSxgF0f69NJWhN5NnrIFtDtpm_rRJGEMsLg7tqGEBYAeaIbyX5xAwgbCp3qMLq5lJvM7BAkGZlQck5nXWFyE-5rnnqB6giUTC20cKqmxgCKUU7c6BqYP5SulcdT4XH__cwe_KsvgGkQeTsa4zZRCkcq_2RD7kzV__uMsUhOAhnD3cnSEdQBOLn8OJK62FDvCJGo8-d9e4IqksOXSMIkuyueM-TkQRzdRtQ2UktDkvvHTYJiSKutaWMj5_NDfV-Tttzdtur32XyCNyvGhI_IVBSVuUkhxTp5xu7whq27ZoSyINKuCOiWMPc_1tLnLmuYgLal1ZCNuYhsok-Nc_3Dsl6tpUG3P-N5k4P6qujPF5qE_hdDjaxDyO6JqgiCOZvsMbk-0Xx4UpP2DAzJhEPLoGIPp8zhJbU9CQDqKO6Bmhx1m00]--></g></svg>