<svg xmlns="http://www.w3.org/2000/svg" xmlns:xlink="http://www.w3.org/1999/xlink" contentStyleType="text/css" height="887px" preserveAspectRatio="none" style="width:744px;height:887px;background:#FFFFFF;" version="1.1" viewBox="0 0 744 887" width="744px" zoomAndPan="magnify"><title>Sequence Diagram: US01 - Create a Map</title><defs/><g><text fill="#000000" font-family="sans-serif" font-size="14" font-weight="bold" lengthAdjust="spacing" textLength="269.2061" x="235.1445" y="30.1074">Sequence Diagram: US01 - Create a Map</text><rect fill="#FFFFFF" height="653.4902" style="stroke:#181818;stroke-width:1.0;" width="10" x="21.2861" y="133.2422"/><rect fill="#FFFFFF" height="119.2031" style="stroke:#181818;stroke-width:1.0;" width="10" x="314.373" y="156.5332"/><rect fill="#FFFFFF" height="186.416" style="stroke:#181818;stroke-width:1.0;" width="10" x="314.373" y="307.0273"/><rect fill="#FFFFFF" height="261.998" style="stroke:#181818;stroke-width:1.0;" width="10" x="314.373" y="524.7344"/><rect fill="#FFFFFF" height="79.543" style="stroke:#181818;stroke-width:1.0;" width="10" x="656.5781" y="338.3184"/><rect fill="#FFFFFF" height="79.543" style="stroke:#181818;stroke-width:1.0;" width="10" x="656.5781" y="556.0254"/><line style="stroke:#181818;stroke-width:0.5;stroke-dasharray:5.0,5.0;" x1="26" x2="26" y1="123.2422" y2="804.7324"/><line style="stroke:#181818;stroke-width:0.5;stroke-dasharray:5.0,5.0;" x1="318.8008" x2="318.8008" y1="123.2422" y2="804.7324"/><line style="stroke:#181818;stroke-width:0.5;stroke-dasharray:5.0,5.0;" x1="660.6611" x2="660.6611" y1="196.3438" y2="804.7324"/><text fill="#000000" font-family="sans-serif" font-size="14" lengthAdjust="spacing" textLength="36.5723" x="5" y="119.7285">Editor</text><ellipse cx="26.2861" cy="53.1211" fill="#E3E3E3" rx="8" ry="8" style="stroke:#181818;stroke-width:0.5;"/><path d="M26.2861,61.1211 L26.2861,88.1211 M13.2861,69.1211 L39.2861,69.1211 M26.2861,88.1211 L13.2861,103.1211 M26.2861,88.1211 L39.2861,103.1211 " fill="none" style="stroke:#181818;stroke-width:0.5;"/><text fill="#000000" font-family="sans-serif" font-size="14" lengthAdjust="spacing" textLength="36.5723" x="5" y="818.8398">Editor</text><ellipse cx="26.2861" cy="830.8535" fill="#E3E3E3" rx="8" ry="8" style="stroke:#181818;stroke-width:0.5;"/><path d="M26.2861,838.8535 L26.2861,865.8535 M13.2861,846.8535 L39.2861,846.8535 M26.2861,865.8535 L13.2861,880.8535 M26.2861,865.8535 L39.2861,880.8535 " fill="none" style="stroke:#181818;stroke-width:0.5;"/><rect fill="#E3E3E3" height="32.6211" rx="2.5" ry="2.5" style="stroke:#181818;stroke-width:0.5;" width="101.1445" x="268.8008" y="89.6211"/><text fill="#000000" font-family="sans-serif" font-size="14" lengthAdjust="spacing" textLength="87.1445" x="275.8008" y="111.7285">:CreateMapUI</text><rect fill="#E3E3E3" height="32.6211" rx="2.5" ry="2.5" style="stroke:#181818;stroke-width:0.5;" width="101.1445" x="268.8008" y="803.7324"/><text fill="#000000" font-family="sans-serif" font-size="14" lengthAdjust="spacing" textLength="87.1445" x="275.8008" y="825.8398">:CreateMapUI</text><rect fill="#E3E3E3" height="32.6211" rx="2.5" ry="2.5" style="stroke:#181818;stroke-width:0.5;" width="147.834" x="587.6611" y="803.7324"/><text fill="#000000" font-family="sans-serif" font-size="14" lengthAdjust="spacing" textLength="133.834" x="594.6611" y="825.8398">:CreateMapController</text><rect fill="#FFFFFF" height="653.4902" style="stroke:#181818;stroke-width:1.0;" width="10" x="21.2861" y="133.2422"/><rect fill="#FFFFFF" height="119.2031" style="stroke:#181818;stroke-width:1.0;" width="10" x="314.373" y="156.5332"/><rect fill="#FFFFFF" height="186.416" style="stroke:#181818;stroke-width:1.0;" width="10" x="314.373" y="307.0273"/><rect fill="#FFFFFF" height="261.998" style="stroke:#181818;stroke-width:1.0;" width="10" x="314.373" y="524.7344"/><rect fill="#FFFFFF" height="79.543" style="stroke:#181818;stroke-width:1.0;" width="10" x="656.5781" y="338.3184"/><rect fill="#FFFFFF" height="79.543" style="stroke:#181818;stroke-width:1.0;" width="10" x="656.5781" y="556.0254"/><polygon fill="#181818" points="302.373,152.5332,312.373,156.5332,302.373,160.5332,306.373,156.5332" style="stroke:#181818;stroke-width:1.0;"/><line style="stroke:#181818;stroke-width:1.0;" x1="31.2861" x2="308.373" y1="156.5332" y2="156.5332"/><text fill="#000000" font-family="sans-serif" font-size="13" font-weight="bold" lengthAdjust="spacing" textLength="7.23" x="38.2861" y="151.2705">1</text><text fill="#000000" font-family="sans-serif" font-size="13" lengthAdjust="spacing" textLength="148.1289" x="49.5161" y="151.2705">asks to create a new map</text><polygon fill="#181818" points="575.6611,183.8242,585.6611,187.8242,575.6611,191.8242,579.6611,187.8242" style="stroke:#181818;stroke-width:1.0;"/><line style="stroke:#181818;stroke-width:1.0;" x1="324.373" x2="581.6611" y1="187.8242" y2="187.8242"/><text fill="#000000" font-family="sans-serif" font-size="13" font-weight="bold" lengthAdjust="spacing" textLength="7.23" x="331.373" y="182.5615">2</text><text fill="#000000" font-family="sans-serif" font-size="13" lengthAdjust="spacing" textLength="44.7891" x="342.603" y="182.5615">create()</text><rect fill="#E3E3E3" height="32.6211" rx="2.5" ry="2.5" style="stroke:#181818;stroke-width:0.5;" width="147.834" x="587.6611" y="164.5332"/><text fill="#000000" font-family="sans-serif" font-size="14" lengthAdjust="spacing" textLength="133.834" x="594.6611" y="186.6406">:CreateMapController</text><line style="stroke:#181818;stroke-width:1.0;" x1="324.373" x2="366.373" y1="231.4453" y2="231.4453"/><line style="stroke:#181818;stroke-width:1.0;" x1="366.373" x2="366.373" y1="231.4453" y2="244.4453"/><line style="stroke:#181818;stroke-width:1.0;" x1="325.373" x2="366.373" y1="244.4453" y2="244.4453"/><polygon fill="#181818" points="335.373,240.4453,325.373,244.4453,335.373,248.4453,331.373,244.4453" style="stroke:#181818;stroke-width:1.0;"/><text fill="#000000" font-family="sans-serif" font-size="13" font-weight="bold" lengthAdjust="spacing" textLength="7.23" x="331.373" y="226.1826">3</text><text fill="#000000" font-family="sans-serif" font-size="13" lengthAdjust="spacing" textLength="169.7935" x="342.603" y="226.1826">displayRequestForMapData()</text><polygon fill="#181818" points="42.2861,271.7363,32.2861,275.7363,42.2861,279.7363,38.2861,275.7363" style="stroke:#181818;stroke-width:1.0;"/><line style="stroke:#181818;stroke-width:1.0;stroke-dasharray:2.0,2.0;" x1="36.2861" x2="318.373" y1="275.7363" y2="275.7363"/><text fill="#000000" font-family="sans-serif" font-size="13" font-weight="bold" lengthAdjust="spacing" textLength="7.23" x="48.2861" y="270.4736">4</text><text fill="#000000" font-family="sans-serif" font-size="13" lengthAdjust="spacing" textLength="232.6797" x="59.5161" y="270.4736">requests map data (name, width, height)</text><polygon fill="#181818" points="302.373,303.0273,312.373,307.0273,302.373,311.0273,306.373,307.0273" style="stroke:#181818;stroke-width:1.0;"/><line style="stroke:#181818;stroke-width:1.0;" x1="31.2861" x2="308.373" y1="307.0273" y2="307.0273"/><text fill="#000000" font-family="sans-serif" font-size="13" font-weight="bold" lengthAdjust="spacing" textLength="7.23" x="38.2861" y="301.7646">5</text><text fill="#000000" font-family="sans-serif" font-size="13" lengthAdjust="spacing" textLength="125.0361" x="49.5161" y="301.7646">inputs requested data</text><polygon fill="#181818" points="644.5781,334.3184,654.5781,338.3184,644.5781,342.3184,648.5781,338.3184" style="stroke:#181818;stroke-width:1.0;"/><line style="stroke:#181818;stroke-width:1.0;" x1="324.373" x2="650.5781" y1="338.3184" y2="338.3184"/><text fill="#000000" font-family="sans-serif" font-size="13" font-weight="bold" lengthAdjust="spacing" textLength="7.23" x="331.373" y="333.0557">6</text><text fill="#000000" font-family="sans-serif" font-size="13" lengthAdjust="spacing" textLength="231.9497" x="342.603" y="333.0557">validateMapData(nameID, width, height)</text><rect fill="none" height="43.252" style="stroke:#000000;stroke-width:1.5;" width="153.834" x="584.6611" y="346.3184"/><path d="M584.6611,346.3184 L645.6611,346.3184 L645.6611,355.3184 L635.6611,365.3184 L584.6611,365.3184 L584.6611,346.3184 " fill="#EEEEEE" style="stroke:#000000;stroke-width:2.0;"/><text fill="#000000" font-family="sans-serif" font-size="13" font-weight="bold" lengthAdjust="spacing" textLength="16.6182" x="597.6611" y="362.3467">ref</text><text fill="#000000" font-family="sans-serif" font-size="12" lengthAdjust="spacing" textLength="96.7324" x="613.2119" y="382.2676">Validate map data</text><polygon fill="#181818" points="335.373,413.8613,325.373,417.8613,335.373,421.8613,331.373,417.8613" style="stroke:#181818;stroke-width:1.0;"/><line style="stroke:#181818;stroke-width:1.0;stroke-dasharray:2.0,2.0;" x1="329.373" x2="660.5781" y1="417.8613" y2="417.8613"/><text fill="#000000" font-family="sans-serif" font-size="13" font-weight="bold" lengthAdjust="spacing" textLength="7.23" x="341.373" y="412.5986">7</text><text fill="#000000" font-family="sans-serif" font-size="13" lengthAdjust="spacing" textLength="26.7363" x="352.603" y="412.5986">valid</text><line style="stroke:#181818;stroke-width:1.0;" x1="324.373" x2="366.373" y1="449.1523" y2="449.1523"/><line style="stroke:#181818;stroke-width:1.0;" x1="366.373" x2="366.373" y1="449.1523" y2="462.1523"/><line style="stroke:#181818;stroke-width:1.0;" x1="325.373" x2="366.373" y1="462.1523" y2="462.1523"/><polygon fill="#181818" points="335.373,458.1523,325.373,462.1523,335.373,466.1523,331.373,462.1523" style="stroke:#181818;stroke-width:1.0;"/><text fill="#000000" font-family="sans-serif" font-size="13" font-weight="bold" lengthAdjust="spacing" textLength="7.23" x="331.373" y="443.8896">8</text><text fill="#000000" font-family="sans-serif" font-size="13" lengthAdjust="spacing" textLength="296.9751" x="342.603" y="443.8896">displayConfirmationRequest(nameID, width, height)</text><polygon fill="#181818" points="42.2861,489.4434,32.2861,493.4434,42.2861,497.4434,38.2861,493.4434" style="stroke:#181818;stroke-width:1.0;"/><line style="stroke:#181818;stroke-width:1.0;stroke-dasharray:2.0,2.0;" x1="36.2861" x2="318.373" y1="493.4434" y2="493.4434"/><text fill="#000000" font-family="sans-serif" font-size="13" font-weight="bold" lengthAdjust="spacing" textLength="7.23" x="48.2861" y="488.1807">9</text><text fill="#000000" font-family="sans-serif" font-size="13" lengthAdjust="spacing" textLength="247.8569" x="59.5161" y="488.1807">shows map data and requests confirmation</text><polygon fill="#181818" points="302.373,520.7344,312.373,524.7344,302.373,528.7344,306.373,524.7344" style="stroke:#181818;stroke-width:1.0;"/><line style="stroke:#181818;stroke-width:1.0;" x1="31.2861" x2="308.373" y1="524.7344" y2="524.7344"/><text fill="#000000" font-family="sans-serif" font-size="13" font-weight="bold" lengthAdjust="spacing" textLength="14.46" x="38.2861" y="519.4717">10</text><text fill="#000000" font-family="sans-serif" font-size="13" lengthAdjust="spacing" textLength="78.0317" x="56.7461" y="519.4717">confirms data</text><polygon fill="#181818" points="644.5781,552.0254,654.5781,556.0254,644.5781,560.0254,648.5781,556.0254" style="stroke:#181818;stroke-width:1.0;"/><line style="stroke:#181818;stroke-width:1.0;" x1="324.373" x2="650.5781" y1="556.0254" y2="556.0254"/><text fill="#000000" font-family="sans-serif" font-size="13" font-weight="bold" lengthAdjust="spacing" textLength="14.46" x="331.373" y="550.7627">11</text><text fill="#000000" font-family="sans-serif" font-size="13" lengthAdjust="spacing" textLength="195.8125" x="349.833" y="550.7627">createMap(nameID, width, height)</text><rect fill="none" height="43.252" style="stroke:#000000;stroke-width:1.5;" width="153.834" x="584.6611" y="564.0254"/><path d="M584.6611,564.0254 L645.6611,564.0254 L645.6611,573.0254 L635.6611,583.0254 L584.6611,583.0254 L584.6611,564.0254 " fill="#EEEEEE" style="stroke:#000000;stroke-width:2.0;"/><text fill="#000000" font-family="sans-serif" font-size="13" font-weight="bold" lengthAdjust="spacing" textLength="16.6182" x="597.6611" y="580.0537">ref</text><text fill="#000000" font-family="sans-serif" font-size="12" lengthAdjust="spacing" textLength="114.7324" x="604.2119" y="599.9746">Create and save map</text><polygon fill="#181818" points="335.373,631.5684,325.373,635.5684,335.373,639.5684,331.373,635.5684" style="stroke:#181818;stroke-width:1.0;"/><line style="stroke:#181818;stroke-width:1.0;stroke-dasharray:2.0,2.0;" x1="329.373" x2="660.5781" y1="635.5684" y2="635.5684"/><text fill="#000000" font-family="sans-serif" font-size="13" font-weight="bold" lengthAdjust="spacing" textLength="14.46" x="341.373" y="630.3057">12</text><text fill="#000000" font-family="sans-serif" font-size="13" lengthAdjust="spacing" textLength="126.8008" x="359.833" y="630.3057">success + mapDetails</text><line style="stroke:#181818;stroke-width:1.0;" x1="324.373" x2="366.373" y1="666.8594" y2="666.8594"/><line style="stroke:#181818;stroke-width:1.0;" x1="366.373" x2="366.373" y1="666.8594" y2="679.8594"/><line style="stroke:#181818;stroke-width:1.0;" x1="325.373" x2="366.373" y1="679.8594" y2="679.8594"/><polygon fill="#181818" points="335.373,675.8594,325.373,679.8594,335.373,683.8594,331.373,679.8594" style="stroke:#181818;stroke-width:1.0;"/><text fill="#000000" font-family="sans-serif" font-size="13" font-weight="bold" lengthAdjust="spacing" textLength="14.46" x="331.373" y="661.5967">13</text><text fill="#000000" font-family="sans-serif" font-size="13" lengthAdjust="spacing" textLength="123.5444" x="349.833" y="661.5967">displaySuccess(map)</text><line style="stroke:#181818;stroke-width:1.0;" x1="324.373" x2="366.373" y1="711.1504" y2="711.1504"/><line style="stroke:#181818;stroke-width:1.0;" x1="366.373" x2="366.373" y1="711.1504" y2="724.1504"/><line style="stroke:#181818;stroke-width:1.0;" x1="325.373" x2="366.373" y1="724.1504" y2="724.1504"/><polygon fill="#181818" points="335.373,720.1504,325.373,724.1504,335.373,728.1504,331.373,724.1504" style="stroke:#181818;stroke-width:1.0;"/><text fill="#000000" font-family="sans-serif" font-size="13" font-weight="bold" lengthAdjust="spacing" textLength="14.46" x="331.373" y="705.8877">14</text><text fill="#000000" font-family="sans-serif" font-size="13" lengthAdjust="spacing" textLength="139.439" x="349.833" y="705.8877">displayMapDetails(map)</text><polygon fill="#181818" points="42.2861,751.4414,32.2861,755.4414,42.2861,759.4414,38.2861,755.4414" style="stroke:#181818;stroke-width:1.0;"/><line style="stroke:#181818;stroke-width:1.0;stroke-dasharray:2.0,2.0;" x1="36.2861" x2="313.373" y1="755.4414" y2="755.4414"/><text fill="#000000" font-family="sans-serif" font-size="13" font-weight="bold" lengthAdjust="spacing" textLength="14.46" x="48.2861" y="750.1787">15</text><text fill="#000000" font-family="sans-serif" font-size="13" lengthAdjust="spacing" textLength="155.3589" x="66.7461" y="750.1787">displays operation success</text><polygon fill="#181818" points="37.2861,782.7324,27.2861,786.7324,37.2861,790.7324,33.2861,786.7324" style="stroke:#181818;stroke-width:1.0;"/><line style="stroke:#181818;stroke-width:1.0;stroke-dasharray:2.0,2.0;" x1="31.2861" x2="318.373" y1="786.7324" y2="786.7324"/><text fill="#000000" font-family="sans-serif" font-size="13" font-weight="bold" lengthAdjust="spacing" textLength="14.46" x="43.2861" y="781.4697">16</text><text fill="#000000" font-family="sans-serif" font-size="13" lengthAdjust="spacing" textLength="117.0571" x="61.7461" y="781.4697">displays map details</text><!--SRC=[hLJBRjim4BphAnO-kMa2f5STUh5Rm41pYUlUj-HQ8YoH2adPoDztIT4EvKUY0EL54ZWpExj3oksKxj1Y2wtHHjJMj0JUzbIuqqw7OeSLhVrhGs19UDHLamDSZT8SbAvWYusZei3U6zstVyaMXLUUQMjwwKaBWgN2YZabRDQFt-015fRG4o0yOST4uOs5sG-f-3a3T43njU12NWdLeVOmAmSICpQh2DgiRW4MHdjhceO6jSNlvr-nYjg7gacy05x3EpnyPpKe6Rnpu0s8epzD1sZP8wHr4k7Ya2rciqOeT7TN9lhyonN8PbM2LAvhyFKvJCVvdyQovILwl49Wnc2nv0mYt0K_81aESuqjtSD1IL_VGqsgglsRXAJSx4Mt9N2GFSibNP9Hz1ETbh37HibXvD5_yBDQtdGqaesXv3kZ3qjRC7kobx0_gUPf3ADTqlAsQ5X1BuurJ23w7q6oeRrly29DFdDRPLlqokYKx9Hvd8NiQdF84aOjtt8NMONfAIUM-towudYTflGnCRtZnUU-7EvfTBS-pEzsD1V9kbu8SWw-XWfBygWQzv-2NW_ISnR-u88_dKfV1sUv9uO3qv6D2HzRcCIA1-QioxEJaNsc7-0_]--></g></svg>