<svg xmlns="http://www.w3.org/2000/svg" xmlns:xlink="http://www.w3.org/1999/xlink" contentStyleType="text/css" height="355px" preserveAspectRatio="none" style="width:495px;height:355px;background:#FFFFFF;" version="1.1" viewBox="0 0 495 355" width="495px" zoomAndPan="magnify"><defs/><g><rect fill="#FFFFFF" height="137.4941" style="stroke:#181818;stroke-width:1.0;" width="10" x="216.9341" y="116.9121"/><rect fill="#FFFFFF" height="31.291" style="stroke:#181818;stroke-width:1.0;" width="10" x="411.0039" y="191.8242"/><line style="stroke:#181818;stroke-width:0.5;stroke-dasharray:5.0,5.0;" x1="26" x2="26" y1="83.6211" y2="272.4063"/><line style="stroke:#181818;stroke-width:0.5;stroke-dasharray:5.0,5.0;" x1="221.3618" x2="221.3618" y1="83.6211" y2="272.4063"/><line style="stroke:#181818;stroke-width:0.5;stroke-dasharray:5.0,5.0;" x1="415.0869" x2="415.0869" y1="156.7227" y2="272.4063"/><text fill="#000000" font-family="sans-serif" font-size="14" lengthAdjust="spacing" textLength="36.5723" x="5" y="80.1074">Editor</text><ellipse cx="26.2861" cy="13.5" fill="#E2E2F0" rx="8" ry="8" style="stroke:#181818;stroke-width:0.5;"/><path d="M26.2861,21.5 L26.2861,48.5 M13.2861,29.5 L39.2861,29.5 M26.2861,48.5 L13.2861,63.5 M26.2861,48.5 L39.2861,63.5 " fill="none" style="stroke:#181818;stroke-width:0.5;"/><text fill="#000000" font-family="sans-serif" font-size="14" lengthAdjust="spacing" textLength="36.5723" x="5" y="286.5137">Editor</text><ellipse cx="26.2861" cy="298.5273" fill="#E2E2F0" rx="8" ry="8" style="stroke:#181818;stroke-width:0.5;"/><path d="M26.2861,306.5273 L26.2861,333.5273 M13.2861,314.5273 L39.2861,314.5273 M26.2861,333.5273 L13.2861,348.5273 M26.2861,333.5273 L39.2861,348.5273 " fill="none" style="stroke:#181818;stroke-width:0.5;"/><rect fill="#E2E2F0" height="32.6211" rx="2.5" ry="2.5" style="stroke:#181818;stroke-width:0.5;" width="101.1445" x="171.3618" y="50"/><text fill="#000000" font-family="sans-serif" font-size="14" lengthAdjust="spacing" textLength="87.1445" x="178.3618" y="72.1074">:CreateMapUI</text><rect fill="#E2E2F0" height="32.6211" rx="2.5" ry="2.5" style="stroke:#181818;stroke-width:0.5;" width="101.1445" x="171.3618" y="271.4063"/><text fill="#000000" font-family="sans-serif" font-size="14" lengthAdjust="spacing" textLength="87.1445" x="178.3618" y="293.5137">:CreateMapUI</text><rect fill="#E2E2F0" height="32.6211" rx="2.5" ry="2.5" style="stroke:#181818;stroke-width:0.5;" width="147.834" x="342.0869" y="271.4063"/><text fill="#000000" font-family="sans-serif" font-size="14" lengthAdjust="spacing" textLength="133.834" x="349.0869" y="293.5137">:CreateMapController</text><rect fill="#FFFFFF" height="137.4941" style="stroke:#181818;stroke-width:1.0;" width="10" x="216.9341" y="116.9121"/><rect fill="#FFFFFF" height="31.291" style="stroke:#181818;stroke-width:1.0;" width="10" x="411.0039" y="191.8242"/><polygon fill="#181818" points="204.9341,112.9121,214.9341,116.9121,204.9341,120.9121,208.9341,116.9121" style="stroke:#181818;stroke-width:1.0;"/><line style="stroke:#181818;stroke-width:1.0;" x1="26.2861" x2="210.9341" y1="116.9121" y2="116.9121"/><text fill="#000000" font-family="sans-serif" font-size="13" font-weight="bold" lengthAdjust="spacing" textLength="7.23" x="33.2861" y="111.6494">1</text><text fill="#000000" font-family="sans-serif" font-size="13" lengthAdjust="spacing" textLength="160.418" x="44.5161" y="111.6494">requests to create new map</text><polygon fill="#181818" points="330.0869,144.2031,340.0869,148.2031,330.0869,152.2031,334.0869,148.2031" style="stroke:#181818;stroke-width:1.0;"/><line style="stroke:#181818;stroke-width:1.0;stroke-dasharray:2.0,2.0;" x1="226.9341" x2="336.0869" y1="148.2031" y2="148.2031"/><text fill="#000000" font-family="sans-serif" font-size="13" font-weight="bold" lengthAdjust="spacing" textLength="7.23" x="233.9341" y="142.9404">2</text><text fill="#000000" font-family="sans-serif" font-size="13" lengthAdjust="spacing" textLength="44.7891" x="245.1641" y="142.9404">create()</text><rect fill="#E2E2F0" height="32.6211" rx="2.5" ry="2.5" style="stroke:#181818;stroke-width:0.5;" width="147.834" x="342.0869" y="124.9121"/><text fill="#000000" font-family="sans-serif" font-size="14" lengthAdjust="spacing" textLength="133.834" x="349.0869" y="147.0195">:CreateMapController</text><polygon fill="#181818" points="399.0039,187.8242,409.0039,191.8242,399.0039,195.8242,403.0039,191.8242" style="stroke:#181818;stroke-width:1.0;"/><line style="stroke:#181818;stroke-width:1.0;" x1="226.9341" x2="405.0039" y1="191.8242" y2="191.8242"/><text fill="#000000" font-family="sans-serif" font-size="13" font-weight="bold" lengthAdjust="spacing" textLength="7.23" x="233.9341" y="186.5615">3</text><text fill="#000000" font-family="sans-serif" font-size="13" lengthAdjust="spacing" textLength="151.7344" x="245.1641" y="186.5615">request map creation form</text><polygon fill="#181818" points="237.9341,219.1152,227.9341,223.1152,237.9341,227.1152,233.9341,223.1152" style="stroke:#181818;stroke-width:1.0;"/><line style="stroke:#181818;stroke-width:1.0;stroke-dasharray:2.0,2.0;" x1="231.9341" x2="415.0039" y1="223.1152" y2="223.1152"/><text fill="#000000" font-family="sans-serif" font-size="13" font-weight="bold" lengthAdjust="spacing" textLength="7.23" x="243.9341" y="217.8525">4</text><text fill="#000000" font-family="sans-serif" font-size="13" lengthAdjust="spacing" textLength="148.8398" x="255.1641" y="217.8525">display map creation form</text><polygon fill="#181818" points="37.2861,250.4063,27.2861,254.4063,37.2861,258.4063,33.2861,254.4063" style="stroke:#181818;stroke-width:1.0;"/><line style="stroke:#181818;stroke-width:1.0;stroke-dasharray:2.0,2.0;" x1="31.2861" x2="220.9341" y1="254.4063" y2="254.4063"/><text fill="#000000" font-family="sans-serif" font-size="13" font-weight="bold" lengthAdjust="spacing" textLength="7.23" x="43.2861" y="249.1436">5</text><text fill="#000000" font-family="sans-serif" font-size="13" lengthAdjust="spacing" textLength="145.2217" x="54.5161" y="249.1436">shows map creation form</text><!--SRC=[TP11JiGm34NtEOKrAnYf5-Y2JSMY4cmOUW2JUaeqQHmIbsfkZvkMWWIJJQJu_PUVv8iB4HEE4D5USA2JN3r18YiO1aycxq1-nvvd5mOueyzaS18Eq_X6oHYqmWaUUwURKLoSTH63mA5k4g7GCyQkFG1cwDfRGCD14djFgO3DwykJCQiJgWSDGgt5FYRAaa4OR0b2e1b6Z4i7zxaSw0sWI_bAOulcUDJeYj_TxyDrzYDTB2lbEC2PqrZGtLiAmRPAjFgkrRiSFLvl67hwwzZQRS-hzNTvpl_aVsMxzWi0]--></g></svg>