<svg xmlns="http://www.w3.org/2000/svg" xmlns:xlink="http://www.w3.org/1999/xlink" contentStyleType="text/css" height="553.7px" preserveAspectRatio="none" style="width:856px;height:553px;background:#FFFFFF;" version="1.1" viewBox="0 0 856 553" width="856.1px" zoomAndPan="magnify"><defs/><g><!--class ApplicationSession--><g id="elem_ApplicationSession"><rect codeLine="6" fill="#F1F1F1" height="72.7043" id="ApplicationSession" rx="1.75" ry="1.75" style="stroke:#181818;stroke-width:0.3499999999999999;" width="105.2071" x="58.1" y="175"/><ellipse cx="68.6" cy="186.2" fill="#ADD1B2" rx="7.7" ry="7.7" style="stroke:#181818;stroke-width:0.6999999999999998;"/><path d="M70.5359,183.3125 Q70.6453,183.1594 70.7766,183.0828 Q70.9078,183.0062 71.0609,183.0062 Q71.3234,183.0062 71.4875,183.1922 Q71.6516,183.3672 71.6516,183.7937 L71.6516,184.8109 Q71.6516,185.2375 71.4875,185.4234 Q71.3234,185.6094 71.0609,185.6094 Q70.8203,185.6094 70.6781,185.4672 Q70.5359,185.3359 70.4594,184.975 Q70.4266,184.7234 70.2953,184.5922 Q70.0656,184.3297 69.6391,184.1766 Q69.2125,184.0234 68.775,184.0234 Q68.2391,184.0234 67.7906,184.2531 Q67.3531,184.4828 67.0031,185.0078 Q66.6641,185.5328 66.6641,186.2547 L66.6641,187.0203 Q66.6641,187.8844 67.2875,188.4641 Q67.9109,189.0328 69.0266,189.0328 Q69.6828,189.0328 70.1422,188.8578 Q70.4156,188.7484 70.7109,188.4422 Q70.8969,188.2562 70.9953,188.2016 Q71.1047,188.1469 71.2469,188.1469 Q71.4766,188.1469 71.6516,188.3328 Q71.8375,188.5078 71.8375,188.7484 Q71.8375,188.9891 71.5969,189.2734 Q71.2469,189.6781 70.6891,189.9078 Q69.9344,190.225 69.0266,190.225 Q67.9656,190.225 67.1234,189.7875 Q66.4344,189.4375 65.9531,188.6937 Q65.4719,187.9391 65.4719,187.0422 L65.4719,186.2328 Q65.4719,185.3031 65.8984,184.5047 Q66.3359,183.6953 67.1016,183.2687 Q67.8672,182.8312 68.7312,182.8312 Q69.2453,182.8312 69.6937,182.9516 Q70.1531,183.0609 70.5359,183.3125 Z " fill="#000000"/><text fill="#000000" font-family="sans-serif" font-size="9.8" lengthAdjust="spacing" textLength="82.8071" x="78.4" y="190.2578">ApplicationSession</text><line style="stroke:#181818;stroke-width:0.3499999999999999;" x1="58.8" x2="162.6071" y1="197.4" y2="197.4"/><line style="stroke:#181818;stroke-width:0.3499999999999999;" x1="58.8" x2="162.6071" y1="203" y2="203"/><text fill="#000000" font-family="sans-serif" font-size="9.8" lengthAdjust="spacing" textLength="92.5976" x="62.3" y="216.3752">-ApplicationSession()</text><text fill="#000000" font-family="sans-serif" font-size="9.8" lengthAdjust="spacing" text-decoration="underline" textLength="62.92" x="62.3" y="229.41">+getInstance()</text><text fill="#000000" font-family="sans-serif" font-size="9.8" lengthAdjust="spacing" textLength="93.4158" x="62.3" y="242.4447">+getCurrentSession()</text></g><!--class UserSession--><g id="elem_UserSession"><rect codeLine="12" fill="#F1F1F1" height="46.6348" id="UserSession" rx="1.75" ry="1.75" style="stroke:#181818;stroke-width:0.3499999999999999;" width="92.5518" x="4.9" y="348.6"/><ellipse cx="21.9682" cy="359.8" fill="#ADD1B2" rx="7.7" ry="7.7" style="stroke:#181818;stroke-width:0.6999999999999998;"/><path d="M23.9042,356.9125 Q24.0136,356.7594 24.1448,356.6828 Q24.2761,356.6062 24.4292,356.6062 Q24.6917,356.6062 24.8557,356.7922 Q25.0198,356.9672 25.0198,357.3937 L25.0198,358.4109 Q25.0198,358.8375 24.8557,359.0234 Q24.6917,359.2094 24.4292,359.2094 Q24.1886,359.2094 24.0464,359.0672 Q23.9042,358.9359 23.8276,358.575 Q23.7948,358.3234 23.6636,358.1922 Q23.4339,357.9297 23.0073,357.7766 Q22.5807,357.6234 22.1432,357.6234 Q21.6073,357.6234 21.1589,357.8531 Q20.7214,358.0828 20.3714,358.6078 Q20.0323,359.1328 20.0323,359.8547 L20.0323,360.6203 Q20.0323,361.4844 20.6557,362.0641 Q21.2792,362.6328 22.3948,362.6328 Q23.0511,362.6328 23.5104,362.4578 Q23.7839,362.3484 24.0792,362.0422 Q24.2651,361.8562 24.3636,361.8016 Q24.4729,361.7469 24.6151,361.7469 Q24.8448,361.7469 25.0198,361.9328 Q25.2057,362.1078 25.2057,362.3484 Q25.2057,362.5891 24.9651,362.8734 Q24.6151,363.2781 24.0573,363.5078 Q23.3026,363.825 22.3948,363.825 Q21.3339,363.825 20.4917,363.3875 Q19.8026,363.0375 19.3214,362.2937 Q18.8401,361.5391 18.8401,360.6422 L18.8401,359.8328 Q18.8401,358.9031 19.2667,358.1047 Q19.7042,357.2953 20.4698,356.8687 Q21.2354,356.4312 22.0995,356.4312 Q22.6136,356.4312 23.062,356.5516 Q23.5214,356.6609 23.9042,356.9125 Z " fill="#000000"/><text fill="#000000" font-family="sans-serif" font-size="9.8" lengthAdjust="spacing" textLength="55.5557" x="33.2279" y="363.8578">UserSession</text><line style="stroke:#181818;stroke-width:0.3499999999999999;" x1="5.6" x2="96.7518" y1="371" y2="371"/><line style="stroke:#181818;stroke-width:0.3499999999999999;" x1="5.6" x2="96.7518" y1="376.6" y2="376.6"/><text fill="#000000" font-family="sans-serif" font-size="9.8" lengthAdjust="spacing" textLength="84.1518" x="9.1" y="389.9752">+getCurrentEditor()</text></g><!--class Editor--><g id="elem_Editor"><rect codeLine="16" fill="#F1F1F1" height="111.8086" id="Editor" rx="1.75" ry="1.75" style="stroke:#181818;stroke-width:0.3499999999999999;" width="161.4724" x="341.95" y="155.4"/><ellipse cx="406.9109" cy="166.6" fill="#ADD1B2" rx="7.7" ry="7.7" style="stroke:#181818;stroke-width:0.6999999999999998;"/><path d="M408.8468,163.7125 Q408.9562,163.5594 409.0875,163.4828 Q409.2187,163.4062 409.3718,163.4062 Q409.6343,163.4062 409.7984,163.5922 Q409.9625,163.7672 409.9625,164.1937 L409.9625,165.2109 Q409.9625,165.6375 409.7984,165.8234 Q409.6343,166.0094 409.3718,166.0094 Q409.1312,166.0094 408.989,165.8672 Q408.8468,165.7359 408.7703,165.375 Q408.7375,165.1234 408.6062,164.9922 Q408.3765,164.7297 407.95,164.5766 Q407.5234,164.4234 407.0859,164.4234 Q406.55,164.4234 406.1015,164.6531 Q405.664,164.8828 405.314,165.4078 Q404.975,165.9328 404.975,166.6547 L404.975,167.4203 Q404.975,168.2844 405.5984,168.8641 Q406.2218,169.4328 407.3375,169.4328 Q407.9937,169.4328 408.4531,169.2578 Q408.7265,169.1484 409.0218,168.8422 Q409.2078,168.6562 409.3062,168.6016 Q409.4156,168.5469 409.5578,168.5469 Q409.7875,168.5469 409.9625,168.7328 Q410.1484,168.9078 410.1484,169.1484 Q410.1484,169.3891 409.9078,169.6734 Q409.5578,170.0781 409,170.3078 Q408.2453,170.625 407.3375,170.625 Q406.2765,170.625 405.4343,170.1875 Q404.7453,169.8375 404.264,169.0937 Q403.7828,168.3391 403.7828,167.4422 L403.7828,166.6328 Q403.7828,165.7031 404.2093,164.9047 Q404.6468,164.0953 405.4125,163.6687 Q406.1781,163.2312 407.0421,163.2312 Q407.5562,163.2312 408.0046,163.3516 Q408.464,163.4609 408.8468,163.7125 Z " fill="#000000"/><text fill="#000000" font-family="sans-serif" font-size="9.8" lengthAdjust="spacing" textLength="25.6006" x="421.2609" y="170.6578">Editor</text><line style="stroke:#181818;stroke-width:0.3499999999999999;" x1="342.65" x2="502.7224" y1="177.8" y2="177.8"/><text fill="#000000" font-family="sans-serif" font-size="9.8" lengthAdjust="spacing" textLength="80.6107" x="346.15" y="191.1752">-username : String</text><text fill="#000000" font-family="sans-serif" font-size="9.8" lengthAdjust="spacing" textLength="78.9742" x="346.15" y="204.21">-password : String</text><text fill="#000000" font-family="sans-serif" font-size="9.8" lengthAdjust="spacing" textLength="113.8437" x="346.15" y="217.2447">-createdMaps : List&lt;Map&gt;</text><text fill="#000000" font-family="sans-serif" font-size="9.8" lengthAdjust="spacing" textLength="153.0724" x="346.15" y="230.2795">-createdScenarios : List&lt;Scenario&gt;</text><line style="stroke:#181818;stroke-width:0.3499999999999999;" x1="342.65" x2="502.7224" y1="235.5391" y2="235.5391"/><text fill="#000000" font-family="sans-serif" font-size="9.8" lengthAdjust="spacing" textLength="143.5355" x="346.15" y="248.9143">+createMap(name, width, height)</text><text fill="#000000" font-family="sans-serif" font-size="9.8" lengthAdjust="spacing" textLength="66.729" x="346.15" y="261.949">+addMap(map)</text></g><!--class Map--><g id="elem_Map"><rect codeLine="26" fill="#F1F1F1" height="98.7738" id="Map" rx="1.75" ry="1.75" style="stroke:#181818;stroke-width:0.3499999999999999;" width="123.3299" x="291.9" y="322.7"/><ellipse cx="341.0579" cy="333.9" fill="#ADD1B2" rx="7.7" ry="7.7" style="stroke:#181818;stroke-width:0.6999999999999998;"/><path d="M342.9938,331.0125 Q343.1032,330.8594 343.2345,330.7828 Q343.3657,330.7062 343.5188,330.7062 Q343.7813,330.7062 343.9454,330.8922 Q344.1095,331.0672 344.1095,331.4937 L344.1095,332.5109 Q344.1095,332.9375 343.9454,333.1234 Q343.7813,333.3094 343.5188,333.3094 Q343.2782,333.3094 343.136,333.1672 Q342.9938,333.0359 342.9173,332.675 Q342.8845,332.4234 342.7532,332.2922 Q342.5235,332.0297 342.097,331.8766 Q341.6704,331.7234 341.2329,331.7234 Q340.697,331.7234 340.2485,331.9531 Q339.811,332.1828 339.461,332.7078 Q339.122,333.2328 339.122,333.9547 L339.122,334.7203 Q339.122,335.5844 339.7454,336.1641 Q340.3688,336.7328 341.4845,336.7328 Q342.1407,336.7328 342.6001,336.5578 Q342.8735,336.4484 343.1688,336.1422 Q343.3548,335.9562 343.4532,335.9016 Q343.5626,335.8469 343.7048,335.8469 Q343.9345,335.8469 344.1095,336.0328 Q344.2954,336.2078 344.2954,336.4484 Q344.2954,336.6891 344.0548,336.9734 Q343.7048,337.3781 343.147,337.6078 Q342.3923,337.925 341.4845,337.925 Q340.4235,337.925 339.5813,337.4875 Q338.8923,337.1375 338.411,336.3937 Q337.9298,335.6391 337.9298,334.7422 L337.9298,333.9328 Q337.9298,333.0031 338.3563,332.2047 Q338.7938,331.3953 339.5595,330.9687 Q340.3251,330.5312 341.1892,330.5312 Q341.7032,330.5312 342.1517,330.6516 Q342.611,330.7609 342.9938,331.0125 Z " fill="#000000"/><text fill="#000000" font-family="sans-serif" font-size="9.8" lengthAdjust="spacing" textLength="19.0641" x="355.4079" y="337.9578">Map</text><line style="stroke:#181818;stroke-width:0.3499999999999999;" x1="292.6" x2="414.5299" y1="345.1" y2="345.1"/><text fill="#000000" font-family="sans-serif" font-size="9.8" lengthAdjust="spacing" textLength="71.3467" x="296.1" y="358.4752">-nameID : String</text><text fill="#000000" font-family="sans-serif" font-size="9.8" lengthAdjust="spacing" textLength="47.9233" x="296.1" y="371.51">-size : Size</text><text fill="#000000" font-family="sans-serif" font-size="9.8" lengthAdjust="spacing" textLength="77.3329" x="296.1" y="384.5447">-cities : List&lt;City&gt;</text><text fill="#000000" font-family="sans-serif" font-size="9.8" lengthAdjust="spacing" textLength="114.9299" x="296.1" y="397.5795">-industries : List&lt;Industry&gt;</text><line style="stroke:#181818;stroke-width:0.3499999999999999;" x1="292.6" x2="414.5299" y1="402.8391" y2="402.8391"/><text fill="#000000" font-family="sans-serif" font-size="9.8" lengthAdjust="spacing" textLength="72.1697" x="296.1" y="416.2143">+validateName()</text></g><!--class Size--><g id="elem_Size"><rect codeLine="35" fill="#F1F1F1" height="72.7043" id="Size" rx="1.75" ry="1.75" style="stroke:#181818;stroke-width:0.3499999999999999;" width="105.6248" x="222.25" y="476.7"/><ellipse cx="262.5554" cy="487.9" fill="#ADD1B2" rx="7.7" ry="7.7" style="stroke:#181818;stroke-width:0.6999999999999998;"/><path d="M264.4913,485.0125 Q264.6007,484.8594 264.7319,484.7828 Q264.8632,484.7062 265.0163,484.7062 Q265.2788,484.7062 265.4429,484.8922 Q265.6069,485.0672 265.6069,485.4937 L265.6069,486.5109 Q265.6069,486.9375 265.4429,487.1234 Q265.2788,487.3094 265.0163,487.3094 Q264.7757,487.3094 264.6335,487.1672 Q264.4913,487.0359 264.4147,486.675 Q264.3819,486.4234 264.2507,486.2922 Q264.021,486.0297 263.5944,485.8766 Q263.1679,485.7234 262.7304,485.7234 Q262.1944,485.7234 261.746,485.9531 Q261.3085,486.1828 260.9585,486.7078 Q260.6194,487.2328 260.6194,487.9547 L260.6194,488.7203 Q260.6194,489.5844 261.2429,490.1641 Q261.8663,490.7328 262.9819,490.7328 Q263.6382,490.7328 264.0976,490.5578 Q264.371,490.4484 264.6663,490.1422 Q264.8522,489.9562 264.9507,489.9016 Q265.0601,489.8469 265.2022,489.8469 Q265.4319,489.8469 265.6069,490.0328 Q265.7929,490.2078 265.7929,490.4484 Q265.7929,490.6891 265.5522,490.9734 Q265.2022,491.3781 264.6444,491.6078 Q263.8897,491.925 262.9819,491.925 Q261.921,491.925 261.0788,491.4875 Q260.3897,491.1375 259.9085,490.3937 Q259.4272,489.6391 259.4272,488.7422 L259.4272,487.9328 Q259.4272,487.0031 259.8538,486.2047 Q260.2913,485.3953 261.0569,484.9687 Q261.8226,484.5312 262.6866,484.5312 Q263.2007,484.5312 263.6491,484.6516 Q264.1085,484.7609 264.4913,485.0125 Z " fill="#000000"/><text fill="#000000" font-family="sans-serif" font-size="9.8" lengthAdjust="spacing" textLength="19.0641" x="276.9054" y="491.9578">Size</text><line style="stroke:#181818;stroke-width:0.3499999999999999;" x1="222.95" x2="327.1748" y1="499.1" y2="499.1"/><text fill="#000000" font-family="sans-serif" font-size="9.8" lengthAdjust="spacing" textLength="44.6599" x="226.45" y="512.4752">-width : int</text><text fill="#000000" font-family="sans-serif" font-size="9.8" lengthAdjust="spacing" textLength="48.4832" x="226.45" y="525.51">-height : int</text><line style="stroke:#181818;stroke-width:0.3499999999999999;" x1="222.95" x2="327.1748" y1="530.7695" y2="530.7695"/><text fill="#000000" font-family="sans-serif" font-size="9.8" lengthAdjust="spacing" textLength="97.2248" x="226.45" y="544.1447">+validateDimensions()</text></g><!--class ScenarioRepository--><g id="elem_ScenarioRepository"><rect codeLine="42" fill="#F1F1F1" height="46.6348" id="ScenarioRepository" rx="1.75" ry="1.75" style="stroke:#181818;stroke-width:0.3499999999999999;" width="107.9203" x="668.5" y="187.95"/><ellipse cx="679" cy="199.15" fill="#ADD1B2" rx="7.7" ry="7.7" style="stroke:#181818;stroke-width:0.6999999999999998;"/><path d="M680.9359,196.2625 Q681.0453,196.1094 681.1766,196.0328 Q681.3078,195.9562 681.4609,195.9562 Q681.7234,195.9562 681.8875,196.1422 Q682.0516,196.3172 682.0516,196.7437 L682.0516,197.7609 Q682.0516,198.1875 681.8875,198.3734 Q681.7234,198.5594 681.4609,198.5594 Q681.2203,198.5594 681.0781,198.4172 Q680.9359,198.2859 680.8594,197.925 Q680.8266,197.6734 680.6953,197.5422 Q680.4656,197.2797 680.0391,197.1266 Q679.6125,196.9734 679.175,196.9734 Q678.6391,196.9734 678.1906,197.2031 Q677.7531,197.4328 677.4031,197.9578 Q677.0641,198.4828 677.0641,199.2047 L677.0641,199.9703 Q677.0641,200.8344 677.6875,201.4141 Q678.3109,201.9828 679.4266,201.9828 Q680.0828,201.9828 680.5422,201.8078 Q680.8156,201.6984 681.1109,201.3922 Q681.2969,201.2062 681.3953,201.1516 Q681.5047,201.0969 681.6469,201.0969 Q681.8766,201.0969 682.0516,201.2828 Q682.2375,201.4578 682.2375,201.6984 Q682.2375,201.9391 681.9969,202.2234 Q681.6469,202.6281 681.0891,202.8578 Q680.3344,203.175 679.4266,203.175 Q678.3656,203.175 677.5234,202.7375 Q676.8344,202.3875 676.3531,201.6437 Q675.8719,200.8891 675.8719,199.9922 L675.8719,199.1828 Q675.8719,198.2531 676.2984,197.4547 Q676.7359,196.6453 677.5016,196.2187 Q678.2672,195.7812 679.1312,195.7812 Q679.6453,195.7812 680.0937,195.9016 Q680.5531,196.0109 680.9359,196.2625 Z " fill="#000000"/><text fill="#000000" font-family="sans-serif" font-size="9.8" lengthAdjust="spacing" textLength="85.5203" x="688.8" y="203.2078">ScenarioRepository</text><line style="stroke:#181818;stroke-width:0.3499999999999999;" x1="669.2" x2="775.7203" y1="210.35" y2="210.35"/><line style="stroke:#181818;stroke-width:0.3499999999999999;" x1="669.2" x2="775.7203" y1="215.95" y2="215.95"/><text fill="#000000" font-family="sans-serif" font-size="9.8" lengthAdjust="spacing" textLength="97.2296" x="672.7" y="229.3252">+getCurrentScenario()</text></g><!--class MapRepository--><g id="elem_MapRepository"><rect codeLine="46" fill="#F1F1F1" height="59.6695" id="MapRepository" rx="1.75" ry="1.75" style="stroke:#181818;stroke-width:0.3499999999999999;" width="115.4296" x="528.15" y="181.65"/><ellipse cx="550.8556" cy="192.85" fill="#ADD1B2" rx="7.7" ry="7.7" style="stroke:#181818;stroke-width:0.6999999999999998;"/><path d="M552.7916,189.9625 Q552.9009,189.8094 553.0322,189.7328 Q553.1634,189.6562 553.3166,189.6562 Q553.5791,189.6562 553.7431,189.8422 Q553.9072,190.0172 553.9072,190.4437 L553.9072,191.4609 Q553.9072,191.8875 553.7431,192.0734 Q553.5791,192.2594 553.3166,192.2594 Q553.0759,192.2594 552.9338,192.1172 Q552.7916,191.9859 552.715,191.625 Q552.6822,191.3734 552.5509,191.2422 Q552.3213,190.9797 551.8947,190.8266 Q551.4681,190.6734 551.0306,190.6734 Q550.4947,190.6734 550.0463,190.9031 Q549.6088,191.1328 549.2588,191.6578 Q548.9197,192.1828 548.9197,192.9047 L548.9197,193.6703 Q548.9197,194.5344 549.5431,195.1141 Q550.1666,195.6828 551.2822,195.6828 Q551.9384,195.6828 552.3978,195.5078 Q552.6713,195.3984 552.9666,195.0922 Q553.1525,194.9062 553.2509,194.8516 Q553.3603,194.7969 553.5025,194.7969 Q553.7322,194.7969 553.9072,194.9828 Q554.0931,195.1578 554.0931,195.3984 Q554.0931,195.6391 553.8525,195.9234 Q553.5025,196.3281 552.9447,196.5578 Q552.19,196.875 551.2822,196.875 Q550.2213,196.875 549.3791,196.4375 Q548.69,196.0875 548.2088,195.3437 Q547.7275,194.5891 547.7275,193.6922 L547.7275,192.8828 Q547.7275,191.9531 548.1541,191.1547 Q548.5916,190.3453 549.3572,189.9187 Q550.1228,189.4812 550.9869,189.4812 Q551.5009,189.4812 551.9494,189.6016 Q552.4088,189.7109 552.7916,189.9625 Z " fill="#000000"/><text fill="#000000" font-family="sans-serif" font-size="9.8" lengthAdjust="spacing" textLength="65.906" x="563.368" y="196.9078">MapRepository</text><line style="stroke:#181818;stroke-width:0.3499999999999999;" x1="528.85" x2="642.8796" y1="204.05" y2="204.05"/><line style="stroke:#181818;stroke-width:0.3499999999999999;" x1="528.85" x2="642.8796" y1="209.65" y2="209.65"/><text fill="#000000" font-family="sans-serif" font-size="9.8" lengthAdjust="spacing" textLength="71.0787" x="532.35" y="223.0252">+saveMap(map)</text><text fill="#000000" font-family="sans-serif" font-size="9.8" lengthAdjust="spacing" textLength="107.0296" x="532.35" y="236.06">+getMapByName(name)</text></g><!--class Repositories--><g id="elem_Repositories"><rect codeLine="51" fill="#F1F1F1" height="85.7391" id="Repositories" rx="1.75" ry="1.75" style="stroke:#181818;stroke-width:0.3499999999999999;" width="119.7937" x="526.05" y="14.7"/><ellipse cx="555.8659" cy="25.9" fill="#ADD1B2" rx="7.7" ry="7.7" style="stroke:#181818;stroke-width:0.6999999999999998;"/><path d="M557.8018,23.0125 Q557.9112,22.8594 558.0425,22.7828 Q558.1737,22.7062 558.3268,22.7062 Q558.5893,22.7062 558.7534,22.8922 Q558.9175,23.0672 558.9175,23.4937 L558.9175,24.5109 Q558.9175,24.9375 558.7534,25.1234 Q558.5893,25.3094 558.3268,25.3094 Q558.0862,25.3094 557.944,25.1672 Q557.8018,25.0359 557.7253,24.675 Q557.6925,24.4234 557.5612,24.2922 Q557.3315,24.0297 556.905,23.8766 Q556.4784,23.7234 556.0409,23.7234 Q555.505,23.7234 555.0565,23.9531 Q554.619,24.1828 554.269,24.7078 Q553.93,25.2328 553.93,25.9547 L553.93,26.7203 Q553.93,27.5844 554.5534,28.1641 Q555.1768,28.7328 556.2925,28.7328 Q556.9487,28.7328 557.4081,28.5578 Q557.6815,28.4484 557.9768,28.1422 Q558.1628,27.9562 558.2612,27.9016 Q558.3706,27.8469 558.5128,27.8469 Q558.7425,27.8469 558.9175,28.0328 Q559.1034,28.2078 559.1034,28.4484 Q559.1034,28.6891 558.8628,28.9734 Q558.5128,29.3781 557.955,29.6078 Q557.2003,29.925 556.2925,29.925 Q555.2315,29.925 554.3893,29.4875 Q553.7003,29.1375 553.219,28.3937 Q552.7378,27.6391 552.7378,26.7422 L552.7378,25.9328 Q552.7378,25.0031 553.1643,24.2047 Q553.6018,23.3953 554.3675,22.9687 Q555.1331,22.5312 555.9971,22.5312 Q556.5112,22.5312 556.9596,22.6516 Q557.419,22.7609 557.8018,23.0125 Z " fill="#000000"/><text fill="#000000" font-family="sans-serif" font-size="9.8" lengthAdjust="spacing" textLength="54.4694" x="569.9583" y="29.9578">Repositories</text><line style="stroke:#181818;stroke-width:0.3499999999999999;" x1="526.75" x2="645.1437" y1="37.1" y2="37.1"/><line style="stroke:#181818;stroke-width:0.3499999999999999;" x1="526.75" x2="645.1437" y1="42.7" y2="42.7"/><text fill="#000000" font-family="sans-serif" font-size="9.8" lengthAdjust="spacing" textLength="64.2599" x="530.25" y="56.0752">-Repositories()</text><text fill="#000000" font-family="sans-serif" font-size="9.8" lengthAdjust="spacing" text-decoration="underline" textLength="62.92" x="530.25" y="69.11">+getInstance()</text><text fill="#000000" font-family="sans-serif" font-size="9.8" lengthAdjust="spacing" textLength="91.7793" x="530.25" y="82.1447">+getMapRepository()</text><text fill="#000000" font-family="sans-serif" font-size="9.8" lengthAdjust="spacing" textLength="111.3937" x="530.25" y="95.1795">+getScenarioRepository()</text></g><!--class CreateMapController--><g id="elem_CreateMapController"><rect codeLine="58" fill="#F1F1F1" height="85.7391" id="CreateMapController" rx="1.75" ry="1.75" style="stroke:#181818;stroke-width:0.3499999999999999;" width="179.7134" x="321.65" y="14.7"/><ellipse cx="363.0512" cy="25.9" fill="#ADD1B2" rx="7.7" ry="7.7" style="stroke:#181818;stroke-width:0.6999999999999998;"/><path d="M364.9871,23.0125 Q365.0965,22.8594 365.2277,22.7828 Q365.359,22.7062 365.5121,22.7062 Q365.7746,22.7062 365.9387,22.8922 Q366.1027,23.0672 366.1027,23.4937 L366.1027,24.5109 Q366.1027,24.9375 365.9387,25.1234 Q365.7746,25.3094 365.5121,25.3094 Q365.2715,25.3094 365.1293,25.1672 Q364.9871,25.0359 364.9105,24.675 Q364.8777,24.4234 364.7465,24.2922 Q364.5168,24.0297 364.0902,23.8766 Q363.6637,23.7234 363.2262,23.7234 Q362.6902,23.7234 362.2418,23.9531 Q361.8043,24.1828 361.4543,24.7078 Q361.1152,25.2328 361.1152,25.9547 L361.1152,26.7203 Q361.1152,27.5844 361.7387,28.1641 Q362.3621,28.7328 363.4777,28.7328 Q364.134,28.7328 364.5934,28.5578 Q364.8668,28.4484 365.1621,28.1422 Q365.348,27.9562 365.4465,27.9016 Q365.5559,27.8469 365.698,27.8469 Q365.9277,27.8469 366.1027,28.0328 Q366.2887,28.2078 366.2887,28.4484 Q366.2887,28.6891 366.048,28.9734 Q365.698,29.3781 365.1402,29.6078 Q364.3855,29.925 363.4777,29.925 Q362.4168,29.925 361.5746,29.4875 Q360.8855,29.1375 360.4043,28.3937 Q359.923,27.6391 359.923,26.7422 L359.923,25.9328 Q359.923,25.0031 360.3496,24.2047 Q360.7871,23.3953 361.5527,22.9687 Q362.3184,22.5312 363.1824,22.5312 Q363.6965,22.5312 364.1449,22.6516 Q364.6043,22.7609 364.9871,23.0125 Z " fill="#000000"/><text fill="#000000" font-family="sans-serif" font-size="9.8" lengthAdjust="spacing" textLength="90.961" x="377.4012" y="29.9578">CreateMapController</text><line style="stroke:#181818;stroke-width:0.3499999999999999;" x1="322.35" x2="500.6634" y1="37.1" y2="37.1"/><line style="stroke:#181818;stroke-width:0.3499999999999999;" x1="322.35" x2="500.6634" y1="42.7" y2="42.7"/><text fill="#000000" font-family="sans-serif" font-size="9.8" lengthAdjust="spacing" textLength="103.211" x="325.85" y="56.0752">+CreateMapController()</text><text fill="#000000" font-family="sans-serif" font-size="9.8" lengthAdjust="spacing" textLength="163.1403" x="325.85" y="69.11">+createNewMap(name, width, height)</text><text fill="#000000" font-family="sans-serif" font-size="9.8" lengthAdjust="spacing" textLength="115.7481" x="325.85" y="82.1447">+validateMapName(name)</text><text fill="#000000" font-family="sans-serif" font-size="9.8" lengthAdjust="spacing" textLength="171.3134" x="325.85" y="95.1795">+validateMapDimensions(width, height)</text></g><g id="elem_GMN11"><path d="M724.85,41.65 L724.85,72.8574 L851.8381,72.8574 L851.8381,48.65 L844.8381,41.65 L724.85,41.65 " fill="#FEFFDD" style="stroke:#181818;stroke-width:0.3499999999999999;"/><path d="M844.8381,41.65 L844.8381,48.65 L851.8381,48.65 L844.8381,41.65 " fill="#FEFFDD" style="stroke:#181818;stroke-width:0.6999999999999998;"/><text fill="#000000" font-family="sans-serif" font-size="9.1" lengthAdjust="spacing" textLength="112.2881" x="729.05" y="54.9698">This controller manages the</text><text fill="#000000" font-family="sans-serif" font-size="9.1" lengthAdjust="spacing" textLength="86.9965" x="729.05" y="67.0735">map creation process</text></g><g id="elem_GMN14"><path d="M665.7,356.3 L665.7,387.5074 L778.025,387.5074 L778.025,363.3 L771.025,356.3 L665.7,356.3 " fill="#FEFFDD" style="stroke:#181818;stroke-width:0.3499999999999999;"/><path d="M771.025,356.3 L771.025,363.3 L778.025,363.3 L771.025,356.3 " fill="#FEFFDD" style="stroke:#181818;stroke-width:0.6999999999999998;"/><text fill="#000000" font-family="sans-serif" font-size="9.1" lengthAdjust="spacing" textLength="97.625" x="669.9" y="369.6198">- used for persisting and</text><text fill="#000000" font-family="sans-serif" font-size="9.1" lengthAdjust="spacing" textLength="95.0879" x="669.9" y="381.7235">retrieving created maps</text></g><!--class CreateMapUI--><g id="elem_CreateMapUI"><rect codeLine="75" fill="#F1F1F1" height="33.6" id="CreateMapUI" rx="1.75" ry="1.75" style="stroke:#181818;stroke-width:0.3499999999999999;" width="80.6784" x="216.65" y="40.6"/><ellipse cx="227.15" cy="51.8" fill="#ADD1B2" rx="7.7" ry="7.7" style="stroke:#181818;stroke-width:0.6999999999999998;"/><path d="M229.0859,48.9125 Q229.1953,48.7594 229.3266,48.6828 Q229.4578,48.6062 229.6109,48.6062 Q229.8734,48.6062 230.0375,48.7922 Q230.2016,48.9672 230.2016,49.3937 L230.2016,50.4109 Q230.2016,50.8375 230.0375,51.0234 Q229.8734,51.2094 229.6109,51.2094 Q229.3703,51.2094 229.2281,51.0672 Q229.0859,50.9359 229.0094,50.575 Q228.9766,50.3234 228.8453,50.1922 Q228.6156,49.9297 228.1891,49.7766 Q227.7625,49.6234 227.325,49.6234 Q226.7891,49.6234 226.3406,49.8531 Q225.9031,50.0828 225.5531,50.6078 Q225.2141,51.1328 225.2141,51.8547 L225.2141,52.6203 Q225.2141,53.4844 225.8375,54.0641 Q226.4609,54.6328 227.5766,54.6328 Q228.2328,54.6328 228.6922,54.4578 Q228.9656,54.3484 229.2609,54.0422 Q229.4469,53.8562 229.5453,53.8016 Q229.6547,53.7469 229.7969,53.7469 Q230.0266,53.7469 230.2016,53.9328 Q230.3875,54.1078 230.3875,54.3484 Q230.3875,54.5891 230.1469,54.8734 Q229.7969,55.2781 229.2391,55.5078 Q228.4844,55.825 227.5766,55.825 Q226.5156,55.825 225.6734,55.3875 Q224.9844,55.0375 224.5031,54.2937 Q224.0219,53.5391 224.0219,52.6422 L224.0219,51.8328 Q224.0219,50.9031 224.4484,50.1047 Q224.8859,49.2953 225.6516,48.8687 Q226.4172,48.4312 227.2812,48.4312 Q227.7953,48.4312 228.2437,48.5516 Q228.7031,48.6609 229.0859,48.9125 Z " fill="#000000"/><text fill="#000000" font-family="sans-serif" font-size="9.8" lengthAdjust="spacing" textLength="58.2784" x="236.95" y="55.8578">CreateMapUI</text><line style="stroke:#181818;stroke-width:0.3499999999999999;" x1="217.35" x2="296.6284" y1="63" y2="63"/><line style="stroke:#181818;stroke-width:0.3499999999999999;" x1="217.35" x2="296.6284" y1="68.6" y2="68.6"/></g><!--class Scenario--><g id="elem_Scenario"><rect fill="#F1F1F1" height="33.6" id="Scenario" rx="1.75" ry="1.75" style="stroke:#181818;stroke-width:0.3499999999999999;" width="61.0784" x="579.95" y="355.25"/><ellipse cx="590.45" cy="366.45" fill="#ADD1B2" rx="7.7" ry="7.7" style="stroke:#181818;stroke-width:0.6999999999999998;"/><path d="M592.3859,363.5625 Q592.4953,363.4094 592.6266,363.3328 Q592.7578,363.2562 592.9109,363.2562 Q593.1734,363.2562 593.3375,363.4422 Q593.5016,363.6172 593.5016,364.0437 L593.5016,365.0609 Q593.5016,365.4875 593.3375,365.6734 Q593.1734,365.8594 592.9109,365.8594 Q592.6703,365.8594 592.5281,365.7172 Q592.3859,365.5859 592.3094,365.225 Q592.2766,364.9734 592.1453,364.8422 Q591.9156,364.5797 591.4891,364.4266 Q591.0625,364.2734 590.625,364.2734 Q590.0891,364.2734 589.6406,364.5031 Q589.2031,364.7328 588.8531,365.2578 Q588.5141,365.7828 588.5141,366.5047 L588.5141,367.2703 Q588.5141,368.1344 589.1375,368.7141 Q589.7609,369.2828 590.8766,369.2828 Q591.5328,369.2828 591.9922,369.1078 Q592.2656,368.9984 592.5609,368.6922 Q592.7469,368.5062 592.8453,368.4516 Q592.9547,368.3969 593.0969,368.3969 Q593.3266,368.3969 593.5016,368.5828 Q593.6875,368.7578 593.6875,368.9984 Q593.6875,369.2391 593.4469,369.5234 Q593.0969,369.9281 592.5391,370.1578 Q591.7844,370.475 590.8766,370.475 Q589.8156,370.475 588.9734,370.0375 Q588.2844,369.6875 587.8031,368.9437 Q587.3219,368.1891 587.3219,367.2922 L587.3219,366.4828 Q587.3219,365.5531 587.7484,364.7547 Q588.1859,363.9453 588.9516,363.5187 Q589.7172,363.0812 590.5812,363.0812 Q591.0953,363.0812 591.5437,363.2016 Q592.0031,363.3109 592.3859,363.5625 Z " fill="#000000"/><text fill="#000000" font-family="sans-serif" font-size="9.8" lengthAdjust="spacing" textLength="38.6784" x="600.25" y="370.5078">Scenario</text><line style="stroke:#181818;stroke-width:0.3499999999999999;" x1="580.65" x2="640.3284" y1="377.65" y2="377.65"/><line style="stroke:#181818;stroke-width:0.3499999999999999;" x1="580.65" x2="640.3284" y1="383.25" y2="383.25"/></g><path d="M439.95,359.1 L439.95,365.8519 L367.4467,354.4174 L439.95,371.4519 L439.95,378.2037 A0,0 0 0 0 439.95,378.2037 L555.3054,378.2037 A0,0 0 0 0 555.3054,378.2037 L555.3054,366.1 L548.3054,359.1 L439.95,359.1 A0,0 0 0 0 439.95,359.1 " fill="#FEFFDD" style="stroke:#181818;stroke-width:0.3499999999999999;"/><path d="M548.3054,359.1 L548.3054,366.1 L555.3054,366.1 L548.3054,359.1 " fill="#FEFFDD" style="stroke:#181818;stroke-width:0.3499999999999999;"/><text fill="#000000" font-family="sans-serif" font-size="9.1" lengthAdjust="spacing" textLength="100.6554" x="444.15" y="372.4198">Must be a valid file name</text><path d="M352.8,486.85 L352.8,493.6019 L271.1099,508.4174 L352.8,499.2019 L352.8,505.9537 A0,0 0 0 0 352.8,505.9537 L463.6054,505.9537 A0,0 0 0 0 463.6054,505.9537 L463.6054,493.85 L456.6054,486.85 L352.8,486.85 A0,0 0 0 0 352.8,486.85 " fill="#FEFFDD" style="stroke:#181818;stroke-width:0.3499999999999999;"/><path d="M456.6054,486.85 L456.6054,493.85 L463.6054,493.85 L456.6054,486.85 " fill="#FEFFDD" style="stroke:#181818;stroke-width:0.3499999999999999;"/><text fill="#000000" font-family="sans-serif" font-size="9.1" lengthAdjust="spacing" textLength="96.1054" x="357" y="500.1698">Must be positive integer</text><path d="M352.8,512.9537 L352.8,519.7056 L274.9332,521.4521 L352.8,525.3056 L352.8,532.0574 A0,0 0 0 0 352.8,532.0574 L463.6054,532.0574 A0,0 0 0 0 463.6054,532.0574 L463.6054,519.9537 L456.6054,512.9537 L352.8,512.9537 A0,0 0 0 0 352.8,512.9537 " fill="#FEFFDD" style="stroke:#181818;stroke-width:0.3499999999999999;"/><path d="M456.6054,512.9537 L456.6054,519.9537 L463.6054,519.9537 L456.6054,512.9537 " fill="#FEFFDD" style="stroke:#181818;stroke-width:0.3499999999999999;"/><text fill="#000000" font-family="sans-serif" font-size="9.1" lengthAdjust="spacing" textLength="96.1054" x="357" y="526.2735">Must be positive integer</text><!--link CreateMapController to GMN11--><g id="link_CreateMapController_GMN11"><path d="M501.781,15.484 C515.963,8.89 526.05,4.2 526.05,4.2 C526.05,4.2 700.35,4.2 700.35,4.2 C700.35,4.2 736.183,25.9 762.083,41.58 " fill="none" id="CreateMapController-GMN11" style="stroke:#181818;stroke-width:0.6999999999999998;stroke-dasharray:7.0,7.0;"/></g><!--link MapRepository to GMN14--><g id="link_MapRepository_GMN14"><path d="M623.112,241.206 C640.143,254.527 656.6,267.4 656.6,267.4 C656.6,267.4 706.3,288.4 706.3,288.4 C706.3,288.4 714.427,332.192 718.872,356.139 " fill="none" id="MapRepository-GMN14" style="stroke:#181818;stroke-width:0.6999999999999998;stroke-dasharray:7.0,7.0;"/></g><!--link CreateMapUI to CreateMapController--><g id="link_CreateMapUI_CreateMapController"><path codeLine="78" d="M297.276,57.4 C303.8,57.4 308.469,57.4 308.469,57.4 C308.469,57.4 309.82,57.4 317.282,57.4 " fill="none" id="CreateMapUI-to-CreateMapController" style="stroke:#181818;stroke-width:0.6999999999999998;stroke-dasharray:7.0,7.0;"/><polygon fill="#181818" points="321.482,57.4,315.182,54.6,317.982,57.4,315.182,60.2,321.482,57.4" style="stroke:#181818;stroke-width:0.6999999999999998;"/></g><!--link CreateMapController to ApplicationSession--><g id="link_CreateMapController_ApplicationSession"><path codeLine="80" d="M321.524,95.116 C314.118,98.161 309.4,100.1 309.4,100.1 C309.4,100.1 236.6,121.1 236.6,121.1 C236.6,121.1 199.4577,147.5129 164.3667,172.4679 " fill="none" id="CreateMapController-to-ApplicationSession" style="stroke:#181818;stroke-width:0.6999999999999998;stroke-dasharray:7.0,7.0;"/><polygon fill="#181818" points="160.944,174.902,167.7008,173.5327,163.7963,172.8736,164.4554,168.969,160.944,174.902" style="stroke:#181818;stroke-width:0.6999999999999998;"/></g><!--link CreateMapController to UserSession--><g id="link_CreateMapController_UserSession"><path codeLine="81" d="M321.524,95.116 C314.118,98.161 309.4,100.1 309.4,100.1 C309.4,100.1 45.5,155.4 45.5,155.4 C45.5,155.4 45.5,267.4 45.5,267.4 C45.5,267.4 47.9975,313.7461 49.6425,344.3431 " fill="none" id="CreateMapController-to-UserSession" style="stroke:#181818;stroke-width:0.6999999999999998;stroke-dasharray:7.0,7.0;"/><polygon fill="#181818" points="49.868,348.537,52.3257,342.0958,49.6801,345.042,46.7338,342.3964,49.868,348.537" style="stroke:#181818;stroke-width:0.6999999999999998;"/></g><!--link CreateMapController to MapRepository--><g id="link_CreateMapController_MapRepository"><path codeLine="82" d="M459.69,100.205 C489.216,126.049 523.1209,155.7344 549.4269,178.7644 " fill="none" id="CreateMapController-to-MapRepository" style="stroke:#181818;stroke-width:0.6999999999999998;stroke-dasharray:7.0,7.0;"/><polygon fill="#181818" points="552.587,181.531,549.6912,175.2744,549.9536,179.2255,546.0025,179.4879,552.587,181.531" style="stroke:#181818;stroke-width:0.6999999999999998;"/></g><!--link CreateMapController to ScenarioRepository--><g id="link_CreateMapController_ScenarioRepository"><path codeLine="83" d="M501.676,95.116 C509.082,98.161 513.8,100.1 513.8,100.1 C513.8,100.1 653.8,121.1 653.8,121.1 C653.8,121.1 682.0324,157.9805 702.3604,184.5245 " fill="none" id="CreateMapController-to-ScenarioRepository" style="stroke:#181818;stroke-width:0.6999999999999998;stroke-dasharray:7.0,7.0;"/><polygon fill="#181818" points="704.914,187.859,703.3065,181.1548,702.786,185.0802,698.8605,184.5597,704.914,187.859" style="stroke:#181818;stroke-width:0.6999999999999998;"/></g><!--link CreateMapController to Editor--><g id="link_CreateMapController_Editor"><path codeLine="84" d="M414.687,100.205 C415.94,117.229 417.0964,132.9342 418.4264,151.1062 " fill="none" id="CreateMapController-to-Editor" style="stroke:#181818;stroke-width:0.6999999999999998;stroke-dasharray:7.0,7.0;"/><polygon fill="#181818" points="418.733,155.295,421.0657,148.8074,418.4775,151.8043,415.4806,149.2162,418.733,155.295" style="stroke:#181818;stroke-width:0.6999999999999998;"/></g><!--link CreateMapController to Map--><g id="link_CreateMapController_Map"><path codeLine="85" d="M376.152,100.212 C354.018,126.511 329.7,155.4 329.7,155.4 C329.7,155.4 329.7,267.4 329.7,267.4 C329.7,267.4 335.1886,291.362 341.3626,318.326 " fill="none" id="CreateMapController-to-Map" style="stroke:#181818;stroke-width:0.6999999999999998;stroke-dasharray:7.0,7.0;"/><polygon fill="#181818" points="342.3,322.42,343.6232,315.654,341.5188,319.0083,338.1645,316.9039,342.3,322.42" style="stroke:#181818;stroke-width:0.6999999999999998;"/></g><!--link CreateMapController to Size--><g id="link_CreateMapController_Size"><path codeLine="86" d="M365.379,100.121 C352.667,111.678 342.3,121.1 342.3,121.1 C342.3,121.1 324.1,155.4 324.1,155.4 C324.1,155.4 279.3,322.7 279.3,322.7 C279.3,322.7 277.209,417.299 275.991,472.298 " fill="none" id="CreateMapController-to-Size" style="stroke:#181818;stroke-width:0.6999999999999998;stroke-dasharray:7.0,7.0;"/><polygon fill="#181818" points="275.898,476.497,278.8368,470.2605,275.9755,472.9979,273.2382,470.1366,275.898,476.497" style="stroke:#181818;stroke-width:0.6999999999999998;"/></g><!--link CreateMapController to Repositories--><g id="link_CreateMapController_Repositories"><path codeLine="87" d="M501.809,57.4 C512.099,57.4 517.664,57.4 521.682,57.4 " fill="none" id="CreateMapController-to-Repositories" style="stroke:#181818;stroke-width:0.6999999999999998;stroke-dasharray:7.0,7.0;"/><polygon fill="#181818" points="525.882,57.4,519.582,54.6,522.382,57.4,519.582,60.2,525.882,57.4" style="stroke:#181818;stroke-width:0.6999999999999998;"/></g><!--link Repositories to Repositories--><g id="link_Repositories_Repositories"><path codeLine="89" d="M645.792,44.534 C659.869,45.591 670.25,49.882 670.25,57.4 C670.25,64.918 664.0572,68.8945 649.9802,69.9515 " fill="none" id="Repositories-to-Repositories" style="stroke:#181818;stroke-width:0.6999999999999998;"/><polygon fill="#181818" points="645.792,70.266,652.284,72.5864,649.2822,70.0039,651.8647,67.0021,645.792,70.266" style="stroke:#181818;stroke-width:0.6999999999999998;"/><text fill="#000000" font-family="sans-serif" font-size="9.1" lengthAdjust="spacing" textLength="33.8939" x="674.45" y="61.2698">instance</text><text fill="#000000" font-family="sans-serif" font-size="9.1" lengthAdjust="spacing" textLength="5.061" x="651.3473" y="68.7958">1</text></g><!--link Repositories to MapRepository--><g id="link_Repositories_MapRepository"><path codeLine="90" d="M585.9,100.205 C585.9,126.049 585.9,154.301 585.9,177.331 " fill="none" id="Repositories-to-MapRepository" style="stroke:#181818;stroke-width:0.6999999999999998;"/><polygon fill="#181818" points="585.9,181.531,588.7,175.231,585.9,178.031,583.1,175.231,585.9,181.531" style="stroke:#181818;stroke-width:0.6999999999999998;"/><text fill="#000000" font-family="sans-serif" font-size="9.1" lengthAdjust="spacing" textLength="61.1984" x="586.6" y="131.6198">mapRepository</text><text fill="#000000" font-family="sans-serif" font-size="9.1" lengthAdjust="spacing" textLength="5.061" x="580.628" y="173.7449">1</text></g><!--link Repositories to ScenarioRepository--><g id="link_Repositories_ScenarioRepository"><path codeLine="91" d="M645.967,94.381 C669.151,108.388 690.2,121.1 690.2,121.1 C690.2,121.1 703.2273,157.3626 712.7683,183.9066 " fill="none" id="Repositories-to-ScenarioRepository" style="stroke:#181818;stroke-width:0.6999999999999998;"/><polygon fill="#181818" points="714.189,187.859,714.693,180.9832,713.0051,184.5653,709.423,182.8775,714.189,187.859" style="stroke:#181818;stroke-width:0.6999999999999998;"/><text fill="#000000" font-family="sans-serif" font-size="9.1" lengthAdjust="spacing" textLength="77.8921" x="695.1" y="131.6198">scenarioRepository</text><text fill="#000000" font-family="sans-serif" font-size="9.1" lengthAdjust="spacing" textLength="5.061" x="707.1941" y="180.0189">1</text></g><!--link ApplicationSession to ApplicationSession--><g id="link_ApplicationSession_ApplicationSession"><path codeLine="93" d="M163.142,196.049 C177.058,196.924 187.6,202.041 187.6,211.4 C187.6,220.759 181.2497,225.6124 167.3337,226.4874 " fill="none" id="ApplicationSession-to-ApplicationSession" style="stroke:#181818;stroke-width:0.6999999999999998;"/><polygon fill="#181818" points="163.142,226.751,169.6053,229.1501,166.6351,226.5314,169.2539,223.5612,163.142,226.751" style="stroke:#181818;stroke-width:0.6999999999999998;"/><text fill="#000000" font-family="sans-serif" font-size="9.1" lengthAdjust="spacing" textLength="33.8939" x="191.8" y="215.2698">instance</text><text fill="#000000" font-family="sans-serif" font-size="9.1" lengthAdjust="spacing" textLength="5.061" x="168.8107" y="225.6557">1</text></g><!--link ApplicationSession to UserSession--><g id="link_ApplicationSession_UserSession"><path codeLine="94" d="M97.244,247.842 C85.736,278.649 70.9318,318.283 61.0968,344.589 " fill="none" id="ApplicationSession-to-UserSession" style="stroke:#181818;stroke-width:0.6999999999999998;stroke-dasharray:7.0,7.0;"/><polygon fill="#181818" points="59.626,348.523,64.4549,343.6025,60.8517,345.2446,59.2095,341.6414,59.626,348.523" style="stroke:#181818;stroke-width:0.6999999999999998;"/></g><!--link MapRepository to Map--><g id="link_MapRepository_Map"><path codeLine="96" d="M549.052,241.206 C532.189,254.527 515.9,267.4 515.9,267.4 C515.9,267.4 427.7,322.7 427.7,322.7 C427.7,322.7 426.1302,323.7288 418.6262,328.6498 " fill="none" id="MapRepository-to-Map" style="stroke:#181818;stroke-width:0.6999999999999998;"/><polygon fill="#181818" points="415.114,330.953,421.9177,329.8396,418.0408,329.0337,418.8468,325.1567,415.114,330.953" style="stroke:#181818;stroke-width:0.6999999999999998;"/><text fill="#000000" font-family="sans-serif" font-size="9.1" lengthAdjust="spacing" textLength="22.2523" x="482.3" y="298.9198">maps</text><text fill="#000000" font-family="sans-serif" font-size="9.1" lengthAdjust="spacing" textLength="3.5414" x="420.7534" y="324.6885">*</text></g><!--link ScenarioRepository to Scenario--><g id="link_ScenarioRepository_Scenario"><path codeLine="98" d="M706.356,234.92 C683.431,267.512 644.2812,323.1706 624.2332,351.6746 " fill="none" id="ScenarioRepository-to-Scenario" style="stroke:#181818;stroke-width:0.6999999999999998;"/><polygon fill="#181818" points="621.817,355.11,627.7316,351.5678,623.8305,352.2472,623.1511,348.3461,621.817,355.11" style="stroke:#181818;stroke-width:0.6999999999999998;"/><text fill="#000000" font-family="sans-serif" font-size="9.1" lengthAdjust="spacing" textLength="38.946" x="667.1" y="298.9198">scenarios</text><text fill="#000000" font-family="sans-serif" font-size="9.1" lengthAdjust="spacing" textLength="3.5414" x="620.6566" y="347.4752">*</text></g><!--link Editor to Map--><g id="link_Editor_Map"><path codeLine="100" d="M398.657,267.575 C390.887,285.439 382.333,305.095 374.78,322.448 " fill="none" id="Editor-Map" style="stroke:#181818;stroke-width:0.6999999999999998;"/><polygon fill="#000000" points="390.6035,298.3612,395.0162,293.3763,391.2434,291.7346,390.6035,298.3612" style="stroke:#000000;stroke-width:0.6999999999999998;"/><text fill="#000000" font-family="sans-serif" font-size="9.1" lengthAdjust="spacing" textLength="29.8416" x="398.3" y="298.9198">creates</text><text fill="#000000" font-family="sans-serif" font-size="9.1" lengthAdjust="spacing" textLength="5.061" x="391.5709" y="282.5559">1</text><text fill="#000000" font-family="sans-serif" font-size="9.1" lengthAdjust="spacing" textLength="3.5414" x="373.2895" y="314.6457">*</text></g><!--link Editor to Scenario--><g id="link_Editor_Scenario"><path codeLine="101" d="M495.46,267.561 C531.615,295.155 567.7,322.7 567.7,322.7 C567.7,322.7 583.758,340.998 596.183,355.152 " fill="none" id="Editor-Scenario" style="stroke:#181818;stroke-width:0.6999999999999998;"/><polygon fill="#000000" points="545.841,297.4486,542.4133,291.7414,539.7134,294.8461,545.841,297.4486" style="stroke:#000000;stroke-width:0.6999999999999998;"/><text fill="#000000" font-family="sans-serif" font-size="9.1" lengthAdjust="spacing" textLength="29.8416" x="549.5" y="298.9198">creates</text><text fill="#000000" font-family="sans-serif" font-size="9.1" lengthAdjust="spacing" textLength="5.061" x="496.3904" y="282.5408">1</text><text fill="#000000" font-family="sans-serif" font-size="9.1" lengthAdjust="spacing" textLength="3.5414" x="588.5739" y="347.2431">*</text></g><!--link Map to Size--><g id="link_Map_Size"><path codeLine="102" d="M326.081,421.596 C315.924,439.684 304.605,459.844 295.218,476.567 " fill="none" id="Map-Size" style="stroke:#181818;stroke-width:0.6999999999999998;"/><polygon fill="#000000" points="316.0865,452.2037,320.9801,447.69,317.3924,445.6757,316.0865,452.2037" style="stroke:#000000;stroke-width:0.6999999999999998;"/><text fill="#000000" font-family="sans-serif" font-size="9.1" lengthAdjust="spacing" textLength="14.672" x="324.1" y="452.9198">has</text><text fill="#000000" font-family="sans-serif" font-size="9.1" lengthAdjust="spacing" textLength="5.061" x="318.2423" y="436.8851">1</text><text fill="#000000" font-family="sans-serif" font-size="9.1" lengthAdjust="spacing" textLength="5.061" x="292.708" y="468.7983">1</text></g><!--SRC=[ZLPBRjim4Dth54HMRXi7xLOe3AHE5mQQBEhc0BGqbeX8f43IDjGWT- -G56bIfjDautZUVDvyQVN2-40bxSb0gnVQm5QF7H09bQQywQ1GGK6rj1OdnXkofvsAaOvnqEC0P13TQBv4MDLHfUwrbcntqB2f1D-olq2-5eL5oFqmTAoYcY40Ik47UIq8_YqpqEAJXRwGLwLHNhsH1lI6unTUGG1HjZv82LoVpTvyl6S5CWqK6_oicHOordUImEc0vfpsG4gonPnuCya7r3q9MS_bbGIgeNwaWqBe5rFwE_w_Ij5j1PnA9eAA5woAYQ5JHCk52NvBJgpMxIrfWJMjzddJsiHPz7I8-ACaa3UscuSvHMNwWJByyBIOPX38h9aUFM76wuD2upEwSP8nK3tIZjL8zWc3nOMqRVTCB7zqmRYU92wLIJHpzS1wuAPZAd4u5Uat34AP9esPXdgbHLgIZ8sYHmZb2svGycEqgPZYHKw21rCBdrOi_F2i9dHYu3B1E8kr7ucru5gAhWCPSibWmR4RfISu_MUQVF5HBSh_0ejwCtE3JBdGU4jiOyK-nyhw-zCoHQfp5ZtbU8WKqQqRIEo8OsrsTf2YmlKjWDV4k9-2x8JMeZTHadAUjxOcUrpZ0QJ2gJL7ZFBQeXBCF1-DQ5f74p0ECAltymRhZCd5WhjLDhiYrwGxLBuyRLTLeuDrLIVD-PhMvJnTLNLNxxrurwEOEv85Lyb-54MoGiiLkVbsawwLEGPkNsQwatAwoANfMvHRrYHpD4gYBWjJPDwboKK6YOXcq7aNYvItfVRPPkDomD9aQ7er3qMyqM1wfWo_vJ9ovqPQaLL68_9qLZDcNiVKopqEBJNOR9zHjIpTcs8twH4V0h83Gjrz87k6loGCFb_MuC5uBqjxDn8FDcbs1FCOG8EBzBu3Tt4-vk4V]--></g></svg>