<svg xmlns="http://www.w3.org/2000/svg" xmlns:xlink="http://www.w3.org/1999/xlink" contentStyleType="text/css" height="946.4px" preserveAspectRatio="none" style="width:893px;height:946px;background:#FFFFFF;" version="1.1" viewBox="0 0 893 946" width="893.6px" zoomAndPan="magnify"><title>Class Diagram: US01 - Create a Map</title><defs/><g><text fill="#000000" font-family="sans-serif" font-size="11.2" font-weight="bold" lengthAdjust="spacing" textLength="192.3414" x="345.3736" y="20.0859">Class Diagram: US01 - Create a Map</text><!--class CreateMapUI--><g id="elem_CreateMapUI"><rect codeLine="7" fill="#F1F1F1" height="97.9875" id="CreateMapUI" rx="2" ry="2" style="stroke:#181818;stroke-width:0.4000000000000001;" width="271.9961" x="479.2" y="37.2969"/><ellipse cx="578.4961" cy="50.0969" fill="#ADD1B2" rx="8.8" ry="8.8" style="stroke:#181818;stroke-width:0.8000000000000002;"/><path d="M580.7086,46.7969 Q580.8336,46.6219 580.9836,46.5344 Q581.1336,46.4469 581.3086,46.4469 Q581.6086,46.4469 581.7961,46.6594 Q581.9836,46.8594 581.9836,47.3469 L581.9836,48.5094 Q581.9836,48.9969 581.7961,49.2094 Q581.6086,49.4219 581.3086,49.4219 Q581.0336,49.4219 580.8711,49.2594 Q580.7086,49.1094 580.6211,48.6969 Q580.5836,48.4094 580.4336,48.2594 Q580.1711,47.9594 579.6836,47.7844 Q579.1961,47.6094 578.6961,47.6094 Q578.0836,47.6094 577.5711,47.8719 Q577.0711,48.1344 576.6711,48.7344 Q576.2836,49.3344 576.2836,50.1594 L576.2836,51.0344 Q576.2836,52.0219 576.9961,52.6844 Q577.7086,53.3344 578.9836,53.3344 Q579.7336,53.3344 580.2586,53.1344 Q580.5711,53.0094 580.9086,52.6594 Q581.1211,52.4469 581.2336,52.3844 Q581.3586,52.3219 581.5211,52.3219 Q581.7836,52.3219 581.9836,52.5344 Q582.1961,52.7344 582.1961,53.0094 Q582.1961,53.2844 581.9211,53.6094 Q581.5211,54.0719 580.8836,54.3344 Q580.0211,54.6969 578.9836,54.6969 Q577.7711,54.6969 576.8086,54.1969 Q576.0211,53.7969 575.4711,52.9469 Q574.9211,52.0844 574.9211,51.0594 L574.9211,50.1344 Q574.9211,49.0719 575.4086,48.1594 Q575.9086,47.2344 576.7836,46.7469 Q577.6586,46.2469 578.6461,46.2469 Q579.2336,46.2469 579.7461,46.3844 Q580.2711,46.5094 580.7086,46.7969 Z " fill="#000000"/><text fill="#000000" font-family="sans-serif" font-size="11.2" lengthAdjust="spacing" textLength="66.6039" x="594.8961" y="54.7344">CreateMapUI</text><line style="stroke:#181818;stroke-width:0.4000000000000001;" x1="480" x2="750.3961" y1="62.8969" y2="62.8969"/><line style="stroke:#181818;stroke-width:0.4000000000000001;" x1="480" x2="750.3961" y1="69.2969" y2="69.2969"/><text fill="#000000" font-family="sans-serif" font-size="11.2" lengthAdjust="spacing" textLength="152.8242" x="484" y="84.5828">+displayRequestForMapData()</text><text fill="#000000" font-family="sans-serif" font-size="11.2" lengthAdjust="spacing" textLength="262.3961" x="484" y="99.4797">+displayConfirmationRequest(nameID, width, height)</text><text fill="#000000" font-family="sans-serif" font-size="11.2" lengthAdjust="spacing" textLength="112.9789" x="484" y="114.3766">+displaySuccess(map)</text><text fill="#000000" font-family="sans-serif" font-size="11.2" lengthAdjust="spacing" textLength="126.6727" x="484" y="129.2734">+displayMapDetails(map)</text></g><!--class CreateMapController--><g id="elem_CreateMapController"><rect codeLine="14" fill="#F1F1F1" height="83.0906" id="CreateMapController" rx="2" ry="2" style="stroke:#181818;stroke-width:0.4000000000000001;" width="265.1711" x="265.2" y="198.0969"/><ellipse cx="342.4078" cy="210.8969" fill="#ADD1B2" rx="8.8" ry="8.8" style="stroke:#181818;stroke-width:0.8000000000000002;"/><path d="M344.6203,207.5969 Q344.7453,207.4219 344.8953,207.3344 Q345.0453,207.2469 345.2203,207.2469 Q345.5203,207.2469 345.7078,207.4594 Q345.8953,207.6594 345.8953,208.1469 L345.8953,209.3094 Q345.8953,209.7969 345.7078,210.0094 Q345.5203,210.2219 345.2203,210.2219 Q344.9453,210.2219 344.7828,210.0594 Q344.6203,209.9094 344.5328,209.4969 Q344.4953,209.2094 344.3453,209.0594 Q344.0828,208.7594 343.5953,208.5844 Q343.1078,208.4094 342.6078,208.4094 Q341.9953,208.4094 341.4828,208.6719 Q340.9828,208.9344 340.5828,209.5344 Q340.1953,210.1344 340.1953,210.9594 L340.1953,211.8344 Q340.1953,212.8219 340.9078,213.4844 Q341.6203,214.1344 342.8953,214.1344 Q343.6453,214.1344 344.1703,213.9344 Q344.4828,213.8094 344.8203,213.4594 Q345.0328,213.2469 345.1453,213.1844 Q345.2703,213.1219 345.4328,213.1219 Q345.6953,213.1219 345.8953,213.3344 Q346.1078,213.5344 346.1078,213.8094 Q346.1078,214.0844 345.8328,214.4094 Q345.4328,214.8719 344.7953,215.1344 Q343.9328,215.4969 342.8953,215.4969 Q341.6828,215.4969 340.7203,214.9969 Q339.9328,214.5969 339.3828,213.7469 Q338.8328,212.8844 338.8328,211.8594 L338.8328,210.9344 Q338.8328,209.8719 339.3203,208.9594 Q339.8203,208.0344 340.6953,207.5469 Q341.5703,207.0469 342.5578,207.0469 Q343.1453,207.0469 343.6578,207.1844 Q344.1828,207.3094 344.6203,207.5969 Z " fill="#000000"/><text fill="#000000" font-family="sans-serif" font-size="11.2" lengthAdjust="spacing" textLength="103.9555" x="358.8078" y="215.5344">CreateMapController</text><line style="stroke:#181818;stroke-width:0.4000000000000001;" x1="266" x2="529.5711" y1="223.6969" y2="223.6969"/><line style="stroke:#181818;stroke-width:0.4000000000000001;" x1="266" x2="529.5711" y1="230.0969" y2="230.0969"/><text fill="#000000" font-family="sans-serif" font-size="11.2" lengthAdjust="spacing" textLength="45.1281" x="270" y="245.3828">+create()</text><text fill="#000000" font-family="sans-serif" font-size="11.2" lengthAdjust="spacing" textLength="255.5711" x="270" y="260.2797">+validateMapData(nameID, width, height) : boolean</text><text fill="#000000" font-family="sans-serif" font-size="11.2" lengthAdjust="spacing" textLength="206.3633" x="270" y="275.1766">+createMap(nameID, width, height) : Map</text></g><!--class MapRepository--><g id="elem_MapRepository"><rect codeLine="20" fill="#F1F1F1" height="68.1938" id="MapRepository" rx="2" ry="2" style="stroke:#181818;stroke-width:0.4000000000000001;" width="155.5664" x="218.4" y="498.0969"/><ellipse cx="255.1227" cy="510.8969" fill="#ADD1B2" rx="8.8" ry="8.8" style="stroke:#181818;stroke-width:0.8000000000000002;"/><path d="M257.3352,507.5969 Q257.4602,507.4219 257.6102,507.3344 Q257.7602,507.2469 257.9352,507.2469 Q258.2352,507.2469 258.4227,507.4594 Q258.6102,507.6594 258.6102,508.1469 L258.6102,509.3094 Q258.6102,509.7969 258.4227,510.0094 Q258.2352,510.2219 257.9352,510.2219 Q257.6602,510.2219 257.4977,510.0594 Q257.3352,509.9094 257.2477,509.4969 Q257.2102,509.2094 257.0602,509.0594 Q256.7977,508.7594 256.3102,508.5844 Q255.8227,508.4094 255.3227,508.4094 Q254.7102,508.4094 254.1977,508.6719 Q253.6977,508.9344 253.2977,509.5344 Q252.9102,510.1344 252.9102,510.9594 L252.9102,511.8344 Q252.9102,512.8219 253.6227,513.4844 Q254.3352,514.1344 255.6102,514.1344 Q256.3602,514.1344 256.8852,513.9344 Q257.1977,513.8094 257.5352,513.4594 Q257.7477,513.2469 257.8602,513.1844 Q257.9852,513.1219 258.1477,513.1219 Q258.4102,513.1219 258.6102,513.3344 Q258.8227,513.5344 258.8227,513.8094 Q258.8227,514.0844 258.5477,514.4094 Q258.1477,514.8719 257.5102,515.1344 Q256.6477,515.4969 255.6102,515.4969 Q254.3977,515.4969 253.4352,514.9969 Q252.6477,514.5969 252.0977,513.7469 Q251.5477,512.8844 251.5477,511.8594 L251.5477,510.9344 Q251.5477,509.8719 252.0352,508.9594 Q252.5352,508.0344 253.4102,507.5469 Q254.2852,507.0469 255.2727,507.0469 Q255.8602,507.0469 256.3727,507.1844 Q256.8977,507.3094 257.3352,507.5969 Z " fill="#000000"/><text fill="#000000" font-family="sans-serif" font-size="11.2" lengthAdjust="spacing" textLength="75.3211" x="271.5227" y="515.5344">MapRepository</text><line style="stroke:#181818;stroke-width:0.4000000000000001;" x1="219.2" x2="373.1664" y1="523.6969" y2="523.6969"/><line style="stroke:#181818;stroke-width:0.4000000000000001;" x1="219.2" x2="373.1664" y1="530.0969" y2="530.0969"/><text fill="#000000" font-family="sans-serif" font-size="11.2" lengthAdjust="spacing" textLength="108.6422" x="223.2" y="545.3828">+save(map) : boolean</text><text fill="#000000" font-family="sans-serif" font-size="11.2" lengthAdjust="spacing" textLength="145.9664" x="223.2" y="560.2797">+getMapByID(nameID) : Map</text></g><!--class Repositories--><g id="elem_Repositories"><rect codeLine="25" fill="#F1F1F1" height="68.1938" id="Repositories" rx="2" ry="2" style="stroke:#181818;stroke-width:0.4000000000000001;" width="199.1469" x="298" y="344.4969"/><ellipse cx="363.048" cy="357.2969" fill="#ADD1B2" rx="8.8" ry="8.8" style="stroke:#181818;stroke-width:0.8000000000000002;"/><path d="M365.2605,353.9969 Q365.3855,353.8219 365.5355,353.7344 Q365.6855,353.6469 365.8605,353.6469 Q366.1605,353.6469 366.348,353.8594 Q366.5355,354.0594 366.5355,354.5469 L366.5355,355.7094 Q366.5355,356.1969 366.348,356.4094 Q366.1605,356.6219 365.8605,356.6219 Q365.5855,356.6219 365.423,356.4594 Q365.2605,356.3094 365.173,355.8969 Q365.1355,355.6094 364.9855,355.4594 Q364.723,355.1594 364.2355,354.9844 Q363.748,354.8094 363.248,354.8094 Q362.6355,354.8094 362.123,355.0719 Q361.623,355.3344 361.223,355.9344 Q360.8355,356.5344 360.8355,357.3594 L360.8355,358.2344 Q360.8355,359.2219 361.548,359.8844 Q362.2605,360.5344 363.5355,360.5344 Q364.2855,360.5344 364.8105,360.3344 Q365.123,360.2094 365.4605,359.8594 Q365.673,359.6469 365.7855,359.5844 Q365.9105,359.5219 366.073,359.5219 Q366.3355,359.5219 366.5355,359.7344 Q366.748,359.9344 366.748,360.2094 Q366.748,360.4844 366.473,360.8094 Q366.073,361.2719 365.4355,361.5344 Q364.573,361.8969 363.5355,361.8969 Q362.323,361.8969 361.3605,361.3969 Q360.573,360.9969 360.023,360.1469 Q359.473,359.2844 359.473,358.2594 L359.473,357.3344 Q359.473,356.2719 359.9605,355.3594 Q360.4605,354.4344 361.3355,353.9469 Q362.2105,353.4469 363.198,353.4469 Q363.7855,353.4469 364.298,353.5844 Q364.823,353.7094 365.2605,353.9969 Z " fill="#000000"/><text fill="#000000" font-family="sans-serif" font-size="11.2" lengthAdjust="spacing" textLength="62.2508" x="379.448" y="361.9344">Repositories</text><line style="stroke:#181818;stroke-width:0.4000000000000001;" x1="298.8" x2="496.3469" y1="370.0969" y2="370.0969"/><line style="stroke:#181818;stroke-width:0.4000000000000001;" x1="298.8" x2="496.3469" y1="376.4969" y2="376.4969"/><text fill="#000000" font-family="sans-serif" font-size="11.2" lengthAdjust="spacing" text-decoration="underline" textLength="143.4945" x="302.8" y="391.7828">+getInstance() : Repositories</text><text fill="#000000" font-family="sans-serif" font-size="11.2" lengthAdjust="spacing" textLength="189.5469" x="302.8" y="406.6797">+getMapRepository() : MapRepository</text></g><!--class ApplicationSession--><g id="elem_ApplicationSession"><rect codeLine="30" fill="#F1F1F1" height="68.1938" id="ApplicationSession" rx="2" ry="2" style="stroke:#181818;stroke-width:0.4000000000000001;" width="185.4805" x="604.8" y="344.4969"/><ellipse cx="646.8219" cy="357.2969" fill="#ADD1B2" rx="8.8" ry="8.8" style="stroke:#181818;stroke-width:0.8000000000000002;"/><path d="M649.0344,353.9969 Q649.1594,353.8219 649.3094,353.7344 Q649.4594,353.6469 649.6344,353.6469 Q649.9344,353.6469 650.1219,353.8594 Q650.3094,354.0594 650.3094,354.5469 L650.3094,355.7094 Q650.3094,356.1969 650.1219,356.4094 Q649.9344,356.6219 649.6344,356.6219 Q649.3594,356.6219 649.1969,356.4594 Q649.0344,356.3094 648.9469,355.8969 Q648.9094,355.6094 648.7594,355.4594 Q648.4969,355.1594 648.0094,354.9844 Q647.5219,354.8094 647.0219,354.8094 Q646.4094,354.8094 645.8969,355.0719 Q645.3969,355.3344 644.9969,355.9344 Q644.6094,356.5344 644.6094,357.3594 L644.6094,358.2344 Q644.6094,359.2219 645.3219,359.8844 Q646.0344,360.5344 647.3094,360.5344 Q648.0594,360.5344 648.5844,360.3344 Q648.8969,360.2094 649.2344,359.8594 Q649.4469,359.6469 649.5594,359.5844 Q649.6844,359.5219 649.8469,359.5219 Q650.1094,359.5219 650.3094,359.7344 Q650.5219,359.9344 650.5219,360.2094 Q650.5219,360.4844 650.2469,360.8094 Q649.8469,361.2719 649.2094,361.5344 Q648.3469,361.8969 647.3094,361.8969 Q646.0969,361.8969 645.1344,361.3969 Q644.3469,360.9969 643.7969,360.1469 Q643.2469,359.2844 643.2469,358.2594 L643.2469,357.3344 Q643.2469,356.2719 643.7344,355.3594 Q644.2344,354.4344 645.1094,353.9469 Q645.9844,353.4469 646.9719,353.4469 Q647.5594,353.4469 648.0719,353.5844 Q648.5969,353.7094 649.0344,353.9969 Z " fill="#000000"/><text fill="#000000" font-family="sans-serif" font-size="11.2" lengthAdjust="spacing" textLength="94.6367" x="663.2219" y="361.9344">ApplicationSession</text><line style="stroke:#181818;stroke-width:0.4000000000000001;" x1="605.6" x2="789.4805" y1="370.0969" y2="370.0969"/><line style="stroke:#181818;stroke-width:0.4000000000000001;" x1="605.6" x2="789.4805" y1="376.4969" y2="376.4969"/><text fill="#000000" font-family="sans-serif" font-size="11.2" lengthAdjust="spacing" text-decoration="underline" textLength="175.8805" x="609.6" y="391.7828">+getInstance() : ApplicationSession</text><text fill="#000000" font-family="sans-serif" font-size="11.2" lengthAdjust="spacing" textLength="145.3539" x="609.6" y="406.6797">+getCurrentSession() : Editor</text></g><!--class Map--><g id="elem_Map"><rect codeLine="35" fill="#F1F1F1" height="127.7813" id="Map" rx="2" ry="2" style="stroke:#181818;stroke-width:0.4000000000000001;" width="236.4875" x="159.2" y="651.6969"/><ellipse cx="263.15" cy="664.4969" fill="#ADD1B2" rx="8.8" ry="8.8" style="stroke:#181818;stroke-width:0.8000000000000002;"/><path d="M265.3625,661.1969 Q265.4875,661.0219 265.6375,660.9344 Q265.7875,660.8469 265.9625,660.8469 Q266.2625,660.8469 266.45,661.0594 Q266.6375,661.2594 266.6375,661.7469 L266.6375,662.9094 Q266.6375,663.3969 266.45,663.6094 Q266.2625,663.8219 265.9625,663.8219 Q265.6875,663.8219 265.525,663.6594 Q265.3625,663.5094 265.275,663.0969 Q265.2375,662.8094 265.0875,662.6594 Q264.825,662.3594 264.3375,662.1844 Q263.85,662.0094 263.35,662.0094 Q262.7375,662.0094 262.225,662.2719 Q261.725,662.5344 261.325,663.1344 Q260.9375,663.7344 260.9375,664.5594 L260.9375,665.4344 Q260.9375,666.4219 261.65,667.0844 Q262.3625,667.7344 263.6375,667.7344 Q264.3875,667.7344 264.9125,667.5344 Q265.225,667.4094 265.5625,667.0594 Q265.775,666.8469 265.8875,666.7844 Q266.0125,666.7219 266.175,666.7219 Q266.4375,666.7219 266.6375,666.9344 Q266.85,667.1344 266.85,667.4094 Q266.85,667.6844 266.575,668.0094 Q266.175,668.4719 265.5375,668.7344 Q264.675,669.0969 263.6375,669.0969 Q262.425,669.0969 261.4625,668.5969 Q260.675,668.1969 260.125,667.3469 Q259.575,666.4844 259.575,665.4594 L259.575,664.5344 Q259.575,663.4719 260.0625,662.5594 Q260.5625,661.6344 261.4375,661.1469 Q262.3125,660.6469 263.3,660.6469 Q263.8875,660.6469 264.4,660.7844 Q264.925,660.9094 265.3625,661.1969 Z " fill="#000000"/><text fill="#000000" font-family="sans-serif" font-size="11.2" lengthAdjust="spacing" textLength="21.7875" x="279.55" y="669.1344">Map</text><line style="stroke:#181818;stroke-width:0.4000000000000001;" x1="160" x2="394.8875" y1="677.2969" y2="677.2969"/><text fill="#000000" font-family="sans-serif" font-size="11.2" lengthAdjust="spacing" textLength="81.5391" x="164" y="692.5828">-nameID : String</text><text fill="#000000" font-family="sans-serif" font-size="11.2" lengthAdjust="spacing" textLength="54.7695" x="164" y="707.4797">-size : Size</text><text fill="#000000" font-family="sans-serif" font-size="11.2" lengthAdjust="spacing" textLength="97.0922" x="164" y="722.3766">-cityList : List&lt;City&gt;</text><text fill="#000000" font-family="sans-serif" font-size="11.2" lengthAdjust="spacing" textLength="140.0602" x="164" y="737.2734">-industryList : List&lt;Industry&gt;</text><line style="stroke:#181818;stroke-width:0.4000000000000001;" x1="160" x2="394.8875" y1="743.2844" y2="743.2844"/><text fill="#000000" font-family="sans-serif" font-size="11.2" lengthAdjust="spacing" textLength="192.6805" x="164" y="758.5703">+validateMapName(nameID) : boolean</text><text fill="#000000" font-family="sans-serif" font-size="11.2" lengthAdjust="spacing" textLength="226.8875" x="164" y="773.4672">+createMap(nameID: String, size: Size) : Map</text></g><!--class Size--><g id="elem_Size"><rect codeLine="45" fill="#F1F1F1" height="97.9875" id="Size" rx="2" ry="2" style="stroke:#181818;stroke-width:0.4000000000000001;" width="232.1781" x="5.6" y="842.8969"/><ellipse cx="107.3953" cy="855.6969" fill="#ADD1B2" rx="8.8" ry="8.8" style="stroke:#181818;stroke-width:0.8000000000000002;"/><path d="M109.6078,852.3969 Q109.7328,852.2219 109.8828,852.1344 Q110.0328,852.0469 110.2078,852.0469 Q110.5078,852.0469 110.6953,852.2594 Q110.8828,852.4594 110.8828,852.9469 L110.8828,854.1094 Q110.8828,854.5969 110.6953,854.8094 Q110.5078,855.0219 110.2078,855.0219 Q109.9328,855.0219 109.7703,854.8594 Q109.6078,854.7094 109.5203,854.2969 Q109.4828,854.0094 109.3328,853.8594 Q109.0703,853.5594 108.5828,853.3844 Q108.0953,853.2094 107.5953,853.2094 Q106.9828,853.2094 106.4703,853.4719 Q105.9703,853.7344 105.5703,854.3344 Q105.1828,854.9344 105.1828,855.7594 L105.1828,856.6344 Q105.1828,857.6219 105.8953,858.2844 Q106.6078,858.9344 107.8828,858.9344 Q108.6328,858.9344 109.1578,858.7344 Q109.4703,858.6094 109.8078,858.2594 Q110.0203,858.0469 110.1328,857.9844 Q110.2578,857.9219 110.4203,857.9219 Q110.6828,857.9219 110.8828,858.1344 Q111.0953,858.3344 111.0953,858.6094 Q111.0953,858.8844 110.8203,859.2094 Q110.4203,859.6719 109.7828,859.9344 Q108.9203,860.2969 107.8828,860.2969 Q106.6703,860.2969 105.7078,859.7969 Q104.9203,859.3969 104.3703,858.5469 Q103.8203,857.6844 103.8203,856.6594 L103.8203,855.7344 Q103.8203,854.6719 104.3078,853.7594 Q104.8078,852.8344 105.6828,852.3469 Q106.5578,851.8469 107.5453,851.8469 Q108.1328,851.8469 108.6453,851.9844 Q109.1703,852.1094 109.6078,852.3969 Z " fill="#000000"/><text fill="#000000" font-family="sans-serif" font-size="11.2" lengthAdjust="spacing" textLength="21.7875" x="123.7953" y="860.3344">Size</text><line style="stroke:#181818;stroke-width:0.4000000000000001;" x1="6.4" x2="236.9781" y1="868.4969" y2="868.4969"/><text fill="#000000" font-family="sans-serif" font-size="11.2" lengthAdjust="spacing" textLength="51.0398" x="10.4" y="883.7828">-width : int</text><text fill="#000000" font-family="sans-serif" font-size="11.2" lengthAdjust="spacing" textLength="55.4094" x="10.4" y="898.6797">-height : int</text><line style="stroke:#181818;stroke-width:0.4000000000000001;" x1="6.4" x2="236.9781" y1="904.6906" y2="904.6906"/><text fill="#000000" font-family="sans-serif" font-size="11.2" lengthAdjust="spacing" textLength="222.5781" x="10.4" y="919.9766">+validateSize(width: int, height: int) : boolean</text><text fill="#000000" font-family="sans-serif" font-size="11.2" lengthAdjust="spacing" textLength="197.0281" x="10.4" y="934.8734">+createSize(width: int, height: int) : Size</text></g><!--class Editor--><g id="elem_Editor"><rect codeLine="53" fill="#F1F1F1" height="112.8844" id="Editor" rx="2" ry="2" style="stroke:#181818;stroke-width:0.4000000000000001;" width="236.4875" x="483.2" y="475.6969"/><ellipse cx="583.4148" cy="488.4969" fill="#ADD1B2" rx="8.8" ry="8.8" style="stroke:#181818;stroke-width:0.8000000000000002;"/><path d="M585.6273,485.1969 Q585.7523,485.0219 585.9023,484.9344 Q586.0523,484.8469 586.2273,484.8469 Q586.5273,484.8469 586.7148,485.0594 Q586.9023,485.2594 586.9023,485.7469 L586.9023,486.9094 Q586.9023,487.3969 586.7148,487.6094 Q586.5273,487.8219 586.2273,487.8219 Q585.9523,487.8219 585.7898,487.6594 Q585.6273,487.5094 585.5398,487.0969 Q585.5023,486.8094 585.3523,486.6594 Q585.0898,486.3594 584.6023,486.1844 Q584.1148,486.0094 583.6148,486.0094 Q583.0023,486.0094 582.4898,486.2719 Q581.9898,486.5344 581.5898,487.1344 Q581.2023,487.7344 581.2023,488.5594 L581.2023,489.4344 Q581.2023,490.4219 581.9148,491.0844 Q582.6273,491.7344 583.9023,491.7344 Q584.6523,491.7344 585.1773,491.5344 Q585.4898,491.4094 585.8273,491.0594 Q586.0398,490.8469 586.1523,490.7844 Q586.2773,490.7219 586.4398,490.7219 Q586.7023,490.7219 586.9023,490.9344 Q587.1148,491.1344 587.1148,491.4094 Q587.1148,491.6844 586.8398,492.0094 Q586.4398,492.4719 585.8023,492.7344 Q584.9398,493.0969 583.9023,493.0969 Q582.6898,493.0969 581.7273,492.5969 Q580.9398,492.1969 580.3898,491.3469 Q579.8398,490.4844 579.8398,489.4594 L579.8398,488.5344 Q579.8398,487.4719 580.3273,486.5594 Q580.8273,485.6344 581.7023,485.1469 Q582.5773,484.6469 583.5648,484.6469 Q584.1523,484.6469 584.6648,484.7844 Q585.1898,484.9094 585.6273,485.1969 Z " fill="#000000"/><text fill="#000000" font-family="sans-serif" font-size="11.2" lengthAdjust="spacing" textLength="29.2578" x="599.8148" y="493.1344">Editor</text><line style="stroke:#181818;stroke-width:0.4000000000000001;" x1="484" x2="718.8875" y1="501.2969" y2="501.2969"/><text fill="#000000" font-family="sans-serif" font-size="11.2" lengthAdjust="spacing" textLength="92.1266" x="488" y="516.5828">-username : String</text><text fill="#000000" font-family="sans-serif" font-size="11.2" lengthAdjust="spacing" textLength="90.2563" x="488" y="531.4797">-password : String</text><text fill="#000000" font-family="sans-serif" font-size="11.2" lengthAdjust="spacing" textLength="130.107" x="488" y="546.3766">-createdMaps : List&lt;Map&gt;</text><line style="stroke:#181818;stroke-width:0.4000000000000001;" x1="484" x2="718.8875" y1="552.3875" y2="552.3875"/><text fill="#000000" font-family="sans-serif" font-size="11.2" lengthAdjust="spacing" textLength="226.8875" x="488" y="567.6734">+createMap(nameID: String, size: Size) : Map</text><text fill="#000000" font-family="sans-serif" font-size="11.2" lengthAdjust="spacing" textLength="153.4695" x="488" y="582.5703">+addMap(map: Map) : boolean</text></g><!--link CreateMapUI to CreateMapController--><g id="link_CreateMapUI_CreateMapController"><path codeLine="62" d="M546.352,134.9929 C517.336,155.2569 487.8627,175.8437 460.0627,195.2677 " fill="none" id="CreateMapUI-to-CreateMapController" style="stroke:#181818;stroke-width:0.8000000000000002;stroke-dasharray:7.0,7.0;"/><polygon fill="#181818" points="456.128,198.0169,463.8629,196.5162,459.4069,195.7259,460.1973,191.2699,456.128,198.0169" style="stroke:#181818;stroke-width:0.8000000000000002;"/><text fill="#000000" font-family="sans-serif" font-size="10.4" lengthAdjust="spacing" textLength="21.968" x="507.2" y="170.9195">uses</text></g><!--link CreateMapController to MapRepository--><g id="link_CreateMapController_MapRepository"><path codeLine="63" d="M319,281.5209 C295.944,297.8009 273.528,318.8409 260.8,344.4969 C236.168,394.1689 256.9455,454.7622 275.5695,493.5302 " fill="none" id="CreateMapController-to-MapRepository" style="stroke:#181818;stroke-width:0.8000000000000002;stroke-dasharray:7.0,7.0;"/><polygon fill="#181818" points="277.648,497.8569,277.4147,489.9812,275.9159,494.2513,271.6458,492.7526,277.648,497.8569" style="stroke:#181818;stroke-width:0.8000000000000002;"/><text fill="#000000" font-family="sans-serif" font-size="10.4" lengthAdjust="spacing" textLength="21.968" x="261.6" y="382.9195">uses</text></g><!--link CreateMapController to Repositories--><g id="link_CreateMapController_Repositories"><path codeLine="64" d="M397.6,281.6649 C397.6,301.7129 397.6,320.7049 397.6,339.5849 " fill="none" id="CreateMapController-to-Repositories" style="stroke:#181818;stroke-width:0.8000000000000002;stroke-dasharray:7.0,7.0;"/><polygon fill="#181818" points="397.6,344.3849,400.8,337.1849,397.6,340.3849,394.4,337.1849,397.6,344.3849" style="stroke:#181818;stroke-width:0.8000000000000002;"/><text fill="#000000" font-family="sans-serif" font-size="10.4" lengthAdjust="spacing" textLength="21.968" x="398.4" y="317.3195">uses</text></g><!--link CreateMapController to ApplicationSession--><g id="link_CreateMapController_ApplicationSession"><path codeLine="65" d="M518.152,281.3689 C537.208,288.7769 556.52,296.8489 574.4,305.2969 C598.512,316.6889 620.0011,328.7896 641.5691,341.8856 " fill="none" id="CreateMapController-to-ApplicationSession" style="stroke:#181818;stroke-width:0.8000000000000002;stroke-dasharray:7.0,7.0;"/><polygon fill="#181818" points="645.672,344.3769,641.1785,337.9047,642.2529,342.3008,637.8568,343.3752,645.672,344.3769" style="stroke:#181818;stroke-width:0.8000000000000002;"/><text fill="#000000" font-family="sans-serif" font-size="10.4" lengthAdjust="spacing" textLength="21.968" x="602.4" y="317.3195">uses</text></g><!--link CreateMapController to Map--><g id="link_CreateMapController_Map"><path codeLine="66" d="M305.448,281.4729 C293.608,288.5849 282.112,296.5449 272,305.2969 C210.344,358.6569 216.024,395.0489 204,475.6969 C196.608,525.2809 190.936,540.0969 204,588.4969 C209.888,610.3129 218.1291,628.1114 229.5771,647.4314 " fill="none" id="CreateMapController-to-Map" style="stroke:#181818;stroke-width:0.8000000000000002;stroke-dasharray:7.0,7.0;"/><polygon fill="#181818" points="232.024,651.5609,231.1066,643.7354,229.9849,648.1196,225.6006,646.9979,232.024,651.5609" style="stroke:#181818;stroke-width:0.8000000000000002;"/><text fill="#000000" font-family="sans-serif" font-size="10.4" lengthAdjust="spacing" textLength="21.968" x="210.4" y="448.5195">uses</text></g><!--link CreateMapController to Size--><g id="link_CreateMapController_Size"><path codeLine="67" d="M265.056,250.8889 C185.032,265.2489 98.4,298.9769 98.4,377.6969 C98.4,377.6969 98.4,377.6969 98.4,716.4969 C98.4,759.4089 104.5383,803.0294 110.8423,837.9094 " fill="none" id="CreateMapController-to-Size" style="stroke:#181818;stroke-width:0.8000000000000002;stroke-dasharray:7.0,7.0;"/><polygon fill="#181818" points="111.696,842.6329,113.5644,834.9785,110.9846,838.6966,107.2665,836.1168,111.696,842.6329" style="stroke:#181818;stroke-width:0.8000000000000002;"/><text fill="#000000" font-family="sans-serif" font-size="10.4" lengthAdjust="spacing" textLength="34.1047" x="99.2" y="536.5195">creates</text></g><!--link CreateMapController to Editor--><g id="link_CreateMapController_Editor"><path codeLine="68" d="M450.312,281.3609 C471.04,299.2089 493.952,321.3369 511.2,344.4969 C541.216,384.8089 563.5632,432.2091 579.3232,471.0491 " fill="none" id="CreateMapController-to-Editor" style="stroke:#181818;stroke-width:0.8000000000000002;stroke-dasharray:7.0,7.0;"/><polygon fill="#181818" points="581.128,475.4969,581.386,467.622,579.624,471.7904,575.4557,470.0284,581.128,475.4969" style="stroke:#181818;stroke-width:0.8000000000000002;"/><text fill="#000000" font-family="sans-serif" font-size="10.4" lengthAdjust="spacing" textLength="21.968" x="552.8" y="382.9195">uses</text></g><!--link Map to Size--><g id="link_Map_Size"><path codeLine="70" d="M221.056,779.7049 C202.488,800.4729 182.152,823.2009 164.736,842.6729 " fill="none" id="Map-Size" style="stroke:#181818;stroke-width:0.8000000000000002;"/><polygon fill="#000000" points="201.3333,814.3947,207.9098,810.5687,204.4049,807.4338,201.3333,814.3947" style="stroke:#000000;stroke-width:0.8000000000000002;"/><text fill="#000000" font-family="sans-serif" font-size="10.4" lengthAdjust="spacing" textLength="16.768" x="211.2" y="815.7195">has</text><text fill="#000000" font-family="sans-serif" font-size="10.4" lengthAdjust="spacing" textLength="5.784" x="210.3775" y="797.032">1</text><text fill="#000000" font-family="sans-serif" font-size="10.4" lengthAdjust="spacing" textLength="5.784" x="163.8002" y="833.8319">1</text></g><!--link MapRepository to Map--><g id="link_MapRepository_Map"><path codeLine="71" d="M292.624,566.2809 C290.216,590.0889 287.386,618.0571 284.49,646.7531 " fill="none" id="MapRepository-to-Map" style="stroke:#181818;stroke-width:0.8000000000000002;"/><polygon fill="#181818" points="284.008,651.5289,287.9148,644.6866,284.4096,647.5491,281.5471,644.044,284.008,651.5289" style="stroke:#181818;stroke-width:0.8000000000000002;"/><text fill="#000000" font-family="sans-serif" font-size="10.4" lengthAdjust="spacing" textLength="32.368" x="288.8" y="624.5195">returns</text><text fill="#000000" font-family="sans-serif" font-size="10.4" lengthAdjust="spacing" textLength="5.784" x="278.7635" y="642.63">1</text></g><!--link Editor to Map--><g id="link_Editor_Map"><path codeLine="72" d="M502.408,588.6169 C466.968,608.5289 426.776,631.1049 390.272,651.6009 " fill="none" id="Editor-Map" style="stroke:#181818;stroke-width:0.8000000000000002;"/><polygon fill="#000000" points="458.9125,622.1721,466.3729,620.6784,464.0701,616.5786,458.9125,622.1721" style="stroke:#000000;stroke-width:0.8000000000000002;"/><text fill="#000000" font-family="sans-serif" font-size="10.4" lengthAdjust="spacing" textLength="34.1047" x="469.6" y="624.5195">creates</text><text fill="#000000" font-family="sans-serif" font-size="10.4" lengthAdjust="spacing" textLength="5.784" x="486.3157" y="606.3771">1</text><text fill="#000000" font-family="sans-serif" font-size="10.4" lengthAdjust="spacing" textLength="4.0473" x="396.4912" y="642.7086">*</text></g><!--link Repositories to MapRepository--><g id="link_Repositories_MapRepository"><path codeLine="74" d="M375.304,412.6569 C358.36,438.0009 337.8349,468.7059 320.9149,494.0259 " fill="none" id="Repositories-to-MapRepository" style="stroke:#181818;stroke-width:0.8000000000000002;"/><polygon fill="#181818" points="318.248,498.0169,324.909,493.8084,320.4704,494.6911,319.5878,490.2525,318.248,498.0169" style="stroke:#181818;stroke-width:0.8000000000000002;"/><polygon fill="#000000" points="360.9772,447.5388,366.953,442.8295,363.0436,440.2163,360.9772,447.5388" style="stroke:#000000;stroke-width:0.8000000000000002;"/><text fill="#000000" font-family="sans-serif" font-size="10.4" lengthAdjust="spacing" textLength="39.3098" x="370.4" y="448.5195">provides</text></g><!--link ApplicationSession to Editor--><g id="link_ApplicationSession_Editor"><path codeLine="76" d="M676.536,412.6569 C664.888,431.0969 652.6745,450.4221 639.3305,471.5581 " fill="none" id="ApplicationSession-to-Editor" style="stroke:#181818;stroke-width:0.8000000000000002;"/><polygon fill="#181818" points="636.768,475.6169,643.3176,471.237,638.9034,472.2346,637.9059,467.8204,636.768,475.6169" style="stroke:#181818;stroke-width:0.8000000000000002;"/><polygon fill="#000000" points="662.6638,447.5951,668.516,442.7329,664.5404,440.2217,662.6638,447.5951" style="stroke:#000000;stroke-width:0.8000000000000002;"/><text fill="#000000" font-family="sans-serif" font-size="10.4" lengthAdjust="spacing" textLength="24.8625" x="672" y="448.5195">holds</text></g><!--link Editor to CreateMapUI--><g id="link_Editor_CreateMapUI"><path codeLine="78" d="M720.032,488.6729 C753.384,470.5529 785.736,445.7289 804.8,412.4969 C861.52,313.6329 756.8481,201.6056 681.8721,138.1576 " fill="none" id="Editor-to-CreateMapUI" style="stroke:#181818;stroke-width:0.8000000000000002;stroke-dasharray:7.0,7.0;"/><polygon fill="#181818" points="678.208,135.0569,681.637,142.1507,681.2614,137.6408,685.7713,137.2652,678.208,135.0569" style="stroke:#181818;stroke-width:0.8000000000000002;"/><polygon fill="#000000" points="819.5671,309.0368,818.0129,316.4848,822.6876,315.9759,819.5671,309.0368" style="stroke:#000000;stroke-width:0.8000000000000002;"/><text fill="#000000" font-family="sans-serif" font-size="10.4" lengthAdjust="spacing" textLength="60.6887" x="827.2" y="317.3195">interacts with</text></g><!--SRC=[bLJBRjim4BppAuYStDOAagjH24Zj5X3GzX0X7x2H68c8JAhaoeORvD-xf2XP3pj2Sr6uEpix-x9zbQe60tjUG_OAXKZnL0bkH8QWYaemsmDi2Ra-IbNm5wZiq9DLOEq3ef7F3OeaqogLVmM_Ommb4jlM-VbEGa7e3NzAx-vvnBT600eE_1VKZ7cEO2F3KyBV6AU_BpoNjgxWz2Z-DCBY3st8lGE4rQSnOAlLYpHxGAbL0AyKx4MoM_EZpB5SyrB8eiH9NDfacR1sjOTwud6918AiWlDz9fDoej5L9KmlD_E-Njm1AfctO2_wiYA-uSzQLmBKY8M2hWUujlMAwF4eQcqbQdFgjLWu22zznby8f91lfsGN4imOUpefR4_uPf7wcxsx-4JHGsLKAeKEqQCKPrMhaE9iEITxgEjAPdvqASs2Fiifvp7dnDl66A4ms3tyU-voZZeMSaIyRG61KjfXLGIhTKjCDle4IoRnz5DQ9AlxVDtIEmu-gVB6eXdvas2BsNmRVbFEGUy_7d-dREr5jPfc4_D7rvNaruKGKc6mj9ipC4qqkV2L3_EGRjNyuvh2fHZVkrvWEu9UOcE5SULD-ruJzgXDFhMtANEgsNODfl_ZOIt_qxSs0d97w8x4MuU5akxXxz7jRNpny3Uk4CikkLp8-38NmAEZMy1Uk9bbAKkGjDtvje_NOM6IWOmvuflx6nv5_XD8Ih0yPkFweoZsa5QA4TWOPLcWwoW-T_uWWrZOg3EEPThNskY3p5lmXTQua5vrgQlS0uDbD5eQjTzVOI13IuT4TnIpVm00]--></g></svg>