<svg xmlns="http://www.w3.org/2000/svg" xmlns:xlink="http://www.w3.org/1999/xlink" contentStyleType="text/css" height="449.4px" preserveAspectRatio="none" style="width:882px;height:449px;background:#FFFFFF;" version="1.1" viewBox="0 0 882 449" width="882.6px" zoomAndPan="magnify"><defs/><g><rect fill="#FFFFFF" height="319.1684" style="stroke:#181818;stroke-width:0.6;" width="6" x="134.463" y="70.1473"/><rect fill="#FFFFFF" height="281.6191" style="stroke:#181818;stroke-width:0.6;" width="6" x="283.8923" y="88.9219"/><rect fill="#FFFFFF" height="18.7746" style="stroke:#181818;stroke-width:0.6;" width="6" x="361.7865" y="182.7949"/><rect fill="#FFFFFF" height="18.7746" style="stroke:#181818;stroke-width:0.6;" width="6" x="428.9429" y="220.3441"/><rect fill="#FFFFFF" height="18.7746" style="stroke:#181818;stroke-width:0.6;" width="6" x="508.2439" y="107.6965"/><rect fill="#FFFFFF" height="18.7746" style="stroke:#181818;stroke-width:0.6;" width="6" x="586.1464" y="145.2457"/><rect fill="#FFFFFF" height="93.873" style="stroke:#181818;stroke-width:0.6;" width="6" x="640.6986" y="257.8934"/><rect fill="#FFFFFF" height="56.3238" style="stroke:#181818;stroke-width:0.6;" width="6" x="763.6887" y="276.668"/><rect fill="#FFFFFF" height="18.7746" style="stroke:#181818;stroke-width:0.6;" width="6" x="862.8331" y="295.4426"/><line style="stroke:#181818;stroke-width:0.3;stroke-dasharray:5.0,5.0;" x1="15.6" x2="15.6" y1="50.1727" y2="400.1156"/><line style="stroke:#181818;stroke-width:0.3;stroke-dasharray:5.0,5.0;" x1="137.1196" x2="137.1196" y1="50.1727" y2="400.1156"/><line style="stroke:#181818;stroke-width:0.3;stroke-dasharray:5.0,5.0;" x1="286.3421" x2="286.3421" y1="50.1727" y2="400.1156"/><line style="stroke:#181818;stroke-width:0.3;stroke-dasharray:5.0,5.0;" x1="364.2425" x2="364.2425" y1="50.1727" y2="400.1156"/><line style="stroke:#181818;stroke-width:0.3;stroke-dasharray:5.0,5.0;" x1="431.9306" x2="431.9306" y1="50.1727" y2="400.1156"/><line style="stroke:#181818;stroke-width:0.3;stroke-dasharray:5.0,5.0;" x1="511.1552" x2="511.1552" y1="50.1727" y2="400.1156"/><line style="stroke:#181818;stroke-width:0.3;stroke-dasharray:5.0,5.0;" x1="588.7327" x2="588.7327" y1="50.1727" y2="400.1156"/><line style="stroke:#181818;stroke-width:0.3;stroke-dasharray:5.0,5.0;" x1="643.5601" x2="643.5601" y1="50.1727" y2="400.1156"/><line style="stroke:#181818;stroke-width:0.3;stroke-dasharray:5.0,5.0;" x1="766.3515" x2="766.3515" y1="50.1727" y2="400.1156"/><line style="stroke:#181818;stroke-width:0.3;stroke-dasharray:5.0,5.0;" x1="865.4959" x2="865.4959" y1="50.1727" y2="400.1156"/><text fill="#000000" font-family="sans-serif" font-size="8.4" lengthAdjust="spacing" textLength="21.9434" x="3" y="48.0645">Editor</text><ellipse cx="15.7717" cy="8.1" fill="#E2E2F0" rx="4.8" ry="4.8" style="stroke:#181818;stroke-width:0.3;"/><path d="M15.7717,12.9 L15.7717,29.1 M7.9717,17.7 L23.5717,17.7 M15.7717,29.1 L7.9717,38.1 M15.7717,29.1 L23.5717,38.1 " fill="none" style="stroke:#181818;stroke-width:0.3;"/><text fill="#000000" font-family="sans-serif" font-size="8.4" lengthAdjust="spacing" textLength="21.9434" x="3" y="408.5801">Editor</text><ellipse cx="15.7717" cy="415.7883" fill="#E2E2F0" rx="4.8" ry="4.8" style="stroke:#181818;stroke-width:0.3;"/><path d="M15.7717,420.5883 L15.7717,436.7883 M7.9717,425.3883 L23.5717,425.3883 M15.7717,436.7883 L7.9717,445.7883 M15.7717,436.7883 L23.5717,445.7883 " fill="none" style="stroke:#181818;stroke-width:0.3;"/><rect fill="#E2E2F0" height="19.5727" rx="1.5" ry="1.5" style="stroke:#181818;stroke-width:0.3;" width="60.6867" x="107.1196" y="30"/><text fill="#000000" font-family="sans-serif" font-size="8.4" lengthAdjust="spacing" textLength="52.2867" x="111.3196" y="43.2645">:CreateMapUI</text><rect fill="#E2E2F0" height="19.5727" rx="1.5" ry="1.5" style="stroke:#181818;stroke-width:0.3;" width="60.6867" x="107.1196" y="399.5156"/><text fill="#000000" font-family="sans-serif" font-size="8.4" lengthAdjust="spacing" textLength="52.2867" x="111.3196" y="412.7801">:CreateMapUI</text><rect fill="#E2E2F0" height="19.5727" rx="1.5" ry="1.5" style="stroke:#181818;stroke-width:0.3;" width="88.7004" x="242.5421" y="30"/><text fill="#000000" font-family="sans-serif" font-size="8.4" lengthAdjust="spacing" textLength="80.3004" x="246.7421" y="43.2645">:CreateMapController</text><rect fill="#E2E2F0" height="19.5727" rx="1.5" ry="1.5" style="stroke:#181818;stroke-width:0.3;" width="88.7004" x="242.5421" y="399.5156"/><text fill="#000000" font-family="sans-serif" font-size="8.4" lengthAdjust="spacing" textLength="80.3004" x="246.7421" y="412.7801">:CreateMapController</text><rect fill="#E2E2F0" height="19.5727" rx="1.5" ry="1.5" style="stroke:#181818;stroke-width:0.3;" width="55.0881" x="337.2425" y="30"/><text fill="#000000" font-family="sans-serif" font-size="8.4" lengthAdjust="spacing" textLength="46.6881" x="341.4425" y="43.2645">Repositories</text><rect fill="#E2E2F0" height="19.5727" rx="1.5" ry="1.5" style="stroke:#181818;stroke-width:0.3;" width="55.0881" x="337.2425" y="399.5156"/><text fill="#000000" font-family="sans-serif" font-size="8.4" lengthAdjust="spacing" textLength="46.6881" x="341.4425" y="412.7801">Repositories</text><rect fill="#E2E2F0" height="30.7453" rx="1.5" ry="1.5" style="stroke:#181818;stroke-width:0.3;" width="67.2246" x="398.3306" y="18.8273"/><text fill="#000000" font-family="sans-serif" font-size="8.4" lengthAdjust="spacing" textLength="56.4908" x="403.6975" y="32.0918">mapRepository</text><text fill="#000000" font-family="sans-serif" font-size="8.4" lengthAdjust="spacing" textLength="58.8246" x="402.5306" y="43.2645">:MapRepository</text><rect fill="#E2E2F0" height="30.7453" rx="1.5" ry="1.5" style="stroke:#181818;stroke-width:0.3;" width="67.2246" x="398.3306" y="399.5156"/><text fill="#000000" font-family="sans-serif" font-size="8.4" lengthAdjust="spacing" textLength="56.4908" x="403.6975" y="412.7801">mapRepository</text><text fill="#000000" font-family="sans-serif" font-size="8.4" lengthAdjust="spacing" textLength="58.8246" x="402.5306" y="423.9527">:MapRepository</text><rect fill="#E2E2F0" height="19.5727" rx="1.5" ry="1.5" style="stroke:#181818;stroke-width:0.3;" width="79.3775" x="471.5552" y="30"/><text fill="#000000" font-family="sans-serif" font-size="8.4" lengthAdjust="spacing" textLength="70.9775" x="475.7552" y="43.2645">ApplicationSession</text><rect fill="#E2E2F0" height="19.5727" rx="1.5" ry="1.5" style="stroke:#181818;stroke-width:0.3;" width="79.3775" x="471.5552" y="399.5156"/><text fill="#000000" font-family="sans-serif" font-size="8.4" lengthAdjust="spacing" textLength="70.9775" x="475.7552" y="412.7801">ApplicationSession</text><rect fill="#E2E2F0" height="30.7453" rx="1.5" ry="1.5" style="stroke:#181818;stroke-width:0.3;" width="64.4273" x="556.9327" y="18.8273"/><text fill="#000000" font-family="sans-serif" font-size="8.4" lengthAdjust="spacing" textLength="56.0273" x="561.1327" y="32.0918">currentSession</text><text fill="#000000" font-family="sans-serif" font-size="8.4" lengthAdjust="spacing" textLength="49.9529" x="564.1699" y="43.2645">:UserSession</text><rect fill="#E2E2F0" height="30.7453" rx="1.5" ry="1.5" style="stroke:#181818;stroke-width:0.3;" width="64.4273" x="556.9327" y="399.5156"/><text fill="#000000" font-family="sans-serif" font-size="8.4" lengthAdjust="spacing" textLength="56.0273" x="561.1327" y="412.7801">currentSession</text><text fill="#000000" font-family="sans-serif" font-size="8.4" lengthAdjust="spacing" textLength="49.9529" x="564.1699" y="423.9527">:UserSession</text><rect fill="#E2E2F0" height="30.7453" rx="1.5" ry="1.5" style="stroke:#181818;stroke-width:0.3;" width="32.6771" x="627.3601" y="18.8273"/><text fill="#000000" font-family="sans-serif" font-size="8.4" lengthAdjust="spacing" textLength="21.0123" x="633.1925" y="32.0918">editor</text><text fill="#000000" font-family="sans-serif" font-size="8.4" lengthAdjust="spacing" textLength="24.2771" x="631.5601" y="43.2645">:Editor</text><rect fill="#E2E2F0" height="30.7453" rx="1.5" ry="1.5" style="stroke:#181818;stroke-width:0.3;" width="32.6771" x="627.3601" y="399.5156"/><text fill="#000000" font-family="sans-serif" font-size="8.4" lengthAdjust="spacing" textLength="21.0123" x="633.1925" y="412.7801">editor</text><text fill="#000000" font-family="sans-serif" font-size="8.4" lengthAdjust="spacing" textLength="24.2771" x="631.5601" y="423.9527">:Editor</text><rect fill="#E2E2F0" height="30.7453" rx="1.5" ry="1.5" style="stroke:#181818;stroke-width:0.3;" width="27.0744" x="753.1515" y="18.8273"/><text fill="#000000" font-family="sans-serif" font-size="8.4" lengthAdjust="spacing" textLength="16.3406" x="758.5184" y="32.0918">map</text><text fill="#000000" font-family="sans-serif" font-size="8.4" lengthAdjust="spacing" textLength="18.6744" x="757.3515" y="43.2645">:Map</text><rect fill="#E2E2F0" height="30.7453" rx="1.5" ry="1.5" style="stroke:#181818;stroke-width:0.3;" width="27.0744" x="753.1515" y="399.5156"/><text fill="#000000" font-family="sans-serif" font-size="8.4" lengthAdjust="spacing" textLength="16.3406" x="758.5184" y="412.7801">map</text><text fill="#000000" font-family="sans-serif" font-size="8.4" lengthAdjust="spacing" textLength="18.6744" x="757.3515" y="423.9527">:Map</text><rect fill="#E2E2F0" height="30.7453" rx="1.5" ry="1.5" style="stroke:#181818;stroke-width:0.3;" width="27.0744" x="852.2959" y="18.8273"/><text fill="#000000" font-family="sans-serif" font-size="8.4" lengthAdjust="spacing" textLength="14.9379" x="858.3642" y="32.0918">size</text><text fill="#000000" font-family="sans-serif" font-size="8.4" lengthAdjust="spacing" textLength="18.6744" x="856.4959" y="43.2645">:Size</text><rect fill="#E2E2F0" height="30.7453" rx="1.5" ry="1.5" style="stroke:#181818;stroke-width:0.3;" width="27.0744" x="852.2959" y="399.5156"/><text fill="#000000" font-family="sans-serif" font-size="8.4" lengthAdjust="spacing" textLength="14.9379" x="858.3642" y="412.7801">size</text><text fill="#000000" font-family="sans-serif" font-size="8.4" lengthAdjust="spacing" textLength="18.6744" x="856.4959" y="423.9527">:Size</text><rect fill="#FFFFFF" height="319.1684" style="stroke:#181818;stroke-width:0.6;" width="6" x="134.463" y="70.1473"/><rect fill="#FFFFFF" height="281.6191" style="stroke:#181818;stroke-width:0.6;" width="6" x="283.8923" y="88.9219"/><rect fill="#FFFFFF" height="18.7746" style="stroke:#181818;stroke-width:0.6;" width="6" x="361.7865" y="182.7949"/><rect fill="#FFFFFF" height="18.7746" style="stroke:#181818;stroke-width:0.6;" width="6" x="428.9429" y="220.3441"/><rect fill="#FFFFFF" height="18.7746" style="stroke:#181818;stroke-width:0.6;" width="6" x="508.2439" y="107.6965"/><rect fill="#FFFFFF" height="18.7746" style="stroke:#181818;stroke-width:0.6;" width="6" x="586.1464" y="145.2457"/><rect fill="#FFFFFF" height="93.873" style="stroke:#181818;stroke-width:0.6;" width="6" x="640.6986" y="257.8934"/><rect fill="#FFFFFF" height="56.3238" style="stroke:#181818;stroke-width:0.6;" width="6" x="763.6887" y="276.668"/><rect fill="#FFFFFF" height="18.7746" style="stroke:#181818;stroke-width:0.6;" width="6" x="862.8331" y="295.4426"/><polygon fill="#181818" points="127.263,67.7473,133.263,70.1473,127.263,72.5473,129.663,70.1473" style="stroke:#181818;stroke-width:0.6;"/><line style="stroke:#181818;stroke-width:0.6;" x1="15.7717" x2="130.863" y1="70.1473" y2="70.1473"/><text fill="#000000" font-family="sans-serif" font-size="7.8" font-weight="bold" lengthAdjust="spacing" textLength="4.338" x="19.9717" y="66.9896">1</text><text fill="#000000" font-family="sans-serif" font-size="7.8" lengthAdjust="spacing" textLength="59.3874" x="26.7097" y="66.9896">confirms creation</text><polygon fill="#181818" points="276.6923,86.5219,282.6923,88.9219,276.6923,91.3219,279.0923,88.9219" style="stroke:#181818;stroke-width:0.6;"/><line style="stroke:#181818;stroke-width:0.6;" x1="140.463" x2="280.2923" y1="88.9219" y2="88.9219"/><text fill="#000000" font-family="sans-serif" font-size="7.8" font-weight="bold" lengthAdjust="spacing" textLength="4.338" x="144.663" y="85.7643">2</text><text fill="#000000" font-family="sans-serif" font-size="7.8" lengthAdjust="spacing" textLength="125.2913" x="151.401" y="85.7643">createNewMap(name, width, height)</text><polygon fill="#181818" points="501.0439,105.2965,507.0439,107.6965,501.0439,110.0965,503.4439,107.6965" style="stroke:#181818;stroke-width:0.6;"/><line style="stroke:#181818;stroke-width:0.6;" x1="289.8923" x2="504.6439" y1="107.6965" y2="107.6965"/><text fill="#000000" font-family="sans-serif" font-size="7.8" font-weight="bold" lengthAdjust="spacing" textLength="4.338" x="294.0923" y="104.5389">3</text><text fill="#000000" font-family="sans-serif" font-size="7.8" lengthAdjust="spacing" textLength="45.5241" x="300.8303" y="104.5389">getInstance()</text><polygon fill="#181818" points="296.4923,124.0711,290.4923,126.4711,296.4923,128.8711,294.0923,126.4711" style="stroke:#181818;stroke-width:0.6;"/><line style="stroke:#181818;stroke-width:0.6;stroke-dasharray:2.0,2.0;" x1="292.8923" x2="510.6439" y1="126.4711" y2="126.4711"/><text fill="#000000" font-family="sans-serif" font-size="7.8" font-weight="bold" lengthAdjust="spacing" textLength="4.338" x="300.0923" y="123.3135">4</text><text fill="#000000" font-family="sans-serif" font-size="7.8" lengthAdjust="spacing" textLength="40.7634" x="306.8303" y="123.3135">appSession</text><polygon fill="#181818" points="578.9464,142.8457,584.9464,145.2457,578.9464,147.6457,581.3464,145.2457" style="stroke:#181818;stroke-width:0.6;"/><line style="stroke:#181818;stroke-width:0.6;" x1="289.8923" x2="582.5464" y1="145.2457" y2="145.2457"/><text fill="#000000" font-family="sans-serif" font-size="7.8" font-weight="bold" lengthAdjust="spacing" textLength="4.338" x="294.0923" y="142.0881">5</text><text fill="#000000" font-family="sans-serif" font-size="7.8" lengthAdjust="spacing" textLength="62.4229" x="300.8303" y="142.0881">getCurrentEditor()</text><polygon fill="#181818" points="296.4923,161.6203,290.4923,164.0203,296.4923,166.4203,294.0923,164.0203" style="stroke:#181818;stroke-width:0.6;"/><line style="stroke:#181818;stroke-width:0.6;stroke-dasharray:2.0,2.0;" x1="292.8923" x2="588.5464" y1="164.0203" y2="164.0203"/><text fill="#000000" font-family="sans-serif" font-size="7.8" font-weight="bold" lengthAdjust="spacing" textLength="4.338" x="300.0923" y="160.8627">6</text><text fill="#000000" font-family="sans-serif" font-size="7.8" lengthAdjust="spacing" textLength="19.5114" x="306.8303" y="160.8627">editor</text><polygon fill="#181818" points="354.5865,180.3949,360.5865,182.7949,354.5865,185.1949,356.9865,182.7949" style="stroke:#181818;stroke-width:0.6;"/><line style="stroke:#181818;stroke-width:0.6;" x1="289.8923" x2="358.1865" y1="182.7949" y2="182.7949"/><text fill="#000000" font-family="sans-serif" font-size="7.8" font-weight="bold" lengthAdjust="spacing" textLength="4.338" x="294.0923" y="179.6373">7</text><text fill="#000000" font-family="sans-serif" font-size="7.8" lengthAdjust="spacing" textLength="45.5241" x="300.8303" y="179.6373">getInstance()</text><polygon fill="#181818" points="296.4923,199.1695,290.4923,201.5695,296.4923,203.9695,294.0923,201.5695" style="stroke:#181818;stroke-width:0.6;"/><line style="stroke:#181818;stroke-width:0.6;stroke-dasharray:2.0,2.0;" x1="292.8923" x2="364.1865" y1="201.5695" y2="201.5695"/><text fill="#000000" font-family="sans-serif" font-size="7.8" font-weight="bold" lengthAdjust="spacing" textLength="4.338" x="300.0923" y="198.4119">8</text><text fill="#000000" font-family="sans-serif" font-size="7.8" lengthAdjust="spacing" textLength="40.3178" x="306.8303" y="198.4119">repositories</text><polygon fill="#181818" points="421.7429,217.9441,427.7429,220.3441,421.7429,222.7441,424.1429,220.3441" style="stroke:#181818;stroke-width:0.6;"/><line style="stroke:#181818;stroke-width:0.6;" x1="289.8923" x2="425.3429" y1="220.3441" y2="220.3441"/><text fill="#000000" font-family="sans-serif" font-size="7.8" font-weight="bold" lengthAdjust="spacing" textLength="4.338" x="294.0923" y="217.1865">9</text><text fill="#000000" font-family="sans-serif" font-size="7.8" lengthAdjust="spacing" textLength="52.0178" x="300.8303" y="217.1865">saveMap(map)</text><polygon fill="#181818" points="296.4923,236.7188,290.4923,239.1187,296.4923,241.5187,294.0923,239.1187" style="stroke:#181818;stroke-width:0.6;"/><line style="stroke:#181818;stroke-width:0.6;stroke-dasharray:2.0,2.0;" x1="292.8923" x2="431.3429" y1="239.1187" y2="239.1187"/><text fill="#000000" font-family="sans-serif" font-size="7.8" font-weight="bold" lengthAdjust="spacing" textLength="8.676" x="300.0923" y="235.9611">10</text><text fill="#000000" font-family="sans-serif" font-size="7.8" lengthAdjust="spacing" textLength="38.5849" x="311.1683" y="235.9611">saveResult</text><polygon fill="#181818" points="633.4986,255.4934,639.4986,257.8934,633.4986,260.2934,635.8986,257.8934" style="stroke:#181818;stroke-width:0.6;"/><line style="stroke:#181818;stroke-width:0.6;" x1="289.8923" x2="637.0986" y1="257.8934" y2="257.8934"/><text fill="#000000" font-family="sans-serif" font-size="7.8" font-weight="bold" lengthAdjust="spacing" textLength="8.676" x="294.0923" y="254.7357">11</text><text fill="#000000" font-family="sans-serif" font-size="7.8" lengthAdjust="spacing" textLength="109.6875" x="305.1683" y="254.7357">createMap(name, width, height)</text><polygon fill="#181818" points="756.4887,274.268,762.4887,276.668,756.4887,279.068,758.8887,276.668" style="stroke:#181818;stroke-width:0.6;"/><line style="stroke:#181818;stroke-width:0.6;" x1="646.6986" x2="760.0887" y1="276.668" y2="276.668"/><text fill="#000000" font-family="sans-serif" font-size="7.8" font-weight="bold" lengthAdjust="spacing" textLength="8.676" x="650.8986" y="273.5104">12</text><text fill="#000000" font-family="sans-serif" font-size="7.8" lengthAdjust="spacing" textLength="94.5141" x="661.9746" y="273.5104">create(name, width, height)</text><polygon fill="#181818" points="855.6331,293.0426,861.6331,295.4426,855.6331,297.8426,858.0331,295.4426" style="stroke:#181818;stroke-width:0.6;"/><line style="stroke:#181818;stroke-width:0.6;" x1="769.6887" x2="859.2331" y1="295.4426" y2="295.4426"/><text fill="#000000" font-family="sans-serif" font-size="7.8" font-weight="bold" lengthAdjust="spacing" textLength="8.676" x="773.8887" y="292.285">13</text><text fill="#000000" font-family="sans-serif" font-size="7.8" lengthAdjust="spacing" textLength="70.6685" x="784.9646" y="292.285">create(width, height)</text><polygon fill="#181818" points="776.2887,311.8172,770.2887,314.2172,776.2887,316.6172,773.8887,314.2172" style="stroke:#181818;stroke-width:0.6;"/><line style="stroke:#181818;stroke-width:0.6;stroke-dasharray:2.0,2.0;" x1="772.6887" x2="865.2331" y1="314.2172" y2="314.2172"/><text fill="#000000" font-family="sans-serif" font-size="7.8" font-weight="bold" lengthAdjust="spacing" textLength="8.676" x="779.8887" y="311.0596">14</text><text fill="#000000" font-family="sans-serif" font-size="7.8" lengthAdjust="spacing" textLength="13.8709" x="790.9646" y="311.0596">size</text><polygon fill="#181818" points="653.2986,330.5918,647.2986,332.9918,653.2986,335.3918,650.8986,332.9918" style="stroke:#181818;stroke-width:0.6;"/><line style="stroke:#181818;stroke-width:0.6;stroke-dasharray:2.0,2.0;" x1="649.6986" x2="766.0887" y1="332.9918" y2="332.9918"/><text fill="#000000" font-family="sans-serif" font-size="7.8" font-weight="bold" lengthAdjust="spacing" textLength="8.676" x="656.8986" y="329.8342">15</text><text fill="#000000" font-family="sans-serif" font-size="7.8" lengthAdjust="spacing" textLength="29.4823" x="667.9746" y="329.8342">newMap</text><polygon fill="#181818" points="296.4923,349.3664,290.4923,351.7664,296.4923,354.1664,294.0923,351.7664" style="stroke:#181818;stroke-width:0.6;"/><line style="stroke:#181818;stroke-width:0.6;stroke-dasharray:2.0,2.0;" x1="292.8923" x2="643.0986" y1="351.7664" y2="351.7664"/><text fill="#000000" font-family="sans-serif" font-size="7.8" font-weight="bold" lengthAdjust="spacing" textLength="8.676" x="300.0923" y="348.6088">16</text><text fill="#000000" font-family="sans-serif" font-size="7.8" lengthAdjust="spacing" textLength="29.4823" x="311.1683" y="348.6088">newMap</text><polygon fill="#181818" points="147.063,368.141,141.063,370.541,147.063,372.941,144.663,370.541" style="stroke:#181818;stroke-width:0.6;"/><line style="stroke:#181818;stroke-width:0.6;stroke-dasharray:2.0,2.0;" x1="143.463" x2="286.2923" y1="370.541" y2="370.541"/><text fill="#000000" font-family="sans-serif" font-size="7.8" font-weight="bold" lengthAdjust="spacing" textLength="8.676" x="150.663" y="367.3834">17</text><text fill="#000000" font-family="sans-serif" font-size="7.8" lengthAdjust="spacing" textLength="49.8583" x="161.739" y="367.3834">creationResult</text><polygon fill="#181818" points="22.3717,386.9156,16.3717,389.3156,22.3717,391.7156,19.9717,389.3156" style="stroke:#181818;stroke-width:0.6;"/><line style="stroke:#181818;stroke-width:0.6;stroke-dasharray:2.0,2.0;" x1="18.7717" x2="136.863" y1="389.3156" y2="389.3156"/><text fill="#000000" font-family="sans-serif" font-size="7.8" font-weight="bold" lengthAdjust="spacing" textLength="8.676" x="25.9717" y="386.158">18</text><text fill="#000000" font-family="sans-serif" font-size="7.8" lengthAdjust="spacing" textLength="93.2153" x="37.0477" y="386.158">displays operation success</text><!--SRC=[XPJDRgCm58NtF8NLLIerBv15fIZ30cdIHD1iHYDL7dDBh8AnRDCeVVhn3t6k0qszGOXpFuxFzRN-u49IHJiYAVkW3LJct09Hm0mLJGkPZW9zf7L_ug8XxxJLaD71z6Be_e7ACifChqXUS_l8hDnmnYKLXZoiDWgeWIsLX-A1K4qEnNU2JI-CwjiMb1TkNilVgRG4sMlt2mxQIyfylwjIJKTbb9t_YjKMl_kYxNh_vWhJkhMKBMVKy5vKeBLzUF5wlt-hygegTY-fdWrAWJ2Zrlxee47XoaELb_Ebu6Eo9I4lhyv_5Q-xShALi86BxVIpvbzWlrVsuGLLyIVFii0aosSRD5aHrejthZfDc4lPUdEjufysSDS8OfULMR4BsybzBrxWPF-w4BI39tBYjJa-aIFmvcWUVKb4-1QHSNc4HQ78BB41KmXj3nE3nMFKHWBEbw258SkhFohbc75Krp0BczZ2_GY-Dg658R4vSqaBiRk4XUo5pivPIr0JR_uS_nnMEExOI2X43XGQaJaV0J4nS9a9Iz3qqmtZmfw-6GjnUB2BM8sCE4m9UcZDd8s8cJW9Wn2Fujrpc3WR9mZx6bbXVn5vdtUxs-J3k5b7TDDsHTw19K0_esHcUTmoEdMpFT6X_6OvtXcEKFWvphvXt6xkajQrXpVrg7OC-wPxyT8PxnhKVrGRBmrtypYxuSPQaPfhsTAp9hq4vG543upPUS_m91N_0G00]--></g></svg>