<svg xmlns="http://www.w3.org/2000/svg" xmlns:xlink="http://www.w3.org/1999/xlink" contentStyleType="text/css" height="853.8px" preserveAspectRatio="none" style="width:1018px;height:853px;background:#FFFFFF;" version="1.1" viewBox="0 0 1018 853" width="1018.2px" zoomAndPan="magnify"><title>Sequence Diagram: US01 - Create a Map</title><defs/><g><text fill="#000000" font-family="sans-serif" font-size="8.4" font-weight="bold" lengthAdjust="spacing" textLength="161.5236" x="427.766" y="18.0645">Sequence Diagram: US01 - Create a Map</text><rect fill="#FFFFFF" height="713.5055" style="stroke:#181818;stroke-width:0.6;" width="6" x="12.7717" y="79.9453"/><rect fill="#FFFFFF" height="71.5219" style="stroke:#181818;stroke-width:0.6;" width="6" x="192.9618" y="93.9199"/><rect fill="#FFFFFF" height="157.9969" style="stroke:#181818;stroke-width:0.6;" width="6" x="192.9618" y="184.2164"/><rect fill="#FFFFFF" height="432.4629" style="stroke:#181818;stroke-width:0.6;" width="6" x="192.9618" y="360.9879"/><rect fill="#FFFFFF" height="93.873" style="stroke:#181818;stroke-width:0.6;" width="6" x="402.6229" y="202.991"/><rect fill="#FFFFFF" height="322.9898" style="stroke:#181818;stroke-width:0.6;" width="6" x="402.6229" y="379.7625"/><rect fill="#FFFFFF" height="18.7746" style="stroke:#181818;stroke-width:0.6;" width="6" x="480.5171" y="590.1047"/><rect fill="#FFFFFF" height="18.7746" style="stroke:#181818;stroke-width:0.6;" width="6" x="542.7721" y="627.6539"/><rect fill="#FFFFFF" height="18.7746" style="stroke:#181818;stroke-width:0.6;" width="6" x="611.0953" y="665.2031"/><rect fill="#FFFFFF" height="18.7746" style="stroke:#181818;stroke-width:0.6;" width="6" x="690.3964" y="398.5371"/><rect fill="#FFFFFF" height="18.7746" style="stroke:#181818;stroke-width:0.6;" width="6" x="776.9408" y="436.0863"/><rect fill="#FFFFFF" height="71.5219" style="stroke:#181818;stroke-width:0.6;" width="6" x="840.1351" y="499.8082"/><rect fill="#FFFFFF" height="18.7746" style="stroke:#181818;stroke-width:0.6;" width="6" x="968.5447" y="221.7656"/><rect fill="#FFFFFF" height="18.7746" style="stroke:#181818;stroke-width:0.6;" width="6" x="999.2854" y="259.3148"/><line style="stroke:#181818;stroke-width:0.3;stroke-dasharray:5.0,5.0;" x1="15.6" x2="15.6" y1="73.9453" y2="804.2508"/><line style="stroke:#181818;stroke-width:0.3;stroke-dasharray:5.0,5.0;" x1="195.6185" x2="195.6185" y1="73.9453" y2="804.2508"/><line style="stroke:#181818;stroke-width:0.3;stroke-dasharray:5.0,5.0;" x1="405.0727" x2="405.0727" y1="117.8062" y2="804.2508"/><line style="stroke:#181818;stroke-width:0.3;stroke-dasharray:5.0,5.0;" x1="482.973" x2="482.973" y1="73.9453" y2="804.2508"/><line style="stroke:#181818;stroke-width:0.3;stroke-dasharray:5.0,5.0;" x1="545.2611" x2="545.2611" y1="73.9453" y2="804.2508"/><line style="stroke:#181818;stroke-width:0.3;stroke-dasharray:5.0,5.0;" x1="614.083" x2="614.083" y1="73.9453" y2="804.2508"/><line style="stroke:#181818;stroke-width:0.3;stroke-dasharray:5.0,5.0;" x1="693.3076" x2="693.3076" y1="73.9453" y2="804.2508"/><line style="stroke:#181818;stroke-width:0.3;stroke-dasharray:5.0,5.0;" x1="779.8852" x2="779.8852" y1="73.9453" y2="804.2508"/><line style="stroke:#181818;stroke-width:0.3;stroke-dasharray:5.0,5.0;" x1="842.9965" x2="842.9965" y1="73.9453" y2="804.2508"/><line style="stroke:#181818;stroke-width:0.3;stroke-dasharray:5.0,5.0;" x1="971.1744" x2="971.1744" y1="523.6945" y2="804.2508"/><line style="stroke:#181818;stroke-width:0.3;stroke-dasharray:5.0,5.0;" x1="1001.915" x2="1001.915" y1="478.7473" y2="804.2508"/><text fill="#000000" font-family="sans-serif" font-size="8.4" lengthAdjust="spacing" textLength="21.9434" x="3" y="71.8371">Editor</text><ellipse cx="15.7717" cy="31.8727" fill="#E3E3E3" rx="4.8" ry="4.8" style="stroke:#181818;stroke-width:0.3;"/><path d="M15.7717,36.6727 L15.7717,52.8727 M7.9717,41.4727 L23.5717,41.4727 M15.7717,52.8727 L7.9717,61.8727 M15.7717,52.8727 L23.5717,61.8727 " fill="none" style="stroke:#181818;stroke-width:0.3;"/><text fill="#000000" font-family="sans-serif" font-size="8.4" lengthAdjust="spacing" textLength="21.9434" x="3" y="812.7152">Editor</text><ellipse cx="15.7717" cy="819.9234" fill="#E3E3E3" rx="4.8" ry="4.8" style="stroke:#181818;stroke-width:0.3;"/><path d="M15.7717,824.7234 L15.7717,840.9234 M7.9717,829.5234 L23.5717,829.5234 M15.7717,840.9234 L7.9717,849.9234 M15.7717,840.9234 L23.5717,849.9234 " fill="none" style="stroke:#181818;stroke-width:0.3;"/><rect fill="#E3E3E3" height="19.5727" rx="1.5" ry="1.5" style="stroke:#181818;stroke-width:0.3;" width="60.6867" x="165.6185" y="53.7727"/><text fill="#000000" font-family="sans-serif" font-size="8.4" lengthAdjust="spacing" textLength="52.2867" x="169.8185" y="67.0371">:CreateMapUI</text><rect fill="#E3E3E3" height="19.5727" rx="1.5" ry="1.5" style="stroke:#181818;stroke-width:0.3;" width="60.6867" x="165.6185" y="803.6508"/><text fill="#000000" font-family="sans-serif" font-size="8.4" lengthAdjust="spacing" textLength="52.2867" x="169.8185" y="816.9152">:CreateMapUI</text><rect fill="#E3E3E3" height="19.5727" rx="1.5" ry="1.5" style="stroke:#181818;stroke-width:0.3;" width="88.7004" x="361.2727" y="803.6508"/><text fill="#000000" font-family="sans-serif" font-size="8.4" lengthAdjust="spacing" textLength="80.3004" x="365.4727" y="816.9152">:CreateMapController</text><rect fill="#E3E3E3" height="19.5727" rx="1.5" ry="1.5" style="stroke:#181818;stroke-width:0.3;" width="55.0881" x="455.973" y="53.7727"/><text fill="#000000" font-family="sans-serif" font-size="8.4" lengthAdjust="spacing" textLength="46.6881" x="460.173" y="67.0371">Repositories</text><rect fill="#E3E3E3" height="19.5727" rx="1.5" ry="1.5" style="stroke:#181818;stroke-width:0.3;" width="55.0881" x="455.973" y="803.6508"/><text fill="#000000" font-family="sans-serif" font-size="8.4" lengthAdjust="spacing" textLength="46.6881" x="460.173" y="816.9152">Repositories</text><rect fill="#E3E3E3" height="30.7453" rx="1.5" ry="1.5" style="stroke:#181818;stroke-width:0.3;" width="57.4219" x="517.0611" y="42.6"/><text fill="#000000" font-family="sans-serif" font-size="8.4" lengthAdjust="spacing" textLength="43.4191" x="524.0625" y="55.8645">repositories</text><text fill="#000000" font-family="sans-serif" font-size="8.4" lengthAdjust="spacing" textLength="49.0219" x="521.2611" y="67.0371">:Repositories</text><rect fill="#E3E3E3" height="30.7453" rx="1.5" ry="1.5" style="stroke:#181818;stroke-width:0.3;" width="57.4219" x="517.0611" y="803.6508"/><text fill="#000000" font-family="sans-serif" font-size="8.4" lengthAdjust="spacing" textLength="43.4191" x="524.0625" y="816.9152">repositories</text><text fill="#000000" font-family="sans-serif" font-size="8.4" lengthAdjust="spacing" textLength="49.0219" x="521.2611" y="828.0879">:Repositories</text><rect fill="#E3E3E3" height="30.7453" rx="1.5" ry="1.5" style="stroke:#181818;stroke-width:0.3;" width="67.2246" x="580.483" y="42.6"/><text fill="#000000" font-family="sans-serif" font-size="8.4" lengthAdjust="spacing" textLength="56.4908" x="585.8499" y="55.8645">mapRepository</text><text fill="#000000" font-family="sans-serif" font-size="8.4" lengthAdjust="spacing" textLength="58.8246" x="584.683" y="67.0371">:MapRepository</text><rect fill="#E3E3E3" height="30.7453" rx="1.5" ry="1.5" style="stroke:#181818;stroke-width:0.3;" width="67.2246" x="580.483" y="803.6508"/><text fill="#000000" font-family="sans-serif" font-size="8.4" lengthAdjust="spacing" textLength="56.4908" x="585.8499" y="816.9152">mapRepository</text><text fill="#000000" font-family="sans-serif" font-size="8.4" lengthAdjust="spacing" textLength="58.8246" x="584.683" y="828.0879">:MapRepository</text><rect fill="#E3E3E3" height="19.5727" rx="1.5" ry="1.5" style="stroke:#181818;stroke-width:0.3;" width="79.3775" x="653.7076" y="53.7727"/><text fill="#000000" font-family="sans-serif" font-size="8.4" lengthAdjust="spacing" textLength="70.9775" x="657.9076" y="67.0371">ApplicationSession</text><rect fill="#E3E3E3" height="19.5727" rx="1.5" ry="1.5" style="stroke:#181818;stroke-width:0.3;" width="79.3775" x="653.7076" y="803.6508"/><text fill="#000000" font-family="sans-serif" font-size="8.4" lengthAdjust="spacing" textLength="70.9775" x="657.9076" y="816.9152">ApplicationSession</text><rect fill="#E3E3E3" height="30.7453" rx="1.5" ry="1.5" style="stroke:#181818;stroke-width:0.3;" width="81.7113" x="739.0852" y="42.6"/><text fill="#000000" font-family="sans-serif" font-size="8.4" lengthAdjust="spacing" textLength="43.899" x="757.9913" y="55.8645">appSession</text><text fill="#000000" font-family="sans-serif" font-size="8.4" lengthAdjust="spacing" textLength="73.3113" x="743.2852" y="67.0371">:ApplicationSession</text><rect fill="#E3E3E3" height="30.7453" rx="1.5" ry="1.5" style="stroke:#181818;stroke-width:0.3;" width="81.7113" x="739.0852" y="803.6508"/><text fill="#000000" font-family="sans-serif" font-size="8.4" lengthAdjust="spacing" textLength="43.899" x="757.9913" y="816.9152">appSession</text><text fill="#000000" font-family="sans-serif" font-size="8.4" lengthAdjust="spacing" textLength="73.3113" x="743.2852" y="828.0879">:ApplicationSession</text><rect fill="#E3E3E3" height="30.7453" rx="1.5" ry="1.5" style="stroke:#181818;stroke-width:0.3;" width="32.6771" x="826.7965" y="42.6"/><text fill="#000000" font-family="sans-serif" font-size="8.4" lengthAdjust="spacing" textLength="21.0123" x="832.6289" y="55.8645">editor</text><text fill="#000000" font-family="sans-serif" font-size="8.4" lengthAdjust="spacing" textLength="24.2771" x="830.9965" y="67.0371">:Editor</text><rect fill="#E3E3E3" height="30.7453" rx="1.5" ry="1.5" style="stroke:#181818;stroke-width:0.3;" width="32.6771" x="826.7965" y="803.6508"/><text fill="#000000" font-family="sans-serif" font-size="8.4" lengthAdjust="spacing" textLength="21.0123" x="832.6289" y="816.9152">editor</text><text fill="#000000" font-family="sans-serif" font-size="8.4" lengthAdjust="spacing" textLength="24.2771" x="830.9965" y="828.0879">:Editor</text><rect fill="#E3E3E3" height="19.5727" rx="1.5" ry="1.5" style="stroke:#181818;stroke-width:0.3;" width="24.7406" x="959.1744" y="803.6508"/><text fill="#000000" font-family="sans-serif" font-size="8.4" lengthAdjust="spacing" textLength="16.3406" x="963.3744" y="816.9152">Map</text><rect fill="#E3E3E3" height="19.5727" rx="1.5" ry="1.5" style="stroke:#181818;stroke-width:0.3;" width="24.7406" x="989.915" y="803.6508"/><text fill="#000000" font-family="sans-serif" font-size="8.4" lengthAdjust="spacing" textLength="16.3406" x="994.115" y="816.9152">Size</text><rect fill="#FFFFFF" height="713.5055" style="stroke:#181818;stroke-width:0.6;" width="6" x="12.7717" y="79.9453"/><rect fill="#FFFFFF" height="71.5219" style="stroke:#181818;stroke-width:0.6;" width="6" x="192.9618" y="93.9199"/><rect fill="#FFFFFF" height="157.9969" style="stroke:#181818;stroke-width:0.6;" width="6" x="192.9618" y="184.2164"/><rect fill="#FFFFFF" height="432.4629" style="stroke:#181818;stroke-width:0.6;" width="6" x="192.9618" y="360.9879"/><rect fill="#FFFFFF" height="93.873" style="stroke:#181818;stroke-width:0.6;" width="6" x="402.6229" y="202.991"/><rect fill="#FFFFFF" height="322.9898" style="stroke:#181818;stroke-width:0.6;" width="6" x="402.6229" y="379.7625"/><rect fill="#FFFFFF" height="18.7746" style="stroke:#181818;stroke-width:0.6;" width="6" x="480.5171" y="590.1047"/><rect fill="#FFFFFF" height="18.7746" style="stroke:#181818;stroke-width:0.6;" width="6" x="542.7721" y="627.6539"/><rect fill="#FFFFFF" height="18.7746" style="stroke:#181818;stroke-width:0.6;" width="6" x="611.0953" y="665.2031"/><rect fill="#FFFFFF" height="18.7746" style="stroke:#181818;stroke-width:0.6;" width="6" x="690.3964" y="398.5371"/><rect fill="#FFFFFF" height="18.7746" style="stroke:#181818;stroke-width:0.6;" width="6" x="776.9408" y="436.0863"/><rect fill="#FFFFFF" height="71.5219" style="stroke:#181818;stroke-width:0.6;" width="6" x="840.1351" y="499.8082"/><rect fill="#FFFFFF" height="18.7746" style="stroke:#181818;stroke-width:0.6;" width="6" x="968.5447" y="221.7656"/><rect fill="#FFFFFF" height="18.7746" style="stroke:#181818;stroke-width:0.6;" width="6" x="999.2854" y="259.3148"/><polygon fill="#181818" points="185.7618,91.5199,191.7618,93.9199,185.7618,96.3199,188.1618,93.9199" style="stroke:#181818;stroke-width:0.6;"/><line style="stroke:#181818;stroke-width:0.6;" x1="18.7717" x2="189.3618" y1="93.9199" y2="93.9199"/><text fill="#000000" font-family="sans-serif" font-size="7.8" font-weight="bold" lengthAdjust="spacing" textLength="4.338" x="22.9717" y="90.7623">1</text><text fill="#000000" font-family="sans-serif" font-size="7.8" lengthAdjust="spacing" textLength="88.8773" x="29.7097" y="90.7623">asks to create a new map</text><polygon fill="#181818" points="354.0727,110.2945,360.0727,112.6945,354.0727,115.0945,356.4727,112.6945" style="stroke:#181818;stroke-width:0.6;"/><line style="stroke:#181818;stroke-width:0.6;" x1="198.9618" x2="357.6727" y1="112.6945" y2="112.6945"/><text fill="#000000" font-family="sans-serif" font-size="7.8" font-weight="bold" lengthAdjust="spacing" textLength="4.338" x="203.1618" y="109.5369">2</text><text fill="#000000" font-family="sans-serif" font-size="7.8" lengthAdjust="spacing" textLength="26.8734" x="209.8998" y="109.5369">create()</text><rect fill="#E3E3E3" height="19.5727" rx="1.5" ry="1.5" style="stroke:#181818;stroke-width:0.3;" width="88.7004" x="361.2727" y="98.7199"/><text fill="#000000" font-family="sans-serif" font-size="8.4" lengthAdjust="spacing" textLength="80.3004" x="365.4727" y="111.9844">:CreateMapController</text><line style="stroke:#181818;stroke-width:0.6;" x1="198.9618" x2="224.1618" y1="138.8672" y2="138.8672"/><line style="stroke:#181818;stroke-width:0.6;" x1="224.1618" x2="224.1618" y1="138.8672" y2="146.6672"/><line style="stroke:#181818;stroke-width:0.6;" x1="199.5618" x2="224.1618" y1="146.6672" y2="146.6672"/><polygon fill="#181818" points="205.5618,144.2672,199.5618,146.6672,205.5618,149.0672,203.1618,146.6672" style="stroke:#181818;stroke-width:0.6;"/><text fill="#000000" font-family="sans-serif" font-size="7.8" font-weight="bold" lengthAdjust="spacing" textLength="4.338" x="203.1618" y="135.7096">3</text><text fill="#000000" font-family="sans-serif" font-size="7.8" lengthAdjust="spacing" textLength="101.8761" x="209.8998" y="135.7096">displayRequestForMapData()</text><polygon fill="#181818" points="25.3717,163.0418,19.3717,165.4418,25.3717,167.8418,22.9717,165.4418" style="stroke:#181818;stroke-width:0.6;"/><line style="stroke:#181818;stroke-width:0.6;stroke-dasharray:2.0,2.0;" x1="21.7717" x2="195.3618" y1="165.4418" y2="165.4418"/><text fill="#000000" font-family="sans-serif" font-size="7.8" font-weight="bold" lengthAdjust="spacing" textLength="4.338" x="28.9717" y="162.2842">4</text><text fill="#000000" font-family="sans-serif" font-size="7.8" lengthAdjust="spacing" textLength="139.6078" x="35.7097" y="162.2842">requests map data (name, width, height)</text><polygon fill="#181818" points="185.7618,181.8164,191.7618,184.2164,185.7618,186.6164,188.1618,184.2164" style="stroke:#181818;stroke-width:0.6;"/><line style="stroke:#181818;stroke-width:0.6;" x1="18.7717" x2="189.3618" y1="184.2164" y2="184.2164"/><text fill="#000000" font-family="sans-serif" font-size="7.8" font-weight="bold" lengthAdjust="spacing" textLength="4.338" x="22.9717" y="181.0588">5</text><text fill="#000000" font-family="sans-serif" font-size="7.8" lengthAdjust="spacing" textLength="75.0217" x="29.7097" y="181.0588">inputs requested data</text><polygon fill="#181818" points="395.4229,200.591,401.4229,202.991,395.4229,205.391,397.8229,202.991" style="stroke:#181818;stroke-width:0.6;"/><line style="stroke:#181818;stroke-width:0.6;" x1="198.9618" x2="399.0229" y1="202.991" y2="202.991"/><text fill="#000000" font-family="sans-serif" font-size="7.8" font-weight="bold" lengthAdjust="spacing" textLength="4.338" x="203.1618" y="199.8334">6</text><text fill="#000000" font-family="sans-serif" font-size="7.8" lengthAdjust="spacing" textLength="139.1698" x="209.8998" y="199.8334">validateMapData(nameID, width, height)</text><polygon fill="#181818" points="961.3447,219.3656,967.3447,221.7656,961.3447,224.1656,963.7447,221.7656" style="stroke:#181818;stroke-width:0.6;"/><line style="stroke:#181818;stroke-width:0.6;" x1="408.6229" x2="964.9447" y1="221.7656" y2="221.7656"/><text fill="#000000" font-family="sans-serif" font-size="7.8" font-weight="bold" lengthAdjust="spacing" textLength="4.338" x="412.8229" y="218.608">7</text><text fill="#000000" font-family="sans-serif" font-size="7.8" lengthAdjust="spacing" textLength="95.371" x="419.5608" y="218.608">validateMapName(nameID)</text><polygon fill="#181818" points="415.2229,238.1402,409.2229,240.5402,415.2229,242.9402,412.8229,240.5402" style="stroke:#181818;stroke-width:0.6;"/><line style="stroke:#181818;stroke-width:0.6;stroke-dasharray:2.0,2.0;" x1="411.6229" x2="970.9447" y1="240.5402" y2="240.5402"/><text fill="#000000" font-family="sans-serif" font-size="7.8" font-weight="bold" lengthAdjust="spacing" textLength="4.338" x="418.8229" y="237.3826">8</text><text fill="#000000" font-family="sans-serif" font-size="7.8" lengthAdjust="spacing" textLength="16.0418" x="425.5608" y="237.3826">valid</text><polygon fill="#181818" points="992.0854,256.9148,998.0854,259.3148,992.0854,261.7148,994.4854,259.3148" style="stroke:#181818;stroke-width:0.6;"/><line style="stroke:#181818;stroke-width:0.6;" x1="408.6229" x2="995.6854" y1="259.3148" y2="259.3148"/><text fill="#000000" font-family="sans-serif" font-size="7.8" font-weight="bold" lengthAdjust="spacing" textLength="4.338" x="412.8229" y="256.1572">9</text><text fill="#000000" font-family="sans-serif" font-size="7.8" lengthAdjust="spacing" textLength="91.0482" x="419.5608" y="256.1572">validateSize(width, height)</text><polygon fill="#181818" points="415.2229,275.6895,409.2229,278.0895,415.2229,280.4895,412.8229,278.0895" style="stroke:#181818;stroke-width:0.6;"/><line style="stroke:#181818;stroke-width:0.6;stroke-dasharray:2.0,2.0;" x1="411.6229" x2="1001.6854" y1="278.0895" y2="278.0895"/><text fill="#000000" font-family="sans-serif" font-size="7.8" font-weight="bold" lengthAdjust="spacing" textLength="8.676" x="418.8229" y="274.9318">10</text><text fill="#000000" font-family="sans-serif" font-size="7.8" lengthAdjust="spacing" textLength="16.0418" x="429.8988" y="274.9318">valid</text><polygon fill="#181818" points="205.5618,294.4641,199.5618,296.8641,205.5618,299.2641,203.1618,296.8641" style="stroke:#181818;stroke-width:0.6;"/><line style="stroke:#181818;stroke-width:0.6;stroke-dasharray:2.0,2.0;" x1="201.9618" x2="405.0229" y1="296.8641" y2="296.8641"/><text fill="#000000" font-family="sans-serif" font-size="7.8" font-weight="bold" lengthAdjust="spacing" textLength="8.676" x="209.1618" y="293.7064">11</text><text fill="#000000" font-family="sans-serif" font-size="7.8" lengthAdjust="spacing" textLength="16.0418" x="220.2378" y="293.7064">valid</text><line style="stroke:#181818;stroke-width:0.6;" x1="198.9618" x2="224.1618" y1="315.6387" y2="315.6387"/><line style="stroke:#181818;stroke-width:0.6;" x1="224.1618" x2="224.1618" y1="315.6387" y2="323.4387"/><line style="stroke:#181818;stroke-width:0.6;" x1="199.5618" x2="224.1618" y1="323.4387" y2="323.4387"/><polygon fill="#181818" points="205.5618,321.0387,199.5618,323.4387,205.5618,325.8387,203.1618,323.4387" style="stroke:#181818;stroke-width:0.6;"/><text fill="#000000" font-family="sans-serif" font-size="7.8" font-weight="bold" lengthAdjust="spacing" textLength="8.676" x="203.1618" y="312.4811">12</text><text fill="#000000" font-family="sans-serif" font-size="7.8" lengthAdjust="spacing" textLength="178.1851" x="214.2378" y="312.4811">displayConfirmationRequest(nameID, width, height)</text><polygon fill="#181818" points="25.3717,339.8133,19.3717,342.2133,25.3717,344.6133,22.9717,342.2133" style="stroke:#181818;stroke-width:0.6;"/><line style="stroke:#181818;stroke-width:0.6;stroke-dasharray:2.0,2.0;" x1="21.7717" x2="195.3618" y1="342.2133" y2="342.2133"/><text fill="#000000" font-family="sans-serif" font-size="7.8" font-weight="bold" lengthAdjust="spacing" textLength="8.676" x="28.9717" y="339.0557">13</text><text fill="#000000" font-family="sans-serif" font-size="7.8" lengthAdjust="spacing" textLength="148.7142" x="40.0477" y="339.0557">shows map data and requests confirmation</text><polygon fill="#181818" points="185.7618,358.5879,191.7618,360.9879,185.7618,363.3879,188.1618,360.9879" style="stroke:#181818;stroke-width:0.6;"/><line style="stroke:#181818;stroke-width:0.6;" x1="18.7717" x2="189.3618" y1="360.9879" y2="360.9879"/><text fill="#000000" font-family="sans-serif" font-size="7.8" font-weight="bold" lengthAdjust="spacing" textLength="8.676" x="22.9717" y="357.8303">14</text><text fill="#000000" font-family="sans-serif" font-size="7.8" lengthAdjust="spacing" textLength="46.819" x="34.0477" y="357.8303">confirms data</text><polygon fill="#181818" points="395.4229,377.3625,401.4229,379.7625,395.4229,382.1625,397.8229,379.7625" style="stroke:#181818;stroke-width:0.6;"/><line style="stroke:#181818;stroke-width:0.6;" x1="198.9618" x2="399.0229" y1="379.7625" y2="379.7625"/><text fill="#000000" font-family="sans-serif" font-size="7.8" font-weight="bold" lengthAdjust="spacing" textLength="8.676" x="203.1618" y="376.6049">15</text><text fill="#000000" font-family="sans-serif" font-size="7.8" lengthAdjust="spacing" textLength="117.4875" x="214.2378" y="376.6049">createMap(nameID, width, height)</text><polygon fill="#181818" points="683.1964,396.1371,689.1964,398.5371,683.1964,400.9371,685.5964,398.5371" style="stroke:#181818;stroke-width:0.6;"/><line style="stroke:#181818;stroke-width:0.6;" x1="408.6229" x2="686.7964" y1="398.5371" y2="398.5371"/><text fill="#000000" font-family="sans-serif" font-size="7.8" font-weight="bold" lengthAdjust="spacing" textLength="8.676" x="412.8229" y="395.3795">16</text><text fill="#000000" font-family="sans-serif" font-size="7.8" lengthAdjust="spacing" textLength="45.5241" x="423.8988" y="395.3795">getInstance()</text><polygon fill="#181818" points="415.2229,414.9117,409.2229,417.3117,415.2229,419.7117,412.8229,417.3117" style="stroke:#181818;stroke-width:0.6;"/><line style="stroke:#181818;stroke-width:0.6;stroke-dasharray:2.0,2.0;" x1="411.6229" x2="692.7964" y1="417.3117" y2="417.3117"/><text fill="#000000" font-family="sans-serif" font-size="7.8" font-weight="bold" lengthAdjust="spacing" textLength="8.676" x="418.8229" y="414.1541">17</text><text fill="#000000" font-family="sans-serif" font-size="7.8" lengthAdjust="spacing" textLength="40.7634" x="429.8988" y="414.1541">appSession</text><polygon fill="#181818" points="769.7408,433.6863,775.7408,436.0863,769.7408,438.4863,772.1408,436.0863" style="stroke:#181818;stroke-width:0.6;"/><line style="stroke:#181818;stroke-width:0.6;" x1="408.6229" x2="773.3408" y1="436.0863" y2="436.0863"/><text fill="#000000" font-family="sans-serif" font-size="7.8" font-weight="bold" lengthAdjust="spacing" textLength="8.676" x="412.8229" y="432.9287">18</text><text fill="#000000" font-family="sans-serif" font-size="7.8" lengthAdjust="spacing" textLength="69.7963" x="423.8988" y="432.9287">getCurrentSession()</text><polygon fill="#181818" points="415.2229,452.4609,409.2229,454.8609,415.2229,457.2609,412.8229,454.8609" style="stroke:#181818;stroke-width:0.6;"/><line style="stroke:#181818;stroke-width:0.6;stroke-dasharray:2.0,2.0;" x1="411.6229" x2="779.3408" y1="454.8609" y2="454.8609"/><text fill="#000000" font-family="sans-serif" font-size="7.8" font-weight="bold" lengthAdjust="spacing" textLength="8.676" x="418.8229" y="451.7033">19</text><text fill="#000000" font-family="sans-serif" font-size="7.8" lengthAdjust="spacing" textLength="19.5114" x="429.8988" y="451.7033">editor</text><polygon fill="#181818" points="982.715,471.2355,988.715,473.6355,982.715,476.0355,985.115,473.6355" style="stroke:#181818;stroke-width:0.6;"/><line style="stroke:#181818;stroke-width:0.6;" x1="408.6229" x2="986.315" y1="473.6355" y2="473.6355"/><text fill="#000000" font-family="sans-serif" font-size="7.8" font-weight="bold" lengthAdjust="spacing" textLength="8.676" x="412.8229" y="470.4779">20</text><text fill="#000000" font-family="sans-serif" font-size="7.8" lengthAdjust="spacing" textLength="85.8419" x="423.8988" y="470.4779">createSize(width, height)</text><rect fill="#E3E3E3" height="19.5727" rx="1.5" ry="1.5" style="stroke:#181818;stroke-width:0.3;" width="24.7406" x="989.915" y="459.6609"/><text fill="#000000" font-family="sans-serif" font-size="8.4" lengthAdjust="spacing" textLength="16.3406" x="994.115" y="472.9254">Size</text><polygon fill="#181818" points="832.9351,497.4082,838.9351,499.8082,832.9351,502.2082,835.3351,499.8082" style="stroke:#181818;stroke-width:0.6;"/><line style="stroke:#181818;stroke-width:0.6;" x1="408.6229" x2="836.5351" y1="499.8082" y2="499.8082"/><text fill="#000000" font-family="sans-serif" font-size="7.8" font-weight="bold" lengthAdjust="spacing" textLength="8.676" x="412.8229" y="496.6506">21</text><text fill="#000000" font-family="sans-serif" font-size="7.8" lengthAdjust="spacing" textLength="87.5634" x="423.8988" y="496.6506">createMap(nameID, size)</text><polygon fill="#181818" points="951.9744,516.1828,957.9744,518.5828,951.9744,520.9828,954.3744,518.5828" style="stroke:#181818;stroke-width:0.6;"/><line style="stroke:#181818;stroke-width:0.6;" x1="846.1351" x2="955.5744" y1="518.5828" y2="518.5828"/><text fill="#000000" font-family="sans-serif" font-size="7.8" font-weight="bold" lengthAdjust="spacing" textLength="8.676" x="850.3351" y="515.4252">22</text><text fill="#000000" font-family="sans-serif" font-size="7.8" lengthAdjust="spacing" textLength="87.5634" x="861.411" y="515.4252">createMap(nameID, size)</text><rect fill="#E3E3E3" height="19.5727" rx="1.5" ry="1.5" style="stroke:#181818;stroke-width:0.3;" width="24.7406" x="959.1744" y="504.6082"/><text fill="#000000" font-family="sans-serif" font-size="8.4" lengthAdjust="spacing" textLength="16.3406" x="963.3744" y="517.8727">Map</text><line style="stroke:#181818;stroke-width:0.6;" x1="846.1351" x2="871.3351" y1="544.7555" y2="544.7555"/><line style="stroke:#181818;stroke-width:0.6;" x1="871.3351" x2="871.3351" y1="544.7555" y2="552.5555"/><line style="stroke:#181818;stroke-width:0.6;" x1="846.7351" x2="871.3351" y1="552.5555" y2="552.5555"/><polygon fill="#181818" points="852.7351,550.1555,846.7351,552.5555,852.7351,554.9555,850.3351,552.5555" style="stroke:#181818;stroke-width:0.6;"/><text fill="#000000" font-family="sans-serif" font-size="7.8" font-weight="bold" lengthAdjust="spacing" textLength="8.676" x="850.3351" y="541.5979">23</text><text fill="#000000" font-family="sans-serif" font-size="7.8" lengthAdjust="spacing" textLength="48.5558" x="861.411" y="541.5979">addMap(map)</text><polygon fill="#181818" points="415.2229,568.9301,409.2229,571.3301,415.2229,573.7301,412.8229,571.3301" style="stroke:#181818;stroke-width:0.6;"/><line style="stroke:#181818;stroke-width:0.6;stroke-dasharray:2.0,2.0;" x1="411.6229" x2="842.5351" y1="571.3301" y2="571.3301"/><text fill="#000000" font-family="sans-serif" font-size="7.8" font-weight="bold" lengthAdjust="spacing" textLength="8.676" x="418.8229" y="568.1725">24</text><text fill="#000000" font-family="sans-serif" font-size="7.8" lengthAdjust="spacing" textLength="15.1734" x="429.8988" y="568.1725">map</text><polygon fill="#181818" points="473.3171,587.7047,479.3171,590.1047,473.3171,592.5047,475.7171,590.1047" style="stroke:#181818;stroke-width:0.6;"/><line style="stroke:#181818;stroke-width:0.6;" x1="408.6229" x2="476.9171" y1="590.1047" y2="590.1047"/><text fill="#000000" font-family="sans-serif" font-size="7.8" font-weight="bold" lengthAdjust="spacing" textLength="8.676" x="412.8229" y="586.9471">25</text><text fill="#000000" font-family="sans-serif" font-size="7.8" lengthAdjust="spacing" textLength="45.5241" x="423.8988" y="586.9471">getInstance()</text><polygon fill="#181818" points="415.2229,606.4793,409.2229,608.8793,415.2229,611.2793,412.8229,608.8793" style="stroke:#181818;stroke-width:0.6;"/><line style="stroke:#181818;stroke-width:0.6;stroke-dasharray:2.0,2.0;" x1="411.6229" x2="482.9171" y1="608.8793" y2="608.8793"/><text fill="#000000" font-family="sans-serif" font-size="7.8" font-weight="bold" lengthAdjust="spacing" textLength="8.676" x="418.8229" y="605.7217">26</text><text fill="#000000" font-family="sans-serif" font-size="7.8" lengthAdjust="spacing" textLength="40.3178" x="429.8988" y="605.7217">repositories</text><polygon fill="#181818" points="535.5721,625.2539,541.5721,627.6539,535.5721,630.0539,537.9721,627.6539" style="stroke:#181818;stroke-width:0.6;"/><line style="stroke:#181818;stroke-width:0.6;" x1="408.6229" x2="539.1721" y1="627.6539" y2="627.6539"/><text fill="#000000" font-family="sans-serif" font-size="7.8" font-weight="bold" lengthAdjust="spacing" textLength="8.676" x="412.8229" y="624.4963">27</text><text fill="#000000" font-family="sans-serif" font-size="7.8" lengthAdjust="spacing" textLength="68.4937" x="423.8988" y="624.4963">getMapRepository()</text><polygon fill="#181818" points="415.2229,644.0285,409.2229,646.4285,415.2229,648.8285,412.8229,646.4285" style="stroke:#181818;stroke-width:0.6;"/><line style="stroke:#181818;stroke-width:0.6;stroke-dasharray:2.0,2.0;" x1="411.6229" x2="545.1721" y1="646.4285" y2="646.4285"/><text fill="#000000" font-family="sans-serif" font-size="7.8" font-weight="bold" lengthAdjust="spacing" textLength="8.676" x="418.8229" y="643.2709">28</text><text fill="#000000" font-family="sans-serif" font-size="7.8" lengthAdjust="spacing" textLength="52.4558" x="429.8988" y="643.2709">mapRepository</text><polygon fill="#181818" points="603.8953,662.8031,609.8953,665.2031,603.8953,667.6031,606.2953,665.2031" style="stroke:#181818;stroke-width:0.6;"/><line style="stroke:#181818;stroke-width:0.6;" x1="408.6229" x2="607.4953" y1="665.2031" y2="665.2031"/><text fill="#000000" font-family="sans-serif" font-size="7.8" font-weight="bold" lengthAdjust="spacing" textLength="8.676" x="412.8229" y="662.0455">29</text><text fill="#000000" font-family="sans-serif" font-size="7.8" lengthAdjust="spacing" textLength="36.8443" x="423.8988" y="662.0455">save(map)</text><polygon fill="#181818" points="415.2229,681.5777,409.2229,683.9777,415.2229,686.3777,412.8229,683.9777" style="stroke:#181818;stroke-width:0.6;"/><line style="stroke:#181818;stroke-width:0.6;stroke-dasharray:2.0,2.0;" x1="411.6229" x2="613.4953" y1="683.9777" y2="683.9777"/><text fill="#000000" font-family="sans-serif" font-size="7.8" font-weight="bold" lengthAdjust="spacing" textLength="8.676" x="418.8229" y="680.8201">30</text><text fill="#000000" font-family="sans-serif" font-size="7.8" lengthAdjust="spacing" textLength="28.176" x="429.8988" y="680.8201">success</text><polygon fill="#181818" points="205.5618,700.3523,199.5618,702.7523,205.5618,705.1523,203.1618,702.7523" style="stroke:#181818;stroke-width:0.6;"/><line style="stroke:#181818;stroke-width:0.6;stroke-dasharray:2.0,2.0;" x1="201.9618" x2="405.0229" y1="702.7523" y2="702.7523"/><text fill="#000000" font-family="sans-serif" font-size="7.8" font-weight="bold" lengthAdjust="spacing" textLength="8.676" x="209.1618" y="699.5947">31</text><text fill="#000000" font-family="sans-serif" font-size="7.8" lengthAdjust="spacing" textLength="76.0805" x="220.2378" y="699.5947">success + mapDetails</text><line style="stroke:#181818;stroke-width:0.6;" x1="198.9618" x2="224.1618" y1="721.527" y2="721.527"/><line style="stroke:#181818;stroke-width:0.6;" x1="224.1618" x2="224.1618" y1="721.527" y2="729.327"/><line style="stroke:#181818;stroke-width:0.6;" x1="199.5618" x2="224.1618" y1="729.327" y2="729.327"/><polygon fill="#181818" points="205.5618,726.927,199.5618,729.327,205.5618,731.727,203.1618,729.327" style="stroke:#181818;stroke-width:0.6;"/><text fill="#000000" font-family="sans-serif" font-size="7.8" font-weight="bold" lengthAdjust="spacing" textLength="8.676" x="203.1618" y="718.3693">32</text><text fill="#000000" font-family="sans-serif" font-size="7.8" lengthAdjust="spacing" textLength="74.1267" x="214.2378" y="718.3693">displaySuccess(map)</text><line style="stroke:#181818;stroke-width:0.6;" x1="198.9618" x2="224.1618" y1="748.1016" y2="748.1016"/><line style="stroke:#181818;stroke-width:0.6;" x1="224.1618" x2="224.1618" y1="748.1016" y2="755.9016"/><line style="stroke:#181818;stroke-width:0.6;" x1="199.5618" x2="224.1618" y1="755.9016" y2="755.9016"/><polygon fill="#181818" points="205.5618,753.5016,199.5618,755.9016,205.5618,758.3016,203.1618,755.9016" style="stroke:#181818;stroke-width:0.6;"/><text fill="#000000" font-family="sans-serif" font-size="7.8" font-weight="bold" lengthAdjust="spacing" textLength="8.676" x="203.1618" y="744.9439">33</text><text fill="#000000" font-family="sans-serif" font-size="7.8" lengthAdjust="spacing" textLength="83.6634" x="214.2378" y="744.9439">displayMapDetails(map)</text><polygon fill="#181818" points="25.3717,772.2762,19.3717,774.6762,25.3717,777.0762,22.9717,774.6762" style="stroke:#181818;stroke-width:0.6;"/><line style="stroke:#181818;stroke-width:0.6;stroke-dasharray:2.0,2.0;" x1="21.7717" x2="192.3618" y1="774.6762" y2="774.6762"/><text fill="#000000" font-family="sans-serif" font-size="7.8" font-weight="bold" lengthAdjust="spacing" textLength="8.676" x="28.9717" y="771.5186">34</text><text fill="#000000" font-family="sans-serif" font-size="7.8" lengthAdjust="spacing" textLength="93.2153" x="40.0477" y="771.5186">displays operation success</text><polygon fill="#181818" points="22.3717,791.0508,16.3717,793.4508,22.3717,795.8508,19.9717,793.4508" style="stroke:#181818;stroke-width:0.6;"/><line style="stroke:#181818;stroke-width:0.6;stroke-dasharray:2.0,2.0;" x1="18.7717" x2="195.3618" y1="793.4508" y2="793.4508"/><text fill="#000000" font-family="sans-serif" font-size="7.8" font-weight="bold" lengthAdjust="spacing" textLength="8.676" x="25.9717" y="790.2932">35</text><text fill="#000000" font-family="sans-serif" font-size="7.8" lengthAdjust="spacing" textLength="70.2343" x="37.0477" y="790.2932">displays map details</text><!--SRC=[hLR9Rjim4BtxAmQvP6a2j5ST2WIsMmY8OyEABqM1W9KOcx14gIGL8_tw3YbQeYHAjj7gueNpthpXR99xnWiYI0PPplDu9_ACWX8bdSZwf23ndcnff3vI2eB6Yl1jwXh87Kdo0-DRU2Eff9C9ALNEo-mN5PE9OWfX4VrTKXvJc36oHKm0c-Zp5tY0gQ14KI2m80K2OvKBk9ed33-lW4YWvki47IaMiu9m1LT11KB49ZH6ct38O9fp9V8qfHNRz6Nzr3PTqoANsWMZqfYivwjbrBOHZirF7lWXhr7u_Frf_h9yReCpKjI03qGltDyEVF6uQWCVYo9bCL4ivn6L4Z-CzUDgzHhDeoZiEY95OUtGosdmaDxgmf72IS9y5huirsqxZCESzNH7x0yr9r7uOsvIojvrYcqc9u1FzHqUlcBg843ZlGILGtmi1auFW1TdRFLJas2cmNaGZHmwgtTtWONVt7fCDc402PD5IZxMkXIb-fOB36565F4045593B3WZRdKUY11SxZX9AFtS629sjt3ZhBjJZKK2NN5zg8D0BkcH3hBInD3Ua6a0RoJb2LLVHlzMayu6rJKeZKT09td6fOYeGBY7ROsAi9K77s09eSt9gIw1ybq2pDrBQieglzxTDg7LekbqHBxZ5HMx6qFL2lK1GMU1_ytYN7ke6VdNBwFPb2fBjL6ggxWcv7BRCarLUxJgmyk4Umb6b1iIwdFwV3rCZtU5ZWfCPkP6HcsHSufh4wto5r-S5g5yAHfeDZnS7wxM9Iyl4tYunBuzmOvreapFmFOKXLoYTimxiwS5g4xi7rrufmxvT9Cyx6Q6UC-9uXc2PXmfgKGb2lh-CoWd4Lo8hp6qWdKheNpWXpnvHbgzRk5RcYSM5MkHeT0iqPyGs0GMYr8Nyb9f1cvHxjPVHTN7TavskZgavz07xMH9D5OxCtRKKIT6NS1Uz8o87tmZinhpjbTKxs6-NIQ4qUc-tOsfjVFE2wtqn-jTxUJwayqHiUcVV6DcvCXNT8JxU3CVfRadVgBekDcQ2_Nfqu4ienZ72AdjL-mfUq-iDJmIL_JZ2h2KlcVLc1KKVTlesUvg5txZPsDQ14Iye8Ai_kyjpE4Cgkq4sLdPpe_xJ3z2m00]--></g></svg>