<svg xmlns="http://www.w3.org/2000/svg" xmlns:xlink="http://www.w3.org/1999/xlink" contentStyleType="text/css" height="751.1px" preserveAspectRatio="none" style="width:667px;height:751px;background:#FFFFFF;" version="1.1" viewBox="0 0 667 751" width="667.1px" zoomAndPan="magnify"><title>Class Diagram: US01 - Create a Map</title><defs/><g><text fill="#000000" font-family="sans-serif" font-size="9.8" font-weight="bold" lengthAdjust="spacing" textLength="168.2987" x="244.5006" y="17.5752">Class Diagram: US01 - Create a Map</text><!--class CreateMapUI--><g id="elem_CreateMapUI"><rect codeLine="7" fill="#F1F1F1" height="33.6" id="CreateMapUI" rx="1.75" ry="1.75" style="stroke:#181818;stroke-width:0.3499999999999999;" width="80.6784" x="306.95" y="32.6348"/><ellipse cx="317.45" cy="43.8348" fill="#ADD1B2" rx="7.7" ry="7.7" style="stroke:#181818;stroke-width:0.6999999999999998;"/><path d="M319.3859,40.9473 Q319.4953,40.7941 319.6266,40.7176 Q319.7578,40.641 319.9109,40.641 Q320.1734,40.641 320.3375,40.827 Q320.5016,41.002 320.5016,41.4285 L320.5016,42.4457 Q320.5016,42.8723 320.3375,43.0582 Q320.1734,43.2441 319.9109,43.2441 Q319.6703,43.2441 319.5281,43.102 Q319.3859,42.9707 319.3094,42.6098 Q319.2766,42.3582 319.1453,42.227 Q318.9156,41.9645 318.4891,41.8113 Q318.0625,41.6582 317.625,41.6582 Q317.0891,41.6582 316.6406,41.8879 Q316.2031,42.1176 315.8531,42.6426 Q315.5141,43.1676 315.5141,43.8895 L315.5141,44.6551 Q315.5141,45.5191 316.1375,46.0988 Q316.7609,46.6676 317.8766,46.6676 Q318.5328,46.6676 318.9922,46.4926 Q319.2656,46.3832 319.5609,46.077 Q319.7469,45.891 319.8453,45.8363 Q319.9547,45.7816 320.0969,45.7816 Q320.3266,45.7816 320.5016,45.9676 Q320.6875,46.1426 320.6875,46.3832 Q320.6875,46.6238 320.4469,46.9082 Q320.0969,47.3129 319.5391,47.5426 Q318.7844,47.8598 317.8766,47.8598 Q316.8156,47.8598 315.9734,47.4223 Q315.2844,47.0723 314.8031,46.3285 Q314.3219,45.5738 314.3219,44.677 L314.3219,43.8676 Q314.3219,42.9379 314.7484,42.1395 Q315.1859,41.3301 315.9516,40.9035 Q316.7172,40.466 317.5812,40.466 Q318.0953,40.466 318.5437,40.5863 Q319.0031,40.6957 319.3859,40.9473 Z " fill="#000000"/><text fill="#000000" font-family="sans-serif" font-size="9.8" lengthAdjust="spacing" textLength="58.2784" x="327.25" y="47.8926">CreateMapUI</text><line style="stroke:#181818;stroke-width:0.3499999999999999;" x1="307.65" x2="386.9284" y1="55.0348" y2="55.0348"/><line style="stroke:#181818;stroke-width:0.3499999999999999;" x1="307.65" x2="386.9284" y1="60.6348" y2="60.6348"/></g><!--class CreateMapController--><g id="elem_CreateMapController"><rect codeLine="10" fill="#F1F1F1" height="72.7043" id="CreateMapController" rx="1.75" ry="1.75" style="stroke:#181818;stroke-width:0.3499999999999999;" width="232.0247" x="231.35" y="108.9348"/><ellipse cx="298.9068" cy="120.1348" fill="#ADD1B2" rx="7.7" ry="7.7" style="stroke:#181818;stroke-width:0.6999999999999998;"/><path d="M300.8428,117.2473 Q300.9521,117.0941 301.0834,117.0176 Q301.2146,116.941 301.3678,116.941 Q301.6303,116.941 301.7943,117.127 Q301.9584,117.302 301.9584,117.7285 L301.9584,118.7457 Q301.9584,119.1723 301.7943,119.3582 Q301.6303,119.5441 301.3678,119.5441 Q301.1271,119.5441 300.985,119.402 Q300.8428,119.2707 300.7662,118.9098 Q300.7334,118.6582 300.6021,118.527 Q300.3725,118.2645 299.9459,118.1113 Q299.5193,117.9582 299.0818,117.9582 Q298.5459,117.9582 298.0975,118.1879 Q297.66,118.4176 297.31,118.9426 Q296.9709,119.4676 296.9709,120.1895 L296.9709,120.9551 Q296.9709,121.8191 297.5943,122.3988 Q298.2178,122.9676 299.3334,122.9676 Q299.9896,122.9676 300.449,122.7926 Q300.7225,122.6832 301.0178,122.377 Q301.2037,122.191 301.3021,122.1363 Q301.4115,122.0816 301.5537,122.0816 Q301.7834,122.0816 301.9584,122.2676 Q302.1443,122.4426 302.1443,122.6832 Q302.1443,122.9238 301.9037,123.2082 Q301.5537,123.6129 300.9959,123.8426 Q300.2412,124.1598 299.3334,124.1598 Q298.2725,124.1598 297.4303,123.7223 Q296.7412,123.3723 296.26,122.6285 Q295.7787,121.8738 295.7787,120.977 L295.7787,120.1676 Q295.7787,119.2379 296.2053,118.4395 Q296.6428,117.6301 297.4084,117.2035 Q298.174,116.766 299.0381,116.766 Q299.5521,116.766 300.0006,116.8863 Q300.46,116.9957 300.8428,117.2473 Z " fill="#000000"/><text fill="#000000" font-family="sans-serif" font-size="9.8" lengthAdjust="spacing" textLength="90.961" x="313.2568" y="124.1926">CreateMapController</text><line style="stroke:#181818;stroke-width:0.3499999999999999;" x1="232.05" x2="462.6747" y1="131.3348" y2="131.3348"/><line style="stroke:#181818;stroke-width:0.3499999999999999;" x1="232.05" x2="462.6747" y1="136.9348" y2="136.9348"/><text fill="#000000" font-family="sans-serif" font-size="9.8" lengthAdjust="spacing" textLength="39.4871" x="235.55" y="150.31">+create()</text><text fill="#000000" font-family="sans-serif" font-size="9.8" lengthAdjust="spacing" textLength="223.6247" x="235.55" y="163.3447">+validateMapData(nameID, width, height) : boolean</text><text fill="#000000" font-family="sans-serif" font-size="9.8" lengthAdjust="spacing" textLength="180.5679" x="235.55" y="176.3795">+createMap(nameID, width, height) : Map</text></g><!--class MapRepository--><g id="elem_MapRepository"><rect codeLine="16" fill="#F1F1F1" height="59.6695" id="MapRepository" rx="1.75" ry="1.75" style="stroke:#181818;stroke-width:0.3499999999999999;" width="136.1206" x="365.4" y="358.8348"/><ellipse cx="397.5323" cy="370.0348" fill="#ADD1B2" rx="7.7" ry="7.7" style="stroke:#181818;stroke-width:0.6999999999999998;"/><path d="M399.4683,367.1473 Q399.5776,366.9941 399.7089,366.9176 Q399.8401,366.841 399.9933,366.841 Q400.2558,366.841 400.4198,367.027 Q400.5839,367.202 400.5839,367.6285 L400.5839,368.6457 Q400.5839,369.0723 400.4198,369.2582 Q400.2558,369.4441 399.9933,369.4441 Q399.7526,369.4441 399.6104,369.302 Q399.4683,369.1707 399.3917,368.8098 Q399.3589,368.5582 399.2276,368.427 Q398.9979,368.1645 398.5714,368.0113 Q398.1448,367.8582 397.7073,367.8582 Q397.1714,367.8582 396.7229,368.0879 Q396.2854,368.3176 395.9354,368.8426 Q395.5964,369.3676 395.5964,370.0895 L395.5964,370.8551 Q395.5964,371.7191 396.2198,372.2988 Q396.8433,372.8676 397.9589,372.8676 Q398.6151,372.8676 399.0745,372.6926 Q399.3479,372.5832 399.6433,372.277 Q399.8292,372.091 399.9276,372.0363 Q400.037,371.9816 400.1792,371.9816 Q400.4089,371.9816 400.5839,372.1676 Q400.7698,372.3426 400.7698,372.5832 Q400.7698,372.8238 400.5292,373.1082 Q400.1792,373.5129 399.6214,373.7426 Q398.8667,374.0598 397.9589,374.0598 Q396.8979,374.0598 396.0558,373.6223 Q395.3667,373.2723 394.8854,372.5285 Q394.4042,371.7738 394.4042,370.877 L394.4042,370.0676 Q394.4042,369.1379 394.8308,368.3395 Q395.2683,367.5301 396.0339,367.1035 Q396.7995,366.666 397.6636,366.666 Q398.1776,366.666 398.6261,366.7863 Q399.0854,366.8957 399.4683,367.1473 Z " fill="#000000"/><text fill="#000000" font-family="sans-serif" font-size="9.8" lengthAdjust="spacing" textLength="65.906" x="411.8823" y="374.0926">MapRepository</text><line style="stroke:#181818;stroke-width:0.3499999999999999;" x1="366.1" x2="500.8206" y1="381.2348" y2="381.2348"/><line style="stroke:#181818;stroke-width:0.3499999999999999;" x1="366.1" x2="500.8206" y1="386.8348" y2="386.8348"/><text fill="#000000" font-family="sans-serif" font-size="9.8" lengthAdjust="spacing" textLength="95.0619" x="369.6" y="400.21">+save(map) : boolean</text><text fill="#000000" font-family="sans-serif" font-size="9.8" lengthAdjust="spacing" textLength="127.7206" x="369.6" y="413.2447">+getMapByID(nameID) : Map</text></g><!--class Repositories--><g id="elem_Repositories"><rect codeLine="21" fill="#F1F1F1" height="59.6695" id="Repositories" rx="1.75" ry="1.75" style="stroke:#181818;stroke-width:0.3499999999999999;" width="174.2535" x="346.15" y="224.4348"/><ellipse cx="403.067" cy="235.6348" fill="#ADD1B2" rx="7.7" ry="7.7" style="stroke:#181818;stroke-width:0.6999999999999998;"/><path d="M405.003,232.7473 Q405.1124,232.5941 405.2436,232.5176 Q405.3749,232.441 405.528,232.441 Q405.7905,232.441 405.9545,232.627 Q406.1186,232.802 406.1186,233.2285 L406.1186,234.2457 Q406.1186,234.6723 405.9545,234.8582 Q405.7905,235.0441 405.528,235.0441 Q405.2874,235.0441 405.1452,234.902 Q405.003,234.7707 404.9264,234.4098 Q404.8936,234.1582 404.7624,234.027 Q404.5327,233.7645 404.1061,233.6113 Q403.6795,233.4582 403.242,233.4582 Q402.7061,233.4582 402.2577,233.6879 Q401.8202,233.9176 401.4702,234.4426 Q401.1311,234.9676 401.1311,235.6895 L401.1311,236.4551 Q401.1311,237.3191 401.7545,237.8988 Q402.378,238.4676 403.4936,238.4676 Q404.1499,238.4676 404.6092,238.2926 Q404.8827,238.1832 405.178,237.877 Q405.3639,237.691 405.4624,237.6363 Q405.5717,237.5816 405.7139,237.5816 Q405.9436,237.5816 406.1186,237.7676 Q406.3045,237.9426 406.3045,238.1832 Q406.3045,238.4238 406.0639,238.7082 Q405.7139,239.1129 405.1561,239.3426 Q404.4014,239.6598 403.4936,239.6598 Q402.4327,239.6598 401.5905,239.2223 Q400.9014,238.8723 400.4202,238.1285 Q399.9389,237.3738 399.9389,236.477 L399.9389,235.6676 Q399.9389,234.7379 400.3655,233.9395 Q400.803,233.1301 401.5686,232.7035 Q402.3342,232.266 403.1983,232.266 Q403.7124,232.266 404.1608,232.3863 Q404.6202,232.4957 405.003,232.7473 Z " fill="#000000"/><text fill="#000000" font-family="sans-serif" font-size="9.8" lengthAdjust="spacing" textLength="54.4694" x="417.417" y="239.6926">Repositories</text><line style="stroke:#181818;stroke-width:0.3499999999999999;" x1="346.85" x2="519.7035" y1="246.8348" y2="246.8348"/><line style="stroke:#181818;stroke-width:0.3499999999999999;" x1="346.85" x2="519.7035" y1="252.4348" y2="252.4348"/><text fill="#000000" font-family="sans-serif" font-size="9.8" lengthAdjust="spacing" text-decoration="underline" textLength="125.5577" x="350.35" y="265.81">+getInstance() : Repositories</text><text fill="#000000" font-family="sans-serif" font-size="9.8" lengthAdjust="spacing" textLength="165.8535" x="350.35" y="278.8447">+getMapRepository() : MapRepository</text></g><!--class ApplicationSession--><g id="elem_ApplicationSession"><rect codeLine="26" fill="#F1F1F1" height="59.6695" id="ApplicationSession" rx="1.75" ry="1.75" style="stroke:#181818;stroke-width:0.3499999999999999;" width="162.2954" x="4.9" y="224.4348"/><ellipse cx="41.6691" cy="235.6348" fill="#ADD1B2" rx="7.7" ry="7.7" style="stroke:#181818;stroke-width:0.6999999999999998;"/><path d="M43.6051,232.7473 Q43.7145,232.5941 43.8457,232.5176 Q43.977,232.441 44.1301,232.441 Q44.3926,232.441 44.5566,232.627 Q44.7207,232.802 44.7207,233.2285 L44.7207,234.2457 Q44.7207,234.6723 44.5566,234.8582 Q44.3926,235.0441 44.1301,235.0441 Q43.8895,235.0441 43.7473,234.902 Q43.6051,234.7707 43.5285,234.4098 Q43.4957,234.1582 43.3645,234.027 Q43.1348,233.7645 42.7082,233.6113 Q42.2816,233.4582 41.8441,233.4582 Q41.3082,233.4582 40.8598,233.6879 Q40.4223,233.9176 40.0723,234.4426 Q39.7332,234.9676 39.7332,235.6895 L39.7332,236.4551 Q39.7332,237.3191 40.3566,237.8988 Q40.9801,238.4676 42.0957,238.4676 Q42.752,238.4676 43.2113,238.2926 Q43.4848,238.1832 43.7801,237.877 Q43.966,237.691 44.0645,237.6363 Q44.1738,237.5816 44.316,237.5816 Q44.5457,237.5816 44.7207,237.7676 Q44.9066,237.9426 44.9066,238.1832 Q44.9066,238.4238 44.666,238.7082 Q44.316,239.1129 43.7582,239.3426 Q43.0035,239.6598 42.0957,239.6598 Q41.0348,239.6598 40.1926,239.2223 Q39.5035,238.8723 39.0223,238.1285 Q38.541,237.3738 38.541,236.477 L38.541,235.6676 Q38.541,234.7379 38.9676,233.9395 Q39.4051,233.1301 40.1707,232.7035 Q40.9363,232.266 41.8004,232.266 Q42.3145,232.266 42.7629,232.3863 Q43.2223,232.4957 43.6051,232.7473 Z " fill="#000000"/><text fill="#000000" font-family="sans-serif" font-size="9.8" lengthAdjust="spacing" textLength="82.8071" x="56.0191" y="239.6926">ApplicationSession</text><line style="stroke:#181818;stroke-width:0.3499999999999999;" x1="5.6" x2="166.4954" y1="246.8348" y2="246.8348"/><line style="stroke:#181818;stroke-width:0.3499999999999999;" x1="5.6" x2="166.4954" y1="252.4348" y2="252.4348"/><text fill="#000000" font-family="sans-serif" font-size="9.8" lengthAdjust="spacing" text-decoration="underline" textLength="153.8954" x="9.1" y="265.81">+getInstance() : ApplicationSession</text><text fill="#000000" font-family="sans-serif" font-size="9.8" lengthAdjust="spacing" textLength="127.1847" x="9.1" y="278.8447">+getCurrentSession() : Editor</text></g><!--class Map--><g id="elem_Map"><rect codeLine="31" fill="#F1F1F1" height="111.8086" id="Map" rx="1.75" ry="1.75" style="stroke:#181818;stroke-width:0.3499999999999999;" width="206.9266" x="246.4" y="493.2348"/><ellipse cx="337.3562" cy="504.4348" fill="#ADD1B2" rx="7.7" ry="7.7" style="stroke:#181818;stroke-width:0.6999999999999998;"/><path d="M339.2922,501.5473 Q339.4016,501.3941 339.5328,501.3176 Q339.6641,501.241 339.8172,501.241 Q340.0797,501.241 340.2437,501.427 Q340.4078,501.602 340.4078,502.0285 L340.4078,503.0457 Q340.4078,503.4723 340.2437,503.6582 Q340.0797,503.8441 339.8172,503.8441 Q339.5766,503.8441 339.4344,503.702 Q339.2922,503.5707 339.2156,503.2098 Q339.1828,502.9582 339.0516,502.827 Q338.8219,502.5645 338.3953,502.4113 Q337.9687,502.2582 337.5312,502.2582 Q336.9953,502.2582 336.5469,502.4879 Q336.1094,502.7176 335.7594,503.2426 Q335.4203,503.7676 335.4203,504.4895 L335.4203,505.2551 Q335.4203,506.1191 336.0437,506.6988 Q336.6672,507.2676 337.7828,507.2676 Q338.4391,507.2676 338.8984,507.0926 Q339.1719,506.9832 339.4672,506.677 Q339.6531,506.491 339.7516,506.4363 Q339.8609,506.3816 340.0031,506.3816 Q340.2328,506.3816 340.4078,506.5676 Q340.5937,506.7426 340.5937,506.9832 Q340.5937,507.2238 340.3531,507.5082 Q340.0031,507.9129 339.4453,508.1426 Q338.6906,508.4598 337.7828,508.4598 Q336.7219,508.4598 335.8797,508.0223 Q335.1906,507.6723 334.7094,506.9285 Q334.2281,506.1738 334.2281,505.277 L334.2281,504.4676 Q334.2281,503.5379 334.6547,502.7395 Q335.0922,501.9301 335.8578,501.5035 Q336.6234,501.066 337.4875,501.066 Q338.0016,501.066 338.45,501.1863 Q338.9094,501.2957 339.2922,501.5473 Z " fill="#000000"/><text fill="#000000" font-family="sans-serif" font-size="9.8" lengthAdjust="spacing" textLength="19.0641" x="351.7062" y="508.4926">Map</text><line style="stroke:#181818;stroke-width:0.3499999999999999;" x1="247.1" x2="452.6266" y1="515.6348" y2="515.6348"/><text fill="#000000" font-family="sans-serif" font-size="9.8" lengthAdjust="spacing" textLength="71.3467" x="250.6" y="529.01">-nameID : String</text><text fill="#000000" font-family="sans-serif" font-size="9.8" lengthAdjust="spacing" textLength="47.9233" x="250.6" y="542.0447">-size : Size</text><text fill="#000000" font-family="sans-serif" font-size="9.8" lengthAdjust="spacing" textLength="84.9557" x="250.6" y="555.0795">-cityList : List&lt;City&gt;</text><text fill="#000000" font-family="sans-serif" font-size="9.8" lengthAdjust="spacing" textLength="122.5526" x="250.6" y="568.1143">-industryList : List&lt;Industry&gt;</text><line style="stroke:#181818;stroke-width:0.3499999999999999;" x1="247.1" x2="452.6266" y1="573.3738" y2="573.3738"/><text fill="#000000" font-family="sans-serif" font-size="9.8" lengthAdjust="spacing" text-decoration="underline" textLength="168.5954" x="250.6" y="586.749">+validateMapName(nameID) : boolean</text><text fill="#000000" font-family="sans-serif" font-size="9.8" lengthAdjust="spacing" textLength="198.5266" x="250.6" y="599.7838">+createMap(nameID: String, size: Size) : Map</text></g><!--class Size--><g id="elem_Size"><rect codeLine="41" fill="#F1F1F1" height="85.7391" id="Size" rx="1.75" ry="1.75" style="stroke:#181818;stroke-width:0.3499999999999999;" width="203.1559" x="446.6" y="660.5348"/><ellipse cx="535.6709" cy="671.7348" fill="#ADD1B2" rx="7.7" ry="7.7" style="stroke:#181818;stroke-width:0.6999999999999998;"/><path d="M537.6068,668.8473 Q537.7162,668.6941 537.8475,668.6176 Q537.9787,668.541 538.1318,668.541 Q538.3943,668.541 538.5584,668.727 Q538.7225,668.902 538.7225,669.3285 L538.7225,670.3457 Q538.7225,670.7723 538.5584,670.9582 Q538.3943,671.1441 538.1318,671.1441 Q537.8912,671.1441 537.749,671.002 Q537.6068,670.8707 537.5303,670.5098 Q537.4975,670.2582 537.3662,670.127 Q537.1365,669.8645 536.71,669.7113 Q536.2834,669.5582 535.8459,669.5582 Q535.31,669.5582 534.8615,669.7879 Q534.424,670.0176 534.074,670.5426 Q533.735,671.0676 533.735,671.7895 L533.735,672.5551 Q533.735,673.4191 534.3584,673.9988 Q534.9818,674.5676 536.0975,674.5676 Q536.7537,674.5676 537.2131,674.3926 Q537.4865,674.2832 537.7818,673.977 Q537.9678,673.791 538.0662,673.7363 Q538.1756,673.6816 538.3178,673.6816 Q538.5475,673.6816 538.7225,673.8676 Q538.9084,674.0426 538.9084,674.2832 Q538.9084,674.5238 538.6678,674.8082 Q538.3178,675.2129 537.76,675.4426 Q537.0053,675.7598 536.0975,675.7598 Q535.0365,675.7598 534.1943,675.3223 Q533.5053,674.9723 533.024,674.2285 Q532.5428,673.4738 532.5428,672.577 L532.5428,671.7676 Q532.5428,670.8379 532.9693,670.0395 Q533.4068,669.2301 534.1725,668.8035 Q534.9381,668.366 535.8021,668.366 Q536.3162,668.366 536.7646,668.4863 Q537.224,668.5957 537.6068,668.8473 Z " fill="#000000"/><text fill="#000000" font-family="sans-serif" font-size="9.8" lengthAdjust="spacing" textLength="19.0641" x="550.0209" y="675.7926">Size</text><line style="stroke:#181818;stroke-width:0.3499999999999999;" x1="447.3" x2="649.0559" y1="682.9348" y2="682.9348"/><text fill="#000000" font-family="sans-serif" font-size="9.8" lengthAdjust="spacing" textLength="44.6599" x="450.8" y="696.31">-width : int</text><text fill="#000000" font-family="sans-serif" font-size="9.8" lengthAdjust="spacing" textLength="48.4832" x="450.8" y="709.3447">-height : int</text><line style="stroke:#181818;stroke-width:0.3499999999999999;" x1="447.3" x2="649.0559" y1="714.6043" y2="714.6043"/><text fill="#000000" font-family="sans-serif" font-size="9.8" lengthAdjust="spacing" text-decoration="underline" textLength="194.7559" x="450.8" y="727.9795">+validateSize(width: int, height: int) : boolean</text><text fill="#000000" font-family="sans-serif" font-size="9.8" lengthAdjust="spacing" textLength="172.3996" x="450.8" y="741.0143">+createSize(width: int, height: int) : Size</text></g><!--class Editor--><g id="elem_Editor"><rect codeLine="49" fill="#F1F1F1" height="98.7738" id="Editor" rx="1.75" ry="1.75" style="stroke:#181818;stroke-width:0.3499999999999999;" width="206.9266" x="64.4" y="339.2348"/><ellipse cx="152.088" cy="350.4348" fill="#ADD1B2" rx="7.7" ry="7.7" style="stroke:#181818;stroke-width:0.6999999999999998;"/><path d="M154.0239,347.5473 Q154.1333,347.3941 154.2646,347.3176 Q154.3958,347.241 154.5489,347.241 Q154.8114,347.241 154.9755,347.427 Q155.1396,347.602 155.1396,348.0285 L155.1396,349.0457 Q155.1396,349.4723 154.9755,349.6582 Q154.8114,349.8441 154.5489,349.8441 Q154.3083,349.8441 154.1661,349.702 Q154.0239,349.5707 153.9474,349.2098 Q153.9146,348.9582 153.7833,348.827 Q153.5536,348.5645 153.1271,348.4113 Q152.7005,348.2582 152.263,348.2582 Q151.7271,348.2582 151.2786,348.4879 Q150.8411,348.7176 150.4911,349.2426 Q150.1521,349.7676 150.1521,350.4895 L150.1521,351.2551 Q150.1521,352.1191 150.7755,352.6988 Q151.3989,353.2676 152.5146,353.2676 Q153.1708,353.2676 153.6302,353.0926 Q153.9036,352.9832 154.1989,352.677 Q154.3849,352.491 154.4833,352.4363 Q154.5927,352.3816 154.7349,352.3816 Q154.9646,352.3816 155.1396,352.5676 Q155.3255,352.7426 155.3255,352.9832 Q155.3255,353.2238 155.0849,353.5082 Q154.7349,353.9129 154.1771,354.1426 Q153.4224,354.4598 152.5146,354.4598 Q151.4536,354.4598 150.6114,354.0223 Q149.9224,353.6723 149.4411,352.9285 Q148.9599,352.1738 148.9599,351.277 L148.9599,350.4676 Q148.9599,349.5379 149.3864,348.7395 Q149.8239,347.9301 150.5896,347.5035 Q151.3552,347.066 152.2192,347.066 Q152.7333,347.066 153.1817,347.1863 Q153.6411,347.2957 154.0239,347.5473 Z " fill="#000000"/><text fill="#000000" font-family="sans-serif" font-size="9.8" lengthAdjust="spacing" textLength="25.6006" x="166.438" y="354.4926">Editor</text><line style="stroke:#181818;stroke-width:0.3499999999999999;" x1="65.1" x2="270.6266" y1="361.6348" y2="361.6348"/><text fill="#000000" font-family="sans-serif" font-size="9.8" lengthAdjust="spacing" textLength="80.6107" x="68.6" y="375.01">-username : String</text><text fill="#000000" font-family="sans-serif" font-size="9.8" lengthAdjust="spacing" textLength="78.9742" x="68.6" y="388.0447">-password : String</text><text fill="#000000" font-family="sans-serif" font-size="9.8" lengthAdjust="spacing" textLength="113.8437" x="68.6" y="401.0795">-createdMaps : List&lt;Map&gt;</text><line style="stroke:#181818;stroke-width:0.3499999999999999;" x1="65.1" x2="270.6266" y1="406.3391" y2="406.3391"/><text fill="#000000" font-family="sans-serif" font-size="9.8" lengthAdjust="spacing" textLength="198.5266" x="68.6" y="419.7143">+createMap(nameID: String, size: Size) : Map</text><text fill="#000000" font-family="sans-serif" font-size="9.8" lengthAdjust="spacing" textLength="134.2858" x="68.6" y="432.749">+addMap(map: Map) : boolean</text></g><!--link CreateMapUI to CreateMapController--><g id="link_CreateMapUI_CreateMapController"><path codeLine="58" d="M347.2,66.3818 C347.2,78.0438 347.2,90.0138 347.2,104.6368 " fill="none" id="CreateMapUI-to-CreateMapController" style="stroke:#181818;stroke-width:0.6999999999999998;stroke-dasharray:7.0,7.0;"/><polygon fill="#181818" points="347.2,108.8368,350,102.5368,347.2,105.3368,344.4,102.5368,347.2,108.8368" style="stroke:#181818;stroke-width:0.6999999999999998;"/></g><!--link CreateMapController to MapRepository--><g id="link_CreateMapController_MapRepository"><path codeLine="60" d="M463.204,155.0088 C509.565,164.9768 558.656,184.9478 587.3,224.4348 C624.442,275.6398 556.336,325.5933 498.768,356.7783 " fill="none" id="CreateMapController-to-MapRepository" style="stroke:#181818;stroke-width:0.6999999999999998;stroke-dasharray:7.0,7.0;"/><polygon fill="#181818" points="495.075,358.7788,501.9481,358.24,498.1525,357.1117,499.2808,353.316,495.075,358.7788" style="stroke:#181818;stroke-width:0.6999999999999998;"/></g><!--link CreateMapController to Repositories--><g id="link_CreateMapController_Repositories"><path codeLine="61" d="M375.872,181.8118 C386.925,195.6088 396.7867,207.9132 407.2867,221.0172 " fill="none" id="CreateMapController-to-Repositories" style="stroke:#181818;stroke-width:0.6999999999999998;stroke-dasharray:7.0,7.0;"/><polygon fill="#181818" points="409.913,224.2948,408.1586,217.6275,407.7244,221.5634,403.7885,221.1292,409.913,224.2948" style="stroke:#181818;stroke-width:0.6999999999999998;"/></g><!--link CreateMapController to ApplicationSession--><g id="link_CreateMapController_ApplicationSession"><path codeLine="62" d="M260.442,181.7418 C226.751,195.6018 192.548,209.6764 160.586,222.8294 " fill="none" id="CreateMapController-to-ApplicationSession" style="stroke:#181818;stroke-width:0.6999999999999998;stroke-dasharray:7.0,7.0;"/><polygon fill="#181818" points="156.702,224.4278,163.5935,224.6196,159.9387,223.0958,161.4624,219.4409,156.702,224.4278" style="stroke:#181818;stroke-width:0.6999999999999998;"/></g><!--link CreateMapController to Map--><g id="link_CreateMapController_Map"><path codeLine="63" d="M339.836,181.7838 C337.435,195.1048 335.083,210.3998 333.9,224.4348 C325.969,318.6058 334.8631,424.3542 342.2761,488.9432 " fill="none" id="CreateMapController-to-Map" style="stroke:#181818;stroke-width:0.6999999999999998;stroke-dasharray:7.0,7.0;"/><polygon fill="#181818" points="342.755,493.1158,344.8184,486.5376,342.3559,489.6386,339.2549,487.1761,342.755,493.1158" style="stroke:#181818;stroke-width:0.6999999999999998;"/></g><!--link CreateMapController to Size--><g id="link_CreateMapController_Size"><path codeLine="64" d="M463.155,163.4998 C552.972,180.4118 662.2,209.9308 662.2,253.4848 C662.2,253.4848 662.2,253.4848 662.2,549.9348 C662.2,593.4328 635.143,629.6193 605.862,657.3393 " fill="none" id="CreateMapController-to-Size" style="stroke:#181818;stroke-width:0.6999999999999998;stroke-dasharray:7.0,7.0;"/><polygon fill="#181818" points="602.812,660.2268,609.312,657.929,605.3537,657.8206,605.4621,653.8623,602.812,660.2268" style="stroke:#181818;stroke-width:0.6999999999999998;"/></g><!--link CreateMapController to Editor--><g id="link_CreateMapController_Editor"><path codeLine="65" d="M309.169,181.9238 C302.694,188.6228 296.226,195.7278 290.5,202.7348 C271.026,226.5768 230.4037,289.217 200.9197,335.613 " fill="none" id="CreateMapController-to-Editor" style="stroke:#181818;stroke-width:0.6999999999999998;stroke-dasharray:7.0,7.0;"/><polygon fill="#181818" points="198.667,339.1578,204.4092,335.3424,200.5442,336.2038,199.6828,332.3388,198.667,339.1578" style="stroke:#181818;stroke-width:0.6999999999999998;"/></g><!--link Map to Size--><g id="link_Map_Size"><path codeLine="67" d="M421.799,605.2418 C445.382,623.4138 467.878,640.7373 489.991,657.7753 " fill="none" id="Map-to-Size" style="stroke:#181818;stroke-width:0.6999999999999998;"/><polygon fill="#181818" points="493.318,660.3388,490.0365,654.2756,490.5455,658.2026,486.6186,658.7116,493.318,660.3388" style="stroke:#181818;stroke-width:0.6999999999999998;"/><text fill="#000000" font-family="sans-serif" font-size="9.1" lengthAdjust="spacing" textLength="16.1827" x="461.3" y="636.7546">size</text><text fill="#000000" font-family="sans-serif" font-size="9.1" lengthAdjust="spacing" textLength="5.061" x="422.8773" y="620.403">1</text><text fill="#000000" font-family="sans-serif" font-size="9.1" lengthAdjust="spacing" textLength="5.061" x="481.8008" y="652.6029">1</text></g><!--link MapRepository to Map--><g id="link_MapRepository_Map"><path codeLine="68" d="M418.019,418.4958 C407.127,439.3278 394.0873,464.2575 380.9483,489.3665 " fill="none" id="MapRepository-to-Map" style="stroke:#181818;stroke-width:0.6999999999999998;"/><polygon fill="#181818" points="379.001,493.0878,384.4028,488.804,380.6237,489.9867,379.441,486.2076,379.001,493.0878" style="stroke:#181818;stroke-width:0.6999999999999998;"/><text fill="#000000" font-family="sans-serif" font-size="9.1" lengthAdjust="spacing" textLength="17.7023" x="397.6" y="469.4546">map</text><text fill="#000000" font-family="sans-serif" font-size="9.1" lengthAdjust="spacing" textLength="5.061" x="376.5687" y="485.3012">1</text></g><!--link Editor to Map--><g id="link_Editor_Map"><path codeLine="69" d="M204.435,438.1168 C214.256,449.8908 225.309,462.0078 236.6,472.2348 C244.517,479.4028 249.7937,483.8821 258.6557,490.5601 " fill="none" id="Editor-to-Map" style="stroke:#181818;stroke-width:0.6999999999999998;"/><polygon fill="#181818" points="262.01,493.0878,258.6637,487.0602,259.2148,490.9814,255.2935,491.5325,262.01,493.0878" style="stroke:#181818;stroke-width:0.6999999999999998;"/><text fill="#000000" font-family="sans-serif" font-size="9.1" lengthAdjust="spacing" textLength="52.6049" x="237.3" y="469.4546">createdMaps</text><text fill="#000000" font-family="sans-serif" font-size="9.1" lengthAdjust="spacing" textLength="5.061" x="202.9018" y="453.4045">1</text><text fill="#000000" font-family="sans-serif" font-size="9.1" lengthAdjust="spacing" textLength="3.5414" x="250.2516" y="485.3012">*</text></g><!--link Repositories to Repositories--><g id="link_Repositories_Repositories"><path codeLine="71" d="M520.604,245.4208 C535.024,246.6598 544.95,249.5858 544.95,254.1848 C544.95,258.7838 539.2086,261.3502 524.7886,262.5892 " fill="none" id="Repositories-to-Repositories" style="stroke:#181818;stroke-width:0.6999999999999998;"/><polygon fill="#181818" points="520.604,262.9488,527.1206,265.1992,524.0912,262.6491,526.6412,259.6197,520.604,262.9488" style="stroke:#181818;stroke-width:0.6999999999999998;"/><text fill="#000000" font-family="sans-serif" font-size="9.1" lengthAdjust="spacing" textLength="33.8939" x="549.15" y="258.0546">instance</text><text fill="#000000" font-family="sans-serif" font-size="9.1" lengthAdjust="spacing" textLength="5.061" x="526.0797" y="261.0411">1</text></g><!--link Repositories to MapRepository--><g id="link_Repositories_MapRepository"><path codeLine="72" d="M433.3,284.0748 C433.3,306.2508 433.3,332.4098 433.3,354.5648 " fill="none" id="Repositories-to-MapRepository" style="stroke:#181818;stroke-width:0.6999999999999998;"/><polygon fill="#181818" points="433.3,358.7648,436.1,352.4648,433.3,355.2648,430.5,352.4648,433.3,358.7648" style="stroke:#181818;stroke-width:0.6999999999999998;"/><text fill="#000000" font-family="sans-serif" font-size="9.1" lengthAdjust="spacing" textLength="61.1984" x="434" y="315.4546">mapRepository</text><text fill="#000000" font-family="sans-serif" font-size="9.1" lengthAdjust="spacing" textLength="5.061" x="427.9968" y="350.9865">1</text></g><!--link ApplicationSession to ApplicationSession--><g id="link_ApplicationSession_ApplicationSession"><path codeLine="74" d="M167.426,245.3088 C181.79,246.4778 191.8,249.4318 191.8,254.1848 C191.8,258.9378 185.9762,261.5511 171.6122,262.7201 " fill="none" id="ApplicationSession-to-ApplicationSession" style="stroke:#181818;stroke-width:0.6999999999999998;"/><polygon fill="#181818" points="167.426,263.0608,173.9324,265.3405,170.9145,262.7769,173.4781,259.759,167.426,263.0608" style="stroke:#181818;stroke-width:0.6999999999999998;"/><text fill="#000000" font-family="sans-serif" font-size="9.1" lengthAdjust="spacing" textLength="33.8939" x="196" y="258.0546">instance</text><text fill="#000000" font-family="sans-serif" font-size="9.1" lengthAdjust="spacing" textLength="5.061" x="172.8014" y="261.1691">1</text></g><!--link ApplicationSession to Editor--><g id="link_ApplicationSession_Editor"><path codeLine="75" d="M104.076,284.0748 C114.009,300.2098 124.4067,317.0945 135.7957,335.5885 " fill="none" id="ApplicationSession-to-Editor" style="stroke:#181818;stroke-width:0.6999999999999998;"/><polygon fill="#181818" points="137.998,339.1648,137.0787,332.3321,136.1627,336.1845,132.3103,335.2686,137.998,339.1648" style="stroke:#181818;stroke-width:0.6999999999999998;"/><text fill="#000000" font-family="sans-serif" font-size="9.1" lengthAdjust="spacing" textLength="60.6963" x="125.3" y="315.4546">currentSession</text><text fill="#000000" font-family="sans-serif" font-size="9.1" lengthAdjust="spacing" textLength="5.061" x="129.7738" y="331.3813">1</text></g><!--SRC=[dLJDRjim3BxhAOYUqZKkscim1EYS7GniEope0x2swWXrP4DY6cH5ttsKB2joOw_0Sd54VX__IVkYT8S6zz1X-OArtDAfaM1aIQZhHWeR0NQ7LNjKkePdR6ogAHkqze78gAS3oQ9izLRzaN0d12bYQxdJmqPXpUWLF6xlxY63t4Wa2GW_iHF2smWo5ZmMy2RUByHvgycqJICDgu5_Dr1wtU8wF5-nKLKFtY3XGkDU5fib75L5koNifAftT0qhU6hRHg8UMM7IFC656IFYns_PjLPHQqun5eklSh77xj9-BOaftqx59ZYui1ZDAMcZmJTBIAfyT_n2yqENd2fJK_J8nJcgHN1nbfoTFNHTeqespQsIrlBdSvUNdBFZ_62Cr1Ja7lwzSZwTIuUALGj-t2-3lXGCtlBiw3hHM3T0BETF8YqLdNueIwnndwyvlzU9NkdgOCcCC4MGhKK49aacu_ABWqcQa_PlUaQ6i9S-sZxOeQsE4Qljjw7FE-ldYb5AKv3q8nP4OYP0PsFXkHut3AP_p8tpPnnVtHXbtx0Ovy5Au_8SToVZEs7jiJNLHtdlikBaxL1w_hyMul-ATmDOEMDkdRmqJP9ZJY_5xUrwwaGaeEHkEF1uA-PGensR0qrinJ-ypkfyA-QKOPM4Mv-h-ol8ihN_RlibSGKKuuCq81nZ1Ln24ReRwLy6PT8t8KP7ADWOoTpiz3VX0_RiC0d3kqugBIRkJY1EQ19VKxn038bn8gCR9Fu2]--></g></svg>