<svg xmlns="http://www.w3.org/2000/svg" xmlns:xlink="http://www.w3.org/1999/xlink" contentStyleType="text/css" height="851.4px" preserveAspectRatio="none" style="width:1195px;height:851px;background:#FFFFFF;" version="1.1" viewBox="0 0 1195 851" width="1195.2px" zoomAndPan="magnify"><defs/><g><rect fill="#FFFFFF" height="734.8078" style="stroke:#181818;stroke-width:0.6;" width="6" x="12.7717" y="56.1727"/><rect fill="#FFFFFF" height="82.4965" style="stroke:#181818;stroke-width:0.6;" width="6" x="194.6985" y="70.1473"/><rect fill="#FFFFFF" height="168.9715" style="stroke:#181818;stroke-width:0.6;" width="6" x="194.6985" y="171.4184"/><rect fill="#FFFFFF" height="431.816" style="stroke:#181818;stroke-width:0.6;" width="6" x="194.6985" y="359.1645"/><rect fill="#FFFFFF" height="18.7746" style="stroke:#181818;stroke-width:0.6;" width="6" x="354.9709" y="115.0945"/><rect fill="#FFFFFF" height="56.3238" style="stroke:#181818;stroke-width:0.6;" width="6" x="354.9709" y="190.193"/><rect fill="#FFFFFF" height="56.3238" style="stroke:#181818;stroke-width:0.6;" width="6" x="354.9709" y="265.2914"/><rect fill="#FFFFFF" height="394.2668" style="stroke:#181818;stroke-width:0.6;" width="6" x="354.9709" y="377.9391"/><rect fill="#FFFFFF" height="18.7746" style="stroke:#181818;stroke-width:0.6;" width="6" x="432.8651" y="509.3613"/><rect fill="#FFFFFF" height="18.7746" style="stroke:#181818;stroke-width:0.6;" width="6" x="495.1201" y="546.9105"/><rect fill="#FFFFFF" height="18.7746" style="stroke:#181818;stroke-width:0.6;" width="6" x="495.1201" y="584.4598"/><rect fill="#FFFFFF" height="18.7746" style="stroke:#181818;stroke-width:0.6;" width="6" x="563.4434" y="734.6566"/><rect fill="#FFFFFF" height="18.7746" style="stroke:#181818;stroke-width:0.6;" width="6" x="642.7444" y="396.7137"/><rect fill="#FFFFFF" height="18.7746" style="stroke:#181818;stroke-width:0.6;" width="6" x="729.2889" y="434.2629"/><rect fill="#FFFFFF" height="18.7746" style="stroke:#181818;stroke-width:0.6;" width="6" x="808.3582" y="471.8121"/><rect fill="#FFFFFF" height="93.873" style="stroke:#181818;stroke-width:0.6;" width="6" x="862.9104" y="622.009"/><rect fill="#FFFFFF" height="18.7746" style="stroke:#181818;stroke-width:0.6;" width="6" x="985.9005" y="208.9676"/><rect fill="#FFFFFF" height="56.3238" style="stroke:#181818;stroke-width:0.6;" width="6" x="985.9005" y="640.7836"/><rect fill="#FFFFFF" height="18.7746" style="stroke:#181818;stroke-width:0.6;" width="6" x="1085.0449" y="284.066"/><rect fill="#FFFFFF" height="18.7746" style="stroke:#181818;stroke-width:0.6;" width="6" x="1085.0449" y="659.5582"/><line style="stroke:#181818;stroke-width:0.3;stroke-dasharray:5.0,5.0;" x1="15.6" x2="15.6" y1="50.1727" y2="801.7805"/><line style="stroke:#181818;stroke-width:0.3;stroke-dasharray:5.0,5.0;" x1="197.3552" x2="197.3552" y1="50.1727" y2="801.7805"/><line style="stroke:#181818;stroke-width:0.3;stroke-dasharray:5.0,5.0;" x1="357.4207" x2="357.4207" y1="94.0336" y2="801.7805"/><line style="stroke:#181818;stroke-width:0.3;stroke-dasharray:5.0,5.0;" x1="435.3211" x2="435.3211" y1="50.1727" y2="801.7805"/><line style="stroke:#181818;stroke-width:0.3;stroke-dasharray:5.0,5.0;" x1="497.6092" x2="497.6092" y1="50.1727" y2="801.7805"/><line style="stroke:#181818;stroke-width:0.3;stroke-dasharray:5.0,5.0;" x1="566.4311" x2="566.4311" y1="50.1727" y2="801.7805"/><line style="stroke:#181818;stroke-width:0.3;stroke-dasharray:5.0,5.0;" x1="645.6557" x2="645.6557" y1="50.1727" y2="801.7805"/><line style="stroke:#181818;stroke-width:0.3;stroke-dasharray:5.0,5.0;" x1="732.2332" x2="732.2332" y1="50.1727" y2="801.7805"/><line style="stroke:#181818;stroke-width:0.3;stroke-dasharray:5.0,5.0;" x1="810.9445" x2="810.9445" y1="50.1727" y2="801.7805"/><line style="stroke:#181818;stroke-width:0.3;stroke-dasharray:5.0,5.0;" x1="865.7719" x2="865.7719" y1="50.1727" y2="801.7805"/><line style="stroke:#181818;stroke-width:0.3;stroke-dasharray:5.0,5.0;" x1="988.5633" x2="988.5633" y1="50.1727" y2="801.7805"/><line style="stroke:#181818;stroke-width:0.3;stroke-dasharray:5.0,5.0;" x1="1087.7077" x2="1087.7077" y1="50.1727" y2="801.7805"/><line style="stroke:#181818;stroke-width:0.3;stroke-dasharray:5.0,5.0;" x1="1149.5821" x2="1149.5821" y1="50.1727" y2="801.7805"/><text fill="#000000" font-family="sans-serif" font-size="8.4" lengthAdjust="spacing" textLength="21.9434" x="3" y="48.0645">Editor</text><ellipse cx="15.7717" cy="8.1" fill="#E2E2F0" rx="4.8" ry="4.8" style="stroke:#181818;stroke-width:0.3;"/><path d="M15.7717,12.9 L15.7717,29.1 M7.9717,17.7 L23.5717,17.7 M15.7717,29.1 L7.9717,38.1 M15.7717,29.1 L23.5717,38.1 " fill="none" style="stroke:#181818;stroke-width:0.3;"/><text fill="#000000" font-family="sans-serif" font-size="8.4" lengthAdjust="spacing" textLength="21.9434" x="3" y="810.2449">Editor</text><ellipse cx="15.7717" cy="817.4531" fill="#E2E2F0" rx="4.8" ry="4.8" style="stroke:#181818;stroke-width:0.3;"/><path d="M15.7717,822.2531 L15.7717,838.4531 M7.9717,827.0531 L23.5717,827.0531 M15.7717,838.4531 L7.9717,847.4531 M15.7717,838.4531 L23.5717,847.4531 " fill="none" style="stroke:#181818;stroke-width:0.3;"/><rect fill="#E2E2F0" height="19.5727" rx="1.5" ry="1.5" style="stroke:#181818;stroke-width:0.3;" width="60.6867" x="167.3552" y="30"/><text fill="#000000" font-family="sans-serif" font-size="8.4" lengthAdjust="spacing" textLength="52.2867" x="171.5552" y="43.2645">:CreateMapUI</text><rect fill="#E2E2F0" height="19.5727" rx="1.5" ry="1.5" style="stroke:#181818;stroke-width:0.3;" width="60.6867" x="167.3552" y="801.1805"/><text fill="#000000" font-family="sans-serif" font-size="8.4" lengthAdjust="spacing" textLength="52.2867" x="171.5552" y="814.4449">:CreateMapUI</text><rect fill="#E2E2F0" height="19.5727" rx="1.5" ry="1.5" style="stroke:#181818;stroke-width:0.3;" width="88.7004" x="313.6207" y="801.1805"/><text fill="#000000" font-family="sans-serif" font-size="8.4" lengthAdjust="spacing" textLength="80.3004" x="317.8207" y="814.4449">:CreateMapController</text><rect fill="#E2E2F0" height="19.5727" rx="1.5" ry="1.5" style="stroke:#181818;stroke-width:0.3;" width="55.0881" x="408.3211" y="30"/><text fill="#000000" font-family="sans-serif" font-size="8.4" lengthAdjust="spacing" textLength="46.6881" x="412.5211" y="43.2645">Repositories</text><rect fill="#E2E2F0" height="19.5727" rx="1.5" ry="1.5" style="stroke:#181818;stroke-width:0.3;" width="55.0881" x="408.3211" y="801.1805"/><text fill="#000000" font-family="sans-serif" font-size="8.4" lengthAdjust="spacing" textLength="46.6881" x="412.5211" y="814.4449">Repositories</text><rect fill="#E2E2F0" height="30.7453" rx="1.5" ry="1.5" style="stroke:#181818;stroke-width:0.3;" width="57.4219" x="469.4092" y="18.8273"/><text fill="#000000" font-family="sans-serif" font-size="8.4" lengthAdjust="spacing" textLength="43.4191" x="476.4105" y="32.0918">repositories</text><text fill="#000000" font-family="sans-serif" font-size="8.4" lengthAdjust="spacing" textLength="49.0219" x="473.6092" y="43.2645">:Repositories</text><rect fill="#E2E2F0" height="30.7453" rx="1.5" ry="1.5" style="stroke:#181818;stroke-width:0.3;" width="57.4219" x="469.4092" y="801.1805"/><text fill="#000000" font-family="sans-serif" font-size="8.4" lengthAdjust="spacing" textLength="43.4191" x="476.4105" y="814.4449">repositories</text><text fill="#000000" font-family="sans-serif" font-size="8.4" lengthAdjust="spacing" textLength="49.0219" x="473.6092" y="825.6176">:Repositories</text><rect fill="#E2E2F0" height="30.7453" rx="1.5" ry="1.5" style="stroke:#181818;stroke-width:0.3;" width="67.2246" x="532.8311" y="18.8273"/><text fill="#000000" font-family="sans-serif" font-size="8.4" lengthAdjust="spacing" textLength="56.4908" x="538.1979" y="32.0918">mapRepository</text><text fill="#000000" font-family="sans-serif" font-size="8.4" lengthAdjust="spacing" textLength="58.8246" x="537.0311" y="43.2645">:MapRepository</text><rect fill="#E2E2F0" height="30.7453" rx="1.5" ry="1.5" style="stroke:#181818;stroke-width:0.3;" width="67.2246" x="532.8311" y="801.1805"/><text fill="#000000" font-family="sans-serif" font-size="8.4" lengthAdjust="spacing" textLength="56.4908" x="538.1979" y="814.4449">mapRepository</text><text fill="#000000" font-family="sans-serif" font-size="8.4" lengthAdjust="spacing" textLength="58.8246" x="537.0311" y="825.6176">:MapRepository</text><rect fill="#E2E2F0" height="19.5727" rx="1.5" ry="1.5" style="stroke:#181818;stroke-width:0.3;" width="79.3775" x="606.0557" y="30"/><text fill="#000000" font-family="sans-serif" font-size="8.4" lengthAdjust="spacing" textLength="70.9775" x="610.2557" y="43.2645">ApplicationSession</text><rect fill="#E2E2F0" height="19.5727" rx="1.5" ry="1.5" style="stroke:#181818;stroke-width:0.3;" width="79.3775" x="606.0557" y="801.1805"/><text fill="#000000" font-family="sans-serif" font-size="8.4" lengthAdjust="spacing" textLength="70.9775" x="610.2557" y="814.4449">ApplicationSession</text><rect fill="#E2E2F0" height="30.7453" rx="1.5" ry="1.5" style="stroke:#181818;stroke-width:0.3;" width="81.7113" x="691.4332" y="18.8273"/><text fill="#000000" font-family="sans-serif" font-size="8.4" lengthAdjust="spacing" textLength="43.899" x="710.3394" y="32.0918">appSession</text><text fill="#000000" font-family="sans-serif" font-size="8.4" lengthAdjust="spacing" textLength="73.3113" x="695.6332" y="43.2645">:ApplicationSession</text><rect fill="#E2E2F0" height="30.7453" rx="1.5" ry="1.5" style="stroke:#181818;stroke-width:0.3;" width="81.7113" x="691.4332" y="801.1805"/><text fill="#000000" font-family="sans-serif" font-size="8.4" lengthAdjust="spacing" textLength="43.899" x="710.3394" y="814.4449">appSession</text><text fill="#000000" font-family="sans-serif" font-size="8.4" lengthAdjust="spacing" textLength="73.3113" x="695.6332" y="825.6176">:ApplicationSession</text><rect fill="#E2E2F0" height="30.7453" rx="1.5" ry="1.5" style="stroke:#181818;stroke-width:0.3;" width="64.4273" x="779.1445" y="18.8273"/><text fill="#000000" font-family="sans-serif" font-size="8.4" lengthAdjust="spacing" textLength="56.0273" x="783.3445" y="32.0918">currentSession</text><text fill="#000000" font-family="sans-serif" font-size="8.4" lengthAdjust="spacing" textLength="49.9529" x="786.3817" y="43.2645">:UserSession</text><rect fill="#E2E2F0" height="30.7453" rx="1.5" ry="1.5" style="stroke:#181818;stroke-width:0.3;" width="64.4273" x="779.1445" y="801.1805"/><text fill="#000000" font-family="sans-serif" font-size="8.4" lengthAdjust="spacing" textLength="56.0273" x="783.3445" y="814.4449">currentSession</text><text fill="#000000" font-family="sans-serif" font-size="8.4" lengthAdjust="spacing" textLength="49.9529" x="786.3817" y="825.6176">:UserSession</text><rect fill="#E2E2F0" height="30.7453" rx="1.5" ry="1.5" style="stroke:#181818;stroke-width:0.3;" width="32.6771" x="849.5719" y="18.8273"/><text fill="#000000" font-family="sans-serif" font-size="8.4" lengthAdjust="spacing" textLength="21.0123" x="855.4043" y="32.0918">editor</text><text fill="#000000" font-family="sans-serif" font-size="8.4" lengthAdjust="spacing" textLength="24.2771" x="853.7719" y="43.2645">:Editor</text><rect fill="#E2E2F0" height="30.7453" rx="1.5" ry="1.5" style="stroke:#181818;stroke-width:0.3;" width="32.6771" x="849.5719" y="801.1805"/><text fill="#000000" font-family="sans-serif" font-size="8.4" lengthAdjust="spacing" textLength="21.0123" x="855.4043" y="814.4449">editor</text><text fill="#000000" font-family="sans-serif" font-size="8.4" lengthAdjust="spacing" textLength="24.2771" x="853.7719" y="825.6176">:Editor</text><rect fill="#E2E2F0" height="30.7453" rx="1.5" ry="1.5" style="stroke:#181818;stroke-width:0.3;" width="27.0744" x="975.3633" y="18.8273"/><text fill="#000000" font-family="sans-serif" font-size="8.4" lengthAdjust="spacing" textLength="16.3406" x="980.7302" y="32.0918">map</text><text fill="#000000" font-family="sans-serif" font-size="8.4" lengthAdjust="spacing" textLength="18.6744" x="979.5633" y="43.2645">:Map</text><rect fill="#E2E2F0" height="30.7453" rx="1.5" ry="1.5" style="stroke:#181818;stroke-width:0.3;" width="27.0744" x="975.3633" y="801.1805"/><text fill="#000000" font-family="sans-serif" font-size="8.4" lengthAdjust="spacing" textLength="16.3406" x="980.7302" y="814.4449">map</text><text fill="#000000" font-family="sans-serif" font-size="8.4" lengthAdjust="spacing" textLength="18.6744" x="979.5633" y="825.6176">:Map</text><rect fill="#E2E2F0" height="30.7453" rx="1.5" ry="1.5" style="stroke:#181818;stroke-width:0.3;" width="27.0744" x="1074.5077" y="18.8273"/><text fill="#000000" font-family="sans-serif" font-size="8.4" lengthAdjust="spacing" textLength="14.9379" x="1080.576" y="32.0918">size</text><text fill="#000000" font-family="sans-serif" font-size="8.4" lengthAdjust="spacing" textLength="18.6744" x="1078.7077" y="43.2645">:Size</text><rect fill="#E2E2F0" height="30.7453" rx="1.5" ry="1.5" style="stroke:#181818;stroke-width:0.3;" width="27.0744" x="1074.5077" y="801.1805"/><text fill="#000000" font-family="sans-serif" font-size="8.4" lengthAdjust="spacing" textLength="14.9379" x="1080.576" y="814.4449">size</text><text fill="#000000" font-family="sans-serif" font-size="8.4" lengthAdjust="spacing" textLength="18.6744" x="1078.7077" y="825.6176">:Size</text><rect fill="#E2E2F0" height="30.7453" rx="1.5" ry="1.5" style="stroke:#181818;stroke-width:0.3;" width="84.0369" x="1107.5821" y="18.8273"/><text fill="#000000" font-family="sans-serif" font-size="8.4" lengthAdjust="spacing" textLength="71.9004" x="1113.6504" y="32.0918">scenarioRepository</text><text fill="#000000" font-family="sans-serif" font-size="8.4" lengthAdjust="spacing" textLength="75.6369" x="1111.7821" y="43.2645">:ScenarioRepository</text><rect fill="#E2E2F0" height="30.7453" rx="1.5" ry="1.5" style="stroke:#181818;stroke-width:0.3;" width="84.0369" x="1107.5821" y="801.1805"/><text fill="#000000" font-family="sans-serif" font-size="8.4" lengthAdjust="spacing" textLength="71.9004" x="1113.6504" y="814.4449">scenarioRepository</text><text fill="#000000" font-family="sans-serif" font-size="8.4" lengthAdjust="spacing" textLength="75.6369" x="1111.7821" y="825.6176">:ScenarioRepository</text><rect fill="#FFFFFF" height="734.8078" style="stroke:#181818;stroke-width:0.6;" width="6" x="12.7717" y="56.1727"/><rect fill="#FFFFFF" height="82.4965" style="stroke:#181818;stroke-width:0.6;" width="6" x="194.6985" y="70.1473"/><rect fill="#FFFFFF" height="168.9715" style="stroke:#181818;stroke-width:0.6;" width="6" x="194.6985" y="171.4184"/><rect fill="#FFFFFF" height="431.816" style="stroke:#181818;stroke-width:0.6;" width="6" x="194.6985" y="359.1645"/><rect fill="#FFFFFF" height="18.7746" style="stroke:#181818;stroke-width:0.6;" width="6" x="354.9709" y="115.0945"/><rect fill="#FFFFFF" height="56.3238" style="stroke:#181818;stroke-width:0.6;" width="6" x="354.9709" y="190.193"/><rect fill="#FFFFFF" height="56.3238" style="stroke:#181818;stroke-width:0.6;" width="6" x="354.9709" y="265.2914"/><rect fill="#FFFFFF" height="394.2668" style="stroke:#181818;stroke-width:0.6;" width="6" x="354.9709" y="377.9391"/><rect fill="#FFFFFF" height="18.7746" style="stroke:#181818;stroke-width:0.6;" width="6" x="432.8651" y="509.3613"/><rect fill="#FFFFFF" height="18.7746" style="stroke:#181818;stroke-width:0.6;" width="6" x="495.1201" y="546.9105"/><rect fill="#FFFFFF" height="18.7746" style="stroke:#181818;stroke-width:0.6;" width="6" x="495.1201" y="584.4598"/><rect fill="#FFFFFF" height="18.7746" style="stroke:#181818;stroke-width:0.6;" width="6" x="563.4434" y="734.6566"/><rect fill="#FFFFFF" height="18.7746" style="stroke:#181818;stroke-width:0.6;" width="6" x="642.7444" y="396.7137"/><rect fill="#FFFFFF" height="18.7746" style="stroke:#181818;stroke-width:0.6;" width="6" x="729.2889" y="434.2629"/><rect fill="#FFFFFF" height="18.7746" style="stroke:#181818;stroke-width:0.6;" width="6" x="808.3582" y="471.8121"/><rect fill="#FFFFFF" height="93.873" style="stroke:#181818;stroke-width:0.6;" width="6" x="862.9104" y="622.009"/><rect fill="#FFFFFF" height="18.7746" style="stroke:#181818;stroke-width:0.6;" width="6" x="985.9005" y="208.9676"/><rect fill="#FFFFFF" height="56.3238" style="stroke:#181818;stroke-width:0.6;" width="6" x="985.9005" y="640.7836"/><rect fill="#FFFFFF" height="18.7746" style="stroke:#181818;stroke-width:0.6;" width="6" x="1085.0449" y="284.066"/><rect fill="#FFFFFF" height="18.7746" style="stroke:#181818;stroke-width:0.6;" width="6" x="1085.0449" y="659.5582"/><polygon fill="#181818" points="187.4985,67.7473,193.4985,70.1473,187.4985,72.5473,189.8985,70.1473" style="stroke:#181818;stroke-width:0.6;"/><line style="stroke:#181818;stroke-width:0.6;" x1="18.7717" x2="191.0985" y1="70.1473" y2="70.1473"/><text fill="#000000" font-family="sans-serif" font-size="7.8" font-weight="bold" lengthAdjust="spacing" textLength="4.338" x="22.9717" y="66.9896">1</text><text fill="#000000" font-family="sans-serif" font-size="7.8" lengthAdjust="spacing" textLength="96.2508" x="29.7097" y="66.9896">requests to create new map</text><polygon fill="#181818" points="306.4207,86.5219,312.4207,88.9219,306.4207,91.3219,308.8207,88.9219" style="stroke:#181818;stroke-width:0.6;"/><line style="stroke:#181818;stroke-width:0.6;stroke-dasharray:2.0,2.0;" x1="200.6985" x2="310.0207" y1="88.9219" y2="88.9219"/><text fill="#000000" font-family="sans-serif" font-size="7.8" font-weight="bold" lengthAdjust="spacing" textLength="4.338" x="204.8985" y="85.7643">2</text><text fill="#000000" font-family="sans-serif" font-size="7.8" lengthAdjust="spacing" textLength="26.8734" x="211.6365" y="85.7643">create()</text><rect fill="#E2E2F0" height="19.5727" rx="1.5" ry="1.5" style="stroke:#181818;stroke-width:0.3;" width="88.7004" x="313.6207" y="74.9473"/><text fill="#000000" font-family="sans-serif" font-size="8.4" lengthAdjust="spacing" textLength="80.3004" x="317.8207" y="88.2117">:CreateMapController</text><polygon fill="#181818" points="347.7709,112.6945,353.7709,115.0945,347.7709,117.4945,350.1709,115.0945" style="stroke:#181818;stroke-width:0.6;"/><line style="stroke:#181818;stroke-width:0.6;" x1="200.6985" x2="351.3709" y1="115.0945" y2="115.0945"/><text fill="#000000" font-family="sans-serif" font-size="7.8" font-weight="bold" lengthAdjust="spacing" textLength="4.338" x="204.8985" y="111.9369">3</text><text fill="#000000" font-family="sans-serif" font-size="7.8" lengthAdjust="spacing" textLength="91.0406" x="211.6365" y="111.9369">request map creation form</text><polygon fill="#181818" points="207.2985,131.4691,201.2985,133.8691,207.2985,136.2691,204.8985,133.8691" style="stroke:#181818;stroke-width:0.6;"/><line style="stroke:#181818;stroke-width:0.6;stroke-dasharray:2.0,2.0;" x1="203.6985" x2="357.3709" y1="133.8691" y2="133.8691"/><text fill="#000000" font-family="sans-serif" font-size="7.8" font-weight="bold" lengthAdjust="spacing" textLength="4.338" x="210.8985" y="130.7115">4</text><text fill="#000000" font-family="sans-serif" font-size="7.8" lengthAdjust="spacing" textLength="89.3039" x="217.6365" y="130.7115">display map creation form</text><polygon fill="#181818" points="25.3717,150.2438,19.3717,152.6437,25.3717,155.0438,22.9717,152.6437" style="stroke:#181818;stroke-width:0.6;"/><line style="stroke:#181818;stroke-width:0.6;stroke-dasharray:2.0,2.0;" x1="21.7717" x2="197.0985" y1="152.6437" y2="152.6437"/><text fill="#000000" font-family="sans-serif" font-size="7.8" font-weight="bold" lengthAdjust="spacing" textLength="4.338" x="28.9717" y="149.4861">5</text><text fill="#000000" font-family="sans-serif" font-size="7.8" lengthAdjust="spacing" textLength="87.133" x="35.7097" y="149.4861">shows map creation form</text><polygon fill="#181818" points="187.4985,169.0184,193.4985,171.4184,187.4985,173.8184,189.8985,171.4184" style="stroke:#181818;stroke-width:0.6;"/><line style="stroke:#181818;stroke-width:0.6;" x1="18.7717" x2="191.0985" y1="171.4184" y2="171.4184"/><text fill="#000000" font-family="sans-serif" font-size="7.8" font-weight="bold" lengthAdjust="spacing" textLength="4.338" x="22.9717" y="168.2607">6</text><text fill="#000000" font-family="sans-serif" font-size="7.8" lengthAdjust="spacing" textLength="130.5053" x="29.7097" y="168.2607">inputs map data (name, width, height)</text><polygon fill="#181818" points="347.7709,187.793,353.7709,190.193,347.7709,192.593,350.1709,190.193" style="stroke:#181818;stroke-width:0.6;"/><line style="stroke:#181818;stroke-width:0.6;" x1="200.6985" x2="351.3709" y1="190.193" y2="190.193"/><text fill="#000000" font-family="sans-serif" font-size="7.8" font-weight="bold" lengthAdjust="spacing" textLength="4.338" x="204.8985" y="187.0354">7</text><text fill="#000000" font-family="sans-serif" font-size="7.8" lengthAdjust="spacing" textLength="87.571" x="211.6365" y="187.0354">validateMapName(name)</text><polygon fill="#181818" points="978.7005,206.5676,984.7005,208.9676,978.7005,211.3676,981.1005,208.9676" style="stroke:#181818;stroke-width:0.6;"/><line style="stroke:#181818;stroke-width:0.6;" x1="360.9709" x2="982.3005" y1="208.9676" y2="208.9676"/><text fill="#000000" font-family="sans-serif" font-size="7.8" font-weight="bold" lengthAdjust="spacing" textLength="4.338" x="365.1709" y="205.81">8</text><text fill="#000000" font-family="sans-serif" font-size="7.8" lengthAdjust="spacing" textLength="52.8861" x="371.9089" y="205.81">validateName()</text><polygon fill="#181818" points="367.5709,225.3422,361.5709,227.7422,367.5709,230.1422,365.1709,227.7422" style="stroke:#181818;stroke-width:0.6;"/><line style="stroke:#181818;stroke-width:0.6;stroke-dasharray:2.0,2.0;" x1="363.9709" x2="988.3005" y1="227.7422" y2="227.7422"/><text fill="#000000" font-family="sans-serif" font-size="7.8" font-weight="bold" lengthAdjust="spacing" textLength="4.338" x="371.1709" y="224.5846">9</text><text fill="#000000" font-family="sans-serif" font-size="7.8" lengthAdjust="spacing" textLength="55.0646" x="377.9089" y="224.5846">validationResult</text><polygon fill="#181818" points="207.2985,244.1168,201.2985,246.5168,207.2985,248.9168,204.8985,246.5168" style="stroke:#181818;stroke-width:0.6;"/><line style="stroke:#181818;stroke-width:0.6;stroke-dasharray:2.0,2.0;" x1="203.6985" x2="357.3709" y1="246.5168" y2="246.5168"/><text fill="#000000" font-family="sans-serif" font-size="7.8" font-weight="bold" lengthAdjust="spacing" textLength="8.676" x="210.8985" y="243.3592">10</text><text fill="#000000" font-family="sans-serif" font-size="7.8" lengthAdjust="spacing" textLength="75.8786" x="221.9745" y="243.3592">nameValidationResult</text><polygon fill="#181818" points="347.7709,262.8914,353.7709,265.2914,347.7709,267.6914,350.1709,265.2914" style="stroke:#181818;stroke-width:0.6;"/><line style="stroke:#181818;stroke-width:0.6;" x1="200.6985" x2="351.3709" y1="265.2914" y2="265.2914"/><text fill="#000000" font-family="sans-serif" font-size="7.8" font-weight="bold" lengthAdjust="spacing" textLength="8.676" x="204.8985" y="262.1338">11</text><text fill="#000000" font-family="sans-serif" font-size="7.8" lengthAdjust="spacing" textLength="131.7964" x="215.9745" y="262.1338">validateMapDimensions(width, height)</text><polygon fill="#181818" points="1077.8449,281.666,1083.8449,284.066,1077.8449,286.466,1080.2449,284.066" style="stroke:#181818;stroke-width:0.6;"/><line style="stroke:#181818;stroke-width:0.6;" x1="360.9709" x2="1081.4449" y1="284.066" y2="284.066"/><text fill="#000000" font-family="sans-serif" font-size="7.8" font-weight="bold" lengthAdjust="spacing" textLength="8.676" x="365.1709" y="280.9084">12</text><text fill="#000000" font-family="sans-serif" font-size="7.8" lengthAdjust="spacing" textLength="72.8279" x="376.2469" y="280.9084">validateDimensions()</text><polygon fill="#181818" points="367.5709,300.4406,361.5709,302.8406,367.5709,305.2406,365.1709,302.8406" style="stroke:#181818;stroke-width:0.6;"/><line style="stroke:#181818;stroke-width:0.6;stroke-dasharray:2.0,2.0;" x1="363.9709" x2="1087.4449" y1="302.8406" y2="302.8406"/><text fill="#000000" font-family="sans-serif" font-size="7.8" font-weight="bold" lengthAdjust="spacing" textLength="8.676" x="371.1709" y="299.683">13</text><text fill="#000000" font-family="sans-serif" font-size="7.8" lengthAdjust="spacing" textLength="55.0646" x="382.2469" y="299.683">validationResult</text><polygon fill="#181818" points="207.2985,319.2152,201.2985,321.6152,207.2985,324.0152,204.8985,321.6152" style="stroke:#181818;stroke-width:0.6;"/><line style="stroke:#181818;stroke-width:0.6;stroke-dasharray:2.0,2.0;" x1="203.6985" x2="357.3709" y1="321.6152" y2="321.6152"/><text fill="#000000" font-family="sans-serif" font-size="7.8" font-weight="bold" lengthAdjust="spacing" textLength="8.676" x="210.8985" y="318.4576">14</text><text fill="#000000" font-family="sans-serif" font-size="7.8" lengthAdjust="spacing" textLength="95.8204" x="221.9745" y="318.4576">dimensionsValidationResult</text><polygon fill="#181818" points="25.3717,337.9898,19.3717,340.3898,25.3717,342.7898,22.9717,340.3898" style="stroke:#181818;stroke-width:0.6;"/><line style="stroke:#181818;stroke-width:0.6;stroke-dasharray:2.0,2.0;" x1="21.7717" x2="197.0985" y1="340.3898" y2="340.3898"/><text fill="#000000" font-family="sans-serif" font-size="7.8" font-weight="bold" lengthAdjust="spacing" textLength="8.676" x="28.9717" y="337.2322">15</text><text fill="#000000" font-family="sans-serif" font-size="7.8" lengthAdjust="spacing" textLength="82.3723" x="40.0477" y="337.2322">shows validation results</text><polygon fill="#181818" points="187.4985,356.7645,193.4985,359.1645,187.4985,361.5645,189.8985,359.1645" style="stroke:#181818;stroke-width:0.6;"/><line style="stroke:#181818;stroke-width:0.6;" x1="18.7717" x2="191.0985" y1="359.1645" y2="359.1645"/><text fill="#000000" font-family="sans-serif" font-size="7.8" font-weight="bold" lengthAdjust="spacing" textLength="8.676" x="22.9717" y="356.0068">16</text><text fill="#000000" font-family="sans-serif" font-size="7.8" lengthAdjust="spacing" textLength="59.3874" x="34.0477" y="356.0068">confirms creation</text><polygon fill="#181818" points="347.7709,375.5391,353.7709,377.9391,347.7709,380.3391,350.1709,377.9391" style="stroke:#181818;stroke-width:0.6;"/><line style="stroke:#181818;stroke-width:0.6;" x1="200.6985" x2="351.3709" y1="377.9391" y2="377.9391"/><text fill="#000000" font-family="sans-serif" font-size="7.8" font-weight="bold" lengthAdjust="spacing" textLength="8.676" x="204.8985" y="374.7814">17</text><text fill="#000000" font-family="sans-serif" font-size="7.8" lengthAdjust="spacing" textLength="125.2913" x="215.9745" y="374.7814">createNewMap(name, width, height)</text><polygon fill="#181818" points="635.5444,394.3137,641.5444,396.7137,635.5444,399.1137,637.9444,396.7137" style="stroke:#181818;stroke-width:0.6;"/><line style="stroke:#181818;stroke-width:0.6;" x1="360.9709" x2="639.1444" y1="396.7137" y2="396.7137"/><text fill="#000000" font-family="sans-serif" font-size="7.8" font-weight="bold" lengthAdjust="spacing" textLength="8.676" x="365.1709" y="393.5561">18</text><text fill="#000000" font-family="sans-serif" font-size="7.8" lengthAdjust="spacing" textLength="45.5241" x="376.2469" y="393.5561">getInstance()</text><polygon fill="#181818" points="367.5709,413.0883,361.5709,415.4883,367.5709,417.8883,365.1709,415.4883" style="stroke:#181818;stroke-width:0.6;"/><line style="stroke:#181818;stroke-width:0.6;stroke-dasharray:2.0,2.0;" x1="363.9709" x2="645.1444" y1="415.4883" y2="415.4883"/><text fill="#000000" font-family="sans-serif" font-size="7.8" font-weight="bold" lengthAdjust="spacing" textLength="8.676" x="371.1709" y="412.3307">19</text><text fill="#000000" font-family="sans-serif" font-size="7.8" lengthAdjust="spacing" textLength="40.7634" x="382.2469" y="412.3307">appSession</text><polygon fill="#181818" points="722.0889,431.8629,728.0889,434.2629,722.0889,436.6629,724.4889,434.2629" style="stroke:#181818;stroke-width:0.6;"/><line style="stroke:#181818;stroke-width:0.6;" x1="360.9709" x2="725.6889" y1="434.2629" y2="434.2629"/><text fill="#000000" font-family="sans-serif" font-size="7.8" font-weight="bold" lengthAdjust="spacing" textLength="8.676" x="365.1709" y="431.1053">20</text><text fill="#000000" font-family="sans-serif" font-size="7.8" lengthAdjust="spacing" textLength="69.7963" x="376.2469" y="431.1053">getCurrentSession()</text><polygon fill="#181818" points="367.5709,450.6375,361.5709,453.0375,367.5709,455.4375,365.1709,453.0375" style="stroke:#181818;stroke-width:0.6;"/><line style="stroke:#181818;stroke-width:0.6;stroke-dasharray:2.0,2.0;" x1="363.9709" x2="731.6889" y1="453.0375" y2="453.0375"/><text fill="#000000" font-family="sans-serif" font-size="7.8" font-weight="bold" lengthAdjust="spacing" textLength="8.676" x="371.1709" y="449.8799">21</text><text fill="#000000" font-family="sans-serif" font-size="7.8" lengthAdjust="spacing" textLength="52.0254" x="382.2469" y="449.8799">currentSession</text><polygon fill="#181818" points="801.1582,469.4121,807.1582,471.8121,801.1582,474.2121,803.5582,471.8121" style="stroke:#181818;stroke-width:0.6;"/><line style="stroke:#181818;stroke-width:0.6;" x1="360.9709" x2="804.7582" y1="471.8121" y2="471.8121"/><text fill="#000000" font-family="sans-serif" font-size="7.8" font-weight="bold" lengthAdjust="spacing" textLength="8.676" x="365.1709" y="468.6545">22</text><text fill="#000000" font-family="sans-serif" font-size="7.8" lengthAdjust="spacing" textLength="62.4229" x="376.2469" y="468.6545">getCurrentEditor()</text><polygon fill="#181818" points="367.5709,488.1867,361.5709,490.5867,367.5709,492.9867,365.1709,490.5867" style="stroke:#181818;stroke-width:0.6;"/><line style="stroke:#181818;stroke-width:0.6;stroke-dasharray:2.0,2.0;" x1="363.9709" x2="810.7582" y1="490.5867" y2="490.5867"/><text fill="#000000" font-family="sans-serif" font-size="7.8" font-weight="bold" lengthAdjust="spacing" textLength="8.676" x="371.1709" y="487.4291">23</text><text fill="#000000" font-family="sans-serif" font-size="7.8" lengthAdjust="spacing" textLength="19.5114" x="382.2469" y="487.4291">editor</text><polygon fill="#181818" points="425.6651,506.9613,431.6651,509.3613,425.6651,511.7613,428.0651,509.3613" style="stroke:#181818;stroke-width:0.6;"/><line style="stroke:#181818;stroke-width:0.6;" x1="360.9709" x2="429.2651" y1="509.3613" y2="509.3613"/><text fill="#000000" font-family="sans-serif" font-size="7.8" font-weight="bold" lengthAdjust="spacing" textLength="8.676" x="365.1709" y="506.2037">24</text><text fill="#000000" font-family="sans-serif" font-size="7.8" lengthAdjust="spacing" textLength="45.5241" x="376.2469" y="506.2037">getInstance()</text><polygon fill="#181818" points="367.5709,525.7359,361.5709,528.1359,367.5709,530.5359,365.1709,528.1359" style="stroke:#181818;stroke-width:0.6;"/><line style="stroke:#181818;stroke-width:0.6;stroke-dasharray:2.0,2.0;" x1="363.9709" x2="435.2651" y1="528.1359" y2="528.1359"/><text fill="#000000" font-family="sans-serif" font-size="7.8" font-weight="bold" lengthAdjust="spacing" textLength="8.676" x="371.1709" y="524.9783">25</text><text fill="#000000" font-family="sans-serif" font-size="7.8" lengthAdjust="spacing" textLength="40.3178" x="382.2469" y="524.9783">repositories</text><polygon fill="#181818" points="487.9201,544.5105,493.9201,546.9105,487.9201,549.3105,490.3201,546.9105" style="stroke:#181818;stroke-width:0.6;"/><line style="stroke:#181818;stroke-width:0.6;" x1="360.9709" x2="491.5201" y1="546.9105" y2="546.9105"/><text fill="#000000" font-family="sans-serif" font-size="7.8" font-weight="bold" lengthAdjust="spacing" textLength="8.676" x="365.1709" y="543.7529">26</text><text fill="#000000" font-family="sans-serif" font-size="7.8" lengthAdjust="spacing" textLength="68.4937" x="376.2469" y="543.7529">getMapRepository()</text><polygon fill="#181818" points="367.5709,563.2852,361.5709,565.6852,367.5709,568.0852,365.1709,565.6852" style="stroke:#181818;stroke-width:0.6;"/><line style="stroke:#181818;stroke-width:0.6;stroke-dasharray:2.0,2.0;" x1="363.9709" x2="497.5201" y1="565.6852" y2="565.6852"/><text fill="#000000" font-family="sans-serif" font-size="7.8" font-weight="bold" lengthAdjust="spacing" textLength="8.676" x="371.1709" y="562.5275">27</text><text fill="#000000" font-family="sans-serif" font-size="7.8" lengthAdjust="spacing" textLength="52.4558" x="382.2469" y="562.5275">mapRepository</text><polygon fill="#181818" points="487.9201,582.0598,493.9201,584.4598,487.9201,586.8598,490.3201,584.4598" style="stroke:#181818;stroke-width:0.6;"/><line style="stroke:#181818;stroke-width:0.6;" x1="360.9709" x2="491.5201" y1="584.4598" y2="584.4598"/><text fill="#000000" font-family="sans-serif" font-size="7.8" font-weight="bold" lengthAdjust="spacing" textLength="8.676" x="365.1709" y="581.3021">28</text><text fill="#000000" font-family="sans-serif" font-size="7.8" lengthAdjust="spacing" textLength="84.1052" x="376.2469" y="581.3021">getScenarioRepository()</text><polygon fill="#181818" points="367.5709,600.8344,361.5709,603.2344,367.5709,605.6344,365.1709,603.2344" style="stroke:#181818;stroke-width:0.6;"/><line style="stroke:#181818;stroke-width:0.6;stroke-dasharray:2.0,2.0;" x1="363.9709" x2="497.5201" y1="603.2344" y2="603.2344"/><text fill="#000000" font-family="sans-serif" font-size="7.8" font-weight="bold" lengthAdjust="spacing" textLength="8.676" x="371.1709" y="600.0768">29</text><text fill="#000000" font-family="sans-serif" font-size="7.8" lengthAdjust="spacing" textLength="66.7646" x="382.2469" y="600.0768">scenarioRepository</text><polygon fill="#181818" points="855.7104,619.609,861.7104,622.009,855.7104,624.409,858.1104,622.009" style="stroke:#181818;stroke-width:0.6;"/><line style="stroke:#181818;stroke-width:0.6;" x1="360.9709" x2="859.3104" y1="622.009" y2="622.009"/><text fill="#000000" font-family="sans-serif" font-size="7.8" font-weight="bold" lengthAdjust="spacing" textLength="8.676" x="365.1709" y="618.8514">30</text><text fill="#000000" font-family="sans-serif" font-size="7.8" lengthAdjust="spacing" textLength="109.6875" x="376.2469" y="618.8514">createMap(name, width, height)</text><polygon fill="#181818" points="978.7005,638.3836,984.7005,640.7836,978.7005,643.1836,981.1005,640.7836" style="stroke:#181818;stroke-width:0.6;"/><line style="stroke:#181818;stroke-width:0.6;" x1="868.9104" x2="982.3005" y1="640.7836" y2="640.7836"/><text fill="#000000" font-family="sans-serif" font-size="7.8" font-weight="bold" lengthAdjust="spacing" textLength="8.676" x="873.1104" y="637.626">31</text><text fill="#000000" font-family="sans-serif" font-size="7.8" lengthAdjust="spacing" textLength="94.5141" x="884.1864" y="637.626">create(name, width, height)</text><polygon fill="#181818" points="1077.8449,657.1582,1083.8449,659.5582,1077.8449,661.9582,1080.2449,659.5582" style="stroke:#181818;stroke-width:0.6;"/><line style="stroke:#181818;stroke-width:0.6;" x1="991.9005" x2="1081.4449" y1="659.5582" y2="659.5582"/><text fill="#000000" font-family="sans-serif" font-size="7.8" font-weight="bold" lengthAdjust="spacing" textLength="8.676" x="996.1005" y="656.4006">32</text><text fill="#000000" font-family="sans-serif" font-size="7.8" lengthAdjust="spacing" textLength="70.6685" x="1007.1765" y="656.4006">create(width, height)</text><polygon fill="#181818" points="998.5005,675.9328,992.5005,678.3328,998.5005,680.7328,996.1005,678.3328" style="stroke:#181818;stroke-width:0.6;"/><line style="stroke:#181818;stroke-width:0.6;stroke-dasharray:2.0,2.0;" x1="994.9005" x2="1087.4449" y1="678.3328" y2="678.3328"/><text fill="#000000" font-family="sans-serif" font-size="7.8" font-weight="bold" lengthAdjust="spacing" textLength="8.676" x="1002.1005" y="675.1752">33</text><text fill="#000000" font-family="sans-serif" font-size="7.8" lengthAdjust="spacing" textLength="13.8709" x="1013.1765" y="675.1752">size</text><polygon fill="#181818" points="875.5104,694.7074,869.5104,697.1074,875.5104,699.5074,873.1104,697.1074" style="stroke:#181818;stroke-width:0.6;"/><line style="stroke:#181818;stroke-width:0.6;stroke-dasharray:2.0,2.0;" x1="871.9104" x2="988.3005" y1="697.1074" y2="697.1074"/><text fill="#000000" font-family="sans-serif" font-size="7.8" font-weight="bold" lengthAdjust="spacing" textLength="8.676" x="879.1104" y="693.9498">34</text><text fill="#000000" font-family="sans-serif" font-size="7.8" lengthAdjust="spacing" textLength="29.4823" x="890.1864" y="693.9498">newMap</text><polygon fill="#181818" points="367.5709,713.482,361.5709,715.882,367.5709,718.282,365.1709,715.882" style="stroke:#181818;stroke-width:0.6;"/><line style="stroke:#181818;stroke-width:0.6;stroke-dasharray:2.0,2.0;" x1="363.9709" x2="865.3104" y1="715.882" y2="715.882"/><text fill="#000000" font-family="sans-serif" font-size="7.8" font-weight="bold" lengthAdjust="spacing" textLength="8.676" x="371.1709" y="712.7244">35</text><text fill="#000000" font-family="sans-serif" font-size="7.8" lengthAdjust="spacing" textLength="29.4823" x="382.2469" y="712.7244">newMap</text><polygon fill="#181818" points="556.2434,732.2566,562.2434,734.6566,556.2434,737.0566,558.6434,734.6566" style="stroke:#181818;stroke-width:0.6;"/><line style="stroke:#181818;stroke-width:0.6;" x1="360.9709" x2="559.8434" y1="734.6566" y2="734.6566"/><text fill="#000000" font-family="sans-serif" font-size="7.8" font-weight="bold" lengthAdjust="spacing" textLength="8.676" x="365.1709" y="731.499">36</text><text fill="#000000" font-family="sans-serif" font-size="7.8" lengthAdjust="spacing" textLength="52.0178" x="376.2469" y="731.499">saveMap(map)</text><polygon fill="#181818" points="367.5709,751.0313,361.5709,753.4313,367.5709,755.8313,365.1709,753.4313" style="stroke:#181818;stroke-width:0.6;"/><line style="stroke:#181818;stroke-width:0.6;stroke-dasharray:2.0,2.0;" x1="363.9709" x2="565.8434" y1="753.4313" y2="753.4313"/><text fill="#000000" font-family="sans-serif" font-size="7.8" font-weight="bold" lengthAdjust="spacing" textLength="8.676" x="371.1709" y="750.2736">37</text><text fill="#000000" font-family="sans-serif" font-size="7.8" lengthAdjust="spacing" textLength="38.5849" x="382.2469" y="750.2736">saveResult</text><polygon fill="#181818" points="207.2985,769.8059,201.2985,772.2059,207.2985,774.6059,204.8985,772.2059" style="stroke:#181818;stroke-width:0.6;"/><line style="stroke:#181818;stroke-width:0.6;stroke-dasharray:2.0,2.0;" x1="203.6985" x2="357.3709" y1="772.2059" y2="772.2059"/><text fill="#000000" font-family="sans-serif" font-size="7.8" font-weight="bold" lengthAdjust="spacing" textLength="8.676" x="210.8985" y="769.0482">38</text><text fill="#000000" font-family="sans-serif" font-size="7.8" lengthAdjust="spacing" textLength="49.8583" x="221.9745" y="769.0482">creationResult</text><polygon fill="#181818" points="22.3717,788.5805,16.3717,790.9805,22.3717,793.3805,19.9717,790.9805" style="stroke:#181818;stroke-width:0.6;"/><line style="stroke:#181818;stroke-width:0.6;stroke-dasharray:2.0,2.0;" x1="18.7717" x2="197.0985" y1="790.9805" y2="790.9805"/><text fill="#000000" font-family="sans-serif" font-size="7.8" font-weight="bold" lengthAdjust="spacing" textLength="8.676" x="25.9717" y="787.8229">39</text><text fill="#000000" font-family="sans-serif" font-size="7.8" lengthAdjust="spacing" textLength="150.4509" x="37.0477" y="787.8229">displays operation success and map details</text><!--SRC=[jLVVRzis47xNNt78artKHHCKI-67OgcZ3SxY7v3i31W61Ap4E4HbIYCf6zbVloDfowGaorgnwSMsTFVTtNT7tMVvdV622BA5WYJVoOR6wYsZ86YY2DzaD92LWNmbQRvdV0Cl99Cq24YfSbvklr61tnEL2xWAKuQVLq0aXFVJrI8Aq5UnX1M4AxWQJmGbYiv8iPuQe_NqdC4avqhaMKOjscGLFVgc4IrogQCnAer952uNiMyZ79i_-RZTvJcUpdzz35UBkU-y9KNby8RUC_UtSP_TBPyrXEztLnGPIuXYEO-fbFXXZE-Mo-SuZEDfFGufYeCT1hdiV2xTf1I2SdM2MaigN8p9Eeh2-Qez2MeQXrwD3ZullZuqYB5q74dm7qlsDyNdCNuOWtZwHrYpI2WdWkKUlN7ZflMUXFExQBgmHEivOpkSaEDu1O2N_GwZBpXFCCRX_QkaKabGEIHcde3JFM3Qnhg2mE63muL-8tJNK_Rk7K9Ojy4my2oimIc2XhIco36yv69RcLT1pE22Snc8qJ7NbCaY8syTI2driUev7ueVu_dCz_8Ca0E2LRUHXgUyLDOz9Oh0W9CjVGzxbghNz_1AsUPL3JlvgzZPaOobzXJF4SGW3NipyqLFb8DY88QUOGMXPmzgb_OUDP91DY8goqnvzWujTIY_JRg4ftD8dHrgO-MURIdNvr8EMlZjHv8-LGwg0tc6AtCCwsGPb1zWgm5Md-fZDZz6MdEiJudXuTD0ikTS9pb_OM8hgqFHvDYPuqRNx8jWJlVOjlD7udBRtDOvBtECiA5goYLkswG-vXwYkpwWvN91dOQUbal3o-7E1U-Jzca7sG8ctkxfMOQpo2uKv8HpIlCNNi_odA1d2wqjIgz4knwxAgolsRRQwX6SgkmYxggc7k1i7KRTz9ymgv_QqhL08tV_dOHKLweMiZl1-YnvCkjYlXU6g1x1gS6JTnUBw3CthUKqPSt_M5DJMFqdXPs4OFL6xFKwz4fpr6JTni6lrlz1WVsx62rwmCY1QbqUKFlYTUzCcwYMkrqijs8SHOh7B3TRfWkhJU-uv9qcuJAMqu-pZJ_-mT5bafrfEXwRxWPOeTusk1MQEx48so8rcdKVz7zxfjMoF-puRl7YwuqspN5GvHBoWWghEcIP9BXfWF3KYcIg2CjacvuvAf46sURkpvIdvJOBWcM6VuRMiqVOKQ4t65n_kFbuy-d3xI0c2c9QmCTRkBuPNtyUNz_2xs6y0lry60ncqnN8l1G9rPagmRwLEiTXy41s1AAIAzHVOrWKb3_S_tQy0I7VCP5pb6OgU7YQdGn- -ZJwodH8WQd0qooufoy42KIF94_n7_yOrgjVHf-3Hy8t9TaWTg62IOwuucqCozK_]--></g></svg>