<svg xmlns="http://www.w3.org/2000/svg" xmlns:xlink="http://www.w3.org/1999/xlink" contentStyleType="text/css" height="315px" preserveAspectRatio="none" style="width:436px;height:315px;background:#FFFFFF;" version="1.1" viewBox="0 0 436 315" width="436px" zoomAndPan="magnify"><defs/><g><!--class SaveGameUI--><g id="elem_SaveGameUI"><rect codeLine="5" fill="#F1F1F1" height="48" id="SaveGameUI" rx="2.5" ry="2.5" style="stroke:#181818;stroke-width:0.5;" width="116.0342" x="141.5" y="7"/><ellipse cx="156.5" cy="23" fill="#C2C2C2" rx="11" ry="11" style="stroke:#181818;stroke-width:1.0;"/><path d="M159.2656,18.875 Q159.4219,18.6563 159.6094,18.5469 Q159.7969,18.4375 160.0156,18.4375 Q160.3906,18.4375 160.625,18.7031 Q160.8594,18.9531 160.8594,19.5625 L160.8594,21.0156 Q160.8594,21.625 160.625,21.8906 Q160.3906,22.1563 160.0156,22.1563 Q159.6719,22.1563 159.4688,21.9531 Q159.2656,21.7656 159.1563,21.25 Q159.1094,20.8906 158.9219,20.7031 Q158.5938,20.3281 157.9844,20.1094 Q157.375,19.8906 156.75,19.8906 Q155.9844,19.8906 155.3438,20.2188 Q154.7188,20.5469 154.2188,21.2969 Q153.7344,22.0469 153.7344,23.0781 L153.7344,24.1719 Q153.7344,25.4063 154.625,26.2344 Q155.5156,27.0469 157.1094,27.0469 Q158.0469,27.0469 158.7031,26.7969 Q159.0938,26.6406 159.5156,26.2031 Q159.7813,25.9375 159.9219,25.8594 Q160.0781,25.7813 160.2813,25.7813 Q160.6094,25.7813 160.8594,26.0469 Q161.125,26.2969 161.125,26.6406 Q161.125,26.9844 160.7813,27.3906 Q160.2813,27.9688 159.4844,28.2969 Q158.4063,28.75 157.1094,28.75 Q155.5938,28.75 154.3906,28.125 Q153.4063,27.625 152.7188,26.5625 Q152.0313,25.4844 152.0313,24.2031 L152.0313,23.0469 Q152.0313,21.7188 152.6406,20.5781 Q153.2656,19.4219 154.3594,18.8125 Q155.4531,18.1875 156.6875,18.1875 Q157.4219,18.1875 158.0625,18.3594 Q158.7188,18.5156 159.2656,18.875 Z " fill="#000000"/><text fill="#000000" font-family="sans-serif" font-size="14" lengthAdjust="spacing" textLength="84.0342" x="170.5" y="28.7969">SaveGameUI</text><line style="stroke:#181818;stroke-width:0.5;" x1="142.5" x2="256.5342" y1="39" y2="39"/><line style="stroke:#181818;stroke-width:0.5;" x1="142.5" x2="256.5342" y1="47" y2="47"/></g><!--class SaveGameController--><g id="elem_SaveGameController"><rect codeLine="8" fill="#F1F1F1" height="66.6211" id="SaveGameController" rx="2.5" ry="2.5" style="stroke:#181818;stroke-width:0.5;" width="162.7236" x="118" y="115"/><ellipse cx="133" cy="131" fill="#C2C2C2" rx="11" ry="11" style="stroke:#181818;stroke-width:1.0;"/><path d="M135.7656,126.875 Q135.9219,126.6563 136.1094,126.5469 Q136.2969,126.4375 136.5156,126.4375 Q136.8906,126.4375 137.125,126.7031 Q137.3594,126.9531 137.3594,127.5625 L137.3594,129.0156 Q137.3594,129.625 137.125,129.8906 Q136.8906,130.1563 136.5156,130.1563 Q136.1719,130.1563 135.9688,129.9531 Q135.7656,129.7656 135.6563,129.25 Q135.6094,128.8906 135.4219,128.7031 Q135.0938,128.3281 134.4844,128.1094 Q133.875,127.8906 133.25,127.8906 Q132.4844,127.8906 131.8438,128.2188 Q131.2188,128.5469 130.7188,129.2969 Q130.2344,130.0469 130.2344,131.0781 L130.2344,132.1719 Q130.2344,133.4063 131.125,134.2344 Q132.0156,135.0469 133.6094,135.0469 Q134.5469,135.0469 135.2031,134.7969 Q135.5938,134.6406 136.0156,134.2031 Q136.2813,133.9375 136.4219,133.8594 Q136.5781,133.7813 136.7813,133.7813 Q137.1094,133.7813 137.3594,134.0469 Q137.625,134.2969 137.625,134.6406 Q137.625,134.9844 137.2813,135.3906 Q136.7813,135.9688 135.9844,136.2969 Q134.9063,136.75 133.6094,136.75 Q132.0938,136.75 130.8906,136.125 Q129.9063,135.625 129.2188,134.5625 Q128.5313,133.4844 128.5313,132.2031 L128.5313,131.0469 Q128.5313,129.7188 129.1406,128.5781 Q129.7656,127.4219 130.8594,126.8125 Q131.9531,126.1875 133.1875,126.1875 Q133.9219,126.1875 134.5625,126.3594 Q135.2188,126.5156 135.7656,126.875 Z " fill="#000000"/><text fill="#000000" font-family="sans-serif" font-size="14" lengthAdjust="spacing" textLength="130.7236" x="147" y="136.7969">SaveGameController</text><line style="stroke:#181818;stroke-width:0.5;" x1="119" x2="279.7236" y1="147" y2="147"/><line style="stroke:#181818;stroke-width:0.5;" x1="119" x2="279.7236" y1="155" y2="155"/><ellipse cx="129" cy="169.8105" fill="#A6A6A6" rx="3" ry="3" style="stroke:#545454;stroke-width:1.0;"/><text fill="#000000" font-family="sans-serif" font-size="14" lengthAdjust="spacing" textLength="133.041" x="138" y="174.1074">saveGameProgress()</text></g><!--class Scenario--><g id="elem_Scenario"><rect codeLine="12" fill="#F1F1F1" height="66.6211" id="Scenario" rx="2.5" ry="2.5" style="stroke:#181818;stroke-width:0.5;" width="157.4893" x="7" y="242"/><ellipse cx="53.8672" cy="258" fill="#C2C2C2" rx="11" ry="11" style="stroke:#181818;stroke-width:1.0;"/><path d="M56.6328,253.875 Q56.7891,253.6563 56.9766,253.5469 Q57.1641,253.4375 57.3828,253.4375 Q57.7578,253.4375 57.9922,253.7031 Q58.2266,253.9531 58.2266,254.5625 L58.2266,256.0156 Q58.2266,256.625 57.9922,256.8906 Q57.7578,257.1563 57.3828,257.1563 Q57.0391,257.1563 56.8359,256.9531 Q56.6328,256.7656 56.5234,256.25 Q56.4766,255.8906 56.2891,255.7031 Q55.9609,255.3281 55.3516,255.1094 Q54.7422,254.8906 54.1172,254.8906 Q53.3516,254.8906 52.7109,255.2188 Q52.0859,255.5469 51.5859,256.2969 Q51.1016,257.0469 51.1016,258.0781 L51.1016,259.1719 Q51.1016,260.4063 51.9922,261.2344 Q52.8828,262.0469 54.4766,262.0469 Q55.4141,262.0469 56.0703,261.7969 Q56.4609,261.6406 56.8828,261.2031 Q57.1484,260.9375 57.2891,260.8594 Q57.4453,260.7813 57.6484,260.7813 Q57.9766,260.7813 58.2266,261.0469 Q58.4922,261.2969 58.4922,261.6406 Q58.4922,261.9844 58.1484,262.3906 Q57.6484,262.9688 56.8516,263.2969 Q55.7734,263.75 54.4766,263.75 Q52.9609,263.75 51.7578,263.125 Q50.7734,262.625 50.0859,261.5625 Q49.3984,260.4844 49.3984,259.2031 L49.3984,258.0469 Q49.3984,256.7188 50.0078,255.5781 Q50.6328,254.4219 51.7266,253.8125 Q52.8203,253.1875 54.0547,253.1875 Q54.7891,253.1875 55.4297,253.3594 Q56.0859,253.5156 56.6328,253.875 Z " fill="#000000"/><text fill="#000000" font-family="sans-serif" font-size="14" lengthAdjust="spacing" textLength="55.2549" x="74.3672" y="263.7969">Scenario</text><line style="stroke:#181818;stroke-width:0.5;" x1="8" x2="163.4893" y1="274" y2="274"/><line style="stroke:#181818;stroke-width:0.5;" x1="8" x2="163.4893" y1="282" y2="282"/><ellipse cx="18" cy="296.8105" fill="#A6A6A6" rx="3" ry="3" style="stroke:#545454;stroke-width:1.0;"/><text fill="#000000" font-family="sans-serif" font-size="14" lengthAdjust="spacing" textLength="131.4893" x="27" y="301.1074">serializeGameState()</text></g><!--class GameRepository--><g id="elem_GameRepository"><rect codeLine="16" fill="#F1F1F1" height="66.6211" id="GameRepository" rx="2.5" ry="2.5" style="stroke:#181818;stroke-width:0.5;" width="229.8545" x="199.5" y="242"/><ellipse cx="257.6567" cy="258" fill="#C2C2C2" rx="11" ry="11" style="stroke:#181818;stroke-width:1.0;"/><path d="M260.4224,253.875 Q260.5786,253.6563 260.7661,253.5469 Q260.9536,253.4375 261.1724,253.4375 Q261.5474,253.4375 261.7817,253.7031 Q262.0161,253.9531 262.0161,254.5625 L262.0161,256.0156 Q262.0161,256.625 261.7817,256.8906 Q261.5474,257.1563 261.1724,257.1563 Q260.8286,257.1563 260.6255,256.9531 Q260.4224,256.7656 260.313,256.25 Q260.2661,255.8906 260.0786,255.7031 Q259.7505,255.3281 259.1411,255.1094 Q258.5317,254.8906 257.9067,254.8906 Q257.1411,254.8906 256.5005,255.2188 Q255.8755,255.5469 255.3755,256.2969 Q254.8911,257.0469 254.8911,258.0781 L254.8911,259.1719 Q254.8911,260.4063 255.7817,261.2344 Q256.6724,262.0469 258.2661,262.0469 Q259.2036,262.0469 259.8599,261.7969 Q260.2505,261.6406 260.6724,261.2031 Q260.938,260.9375 261.0786,260.8594 Q261.2349,260.7813 261.438,260.7813 Q261.7661,260.7813 262.0161,261.0469 Q262.2817,261.2969 262.2817,261.6406 Q262.2817,261.9844 261.938,262.3906 Q261.438,262.9688 260.6411,263.2969 Q259.563,263.75 258.2661,263.75 Q256.7505,263.75 255.5474,263.125 Q254.563,262.625 253.8755,261.5625 Q253.188,260.4844 253.188,259.2031 L253.188,258.0469 Q253.188,256.7188 253.7974,255.5781 Q254.4224,254.4219 255.5161,253.8125 Q256.6099,253.1875 257.8442,253.1875 Q258.5786,253.1875 259.2192,253.3594 Q259.8755,253.5156 260.4224,253.875 Z " fill="#000000"/><text fill="#000000" font-family="sans-serif" font-size="14" lengthAdjust="spacing" textLength="105.041" x="278.1567" y="263.7969">GameRepository</text><line style="stroke:#181818;stroke-width:0.5;" x1="200.5" x2="428.3545" y1="274" y2="274"/><line style="stroke:#181818;stroke-width:0.5;" x1="200.5" x2="428.3545" y1="282" y2="282"/><ellipse cx="210.5" cy="296.8105" fill="#A6A6A6" rx="3" ry="3" style="stroke:#545454;stroke-width:1.0;"/><text fill="#000000" font-family="sans-serif" font-size="14" lengthAdjust="spacing" textLength="203.8545" x="219.5" y="301.1074">saveGame(serializedGameData)</text></g><!--link SaveGameUI to SaveGameController--><g id="link_SaveGameUI_SaveGameController"><path codeLine="20" d="M199.5,55.1 C199.5,72.21 199.5,89.77 199.5,108.82 " fill="none" id="SaveGameUI-to-SaveGameController" style="stroke:#181818;stroke-width:1.0;"/><polygon fill="#181818" points="199.5,114.82,203.5,105.82,199.5,109.82,195.5,105.82,199.5,114.82" style="stroke:#181818;stroke-width:1.0;"/></g><!--link SaveGameController to Scenario--><g id="link_SaveGameController_Scenario"><path codeLine="21" d="M169.85,182.02 C153.09,200.39 136.2432,218.8569 119.4432,237.2769 " fill="none" id="SaveGameController-to-Scenario" style="stroke:#181818;stroke-width:1.0;"/><polygon fill="#181818" points="115.4,241.71,124.4202,237.7558,118.7693,238.0157,118.5094,232.3649,115.4,241.71" style="stroke:#181818;stroke-width:1.0;"/></g><!--link SaveGameController to GameRepository--><g id="link_SaveGameController_GameRepository"><path codeLine="22" d="M229.41,182.02 C246.32,200.39 263.3272,218.8748 280.2772,237.2948 " fill="none" id="SaveGameController-to-GameRepository" style="stroke:#181818;stroke-width:1.0;"/><polygon fill="#181818" points="284.34,241.71,281.1892,232.3787,280.9543,238.0307,275.3024,237.7958,284.34,241.71" style="stroke:#181818;stroke-width:1.0;"/></g><!--SRC=[TOx12i8m38RlVOeU5TahU54GR-Bm0K8NkxAk6KbLflZkRcFCgZEtvFj_yadbGWCCjQufa2cPQjIHBwXa8WsO2YpciVMe6Ks4O7qQa18AkhbWzHcye5B6WuZEuOexgF6qrm_r_BvkA4Gcxv4xghjPQHdHWSaoYYoMISrW07Rq3YCxyEu-DF884TDuVpnYG-8YSVlpOJ6rYtxTGeIXd2XdsNh6LSte3ybHxn__z54l]--></g></svg>