<svg xmlns="http://www.w3.org/2000/svg" xmlns:xlink="http://www.w3.org/1999/xlink" contentStyleType="text/css" height="1034px" preserveAspectRatio="none" style="width:1666px;height:1034px;background:#FFFFFF;" version="1.1" viewBox="0 0 1666 1034" width="1666px" zoomAndPan="magnify"><defs/><g><rect fill="#FFFFFF" height="869.3926" style="stroke:#181818;stroke-width:1.0;" width="10" x="165.3271" y="90.5332"/><rect fill="#FFFFFF" height="31.291" style="stroke:#181818;stroke-width:1.0;" width="10" x="538.8706" y="148.1152"/><rect fill="#FFFFFF" height="31.291" style="stroke:#181818;stroke-width:1.0;" width="10" x="685.0562" y="210.6973"/><rect fill="#FFFFFF" height="323.6973" style="stroke:#181818;stroke-width:1.0;" width="10" x="817.6211" y="597.9375"/><rect fill="#FFFFFF" height="28" style="stroke:#181818;stroke-width:1.0;" width="10" x="822.6211" y="724.8105"/><rect fill="#FFFFFF" height="293.3672" style="stroke:#181818;stroke-width:1.0;" width="10" x="1004.8164" y="273.2793"/><rect fill="#FFFFFF" height="230.7852" style="stroke:#181818;stroke-width:1.0;" width="10" x="1130.979" y="304.5703"/><rect fill="#FFFFFF" height="30" style="stroke:#181818;stroke-width:1.0;" width="10" x="1310.8843" y="405.7734"/><rect fill="#FFFFFF" height="30" style="stroke:#181818;stroke-width:1.0;" width="10" x="1310.8843" y="467.0645"/><rect fill="#FFFFFF" height="30" style="stroke:#181818;stroke-width:1.0;" width="10" x="1310.8843" y="655.5195"/><rect fill="#FFFFFF" height="30" style="stroke:#181818;stroke-width:1.0;" width="10" x="1469.5112" y="853.3438"/><rect fill="none" height="824.1016" style="stroke:#000000;stroke-width:1.5;" width="1587.728" x="72.3931" y="105.5332"/><rect fill="none" height="141.873" style="stroke:#000000;stroke-width:1.5;" width="318.1875" x="1091.7412" y="363.1914"/><rect fill="none" height="278.4063" style="stroke:#000000;stroke-width:1.5;" width="891.9722" x="758.1489" y="612.9375"/><line style="stroke:#181818;stroke-width:0.5;stroke-dasharray:5.0,5.0;" x1="169.3931" x2="169.3931" y1="57.2422" y2="977.9258"/><line style="stroke:#181818;stroke-width:0.5;stroke-dasharray:5.0,5.0;" x1="313.2612" x2="313.2612" y1="57.2422" y2="977.9258"/><line style="stroke:#181818;stroke-width:0.5;stroke-dasharray:5.0,5.0;" x1="417.0747" x2="417.0747" y1="57.2422" y2="977.9258"/><line style="stroke:#181818;stroke-width:0.5;stroke-dasharray:5.0,5.0;" x1="543.7778" x2="543.7778" y1="57.2422" y2="977.9258"/><line style="stroke:#181818;stroke-width:0.5;stroke-dasharray:5.0,5.0;" x1="689.9634" x2="689.9634" y1="57.2422" y2="977.9258"/><line style="stroke:#181818;stroke-width:0.5;stroke-dasharray:5.0,5.0;" x1="822.1489" x2="822.1489" y1="57.2422" y2="977.9258"/><line style="stroke:#181818;stroke-width:0.5;stroke-dasharray:5.0,5.0;" x1="1009.4028" x2="1009.4028" y1="57.2422" y2="977.9258"/><line style="stroke:#181818;stroke-width:0.5;stroke-dasharray:5.0,5.0;" x1="1135.7412" x2="1135.7412" y1="57.2422" y2="977.9258"/><line style="stroke:#181818;stroke-width:0.5;stroke-dasharray:5.0,5.0;" x1="1315.8398" x2="1315.8398" y1="344.3809" y2="977.9258"/><line style="stroke:#181818;stroke-width:0.5;stroke-dasharray:5.0,5.0;" x1="1473.9287" x2="1473.9287" y1="57.2422" y2="977.9258"/><line style="stroke:#181818;stroke-width:0.5;stroke-dasharray:5.0,5.0;" x1="1594.0938" x2="1594.0938" y1="808.9316" y2="977.9258"/><rect fill="#E3E3E3" height="32.6211" rx="2.5" ry="2.5" style="stroke:#181818;stroke-width:0.5;" width="175.8682" x="82.3931" y="23.6211"/><text fill="#000000" font-family="sans-serif" font-size="14" lengthAdjust="spacing" textLength="161.8682" x="89.3931" y="45.7285">:UpgradeStationController</text><rect fill="#E3E3E3" height="32.6211" rx="2.5" ry="2.5" style="stroke:#181818;stroke-width:0.5;" width="175.8682" x="82.3931" y="976.9258"/><text fill="#000000" font-family="sans-serif" font-size="14" lengthAdjust="spacing" textLength="161.8682" x="89.3931" y="999.0332">:UpgradeStationController</text><rect fill="#E3E3E3" height="32.6211" rx="2.5" ry="2.5" style="stroke:#181818;stroke-width:0.5;" width="91.8135" x="268.2612" y="23.6211"/><text fill="#000000" font-family="sans-serif" font-size="14" lengthAdjust="spacing" textLength="77.8135" x="275.2612" y="45.7285">Repositories</text><rect fill="#E3E3E3" height="32.6211" rx="2.5" ry="2.5" style="stroke:#181818;stroke-width:0.5;" width="91.8135" x="268.2612" y="976.9258"/><text fill="#000000" font-family="sans-serif" font-size="14" lengthAdjust="spacing" textLength="77.8135" x="275.2612" y="999.0332">Repositories</text><rect fill="#E3E3E3" height="51.2422" rx="2.5" ry="2.5" style="stroke:#181818;stroke-width:0.5;" width="95.7031" x="370.0747" y="5"/><text fill="#000000" font-family="sans-serif" font-size="14" lengthAdjust="spacing" textLength="72.3652" x="381.7437" y="27.1074">repositories</text><text fill="#000000" font-family="sans-serif" font-size="14" lengthAdjust="spacing" textLength="81.7031" x="377.0747" y="45.7285">:Repositories</text><rect fill="#E3E3E3" height="51.2422" rx="2.5" ry="2.5" style="stroke:#181818;stroke-width:0.5;" width="95.7031" x="370.0747" y="976.9258"/><text fill="#000000" font-family="sans-serif" font-size="14" lengthAdjust="spacing" textLength="72.3652" x="381.7437" y="999.0332">repositories</text><text fill="#000000" font-family="sans-serif" font-size="14" lengthAdjust="spacing" textLength="81.7031" x="377.0747" y="1017.6543">:Repositories</text><rect fill="#E3E3E3" height="32.6211" rx="2.5" ry="2.5" style="stroke:#181818;stroke-width:0.5;" width="136.1855" x="475.7778" y="23.6211"/><text fill="#000000" font-family="sans-serif" font-size="14" lengthAdjust="spacing" textLength="122.1855" x="482.7778" y="45.7285">:ApplicationSession</text><rect fill="#E3E3E3" height="32.6211" rx="2.5" ry="2.5" style="stroke:#181818;stroke-width:0.5;" width="136.1855" x="475.7778" y="976.9258"/><text fill="#000000" font-family="sans-serif" font-size="14" lengthAdjust="spacing" textLength="122.1855" x="482.7778" y="999.0332">:ApplicationSession</text><rect fill="#E3E3E3" height="51.2422" rx="2.5" ry="2.5" style="stroke:#181818;stroke-width:0.5;" width="136.1855" x="621.9634" y="5"/><text fill="#000000" font-family="sans-serif" font-size="14" lengthAdjust="spacing" textLength="73.165" x="653.4736" y="27.1074">appSession</text><text fill="#000000" font-family="sans-serif" font-size="14" lengthAdjust="spacing" textLength="122.1855" x="628.9634" y="45.7285">:ApplicationSession</text><rect fill="#E3E3E3" height="51.2422" rx="2.5" ry="2.5" style="stroke:#181818;stroke-width:0.5;" width="136.1855" x="621.9634" y="976.9258"/><text fill="#000000" font-family="sans-serif" font-size="14" lengthAdjust="spacing" textLength="73.165" x="653.4736" y="999.0332">appSession</text><text fill="#000000" font-family="sans-serif" font-size="14" lengthAdjust="spacing" textLength="122.1855" x="628.9634" y="1017.6543">:ApplicationSession</text><rect fill="#E3E3E3" height="51.2422" rx="2.5" ry="2.5" style="stroke:#181818;stroke-width:0.5;" width="108.9443" x="768.1489" y="5"/><text fill="#000000" font-family="sans-serif" font-size="14" lengthAdjust="spacing" textLength="88.7168" x="778.2627" y="27.1074">stationMapper</text><text fill="#000000" font-family="sans-serif" font-size="14" lengthAdjust="spacing" textLength="94.9443" x="775.1489" y="45.7285">:StationMapper</text><rect fill="#E3E3E3" height="51.2422" rx="2.5" ry="2.5" style="stroke:#181818;stroke-width:0.5;" width="108.9443" x="768.1489" y="976.9258"/><text fill="#000000" font-family="sans-serif" font-size="14" lengthAdjust="spacing" textLength="88.7168" x="778.2627" y="999.0332">stationMapper</text><text fill="#000000" font-family="sans-serif" font-size="14" lengthAdjust="spacing" textLength="94.9443" x="775.1489" y="1017.6543">:StationMapper</text><rect fill="#E3E3E3" height="51.2422" rx="2.5" ry="2.5" style="stroke:#181818;stroke-width:0.5;" width="112.8271" x="953.4028" y="5"/><text fill="#000000" font-family="sans-serif" font-size="14" lengthAdjust="spacing" textLength="98.8271" x="960.4028" y="27.1074">currentScenario</text><text fill="#000000" font-family="sans-serif" font-size="14" lengthAdjust="spacing" textLength="59.1445" x="980.2441" y="45.7285">:Scenario</text><rect fill="#E3E3E3" height="51.2422" rx="2.5" ry="2.5" style="stroke:#181818;stroke-width:0.5;" width="112.8271" x="953.4028" y="976.9258"/><text fill="#000000" font-family="sans-serif" font-size="14" lengthAdjust="spacing" textLength="98.8271" x="960.4028" y="999.0332">currentScenario</text><text fill="#000000" font-family="sans-serif" font-size="14" lengthAdjust="spacing" textLength="59.1445" x="980.2441" y="1017.6543">:Scenario</text><rect fill="#E3E3E3" height="51.2422" rx="2.5" ry="2.5" style="stroke:#181818;stroke-width:0.5;" width="68.4756" x="1101.7412" y="5"/><text fill="#000000" font-family="sans-serif" font-size="14" lengthAdjust="spacing" textLength="48.248" x="1111.855" y="27.1074">stations</text><text fill="#000000" font-family="sans-serif" font-size="14" lengthAdjust="spacing" textLength="54.4756" x="1108.7412" y="45.7285">:Stations</text><rect fill="#E3E3E3" height="51.2422" rx="2.5" ry="2.5" style="stroke:#181818;stroke-width:0.5;" width="68.4756" x="1101.7412" y="976.9258"/><text fill="#000000" font-family="sans-serif" font-size="14" lengthAdjust="spacing" textLength="48.248" x="1111.855" y="999.0332">stations</text><text fill="#000000" font-family="sans-serif" font-size="14" lengthAdjust="spacing" textLength="54.4756" x="1108.7412" y="1017.6543">:Stations</text><rect fill="#E3E3E3" height="32.6211" rx="2.5" ry="2.5" style="stroke:#181818;stroke-width:0.5;" width="168.0889" x="1231.8398" y="976.9258"/><text fill="#000000" font-family="sans-serif" font-size="14" lengthAdjust="spacing" textLength="154.0889" x="1238.8398" y="999.0332">listStation : List&lt;Station&gt;</text><rect fill="#E3E3E3" height="51.2422" rx="2.5" ry="2.5" style="stroke:#181818;stroke-width:0.5;" width="129.165" x="1409.9287" y="5"/><text fill="#000000" font-family="sans-serif" font-size="14" lengthAdjust="spacing" textLength="90.248" x="1429.3872" y="27.1074">listStationDTO</text><text fill="#000000" font-family="sans-serif" font-size="14" lengthAdjust="spacing" textLength="115.165" x="1416.9287" y="45.7285">:List&lt;StationDTO&gt;</text><rect fill="#E3E3E3" height="51.2422" rx="2.5" ry="2.5" style="stroke:#181818;stroke-width:0.5;" width="129.165" x="1409.9287" y="976.9258"/><text fill="#000000" font-family="sans-serif" font-size="14" lengthAdjust="spacing" textLength="90.248" x="1429.3872" y="999.0332">listStationDTO</text><text fill="#000000" font-family="sans-serif" font-size="14" lengthAdjust="spacing" textLength="115.165" x="1416.9287" y="1017.6543">:List&lt;StationDTO&gt;</text><rect fill="#E3E3E3" height="51.2422" rx="2.5" ry="2.5" style="stroke:#181818;stroke-width:0.5;" width="91.0273" x="1549.0938" y="976.9258"/><text fill="#000000" font-family="sans-serif" font-size="14" lengthAdjust="spacing" textLength="70.7998" x="1559.2075" y="999.0332">stationDTO</text><text fill="#000000" font-family="sans-serif" font-size="14" lengthAdjust="spacing" textLength="77.0273" x="1556.0938" y="1017.6543">:StationDTO</text><rect fill="#FFFFFF" height="869.3926" style="stroke:#181818;stroke-width:1.0;" width="10" x="165.3271" y="90.5332"/><rect fill="#FFFFFF" height="31.291" style="stroke:#181818;stroke-width:1.0;" width="10" x="538.8706" y="148.1152"/><rect fill="#FFFFFF" height="31.291" style="stroke:#181818;stroke-width:1.0;" width="10" x="685.0562" y="210.6973"/><rect fill="#FFFFFF" height="323.6973" style="stroke:#181818;stroke-width:1.0;" width="10" x="817.6211" y="597.9375"/><rect fill="#FFFFFF" height="28" style="stroke:#181818;stroke-width:1.0;" width="10" x="822.6211" y="724.8105"/><rect fill="#FFFFFF" height="293.3672" style="stroke:#181818;stroke-width:1.0;" width="10" x="1004.8164" y="273.2793"/><rect fill="#FFFFFF" height="230.7852" style="stroke:#181818;stroke-width:1.0;" width="10" x="1130.979" y="304.5703"/><rect fill="#FFFFFF" height="30" style="stroke:#181818;stroke-width:1.0;" width="10" x="1310.8843" y="405.7734"/><rect fill="#FFFFFF" height="30" style="stroke:#181818;stroke-width:1.0;" width="10" x="1310.8843" y="467.0645"/><rect fill="#FFFFFF" height="30" style="stroke:#181818;stroke-width:1.0;" width="10" x="1310.8843" y="655.5195"/><rect fill="#FFFFFF" height="30" style="stroke:#181818;stroke-width:1.0;" width="10" x="1469.5112" y="853.3438"/><polygon fill="#181818" points="153.3271,86.5332,163.3271,90.5332,153.3271,94.5332,157.3271,90.5332" style="stroke:#181818;stroke-width:1.0;"/><line style="stroke:#181818;stroke-width:1.0;" x1="0" x2="159.3271" y1="90.5332" y2="90.5332"/><text fill="#000000" font-family="sans-serif" font-size="13" font-weight="bold" lengthAdjust="spacing" textLength="7.23" x="7" y="85.2705">3</text><text fill="#000000" font-family="sans-serif" font-size="13" lengthAdjust="spacing" textLength="135.0972" x="18.23" y="85.2705">getListOfStationsDTO()</text><path d="M72.3931,105.5332 L248.123,105.5332 L248.123,114.8242 L238.123,124.8242 L72.3931,124.8242 L72.3931,105.5332 " fill="#EEEEEE" style="stroke:#000000;stroke-width:1.5;"/><rect fill="none" height="824.1016" style="stroke:#000000;stroke-width:1.5;" width="1587.728" x="72.3931" y="105.5332"/><text fill="#000000" font-family="sans-serif" font-size="13" font-weight="bold" lengthAdjust="spacing" textLength="130.73" x="87.3931" y="120.5615">Get StationsDTO List</text><polygon fill="#181818" points="526.8706,144.1152,536.8706,148.1152,526.8706,152.1152,530.8706,148.1152" style="stroke:#181818;stroke-width:1.0;"/><line style="stroke:#181818;stroke-width:1.0;" x1="175.3271" x2="532.8706" y1="148.1152" y2="148.1152"/><text fill="#000000" font-family="sans-serif" font-size="13" font-weight="bold" lengthAdjust="spacing" textLength="18.0718" x="182.3271" y="142.8525">3.1</text><text fill="#000000" font-family="sans-serif" font-size="13" lengthAdjust="spacing" textLength="75.8735" x="204.3989" y="142.8525">getInstance()</text><polygon fill="#181818" points="186.3271,175.4063,176.3271,179.4063,186.3271,183.4063,182.3271,179.4063" style="stroke:#181818;stroke-width:1.0;"/><line style="stroke:#181818;stroke-width:1.0;stroke-dasharray:2.0,2.0;" x1="180.3271" x2="542.8706" y1="179.4063" y2="179.4063"/><text fill="#000000" font-family="sans-serif" font-size="13" font-weight="bold" lengthAdjust="spacing" textLength="18.0718" x="192.3271" y="174.1436">3.2</text><text fill="#000000" font-family="sans-serif" font-size="13" lengthAdjust="spacing" textLength="67.939" x="214.3989" y="174.1436">appSession</text><polygon fill="#181818" points="673.0562,206.6973,683.0562,210.6973,673.0562,214.6973,677.0562,210.6973" style="stroke:#181818;stroke-width:1.0;"/><line style="stroke:#181818;stroke-width:1.0;" x1="175.3271" x2="679.0562" y1="210.6973" y2="210.6973"/><text fill="#000000" font-family="sans-serif" font-size="13" font-weight="bold" lengthAdjust="spacing" textLength="18.0718" x="182.3271" y="205.4346">3.3</text><text fill="#000000" font-family="sans-serif" font-size="13" lengthAdjust="spacing" textLength="121.3862" x="204.3989" y="205.4346">getCurrentScenario()</text><polygon fill="#181818" points="186.3271,237.9883,176.3271,241.9883,186.3271,245.9883,182.3271,241.9883" style="stroke:#181818;stroke-width:1.0;"/><line style="stroke:#181818;stroke-width:1.0;stroke-dasharray:2.0,2.0;" x1="180.3271" x2="689.0562" y1="241.9883" y2="241.9883"/><text fill="#000000" font-family="sans-serif" font-size="13" font-weight="bold" lengthAdjust="spacing" textLength="18.0718" x="192.3271" y="236.7256">3.4</text><text fill="#000000" font-family="sans-serif" font-size="13" lengthAdjust="spacing" textLength="91.7681" x="214.3989" y="236.7256">currentScenario</text><polygon fill="#181818" points="992.8164,269.2793,1002.8164,273.2793,992.8164,277.2793,996.8164,273.2793" style="stroke:#181818;stroke-width:1.0;"/><line style="stroke:#181818;stroke-width:1.0;" x1="175.3271" x2="998.8164" y1="273.2793" y2="273.2793"/><text fill="#000000" font-family="sans-serif" font-size="13" font-weight="bold" lengthAdjust="spacing" textLength="18.0718" x="182.3271" y="268.0166">3.5</text><text fill="#000000" font-family="sans-serif" font-size="13" lengthAdjust="spacing" textLength="73.7026" x="204.3989" y="268.0166">getStations()</text><polygon fill="#181818" points="1118.979,300.5703,1128.979,304.5703,1118.979,308.5703,1122.979,304.5703" style="stroke:#181818;stroke-width:1.0;"/><line style="stroke:#181818;stroke-width:1.0;" x1="1014.8164" x2="1124.979" y1="304.5703" y2="304.5703"/><text fill="#000000" font-family="sans-serif" font-size="13" font-weight="bold" lengthAdjust="spacing" textLength="18.0718" x="1021.8164" y="299.3076">3.6</text><text fill="#000000" font-family="sans-serif" font-size="13" lengthAdjust="spacing" textLength="73.7026" x="1043.8882" y="299.3076">getStations()</text><polygon fill="#181818" points="1219.8398,331.8613,1229.8398,335.8613,1219.8398,339.8613,1223.8398,335.8613" style="stroke:#181818;stroke-width:1.0;"/><line style="stroke:#181818;stroke-width:1.0;" x1="1140.979" x2="1225.8398" y1="335.8613" y2="335.8613"/><text fill="#000000" font-family="sans-serif" font-size="13" font-weight="bold" lengthAdjust="spacing" textLength="18.0718" x="1147.979" y="330.5986">3.7</text><text fill="#000000" font-family="sans-serif" font-size="13" lengthAdjust="spacing" textLength="44.7891" x="1170.0508" y="330.5986">create()</text><rect fill="#E3E3E3" height="32.6211" rx="2.5" ry="2.5" style="stroke:#181818;stroke-width:0.5;" width="168.0889" x="1231.8398" y="312.5703"/><text fill="#000000" font-family="sans-serif" font-size="14" lengthAdjust="spacing" textLength="154.0889" x="1238.8398" y="334.6777">listStation : List&lt;Station&gt;</text><path d="M1091.7412,363.1914 L1164.1758,363.1914 L1164.1758,372.4824 L1154.1758,382.4824 L1091.7412,382.4824 L1091.7412,363.1914 " fill="#EEEEEE" style="stroke:#000000;stroke-width:1.5;"/><rect fill="none" height="141.873" style="stroke:#000000;stroke-width:1.5;" width="318.1875" x="1091.7412" y="363.1914"/><text fill="#000000" font-family="sans-serif" font-size="13" font-weight="bold" lengthAdjust="spacing" textLength="27.4346" x="1106.7412" y="378.2197">loop</text><text fill="#000000" font-family="sans-serif" font-size="11" font-weight="bold" lengthAdjust="spacing" textLength="128.3369" x="1179.1758" y="377.0615">[for each known Station]</text><polygon fill="#181818" points="1298.8843,401.7734,1308.8843,405.7734,1298.8843,409.7734,1302.8843,405.7734" style="stroke:#181818;stroke-width:1.0;"/><line style="stroke:#181818;stroke-width:1.0;" x1="1140.979" x2="1304.8843" y1="405.7734" y2="405.7734"/><text fill="#000000" font-family="sans-serif" font-size="13" font-weight="bold" lengthAdjust="spacing" textLength="18.0718" x="1147.979" y="400.5107">3.8</text><text fill="#000000" font-family="sans-serif" font-size="13" lengthAdjust="spacing" textLength="61.7817" x="1170.0508" y="400.5107">obj = get(i)</text><polygon fill="#181818" points="1298.8843,463.0645,1308.8843,467.0645,1298.8843,471.0645,1302.8843,467.0645" style="stroke:#181818;stroke-width:1.0;"/><line style="stroke:#181818;stroke-width:1.0;" x1="1140.979" x2="1304.8843" y1="467.0645" y2="467.0645"/><text fill="#000000" font-family="sans-serif" font-size="13" font-weight="bold" lengthAdjust="spacing" textLength="18.0718" x="1147.979" y="461.8018">3.9</text><text fill="#000000" font-family="sans-serif" font-size="13" lengthAdjust="spacing" textLength="47.6963" x="1170.0508" y="461.8018">add(obj)</text><polygon fill="#181818" points="1025.8164,531.3555,1015.8164,535.3555,1025.8164,539.3555,1021.8164,535.3555" style="stroke:#181818;stroke-width:1.0;"/><line style="stroke:#181818;stroke-width:1.0;stroke-dasharray:2.0,2.0;" x1="1019.8164" x2="1134.979" y1="535.3555" y2="535.3555"/><text fill="#000000" font-family="sans-serif" font-size="13" font-weight="bold" lengthAdjust="spacing" textLength="25.3018" x="1031.8164" y="530.0928">3.10</text><text fill="#000000" font-family="sans-serif" font-size="13" lengthAdjust="spacing" textLength="62.8608" x="1061.1182" y="530.0928">listStations</text><polygon fill="#181818" points="186.3271,562.6465,176.3271,566.6465,186.3271,570.6465,182.3271,566.6465" style="stroke:#181818;stroke-width:1.0;"/><line style="stroke:#181818;stroke-width:1.0;stroke-dasharray:2.0,2.0;" x1="180.3271" x2="1008.8164" y1="566.6465" y2="566.6465"/><text fill="#000000" font-family="sans-serif" font-size="13" font-weight="bold" lengthAdjust="spacing" textLength="25.3018" x="192.3271" y="561.3838">3.11</text><text fill="#000000" font-family="sans-serif" font-size="13" lengthAdjust="spacing" textLength="62.8608" x="221.6289" y="561.3838">listStations</text><polygon fill="#181818" points="805.6211,593.9375,815.6211,597.9375,805.6211,601.9375,809.6211,597.9375" style="stroke:#181818;stroke-width:1.0;"/><line style="stroke:#181818;stroke-width:1.0;" x1="175.3271" x2="811.6211" y1="597.9375" y2="597.9375"/><text fill="#000000" font-family="sans-serif" font-size="13" font-weight="bold" lengthAdjust="spacing" textLength="25.3018" x="182.3271" y="592.6748">3.12</text><text fill="#000000" font-family="sans-serif" font-size="13" lengthAdjust="spacing" textLength="169.7998" x="211.6289" y="592.6748">toStationDTOs(List&lt;Station&gt;)</text><path d="M758.1489,612.9375 L830.5835,612.9375 L830.5835,622.2285 L820.5835,632.2285 L758.1489,632.2285 L758.1489,612.9375 " fill="#EEEEEE" style="stroke:#000000;stroke-width:1.5;"/><rect fill="none" height="278.4063" style="stroke:#000000;stroke-width:1.5;" width="891.9722" x="758.1489" y="612.9375"/><text fill="#000000" font-family="sans-serif" font-size="13" font-weight="bold" lengthAdjust="spacing" textLength="27.4346" x="773.1489" y="627.9658">loop</text><text fill="#000000" font-family="sans-serif" font-size="11" font-weight="bold" lengthAdjust="spacing" textLength="174.7969" x="845.5835" y="626.8076">[for each station in List&lt;Station&gt;]</text><polygon fill="#181818" points="1298.8843,651.5195,1308.8843,655.5195,1298.8843,659.5195,1302.8843,655.5195" style="stroke:#181818;stroke-width:1.0;"/><line style="stroke:#181818;stroke-width:1.0;" x1="827.6211" x2="1304.8843" y1="655.5195" y2="655.5195"/><text fill="#000000" font-family="sans-serif" font-size="13" font-weight="bold" lengthAdjust="spacing" textLength="25.3018" x="834.6211" y="650.2568">3.13</text><text fill="#000000" font-family="sans-serif" font-size="13" lengthAdjust="spacing" textLength="61.7817" x="863.9229" y="650.2568">obj = get(i)</text><line style="stroke:#181818;stroke-width:1.0;" x1="832.6211" x2="874.6211" y1="716.8105" y2="716.8105"/><line style="stroke:#181818;stroke-width:1.0;" x1="874.6211" x2="874.6211" y1="716.8105" y2="729.8105"/><line style="stroke:#181818;stroke-width:1.0;" x1="833.6211" x2="874.6211" y1="729.8105" y2="729.8105"/><polygon fill="#181818" points="843.6211,725.8105,833.6211,729.8105,843.6211,733.8105,839.6211,729.8105" style="stroke:#181818;stroke-width:1.0;"/><text fill="#000000" font-family="sans-serif" font-size="13" font-weight="bold" lengthAdjust="spacing" textLength="25.3018" x="839.6211" y="711.5479">3.14</text><text fill="#000000" font-family="sans-serif" font-size="13" lengthAdjust="spacing" textLength="123.8936" x="868.9229" y="711.5479">objDTO = toDTO(obj)</text><polygon fill="#181818" points="1537.0938,787.1016,1547.0938,791.1016,1537.0938,795.1016,1541.0938,791.1016" style="stroke:#181818;stroke-width:1.0;"/><line style="stroke:#181818;stroke-width:1.0;" x1="827.6211" x2="1543.0938" y1="791.1016" y2="791.1016"/><text fill="#000000" font-family="sans-serif" font-size="13" font-weight="bold" lengthAdjust="spacing" textLength="25.3018" x="834.6211" y="785.8389">3.15</text><text fill="#000000" font-family="sans-serif" font-size="13" lengthAdjust="spacing" textLength="55.6245" x="863.9229" y="785.8389">create(...)</text><rect fill="#E3E3E3" height="51.2422" rx="2.5" ry="2.5" style="stroke:#181818;stroke-width:0.5;" width="91.0273" x="1549.0938" y="767.8105"/><text fill="#000000" font-family="sans-serif" font-size="14" lengthAdjust="spacing" textLength="70.7998" x="1559.2075" y="789.918">stationDTO</text><text fill="#000000" font-family="sans-serif" font-size="14" lengthAdjust="spacing" textLength="77.0273" x="1556.0938" y="808.5391">:StationDTO</text><polygon fill="#181818" points="1457.5112,849.3438,1467.5112,853.3438,1457.5112,857.3438,1461.5112,853.3438" style="stroke:#181818;stroke-width:1.0;"/><line style="stroke:#181818;stroke-width:1.0;stroke-dasharray:2.0,2.0;" x1="827.6211" x2="1463.5112" y1="853.3438" y2="853.3438"/><text fill="#000000" font-family="sans-serif" font-size="13" font-weight="bold" lengthAdjust="spacing" textLength="25.3018" x="834.6211" y="848.0811">3.16</text><text fill="#000000" font-family="sans-serif" font-size="13" lengthAdjust="spacing" textLength="96.0908" x="863.9229" y="848.0811">add(stationDTO)</text><polygon fill="#181818" points="186.3271,917.6348,176.3271,921.6348,186.3271,925.6348,182.3271,921.6348" style="stroke:#181818;stroke-width:1.0;"/><line style="stroke:#181818;stroke-width:1.0;stroke-dasharray:2.0,2.0;" x1="180.3271" x2="821.6211" y1="921.6348" y2="921.6348"/><text fill="#000000" font-family="sans-serif" font-size="13" font-weight="bold" lengthAdjust="spacing" textLength="25.3018" x="192.3271" y="916.3721">3.17</text><text fill="#000000" font-family="sans-serif" font-size="13" lengthAdjust="spacing" textLength="83.8018" x="221.6289" y="916.3721">listStationDTO</text><polygon fill="#181818" points="11,955.9258,1,959.9258,11,963.9258,7,959.9258" style="stroke:#181818;stroke-width:1.0;"/><line style="stroke:#181818;stroke-width:1.0;stroke-dasharray:2.0,2.0;" x1="5" x2="169.3271" y1="959.9258" y2="959.9258"/><text fill="#000000" font-family="sans-serif" font-size="13" font-weight="bold" lengthAdjust="spacing" textLength="7.23" x="17" y="954.6631">4</text><text fill="#000000" font-family="sans-serif" font-size="13" lengthAdjust="spacing" textLength="83.8018" x="28.23" y="954.6631">listStationDTO</text><!--SRC=[jLPDR-8m4BtdLuouBArKf6htX5eanA8AYPQAiBTAo0qczJROaMsssd-_OvEFYHDeUbXVQEnvCs_6RpmrxqBcJBC379HKoPjM1mvM7tbagfES9UyivR7zct7GFB5CfXarC6zifpw4J67FCiEZ2BUjI4JEf8N1-5UUQhP3FBD2oPcILgiiute0pC1iirusxTSyLqPOfGKttcGzVrx5JHjDR5xak1koZHTF3ylvPlKK49hcUIOIpoRcnk2F1qsVdxVnF8uN8O3bUM67iJu7axXDF-PKWKVqnpMwYkctz_A8RkRhRRoPRbeiagFMNDeuuP9feHo- -DD3uzdyQRfUh3f3cZhQgK15XA2icJ2sC8CnBF7hhlYSUDHo4M-woH7apyqAer4mxhJnMzpjv7h2rr2FnDygSCIELidZuPLh-1v5S3FnAXf3ogqBkzgNgI9gU1K1BfPOyOTPVj8R52lLwfZ30xT043xloeJ66jr6rRvRpfUBJkxUarX8J4Kcl8XTkIevKA51iCWPt1IPuLtK4cmWThpJwMSiQuLwlhEcidhG9XA_a41jHLC9TDmZ7zfGrFeRb4uWKN8lqgFc1ah9Z-lJmUq06S3WUW2rl0baqbcmigF05wbKoBdgLFr7JoiNpbtHSlsybVqPbhSyS1vfErrVOqQQ8pPmwLQcL0vxfG7B-mRlKdt8iX0jsqj1ng1UVyEzIs0ehZgXLGQDjmBEB7BV3ViliNBjiTiDaTh_f1JQSRcxS3bD-P3NqPpJ-_aRhpHKzr0lXwKWEyNTd3JeqghwoJN3njj_HgF1iBeikg8hGSZcN6d10c9VKs2_g-kjkZQNLjcGZfiPzrW_DsqwHTYtOeHNODc36PcGv2qOZKPNduA36hl9NFHKFP9xrjfFzPxrzhQz-gg3SBiHmiZdgzaLYipv7zNc7GwDqxyM7N68VsVp3m00]--></g></svg>