<svg xmlns="http://www.w3.org/2000/svg" xmlns:xlink="http://www.w3.org/1999/xlink" contentStyleType="text/css" height="520px" preserveAspectRatio="none" style="width:512px;height:520px;background:#FFFFFF;" version="1.1" viewBox="0 0 512 520" width="512px" zoomAndPan="magnify"><defs/><g><rect fill="#FFFFFF" height="415.7832" style="stroke:#181818;stroke-width:1.0;" width="10" x="132.1162" y="48.6211"/><rect fill="#FFFFFF" height="31.291" style="stroke:#181818;stroke-width:1.0;" width="10" x="316.0742" y="129.4941"/><rect fill="#FFFFFF" height="31.291" style="stroke:#181818;stroke-width:1.0;" width="10" x="316.0742" y="192.0762"/><rect fill="#FFFFFF" height="31.291" style="stroke:#181818;stroke-width:1.0;" width="10" x="412.8394" y="254.6582"/><rect fill="#FFFFFF" height="31.291" style="stroke:#181818;stroke-width:1.0;" width="10" x="462.5117" y="343.5313"/><rect fill="none" height="347.2012" style="stroke:#000000;stroke-width:1.5;" width="459.4814" x="47.0854" y="86.9121"/><rect fill="none" height="81.873" style="stroke:#000000;stroke-width:1.5;" width="439.4814" x="57.0854" y="300.9492"/><line style="stroke:#181818;stroke-width:0.5;stroke-dasharray:5.0,5.0;" x1="137.0854" x2="137.0854" y1="38.6211" y2="482.4043"/><line style="stroke:#181818;stroke-width:0.5;stroke-dasharray:5.0,5.0;" x1="320.9263" x2="320.9263" y1="38.6211" y2="482.4043"/><line style="stroke:#181818;stroke-width:0.5;stroke-dasharray:5.0,5.0;" x1="417.2222" x2="417.2222" y1="38.6211" y2="482.4043"/><line style="stroke:#181818;stroke-width:0.5;stroke-dasharray:5.0,5.0;" x1="467.4565" x2="467.4565" y1="38.6211" y2="482.4043"/><rect fill="#E3E3E3" height="32.6211" rx="2.5" ry="2.5" style="stroke:#181818;stroke-width:0.5;" width="140.0615" x="67.0854" y="5"/><text fill="#000000" font-family="sans-serif" font-size="14" lengthAdjust="spacing" textLength="126.0615" x="74.0854" y="27.1074">ListStationController</text><rect fill="#E3E3E3" height="32.6211" rx="2.5" ry="2.5" style="stroke:#181818;stroke-width:0.5;" width="140.0615" x="67.0854" y="481.4043"/><text fill="#000000" font-family="sans-serif" font-size="14" lengthAdjust="spacing" textLength="126.0615" x="74.0854" y="503.5117">ListStationController</text><rect fill="#E3E3E3" height="32.6211" rx="2.5" ry="2.5" style="stroke:#181818;stroke-width:0.5;" width="132.2959" x="254.9263" y="5"/><text fill="#000000" font-family="sans-serif" font-size="14" lengthAdjust="spacing" textLength="118.2959" x="261.9263" y="27.1074">ApplicationSession</text><rect fill="#E3E3E3" height="32.6211" rx="2.5" ry="2.5" style="stroke:#181818;stroke-width:0.5;" width="132.2959" x="254.9263" y="481.4043"/><text fill="#000000" font-family="sans-serif" font-size="14" lengthAdjust="spacing" textLength="118.2959" x="261.9263" y="503.5117">ApplicationSession</text><rect fill="#E3E3E3" height="32.6211" rx="2.5" ry="2.5" style="stroke:#181818;stroke-width:0.5;" width="41.2344" x="397.2222" y="5"/><text fill="#000000" font-family="sans-serif" font-size="14" lengthAdjust="spacing" textLength="27.2344" x="404.2222" y="27.1074">Map</text><rect fill="#E3E3E3" height="32.6211" rx="2.5" ry="2.5" style="stroke:#181818;stroke-width:0.5;" width="41.2344" x="397.2222" y="481.4043"/><text fill="#000000" font-family="sans-serif" font-size="14" lengthAdjust="spacing" textLength="27.2344" x="404.2222" y="503.5117">Map</text><rect fill="#E3E3E3" height="32.6211" rx="2.5" ry="2.5" style="stroke:#181818;stroke-width:0.5;" width="38.1104" x="448.4565" y="5"/><text fill="#000000" font-family="sans-serif" font-size="14" lengthAdjust="spacing" textLength="24.1104" x="455.4565" y="27.1074">City</text><rect fill="#E3E3E3" height="32.6211" rx="2.5" ry="2.5" style="stroke:#181818;stroke-width:0.5;" width="38.1104" x="448.4565" y="481.4043"/><text fill="#000000" font-family="sans-serif" font-size="14" lengthAdjust="spacing" textLength="24.1104" x="455.4565" y="503.5117">City</text><rect fill="#FFFFFF" height="415.7832" style="stroke:#181818;stroke-width:1.0;" width="10" x="132.1162" y="48.6211"/><rect fill="#FFFFFF" height="31.291" style="stroke:#181818;stroke-width:1.0;" width="10" x="316.0742" y="129.4941"/><rect fill="#FFFFFF" height="31.291" style="stroke:#181818;stroke-width:1.0;" width="10" x="316.0742" y="192.0762"/><rect fill="#FFFFFF" height="31.291" style="stroke:#181818;stroke-width:1.0;" width="10" x="412.8394" y="254.6582"/><rect fill="#FFFFFF" height="31.291" style="stroke:#181818;stroke-width:1.0;" width="10" x="462.5117" y="343.5313"/><polygon fill="#181818" points="120.1162,67.9121,130.1162,71.9121,120.1162,75.9121,124.1162,71.9121" style="stroke:#181818;stroke-width:1.0;"/><line style="stroke:#181818;stroke-width:1.0;stroke-dasharray:2.0,2.0;" x1="0" x2="126.1162" y1="71.9121" y2="71.9121"/><text fill="#000000" font-family="sans-serif" font-size="13" font-weight="bold" lengthAdjust="spacing" textLength="14.46" x="7" y="66.6494">12</text><text fill="#000000" font-family="sans-serif" font-size="13" lengthAdjust="spacing" textLength="94.6563" x="25.46" y="66.6494">loadMap(mapId)</text><path d="M47.0854,86.9121 L225.748,86.9121 L225.748,96.2031 L215.748,106.2031 L47.0854,106.2031 L47.0854,86.9121 " fill="#EEEEEE" style="stroke:#000000;stroke-width:1.5;"/><rect fill="none" height="347.2012" style="stroke:#000000;stroke-width:1.5;" width="459.4814" x="47.0854" y="86.9121"/><text fill="#000000" font-family="sans-serif" font-size="13" font-weight="bold" lengthAdjust="spacing" textLength="133.6626" x="62.0854" y="101.9404">Get available stations</text><polygon fill="#181818" points="304.0742,125.4941,314.0742,129.4941,304.0742,133.4941,308.0742,129.4941" style="stroke:#181818;stroke-width:1.0;"/><line style="stroke:#181818;stroke-width:1.0;" x1="142.1162" x2="310.0742" y1="129.4941" y2="129.4941"/><text fill="#000000" font-family="sans-serif" font-size="13" font-weight="bold" lengthAdjust="spacing" textLength="25.3018" x="149.1162" y="124.2314">12.1</text><text fill="#000000" font-family="sans-serif" font-size="13" lengthAdjust="spacing" textLength="75.8735" x="178.418" y="124.2314">getInstance()</text><polygon fill="#181818" points="153.1162,156.7852,143.1162,160.7852,153.1162,164.7852,149.1162,160.7852" style="stroke:#181818;stroke-width:1.0;"/><line style="stroke:#181818;stroke-width:1.0;stroke-dasharray:2.0,2.0;" x1="147.1162" x2="320.0742" y1="160.7852" y2="160.7852"/><text fill="#000000" font-family="sans-serif" font-size="13" font-weight="bold" lengthAdjust="spacing" textLength="25.3018" x="159.1162" y="155.5225">12.2</text><text fill="#000000" font-family="sans-serif" font-size="13" lengthAdjust="spacing" textLength="93.2217" x="188.418" y="155.5225">sessionInstance</text><polygon fill="#181818" points="304.0742,188.0762,314.0742,192.0762,304.0742,196.0762,308.0742,192.0762" style="stroke:#181818;stroke-width:1.0;"/><line style="stroke:#181818;stroke-width:1.0;" x1="142.1162" x2="310.0742" y1="192.0762" y2="192.0762"/><text fill="#000000" font-family="sans-serif" font-size="13" font-weight="bold" lengthAdjust="spacing" textLength="25.3018" x="149.1162" y="186.8135">12.3</text><text fill="#000000" font-family="sans-serif" font-size="13" lengthAdjust="spacing" textLength="95.3672" x="178.418" y="186.8135">getCurrentMap()</text><polygon fill="#181818" points="153.1162,219.3672,143.1162,223.3672,153.1162,227.3672,149.1162,223.3672" style="stroke:#181818;stroke-width:1.0;"/><line style="stroke:#181818;stroke-width:1.0;stroke-dasharray:2.0,2.0;" x1="147.1162" x2="320.0742" y1="223.3672" y2="223.3672"/><text fill="#000000" font-family="sans-serif" font-size="13" font-weight="bold" lengthAdjust="spacing" textLength="25.3018" x="159.1162" y="218.1045">12.4</text><text fill="#000000" font-family="sans-serif" font-size="13" lengthAdjust="spacing" textLength="65.749" x="188.418" y="218.1045">currentMap</text><polygon fill="#181818" points="400.8394,250.6582,410.8394,254.6582,400.8394,258.6582,404.8394,254.6582" style="stroke:#181818;stroke-width:1.0;"/><line style="stroke:#181818;stroke-width:1.0;" x1="142.1162" x2="406.8394" y1="254.6582" y2="254.6582"/><text fill="#000000" font-family="sans-serif" font-size="13" font-weight="bold" lengthAdjust="spacing" textLength="25.3018" x="149.1162" y="249.3955">12.5</text><text fill="#000000" font-family="sans-serif" font-size="13" lengthAdjust="spacing" textLength="59.2363" x="178.418" y="249.3955">getCities()</text><polygon fill="#181818" points="153.1162,281.9492,143.1162,285.9492,153.1162,289.9492,149.1162,285.9492" style="stroke:#181818;stroke-width:1.0;"/><line style="stroke:#181818;stroke-width:1.0;stroke-dasharray:2.0,2.0;" x1="147.1162" x2="416.8394" y1="285.9492" y2="285.9492"/><text fill="#000000" font-family="sans-serif" font-size="13" font-weight="bold" lengthAdjust="spacing" textLength="25.3018" x="159.1162" y="280.6865">12.6</text><text fill="#000000" font-family="sans-serif" font-size="13" lengthAdjust="spacing" textLength="49.8481" x="188.418" y="280.6865">citiesList</text><path d="M57.0854,300.9492 L129.52,300.9492 L129.52,310.2402 L119.52,320.2402 L57.0854,320.2402 L57.0854,300.9492 " fill="#EEEEEE" style="stroke:#000000;stroke-width:1.5;"/><rect fill="none" height="81.873" style="stroke:#000000;stroke-width:1.5;" width="439.4814" x="57.0854" y="300.9492"/><text fill="#000000" font-family="sans-serif" font-size="13" font-weight="bold" lengthAdjust="spacing" textLength="27.4346" x="72.0854" y="315.9775">loop</text><text fill="#000000" font-family="sans-serif" font-size="11" font-weight="bold" lengthAdjust="spacing" textLength="135.7007" x="144.52" y="314.8193">[for each city in citiesList]</text><polygon fill="#181818" points="450.5117,339.5313,460.5117,343.5313,450.5117,347.5313,454.5117,343.5313" style="stroke:#181818;stroke-width:1.0;"/><line style="stroke:#181818;stroke-width:1.0;" x1="142.1162" x2="456.5117" y1="343.5313" y2="343.5313"/><text fill="#000000" font-family="sans-serif" font-size="13" font-weight="bold" lengthAdjust="spacing" textLength="25.3018" x="149.1162" y="338.2686">12.7</text><text fill="#000000" font-family="sans-serif" font-size="13" lengthAdjust="spacing" textLength="73.7026" x="178.418" y="338.2686">getStations()</text><polygon fill="#181818" points="153.1162,370.8223,143.1162,374.8223,153.1162,378.8223,149.1162,374.8223" style="stroke:#181818;stroke-width:1.0;"/><line style="stroke:#181818;stroke-width:1.0;stroke-dasharray:2.0,2.0;" x1="147.1162" x2="466.5117" y1="374.8223" y2="374.8223"/><text fill="#000000" font-family="sans-serif" font-size="13" font-weight="bold" lengthAdjust="spacing" textLength="25.3018" x="159.1162" y="369.5596">12.8</text><text fill="#000000" font-family="sans-serif" font-size="13" lengthAdjust="spacing" textLength="66.4727" x="188.418" y="369.5596">cityStations</text><line style="stroke:#181818;stroke-width:1.0;stroke-dasharray:2.0,2.0;" x1="142.1162" x2="184.1162" y1="413.1133" y2="413.1133"/><line style="stroke:#181818;stroke-width:1.0;stroke-dasharray:2.0,2.0;" x1="184.1162" x2="184.1162" y1="413.1133" y2="426.1133"/><line style="stroke:#181818;stroke-width:1.0;stroke-dasharray:2.0,2.0;" x1="143.1162" x2="184.1162" y1="426.1133" y2="426.1133"/><polygon fill="#181818" points="153.1162,422.1133,143.1162,426.1133,153.1162,430.1133,149.1162,426.1133" style="stroke:#181818;stroke-width:1.0;"/><text fill="#000000" font-family="sans-serif" font-size="13" font-weight="bold" lengthAdjust="spacing" textLength="25.3018" x="149.1162" y="407.8506">12.9</text><text fill="#000000" font-family="sans-serif" font-size="13" lengthAdjust="spacing" textLength="120.6563" x="178.418" y="407.8506">compileStationsList()</text><polygon fill="#181818" points="11,460.4043,1,464.4043,11,468.4043,7,464.4043" style="stroke:#181818;stroke-width:1.0;"/><line style="stroke:#181818;stroke-width:1.0;stroke-dasharray:2.0,2.0;" x1="5" x2="136.1162" y1="464.4043" y2="464.4043"/><text fill="#000000" font-family="sans-serif" font-size="13" font-weight="bold" lengthAdjust="spacing" textLength="14.46" x="17" y="459.1416">13</text><text fill="#000000" font-family="sans-serif" font-size="13" lengthAdjust="spacing" textLength="65.0317" x="35.46" y="459.1416">stationsList</text><!--SRC=[hPDDQiCm48NtEiKiauKBQNUX54eM9T2kSeA9F754P4b8unJVlf9_WamT5zgkZ3NllVbcaC956OSUQwYjiVBiRKt0lY4HRXM7ye8L7RZL19uaewbqBWXdBEsdCXMSK0SIsB0rJNqaBqHKi9BAeM5uLu4FZAoisLd3tceT9RdYrJcjPASuK0ZnCob_e9lyxnItGg1aTKMcE_aP3cmUHL6yp0kte2sMiSMgHhSlrq9KtZOEteW1hwWq7kFyeRU5QUh3Hi1yAiHstwU2BLJ4UnFJZAJLEhflKypi0EOYxWuImqEl6Hl4W9AM6lo6VjTuJuRJmlwTNzwo_uGU_GEhOaLXojc79yaYIUTCrIb9SiSJRQs3a_KGA-SaRa6PgMc1BztV7d0ezuWPP7V3qqad_G6q7LCwHmOxf90f5zQrb6rhfpIDyKaMGLDS_WgUn7DHt7jR8VEA36t-pNu1]--></g></svg>