<svg xmlns="http://www.w3.org/2000/svg" xmlns:xlink="http://www.w3.org/1999/xlink" contentStyleType="text/css" height="723.6px" preserveAspectRatio="none" style="width:1422px;height:723px;background:#FFFFFF;" version="1.1" viewBox="0 0 1422 723" width="1422px" zoomAndPan="magnify"><defs/><g><rect fill="#FFFFFF" height="625.1613" style="stroke:#181818;stroke-width:0.6;" width="6" x="176.8269" y="54.3199"/><rect fill="#FFFFFF" height="423.7898" style="stroke:#181818;stroke-width:0.6;" width="6" x="366.1588" y="88.8691"/><rect fill="#FFFFFF" height="386.2406" style="stroke:#181818;stroke-width:0.6;" width="6" x="502.597" y="107.6438"/><rect fill="#FFFFFF" height="348.6914" style="stroke:#181818;stroke-width:0.6;" width="6" x="639.0352" y="126.4184"/><rect fill="#FFFFFF" height="25.3746" style="stroke:#181818;stroke-width:0.6;" width="6" x="642.0352" y="426.7605"/><rect fill="#FFFFFF" height="239.4223" style="stroke:#181818;stroke-width:0.6;" width="6" x="791.7246" y="145.193"/><rect fill="#FFFFFF" height="18" style="stroke:#181818;stroke-width:0.6;" width="6" x="989.5307" y="163.9676"/><rect fill="#FFFFFF" height="18" style="stroke:#181818;stroke-width:0.6;" width="6" x="989.5307" y="200.7422"/><rect fill="#FFFFFF" height="18" style="stroke:#181818;stroke-width:0.6;" width="6" x="989.5307" y="237.5168"/><rect fill="#FFFFFF" height="18" style="stroke:#181818;stroke-width:0.6;" width="6" x="989.5307" y="274.2914"/><rect fill="#FFFFFF" height="18" style="stroke:#181818;stroke-width:0.6;" width="6" x="989.5307" y="311.066"/><rect fill="#FFFFFF" height="18" style="stroke:#181818;stroke-width:0.6;" width="6" x="989.5307" y="347.8406"/><rect fill="#FFFFFF" height="125.073" style="stroke:#181818;stroke-width:0.6;" width="6" x="1196.4343" y="531.4336"/><rect fill="#FFFFFF" height="25.3746" style="stroke:#181818;stroke-width:0.6;" width="6" x="1199.4343" y="555.0082"/><rect fill="#FFFFFF" height="25.3746" style="stroke:#181818;stroke-width:0.6;" width="6" x="1199.4343" y="608.1574"/><rect fill="none" height="597.9867" style="stroke:#000000;stroke-width:0.8999999999999999;" width="1297.5492" x="121.0664" y="63.3199"/><line style="stroke:#181818;stroke-width:0.3;stroke-dasharray:5.0,5.0;" x1="179.2664" x2="179.2664" y1="34.3453" y2="690.2813"/><line style="stroke:#181818;stroke-width:0.3;stroke-dasharray:5.0,5.0;" x1="369.0161" x2="369.0161" y1="34.3453" y2="690.2813"/><line style="stroke:#181818;stroke-width:0.3;stroke-dasharray:5.0,5.0;" x1="505.2495" x2="505.2495" y1="34.3453" y2="690.2813"/><line style="stroke:#181818;stroke-width:0.3;stroke-dasharray:5.0,5.0;" x1="641.8242" x2="641.8242" y1="34.3453" y2="690.2813"/><line style="stroke:#181818;stroke-width:0.3;stroke-dasharray:5.0,5.0;" x1="794.373" x2="794.373" y1="34.3453" y2="690.2813"/><line style="stroke:#181818;stroke-width:0.3;stroke-dasharray:5.0,5.0;" x1="992.1542" x2="992.1542" y1="34.3453" y2="690.2813"/><line style="stroke:#181818;stroke-width:0.3;stroke-dasharray:5.0,5.0;" x1="1131.7567" x2="1131.7567" y1="395.3133" y2="690.2813"/><line style="stroke:#181818;stroke-width:0.3;stroke-dasharray:5.0,5.0;" x1="1199.3786" x2="1199.3786" y1="34.3453" y2="690.2813"/><rect fill="#E3E3E3" height="19.5727" rx="1.5" ry="1.5" style="stroke:#181818;stroke-width:0.3;" width="105.5209" x="127.0664" y="14.1727"/><text fill="#000000" font-family="sans-serif" font-size="8.4" lengthAdjust="spacing" textLength="97.1209" x="131.2664" y="27.4371">:UpgradeStationController</text><rect fill="#E3E3E3" height="19.5727" rx="1.5" ry="1.5" style="stroke:#181818;stroke-width:0.3;" width="105.5209" x="127.0664" y="689.6813"/><text fill="#000000" font-family="sans-serif" font-size="8.4" lengthAdjust="spacing" textLength="97.1209" x="131.2664" y="702.9457">:UpgradeStationController</text><rect fill="#E3E3E3" height="30.7453" rx="1.5" ry="1.5" style="stroke:#181818;stroke-width:0.3;" width="41.0854" x="348.6161" y="3"/><text fill="#000000" font-family="sans-serif" font-size="8.4" lengthAdjust="spacing" textLength="28.9488" x="354.6844" y="16.2645">stations</text><text fill="#000000" font-family="sans-serif" font-size="8.4" lengthAdjust="spacing" textLength="32.6854" x="352.8161" y="27.4371">:Stations</text><rect fill="#E3E3E3" height="30.7453" rx="1.5" ry="1.5" style="stroke:#181818;stroke-width:0.3;" width="41.0854" x="348.6161" y="689.6813"/><text fill="#000000" font-family="sans-serif" font-size="8.4" lengthAdjust="spacing" textLength="28.9488" x="354.6844" y="702.9457">stations</text><text fill="#000000" font-family="sans-serif" font-size="8.4" lengthAdjust="spacing" textLength="32.6854" x="352.8161" y="714.1184">:Stations</text><rect fill="#E3E3E3" height="30.7453" rx="1.5" ry="1.5" style="stroke:#181818;stroke-width:0.3;" width="60.6949" x="475.2495" y="3"/><text fill="#000000" font-family="sans-serif" font-size="8.4" lengthAdjust="spacing" textLength="52.2949" x="479.4495" y="16.2645">currentStation</text><text fill="#000000" font-family="sans-serif" font-size="8.4" lengthAdjust="spacing" textLength="28.4854" x="491.3543" y="27.4371">:Station</text><rect fill="#E3E3E3" height="30.7453" rx="1.5" ry="1.5" style="stroke:#181818;stroke-width:0.3;" width="60.6949" x="475.2495" y="689.6813"/><text fill="#000000" font-family="sans-serif" font-size="8.4" lengthAdjust="spacing" textLength="52.2949" x="479.4495" y="702.9457">currentStation</text><text fill="#000000" font-family="sans-serif" font-size="8.4" lengthAdjust="spacing" textLength="28.4854" x="491.3543" y="714.1184">:Station</text><rect fill="#E3E3E3" height="30.7453" rx="1.5" ry="1.5" style="stroke:#181818;stroke-width:0.3;" width="44.8219" x="619.6242" y="3"/><text fill="#000000" font-family="sans-serif" font-size="8.4" lengthAdjust="spacing" textLength="33.157" x="625.4566" y="16.2645">buildings</text><text fill="#000000" font-family="sans-serif" font-size="8.4" lengthAdjust="spacing" textLength="36.4219" x="623.8242" y="27.4371">:Buildings</text><rect fill="#E3E3E3" height="30.7453" rx="1.5" ry="1.5" style="stroke:#181818;stroke-width:0.3;" width="44.8219" x="619.6242" y="689.6813"/><text fill="#000000" font-family="sans-serif" font-size="8.4" lengthAdjust="spacing" textLength="33.157" x="625.4566" y="702.9457">buildings</text><text fill="#000000" font-family="sans-serif" font-size="8.4" lengthAdjust="spacing" textLength="36.4219" x="623.8242" y="714.1184">:Buildings</text><rect fill="#E3E3E3" height="30.7453" rx="1.5" ry="1.5" style="stroke:#181818;stroke-width:0.3;" width="69.1031" x="760.173" y="3"/><text fill="#000000" font-family="sans-serif" font-size="8.4" lengthAdjust="spacing" textLength="57.4383" x="766.0055" y="16.2645">buildingMapper</text><text fill="#000000" font-family="sans-serif" font-size="8.4" lengthAdjust="spacing" textLength="60.7031" x="764.373" y="27.4371">:BuildingMapper</text><rect fill="#E3E3E3" height="30.7453" rx="1.5" ry="1.5" style="stroke:#181818;stroke-width:0.3;" width="69.1031" x="760.173" y="689.6813"/><text fill="#000000" font-family="sans-serif" font-size="8.4" lengthAdjust="spacing" textLength="57.4383" x="766.0055" y="702.9457">buildingMapper</text><text fill="#000000" font-family="sans-serif" font-size="8.4" lengthAdjust="spacing" textLength="60.7031" x="764.373" y="714.1184">:BuildingMapper</text><rect fill="#E3E3E3" height="30.7453" rx="1.5" ry="1.5" style="stroke:#181818;stroke-width:0.3;" width="58.3529" x="963.3542" y="3"/><text fill="#000000" font-family="sans-serif" font-size="8.4" lengthAdjust="spacing" textLength="46.6881" x="969.1866" y="16.2645">buildingDTO</text><text fill="#000000" font-family="sans-serif" font-size="8.4" lengthAdjust="spacing" textLength="49.9529" x="967.5542" y="27.4371">:BuildingDTO</text><rect fill="#E3E3E3" height="30.7453" rx="1.5" ry="1.5" style="stroke:#181818;stroke-width:0.3;" width="58.3529" x="963.3542" y="689.6813"/><text fill="#000000" font-family="sans-serif" font-size="8.4" lengthAdjust="spacing" textLength="46.6881" x="969.1866" y="702.9457">buildingDTO</text><text fill="#000000" font-family="sans-serif" font-size="8.4" lengthAdjust="spacing" textLength="49.9529" x="967.5542" y="714.1184">:BuildingDTO</text><rect fill="#E3E3E3" height="30.7453" rx="1.5" ry="1.5" style="stroke:#181818;stroke-width:0.3;" width="40.6219" x="1111.9567" y="689.6813"/><text fill="#000000" font-family="sans-serif" font-size="8.4" lengthAdjust="spacing" textLength="29.8881" x="1117.3236" y="702.9457">Building</text><text fill="#000000" font-family="sans-serif" font-size="8.4" lengthAdjust="spacing" textLength="32.2219" x="1116.1567" y="714.1184">:Building</text><rect fill="#E3E3E3" height="30.7453" rx="1.5" ry="1.5" style="stroke:#181818;stroke-width:0.3;" width="81.7113" x="1158.5786" y="3"/><text fill="#000000" font-family="sans-serif" font-size="8.4" lengthAdjust="spacing" textLength="70.0465" x="1164.411" y="16.2645">applicationSession</text><text fill="#000000" font-family="sans-serif" font-size="8.4" lengthAdjust="spacing" textLength="73.3113" x="1162.7786" y="27.4371">:ApplicationSession</text><rect fill="#E3E3E3" height="30.7453" rx="1.5" ry="1.5" style="stroke:#181818;stroke-width:0.3;" width="81.7113" x="1158.5786" y="689.6813"/><text fill="#000000" font-family="sans-serif" font-size="8.4" lengthAdjust="spacing" textLength="70.0465" x="1164.411" y="702.9457">applicationSession</text><text fill="#000000" font-family="sans-serif" font-size="8.4" lengthAdjust="spacing" textLength="73.3113" x="1162.7786" y="714.1184">:ApplicationSession</text><rect fill="#FFFFFF" height="625.1613" style="stroke:#181818;stroke-width:0.6;" width="6" x="176.8269" y="54.3199"/><rect fill="#FFFFFF" height="423.7898" style="stroke:#181818;stroke-width:0.6;" width="6" x="366.1588" y="88.8691"/><rect fill="#FFFFFF" height="386.2406" style="stroke:#181818;stroke-width:0.6;" width="6" x="502.597" y="107.6438"/><rect fill="#FFFFFF" height="348.6914" style="stroke:#181818;stroke-width:0.6;" width="6" x="639.0352" y="126.4184"/><rect fill="#FFFFFF" height="25.3746" style="stroke:#181818;stroke-width:0.6;" width="6" x="642.0352" y="426.7605"/><rect fill="#FFFFFF" height="239.4223" style="stroke:#181818;stroke-width:0.6;" width="6" x="791.7246" y="145.193"/><rect fill="#FFFFFF" height="18" style="stroke:#181818;stroke-width:0.6;" width="6" x="989.5307" y="163.9676"/><rect fill="#FFFFFF" height="18" style="stroke:#181818;stroke-width:0.6;" width="6" x="989.5307" y="200.7422"/><rect fill="#FFFFFF" height="18" style="stroke:#181818;stroke-width:0.6;" width="6" x="989.5307" y="237.5168"/><rect fill="#FFFFFF" height="18" style="stroke:#181818;stroke-width:0.6;" width="6" x="989.5307" y="274.2914"/><rect fill="#FFFFFF" height="18" style="stroke:#181818;stroke-width:0.6;" width="6" x="989.5307" y="311.066"/><rect fill="#FFFFFF" height="18" style="stroke:#181818;stroke-width:0.6;" width="6" x="989.5307" y="347.8406"/><rect fill="#FFFFFF" height="125.073" style="stroke:#181818;stroke-width:0.6;" width="6" x="1196.4343" y="531.4336"/><rect fill="#FFFFFF" height="25.3746" style="stroke:#181818;stroke-width:0.6;" width="6" x="1199.4343" y="555.0082"/><rect fill="#FFFFFF" height="25.3746" style="stroke:#181818;stroke-width:0.6;" width="6" x="1199.4343" y="608.1574"/><polygon fill="#181818" points="169.6269,51.9199,175.6269,54.3199,169.6269,56.7199,172.0269,54.3199" style="stroke:#181818;stroke-width:0.6;"/><line style="stroke:#181818;stroke-width:0.6;" x1="0" x2="173.2269" y1="54.3199" y2="54.3199"/><text fill="#000000" font-family="sans-serif" font-size="7.8" font-weight="bold" lengthAdjust="spacing" textLength="8.676" x="4.2" y="51.1623">19</text><text fill="#000000" font-family="sans-serif" font-size="7.8" lengthAdjust="spacing" textLength="154.3509" x="15.276" y="51.1623">upgradeStation(currentStation, buildingDTO)</text><path d="M121.0664,63.3199 L208.3031,63.3199 L208.3031,68.8945 L202.3031,74.8945 L121.0664,74.8945 L121.0664,63.3199 " fill="#EEEEEE" style="stroke:#000000;stroke-width:0.8999999999999999;"/><rect fill="none" height="597.9867" style="stroke:#000000;stroke-width:0.8999999999999999;" width="1297.5492" x="121.0664" y="63.3199"/><text fill="#000000" font-family="sans-serif" font-size="7.8" font-weight="bold" lengthAdjust="spacing" textLength="60.2367" x="130.0664" y="72.3369">Upgrade Station</text><polygon fill="#181818" points="358.9588,86.4691,364.9588,88.8691,358.9588,91.2691,361.3588,88.8691" style="stroke:#181818;stroke-width:0.6;"/><line style="stroke:#181818;stroke-width:0.6;" x1="182.8269" x2="362.5588" y1="88.8691" y2="88.8691"/><text fill="#000000" font-family="sans-serif" font-size="7.8" font-weight="bold" lengthAdjust="spacing" textLength="15.1811" x="187.0269" y="85.7115">19.1</text><text fill="#000000" font-family="sans-serif" font-size="7.8" lengthAdjust="spacing" textLength="154.3509" x="204.6079" y="85.7115">upgradeStation(currentStation, buildingDTO)</text><polygon fill="#181818" points="495.397,105.2437,501.397,107.6438,495.397,110.0438,497.797,107.6438" style="stroke:#181818;stroke-width:0.6;"/><line style="stroke:#181818;stroke-width:0.6;" x1="372.1588" x2="498.997" y1="107.6438" y2="107.6438"/><text fill="#000000" font-family="sans-serif" font-size="7.8" font-weight="bold" lengthAdjust="spacing" textLength="15.1811" x="376.3588" y="104.4861">19.2</text><text fill="#000000" font-family="sans-serif" font-size="7.8" lengthAdjust="spacing" textLength="101.4571" x="393.9398" y="104.4861">upgradeStation(buildingDTO)</text><polygon fill="#181818" points="631.8352,124.0184,637.8352,126.4184,631.8352,128.8184,634.2352,126.4184" style="stroke:#181818;stroke-width:0.6;"/><line style="stroke:#181818;stroke-width:0.6;" x1="508.597" x2="635.4352" y1="126.4184" y2="126.4184"/><text fill="#000000" font-family="sans-serif" font-size="7.8" font-weight="bold" lengthAdjust="spacing" textLength="15.1811" x="512.797" y="123.2607">19.3</text><text fill="#000000" font-family="sans-serif" font-size="7.8" lengthAdjust="spacing" textLength="101.4571" x="530.378" y="123.2607">upgradeStation(buildingDTO)</text><polygon fill="#181818" points="784.5246,142.793,790.5246,145.193,784.5246,147.593,786.9246,145.193" style="stroke:#181818;stroke-width:0.6;"/><line style="stroke:#181818;stroke-width:0.6;" x1="645.0352" x2="788.1246" y1="145.193" y2="145.193"/><text fill="#000000" font-family="sans-serif" font-size="7.8" font-weight="bold" lengthAdjust="spacing" textLength="15.1811" x="649.2352" y="142.0354">19.4</text><text fill="#000000" font-family="sans-serif" font-size="7.8" lengthAdjust="spacing" textLength="117.7084" x="666.8162" y="142.0354">building = toDomain(buildingDTO)</text><polygon fill="#181818" points="982.3307,161.5676,988.3307,163.9676,982.3307,166.3676,984.7307,163.9676" style="stroke:#181818;stroke-width:0.6;"/><line style="stroke:#181818;stroke-width:0.6;" x1="797.7246" x2="985.9307" y1="163.9676" y2="163.9676"/><text fill="#000000" font-family="sans-serif" font-size="7.8" font-weight="bold" lengthAdjust="spacing" textLength="15.1811" x="801.9246" y="160.81">19.5</text><text fill="#000000" font-family="sans-serif" font-size="7.8" lengthAdjust="spacing" textLength="80.845" x="819.5057" y="160.81">nameID = getNameID()</text><polygon fill="#181818" points="982.3307,198.3422,988.3307,200.7422,982.3307,203.1422,984.7307,200.7422" style="stroke:#181818;stroke-width:0.6;"/><line style="stroke:#181818;stroke-width:0.6;" x1="797.7246" x2="985.9307" y1="200.7422" y2="200.7422"/><text fill="#000000" font-family="sans-serif" font-size="7.8" font-weight="bold" lengthAdjust="spacing" textLength="15.1811" x="801.9246" y="197.5846">19.6</text><text fill="#000000" font-family="sans-serif" font-size="7.8" lengthAdjust="spacing" textLength="57.0108" x="819.5057" y="197.5846">type = getType()</text><polygon fill="#181818" points="982.3307,235.1168,988.3307,237.5168,982.3307,239.9168,984.7307,237.5168" style="stroke:#181818;stroke-width:0.6;"/><line style="stroke:#181818;stroke-width:0.6;" x1="797.7246" x2="985.9307" y1="237.5168" y2="237.5168"/><text fill="#000000" font-family="sans-serif" font-size="7.8" font-weight="bold" lengthAdjust="spacing" textLength="15.1811" x="801.9246" y="234.3592">19.7</text><text fill="#000000" font-family="sans-serif" font-size="7.8" lengthAdjust="spacing" textLength="130.7109" x="819.5057" y="234.3592">availabilityYear = getAvailabilityYear()</text><polygon fill="#181818" points="982.3307,271.8914,988.3307,274.2914,982.3307,276.6914,984.7307,274.2914" style="stroke:#181818;stroke-width:0.6;"/><line style="stroke:#181818;stroke-width:0.6;" x1="797.7246" x2="985.9307" y1="274.2914" y2="274.2914"/><text fill="#000000" font-family="sans-serif" font-size="7.8" font-weight="bold" lengthAdjust="spacing" textLength="15.1811" x="801.9246" y="271.1338">19.8</text><text fill="#000000" font-family="sans-serif" font-size="7.8" lengthAdjust="spacing" textLength="120.3135" x="819.5057" y="271.1338">evolutionCost = getEvolutionCost()</text><polygon fill="#181818" points="982.3307,308.666,988.3307,311.066,982.3307,313.466,984.7307,311.066" style="stroke:#181818;stroke-width:0.6;"/><line style="stroke:#181818;stroke-width:0.6;" x1="797.7246" x2="985.9307" y1="311.066" y2="311.066"/><text fill="#000000" font-family="sans-serif" font-size="7.8" font-weight="bold" lengthAdjust="spacing" textLength="15.1811" x="801.9246" y="307.9084">19.9</text><text fill="#000000" font-family="sans-serif" font-size="7.8" lengthAdjust="spacing" textLength="162.825" x="819.5057" y="307.9084">evolutionStagesLeft = getEvolutionStagesLeft()</text><polygon fill="#181818" points="982.3307,345.4406,988.3307,347.8406,982.3307,350.2406,984.7307,347.8406" style="stroke:#181818;stroke-width:0.6;"/><line style="stroke:#181818;stroke-width:0.6;" x1="797.7246" x2="985.9307" y1="347.8406" y2="347.8406"/><text fill="#000000" font-family="sans-serif" font-size="7.8" font-weight="bold" lengthAdjust="spacing" textLength="19.519" x="801.9246" y="344.683">19.10</text><text fill="#000000" font-family="sans-serif" font-size="7.8" lengthAdjust="spacing" textLength="63.9463" x="823.8437" y="344.683">effect = getEffect()</text><polygon fill="#181818" points="1104.7567,382.2152,1110.7567,384.6152,1104.7567,387.0152,1107.1567,384.6152" style="stroke:#181818;stroke-width:0.6;"/><line style="stroke:#181818;stroke-width:0.6;" x1="794.7246" x2="1108.3567" y1="384.6152" y2="384.6152"/><text fill="#000000" font-family="sans-serif" font-size="7.8" font-weight="bold" lengthAdjust="spacing" textLength="19.519" x="798.9246" y="381.4576">19.11</text><text fill="#000000" font-family="sans-serif" font-size="7.8" lengthAdjust="spacing" textLength="277.9131" x="820.8437" y="381.4576">create(nameID, type, availabilityYear, evolutionCost, evolutionStagesLeft, effect)</text><rect fill="#E3E3E3" height="30.7453" rx="1.5" ry="1.5" style="stroke:#181818;stroke-width:0.3;" width="40.6219" x="1111.9567" y="370.6406"/><text fill="#000000" font-family="sans-serif" font-size="8.4" lengthAdjust="spacing" textLength="29.8881" x="1117.3236" y="383.9051">Building</text><text fill="#000000" font-family="sans-serif" font-size="8.4" lengthAdjust="spacing" textLength="32.2219" x="1116.1567" y="395.0777">:Building</text><line style="stroke:#181818;stroke-width:0.6;" x1="645.0352" x2="673.2352" y1="418.9605" y2="418.9605"/><line style="stroke:#181818;stroke-width:0.6;" x1="673.2352" x2="673.2352" y1="418.9605" y2="426.7605"/><line style="stroke:#181818;stroke-width:0.6;" x1="648.6352" x2="673.2352" y1="426.7605" y2="426.7605"/><polygon fill="#181818" points="654.6352,424.3605,648.6352,426.7605,654.6352,429.1605,652.2352,426.7605" style="stroke:#181818;stroke-width:0.6;"/><text fill="#000000" font-family="sans-serif" font-size="7.8" font-weight="bold" lengthAdjust="spacing" textLength="19.519" x="652.2352" y="415.8029">19.12</text><text fill="#000000" font-family="sans-serif" font-size="7.8" lengthAdjust="spacing" textLength="72.8508" x="674.1542" y="415.8029">addBuilding(building)</text><line style="stroke:#181818;stroke-width:0.6;stroke-dasharray:2.0,2.0;" x1="648.0352" x2="673.2352" y1="451.5352" y2="451.5352"/><line style="stroke:#181818;stroke-width:0.6;stroke-dasharray:2.0,2.0;" x1="673.2352" x2="673.2352" y1="451.5352" y2="459.3352"/><line style="stroke:#181818;stroke-width:0.6;stroke-dasharray:2.0,2.0;" x1="645.0352" x2="673.2352" y1="459.3352" y2="459.3352"/><polygon fill="#181818" points="651.0352,456.9352,645.0352,459.3352,651.0352,461.7352,648.6352,459.3352" style="stroke:#181818;stroke-width:0.6;"/><text fill="#000000" font-family="sans-serif" font-size="7.8" font-weight="bold" lengthAdjust="spacing" textLength="19.519" x="652.2352" y="448.3775">19.13</text><text fill="#000000" font-family="sans-serif" font-size="7.8" lengthAdjust="spacing" textLength="28.176" x="674.1542" y="448.3775">success</text><polygon fill="#181818" points="515.197,472.7098,509.197,475.1098,515.197,477.5098,512.797,475.1098" style="stroke:#181818;stroke-width:0.6;"/><line style="stroke:#181818;stroke-width:0.6;stroke-dasharray:2.0,2.0;" x1="511.597" x2="641.4352" y1="475.1098" y2="475.1098"/><text fill="#000000" font-family="sans-serif" font-size="7.8" font-weight="bold" lengthAdjust="spacing" textLength="19.519" x="518.797" y="471.9521">19.14</text><text fill="#000000" font-family="sans-serif" font-size="7.8" lengthAdjust="spacing" textLength="28.176" x="540.716" y="471.9521">success</text><polygon fill="#181818" points="378.7588,491.4844,372.7588,493.8844,378.7588,496.2844,376.3588,493.8844" style="stroke:#181818;stroke-width:0.6;"/><line style="stroke:#181818;stroke-width:0.6;stroke-dasharray:2.0,2.0;" x1="375.1588" x2="504.997" y1="493.8844" y2="493.8844"/><text fill="#000000" font-family="sans-serif" font-size="7.8" font-weight="bold" lengthAdjust="spacing" textLength="19.519" x="382.3588" y="490.7268">19.15</text><text fill="#000000" font-family="sans-serif" font-size="7.8" lengthAdjust="spacing" textLength="28.176" x="404.2778" y="490.7268">success</text><polygon fill="#181818" points="189.4269,510.259,183.4269,512.659,189.4269,515.059,187.0269,512.659" style="stroke:#181818;stroke-width:0.6;"/><line style="stroke:#181818;stroke-width:0.6;stroke-dasharray:2.0,2.0;" x1="185.8269" x2="368.5588" y1="512.659" y2="512.659"/><text fill="#000000" font-family="sans-serif" font-size="7.8" font-weight="bold" lengthAdjust="spacing" textLength="19.519" x="193.0269" y="509.5014">19.16</text><text fill="#000000" font-family="sans-serif" font-size="7.8" lengthAdjust="spacing" textLength="28.176" x="214.9459" y="509.5014">success</text><polygon fill="#181818" points="1189.2343,529.0336,1195.2343,531.4336,1189.2343,533.8336,1191.6343,531.4336" style="stroke:#181818;stroke-width:0.6;"/><line style="stroke:#181818;stroke-width:0.6;" x1="182.8269" x2="1192.8343" y1="531.4336" y2="531.4336"/><text fill="#000000" font-family="sans-serif" font-size="7.8" font-weight="bold" lengthAdjust="spacing" textLength="19.519" x="187.0269" y="528.276">19.17</text><text fill="#000000" font-family="sans-serif" font-size="7.8" lengthAdjust="spacing" textLength="127.9116" x="208.9459" y="528.276">upgradePlayerBudget(evolutionCost)</text><line style="stroke:#181818;stroke-width:0.6;" x1="1202.4343" x2="1230.6343" y1="547.2082" y2="547.2082"/><line style="stroke:#181818;stroke-width:0.6;" x1="1230.6343" x2="1230.6343" y1="547.2082" y2="555.0082"/><line style="stroke:#181818;stroke-width:0.6;" x1="1206.0343" x2="1230.6343" y1="555.0082" y2="555.0082"/><polygon fill="#181818" points="1212.0343,552.6082,1206.0343,555.0082,1212.0343,557.4082,1209.6343,555.0082" style="stroke:#181818;stroke-width:0.6;"/><text fill="#000000" font-family="sans-serif" font-size="7.8" font-weight="bold" lengthAdjust="spacing" textLength="19.519" x="1209.6343" y="544.0506">19.18</text><text fill="#000000" font-family="sans-serif" font-size="7.8" lengthAdjust="spacing" textLength="64.1558" x="1231.5533" y="544.0506">getCurrentPlayer()</text><line style="stroke:#181818;stroke-width:0.6;stroke-dasharray:2.0,2.0;" x1="1205.4343" x2="1230.6343" y1="579.7828" y2="579.7828"/><line style="stroke:#181818;stroke-width:0.6;stroke-dasharray:2.0,2.0;" x1="1230.6343" x2="1230.6343" y1="579.7828" y2="587.5828"/><line style="stroke:#181818;stroke-width:0.6;stroke-dasharray:2.0,2.0;" x1="1202.4343" x2="1230.6343" y1="587.5828" y2="587.5828"/><polygon fill="#181818" points="1208.4343,585.1828,1202.4343,587.5828,1208.4343,589.9828,1206.0343,587.5828" style="stroke:#181818;stroke-width:0.6;"/><text fill="#000000" font-family="sans-serif" font-size="7.8" font-weight="bold" lengthAdjust="spacing" textLength="19.519" x="1209.6343" y="576.6252">19.19</text><text fill="#000000" font-family="sans-serif" font-size="7.8" lengthAdjust="spacing" textLength="46.3849" x="1231.5533" y="576.6252">currentPlayer</text><line style="stroke:#181818;stroke-width:0.6;" x1="1202.4343" x2="1230.6343" y1="600.3574" y2="600.3574"/><line style="stroke:#181818;stroke-width:0.6;" x1="1230.6343" x2="1230.6343" y1="600.3574" y2="608.1574"/><line style="stroke:#181818;stroke-width:0.6;" x1="1206.0343" x2="1230.6343" y1="608.1574" y2="608.1574"/><polygon fill="#181818" points="1212.0343,605.7574,1206.0343,608.1574,1212.0343,610.5574,1209.6343,608.1574" style="stroke:#181818;stroke-width:0.6;"/><text fill="#000000" font-family="sans-serif" font-size="7.8" font-weight="bold" lengthAdjust="spacing" textLength="19.519" x="1209.6343" y="597.1998">19.20</text><text fill="#000000" font-family="sans-serif" font-size="7.8" lengthAdjust="spacing" textLength="173.8623" x="1231.5533" y="597.1998">updatePlayerBudget(currentPlayer, evolutionCost)</text><line style="stroke:#181818;stroke-width:0.6;stroke-dasharray:2.0,2.0;" x1="1205.4343" x2="1230.6343" y1="632.932" y2="632.932"/><line style="stroke:#181818;stroke-width:0.6;stroke-dasharray:2.0,2.0;" x1="1230.6343" x2="1230.6343" y1="632.932" y2="640.732"/><line style="stroke:#181818;stroke-width:0.6;stroke-dasharray:2.0,2.0;" x1="1202.4343" x2="1230.6343" y1="640.732" y2="640.732"/><polygon fill="#181818" points="1208.4343,638.332,1202.4343,640.732,1208.4343,643.132,1206.0343,640.732" style="stroke:#181818;stroke-width:0.6;"/><text fill="#000000" font-family="sans-serif" font-size="7.8" font-weight="bold" lengthAdjust="spacing" textLength="19.519" x="1209.6343" y="629.7744">19.21</text><text fill="#000000" font-family="sans-serif" font-size="7.8" lengthAdjust="spacing" textLength="28.176" x="1231.5533" y="629.7744">success</text><polygon fill="#181818" points="189.4269,654.1066,183.4269,656.5066,189.4269,658.9066,187.0269,656.5066" style="stroke:#181818;stroke-width:0.6;"/><line style="stroke:#181818;stroke-width:0.6;stroke-dasharray:2.0,2.0;" x1="185.8269" x2="1198.8343" y1="656.5066" y2="656.5066"/><text fill="#000000" font-family="sans-serif" font-size="7.8" font-weight="bold" lengthAdjust="spacing" textLength="19.519" x="193.0269" y="653.349">19.22</text><text fill="#000000" font-family="sans-serif" font-size="7.8" lengthAdjust="spacing" textLength="28.176" x="214.9459" y="653.349">success</text><polygon fill="#181818" points="6.6,677.0813,0.6,679.4812,6.6,681.8813,4.2,679.4812" style="stroke:#181818;stroke-width:0.6;"/><line style="stroke:#181818;stroke-width:0.6;stroke-dasharray:2.0,2.0;" x1="3" x2="179.2269" y1="679.4812" y2="679.4812"/><text fill="#000000" font-family="sans-serif" font-size="7.8" font-weight="bold" lengthAdjust="spacing" textLength="8.676" x="10.2" y="676.3236">20</text><text fill="#000000" font-family="sans-serif" font-size="7.8" lengthAdjust="spacing" textLength="28.176" x="21.276" y="676.3236">success</text><!--SRC=[pLTBRzim3BxxLmYzD1dIOTrjmJOWRO8YGFf0dHu632WKct65sf8XoHtoxqVBZrYsKhlTWCQNs1B9xoD5YenwPZobaYOa4Lm4Jr8aGBJCm5FrJag3Png1htSn40c1fZoAcmBgYORY3-CHsT9OWUVXicO1IodNv6Jwa4QIXgXFDHFyKd0jHHo3F25KaSlr_SgMLuMS-isdfOeoalvwjbxUtlYsT9192LoNadkTfegjiSbO72BP7E2YUZVY5m_BrNnvS-Mx5Qvfce9iQ1KBHlLwTdUtk7-iBBWDpDUt3MtyCghuUq2lacmeMJnjQIGJiy0uxuDIHJHcdKLZ0Ta- -WlVn-0y-cXfjLXZc3oQQS6pP0EId7_pF7BsqvmFcPBCEiEH7VK9QNWuzaZvq42p5wgXEEDwjOdn-RnUpvz8YYmbPRwGqhfdYPoIAq4qvcaMFH4_04ubmmL14ienIN4BAh9aLEy7WczPb4bGf4gliMNMk8dkLadsFeyxdjSvsvQeDXgO7SWtGHn2o07gl7udnBuksYBrJWxJge5f7IFo0mzeBXBAXYAsouaudfPCpg1PIbF2QGBBEO97e6_C-sZij5J3MgNeaWnXk6mlFxrBeM2tnhVZuaPVA8lfXiLCxtu1bGNFMMlrk3Z3YuYpeiKeNH1UD9UEb2tMOWHg1Tisv_t6aJ7VRd48ACcQzu_cLxr_-eIjAf20TaP5zKzCbKqw-JonisNYEev9wUcuZtBxjdBAMrVb_WDBBGohxbxVZZtnF7mXEz1QS2eB0fm4-dpQGtZzzgjUSzYwq_B1bjLenCDizZJ1WcKvoWmtrsLOZGdE-QdkhdSntO6yo48ia96LPw-qFFT8vegzK_8LLiZYifXU2c9zrJgSoIji3j792xH9fYyF3qogBgrJd1p3N2SrbayL3Y3v4P0DLH0ImUl1CC2Z-0-XDNDnZcWTkELUwvxvuCWFhFr_JiKt5TimDE1XjtRsVoM-VkdcnFUpipVGC7zI_W80]--></g></svg>