<svg xmlns="http://www.w3.org/2000/svg" xmlns:xlink="http://www.w3.org/1999/xlink" contentStyleType="text/css" height="892.5px" preserveAspectRatio="none" style="width:984px;height:892px;background:#FFFFFF;" version="1.1" viewBox="0 0 984 892" width="984.2px" zoomAndPan="magnify"><title>Class Diagram: US06 - Upgrade a selected station with a building</title><defs/><g><text fill="#000000" font-family="sans-serif" font-size="9.8" font-weight="bold" lengthAdjust="spacing" textLength="303.3263" x="335.6558" y="17.5752">Class Diagram: US06 - Upgrade a selected station with a building</text><!--class MapUI--><g id="elem_MapUI"><rect codeLine="7" fill="#F1F1F1" height="33.6" id="MapUI" rx="1.75" ry="1.75" style="stroke:#181818;stroke-width:0.3499999999999999;" width="51.2641" x="96.733" y="32.6348"/><ellipse cx="107.233" cy="43.8348" fill="#ADD1B2" rx="7.7" ry="7.7" style="stroke:#181818;stroke-width:0.6999999999999998;"/><path d="M109.1689,40.9473 Q109.2783,40.7941 109.4096,40.7176 Q109.5408,40.641 109.6939,40.641 Q109.9564,40.641 110.1205,40.827 Q110.2846,41.002 110.2846,41.4285 L110.2846,42.4457 Q110.2846,42.8723 110.1205,43.0582 Q109.9564,43.2441 109.6939,43.2441 Q109.4533,43.2441 109.3111,43.102 Q109.1689,42.9707 109.0924,42.6098 Q109.0596,42.3582 108.9283,42.227 Q108.6986,41.9645 108.2721,41.8113 Q107.8455,41.6582 107.408,41.6582 Q106.8721,41.6582 106.4236,41.8879 Q105.9861,42.1176 105.6361,42.6426 Q105.2971,43.1676 105.2971,43.8895 L105.2971,44.6551 Q105.2971,45.5191 105.9205,46.0988 Q106.5439,46.6676 107.6596,46.6676 Q108.3158,46.6676 108.7752,46.4926 Q109.0486,46.3832 109.3439,46.077 Q109.5299,45.891 109.6283,45.8363 Q109.7377,45.7816 109.8799,45.7816 Q110.1096,45.7816 110.2846,45.9676 Q110.4705,46.1426 110.4705,46.3832 Q110.4705,46.6238 110.2299,46.9082 Q109.8799,47.3129 109.3221,47.5426 Q108.5674,47.8598 107.6596,47.8598 Q106.5986,47.8598 105.7564,47.4223 Q105.0674,47.0723 104.5861,46.3285 Q104.1049,45.5738 104.1049,44.677 L104.1049,43.8676 Q104.1049,42.9379 104.5314,42.1395 Q104.9689,41.3301 105.7346,40.9035 Q106.5002,40.466 107.3642,40.466 Q107.8783,40.466 108.3267,40.5863 Q108.7861,40.6957 109.1689,40.9473 Z " fill="#000000"/><text fill="#000000" font-family="sans-serif" font-size="9.8" lengthAdjust="spacing" textLength="28.8641" x="117.033" y="47.8926">MapUI</text><line style="stroke:#181818;stroke-width:0.3499999999999999;" x1="97.433" x2="147.2971" y1="55.0348" y2="55.0348"/><line style="stroke:#181818;stroke-width:0.3499999999999999;" x1="97.433" x2="147.2971" y1="60.6348" y2="60.6348"/></g><!--class MapController--><g id="elem_MapController"><rect codeLine="10" fill="#F1F1F1" height="72.7043" id="MapController" rx="1.75" ry="1.75" style="stroke:#181818;stroke-width:0.3499999999999999;" width="151.9355" x="46.333" y="134.4848"/><ellipse cx="88.5524" cy="145.6848" fill="#ADD1B2" rx="7.7" ry="7.7" style="stroke:#181818;stroke-width:0.6999999999999998;"/><path d="M90.4884,142.7973 Q90.5977,142.6441 90.729,142.5676 Q90.8602,142.491 91.0134,142.491 Q91.2759,142.491 91.4399,142.677 Q91.604,142.852 91.604,143.2785 L91.604,144.2957 Q91.604,144.7223 91.4399,144.9082 Q91.2759,145.0941 91.0134,145.0941 Q90.7727,145.0941 90.6306,144.952 Q90.4884,144.8207 90.4118,144.4598 Q90.379,144.2082 90.2477,144.077 Q90.0181,143.8145 89.5915,143.6613 Q89.1649,143.5082 88.7274,143.5082 Q88.1915,143.5082 87.7431,143.7379 Q87.3056,143.9676 86.9556,144.4926 Q86.6165,145.0176 86.6165,145.7395 L86.6165,146.5051 Q86.6165,147.3691 87.2399,147.9488 Q87.8634,148.5176 88.979,148.5176 Q89.6352,148.5176 90.0946,148.3426 Q90.3681,148.2332 90.6634,147.927 Q90.8493,147.741 90.9477,147.6863 Q91.0571,147.6316 91.1993,147.6316 Q91.429,147.6316 91.604,147.8176 Q91.7899,147.9926 91.7899,148.2332 Q91.7899,148.4738 91.5493,148.7582 Q91.1993,149.1629 90.6415,149.3926 Q89.8868,149.7098 88.979,149.7098 Q87.9181,149.7098 87.0759,149.2723 Q86.3868,148.9223 85.9056,148.1785 Q85.4243,147.4238 85.4243,146.527 L85.4243,145.7176 Q85.4243,144.7879 85.8509,143.9895 Q86.2884,143.1801 87.054,142.7535 Q87.8196,142.316 88.6837,142.316 Q89.1977,142.316 89.6462,142.4363 Q90.1056,142.5457 90.4884,142.7973 Z " fill="#000000"/><text fill="#000000" font-family="sans-serif" font-size="9.8" lengthAdjust="spacing" textLength="61.5467" x="102.9024" y="149.7426">MapController</text><line style="stroke:#181818;stroke-width:0.3499999999999999;" x1="47.033" x2="197.5685" y1="156.8848" y2="156.8848"/><line style="stroke:#181818;stroke-width:0.3499999999999999;" x1="47.033" x2="197.5685" y1="162.4848" y2="162.4848"/><text fill="#000000" font-family="sans-serif" font-size="9.8" lengthAdjust="spacing" textLength="39.4871" x="50.533" y="175.86">+create()</text><text fill="#000000" font-family="sans-serif" font-size="9.8" lengthAdjust="spacing" textLength="143.5355" x="50.533" y="188.8947">+getAvailableMaps() : List&lt;Map&gt;</text><text fill="#000000" font-family="sans-serif" font-size="9.8" lengthAdjust="spacing" textLength="133.7355" x="50.533" y="201.9295">+loadMap(mapId) : MapLayout</text></g><!--class ListStationUI--><g id="elem_ListStationUI"><rect codeLine="16" fill="#F1F1F1" height="33.6" id="ListStationUI" rx="1.75" ry="1.75" style="stroke:#181818;stroke-width:0.3499999999999999;" width="77.9604" x="284.333" y="32.6348"/><ellipse cx="294.833" cy="43.8348" fill="#ADD1B2" rx="7.7" ry="7.7" style="stroke:#181818;stroke-width:0.6999999999999998;"/><path d="M296.7689,40.9473 Q296.8783,40.7941 297.0096,40.7176 Q297.1408,40.641 297.2939,40.641 Q297.5564,40.641 297.7205,40.827 Q297.8846,41.002 297.8846,41.4285 L297.8846,42.4457 Q297.8846,42.8723 297.7205,43.0582 Q297.5564,43.2441 297.2939,43.2441 Q297.0533,43.2441 296.9111,43.102 Q296.7689,42.9707 296.6924,42.6098 Q296.6596,42.3582 296.5283,42.227 Q296.2986,41.9645 295.8721,41.8113 Q295.4455,41.6582 295.008,41.6582 Q294.4721,41.6582 294.0236,41.8879 Q293.5861,42.1176 293.2361,42.6426 Q292.8971,43.1676 292.8971,43.8895 L292.8971,44.6551 Q292.8971,45.5191 293.5205,46.0988 Q294.1439,46.6676 295.2596,46.6676 Q295.9158,46.6676 296.3752,46.4926 Q296.6486,46.3832 296.9439,46.077 Q297.1299,45.891 297.2283,45.8363 Q297.3377,45.7816 297.4799,45.7816 Q297.7096,45.7816 297.8846,45.9676 Q298.0705,46.1426 298.0705,46.3832 Q298.0705,46.6238 297.8299,46.9082 Q297.4799,47.3129 296.9221,47.5426 Q296.1674,47.8598 295.2596,47.8598 Q294.1986,47.8598 293.3564,47.4223 Q292.6674,47.0723 292.1861,46.3285 Q291.7049,45.5738 291.7049,44.677 L291.7049,43.8676 Q291.7049,42.9379 292.1314,42.1395 Q292.5689,41.3301 293.3346,40.9035 Q294.1002,40.466 294.9642,40.466 Q295.4783,40.466 295.9267,40.5863 Q296.3861,40.6957 296.7689,40.9473 Z " fill="#000000"/><text fill="#000000" font-family="sans-serif" font-size="9.8" lengthAdjust="spacing" textLength="55.5604" x="304.633" y="47.8926">ListStationUI</text><line style="stroke:#181818;stroke-width:0.3499999999999999;" x1="285.033" x2="361.5934" y1="55.0348" y2="55.0348"/><line style="stroke:#181818;stroke-width:0.3499999999999999;" x1="285.033" x2="361.5934" y1="60.6348" y2="60.6348"/></g><!--class ListStationController--><g id="elem_ListStationController"><rect codeLine="19" fill="#F1F1F1" height="72.7043" id="ListStationController" rx="1.75" ry="1.75" style="stroke:#181818;stroke-width:0.3499999999999999;" width="200.4187" x="223.083" y="134.4848"/><ellipse cx="276.1958" cy="145.6848" fill="#ADD1B2" rx="7.7" ry="7.7" style="stroke:#181818;stroke-width:0.6999999999999998;"/><path d="M278.1318,142.7973 Q278.2412,142.6441 278.3724,142.5676 Q278.5037,142.491 278.6568,142.491 Q278.9193,142.491 279.0833,142.677 Q279.2474,142.852 279.2474,143.2785 L279.2474,144.2957 Q279.2474,144.7223 279.0833,144.9082 Q278.9193,145.0941 278.6568,145.0941 Q278.4162,145.0941 278.274,144.952 Q278.1318,144.8207 278.0552,144.4598 Q278.0224,144.2082 277.8912,144.077 Q277.6615,143.8145 277.2349,143.6613 Q276.8083,143.5082 276.3708,143.5082 Q275.8349,143.5082 275.3865,143.7379 Q274.949,143.9676 274.599,144.4926 Q274.2599,145.0176 274.2599,145.7395 L274.2599,146.5051 Q274.2599,147.3691 274.8833,147.9488 Q275.5068,148.5176 276.6224,148.5176 Q277.2787,148.5176 277.738,148.3426 Q278.0115,148.2332 278.3068,147.927 Q278.4927,147.741 278.5912,147.6863 Q278.7005,147.6316 278.8427,147.6316 Q279.0724,147.6316 279.2474,147.8176 Q279.4333,147.9926 279.4333,148.2332 Q279.4333,148.4738 279.1927,148.7582 Q278.8427,149.1629 278.2849,149.3926 Q277.5302,149.7098 276.6224,149.7098 Q275.5615,149.7098 274.7193,149.2723 Q274.0302,148.9223 273.549,148.1785 Q273.0677,147.4238 273.0677,146.527 L273.0677,145.7176 Q273.0677,144.7879 273.4943,143.9895 Q273.9318,143.1801 274.6974,142.7535 Q275.463,142.316 276.3271,142.316 Q276.8412,142.316 277.2896,142.4363 Q277.749,142.5457 278.1318,142.7973 Z " fill="#000000"/><text fill="#000000" font-family="sans-serif" font-size="9.8" lengthAdjust="spacing" textLength="88.2431" x="290.5458" y="149.7426">ListStationController</text><line style="stroke:#181818;stroke-width:0.3499999999999999;" x1="223.783" x2="422.8017" y1="156.8848" y2="156.8848"/><line style="stroke:#181818;stroke-width:0.3499999999999999;" x1="223.783" x2="422.8017" y1="162.4848" y2="162.4848"/><text fill="#000000" font-family="sans-serif" font-size="9.8" lengthAdjust="spacing" textLength="39.4871" x="227.283" y="175.86">+create()</text><text fill="#000000" font-family="sans-serif" font-size="9.8" lengthAdjust="spacing" textLength="166.4277" x="227.283" y="188.8947">+getAvailableStations() : List&lt;Station&gt;</text><text fill="#000000" font-family="sans-serif" font-size="9.8" lengthAdjust="spacing" textLength="192.0187" x="227.283" y="201.9295">+getStationDetails(stationId) : StationDetails</text></g><!--class UpgradeStationUI--><g id="elem_UpgradeStationUI"><rect codeLine="25" fill="#F1F1F1" height="33.6" id="UpgradeStationUI" rx="1.75" ry="1.75" style="stroke:#181818;stroke-width:0.3499999999999999;" width="100.3023" x="681.933" y="32.6348"/><ellipse cx="692.433" cy="43.8348" fill="#ADD1B2" rx="7.7" ry="7.7" style="stroke:#181818;stroke-width:0.6999999999999998;"/><path d="M694.3689,40.9473 Q694.4783,40.7941 694.6096,40.7176 Q694.7408,40.641 694.8939,40.641 Q695.1564,40.641 695.3205,40.827 Q695.4846,41.002 695.4846,41.4285 L695.4846,42.4457 Q695.4846,42.8723 695.3205,43.0582 Q695.1564,43.2441 694.8939,43.2441 Q694.6533,43.2441 694.5111,43.102 Q694.3689,42.9707 694.2924,42.6098 Q694.2596,42.3582 694.1283,42.227 Q693.8986,41.9645 693.4721,41.8113 Q693.0455,41.6582 692.608,41.6582 Q692.0721,41.6582 691.6236,41.8879 Q691.1861,42.1176 690.8361,42.6426 Q690.4971,43.1676 690.4971,43.8895 L690.4971,44.6551 Q690.4971,45.5191 691.1205,46.0988 Q691.7439,46.6676 692.8596,46.6676 Q693.5158,46.6676 693.9752,46.4926 Q694.2486,46.3832 694.5439,46.077 Q694.7299,45.891 694.8283,45.8363 Q694.9377,45.7816 695.0799,45.7816 Q695.3096,45.7816 695.4846,45.9676 Q695.6705,46.1426 695.6705,46.3832 Q695.6705,46.6238 695.4299,46.9082 Q695.0799,47.3129 694.5221,47.5426 Q693.7674,47.8598 692.8596,47.8598 Q691.7986,47.8598 690.9564,47.4223 Q690.2674,47.0723 689.7861,46.3285 Q689.3049,45.5738 689.3049,44.677 L689.3049,43.8676 Q689.3049,42.9379 689.7314,42.1395 Q690.1689,41.3301 690.9346,40.9035 Q691.7002,40.466 692.5642,40.466 Q693.0783,40.466 693.5267,40.5863 Q693.9861,40.6957 694.3689,40.9473 Z " fill="#000000"/><text fill="#000000" font-family="sans-serif" font-size="9.8" lengthAdjust="spacing" textLength="77.9023" x="702.233" y="47.8926">UpgradeStationUI</text><line style="stroke:#181818;stroke-width:0.3499999999999999;" x1="682.633" x2="781.5353" y1="55.0348" y2="55.0348"/><line style="stroke:#181818;stroke-width:0.3499999999999999;" x1="682.633" x2="781.5353" y1="60.6348" y2="60.6348"/></g><!--class UpgradeStationController--><g id="elem_UpgradeStationController"><rect codeLine="28" fill="#F1F1F1" height="98.7738" id="UpgradeStationController" rx="1.75" ry="1.75" style="stroke:#181818;stroke-width:0.3499999999999999;" width="186.8289" x="638.533" y="121.5348"/><ellipse cx="673.68" cy="132.7348" fill="#ADD1B2" rx="7.7" ry="7.7" style="stroke:#181818;stroke-width:0.6999999999999998;"/><path d="M675.6159,129.8473 Q675.7253,129.6941 675.8565,129.6176 Q675.9878,129.541 676.1409,129.541 Q676.4034,129.541 676.5675,129.727 Q676.7315,129.902 676.7315,130.3285 L676.7315,131.3457 Q676.7315,131.7723 676.5675,131.9582 Q676.4034,132.1441 676.1409,132.1441 Q675.9003,132.1441 675.7581,132.002 Q675.6159,131.8707 675.5393,131.5098 Q675.5065,131.2582 675.3753,131.127 Q675.1456,130.8645 674.719,130.7113 Q674.2925,130.5582 673.855,130.5582 Q673.319,130.5582 672.8706,130.7879 Q672.4331,131.0176 672.0831,131.5426 Q671.744,132.0676 671.744,132.7895 L671.744,133.5551 Q671.744,134.4191 672.3675,134.9988 Q672.9909,135.5676 674.1065,135.5676 Q674.7628,135.5676 675.2222,135.3926 Q675.4956,135.2832 675.7909,134.977 Q675.9768,134.791 676.0753,134.7363 Q676.1847,134.6816 676.3268,134.6816 Q676.5565,134.6816 676.7315,134.8676 Q676.9175,135.0426 676.9175,135.2832 Q676.9175,135.5238 676.6768,135.8082 Q676.3268,136.2129 675.769,136.4426 Q675.0143,136.7598 674.1065,136.7598 Q673.0456,136.7598 672.2034,136.3223 Q671.5143,135.9723 671.0331,135.2285 Q670.5518,134.4738 670.5518,133.577 L670.5518,132.7676 Q670.5518,131.8379 670.9784,131.0395 Q671.4159,130.2301 672.1815,129.8035 Q672.9472,129.366 673.8112,129.366 Q674.3253,129.366 674.7737,129.4863 Q675.2331,129.5957 675.6159,129.8473 Z " fill="#000000"/><text fill="#000000" font-family="sans-serif" font-size="9.8" lengthAdjust="spacing" textLength="110.585" x="688.03" y="136.7926">UpgradeStationController</text><line style="stroke:#181818;stroke-width:0.3499999999999999;" x1="639.233" x2="824.6619" y1="143.9348" y2="143.9348"/><line style="stroke:#181818;stroke-width:0.3499999999999999;" x1="639.233" x2="824.6619" y1="149.5348" y2="149.5348"/><text fill="#000000" font-family="sans-serif" font-size="9.8" lengthAdjust="spacing" textLength="39.4871" x="642.733" y="162.91">+create()</text><text fill="#000000" font-family="sans-serif" font-size="9.8" lengthAdjust="spacing" textLength="177.869" x="642.733" y="175.9447">+getAvailableUpgrades() : List&lt;Building&gt;</text><text fill="#000000" font-family="sans-serif" font-size="9.8" lengthAdjust="spacing" textLength="178.4289" x="642.733" y="188.9795">+getBuildingInfo(buildingId) : BuildingInfo</text><text fill="#000000" font-family="sans-serif" font-size="9.8" lengthAdjust="spacing" textLength="121.7727" x="642.733" y="202.0143">+upgradeStation() : boolean</text><text fill="#000000" font-family="sans-serif" font-size="9.8" lengthAdjust="spacing" textLength="164.8008" x="642.733" y="215.049">+getStationInfo(stationId) : StationInfo</text></g><!--class StationRepository--><g id="elem_StationRepository"><rect codeLine="36" fill="#F1F1F1" height="59.6695" id="StationRepository" rx="1.75" ry="1.75" style="stroke:#181818;stroke-width:0.3499999999999999;" width="140.5086" x="280.833" y="422.8848"/><ellipse cx="309.6734" cy="434.0848" fill="#ADD1B2" rx="7.7" ry="7.7" style="stroke:#181818;stroke-width:0.6999999999999998;"/><path d="M311.6094,431.1973 Q311.7188,431.0441 311.85,430.9676 Q311.9813,430.891 312.1344,430.891 Q312.3969,430.891 312.5609,431.077 Q312.725,431.252 312.725,431.6785 L312.725,432.6957 Q312.725,433.1223 312.5609,433.3082 Q312.3969,433.4941 312.1344,433.4941 Q311.8938,433.4941 311.7516,433.352 Q311.6094,433.2207 311.5328,432.8598 Q311.5,432.6082 311.3688,432.477 Q311.1391,432.2145 310.7125,432.0613 Q310.2859,431.9082 309.8484,431.9082 Q309.3125,431.9082 308.8641,432.1379 Q308.4266,432.3676 308.0766,432.8926 Q307.7375,433.4176 307.7375,434.1395 L307.7375,434.9051 Q307.7375,435.7691 308.3609,436.3488 Q308.9844,436.9176 310.1,436.9176 Q310.7563,436.9176 311.2156,436.7426 Q311.4891,436.6332 311.7844,436.327 Q311.9703,436.141 312.0688,436.0863 Q312.1781,436.0316 312.3203,436.0316 Q312.55,436.0316 312.725,436.2176 Q312.9109,436.3926 312.9109,436.6332 Q312.9109,436.8738 312.6703,437.1582 Q312.3203,437.5629 311.7625,437.7926 Q311.0078,438.1098 310.1,438.1098 Q309.0391,438.1098 308.1969,437.6723 Q307.5078,437.3223 307.0266,436.5785 Q306.5453,435.8238 306.5453,434.927 L306.5453,434.1176 Q306.5453,433.1879 306.9719,432.3895 Q307.4094,431.5801 308.175,431.1535 Q308.9406,430.716 309.8047,430.716 Q310.3188,430.716 310.7672,430.8363 Q311.2266,430.9457 311.6094,431.1973 Z " fill="#000000"/><text fill="#000000" font-family="sans-serif" font-size="9.8" lengthAdjust="spacing" textLength="77.3521" x="323.5491" y="438.1426">StationRepository</text><line style="stroke:#181818;stroke-width:0.3499999999999999;" x1="281.533" x2="420.6416" y1="445.2848" y2="445.2848"/><line style="stroke:#181818;stroke-width:0.3499999999999999;" x1="281.533" x2="420.6416" y1="450.8848" y2="450.8848"/><text fill="#000000" font-family="sans-serif" font-size="9.8" lengthAdjust="spacing" textLength="132.1086" x="285.033" y="464.26">+getStation(stationId) : Station</text><text fill="#000000" font-family="sans-serif" font-size="9.8" lengthAdjust="spacing" textLength="104.8715" x="285.033" y="477.2947">+save(station) : boolean</text></g><!--class BuildingRepository--><g id="elem_BuildingRepository"><rect codeLine="41" fill="#F1F1F1" height="46.6348" id="BuildingRepository" rx="1.75" ry="1.75" style="stroke:#181818;stroke-width:0.3499999999999999;" width="154.1367" x="633.283" y="429.1848"/><ellipse cx="666.5207" cy="440.3848" fill="#ADD1B2" rx="7.7" ry="7.7" style="stroke:#181818;stroke-width:0.6999999999999998;"/><path d="M668.4566,437.4973 Q668.566,437.3441 668.6973,437.2676 Q668.8285,437.191 668.9816,437.191 Q669.2441,437.191 669.4082,437.377 Q669.5723,437.552 669.5723,437.9785 L669.5723,438.9957 Q669.5723,439.4223 669.4082,439.6082 Q669.2441,439.7941 668.9816,439.7941 Q668.741,439.7941 668.5988,439.652 Q668.4566,439.5207 668.3801,439.1598 Q668.3473,438.9082 668.216,438.777 Q667.9863,438.5145 667.5598,438.3613 Q667.1332,438.2082 666.6957,438.2082 Q666.1598,438.2082 665.7113,438.4379 Q665.2738,438.6676 664.9238,439.1926 Q664.5848,439.7176 664.5848,440.4395 L664.5848,441.2051 Q664.5848,442.0691 665.2082,442.6488 Q665.8316,443.2176 666.9473,443.2176 Q667.6035,443.2176 668.0629,443.0426 Q668.3363,442.9332 668.6316,442.627 Q668.8176,442.441 668.916,442.3863 Q669.0254,442.3316 669.1676,442.3316 Q669.3973,442.3316 669.5723,442.5176 Q669.7582,442.6926 669.7582,442.9332 Q669.7582,443.1738 669.5176,443.4582 Q669.1676,443.8629 668.6098,444.0926 Q667.8551,444.4098 666.9473,444.4098 Q665.8863,444.4098 665.0441,443.9723 Q664.3551,443.6223 663.8738,442.8785 Q663.3926,442.1238 663.3926,441.227 L663.3926,440.4176 Q663.3926,439.4879 663.8191,438.6895 Q664.2566,437.8801 665.0223,437.4535 Q665.7879,437.016 666.6519,437.016 Q667.166,437.016 667.6144,437.1363 Q668.0738,437.2457 668.4566,437.4973 Z " fill="#000000"/><text fill="#000000" font-family="sans-serif" font-size="9.8" lengthAdjust="spacing" textLength="81.7113" x="680.8707" y="444.4426">BuildingRepository</text><line style="stroke:#181818;stroke-width:0.3499999999999999;" x1="633.983" x2="786.7197" y1="451.5848" y2="451.5848"/><line style="stroke:#181818;stroke-width:0.3499999999999999;" x1="633.983" x2="786.7197" y1="457.1848" y2="457.1848"/><text fill="#000000" font-family="sans-serif" font-size="9.8" lengthAdjust="spacing" textLength="145.7367" x="637.483" y="470.56">+getBuilding(buildingId) : Building</text></g><!--class MapRepository--><g id="elem_MapRepository"><rect codeLine="45" fill="#F1F1F1" height="59.6695" id="MapRepository" rx="1.75" ry="1.75" style="stroke:#181818;stroke-width:0.3499999999999999;" width="151.9355" x="54.033" y="422.8848"/><ellipse cx="94.0728" cy="434.0848" fill="#ADD1B2" rx="7.7" ry="7.7" style="stroke:#181818;stroke-width:0.6999999999999998;"/><path d="M96.0087,431.1973 Q96.1181,431.0441 96.2494,430.9676 Q96.3806,430.891 96.5337,430.891 Q96.7962,430.891 96.9603,431.077 Q97.1244,431.252 97.1244,431.6785 L97.1244,432.6957 Q97.1244,433.1223 96.9603,433.3082 Q96.7962,433.4941 96.5337,433.4941 Q96.2931,433.4941 96.1509,433.352 Q96.0087,433.2207 95.9322,432.8598 Q95.8994,432.6082 95.7681,432.477 Q95.5384,432.2145 95.1119,432.0613 Q94.6853,431.9082 94.2478,431.9082 Q93.7119,431.9082 93.2634,432.1379 Q92.8259,432.3676 92.4759,432.8926 Q92.1369,433.4176 92.1369,434.1395 L92.1369,434.9051 Q92.1369,435.7691 92.7603,436.3488 Q93.3837,436.9176 94.4994,436.9176 Q95.1556,436.9176 95.615,436.7426 Q95.8884,436.6332 96.1837,436.327 Q96.3697,436.141 96.4681,436.0863 Q96.5775,436.0316 96.7197,436.0316 Q96.9494,436.0316 97.1244,436.2176 Q97.3103,436.3926 97.3103,436.6332 Q97.3103,436.8738 97.0697,437.1582 Q96.7197,437.5629 96.1619,437.7926 Q95.4072,438.1098 94.4994,438.1098 Q93.4384,438.1098 92.5962,437.6723 Q91.9072,437.3223 91.4259,436.5785 Q90.9447,435.8238 90.9447,434.927 L90.9447,434.1176 Q90.9447,433.1879 91.3712,432.3895 Q91.8087,431.5801 92.5744,431.1535 Q93.34,430.716 94.204,430.716 Q94.7181,430.716 95.1665,430.8363 Q95.6259,430.9457 96.0087,431.1973 Z " fill="#000000"/><text fill="#000000" font-family="sans-serif" font-size="9.8" lengthAdjust="spacing" textLength="65.906" x="108.4228" y="438.1426">MapRepository</text><line style="stroke:#181818;stroke-width:0.3499999999999999;" x1="54.733" x2="205.2685" y1="445.2848" y2="445.2848"/><line style="stroke:#181818;stroke-width:0.3499999999999999;" x1="54.733" x2="205.2685" y1="450.8848" y2="450.8848"/><text fill="#000000" font-family="sans-serif" font-size="9.8" lengthAdjust="spacing" textLength="143.5355" x="58.233" y="464.26">+getAvailableMaps() : List&lt;Map&gt;</text><text fill="#000000" font-family="sans-serif" font-size="9.8" lengthAdjust="spacing" textLength="99.4068" x="58.233" y="477.2947">+getMap(mapId) : Map</text></g><!--class Repositories--><g id="elem_Repositories"><rect codeLine="50" fill="#F1F1F1" height="85.7391" id="Repositories" rx="1.75" ry="1.75" style="stroke:#181818;stroke-width:0.3499999999999999;" width="205.8643" x="358.883" y="275.5348"/><ellipse cx="431.6054" cy="286.7348" fill="#ADD1B2" rx="7.7" ry="7.7" style="stroke:#181818;stroke-width:0.6999999999999998;"/><path d="M433.5413,283.8473 Q433.6507,283.6941 433.782,283.6176 Q433.9132,283.541 434.0663,283.541 Q434.3288,283.541 434.4929,283.727 Q434.657,283.902 434.657,284.3285 L434.657,285.3457 Q434.657,285.7723 434.4929,285.9582 Q434.3288,286.1441 434.0663,286.1441 Q433.8257,286.1441 433.6835,286.002 Q433.5413,285.8707 433.4648,285.5098 Q433.432,285.2582 433.3007,285.127 Q433.071,284.8645 432.6445,284.7113 Q432.2179,284.5582 431.7804,284.5582 Q431.2445,284.5582 430.796,284.7879 Q430.3585,285.0176 430.0085,285.5426 Q429.6695,286.0676 429.6695,286.7895 L429.6695,287.5551 Q429.6695,288.4191 430.2929,288.9988 Q430.9163,289.5676 432.032,289.5676 Q432.6882,289.5676 433.1476,289.3926 Q433.421,289.2832 433.7163,288.977 Q433.9023,288.791 434.0007,288.7363 Q434.1101,288.6816 434.2523,288.6816 Q434.482,288.6816 434.657,288.8676 Q434.8429,289.0426 434.8429,289.2832 Q434.8429,289.5238 434.6023,289.8082 Q434.2523,290.2129 433.6945,290.4426 Q432.9398,290.7598 432.032,290.7598 Q430.971,290.7598 430.1288,290.3223 Q429.4398,289.9723 428.9585,289.2285 Q428.4773,288.4738 428.4773,287.577 L428.4773,286.7676 Q428.4773,285.8379 428.9038,285.0395 Q429.3413,284.2301 430.107,283.8035 Q430.8726,283.366 431.7367,283.366 Q432.2507,283.366 432.6992,283.4863 Q433.1585,283.5957 433.5413,283.8473 Z " fill="#000000"/><text fill="#000000" font-family="sans-serif" font-size="9.8" lengthAdjust="spacing" textLength="54.4694" x="445.9554" y="290.7926">Repositories</text><line style="stroke:#181818;stroke-width:0.3499999999999999;" x1="359.583" x2="564.0473" y1="297.9348" y2="297.9348"/><line style="stroke:#181818;stroke-width:0.3499999999999999;" x1="359.583" x2="564.0473" y1="303.5348" y2="303.5348"/><text fill="#000000" font-family="sans-serif" font-size="9.8" lengthAdjust="spacing" text-decoration="underline" textLength="125.5577" x="363.083" y="316.91">+getInstance() : Repositories</text><text fill="#000000" font-family="sans-serif" font-size="9.8" lengthAdjust="spacing" textLength="188.7457" x="363.083" y="329.9447">+getStationRepository() : StationRepository</text><text fill="#000000" font-family="sans-serif" font-size="9.8" lengthAdjust="spacing" textLength="197.4643" x="363.083" y="342.9795">+getBuildingRepository() : BuildingRepository</text><text fill="#000000" font-family="sans-serif" font-size="9.8" lengthAdjust="spacing" textLength="165.8535" x="363.083" y="356.0143">+getMapRepository() : MapRepository</text></g><!--class ApplicationSession--><g id="elem_ApplicationSession"><rect codeLine="57" fill="#F1F1F1" height="72.7043" id="ApplicationSession" rx="1.75" ry="1.75" style="stroke:#181818;stroke-width:0.3499999999999999;" width="162.2954" x="446.383" y="416.2348"/><ellipse cx="483.1521" cy="427.4348" fill="#ADD1B2" rx="7.7" ry="7.7" style="stroke:#181818;stroke-width:0.6999999999999998;"/><path d="M485.0881,424.5473 Q485.1975,424.3941 485.3287,424.3176 Q485.46,424.241 485.6131,424.241 Q485.8756,424.241 486.0396,424.427 Q486.2037,424.602 486.2037,425.0285 L486.2037,426.0457 Q486.2037,426.4723 486.0396,426.6582 Q485.8756,426.8441 485.6131,426.8441 Q485.3725,426.8441 485.2303,426.702 Q485.0881,426.5707 485.0115,426.2098 Q484.9787,425.9582 484.8475,425.827 Q484.6178,425.5645 484.1912,425.4113 Q483.7646,425.2582 483.3271,425.2582 Q482.7912,425.2582 482.3428,425.4879 Q481.9053,425.7176 481.5553,426.2426 Q481.2162,426.7676 481.2162,427.4895 L481.2162,428.2551 Q481.2162,429.1191 481.8396,429.6988 Q482.4631,430.2676 483.5787,430.2676 Q484.235,430.2676 484.6943,430.0926 Q484.9678,429.9832 485.2631,429.677 Q485.449,429.491 485.5475,429.4363 Q485.6568,429.3816 485.799,429.3816 Q486.0287,429.3816 486.2037,429.5676 Q486.3896,429.7426 486.3896,429.9832 Q486.3896,430.2238 486.149,430.5082 Q485.799,430.9129 485.2412,431.1426 Q484.4865,431.4598 483.5787,431.4598 Q482.5178,431.4598 481.6756,431.0223 Q480.9865,430.6723 480.5053,429.9285 Q480.024,429.1738 480.024,428.277 L480.024,427.4676 Q480.024,426.5379 480.4506,425.7395 Q480.8881,424.9301 481.6537,424.5035 Q482.4193,424.066 483.2834,424.066 Q483.7975,424.066 484.2459,424.1863 Q484.7053,424.2957 485.0881,424.5473 Z " fill="#000000"/><text fill="#000000" font-family="sans-serif" font-size="9.8" lengthAdjust="spacing" textLength="82.8071" x="497.5021" y="431.4926">ApplicationSession</text><line style="stroke:#181818;stroke-width:0.3499999999999999;" x1="447.083" x2="607.9784" y1="438.6348" y2="438.6348"/><line style="stroke:#181818;stroke-width:0.3499999999999999;" x1="447.083" x2="607.9784" y1="444.2348" y2="444.2348"/><text fill="#000000" font-family="sans-serif" font-size="9.8" lengthAdjust="spacing" text-decoration="underline" textLength="153.8954" x="450.583" y="457.61">+getInstance() : ApplicationSession</text><text fill="#000000" font-family="sans-serif" font-size="9.8" lengthAdjust="spacing" textLength="127.7397" x="450.583" y="470.6447">+getCurrentStation() : Station</text><text fill="#000000" font-family="sans-serif" font-size="9.8" lengthAdjust="spacing" textLength="104.8476" x="450.583" y="483.6795">+getCurrentMap() : Map</text></g><!--class Station--><g id="elem_Station"><rect codeLine="63" fill="#F1F1F1" height="163.9477" id="Station" rx="1.75" ry="1.75" style="stroke:#181818;stroke-width:0.3499999999999999;" width="186.269" x="282.583" y="544.3348"/><ellipse cx="357.4874" cy="555.5348" fill="#ADD1B2" rx="7.7" ry="7.7" style="stroke:#181818;stroke-width:0.6999999999999998;"/><path d="M359.4234,552.6473 Q359.5328,552.4941 359.664,552.4176 Q359.7953,552.341 359.9484,552.341 Q360.2109,552.341 360.3749,552.527 Q360.539,552.702 360.539,553.1285 L360.539,554.1457 Q360.539,554.5723 360.3749,554.7582 Q360.2109,554.9441 359.9484,554.9441 Q359.7078,554.9441 359.5656,554.802 Q359.4234,554.6707 359.3468,554.3098 Q359.314,554.0582 359.1828,553.927 Q358.9531,553.6645 358.5265,553.5113 Q358.0999,553.3582 357.6624,553.3582 Q357.1265,553.3582 356.6781,553.5879 Q356.2406,553.8176 355.8906,554.3426 Q355.5515,554.8676 355.5515,555.5895 L355.5515,556.3551 Q355.5515,557.2191 356.1749,557.7988 Q356.7984,558.3676 357.914,558.3676 Q358.5703,558.3676 359.0296,558.1926 Q359.3031,558.0832 359.5984,557.777 Q359.7843,557.591 359.8828,557.5363 Q359.9921,557.4816 360.1343,557.4816 Q360.364,557.4816 360.539,557.6676 Q360.7249,557.8426 360.7249,558.0832 Q360.7249,558.3238 360.4843,558.6082 Q360.1343,559.0129 359.5765,559.2426 Q358.8218,559.5598 357.914,559.5598 Q356.8531,559.5598 356.0109,559.1223 Q355.3218,558.7723 354.8406,558.0285 Q354.3593,557.2738 354.3593,556.377 L354.3593,555.5676 Q354.3593,554.6379 354.7859,553.8395 Q355.2234,553.0301 355.989,552.6035 Q356.7546,552.166 357.6187,552.166 Q358.1328,552.166 358.5812,552.2863 Q359.0406,552.3957 359.4234,552.6473 Z " fill="#000000"/><text fill="#000000" font-family="sans-serif" font-size="9.8" lengthAdjust="spacing" textLength="30.5102" x="371.8374" y="559.5926">Station</text><line style="stroke:#181818;stroke-width:0.3499999999999999;" x1="283.283" x2="468.152" y1="566.7348" y2="566.7348"/><text fill="#000000" font-family="sans-serif" font-size="9.8" lengthAdjust="spacing" textLength="68.6239" x="286.783" y="580.11">-nameID: String</text><text fill="#000000" font-family="sans-serif" font-size="9.8" lengthAdjust="spacing" textLength="89.8748" x="286.783" y="593.1447">-storageCapacity: int</text><text fill="#000000" font-family="sans-serif" font-size="9.8" lengthAdjust="spacing" textLength="74.6293" x="286.783" y="606.1795">-buildingSlots: int</text><text fill="#000000" font-family="sans-serif" font-size="9.8" lengthAdjust="spacing" textLength="84.4341" x="286.783" y="619.2143">-availableCargo: int</text><text fill="#000000" font-family="sans-serif" font-size="9.8" lengthAdjust="spacing" textLength="89.3389" x="286.783" y="632.249">-requestedCargo: int</text><text fill="#000000" font-family="sans-serif" font-size="9.8" lengthAdjust="spacing" textLength="77.3521" x="286.783" y="645.2838">-position: Position</text><line style="stroke:#181818;stroke-width:0.3499999999999999;" x1="283.283" x2="468.152" y1="650.5434" y2="650.5434"/><text fill="#000000" font-family="sans-serif" font-size="9.8" lengthAdjust="spacing" textLength="177.869" x="286.783" y="663.9186">+getAvailableUpgrades() : List&lt;Building&gt;</text><text fill="#000000" font-family="sans-serif" font-size="9.8" lengthAdjust="spacing" textLength="165.3606" x="286.783" y="676.9533">+upgrade(building: Building) : boolean</text><text fill="#000000" font-family="sans-serif" font-size="9.8" lengthAdjust="spacing" textLength="97.2439" x="286.783" y="689.9881">+getInfo() : StationInfo</text><text fill="#000000" font-family="sans-serif" font-size="9.8" lengthAdjust="spacing" textLength="124.4619" x="286.783" y="703.0229">+getDetails() : StationDetails</text></g><!--class Building--><g id="elem_Building"><rect codeLine="77" fill="#F1F1F1" height="124.8434" id="Building" rx="1.75" ry="1.75" style="stroke:#181818;stroke-width:0.3499999999999999;" width="113.5442" x="776.083" y="763.4348"/><ellipse cx="812.4454" cy="774.6348" fill="#ADD1B2" rx="7.7" ry="7.7" style="stroke:#181818;stroke-width:0.6999999999999998;"/><path d="M814.3813,771.7473 Q814.4907,771.5941 814.622,771.5176 Q814.7532,771.441 814.9063,771.441 Q815.1688,771.441 815.3329,771.627 Q815.497,771.802 815.497,772.2285 L815.497,773.2457 Q815.497,773.6723 815.3329,773.8582 Q815.1688,774.0441 814.9063,774.0441 Q814.6657,774.0441 814.5235,773.902 Q814.3813,773.7707 814.3048,773.4098 Q814.272,773.1582 814.1407,773.027 Q813.911,772.7645 813.4845,772.6113 Q813.0579,772.4582 812.6204,772.4582 Q812.0845,772.4582 811.636,772.6879 Q811.1985,772.9176 810.8485,773.4426 Q810.5095,773.9676 810.5095,774.6895 L810.5095,775.4551 Q810.5095,776.3191 811.1329,776.8988 Q811.7563,777.4676 812.872,777.4676 Q813.5282,777.4676 813.9876,777.2926 Q814.261,777.1832 814.5563,776.877 Q814.7423,776.691 814.8407,776.6363 Q814.9501,776.5816 815.0923,776.5816 Q815.322,776.5816 815.497,776.7676 Q815.6829,776.9426 815.6829,777.1832 Q815.6829,777.4238 815.4423,777.7082 Q815.0923,778.1129 814.5345,778.3426 Q813.7798,778.6598 812.872,778.6598 Q811.811,778.6598 810.9688,778.2223 Q810.2798,777.8723 809.7985,777.1285 Q809.3173,776.3738 809.3173,775.477 L809.3173,774.6676 Q809.3173,773.7379 809.7438,772.9395 Q810.1813,772.1301 810.947,771.7035 Q811.7126,771.266 812.5767,771.266 Q813.0907,771.266 813.5392,771.3863 Q813.9985,771.4957 814.3813,771.7473 Z " fill="#000000"/><text fill="#000000" font-family="sans-serif" font-size="9.8" lengthAdjust="spacing" textLength="34.8694" x="826.7954" y="778.6926">Building</text><line style="stroke:#181818;stroke-width:0.3499999999999999;" x1="776.783" x2="888.9272" y1="785.8348" y2="785.8348"/><text fill="#000000" font-family="sans-serif" font-size="9.8" lengthAdjust="spacing" textLength="68.6239" x="780.283" y="799.21">-nameID: String</text><text fill="#000000" font-family="sans-serif" font-size="9.8" lengthAdjust="spacing" textLength="52.8329" x="780.283" y="812.2447">-type: String</text><text fill="#000000" font-family="sans-serif" font-size="9.8" lengthAdjust="spacing" textLength="84.97" x="780.283" y="825.2795">-availabilityYear: int</text><text fill="#000000" font-family="sans-serif" font-size="9.8" lengthAdjust="spacing" textLength="78.4383" x="780.283" y="838.3143">-evolutionCost: int</text><text fill="#000000" font-family="sans-serif" font-size="9.8" lengthAdjust="spacing" textLength="105.1442" x="780.283" y="851.349">-evolutionStagesLeft: int</text><text fill="#000000" font-family="sans-serif" font-size="9.8" lengthAdjust="spacing" textLength="58.2784" x="780.283" y="864.3838">-effect: String</text><line style="stroke:#181818;stroke-width:0.3499999999999999;" x1="776.783" x2="888.9272" y1="869.6434" y2="869.6434"/><text fill="#000000" font-family="sans-serif" font-size="9.8" lengthAdjust="spacing" textLength="101.6032" x="780.283" y="883.0186">+getInfo() : BuildingInfo</text></g><!--class Map--><g id="elem_Map"><rect codeLine="88" fill="#F1F1F1" height="98.7738" id="Map" rx="1.75" ry="1.75" style="stroke:#181818;stroke-width:0.3499999999999999;" width="128.2299" x="98.833" y="576.8848"/><ellipse cx="150.4409" cy="588.0848" fill="#ADD1B2" rx="7.7" ry="7.7" style="stroke:#181818;stroke-width:0.6999999999999998;"/><path d="M152.3768,585.1973 Q152.4862,585.0441 152.6175,584.9676 Q152.7487,584.891 152.9018,584.891 Q153.1643,584.891 153.3284,585.077 Q153.4925,585.252 153.4925,585.6785 L153.4925,586.6957 Q153.4925,587.1223 153.3284,587.3082 Q153.1643,587.4941 152.9018,587.4941 Q152.6612,587.4941 152.519,587.352 Q152.3768,587.2207 152.3003,586.8598 Q152.2675,586.6082 152.1362,586.477 Q151.9065,586.2145 151.48,586.0613 Q151.0534,585.9082 150.6159,585.9082 Q150.08,585.9082 149.6315,586.1379 Q149.194,586.3676 148.844,586.8926 Q148.505,587.4176 148.505,588.1395 L148.505,588.9051 Q148.505,589.7691 149.1284,590.3488 Q149.7518,590.9176 150.8675,590.9176 Q151.5237,590.9176 151.9831,590.7426 Q152.2565,590.6332 152.5518,590.327 Q152.7378,590.141 152.8362,590.0863 Q152.9456,590.0316 153.0878,590.0316 Q153.3175,590.0316 153.4925,590.2176 Q153.6784,590.3926 153.6784,590.6332 Q153.6784,590.8738 153.4378,591.1582 Q153.0878,591.5629 152.53,591.7926 Q151.7753,592.1098 150.8675,592.1098 Q149.8065,592.1098 148.9643,591.6723 Q148.2753,591.3223 147.794,590.5785 Q147.3128,589.8238 147.3128,588.927 L147.3128,588.1176 Q147.3128,587.1879 147.7393,586.3895 Q148.1768,585.5801 148.9425,585.1535 Q149.7081,584.716 150.5722,584.716 Q151.0862,584.716 151.5347,584.8363 Q151.994,584.9457 152.3768,585.1973 Z " fill="#000000"/><text fill="#000000" font-family="sans-serif" font-size="9.8" lengthAdjust="spacing" textLength="19.0641" x="164.7909" y="592.1426">Map</text><line style="stroke:#181818;stroke-width:0.3499999999999999;" x1="99.533" x2="226.3629" y1="599.2848" y2="599.2848"/><text fill="#000000" font-family="sans-serif" font-size="9.8" lengthAdjust="spacing" textLength="68.6239" x="103.033" y="612.66">-nameID: String</text><text fill="#000000" font-family="sans-serif" font-size="9.8" lengthAdjust="spacing" textLength="82.2329" x="103.033" y="625.6947">-cityList: List&lt;City&gt;</text><text fill="#000000" font-family="sans-serif" font-size="9.8" lengthAdjust="spacing" textLength="119.8299" x="103.033" y="638.7295">-industryList: List&lt;Industry&gt;</text><text fill="#000000" font-family="sans-serif" font-size="9.8" lengthAdjust="spacing" textLength="45.2006" x="103.033" y="651.7643">-size: Size</text><text fill="#000000" font-family="sans-serif" font-size="9.8" lengthAdjust="spacing" textLength="108.9484" x="103.033" y="664.799">-positions: List&lt;Position&gt;</text><line style="stroke:#181818;stroke-width:0.3499999999999999;" x1="99.533" x2="226.3629" y1="670.0586" y2="670.0586"/></g><!--class Position--><g id="elem_Position"><rect codeLine="96" fill="#F1F1F1" height="72.7043" id="Position" rx="1.75" ry="1.75" style="stroke:#181818;stroke-width:0.3499999999999999;" width="91.2167" x="199.983" y="789.3348"/><ellipse cx="225.7614" cy="800.5348" fill="#ADD1B2" rx="7.7" ry="7.7" style="stroke:#181818;stroke-width:0.6999999999999998;"/><path d="M227.6974,797.6473 Q227.8067,797.4941 227.938,797.4176 Q228.0692,797.341 228.2224,797.341 Q228.4849,797.341 228.6489,797.527 Q228.813,797.702 228.813,798.1285 L228.813,799.1457 Q228.813,799.5723 228.6489,799.7582 Q228.4849,799.9441 228.2224,799.9441 Q227.9817,799.9441 227.8395,799.802 Q227.6974,799.6707 227.6208,799.3098 Q227.588,799.0582 227.4567,798.927 Q227.227,798.6645 226.8005,798.5113 Q226.3739,798.3582 225.9364,798.3582 Q225.4005,798.3582 224.952,798.5879 Q224.5145,798.8176 224.1645,799.3426 Q223.8255,799.8676 223.8255,800.5895 L223.8255,801.3551 Q223.8255,802.2191 224.4489,802.7988 Q225.0724,803.3676 226.188,803.3676 Q226.8442,803.3676 227.3036,803.1926 Q227.577,803.0832 227.8724,802.777 Q228.0583,802.591 228.1567,802.5363 Q228.2661,802.4816 228.4083,802.4816 Q228.638,802.4816 228.813,802.6676 Q228.9989,802.8426 228.9989,803.0832 Q228.9989,803.3238 228.7583,803.6082 Q228.4083,804.0129 227.8505,804.2426 Q227.0958,804.5598 226.188,804.5598 Q225.127,804.5598 224.2849,804.1223 Q223.5958,803.7723 223.1145,803.0285 Q222.6333,802.2738 222.6333,801.377 L222.6333,800.5676 Q222.6333,799.6379 223.0599,798.8395 Q223.4974,798.0301 224.263,797.6035 Q225.0286,797.166 225.8927,797.166 Q226.4067,797.166 226.8552,797.2863 Q227.3145,797.3957 227.6974,797.6473 Z " fill="#000000"/><text fill="#000000" font-family="sans-serif" font-size="9.8" lengthAdjust="spacing" textLength="34.8646" x="238.9566" y="804.5926">Position</text><line style="stroke:#181818;stroke-width:0.3499999999999999;" x1="200.683" x2="290.4997" y1="811.7348" y2="811.7348"/><text fill="#000000" font-family="sans-serif" font-size="9.8" lengthAdjust="spacing" textLength="23.9593" x="204.183" y="825.11">-x: int</text><text fill="#000000" font-family="sans-serif" font-size="9.8" lengthAdjust="spacing" textLength="23.9593" x="204.183" y="838.1447">-y: int</text><text fill="#000000" font-family="sans-serif" font-size="9.8" lengthAdjust="spacing" textLength="82.8167" x="204.183" y="851.1795">-occupied: boolean</text><line style="stroke:#181818;stroke-width:0.3499999999999999;" x1="200.683" x2="290.4997" y1="856.4391" y2="856.4391"/></g><!--class StationType--><g id="elem_StationType"><rect codeLine="102" fill="#F1F1F1" height="85.7391" id="StationType" rx="1.75" ry="1.75" style="stroke:#181818;stroke-width:0.3499999999999999;" width="101.5479" x="324.933" y="783.0348"/><ellipse cx="347.5159" cy="794.2348" fill="#ADD1B2" rx="7.7" ry="7.7" style="stroke:#181818;stroke-width:0.6999999999999998;"/><path d="M349.4518,791.3473 Q349.5612,791.1941 349.6925,791.1176 Q349.8237,791.041 349.9768,791.041 Q350.2393,791.041 350.4034,791.227 Q350.5675,791.402 350.5675,791.8285 L350.5675,792.8457 Q350.5675,793.2723 350.4034,793.4582 Q350.2393,793.6441 349.9768,793.6441 Q349.7362,793.6441 349.594,793.502 Q349.4518,793.3707 349.3753,793.0098 Q349.3425,792.7582 349.2112,792.627 Q348.9815,792.3645 348.555,792.2113 Q348.1284,792.0582 347.6909,792.0582 Q347.155,792.0582 346.7065,792.2879 Q346.269,792.5176 345.919,793.0426 Q345.58,793.5676 345.58,794.2895 L345.58,795.0551 Q345.58,795.9191 346.2034,796.4988 Q346.8268,797.0676 347.9425,797.0676 Q348.5987,797.0676 349.0581,796.8926 Q349.3315,796.7832 349.6268,796.477 Q349.8128,796.291 349.9112,796.2363 Q350.0206,796.1816 350.1628,796.1816 Q350.3925,796.1816 350.5675,796.3676 Q350.7534,796.5426 350.7534,796.7832 Q350.7534,797.0238 350.5128,797.3082 Q350.1628,797.7129 349.605,797.9426 Q348.8503,798.2598 347.9425,798.2598 Q346.8815,798.2598 346.0393,797.8223 Q345.3503,797.4723 344.869,796.7285 Q344.3878,795.9738 344.3878,795.077 L344.3878,794.2676 Q344.3878,793.3379 344.8143,792.5395 Q345.2518,791.7301 346.0175,791.3035 Q346.7831,790.866 347.6471,790.866 Q348.1612,790.866 348.6096,790.9863 Q349.069,791.0957 349.4518,791.3473 Z " fill="#000000"/><text fill="#000000" font-family="sans-serif" font-size="9.8" lengthAdjust="spacing" textLength="52.297" x="360.001" y="798.2926">StationType</text><line style="stroke:#181818;stroke-width:0.3499999999999999;" x1="325.633" x2="425.7809" y1="805.4348" y2="805.4348"/><text fill="#000000" font-family="sans-serif" font-size="9.8" lengthAdjust="spacing" textLength="58.8239" x="329.133" y="818.81">-name: String</text><text fill="#000000" font-family="sans-serif" font-size="9.8" lengthAdjust="spacing" textLength="91.5065" x="329.133" y="831.8447">-economicRadius: int</text><text fill="#000000" font-family="sans-serif" font-size="9.8" lengthAdjust="spacing" textLength="56.1107" x="329.133" y="844.8795">-cost: double</text><text fill="#000000" font-family="sans-serif" font-size="9.8" lengthAdjust="spacing" textLength="93.1479" x="329.133" y="857.9143">-centerPoint: Position</text><line style="stroke:#181818;stroke-width:0.3499999999999999;" x1="325.633" x2="425.7809" y1="863.1738" y2="863.1738"/></g><!--link MapUI to MapController--><g id="link_MapUI_MapController"><path codeLine="110" d="M122.283,66.3258 C122.283,83.6718 122.283,107.5488 122.283,130.1448 " fill="none" id="MapUI-to-MapController" style="stroke:#181818;stroke-width:0.6999999999999998;stroke-dasharray:7.0,7.0;"/><polygon fill="#181818" points="122.283,134.3448,125.083,128.0448,122.283,130.8448,119.483,128.0448,122.283,134.3448" style="stroke:#181818;stroke-width:0.6999999999999998;"/><text fill="#000000" font-family="sans-serif" font-size="9.1" lengthAdjust="spacing" textLength="19.222" x="122.983" y="97.7546">uses</text></g><!--link ListStationUI to ListStationController--><g id="link_ListStationUI_ListStationController"><path codeLine="111" d="M323.183,66.3258 C323.183,83.6718 323.183,107.5488 323.183,130.1448 " fill="none" id="ListStationUI-to-ListStationController" style="stroke:#181818;stroke-width:0.6999999999999998;stroke-dasharray:7.0,7.0;"/><polygon fill="#181818" points="323.183,134.3448,325.983,128.0448,323.183,130.8448,320.383,128.0448,323.183,134.3448" style="stroke:#181818;stroke-width:0.6999999999999998;"/><text fill="#000000" font-family="sans-serif" font-size="9.1" lengthAdjust="spacing" textLength="19.222" x="323.883" y="97.7546">uses</text></g><!--link UpgradeStationUI to UpgradeStationController--><g id="link_UpgradeStationUI_UpgradeStationController"><path codeLine="112" d="M731.983,66.3258 C731.983,80.4728 731.983,97.5528 731.983,117.1808 " fill="none" id="UpgradeStationUI-to-UpgradeStationController" style="stroke:#181818;stroke-width:0.6999999999999998;stroke-dasharray:7.0,7.0;"/><polygon fill="#181818" points="731.983,121.3808,734.783,115.0808,731.983,117.8808,729.183,115.0808,731.983,121.3808" style="stroke:#181818;stroke-width:0.6999999999999998;"/><text fill="#000000" font-family="sans-serif" font-size="9.1" lengthAdjust="spacing" textLength="19.222" x="732.683" y="97.7546">uses</text></g><!--link MapController to MapRepository--><g id="link_MapController_MapRepository"><path codeLine="115" d="M123.27,207.3758 C124.81,263.4668 127.6487,366.8163 129.0697,418.5393 " fill="none" id="MapController-to-MapRepository" style="stroke:#181818;stroke-width:0.6999999999999998;stroke-dasharray:7.0,7.0;"/><polygon fill="#181818" points="129.185,422.7378,131.8109,416.3632,129.0889,419.2391,126.213,416.517,129.185,422.7378" style="stroke:#181818;stroke-width:0.6999999999999998;"/><text fill="#000000" font-family="sans-serif" font-size="9.1" lengthAdjust="spacing" textLength="19.222" x="128.583" y="322.1046">uses</text></g><!--link MapController to Repositories--><g id="link_MapController_Repositories"><path codeLine="116" d="M185.143,207.2918 C193.802,211.8278 202.65,216.2658 211.183,220.2348 C258.79,242.3898 309.0152,262.3874 354.7742,279.5024 " fill="none" id="MapController-to-Repositories" style="stroke:#181818;stroke-width:0.6999999999999998;stroke-dasharray:7.0,7.0;"/><polygon fill="#181818" points="358.708,280.9738,353.7881,276.1442,355.4298,279.7476,351.8263,281.3893,358.708,280.9738" style="stroke:#181818;stroke-width:0.6999999999999998;"/><text fill="#000000" font-family="sans-serif" font-size="9.1" lengthAdjust="spacing" textLength="19.222" x="286.083" y="251.7546">uses</text></g><!--link MapController to Map--><g id="link_MapController_Map"><path codeLine="117" d="M99.246,207.3898 C63.91,267.0578 4.2,390.0338 41.783,489.0348 C54.488,522.5018 76.5806,550.0777 100.6396,573.7237 " fill="none" id="MapController-to-Map" style="stroke:#181818;stroke-width:0.6999999999999998;stroke-dasharray:7.0,7.0;"/><polygon fill="#181818" points="103.635,576.6678,101.1045,570.2548,101.1388,574.2144,97.1791,574.2487,103.635,576.6678" style="stroke:#181818;stroke-width:0.6999999999999998;"/><text fill="#000000" font-family="sans-serif" font-size="9.1" lengthAdjust="spacing" textLength="19.222" x="33.383" y="392.4546">uses</text></g><!--link ListStationController to StationRepository--><g id="link_ListStationController_StationRepository"><path codeLine="119" d="M321.258,207.3898 C319.802,245.6168 319.165,307.8748 326.683,360.9348 C329.665,381.9908 334.6988,401.1194 340.1518,418.7944 " fill="none" id="ListStationController-to-StationRepository" style="stroke:#181818;stroke-width:0.6999999999999998;stroke-dasharray:7.0,7.0;"/><polygon fill="#181818" points="341.39,422.8078,342.2083,415.9623,340.3582,419.4633,336.8572,417.6132,341.39,422.8078" style="stroke:#181818;stroke-width:0.6999999999999998;"/><text fill="#000000" font-family="sans-serif" font-size="9.1" lengthAdjust="spacing" textLength="19.222" x="327.383" y="322.1046">uses</text></g><!--link ListStationController to Repositories--><g id="link_ListStationController_Repositories"><path codeLine="120" d="M357.091,207.2848 C376.642,227.8788 398.4457,250.8383 418.9417,272.4193 " fill="none" id="ListStationController-to-Repositories" style="stroke:#181818;stroke-width:0.6999999999999998;stroke-dasharray:7.0,7.0;"/><polygon fill="#181818" points="421.834,275.4648,419.5258,268.9684,419.4237,272.9269,415.4653,272.8248,421.834,275.4648" style="stroke:#181818;stroke-width:0.6999999999999998;"/><text fill="#000000" font-family="sans-serif" font-size="9.1" lengthAdjust="spacing" textLength="19.222" x="400.883" y="251.7546">uses</text></g><!--link ListStationController to Station--><g id="link_ListStationController_Station"><path codeLine="121" d="M280.861,207.3128 C271.88,217.2808 263.648,228.8098 258.783,241.2348 C218.603,343.8688 230.426,385.6308 268.583,489.0348 C275.73,508.3898 284.2737,523.7498 296.5377,540.8648 " fill="none" id="ListStationController-to-Station" style="stroke:#181818;stroke-width:0.6999999999999998;stroke-dasharray:7.0,7.0;"/><polygon fill="#181818" points="298.984,544.2788,297.5905,537.5269,296.9454,541.4338,293.0385,540.7887,298.984,544.2788" style="stroke:#181818;stroke-width:0.6999999999999998;"/><text fill="#000000" font-family="sans-serif" font-size="9.1" lengthAdjust="spacing" textLength="19.222" x="238.483" y="392.4546">uses</text></g><!--link UpgradeStationController to StationRepository--><g id="link_UpgradeStationController_StationRepository"><path codeLine="123" d="M686.812,220.4448 C671.454,237.5598 654.437,257.1108 639.583,275.5348 C610.099,312.1098 614.544,332.3118 577.283,360.9348 C523.313,402.3958 497.504,390.5378 434.483,416.2348 C429.31,418.3418 427.8496,418.9305 422.4876,421.1775 " fill="none" id="UpgradeStationController-to-StationRepository" style="stroke:#181818;stroke-width:0.6999999999999998;stroke-dasharray:7.0,7.0;"/><polygon fill="#181818" points="418.614,422.8008,425.5066,422.9483,421.842,421.448,423.3422,417.7834,418.614,422.8008" style="stroke:#181818;stroke-width:0.6999999999999998;"/><text fill="#000000" font-family="sans-serif" font-size="9.1" lengthAdjust="spacing" textLength="19.222" x="640.283" y="322.1046">uses</text></g><!--link UpgradeStationController to BuildingRepository--><g id="link_UpgradeStationController_BuildingRepository"><path codeLine="124" d="M731.171,220.3258 C730.205,258.6228 728.112,313.2718 723.583,360.9348 C721.371,384.2238 718.0279,406.5127 714.9759,424.8667 " fill="none" id="UpgradeStationController-to-BuildingRepository" style="stroke:#181818;stroke-width:0.6999999999999998;stroke-dasharray:7.0,7.0;"/><polygon fill="#181818" points="714.287,429.0098,718.0825,423.2544,714.8611,425.5572,712.5583,422.3358,714.287,429.0098" style="stroke:#181818;stroke-width:0.6999999999999998;"/><text fill="#000000" font-family="sans-serif" font-size="9.1" lengthAdjust="spacing" textLength="19.222" x="729.183" y="322.1046">uses</text></g><!--link UpgradeStationController to Repositories--><g id="link_UpgradeStationController_Repositories"><path codeLine="125" d="M638.442,209.9378 C617.295,219.4788 595.189,230.1748 575.183,241.2348 C556.808,251.3988 541.0654,261.2963 523.7754,272.9863 " fill="none" id="UpgradeStationController-to-Repositories" style="stroke:#181818;stroke-width:0.6999999999999998;stroke-dasharray:7.0,7.0;"/><polygon fill="#181818" points="520.296,275.3388,527.0833,274.1297,523.1955,273.3784,523.9468,269.4905,520.296,275.3388" style="stroke:#181818;stroke-width:0.6999999999999998;"/><text fill="#000000" font-family="sans-serif" font-size="9.1" lengthAdjust="spacing" textLength="19.222" x="575.883" y="251.7546">uses</text></g><!--link UpgradeStationController to ApplicationSession--><g id="link_UpgradeStationController_ApplicationSession"><path codeLine="126" d="M715.33,220.4098 C693.42,284.1728 656.971,388.5078 650.783,395.2348 C643.888,402.7248 631.4033,409.8794 612.8393,418.3844 " fill="none" id="UpgradeStationController-to-ApplicationSession" style="stroke:#181818;stroke-width:0.6999999999999998;stroke-dasharray:7.0,7.0;"/><polygon fill="#181818" points="609.021,420.1338,615.9148,420.0553,612.203,418.676,613.5823,414.9642,609.021,420.1338" style="stroke:#181818;stroke-width:0.6999999999999998;"/><text fill="#000000" font-family="sans-serif" font-size="9.1" lengthAdjust="spacing" textLength="19.222" x="696.283" y="322.1046">uses</text></g><!--link UpgradeStationController to Station--><g id="link_UpgradeStationController_Station"><path codeLine="127" d="M764.008,220.3048 C803.53,287.1828 858.718,408.2968 799.883,489.0348 C760.557,543.0048 585.5039,585.4291 472.9649,607.8781 " fill="none" id="UpgradeStationController-to-Station" style="stroke:#181818;stroke-width:0.6999999999999998;stroke-dasharray:7.0,7.0;"/><polygon fill="#181818" points="468.846,608.6998,475.572,610.2132,472.2784,608.0151,474.4765,604.7214,468.846,608.6998" style="stroke:#181818;stroke-width:0.6999999999999998;"/><text fill="#000000" font-family="sans-serif" font-size="9.1" lengthAdjust="spacing" textLength="19.222" x="825.783" y="392.4546">uses</text></g><!--link UpgradeStationController to Building--><g id="link_UpgradeStationController_Building"><path codeLine="128" d="M825.643,210.6448 C866.642,234.5358 905.583,269.7948 905.583,317.5348 C905.583,317.5348 905.583,317.5348 905.583,626.9348 C905.583,674.7518 888.5089,721.5232 869.9589,759.5892 " fill="none" id="UpgradeStationController-to-Building" style="stroke:#181818;stroke-width:0.6999999999999998;stroke-dasharray:7.0,7.0;"/><polygon fill="#181818" points="868.119,763.3648,873.3959,758.928,869.6522,760.2185,868.3618,756.4748,868.119,763.3648" style="stroke:#181818;stroke-width:0.6999999999999998;"/><text fill="#000000" font-family="sans-serif" font-size="9.1" lengthAdjust="spacing" textLength="19.222" x="906.283" y="456.5046">uses</text></g><!--link StationRepository to Station--><g id="link_StationRepository_Station"><path codeLine="131" d="M355.341,482.5458 C357.77,499.6258 360.3769,517.9517 363.5199,540.0227 " fill="none" id="StationRepository-to-Station" style="stroke:#181818;stroke-width:0.6999999999999998;"/><polygon fill="#181818" points="364.112,544.1808,365.9958,537.5489,363.6186,540.7157,360.4518,538.3384,364.112,544.1808" style="stroke:#181818;stroke-width:0.6999999999999998;"/><text fill="#000000" font-family="sans-serif" font-size="9.1" lengthAdjust="spacing" textLength="28.322" x="360.983" y="520.5546">returns</text><text fill="#000000" font-family="sans-serif" font-size="9.1" lengthAdjust="spacing" textLength="5.061" x="358.3167" y="536.4646">1</text></g><!--link BuildingRepository to Building--><g id="link_BuildingRepository_Building"><path codeLine="132" d="M717.857,476.3088 C736.428,532.6518 783.4205,675.2498 811.1335,759.3478 " fill="none" id="BuildingRepository-to-Building" style="stroke:#181818;stroke-width:0.6999999999999998;"/><polygon fill="#181818" points="812.448,763.3368,813.1356,756.4769,811.3526,760.0126,807.8169,758.2296,812.448,763.3368" style="stroke:#181818;stroke-width:0.6999999999999998;"/><text fill="#000000" font-family="sans-serif" font-size="9.1" lengthAdjust="spacing" textLength="34.396" x="793.583" y="630.1046">provides</text><text fill="#000000" font-family="sans-serif" font-size="9.1" lengthAdjust="spacing" textLength="3.5414" x="807.1148" y="755.5949">*</text></g><!--link MapRepository to Map--><g id="link_MapRepository_Map"><path codeLine="133" d="M111.517,482.6368 C105.847,495.0548 101.934,509.7548 105.483,523.3348 C110.327,541.8428 117.2332,556.9052 126.7182,573.1592 " fill="none" id="MapRepository-to-Map" style="stroke:#181818;stroke-width:0.6999999999999998;"/><polygon fill="#181818" points="128.835,576.7868,128.0781,569.9342,127.071,573.7638,123.2414,572.7567,128.835,576.7868" style="stroke:#181818;stroke-width:0.6999999999999998;"/><text fill="#000000" font-family="sans-serif" font-size="9.1" lengthAdjust="spacing" textLength="34.396" x="106.183" y="520.5546">provides</text><text fill="#000000" font-family="sans-serif" font-size="9.1" lengthAdjust="spacing" textLength="3.5414" x="121.6388" y="569.0004">*</text></g><!--link Repositories to StationRepository--><g id="link_Repositories_StationRepository"><path codeLine="135" d="M426.79,361.0188 C410.081,381.1088 393.187,401.4201 378.144,419.5151 " fill="none" id="Repositories-to-StationRepository" style="stroke:#181818;stroke-width:0.6999999999999998;"/><polygon fill="#181818" points="375.459,422.7448,381.6396,419.6902,377.6965,420.0533,377.3333,416.1102,375.459,422.7448" style="stroke:#181818;stroke-width:0.6999999999999998;"/><polygon fill="#000000" points="407.7451,391.3777,413.3753,387.8249,410.2117,385.1941,407.7451,391.3777" style="stroke:#000000;stroke-width:0.6999999999999998;"/><text fill="#000000" font-family="sans-serif" font-size="9.1" lengthAdjust="spacing" textLength="34.396" x="416.283" y="392.4546">provides</text></g><!--link Repositories to BuildingRepository--><g id="link_Repositories_BuildingRepository"><path codeLine="136" d="M540.414,361.0188 C582.575,383.5798 629.1669,408.5201 664.0409,427.1821 " fill="none" id="Repositories-to-BuildingRepository" style="stroke:#181818;stroke-width:0.6999999999999998;"/><polygon fill="#181818" points="667.744,429.1638,663.5104,423.7226,664.6581,427.5124,660.8682,428.6601,667.744,429.1638" style="stroke:#181818;stroke-width:0.6999999999999998;"/><polygon fill="#000000" points="606.9689,390.3381,602.3572,385.5367,600.4158,389.1643,606.9689,390.3381" style="stroke:#000000;stroke-width:0.6999999999999998;"/><text fill="#000000" font-family="sans-serif" font-size="9.1" lengthAdjust="spacing" textLength="34.396" x="610.183" y="392.4546">provides</text></g><!--link Repositories to MapRepository--><g id="link_Repositories_MapRepository"><path codeLine="137" d="M358.561,356.1818 C352.31,357.9248 346.087,359.5278 339.983,360.9348 C302.575,369.5728 200.284,360.4168 168.483,381.9348 C154.301,391.5318 146.4275,404.2766 140.4355,418.9206 " fill="none" id="Repositories-to-MapRepository" style="stroke:#181818;stroke-width:0.6999999999999998;"/><polygon fill="#181818" points="138.845,422.8078,143.8223,418.0374,140.1705,419.5684,138.6394,415.9166,138.845,422.8078" style="stroke:#181818;stroke-width:0.6999999999999998;"/><polygon fill="#000000" points="168.6194,389.6541,175.2729,389.881,174.1356,385.9268,168.6194,389.6541" style="stroke:#000000;stroke-width:0.6999999999999998;"/><text fill="#000000" font-family="sans-serif" font-size="9.1" lengthAdjust="spacing" textLength="34.396" x="178.283" y="392.4546">provides</text></g><!--reverse link Station to Building--><g id="link_Station_Building"><path codeLine="140" d="M476.7212,670.7213 C568.8902,710.6703 699.181,767.1308 775.992,800.4228 " fill="none" id="Station-backto-Building" style="stroke:#181818;stroke-width:0.6999999999999998;"/><polygon fill="none" points="469.014,667.3808,471.7541,671.6201,476.7212,670.7213,473.9811,666.482,469.014,667.3808" style="stroke:#181818;stroke-width:0.6999999999999998;"/><polygon fill="#000000" points="637.8944,737.2784,632.903,732.873,631.2669,736.6482,637.8944,737.2784" style="stroke:#000000;stroke-width:0.6999999999999998;"/><text fill="#000000" font-family="sans-serif" font-size="9.1" lengthAdjust="spacing" textLength="14.672" x="640.983" y="739.6546">has</text><text fill="#000000" font-family="sans-serif" font-size="9.1" lengthAdjust="spacing" textLength="5.061" x="474.554" y="667.337">1</text><text fill="#000000" font-family="sans-serif" font-size="9.1" lengthAdjust="spacing" textLength="15.1785" x="755.3944" y="795.4588">0..1</text></g><!--link Station to Position--><g id="link_Station_Position"><path codeLine="141" d="M322.161,708.3658 C303.646,736.5408 283.836,766.6758 268.996,789.2648 " fill="none" id="Station-Position" style="stroke:#181818;stroke-width:0.6999999999999998;"/><polygon fill="#000000" points="307.9608,738.8115,313.1573,734.6501,309.7189,732.3905,307.9608,738.8115" style="stroke:#000000;stroke-width:0.6999999999999998;"/><text fill="#000000" font-family="sans-serif" font-size="9.1" lengthAdjust="spacing" textLength="39.4615" x="316.183" y="739.6546">located at</text><text fill="#000000" font-family="sans-serif" font-size="9.1" lengthAdjust="spacing" textLength="5.061" x="313.6782" y="723.8301">1</text><text fill="#000000" font-family="sans-serif" font-size="9.1" lengthAdjust="spacing" textLength="5.061" x="266.9226" y="781.5045">1</text></g><!--link Station to StationType--><g id="link_Station_StationType"><path codeLine="142" d="M375.683,708.3658 C375.683,733.9788 375.683,761.2158 375.683,782.9228 " fill="none" id="Station-StationType" style="stroke:#181818;stroke-width:0.6999999999999998;"/><polygon fill="#000000" points="379.183,739.3866,381.2402,733.0551,377.1258,733.0551,379.183,739.3866" style="stroke:#000000;stroke-width:0.6999999999999998;"/><text fill="#000000" font-family="sans-serif" font-size="9.1" lengthAdjust="spacing" textLength="41.9942" x="385.483" y="739.6546">defined by</text><text fill="#000000" font-family="sans-serif" font-size="9.1" lengthAdjust="spacing" textLength="3.5414" x="372.07" y="723.8301">*</text><text fill="#000000" font-family="sans-serif" font-size="9.1" lengthAdjust="spacing" textLength="5.061" x="370.5063" y="775.1967">1</text></g><!--link Map to Position--><g id="link_Map_Position"><path codeLine="143" d="M183.197,675.6478 C197.862,710.8228 217.336,757.5198 230.58,789.2788 " fill="none" id="Map-Position" style="stroke:#181818;stroke-width:0.6999999999999998;"/><polygon fill="#000000" points="213.93,739.117,213.392,732.4814,209.5944,734.0649,213.93,739.117" style="stroke:#000000;stroke-width:0.6999999999999998;"/><text fill="#000000" font-family="sans-serif" font-size="9.1" lengthAdjust="spacing" textLength="24.2696" x="218.883" y="739.6546">tracks</text><text fill="#000000" font-family="sans-serif" font-size="9.1" lengthAdjust="spacing" textLength="5.061" x="180.1408" y="691.1836">1</text><text fill="#000000" font-family="sans-serif" font-size="9.1" lengthAdjust="spacing" textLength="3.5414" x="224.8305" y="781.5204">*</text></g><!--link Building to Building--><g id="link_Building_Building"><path codeLine="144" d="M889.511,809.1798 C903.532,810.3698 913.983,815.8928 913.983,825.7348 C913.983,835.5768 903.532,841.0998 889.511,842.2898 " fill="none" id="Building-Building" style="stroke:#181818;stroke-width:0.6999999999999998;"/><polygon fill="#000000" points="917.779,829.3241,919.2934,822.8412,915.1937,823.1892,917.779,829.3241" style="stroke:#000000;stroke-width:0.6999999999999998;"/><text fill="#000000" font-family="sans-serif" font-size="9.1" lengthAdjust="spacing" textLength="48.0549" x="927.283" y="829.6046">evolves into</text><text fill="#000000" font-family="sans-serif" font-size="9.1" lengthAdjust="spacing" textLength="5.061" x="895.1522" y="804.9527">1</text><text fill="#000000" font-family="sans-serif" font-size="9.1" lengthAdjust="spacing" textLength="15.1785" x="895.2328" y="841.1523">0..1</text></g><!--link StationType to StationType--><g id="link_StationType_StationType"><path codeLine="145" d="M426.503,809.0468 C440.363,809.8938 450.933,815.4518 450.933,825.7348 C450.933,836.0178 440.363,841.5758 426.503,842.4228 " fill="none" id="StationType-StationType" style="stroke:#181818;stroke-width:0.6999999999999998;"/><polygon fill="#000000" points="454.6465,829.3301,456.3137,822.8848,452.2069,823.1358,454.6465,829.3301" style="stroke:#000000;stroke-width:0.6999999999999998;"/><text fill="#000000" font-family="sans-serif" font-size="9.1" lengthAdjust="spacing" textLength="47.0552" x="464.233" y="829.6046">can change</text><text fill="#000000" font-family="sans-serif" font-size="9.1" lengthAdjust="spacing" textLength="5.061" x="432.0023" y="804.6251">1</text><text fill="#000000" font-family="sans-serif" font-size="9.1" lengthAdjust="spacing" textLength="3.5414" x="431.9239" y="841.443">*</text></g><!--link ApplicationSession to Station--><g id="link_ApplicationSession_Station"><path codeLine="147" d="M495.929,489.2238 C481.754,505.2888 467.1931,521.7948 450.1481,541.1218 " fill="none" id="ApplicationSession-to-Station" style="stroke:#181818;stroke-width:0.6999999999999998;"/><polygon fill="#181818" points="447.37,544.2718,453.6371,541.3988,449.685,541.6468,449.4371,537.6948,447.37,544.2718" style="stroke:#181818;stroke-width:0.6999999999999998;"/><polygon fill="#000000" points="474.8676,519.4113,480.5989,516.0241,477.5134,513.3022,474.8676,519.4113" style="stroke:#000000;stroke-width:0.6999999999999998;"/><text fill="#000000" font-family="sans-serif" font-size="9.1" lengthAdjust="spacing" textLength="56.6528" x="483.483" y="520.5546">currentStation</text></g><!--link ApplicationSession to Map--><g id="link_ApplicationSession_Map"><path codeLine="148" d="M446.32,485.4368 C442.106,486.7318 437.913,487.9428 433.783,489.0348 C374.738,504.6518 353.486,484.5548 297.983,510.0348 C263.774,525.7428 234.4828,549.7672 210.0598,573.7002 " fill="none" id="ApplicationSession-to-Map" style="stroke:#181818;stroke-width:0.6999999999999998;"/><polygon fill="#181818" points="207.06,576.6398,213.5194,574.2302,209.5598,574.1901,209.5999,570.2305,207.06,576.6398" style="stroke:#181818;stroke-width:0.6999999999999998;"/><polygon fill="#000000" points="298.2043,518.0115,304.8555,517.7228,303.4155,513.8685,298.2043,518.0115" style="stroke:#000000;stroke-width:0.6999999999999998;"/><text fill="#000000" font-family="sans-serif" font-size="9.1" lengthAdjust="spacing" textLength="46.0243" x="307.783" y="520.5546">currentMap</text></g><!--SRC=[dLV1Rjim3BtxAuHUbdP8q5vs28O0NN89q055invsL6mc4Uf8dYIdouhz-oXRaYLRITFrq5Ra8_b8KMIYNXYlgAHxKj7yXMvXfOyb40cvfdnRGgOyGEre8LuPtv8DBLMeoKkgrBtMagrh3SjSy1Nx0-GsopJJw6rkz6J1w1RHK_Ayklr2nkIvmcC1X1859SQ3WYXDDHESl3AzG_cwPcM10REiYK2-q-fvITwolu5WBhYMeYn1eeBWpsUIIw0QHjVsk0LzVw2ifEiIq42DhicKF32bl-9fPa6be0KUHtjQBGi3mCC3FOfQTz6CpQfb6DC851-ZOuq2IbOowy1MiW2DHcfaIzIIZ7KT8LlQ9DbOzp6-rZRW-yrUKK3OYPPy8qRk2bk-eSeQr16Tnl5QY18e7vIWSPZAlt7d4xJ29wY4Obh8ey-iSvLqOr6A7i3fGpe-WCiY7S5fJwGUDM_Qm_lTYg1-itP-lLC6ohjzQnBA_nhJ9SS3pw5n7Q87PUhuZO8wTT9XrZsBeJZAe8UE95r2zrLLihm9lGAbp81uDwsXJHTuNai9N8Sj5tT0Xp5L7XJOWYs9CU5q3yk5SIBD1RT2XJdWE9rJdAjC7wU4SMrLhZ5MfT0gL51tyNCgjoBKIFXLWy8HET0qvK8sK_9e_siK__LuxLlqdTlTN_9PDk-n_mozrWsiStFAkJzVIdsie2UobM8bblOdK1bM10wYhDlPfdHIWNIse1vW4wit6zn2KQ14hj482z_o-HnC3vYQsyhFyJYpAiQBMcaPgfTMv20AroawnD-zMrVMmDtzhAFaH9xNxp3Pg255djSLWo8nw-pD_S0hY1BifGUuyyMUvK-qO7NKqtbp2OMeiGET21yMo4U1eA1hCUGdWgiAjox8h5traycij-Edf5OugE9LR63f7MpXWtreB4ukGck4T0AXfnN8BBrWYblJ8ImQoYTHferSz7H21ZLSSCEgN13-tG2UoibAdMLprYgnGoynI-LnrY2nEounwrNWebI2lWcoQljcMAJnU4Qkxgw2I19qBRdA4gLfm3TNOQXAYWChsYvA8DjEyg0iAfm1fQxDmSbiY4zUs3c3_iC8i5YXXTXJnkFgDFKGup6vkfrCxg9iTzJOXJW3mpz-oatn8ppUCtw9e3g4tdXeECfm8i66SKIlZuWsrN9ERoAdMkBN8XFRat6u0KUpNWwO7uurqJ5emWM-OnOvvIJVuJSjC6L9D6jmLGOUVN91anCMxUtd_ZCC8ly1]--></g></svg>