<svg xmlns="http://www.w3.org/2000/svg" xmlns:xlink="http://www.w3.org/1999/xlink" contentStyleType="text/css" height="417px" preserveAspectRatio="none" style="width:573px;height:417px;background:#FFFFFF;" version="1.1" viewBox="0 0 573 417" width="573px" zoomAndPan="magnify"><defs/><g><rect fill="#FFFFFF" height="261.3281" style="stroke:#181818;stroke-width:1.0;" width="10" x="169.6816" y="90.5332"/><rect fill="#FFFFFF" height="31.291" style="stroke:#181818;stroke-width:1.0;" width="10" x="313.1294" y="148.1152"/><rect fill="#FFFFFF" height="31.291" style="stroke:#181818;stroke-width:1.0;" width="10" x="419.2222" y="273.2793"/><rect fill="#FFFFFF" height="31.291" style="stroke:#181818;stroke-width:1.0;" width="10" x="516.3735" y="210.6973"/><rect fill="none" height="207.0371" style="stroke:#000000;stroke-width:1.5;" width="491.1982" x="76.7476" y="105.5332"/><line style="stroke:#181818;stroke-width:0.5;stroke-dasharray:5.0,5.0;" x1="173.7476" x2="173.7476" y1="57.2422" y2="360.8613"/><line style="stroke:#181818;stroke-width:0.5;stroke-dasharray:5.0,5.0;" x1="317.6157" x2="317.6157" y1="57.2422" y2="360.8613"/><line style="stroke:#181818;stroke-width:0.5;stroke-dasharray:5.0,5.0;" x1="423.6431" x2="423.6431" y1="57.2422" y2="360.8613"/><line style="stroke:#181818;stroke-width:0.5;stroke-dasharray:5.0,5.0;" x1="520.8013" x2="520.8013" y1="57.2422" y2="360.8613"/><rect fill="#E3E3E3" height="32.6211" rx="2.5" ry="2.5" style="stroke:#181818;stroke-width:0.5;" width="175.8682" x="86.7476" y="23.6211"/><text fill="#000000" font-family="sans-serif" font-size="14" lengthAdjust="spacing" textLength="161.8682" x="93.7476" y="45.7285">:UpgradeStationController</text><rect fill="#E3E3E3" height="32.6211" rx="2.5" ry="2.5" style="stroke:#181818;stroke-width:0.5;" width="175.8682" x="86.7476" y="359.8613"/><text fill="#000000" font-family="sans-serif" font-size="14" lengthAdjust="spacing" textLength="161.8682" x="93.7476" y="381.9688">:UpgradeStationController</text><rect fill="#E3E3E3" height="51.2422" rx="2.5" ry="2.5" style="stroke:#181818;stroke-width:0.5;" width="91.0273" x="272.6157" y="5"/><text fill="#000000" font-family="sans-serif" font-size="14" lengthAdjust="spacing" textLength="70.7998" x="282.7295" y="27.1074">stationDTO</text><text fill="#000000" font-family="sans-serif" font-size="14" lengthAdjust="spacing" textLength="77.0273" x="279.6157" y="45.7285">:StationDTO</text><rect fill="#E3E3E3" height="51.2422" rx="2.5" ry="2.5" style="stroke:#181818;stroke-width:0.5;" width="91.0273" x="272.6157" y="359.8613"/><text fill="#000000" font-family="sans-serif" font-size="14" lengthAdjust="spacing" textLength="70.7998" x="282.7295" y="381.9688">stationDTO</text><text fill="#000000" font-family="sans-serif" font-size="14" lengthAdjust="spacing" textLength="77.0273" x="279.6157" y="400.5898">:StationDTO</text><rect fill="#E3E3E3" height="51.2422" rx="2.5" ry="2.5" style="stroke:#181818;stroke-width:0.5;" width="101.1582" x="373.6431" y="5"/><text fill="#000000" font-family="sans-serif" font-size="14" lengthAdjust="spacing" textLength="87.1582" x="380.6431" y="27.1074">currentStation</text><text fill="#000000" font-family="sans-serif" font-size="14" lengthAdjust="spacing" textLength="47.4756" x="400.4844" y="45.7285">:Station</text><rect fill="#E3E3E3" height="51.2422" rx="2.5" ry="2.5" style="stroke:#181818;stroke-width:0.5;" width="101.1582" x="373.6431" y="359.8613"/><text fill="#000000" font-family="sans-serif" font-size="14" lengthAdjust="spacing" textLength="87.1582" x="380.6431" y="381.9688">currentStation</text><text fill="#000000" font-family="sans-serif" font-size="14" lengthAdjust="spacing" textLength="47.4756" x="400.4844" y="400.5898">:Station</text><rect fill="#E3E3E3" height="51.2422" rx="2.5" ry="2.5" style="stroke:#181818;stroke-width:0.5;" width="73.1445" x="484.8013" y="5"/><text fill="#000000" font-family="sans-serif" font-size="14" lengthAdjust="spacing" textLength="52.917" x="494.915" y="27.1074">scenario</text><text fill="#000000" font-family="sans-serif" font-size="14" lengthAdjust="spacing" textLength="59.1445" x="491.8013" y="45.7285">:Scenario</text><rect fill="#E3E3E3" height="51.2422" rx="2.5" ry="2.5" style="stroke:#181818;stroke-width:0.5;" width="73.1445" x="484.8013" y="359.8613"/><text fill="#000000" font-family="sans-serif" font-size="14" lengthAdjust="spacing" textLength="52.917" x="494.915" y="381.9688">scenario</text><text fill="#000000" font-family="sans-serif" font-size="14" lengthAdjust="spacing" textLength="59.1445" x="491.8013" y="400.5898">:Scenario</text><rect fill="#FFFFFF" height="261.3281" style="stroke:#181818;stroke-width:1.0;" width="10" x="169.6816" y="90.5332"/><rect fill="#FFFFFF" height="31.291" style="stroke:#181818;stroke-width:1.0;" width="10" x="313.1294" y="148.1152"/><rect fill="#FFFFFF" height="31.291" style="stroke:#181818;stroke-width:1.0;" width="10" x="419.2222" y="273.2793"/><rect fill="#FFFFFF" height="31.291" style="stroke:#181818;stroke-width:1.0;" width="10" x="516.3735" y="210.6973"/><polygon fill="#181818" points="157.6816,86.5332,167.6816,90.5332,157.6816,94.5332,161.6816,90.5332" style="stroke:#181818;stroke-width:1.0;"/><line style="stroke:#181818;stroke-width:1.0;" x1="0" x2="163.6816" y1="90.5332" y2="90.5332"/><text fill="#000000" font-family="sans-serif" font-size="13" font-weight="bold" lengthAdjust="spacing" textLength="7.23" x="7" y="85.2705">7</text><text fill="#000000" font-family="sans-serif" font-size="13" lengthAdjust="spacing" textLength="139.4517" x="18.23" y="85.2705">loadStation(stationDTO)</text><path d="M76.7476,105.5332 L257.5493,105.5332 L257.5493,114.8242 L247.5493,124.8242 L76.7476,124.8242 L76.7476,105.5332 " fill="#EEEEEE" style="stroke:#000000;stroke-width:1.5;"/><rect fill="none" height="207.0371" style="stroke:#000000;stroke-width:1.5;" width="491.1982" x="76.7476" y="105.5332"/><text fill="#000000" font-family="sans-serif" font-size="13" font-weight="bold" lengthAdjust="spacing" textLength="135.8018" x="91.7476" y="120.5615">Load Selected Station</text><polygon fill="#181818" points="301.1294,144.1152,311.1294,148.1152,301.1294,152.1152,305.1294,148.1152" style="stroke:#181818;stroke-width:1.0;"/><line style="stroke:#181818;stroke-width:1.0;" x1="179.6816" x2="307.1294" y1="148.1152" y2="148.1152"/><text fill="#000000" font-family="sans-serif" font-size="13" font-weight="bold" lengthAdjust="spacing" textLength="18.0718" x="186.6816" y="142.8525">7.1</text><text fill="#000000" font-family="sans-serif" font-size="13" lengthAdjust="spacing" textLength="74.4072" x="208.7534" y="142.8525">getNameID()</text><polygon fill="#181818" points="190.6816,175.4063,180.6816,179.4063,190.6816,183.4063,186.6816,179.4063" style="stroke:#181818;stroke-width:1.0;"/><line style="stroke:#181818;stroke-width:1.0;stroke-dasharray:2.0,2.0;" x1="184.6816" x2="317.1294" y1="179.4063" y2="179.4063"/><text fill="#000000" font-family="sans-serif" font-size="13" font-weight="bold" lengthAdjust="spacing" textLength="18.0718" x="196.6816" y="174.1436">7.2</text><text fill="#000000" font-family="sans-serif" font-size="13" lengthAdjust="spacing" textLength="85.979" x="218.7534" y="174.1436">stationNameID</text><polygon fill="#181818" points="504.3735,206.6973,514.3735,210.6973,504.3735,214.6973,508.3735,210.6973" style="stroke:#181818;stroke-width:1.0;"/><line style="stroke:#181818;stroke-width:1.0;" x1="179.6816" x2="510.3735" y1="210.6973" y2="210.6973"/><text fill="#000000" font-family="sans-serif" font-size="13" font-weight="bold" lengthAdjust="spacing" textLength="18.0718" x="186.6816" y="205.4346">7.3</text><text fill="#000000" font-family="sans-serif" font-size="13" lengthAdjust="spacing" textLength="216.0298" x="208.7534" y="205.4346">getStationByNameID(stationNameID)</text><polygon fill="#181818" points="190.6816,237.9883,180.6816,241.9883,190.6816,245.9883,186.6816,241.9883" style="stroke:#181818;stroke-width:1.0;"/><line style="stroke:#181818;stroke-width:1.0;stroke-dasharray:2.0,2.0;" x1="184.6816" x2="520.3735" y1="241.9883" y2="241.9883"/><text fill="#000000" font-family="sans-serif" font-size="13" font-weight="bold" lengthAdjust="spacing" textLength="18.0718" x="196.6816" y="236.7256">7.4</text><text fill="#000000" font-family="sans-serif" font-size="13" lengthAdjust="spacing" textLength="80.9326" x="218.7534" y="236.7256">currentStation</text><polygon fill="#181818" points="407.2222,269.2793,417.2222,273.2793,407.2222,277.2793,411.2222,273.2793" style="stroke:#181818;stroke-width:1.0;"/><line style="stroke:#181818;stroke-width:1.0;" x1="179.6816" x2="413.2222" y1="273.2793" y2="273.2793"/><text fill="#000000" font-family="sans-serif" font-size="13" font-weight="bold" lengthAdjust="spacing" textLength="18.0718" x="186.6816" y="268.0166">7.5</text><text fill="#000000" font-family="sans-serif" font-size="13" lengthAdjust="spacing" textLength="106.939" x="208.7534" y="268.0166">getStationDetails()</text><polygon fill="#181818" points="190.6816,300.5703,180.6816,304.5703,190.6816,308.5703,186.6816,304.5703" style="stroke:#181818;stroke-width:1.0;"/><line style="stroke:#181818;stroke-width:1.0;stroke-dasharray:2.0,2.0;" x1="184.6816" x2="423.2222" y1="304.5703" y2="304.5703"/><text fill="#000000" font-family="sans-serif" font-size="13" font-weight="bold" lengthAdjust="spacing" textLength="18.0718" x="196.6816" y="299.3076">7.6</text><text fill="#000000" font-family="sans-serif" font-size="13" lengthAdjust="spacing" textLength="78.0381" x="218.7534" y="299.3076">stationDetails</text><polygon fill="#181818" points="11,338.8613,1,342.8613,11,346.8613,7,342.8613" style="stroke:#181818;stroke-width:1.0;"/><line style="stroke:#181818;stroke-width:1.0;stroke-dasharray:2.0,2.0;" x1="5" x2="168.6816" y1="342.8613" y2="342.8613"/><text fill="#000000" font-family="sans-serif" font-size="13" font-weight="bold" lengthAdjust="spacing" textLength="7.23" x="17" y="337.5986">8</text><text fill="#000000" font-family="sans-serif" font-size="13" lengthAdjust="spacing" textLength="78.0381" x="28.23" y="337.5986">stationDetails</text><!--SRC=[TLB1QiCm3BtxAqHFxI63dJR267Jj3eNIGfFT1aDBjDJKiOFjRFJlvoQkwvH4bpZMUzBJays9omOrrb0hgOgZLZM1rIqn4p8D5YUiABDdGQ2fi2Wh4GFC4KlrnsK5FoWCCUQkBIzuWzB2BFreAesbuwFbIgwKj5e9GNe6Q62L7xP3lEbnwtp_ATCi_7Hez_tAycM-sU-6fABLcgJry1knOuqoJ44IDLSNh3_suDNxRddOx1d3rYhPrj-auOcnvBNJce9GMFhgyvlM1GCNM5Z-YvRwiS17fLNRmDRn82FX32Htw9a14pTxU6JX_XANOk3wHzEdK97TOKsRzNmn00S9iLTm5r4E4ZyPfE37wUiEI2MDrXsLUNKGEf5-qBUpLpleCI4zxE1UToWTYHwkVahrRQsZaYDNhq-EB79XfjmTS_RUqM2ehpMfRQHMz1wUGu9a6SulINAtjckNVm00]--></g></svg>