<svg xmlns="http://www.w3.org/2000/svg" xmlns:xlink="http://www.w3.org/1999/xlink" contentStyleType="text/css" height="385px" preserveAspectRatio="none" style="width:431px;height:385px;background:#FFFFFF;" version="1.1" viewBox="0 0 431 385" width="431px" zoomAndPan="magnify"><defs/><g><rect fill="#FFFFFF" height="221.0371" style="stroke:#181818;stroke-width:1.0;" width="10" x="175.4897" y="90.5332"/><rect fill="#FFFFFF" height="31.291" style="stroke:#181818;stroke-width:1.0;" width="10" x="302.9927" y="148.1152"/><rect fill="#FFFFFF" height="31.291" style="stroke:#181818;stroke-width:1.0;" width="10" x="376.4131" y="210.6973"/><rect fill="none" height="144.4551" style="stroke:#000000;stroke-width:1.5;" width="342.709" x="82.5557" y="105.5332"/><line style="stroke:#181818;stroke-width:0.5;stroke-dasharray:5.0,5.0;" x1="179.5557" x2="179.5557" y1="57.2422" y2="329.5703"/><line style="stroke:#181818;stroke-width:0.5;stroke-dasharray:5.0,5.0;" x1="307.4238" x2="307.4238" y1="57.2422" y2="329.5703"/><line style="stroke:#181818;stroke-width:0.5;stroke-dasharray:5.0,5.0;" x1="380.5615" x2="380.5615" y1="57.2422" y2="329.5703"/><rect fill="#E3E3E3" height="32.6211" rx="2.5" ry="2.5" style="stroke:#181818;stroke-width:0.5;" width="175.8682" x="92.5557" y="23.6211"/><text fill="#000000" font-family="sans-serif" font-size="14" lengthAdjust="spacing" textLength="161.8682" x="99.5557" y="45.7285">:UpgradeStationController</text><rect fill="#E3E3E3" height="32.6211" rx="2.5" ry="2.5" style="stroke:#181818;stroke-width:0.5;" width="175.8682" x="92.5557" y="328.5703"/><text fill="#000000" font-family="sans-serif" font-size="14" lengthAdjust="spacing" textLength="161.8682" x="99.5557" y="350.6777">:UpgradeStationController</text><rect fill="#E3E3E3" height="51.2422" rx="2.5" ry="2.5" style="stroke:#181818;stroke-width:0.5;" width="59.1377" x="278.4238" y="5"/><text fill="#000000" font-family="sans-serif" font-size="14" lengthAdjust="spacing" textLength="45.1377" x="285.4238" y="27.1074">:station</text><text fill="#000000" font-family="sans-serif" font-size="14" lengthAdjust="spacing" textLength="43.5859" x="286.1997" y="45.7285">Station</text><rect fill="#E3E3E3" height="51.2422" rx="2.5" ry="2.5" style="stroke:#181818;stroke-width:0.5;" width="59.1377" x="278.4238" y="328.5703"/><text fill="#000000" font-family="sans-serif" font-size="14" lengthAdjust="spacing" textLength="45.1377" x="285.4238" y="350.6777">:station</text><text fill="#000000" font-family="sans-serif" font-size="14" lengthAdjust="spacing" textLength="43.5859" x="286.1997" y="369.2988">Station</text><rect fill="#E3E3E3" height="32.6211" rx="2.5" ry="2.5" style="stroke:#181818;stroke-width:0.5;" width="67.7031" x="347.5615" y="23.6211"/><text fill="#000000" font-family="sans-serif" font-size="14" lengthAdjust="spacing" textLength="53.7031" x="354.5615" y="45.7285">:Building</text><rect fill="#E3E3E3" height="32.6211" rx="2.5" ry="2.5" style="stroke:#181818;stroke-width:0.5;" width="67.7031" x="347.5615" y="328.5703"/><text fill="#000000" font-family="sans-serif" font-size="14" lengthAdjust="spacing" textLength="53.7031" x="354.5615" y="350.6777">:Building</text><rect fill="#FFFFFF" height="221.0371" style="stroke:#181818;stroke-width:1.0;" width="10" x="175.4897" y="90.5332"/><rect fill="#FFFFFF" height="31.291" style="stroke:#181818;stroke-width:1.0;" width="10" x="302.9927" y="148.1152"/><rect fill="#FFFFFF" height="31.291" style="stroke:#181818;stroke-width:1.0;" width="10" x="376.4131" y="210.6973"/><polygon fill="#181818" points="163.4897,86.5332,173.4897,90.5332,163.4897,94.5332,167.4897,90.5332" style="stroke:#181818;stroke-width:1.0;"/><line style="stroke:#181818;stroke-width:1.0;" x1="0" x2="169.4897" y1="90.5332" y2="90.5332"/><text fill="#000000" font-family="sans-serif" font-size="13" font-weight="bold" lengthAdjust="spacing" textLength="14.46" x="7" y="85.2705">15</text><text fill="#000000" font-family="sans-serif" font-size="13" lengthAdjust="spacing" textLength="138.0298" x="25.46" y="85.2705">getStationInfo(stationId)</text><path d="M82.5557,105.5332 L351.4312,105.5332 L351.4312,114.8242 L341.4312,124.8242 L82.5557,124.8242 L82.5557,105.5332 " fill="#EEEEEE" style="stroke:#000000;stroke-width:1.5;"/><rect fill="none" height="144.4551" style="stroke:#000000;stroke-width:1.5;" width="342.709" x="82.5557" y="105.5332"/><text fill="#000000" font-family="sans-serif" font-size="13" font-weight="bold" lengthAdjust="spacing" textLength="223.8755" x="97.5557" y="120.5615">Get station and building information</text><polygon fill="#181818" points="290.9927,144.1152,300.9927,148.1152,290.9927,152.1152,294.9927,148.1152" style="stroke:#181818;stroke-width:1.0;"/><line style="stroke:#181818;stroke-width:1.0;" x1="185.4897" x2="296.9927" y1="148.1152" y2="148.1152"/><text fill="#000000" font-family="sans-serif" font-size="13" font-weight="bold" lengthAdjust="spacing" textLength="25.3018" x="192.4897" y="142.8525">15.1</text><text fill="#000000" font-family="sans-serif" font-size="13" lengthAdjust="spacing" textLength="48.4136" x="221.7915" y="142.8525">getInfo()</text><polygon fill="#181818" points="196.4897,175.4063,186.4897,179.4063,196.4897,183.4063,192.4897,179.4063" style="stroke:#181818;stroke-width:1.0;"/><line style="stroke:#181818;stroke-width:1.0;stroke-dasharray:2.0,2.0;" x1="190.4897" x2="306.9927" y1="179.4063" y2="179.4063"/><text fill="#000000" font-family="sans-serif" font-size="13" font-weight="bold" lengthAdjust="spacing" textLength="25.3018" x="202.4897" y="174.1436">15.2</text><text fill="#000000" font-family="sans-serif" font-size="13" lengthAdjust="spacing" textLength="59.9854" x="231.7915" y="174.1436">stationInfo</text><polygon fill="#181818" points="364.4131,206.6973,374.4131,210.6973,364.4131,214.6973,368.4131,210.6973" style="stroke:#181818;stroke-width:1.0;"/><line style="stroke:#181818;stroke-width:1.0;" x1="185.4897" x2="370.4131" y1="210.6973" y2="210.6973"/><text fill="#000000" font-family="sans-serif" font-size="13" font-weight="bold" lengthAdjust="spacing" textLength="25.3018" x="192.4897" y="205.4346">15.3</text><text fill="#000000" font-family="sans-serif" font-size="13" lengthAdjust="spacing" textLength="48.4136" x="221.7915" y="205.4346">getInfo()</text><polygon fill="#181818" points="196.4897,237.9883,186.4897,241.9883,196.4897,245.9883,192.4897,241.9883" style="stroke:#181818;stroke-width:1.0;"/><line style="stroke:#181818;stroke-width:1.0;stroke-dasharray:2.0,2.0;" x1="190.4897" x2="380.4131" y1="241.9883" y2="241.9883"/><text fill="#000000" font-family="sans-serif" font-size="13" font-weight="bold" lengthAdjust="spacing" textLength="25.3018" x="202.4897" y="236.7256">15.4</text><text fill="#000000" font-family="sans-serif" font-size="13" lengthAdjust="spacing" textLength="66.498" x="231.7915" y="236.7256">buildingInfo</text><polygon fill="#181818" points="11,276.2793,1,280.2793,11,284.2793,7,280.2793" style="stroke:#181818;stroke-width:1.0;"/><line style="stroke:#181818;stroke-width:1.0;stroke-dasharray:2.0,2.0;" x1="5" x2="174.4897" y1="280.2793" y2="280.2793"/><text fill="#000000" font-family="sans-serif" font-size="13" font-weight="bold" lengthAdjust="spacing" textLength="14.46" x="17" y="275.0166">16</text><text fill="#000000" font-family="sans-serif" font-size="13" lengthAdjust="spacing" textLength="59.9854" x="35.46" y="275.0166">stationInfo</text><polygon fill="#181818" points="11,307.5703,1,311.5703,11,315.5703,7,311.5703" style="stroke:#181818;stroke-width:1.0;"/><line style="stroke:#181818;stroke-width:1.0;stroke-dasharray:2.0,2.0;" x1="5" x2="179.4897" y1="311.5703" y2="311.5703"/><text fill="#000000" font-family="sans-serif" font-size="13" font-weight="bold" lengthAdjust="spacing" textLength="14.46" x="17" y="306.3076">17</text><text fill="#000000" font-family="sans-serif" font-size="13" lengthAdjust="spacing" textLength="66.498" x="35.46" y="306.3076">buildingInfo</text><!--SRC=[XL0zJyCm4DtzAqwTw12a3Z1KY84ELIKcFZQMQtnrhJfsP3iW_ZsEOpj98y1Bb7VltiUvYzGjMcoWCThKPsiQ0cyxOgvCMgmlAEZLVoi2IxL7BTIKuCx8pPVK0awe734MO2zhsQBsiDg-jy8Y3_lefT4xexqrIf5T0JhOlRqyN_7TGFpGQIFo4dX5VUgaui4uKexfXp7ilD5TSoGBcpl6giTeimL1FcaUzCdS9Cq3NpEilVn4JqCU24zOqxMm9v-j0JKl7Y23W6s6J3rzPdcxYLZ_UZq80P98p13DruKIrxD_xZaTvW1LAUB65ZCcfuNG8acky6-KSi_fj1nW39EXlz8ijARtkeyeQHw_3rNrIyjnChDa4vz-_0C0]--></g></svg>