<svg xmlns="http://www.w3.org/2000/svg" xmlns:xlink="http://www.w3.org/1999/xlink" contentStyleType="text/css" height="1137px" preserveAspectRatio="none" style="width:671px;height:1137px;background:#FFFFFF;" version="1.1" viewBox="0 0 671 1137" width="671px" zoomAndPan="magnify"><title>System Sequence Diagram: US06 - Upgrade a selected station with a building</title><defs/><g><text fill="#000000" font-family="sans-serif" font-size="14" font-weight="bold" lengthAdjust="spacing" textLength="515.7988" x="75.2366" y="30.1074">System Sequence Diagram: US06 - Upgrade a selected station with a building</text><rect fill="#FFFFFF" height="902.7012" style="stroke:#181818;stroke-width:1.0;" width="10" x="22.8413" y="133.2422"/><rect fill="#FFFFFF" height="185.7461" style="stroke:#181818;stroke-width:1.0;" width="10" x="352.7827" y="156.5332"/><rect fill="#FFFFFF" height="142.125" style="stroke:#181818;stroke-width:1.0;" width="10" x="352.7827" y="373.5703"/><rect fill="#FFFFFF" height="142.125" style="stroke:#181818;stroke-width:1.0;" width="10" x="352.7827" y="546.9863"/><rect fill="#FFFFFF" height="142.125" style="stroke:#181818;stroke-width:1.0;" width="10" x="352.7827" y="720.4023"/><rect fill="#FFFFFF" height="142.125" style="stroke:#181818;stroke-width:1.0;" width="10" x="352.7827" y="893.8184"/><rect fill="#FFFFFF" height="79.543" style="stroke:#181818;stroke-width:1.0;" width="10" x="569.3379" y="231.4453"/><rect fill="#FFFFFF" height="79.543" style="stroke:#181818;stroke-width:1.0;" width="10" x="569.3379" y="404.8613"/><rect fill="#FFFFFF" height="79.543" style="stroke:#181818;stroke-width:1.0;" width="10" x="569.3379" y="578.2773"/><rect fill="#FFFFFF" height="79.543" style="stroke:#181818;stroke-width:1.0;" width="10" x="569.3379" y="751.6934"/><rect fill="#FFFFFF" height="79.543" style="stroke:#181818;stroke-width:1.0;" width="10" x="569.3379" y="925.1094"/><line style="stroke:#181818;stroke-width:0.5;stroke-dasharray:5.0,5.0;" x1="27" x2="27" y1="123.2422" y2="1053.9434"/><line style="stroke:#181818;stroke-width:0.5;stroke-dasharray:5.0,5.0;" x1="357.1934" x2="357.1934" y1="123.2422" y2="1053.9434"/><line style="stroke:#181818;stroke-width:0.5;stroke-dasharray:5.0,5.0;" x1="573.4038" x2="573.4038" y1="196.3438" y2="1053.9434"/><text fill="#000000" font-family="sans-serif" font-size="14" lengthAdjust="spacing" textLength="39.6826" x="5" y="119.7285">Player</text><ellipse cx="27.8413" cy="53.1211" fill="#E3E3E3" rx="8" ry="8" style="stroke:#181818;stroke-width:0.5;"/><path d="M27.8413,61.1211 L27.8413,88.1211 M14.8413,69.1211 L40.8413,69.1211 M27.8413,88.1211 L14.8413,103.1211 M27.8413,88.1211 L40.8413,103.1211 " fill="none" style="stroke:#181818;stroke-width:0.5;"/><text fill="#000000" font-family="sans-serif" font-size="14" lengthAdjust="spacing" textLength="39.6826" x="5" y="1068.0508">Player</text><ellipse cx="27.8413" cy="1080.0645" fill="#E3E3E3" rx="8" ry="8" style="stroke:#181818;stroke-width:0.5;"/><path d="M27.8413,1088.0645 L27.8413,1115.0645 M14.8413,1096.0645 L40.8413,1096.0645 M27.8413,1115.0645 L14.8413,1130.0645 M27.8413,1115.0645 L40.8413,1130.0645 " fill="none" style="stroke:#181818;stroke-width:0.5;"/><rect fill="#E3E3E3" height="32.6211" rx="2.5" ry="2.5" style="stroke:#181818;stroke-width:0.5;" width="129.1787" x="293.1934" y="89.6211"/><text fill="#000000" font-family="sans-serif" font-size="14" lengthAdjust="spacing" textLength="115.1787" x="300.1934" y="111.7285">:UpgradeStationUI</text><rect fill="#E3E3E3" height="32.6211" rx="2.5" ry="2.5" style="stroke:#181818;stroke-width:0.5;" width="129.1787" x="293.1934" y="1052.9434"/><text fill="#000000" font-family="sans-serif" font-size="14" lengthAdjust="spacing" textLength="115.1787" x="300.1934" y="1075.0508">:UpgradeStationUI</text><rect fill="#E3E3E3" height="32.6211" rx="2.5" ry="2.5" style="stroke:#181818;stroke-width:0.5;" width="175.8682" x="486.4038" y="1052.9434"/><text fill="#000000" font-family="sans-serif" font-size="14" lengthAdjust="spacing" textLength="161.8682" x="493.4038" y="1075.0508">:UpgradeStationController</text><rect fill="#FFFFFF" height="902.7012" style="stroke:#181818;stroke-width:1.0;" width="10" x="22.8413" y="133.2422"/><rect fill="#FFFFFF" height="185.7461" style="stroke:#181818;stroke-width:1.0;" width="10" x="352.7827" y="156.5332"/><rect fill="#FFFFFF" height="142.125" style="stroke:#181818;stroke-width:1.0;" width="10" x="352.7827" y="373.5703"/><rect fill="#FFFFFF" height="142.125" style="stroke:#181818;stroke-width:1.0;" width="10" x="352.7827" y="546.9863"/><rect fill="#FFFFFF" height="142.125" style="stroke:#181818;stroke-width:1.0;" width="10" x="352.7827" y="720.4023"/><rect fill="#FFFFFF" height="142.125" style="stroke:#181818;stroke-width:1.0;" width="10" x="352.7827" y="893.8184"/><rect fill="#FFFFFF" height="79.543" style="stroke:#181818;stroke-width:1.0;" width="10" x="569.3379" y="231.4453"/><rect fill="#FFFFFF" height="79.543" style="stroke:#181818;stroke-width:1.0;" width="10" x="569.3379" y="404.8613"/><rect fill="#FFFFFF" height="79.543" style="stroke:#181818;stroke-width:1.0;" width="10" x="569.3379" y="578.2773"/><rect fill="#FFFFFF" height="79.543" style="stroke:#181818;stroke-width:1.0;" width="10" x="569.3379" y="751.6934"/><rect fill="#FFFFFF" height="79.543" style="stroke:#181818;stroke-width:1.0;" width="10" x="569.3379" y="925.1094"/><polygon fill="#181818" points="340.7827,152.5332,350.7827,156.5332,340.7827,160.5332,344.7827,156.5332" style="stroke:#181818;stroke-width:1.0;"/><line style="stroke:#181818;stroke-width:1.0;" x1="32.8413" x2="346.7827" y1="156.5332" y2="156.5332"/><text fill="#000000" font-family="sans-serif" font-size="13" font-weight="bold" lengthAdjust="spacing" textLength="7.23" x="39.8413" y="151.2705">1</text><text fill="#000000" font-family="sans-serif" font-size="13" lengthAdjust="spacing" textLength="146.7007" x="51.0713" y="151.2705">Asks to upgrade a station</text><polygon fill="#181818" points="474.4038,183.8242,484.4038,187.8242,474.4038,191.8242,478.4038,187.8242" style="stroke:#181818;stroke-width:1.0;"/><line style="stroke:#181818;stroke-width:1.0;" x1="362.7827" x2="480.4038" y1="187.8242" y2="187.8242"/><text fill="#000000" font-family="sans-serif" font-size="13" font-weight="bold" lengthAdjust="spacing" textLength="7.23" x="369.7827" y="182.5615">2</text><text fill="#000000" font-family="sans-serif" font-size="13" lengthAdjust="spacing" textLength="44.7891" x="381.0127" y="182.5615">create()</text><rect fill="#E3E3E3" height="32.6211" rx="2.5" ry="2.5" style="stroke:#181818;stroke-width:0.5;" width="175.8682" x="486.4038" y="164.5332"/><text fill="#000000" font-family="sans-serif" font-size="14" lengthAdjust="spacing" textLength="161.8682" x="493.4038" y="186.6406">:UpgradeStationController</text><polygon fill="#181818" points="557.3379,227.4453,567.3379,231.4453,557.3379,235.4453,561.3379,231.4453" style="stroke:#181818;stroke-width:1.0;"/><line style="stroke:#181818;stroke-width:1.0;" x1="362.7827" x2="563.3379" y1="231.4453" y2="231.4453"/><text fill="#000000" font-family="sans-serif" font-size="13" font-weight="bold" lengthAdjust="spacing" textLength="7.23" x="369.7827" y="226.1826">3</text><text fill="#000000" font-family="sans-serif" font-size="13" lengthAdjust="spacing" textLength="135.0972" x="381.0127" y="226.1826">getListOfStationsDTO()</text><rect fill="none" height="43.252" style="stroke:#000000;stroke-width:1.5;" width="181.8682" x="483.4038" y="239.4453"/><path d="M483.4038,239.4453 L544.4038,239.4453 L544.4038,248.4453 L534.4038,258.4453 L483.4038,258.4453 L483.4038,239.4453 " fill="#EEEEEE" style="stroke:#000000;stroke-width:2.0;"/><text fill="#000000" font-family="sans-serif" font-size="13" font-weight="bold" lengthAdjust="spacing" textLength="16.6182" x="496.4038" y="255.4736">ref</text><text fill="#000000" font-family="sans-serif" font-size="12" lengthAdjust="spacing" textLength="113.373" x="517.6514" y="275.3945">Get StationsDTO List</text><polygon fill="#181818" points="373.7827,306.9883,363.7827,310.9883,373.7827,314.9883,369.7827,310.9883" style="stroke:#181818;stroke-width:1.0;"/><line style="stroke:#181818;stroke-width:1.0;stroke-dasharray:2.0,2.0;" x1="367.7827" x2="573.3379" y1="310.9883" y2="310.9883"/><text fill="#000000" font-family="sans-serif" font-size="13" font-weight="bold" lengthAdjust="spacing" textLength="7.23" x="379.7827" y="305.7256">4</text><text fill="#000000" font-family="sans-serif" font-size="13" lengthAdjust="spacing" textLength="83.8018" x="391.0127" y="305.7256">listStationDTO</text><polygon fill="#181818" points="43.8413,338.2793,33.8413,342.2793,43.8413,346.2793,39.8413,342.2793" style="stroke:#181818;stroke-width:1.0;"/><line style="stroke:#181818;stroke-width:1.0;stroke-dasharray:2.0,2.0;" x1="37.8413" x2="356.7827" y1="342.2793" y2="342.2793"/><text fill="#000000" font-family="sans-serif" font-size="13" font-weight="bold" lengthAdjust="spacing" textLength="7.23" x="49.8413" y="337.0166">5</text><text fill="#000000" font-family="sans-serif" font-size="13" lengthAdjust="spacing" textLength="197.9961" x="61.0713" y="337.0166">Shows the list of available stations</text><polygon fill="#181818" points="340.7827,369.5703,350.7827,373.5703,340.7827,377.5703,344.7827,373.5703" style="stroke:#181818;stroke-width:1.0;"/><line style="stroke:#181818;stroke-width:1.0;" x1="32.8413" x2="346.7827" y1="373.5703" y2="373.5703"/><text fill="#000000" font-family="sans-serif" font-size="13" font-weight="bold" lengthAdjust="spacing" textLength="7.23" x="39.8413" y="368.3076">6</text><text fill="#000000" font-family="sans-serif" font-size="13" lengthAdjust="spacing" textLength="95.3862" x="51.0713" y="368.3076">Selects a station</text><polygon fill="#181818" points="557.3379,400.8613,567.3379,404.8613,557.3379,408.8613,561.3379,404.8613" style="stroke:#181818;stroke-width:1.0;"/><line style="stroke:#181818;stroke-width:1.0;" x1="362.7827" x2="563.3379" y1="404.8613" y2="404.8613"/><text fill="#000000" font-family="sans-serif" font-size="13" font-weight="bold" lengthAdjust="spacing" textLength="7.23" x="369.7827" y="399.5986">7</text><text fill="#000000" font-family="sans-serif" font-size="13" lengthAdjust="spacing" textLength="139.4517" x="381.0127" y="399.5986">loadStation(stationDTO)</text><rect fill="none" height="43.252" style="stroke:#000000;stroke-width:1.5;" width="181.8682" x="483.4038" y="412.8613"/><path d="M483.4038,412.8613 L544.4038,412.8613 L544.4038,421.8613 L534.4038,431.8613 L483.4038,431.8613 L483.4038,412.8613 " fill="#EEEEEE" style="stroke:#000000;stroke-width:2.0;"/><text fill="#000000" font-family="sans-serif" font-size="13" font-weight="bold" lengthAdjust="spacing" textLength="16.6182" x="496.4038" y="428.8896">ref</text><text fill="#000000" font-family="sans-serif" font-size="12" lengthAdjust="spacing" textLength="117.4219" x="515.627" y="448.8105">Load Selected Station</text><polygon fill="#181818" points="373.7827,480.4043,363.7827,484.4043,373.7827,488.4043,369.7827,484.4043" style="stroke:#181818;stroke-width:1.0;"/><line style="stroke:#181818;stroke-width:1.0;stroke-dasharray:2.0,2.0;" x1="367.7827" x2="573.3379" y1="484.4043" y2="484.4043"/><text fill="#000000" font-family="sans-serif" font-size="13" font-weight="bold" lengthAdjust="spacing" textLength="7.23" x="379.7827" y="479.1416">8</text><text fill="#000000" font-family="sans-serif" font-size="13" lengthAdjust="spacing" textLength="78.0381" x="391.0127" y="479.1416">stationDetails</text><polygon fill="#181818" points="43.8413,511.6953,33.8413,515.6953,43.8413,519.6953,39.8413,515.6953" style="stroke:#181818;stroke-width:1.0;"/><line style="stroke:#181818;stroke-width:1.0;stroke-dasharray:2.0,2.0;" x1="37.8413" x2="356.7827" y1="515.6953" y2="515.6953"/><text fill="#000000" font-family="sans-serif" font-size="13" font-weight="bold" lengthAdjust="spacing" textLength="7.23" x="49.8413" y="510.4326">9</text><text fill="#000000" font-family="sans-serif" font-size="13" lengthAdjust="spacing" textLength="268.1187" x="61.0713" y="510.4326">Loads and displays the selected station details</text><polygon fill="#181818" points="340.7827,542.9863,350.7827,546.9863,340.7827,550.9863,344.7827,546.9863" style="stroke:#181818;stroke-width:1.0;"/><line style="stroke:#181818;stroke-width:1.0;" x1="32.8413" x2="346.7827" y1="546.9863" y2="546.9863"/><text fill="#000000" font-family="sans-serif" font-size="13" font-weight="bold" lengthAdjust="spacing" textLength="14.46" x="39.8413" y="541.7236">10</text><text fill="#000000" font-family="sans-serif" font-size="13" lengthAdjust="spacing" textLength="167.6353" x="58.3013" y="541.7236">Confirms the selected station</text><polygon fill="#181818" points="557.3379,574.2773,567.3379,578.2773,557.3379,582.2773,561.3379,578.2773" style="stroke:#181818;stroke-width:1.0;"/><line style="stroke:#181818;stroke-width:1.0;" x1="362.7827" x2="563.3379" y1="578.2773" y2="578.2773"/><text fill="#000000" font-family="sans-serif" font-size="13" font-weight="bold" lengthAdjust="spacing" textLength="14.46" x="369.7827" y="573.0146">11</text><text fill="#000000" font-family="sans-serif" font-size="13" lengthAdjust="spacing" textLength="166.1943" x="388.2427" y="573.0146">getListOfAvailableBuildings()</text><rect fill="none" height="43.252" style="stroke:#000000;stroke-width:1.5;" width="181.8682" x="483.4038" y="586.2773"/><path d="M483.4038,586.2773 L544.4038,586.2773 L544.4038,595.2773 L534.4038,605.2773 L483.4038,605.2773 L483.4038,586.2773 " fill="#EEEEEE" style="stroke:#000000;stroke-width:2.0;"/><text fill="#000000" font-family="sans-serif" font-size="13" font-weight="bold" lengthAdjust="spacing" textLength="16.6182" x="496.4038" y="602.3057">ref</text><text fill="#000000" font-family="sans-serif" font-size="12" lengthAdjust="spacing" textLength="152.0684" x="498.3037" y="622.2266">Get Available Building DTOs</text><polygon fill="#181818" points="373.7827,653.8203,363.7827,657.8203,373.7827,661.8203,369.7827,657.8203" style="stroke:#181818;stroke-width:1.0;"/><line style="stroke:#181818;stroke-width:1.0;stroke-dasharray:2.0,2.0;" x1="367.7827" x2="573.3379" y1="657.8203" y2="657.8203"/><text fill="#000000" font-family="sans-serif" font-size="13" font-weight="bold" lengthAdjust="spacing" textLength="14.46" x="379.7827" y="652.5576">12</text><text fill="#000000" font-family="sans-serif" font-size="13" lengthAdjust="spacing" textLength="89.5845" x="398.2427" y="652.5576">listBuildingDTO</text><polygon fill="#181818" points="43.8413,685.1113,33.8413,689.1113,43.8413,693.1113,39.8413,689.1113" style="stroke:#181818;stroke-width:1.0;"/><line style="stroke:#181818;stroke-width:1.0;stroke-dasharray:2.0,2.0;" x1="37.8413" x2="356.7827" y1="689.1113" y2="689.1113"/><text fill="#000000" font-family="sans-serif" font-size="13" font-weight="bold" lengthAdjust="spacing" textLength="14.46" x="49.8413" y="683.8486">13</text><text fill="#000000" font-family="sans-serif" font-size="13" lengthAdjust="spacing" textLength="274.6123" x="68.3013" y="683.8486">Shows the list of available buildings for upgrade</text><polygon fill="#181818" points="340.7827,716.4023,350.7827,720.4023,340.7827,724.4023,344.7827,720.4023" style="stroke:#181818;stroke-width:1.0;"/><line style="stroke:#181818;stroke-width:1.0;" x1="32.8413" x2="346.7827" y1="720.4023" y2="720.4023"/><text fill="#000000" font-family="sans-serif" font-size="13" font-weight="bold" lengthAdjust="spacing" textLength="14.46" x="39.8413" y="715.1396">14</text><text fill="#000000" font-family="sans-serif" font-size="13" lengthAdjust="spacing" textLength="101.8989" x="58.3013" y="715.1396">Selects a building</text><polygon fill="#181818" points="557.3379,747.6934,567.3379,751.6934,557.3379,755.6934,561.3379,751.6934" style="stroke:#181818;stroke-width:1.0;"/><line style="stroke:#181818;stroke-width:1.0;" x1="362.7827" x2="563.3379" y1="751.6934" y2="751.6934"/><text fill="#000000" font-family="sans-serif" font-size="13" font-weight="bold" lengthAdjust="spacing" textLength="14.46" x="369.7827" y="746.4307">15</text><text fill="#000000" font-family="sans-serif" font-size="13" lengthAdjust="spacing" textLength="166.9243" x="388.2427" y="746.4307">getBuildingInfo(buildingDTO)</text><rect fill="none" height="43.252" style="stroke:#000000;stroke-width:1.5;" width="181.8682" x="483.4038" y="759.6934"/><path d="M483.4038,759.6934 L544.4038,759.6934 L544.4038,768.6934 L534.4038,778.6934 L483.4038,778.6934 L483.4038,759.6934 " fill="#EEEEEE" style="stroke:#000000;stroke-width:2.0;"/><text fill="#000000" font-family="sans-serif" font-size="13" font-weight="bold" lengthAdjust="spacing" textLength="16.6182" x="496.4038" y="775.7217">ref</text><text fill="#000000" font-family="sans-serif" font-size="12" lengthAdjust="spacing" textLength="88.7227" x="529.9766" y="795.6426">Get Building Info</text><polygon fill="#181818" points="373.7827,827.2363,363.7827,831.2363,373.7827,835.2363,369.7827,831.2363" style="stroke:#181818;stroke-width:1.0;"/><line style="stroke:#181818;stroke-width:1.0;stroke-dasharray:2.0,2.0;" x1="367.7827" x2="573.3379" y1="831.2363" y2="831.2363"/><text fill="#000000" font-family="sans-serif" font-size="13" font-weight="bold" lengthAdjust="spacing" textLength="14.46" x="379.7827" y="825.9736">16</text><text fill="#000000" font-family="sans-serif" font-size="13" lengthAdjust="spacing" textLength="84.5508" x="398.2427" y="825.9736">buildingDetails</text><polygon fill="#181818" points="43.8413,858.5273,33.8413,862.5273,43.8413,866.5273,39.8413,862.5273" style="stroke:#181818;stroke-width:1.0;"/><line style="stroke:#181818;stroke-width:1.0;stroke-dasharray:2.0,2.0;" x1="37.8413" x2="356.7827" y1="862.5273" y2="862.5273"/><text fill="#000000" font-family="sans-serif" font-size="13" font-weight="bold" lengthAdjust="spacing" textLength="14.46" x="49.8413" y="857.2646">17</text><text fill="#000000" font-family="sans-serif" font-size="13" lengthAdjust="spacing" textLength="277.4814" x="68.3013" y="857.2646">Shows building details and asks for confirmation</text><polygon fill="#181818" points="340.7827,889.8184,350.7827,893.8184,340.7827,897.8184,344.7827,893.8184" style="stroke:#181818;stroke-width:1.0;"/><line style="stroke:#181818;stroke-width:1.0;" x1="32.8413" x2="346.7827" y1="893.8184" y2="893.8184"/><text fill="#000000" font-family="sans-serif" font-size="13" font-weight="bold" lengthAdjust="spacing" textLength="14.46" x="39.8413" y="888.5557">18</text><text fill="#000000" font-family="sans-serif" font-size="13" lengthAdjust="spacing" textLength="125.0107" x="58.3013" y="888.5557">Confirms the upgrade</text><polygon fill="#181818" points="557.3379,921.1094,567.3379,925.1094,557.3379,929.1094,561.3379,925.1094" style="stroke:#181818;stroke-width:1.0;"/><line style="stroke:#181818;stroke-width:1.0;" x1="362.7827" x2="563.3379" y1="925.1094" y2="925.1094"/><text fill="#000000" font-family="sans-serif" font-size="13" font-weight="bold" lengthAdjust="spacing" textLength="14.46" x="369.7827" y="919.8467">19</text><text fill="#000000" font-family="sans-serif" font-size="13" lengthAdjust="spacing" textLength="169.0952" x="388.2427" y="919.8467">upgradeStation(buildingDTO)</text><rect fill="none" height="43.252" style="stroke:#000000;stroke-width:1.5;" width="181.8682" x="483.4038" y="933.1094"/><path d="M483.4038,933.1094 L544.4038,933.1094 L544.4038,942.1094 L534.4038,952.1094 L483.4038,952.1094 L483.4038,933.1094 " fill="#EEEEEE" style="stroke:#000000;stroke-width:2.0;"/><text fill="#000000" font-family="sans-serif" font-size="13" font-weight="bold" lengthAdjust="spacing" textLength="16.6182" x="496.4038" y="949.1377">ref</text><text fill="#000000" font-family="sans-serif" font-size="12" lengthAdjust="spacing" textLength="86.7246" x="530.9756" y="969.0586">Upgrade Station</text><polygon fill="#181818" points="373.7827,1000.6523,363.7827,1004.6523,373.7827,1008.6523,369.7827,1004.6523" style="stroke:#181818;stroke-width:1.0;"/><line style="stroke:#181818;stroke-width:1.0;stroke-dasharray:2.0,2.0;" x1="367.7827" x2="573.3379" y1="1004.6523" y2="1004.6523"/><text fill="#000000" font-family="sans-serif" font-size="13" font-weight="bold" lengthAdjust="spacing" textLength="14.46" x="379.7827" y="999.3896">20</text><text fill="#000000" font-family="sans-serif" font-size="13" lengthAdjust="spacing" textLength="46.96" x="398.2427" y="999.3896">success</text><polygon fill="#181818" points="38.8413,1031.9434,28.8413,1035.9434,38.8413,1039.9434,34.8413,1035.9434" style="stroke:#181818;stroke-width:1.0;"/><line style="stroke:#181818;stroke-width:1.0;stroke-dasharray:2.0,2.0;" x1="32.8413" x2="356.7827" y1="1035.9434" y2="1035.9434"/><text fill="#000000" font-family="sans-serif" font-size="13" font-weight="bold" lengthAdjust="spacing" textLength="14.46" x="44.8413" y="1030.6807">21</text><text fill="#000000" font-family="sans-serif" font-size="13" lengthAdjust="spacing" textLength="156.0571" x="63.3013" y="1030.6807">Displays success message</text><!--SRC=[bLN1Rk8m4BtdAqQSs4f8Uze3XqfiMQsGa5ervR17aqmI2yTEFGw8lzz9OeSGe8KBAFQyD_EUdnFQILq9AqeeZJP9OKs9u6oD4VKxbKXs8iVO7HM2nSG9dQjX0HKYDGUfSyY48emYKJkZwtABDegST0oBZ-ImX1W_QzG9mbAAdA5psCG_Vy4CDXK_fWW221Mtm1J82IUDXeDq1QzlQwbIxi7iYJCM9czA7D5EG12yhHV__hn7F8sJYQo4TZ2PUyguezcisihDwikg5wETDKfvtfUFztNRJ-w5mz0cwlvXzinqC8S5xGYSWVgaeMCx8RbjnBMCQ2YVdXYLMEITwO_1Eg_cwDQIt6lc1wBbnolNz4JjH1OpC7kq0VGN7GpgeM68shrPc57naY_XYYZ5SyPs2AxrokOG5-R0eWfiaM0o47iXbTZoMNfrD6Hf18viYTk3f1jsdAbMHgH-kYdrKtudUyqetuNZul4ZtO4D7KzF5xh7iXjAdbYda4ggE62T1nUPJ2_vhZZ0QSgaBQzpt7QZpy0YMFxRPv_kYa8FWu03TfEk92BiNul48ua8TvCWuvlfxy7TyUXlzbUEX55NEZFJxMdkUmpfRMZ08njwgZiJqjaGK248RMH4ynve34YwS- -E-O681EDk-b2VlQmUiI6yNs_SaZf9aBuNlmoNmWEWv1_-D8n53Xuxx7y0]--></g></svg>