<svg xmlns="http://www.w3.org/2000/svg" xmlns:xlink="http://www.w3.org/1999/xlink" contentStyleType="text/css" height="539px" preserveAspectRatio="none" style="width:543px;height:539px;background:#FFFFFF;" version="1.1" viewBox="0 0 543 539" width="543px" zoomAndPan="magnify"><title>System Sequence Diagram: US06 - Upgrade a selected station with a building</title><defs/><g><text fill="#000000" font-family="sans-serif" font-size="14" font-weight="bold" lengthAdjust="spacing" textLength="515.7988" x="10" y="30.1074">System Sequence Diagram: US06 - Upgrade a selected station with a building</text><rect fill="#FFFFFF" height="304.9102" style="stroke:#181818;stroke-width:1.0;" width="10" x="97.323" y="133.2422"/><rect fill="#FFFFFF" height="31.291" style="stroke:#181818;stroke-width:1.0;" width="10" x="420.0344" y="156.5332"/><rect fill="#FFFFFF" height="31.291" style="stroke:#181818;stroke-width:1.0;" width="10" x="420.0344" y="219.1152"/><rect fill="#FFFFFF" height="31.291" style="stroke:#181818;stroke-width:1.0;" width="10" x="420.0344" y="281.6973"/><rect fill="#FFFFFF" height="31.291" style="stroke:#181818;stroke-width:1.0;" width="10" x="420.0344" y="344.2793"/><rect fill="#FFFFFF" height="31.291" style="stroke:#181818;stroke-width:1.0;" width="10" x="420.0344" y="406.8613"/><line style="stroke:#181818;stroke-width:0.5;stroke-dasharray:5.0,5.0;" x1="101.4817" x2="101.4817" y1="123.2422" y2="456.1523"/><line style="stroke:#181818;stroke-width:0.5;stroke-dasharray:5.0,5.0;" x1="424.7517" x2="424.7517" y1="123.2422" y2="456.1523"/><text fill="#000000" font-family="sans-serif" font-size="14" lengthAdjust="spacing" textLength="39.6826" x="79.4817" y="119.7285">Player</text><ellipse cx="102.323" cy="53.1211" fill="#E3E3E3" rx="8" ry="8" style="stroke:#181818;stroke-width:0.5;"/><path d="M102.323,61.1211 L102.323,88.1211 M89.323,69.1211 L115.323,69.1211 M102.323,88.1211 L89.323,103.1211 M102.323,88.1211 L115.323,103.1211 " fill="none" style="stroke:#181818;stroke-width:0.5;"/><text fill="#000000" font-family="sans-serif" font-size="14" lengthAdjust="spacing" textLength="39.6826" x="79.4817" y="470.2598">Player</text><ellipse cx="102.323" cy="482.2734" fill="#E3E3E3" rx="8" ry="8" style="stroke:#181818;stroke-width:0.5;"/><path d="M102.323,490.2734 L102.323,517.2734 M89.323,498.2734 L115.323,498.2734 M102.323,517.2734 L89.323,532.2734 M102.323,517.2734 L115.323,532.2734 " fill="none" style="stroke:#181818;stroke-width:0.5;"/><rect fill="#E3E3E3" height="32.6211" rx="2.5" ry="2.5" style="stroke:#181818;stroke-width:0.5;" width="64.5654" x="392.7517" y="89.6211"/><text fill="#000000" font-family="sans-serif" font-size="14" lengthAdjust="spacing" textLength="50.5654" x="399.7517" y="111.7285">:System</text><rect fill="#E3E3E3" height="32.6211" rx="2.5" ry="2.5" style="stroke:#181818;stroke-width:0.5;" width="64.5654" x="392.7517" y="455.1523"/><text fill="#000000" font-family="sans-serif" font-size="14" lengthAdjust="spacing" textLength="50.5654" x="399.7517" y="477.2598">:System</text><rect fill="#FFFFFF" height="304.9102" style="stroke:#181818;stroke-width:1.0;" width="10" x="97.323" y="133.2422"/><rect fill="#FFFFFF" height="31.291" style="stroke:#181818;stroke-width:1.0;" width="10" x="420.0344" y="156.5332"/><rect fill="#FFFFFF" height="31.291" style="stroke:#181818;stroke-width:1.0;" width="10" x="420.0344" y="219.1152"/><rect fill="#FFFFFF" height="31.291" style="stroke:#181818;stroke-width:1.0;" width="10" x="420.0344" y="281.6973"/><rect fill="#FFFFFF" height="31.291" style="stroke:#181818;stroke-width:1.0;" width="10" x="420.0344" y="344.2793"/><rect fill="#FFFFFF" height="31.291" style="stroke:#181818;stroke-width:1.0;" width="10" x="420.0344" y="406.8613"/><polygon fill="#181818" points="408.0344,152.5332,418.0344,156.5332,408.0344,160.5332,412.0344,156.5332" style="stroke:#181818;stroke-width:1.0;"/><line style="stroke:#181818;stroke-width:1.0;" x1="107.323" x2="414.0344" y1="156.5332" y2="156.5332"/><text fill="#000000" font-family="sans-serif" font-size="13" font-weight="bold" lengthAdjust="spacing" textLength="7.23" x="114.323" y="151.2705">1</text><text fill="#000000" font-family="sans-serif" font-size="13" lengthAdjust="spacing" textLength="146.7007" x="125.553" y="151.2705">Asks to upgrade a station</text><polygon fill="#181818" points="118.323,183.8242,108.323,187.8242,118.323,191.8242,114.323,187.8242" style="stroke:#181818;stroke-width:1.0;"/><line style="stroke:#181818;stroke-width:1.0;stroke-dasharray:2.0,2.0;" x1="112.323" x2="424.0344" y1="187.8242" y2="187.8242"/><text fill="#000000" font-family="sans-serif" font-size="13" font-weight="bold" lengthAdjust="spacing" textLength="7.23" x="124.323" y="182.5615">2</text><text fill="#000000" font-family="sans-serif" font-size="13" lengthAdjust="spacing" textLength="197.9961" x="135.553" y="182.5615">Shows the list of available stations</text><polygon fill="#181818" points="408.0344,215.1152,418.0344,219.1152,408.0344,223.1152,412.0344,219.1152" style="stroke:#181818;stroke-width:1.0;"/><line style="stroke:#181818;stroke-width:1.0;" x1="107.323" x2="414.0344" y1="219.1152" y2="219.1152"/><text fill="#000000" font-family="sans-serif" font-size="13" font-weight="bold" lengthAdjust="spacing" textLength="7.23" x="114.323" y="213.8525">3</text><text fill="#000000" font-family="sans-serif" font-size="13" lengthAdjust="spacing" textLength="95.3862" x="125.553" y="213.8525">Selects a station</text><polygon fill="#181818" points="118.323,246.4063,108.323,250.4063,118.323,254.4063,114.323,250.4063" style="stroke:#181818;stroke-width:1.0;"/><line style="stroke:#181818;stroke-width:1.0;stroke-dasharray:2.0,2.0;" x1="112.323" x2="424.0344" y1="250.4063" y2="250.4063"/><text fill="#000000" font-family="sans-serif" font-size="13" font-weight="bold" lengthAdjust="spacing" textLength="7.23" x="124.323" y="245.1436">4</text><text fill="#000000" font-family="sans-serif" font-size="13" lengthAdjust="spacing" textLength="268.1187" x="135.553" y="245.1436">Loads and displays the selected station details</text><polygon fill="#181818" points="408.0344,277.6973,418.0344,281.6973,408.0344,285.6973,412.0344,281.6973" style="stroke:#181818;stroke-width:1.0;"/><line style="stroke:#181818;stroke-width:1.0;" x1="107.323" x2="414.0344" y1="281.6973" y2="281.6973"/><text fill="#000000" font-family="sans-serif" font-size="13" font-weight="bold" lengthAdjust="spacing" textLength="7.23" x="114.323" y="276.4346">5</text><text fill="#000000" font-family="sans-serif" font-size="13" lengthAdjust="spacing" textLength="167.6353" x="125.553" y="276.4346">Confirms the selected station</text><polygon fill="#181818" points="118.323,308.9883,108.323,312.9883,118.323,316.9883,114.323,312.9883" style="stroke:#181818;stroke-width:1.0;"/><line style="stroke:#181818;stroke-width:1.0;stroke-dasharray:2.0,2.0;" x1="112.323" x2="424.0344" y1="312.9883" y2="312.9883"/><text fill="#000000" font-family="sans-serif" font-size="13" font-weight="bold" lengthAdjust="spacing" textLength="7.23" x="124.323" y="307.7256">6</text><text fill="#000000" font-family="sans-serif" font-size="13" lengthAdjust="spacing" textLength="274.6123" x="135.553" y="307.7256">Shows the list of available buildings for upgrade</text><polygon fill="#181818" points="408.0344,340.2793,418.0344,344.2793,408.0344,348.2793,412.0344,344.2793" style="stroke:#181818;stroke-width:1.0;"/><line style="stroke:#181818;stroke-width:1.0;" x1="107.323" x2="414.0344" y1="344.2793" y2="344.2793"/><text fill="#000000" font-family="sans-serif" font-size="13" font-weight="bold" lengthAdjust="spacing" textLength="7.23" x="114.323" y="339.0166">7</text><text fill="#000000" font-family="sans-serif" font-size="13" lengthAdjust="spacing" textLength="101.8989" x="125.553" y="339.0166">Selects a building</text><polygon fill="#181818" points="118.323,371.5703,108.323,375.5703,118.323,379.5703,114.323,375.5703" style="stroke:#181818;stroke-width:1.0;"/><line style="stroke:#181818;stroke-width:1.0;stroke-dasharray:2.0,2.0;" x1="112.323" x2="424.0344" y1="375.5703" y2="375.5703"/><text fill="#000000" font-family="sans-serif" font-size="13" font-weight="bold" lengthAdjust="spacing" textLength="7.23" x="124.323" y="370.3076">8</text><text fill="#000000" font-family="sans-serif" font-size="13" lengthAdjust="spacing" textLength="277.4814" x="135.553" y="370.3076">Shows building details and asks for confirmation</text><polygon fill="#181818" points="408.0344,402.8613,418.0344,406.8613,408.0344,410.8613,412.0344,406.8613" style="stroke:#181818;stroke-width:1.0;"/><line style="stroke:#181818;stroke-width:1.0;" x1="107.323" x2="414.0344" y1="406.8613" y2="406.8613"/><text fill="#000000" font-family="sans-serif" font-size="13" font-weight="bold" lengthAdjust="spacing" textLength="7.23" x="114.323" y="401.5986">9</text><text fill="#000000" font-family="sans-serif" font-size="13" lengthAdjust="spacing" textLength="125.0107" x="125.553" y="401.5986">Confirms the upgrade</text><polygon fill="#181818" points="113.323,434.1523,103.323,438.1523,113.323,442.1523,109.323,438.1523" style="stroke:#181818;stroke-width:1.0;"/><line style="stroke:#181818;stroke-width:1.0;stroke-dasharray:2.0,2.0;" x1="107.323" x2="424.0344" y1="438.1523" y2="438.1523"/><text fill="#000000" font-family="sans-serif" font-size="13" font-weight="bold" lengthAdjust="spacing" textLength="14.46" x="119.323" y="432.8896">10</text><text fill="#000000" font-family="sans-serif" font-size="13" lengthAdjust="spacing" textLength="156.0571" x="137.783" y="432.8896">Displays success message</text><!--SRC=[fPCzRiCm38LtduB87g1J1my5YcRiKC3e0HY9jeNennNf1Bbz6TbEWZP3qYwsJEaZ7nzbthauOCO08SLa-fm2WUIHAZxl36Xss54ZHq-GoGZ6pbyVu1vjEhZOGOkUgQfmb1J7iALSLU94iUR8GW4Q-Xef6eADmqxH6ZwRfsTOm-UWdvO0WSbh2RB0Wk9IX8EJNkFRqNchDJIxaPHXzU7nI7a5o32KPQLgn1atO1HOrLF9iizbMKYtHw4pK5wmVfbFG0sll6EG1ED5qAJZ0i_PPcIjz9odXgPF1yLx0kzO8BM0UtGUjsh1d8ShIpzJtHBI51_uGG7l2QqoqO9rV8fEQdwPQabKrxrQtb9iNGwtS_tRc6Mo3AtETJR-OPVEz-D-EGkok55ymzC5E0anKzDJZt_mQMda7ZsRPLWy6aFC4FIX_zojkbUXYVy6]--></g></svg>