<svg xmlns="http://www.w3.org/2000/svg" xmlns:xlink="http://www.w3.org/1999/xlink" contentStyleType="text/css" height="1429px" preserveAspectRatio="none" style="width:749px;height:1429px;background:#FFFFFF;" version="1.1" viewBox="0 0 749 1429" width="749px" zoomAndPan="magnify"><title>Domain Model - US10 : Assign a train to a route</title><defs/><g><text fill="#000000" font-family="sans-serif" font-size="14" font-weight="bold" lengthAdjust="spacing" textLength="315.8203" x="209.8062" y="25.1074">Domain Model - US10 : Assign a train to a route</text><!--class Player--><g id="elem_Player"><rect
        fill="#ADD8E6" height="92.4844" id="Player" rx="2.5" ry="2.5" style="stroke:#0000FF;stroke-width:0.5;" width="74.2549" x="199" y="46.6211"/><text fill="#000000" font-family="sans-serif" font-size="14" lengthAdjust="spacing" textLength="39.6826" x="216.2861" y="66.7285">Player</text><line style="stroke:#0000FF;stroke-width:0.5;" x1="200" x2="272.2549" y1="75.2422" y2="75.2422"/><text fill="#000000" font-family="sans-serif" font-size="14" lengthAdjust="spacing" textLength="62.2549" x="205" y="94.3496">username</text><text fill="#000000" font-family="sans-serif" font-size="14" lengthAdjust="spacing" textLength="59.917" x="205" y="112.9707">password</text><text fill="#000000" font-family="sans-serif" font-size="14" lengthAdjust="spacing" textLength="42.8203" x="205" y="131.5918">budget</text></g><!--class City--><g id="elem_City"><rect codeLine="23" fill="#ADD8E6" height="129.7266" id="City" rx="2.5" ry="2.5" style="stroke:#0000FF;stroke-width:0.5;" width="116.2959" x="7" y="1065.6211"/><text fill="#000000" font-family="sans-serif" font-size="14" lengthAdjust="spacing" textLength="24.1104" x="53.0928" y="1085.7285">City</text><line style="stroke:#0000FF;stroke-width:0.5;" x1="8" x2="122.2959" y1="1094.2422" y2="1094.2422"/><text fill="#000000" font-family="sans-serif" font-size="14" lengthAdjust="spacing" textLength="49.0205" x="13" y="1113.3496">nameID</text><text fill="#000000" font-family="sans-serif" font-size="14" lengthAdjust="spacing" textLength="48.2549" x="13" y="1131.9707">position</text><text fill="#000000" font-family="sans-serif" font-size="14" lengthAdjust="spacing" textLength="79.3789" x="13" y="1150.5918">houseBlocks</text><text fill="#000000" font-family="sans-serif" font-size="14" lengthAdjust="spacing" textLength="90.2822" x="13" y="1169.2129">suppliedCargo</text><text fill="#000000" font-family="sans-serif" font-size="14" lengthAdjust="spacing" textLength="104.2959" x="13" y="1187.834">demandedCargo</text></g><!--class Industry--><g id="elem_Industry"><rect codeLine="31" fill="#ADD8E6" height="204.2109" id="Industry" rx="2.5" ry="2.5" style="stroke:#0000FF;stroke-width:0.5;" width="116.2959" x="168" y="1028.6211"/><text fill="#000000" font-family="sans-serif" font-size="14" lengthAdjust="spacing" textLength="49.7998" x="201.248" y="1048.7285">Industry</text><line style="stroke:#0000FF;stroke-width:0.5;" x1="169" x2="283.2959" y1="1057.2422" y2="1057.2422"/><text fill="#000000" font-family="sans-serif" font-size="14" lengthAdjust="spacing" textLength="49.0205" x="174" y="1076.3496">nameID</text><text fill="#000000" font-family="sans-serif" font-size="14" lengthAdjust="spacing" textLength="48.2549" x="174" y="1094.9707">position</text><text fill="#000000" font-family="sans-serif" font-size="14" lengthAdjust="spacing" textLength="38.124" x="174" y="1113.5918">sector</text><text fill="#000000" font-family="sans-serif" font-size="14" lengthAdjust="spacing" textLength="26.4619" x="174" y="1132.2129">type</text><text fill="#000000" font-family="sans-serif" font-size="14" lengthAdjust="spacing" textLength="67.7031" x="174" y="1150.834">description</text><text fill="#000000" font-family="sans-serif" font-size="14" lengthAdjust="spacing" textLength="94.1582" x="174" y="1169.4551">availabilityYear</text><text fill="#000000" font-family="sans-serif" font-size="14" lengthAdjust="spacing" textLength="94.9512" x="174" y="1188.0762">productionRate</text><text fill="#000000" font-family="sans-serif" font-size="14" lengthAdjust="spacing" textLength="90.2822" x="174" y="1206.6973">suppliedCargo</text><text fill="#000000" font-family="sans-serif" font-size="14" lengthAdjust="spacing" textLength="104.2959" x="174" y="1225.3184">demandedCargo</text></g><!--class Station--><g id="elem_Station"><rect codeLine="43" fill="#ADD8E6" height="222.832" id="Station" rx="2.5" ry="2.5" style="stroke:#0000FF;stroke-width:0.5;" width="113.165" x="169.5" y="726.6211"/><text fill="#000000" font-family="sans-serif" font-size="14" lengthAdjust="spacing" textLength="43.5859" x="204.2896" y="746.7285">Station</text><line style="stroke:#0000FF;stroke-width:0.5;" x1="170.5" x2="281.665" y1="755.2422" y2="755.2422"/><text fill="#000000" font-family="sans-serif" font-size="14" lengthAdjust="spacing" textLength="49.0205" x="175.5" y="774.3496">nameID</text><text fill="#000000" font-family="sans-serif" font-size="14" lengthAdjust="spacing" textLength="48.2549" x="175.5" y="792.9707">position</text><text fill="#000000" font-family="sans-serif" font-size="14" lengthAdjust="spacing" textLength="26.4619" x="175.5" y="811.5918">type</text><text fill="#000000" font-family="sans-serif" font-size="14" lengthAdjust="spacing" textLength="38.1309" x="175.5" y="830.2129">radius</text><text fill="#000000" font-family="sans-serif" font-size="14" lengthAdjust="spacing" textLength="25.6758" x="175.5" y="848.834">cost</text><text fill="#000000" font-family="sans-serif" font-size="14" lengthAdjust="spacing" textLength="101.165" x="175.5" y="867.4551">storageCapacity</text><text fill="#000000" font-family="sans-serif" font-size="14" lengthAdjust="spacing" textLength="70.8203" x="175.5" y="886.0762">centerPoint</text><text fill="#000000" font-family="sans-serif" font-size="14" lengthAdjust="spacing" textLength="79.3857" x="175.5" y="904.6973">buildingSlots</text><text fill="#000000" font-family="sans-serif" font-size="14" lengthAdjust="spacing" textLength="93.3926" x="175.5" y="923.3184">availableCargo</text><text fill="#000000" font-family="sans-serif" font-size="14" lengthAdjust="spacing" textLength="100.3994" x="175.5" y="941.9395">requestedCargo</text></g><!--class RailwayLine--><g id="elem_RailwayLine"><rect codeLine="56" fill="#ADD8E6" height="92.4844" id="RailwayLine" rx="2.5" ry="2.5" style="stroke:#0000FF;stroke-width:0.5;" width="81.4824" x="185.5" y="555.6211"/><text fill="#000000" font-family="sans-serif" font-size="14" lengthAdjust="spacing" textLength="75.4824" x="188.5" y="575.7285">RailwayLine</text><line style="stroke:#0000FF;stroke-width:0.5;" x1="186.5" x2="265.9824" y1="584.2422" y2="584.2422"/><text fill="#000000" font-family="sans-serif" font-size="14" lengthAdjust="spacing" textLength="38.1445" x="191.5" y="603.3496">length</text><text fill="#000000" font-family="sans-serif" font-size="14" lengthAdjust="spacing" textLength="61.4619" x="191.5" y="621.9707">trackType</text><text fill="#000000" font-family="sans-serif" font-size="14" lengthAdjust="spacing" textLength="25.6758" x="191.5" y="640.5918">cost</text></g><!--class Locomotive--><g id="elem_Locomotive"><rect codeLine="62" fill="#ADD8E6" height="222.832" id="Locomotive" rx="2.5" ry="2.5" style="stroke:#0000FF;stroke-width:0.5;" width="124.0615" x="473" y="217.6211"/><text fill="#000000" font-family="sans-serif" font-size="14" lengthAdjust="spacing" textLength="71.5928" x="499.2344" y="237.7285">Locomotive</text><line style="stroke:#0000FF;stroke-width:0.5;" x1="474" x2="596.0615" y1="246.2422" y2="246.2422"/><text fill="#000000" font-family="sans-serif" font-size="14" lengthAdjust="spacing" textLength="49.0205" x="479" y="265.3496">nameID</text><text fill="#000000" font-family="sans-serif" font-size="14" lengthAdjust="spacing" textLength="26.4619" x="479" y="283.9707">type</text><text fill="#000000" font-family="sans-serif" font-size="14" lengthAdjust="spacing" textLength="38.1309" x="479" y="302.5918">power</text><text fill="#000000" font-family="sans-serif" font-size="14" lengthAdjust="spacing" textLength="75.4893" x="479" y="321.2129">acceleration</text><text fill="#000000" font-family="sans-serif" font-size="14" lengthAdjust="spacing" textLength="59.9443" x="479" y="339.834">topSpeed</text><text fill="#000000" font-family="sans-serif" font-size="14" lengthAdjust="spacing" textLength="56.7998" x="479" y="358.4551">startYear</text><text fill="#000000" font-family="sans-serif" font-size="14" lengthAdjust="spacing" textLength="51.3584" x="479" y="377.0762">fuelCost</text><text fill="#000000" font-family="sans-serif" font-size="14" lengthAdjust="spacing" textLength="94.1582" x="479" y="395.6973">availabilityYear</text><text fill="#000000" font-family="sans-serif" font-size="14" lengthAdjust="spacing" textLength="98.0479" x="479" y="414.3184">acquisitionPrice</text><text fill="#000000" font-family="sans-serif" font-size="14" lengthAdjust="spacing" textLength="112.0615" x="479" y="432.9395">maintenancePrice</text></g><!--class Route--><g id="elem_Route"><rect codeLine="75" fill="#ADD8E6" height="111.1055" id="Route" rx="2.5" ry="2.5" style="stroke:#0000FF;stroke-width:0.5;" width="116.3027" x="293" y="273.6211"/><text fill="#000000" font-family="sans-serif" font-size="14" lengthAdjust="spacing" textLength="37.3584" x="332.4722" y="293.7285">Route</text><line style="stroke:#0000FF;stroke-width:0.5;" x1="294" x2="408.3027" y1="302.2422" y2="302.2422"/><text fill="#000000" font-family="sans-serif" font-size="14" lengthAdjust="spacing" textLength="49.0205" x="299" y="321.3496">nameID</text><text fill="#000000" font-family="sans-serif" font-size="14" lengthAdjust="spacing" textLength="104.3027" x="299" y="339.9707">stationSequence</text><text fill="#000000" font-family="sans-serif" font-size="14" lengthAdjust="spacing" textLength="56.8066" x="299" y="358.5918">cargoList</text><text fill="#000000" font-family="sans-serif" font-size="14" lengthAdjust="spacing" textLength="56.041" x="299" y="377.2129">schedule</text></g><!--class Carriage--><g id="elem_Carriage"><rect codeLine="82" fill="#ADD8E6" height="55.2422" id="Carriage" rx="2.5" ry="2.5" style="stroke:#0000FF;stroke-width:0.5;" width="113.165" x="612.5" y="470.6211"/><text fill="#000000" font-family="sans-serif" font-size="14" lengthAdjust="spacing" textLength="53.6895" x="642.2378" y="490.7285">Carriage</text><line style="stroke:#0000FF;stroke-width:0.5;" x1="613.5" x2="724.665" y1="499.2422" y2="499.2422"/><text fill="#000000" font-family="sans-serif" font-size="14" lengthAdjust="spacing" textLength="101.165" x="618.5" y="518.3496">storageCapacity</text></g><!--class Cargo--><g id="elem_Cargo"><rect codeLine="86" fill="#ADD8E6" height="111.1055" id="Cargo" rx="2.5" ry="2.5" style="stroke:#0000FF;stroke-width:0.5;" width="60.2549" x="350" y="1311.6211"/><text fill="#000000" font-family="sans-serif" font-size="14" lengthAdjust="spacing" textLength="38.1309" x="361.062" y="1331.7285">Cargo</text><line style="stroke:#0000FF;stroke-width:0.5;" x1="351" x2="409.2549" y1="1340.2422" y2="1340.2422"/><text fill="#000000" font-family="sans-serif" font-size="14" lengthAdjust="spacing" textLength="35.0205" x="356" y="1359.3496">name</text><text fill="#000000" font-family="sans-serif" font-size="14" lengthAdjust="spacing" textLength="46.6963" x="356" y="1377.9707">amount</text><text fill="#000000" font-family="sans-serif" font-size="14" lengthAdjust="spacing" textLength="48.2549" x="356" y="1396.5918">lifespan</text><text fill="#000000" font-family="sans-serif" font-size="14" lengthAdjust="spacing" textLength="26.4619" x="356" y="1415.2129">type</text></g><!--class Train--><g id="elem_Train"><rect codeLine="93" fill="#ADD8E6" height="55.2422" id="Train" rx="2.5" ry="2.5" style="stroke:#0000FF;stroke-width:0.5;" width="61.0205" x="533.5" y="65.1211"/><text fill="#000000" font-family="sans-serif" font-size="14" lengthAdjust="spacing" textLength="31.8965" x="548.062" y="85.2285">Train</text><line style="stroke:#0000FF;stroke-width:0.5;" x1="534.5" x2="593.5205" y1="93.7422" y2="93.7422"/><text fill="#000000" font-family="sans-serif" font-size="14" lengthAdjust="spacing" textLength="49.0205" x="539.5" y="112.8496">nameID</text></g><!--link Player to Station--><g id="link_Player_Station"><path codeLine="97" d="M222.12,138.9711 C194.97,233.6811 139.83,459.3011 168,647.6211 C171.88,673.5711 178.6,700.8711 186.11,726.4111 " fill="none" id="Player-Station" style="stroke:#181818;stroke-width:1.0;"/><polygon fill="#000000" points="167.6941,503.2572,171.1809,494.4089,165.3141,494.0493,167.6941,503.2572" style="stroke:#000000;stroke-width:1.0;"/><text fill="#000000" font-family="sans-serif" font-size="13" lengthAdjust="spacing" textLength="33.9663" x="177" y="503.6494">builds</text><text fill="#000000" font-family="sans-serif" font-size="13" lengthAdjust="spacing" textLength="7.23" x="212.5655" y="161.0413">1</text><text fill="#000000" font-family="sans-serif" font-size="13" lengthAdjust="spacing" textLength="5.0591" x="178.2584" y="715.3782">*</text></g><!--link Player to RailwayLine--><g id="link_Player_RailwayLine"><path codeLine="98" d="M231.97,138.6411 C230.06,162.1511 227.98,191.4111 227,217.6211 C222.42,339.7211 223.9,483.8611 225.1,555.4911 " fill="none" id="Player-RailwayLine" style="stroke:#181818;stroke-width:1.0;"/><polygon fill="#000000" points="231.9176,334.2659,235.0052,325.2705,229.1281,325.1736,231.9176,334.2659" style="stroke:#000000;stroke-width:1.0;"/><text fill="#000000" font-family="sans-serif" font-size="13" lengthAdjust="spacing" textLength="33.9663" x="241" y="334.6494">builds</text><text fill="#000000" font-family="sans-serif" font-size="13" lengthAdjust="spacing" textLength="7.23" x="223.8151" y="161.003">1</text><text fill="#000000" font-family="sans-serif" font-size="13" lengthAdjust="spacing" textLength="5.0591" x="219.5695" y="544.4814">*</text></g><!--link Player to Locomotive--><g id="link_Player_Locomotive"><path codeLine="99" d="M273.32,114.7411 C312.85,137.8311 376.29,176.9911 426,217.6211 C441.96,230.6711 458.12,245.7811 472.92,260.5711 " fill="none" id="Player-Locomotive" style="stroke:#181818;stroke-width:1.0;"/><polygon fill="#000000" points="396.0373,181.2163,390.4676,173.5072,387,178.2533,396.0373,181.2163" style="stroke:#000000;stroke-width:1.0;"/><text fill="#000000" font-family="sans-serif" font-size="13" lengthAdjust="spacing" textLength="27.46" x="401" y="183.6494">buys</text><text fill="#000000" font-family="sans-serif" font-size="13" lengthAdjust="spacing" textLength="7.23" x="281.354" y="114.4318">1</text><text fill="#000000" font-family="sans-serif" font-size="13" lengthAdjust="spacing" textLength="5.0591" x="460.0492" y="248.2369">*</text></g><!--link Player to Route--><g id="link_Player_Route"><path codeLine="100" d="M245.68,139.0311 C249.78,154.7711 255.21,172.3011 262,187.6211 C275.22,217.4511 294.11,248.3211 311.09,273.5011 " fill="none" id="Player-Route" style="stroke:#181818;stroke-width:1.0;"/><polygon fill="#000000" points="269.1871,182.7629,267.8734,173.3435,262.5877,175.9146,269.1871,182.7629" style="stroke:#000000;stroke-width:1.0;"/><text fill="#000000" font-family="sans-serif" font-size="13" lengthAdjust="spacing" textLength="41.9199" x="276" y="183.6494">defines</text><text fill="#000000" font-family="sans-serif" font-size="13" lengthAdjust="spacing" textLength="7.23" x="239.5859" y="161.1101">1</text><text fill="#000000" font-family="sans-serif" font-size="13" lengthAdjust="spacing" textLength="5.0591" x="300.6406" y="262.3259">*</text></g><!--link Route to Station--><g id="link_Route_Station"><path codeLine="102" d="M349.98,384.6911 C347.19,457.6111 337.08,590.0211 301,696.6211 C295.99,711.4211 289.54,726.5311 282.53,741.0911 " fill="none" id="Route-Station" style="stroke:#181818;stroke-width:1.0;"/><polygon fill="#000000" points="338.0702,606.6794,342.6399,598.3386,336.8645,597.2456,338.0702,606.6794" style="stroke:#000000;stroke-width:1.0;"/><text fill="#000000" font-family="sans-serif" font-size="13" lengthAdjust="spacing" textLength="47.6963" x="348" y="607.1494">includes</text><text fill="#000000" font-family="sans-serif" font-size="13" lengthAdjust="spacing" textLength="7.23" x="342.3962" y="406.9403">1</text><text fill="#000000" font-family="sans-serif" font-size="13" lengthAdjust="spacing" textLength="5.0591" x="290.8236" y="723.3115">*</text></g><!--link Route to Cargo--><g id="link_Route_Cargo"><path codeLine="103" d="M395.87,384.6311 C434.14,436.7511 483,519.2311 483,600.6211 C483,600.6211 483,600.6211 483,1131.6211 C483,1204.7711 440.47,1280.7311 410.07,1325.7011 " fill="none" id="Route-Cargo" style="stroke:#181818;stroke-width:1.0;"/><polygon fill="#000000" points="488.0754,843.266,490.8776,834.1776,485.0004,834.2663,488.0754,843.266" style="stroke:#000000;stroke-width:1.0;"/><text fill="#000000" font-family="sans-serif" font-size="13" lengthAdjust="spacing" textLength="53.479" x="497" y="843.6494">manages</text><text fill="#000000" font-family="sans-serif" font-size="13" lengthAdjust="spacing" textLength="5.0591" x="396.283" y="406.8726">*</text><text fill="#000000" font-family="sans-serif" font-size="13" lengthAdjust="spacing" textLength="5.0591" x="418.391" y="1309.9612">*</text></g><!--link Train to Locomotive--><g id="link_Train_Locomotive"><path codeLine="105" d="M560.67,120.5211 C557.7,144.5811 553.13,181.5211 548.67,217.6111 " fill="none" id="Train-Locomotive" style="stroke:#181818;stroke-width:1.0;"/><polygon fill="#000000" points="559.3867,183.2288,563.4129,174.6126,557.5795,173.8916,559.3867,183.2288" style="stroke:#000000;stroke-width:1.0;"/><text fill="#000000" font-family="sans-serif" font-size="13" lengthAdjust="spacing" textLength="67.209" x="569" y="183.6494">powered by</text><text fill="#000000" font-family="sans-serif" font-size="13" lengthAdjust="spacing" textLength="7.23" x="552.1988" y="142.5173">1</text><text fill="#000000" font-family="sans-serif" font-size="13" lengthAdjust="spacing" textLength="7.23" x="542.391" y="206.2173">1</text></g><!--link Train to Route--><g id="link_Train_Route"><path codeLine="106" d="M533.16,113.0611 C512.31,127.0411 484.89,147.1611 464,168.6211 C433.11,200.3611 404.35,241.1911 383.58,273.5911 " fill="none" id="Train-Route" style="stroke:#181818;stroke-width:1.0;"/><polygon fill="#000000" points="465.5914,181.9247,473.9078,177.3106,469.6074,173.3036,465.5914,181.9247" style="stroke:#000000;stroke-width:1.0;"/><text fill="#000000" font-family="sans-serif" font-size="13" lengthAdjust="spacing" textLength="66.4917" x="478" y="183.6494">assigned to</text><text fill="#000000" font-family="sans-serif" font-size="13" lengthAdjust="spacing" textLength="7.23" x="518.2431" y="112.8562">1</text><text fill="#000000" font-family="sans-serif" font-size="13" lengthAdjust="spacing" textLength="21.6836" x="365.4334" y="262.4275">0..1</text></g><!--link Train to Carriage--><g id="link_Train_Carriage"><path codeLine="107" d="M594.88,113.3211 C612.84,126.6011 634.03,145.8211 645,168.6211 C694.21,270.9111 681.53,412.0711 673.36,470.3311 " fill="none" id="Train-Carriage" style="stroke:#181818;stroke-width:1.0;"/><polygon fill="#000000" points="659.0735,183.15,660.0019,173.6849,654.2611,174.9468,659.0735,183.15" style="stroke:#000000;stroke-width:1.0;"/><text fill="#000000" font-family="sans-serif" font-size="13" lengthAdjust="spacing" textLength="74.4326" x="667" y="183.6494">composed of</text><text fill="#000000" font-family="sans-serif" font-size="13" lengthAdjust="spacing" textLength="7.23" x="602.4235" y="113.0235">1</text><text fill="#000000" font-family="sans-serif" font-size="13" lengthAdjust="spacing" textLength="5.0591" x="668.7553" y="459.4263">*</text></g><!--link RailwayLine to Station--><g id="link_RailwayLine_Station"><path codeLine="109" d="M226,647.8311 C226,670.3311 226,692.5911 226,720.3711 " fill="none" id="RailwayLine-to-Station" style="stroke:#181818;stroke-width:1.0;"/><polygon fill="#181818" points="226,726.3711,230,717.3711,226,721.3711,222,717.3711,226,726.3711" style="stroke:#181818;stroke-width:1.0;"/><polygon fill="#000000" points="231,692.2666,233.9389,683.2215,228.0611,683.2215,231,692.2666" style="stroke:#000000;stroke-width:1.0;"/><text fill="#000000" font-family="sans-serif" font-size="13" lengthAdjust="spacing" textLength="52.0317" x="240" y="692.6494">connects</text><text fill="#000000" font-family="sans-serif" font-size="13" lengthAdjust="spacing" textLength="7.23" x="218.4447" y="670.2221">1</text><text fill="#000000" font-family="sans-serif" font-size="13" lengthAdjust="spacing" textLength="7.23" x="218.767" y="715.3355">2</text></g><!--link Station to Cargo--><g id="link_Station_Cargo"><path codeLine="111" d="M275.65,949.7911 C279.66,959.8111 283.5,969.8611 287,979.6211 C310.68,1045.7411 324.1,1113.9311 358,1262.6211 C361.61,1278.4711 365.36,1295.7311 368.71,1311.5311 " fill="none" id="Station-Cargo" style="stroke:#181818;stroke-width:1.0;"/><polygon fill="#000000" points="357.2457,1135.6089,357.8384,1126.1169,352.1459,1127.5813,357.2457,1135.6089" style="stroke:#000000;stroke-width:1.0;"/><text fill="#000000" font-family="sans-serif" font-size="13" lengthAdjust="spacing" textLength="35.4009" x="365" y="1136.1494">stores</text><text fill="#000000" font-family="sans-serif" font-size="13" lengthAdjust="spacing" textLength="7.23" x="271.6086" y="971.5325">1</text><text fill="#000000" font-family="sans-serif" font-size="13" lengthAdjust="spacing" textLength="5.0591" x="361.9306" y="1300.3598">*</text></g><!--link Station to City--><g id="link_Station_City"><path codeLine="112" d="M169.46,941.1311 C146.54,982.4911 120.76,1029.0011 100.55,1065.4711 " fill="none" id="Station-City" style="stroke:#181818;stroke-width:1.0;"/><polygon fill="#000000" points="148.5763,993.6399,155.5314,987.1532,150.3903,984.3039,148.5763,993.6399" style="stroke:#000000;stroke-width:1.0;"/><text fill="#000000" font-family="sans-serif" font-size="13" lengthAdjust="spacing" textLength="38.2891" x="160" y="994.6494">serves</text><text fill="#000000" font-family="sans-serif" font-size="13" lengthAdjust="spacing" textLength="7.23" x="154.3965" y="950.89">1</text><text fill="#000000" font-family="sans-serif" font-size="13" lengthAdjust="spacing" textLength="5.0591" x="99.1519" y="1054.4748">*</text></g><!--link Station to Industry--><g id="link_Station_Industry"><path codeLine="113" d="M226,949.7711 C226,975.5911 226,1002.9511 226,1028.3411 " fill="none" id="Station-Industry" style="stroke:#181818;stroke-width:1.0;"/><polygon fill="#000000" points="231,994.2666,233.9389,985.2215,228.0611,985.2215,231,994.2666" style="stroke:#000000;stroke-width:1.0;"/><text fill="#000000" font-family="sans-serif" font-size="13" lengthAdjust="spacing" textLength="38.2891" x="240" y="994.6494">serves</text><text fill="#000000" font-family="sans-serif" font-size="13" lengthAdjust="spacing" textLength="7.23" x="218.7779" y="971.5112">1</text><text fill="#000000" font-family="sans-serif" font-size="13" lengthAdjust="spacing" textLength="5.0591" x="220.8077" y="1017.2369">*</text></g><!--link Carriage to Cargo--><g id="link_Carriage_Cargo"><path codeLine="115" d="M665.29,525.6911 C660.56,561.8911 653,628.7711 653,686.1211 C653,686.1211 653,686.1211 653,1131.6211 C653,1258.4611 481.34,1331.5911 410.26,1356.4411 " fill="none" id="Carriage-Cargo" style="stroke:#181818;stroke-width:1.0;"/><polygon fill="#000000" points="656.5326,843.0464,661.9966,835.2621,656.3776,833.5371,656.5326,843.0464" style="stroke:#000000;stroke-width:1.0;"/><text fill="#000000" font-family="sans-serif" font-size="13" lengthAdjust="spacing" textLength="39.0063" x="667" y="843.6494">carries</text><text fill="#000000" font-family="sans-serif" font-size="13" lengthAdjust="spacing" textLength="5.0591" x="658.8417" y="548.0662">*</text><text fill="#000000" font-family="sans-serif" font-size="13" lengthAdjust="spacing" textLength="7.23" x="418.0641" y="1349.0555">1</text></g><!--link Route to RailwayLine--><g id="link_Route_RailwayLine"><path codeLine="116" d="M311.1,384.7411 C294.12,409.9211 275.23,440.7911 262,470.6211 C249.94,497.8111 240.99,530.0211 235.03,555.5711 " fill="none" id="Route-RailwayLine" style="stroke:#181818;stroke-width:1.0;"/><polygon fill="#000000" points="264.9661,502.8342,271.3303,495.7668,265.9607,493.3758,264.9661,502.8342" style="stroke:#000000;stroke-width:1.0;"/><text fill="#000000" font-family="sans-serif" font-size="13" lengthAdjust="spacing" textLength="48.4199" x="276" y="503.6494">contains</text><text fill="#000000" font-family="sans-serif" font-size="13" lengthAdjust="spacing" textLength="19.5127" x="286.0922" y="406.5953">1..*</text><text fill="#000000" font-family="sans-serif" font-size="13" lengthAdjust="spacing" textLength="19.5127" x="237.8697" y="544.2316">1..*</text></g><!--link Industry to Cargo--><g id="link_Industry_Cargo"><path codeLine="118" d="M208.95,1232.8611 C210.17,1250.0011 214.25,1266.9711 223,1281.6211 C250.46,1327.5911 312.51,1350.0211 349.85,1359.7311 " fill="none" id="Industry-Cargo" style="stroke:#181818;stroke-width:1.0;"/><polygon fill="#000000" points="231.7157,1275.6123,226.9605,1267.3759,223.0274,1271.7439,231.7157,1275.6123" style="stroke:#000000;stroke-width:1.0;"/><text fill="#000000" font-family="sans-serif" font-size="13" lengthAdjust="spacing" textLength="116.3398" x="237" y="1277.6494">produces/consumes</text><text fill="#000000" font-family="sans-serif" font-size="13" lengthAdjust="spacing" textLength="5.0591" x="202.5056" y="1255.0248">*</text><text fill="#000000" font-family="sans-serif" font-size="13" lengthAdjust="spacing" textLength="5.0591" x="336.8677" y="1374.0526">*</text></g><!--link City to Cargo--><g id="link_City_Cargo"><path codeLine="120" d="M54.06,1195.7411 C52.71,1224.9111 56.72,1258.0911 76,1281.6211 C111.07,1324.4211 280.07,1352.2911 349.81,1362.1411 " fill="none" id="City-Cargo" style="stroke:#181818;stroke-width:1.0;"/><polygon fill="#000000" points="85.3576,1274.7184,78.9157,1267.7217,76.0335,1272.8444,85.3576,1274.7184" style="stroke:#000000;stroke-width:1.0;"/><text fill="#000000" font-family="sans-serif" font-size="13" lengthAdjust="spacing" textLength="116.3398" x="90" y="1277.6494">produces/consumes</text><text fill="#000000" font-family="sans-serif" font-size="13" lengthAdjust="spacing" textLength="5.0591" x="47.6618" y="1217.3906">*</text><text fill="#000000" font-family="sans-serif" font-size="13" lengthAdjust="spacing" textLength="5.0591" x="336.8179" y="1355.9063">*</text></g><!--SRC=[ZLInRjim4Dtr5OJ7077ZZXu29CuIm0M2A1qwdicpJ8GY5V8OGotwxpsIiY8xTf6DqZq-llVkoF2gRGSUMj61V8K6Q-eD2e-Im3O6gp02mWwKsslRY2sOCAr80o7S4NczYOIFqjbQ_qPnSmeHVoeXxlcSnhjerSePvyLQDpkwDn5JpNc5llpFl_vMrLVEgNPQeP3QIrQSrotIpgbGLQI9_Jou5hGLFvn28wx5ptfn8vRYBWJTM062VAgIuoKh8wogelV9G8y-ouu1lOKsgUouj6UblDn4rI0bcMN3IbEVuGdw-930BcZIpl9ovvZatZZv6lWhnAup6jKAVEFuMs4BLXs-HyP7gs8WVvarSAkSvmNr7MQU8BtkXYgyWpQmqOQ5_K98kCux5MMgFmFXrvNK16dJHI73-HwKZicWT84IEwlZkLe13nYBI0MqXFx9QKivGcqKJrLj78KFnGOFSZo-HGpqISypu_RGhxN5hCcWRMYNX7WUiPUY9eiOjwoTTAqZ_Ox7BWRfdTjZIWYaH8CU3iPSLtU8Afi1JqEEsuXcLJoUIHdaMzGbcoUlPQ9F8qXemKeilpwifA4xbXHAsdKoR_DscUolTGbLxb15Cw7WSBpcd3FBQUPJLEF6WvBCbczYOZHwYw63iP7ZbfTyDoRQk3BSYzbY9gwlnUngDWx7ilGpYDipe6d7_WkSz2dX-WjqARKbZ-kM2HEaAZcUbQMjD55bs82w6b4bbIKto79gcQcuFZ0jJYJbGK4bDZrZZw4ty_bYaCP0o2yC8_bjEKMMWqlJbZoeBTybHhfjTZA9gcou5RFlKqFy-bc- -bdjuUynTVQKHY5REeT9hnL3qBzVWepFpmHMZR8F6Iu-pfEfDervCPzVpJ8eBQOpa3qGHv99nvFEDAOyMHY-yOOGsq55Klyry3y0]--></g></svg>