<svg xmlns="http://www.w3.org/2000/svg" xmlns:xlink="http://www.w3.org/1999/xlink" contentStyleType="text/css" height="1856px" preserveAspectRatio="none" style="width:1367px;height:1856px;background:#FFFFFF;" version="1.1" viewBox="0 0 1367 1856" width="1367px" zoomAndPan="magnify"><title>Class Diagram: US10 - Assign a train to a route</title><defs/><g><text fill="#000000" font-family="sans-serif" font-size="14" font-weight="bold" lengthAdjust="spacing" textLength="313.5303" x="519.9149" y="25.1074">Class Diagram: US10 - Assign a train to a route</text><!--class EditMapUI--><g id="elem_EditMapUI"><rect codeLine="8" fill="#F1F1F1" height="48" id="EditMapUI" rx="2.5" ry="2.5" style="stroke:#181818;stroke-width:0.5;" width="97.3584" x="189" y="46.6211"/><ellipse cx="204" cy="62.6211" fill="#ADD1B2" rx="11" ry="11" style="stroke:#181818;stroke-width:1.0;"/><path d="M206.7656,58.4961 Q206.9219,58.2773 207.1094,58.168 Q207.2969,58.0586 207.5156,58.0586 Q207.8906,58.0586 208.125,58.3242 Q208.3594,58.5742 208.3594,59.1836 L208.3594,60.6367 Q208.3594,61.2461 208.125,61.5117 Q207.8906,61.7773 207.5156,61.7773 Q207.1719,61.7773 206.9688,61.5742 Q206.7656,61.3867 206.6563,60.8711 Q206.6094,60.5117 206.4219,60.3242 Q206.0938,59.9492 205.4844,59.7305 Q204.875,59.5117 204.25,59.5117 Q203.4844,59.5117 202.8438,59.8398 Q202.2188,60.168 201.7188,60.918 Q201.2344,61.668 201.2344,62.6992 L201.2344,63.793 Q201.2344,65.0273 202.125,65.8555 Q203.0156,66.668 204.6094,66.668 Q205.5469,66.668 206.2031,66.418 Q206.5938,66.2617 207.0156,65.8242 Q207.2813,65.5586 207.4219,65.4805 Q207.5781,65.4023 207.7813,65.4023 Q208.1094,65.4023 208.3594,65.668 Q208.625,65.918 208.625,66.2617 Q208.625,66.6055 208.2813,67.0117 Q207.7813,67.5898 206.9844,67.918 Q205.9063,68.3711 204.6094,68.3711 Q203.0938,68.3711 201.8906,67.7461 Q200.9063,67.2461 200.2188,66.1836 Q199.5313,65.1055 199.5313,63.8242 L199.5313,62.668 Q199.5313,61.3398 200.1406,60.1992 Q200.7656,59.043 201.8594,58.4336 Q202.9531,57.8086 204.1875,57.8086 Q204.9219,57.8086 205.5625,57.9805 Q206.2188,58.1367 206.7656,58.4961 Z " fill="#000000"/><text fill="#000000" font-family="sans-serif" font-size="14" lengthAdjust="spacing" textLength="65.3584" x="218" y="68.418">EditMapUI</text><line style="stroke:#181818;stroke-width:0.5;" x1="190" x2="285.3584" y1="78.6211" y2="78.6211"/><line style="stroke:#181818;stroke-width:0.5;" x1="190" x2="285.3584" y1="86.6211" y2="86.6211"/></g><!--class AssignTrainUI--><g id="elem_AssignTrainUI"><rect codeLine="12" fill="#F1F1F1" height="48" id="AssignTrainUI" rx="2.5" ry="2.5" style="stroke:#181818;stroke-width:0.5;" width="119.917" x="781.5" y="46.6211"/><ellipse cx="796.5" cy="62.6211" fill="#ADD1B2" rx="11" ry="11" style="stroke:#181818;stroke-width:1.0;"/><path d="M799.2656,58.4961 Q799.4219,58.2773 799.6094,58.168 Q799.7969,58.0586 800.0156,58.0586 Q800.3906,58.0586 800.625,58.3242 Q800.8594,58.5742 800.8594,59.1836 L800.8594,60.6367 Q800.8594,61.2461 800.625,61.5117 Q800.3906,61.7773 800.0156,61.7773 Q799.6719,61.7773 799.4688,61.5742 Q799.2656,61.3867 799.1563,60.8711 Q799.1094,60.5117 798.9219,60.3242 Q798.5938,59.9492 797.9844,59.7305 Q797.375,59.5117 796.75,59.5117 Q795.9844,59.5117 795.3438,59.8398 Q794.7188,60.168 794.2188,60.918 Q793.7344,61.668 793.7344,62.6992 L793.7344,63.793 Q793.7344,65.0273 794.625,65.8555 Q795.5156,66.668 797.1094,66.668 Q798.0469,66.668 798.7031,66.418 Q799.0938,66.2617 799.5156,65.8242 Q799.7813,65.5586 799.9219,65.4805 Q800.0781,65.4023 800.2813,65.4023 Q800.6094,65.4023 800.8594,65.668 Q801.125,65.918 801.125,66.2617 Q801.125,66.6055 800.7813,67.0117 Q800.2813,67.5898 799.4844,67.918 Q798.4063,68.3711 797.1094,68.3711 Q795.5938,68.3711 794.3906,67.7461 Q793.4063,67.2461 792.7188,66.1836 Q792.0313,65.1055 792.0313,63.8242 L792.0313,62.668 Q792.0313,61.3398 792.6406,60.1992 Q793.2656,59.043 794.3594,58.4336 Q795.4531,57.8086 796.6875,57.8086 Q797.4219,57.8086 798.0625,57.9805 Q798.7188,58.1367 799.2656,58.4961 Z " fill="#000000"/><text fill="#000000" font-family="sans-serif" font-size="14" lengthAdjust="spacing" textLength="87.917" x="810.5" y="68.418">AssignTrainUI</text><line style="stroke:#181818;stroke-width:0.5;" x1="782.5" x2="900.417" y1="78.6211" y2="78.6211"/><line style="stroke:#181818;stroke-width:0.5;" x1="782.5" x2="900.417" y1="86.6211" y2="86.6211"/></g><!--class EditMapController--><g id="elem_EditMapController"><rect codeLine="16" fill="#F1F1F1" height="103.8633" id="EditMapController" rx="2.5" ry="2.5" style="stroke:#181818;stroke-width:0.5;" width="217.0508" x="129" y="201.6211"/><ellipse cx="177.2515" cy="217.6211" fill="#ADD1B2" rx="11" ry="11" style="stroke:#181818;stroke-width:1.0;"/><path d="M180.0171,213.4961 Q180.1733,213.2773 180.3608,213.168 Q180.5483,213.0586 180.7671,213.0586 Q181.1421,213.0586 181.3765,213.3242 Q181.6108,213.5742 181.6108,214.1836 L181.6108,215.6367 Q181.6108,216.2461 181.3765,216.5117 Q181.1421,216.7773 180.7671,216.7773 Q180.4233,216.7773 180.2202,216.5742 Q180.0171,216.3867 179.9077,215.8711 Q179.8608,215.5117 179.6733,215.3242 Q179.3452,214.9492 178.7358,214.7305 Q178.1265,214.5117 177.5015,214.5117 Q176.7358,214.5117 176.0952,214.8398 Q175.4702,215.168 174.9702,215.918 Q174.4858,216.668 174.4858,217.6992 L174.4858,218.793 Q174.4858,220.0273 175.3765,220.8555 Q176.2671,221.668 177.8608,221.668 Q178.7983,221.668 179.4546,221.418 Q179.8452,221.2617 180.2671,220.8242 Q180.5327,220.5586 180.6733,220.4805 Q180.8296,220.4023 181.0327,220.4023 Q181.3608,220.4023 181.6108,220.668 Q181.8765,220.918 181.8765,221.2617 Q181.8765,221.6055 181.5327,222.0117 Q181.0327,222.5898 180.2358,222.918 Q179.1577,223.3711 177.8608,223.3711 Q176.3452,223.3711 175.1421,222.7461 Q174.1577,222.2461 173.4702,221.1836 Q172.7827,220.1055 172.7827,218.8242 L172.7827,217.668 Q172.7827,216.3398 173.3921,215.1992 Q174.0171,214.043 175.1108,213.4336 Q176.2046,212.8086 177.439,212.8086 Q178.1733,212.8086 178.814,212.9805 Q179.4702,213.1367 180.0171,213.4961 Z " fill="#000000"/><text fill="#000000" font-family="sans-serif" font-size="14" lengthAdjust="spacing" textLength="112.0479" x="197.7515" y="223.418">EditMapController</text><line style="stroke:#181818;stroke-width:0.5;" x1="130" x2="345.0508" y1="233.6211" y2="233.6211"/><line style="stroke:#181818;stroke-width:0.5;" x1="130" x2="345.0508" y1="241.6211" y2="241.6211"/><text fill="#000000" font-family="sans-serif" font-size="14" lengthAdjust="spacing" textLength="56.4102" x="135" y="260.7285">+create()</text><text fill="#000000" font-family="sans-serif" font-size="14" lengthAdjust="spacing" textLength="205.0508" x="135" y="279.3496">+getAvailableMaps() : List&lt;Map&gt;</text><text fill="#000000" font-family="sans-serif" font-size="14" lengthAdjust="spacing" textLength="191.0508" x="135" y="297.9707">+loadMap(mapId) : MapLayout</text></g><!--class AssignTrainController--><g id="elem_AssignTrainController"><rect codeLine="23" fill="#F1F1F1" height="159.7266" id="AssignTrainController" rx="2.5" ry="2.5" style="stroke:#181818;stroke-width:0.5;" width="307.333" x="688" y="173.6211"/><ellipse cx="770.1133" cy="189.6211" fill="#ADD1B2" rx="11" ry="11" style="stroke:#181818;stroke-width:1.0;"/><path d="M772.8789,185.4961 Q773.0352,185.2773 773.2227,185.168 Q773.4102,185.0586 773.6289,185.0586 Q774.0039,185.0586 774.2383,185.3242 Q774.4727,185.5742 774.4727,186.1836 L774.4727,187.6367 Q774.4727,188.2461 774.2383,188.5117 Q774.0039,188.7773 773.6289,188.7773 Q773.2852,188.7773 773.082,188.5742 Q772.8789,188.3867 772.7695,187.8711 Q772.7227,187.5117 772.5352,187.3242 Q772.207,186.9492 771.5977,186.7305 Q770.9883,186.5117 770.3633,186.5117 Q769.5977,186.5117 768.957,186.8398 Q768.332,187.168 767.832,187.918 Q767.3477,188.668 767.3477,189.6992 L767.3477,190.793 Q767.3477,192.0273 768.2383,192.8555 Q769.1289,193.668 770.7227,193.668 Q771.6602,193.668 772.3164,193.418 Q772.707,193.2617 773.1289,192.8242 Q773.3945,192.5586 773.5352,192.4805 Q773.6914,192.4023 773.8945,192.4023 Q774.2227,192.4023 774.4727,192.668 Q774.7383,192.918 774.7383,193.2617 Q774.7383,193.6055 774.3945,194.0117 Q773.8945,194.5898 773.0977,194.918 Q772.0195,195.3711 770.7227,195.3711 Q769.207,195.3711 768.0039,194.7461 Q767.0195,194.2461 766.332,193.1836 Q765.6445,192.1055 765.6445,190.8242 L765.6445,189.668 Q765.6445,188.3398 766.2539,187.1992 Q766.8789,186.043 767.9727,185.4336 Q769.0664,184.8086 770.3008,184.8086 Q771.0352,184.8086 771.6758,184.9805 Q772.332,185.1367 772.8789,185.4961 Z " fill="#000000"/><text fill="#000000" font-family="sans-serif" font-size="14" lengthAdjust="spacing" textLength="134.6064" x="790.6133" y="195.418">AssignTrainController</text><line style="stroke:#181818;stroke-width:0.5;" x1="689" x2="994.333" y1="205.6211" y2="205.6211"/><line style="stroke:#181818;stroke-width:0.5;" x1="689" x2="994.333" y1="213.6211" y2="213.6211"/><text fill="#000000" font-family="sans-serif" font-size="14" lengthAdjust="spacing" textLength="56.4102" x="694" y="232.7285">+create()</text><text fill="#000000" font-family="sans-serif" font-size="14" lengthAdjust="spacing" textLength="225.2988" x="694" y="251.3496">+getAvailableRoutes() : List&lt;Route&gt;</text><text fill="#000000" font-family="sans-serif" font-size="14" lengthAdjust="spacing" textLength="252.5195" x="694" y="269.9707">+getRouteDetails(routeId) : RouteDetails</text><text fill="#000000" font-family="sans-serif" font-size="14" lengthAdjust="spacing" textLength="214.375" x="694" y="288.5918">+getAvailableTrains() : List&lt;Train&gt;</text><text fill="#000000" font-family="sans-serif" font-size="14" lengthAdjust="spacing" textLength="236.9199" x="694" y="307.2129">+getTrainDetails(trainId) : TrainDetails</text><text fill="#000000" font-family="sans-serif" font-size="14" lengthAdjust="spacing" textLength="295.333" x="694" y="325.834">+assignTrainToRoute(trainId, routeId) : boolean</text></g><!--class RouteRepository--><g id="elem_RouteRepository"><rect codeLine="33" fill="#F1F1F1" height="85.2422" id="RouteRepository" rx="2.5" ry="2.5" style="stroke:#181818;stroke-width:0.5;" width="178.9336" x="649" y="632.1211"/><ellipse cx="683.1962" cy="648.1211" fill="#ADD1B2" rx="11" ry="11" style="stroke:#181818;stroke-width:1.0;"/><path d="M685.9618,643.9961 Q686.1181,643.7773 686.3056,643.668 Q686.4931,643.5586 686.7118,643.5586 Q687.0868,643.5586 687.3212,643.8242 Q687.5556,644.0742 687.5556,644.6836 L687.5556,646.1367 Q687.5556,646.7461 687.3212,647.0117 Q687.0868,647.2773 686.7118,647.2773 Q686.3681,647.2773 686.1649,647.0742 Q685.9618,646.8867 685.8524,646.3711 Q685.8056,646.0117 685.6181,645.8242 Q685.2899,645.4492 684.6806,645.2305 Q684.0712,645.0117 683.4462,645.0117 Q682.6806,645.0117 682.0399,645.3398 Q681.4149,645.668 680.9149,646.418 Q680.4306,647.168 680.4306,648.1992 L680.4306,649.293 Q680.4306,650.5273 681.3212,651.3555 Q682.2118,652.168 683.8056,652.168 Q684.7431,652.168 685.3993,651.918 Q685.7899,651.7617 686.2118,651.3242 Q686.4774,651.0586 686.6181,650.9805 Q686.7743,650.9023 686.9774,650.9023 Q687.3056,650.9023 687.5556,651.168 Q687.8212,651.418 687.8212,651.7617 Q687.8212,652.1055 687.4774,652.5117 Q686.9774,653.0898 686.1806,653.418 Q685.1024,653.8711 683.8056,653.8711 Q682.2899,653.8711 681.0868,653.2461 Q680.1024,652.7461 679.4149,651.6836 Q678.7274,650.6055 678.7274,649.3242 L678.7274,648.168 Q678.7274,646.8398 679.3368,645.6992 Q679.9618,644.543 681.0556,643.9336 Q682.1493,643.3086 683.3837,643.3086 Q684.1181,643.3086 684.7587,643.4805 Q685.4149,643.6367 685.9618,643.9961 Z " fill="#000000"/><text fill="#000000" font-family="sans-serif" font-size="14" lengthAdjust="spacing" textLength="104.2754" x="701.462" y="653.918">RouteRepository</text><line style="stroke:#181818;stroke-width:0.5;" x1="650" x2="826.9336" y1="664.1211" y2="664.1211"/><line style="stroke:#181818;stroke-width:0.5;" x1="650" x2="826.9336" y1="672.1211" y2="672.1211"/><text fill="#000000" font-family="sans-serif" font-size="14" lengthAdjust="spacing" textLength="166.9336" x="655" y="691.2285">+getRoute(routeId) : Route</text><text fill="#000000" font-family="sans-serif" font-size="14" lengthAdjust="spacing" textLength="140.4785" x="655" y="709.8496">+save(route) : boolean</text></g><!--class TrainRepository--><g id="elem_TrainRepository"><rect codeLine="38" fill="#F1F1F1" height="85.2422" id="TrainRepository" rx="2.5" ry="2.5" style="stroke:#181818;stroke-width:0.5;" width="163.334" x="963" y="632.1211"/><ellipse cx="992.6342" cy="648.1211" fill="#ADD1B2" rx="11" ry="11" style="stroke:#181818;stroke-width:1.0;"/><path d="M995.3999,643.9961 Q995.5561,643.7773 995.7436,643.668 Q995.9311,643.5586 996.1499,643.5586 Q996.5249,643.5586 996.7592,643.8242 Q996.9936,644.0742 996.9936,644.6836 L996.9936,646.1367 Q996.9936,646.7461 996.7592,647.0117 Q996.5249,647.2773 996.1499,647.2773 Q995.8061,647.2773 995.603,647.0742 Q995.3999,646.8867 995.2905,646.3711 Q995.2436,646.0117 995.0561,645.8242 Q994.728,645.4492 994.1186,645.2305 Q993.5092,645.0117 992.8842,645.0117 Q992.1186,645.0117 991.478,645.3398 Q990.853,645.668 990.353,646.418 Q989.8686,647.168 989.8686,648.1992 L989.8686,649.293 Q989.8686,650.5273 990.7592,651.3555 Q991.6499,652.168 993.2436,652.168 Q994.1811,652.168 994.8374,651.918 Q995.228,651.7617 995.6499,651.3242 Q995.9155,651.0586 996.0561,650.9805 Q996.2124,650.9023 996.4155,650.9023 Q996.7436,650.9023 996.9936,651.168 Q997.2592,651.418 997.2592,651.7617 Q997.2592,652.1055 996.9155,652.5117 Q996.4155,653.0898 995.6186,653.418 Q994.5405,653.8711 993.2436,653.8711 Q991.728,653.8711 990.5249,653.2461 Q989.5405,652.7461 988.853,651.6836 Q988.1655,650.6055 988.1655,649.3242 L988.1655,648.168 Q988.1655,646.8398 988.7749,645.6992 Q989.3999,644.543 990.4936,643.9336 Q991.5874,643.3086 992.8217,643.3086 Q993.5561,643.3086 994.1967,643.4805 Q994.853,643.6367 995.3999,643.9961 Z " fill="#000000"/><text fill="#000000" font-family="sans-serif" font-size="14" lengthAdjust="spacing" textLength="98.8135" x="1009.8863" y="653.918">TrainRepository</text><line style="stroke:#181818;stroke-width:0.5;" x1="964" x2="1125.334" y1="664.1211" y2="664.1211"/><line style="stroke:#181818;stroke-width:0.5;" x1="964" x2="1125.334" y1="672.1211" y2="672.1211"/><text fill="#000000" font-family="sans-serif" font-size="14" lengthAdjust="spacing" textLength="151.334" x="969" y="691.2285">+getTrain(trainId) : Train</text><text fill="#000000" font-family="sans-serif" font-size="14" lengthAdjust="spacing" textLength="135.8027" x="969" y="709.8496">+save(train) : boolean</text></g><!--class MapRepository--><g id="elem_MapRepository"><rect codeLine="43" fill="#F1F1F1" height="85.2422" id="MapRepository" rx="2.5" ry="2.5" style="stroke:#181818;stroke-width:0.5;" width="217.0508" x="129" y="632.1211"/><ellipse cx="186.1997" cy="648.1211" fill="#ADD1B2" rx="11" ry="11" style="stroke:#181818;stroke-width:1.0;"/><path d="M188.9653,643.9961 Q189.1216,643.7773 189.3091,643.668 Q189.4966,643.5586 189.7153,643.5586 Q190.0903,643.5586 190.3247,643.8242 Q190.5591,644.0742 190.5591,644.6836 L190.5591,646.1367 Q190.5591,646.7461 190.3247,647.0117 Q190.0903,647.2773 189.7153,647.2773 Q189.3716,647.2773 189.1685,647.0742 Q188.9653,646.8867 188.856,646.3711 Q188.8091,646.0117 188.6216,645.8242 Q188.2935,645.4492 187.6841,645.2305 Q187.0747,645.0117 186.4497,645.0117 Q185.6841,645.0117 185.0435,645.3398 Q184.4185,645.668 183.9185,646.418 Q183.4341,647.168 183.4341,648.1992 L183.4341,649.293 Q183.4341,650.5273 184.3247,651.3555 Q185.2153,652.168 186.8091,652.168 Q187.7466,652.168 188.4028,651.918 Q188.7935,651.7617 189.2153,651.3242 Q189.481,651.0586 189.6216,650.9805 Q189.7778,650.9023 189.981,650.9023 Q190.3091,650.9023 190.5591,651.168 Q190.8247,651.418 190.8247,651.7617 Q190.8247,652.1055 190.481,652.5117 Q189.981,653.0898 189.1841,653.418 Q188.106,653.8711 186.8091,653.8711 Q185.2935,653.8711 184.0903,653.2461 Q183.106,652.7461 182.4185,651.6836 Q181.731,650.6055 181.731,649.3242 L181.731,648.168 Q181.731,646.8398 182.3403,645.6992 Q182.9653,644.543 184.0591,643.9336 Q185.1528,643.3086 186.3872,643.3086 Q187.1216,643.3086 187.7622,643.4805 Q188.4185,643.6367 188.9653,643.9961 Z " fill="#000000"/><text fill="#000000" font-family="sans-serif" font-size="14" lengthAdjust="spacing" textLength="94.1514" x="206.6997" y="653.918">MapRepository</text><line style="stroke:#181818;stroke-width:0.5;" x1="130" x2="345.0508" y1="664.1211" y2="664.1211"/><line style="stroke:#181818;stroke-width:0.5;" x1="130" x2="345.0508" y1="672.1211" y2="672.1211"/><text fill="#000000" font-family="sans-serif" font-size="14" lengthAdjust="spacing" textLength="205.0508" x="135" y="691.2285">+getAvailableMaps() : List&lt;Map&gt;</text><text fill="#000000" font-family="sans-serif" font-size="14" lengthAdjust="spacing" textLength="142.0098" x="135" y="709.8496">+getMap(mapId) : Map</text></g><!--class Repositories--><g id="elem_Repositories"><rect codeLine="48" fill="#F1F1F1" height="122.4844" id="Repositories" rx="2.5" ry="2.5" style="stroke:#181818;stroke-width:0.5;" width="269.1816" x="461" y="412.6211"/><ellipse cx="552.4341" cy="428.6211" fill="#ADD1B2" rx="11" ry="11" style="stroke:#181818;stroke-width:1.0;"/><path d="M555.1997,424.4961 Q555.356,424.2773 555.5435,424.168 Q555.731,424.0586 555.9497,424.0586 Q556.3247,424.0586 556.5591,424.3242 Q556.7935,424.5742 556.7935,425.1836 L556.7935,426.6367 Q556.7935,427.2461 556.5591,427.5117 Q556.3247,427.7773 555.9497,427.7773 Q555.606,427.7773 555.4028,427.5742 Q555.1997,427.3867 555.0903,426.8711 Q555.0435,426.5117 554.856,426.3242 Q554.5278,425.9492 553.9185,425.7305 Q553.3091,425.5117 552.6841,425.5117 Q551.9185,425.5117 551.2778,425.8398 Q550.6528,426.168 550.1528,426.918 Q549.6685,427.668 549.6685,428.6992 L549.6685,429.793 Q549.6685,431.0273 550.5591,431.8555 Q551.4497,432.668 553.0435,432.668 Q553.981,432.668 554.6372,432.418 Q555.0278,432.2617 555.4497,431.8242 Q555.7153,431.5586 555.856,431.4805 Q556.0122,431.4023 556.2153,431.4023 Q556.5435,431.4023 556.7935,431.668 Q557.0591,431.918 557.0591,432.2617 Q557.0591,432.6055 556.7153,433.0117 Q556.2153,433.5898 555.4185,433.918 Q554.3403,434.3711 553.0435,434.3711 Q551.5278,434.3711 550.3247,433.7461 Q549.3403,433.2461 548.6528,432.1836 Q547.9653,431.1055 547.9653,429.8242 L547.9653,428.668 Q547.9653,427.3398 548.5747,426.1992 Q549.1997,425.043 550.2935,424.4336 Q551.3872,423.8086 552.6216,423.8086 Q553.356,423.8086 553.9966,423.9805 Q554.6528,424.1367 555.1997,424.4961 Z " fill="#000000"/><text fill="#000000" font-family="sans-serif" font-size="14" lengthAdjust="spacing" textLength="77.8135" x="572.9341" y="434.418">Repositories</text><line style="stroke:#181818;stroke-width:0.5;" x1="462" x2="729.1816" y1="444.6211" y2="444.6211"/><line style="stroke:#181818;stroke-width:0.5;" x1="462" x2="729.1816" y1="452.6211" y2="452.6211"/><text fill="#000000" font-family="sans-serif" font-size="14" lengthAdjust="spacing" text-decoration="underline" textLength="179.3682" x="467" y="471.7285">+getInstance() : Repositories</text><text fill="#000000" font-family="sans-serif" font-size="14" lengthAdjust="spacing" textLength="257.1816" x="467" y="490.3496">+getRouteRepository() : RouteRepository</text><text fill="#000000" font-family="sans-serif" font-size="14" lengthAdjust="spacing" textLength="246.2578" x="467" y="508.9707">+getTrainRepository() : TrainRepository</text><text fill="#000000" font-family="sans-serif" font-size="14" lengthAdjust="spacing" textLength="236.9336" x="467" y="527.5918">+getMapRepository() : MapRepository</text></g><!--class ApplicationSession--><g id="elem_ApplicationSession"><rect codeLine="55" fill="#F1F1F1" height="122.4844" id="ApplicationSession" rx="2.5" ry="2.5" style="stroke:#181818;stroke-width:0.5;" width="231.8506" x="381.5" y="613.6211"/><ellipse cx="434.0273" cy="629.6211" fill="#ADD1B2" rx="11" ry="11" style="stroke:#181818;stroke-width:1.0;"/><path d="M436.793,625.4961 Q436.9492,625.2773 437.1367,625.168 Q437.3242,625.0586 437.543,625.0586 Q437.918,625.0586 438.1523,625.3242 Q438.3867,625.5742 438.3867,626.1836 L438.3867,627.6367 Q438.3867,628.2461 438.1523,628.5117 Q437.918,628.7773 437.543,628.7773 Q437.1992,628.7773 436.9961,628.5742 Q436.793,628.3867 436.6836,627.8711 Q436.6367,627.5117 436.4492,627.3242 Q436.1211,626.9492 435.5117,626.7305 Q434.9023,626.5117 434.2773,626.5117 Q433.5117,626.5117 432.8711,626.8398 Q432.2461,627.168 431.7461,627.918 Q431.2617,628.668 431.2617,629.6992 L431.2617,630.793 Q431.2617,632.0273 432.1523,632.8555 Q433.043,633.668 434.6367,633.668 Q435.5742,633.668 436.2305,633.418 Q436.6211,633.2617 437.043,632.8242 Q437.3086,632.5586 437.4492,632.4805 Q437.6055,632.4023 437.8086,632.4023 Q438.1367,632.4023 438.3867,632.668 Q438.6523,632.918 438.6523,633.2617 Q438.6523,633.6055 438.3086,634.0117 Q437.8086,634.5898 437.0117,634.918 Q435.9336,635.3711 434.6367,635.3711 Q433.1211,635.3711 431.918,634.7461 Q430.9336,634.2461 430.2461,633.1836 Q429.5586,632.1055 429.5586,630.8242 L429.5586,629.668 Q429.5586,628.3398 430.168,627.1992 Q430.793,626.043 431.8867,625.4336 Q432.9805,624.8086 434.2148,624.8086 Q434.9492,624.8086 435.5898,624.9805 Q436.2461,625.1367 436.793,625.4961 Z " fill="#000000"/><text fill="#000000" font-family="sans-serif" font-size="14" lengthAdjust="spacing" textLength="118.2959" x="454.5273" y="635.418">ApplicationSession</text><line style="stroke:#181818;stroke-width:0.5;" x1="382.5" x2="612.3506" y1="645.6211" y2="645.6211"/><line style="stroke:#181818;stroke-width:0.5;" x1="382.5" x2="612.3506" y1="653.6211" y2="653.6211"/><text fill="#000000" font-family="sans-serif" font-size="14" lengthAdjust="spacing" text-decoration="underline" textLength="219.8506" x="387.5" y="672.7285">+getInstance() : ApplicationSession</text><text fill="#000000" font-family="sans-serif" font-size="14" lengthAdjust="spacing" textLength="159.1064" x="387.5" y="691.3496">+getCurrentTrain() : Train</text><text fill="#000000" font-family="sans-serif" font-size="14" lengthAdjust="spacing" textLength="170.0303" x="387.5" y="709.9707">+getCurrentRoute() : Route</text><text fill="#000000" font-family="sans-serif" font-size="14" lengthAdjust="spacing" textLength="149.7822" x="387.5" y="728.5918">+getCurrentMap() : Map</text></g><!--class Player--><g id="elem_Player"><rect codeLine="63" fill="#F1F1F1" height="122.4844" id="Player" rx="2.5" ry="2.5" style="stroke:#181818;stroke-width:0.5;" width="154.4268" x="1161.5" y="613.6211"/><ellipse cx="1214.6221" cy="629.6211" fill="#ADD1B2" rx="11" ry="11" style="stroke:#181818;stroke-width:1.0;"/><path d="M1217.3877,625.4961 Q1217.5439,625.2773 1217.7314,625.168 Q1217.9189,625.0586 1218.1377,625.0586 Q1218.5127,625.0586 1218.7471,625.3242 Q1218.9814,625.5742 1218.9814,626.1836 L1218.9814,627.6367 Q1218.9814,628.2461 1218.7471,628.5117 Q1218.5127,628.7773 1218.1377,628.7773 Q1217.7939,628.7773 1217.5908,628.5742 Q1217.3877,628.3867 1217.2783,627.8711 Q1217.2314,627.5117 1217.0439,627.3242 Q1216.7158,626.9492 1216.1064,626.7305 Q1215.4971,626.5117 1214.8721,626.5117 Q1214.1064,626.5117 1213.4658,626.8398 Q1212.8408,627.168 1212.3408,627.918 Q1211.8564,628.668 1211.8564,629.6992 L1211.8564,630.793 Q1211.8564,632.0273 1212.7471,632.8555 Q1213.6377,633.668 1215.2314,633.668 Q1216.1689,633.668 1216.8252,633.418 Q1217.2158,633.2617 1217.6377,632.8242 Q1217.9033,632.5586 1218.0439,632.4805 Q1218.2002,632.4023 1218.4033,632.4023 Q1218.7314,632.4023 1218.9814,632.668 Q1219.2471,632.918 1219.2471,633.2617 Q1219.2471,633.6055 1218.9033,634.0117 Q1218.4033,634.5898 1217.6064,634.918 Q1216.5283,635.3711 1215.2314,635.3711 Q1213.7158,635.3711 1212.5127,634.7461 Q1211.5283,634.2461 1210.8408,633.1836 Q1210.1533,632.1055 1210.1533,630.8242 L1210.1533,629.668 Q1210.1533,628.3398 1210.7627,627.1992 Q1211.3877,626.043 1212.4814,625.4336 Q1213.5752,624.8086 1214.8096,624.8086 Q1215.5439,624.8086 1216.1846,624.9805 Q1216.8408,625.1367 1217.3877,625.4961 Z " fill="#000000"/><text fill="#000000" font-family="sans-serif" font-size="14" lengthAdjust="spacing" textLength="39.6826" x="1235.1221" y="635.418">Player</text><line style="stroke:#181818;stroke-width:0.5;" x1="1162.5" x2="1314.9268" y1="645.6211" y2="645.6211"/><text fill="#000000" font-family="sans-serif" font-size="14" lengthAdjust="spacing" textLength="111.2686" x="1167.5" y="664.7285">-username: String</text><text fill="#000000" font-family="sans-serif" font-size="14" lengthAdjust="spacing" textLength="108.9307" x="1167.5" y="683.3496">-password: String</text><text fill="#000000" font-family="sans-serif" font-size="14" lengthAdjust="spacing" textLength="130.7578" x="1167.5" y="701.9707">-initialBudget: double</text><text fill="#000000" font-family="sans-serif" font-size="14" lengthAdjust="spacing" textLength="142.4268" x="1167.5" y="720.5918">-currentBudget: double</text><line style="stroke:#181818;stroke-width:0.5;" x1="1162.5" x2="1314.9268" y1="728.1055" y2="728.1055"/></g><!--class Train--><g id="elem_Train"><rect codeLine="70" fill="#F1F1F1" height="141.1055" id="Train" rx="2.5" ry="2.5" style="stroke:#181818;stroke-width:0.5;" width="262.209" x="951.5" y="814.6211"/><ellipse cx="1062.4063" cy="830.6211" fill="#ADD1B2" rx="11" ry="11" style="stroke:#181818;stroke-width:1.0;"/><path d="M1065.1719,826.4961 Q1065.3281,826.2773 1065.5156,826.168 Q1065.7031,826.0586 1065.9219,826.0586 Q1066.2969,826.0586 1066.5313,826.3242 Q1066.7656,826.5742 1066.7656,827.1836 L1066.7656,828.6367 Q1066.7656,829.2461 1066.5313,829.5117 Q1066.2969,829.7773 1065.9219,829.7773 Q1065.5781,829.7773 1065.375,829.5742 Q1065.1719,829.3867 1065.0625,828.8711 Q1065.0156,828.5117 1064.8281,828.3242 Q1064.5,827.9492 1063.8906,827.7305 Q1063.2813,827.5117 1062.6563,827.5117 Q1061.8906,827.5117 1061.25,827.8398 Q1060.625,828.168 1060.125,828.918 Q1059.6406,829.668 1059.6406,830.6992 L1059.6406,831.793 Q1059.6406,833.0273 1060.5313,833.8555 Q1061.4219,834.668 1063.0156,834.668 Q1063.9531,834.668 1064.6094,834.418 Q1065,834.2617 1065.4219,833.8242 Q1065.6875,833.5586 1065.8281,833.4805 Q1065.9844,833.4023 1066.1875,833.4023 Q1066.5156,833.4023 1066.7656,833.668 Q1067.0313,833.918 1067.0313,834.2617 Q1067.0313,834.6055 1066.6875,835.0117 Q1066.1875,835.5898 1065.3906,835.918 Q1064.3125,836.3711 1063.0156,836.3711 Q1061.5,836.3711 1060.2969,835.7461 Q1059.3125,835.2461 1058.625,834.1836 Q1057.9375,833.1055 1057.9375,831.8242 L1057.9375,830.668 Q1057.9375,829.3398 1058.5469,828.1992 Q1059.1719,827.043 1060.2656,826.4336 Q1061.3594,825.8086 1062.5938,825.8086 Q1063.3281,825.8086 1063.9688,825.9805 Q1064.625,826.1367 1065.1719,826.4961 Z " fill="#000000"/><text fill="#000000" font-family="sans-serif" font-size="14" lengthAdjust="spacing" textLength="31.8965" x="1082.9063" y="836.418">Train</text><line style="stroke:#181818;stroke-width:0.5;" x1="952.5" x2="1212.709" y1="846.6211" y2="846.6211"/><text fill="#000000" font-family="sans-serif" font-size="14" lengthAdjust="spacing" textLength="98.0342" x="957.5" y="865.7285">-nameID: String</text><text fill="#000000" font-family="sans-serif" font-size="14" lengthAdjust="spacing" textLength="150.9512" x="957.5" y="884.3496">-locomotive: Locomotive</text><text fill="#000000" font-family="sans-serif" font-size="14" lengthAdjust="spacing" textLength="161.8477" x="957.5" y="902.9707">-carriages: List&lt;Carriage&gt;</text><line style="stroke:#181818;stroke-width:0.5;" x1="952.5" x2="1212.709" y1="910.4844" y2="910.4844"/><text fill="#000000" font-family="sans-serif" font-size="14" lengthAdjust="spacing" textLength="250.209" x="957.5" y="929.5918">+assignToRoute(route: Route) : boolean</text><text fill="#000000" font-family="sans-serif" font-size="14" lengthAdjust="spacing" textLength="166.1133" x="957.5" y="948.2129">+getDetails() : TrainDetails</text></g><!--class Locomotive--><g id="elem_Locomotive"><rect codeLine="79" fill="#F1F1F1" height="234.2109" id="Locomotive" rx="2.5" ry="2.5" style="stroke:#181818;stroke-width:0.5;" width="178.5439" x="1134" y="1034.6211"/><ellipse cx="1183.2256" cy="1050.6211" fill="#ADD1B2" rx="11" ry="11" style="stroke:#181818;stroke-width:1.0;"/><path d="M1185.9912,1046.4961 Q1186.1475,1046.2773 1186.335,1046.168 Q1186.5225,1046.0586 1186.7412,1046.0586 Q1187.1162,1046.0586 1187.3506,1046.3242 Q1187.585,1046.5742 1187.585,1047.1836 L1187.585,1048.6367 Q1187.585,1049.2461 1187.3506,1049.5117 Q1187.1162,1049.7773 1186.7412,1049.7773 Q1186.3975,1049.7773 1186.1943,1049.5742 Q1185.9912,1049.3867 1185.8818,1048.8711 Q1185.835,1048.5117 1185.6475,1048.3242 Q1185.3193,1047.9492 1184.71,1047.7305 Q1184.1006,1047.5117 1183.4756,1047.5117 Q1182.71,1047.5117 1182.0693,1047.8398 Q1181.4443,1048.168 1180.9443,1048.918 Q1180.46,1049.668 1180.46,1050.6992 L1180.46,1051.793 Q1180.46,1053.0273 1181.3506,1053.8555 Q1182.2412,1054.668 1183.835,1054.668 Q1184.7725,1054.668 1185.4287,1054.418 Q1185.8193,1054.2617 1186.2412,1053.8242 Q1186.5068,1053.5586 1186.6475,1053.4805 Q1186.8037,1053.4023 1187.0068,1053.4023 Q1187.335,1053.4023 1187.585,1053.668 Q1187.8506,1053.918 1187.8506,1054.2617 Q1187.8506,1054.6055 1187.5068,1055.0117 Q1187.0068,1055.5898 1186.21,1055.918 Q1185.1318,1056.3711 1183.835,1056.3711 Q1182.3193,1056.3711 1181.1162,1055.7461 Q1180.1318,1055.2461 1179.4443,1054.1836 Q1178.7568,1053.1055 1178.7568,1051.8242 L1178.7568,1050.668 Q1178.7568,1049.3398 1179.3662,1048.1992 Q1179.9912,1047.043 1181.085,1046.4336 Q1182.1787,1045.8086 1183.4131,1045.8086 Q1184.1475,1045.8086 1184.7881,1045.9805 Q1185.4443,1046.1367 1185.9912,1046.4961 Z " fill="#000000"/><text fill="#000000" font-family="sans-serif" font-size="14" lengthAdjust="spacing" textLength="71.5928" x="1203.7256" y="1056.418">Locomotive</text><line style="stroke:#181818;stroke-width:0.5;" x1="1135" x2="1311.5439" y1="1066.6211" y2="1066.6211"/><text fill="#000000" font-family="sans-serif" font-size="14" lengthAdjust="spacing" textLength="98.0342" x="1140" y="1085.7285">-nameID: String</text><text fill="#000000" font-family="sans-serif" font-size="14" lengthAdjust="spacing" textLength="75.4756" x="1140" y="1104.3496">-type: String</text><text fill="#000000" font-family="sans-serif" font-size="14" lengthAdjust="spacing" textLength="65.3584" x="1140" y="1122.9707">-power: int</text><text fill="#000000" font-family="sans-serif" font-size="14" lengthAdjust="spacing" textLength="129.9717" x="1140" y="1141.5918">-acceleration: double</text><text fill="#000000" font-family="sans-serif" font-size="14" lengthAdjust="spacing" textLength="87.1719" x="1140" y="1160.2129">-topSpeed: int</text><text fill="#000000" font-family="sans-serif" font-size="14" lengthAdjust="spacing" textLength="84.0273" x="1140" y="1178.834">-startYear: int</text><text fill="#000000" font-family="sans-serif" font-size="14" lengthAdjust="spacing" textLength="105.8408" x="1140" y="1197.4551">-fuelCost: double</text><text fill="#000000" font-family="sans-serif" font-size="14" lengthAdjust="spacing" textLength="121.3857" x="1140" y="1216.0762">-availabilityYear: int</text><text fill="#000000" font-family="sans-serif" font-size="14" lengthAdjust="spacing" textLength="152.5303" x="1140" y="1234.6973">-acquisitionPrice: double</text><text fill="#000000" font-family="sans-serif" font-size="14" lengthAdjust="spacing" textLength="166.5439" x="1140" y="1253.3184">-maintenancePrice: double</text><line style="stroke:#181818;stroke-width:0.5;" x1="1135" x2="1311.5439" y1="1260.832" y2="1260.832"/></g><!--class Carriage--><g id="elem_Carriage"><rect codeLine="92" fill="#F1F1F1" height="85.2422" id="Carriage" rx="2.5" ry="2.5" style="stroke:#181818;stroke-width:0.5;" width="140.3926" x="1010.5" y="1336.1211"/><ellipse cx="1050.1164" cy="1352.1211" fill="#ADD1B2" rx="11" ry="11" style="stroke:#181818;stroke-width:1.0;"/><path d="M1052.882,1347.9961 Q1053.0383,1347.7773 1053.2258,1347.668 Q1053.4133,1347.5586 1053.632,1347.5586 Q1054.007,1347.5586 1054.2414,1347.8242 Q1054.4758,1348.0742 1054.4758,1348.6836 L1054.4758,1350.1367 Q1054.4758,1350.7461 1054.2414,1351.0117 Q1054.007,1351.2773 1053.632,1351.2773 Q1053.2883,1351.2773 1053.0852,1351.0742 Q1052.882,1350.8867 1052.7727,1350.3711 Q1052.7258,1350.0117 1052.5383,1349.8242 Q1052.2102,1349.4492 1051.6008,1349.2305 Q1050.9914,1349.0117 1050.3664,1349.0117 Q1049.6008,1349.0117 1048.9602,1349.3398 Q1048.3352,1349.668 1047.8352,1350.418 Q1047.3508,1351.168 1047.3508,1352.1992 L1047.3508,1353.293 Q1047.3508,1354.5273 1048.2414,1355.3555 Q1049.132,1356.168 1050.7258,1356.168 Q1051.6633,1356.168 1052.3195,1355.918 Q1052.7102,1355.7617 1053.132,1355.3242 Q1053.3977,1355.0586 1053.5383,1354.9805 Q1053.6945,1354.9023 1053.8977,1354.9023 Q1054.2258,1354.9023 1054.4758,1355.168 Q1054.7414,1355.418 1054.7414,1355.7617 Q1054.7414,1356.1055 1054.3977,1356.5117 Q1053.8977,1357.0898 1053.1008,1357.418 Q1052.0227,1357.8711 1050.7258,1357.8711 Q1049.2102,1357.8711 1048.007,1357.2461 Q1047.0227,1356.7461 1046.3352,1355.6836 Q1045.6477,1354.6055 1045.6477,1353.3242 L1045.6477,1352.168 Q1045.6477,1350.8398 1046.257,1349.6992 Q1046.882,1348.543 1047.9758,1347.9336 Q1049.0695,1347.3086 1050.3039,1347.3086 Q1051.0383,1347.3086 1051.6789,1347.4805 Q1052.3352,1347.6367 1052.882,1347.9961 Z " fill="#000000"/><text fill="#000000" font-family="sans-serif" font-size="14" lengthAdjust="spacing" textLength="53.6895" x="1069.5867" y="1357.918">Carriage</text><line style="stroke:#181818;stroke-width:0.5;" x1="1011.5" x2="1149.8926" y1="1368.1211" y2="1368.1211"/><text fill="#000000" font-family="sans-serif" font-size="14" lengthAdjust="spacing" textLength="128.3926" x="1016.5" y="1387.2285">-storageCapacity: int</text><text fill="#000000" font-family="sans-serif" font-size="14" lengthAdjust="spacing" textLength="85.5928" x="1016.5" y="1405.8496">-cargo: Cargo</text><line style="stroke:#181818;stroke-width:0.5;" x1="1011.5" x2="1149.8926" y1="1413.3633" y2="1413.3633"/></g><!--class Route--><g id="elem_Route"><rect codeLine="97" fill="#F1F1F1" height="159.7266" id="Route" rx="2.5" ry="2.5" style="stroke:#181818;stroke-width:0.5;" width="213.1611" x="661" y="1071.6211"/><ellipse cx="744.6514" cy="1087.6211" fill="#ADD1B2" rx="11" ry="11" style="stroke:#181818;stroke-width:1.0;"/><path d="M747.417,1083.4961 Q747.5732,1083.2773 747.7607,1083.168 Q747.9482,1083.0586 748.167,1083.0586 Q748.542,1083.0586 748.7764,1083.3242 Q749.0107,1083.5742 749.0107,1084.1836 L749.0107,1085.6367 Q749.0107,1086.2461 748.7764,1086.5117 Q748.542,1086.7773 748.167,1086.7773 Q747.8232,1086.7773 747.6201,1086.5742 Q747.417,1086.3867 747.3076,1085.8711 Q747.2607,1085.5117 747.0732,1085.3242 Q746.7451,1084.9492 746.1357,1084.7305 Q745.5264,1084.5117 744.9014,1084.5117 Q744.1357,1084.5117 743.4951,1084.8398 Q742.8701,1085.168 742.3701,1085.918 Q741.8857,1086.668 741.8857,1087.6992 L741.8857,1088.793 Q741.8857,1090.0273 742.7764,1090.8555 Q743.667,1091.668 745.2607,1091.668 Q746.1982,1091.668 746.8545,1091.418 Q747.2451,1091.2617 747.667,1090.8242 Q747.9326,1090.5586 748.0732,1090.4805 Q748.2295,1090.4023 748.4326,1090.4023 Q748.7607,1090.4023 749.0107,1090.668 Q749.2764,1090.918 749.2764,1091.2617 Q749.2764,1091.6055 748.9326,1092.0117 Q748.4326,1092.5898 747.6357,1092.918 Q746.5576,1093.3711 745.2607,1093.3711 Q743.7451,1093.3711 742.542,1092.7461 Q741.5576,1092.2461 740.8701,1091.1836 Q740.1826,1090.1055 740.1826,1088.8242 L740.1826,1087.668 Q740.1826,1086.3398 740.792,1085.1992 Q741.417,1084.043 742.5107,1083.4336 Q743.6045,1082.8086 744.8389,1082.8086 Q745.5732,1082.8086 746.2139,1082.9805 Q746.8701,1083.1367 747.417,1083.4961 Z " fill="#000000"/><text fill="#000000" font-family="sans-serif" font-size="14" lengthAdjust="spacing" textLength="37.3584" x="765.1514" y="1093.418">Route</text><line style="stroke:#181818;stroke-width:0.5;" x1="662" x2="873.1611" y1="1103.6211" y2="1103.6211"/><text fill="#000000" font-family="sans-serif" font-size="14" lengthAdjust="spacing" textLength="98.0342" x="667" y="1122.7285">-nameID: String</text><text fill="#000000" font-family="sans-serif" font-size="14" lengthAdjust="spacing" textLength="198.4678" x="667" y="1141.3496">-stationSequence: List&lt;Station&gt;</text><text fill="#000000" font-family="sans-serif" font-size="14" lengthAdjust="spacing" textLength="145.5166" x="667" y="1159.9707">-cargoList: List&lt;Cargo&gt;</text><line style="stroke:#181818;stroke-width:0.5;" x1="662" x2="873.1611" y1="1167.4844" y2="1167.4844"/><text fill="#000000" font-family="sans-serif" font-size="14" lengthAdjust="spacing" textLength="171.5752" x="667" y="1186.5918">+getDetails() : RouteDetails</text><text fill="#000000" font-family="sans-serif" font-size="14" lengthAdjust="spacing" textLength="201.1611" x="667" y="1205.2129">+addTrain(train: Train) : boolean</text><text fill="#000000" font-family="sans-serif" font-size="14" lengthAdjust="spacing" textLength="177.8369" x="667" y="1223.834">+validateStations() : boolean</text></g><!--class Station--><g id="elem_Station"><rect codeLine="107" fill="#F1F1F1" height="141.1055" id="Station" rx="2.5" ry="2.5" style="stroke:#181818;stroke-width:0.5;" width="140.3926" x="870.5" y="1488.6211"/><ellipse cx="914.663" cy="1504.6211" fill="#ADD1B2" rx="11" ry="11" style="stroke:#181818;stroke-width:1.0;"/><path d="M917.4286,1500.4961 Q917.5849,1500.2773 917.7724,1500.168 Q917.9599,1500.0586 918.1786,1500.0586 Q918.5536,1500.0586 918.788,1500.3242 Q919.0224,1500.5742 919.0224,1501.1836 L919.0224,1502.6367 Q919.0224,1503.2461 918.788,1503.5117 Q918.5536,1503.7773 918.1786,1503.7773 Q917.8349,1503.7773 917.6317,1503.5742 Q917.4286,1503.3867 917.3192,1502.8711 Q917.2724,1502.5117 917.0849,1502.3242 Q916.7567,1501.9492 916.1474,1501.7305 Q915.538,1501.5117 914.913,1501.5117 Q914.1474,1501.5117 913.5067,1501.8398 Q912.8817,1502.168 912.3817,1502.918 Q911.8974,1503.668 911.8974,1504.6992 L911.8974,1505.793 Q911.8974,1507.0273 912.788,1507.8555 Q913.6786,1508.668 915.2724,1508.668 Q916.2099,1508.668 916.8661,1508.418 Q917.2567,1508.2617 917.6786,1507.8242 Q917.9442,1507.5586 918.0849,1507.4805 Q918.2411,1507.4023 918.4442,1507.4023 Q918.7724,1507.4023 919.0224,1507.668 Q919.288,1507.918 919.288,1508.2617 Q919.288,1508.6055 918.9442,1509.0117 Q918.4442,1509.5898 917.6474,1509.918 Q916.5692,1510.3711 915.2724,1510.3711 Q913.7567,1510.3711 912.5536,1509.7461 Q911.5692,1509.2461 910.8817,1508.1836 Q910.1942,1507.1055 910.1942,1505.8242 L910.1942,1504.668 Q910.1942,1503.3398 910.8036,1502.1992 Q911.4286,1501.043 912.5224,1500.4336 Q913.6161,1499.8086 914.8505,1499.8086 Q915.5849,1499.8086 916.2255,1499.9805 Q916.8817,1500.1367 917.4286,1500.4961 Z " fill="#000000"/><text fill="#000000" font-family="sans-serif" font-size="14" lengthAdjust="spacing" textLength="43.5859" x="935.1437" y="1510.418">Station</text><line style="stroke:#181818;stroke-width:0.5;" x1="871.5" x2="1009.8926" y1="1520.6211" y2="1520.6211"/><text fill="#000000" font-family="sans-serif" font-size="14" lengthAdjust="spacing" textLength="98.0342" x="876.5" y="1539.7285">-nameID: String</text><text fill="#000000" font-family="sans-serif" font-size="14" lengthAdjust="spacing" textLength="128.3926" x="876.5" y="1558.3496">-storageCapacity: int</text><text fill="#000000" font-family="sans-serif" font-size="14" lengthAdjust="spacing" textLength="106.6133" x="876.5" y="1576.9707">-buildingSlots: int</text><text fill="#000000" font-family="sans-serif" font-size="14" lengthAdjust="spacing" textLength="120.6201" x="876.5" y="1595.5918">-availableCargo: int</text><text fill="#000000" font-family="sans-serif" font-size="14" lengthAdjust="spacing" textLength="127.627" x="876.5" y="1614.2129">-requestedCargo: int</text><line style="stroke:#181818;stroke-width:0.5;" x1="871.5" x2="1009.8926" y1="1621.7266" y2="1621.7266"/></g><!--class Cargo--><g id="elem_Cargo"><rect codeLine="115" fill="#F1F1F1" height="141.1055" id="Cargo" rx="2.5" ry="2.5" style="stroke:#181818;stroke-width:0.5;" width="231.4473" x="652" y="1708.6211"/><ellipse cx="744.4082" cy="1724.6211" fill="#ADD1B2" rx="11" ry="11" style="stroke:#181818;stroke-width:1.0;"/><path d="M747.1738,1720.4961 Q747.3301,1720.2773 747.5176,1720.168 Q747.7051,1720.0586 747.9238,1720.0586 Q748.2988,1720.0586 748.5332,1720.3242 Q748.7676,1720.5742 748.7676,1721.1836 L748.7676,1722.6367 Q748.7676,1723.2461 748.5332,1723.5117 Q748.2988,1723.7773 747.9238,1723.7773 Q747.5801,1723.7773 747.377,1723.5742 Q747.1738,1723.3867 747.0645,1722.8711 Q747.0176,1722.5117 746.8301,1722.3242 Q746.502,1721.9492 745.8926,1721.7305 Q745.2832,1721.5117 744.6582,1721.5117 Q743.8926,1721.5117 743.252,1721.8398 Q742.627,1722.168 742.127,1722.918 Q741.6426,1723.668 741.6426,1724.6992 L741.6426,1725.793 Q741.6426,1727.0273 742.5332,1727.8555 Q743.4238,1728.668 745.0176,1728.668 Q745.9551,1728.668 746.6113,1728.418 Q747.002,1728.2617 747.4238,1727.8242 Q747.6895,1727.5586 747.8301,1727.4805 Q747.9863,1727.4023 748.1895,1727.4023 Q748.5176,1727.4023 748.7676,1727.668 Q749.0332,1727.918 749.0332,1728.2617 Q749.0332,1728.6055 748.6895,1729.0117 Q748.1895,1729.5898 747.3926,1729.918 Q746.3145,1730.3711 745.0176,1730.3711 Q743.502,1730.3711 742.2988,1729.7461 Q741.3145,1729.2461 740.627,1728.1836 Q739.9395,1727.1055 739.9395,1725.8242 L739.9395,1724.668 Q739.9395,1723.3398 740.5488,1722.1992 Q741.1738,1721.043 742.2676,1720.4336 Q743.3613,1719.8086 744.5957,1719.8086 Q745.3301,1719.8086 745.9707,1719.9805 Q746.627,1720.1367 747.1738,1720.4961 Z " fill="#000000"/><text fill="#000000" font-family="sans-serif" font-size="14" lengthAdjust="spacing" textLength="38.1309" x="764.9082" y="1730.418">Cargo</text><line style="stroke:#181818;stroke-width:0.5;" x1="653" x2="882.4473" y1="1740.6211" y2="1740.6211"/><text fill="#000000" font-family="sans-serif" font-size="14" lengthAdjust="spacing" textLength="84.0342" x="658" y="1759.7285">-name: String</text><text fill="#000000" font-family="sans-serif" font-size="14" lengthAdjust="spacing" textLength="73.9238" x="658" y="1778.3496">-amount: int</text><text fill="#000000" font-family="sans-serif" font-size="14" lengthAdjust="spacing" textLength="75.4824" x="658" y="1796.9707">-lifespan: int</text><text fill="#000000" font-family="sans-serif" font-size="14" lengthAdjust="spacing" textLength="75.4756" x="658" y="1815.5918">-type: String</text><text fill="#000000" font-family="sans-serif" font-size="14" lengthAdjust="spacing" textLength="219.4473" x="658" y="1834.2129">-productionResources: List&lt;String&gt;</text><line style="stroke:#181818;stroke-width:0.5;" x1="653" x2="882.4473" y1="1841.7266" y2="1841.7266"/></g><!--class RailwayLine--><g id="elem_RailwayLine"><rect codeLine="123" fill="#F1F1F1" height="122.4844" id="RailwayLine" rx="2.5" ry="2.5" style="stroke:#181818;stroke-width:0.5;" width="145.8477" x="551.5" y="1498.1211"/><ellipse cx="583.7644" cy="1514.1211" fill="#ADD1B2" rx="11" ry="11" style="stroke:#181818;stroke-width:1.0;"/><path d="M586.53,1509.9961 Q586.6862,1509.7773 586.8737,1509.668 Q587.0612,1509.5586 587.28,1509.5586 Q587.655,1509.5586 587.8894,1509.8242 Q588.1237,1510.0742 588.1237,1510.6836 L588.1237,1512.1367 Q588.1237,1512.7461 587.8894,1513.0117 Q587.655,1513.2773 587.28,1513.2773 Q586.9362,1513.2773 586.7331,1513.0742 Q586.53,1512.8867 586.4206,1512.3711 Q586.3737,1512.0117 586.1862,1511.8242 Q585.8581,1511.4492 585.2487,1511.2305 Q584.6394,1511.0117 584.0144,1511.0117 Q583.2487,1511.0117 582.6081,1511.3398 Q581.9831,1511.668 581.4831,1512.418 Q580.9987,1513.168 580.9987,1514.1992 L580.9987,1515.293 Q580.9987,1516.5273 581.8894,1517.3555 Q582.78,1518.168 584.3737,1518.168 Q585.3112,1518.168 585.9675,1517.918 Q586.3581,1517.7617 586.78,1517.3242 Q587.0456,1517.0586 587.1862,1516.9805 Q587.3425,1516.9023 587.5456,1516.9023 Q587.8737,1516.9023 588.1237,1517.168 Q588.3894,1517.418 588.3894,1517.7617 Q588.3894,1518.1055 588.0456,1518.5117 Q587.5456,1519.0898 586.7487,1519.418 Q585.6706,1519.8711 584.3737,1519.8711 Q582.8581,1519.8711 581.655,1519.2461 Q580.6706,1518.7461 579.9831,1517.6836 Q579.2956,1516.6055 579.2956,1515.3242 L579.2956,1514.168 Q579.2956,1512.8398 579.905,1511.6992 Q580.53,1510.543 581.6237,1509.9336 Q582.7175,1509.3086 583.9519,1509.3086 Q584.6862,1509.3086 585.3269,1509.4805 Q585.9831,1509.6367 586.53,1509.9961 Z " fill="#000000"/><text fill="#000000" font-family="sans-serif" font-size="14" lengthAdjust="spacing" textLength="75.4824" x="601.6009" y="1519.918">RailwayLine</text><line style="stroke:#181818;stroke-width:0.5;" x1="552.5" x2="696.3477" y1="1530.1211" y2="1530.1211"/><text fill="#000000" font-family="sans-serif" font-size="14" lengthAdjust="spacing" textLength="92.627" x="557.5" y="1549.2285">-length: double</text><text fill="#000000" font-family="sans-serif" font-size="14" lengthAdjust="spacing" textLength="110.4756" x="557.5" y="1567.8496">-trackType: String</text><text fill="#000000" font-family="sans-serif" font-size="14" lengthAdjust="spacing" textLength="133.8477" x="557.5" y="1586.4707">-isElectrified: boolean</text><text fill="#000000" font-family="sans-serif" font-size="14" lengthAdjust="spacing" textLength="80.1582" x="557.5" y="1605.0918">-cost: double</text><line style="stroke:#181818;stroke-width:0.5;" x1="552.5" x2="696.3477" y1="1612.6055" y2="1612.6055"/></g><!--class Map--><g id="elem_Map"><rect codeLine="130" fill="#F1F1F1" height="141.1055" id="Map" rx="2.5" ry="2.5" style="stroke:#181818;stroke-width:0.5;" width="183.1855" x="146" y="814.6211"/><ellipse cx="219.7256" cy="830.6211" fill="#ADD1B2" rx="11" ry="11" style="stroke:#181818;stroke-width:1.0;"/><path d="M222.4912,826.4961 Q222.6475,826.2773 222.835,826.168 Q223.0225,826.0586 223.2412,826.0586 Q223.6162,826.0586 223.8506,826.3242 Q224.085,826.5742 224.085,827.1836 L224.085,828.6367 Q224.085,829.2461 223.8506,829.5117 Q223.6162,829.7773 223.2412,829.7773 Q222.8975,829.7773 222.6943,829.5742 Q222.4912,829.3867 222.3818,828.8711 Q222.335,828.5117 222.1475,828.3242 Q221.8193,827.9492 221.21,827.7305 Q220.6006,827.5117 219.9756,827.5117 Q219.21,827.5117 218.5693,827.8398 Q217.9443,828.168 217.4443,828.918 Q216.96,829.668 216.96,830.6992 L216.96,831.793 Q216.96,833.0273 217.8506,833.8555 Q218.7412,834.668 220.335,834.668 Q221.2725,834.668 221.9287,834.418 Q222.3193,834.2617 222.7412,833.8242 Q223.0068,833.5586 223.1475,833.4805 Q223.3037,833.4023 223.5068,833.4023 Q223.835,833.4023 224.085,833.668 Q224.3506,833.918 224.3506,834.2617 Q224.3506,834.6055 224.0068,835.0117 Q223.5068,835.5898 222.71,835.918 Q221.6318,836.3711 220.335,836.3711 Q218.8193,836.3711 217.6162,835.7461 Q216.6318,835.2461 215.9443,834.1836 Q215.2568,833.1055 215.2568,831.8242 L215.2568,830.668 Q215.2568,829.3398 215.8662,828.1992 Q216.4912,827.043 217.585,826.4336 Q218.6787,825.8086 219.9131,825.8086 Q220.6475,825.8086 221.2881,825.9805 Q221.9443,826.1367 222.4912,826.4961 Z " fill="#000000"/><text fill="#000000" font-family="sans-serif" font-size="14" lengthAdjust="spacing" textLength="27.2344" x="240.2256" y="836.418">Map</text><line style="stroke:#181818;stroke-width:0.5;" x1="147" x2="328.1855" y1="846.6211" y2="846.6211"/><text fill="#000000" font-family="sans-serif" font-size="14" lengthAdjust="spacing" textLength="98.0342" x="152" y="865.7285">-nameID: String</text><text fill="#000000" font-family="sans-serif" font-size="14" lengthAdjust="spacing" textLength="117.4756" x="152" y="884.3496">-cityList: List&lt;City&gt;</text><text fill="#000000" font-family="sans-serif" font-size="14" lengthAdjust="spacing" textLength="171.1855" x="152" y="902.9707">-industryList: List&lt;Industry&gt;</text><text fill="#000000" font-family="sans-serif" font-size="14" lengthAdjust="spacing" textLength="64.5723" x="152" y="921.5918">-size: Size</text><text fill="#000000" font-family="sans-serif" font-size="14" lengthAdjust="spacing" textLength="155.6406" x="152" y="940.2129">-positions: List&lt;Position&gt;</text><line style="stroke:#181818;stroke-width:0.5;" x1="147" x2="328.1855" y1="947.7266" y2="947.7266"/></g><!--class Size--><g id="elem_Size"><rect codeLine="138" fill="#F1F1F1" height="85.2422" id="Size" rx="2.5" ry="2.5" style="stroke:#181818;stroke-width:0.5;" width="77.3721" x="300" y="1109.1211"/><ellipse cx="323.162" cy="1125.1211" fill="#ADD1B2" rx="11" ry="11" style="stroke:#181818;stroke-width:1.0;"/><path d="M325.9276,1120.9961 Q326.0838,1120.7773 326.2713,1120.668 Q326.4588,1120.5586 326.6776,1120.5586 Q327.0526,1120.5586 327.287,1120.8242 Q327.5213,1121.0742 327.5213,1121.6836 L327.5213,1123.1367 Q327.5213,1123.7461 327.287,1124.0117 Q327.0526,1124.2773 326.6776,1124.2773 Q326.3338,1124.2773 326.1307,1124.0742 Q325.9276,1123.8867 325.8182,1123.3711 Q325.7713,1123.0117 325.5838,1122.8242 Q325.2557,1122.4492 324.6463,1122.2305 Q324.037,1122.0117 323.412,1122.0117 Q322.6463,1122.0117 322.0057,1122.3398 Q321.3807,1122.668 320.8807,1123.418 Q320.3963,1124.168 320.3963,1125.1992 L320.3963,1126.293 Q320.3963,1127.5273 321.287,1128.3555 Q322.1776,1129.168 323.7713,1129.168 Q324.7088,1129.168 325.3651,1128.918 Q325.7557,1128.7617 326.1776,1128.3242 Q326.4432,1128.0586 326.5838,1127.9805 Q326.7401,1127.9023 326.9432,1127.9023 Q327.2713,1127.9023 327.5213,1128.168 Q327.787,1128.418 327.787,1128.7617 Q327.787,1129.1055 327.4432,1129.5117 Q326.9432,1130.0898 326.1463,1130.418 Q325.0682,1130.8711 323.7713,1130.8711 Q322.2557,1130.8711 321.0526,1130.2461 Q320.0682,1129.7461 319.3807,1128.6836 Q318.6932,1127.6055 318.6932,1126.3242 L318.6932,1125.168 Q318.6932,1123.8398 319.3026,1122.6992 Q319.9276,1121.543 321.0213,1120.9336 Q322.1151,1120.3086 323.3495,1120.3086 Q324.0838,1120.3086 324.7245,1120.4805 Q325.3807,1120.6367 325.9276,1120.9961 Z " fill="#000000"/><text fill="#000000" font-family="sans-serif" font-size="14" lengthAdjust="spacing" textLength="27.2344" x="338.9757" y="1130.918">Size</text><line style="stroke:#181818;stroke-width:0.5;" x1="301" x2="376.3721" y1="1141.1211" y2="1141.1211"/><text fill="#000000" font-family="sans-serif" font-size="14" lengthAdjust="spacing" textLength="59.9102" x="306" y="1160.2285">-width: int</text><text fill="#000000" font-family="sans-serif" font-size="14" lengthAdjust="spacing" textLength="65.3721" x="306" y="1178.8496">-height: int</text><line style="stroke:#181818;stroke-width:0.5;" x1="301" x2="376.3721" y1="1186.3633" y2="1186.3633"/></g><!--class Position--><g id="elem_Position"><rect codeLine="143" fill="#F1F1F1" height="103.8633" id="Position" rx="2.5" ry="2.5" style="stroke:#181818;stroke-width:0.5;" width="130.3096" x="134.5" y="1099.6211"/><ellipse cx="171.3263" cy="1115.6211" fill="#ADD1B2" rx="11" ry="11" style="stroke:#181818;stroke-width:1.0;"/><path d="M174.0919,1111.4961 Q174.2482,1111.2773 174.4357,1111.168 Q174.6232,1111.0586 174.8419,1111.0586 Q175.2169,1111.0586 175.4513,1111.3242 Q175.6857,1111.5742 175.6857,1112.1836 L175.6857,1113.6367 Q175.6857,1114.2461 175.4513,1114.5117 Q175.2169,1114.7773 174.8419,1114.7773 Q174.4982,1114.7773 174.2951,1114.5742 Q174.0919,1114.3867 173.9826,1113.8711 Q173.9357,1113.5117 173.7482,1113.3242 Q173.4201,1112.9492 172.8107,1112.7305 Q172.2013,1112.5117 171.5763,1112.5117 Q170.8107,1112.5117 170.1701,1112.8398 Q169.5451,1113.168 169.0451,1113.918 Q168.5607,1114.668 168.5607,1115.6992 L168.5607,1116.793 Q168.5607,1118.0273 169.4513,1118.8555 Q170.3419,1119.668 171.9357,1119.668 Q172.8732,1119.668 173.5294,1119.418 Q173.9201,1119.2617 174.3419,1118.8242 Q174.6076,1118.5586 174.7482,1118.4805 Q174.9044,1118.4023 175.1076,1118.4023 Q175.4357,1118.4023 175.6857,1118.668 Q175.9513,1118.918 175.9513,1119.2617 Q175.9513,1119.6055 175.6076,1120.0117 Q175.1076,1120.5898 174.3107,1120.918 Q173.2326,1121.3711 171.9357,1121.3711 Q170.4201,1121.3711 169.2169,1120.7461 Q168.2326,1120.2461 167.5451,1119.1836 Q166.8576,1118.1055 166.8576,1116.8242 L166.8576,1115.668 Q166.8576,1114.3398 167.4669,1113.1992 Q168.0919,1112.043 169.1857,1111.4336 Q170.2794,1110.8086 171.5138,1110.8086 Q172.2482,1110.8086 172.8888,1110.9805 Q173.5451,1111.1367 174.0919,1111.4961 Z " fill="#000000"/><text fill="#000000" font-family="sans-serif" font-size="14" lengthAdjust="spacing" textLength="49.8066" x="190.1766" y="1121.418">Position</text><line style="stroke:#181818;stroke-width:0.5;" x1="135.5" x2="263.8096" y1="1131.6211" y2="1131.6211"/><text fill="#000000" font-family="sans-serif" font-size="14" lengthAdjust="spacing" textLength="34.2275" x="140.5" y="1150.7285">-x: int</text><text fill="#000000" font-family="sans-serif" font-size="14" lengthAdjust="spacing" textLength="34.2275" x="140.5" y="1169.3496">-y: int</text><text fill="#000000" font-family="sans-serif" font-size="14" lengthAdjust="spacing" textLength="118.3096" x="140.5" y="1187.9707">-occupied: boolean</text><line style="stroke:#181818;stroke-width:0.5;" x1="135.5" x2="263.8096" y1="1195.4844" y2="1195.4844"/></g><!--class City--><g id="elem_City"><rect codeLine="149" fill="#F1F1F1" height="122.4844" id="City" rx="2.5" ry="2.5" style="stroke:#181818;stroke-width:0.5;" width="205.0059" x="305" y="1317.6211"/><ellipse cx="391.1978" cy="1333.6211" fill="#ADD1B2" rx="11" ry="11" style="stroke:#181818;stroke-width:1.0;"/><path d="M393.9634,1329.4961 Q394.1196,1329.2773 394.3071,1329.168 Q394.4946,1329.0586 394.7134,1329.0586 Q395.0884,1329.0586 395.3228,1329.3242 Q395.5571,1329.5742 395.5571,1330.1836 L395.5571,1331.6367 Q395.5571,1332.2461 395.3228,1332.5117 Q395.0884,1332.7773 394.7134,1332.7773 Q394.3696,1332.7773 394.1665,1332.5742 Q393.9634,1332.3867 393.854,1331.8711 Q393.8071,1331.5117 393.6196,1331.3242 Q393.2915,1330.9492 392.6821,1330.7305 Q392.0728,1330.5117 391.4478,1330.5117 Q390.6821,1330.5117 390.0415,1330.8398 Q389.4165,1331.168 388.9165,1331.918 Q388.4321,1332.668 388.4321,1333.6992 L388.4321,1334.793 Q388.4321,1336.0273 389.3228,1336.8555 Q390.2134,1337.668 391.8071,1337.668 Q392.7446,1337.668 393.4009,1337.418 Q393.7915,1337.2617 394.2134,1336.8242 Q394.479,1336.5586 394.6196,1336.4805 Q394.7759,1336.4023 394.979,1336.4023 Q395.3071,1336.4023 395.5571,1336.668 Q395.8228,1336.918 395.8228,1337.2617 Q395.8228,1337.6055 395.479,1338.0117 Q394.979,1338.5898 394.1821,1338.918 Q393.104,1339.3711 391.8071,1339.3711 Q390.2915,1339.3711 389.0884,1338.7461 Q388.104,1338.2461 387.4165,1337.1836 Q386.729,1336.1055 386.729,1334.8242 L386.729,1333.668 Q386.729,1332.3398 387.3384,1331.1992 Q387.9634,1330.043 389.0571,1329.4336 Q390.1509,1328.8086 391.3853,1328.8086 Q392.1196,1328.8086 392.7603,1328.9805 Q393.4165,1329.1367 393.9634,1329.4961 Z " fill="#000000"/><text fill="#000000" font-family="sans-serif" font-size="14" lengthAdjust="spacing" textLength="24.1104" x="411.6978" y="1339.418">City</text><line style="stroke:#181818;stroke-width:0.5;" x1="306" x2="509.0059" y1="1349.6211" y2="1349.6211"/><text fill="#000000" font-family="sans-serif" font-size="14" lengthAdjust="spacing" textLength="98.0342" x="311" y="1368.7285">-nameID: String</text><text fill="#000000" font-family="sans-serif" font-size="14" lengthAdjust="spacing" textLength="118.2822" x="311" y="1387.3496">-trafficRate: double</text><text fill="#000000" font-family="sans-serif" font-size="14" lengthAdjust="spacing" textLength="178.9922" x="311" y="1405.9707">-suppliedCargo: List&lt;Cargo&gt;</text><text fill="#000000" font-family="sans-serif" font-size="14" lengthAdjust="spacing" textLength="193.0059" x="311" y="1424.5918">-demandedCargo: List&lt;Cargo&gt;</text><line style="stroke:#181818;stroke-width:0.5;" x1="306" x2="509.0059" y1="1432.1055" y2="1432.1055"/></g><!--class Industry--><g id="elem_Industry"><rect codeLine="156" fill="#F1F1F1" height="159.7266" id="Industry" rx="2.5" ry="2.5" style="stroke:#181818;stroke-width:0.5;" width="205.0059" x="7" y="1298.6211"/><ellipse cx="80.353" cy="1314.6211" fill="#ADD1B2" rx="11" ry="11" style="stroke:#181818;stroke-width:1.0;"/><path d="M83.1187,1310.4961 Q83.2749,1310.2773 83.4624,1310.168 Q83.6499,1310.0586 83.8687,1310.0586 Q84.2437,1310.0586 84.478,1310.3242 Q84.7124,1310.5742 84.7124,1311.1836 L84.7124,1312.6367 Q84.7124,1313.2461 84.478,1313.5117 Q84.2437,1313.7773 83.8687,1313.7773 Q83.5249,1313.7773 83.3218,1313.5742 Q83.1187,1313.3867 83.0093,1312.8711 Q82.9624,1312.5117 82.7749,1312.3242 Q82.4468,1311.9492 81.8374,1311.7305 Q81.228,1311.5117 80.603,1311.5117 Q79.8374,1311.5117 79.1968,1311.8398 Q78.5718,1312.168 78.0718,1312.918 Q77.5874,1313.668 77.5874,1314.6992 L77.5874,1315.793 Q77.5874,1317.0273 78.478,1317.8555 Q79.3687,1318.668 80.9624,1318.668 Q81.8999,1318.668 82.5562,1318.418 Q82.9468,1318.2617 83.3687,1317.8242 Q83.6343,1317.5586 83.7749,1317.4805 Q83.9312,1317.4023 84.1343,1317.4023 Q84.4624,1317.4023 84.7124,1317.668 Q84.978,1317.918 84.978,1318.2617 Q84.978,1318.6055 84.6343,1319.0117 Q84.1343,1319.5898 83.3374,1319.918 Q82.2593,1320.3711 80.9624,1320.3711 Q79.4468,1320.3711 78.2437,1319.7461 Q77.2593,1319.2461 76.5718,1318.1836 Q75.8843,1317.1055 75.8843,1315.8242 L75.8843,1314.668 Q75.8843,1313.3398 76.4937,1312.1992 Q77.1187,1311.043 78.2124,1310.4336 Q79.3062,1309.8086 80.5405,1309.8086 Q81.2749,1309.8086 81.9155,1309.9805 Q82.5718,1310.1367 83.1187,1310.4961 Z " fill="#000000"/><text fill="#000000" font-family="sans-serif" font-size="14" lengthAdjust="spacing" textLength="49.7998" x="100.853" y="1320.418">Industry</text><line style="stroke:#181818;stroke-width:0.5;" x1="8" x2="211.0059" y1="1330.6211" y2="1330.6211"/><text fill="#000000" font-family="sans-serif" font-size="14" lengthAdjust="spacing" textLength="98.0342" x="13" y="1349.7285">-nameID: String</text><text fill="#000000" font-family="sans-serif" font-size="14" lengthAdjust="spacing" textLength="75.4756" x="13" y="1368.3496">-type: String</text><text fill="#000000" font-family="sans-serif" font-size="14" lengthAdjust="spacing" textLength="121.3857" x="13" y="1386.9707">-availabilityYear: int</text><text fill="#000000" font-family="sans-serif" font-size="14" lengthAdjust="spacing" textLength="149.4336" x="13" y="1405.5918">-productionRate: double</text><text fill="#000000" font-family="sans-serif" font-size="14" lengthAdjust="spacing" textLength="178.9922" x="13" y="1424.2129">-suppliedCargo: List&lt;Cargo&gt;</text><text fill="#000000" font-family="sans-serif" font-size="14" lengthAdjust="spacing" textLength="193.0059" x="13" y="1442.834">-demandedCargo: List&lt;Cargo&gt;</text><line style="stroke:#181818;stroke-width:0.5;" x1="8" x2="211.0059" y1="1450.3477" y2="1450.3477"/></g><!--link EditMapUI to EditMapController--><g id="link_EditMapUI_EditMapController"><path codeLine="166" d="M237.5,94.9111 C237.5,121.6511 237.5,160.3111 237.5,195.2911 " fill="none" id="EditMapUI-to-EditMapController" style="stroke:#181818;stroke-width:1.0;stroke-dasharray:7.0,7.0;"/><polygon fill="#181818" points="237.5,201.2911,241.5,192.2911,237.5,196.2911,233.5,192.2911,237.5,201.2911" style="stroke:#181818;stroke-width:1.0;"/><text fill="#000000" font-family="sans-serif" font-size="13" lengthAdjust="spacing" textLength="27.46" x="238.5" y="139.6494">uses</text></g><!--link AssignTrainUI to AssignTrainController--><g id="link_AssignTrainUI_AssignTrainController"><path codeLine="167" d="M841.5,94.9111 C841.5,114.8711 841.5,138.8111 841.5,167.2611 " fill="none" id="AssignTrainUI-to-AssignTrainController" style="stroke:#181818;stroke-width:1.0;stroke-dasharray:7.0,7.0;"/><polygon fill="#181818" points="841.5,173.2611,845.5,164.2611,841.5,168.2611,837.5,164.2611,841.5,173.2611" style="stroke:#181818;stroke-width:1.0;"/><text fill="#000000" font-family="sans-serif" font-size="13" lengthAdjust="spacing" textLength="27.46" x="842.5" y="139.6494">uses</text></g><!--link EditMapController to MapRepository--><g id="link_EditMapController_MapRepository"><path codeLine="170" d="M237.5,306.0011 C237.5,389.9111 237.5,548.7411 237.5,625.9111 " fill="none" id="EditMapController-to-MapRepository" style="stroke:#181818;stroke-width:1.0;stroke-dasharray:7.0,7.0;"/><polygon fill="#181818" points="237.5,631.9111,241.5,622.9111,237.5,626.9111,233.5,622.9111,237.5,631.9111" style="stroke:#181818;stroke-width:1.0;"/><text fill="#000000" font-family="sans-serif" font-size="13" lengthAdjust="spacing" textLength="27.46" x="238.5" y="479.1494">uses</text></g><!--link EditMapController to Repositories--><g id="link_EditMapController_Repositories"><path codeLine="171" d="M321.44,305.7311 C373.93,337.7011 436.6654,375.9004 491.7254,409.4304 " fill="none" id="EditMapController-to-Repositories" style="stroke:#181818;stroke-width:1.0;stroke-dasharray:7.0,7.0;"/><polygon fill="#181818" points="496.85,412.5511,491.2436,404.4536,492.5795,409.9505,487.0827,411.2864,496.85,412.5511" style="stroke:#181818;stroke-width:1.0;"/><text fill="#000000" font-family="sans-serif" font-size="13" lengthAdjust="spacing" textLength="27.46" x="439.5" y="378.6494">uses</text></g><!--link EditMapController to Map--><g id="link_EditMapController_Map"><path codeLine="172" d="M203.93,305.8011 C149.99,394.7811 55.5,583.0711 111.5,735.6211 C122.1,764.5011 137.1402,787.1045 157.2102,810.0545 " fill="none" id="EditMapController-to-Map" style="stroke:#181818;stroke-width:1.0;stroke-dasharray:7.0,7.0;"/><polygon fill="#181818" points="161.16,814.5711,158.2464,805.1631,157.8685,810.8073,152.2243,810.4294,161.16,814.5711" style="stroke:#181818;stroke-width:1.0;"/><text fill="#000000" font-family="sans-serif" font-size="13" lengthAdjust="spacing" textLength="27.46" x="101.5" y="579.6494">uses</text></g><!--link AssignTrainController to RouteRepository--><g id="link_AssignTrainController_RouteRepository"><path codeLine="175" d="M822.01,333.9211 C800.22,422.5411 767.2125,556.8146 750.1725,626.1246 " fill="none" id="AssignTrainController-to-RouteRepository" style="stroke:#181818;stroke-width:1.0;stroke-dasharray:7.0,7.0;"/><polygon fill="#181818" points="748.74,631.9511,754.773,624.1663,749.9337,627.0957,747.0044,622.2564,748.74,631.9511" style="stroke:#181818;stroke-width:1.0;"/><text fill="#000000" font-family="sans-serif" font-size="13" lengthAdjust="spacing" textLength="27.46" x="802.5" y="479.1494">uses</text></g><!--link AssignTrainController to TrainRepository--><g id="link_AssignTrainController_TrainRepository"><path codeLine="176" d="M905.8,333.8311 C912.52,343.6011 918.93,353.6611 924.5,363.6211 C975.29,454.4011 1012.3113,565.2885 1030.8013,626.3585 " fill="none" id="AssignTrainController-to-TrainRepository" style="stroke:#181818;stroke-width:1.0;stroke-dasharray:7.0,7.0;"/><polygon fill="#181818" points="1032.54,632.1011,1033.7604,622.3281,1031.0911,627.3156,1026.1036,624.6464,1032.54,632.1011" style="stroke:#181818;stroke-width:1.0;"/><text fill="#000000" font-family="sans-serif" font-size="13" lengthAdjust="spacing" textLength="27.46" x="1000.5" y="479.1494">uses</text></g><!--link AssignTrainController to Repositories--><g id="link_AssignTrainController_Repositories"><path codeLine="177" d="M752.34,333.6311 C723.05,359.5911 695.48,384.0212 668.02,408.3612 " fill="none" id="AssignTrainController-to-Repositories" style="stroke:#181818;stroke-width:1.0;stroke-dasharray:7.0,7.0;"/><polygon fill="#181818" points="663.53,412.3411,672.9183,409.3646,667.2717,409.0245,667.6118,403.3779,663.53,412.3411" style="stroke:#181818;stroke-width:1.0;"/><text fill="#000000" font-family="sans-serif" font-size="13" lengthAdjust="spacing" textLength="27.46" x="719.5" y="378.6494">uses</text></g><!--link AssignTrainController to ApplicationSession--><g id="link_AssignTrainController_ApplicationSession"><path codeLine="178" d="M687.95,268.1611 C592.17,285.4611 475.81,324.5611 414.5,412.6211 C371.06,475.0111 388.83,513.6311 418.5,583.6211 C422.92,594.0511 425.4871,599.2861 432.3871,608.6761 " fill="none" id="AssignTrainController-to-ApplicationSession" style="stroke:#181818;stroke-width:1.0;stroke-dasharray:7.0,7.0;"/><polygon fill="#181818" points="435.94,613.5111,433.834,603.89,432.9793,609.4819,427.3874,608.6272,435.94,613.5111" style="stroke:#181818;stroke-width:1.0;"/><text fill="#000000" font-family="sans-serif" font-size="13" lengthAdjust="spacing" textLength="27.46" x="415.5" y="479.1494">uses</text></g><!--link AssignTrainController to Train--><g id="link_AssignTrainController_Train"><path codeLine="179" d="M995.12,319.2311 C1111.56,377.4211 1263.14,475.1711 1333.5,613.6211 C1358.07,661.9611 1360.36,688.5211 1333.5,735.6211 C1307.1,781.9111 1265.3452,812.555 1219.0052,835.755 " fill="none" id="AssignTrainController-to-Train" style="stroke:#181818;stroke-width:1.0;stroke-dasharray:7.0,7.0;"/><polygon fill="#181818" points="1213.64,838.4411,1223.4785,837.9888,1218.111,836.2027,1219.8971,830.8352,1213.64,838.4411" style="stroke:#181818;stroke-width:1.0;"/><text fill="#000000" font-family="sans-serif" font-size="13" lengthAdjust="spacing" textLength="27.46" x="1315.5" y="579.6494">uses</text></g><!--link AssignTrainController to Route--><g id="link_AssignTrainController_Route"><path codeLine="180" d="M872.59,333.8211 C885.92,374.6311 898.5,425.5811 898.5,472.6211 C898.5,472.6211 898.5,472.6211 898.5,886.1211 C898.5,953.5111 867.2706,1016.4671 833.6506,1066.6271 " fill="none" id="AssignTrainController-to-Route" style="stroke:#181818;stroke-width:1.0;stroke-dasharray:7.0,7.0;"/><polygon fill="#181818" points="830.31,1071.6111,838.6435,1066.3621,833.0938,1067.4577,831.9982,1061.908,830.31,1071.6111" style="stroke:#181818;stroke-width:1.0;"/><text fill="#000000" font-family="sans-serif" font-size="13" lengthAdjust="spacing" textLength="27.46" x="899.5" y="680.1494">uses</text></g><!--link RouteRepository to Route--><g id="link_RouteRepository_Route"><path codeLine="183" d="M741.05,717.3611 C745.88,796.4811 756.0742,963.4823 762.2942,1065.3123 " fill="none" id="RouteRepository-to-Route" style="stroke:#181818;stroke-width:1.0;"/><polygon fill="#181818" points="762.66,1071.3011,766.1038,1062.074,762.3552,1066.3104,758.1187,1062.5617,762.66,1071.3011" style="stroke:#181818;stroke-width:1.0;"/><text fill="#000000" font-family="sans-serif" font-size="13" lengthAdjust="spacing" textLength="40.46" x="755.5" y="890.6494">returns</text><text fill="#000000" font-family="sans-serif" font-size="13" lengthAdjust="spacing" textLength="7.23" x="754.9203" y="1060.444">1</text></g><!--link TrainRepository to Train--><g id="link_TrainRepository_Train"><path codeLine="184" d="M1052.1,717.3111 C1057.17,745.1211 1062.8735,776.4485 1068.7535,808.6885 " fill="none" id="TrainRepository-to-Train" style="stroke:#181818;stroke-width:1.0;"/><polygon fill="#181818" points="1069.83,814.5911,1072.1503,805.0195,1068.9329,809.6722,1064.2801,806.4548,1069.83,814.5911" style="stroke:#181818;stroke-width:1.0;"/><text fill="#000000" font-family="sans-serif" font-size="13" lengthAdjust="spacing" textLength="49.1372" x="1064.5" y="780.6494">provides</text><text fill="#000000" font-family="sans-serif" font-size="13" lengthAdjust="spacing" textLength="5.0591" x="1063.2579" y="803.479">*</text></g><!--link MapRepository to Map--><g id="link_MapRepository_Map"><path codeLine="185" d="M237.5,717.3111 C237.5,745.1211 237.5,776.3511 237.5,808.5911 " fill="none" id="MapRepository-to-Map" style="stroke:#181818;stroke-width:1.0;"/><polygon fill="#181818" points="237.5,814.5911,241.5,805.5911,237.5,809.5911,233.5,805.5911,237.5,814.5911" style="stroke:#181818;stroke-width:1.0;"/><text fill="#000000" font-family="sans-serif" font-size="13" lengthAdjust="spacing" textLength="49.1372" x="238.5" y="780.6494">provides</text><text fill="#000000" font-family="sans-serif" font-size="13" lengthAdjust="spacing" textLength="5.0591" x="232.2357" y="803.479">*</text></g><!--link Repositories to RouteRepository--><g id="link_Repositories_RouteRepository"><path codeLine="187" d="M630.94,534.7011 C641.03,550.8811 652.32,568.1711 663.5,583.6211 C675.3,599.9311 685.3172,612.5083 697.9172,627.4183 " fill="none" id="Repositories-to-RouteRepository" style="stroke:#181818;stroke-width:1.0;"/><polygon fill="#181818" points="701.79,632.0011,699.036,622.5451,698.5627,628.1821,692.9257,627.7088,701.79,632.0011" style="stroke:#181818;stroke-width:1.0;"/><polygon fill="#000000" points="671.4279,578.3197,668.5136,569.2666,663.749,572.7085,671.4279,578.3197" style="stroke:#000000;stroke-width:1.0;"/><text fill="#000000" font-family="sans-serif" font-size="13" lengthAdjust="spacing" textLength="49.1372" x="677.5" y="579.6494">provides</text></g><!--link Repositories to TrainRepository--><g id="link_Repositories_TrainRepository"><path codeLine="188" d="M730.27,525.5811 C793.34,550.4811 869.04,581.8711 935.5,613.6211 C947.39,619.3011 954.5086,622.8525 966.5186,629.2725 " fill="none" id="Repositories-to-TrainRepository" style="stroke:#181818;stroke-width:1.0;"/><polygon fill="#181818" points="971.81,632.1011,965.7586,624.3306,967.4005,629.744,961.9871,631.3859,971.81,632.1011" style="stroke:#181818;stroke-width:1.0;"/><polygon fill="#000000" points="871.0784,576.2761,863.9771,569.9498,861.6148,575.332,871.0784,576.2761" style="stroke:#000000;stroke-width:1.0;"/><text fill="#000000" font-family="sans-serif" font-size="13" lengthAdjust="spacing" textLength="49.1372" x="875.5" y="579.6494">provides</text></g><!--link Repositories to MapRepository--><g id="link_Repositories_MapRepository"><path codeLine="189" d="M487.12,534.8711 C430.63,566.2711 368.2042,600.9658 317.5842,629.1058 " fill="none" id="Repositories-to-MapRepository" style="stroke:#181818;stroke-width:1.0;"/><polygon fill="#181818" points="312.34,632.0211,322.1498,631.1443,316.7101,629.5917,318.2627,624.1521,312.34,632.0211" style="stroke:#181818;stroke-width:1.0;"/><polygon fill="#000000" points="428.1297,576.6958,437.4634,574.8701,434.6078,569.7326,428.1297,576.6958" style="stroke:#000000;stroke-width:1.0;"/><text fill="#000000" font-family="sans-serif" font-size="13" lengthAdjust="spacing" textLength="49.1372" x="441.5" y="579.6494">provides</text></g><!--link Player to Train--><g id="link_Player_Train"><path codeLine="192" d="M1193.59,735.6511 C1175.14,760.3111 1153.65,789.0211 1134.52,814.5911 " fill="none" id="Player-Train" style="stroke:#181818;stroke-width:1.0;"/><polygon fill="#000000" points="1171.5044,779.2699,1179.2766,773.7887,1174.5704,770.2671,1171.5044,779.2699" style="stroke:#000000;stroke-width:1.0;"/><text fill="#000000" font-family="sans-serif" font-size="13" lengthAdjust="spacing" textLength="30.3481" x="1183.5" y="780.6494">owns</text><text fill="#000000" font-family="sans-serif" font-size="13" lengthAdjust="spacing" textLength="7.23" x="1180.678" y="758.1416">1</text><text fill="#000000" font-family="sans-serif" font-size="13" lengthAdjust="spacing" textLength="5.0591" x="1134.619" y="803.479">*</text></g><!--link Train to Locomotive--><g id="link_Train_Locomotive"><path codeLine="193" d="M1156.81,955.8411 C1164.52,965.3211 1171.66,975.3411 1177.5,985.6211 C1186.1,1000.7411 1193.17,1017.5711 1198.96,1034.5311 " fill="none" id="Train-Locomotive" style="stroke:#181818;stroke-width:1.0;"/><polygon fill="#000000" points="1192.8609,999.6741,1191.1807,990.3132,1185.9993,993.0885,1192.8609,999.6741" style="stroke:#000000;stroke-width:1.0;"/><text fill="#000000" font-family="sans-serif" font-size="13" lengthAdjust="spacing" textLength="67.209" x="1199.5" y="1000.6494">powered by</text><text fill="#000000" font-family="sans-serif" font-size="13" lengthAdjust="spacing" textLength="7.23" x="1156.7814" y="977.6768">1</text><text fill="#000000" font-family="sans-serif" font-size="13" lengthAdjust="spacing" textLength="7.23" x="1190.1857" y="1023.5164">1</text></g><!--link Train to Carriage--><g id="link_Train_Carriage"><path codeLine="194" d="M1080.92,955.7011 C1080.75,965.7411 1080.6,975.9411 1080.5,985.6211 C1079.22,1113.2211 1079.81,1264.1911 1080.22,1335.8511 " fill="none" id="Train-Carriage" style="stroke:#181818;stroke-width:1.0;"/><polygon fill="#000000" points="1085.4908,1000.2666,1088.4464,991.2269,1082.5685,991.2161,1085.4908,1000.2666" style="stroke:#000000;stroke-width:1.0;"/><text fill="#000000" font-family="sans-serif" font-size="13" lengthAdjust="spacing" textLength="74.4326" x="1094.5" y="1000.6494">composed of</text><text fill="#000000" font-family="sans-serif" font-size="13" lengthAdjust="spacing" textLength="7.23" x="1073.3972" y="977.8941">1</text><text fill="#000000" font-family="sans-serif" font-size="13" lengthAdjust="spacing" textLength="5.0591" x="1074.7504" y="1324.7121">*</text></g><!--link Carriage to Cargo--><g id="link_Carriage_Cargo"><path codeLine="195" d="M1081.88,1421.4011 C1081.56,1474.7111 1073.77,1567.4411 1028.5,1629.6211 C992.6,1678.9311 935,1714.1911 883.03,1737.9411 " fill="none" id="Carriage-Cargo" style="stroke:#181818;stroke-width:1.0;"/><polygon fill="#000000" points="1078.8403,1563.5005,1086.1404,1557.4047,1081.1631,1554.278,1078.8403,1563.5005" style="stroke:#000000;stroke-width:1.0;"/><text fill="#000000" font-family="sans-serif" font-size="13" lengthAdjust="spacing" textLength="39.0063" x="1090.5" y="1564.6494">carries</text><text fill="#000000" font-family="sans-serif" font-size="13" lengthAdjust="spacing" textLength="5.0591" x="1076.683" y="1443.2854">*</text><text fill="#000000" font-family="sans-serif" font-size="13" lengthAdjust="spacing" textLength="7.23" x="891.3917" y="1731.4828">1</text></g><!--link Train to Route--><g id="link_Train_Route"><path codeLine="196" d="M993.26,955.7011 C980.84,965.6511 968.29,975.8311 956.5,985.6211 C923.49,1013.0311 887.91,1043.7811 856.61,1071.2311 " fill="none" id="Train-Route" style="stroke:#181818;stroke-width:1.0;"/><polygon fill="#000000" points="957.6817,998.4947,966.4865,994.8993,962.6916,990.4107,957.6817,998.4947" style="stroke:#000000;stroke-width:1.0;"/><text fill="#000000" font-family="sans-serif" font-size="13" lengthAdjust="spacing" textLength="66.4917" x="970.5" y="1000.6494">assigned to</text><text fill="#000000" font-family="sans-serif" font-size="13" lengthAdjust="spacing" textLength="7.23" x="976.6973" y="977.8941">1</text><text fill="#000000" font-family="sans-serif" font-size="13" lengthAdjust="spacing" textLength="5.0591" x="859.3192" y="1060.3678">*</text></g><!--link Route to Station--><g id="link_Route_Station"><path codeLine="197" d="M801.27,1231.7711 C833.08,1306.3311 880.27,1416.9511 910.71,1488.3011 " fill="none" id="Route-Station" style="stroke:#181818;stroke-width:1.0;"/><polygon fill="#000000" points="900.462,1383.3656,899.6159,1373.8927,894.2095,1376.1992,900.462,1383.3656" style="stroke:#000000;stroke-width:1.0;"/><text fill="#000000" font-family="sans-serif" font-size="13" lengthAdjust="spacing" textLength="47.6963" x="907.5" y="1384.1494">includes</text><text fill="#000000" font-family="sans-serif" font-size="13" lengthAdjust="spacing" textLength="7.23" x="796.8743" y="1253.442">1</text><text fill="#000000" font-family="sans-serif" font-size="13" lengthAdjust="spacing" textLength="5.0591" x="902.3629" y="1477.1591">*</text></g><!--link Route to Cargo--><g id="link_Route_Cargo"><path codeLine="198" d="M767.5,1231.8411 C767.5,1355.1211 767.5,1590.8611 767.5,1708.1911 " fill="none" id="Route-Cargo" style="stroke:#181818;stroke-width:1.0;"/><polygon fill="#000000" points="772.5,1564.2666,775.4389,1555.2215,769.5611,1555.2215,772.5,1564.2666" style="stroke:#000000;stroke-width:1.0;"/><text fill="#000000" font-family="sans-serif" font-size="13" lengthAdjust="spacing" textLength="53.479" x="781.5" y="1564.6494">manages</text><text fill="#000000" font-family="sans-serif" font-size="13" lengthAdjust="spacing" textLength="5.0591" x="762.2887" y="1253.2399">*</text><text fill="#000000" font-family="sans-serif" font-size="13" lengthAdjust="spacing" textLength="5.0591" x="762.2348" y="1697.4097">*</text></g><!--link Route to RailwayLine--><g id="link_Route_RailwayLine"><path codeLine="199" d="M712.44,1231.9011 C699.79,1252.8711 687.45,1275.9811 678.5,1298.6211 C652.58,1364.2111 638.35,1444.2611 631.09,1497.9611 " fill="none" id="Route-RailwayLine" style="stroke:#181818;stroke-width:1.0;"/><polygon fill="#000000" points="682.038,1383.5481,687.4933,1375.7576,681.8723,1374.039,682.038,1383.5481" style="stroke:#000000;stroke-width:1.0;"/><text fill="#000000" font-family="sans-serif" font-size="13" lengthAdjust="spacing" textLength="48.4199" x="692.5" y="1384.1494">contains</text><text fill="#000000" font-family="sans-serif" font-size="13" lengthAdjust="spacing" textLength="19.5127" x="688.1082" y="1253.3049">1..*</text><text fill="#000000" font-family="sans-serif" font-size="13" lengthAdjust="spacing" textLength="19.5127" x="611.792" y="1486.9238">1..*</text></g><!--link Station to Cargo--><g id="link_Station_Cargo"><path codeLine="200" d="M885.29,1629.7011 C865.31,1654.8711 842.76,1683.2811 822.78,1708.4611 " fill="none" id="Station-Cargo" style="stroke:#181818;stroke-width:1.0;"/><polygon fill="#000000" points="860.3916,1673.183,868.3167,1667.9252,863.7127,1664.2711,860.3916,1673.183" style="stroke:#000000;stroke-width:1.0;"/><text fill="#000000" font-family="sans-serif" font-size="13" lengthAdjust="spacing" textLength="35.4009" x="872.5" y="1674.6494">stores</text><text fill="#000000" font-family="sans-serif" font-size="13" lengthAdjust="spacing" textLength="7.23" x="872.2271" y="1651.8941">1</text><text fill="#000000" font-family="sans-serif" font-size="13" lengthAdjust="spacing" textLength="5.0591" x="823.2029" y="1697.3356">*</text></g><!--link Map to City--><g id="link_Map_City"><path codeLine="201" d="M329.05,950.6711 C354.91,973.9411 379.94,1002.5011 394.5,1034.6211 C436.07,1126.3511 428.42,1246.4511 418.42,1317.4811 " fill="none" id="Map-City" style="stroke:#181818;stroke-width:1.0;"/><polygon fill="#000000" points="382.6836,1000.1245,383.3979,990.6408,377.6871,992.0322,382.6836,1000.1245" style="stroke:#000000;stroke-width:1.0;"/><text fill="#000000" font-family="sans-serif" font-size="13" lengthAdjust="spacing" textLength="48.4199" x="390.5" y="1000.6494">contains</text><text fill="#000000" font-family="sans-serif" font-size="13" lengthAdjust="spacing" textLength="7.23" x="337.2203" y="952.6101">1</text><text fill="#000000" font-family="sans-serif" font-size="13" lengthAdjust="spacing" textLength="5.0591" x="414.3966" y="1306.4461">*</text></g><!--link Map to Industry--><g id="link_Map_Industry"><path codeLine="202" d="M163.13,955.7911 C143.82,978.7511 125.83,1005.8311 116.5,1034.6211 C88.3,1121.5911 91.4,1227.5811 98.41,1298.5211 " fill="none" id="Map-Industry" style="stroke:#181818;stroke-width:1.0;"/><polygon fill="#000000" points="143.5722,1000.1798,148.1385,991.8371,142.3627,990.7464,143.5722,1000.1798" style="stroke:#000000;stroke-width:1.0;"/><text fill="#000000" font-family="sans-serif" font-size="13" lengthAdjust="spacing" textLength="48.4199" x="153.5" y="1000.6494">contains</text><text fill="#000000" font-family="sans-serif" font-size="13" lengthAdjust="spacing" textLength="7.23" x="148.1019" y="977.9934">1</text><text fill="#000000" font-family="sans-serif" font-size="13" lengthAdjust="spacing" textLength="5.0591" x="92.1596" y="1287.4076">*</text></g><!--link Map to Size--><g id="link_Map_Size"><path codeLine="203" d="M268.31,955.7211 C272.52,965.7111 276.69,975.8911 280.5,985.6211 C296.76,1027.1911 313.47,1075.4211 324.76,1108.9611 " fill="none" id="Map-Size" style="stroke:#181818;stroke-width:1.0;"/><polygon fill="#000000" points="294.2283,999.9584,293.8595,990.455,288.344,992.4868,294.2283,999.9584" style="stroke:#000000;stroke-width:1.0;"/><text fill="#000000" font-family="sans-serif" font-size="13" lengthAdjust="spacing" textLength="20.96" x="301.5" y="1000.6494">has</text><text fill="#000000" font-family="sans-serif" font-size="13" lengthAdjust="spacing" textLength="7.23" x="264.1286" y="977.9162">1</text><text fill="#000000" font-family="sans-serif" font-size="13" lengthAdjust="spacing" textLength="7.23" x="315.0011" y="1097.8397">1</text></g><!--link Map to Position--><g id="link_Map_Position"><path codeLine="204" d="M227.47,955.9611 C221,1000.9611 212.74,1058.4611 206.88,1099.2811 " fill="none" id="Map-Position" style="stroke:#181818;stroke-width:1.0;"/><polygon fill="#000000" points="227.789,1000.2158,231.9843,991.6806,226.1662,990.8447,227.789,1000.2158" style="stroke:#000000;stroke-width:1.0;"/><text fill="#000000" font-family="sans-serif" font-size="13" lengthAdjust="spacing" textLength="34.6709" x="237.5" y="1000.6494">tracks</text><text fill="#000000" font-family="sans-serif" font-size="13" lengthAdjust="spacing" textLength="7.23" x="219.1403" y="977.8086">1</text><text fill="#000000" font-family="sans-serif" font-size="13" lengthAdjust="spacing" textLength="5.0591" x="202.4892" y="1088.5417">*</text></g><!--link City to Cargo--><g id="link_City_Cargo"><path codeLine="205" d="M388.17,1439.8511 C374.67,1494.1811 365,1573.8811 402.5,1629.6211 C457.78,1711.7811 567.24,1748.5111 651.93,1764.9111 " fill="none" id="City-Cargo" style="stroke:#181818;stroke-width:1.0;"/><polygon fill="#000000" points="410.6504,1563.1492,407.2334,1554.2737,402.6691,1557.9773,410.6504,1563.1492" style="stroke:#000000;stroke-width:1.0;"/><text fill="#000000" font-family="sans-serif" font-size="13" lengthAdjust="spacing" textLength="116.3398" x="416.5" y="1564.6494">produces/consumes</text><text fill="#000000" font-family="sans-serif" font-size="13" lengthAdjust="spacing" textLength="5.0591" x="380.649" y="1461.9308">*</text><text fill="#000000" font-family="sans-serif" font-size="13" lengthAdjust="spacing" textLength="5.0591" x="638.9841" y="1760.4198">*</text></g><!--link Industry to Cargo--><g id="link_Industry_Cargo"><path codeLine="206" d="M131.36,1458.7111 C150.61,1514.1711 184.08,1585.9511 237.5,1629.6211 C356.6,1727.0011 535.53,1760.6311 651.92,1772.1811 " fill="none" id="Industry-Cargo" style="stroke:#181818;stroke-width:1.0;"/><polygon fill="#000000" points="246.7833,1561.8459,240.5508,1554.6622,237.5186,1559.6976,246.7833,1561.8459" style="stroke:#000000;stroke-width:1.0;"/><text fill="#000000" font-family="sans-serif" font-size="13" lengthAdjust="spacing" textLength="116.3398" x="251.5" y="1564.6494">produces/consumes</text><text fill="#000000" font-family="sans-serif" font-size="13" lengthAdjust="spacing" textLength="5.0591" x="128.026" y="1480.3769">*</text><text fill="#000000" font-family="sans-serif" font-size="13" lengthAdjust="spacing" textLength="5.0591" x="638.9735" y="1786.3205">*</text></g><!--link ApplicationSession to Train--><g id="link_ApplicationSession_Train"><path codeLine="208" d="M613.77,728.5411 C619.74,730.9911 625.68,733.3611 631.5,735.6211 C737.77,776.7811 855.0588,815.0253 945.7488,843.1253 " fill="none" id="ApplicationSession-to-Train" style="stroke:#181818;stroke-width:1.0;"/><polygon fill="#181818" points="951.48,844.9011,944.0671,838.4166,946.704,843.4213,941.6994,846.0582,951.48,844.9011" style="stroke:#181818;stroke-width:1.0;"/><polygon fill="#000000" points="763.2264,776.8979,755.6351,771.1687,753.7174,776.7249,763.2264,776.8979" style="stroke:#000000;stroke-width:1.0;"/><text fill="#000000" font-family="sans-serif" font-size="13" lengthAdjust="spacing" textLength="70.0781" x="767.5" y="780.6494">currentTrain</text></g><!--link ApplicationSession to Route--><g id="link_ApplicationSession_Route"><path codeLine="209" d="M528.69,735.6711 C558.61,792.7111 605.46,880.6611 648.5,955.6211 C670.62,994.1411 693.0085,1031.1754 714.7485,1066.3954 " fill="none" id="ApplicationSession-to-Route" style="stroke:#181818;stroke-width:1.0;"/><polygon fill="#181818" points="717.9,1071.5011,716.5765,1061.7416,715.2737,1067.2464,709.7689,1065.9436,717.9,1071.5011" style="stroke:#181818;stroke-width:1.0;"/><polygon fill="#000000" points="655.9516,889.6243,654.0781,880.3001,648.9552,883.1821,655.9516,889.6243" style="stroke:#000000;stroke-width:1.0;"/><text fill="#000000" font-family="sans-serif" font-size="13" lengthAdjust="spacing" textLength="75.1499" x="662.5" y="890.6494">currentRoute</text></g><!--link ApplicationSession to Map--><g id="link_ApplicationSession_Map"><path codeLine="210" d="M422.65,735.6511 C391.89,760.3111 360.7605,785.267 328.8805,810.837 " fill="none" id="ApplicationSession-to-Map" style="stroke:#181818;stroke-width:1.0;"/><polygon fill="#181818" points="324.2,814.5911,333.7234,812.0803,328.1004,811.4627,328.718,805.8397,324.2,814.5911" style="stroke:#181818;stroke-width:1.0;"/><polygon fill="#000000" points="384.5991,778.3944,393.4944,775.029,389.8174,770.4433,384.5991,778.3944" style="stroke:#000000;stroke-width:1.0;"/><text fill="#000000" font-family="sans-serif" font-size="13" lengthAdjust="spacing" textLength="65.749" x="397.5" y="780.6494">currentMap</text></g><!--SRC=[hLTBRziu4BxhLn2vnEski-rLA0nadHuCP84WJWzxP2XQ9agJAad5wmtwttVu54KfTWfi3ut9-VZDS5uSwUzCT5ZX0-em-OvRkZKdJf6Yn63HSbhf1D1xtCWZ4otQOQvp2U5OwrjZ57lk3TqGARRiNue-LPLX1jZMLexk66u1NQDlsy-Vq1BTQirQWJ0o2ZE1Z8IVIW91LLsZRnjqZqzKLOuRVMsO-GjtiFjQ_QogiEiPdkpnABb6QocCafnJDSUGILyh1Fz-GqHHREZYGrYsrDo-OCRnCwTmG2y-e1hTCss-m6eLG5pY1fQB0-usZGN00hI1zVFc_PhQH-k5JB5RhmQWMzzH0t2zS2xpHkJxCxJEaepMhJDQjuwqBYYUDjyFQ3nSxKawjV70xoWpw5bAJh7mWNcadTJCI7KQ1SQTpcIlnJqd5mnoZL-2hD3aQPrjyxHEDBbWJkjaixGGvtdIopa3e39b1jv4ogXEjA_QOCF8Jtjq8s0X27NKERfmrs3T8dbis2kSK82BlP7T1NIqCrpZjkiu8s0qj00AEIB5vSjCpmoArxrIL8I8bQ4Qv3vHoWmPvDRlcSklqPqys9wJv-43jujWxXBrcYg13xH6M-XheWtR7K2FKZN5DXFCCCp_x1jGMgD6zf09GKQy3OLidAX9hLMvkIlOkIJo80rx0Mlkq-z8ZvM2pafroBXrMFkq6zUhp2eg-2hFykIss0GcrP-i7imuRxevTHCNoYDLDRZCX0rC28NEw3AWy9sHtRQZjCdXa3hA_4tnY6FNKxwMklGzzbN9E3EdyWWcFte62GnQ7nGZj3Xg4yHGOTDqB4u-Y9vE7j1G3B1UOtXBGM6k3ABKojeUQMLMzJO2vntegiPMne-U2ck52_BMxwvoTYiOSg2LemGeWZhpKk2coHfZYFiqErumPmqyNC42JpTfaq5wwMflkkkvPxm1v9PBeqT1YsrsxHqwI9Jra3QqoIHvg5evigQm1HzaBqpEnzcEwWwBV6ykcvLiUc8l-qYrx1L9XUXXgopQOFeHd-wP66BEgMZDlinw1RFOqrGNqryv36QAxPWjYJmma0DvzkVlrVaWMC_dcGFBLMfgJQ-DoiMRi1KX6kOy88J_Kt7xYefEU0Zhp0rkDems7LbZhp-uU4zPkpT5-29BElPFVcIKEPAGlXkvPqW2kDk5RgNmRiV88pPbDz2zVQLISfLLjaGDFM3Hp0AI0T5xlzmopxMnB07_TxE7EHn63kuBViywNGtp-CtDQcQshktxgQlnW6wXypDnWCzCx_DwCvGb7GzbWMmUEfgppY9jvKIxgdcp7M4nlavlNXme1zEB1-PCVXizCu6zpwHt6E9Ugo5MvK1VnAhqp7AvGbUVhnADegPNGbUbGnpkurMo2XByXJMWSXpc2FDnIg1gv2uBcaOeWj5gYfw6vnowpBmCMqoPXNF2j6dziLoEhYkFmXxtooY7Fzd4LViPYZRe-JI10bKQJ6fu5GvW7Y3b3f19O561rp-DjPyZgPxZYn7pKoIGmRVwoiStXyL7ttOdmllWCe_wc1ldz47ViLDhHdHp4wrol_Bdqbv46Flv2lYePtnZHsf72iTfioANszO_8Ya0gJM_2O8_xkMgqHxF4AGdglRFjuKuhJDNzosRwZz0bUuFpk1am3lnrKoXf_orjyY-d03-1Zf6bcJVKM-ZVQcHz4q5oFy0]--></g></svg>