<svg xmlns="http://www.w3.org/2000/svg" xmlns:xlink="http://www.w3.org/1999/xlink" contentStyleType="text/css" height="354px" preserveAspectRatio="none" style="width:571px;height:354px;background:#FFFFFF;" version="1.1" viewBox="0 0 571 354" width="571px" zoomAndPan="magnify"><defs/><g><rect fill="#FFFFFF" height="189.7461" style="stroke:#181818;stroke-width:1.0;" width="10" x="221.7261" y="90.5332"/><rect fill="#FFFFFF" height="31.291" style="stroke:#181818;stroke-width:1.0;" width="10" x="424.5576" y="148.1152"/><rect fill="#FFFFFF" height="31.291" style="stroke:#181818;stroke-width:1.0;" width="10" x="523.2642" y="210.6973"/><rect fill="none" height="144.4551" style="stroke:#000000;stroke-width:1.5;" width="425.4102" x="140.478" y="105.5332"/><line style="stroke:#181818;stroke-width:0.5;stroke-dasharray:5.0,5.0;" x1="226.478" x2="226.478" y1="57.2422" y2="298.2793"/><line style="stroke:#181818;stroke-width:0.5;stroke-dasharray:5.0,5.0;" x1="429.4751" x2="429.4751" y1="57.2422" y2="298.2793"/><line style="stroke:#181818;stroke-width:0.5;stroke-dasharray:5.0,5.0;" x1="527.6401" x2="527.6401" y1="57.2422" y2="298.2793"/><rect fill="#E3E3E3" height="32.6211" rx="2.5" ry="2.5" style="stroke:#181818;stroke-width:0.5;" width="152.4961" x="150.478" y="23.6211"/><text fill="#000000" font-family="sans-serif" font-size="14" lengthAdjust="spacing" textLength="138.4961" x="157.478" y="45.7285">:AssignTrainController</text><rect fill="#E3E3E3" height="32.6211" rx="2.5" ry="2.5" style="stroke:#181818;stroke-width:0.5;" width="152.4961" x="150.478" y="297.2793"/><text fill="#000000" font-family="sans-serif" font-size="14" lengthAdjust="spacing" textLength="138.4961" x="157.478" y="319.3867">:AssignTrainController</text><rect fill="#E3E3E3" height="51.2422" rx="2.5" ry="2.5" style="stroke:#181818;stroke-width:0.5;" width="122.165" x="368.4751" y="5"/><text fill="#000000" font-family="sans-serif" font-size="14" lengthAdjust="spacing" textLength="98.8271" x="380.144" y="27.1074">routeRepository</text><text fill="#000000" font-family="sans-serif" font-size="14" lengthAdjust="spacing" textLength="108.165" x="375.4751" y="45.7285">:RouteRepository</text><rect fill="#E3E3E3" height="51.2422" rx="2.5" ry="2.5" style="stroke:#181818;stroke-width:0.5;" width="122.165" x="368.4751" y="297.2793"/><text fill="#000000" font-family="sans-serif" font-size="14" lengthAdjust="spacing" textLength="98.8271" x="380.144" y="319.3867">routeRepository</text><text fill="#000000" font-family="sans-serif" font-size="14" lengthAdjust="spacing" textLength="108.165" x="375.4751" y="338.0078">:RouteRepository</text><rect fill="#E3E3E3" height="51.2422" rx="2.5" ry="2.5" style="stroke:#181818;stroke-width:0.5;" width="55.248" x="500.6401" y="5"/><text fill="#000000" font-family="sans-serif" font-size="14" lengthAdjust="spacing" textLength="31.9102" x="512.3091" y="27.1074">route</text><text fill="#000000" font-family="sans-serif" font-size="14" lengthAdjust="spacing" textLength="41.248" x="507.6401" y="45.7285">:Route</text><rect fill="#E3E3E3" height="51.2422" rx="2.5" ry="2.5" style="stroke:#181818;stroke-width:0.5;" width="55.248" x="500.6401" y="297.2793"/><text fill="#000000" font-family="sans-serif" font-size="14" lengthAdjust="spacing" textLength="31.9102" x="512.3091" y="319.3867">route</text><text fill="#000000" font-family="sans-serif" font-size="14" lengthAdjust="spacing" textLength="41.248" x="507.6401" y="338.0078">:Route</text><rect fill="#FFFFFF" height="189.7461" style="stroke:#181818;stroke-width:1.0;" width="10" x="221.7261" y="90.5332"/><rect fill="#FFFFFF" height="31.291" style="stroke:#181818;stroke-width:1.0;" width="10" x="424.5576" y="148.1152"/><rect fill="#FFFFFF" height="31.291" style="stroke:#181818;stroke-width:1.0;" width="10" x="523.2642" y="210.6973"/><polygon fill="#181818" points="209.7261,86.5332,219.7261,90.5332,209.7261,94.5332,213.7261,90.5332" style="stroke:#181818;stroke-width:1.0;"/><line style="stroke:#181818;stroke-width:1.0;" x1="0" x2="215.7261" y1="90.5332" y2="90.5332"/><text fill="#000000" font-family="sans-serif" font-size="13" font-weight="bold" lengthAdjust="spacing" textLength="14.46" x="7" y="85.2705">16</text><text fill="#000000" font-family="sans-serif" font-size="13" lengthAdjust="spacing" textLength="184.2661" x="25.46" y="85.2705">getRouteDetails(selectedRoute)</text><path d="M140.478,105.5332 L288.0562,105.5332 L288.0562,114.8242 L278.0562,124.8242 L140.478,124.8242 L140.478,105.5332 " fill="#EEEEEE" style="stroke:#000000;stroke-width:1.5;"/><rect fill="none" height="144.4551" style="stroke:#000000;stroke-width:1.5;" width="425.4102" x="140.478" y="105.5332"/><text fill="#000000" font-family="sans-serif" font-size="13" font-weight="bold" lengthAdjust="spacing" textLength="102.5781" x="155.478" y="120.5615">Get route details</text><polygon fill="#181818" points="412.5576,144.1152,422.5576,148.1152,412.5576,152.1152,416.5576,148.1152" style="stroke:#181818;stroke-width:1.0;"/><line style="stroke:#181818;stroke-width:1.0;" x1="231.7261" x2="418.5576" y1="148.1152" y2="148.1152"/><text fill="#000000" font-family="sans-serif" font-size="13" font-weight="bold" lengthAdjust="spacing" textLength="25.3018" x="238.7261" y="142.8525">16.1</text><text fill="#000000" font-family="sans-serif" font-size="13" lengthAdjust="spacing" textLength="144.5298" x="268.0278" y="142.8525">getRoute(selectedRoute)</text><polygon fill="#181818" points="242.7261,175.4063,232.7261,179.4063,242.7261,183.4063,238.7261,179.4063" style="stroke:#181818;stroke-width:1.0;"/><line style="stroke:#181818;stroke-width:1.0;stroke-dasharray:2.0,2.0;" x1="236.7261" x2="428.5576" y1="179.4063" y2="179.4063"/><text fill="#000000" font-family="sans-serif" font-size="13" font-weight="bold" lengthAdjust="spacing" textLength="25.3018" x="248.7261" y="174.1436">16.2</text><text fill="#000000" font-family="sans-serif" font-size="13" lengthAdjust="spacing" textLength="29.6309" x="278.0278" y="174.1436">route</text><polygon fill="#181818" points="511.2642,206.6973,521.2642,210.6973,511.2642,214.6973,515.2642,210.6973" style="stroke:#181818;stroke-width:1.0;"/><line style="stroke:#181818;stroke-width:1.0;" x1="231.7261" x2="517.2642" y1="210.6973" y2="210.6973"/><text fill="#000000" font-family="sans-serif" font-size="13" font-weight="bold" lengthAdjust="spacing" textLength="25.3018" x="238.7261" y="205.4346">16.3</text><text fill="#000000" font-family="sans-serif" font-size="13" lengthAdjust="spacing" textLength="101.1563" x="268.0278" y="205.4346">getRouteDetails()</text><polygon fill="#181818" points="242.7261,237.9883,232.7261,241.9883,242.7261,245.9883,238.7261,241.9883" style="stroke:#181818;stroke-width:1.0;"/><line style="stroke:#181818;stroke-width:1.0;stroke-dasharray:2.0,2.0;" x1="236.7261" x2="527.2642" y1="241.9883" y2="241.9883"/><text fill="#000000" font-family="sans-serif" font-size="13" font-weight="bold" lengthAdjust="spacing" textLength="25.3018" x="248.7261" y="236.7256">16.4</text><text fill="#000000" font-family="sans-serif" font-size="13" lengthAdjust="spacing" textLength="69.3672" x="278.0278" y="236.7256">routeDetails</text><polygon fill="#181818" points="11,276.2793,1,280.2793,11,284.2793,7,280.2793" style="stroke:#181818;stroke-width:1.0;"/><line style="stroke:#181818;stroke-width:1.0;stroke-dasharray:2.0,2.0;" x1="5" x2="225.7261" y1="280.2793" y2="280.2793"/><text fill="#000000" font-family="sans-serif" font-size="13" font-weight="bold" lengthAdjust="spacing" textLength="14.46" x="17" y="275.0166">17</text><text fill="#000000" font-family="sans-serif" font-size="13" lengthAdjust="spacing" textLength="69.3672" x="35.46" y="275.0166">routeDetails</text><!--SRC=[RL1VIyCm47_FfpZsf0yLzg9GH91j-29CklecoDdUih0q2SbLsRUtfguci_Tuz_jxuQYCGuyTTDROvk1jHy2-9n6cYyFcY99sVD84dXf68tKA20TixPSo4lQe0mdisPg- -o0ForiX1X2hHZaq38loCGGbJUrHcPKrxAtMv1U00LPrzPo3lUsPAd8sABR-z6RAAjz4NhLvsUxUg-rhlPcXdqaZD894yH3DIf34yRWcHgN3LI0zzACsBgy5Dgm-aMcCbjMwMGevw3ju8ePe1Eqe8c2O7m8CDacsFxTB6_YToIvj1CaaUoYc4j5zmhKqAvEdolESsyyb-PzXpdsTLByC4HN8jDd_xeIuBuev2P5muzk_0G00]--></g></svg>