<svg xmlns="http://www.w3.org/2000/svg" xmlns:xlink="http://www.w3.org/1999/xlink" contentStyleType="text/css" height="1621px" preserveAspectRatio="none" style="width:1009px;height:1621px;background:#FFFFFF;" version="1.1" viewBox="0 0 1009 1621" width="1009px" zoomAndPan="magnify"><title>Sequence Diagram: US10 - Assign a train to a route</title><defs/><g><text fill="#000000" font-family="sans-serif" font-size="14" font-weight="bold" lengthAdjust="spacing" textLength="342.3096" x="331.2336" y="30.1074">Sequence Diagram: US10 - Assign a train to a route</text><rect fill="#FFFFFF" height="1387.0273" style="stroke:#181818;stroke-width:1.0;" width="10" x="22.8413" y="133.2422"/><rect fill="#FFFFFF" height="185.7461" style="stroke:#181818;stroke-width:1.0;" width="10" x="277.6455" y="156.5332"/><rect fill="#FFFFFF" height="142.125" style="stroke:#181818;stroke-width:1.0;" width="10" x="277.6455" y="373.5703"/><rect fill="#FFFFFF" height="79.543" style="stroke:#181818;stroke-width:1.0;" width="10" x="450.1099" y="231.4453"/><rect fill="#FFFFFF" height="79.543" style="stroke:#181818;stroke-width:1.0;" width="10" x="450.1099" y="404.8613"/><rect fill="#FFFFFF" height="185.7461" style="stroke:#181818;stroke-width:1.0;" width="10" x="577.9819" y="546.9863"/><rect fill="#FFFFFF" height="173.416" style="stroke:#181818;stroke-width:1.0;" width="10" x="577.9819" y="764.0234"/><rect fill="#FFFFFF" height="142.125" style="stroke:#181818;stroke-width:1.0;" width="10" x="577.9819" y="968.7305"/><rect fill="#FFFFFF" height="173.416" style="stroke:#181818;stroke-width:1.0;" width="10" x="577.9819" y="1142.1465"/><rect fill="#FFFFFF" height="173.416" style="stroke:#181818;stroke-width:1.0;" width="10" x="577.9819" y="1346.8535"/><rect fill="#FFFFFF" height="79.543" style="stroke:#181818;stroke-width:1.0;" width="10" x="919.5288" y="621.8984"/><rect fill="#FFFFFF" height="79.543" style="stroke:#181818;stroke-width:1.0;" width="10" x="919.5288" y="795.3145"/><rect fill="#FFFFFF" height="79.543" style="stroke:#181818;stroke-width:1.0;" width="10" x="919.5288" y="1000.0215"/><rect fill="#FFFFFF" height="79.543" style="stroke:#181818;stroke-width:1.0;" width="10" x="919.5288" y="1173.4375"/><rect fill="#FFFFFF" height="79.543" style="stroke:#181818;stroke-width:1.0;" width="10" x="919.5288" y="1378.1445"/><line style="stroke:#181818;stroke-width:0.5;stroke-dasharray:5.0,5.0;" x1="27" x2="27" y1="123.2422" y2="1538.2695"/><line style="stroke:#181818;stroke-width:0.5;stroke-dasharray:5.0,5.0;" x1="282.0215" x2="282.0215" y1="123.2422" y2="1538.2695"/><line style="stroke:#181818;stroke-width:0.5;stroke-dasharray:5.0,5.0;" x1="454.1411" x2="454.1411" y1="196.3438" y2="1538.2695"/><line style="stroke:#181818;stroke-width:0.5;stroke-dasharray:5.0,5.0;" x1="582.0786" x2="582.0786" y1="123.2422" y2="1538.2695"/><line style="stroke:#181818;stroke-width:0.5;stroke-dasharray:5.0,5.0;" x1="924.2808" x2="924.2808" y1="586.7969" y2="1538.2695"/><text fill="#000000" font-family="sans-serif" font-size="14" lengthAdjust="spacing" textLength="39.6826" x="5" y="119.7285">Player</text><ellipse cx="27.8413" cy="53.1211" fill="#E3E3E3" rx="8" ry="8" style="stroke:#181818;stroke-width:0.5;"/><path d="M27.8413,61.1211 L27.8413,88.1211 M14.8413,69.1211 L40.8413,69.1211 M27.8413,88.1211 L14.8413,103.1211 M27.8413,88.1211 L40.8413,103.1211 " fill="none" style="stroke:#181818;stroke-width:0.5;"/><text fill="#000000" font-family="sans-serif" font-size="14" lengthAdjust="spacing" textLength="39.6826" x="5" y="1552.377">Player</text><ellipse cx="27.8413" cy="1564.3906" fill="#E3E3E3" rx="8" ry="8" style="stroke:#181818;stroke-width:0.5;"/><path d="M27.8413,1572.3906 L27.8413,1599.3906 M14.8413,1580.3906 L40.8413,1580.3906 M27.8413,1599.3906 L14.8413,1614.3906 M27.8413,1599.3906 L40.8413,1614.3906 " fill="none" style="stroke:#181818;stroke-width:0.5;"/><rect fill="#E3E3E3" height="32.6211" rx="2.5" ry="2.5" style="stroke:#181818;stroke-width:0.5;" width="83.248" x="241.0215" y="89.6211"/><text fill="#000000" font-family="sans-serif" font-size="14" lengthAdjust="spacing" textLength="69.248" x="248.0215" y="111.7285">:EditMapUI</text><rect fill="#E3E3E3" height="32.6211" rx="2.5" ry="2.5" style="stroke:#181818;stroke-width:0.5;" width="83.248" x="241.0215" y="1537.2695"/><text fill="#000000" font-family="sans-serif" font-size="14" lengthAdjust="spacing" textLength="69.248" x="248.0215" y="1559.377">:EditMapUI</text><rect fill="#E3E3E3" height="32.6211" rx="2.5" ry="2.5" style="stroke:#181818;stroke-width:0.5;" width="129.9375" x="390.1411" y="1537.2695"/><text fill="#000000" font-family="sans-serif" font-size="14" lengthAdjust="spacing" textLength="115.9375" x="397.1411" y="1559.377">:EditMapController</text><rect fill="#E3E3E3" height="32.6211" rx="2.5" ry="2.5" style="stroke:#181818;stroke-width:0.5;" width="105.8066" x="530.0786" y="89.6211"/><text fill="#000000" font-family="sans-serif" font-size="14" lengthAdjust="spacing" textLength="91.8066" x="537.0786" y="111.7285">:AssignTrainUI</text><rect fill="#E3E3E3" height="32.6211" rx="2.5" ry="2.5" style="stroke:#181818;stroke-width:0.5;" width="105.8066" x="530.0786" y="1537.2695"/><text fill="#000000" font-family="sans-serif" font-size="14" lengthAdjust="spacing" textLength="91.8066" x="537.0786" y="1559.377">:AssignTrainUI</text><rect fill="#E3E3E3" height="32.6211" rx="2.5" ry="2.5" style="stroke:#181818;stroke-width:0.5;" width="152.4961" x="848.2808" y="1537.2695"/><text fill="#000000" font-family="sans-serif" font-size="14" lengthAdjust="spacing" textLength="138.4961" x="855.2808" y="1559.377">:AssignTrainController</text><rect fill="#FFFFFF" height="1387.0273" style="stroke:#181818;stroke-width:1.0;" width="10" x="22.8413" y="133.2422"/><rect fill="#FFFFFF" height="185.7461" style="stroke:#181818;stroke-width:1.0;" width="10" x="277.6455" y="156.5332"/><rect fill="#FFFFFF" height="142.125" style="stroke:#181818;stroke-width:1.0;" width="10" x="277.6455" y="373.5703"/><rect fill="#FFFFFF" height="79.543" style="stroke:#181818;stroke-width:1.0;" width="10" x="450.1099" y="231.4453"/><rect fill="#FFFFFF" height="79.543" style="stroke:#181818;stroke-width:1.0;" width="10" x="450.1099" y="404.8613"/><rect fill="#FFFFFF" height="185.7461" style="stroke:#181818;stroke-width:1.0;" width="10" x="577.9819" y="546.9863"/><rect fill="#FFFFFF" height="173.416" style="stroke:#181818;stroke-width:1.0;" width="10" x="577.9819" y="764.0234"/><rect fill="#FFFFFF" height="142.125" style="stroke:#181818;stroke-width:1.0;" width="10" x="577.9819" y="968.7305"/><rect fill="#FFFFFF" height="173.416" style="stroke:#181818;stroke-width:1.0;" width="10" x="577.9819" y="1142.1465"/><rect fill="#FFFFFF" height="173.416" style="stroke:#181818;stroke-width:1.0;" width="10" x="577.9819" y="1346.8535"/><rect fill="#FFFFFF" height="79.543" style="stroke:#181818;stroke-width:1.0;" width="10" x="919.5288" y="621.8984"/><rect fill="#FFFFFF" height="79.543" style="stroke:#181818;stroke-width:1.0;" width="10" x="919.5288" y="795.3145"/><rect fill="#FFFFFF" height="79.543" style="stroke:#181818;stroke-width:1.0;" width="10" x="919.5288" y="1000.0215"/><rect fill="#FFFFFF" height="79.543" style="stroke:#181818;stroke-width:1.0;" width="10" x="919.5288" y="1173.4375"/><rect fill="#FFFFFF" height="79.543" style="stroke:#181818;stroke-width:1.0;" width="10" x="919.5288" y="1378.1445"/><polygon fill="#181818" points="265.6455,152.5332,275.6455,156.5332,265.6455,160.5332,269.6455,156.5332" style="stroke:#181818;stroke-width:1.0;"/><line style="stroke:#181818;stroke-width:1.0;" x1="32.8413" x2="271.6455" y1="156.5332" y2="156.5332"/><text fill="#000000" font-family="sans-serif" font-size="13" font-weight="bold" lengthAdjust="spacing" textLength="7.23" x="39.8413" y="151.2705">1</text><text fill="#000000" font-family="sans-serif" font-size="13" lengthAdjust="spacing" textLength="179.2134" x="51.0713" y="151.2705">requests to see available maps</text><polygon fill="#181818" points="378.1411,183.8242,388.1411,187.8242,378.1411,191.8242,382.1411,187.8242" style="stroke:#181818;stroke-width:1.0;"/><line style="stroke:#181818;stroke-width:1.0;" x1="287.6455" x2="384.1411" y1="187.8242" y2="187.8242"/><text fill="#000000" font-family="sans-serif" font-size="13" font-weight="bold" lengthAdjust="spacing" textLength="7.23" x="294.6455" y="182.5615">2</text><text fill="#000000" font-family="sans-serif" font-size="13" lengthAdjust="spacing" textLength="44.7891" x="305.8755" y="182.5615">create()</text><rect fill="#E3E3E3" height="32.6211" rx="2.5" ry="2.5" style="stroke:#181818;stroke-width:0.5;" width="129.9375" x="390.1411" y="164.5332"/><text fill="#000000" font-family="sans-serif" font-size="14" lengthAdjust="spacing" textLength="115.9375" x="397.1411" y="186.6406">:EditMapController</text><polygon fill="#181818" points="438.1099,227.4453,448.1099,231.4453,438.1099,235.4453,442.1099,231.4453" style="stroke:#181818;stroke-width:1.0;"/><line style="stroke:#181818;stroke-width:1.0;" x1="287.6455" x2="444.1099" y1="231.4453" y2="231.4453"/><text fill="#000000" font-family="sans-serif" font-size="13" font-weight="bold" lengthAdjust="spacing" textLength="7.23" x="294.6455" y="226.1826">3</text><text fill="#000000" font-family="sans-serif" font-size="13" lengthAdjust="spacing" textLength="111.2744" x="305.8755" y="226.1826">getAvailableMaps()</text><rect fill="none" height="43.252" style="stroke:#000000;stroke-width:1.5;" width="135.9375" x="387.1411" y="239.4453"/><path d="M387.1411,239.4453 L448.1411,239.4453 L448.1411,248.4453 L438.1411,258.4453 L387.1411,258.4453 L387.1411,239.4453 " fill="#EEEEEE" style="stroke:#000000;stroke-width:2.0;"/><text fill="#000000" font-family="sans-serif" font-size="13" font-weight="bold" lengthAdjust="spacing" textLength="16.6182" x="400.1411" y="255.4736">ref</text><text fill="#000000" font-family="sans-serif" font-size="12" lengthAdjust="spacing" textLength="102.7207" x="403.7495" y="275.3945">Get available maps</text><polygon fill="#181818" points="298.6455,306.9883,288.6455,310.9883,298.6455,314.9883,294.6455,310.9883" style="stroke:#181818;stroke-width:1.0;"/><line style="stroke:#181818;stroke-width:1.0;stroke-dasharray:2.0,2.0;" x1="292.6455" x2="454.1099" y1="310.9883" y2="310.9883"/><text fill="#000000" font-family="sans-serif" font-size="13" font-weight="bold" lengthAdjust="spacing" textLength="7.23" x="304.6455" y="305.7256">4</text><text fill="#000000" font-family="sans-serif" font-size="13" lengthAdjust="spacing" textLength="103.3335" x="315.8755" y="305.7256">availableMapsList</text><polygon fill="#181818" points="43.8413,338.2793,33.8413,342.2793,43.8413,346.2793,39.8413,342.2793" style="stroke:#181818;stroke-width:1.0;"/><line style="stroke:#181818;stroke-width:1.0;stroke-dasharray:2.0,2.0;" x1="37.8413" x2="281.6455" y1="342.2793" y2="342.2793"/><text fill="#000000" font-family="sans-serif" font-size="13" font-weight="bold" lengthAdjust="spacing" textLength="7.23" x="49.8413" y="337.0166">5</text><text fill="#000000" font-family="sans-serif" font-size="13" lengthAdjust="spacing" textLength="161.1289" x="61.0713" y="337.0166">shows list of available maps</text><polygon fill="#181818" points="265.6455,369.5703,275.6455,373.5703,265.6455,377.5703,269.6455,373.5703" style="stroke:#181818;stroke-width:1.0;"/><line style="stroke:#181818;stroke-width:1.0;" x1="32.8413" x2="271.6455" y1="373.5703" y2="373.5703"/><text fill="#000000" font-family="sans-serif" font-size="13" font-weight="bold" lengthAdjust="spacing" textLength="7.23" x="39.8413" y="368.3076">6</text><text fill="#000000" font-family="sans-serif" font-size="13" lengthAdjust="spacing" textLength="80.2026" x="51.0713" y="368.3076">selects a map</text><polygon fill="#181818" points="438.1099,400.8613,448.1099,404.8613,438.1099,408.8613,442.1099,404.8613" style="stroke:#181818;stroke-width:1.0;"/><line style="stroke:#181818;stroke-width:1.0;" x1="287.6455" x2="444.1099" y1="404.8613" y2="404.8613"/><text fill="#000000" font-family="sans-serif" font-size="13" font-weight="bold" lengthAdjust="spacing" textLength="7.23" x="294.6455" y="399.5986">7</text><text fill="#000000" font-family="sans-serif" font-size="13" lengthAdjust="spacing" textLength="132.2344" x="305.8755" y="399.5986">loadMap(selectedMap)</text><rect fill="none" height="43.252" style="stroke:#000000;stroke-width:1.5;" width="135.9375" x="387.1411" y="412.8613"/><path d="M387.1411,412.8613 L448.1411,412.8613 L448.1411,421.8613 L438.1411,431.8613 L387.1411,431.8613 L387.1411,412.8613 " fill="#EEEEEE" style="stroke:#000000;stroke-width:2.0;"/><text fill="#000000" font-family="sans-serif" font-size="13" font-weight="bold" lengthAdjust="spacing" textLength="16.6182" x="400.1411" y="428.8896">ref</text><text fill="#000000" font-family="sans-serif" font-size="12" lengthAdjust="spacing" textLength="53.373" x="428.4233" y="448.8105">Load map</text><polygon fill="#181818" points="298.6455,480.4043,288.6455,484.4043,298.6455,488.4043,294.6455,484.4043" style="stroke:#181818;stroke-width:1.0;"/><line style="stroke:#181818;stroke-width:1.0;stroke-dasharray:2.0,2.0;" x1="292.6455" x2="454.1099" y1="484.4043" y2="484.4043"/><text fill="#000000" font-family="sans-serif" font-size="13" font-weight="bold" lengthAdjust="spacing" textLength="7.23" x="304.6455" y="479.1416">8</text><text fill="#000000" font-family="sans-serif" font-size="13" lengthAdjust="spacing" textLength="64.3208" x="315.8755" y="479.1416">mapLayout</text><polygon fill="#181818" points="43.8413,511.6953,33.8413,515.6953,43.8413,519.6953,39.8413,515.6953" style="stroke:#181818;stroke-width:1.0;"/><line style="stroke:#181818;stroke-width:1.0;stroke-dasharray:2.0,2.0;" x1="37.8413" x2="281.6455" y1="515.6953" y2="515.6953"/><text fill="#000000" font-family="sans-serif" font-size="13" font-weight="bold" lengthAdjust="spacing" textLength="7.23" x="49.8413" y="510.4326">9</text><text fill="#000000" font-family="sans-serif" font-size="13" lengthAdjust="spacing" textLength="209.5742" x="61.0713" y="510.4326">loads and displays the selected map</text><polygon fill="#181818" points="565.9819,542.9863,575.9819,546.9863,565.9819,550.9863,569.9819,546.9863" style="stroke:#181818;stroke-width:1.0;"/><line style="stroke:#181818;stroke-width:1.0;" x1="32.8413" x2="571.9819" y1="546.9863" y2="546.9863"/><text fill="#000000" font-family="sans-serif" font-size="13" font-weight="bold" lengthAdjust="spacing" textLength="14.46" x="39.8413" y="541.7236">10</text><text fill="#000000" font-family="sans-serif" font-size="13" lengthAdjust="spacing" textLength="122.1162" x="58.3013" y="541.7236">asks to assign a train</text><polygon fill="#181818" points="836.2808,574.2773,846.2808,578.2773,836.2808,582.2773,840.2808,578.2773" style="stroke:#181818;stroke-width:1.0;"/><line style="stroke:#181818;stroke-width:1.0;" x1="587.9819" x2="842.2808" y1="578.2773" y2="578.2773"/><text fill="#000000" font-family="sans-serif" font-size="13" font-weight="bold" lengthAdjust="spacing" textLength="14.46" x="594.9819" y="573.0146">11</text><text fill="#000000" font-family="sans-serif" font-size="13" lengthAdjust="spacing" textLength="44.7891" x="613.4419" y="573.0146">create()</text><rect fill="#E3E3E3" height="32.6211" rx="2.5" ry="2.5" style="stroke:#181818;stroke-width:0.5;" width="152.4961" x="848.2808" y="554.9863"/><text fill="#000000" font-family="sans-serif" font-size="14" lengthAdjust="spacing" textLength="138.4961" x="855.2808" y="577.0938">:AssignTrainController</text><polygon fill="#181818" points="907.5288,617.8984,917.5288,621.8984,907.5288,625.8984,911.5288,621.8984" style="stroke:#181818;stroke-width:1.0;"/><line style="stroke:#181818;stroke-width:1.0;" x1="587.9819" x2="913.5288" y1="621.8984" y2="621.8984"/><text fill="#000000" font-family="sans-serif" font-size="13" font-weight="bold" lengthAdjust="spacing" textLength="14.46" x="594.9819" y="616.6357">12</text><text fill="#000000" font-family="sans-serif" font-size="13" lengthAdjust="spacing" textLength="120.6753" x="613.4419" y="616.6357">getAvailableRoutes()</text><rect fill="none" height="43.252" style="stroke:#000000;stroke-width:1.5;" width="158.4961" x="845.2808" y="629.8984"/><path d="M845.2808,629.8984 L906.2808,629.8984 L906.2808,638.8984 L896.2808,648.8984 L845.2808,648.8984 L845.2808,629.8984 " fill="#EEEEEE" style="stroke:#000000;stroke-width:2.0;"/><text fill="#000000" font-family="sans-serif" font-size="13" font-weight="bold" lengthAdjust="spacing" textLength="16.6182" x="858.2808" y="645.9268">ref</text><text fill="#000000" font-family="sans-serif" font-size="12" lengthAdjust="spacing" textLength="106.7285" x="871.1646" y="665.8477">Get available routes</text><polygon fill="#181818" points="598.9819,697.4414,588.9819,701.4414,598.9819,705.4414,594.9819,701.4414" style="stroke:#181818;stroke-width:1.0;"/><line style="stroke:#181818;stroke-width:1.0;stroke-dasharray:2.0,2.0;" x1="592.9819" x2="923.5288" y1="701.4414" y2="701.4414"/><text fill="#000000" font-family="sans-serif" font-size="13" font-weight="bold" lengthAdjust="spacing" textLength="14.46" x="604.9819" y="696.1787">13</text><text fill="#000000" font-family="sans-serif" font-size="13" lengthAdjust="spacing" textLength="112.7344" x="623.4419" y="696.1787">availableRoutesList</text><polygon fill="#181818" points="43.8413,728.7324,33.8413,732.7324,43.8413,736.7324,39.8413,732.7324" style="stroke:#181818;stroke-width:1.0;"/><line style="stroke:#181818;stroke-width:1.0;stroke-dasharray:2.0,2.0;" x1="37.8413" x2="581.9819" y1="732.7324" y2="732.7324"/><text fill="#000000" font-family="sans-serif" font-size="13" font-weight="bold" lengthAdjust="spacing" textLength="14.46" x="49.8413" y="727.4697">14</text><text fill="#000000" font-family="sans-serif" font-size="13" lengthAdjust="spacing" textLength="281.0806" x="68.3013" y="727.4697">displays list of available routes with valid stations</text><polygon fill="#181818" points="565.9819,760.0234,575.9819,764.0234,565.9819,768.0234,569.9819,764.0234" style="stroke:#181818;stroke-width:1.0;"/><line style="stroke:#181818;stroke-width:1.0;" x1="32.8413" x2="571.9819" y1="764.0234" y2="764.0234"/><text fill="#000000" font-family="sans-serif" font-size="13" font-weight="bold" lengthAdjust="spacing" textLength="14.46" x="39.8413" y="758.7607">15</text><text fill="#000000" font-family="sans-serif" font-size="13" lengthAdjust="spacing" textLength="84.5444" x="58.3013" y="758.7607">selects a route</text><polygon fill="#181818" points="907.5288,791.3145,917.5288,795.3145,907.5288,799.3145,911.5288,795.3145" style="stroke:#181818;stroke-width:1.0;"/><line style="stroke:#181818;stroke-width:1.0;" x1="587.9819" x2="913.5288" y1="795.3145" y2="795.3145"/><text fill="#000000" font-family="sans-serif" font-size="13" font-weight="bold" lengthAdjust="spacing" textLength="14.46" x="594.9819" y="790.0518">16</text><text fill="#000000" font-family="sans-serif" font-size="13" lengthAdjust="spacing" textLength="184.2661" x="613.4419" y="790.0518">getRouteDetails(selectedRoute)</text><rect fill="none" height="43.252" style="stroke:#000000;stroke-width:1.5;" width="158.4961" x="845.2808" y="803.3145"/><path d="M845.2808,803.3145 L906.2808,803.3145 L906.2808,812.3145 L896.2808,822.3145 L845.2808,822.3145 L845.2808,803.3145 " fill="#EEEEEE" style="stroke:#000000;stroke-width:2.0;"/><text fill="#000000" font-family="sans-serif" font-size="13" font-weight="bold" lengthAdjust="spacing" textLength="16.6182" x="858.2808" y="819.3428">ref</text><text fill="#000000" font-family="sans-serif" font-size="12" lengthAdjust="spacing" textLength="88.0488" x="880.5044" y="839.2637">Get route details</text><polygon fill="#181818" points="598.9819,870.8574,588.9819,874.8574,598.9819,878.8574,594.9819,874.8574" style="stroke:#181818;stroke-width:1.0;"/><line style="stroke:#181818;stroke-width:1.0;stroke-dasharray:2.0,2.0;" x1="592.9819" x2="923.5288" y1="874.8574" y2="874.8574"/><text fill="#000000" font-family="sans-serif" font-size="13" font-weight="bold" lengthAdjust="spacing" textLength="14.46" x="604.9819" y="869.5947">17</text><text fill="#000000" font-family="sans-serif" font-size="13" lengthAdjust="spacing" textLength="69.3672" x="623.4419" y="869.5947">routeDetails</text><polygon fill="#181818" points="43.8413,902.1484,33.8413,906.1484,43.8413,910.1484,39.8413,906.1484" style="stroke:#181818;stroke-width:1.0;"/><line style="stroke:#181818;stroke-width:1.0;stroke-dasharray:2.0,2.0;" x1="37.8413" x2="576.9819" y1="906.1484" y2="906.1484"/><text fill="#000000" font-family="sans-serif" font-size="13" font-weight="bold" lengthAdjust="spacing" textLength="14.46" x="49.8413" y="900.8857">18</text><text fill="#000000" font-family="sans-serif" font-size="13" lengthAdjust="spacing" textLength="246.397" x="68.3013" y="900.8857">displays route details (name, station stops)</text><polygon fill="#181818" points="43.8413,933.4395,33.8413,937.4395,43.8413,941.4395,39.8413,937.4395" style="stroke:#181818;stroke-width:1.0;"/><line style="stroke:#181818;stroke-width:1.0;stroke-dasharray:2.0,2.0;" x1="37.8413" x2="581.9819" y1="937.4395" y2="937.4395"/><text fill="#000000" font-family="sans-serif" font-size="13" font-weight="bold" lengthAdjust="spacing" textLength="14.46" x="49.8413" y="932.1768">19</text><text fill="#000000" font-family="sans-serif" font-size="13" lengthAdjust="spacing" textLength="119.9326" x="68.3013" y="932.1768">asks for confirmation</text><polygon fill="#181818" points="565.9819,964.7305,575.9819,968.7305,565.9819,972.7305,569.9819,968.7305" style="stroke:#181818;stroke-width:1.0;"/><line style="stroke:#181818;stroke-width:1.0;" x1="32.8413" x2="571.9819" y1="968.7305" y2="968.7305"/><text fill="#000000" font-family="sans-serif" font-size="13" font-weight="bold" lengthAdjust="spacing" textLength="14.46" x="39.8413" y="963.4678">20</text><text fill="#000000" font-family="sans-serif" font-size="13" lengthAdjust="spacing" textLength="137.2808" x="58.3013" y="963.4678">confirms route selection</text><polygon fill="#181818" points="907.5288,996.0215,917.5288,1000.0215,907.5288,1004.0215,911.5288,1000.0215" style="stroke:#181818;stroke-width:1.0;"/><line style="stroke:#181818;stroke-width:1.0;" x1="587.9819" x2="913.5288" y1="1000.0215" y2="1000.0215"/><text fill="#000000" font-family="sans-serif" font-size="13" font-weight="bold" lengthAdjust="spacing" textLength="14.46" x="594.9819" y="994.7588">21</text><text fill="#000000" font-family="sans-serif" font-size="13" lengthAdjust="spacing" textLength="115.6035" x="613.4419" y="994.7588">getAvailableTrains()</text><rect fill="none" height="43.252" style="stroke:#000000;stroke-width:1.5;" width="158.4961" x="845.2808" y="1008.0215"/><path d="M845.2808,1008.0215 L906.2808,1008.0215 L906.2808,1017.0215 L896.2808,1027.0215 L845.2808,1027.0215 L845.2808,1008.0215 " fill="#EEEEEE" style="stroke:#000000;stroke-width:2.0;"/><text fill="#000000" font-family="sans-serif" font-size="13" font-weight="bold" lengthAdjust="spacing" textLength="16.6182" x="858.2808" y="1024.0498">ref</text><text fill="#000000" font-family="sans-serif" font-size="12" lengthAdjust="spacing" textLength="102.7207" x="873.1685" y="1043.9707">Get available trains</text><polygon fill="#181818" points="598.9819,1075.5645,588.9819,1079.5645,598.9819,1083.5645,594.9819,1079.5645" style="stroke:#181818;stroke-width:1.0;"/><line style="stroke:#181818;stroke-width:1.0;stroke-dasharray:2.0,2.0;" x1="592.9819" x2="923.5288" y1="1079.5645" y2="1079.5645"/><text fill="#000000" font-family="sans-serif" font-size="13" font-weight="bold" lengthAdjust="spacing" textLength="14.46" x="604.9819" y="1074.3018">22</text><text fill="#000000" font-family="sans-serif" font-size="13" lengthAdjust="spacing" textLength="107.6626" x="623.4419" y="1074.3018">availableTrainsList</text><polygon fill="#181818" points="43.8413,1106.8555,33.8413,1110.8555,43.8413,1114.8555,39.8413,1110.8555" style="stroke:#181818;stroke-width:1.0;"/><line style="stroke:#181818;stroke-width:1.0;stroke-dasharray:2.0,2.0;" x1="37.8413" x2="581.9819" y1="1110.8555" y2="1110.8555"/><text fill="#000000" font-family="sans-serif" font-size="13" font-weight="bold" lengthAdjust="spacing" textLength="14.46" x="49.8413" y="1105.5928">23</text><text fill="#000000" font-family="sans-serif" font-size="13" lengthAdjust="spacing" textLength="171.2471" x="68.3013" y="1105.5928">displays list of available trains</text><polygon fill="#181818" points="565.9819,1138.1465,575.9819,1142.1465,565.9819,1146.1465,569.9819,1142.1465" style="stroke:#181818;stroke-width:1.0;"/><line style="stroke:#181818;stroke-width:1.0;" x1="32.8413" x2="571.9819" y1="1142.1465" y2="1142.1465"/><text fill="#000000" font-family="sans-serif" font-size="13" font-weight="bold" lengthAdjust="spacing" textLength="14.46" x="39.8413" y="1136.8838">24</text><text fill="#000000" font-family="sans-serif" font-size="13" lengthAdjust="spacing" textLength="80.2026" x="58.3013" y="1136.8838">selects a train</text><polygon fill="#181818" points="907.5288,1169.4375,917.5288,1173.4375,907.5288,1177.4375,911.5288,1173.4375" style="stroke:#181818;stroke-width:1.0;"/><line style="stroke:#181818;stroke-width:1.0;" x1="587.9819" x2="913.5288" y1="1173.4375" y2="1173.4375"/><text fill="#000000" font-family="sans-serif" font-size="13" font-weight="bold" lengthAdjust="spacing" textLength="14.46" x="594.9819" y="1168.1748">25</text><text fill="#000000" font-family="sans-serif" font-size="13" lengthAdjust="spacing" textLength="174.1226" x="613.4419" y="1168.1748">getTrainDetails(selectedTrain)</text><rect fill="none" height="43.252" style="stroke:#000000;stroke-width:1.5;" width="158.4961" x="845.2808" y="1181.4375"/><path d="M845.2808,1181.4375 L906.2808,1181.4375 L906.2808,1190.4375 L896.2808,1200.4375 L845.2808,1200.4375 L845.2808,1181.4375 " fill="#EEEEEE" style="stroke:#000000;stroke-width:2.0;"/><text fill="#000000" font-family="sans-serif" font-size="13" font-weight="bold" lengthAdjust="spacing" textLength="16.6182" x="858.2808" y="1197.4658">ref</text><text fill="#000000" font-family="sans-serif" font-size="12" lengthAdjust="spacing" textLength="84.041" x="882.5083" y="1217.3867">Get train details</text><polygon fill="#181818" points="598.9819,1248.9805,588.9819,1252.9805,598.9819,1256.9805,594.9819,1252.9805" style="stroke:#181818;stroke-width:1.0;"/><line style="stroke:#181818;stroke-width:1.0;stroke-dasharray:2.0,2.0;" x1="592.9819" x2="923.5288" y1="1252.9805" y2="1252.9805"/><text fill="#000000" font-family="sans-serif" font-size="13" font-weight="bold" lengthAdjust="spacing" textLength="14.46" x="604.9819" y="1247.7178">26</text><text fill="#000000" font-family="sans-serif" font-size="13" lengthAdjust="spacing" textLength="65.0254" x="623.4419" y="1247.7178">trainDetails</text><polygon fill="#181818" points="43.8413,1280.2715,33.8413,1284.2715,43.8413,1288.2715,39.8413,1284.2715" style="stroke:#181818;stroke-width:1.0;"/><line style="stroke:#181818;stroke-width:1.0;stroke-dasharray:2.0,2.0;" x1="37.8413" x2="576.9819" y1="1284.2715" y2="1284.2715"/><text fill="#000000" font-family="sans-serif" font-size="13" font-weight="bold" lengthAdjust="spacing" textLength="14.46" x="49.8413" y="1279.0088">27</text><text fill="#000000" font-family="sans-serif" font-size="13" lengthAdjust="spacing" textLength="117.0571" x="68.3013" y="1279.0088">displays train details</text><polygon fill="#181818" points="43.8413,1311.5625,33.8413,1315.5625,43.8413,1319.5625,39.8413,1315.5625" style="stroke:#181818;stroke-width:1.0;"/><line style="stroke:#181818;stroke-width:1.0;stroke-dasharray:2.0,2.0;" x1="37.8413" x2="581.9819" y1="1315.5625" y2="1315.5625"/><text fill="#000000" font-family="sans-serif" font-size="13" font-weight="bold" lengthAdjust="spacing" textLength="14.46" x="49.8413" y="1310.2998">28</text><text fill="#000000" font-family="sans-serif" font-size="13" lengthAdjust="spacing" textLength="119.9326" x="68.3013" y="1310.2998">asks for confirmation</text><polygon fill="#181818" points="565.9819,1342.8535,575.9819,1346.8535,565.9819,1350.8535,569.9819,1346.8535" style="stroke:#181818;stroke-width:1.0;"/><line style="stroke:#181818;stroke-width:1.0;" x1="32.8413" x2="571.9819" y1="1346.8535" y2="1346.8535"/><text fill="#000000" font-family="sans-serif" font-size="13" font-weight="bold" lengthAdjust="spacing" textLength="14.46" x="39.8413" y="1341.5908">29</text><text fill="#000000" font-family="sans-serif" font-size="13" lengthAdjust="spacing" textLength="119.209" x="58.3013" y="1341.5908">confirms assignment</text><polygon fill="#181818" points="907.5288,1374.1445,917.5288,1378.1445,907.5288,1382.1445,911.5288,1378.1445" style="stroke:#181818;stroke-width:1.0;"/><line style="stroke:#181818;stroke-width:1.0;" x1="587.9819" x2="913.5288" y1="1378.1445" y2="1378.1445"/><text fill="#000000" font-family="sans-serif" font-size="13" font-weight="bold" lengthAdjust="spacing" textLength="14.46" x="594.9819" y="1372.8818">30</text><text fill="#000000" font-family="sans-serif" font-size="13" lengthAdjust="spacing" textLength="294.0869" x="613.4419" y="1372.8818">assignTrainToRoute(selectedRoute, selectedTrain)</text><rect fill="none" height="43.252" style="stroke:#000000;stroke-width:1.5;" width="158.4961" x="845.2808" y="1386.1445"/><path d="M845.2808,1386.1445 L906.2808,1386.1445 L906.2808,1395.1445 L896.2808,1405.1445 L845.2808,1405.1445 L845.2808,1386.1445 " fill="#EEEEEE" style="stroke:#000000;stroke-width:2.0;"/><text fill="#000000" font-family="sans-serif" font-size="13" font-weight="bold" lengthAdjust="spacing" textLength="16.6182" x="858.2808" y="1402.1729">ref</text><text fill="#000000" font-family="sans-serif" font-size="12" lengthAdjust="spacing" textLength="106.7227" x="871.1675" y="1422.0938">Assign train to route</text><polygon fill="#181818" points="598.9819,1453.6875,588.9819,1457.6875,598.9819,1461.6875,594.9819,1457.6875" style="stroke:#181818;stroke-width:1.0;"/><line style="stroke:#181818;stroke-width:1.0;stroke-dasharray:2.0,2.0;" x1="592.9819" x2="923.5288" y1="1457.6875" y2="1457.6875"/><text fill="#000000" font-family="sans-serif" font-size="13" font-weight="bold" lengthAdjust="spacing" textLength="14.46" x="604.9819" y="1452.4248">31</text><text fill="#000000" font-family="sans-serif" font-size="13" lengthAdjust="spacing" textLength="106.2153" x="623.4419" y="1452.4248">assignmentDetails</text><polygon fill="#181818" points="43.8413,1484.9785,33.8413,1488.9785,43.8413,1492.9785,39.8413,1488.9785" style="stroke:#181818;stroke-width:1.0;"/><line style="stroke:#181818;stroke-width:1.0;stroke-dasharray:2.0,2.0;" x1="37.8413" x2="576.9819" y1="1488.9785" y2="1488.9785"/><text fill="#000000" font-family="sans-serif" font-size="13" font-weight="bold" lengthAdjust="spacing" textLength="14.46" x="49.8413" y="1483.7158">32</text><text fill="#000000" font-family="sans-serif" font-size="13" lengthAdjust="spacing" textLength="155.3589" x="68.3013" y="1483.7158">displays operation success</text><polygon fill="#181818" points="38.8413,1516.2695,28.8413,1520.2695,38.8413,1524.2695,34.8413,1520.2695" style="stroke:#181818;stroke-width:1.0;"/><line style="stroke:#181818;stroke-width:1.0;stroke-dasharray:2.0,2.0;" x1="32.8413" x2="581.9819" y1="1520.2695" y2="1520.2695"/><text fill="#000000" font-family="sans-serif" font-size="13" font-weight="bold" lengthAdjust="spacing" textLength="14.46" x="44.8413" y="1515.0068">33</text><text fill="#000000" font-family="sans-serif" font-size="13" lengthAdjust="spacing" textLength="460.313" x="63.3013" y="1515.0068">displays train, route and station details (including list of cargoes to be picked up)</text><!--SRC=[jLTDRzim3BtxLn0zjKK2R5SV1XJjC0p8WA5DVm0hCuuGM_8aEKN-_IZ9TcpdeqcRw1BNfgZ7z_nergwagj1W2QLMMYoDBWcSgIcntPCAnGfpUd6RWi2GSAZoeXzWbvZfTwboM61XAKcmTbhLvHkP977IyRON-bUJ4WHF4dFUayBho_TlC8K7QsMk0FbGb0gSvakZQ-Up2ASDtFmjS4Fc1j125IuJFjL98IjK3cxIdvbqVx1w_Hr2Id-rF-9HAsTqKJJ9EF9n_ZmRnKOySm-coRYJhXSoIXdoUTnoZOvQk0dmYjSm_H4HGifCCYNMML-p9G9SeopmZSdY21is-TLbYvL1RyLCCQK_-lu-1M68Ws_lZWQca9DxQCzZQkneG__GM5J_gQ45w3LNqpw5qVf5xb0vVf7AaZ4-dmUcBJtfThj7DvFM3JPaj8DmJxsSBTAUyYkgtoqKd0VquX2sOLOc-u1obWfsWUKtbUzyHgWK2eqPLtORKv6_lgW2Cyu_G7Sgx_mpmmqRy6jy-_gO89L19gs_oQ_vag0jTm3j8ze3vsXNmIauw1Uxv8-OZxGVDSSsP6YBPz-53XhZY2OdM29qk0zCqIapi4D4TSmGEyUFfEa4sNL3X0NlqYrXZONCm3fqKgkz7ZcWrDOTiO-VBb7WFnJuH8unsSuUuUO5bGZ8k9PmoXaoc1wuB_C_006t2akQj8JphwxitR4ymH4B_a8AhHRIb67V6JersreSaUf-YXC5wmmJleXNCanm-wSC4r5ToJ0ZMEUOuzp-5RWEnOpD4MvUaFKuYPrl3jS3zsMk3uEubWtYbwKavSvI1RVJu5o7FZNiMXEuXaxDsDmDpSDMUu8zkc8l9PYko3IjgnQ2h3rTvadJWlouqFQ_hYrA9Oewy_zSjFOJQ79DOHfuuo5RYXKF57LlVXg9tlkpcSZ_0m00]--></g></svg>