<svg xmlns="http://www.w3.org/2000/svg" xmlns:xlink="http://www.w3.org/1999/xlink" contentStyleType="text/css" height="354px" preserveAspectRatio="none" style="width:525px;height:354px;background:#FFFFFF;" version="1.1" viewBox="0 0 525 354" width="525px" zoomAndPan="magnify"><defs/><g><rect fill="#FFFFFF" height="189.7461" style="stroke:#181818;stroke-width:1.0;" width="10" x="153.0635" y="90.5332"/><rect fill="#FFFFFF" height="31.291" style="stroke:#181818;stroke-width:1.0;" width="10" x="329.8506" y="148.1152"/><rect fill="#FFFFFF" height="31.291" style="stroke:#181818;stroke-width:1.0;" width="10" x="446.0537" y="210.6973"/><rect fill="none" height="144.4551" style="stroke:#000000;stroke-width:1.5;" width="447.5898" x="71.8154" y="105.5332"/><line style="stroke:#181818;stroke-width:0.5;stroke-dasharray:5.0,5.0;" x1="157.8154" x2="157.8154" y1="57.2422" y2="298.2793"/><line style="stroke:#181818;stroke-width:0.5;stroke-dasharray:5.0,5.0;" x1="333.999" x2="333.999" y1="57.2422" y2="298.2793"/><line style="stroke:#181818;stroke-width:0.5;stroke-dasharray:5.0,5.0;" x1="450.7021" x2="450.7021" y1="57.2422" y2="298.2793"/><rect fill="#E3E3E3" height="32.6211" rx="2.5" ry="2.5" style="stroke:#181818;stroke-width:0.5;" width="152.4961" x="81.8154" y="23.6211"/><text fill="#000000" font-family="sans-serif" font-size="14" lengthAdjust="spacing" textLength="138.4961" x="88.8154" y="45.7285">:AssignTrainController</text><rect fill="#E3E3E3" height="32.6211" rx="2.5" ry="2.5" style="stroke:#181818;stroke-width:0.5;" width="152.4961" x="81.8154" y="297.2793"/><text fill="#000000" font-family="sans-serif" font-size="14" lengthAdjust="spacing" textLength="138.4961" x="88.8154" y="319.3867">:AssignTrainController</text><rect fill="#E3E3E3" height="51.2422" rx="2.5" ry="2.5" style="stroke:#181818;stroke-width:0.5;" width="95.7031" x="286.999" y="5"/><text fill="#000000" font-family="sans-serif" font-size="14" lengthAdjust="spacing" textLength="72.3652" x="298.668" y="27.1074">repositories</text><text fill="#000000" font-family="sans-serif" font-size="14" lengthAdjust="spacing" textLength="81.7031" x="293.999" y="45.7285">:Repositories</text><rect fill="#E3E3E3" height="51.2422" rx="2.5" ry="2.5" style="stroke:#181818;stroke-width:0.5;" width="95.7031" x="286.999" y="297.2793"/><text fill="#000000" font-family="sans-serif" font-size="14" lengthAdjust="spacing" textLength="72.3652" x="298.668" y="319.3867">repositories</text><text fill="#000000" font-family="sans-serif" font-size="14" lengthAdjust="spacing" textLength="81.7031" x="293.999" y="338.0078">:Repositories</text><rect fill="#E3E3E3" height="51.2422" rx="2.5" ry="2.5" style="stroke:#181818;stroke-width:0.5;" width="116.7031" x="392.7021" y="5"/><text fill="#000000" font-family="sans-serif" font-size="14" lengthAdjust="spacing" textLength="94.1514" x="403.978" y="27.1074">trainRepository</text><text fill="#000000" font-family="sans-serif" font-size="14" lengthAdjust="spacing" textLength="102.7031" x="399.7021" y="45.7285">:TrainRepository</text><rect fill="#E3E3E3" height="51.2422" rx="2.5" ry="2.5" style="stroke:#181818;stroke-width:0.5;" width="116.7031" x="392.7021" y="297.2793"/><text fill="#000000" font-family="sans-serif" font-size="14" lengthAdjust="spacing" textLength="94.1514" x="403.978" y="319.3867">trainRepository</text><text fill="#000000" font-family="sans-serif" font-size="14" lengthAdjust="spacing" textLength="102.7031" x="399.7021" y="338.0078">:TrainRepository</text><rect fill="#FFFFFF" height="189.7461" style="stroke:#181818;stroke-width:1.0;" width="10" x="153.0635" y="90.5332"/><rect fill="#FFFFFF" height="31.291" style="stroke:#181818;stroke-width:1.0;" width="10" x="329.8506" y="148.1152"/><rect fill="#FFFFFF" height="31.291" style="stroke:#181818;stroke-width:1.0;" width="10" x="446.0537" y="210.6973"/><polygon fill="#181818" points="141.0635,86.5332,151.0635,90.5332,141.0635,94.5332,145.0635,90.5332" style="stroke:#181818;stroke-width:1.0;"/><line style="stroke:#181818;stroke-width:1.0;" x1="0" x2="147.0635" y1="90.5332" y2="90.5332"/><text fill="#000000" font-family="sans-serif" font-size="13" font-weight="bold" lengthAdjust="spacing" textLength="14.46" x="7" y="85.2705">21</text><text fill="#000000" font-family="sans-serif" font-size="13" lengthAdjust="spacing" textLength="115.6035" x="25.46" y="85.2705">getAvailableTrains()</text><path d="M71.8154,105.5332 L241.8071,105.5332 L241.8071,114.8242 L231.8071,124.8242 L71.8154,124.8242 L71.8154,105.5332 " fill="#EEEEEE" style="stroke:#000000;stroke-width:1.5;"/><rect fill="none" height="144.4551" style="stroke:#000000;stroke-width:1.5;" width="447.5898" x="71.8154" y="105.5332"/><text fill="#000000" font-family="sans-serif" font-size="13" font-weight="bold" lengthAdjust="spacing" textLength="124.9917" x="86.8154" y="120.5615">Get Available Trains</text><polygon fill="#181818" points="317.8506,144.1152,327.8506,148.1152,317.8506,152.1152,321.8506,148.1152" style="stroke:#181818;stroke-width:1.0;"/><line style="stroke:#181818;stroke-width:1.0;" x1="163.0635" x2="323.8506" y1="148.1152" y2="148.1152"/><text fill="#000000" font-family="sans-serif" font-size="13" font-weight="bold" lengthAdjust="spacing" textLength="25.3018" x="170.0635" y="142.8525">21.1</text><text fill="#000000" font-family="sans-serif" font-size="13" lengthAdjust="spacing" textLength="118.4854" x="199.3652" y="142.8525">getTrainRepository()</text><polygon fill="#181818" points="174.0635,175.4063,164.0635,179.4063,174.0635,183.4063,170.0635,179.4063" style="stroke:#181818;stroke-width:1.0;"/><line style="stroke:#181818;stroke-width:1.0;stroke-dasharray:2.0,2.0;" x1="168.0635" x2="333.8506" y1="179.4063" y2="179.4063"/><text fill="#000000" font-family="sans-serif" font-size="13" font-weight="bold" lengthAdjust="spacing" textLength="25.3018" x="180.0635" y="174.1436">21.2</text><text fill="#000000" font-family="sans-serif" font-size="13" lengthAdjust="spacing" textLength="87.4263" x="209.3652" y="174.1436">trainRepository</text><polygon fill="#181818" points="434.0537,206.6973,444.0537,210.6973,434.0537,214.6973,438.0537,210.6973" style="stroke:#181818;stroke-width:1.0;"/><line style="stroke:#181818;stroke-width:1.0;" x1="163.0635" x2="440.0537" y1="210.6973" y2="210.6973"/><text fill="#000000" font-family="sans-serif" font-size="13" font-weight="bold" lengthAdjust="spacing" textLength="25.3018" x="170.0635" y="205.4346">21.3</text><text fill="#000000" font-family="sans-serif" font-size="13" lengthAdjust="spacing" textLength="115.6035" x="199.3652" y="205.4346">getAvailableTrains()</text><polygon fill="#181818" points="174.0635,237.9883,164.0635,241.9883,174.0635,245.9883,170.0635,241.9883" style="stroke:#181818;stroke-width:1.0;"/><line style="stroke:#181818;stroke-width:1.0;stroke-dasharray:2.0,2.0;" x1="168.0635" x2="450.0537" y1="241.9883" y2="241.9883"/><text fill="#000000" font-family="sans-serif" font-size="13" font-weight="bold" lengthAdjust="spacing" textLength="25.3018" x="180.0635" y="236.7256">21.4</text><text fill="#000000" font-family="sans-serif" font-size="13" lengthAdjust="spacing" textLength="107.6626" x="209.3652" y="236.7256">availableTrainsList</text><polygon fill="#181818" points="11,276.2793,1,280.2793,11,284.2793,7,280.2793" style="stroke:#181818;stroke-width:1.0;"/><line style="stroke:#181818;stroke-width:1.0;stroke-dasharray:2.0,2.0;" x1="5" x2="157.0635" y1="280.2793" y2="280.2793"/><text fill="#000000" font-family="sans-serif" font-size="13" font-weight="bold" lengthAdjust="spacing" textLength="14.46" x="17" y="275.0166">22</text><text fill="#000000" font-family="sans-serif" font-size="13" lengthAdjust="spacing" textLength="107.6626" x="35.46" y="275.0166">availableTrainsList</text><!--SRC=[VL5DQyCm3BthLuYUjaC6xJ6CGIcb54exaXm7GqtLrDInWwrqzDylTKP8icMwMTBxqBE_AbEHen9BQsn-SRPa55Sp-6vIKNwbWbEvQqR7kP0fT7_1N-XalvGfy4pQCr0jrjJbaHqkvW3DagXSLMG4P_7IUrMOp94oAsl4MQtPpP0yhh9aDrnsN5cln3h5_iF4IUyP4Cdw_P1-fjlzPhVE3liXM1uI7UJUuBDXfqUH9Slj7Y1w2oPYB5YMDrAQZfe3oZyz0-MYRYJS6XqS-JA7mjcwmWqBTaXieG3Or0E4ZS38Sz0Q6MkqyASwpV6fsAlH3AFkZb467Uh4ayH_c0tfJ8GoORGDzBV9qEyPf27XJdcPDjcIiZaDmby0l4RHFtpG8mfVzmq0]--></g></svg>