<svg xmlns="http://www.w3.org/2000/svg" xmlns:xlink="http://www.w3.org/1999/xlink" contentStyleType="text/css" height="848px" preserveAspectRatio="none" style="width:784px;height:848px;background:#FFFFFF;" version="1.1" viewBox="0 0 784 848" width="784px" zoomAndPan="magnify"><title>System Sequence Diagram: US12 - Create a Simulator</title><defs/><g><text fill="#000000" font-family="sans-serif" font-size="14" font-weight="bold" lengthAdjust="spacing" textLength="359.4678" x="208.7847" y="30.1074">System Sequence Diagram: US12 - Create a Simulator</text><rect fill="#FFFFFF" height="622.791" style="stroke:#181818;stroke-width:1.0;" width="10" x="74.686" y="133.2422"/><rect fill="#FFFFFF" height="31.291" style="stroke:#181818;stroke-width:1.0;" width="10" x="546.231" y="156.5332"/><rect fill="#FFFFFF" height="41.9365" style="stroke:#181818;stroke-width:1.0;" width="10" x="546.231" y="219.1152"/><rect fill="#FFFFFF" height="31.291" style="stroke:#181818;stroke-width:1.0;" width="10" x="546.231" y="355.5703"/><rect fill="#FFFFFF" height="31.291" style="stroke:#181818;stroke-width:1.0;" width="10" x="546.231" y="418.1523"/><rect fill="#FFFFFF" height="31.291" style="stroke:#181818;stroke-width:1.0;" width="10" x="546.231" y="497.3652"/><rect fill="#FFFFFF" height="31.291" style="stroke:#181818;stroke-width:1.0;" width="10" x="546.231" y="559.9473"/><rect fill="#FFFFFF" height="31.291" style="stroke:#181818;stroke-width:1.0;" width="10" x="546.231" y="639.1602"/><rect fill="#FFFFFF" height="45.291" style="stroke:#181818;stroke-width:1.0;" width="10" x="546.231" y="701.7422"/><rect fill="none" height="430.0449" rx="2.5" ry="2.5" style="stroke:#000000;stroke-width:1.5;" width="593.5137" x="10" y="286.6973"/><rect fill="none" height="396.7539" rx="2.5" ry="2.5" style="stroke:#000000;stroke-width:1.5;" width="573.5137" x="20" y="312.9883"/><line style="stroke:#181818;stroke-width:0.5;stroke-dasharray:5.0,5.0;" x1="79" x2="79" y1="123.2422" y2="765.0332"/><line style="stroke:#181818;stroke-width:0.5;stroke-dasharray:5.0,5.0;" x1="550.9482" x2="550.9482" y1="123.2422" y2="765.0332"/><text fill="#000000" font-family="sans-serif" font-size="14" lengthAdjust="spacing" textLength="93.3721" x="30" y="119.7285">Product Owner</text><ellipse cx="79.686" cy="53.1211" fill="#E2E2F0" rx="8" ry="8" style="stroke:#181818;stroke-width:0.5;"/><path d="M79.686,61.1211 L79.686,88.1211 M66.686,69.1211 L92.686,69.1211 M79.686,88.1211 L66.686,103.1211 M79.686,88.1211 L92.686,103.1211 " fill="none" style="stroke:#181818;stroke-width:0.5;"/><text fill="#000000" font-family="sans-serif" font-size="14" lengthAdjust="spacing" textLength="93.3721" x="30" y="779.1406">Product Owner</text><ellipse cx="79.686" cy="791.1543" fill="#E2E2F0" rx="8" ry="8" style="stroke:#181818;stroke-width:0.5;"/><path d="M79.686,799.1543 L79.686,826.1543 M66.686,807.1543 L92.686,807.1543 M79.686,826.1543 L66.686,841.1543 M79.686,826.1543 L92.686,841.1543 " fill="none" style="stroke:#181818;stroke-width:0.5;"/><rect fill="#E2E2F0" height="32.6211" rx="2.5" ry="2.5" style="stroke:#181818;stroke-width:0.5;" width="64.5654" x="518.9482" y="89.6211"/><text fill="#000000" font-family="sans-serif" font-size="14" lengthAdjust="spacing" textLength="50.5654" x="525.9482" y="111.7285">:System</text><rect fill="#E2E2F0" height="32.6211" rx="2.5" ry="2.5" style="stroke:#181818;stroke-width:0.5;" width="64.5654" x="518.9482" y="764.0332"/><text fill="#000000" font-family="sans-serif" font-size="14" lengthAdjust="spacing" textLength="50.5654" x="525.9482" y="786.1406">:System</text><rect fill="#FFFFFF" height="622.791" style="stroke:#181818;stroke-width:1.0;" width="10" x="74.686" y="133.2422"/><rect fill="#FFFFFF" height="31.291" style="stroke:#181818;stroke-width:1.0;" width="10" x="546.231" y="156.5332"/><rect fill="#FFFFFF" height="41.9365" style="stroke:#181818;stroke-width:1.0;" width="10" x="546.231" y="219.1152"/><rect fill="#FFFFFF" height="31.291" style="stroke:#181818;stroke-width:1.0;" width="10" x="546.231" y="355.5703"/><rect fill="#FFFFFF" height="31.291" style="stroke:#181818;stroke-width:1.0;" width="10" x="546.231" y="418.1523"/><rect fill="#FFFFFF" height="31.291" style="stroke:#181818;stroke-width:1.0;" width="10" x="546.231" y="497.3652"/><rect fill="#FFFFFF" height="31.291" style="stroke:#181818;stroke-width:1.0;" width="10" x="546.231" y="559.9473"/><rect fill="#FFFFFF" height="31.291" style="stroke:#181818;stroke-width:1.0;" width="10" x="546.231" y="639.1602"/><rect fill="#FFFFFF" height="45.291" style="stroke:#181818;stroke-width:1.0;" width="10" x="546.231" y="701.7422"/><polygon fill="#181818" points="534.231,152.5332,544.231,156.5332,534.231,160.5332,538.231,156.5332" style="stroke:#181818;stroke-width:1.0;"/><line style="stroke:#181818;stroke-width:2.0;" x1="84.686" x2="540.231" y1="156.5332" y2="156.5332"/><text fill="#000000" font-family="sans-serif" font-size="13" font-weight="bold" lengthAdjust="spacing" textLength="7.23" x="164.6218" y="151.2705">1</text><text fill="#000000" font-family="sans-serif" font-size="13" lengthAdjust="spacing" textLength="290.4434" x="175.8518" y="151.2705">asks to start a simulation (for testing the simulator)</text><polygon fill="#181818" points="95.686,183.8242,85.686,187.8242,95.686,191.8242,91.686,187.8242" style="stroke:#181818;stroke-width:1.0;"/><line style="stroke:#181818;stroke-width:2.0;stroke-dasharray:2.0,2.0;" x1="89.686" x2="550.231" y1="187.8242" y2="187.8242"/><text fill="#000000" font-family="sans-serif" font-size="13" font-weight="bold" lengthAdjust="spacing" textLength="7.23" x="99.186" y="182.5615">2</text><text fill="#000000" font-family="sans-serif" font-size="13" lengthAdjust="spacing" textLength="426.3149" x="110.416" y="182.5615">shows details (map and scenario for the simulation) and asks confirmation</text><polygon fill="#181818" points="534.231,215.1152,544.231,219.1152,534.231,223.1152,538.231,219.1152" style="stroke:#181818;stroke-width:1.0;"/><line style="stroke:#181818;stroke-width:2.0;" x1="84.686" x2="540.231" y1="219.1152" y2="219.1152"/><text fill="#000000" font-family="sans-serif" font-size="13" font-weight="bold" lengthAdjust="spacing" textLength="7.23" x="254.2158" y="213.8525">3</text><text fill="#000000" font-family="sans-serif" font-size="13" lengthAdjust="spacing" textLength="111.2554" x="265.4458" y="213.8525">confirms simulation</text><polygon fill="#181818" points="95.686,257.0518,85.686,261.0518,95.686,265.0518,91.686,261.0518" style="stroke:#181818;stroke-width:1.0;"/><line style="stroke:#181818;stroke-width:2.0;stroke-dasharray:2.0,2.0;" x1="89.686" x2="550.231" y1="261.0518" y2="261.0518"/><text fill="#000000" font-family="sans-serif" font-size="13" font-weight="bold" lengthAdjust="spacing" textLength="7.23" x="180.8391" y="255.7891">4</text><text fill="#000000" font-family="sans-serif" font-size="13" lengthAdjust="spacing" textLength="263.0088" x="192.0691" y="255.7891">display operation success (simulation started)</text><polygon fill="#FEFFDD" points="571,232.1152,757,232.1152,767,253.1152,757,274.1152,571,274.1152,561,253.1152,571,232.1152" style="stroke:#181818;stroke-width:0.5;"/><text fill="#000000" font-family="sans-serif" font-size="13" lengthAdjust="spacing" textLength="164.0298" x="573" y="250.1436">simulator generates cargoes</text><text fill="#000000" font-family="sans-serif" font-size="13" lengthAdjust="spacing" textLength="182.8062" x="573" y="267.4346">at current stations automatically</text><path d="M12.5,286.6973 L82.4346,286.6973 L82.4346,295.9883 L72.4346,305.9883 L10,305.9883 L10,289.1973 A2.5,2.5 0 0 1 12.5,286.6973 " fill="#EEEEEE" style="stroke:#000000;stroke-width:1.5;"/><rect fill="none" height="430.0449" rx="2.5" ry="2.5" style="stroke:#000000;stroke-width:1.5;" width="593.5137" x="10" y="286.6973"/><text fill="#000000" font-family="sans-serif" font-size="13" font-weight="bold" lengthAdjust="spacing" textLength="27.4346" x="25" y="301.7256">loop</text><text fill="#000000" font-family="sans-serif" font-size="11" font-weight="bold" lengthAdjust="spacing" textLength="149.1123" x="97.4346" y="300.5674">[while simulation is running]</text><path d="M22.5,312.9883 L80.1709,312.9883 L80.1709,322.2793 L70.1709,332.2793 L20,332.2793 L20,315.4883 A2.5,2.5 0 0 1 22.5,312.9883 " fill="#EEEEEE" style="stroke:#000000;stroke-width:1.5;"/><rect fill="none" height="396.7539" rx="2.5" ry="2.5" style="stroke:#000000;stroke-width:1.5;" width="573.5137" x="20" y="312.9883"/><text fill="#000000" font-family="sans-serif" font-size="13" font-weight="bold" lengthAdjust="spacing" textLength="15.1709" x="35" y="328.0166">alt</text><text fill="#000000" font-family="sans-serif" font-size="11" font-weight="bold" lengthAdjust="spacing" textLength="132.6392" x="95.1709" y="326.8584">[user requests operation]</text><polygon fill="#181818" points="534.231,351.5703,544.231,355.5703,534.231,359.5703,538.231,355.5703" style="stroke:#181818;stroke-width:1.0;"/><line style="stroke:#181818;stroke-width:2.0;" x1="84.686" x2="540.231" y1="355.5703" y2="355.5703"/><text fill="#000000" font-family="sans-serif" font-size="13" font-weight="bold" lengthAdjust="spacing" textLength="7.23" x="146.1851" y="350.3076">5</text><text fill="#000000" font-family="sans-serif" font-size="13" lengthAdjust="spacing" textLength="327.3169" x="157.415" y="350.3076">asks for operation (buy locomotive, add railway line, etc.)</text><polygon fill="#181818" points="95.686,382.8613,85.686,386.8613,95.686,390.8613,91.686,386.8613" style="stroke:#181818;stroke-width:1.0;"/><line style="stroke:#181818;stroke-width:2.0;stroke-dasharray:2.0,2.0;" x1="89.686" x2="550.231" y1="386.8613" y2="386.8613"/><text fill="#000000" font-family="sans-serif" font-size="13" font-weight="bold" lengthAdjust="spacing" textLength="7.23" x="182.6323" y="381.5986">6</text><text fill="#000000" font-family="sans-serif" font-size="13" lengthAdjust="spacing" textLength="259.4224" x="193.8623" y="381.5986">shows operation details and ask confirmation</text><polygon fill="#181818" points="534.231,414.1523,544.231,418.1523,534.231,422.1523,538.231,418.1523" style="stroke:#181818;stroke-width:1.0;"/><line style="stroke:#181818;stroke-width:2.0;" x1="84.686" x2="540.231" y1="418.1523" y2="418.1523"/><text fill="#000000" font-family="sans-serif" font-size="13" font-weight="bold" lengthAdjust="spacing" textLength="7.23" x="256.374" y="412.8896">7</text><text fill="#000000" font-family="sans-serif" font-size="13" lengthAdjust="spacing" textLength="106.939" x="267.604" y="412.8896">confirms operation</text><polygon fill="#181818" points="95.686,445.4434,85.686,449.4434,95.686,453.4434,91.686,449.4434" style="stroke:#181818;stroke-width:1.0;"/><line style="stroke:#181818;stroke-width:2.0;stroke-dasharray:2.0,2.0;" x1="89.686" x2="550.231" y1="449.4434" y2="449.4434"/><text fill="#000000" font-family="sans-serif" font-size="13" font-weight="bold" lengthAdjust="spacing" textLength="7.23" x="234.6641" y="444.1807">8</text><text fill="#000000" font-family="sans-serif" font-size="13" lengthAdjust="spacing" textLength="155.3589" x="245.894" y="444.1807">displays operation success</text><line style="stroke:#000000;stroke-width:1.0;stroke-dasharray:2.0,2.0;" x1="20" x2="593.5137" y1="458.4434" y2="458.4434"/><text fill="#000000" font-family="sans-serif" font-size="11" font-weight="bold" lengthAdjust="spacing" textLength="129.5884" x="25" y="470.3135">[user pauses simulation]</text><polygon fill="#181818" points="534.231,493.3652,544.231,497.3652,534.231,501.3652,538.231,497.3652" style="stroke:#181818;stroke-width:1.0;"/><line style="stroke:#181818;stroke-width:2.0;" x1="84.686" x2="540.231" y1="497.3652" y2="497.3652"/><text fill="#000000" font-family="sans-serif" font-size="13" font-weight="bold" lengthAdjust="spacing" textLength="7.23" x="230.72" y="492.1025">9</text><text fill="#000000" font-family="sans-serif" font-size="13" lengthAdjust="spacing" textLength="158.2471" x="241.95" y="492.1025">asks to pause the simulator</text><polygon fill="#181818" points="95.686,524.6563,85.686,528.6563,95.686,532.6563,91.686,528.6563" style="stroke:#181818;stroke-width:1.0;"/><line style="stroke:#181818;stroke-width:2.0;stroke-dasharray:2.0,2.0;" x1="89.686" x2="550.231" y1="528.6563" y2="528.6563"/><text fill="#000000" font-family="sans-serif" font-size="13" font-weight="bold" lengthAdjust="spacing" textLength="14.46" x="152.6555" y="523.3936">10</text><text fill="#000000" font-family="sans-serif" font-size="13" lengthAdjust="spacing" textLength="312.146" x="171.1155" y="523.3936">pauses simulation and waits for instructions to resume</text><polygon fill="#181818" points="534.231,555.9473,544.231,559.9473,534.231,563.9473,538.231,559.9473" style="stroke:#181818;stroke-width:1.0;"/><line style="stroke:#181818;stroke-width:2.0;" x1="84.686" x2="540.231" y1="559.9473" y2="559.9473"/><text fill="#000000" font-family="sans-serif" font-size="13" font-weight="bold" lengthAdjust="spacing" textLength="14.46" x="220.2463" y="554.6846">11</text><text fill="#000000" font-family="sans-serif" font-size="13" lengthAdjust="spacing" textLength="171.9644" x="238.7063" y="554.6846">asks to resume the simulation</text><polygon fill="#181818" points="95.686,587.2383,85.686,591.2383,95.686,595.2383,91.686,591.2383" style="stroke:#181818;stroke-width:1.0;"/><line style="stroke:#181818;stroke-width:2.0;stroke-dasharray:2.0,2.0;" x1="89.686" x2="550.231" y1="591.2383" y2="591.2383"/><text fill="#000000" font-family="sans-serif" font-size="13" font-weight="bold" lengthAdjust="spacing" textLength="14.46" x="184.4414" y="585.9756">12</text><text fill="#000000" font-family="sans-serif" font-size="13" lengthAdjust="spacing" textLength="248.5742" x="202.9014" y="585.9756">resume simulation of the map and scenario</text><line style="stroke:#000000;stroke-width:1.0;stroke-dasharray:2.0,2.0;" x1="20" x2="593.5137" y1="600.2383" y2="600.2383"/><text fill="#000000" font-family="sans-serif" font-size="11" font-weight="bold" lengthAdjust="spacing" textLength="121.0161" x="25" y="612.1084">[user stops simulation]</text><polygon fill="#181818" points="534.231,635.1602,544.231,639.1602,534.231,643.1602,538.231,639.1602" style="stroke:#181818;stroke-width:1.0;"/><line style="stroke:#181818;stroke-width:2.0;" x1="84.686" x2="540.231" y1="639.1602" y2="639.1602"/><text fill="#000000" font-family="sans-serif" font-size="13" font-weight="bold" lengthAdjust="spacing" textLength="14.46" x="229.6345" y="633.8975">13</text><text fill="#000000" font-family="sans-serif" font-size="13" lengthAdjust="spacing" textLength="153.188" x="248.0945" y="633.8975">asks to stop the simulation</text><polygon fill="#181818" points="95.686,666.4512,85.686,670.4512,95.686,674.4512,91.686,670.4512" style="stroke:#181818;stroke-width:1.0;"/><line style="stroke:#181818;stroke-width:2.0;stroke-dasharray:2.0,2.0;" x1="89.686" x2="550.231" y1="670.4512" y2="670.4512"/><text fill="#000000" font-family="sans-serif" font-size="13" font-weight="bold" lengthAdjust="spacing" textLength="14.46" x="246.5881" y="665.1885">14</text><text fill="#000000" font-family="sans-serif" font-size="13" lengthAdjust="spacing" textLength="124.2808" x="265.0481" y="665.1885">requests confirmation</text><polygon fill="#181818" points="534.231,697.7422,544.231,701.7422,534.231,705.7422,538.231,701.7422" style="stroke:#181818;stroke-width:1.0;"/><line style="stroke:#181818;stroke-width:2.0;" x1="84.686" x2="540.231" y1="701.7422" y2="701.7422"/><text fill="#000000" font-family="sans-serif" font-size="13" font-weight="bold" lengthAdjust="spacing" textLength="14.46" x="230.7231" y="696.4795">15</text><text fill="#000000" font-family="sans-serif" font-size="13" lengthAdjust="spacing" textLength="151.0107" x="249.1831" y="696.4795">confirms end of simulation</text><polygon fill="#181818" points="95.686,743.0332,85.686,747.0332,95.686,751.0332,91.686,747.0332" style="stroke:#181818;stroke-width:1.0;"/><line style="stroke:#181818;stroke-width:2.0;stroke-dasharray:2.0,2.0;" x1="89.686" x2="550.231" y1="747.0332" y2="747.0332"/><text fill="#000000" font-family="sans-serif" font-size="13" font-weight="bold" lengthAdjust="spacing" textLength="14.46" x="178.3064" y="741.7705">16</text><text fill="#000000" font-family="sans-serif" font-size="13" lengthAdjust="spacing" textLength="260.8442" x="196.7664" y="741.7705">shows simulation results and creates a report</text><!--SRC=[hLLDZzem4BtpAqQSG2gLkb8l72gjkjSA9DeVu7M6nCAnKy-u4V- -O-U3B2oqYFKbaJFptioyPuSEnZKgg1e8VqTq6dyWaIhnsPhIWKR766Pq4VKSWcz_LaOVdCJ3qoGa-EWAxOF305zdAh9tiNuLb1aRjWYx8p7MiEkHuCMeKlBMy6ltvGbMy3sWOWG5ErD7gzXBfjBoWFas-29gXaqhu7DG1DlDJ5ZPQDCenp1VT-ZvM_UQaysV12d1Cv2rtS3gsr37Ma8F1Eo1M924bpfUunqizaBBI6nS2LpXyCs7PKOQeGSkw5SFlX8UOLi3LRubA92LiGIBMZMWN04a0rR1UCWy9tpXNkQ0N9lsRcz2dRSpGu7l4f_rrQVH1FI-eWj3ZLL7y0s6RXuKjKvwBoOpocF3OdchiifvsGcch7Xa6qS99Rf4WDAf2gL76cCKWuuXY0iJJQ8ZI8vAiz3AscEEH1bK8kYuhFSDj9Mnqsc28GZHET7n16uP8ebBGx8YCPqQ7MEksINfTHhBuZKUXLVxsalp-0bKKK0GgLkPdZLETf3rv-KRsAiotFRGYNLmK- -JIviCwueeL_eRRVF-DEukktSHNTheVuj4IzWfrIXvN1Zwbb1ohdFIszFxM4SNLMG9McMuCuPnn47kgMnNAI0WnHeVa6Jef0CwkoWUwwM7dFJYzvdW_8gwNonYtzohLShvuFxwi_tHfoDTEZAgU-kKjE7E-jVVOg99KiboTzHr_Z_Ak-msFl2LU_Sl]--></g></svg>