<svg xmlns="http://www.w3.org/2000/svg" xmlns:xlink="http://www.w3.org/1999/xlink" contentStyleType="text/css" height="760px" preserveAspectRatio="none" style="width:639px;height:760px;background:#FFFFFF;" version="1.1" viewBox="0 0 639 760" width="639px" zoomAndPan="magnify"><title>System Sequence Diagram: US12 - Create a Simulator</title><defs/><g><text fill="#000000" font-family="sans-serif" font-size="14" font-weight="bold" lengthAdjust="spacing" textLength="359.4678" x="141.2825" y="30.1074">System Sequence Diagram: US12 - Create a Simulator</text><rect fill="#FFFFFF" height="534.9473" style="stroke:#181818;stroke-width:1.0;" width="10" x="64.686" y="133.2422"/><rect fill="#FFFFFF" height="31.291" style="stroke:#181818;stroke-width:1.0;" width="10" x="585.75" y="156.5332"/><rect fill="#FFFFFF" height="31.291" style="stroke:#181818;stroke-width:1.0;" width="10" x="585.75" y="219.1152"/><rect fill="#FFFFFF" height="31.291" style="stroke:#181818;stroke-width:1.0;" width="10" x="585.75" y="281.6973"/><rect fill="#FFFFFF" height="31.291" style="stroke:#181818;stroke-width:1.0;" width="10" x="585.75" y="344.2793"/><rect fill="#FFFFFF" height="31.291" style="stroke:#181818;stroke-width:1.0;" width="10" x="585.75" y="433.1523"/><rect fill="#FFFFFF" height="31.291" style="stroke:#181818;stroke-width:1.0;" width="10" x="585.75" y="495.7344"/><rect fill="#FFFFFF" height="31.291" style="stroke:#181818;stroke-width:1.0;" width="10" x="585.75" y="565.3164"/><rect fill="#FFFFFF" height="31.291" style="stroke:#181818;stroke-width:1.0;" width="10" x="585.75" y="627.8984"/><rect fill="none" height="144.4551" rx="2.5" ry="2.5" style="stroke:#000000;stroke-width:1.5;" width="623.0327" x="10" y="390.5703"/><line style="stroke:#181818;stroke-width:0.5;stroke-dasharray:5.0,5.0;" x1="69" x2="69" y1="123.2422" y2="677.1895"/><line style="stroke:#181818;stroke-width:0.5;stroke-dasharray:5.0,5.0;" x1="590.4673" x2="590.4673" y1="123.2422" y2="677.1895"/><text fill="#000000" font-family="sans-serif" font-size="14" lengthAdjust="spacing" textLength="93.3721" x="20" y="119.7285">Product Owner</text><ellipse cx="69.686" cy="53.1211" fill="#E2E2F0" rx="8" ry="8" style="stroke:#181818;stroke-width:0.5;"/><path d="M69.686,61.1211 L69.686,88.1211 M56.686,69.1211 L82.686,69.1211 M69.686,88.1211 L56.686,103.1211 M69.686,88.1211 L82.686,103.1211 " fill="none" style="stroke:#181818;stroke-width:0.5;"/><text fill="#000000" font-family="sans-serif" font-size="14" lengthAdjust="spacing" textLength="93.3721" x="20" y="691.2969">Product Owner</text><ellipse cx="69.686" cy="703.3105" fill="#E2E2F0" rx="8" ry="8" style="stroke:#181818;stroke-width:0.5;"/><path d="M69.686,711.3105 L69.686,738.3105 M56.686,719.3105 L82.686,719.3105 M69.686,738.3105 L56.686,753.3105 M69.686,738.3105 L82.686,753.3105 " fill="none" style="stroke:#181818;stroke-width:0.5;"/><rect fill="#E2E2F0" height="32.6211" rx="2.5" ry="2.5" style="stroke:#181818;stroke-width:0.5;" width="64.5654" x="558.4673" y="89.6211"/><text fill="#000000" font-family="sans-serif" font-size="14" lengthAdjust="spacing" textLength="50.5654" x="565.4673" y="111.7285">:System</text><rect fill="#E2E2F0" height="32.6211" rx="2.5" ry="2.5" style="stroke:#181818;stroke-width:0.5;" width="64.5654" x="558.4673" y="676.1895"/><text fill="#000000" font-family="sans-serif" font-size="14" lengthAdjust="spacing" textLength="50.5654" x="565.4673" y="698.2969">:System</text><rect fill="#FFFFFF" height="534.9473" style="stroke:#181818;stroke-width:1.0;" width="10" x="64.686" y="133.2422"/><rect fill="#FFFFFF" height="31.291" style="stroke:#181818;stroke-width:1.0;" width="10" x="585.75" y="156.5332"/><rect fill="#FFFFFF" height="31.291" style="stroke:#181818;stroke-width:1.0;" width="10" x="585.75" y="219.1152"/><rect fill="#FFFFFF" height="31.291" style="stroke:#181818;stroke-width:1.0;" width="10" x="585.75" y="281.6973"/><rect fill="#FFFFFF" height="31.291" style="stroke:#181818;stroke-width:1.0;" width="10" x="585.75" y="344.2793"/><rect fill="#FFFFFF" height="31.291" style="stroke:#181818;stroke-width:1.0;" width="10" x="585.75" y="433.1523"/><rect fill="#FFFFFF" height="31.291" style="stroke:#181818;stroke-width:1.0;" width="10" x="585.75" y="495.7344"/><rect fill="#FFFFFF" height="31.291" style="stroke:#181818;stroke-width:1.0;" width="10" x="585.75" y="565.3164"/><rect fill="#FFFFFF" height="31.291" style="stroke:#181818;stroke-width:1.0;" width="10" x="585.75" y="627.8984"/><polygon fill="#181818" points="573.75,152.5332,583.75,156.5332,573.75,160.5332,577.75,156.5332" style="stroke:#181818;stroke-width:1.0;"/><line style="stroke:#181818;stroke-width:2.0;" x1="74.686" x2="579.75" y1="156.5332" y2="156.5332"/><text fill="#000000" font-family="sans-serif" font-size="13" lengthAdjust="spacing" textLength="492.064" x="84.186" y="151.2705">selects a map and a scenario, and asks to start a simulation (for testing the simulator)</text><polygon fill="#181818" points="85.686,183.8242,75.686,187.8242,85.686,191.8242,81.686,187.8242" style="stroke:#181818;stroke-width:1.0;"/><line style="stroke:#181818;stroke-width:2.0;stroke-dasharray:2.0,2.0;" x1="79.686" x2="589.75" y1="187.8242" y2="187.8242"/><text fill="#000000" font-family="sans-serif" font-size="13" lengthAdjust="spacing" textLength="474.7095" x="95.3633" y="182.5615">shows details (time, technological and historical restrictions) and asks confirmation</text><polygon fill="#181818" points="573.75,215.1152,583.75,219.1152,573.75,223.1152,577.75,219.1152" style="stroke:#181818;stroke-width:1.0;"/><line style="stroke:#181818;stroke-width:2.0;" x1="74.686" x2="579.75" y1="219.1152" y2="219.1152"/><text fill="#000000" font-family="sans-serif" font-size="13" lengthAdjust="spacing" textLength="111.2554" x="274.5903" y="213.8525">confirms simulation</text><polygon fill="#181818" points="85.686,246.4063,75.686,250.4063,85.686,254.4063,81.686,250.4063" style="stroke:#181818;stroke-width:1.0;"/><line style="stroke:#181818;stroke-width:2.0;stroke-dasharray:2.0,2.0;" x1="79.686" x2="589.75" y1="250.4063" y2="250.4063"/><text fill="#000000" font-family="sans-serif" font-size="13" lengthAdjust="spacing" textLength="237.0088" x="214.2136" y="245.1436">starts simulation of the map and scenario</text><polygon fill="#181818" points="573.75,277.6973,583.75,281.6973,573.75,285.6973,577.75,281.6973" style="stroke:#181818;stroke-width:1.0;"/><line style="stroke:#181818;stroke-width:2.0;" x1="74.686" x2="579.75" y1="281.6973" y2="281.6973"/><text fill="#000000" font-family="sans-serif" font-size="13" lengthAdjust="spacing" textLength="158.2471" x="251.0945" y="276.4346">asks to pause the simulator</text><polygon fill="#181818" points="85.686,308.9883,75.686,312.9883,85.686,316.9883,81.686,312.9883" style="stroke:#181818;stroke-width:1.0;"/><line style="stroke:#181818;stroke-width:2.0;stroke-dasharray:2.0,2.0;" x1="79.686" x2="589.75" y1="312.9883" y2="312.9883"/><text fill="#000000" font-family="sans-serif" font-size="13" lengthAdjust="spacing" textLength="312.146" x="176.645" y="307.7256">pauses simulation and waits for instructions to resume</text><polygon fill="#181818" points="573.75,340.2793,583.75,344.2793,573.75,348.2793,577.75,344.2793" style="stroke:#181818;stroke-width:1.0;"/><line style="stroke:#181818;stroke-width:2.0;" x1="74.686" x2="579.75" y1="344.2793" y2="344.2793"/><text fill="#000000" font-family="sans-serif" font-size="13" lengthAdjust="spacing" textLength="171.9644" x="244.2358" y="339.0166">asks to resume the simulation</text><polygon fill="#181818" points="85.686,371.5703,75.686,375.5703,85.686,379.5703,81.686,375.5703" style="stroke:#181818;stroke-width:1.0;"/><line style="stroke:#181818;stroke-width:2.0;stroke-dasharray:2.0,2.0;" x1="79.686" x2="589.75" y1="375.5703" y2="375.5703"/><text fill="#000000" font-family="sans-serif" font-size="13" lengthAdjust="spacing" textLength="248.5742" x="208.4309" y="370.3076">resume simulation of the map and scenario</text><path d="M12.5,390.5703 L82.4346,390.5703 L82.4346,399.8613 L72.4346,409.8613 L10,409.8613 L10,393.0703 A2.5,2.5 0 0 1 12.5,390.5703 " fill="#EEEEEE" style="stroke:#000000;stroke-width:1.5;"/><rect fill="none" height="144.4551" rx="2.5" ry="2.5" style="stroke:#000000;stroke-width:1.5;" width="623.0327" x="10" y="390.5703"/><text fill="#000000" font-family="sans-serif" font-size="13" font-weight="bold" lengthAdjust="spacing" textLength="27.4346" x="25" y="405.5986">loop</text><text fill="#000000" font-family="sans-serif" font-size="11" font-weight="bold" lengthAdjust="spacing" textLength="83.7192" x="97.4346" y="404.4404">[while intended]</text><polygon fill="#181818" points="573.75,429.1523,583.75,433.1523,573.75,437.1523,577.75,433.1523" style="stroke:#181818;stroke-width:1.0;"/><line style="stroke:#181818;stroke-width:2.0;" x1="74.686" x2="579.75" y1="433.1523" y2="433.1523"/><text fill="#000000" font-family="sans-serif" font-size="13" lengthAdjust="spacing" textLength="327.3169" x="166.5596" y="427.8896">asks for operation (buy locomotive, add railway line, etc.)</text><polygon fill="#181818" points="85.686,460.4434,75.686,464.4434,85.686,468.4434,81.686,464.4434" style="stroke:#181818;stroke-width:1.0;"/><line style="stroke:#181818;stroke-width:2.0;stroke-dasharray:2.0,2.0;" x1="79.686" x2="589.75" y1="464.4434" y2="464.4434"/><text fill="#000000" font-family="sans-serif" font-size="13" lengthAdjust="spacing" textLength="259.4224" x="203.0068" y="459.1807">shows operation details and ask confirmation</text><polygon fill="#181818" points="573.75,491.7344,583.75,495.7344,573.75,499.7344,577.75,495.7344" style="stroke:#181818;stroke-width:1.0;"/><line style="stroke:#181818;stroke-width:2.0;" x1="74.686" x2="579.75" y1="495.7344" y2="495.7344"/><text fill="#000000" font-family="sans-serif" font-size="13" lengthAdjust="spacing" textLength="106.939" x="276.7485" y="490.4717">confirms operation</text><polygon fill="#181818" points="85.686,523.0254,75.686,527.0254,85.686,531.0254,81.686,527.0254" style="stroke:#181818;stroke-width:1.0;"/><line style="stroke:#181818;stroke-width:2.0;stroke-dasharray:2.0,2.0;" x1="79.686" x2="589.75" y1="527.0254" y2="527.0254"/><text fill="#000000" font-family="sans-serif" font-size="13" lengthAdjust="spacing" textLength="155.3589" x="255.0386" y="521.7627">displays operation success</text><polygon fill="#181818" points="573.75,561.3164,583.75,565.3164,573.75,569.3164,577.75,565.3164" style="stroke:#181818;stroke-width:1.0;"/><line style="stroke:#181818;stroke-width:2.0;" x1="74.686" x2="579.75" y1="565.3164" y2="565.3164"/><text fill="#000000" font-family="sans-serif" font-size="13" lengthAdjust="spacing" textLength="153.188" x="253.624" y="560.0537">asks to stop the simulation</text><polygon fill="#181818" points="85.686,592.6074,75.686,596.6074,85.686,600.6074,81.686,596.6074" style="stroke:#181818;stroke-width:1.0;"/><line style="stroke:#181818;stroke-width:2.0;stroke-dasharray:2.0,2.0;" x1="79.686" x2="589.75" y1="596.6074" y2="596.6074"/><text fill="#000000" font-family="sans-serif" font-size="13" lengthAdjust="spacing" textLength="124.2808" x="270.5776" y="591.3447">requests confirmation</text><polygon fill="#181818" points="573.75,623.8984,583.75,627.8984,573.75,631.8984,577.75,627.8984" style="stroke:#181818;stroke-width:1.0;"/><line style="stroke:#181818;stroke-width:2.0;" x1="74.686" x2="579.75" y1="627.8984" y2="627.8984"/><text fill="#000000" font-family="sans-serif" font-size="13" lengthAdjust="spacing" textLength="151.0107" x="254.7126" y="622.6357">confirms end of simulation</text><polygon fill="#181818" points="85.686,655.1895,75.686,659.1895,85.686,663.1895,81.686,659.1895" style="stroke:#181818;stroke-width:1.0;"/><line style="stroke:#181818;stroke-width:2.0;stroke-dasharray:2.0,2.0;" x1="79.686" x2="589.75" y1="659.1895" y2="659.1895"/><text fill="#000000" font-family="sans-serif" font-size="13" lengthAdjust="spacing" textLength="260.8442" x="202.2959" y="653.9268">shows simulation results and creates a report</text><!--SRC=[fPHDRjim48NtEiN0gnY82oH0DruK2DfjOGDk3y1IOsbWYbGvemY-VOUKv2XDRC2sDfBuC-_ZuoFvGBurqJJ0-BT3R_4dCfiANnnL7YnwmLZmXr4lCOR-Lqtsu7KyFC-6nD3vqeReCSBNeX0IXx0xic03kt4w_21JwU0r_DuzFSCAlaSqWc1WHqtdZ8HO5CRg2nRR6ChE2cnwhRW0mx3T52ebPAarNc2n7ghdlk4pJwRNL5875w3FTWEhRnF7MXVYq0ghOcDQCBxKBzRbcaZXSVZd0uC4O56jr3kGKV3mi5SmGHRo5KYDKr-8ownr4fzeO7n6-PMIA8zIrA5dA54CEOO7eGOVjR2jVN2X8cjSHgc9jNR-ZQggNmc3bs-SDlWznIRZPRKIFuNupuLn6iyMT-K2aZdpwH3ssP79rSdJAw0curlJCRwtzpguNE0TN2Bg3Ibnsa7owcKtU9a4rTkkmHj8XubprAkD74lSPwGBeOM-9Zrmf0VNbrYU13z3JoQ45kEOwZ_TKKlOq0IjhK4qPGbHazaRRIUlBIZso_9KykpYpaVzJMqA_HZXZmc-iCvBIJuft8PP4hVE7EUat5chbzm5gDIgRb_CY9xWziw4wDt9SlzPLz8KhfkFVDx8ML1JT9qCEsdpFPwkrOXjY7A6xny0]--></g></svg>