<svg xmlns="http://www.w3.org/2000/svg" xmlns:xlink="http://www.w3.org/1999/xlink" contentStyleType="text/css" height="653px" preserveAspectRatio="none" style="width:382px;height:653px;background:#FFFFFF;" version="1.1" viewBox="0 0 382 653" width="382px" zoomAndPan="magnify"><title>System Sequence Diagram: US04 - Create a Scenario</title><defs/><g><text fill="#000000" font-family="sans-serif" font-size="14" font-weight="bold" lengthAdjust="spacing" textLength="354.04" x="10" y="30.1074">System Sequence Diagram: US04 - Create a Scenario</text><rect fill="#FFFFFF" height="428.3652" style="stroke:#181818;stroke-width:1.0;" width="10" x="33.0015" y="133.2422"/><rect fill="#FFFFFF" height="31.291" style="stroke:#181818;stroke-width:1.0;" width="10" x="321.042" y="156.5332"/><rect fill="#FFFFFF" height="31.291" style="stroke:#181818;stroke-width:1.0;" width="10" x="321.042" y="219.1152"/><rect fill="#FFFFFF" height="48.582" style="stroke:#181818;stroke-width:1.0;" width="10" x="321.042" y="281.6973"/><rect fill="#FFFFFF" height="65.873" style="stroke:#181818;stroke-width:1.0;" width="10" x="321.042" y="361.5703"/><rect fill="#FFFFFF" height="31.291" style="stroke:#181818;stroke-width:1.0;" width="10" x="321.042" y="458.7344"/><rect fill="#FFFFFF" height="31.291" style="stroke:#181818;stroke-width:1.0;" width="10" x="321.042" y="521.3164"/><line style="stroke:#181818;stroke-width:0.5;stroke-dasharray:5.0,5.0;" x1="37.7153" x2="37.7153" y1="123.2422" y2="570.6074"/><line style="stroke:#181818;stroke-width:0.5;stroke-dasharray:5.0,5.0;" x1="325.7593" x2="325.7593" y1="123.2422" y2="570.6074"/><text fill="#000000" font-family="sans-serif" font-size="14" lengthAdjust="spacing" textLength="36.5723" x="16.7153" y="119.7285">Editor</text><ellipse cx="38.0015" cy="53.1211" fill="#E2E2F0" rx="8" ry="8" style="stroke:#181818;stroke-width:0.5;"/><path d="M38.0015,61.1211 L38.0015,88.1211 M25.0015,69.1211 L51.0015,69.1211 M38.0015,88.1211 L25.0015,103.1211 M38.0015,88.1211 L51.0015,103.1211 " fill="none" style="stroke:#181818;stroke-width:0.5;"/><text fill="#000000" font-family="sans-serif" font-size="14" lengthAdjust="spacing" textLength="36.5723" x="16.7153" y="584.7148">Editor</text><ellipse cx="38.0015" cy="596.7285" fill="#E2E2F0" rx="8" ry="8" style="stroke:#181818;stroke-width:0.5;"/><path d="M38.0015,604.7285 L38.0015,631.7285 M25.0015,612.7285 L51.0015,612.7285 M38.0015,631.7285 L25.0015,646.7285 M38.0015,631.7285 L51.0015,646.7285 " fill="none" style="stroke:#181818;stroke-width:0.5;"/><rect fill="#E2E2F0" height="32.6211" rx="2.5" ry="2.5" style="stroke:#181818;stroke-width:0.5;" width="64.5654" x="293.7593" y="89.6211"/><text fill="#000000" font-family="sans-serif" font-size="14" lengthAdjust="spacing" textLength="50.5654" x="300.7593" y="111.7285">:System</text><rect fill="#E2E2F0" height="32.6211" rx="2.5" ry="2.5" style="stroke:#181818;stroke-width:0.5;" width="64.5654" x="293.7593" y="569.6074"/><text fill="#000000" font-family="sans-serif" font-size="14" lengthAdjust="spacing" textLength="50.5654" x="300.7593" y="591.7148">:System</text><rect fill="#FFFFFF" height="428.3652" style="stroke:#181818;stroke-width:1.0;" width="10" x="33.0015" y="133.2422"/><rect fill="#FFFFFF" height="31.291" style="stroke:#181818;stroke-width:1.0;" width="10" x="321.042" y="156.5332"/><rect fill="#FFFFFF" height="31.291" style="stroke:#181818;stroke-width:1.0;" width="10" x="321.042" y="219.1152"/><rect fill="#FFFFFF" height="48.582" style="stroke:#181818;stroke-width:1.0;" width="10" x="321.042" y="281.6973"/><rect fill="#FFFFFF" height="65.873" style="stroke:#181818;stroke-width:1.0;" width="10" x="321.042" y="361.5703"/><rect fill="#FFFFFF" height="31.291" style="stroke:#181818;stroke-width:1.0;" width="10" x="321.042" y="458.7344"/><rect fill="#FFFFFF" height="31.291" style="stroke:#181818;stroke-width:1.0;" width="10" x="321.042" y="521.3164"/><polygon fill="#181818" points="309.042,152.5332,319.042,156.5332,309.042,160.5332,313.042,156.5332" style="stroke:#181818;stroke-width:1.0;"/><line style="stroke:#181818;stroke-width:1.0;" x1="43.0015" x2="315.042" y1="156.5332" y2="156.5332"/><text fill="#000000" font-family="sans-serif" font-size="13" font-weight="bold" lengthAdjust="spacing" textLength="7.23" x="50.0015" y="151.2705">1</text><text fill="#000000" font-family="sans-serif" font-size="13" lengthAdjust="spacing" textLength="144.5171" x="61.2314" y="151.2705">asks to create a scenario</text><polygon fill="#181818" points="54.0015,183.8242,44.0015,187.8242,54.0015,191.8242,50.0015,187.8242" style="stroke:#181818;stroke-width:1.0;"/><line style="stroke:#181818;stroke-width:1.0;stroke-dasharray:2.0,2.0;" x1="48.0015" x2="325.042" y1="187.8242" y2="187.8242"/><text fill="#000000" font-family="sans-serif" font-size="13" font-weight="bold" lengthAdjust="spacing" textLength="7.23" x="60.0015" y="182.5615">2</text><text fill="#000000" font-family="sans-serif" font-size="13" lengthAdjust="spacing" textLength="218.2197" x="71.2314" y="182.5615">shows map list and asks to select one</text><polygon fill="#181818" points="309.042,215.1152,319.042,219.1152,309.042,223.1152,313.042,219.1152" style="stroke:#181818;stroke-width:1.0;"/><line style="stroke:#181818;stroke-width:1.0;" x1="43.0015" x2="315.042" y1="219.1152" y2="219.1152"/><text fill="#000000" font-family="sans-serif" font-size="13" font-weight="bold" lengthAdjust="spacing" textLength="7.23" x="50.0015" y="213.8525">3</text><text fill="#000000" font-family="sans-serif" font-size="13" lengthAdjust="spacing" textLength="80.2026" x="61.2314" y="213.8525">selects a map</text><polygon fill="#181818" points="54.0015,246.4063,44.0015,250.4063,54.0015,254.4063,50.0015,250.4063" style="stroke:#181818;stroke-width:1.0;"/><line style="stroke:#181818;stroke-width:1.0;stroke-dasharray:2.0,2.0;" x1="48.0015" x2="325.042" y1="250.4063" y2="250.4063"/><text fill="#000000" font-family="sans-serif" font-size="13" font-weight="bold" lengthAdjust="spacing" textLength="7.23" x="60.0015" y="245.1436">4</text><text fill="#000000" font-family="sans-serif" font-size="13" lengthAdjust="spacing" textLength="242.8105" x="71.2314" y="245.1436">requests data (name, start date, end date)</text><polygon fill="#181818" points="309.042,277.6973,319.042,281.6973,309.042,285.6973,313.042,281.6973" style="stroke:#181818;stroke-width:1.0;"/><line style="stroke:#181818;stroke-width:1.0;" x1="43.0015" x2="315.042" y1="281.6973" y2="281.6973"/><text fill="#000000" font-family="sans-serif" font-size="13" font-weight="bold" lengthAdjust="spacing" textLength="7.23" x="50.0015" y="276.4346">5</text><text fill="#000000" font-family="sans-serif" font-size="13" lengthAdjust="spacing" textLength="121.418" x="61.2314" y="276.4346">types requested data</text><polygon fill="#181818" points="54.0015,326.2793,44.0015,330.2793,54.0015,334.2793,50.0015,330.2793" style="stroke:#181818;stroke-width:1.0;"/><line style="stroke:#181818;stroke-width:1.0;stroke-dasharray:2.0,2.0;" x1="48.0015" x2="325.042" y1="330.2793" y2="330.2793"/><text fill="#000000" font-family="sans-serif" font-size="13" font-weight="bold" lengthAdjust="spacing" textLength="7.23" x="60.0015" y="316.3711">6</text><text fill="#000000" font-family="sans-serif" font-size="13" lengthAdjust="spacing" textLength="182.0762" x="71.2314" y="307.7256">shows a list of locomotive types</text><text fill="#000000" font-family="sans-serif" font-size="13" lengthAdjust="spacing" textLength="212.4688" x="71.2314" y="325.0166">and asks to select the available ones</text><polygon fill="#181818" points="309.042,357.5703,319.042,361.5703,309.042,365.5703,313.042,361.5703" style="stroke:#181818;stroke-width:1.0;"/><line style="stroke:#181818;stroke-width:1.0;" x1="43.0015" x2="315.042" y1="361.5703" y2="361.5703"/><text fill="#000000" font-family="sans-serif" font-size="13" font-weight="bold" lengthAdjust="spacing" textLength="7.23" x="50.0015" y="356.3076">7</text><text fill="#000000" font-family="sans-serif" font-size="13" lengthAdjust="spacing" textLength="195.8188" x="61.2314" y="356.3076">selects available locomotive types</text><polygon fill="#181818" points="54.0015,423.4434,44.0015,427.4434,54.0015,431.4434,50.0015,427.4434" style="stroke:#181818;stroke-width:1.0;"/><line style="stroke:#181818;stroke-width:1.0;stroke-dasharray:2.0,2.0;" x1="48.0015" x2="325.042" y1="427.4434" y2="427.4434"/><text fill="#000000" font-family="sans-serif" font-size="13" font-weight="bold" lengthAdjust="spacing" textLength="7.23" x="60.0015" y="404.8896">8</text><text fill="#000000" font-family="sans-serif" font-size="13" lengthAdjust="spacing" textLength="130.0508" x="71.2314" y="387.5986">shows list of industries</text><text fill="#000000" font-family="sans-serif" font-size="13" lengthAdjust="spacing" textLength="226.1924" x="71.2314" y="404.8896">and requests data (available industries,</text><text fill="#000000" font-family="sans-serif" font-size="13" lengthAdjust="spacing" textLength="197.9961" x="74.8433" y="422.1807">ports behavior, generation factors)</text><polygon fill="#181818" points="309.042,454.7344,319.042,458.7344,309.042,462.7344,313.042,458.7344" style="stroke:#181818;stroke-width:1.0;"/><line style="stroke:#181818;stroke-width:1.0;" x1="43.0015" x2="315.042" y1="458.7344" y2="458.7344"/><text fill="#000000" font-family="sans-serif" font-size="13" font-weight="bold" lengthAdjust="spacing" textLength="7.23" x="50.0015" y="453.4717">9</text><text fill="#000000" font-family="sans-serif" font-size="13" lengthAdjust="spacing" textLength="121.418" x="61.2314" y="453.4717">types requested data</text><polygon fill="#181818" points="54.0015,486.0254,44.0015,490.0254,54.0015,494.0254,50.0015,490.0254" style="stroke:#181818;stroke-width:1.0;"/><line style="stroke:#181818;stroke-width:1.0;stroke-dasharray:2.0,2.0;" x1="48.0015" x2="325.042" y1="490.0254" y2="490.0254"/><text fill="#000000" font-family="sans-serif" font-size="13" font-weight="bold" lengthAdjust="spacing" textLength="14.46" x="60.0015" y="484.7627">10</text><text fill="#000000" font-family="sans-serif" font-size="13" lengthAdjust="spacing" textLength="229.0742" x="78.4614" y="484.7627">show all data and requests confirmation</text><polygon fill="#181818" points="309.042,517.3164,319.042,521.3164,309.042,525.3164,313.042,521.3164" style="stroke:#181818;stroke-width:1.0;"/><line style="stroke:#181818;stroke-width:1.0;" x1="43.0015" x2="315.042" y1="521.3164" y2="521.3164"/><text fill="#000000" font-family="sans-serif" font-size="13" font-weight="bold" lengthAdjust="spacing" textLength="14.46" x="50.0015" y="516.0537">11</text><text fill="#000000" font-family="sans-serif" font-size="13" lengthAdjust="spacing" textLength="78.0317" x="68.4614" y="516.0537">confirms data</text><polygon fill="#181818" points="54.0015,548.6074,44.0015,552.6074,54.0015,556.6074,50.0015,552.6074" style="stroke:#181818;stroke-width:1.0;"/><line style="stroke:#181818;stroke-width:1.0;stroke-dasharray:2.0,2.0;" x1="48.0015" x2="325.042" y1="552.6074" y2="552.6074"/><text fill="#000000" font-family="sans-serif" font-size="13" font-weight="bold" lengthAdjust="spacing" textLength="14.46" x="60.0015" y="547.3447">12</text><text fill="#000000" font-family="sans-serif" font-size="13" lengthAdjust="spacing" textLength="155.3589" x="78.4614" y="547.3447">displays operation success</text><!--SRC=[nPCzRiCm38LtduB8r089qA5JXYvjJs1qoyB8Z4D4bboHJf3Rb_uD6YG5ugLQJDXw7n-VP3bmg35X1JMw0vQKwzaJ97AAeVIKoRH1zbZ44uSITkY5iWmRZQ6fjfIoJ5bDbfz5gOASlXiAZk23iJJf6hxobrTOmNiYL0A4t570nD4WJcE2nMV1zbm02lHbPasL7TSO51RhdjnzxyjEoSSMDmWoiDNNi7eRlQnDSX3G26viBcFpLZ1HHYmCQz2l33L0rnP1F0bKM8DdKS1GJ7GXRvb13DGH2he9lc6l5uhvCkxZbbARjPY-G4Lu2bZH4aGjlFQDrMGcs-hvGLzwhab6F7KCd9iOzdd57VZeOXKDG7s3JRWHekxjc8x87hTsgInIcPlf1BdkEtUISGuEHIEQU9pWwXWkZIyRbx09KCTacxQqnoF7j8II0YLKZi7-glPNaFyx9q3lU_-_9d8nx3XLdSc_lDtnDyXbfh62fVPu5eZr69Gqpf7SknC_]--></g></svg>