<svg xmlns="http://www.w3.org/2000/svg" xmlns:xlink="http://www.w3.org/1999/xlink" contentStyleType="text/css" height="530px" preserveAspectRatio="none" style="width:332px;height:530px;background:#FFFFFF;" version="1.1" viewBox="0 0 332 530" width="332px" zoomAndPan="magnify"><defs/><g><rect fill="#FFFFFF" height="336.2012" style="stroke:#181818;stroke-width:1.0;" width="10" x="21.2861" y="93.6211"/><rect fill="#FFFFFF" height="31.291" style="stroke:#181818;stroke-width:1.0;" width="10" x="291.2422" y="116.9121"/><rect fill="#FFFFFF" height="31.291" style="stroke:#181818;stroke-width:1.0;" width="10" x="291.2422" y="179.4941"/><rect fill="#FFFFFF" height="31.291" style="stroke:#181818;stroke-width:1.0;" width="10" x="291.2422" y="242.0762"/><rect fill="#FFFFFF" height="31.291" style="stroke:#181818;stroke-width:1.0;" width="10" x="291.2422" y="304.6582"/><rect fill="#FFFFFF" height="62.582" style="stroke:#181818;stroke-width:1.0;" width="10" x="291.2422" y="367.2402"/><line style="stroke:#181818;stroke-width:0.5;stroke-dasharray:5.0,5.0;" x1="26" x2="26" y1="83.6211" y2="447.8223"/><line style="stroke:#181818;stroke-width:0.5;stroke-dasharray:5.0,5.0;" x1="295.9043" x2="295.9043" y1="83.6211" y2="447.8223"/><text fill="#000000" font-family="sans-serif" font-size="14" lengthAdjust="spacing" textLength="36.5723" x="5" y="80.1074">Editor</text><ellipse cx="26.2861" cy="13.5" fill="#E3E3E3" rx="8" ry="8" style="stroke:#181818;stroke-width:0.5;"/><path d="M26.2861,21.5 L26.2861,48.5 M13.2861,29.5 L39.2861,29.5 M26.2861,48.5 L13.2861,63.5 M26.2861,48.5 L39.2861,63.5 " fill="none" style="stroke:#181818;stroke-width:0.5;"/><text fill="#000000" font-family="sans-serif" font-size="14" lengthAdjust="spacing" textLength="36.5723" x="5" y="461.9297">Editor</text><ellipse cx="26.2861" cy="473.9434" fill="#E3E3E3" rx="8" ry="8" style="stroke:#181818;stroke-width:0.5;"/><path d="M26.2861,481.9434 L26.2861,508.9434 M13.2861,489.9434 L39.2861,489.9434 M26.2861,508.9434 L13.2861,523.9434 M26.2861,508.9434 L39.2861,523.9434 " fill="none" style="stroke:#181818;stroke-width:0.5;"/><rect fill="#E3E3E3" height="32.6211" rx="2.5" ry="2.5" style="stroke:#181818;stroke-width:0.5;" width="60.6758" x="265.9043" y="50"/><text fill="#000000" font-family="sans-serif" font-size="14" lengthAdjust="spacing" textLength="46.6758" x="272.9043" y="72.1074">System</text><rect fill="#E3E3E3" height="32.6211" rx="2.5" ry="2.5" style="stroke:#181818;stroke-width:0.5;" width="60.6758" x="265.9043" y="446.8223"/><text fill="#000000" font-family="sans-serif" font-size="14" lengthAdjust="spacing" textLength="46.6758" x="272.9043" y="468.9297">System</text><rect fill="#FFFFFF" height="336.2012" style="stroke:#181818;stroke-width:1.0;" width="10" x="21.2861" y="93.6211"/><rect fill="#FFFFFF" height="31.291" style="stroke:#181818;stroke-width:1.0;" width="10" x="291.2422" y="116.9121"/><rect fill="#FFFFFF" height="31.291" style="stroke:#181818;stroke-width:1.0;" width="10" x="291.2422" y="179.4941"/><rect fill="#FFFFFF" height="31.291" style="stroke:#181818;stroke-width:1.0;" width="10" x="291.2422" y="242.0762"/><rect fill="#FFFFFF" height="31.291" style="stroke:#181818;stroke-width:1.0;" width="10" x="291.2422" y="304.6582"/><rect fill="#FFFFFF" height="62.582" style="stroke:#181818;stroke-width:1.0;" width="10" x="291.2422" y="367.2402"/><polygon fill="#181818" points="279.2422,112.9121,289.2422,116.9121,279.2422,120.9121,283.2422,116.9121" style="stroke:#181818;stroke-width:1.0;"/><line style="stroke:#181818;stroke-width:1.0;" x1="31.2861" x2="285.2422" y1="116.9121" y2="116.9121"/><text fill="#000000" font-family="sans-serif" font-size="13" font-weight="bold" lengthAdjust="spacing" textLength="7.23" x="38.2861" y="111.6494">1</text><text fill="#000000" font-family="sans-serif" font-size="13" lengthAdjust="spacing" textLength="67.2026" x="49.5161" y="111.6494">Opens map</text><polygon fill="#181818" points="42.2861,144.2031,32.2861,148.2031,42.2861,152.2031,38.2861,148.2031" style="stroke:#181818;stroke-width:1.0;"/><line style="stroke:#181818;stroke-width:1.0;" x1="36.2861" x2="295.2422" y1="148.2031" y2="148.2031"/><text fill="#000000" font-family="sans-serif" font-size="13" font-weight="bold" lengthAdjust="spacing" textLength="7.23" x="48.2861" y="142.9404">2</text><text fill="#000000" font-family="sans-serif" font-size="13" lengthAdjust="spacing" textLength="67.9199" x="59.5161" y="142.9404">Shows map</text><polygon fill="#181818" points="279.2422,175.4941,289.2422,179.4941,279.2422,183.4941,283.2422,179.4941" style="stroke:#181818;stroke-width:1.0;"/><line style="stroke:#181818;stroke-width:1.0;" x1="31.2861" x2="285.2422" y1="179.4941" y2="179.4941"/><text fill="#000000" font-family="sans-serif" font-size="13" font-weight="bold" lengthAdjust="spacing" textLength="7.23" x="38.2861" y="174.2314">3</text><text fill="#000000" font-family="sans-serif" font-size="13" lengthAdjust="spacing" textLength="128.4575" x="49.5161" y="174.2314">Selects "Add Industry"</text><polygon fill="#181818" points="42.2861,206.7852,32.2861,210.7852,42.2861,214.7852,38.2861,210.7852" style="stroke:#181818;stroke-width:1.0;"/><line style="stroke:#181818;stroke-width:1.0;" x1="36.2861" x2="295.2422" y1="210.7852" y2="210.7852"/><text fill="#000000" font-family="sans-serif" font-size="13" font-weight="bold" lengthAdjust="spacing" textLength="7.23" x="48.2861" y="205.5225">4</text><text fill="#000000" font-family="sans-serif" font-size="13" lengthAdjust="spacing" textLength="224.7261" x="59.5161" y="205.5225">Shows all industries available in the list</text><polygon fill="#181818" points="279.2422,238.0762,289.2422,242.0762,279.2422,246.0762,283.2422,242.0762" style="stroke:#181818;stroke-width:1.0;"/><line style="stroke:#181818;stroke-width:1.0;" x1="31.2861" x2="285.2422" y1="242.0762" y2="242.0762"/><text fill="#000000" font-family="sans-serif" font-size="13" font-weight="bold" lengthAdjust="spacing" textLength="7.23" x="38.2861" y="236.8135">5</text><text fill="#000000" font-family="sans-serif" font-size="13" lengthAdjust="spacing" textLength="119.9453" x="49.5161" y="236.8135">Selects industry type</text><polygon fill="#181818" points="42.2861,269.3672,32.2861,273.3672,42.2861,277.3672,38.2861,273.3672" style="stroke:#181818;stroke-width:1.0;"/><line style="stroke:#181818;stroke-width:1.0;" x1="36.2861" x2="295.2422" y1="273.3672" y2="273.3672"/><text fill="#000000" font-family="sans-serif" font-size="13" font-weight="bold" lengthAdjust="spacing" textLength="7.23" x="48.2861" y="268.1045">6</text><text fill="#000000" font-family="sans-serif" font-size="13" lengthAdjust="spacing" textLength="167.6416" x="59.5161" y="268.1045">Asks for X and Y coordinates</text><polygon fill="#181818" points="279.2422,300.6582,289.2422,304.6582,279.2422,308.6582,283.2422,304.6582" style="stroke:#181818;stroke-width:1.0;"/><line style="stroke:#181818;stroke-width:1.0;" x1="31.2861" x2="285.2422" y1="304.6582" y2="304.6582"/><text fill="#000000" font-family="sans-serif" font-size="13" font-weight="bold" lengthAdjust="spacing" textLength="7.23" x="38.2861" y="299.3955">7</text><text fill="#000000" font-family="sans-serif" font-size="13" lengthAdjust="spacing" textLength="207.3906" x="49.5161" y="299.3955">Enters industry X and Y coordinates</text><polygon fill="#181818" points="42.2861,331.9492,32.2861,335.9492,42.2861,339.9492,38.2861,335.9492" style="stroke:#181818;stroke-width:1.0;"/><line style="stroke:#181818;stroke-width:1.0;" x1="36.2861" x2="295.2422" y1="335.9492" y2="335.9492"/><text fill="#000000" font-family="sans-serif" font-size="13" font-weight="bold" lengthAdjust="spacing" textLength="7.23" x="48.2861" y="330.6865">8</text><text fill="#000000" font-family="sans-serif" font-size="13" lengthAdjust="spacing" textLength="124.2998" x="59.5161" y="330.6865">Validates coordinates</text><polygon fill="#181818" points="279.2422,363.2402,289.2422,367.2402,279.2422,371.2402,283.2422,367.2402" style="stroke:#181818;stroke-width:1.0;"/><line style="stroke:#181818;stroke-width:1.0;" x1="31.2861" x2="285.2422" y1="367.2402" y2="367.2402"/><text fill="#000000" font-family="sans-serif" font-size="13" font-weight="bold" lengthAdjust="spacing" textLength="7.23" x="38.2861" y="361.9775">9</text><text fill="#000000" font-family="sans-serif" font-size="13" lengthAdjust="spacing" textLength="164.728" x="49.5161" y="361.9775">Confirms industry placement</text><polygon fill="#181818" points="42.2861,394.5313,32.2861,398.5313,42.2861,402.5313,38.2861,398.5313" style="stroke:#181818;stroke-width:1.0;"/><line style="stroke:#181818;stroke-width:1.0;" x1="36.2861" x2="290.2422" y1="398.5313" y2="398.5313"/><text fill="#000000" font-family="sans-serif" font-size="13" font-weight="bold" lengthAdjust="spacing" textLength="14.46" x="48.2861" y="393.2686">10</text><text fill="#000000" font-family="sans-serif" font-size="13" lengthAdjust="spacing" textLength="157.5171" x="66.7461" y="393.2686">Displays operation success</text><polygon fill="#181818" points="37.2861,425.8223,27.2861,429.8223,37.2861,433.8223,33.2861,429.8223" style="stroke:#181818;stroke-width:1.0;"/><line style="stroke:#181818;stroke-width:1.0;" x1="31.2861" x2="295.2422" y1="429.8223" y2="429.8223"/><text fill="#000000" font-family="sans-serif" font-size="13" font-weight="bold" lengthAdjust="spacing" textLength="14.46" x="43.2861" y="424.5596">11</text><text fill="#000000" font-family="sans-serif" font-size="13" lengthAdjust="spacing" textLength="176.3125" x="61.7461" y="424.5596">Shows industry details on map</text><!--SRC=[fPF1JiCm38RlVGghTrvW1oG4Et3YK0d1qKkyrLhgHB6xgMzFrdMZ8C7OoALEuk_FfoZLBKl2Z1rqKQ9hS-m8BFTKwNadeTlYXXeR0a4cPoYRC6_G5dtSisnWZK6fgh2tA7stebngPp53lVHSlZMW0erbLLXZnmd5e6u6DUh6RHtB4UGT6ftweOnZ2NVtKnSiu2MHA7IOneR3E8DJqcbzGWfyZ5b0qyRzLzRJT_gdSniAvIeKwWVluLbyhvQ7-cO9307ucC9KfZlaWAjouInWBK5WjMijFoMdv05iI7I3uuDk5TOb-mrGFBo3Yp5xbWBhzLPBCSepgTz2_-xuYe7zWVsVt6EKDUTkffS2Ekf8x0Qf9zQ23menKKRZAA2zSwHwyKMSp_TavJ6K2BdqL6TBqq_p0G00]--></g></svg>