<svg xmlns="http://www.w3.org/2000/svg" xmlns:xlink="http://www.w3.org/1999/xlink" contentStyleType="text/css" height="718.2px" preserveAspectRatio="none" style="width:804px;height:718px;background:#FFFFFF;" version="1.1" viewBox="0 0 804 718" width="805px" zoomAndPan="magnify"><defs/><g><rect fill="#FFFFFF" height="603.2127" style="stroke:#181818;stroke-width:0.6999999999999998;" width="7" x="117.2531" y="63.3732"/><rect fill="#FFFFFF" height="29.6037" style="stroke:#181818;stroke-width:0.6999999999999998;" width="7" x="120.7531" y="486.3674"/><rect fill="#FFFFFF" height="19.6" style="stroke:#181818;stroke-width:0.6999999999999998;" width="7" x="120.7531" y="548.3748"/><rect fill="#FFFFFF" height="29.6037" style="stroke:#181818;stroke-width:0.6999999999999998;" width="7" x="120.7531" y="605.2785"/><rect fill="#FFFFFF" height="292.9719" style="stroke:#181818;stroke-width:0.6999999999999998;" width="7" x="321.3919" y="103.6807"/><rect fill="#FFFFFF" height="249.1645" style="stroke:#181818;stroke-width:0.6999999999999998;" width="7" x="422.3751" y="125.5844"/><rect fill="#FFFFFF" height="205.357" style="stroke:#181818;stroke-width:0.6999999999999998;" width="7" x="523.3583" y="147.4881"/><rect fill="#FFFFFF" height="161.5496" style="stroke:#181818;stroke-width:0.6999999999999998;" width="7" x="624.3416" y="169.3918"/><rect fill="#FFFFFF" height="21" style="stroke:#181818;stroke-width:0.6999999999999998;" width="7" x="719.4923" y="240.234"/><rect fill="#FFFFFF" height="21" style="stroke:#181818;stroke-width:0.6999999999999998;" width="7" x="719.4923" y="283.1377"/><rect fill="#FFFFFF" height="21.9037" style="stroke:#181818;stroke-width:0.6999999999999998;" width="7" x="769.2405" y="436.96"/><rect fill="none" height="571.509" style="stroke:#000000;stroke-width:1.0499999999999998;" width="754.8799" x="46.5606" y="73.8732"/><rect fill="none" height="99.3111" style="stroke:#000000;stroke-width:1.0499999999999998;" width="155.7127" x="602.3278" y="210.4266"/><rect fill="none" height="171.3223" style="stroke:#000000;stroke-width:1.0499999999999998;" width="740.8799" x="53.5606" y="407.1525"/><line style="stroke:#181818;stroke-width:0.3499999999999999;stroke-dasharray:5.0,5.0;" x1="120.0606" x2="120.0606" y1="40.0695" y2="679.1859"/><line style="stroke:#181818;stroke-width:0.3499999999999999;stroke-dasharray:5.0,5.0;" x1="324.8776" x2="324.8776" y1="40.0695" y2="679.1859"/><line style="stroke:#181818;stroke-width:0.3499999999999999;stroke-dasharray:5.0,5.0;" x1="425.8317" x2="425.8317" y1="40.0695" y2="679.1859"/><line style="stroke:#181818;stroke-width:0.3499999999999999;stroke-dasharray:5.0,5.0;" x1="526.4649" x2="526.4649" y1="40.0695" y2="679.1859"/><line style="stroke:#181818;stroke-width:0.3499999999999999;stroke-dasharray:5.0,5.0;" x1="627.5278" x2="627.5278" y1="40.0695" y2="679.1859"/><line style="stroke:#181818;stroke-width:0.3499999999999999;stroke-dasharray:5.0,5.0;" x1="722.9441" x2="722.9441" y1="197.2592" y2="679.1859"/><line style="stroke:#181818;stroke-width:0.3499999999999999;stroke-dasharray:5.0,5.0;" x1="772.7405" x2="772.7405" y1="40.0695" y2="679.1859"/><rect fill="#E3E3E3" height="22.8348" rx="1.75" ry="1.75" style="stroke:#181818;stroke-width:0.3499999999999999;" width="120.385" x="60.5606" y="16.5348"/><text fill="#000000" font-family="sans-serif" font-size="9.8" lengthAdjust="spacing" textLength="110.585" x="65.4606" y="32.01">:StationBuildingController</text><rect fill="#E3E3E3" height="22.8348" rx="1.75" ry="1.75" style="stroke:#181818;stroke-width:0.3499999999999999;" width="120.385" x="60.5606" y="678.4859"/><text fill="#000000" font-family="sans-serif" font-size="9.8" lengthAdjust="spacing" textLength="110.585" x="65.4606" y="693.9611">:StationBuildingController</text><rect fill="#E3E3E3" height="35.8695" rx="1.75" ry="1.75" style="stroke:#181818;stroke-width:0.3499999999999999;" width="78.4287" x="285.6776" y="3.5"/><text fill="#000000" font-family="sans-serif" font-size="9.8" lengthAdjust="spacing" textLength="65.906" x="291.939" y="18.9752">mapRepository</text><text fill="#000000" font-family="sans-serif" font-size="9.8" lengthAdjust="spacing" textLength="68.6287" x="290.5776" y="32.01">:MapRepository</text><rect fill="#E3E3E3" height="35.8695" rx="1.75" ry="1.75" style="stroke:#181818;stroke-width:0.3499999999999999;" width="78.4287" x="285.6776" y="678.4859"/><text fill="#000000" font-family="sans-serif" font-size="9.8" lengthAdjust="spacing" textLength="65.906" x="291.939" y="693.9611">mapRepository</text><text fill="#000000" font-family="sans-serif" font-size="9.8" lengthAdjust="spacing" textLength="68.6287" x="290.5776" y="706.9959">:MapRepository</text><rect fill="#E3E3E3" height="35.8695" rx="1.75" ry="1.75" style="stroke:#181818;stroke-width:0.3499999999999999;" width="36.4868" x="407.6317" y="3.5"/><text fill="#000000" font-family="sans-serif" font-size="9.8" lengthAdjust="spacing" textLength="23.9641" x="413.8931" y="18.9752">maps</text><text fill="#000000" font-family="sans-serif" font-size="9.8" lengthAdjust="spacing" textLength="26.6868" x="412.5317" y="32.01">:Maps</text><rect fill="#E3E3E3" height="35.8695" rx="1.75" ry="1.75" style="stroke:#181818;stroke-width:0.3499999999999999;" width="36.4868" x="407.6317" y="678.4859"/><text fill="#000000" font-family="sans-serif" font-size="9.8" lengthAdjust="spacing" textLength="23.9641" x="413.8931" y="693.9611">maps</text><text fill="#000000" font-family="sans-serif" font-size="9.8" lengthAdjust="spacing" textLength="26.6868" x="412.5317" y="706.9959">:Maps</text><rect fill="#E3E3E3" height="35.8695" rx="1.75" ry="1.75" style="stroke:#181818;stroke-width:0.3499999999999999;" width="31.5868" x="511.0649" y="3.5"/><text fill="#000000" font-family="sans-serif" font-size="9.8" lengthAdjust="spacing" textLength="19.0641" x="517.3263" y="18.9752">map</text><text fill="#000000" font-family="sans-serif" font-size="9.8" lengthAdjust="spacing" textLength="21.7868" x="515.9649" y="32.01">:Map</text><rect fill="#E3E3E3" height="35.8695" rx="1.75" ry="1.75" style="stroke:#181818;stroke-width:0.3499999999999999;" width="31.5868" x="511.0649" y="678.4859"/><text fill="#000000" font-family="sans-serif" font-size="9.8" lengthAdjust="spacing" textLength="19.0641" x="517.3263" y="693.9611">map</text><text fill="#000000" font-family="sans-serif" font-size="9.8" lengthAdjust="spacing" textLength="21.7868" x="515.9649" y="706.9959">:Map</text><rect fill="#E3E3E3" height="35.8695" rx="1.75" ry="1.75" style="stroke:#181818;stroke-width:0.3499999999999999;" width="37.0275" x="609.3278" y="3.5"/><text fill="#000000" font-family="sans-serif" font-size="9.8" lengthAdjust="spacing" textLength="22.3275" x="616.6778" y="18.9752">cities</text><text fill="#000000" font-family="sans-serif" font-size="9.8" lengthAdjust="spacing" textLength="27.2275" x="614.2278" y="32.01">:Cities</text><rect fill="#E3E3E3" height="35.8695" rx="1.75" ry="1.75" style="stroke:#181818;stroke-width:0.3499999999999999;" width="37.0275" x="609.3278" y="678.4859"/><text fill="#000000" font-family="sans-serif" font-size="9.8" lengthAdjust="spacing" textLength="22.3275" x="616.6778" y="693.9611">cities</text><text fill="#000000" font-family="sans-serif" font-size="9.8" lengthAdjust="spacing" textLength="27.2275" x="614.2278" y="706.9959">:Cities</text><rect fill="#E3E3E3" height="22.8348" rx="1.75" ry="1.75" style="stroke:#181818;stroke-width:0.3499999999999999;" width="56.0964" x="694.9441" y="678.4859"/><text fill="#000000" font-family="sans-serif" font-size="9.8" lengthAdjust="spacing" textLength="46.2964" x="699.8441" y="693.9611">:List&lt;City&gt;</text><rect fill="#E3E3E3" height="22.8348" rx="1.75" ry="1.75" style="stroke:#181818;stroke-width:0.3499999999999999;" width="29.4" x="758.0405" y="16.5348"/><text fill="#000000" font-family="sans-serif" font-size="9.8" lengthAdjust="spacing" textLength="19.6" x="762.9405" y="32.01">:City</text><rect fill="#E3E3E3" height="22.8348" rx="1.75" ry="1.75" style="stroke:#181818;stroke-width:0.3499999999999999;" width="29.4" x="758.0405" y="678.4859"/><text fill="#000000" font-family="sans-serif" font-size="9.8" lengthAdjust="spacing" textLength="19.6" x="762.9405" y="693.9611">:City</text><rect fill="#FFFFFF" height="603.2127" style="stroke:#181818;stroke-width:0.6999999999999998;" width="7" x="117.2531" y="63.3732"/><rect fill="#FFFFFF" height="29.6037" style="stroke:#181818;stroke-width:0.6999999999999998;" width="7" x="120.7531" y="486.3674"/><rect fill="#FFFFFF" height="19.6" style="stroke:#181818;stroke-width:0.6999999999999998;" width="7" x="120.7531" y="548.3748"/><rect fill="#FFFFFF" height="29.6037" style="stroke:#181818;stroke-width:0.6999999999999998;" width="7" x="120.7531" y="605.2785"/><rect fill="#FFFFFF" height="292.9719" style="stroke:#181818;stroke-width:0.6999999999999998;" width="7" x="321.3919" y="103.6807"/><rect fill="#FFFFFF" height="249.1645" style="stroke:#181818;stroke-width:0.6999999999999998;" width="7" x="422.3751" y="125.5844"/><rect fill="#FFFFFF" height="205.357" style="stroke:#181818;stroke-width:0.6999999999999998;" width="7" x="523.3583" y="147.4881"/><rect fill="#FFFFFF" height="161.5496" style="stroke:#181818;stroke-width:0.6999999999999998;" width="7" x="624.3416" y="169.3918"/><rect fill="#FFFFFF" height="21" style="stroke:#181818;stroke-width:0.6999999999999998;" width="7" x="719.4923" y="240.234"/><rect fill="#FFFFFF" height="21" style="stroke:#181818;stroke-width:0.6999999999999998;" width="7" x="719.4923" y="283.1377"/><rect fill="#FFFFFF" height="21.9037" style="stroke:#181818;stroke-width:0.6999999999999998;" width="7" x="769.2405" y="436.96"/><polygon fill="#181818" points="108.8531,60.5732,115.8531,63.3732,108.8531,66.1732,111.6531,63.3732" style="stroke:#181818;stroke-width:0.6999999999999998;"/><line style="stroke:#181818;stroke-width:0.6999999999999998;" x1="0" x2="113.0531" y1="63.3732" y2="63.3732"/><text fill="#000000" font-family="sans-serif" font-size="9.1" font-weight="bold" lengthAdjust="spacing" textLength="5.061" x="4.9" y="59.6894">3</text><text fill="#000000" font-family="sans-serif" font-size="9.1" lengthAdjust="spacing" textLength="96.0921" x="12.761" y="59.6894">getClosestCity(position)</text><path d="M46.5606,73.8732 L148.3501,73.8732 L148.3501,80.377 L141.3501,87.377 L46.5606,87.377 L46.5606,73.8732 " fill="#EEEEEE" style="stroke:#000000;stroke-width:1.0499999999999998;"/><rect fill="none" height="571.509" style="stroke:#000000;stroke-width:1.0499999999999998;" width="754.8799" x="46.5606" y="73.8732"/><text fill="#000000" font-family="sans-serif" font-size="9.1" font-weight="bold" lengthAdjust="spacing" textLength="70.2895" x="57.0606" y="84.3931">Get Closest City</text><polygon fill="#181818" points="312.9919,100.8807,319.9919,103.6807,312.9919,106.4807,315.7919,103.6807" style="stroke:#181818;stroke-width:0.6999999999999998;"/><line style="stroke:#181818;stroke-width:0.6999999999999998;" x1="124.2531" x2="317.1919" y1="103.6807" y2="103.6807"/><text fill="#000000" font-family="sans-serif" font-size="9.1" font-weight="bold" lengthAdjust="spacing" textLength="12.6502" x="129.1531" y="99.9968">3.1</text><text fill="#000000" font-family="sans-serif" font-size="9.1" lengthAdjust="spacing" textLength="65.233" x="144.6033" y="99.9968">getListOfCities()</text><polygon fill="#181818" points="413.9751,122.7844,420.9751,125.5844,413.9751,128.3844,416.7751,125.5844" style="stroke:#181818;stroke-width:0.6999999999999998;"/><line style="stroke:#181818;stroke-width:0.6999999999999998;" x1="328.3919" x2="418.1751" y1="125.5844" y2="125.5844"/><text fill="#000000" font-family="sans-serif" font-size="9.1" font-weight="bold" lengthAdjust="spacing" textLength="12.6502" x="333.2919" y="121.9005">3.2</text><text fill="#000000" font-family="sans-serif" font-size="9.1" lengthAdjust="spacing" textLength="65.233" x="348.7422" y="121.9005">getListOfCities()</text><polygon fill="#181818" points="514.9583,144.6881,521.9583,147.4881,514.9583,150.2881,517.7583,147.4881" style="stroke:#181818;stroke-width:0.6999999999999998;"/><line style="stroke:#181818;stroke-width:0.6999999999999998;" x1="429.3751" x2="519.1583" y1="147.4881" y2="147.4881"/><text fill="#000000" font-family="sans-serif" font-size="9.1" font-weight="bold" lengthAdjust="spacing" textLength="12.6502" x="434.2751" y="143.8042">3.3</text><text fill="#000000" font-family="sans-serif" font-size="9.1" lengthAdjust="spacing" textLength="65.233" x="449.7254" y="143.8042">getListOfCities()</text><polygon fill="#181818" points="615.9416,166.5918,622.9416,169.3918,615.9416,172.1918,618.7416,169.3918" style="stroke:#181818;stroke-width:0.6999999999999998;"/><line style="stroke:#181818;stroke-width:0.6999999999999998;" x1="530.3583" x2="620.1416" y1="169.3918" y2="169.3918"/><text fill="#000000" font-family="sans-serif" font-size="9.1" font-weight="bold" lengthAdjust="spacing" textLength="12.6502" x="535.2583" y="165.7079">3.4</text><text fill="#000000" font-family="sans-serif" font-size="9.1" lengthAdjust="spacing" textLength="65.233" x="550.7086" y="165.7079">getListOfCities()</text><polygon fill="#181818" points="686.5441,188.4955,693.5441,191.2955,686.5441,194.0955,689.3441,191.2955" style="stroke:#181818;stroke-width:0.6999999999999998;"/><line style="stroke:#181818;stroke-width:0.6999999999999998;stroke-dasharray:2.0,2.0;" x1="631.3416" x2="690.7441" y1="191.2955" y2="191.2955"/><text fill="#000000" font-family="sans-serif" font-size="9.1" font-weight="bold" lengthAdjust="spacing" textLength="12.6502" x="636.2416" y="187.6116">3.5</text><text fill="#000000" font-family="sans-serif" font-size="9.1" lengthAdjust="spacing" textLength="31.3523" x="651.6918" y="187.6116">create()</text><rect fill="#E3E3E3" height="22.8348" rx="1.75" ry="1.75" style="stroke:#181818;stroke-width:0.3499999999999999;" width="56.0964" x="694.9441" y="174.9918"/><text fill="#000000" font-family="sans-serif" font-size="9.8" lengthAdjust="spacing" textLength="46.2964" x="699.8441" y="190.467">:List&lt;City&gt;</text><path d="M602.3278,210.4266 L653.032,210.4266 L653.032,216.9303 L646.032,223.9303 L602.3278,223.9303 L602.3278,210.4266 " fill="#EEEEEE" style="stroke:#000000;stroke-width:1.0499999999999998;"/><rect fill="none" height="99.3111" style="stroke:#000000;stroke-width:1.0499999999999998;" width="155.7127" x="602.3278" y="210.4266"/><text fill="#000000" font-family="sans-serif" font-size="9.1" font-weight="bold" lengthAdjust="spacing" textLength="19.2042" x="612.8278" y="220.9464">loop</text><text fill="#000000" font-family="sans-serif" font-size="7.7" font-weight="bold" lengthAdjust="spacing" textLength="78.2896" x="663.532" y="220.1356">[for each known City]</text><polygon fill="#181818" points="711.0923,237.434,718.0923,240.234,711.0923,243.034,713.8923,240.234" style="stroke:#181818;stroke-width:0.6999999999999998;"/><line style="stroke:#181818;stroke-width:0.6999999999999998;" x1="631.3416" x2="715.2923" y1="240.234" y2="240.234"/><text fill="#000000" font-family="sans-serif" font-size="9.1" font-weight="bold" lengthAdjust="spacing" textLength="12.6502" x="636.2416" y="236.5501">3.6</text><text fill="#000000" font-family="sans-serif" font-size="9.1" lengthAdjust="spacing" textLength="44.7535" x="651.6918" y="236.5501">city = get(i)</text><polygon fill="#181818" points="711.0923,280.3377,718.0923,283.1377,711.0923,285.9377,713.8923,283.1377" style="stroke:#181818;stroke-width:0.6999999999999998;"/><line style="stroke:#181818;stroke-width:0.6999999999999998;" x1="631.3416" x2="715.2923" y1="283.1377" y2="283.1377"/><text fill="#000000" font-family="sans-serif" font-size="9.1" font-weight="bold" lengthAdjust="spacing" textLength="12.6502" x="636.2416" y="279.4538">3.7</text><text fill="#000000" font-family="sans-serif" font-size="9.1" lengthAdjust="spacing" textLength="34.8937" x="651.6918" y="279.4538">add(city)</text><polygon fill="#181818" points="538.0583,328.1414,531.0583,330.9414,538.0583,333.7414,535.2583,330.9414" style="stroke:#181818;stroke-width:0.6999999999999998;"/><line style="stroke:#181818;stroke-width:0.6999999999999998;stroke-dasharray:2.0,2.0;" x1="533.8583" x2="627.1416" y1="330.9414" y2="330.9414"/><text fill="#000000" font-family="sans-serif" font-size="9.1" font-weight="bold" lengthAdjust="spacing" textLength="12.6502" x="542.2583" y="327.2575">3.8</text><text fill="#000000" font-family="sans-serif" font-size="9.1" lengthAdjust="spacing" textLength="27.811" x="557.7086" y="327.2575">cityList</text><polygon fill="#181818" points="437.0751,350.0451,430.0751,352.8451,437.0751,355.6451,434.2751,352.8451" style="stroke:#181818;stroke-width:0.6999999999999998;"/><line style="stroke:#181818;stroke-width:0.6999999999999998;stroke-dasharray:2.0,2.0;" x1="432.8751" x2="526.1583" y1="352.8451" y2="352.8451"/><text fill="#000000" font-family="sans-serif" font-size="9.1" font-weight="bold" lengthAdjust="spacing" textLength="12.6502" x="441.2751" y="349.1612">3.9</text><text fill="#000000" font-family="sans-serif" font-size="9.1" lengthAdjust="spacing" textLength="27.811" x="456.7254" y="349.1612">cityList</text><polygon fill="#181818" points="336.0919,371.9488,329.0919,374.7488,336.0919,377.5488,333.2919,374.7488" style="stroke:#181818;stroke-width:0.6999999999999998;"/><line style="stroke:#181818;stroke-width:0.6999999999999998;stroke-dasharray:2.0,2.0;" x1="331.8919" x2="425.1751" y1="374.7488" y2="374.7488"/><text fill="#000000" font-family="sans-serif" font-size="9.1" font-weight="bold" lengthAdjust="spacing" textLength="17.7112" x="340.2919" y="371.0649">3.10</text><text fill="#000000" font-family="sans-serif" font-size="9.1" lengthAdjust="spacing" textLength="27.811" x="360.8032" y="371.0649">cityList</text><polygon fill="#181818" points="131.9531,393.8525,124.9531,396.6525,131.9531,399.4525,129.1531,396.6525" style="stroke:#181818;stroke-width:0.6999999999999998;"/><line style="stroke:#181818;stroke-width:0.6999999999999998;stroke-dasharray:2.0,2.0;" x1="127.7531" x2="324.1919" y1="396.6525" y2="396.6525"/><text fill="#000000" font-family="sans-serif" font-size="9.1" font-weight="bold" lengthAdjust="spacing" textLength="17.7112" x="136.1531" y="392.9687">3.11</text><text fill="#000000" font-family="sans-serif" font-size="9.1" lengthAdjust="spacing" textLength="27.811" x="156.6643" y="392.9687">cityList</text><path d="M53.5606,407.1525 L104.2648,407.1525 L104.2648,413.6562 L97.2648,420.6562 L53.5606,420.6562 L53.5606,407.1525 " fill="#EEEEEE" style="stroke:#000000;stroke-width:1.0499999999999998;"/><rect fill="none" height="171.3223" style="stroke:#000000;stroke-width:1.0499999999999998;" width="740.8799" x="53.5606" y="407.1525"/><text fill="#000000" font-family="sans-serif" font-size="9.1" font-weight="bold" lengthAdjust="spacing" textLength="19.2042" x="64.0606" y="417.6724">loop</text><text fill="#000000" font-family="sans-serif" font-size="7.7" font-weight="bold" lengthAdjust="spacing" textLength="88.5688" x="114.7648" y="416.8616">[for each city in cityList]</text><polygon fill="#181818" points="760.8405,434.16,767.8405,436.96,760.8405,439.76,763.6405,436.96" style="stroke:#181818;stroke-width:0.6999999999999998;"/><line style="stroke:#181818;stroke-width:0.6999999999999998;" x1="124.2531" x2="765.0405" y1="436.96" y2="436.96"/><text fill="#000000" font-family="sans-serif" font-size="9.1" font-weight="bold" lengthAdjust="spacing" textLength="17.7112" x="129.1531" y="433.2761">3.12</text><text fill="#000000" font-family="sans-serif" font-size="9.1" lengthAdjust="spacing" textLength="51.0853" x="149.6643" y="433.2761">getPosition()</text><polygon fill="#181818" points="131.9531,456.0637,124.9531,458.8637,131.9531,461.6637,129.1531,458.8637" style="stroke:#181818;stroke-width:0.6999999999999998;"/><line style="stroke:#181818;stroke-width:0.6999999999999998;stroke-dasharray:2.0,2.0;" x1="127.7531" x2="772.0405" y1="458.8637" y2="458.8637"/><text fill="#000000" font-family="sans-serif" font-size="9.1" font-weight="bold" lengthAdjust="spacing" textLength="17.7112" x="136.1531" y="455.1798">3.13</text><text fill="#000000" font-family="sans-serif" font-size="9.1" lengthAdjust="spacing" textLength="46.0243" x="156.6643" y="455.1798">cityPosition</text><line style="stroke:#181818;stroke-width:0.6999999999999998;" x1="124.2531" x2="157.1531" y1="477.2674" y2="477.2674"/><line style="stroke:#181818;stroke-width:0.6999999999999998;" x1="157.1531" x2="157.1531" y1="477.2674" y2="486.3674"/><line style="stroke:#181818;stroke-width:0.6999999999999998;" x1="128.4531" x2="157.1531" y1="486.3674" y2="486.3674"/><polygon fill="#181818" points="135.4531,483.5674,128.4531,486.3674,135.4531,489.1674,132.6531,486.3674" style="stroke:#181818;stroke-width:0.6999999999999998;"/><text fill="#000000" font-family="sans-serif" font-size="9.1" font-weight="bold" lengthAdjust="spacing" textLength="17.7112" x="132.6531" y="473.5835">3.14</text><text fill="#000000" font-family="sans-serif" font-size="9.1" lengthAdjust="spacing" textLength="159.8276" x="153.1643" y="473.5835">calculateDistance(position, cityPosition)</text><line style="stroke:#181818;stroke-width:0.6999999999999998;stroke-dasharray:2.0,2.0;" x1="127.7531" x2="157.1531" y1="515.2711" y2="515.2711"/><line style="stroke:#181818;stroke-width:0.6999999999999998;stroke-dasharray:2.0,2.0;" x1="157.1531" x2="157.1531" y1="515.2711" y2="524.3711"/><line style="stroke:#181818;stroke-width:0.6999999999999998;stroke-dasharray:2.0,2.0;" x1="124.2531" x2="157.1531" y1="524.3711" y2="524.3711"/><polygon fill="#181818" points="131.2531,521.5711,124.2531,524.3711,131.2531,527.1711,128.4531,524.3711" style="stroke:#181818;stroke-width:0.6999999999999998;"/><text fill="#000000" font-family="sans-serif" font-size="9.1" font-weight="bold" lengthAdjust="spacing" textLength="17.7112" x="132.6531" y="511.5872">3.15</text><text fill="#000000" font-family="sans-serif" font-size="9.1" lengthAdjust="spacing" textLength="33.8939" x="153.1643" y="511.5872">distance</text><line style="stroke:#181818;stroke-width:0.6999999999999998;" x1="127.7531" x2="157.1531" y1="542.7748" y2="542.7748"/><line style="stroke:#181818;stroke-width:0.6999999999999998;" x1="157.1531" x2="157.1531" y1="542.7748" y2="551.8748"/><line style="stroke:#181818;stroke-width:0.6999999999999998;" x1="128.4531" x2="157.1531" y1="551.8748" y2="551.8748"/><polygon fill="#181818" points="135.4531,549.0748,128.4531,551.8748,135.4531,554.6748,132.6531,551.8748" style="stroke:#181818;stroke-width:0.6999999999999998;"/><text fill="#000000" font-family="sans-serif" font-size="9.1" font-weight="bold" lengthAdjust="spacing" textLength="17.7112" x="132.6531" y="539.0909">3.16</text><text fill="#000000" font-family="sans-serif" font-size="9.1" lengthAdjust="spacing" textLength="132.5099" x="153.1643" y="539.0909">updateClosestCity(city, distance)</text><line style="stroke:#181818;stroke-width:0.6999999999999998;" x1="124.2531" x2="157.1531" y1="596.1785" y2="596.1785"/><line style="stroke:#181818;stroke-width:0.6999999999999998;" x1="157.1531" x2="157.1531" y1="596.1785" y2="605.2785"/><line style="stroke:#181818;stroke-width:0.6999999999999998;" x1="128.4531" x2="157.1531" y1="605.2785" y2="605.2785"/><polygon fill="#181818" points="135.4531,602.4785,128.4531,605.2785,135.4531,608.0785,132.6531,605.2785" style="stroke:#181818;stroke-width:0.6999999999999998;"/><text fill="#000000" font-family="sans-serif" font-size="9.1" font-weight="bold" lengthAdjust="spacing" textLength="17.7112" x="132.6531" y="592.4946">3.17</text><text fill="#000000" font-family="sans-serif" font-size="9.1" lengthAdjust="spacing" textLength="89.0005" x="153.1643" y="592.4946">getClosestCityName()</text><line style="stroke:#181818;stroke-width:0.6999999999999998;stroke-dasharray:2.0,2.0;" x1="127.7531" x2="157.1531" y1="634.1822" y2="634.1822"/><line style="stroke:#181818;stroke-width:0.6999999999999998;stroke-dasharray:2.0,2.0;" x1="157.1531" x2="157.1531" y1="634.1822" y2="643.2822"/><line style="stroke:#181818;stroke-width:0.6999999999999998;stroke-dasharray:2.0,2.0;" x1="124.2531" x2="157.1531" y1="643.2822" y2="643.2822"/><polygon fill="#181818" points="131.2531,640.4822,124.2531,643.2822,131.2531,646.0822,128.4531,643.2822" style="stroke:#181818;stroke-width:0.6999999999999998;"/><text fill="#000000" font-family="sans-serif" font-size="9.1" font-weight="bold" lengthAdjust="spacing" textLength="17.7112" x="132.6531" y="630.4983">3.18</text><text fill="#000000" font-family="sans-serif" font-size="9.1" lengthAdjust="spacing" textLength="37.9241" x="153.1643" y="630.4983">cityName</text><polygon fill="#181818" points="7.7,663.7859,0.7,666.5859,7.7,669.3859,4.9,666.5859" style="stroke:#181818;stroke-width:0.6999999999999998;"/><line style="stroke:#181818;stroke-width:0.6999999999999998;stroke-dasharray:2.0,2.0;" x1="3.5" x2="120.0531" y1="666.5859" y2="666.5859"/><text fill="#000000" font-family="sans-serif" font-size="9.1" font-weight="bold" lengthAdjust="spacing" textLength="5.061" x="11.9" y="662.9021">4</text><text fill="#000000" font-family="sans-serif" font-size="9.1" lengthAdjust="spacing" textLength="37.9241" x="19.761" y="662.9021">cityName</text><!--SRC=[jPLTQzim58RlzIiElKfACnZRbUaAQrP685r3d9j0eMYoueZOaf7abVpxwSCMjcodxKLrbKZlUSwheoDPdHYliCGbb88BSfIYfA1bJP4AAnKc9vpJL9yB2f8IZNbUT0NgY3FnodWE1rmeYf2Preom2dCDLqcgiMQ2tzUio8neARYMeYYel0AiOBdRhgE84bTRMWd5j93dPvuyTl-xeCUVcvVjm-Pf4AUyNBMgTA3mWdQzlqoOPjGYbkw7zxVQhHuYJB9cIjyQqVckrUnVrgjq5yci8WWGmhKMl2x_KWdVqEBERJs1dEfb8HHLsifdRf-cNFE-_ijNX8bc_x2clcHWHYv5NS5lgg4XW4KWjsQ75O99r9RB9RFUdmv-XxDvq0Pwg2rqHZlPqD9Bf9YMngIqeNm44ZF0ClpPl1lJ72L4mq_3mWFzGLvV9q0aDL46DeWeXAZW82HGJ8vmukAL-yh3o6Zn7RfX6pNyiCPdR3uQrdNTD1TCZ8oEYD_l1MVPpFhv71-nYF8CNJe2rnVMZZrHD8sFJzBsn29qvrk0aOuAwPkhCa3qmrCqSK72nNu3u2yP6kyfrn-CZ- -ZlTQsoAxvDysRSQ7nzsCrtqTkMyw5ik_Hk1NFm0Mf2wFyPInZJcXupMvw_2cRxRisp11IP0rvqgBxd4nRhAlCoBeFhZLs4xWViHQd7MtnVlh-O_y7btJi2HvaYuf0cbXqiG31HkSxyjrDt2uM7jb1nOZ_]--></g></svg>