<svg xmlns="http://www.w3.org/2000/svg" xmlns:xlink="http://www.w3.org/1999/xlink" contentStyleType="text/css" height="651px" preserveAspectRatio="none" style="width:1024px;height:651px;background:#FFFFFF;" version="1.1" viewBox="0 0 1024 651" width="1024.2px" zoomAndPan="magnify"><defs/><g><rect fill="#FFFFFF" height="552.1535" style="stroke:#181818;stroke-width:0.6;" width="6" x="85.7596" y="54.3199"/><rect fill="#FFFFFF" height="18.7746" style="stroke:#181818;stroke-width:0.6;" width="6" x="170.8972" y="88.8691"/><rect fill="#FFFFFF" height="18.7746" style="stroke:#181818;stroke-width:0.6;" width="6" x="233.1521" y="126.4184"/><rect fill="#FFFFFF" height="187.193" style="stroke:#181818;stroke-width:0.6;" width="6" x="315.7181" y="163.9676"/><rect fill="#FFFFFF" height="149.6437" style="stroke:#181818;stroke-width:0.6;" width="6" x="428.2954" y="182.7422"/><rect fill="#FFFFFF" height="18" style="stroke:#181818;stroke-width:0.6;" width="6" x="525.9202" y="254.6367"/><rect fill="#FFFFFF" height="213.5637" style="stroke:#181818;stroke-width:0.6;" width="6" x="613.1619" y="369.9352"/><rect fill="#FFFFFF" height="21.7746" style="stroke:#181818;stroke-width:0.6;" width="6" x="616.1619" y="483.4043"/><rect fill="#FFFFFF" height="18" style="stroke:#181818;stroke-width:0.6;" width="6" x="785.3045" y="291.4113"/><rect fill="#FFFFFF" height="18" style="stroke:#181818;stroke-width:0.6;" width="6" x="785.3045" y="441.8297"/><rect fill="#FFFFFF" height="18" style="stroke:#181818;stroke-width:0.6;" width="6" x="878.6124" y="542.5242"/><rect fill="none" height="524.9789" style="stroke:#000000;stroke-width:0.8999999999999999;" width="989.8239" x="31.166" y="63.3199"/><rect fill="none" height="85.1238" style="stroke:#000000;stroke-width:0.8999999999999999;" width="438.1102" x="395.4155" y="229.0875"/><rect fill="none" height="149.0438" style="stroke:#000000;stroke-width:0.8999999999999999;" width="446.8485" x="568.1414" y="416.2805"/><line style="stroke:#181818;stroke-width:0.3;stroke-dasharray:5.0,5.0;" x1="88.166" x2="88.166" y1="34.3453" y2="617.2734"/><line style="stroke:#181818;stroke-width:0.3;stroke-dasharray:5.0,5.0;" x1="173.3531" x2="173.3531" y1="34.3453" y2="617.2734"/><line style="stroke:#181818;stroke-width:0.3;stroke-dasharray:5.0,5.0;" x1="235.6412" x2="235.6412" y1="34.3453" y2="617.2734"/><line style="stroke:#181818;stroke-width:0.3;stroke-dasharray:5.0,5.0;" x1="318.2631" x2="318.2631" y1="34.3453" y2="617.2734"/><line style="stroke:#181818;stroke-width:0.3;stroke-dasharray:5.0,5.0;" x1="430.8155" x2="430.8155" y1="34.3453" y2="617.2734"/><line style="stroke:#181818;stroke-width:0.3;stroke-dasharray:5.0,5.0;" x1="528.699" x2="528.699" y1="34.3453" y2="617.2734"/><line style="stroke:#181818;stroke-width:0.3;stroke-dasharray:5.0,5.0;" x1="616.1414" x2="616.1414" y1="34.3453" y2="617.2734"/><line style="stroke:#181818;stroke-width:0.3;stroke-dasharray:5.0,5.0;" x1="788.0833" x2="788.0833" y1="212.2148" y2="617.2734"/><line style="stroke:#181818;stroke-width:0.3;stroke-dasharray:5.0,5.0;" x1="881.5257" x2="881.5257" y1="399.4078" y2="617.2734"/><line style="stroke:#181818;stroke-width:0.3;stroke-dasharray:5.0,5.0;" x1="972.2991" x2="972.2991" y1="515.877" y2="617.2734"/><rect fill="#E3E3E3" height="19.5727" rx="1.5" ry="1.5" style="stroke:#181818;stroke-width:0.3;" width="103.1871" x="37.166" y="14.1727"/><text fill="#000000" font-family="sans-serif" font-size="8.4" lengthAdjust="spacing" textLength="94.7871" x="41.366" y="27.4371">:StationBuildingController</text><rect fill="#E3E3E3" height="19.5727" rx="1.5" ry="1.5" style="stroke:#181818;stroke-width:0.3;" width="103.1871" x="37.166" y="616.6734"/><text fill="#000000" font-family="sans-serif" font-size="8.4" lengthAdjust="spacing" textLength="94.7871" x="41.366" y="629.9379">:StationBuildingController</text><rect fill="#E3E3E3" height="19.5727" rx="1.5" ry="1.5" style="stroke:#181818;stroke-width:0.3;" width="55.0881" x="146.3531" y="14.1727"/><text fill="#000000" font-family="sans-serif" font-size="8.4" lengthAdjust="spacing" textLength="46.6881" x="150.5531" y="27.4371">Repositories</text><rect fill="#E3E3E3" height="19.5727" rx="1.5" ry="1.5" style="stroke:#181818;stroke-width:0.3;" width="55.0881" x="146.3531" y="616.6734"/><text fill="#000000" font-family="sans-serif" font-size="8.4" lengthAdjust="spacing" textLength="46.6881" x="150.5531" y="629.9379">Repositories</text><rect fill="#E3E3E3" height="30.7453" rx="1.5" ry="1.5" style="stroke:#181818;stroke-width:0.3;" width="57.4219" x="207.4412" y="3"/><text fill="#000000" font-family="sans-serif" font-size="8.4" lengthAdjust="spacing" textLength="43.4191" x="214.4426" y="16.2645">repositories</text><text fill="#000000" font-family="sans-serif" font-size="8.4" lengthAdjust="spacing" textLength="49.0219" x="211.6412" y="27.4371">:Repositories</text><rect fill="#E3E3E3" height="30.7453" rx="1.5" ry="1.5" style="stroke:#181818;stroke-width:0.3;" width="57.4219" x="207.4412" y="616.6734"/><text fill="#000000" font-family="sans-serif" font-size="8.4" lengthAdjust="spacing" textLength="43.4191" x="214.4426" y="629.9379">repositories</text><text fill="#000000" font-family="sans-serif" font-size="8.4" lengthAdjust="spacing" textLength="49.0219" x="211.6412" y="641.1105">:Repositories</text><rect fill="#E3E3E3" height="30.7453" rx="1.5" ry="1.5" style="stroke:#181818;stroke-width:0.3;" width="95.71" x="270.8631" y="3"/><text fill="#000000" font-family="sans-serif" font-size="8.4" lengthAdjust="spacing" textLength="83.5734" x="276.9313" y="16.2645">stationTypeRepository</text><text fill="#000000" font-family="sans-serif" font-size="8.4" lengthAdjust="spacing" textLength="87.31" x="275.0631" y="27.4371">:StationTypeRepository</text><rect fill="#E3E3E3" height="30.7453" rx="1.5" ry="1.5" style="stroke:#181818;stroke-width:0.3;" width="95.71" x="270.8631" y="616.6734"/><text fill="#000000" font-family="sans-serif" font-size="8.4" lengthAdjust="spacing" textLength="83.5734" x="276.9313" y="629.9379">stationTypeRepository</text><text fill="#000000" font-family="sans-serif" font-size="8.4" lengthAdjust="spacing" textLength="87.31" x="275.0631" y="641.1105">:StationTypeRepository</text><rect fill="#E3E3E3" height="30.7453" rx="1.5" ry="1.5" style="stroke:#181818;stroke-width:0.3;" width="59.7598" x="401.4155" y="3"/><text fill="#000000" font-family="sans-serif" font-size="8.4" lengthAdjust="spacing" textLength="47.6232" x="407.4838" y="16.2645">stationTypes</text><text fill="#000000" font-family="sans-serif" font-size="8.4" lengthAdjust="spacing" textLength="51.3598" x="405.6155" y="27.4371">:StationTypes</text><rect fill="#E3E3E3" height="30.7453" rx="1.5" ry="1.5" style="stroke:#181818;stroke-width:0.3;" width="59.7598" x="401.4155" y="616.6734"/><text fill="#000000" font-family="sans-serif" font-size="8.4" lengthAdjust="spacing" textLength="47.6232" x="407.4838" y="629.9379">stationTypes</text><text fill="#000000" font-family="sans-serif" font-size="8.4" lengthAdjust="spacing" textLength="51.3598" x="405.6155" y="641.1105">:StationTypes</text><rect fill="#E3E3E3" height="19.5727" rx="1.5" ry="1.5" style="stroke:#181818;stroke-width:0.3;" width="78.4424" x="489.699" y="14.1727"/><text fill="#000000" font-family="sans-serif" font-size="8.4" lengthAdjust="spacing" textLength="70.0424" x="493.899" y="27.4371">:List&lt;StationType&gt;</text><rect fill="#E3E3E3" height="19.5727" rx="1.5" ry="1.5" style="stroke:#181818;stroke-width:0.3;" width="78.4424" x="489.699" y="616.6734"/><text fill="#000000" font-family="sans-serif" font-size="8.4" lengthAdjust="spacing" textLength="70.0424" x="493.899" y="629.9379">:List&lt;StationType&gt;</text><rect fill="#E3E3E3" height="19.5727" rx="1.5" ry="1.5" style="stroke:#181818;stroke-width:0.3;" width="84.041" x="574.1414" y="14.1727"/><text fill="#000000" font-family="sans-serif" font-size="8.4" lengthAdjust="spacing" textLength="75.641" x="578.3414" y="27.4371">:StationTypeMapper</text><rect fill="#E3E3E3" height="19.5727" rx="1.5" ry="1.5" style="stroke:#181818;stroke-width:0.3;" width="84.041" x="574.1414" y="616.6734"/><text fill="#000000" font-family="sans-serif" font-size="8.4" lengthAdjust="spacing" textLength="75.641" x="578.3414" y="629.9379">:StationTypeMapper</text><rect fill="#E3E3E3" height="30.7453" rx="1.5" ry="1.5" style="stroke:#181818;stroke-width:0.3;" width="78.4424" x="749.0833" y="616.6734"/><text fill="#000000" font-family="sans-serif" font-size="8.4" lengthAdjust="spacing" textLength="55.0922" x="760.7584" y="629.9379">listStationType</text><text fill="#000000" font-family="sans-serif" font-size="8.4" lengthAdjust="spacing" textLength="70.0424" x="753.2833" y="641.1105">:List&lt;StationType&gt;</text><rect fill="#E3E3E3" height="30.7453" rx="1.5" ry="1.5" style="stroke:#181818;stroke-width:0.3;" width="96.1734" x="833.5257" y="616.6734"/><text fill="#000000" font-family="sans-serif" font-size="8.4" lengthAdjust="spacing" textLength="72.8232" x="845.2008" y="629.9379">listStationTypeDTO</text><text fill="#000000" font-family="sans-serif" font-size="8.4" lengthAdjust="spacing" textLength="87.7734" x="837.7257" y="641.1105">:List&lt;StationTypeDTO&gt;</text><rect fill="#E3E3E3" height="30.7453" rx="1.5" ry="1.5" style="stroke:#181818;stroke-width:0.3;" width="73.2908" x="935.6991" y="616.6734"/><text fill="#000000" font-family="sans-serif" font-size="8.4" lengthAdjust="spacing" textLength="61.1543" x="941.7674" y="629.9379">stationTypeDTO</text><text fill="#000000" font-family="sans-serif" font-size="8.4" lengthAdjust="spacing" textLength="64.8908" x="939.8991" y="641.1105">:StationTypeDTO</text><rect fill="#FFFFFF" height="552.1535" style="stroke:#181818;stroke-width:0.6;" width="6" x="85.7596" y="54.3199"/><rect fill="#FFFFFF" height="18.7746" style="stroke:#181818;stroke-width:0.6;" width="6" x="170.8972" y="88.8691"/><rect fill="#FFFFFF" height="18.7746" style="stroke:#181818;stroke-width:0.6;" width="6" x="233.1521" y="126.4184"/><rect fill="#FFFFFF" height="187.193" style="stroke:#181818;stroke-width:0.6;" width="6" x="315.7181" y="163.9676"/><rect fill="#FFFFFF" height="149.6437" style="stroke:#181818;stroke-width:0.6;" width="6" x="428.2954" y="182.7422"/><rect fill="#FFFFFF" height="18" style="stroke:#181818;stroke-width:0.6;" width="6" x="525.9202" y="254.6367"/><rect fill="#FFFFFF" height="213.5637" style="stroke:#181818;stroke-width:0.6;" width="6" x="613.1619" y="369.9352"/><rect fill="#FFFFFF" height="21.7746" style="stroke:#181818;stroke-width:0.6;" width="6" x="616.1619" y="483.4043"/><rect fill="#FFFFFF" height="18" style="stroke:#181818;stroke-width:0.6;" width="6" x="785.3045" y="291.4113"/><rect fill="#FFFFFF" height="18" style="stroke:#181818;stroke-width:0.6;" width="6" x="785.3045" y="441.8297"/><rect fill="#FFFFFF" height="18" style="stroke:#181818;stroke-width:0.6;" width="6" x="878.6124" y="542.5242"/><polygon fill="#181818" points="78.5596,51.9199,84.5596,54.3199,78.5596,56.7199,80.9596,54.3199" style="stroke:#181818;stroke-width:0.6;"/><line style="stroke:#181818;stroke-width:0.6;" x1="0" x2="82.1596" y1="54.3199" y2="54.3199"/><text fill="#000000" font-family="sans-serif" font-size="7.8" font-weight="bold" lengthAdjust="spacing" textLength="4.338" x="4.2" y="51.1623">3</text><text fill="#000000" font-family="sans-serif" font-size="7.8" lengthAdjust="spacing" textLength="61.5621" x="10.938" y="51.1623">getStationTypes()</text><path d="M31.166,63.3199 L150.4711,63.3199 L150.4711,68.8945 L144.4711,74.8945 L31.166,74.8945 L31.166,63.3199 " fill="#EEEEEE" style="stroke:#000000;stroke-width:0.8999999999999999;"/><rect fill="none" height="524.9789" style="stroke:#000000;stroke-width:0.8999999999999999;" width="989.8239" x="31.166" y="63.3199"/><text fill="#000000" font-family="sans-serif" font-size="7.8" font-weight="bold" lengthAdjust="spacing" textLength="92.3051" x="40.166" y="72.3369">Get StationTypeDTO List</text><polygon fill="#181818" points="163.6972,86.4691,169.6972,88.8691,163.6972,91.2691,166.0972,88.8691" style="stroke:#181818;stroke-width:0.6;"/><line style="stroke:#181818;stroke-width:0.6;" x1="91.7596" x2="167.2972" y1="88.8691" y2="88.8691"/><text fill="#000000" font-family="sans-serif" font-size="7.8" font-weight="bold" lengthAdjust="spacing" textLength="10.8431" x="95.9596" y="85.7115">3.1</text><text fill="#000000" font-family="sans-serif" font-size="7.8" lengthAdjust="spacing" textLength="45.5241" x="109.2026" y="85.7115">getInstance()</text><polygon fill="#181818" points="98.3596,105.2437,92.3596,107.6438,98.3596,110.0438,95.9596,107.6438" style="stroke:#181818;stroke-width:0.6;"/><line style="stroke:#181818;stroke-width:0.6;stroke-dasharray:2.0,2.0;" x1="94.7596" x2="173.2972" y1="107.6438" y2="107.6438"/><text fill="#000000" font-family="sans-serif" font-size="7.8" font-weight="bold" lengthAdjust="spacing" textLength="10.8431" x="101.9596" y="104.4861">3.2</text><text fill="#000000" font-family="sans-serif" font-size="7.8" lengthAdjust="spacing" textLength="40.3178" x="115.2026" y="104.4861">repositories</text><polygon fill="#181818" points="225.9521,124.0184,231.9521,126.4184,225.9521,128.8184,228.3521,126.4184" style="stroke:#181818;stroke-width:0.6;"/><line style="stroke:#181818;stroke-width:0.6;" x1="91.7596" x2="229.5521" y1="126.4184" y2="126.4184"/><text fill="#000000" font-family="sans-serif" font-size="7.8" font-weight="bold" lengthAdjust="spacing" textLength="10.8431" x="95.9596" y="123.2607">3.3</text><text fill="#000000" font-family="sans-serif" font-size="7.8" lengthAdjust="spacing" textLength="94.9444" x="109.2026" y="123.2607">getStationTypeRepository()</text><polygon fill="#181818" points="98.3596,142.793,92.3596,145.193,98.3596,147.593,95.9596,145.193" style="stroke:#181818;stroke-width:0.6;"/><line style="stroke:#181818;stroke-width:0.6;stroke-dasharray:2.0,2.0;" x1="94.7596" x2="235.5521" y1="145.193" y2="145.193"/><text fill="#000000" font-family="sans-serif" font-size="7.8" font-weight="bold" lengthAdjust="spacing" textLength="10.8431" x="101.9596" y="142.0354">3.4</text><text fill="#000000" font-family="sans-serif" font-size="7.8" lengthAdjust="spacing" textLength="77.6039" x="115.2026" y="142.0354">stationTypeRepository</text><polygon fill="#181818" points="308.5181,161.5676,314.5181,163.9676,308.5181,166.3676,310.9181,163.9676" style="stroke:#181818;stroke-width:0.6;"/><line style="stroke:#181818;stroke-width:0.6;" x1="91.7596" x2="312.1181" y1="163.9676" y2="163.9676"/><text fill="#000000" font-family="sans-serif" font-size="7.8" font-weight="bold" lengthAdjust="spacing" textLength="10.8431" x="95.9596" y="160.81">3.5</text><text fill="#000000" font-family="sans-serif" font-size="7.8" lengthAdjust="spacing" textLength="81.9343" x="109.2026" y="160.81">getListOfStationTypes()</text><polygon fill="#181818" points="421.0954,180.3422,427.0954,182.7422,421.0954,185.1422,423.4954,182.7422" style="stroke:#181818;stroke-width:0.6;"/><line style="stroke:#181818;stroke-width:0.6;" x1="321.7181" x2="424.6954" y1="182.7422" y2="182.7422"/><text fill="#000000" font-family="sans-serif" font-size="7.8" font-weight="bold" lengthAdjust="spacing" textLength="10.8431" x="325.9181" y="179.5846">3.6</text><text fill="#000000" font-family="sans-serif" font-size="7.8" lengthAdjust="spacing" textLength="81.9343" x="339.1611" y="179.5846">getListOfStationTypes()</text><polygon fill="#181818" points="741.8833,199.1168,747.8833,201.5168,741.8833,203.9168,744.2833,201.5168" style="stroke:#181818;stroke-width:0.6;"/><line style="stroke:#181818;stroke-width:0.6;stroke-dasharray:2.0,2.0;" x1="434.2954" x2="745.4833" y1="201.5168" y2="201.5168"/><text fill="#000000" font-family="sans-serif" font-size="7.8" font-weight="bold" lengthAdjust="spacing" textLength="10.8431" x="438.4954" y="198.3592">3.7</text><text fill="#000000" font-family="sans-serif" font-size="7.8" lengthAdjust="spacing" textLength="26.8734" x="451.7385" y="198.3592">create()</text><rect fill="#E3E3E3" height="30.7453" rx="1.5" ry="1.5" style="stroke:#181818;stroke-width:0.3;" width="78.4424" x="749.0833" y="187.5422"/><text fill="#000000" font-family="sans-serif" font-size="8.4" lengthAdjust="spacing" textLength="55.0922" x="760.7584" y="200.8066">listStationType</text><text fill="#000000" font-family="sans-serif" font-size="8.4" lengthAdjust="spacing" textLength="70.0424" x="753.2833" y="211.9793">:List&lt;StationType&gt;</text><path d="M395.4155,229.0875 L438.8763,229.0875 L438.8763,234.6621 L432.8763,240.6621 L395.4155,240.6621 L395.4155,229.0875 " fill="#EEEEEE" style="stroke:#000000;stroke-width:0.8999999999999999;"/><rect fill="none" height="85.1238" style="stroke:#000000;stroke-width:0.8999999999999999;" width="438.1102" x="395.4155" y="229.0875"/><text fill="#000000" font-family="sans-serif" font-size="7.8" font-weight="bold" lengthAdjust="spacing" textLength="16.4607" x="404.4155" y="238.1045">loop</text><text fill="#000000" font-family="sans-serif" font-size="6.6" font-weight="bold" lengthAdjust="spacing" textLength="92.4064" x="447.8763" y="237.4096">[for each known StationType]</text><polygon fill="#181818" points="518.7202,252.2367,524.7202,254.6367,518.7202,257.0367,521.1202,254.6367" style="stroke:#181818;stroke-width:0.6;"/><line style="stroke:#181818;stroke-width:0.6;" x1="434.2954" x2="522.3202" y1="254.6367" y2="254.6367"/><text fill="#000000" font-family="sans-serif" font-size="7.8" font-weight="bold" lengthAdjust="spacing" textLength="10.8431" x="438.4954" y="251.4791">3.8</text><text fill="#000000" font-family="sans-serif" font-size="7.8" lengthAdjust="spacing" textLength="66.9817" x="451.7385" y="251.4791">stationType = get(i)</text><polygon fill="#181818" points="778.1045,289.0113,784.1045,291.4113,778.1045,293.8113,780.5045,291.4113" style="stroke:#181818;stroke-width:0.6;"/><line style="stroke:#181818;stroke-width:0.6;" x1="434.2954" x2="781.7045" y1="291.4113" y2="291.4113"/><text fill="#000000" font-family="sans-serif" font-size="7.8" font-weight="bold" lengthAdjust="spacing" textLength="10.8431" x="438.4954" y="288.2537">3.9</text><text fill="#000000" font-family="sans-serif" font-size="7.8" lengthAdjust="spacing" textLength="58.5305" x="451.7385" y="288.2537">add(stationType)</text><polygon fill="#181818" points="328.3181,329.9859,322.3181,332.3859,328.3181,334.7859,325.9181,332.3859" style="stroke:#181818;stroke-width:0.6;"/><line style="stroke:#181818;stroke-width:0.6;stroke-dasharray:2.0,2.0;" x1="324.7181" x2="430.6954" y1="332.3859" y2="332.3859"/><text fill="#000000" font-family="sans-serif" font-size="7.8" font-weight="bold" lengthAdjust="spacing" textLength="15.1811" x="331.9181" y="329.2283">3.10</text><text fill="#000000" font-family="sans-serif" font-size="7.8" lengthAdjust="spacing" textLength="51.157" x="349.4991" y="329.2283">listStationType</text><polygon fill="#181818" points="98.3596,348.7605,92.3596,351.1605,98.3596,353.5605,95.9596,351.1605" style="stroke:#181818;stroke-width:0.6;"/><line style="stroke:#181818;stroke-width:0.6;stroke-dasharray:2.0,2.0;" x1="94.7596" x2="318.1181" y1="351.1605" y2="351.1605"/><text fill="#000000" font-family="sans-serif" font-size="7.8" font-weight="bold" lengthAdjust="spacing" textLength="15.1811" x="101.9596" y="348.0029">3.11</text><text fill="#000000" font-family="sans-serif" font-size="7.8" lengthAdjust="spacing" textLength="51.157" x="119.5406" y="348.0029">listStationType</text><polygon fill="#181818" points="605.9619,367.5352,611.9619,369.9352,605.9619,372.3352,608.3619,369.9352" style="stroke:#181818;stroke-width:0.6;"/><line style="stroke:#181818;stroke-width:0.6;" x1="91.7596" x2="609.5619" y1="369.9352" y2="369.9352"/><text fill="#000000" font-family="sans-serif" font-size="7.8" font-weight="bold" lengthAdjust="spacing" textLength="15.1811" x="95.9596" y="366.7775">3.12</text><text fill="#000000" font-family="sans-serif" font-size="7.8" lengthAdjust="spacing" textLength="79.3216" x="113.5406" y="366.7775">toDTO(listStationType)</text><polygon fill="#181818" points="826.3257,386.3098,832.3257,388.7098,826.3257,391.1098,828.7257,388.7098" style="stroke:#181818;stroke-width:0.6;"/><line style="stroke:#181818;stroke-width:0.6;stroke-dasharray:2.0,2.0;" x1="619.1619" x2="829.9257" y1="388.7098" y2="388.7098"/><text fill="#000000" font-family="sans-serif" font-size="7.8" font-weight="bold" lengthAdjust="spacing" textLength="15.1811" x="623.3619" y="385.5521">3.13</text><text fill="#000000" font-family="sans-serif" font-size="7.8" lengthAdjust="spacing" textLength="26.8734" x="640.943" y="385.5521">create()</text><rect fill="#E3E3E3" height="30.7453" rx="1.5" ry="1.5" style="stroke:#181818;stroke-width:0.3;" width="96.1734" x="833.5257" y="374.7352"/><text fill="#000000" font-family="sans-serif" font-size="8.4" lengthAdjust="spacing" textLength="72.8232" x="845.2008" y="387.9996">listStationTypeDTO</text><text fill="#000000" font-family="sans-serif" font-size="8.4" lengthAdjust="spacing" textLength="87.7734" x="837.7257" y="399.1723">:List&lt;StationTypeDTO&gt;</text><path d="M568.1414,416.2805 L611.6021,416.2805 L611.6021,421.8551 L605.6021,427.8551 L568.1414,427.8551 L568.1414,416.2805 " fill="#EEEEEE" style="stroke:#000000;stroke-width:0.8999999999999999;"/><rect fill="none" height="149.0438" style="stroke:#000000;stroke-width:0.8999999999999999;" width="446.8485" x="568.1414" y="416.2805"/><text fill="#000000" font-family="sans-serif" font-size="7.8" font-weight="bold" lengthAdjust="spacing" textLength="16.4607" x="577.1414" y="425.2975">loop</text><text fill="#000000" font-family="sans-serif" font-size="6.6" font-weight="bold" lengthAdjust="spacing" textLength="108.1781" x="620.6021" y="424.6025">[for each object in listStationType]</text><polygon fill="#181818" points="778.1045,439.4297,784.1045,441.8297,778.1045,444.2297,780.5045,441.8297" style="stroke:#181818;stroke-width:0.6;"/><line style="stroke:#181818;stroke-width:0.6;" x1="619.1619" x2="781.7045" y1="441.8297" y2="441.8297"/><text fill="#000000" font-family="sans-serif" font-size="7.8" font-weight="bold" lengthAdjust="spacing" textLength="15.1811" x="623.3619" y="438.6721">3.14</text><text fill="#000000" font-family="sans-serif" font-size="7.8" lengthAdjust="spacing" textLength="66.9817" x="640.943" y="438.6721">stationType = get(i)</text><line style="stroke:#181818;stroke-width:0.6;" x1="619.1619" x2="647.3619" y1="475.6043" y2="475.6043"/><line style="stroke:#181818;stroke-width:0.6;" x1="647.3619" x2="647.3619" y1="475.6043" y2="483.4043"/><line style="stroke:#181818;stroke-width:0.6;" x1="622.7619" x2="647.3619" y1="483.4043" y2="483.4043"/><polygon fill="#181818" points="628.7619,481.0043,622.7619,483.4043,628.7619,485.8043,626.3619,483.4043" style="stroke:#181818;stroke-width:0.6;"/><text fill="#000000" font-family="sans-serif" font-size="7.8" font-weight="bold" lengthAdjust="spacing" textLength="15.1811" x="626.3619" y="472.4467">3.15</text><text fill="#000000" font-family="sans-serif" font-size="7.8" lengthAdjust="spacing" textLength="134.1615" x="643.943" y="472.4467">stationTypeDTO = toDTO(stationType)</text><polygon fill="#181818" points="928.4991,502.7789,934.4991,505.1789,928.4991,507.5789,930.8991,505.1789" style="stroke:#181818;stroke-width:0.6;"/><line style="stroke:#181818;stroke-width:0.6;stroke-dasharray:2.0,2.0;" x1="619.1619" x2="932.0991" y1="505.1789" y2="505.1789"/><text fill="#000000" font-family="sans-serif" font-size="7.8" font-weight="bold" lengthAdjust="spacing" textLength="15.1811" x="623.3619" y="502.0213">3.16</text><text fill="#000000" font-family="sans-serif" font-size="7.8" lengthAdjust="spacing" textLength="26.8734" x="640.943" y="502.0213">create()</text><rect fill="#E3E3E3" height="30.7453" rx="1.5" ry="1.5" style="stroke:#181818;stroke-width:0.3;" width="73.2908" x="935.6991" y="491.2043"/><text fill="#000000" font-family="sans-serif" font-size="8.4" lengthAdjust="spacing" textLength="61.1543" x="941.7674" y="504.4688">stationTypeDTO</text><text fill="#000000" font-family="sans-serif" font-size="8.4" lengthAdjust="spacing" textLength="64.8908" x="939.8991" y="515.6414">:StationTypeDTO</text><polygon fill="#181818" points="871.4124,540.1242,877.4124,542.5242,871.4124,544.9242,873.8124,542.5242" style="stroke:#181818;stroke-width:0.6;"/><line style="stroke:#181818;stroke-width:0.6;" x1="619.1619" x2="875.0124" y1="542.5242" y2="542.5242"/><text fill="#000000" font-family="sans-serif" font-size="7.8" font-weight="bold" lengthAdjust="spacing" textLength="15.1811" x="623.3619" y="539.3666">3.17</text><text fill="#000000" font-family="sans-serif" font-size="7.8" lengthAdjust="spacing" textLength="74.995" x="640.943" y="539.3666">add(stationTypeDTO)</text><polygon fill="#181818" points="98.3596,581.0988,92.3596,583.4988,98.3596,585.8988,95.9596,583.4988" style="stroke:#181818;stroke-width:0.6;"/><line style="stroke:#181818;stroke-width:0.6;stroke-dasharray:2.0,2.0;" x1="94.7596" x2="615.5619" y1="583.4988" y2="583.4988"/><text fill="#000000" font-family="sans-serif" font-size="7.8" font-weight="bold" lengthAdjust="spacing" textLength="15.1811" x="101.9596" y="580.3412">3.18</text><text fill="#000000" font-family="sans-serif" font-size="7.8" lengthAdjust="spacing" textLength="67.6216" x="119.5406" y="580.3412">listStationTypeDTO</text><polygon fill="#181818" points="6.6,604.0734,0.6,606.4734,6.6,608.8734,4.2,606.4734" style="stroke:#181818;stroke-width:0.6;"/><line style="stroke:#181818;stroke-width:0.6;stroke-dasharray:2.0,2.0;" x1="3" x2="88.1596" y1="606.4734" y2="606.4734"/><text fill="#000000" font-family="sans-serif" font-size="7.8" font-weight="bold" lengthAdjust="spacing" textLength="4.338" x="10.2" y="603.3158">4</text><text fill="#000000" font-family="sans-serif" font-size="7.8" lengthAdjust="spacing" textLength="67.6216" x="16.938" y="603.3158">listStationTypeDTO</text><!--SRC=[dLR1Rk8m4BtdAqOzqKgiLEsUeYvIjuig90g8vB9I9UGc1bo27TbcA_v-RQSDTcm3sHpjcVUUPzuu5Zj2QyJH7lQCicBBsHw3v0USY7QdHiKERN0cZnK6ZWk9wAQo0yGMbUo3q0siKILmagXbIGfI8ohX9iqaaeJHNmTIbIheYL79MLLXVWD8m5E-dBe9IrmpGIJZ10iJiXmlvfaRmwsOLvg6KrRPPFOy7UVpcPii6a7viSPjub6XPA5r0vVbZ_baFblbVnRZbSQE0WeNHtZfdOEaKoBaWvKnCXdJIPQ7owXZNb1TVvRFKVRok5YCbsvUfV2jL2KlpEW0-VGTcD_vF82aLYDWAxKLhLa3vkBuC1eXGGV9w67_XZbyJuOZuvuKDjZM9WQtRk2t-mGLaln54ZTs0_LjE3lKy8mbkCIW3vMO4FtfU514nb1Wg2PKQQS5LZHVKIryOrMmlYPns6grdTi6bhY34EO_6RfxvfDVewgiQV3qdVOifS4nYKgsu3tntlWO-RhGytMdSPvsV_HizTvkbowxJ1MbizeGuckwwbdzxYw5WcC5fdtO1QWOgs7DEAZoRM57sGUr3UZ51qX7vdPm-WC_zIa7v3QOtnxEZ3L4FgkX9kuwATxnKq1bER2qNT3atpjN2BoSX6dPktkDCpitNNA5X8vH0gPiXog67ZkSSVpvWMfk_HGaKzVNe4DmQQ8-Vnbn_Kr0sEhwJexRtRKwUtjNJmSWz6o1e_H1frqr0JsTTjPb_wNrgp_k7qy9RXfsTbJEDktIW4PxrsrRdpg43DEdQvhSkoFKMf_6cRT0t-PvITuL4QjTS79jj6jgrR9PBvCVPk5XE6m6EyXXOPktopy0]--></g></svg>