<svg xmlns="http://www.w3.org/2000/svg" xmlns:xlink="http://www.w3.org/1999/xlink" contentStyleType="text/css" height="542px" preserveAspectRatio="none" style="width:937px;height:542px;background:#FFFFFF;" version="1.1" viewBox="0 0 937 542" width="937px" zoomAndPan="magnify"><defs/><g><rect fill="#FFFFFF" height="377.4922" style="stroke:#181818;stroke-width:1.0;" width="10" x="385.0259" y="90.5332"/><rect fill="#FFFFFF" height="31.291" style="stroke:#181818;stroke-width:1.0;" width="10" x="549.1079" y="148.1152"/><rect fill="#FFFFFF" height="31.291" style="stroke:#181818;stroke-width:1.0;" width="10" x="549.1079" y="210.6973"/><rect fill="#FFFFFF" height="31.291" style="stroke:#181818;stroke-width:1.0;" width="10" x="790.8936" y="273.2793"/><rect fill="#FFFFFF" height="31.291" style="stroke:#181818;stroke-width:1.0;" width="10" x="869.7554" y="335.8613"/><rect fill="#FFFFFF" height="31.291" style="stroke:#181818;stroke-width:1.0;" width="10" x="869.7554" y="398.4434"/><rect fill="none" height="332.2012" style="stroke:#000000;stroke-width:1.5;" width="637.0186" x="294.0366" y="105.5332"/><line style="stroke:#181818;stroke-width:0.5;stroke-dasharray:5.0,5.0;" x1="389.0366" x2="389.0366" y1="57.2422" y2="486.0254"/><line style="stroke:#181818;stroke-width:0.5;stroke-dasharray:5.0,5.0;" x1="554.0151" x2="554.0151" y1="57.2422" y2="486.0254"/><line style="stroke:#181818;stroke-width:0.5;stroke-dasharray:5.0,5.0;" x1="795.3315" x2="795.3315" y1="57.2422" y2="486.0254"/><line style="stroke:#181818;stroke-width:0.5;stroke-dasharray:5.0,5.0;" x1="874.4556" x2="874.4556" y1="57.2422" y2="486.0254"/><rect fill="#E2E2F0" height="32.6211" rx="2.5" ry="2.5" style="stroke:#181818;stroke-width:0.5;" width="171.9785" x="304.0366" y="23.6211"/><text fill="#000000" font-family="sans-serif" font-size="14" lengthAdjust="spacing" textLength="157.9785" x="311.0366" y="45.7285">:StationBuildingController</text><rect fill="#E2E2F0" height="32.6211" rx="2.5" ry="2.5" style="stroke:#181818;stroke-width:0.5;" width="171.9785" x="304.0366" y="485.0254"/><text fill="#000000" font-family="sans-serif" font-size="14" lengthAdjust="spacing" textLength="157.9785" x="311.0366" y="507.1328">:StationBuildingController</text><rect fill="#E2E2F0" height="51.2422" rx="2.5" ry="2.5" style="stroke:#181818;stroke-width:0.5;" width="136.1855" x="486.0151" y="5"/><text fill="#000000" font-family="sans-serif" font-size="14" lengthAdjust="spacing" textLength="73.165" x="517.5254" y="27.1074">appSession</text><text fill="#000000" font-family="sans-serif" font-size="14" lengthAdjust="spacing" textLength="122.1855" x="493.0151" y="45.7285">:ApplicationSession</text><rect fill="#E2E2F0" height="51.2422" rx="2.5" ry="2.5" style="stroke:#181818;stroke-width:0.5;" width="136.1855" x="486.0151" y="485.0254"/><text fill="#000000" font-family="sans-serif" font-size="14" lengthAdjust="spacing" textLength="73.165" x="517.5254" y="507.1328">appSession</text><text fill="#000000" font-family="sans-serif" font-size="14" lengthAdjust="spacing" textLength="122.1855" x="493.0151" y="525.7539">:ApplicationSession</text><rect fill="#E2E2F0" height="51.2422" rx="2.5" ry="2.5" style="stroke:#181818;stroke-width:0.5;" width="45.124" x="773.3315" y="5"/><text fill="#000000" font-family="sans-serif" font-size="14" lengthAdjust="spacing" textLength="27.2344" x="782.2764" y="27.1074">map</text><text fill="#000000" font-family="sans-serif" font-size="14" lengthAdjust="spacing" textLength="31.124" x="780.3315" y="45.7285">:Map</text><rect fill="#E2E2F0" height="51.2422" rx="2.5" ry="2.5" style="stroke:#181818;stroke-width:0.5;" width="45.124" x="773.3315" y="485.0254"/><text fill="#000000" font-family="sans-serif" font-size="14" lengthAdjust="spacing" textLength="27.2344" x="782.2764" y="507.1328">map</text><text fill="#000000" font-family="sans-serif" font-size="14" lengthAdjust="spacing" textLength="31.124" x="780.3315" y="525.7539">:Map</text><rect fill="#E2E2F0" height="51.2422" rx="2.5" ry="2.5" style="stroke:#181818;stroke-width:0.5;" width="92.5996" x="828.4556" y="5"/><text fill="#000000" font-family="sans-serif" font-size="14" lengthAdjust="spacing" textLength="72.3721" x="838.5693" y="27.1074">stationType</text><text fill="#000000" font-family="sans-serif" font-size="14" lengthAdjust="spacing" textLength="78.5996" x="835.4556" y="45.7285">:StationType</text><rect fill="#E2E2F0" height="51.2422" rx="2.5" ry="2.5" style="stroke:#181818;stroke-width:0.5;" width="92.5996" x="828.4556" y="485.0254"/><text fill="#000000" font-family="sans-serif" font-size="14" lengthAdjust="spacing" textLength="72.3721" x="838.5693" y="507.1328">stationType</text><text fill="#000000" font-family="sans-serif" font-size="14" lengthAdjust="spacing" textLength="78.5996" x="835.4556" y="525.7539">:StationType</text><rect fill="#FFFFFF" height="377.4922" style="stroke:#181818;stroke-width:1.0;" width="10" x="385.0259" y="90.5332"/><rect fill="#FFFFFF" height="31.291" style="stroke:#181818;stroke-width:1.0;" width="10" x="549.1079" y="148.1152"/><rect fill="#FFFFFF" height="31.291" style="stroke:#181818;stroke-width:1.0;" width="10" x="549.1079" y="210.6973"/><rect fill="#FFFFFF" height="31.291" style="stroke:#181818;stroke-width:1.0;" width="10" x="790.8936" y="273.2793"/><rect fill="#FFFFFF" height="31.291" style="stroke:#181818;stroke-width:1.0;" width="10" x="869.7554" y="335.8613"/><rect fill="#FFFFFF" height="31.291" style="stroke:#181818;stroke-width:1.0;" width="10" x="869.7554" y="398.4434"/><polygon fill="#181818" points="373.0259,86.5332,383.0259,90.5332,373.0259,94.5332,377.0259,90.5332" style="stroke:#181818;stroke-width:1.0;"/><line style="stroke:#181818;stroke-width:1.0;" x1="0" x2="379.0259" y1="90.5332" y2="90.5332"/><text fill="#000000" font-family="sans-serif" font-size="13" font-weight="bold" lengthAdjust="spacing" textLength="14.46" x="7" y="85.2705">23</text><text fill="#000000" font-family="sans-serif" font-size="13" lengthAdjust="spacing" textLength="347.5659" x="25.46" y="85.2705">previewStationPlacement(stationType, position, centerPoint)</text><path d="M294.0366,105.5332 L504.4883,105.5332 L504.4883,114.8242 L494.4883,124.8242 L294.0366,124.8242 L294.0366,105.5332 " fill="#EEEEEE" style="stroke:#000000;stroke-width:1.5;"/><rect fill="none" height="332.2012" style="stroke:#000000;stroke-width:1.5;" width="637.0186" x="294.0366" y="105.5332"/><text fill="#000000" font-family="sans-serif" font-size="13" font-weight="bold" lengthAdjust="spacing" textLength="165.4517" x="309.0366" y="120.5615">Preview Station Placement</text><polygon fill="#181818" points="537.1079,144.1152,547.1079,148.1152,537.1079,152.1152,541.1079,148.1152" style="stroke:#181818;stroke-width:1.0;"/><line style="stroke:#181818;stroke-width:1.0;" x1="395.0259" x2="543.1079" y1="148.1152" y2="148.1152"/><text fill="#000000" font-family="sans-serif" font-size="13" font-weight="bold" lengthAdjust="spacing" textLength="25.3018" x="402.0259" y="142.8525">23.1</text><text fill="#000000" font-family="sans-serif" font-size="13" lengthAdjust="spacing" textLength="75.8735" x="431.3276" y="142.8525">getInstance()</text><polygon fill="#181818" points="406.0259,175.4063,396.0259,179.4063,406.0259,183.4063,402.0259,179.4063" style="stroke:#181818;stroke-width:1.0;"/><line style="stroke:#181818;stroke-width:1.0;stroke-dasharray:2.0,2.0;" x1="400.0259" x2="553.1079" y1="179.4063" y2="179.4063"/><text fill="#000000" font-family="sans-serif" font-size="13" font-weight="bold" lengthAdjust="spacing" textLength="25.3018" x="412.0259" y="174.1436">23.2</text><text fill="#000000" font-family="sans-serif" font-size="13" lengthAdjust="spacing" textLength="93.2217" x="441.3276" y="174.1436">sessionInstance</text><polygon fill="#181818" points="537.1079,206.6973,547.1079,210.6973,537.1079,214.6973,541.1079,210.6973" style="stroke:#181818;stroke-width:1.0;"/><line style="stroke:#181818;stroke-width:1.0;" x1="395.0259" x2="543.1079" y1="210.6973" y2="210.6973"/><text fill="#000000" font-family="sans-serif" font-size="13" font-weight="bold" lengthAdjust="spacing" textLength="25.3018" x="402.0259" y="205.4346">23.3</text><text fill="#000000" font-family="sans-serif" font-size="13" lengthAdjust="spacing" textLength="95.3672" x="431.3276" y="205.4346">getCurrentMap()</text><polygon fill="#181818" points="406.0259,237.9883,396.0259,241.9883,406.0259,245.9883,402.0259,241.9883" style="stroke:#181818;stroke-width:1.0;"/><line style="stroke:#181818;stroke-width:1.0;stroke-dasharray:2.0,2.0;" x1="400.0259" x2="553.1079" y1="241.9883" y2="241.9883"/><text fill="#000000" font-family="sans-serif" font-size="13" font-weight="bold" lengthAdjust="spacing" textLength="25.3018" x="412.0259" y="236.7256">23.4</text><text fill="#000000" font-family="sans-serif" font-size="13" lengthAdjust="spacing" textLength="65.749" x="441.3276" y="236.7256">currentMap</text><polygon fill="#181818" points="778.8936,269.2793,788.8936,273.2793,778.8936,277.2793,782.8936,273.2793" style="stroke:#181818;stroke-width:1.0;"/><line style="stroke:#181818;stroke-width:1.0;" x1="395.0259" x2="784.8936" y1="273.2793" y2="273.2793"/><text fill="#000000" font-family="sans-serif" font-size="13" font-weight="bold" lengthAdjust="spacing" textLength="25.3018" x="402.0259" y="268.0166">23.5</text><text fill="#000000" font-family="sans-serif" font-size="13" lengthAdjust="spacing" textLength="347.5659" x="431.3276" y="268.0166">previewStationPlacement(stationType, position, centerPoint)</text><polygon fill="#181818" points="406.0259,300.5703,396.0259,304.5703,406.0259,308.5703,402.0259,304.5703" style="stroke:#181818;stroke-width:1.0;"/><line style="stroke:#181818;stroke-width:1.0;stroke-dasharray:2.0,2.0;" x1="400.0259" x2="794.8936" y1="304.5703" y2="304.5703"/><text fill="#000000" font-family="sans-serif" font-size="13" font-weight="bold" lengthAdjust="spacing" textLength="25.3018" x="412.0259" y="299.3076">23.6</text><text fill="#000000" font-family="sans-serif" font-size="13" lengthAdjust="spacing" textLength="44.7954" x="441.3276" y="299.3076">preview</text><polygon fill="#181818" points="857.7554,331.8613,867.7554,335.8613,857.7554,339.8613,861.7554,335.8613" style="stroke:#181818;stroke-width:1.0;"/><line style="stroke:#181818;stroke-width:1.0;" x1="395.0259" x2="863.7554" y1="335.8613" y2="335.8613"/><text fill="#000000" font-family="sans-serif" font-size="13" font-weight="bold" lengthAdjust="spacing" textLength="25.3018" x="402.0259" y="330.5986">23.7</text><text fill="#000000" font-family="sans-serif" font-size="13" lengthAdjust="spacing" textLength="124.2744" x="431.3276" y="330.5986">getEconomicRadius()</text><polygon fill="#181818" points="406.0259,363.1523,396.0259,367.1523,406.0259,371.1523,402.0259,367.1523" style="stroke:#181818;stroke-width:1.0;"/><line style="stroke:#181818;stroke-width:1.0;stroke-dasharray:2.0,2.0;" x1="400.0259" x2="873.7554" y1="367.1523" y2="367.1523"/><text fill="#000000" font-family="sans-serif" font-size="13" font-weight="bold" lengthAdjust="spacing" textLength="25.3018" x="412.0259" y="361.8896">23.8</text><text fill="#000000" font-family="sans-serif" font-size="13" lengthAdjust="spacing" textLength="96.1035" x="441.3276" y="361.8896">economicRadius</text><polygon fill="#181818" points="857.7554,394.4434,867.7554,398.4434,857.7554,402.4434,861.7554,398.4434" style="stroke:#181818;stroke-width:1.0;"/><line style="stroke:#181818;stroke-width:1.0;" x1="395.0259" x2="863.7554" y1="398.4434" y2="398.4434"/><text fill="#000000" font-family="sans-serif" font-size="13" font-weight="bold" lengthAdjust="spacing" textLength="25.3018" x="402.0259" y="393.1807">23.9</text><text fill="#000000" font-family="sans-serif" font-size="13" lengthAdjust="spacing" textLength="53.46" x="431.3276" y="393.1807">getCost()</text><polygon fill="#181818" points="406.0259,425.7344,396.0259,429.7344,406.0259,433.7344,402.0259,429.7344" style="stroke:#181818;stroke-width:1.0;"/><line style="stroke:#181818;stroke-width:1.0;stroke-dasharray:2.0,2.0;" x1="400.0259" x2="873.7554" y1="429.7344" y2="429.7344"/><text fill="#000000" font-family="sans-serif" font-size="13" font-weight="bold" lengthAdjust="spacing" textLength="32.5317" x="412.0259" y="424.4717">23.10</text><text fill="#000000" font-family="sans-serif" font-size="13" lengthAdjust="spacing" textLength="23.8418" x="448.5576" y="424.4717">cost</text><polygon fill="#181818" points="11,464.0254,1,468.0254,11,472.0254,7,468.0254" style="stroke:#181818;stroke-width:1.0;"/><line style="stroke:#181818;stroke-width:1.0;stroke-dasharray:2.0,2.0;" x1="5" x2="389.0259" y1="468.0254" y2="468.0254"/><text fill="#000000" font-family="sans-serif" font-size="13" font-weight="bold" lengthAdjust="spacing" textLength="14.46" x="17" y="462.7627">24</text><text fill="#000000" font-family="sans-serif" font-size="13" lengthAdjust="spacing" textLength="179.188" x="35.46" y="462.7627">preview, economicRadius, cost</text><!--SRC=[fLDBQyCm3BxdLuYTMcW7Uvp267IbXyAwXQQNmM1eZfQP9hQndPR- -pbEbZbzCBRw9bdVGx9irbmer5Y2GhR6d5AxAmWqCOiYBoWoNO7vn4nkkSZX0mj3KUJIbZEkK5YuY5EBbalnKF4YSqLJAQoMHK7w0j30TBLyx0DGgPICSP1N4K-KAZZp16tIeoP9yfREqdJ-_DG7bwWSQe7AboqcIV_QD5vMEqMkBFs9VFdg9Pb54LPMYgfy9mtNDz7utbk469Ic3QTj2qeAP5IIi8E0SmHA6bv78s3kZdGYkR33FTBBgmYPvHkqrFGFxkHQLWgIHWHQ5UXaV4rzl1ldAXX133dPkN161AF1i2ljHC9nGN22F8pRJcCmpQ2_2Jj4HaS9VtKshRHs7RX7ETyRwxZ-RCijmtcFU62zNg_Giei3gwtKCPyryC1VlNr-NZCcXImvMsB6AtDiPdvHG-Kw4KXJZ-6OWsRLJrgOIcF_8ymSxgHSdIEHDRBXXxZrcRlnUE-hZVOQ6JNy0Q__FLy0]--></g></svg>