<svg xmlns="http://www.w3.org/2000/svg" xmlns:xlink="http://www.w3.org/1999/xlink" contentStyleType="text/css" height="1025.5px" preserveAspectRatio="none" style="width:1527px;height:1025px;background:#FFFFFF;" version="1.1" viewBox="0 0 1527 1025" width="1527.4px" zoomAndPan="magnify"><defs/><g><!--class StationBuildingUI--><g id="elem_StationBuildingUI"><rect codeLine="8" fill="#F1F1F1" height="59.6695" id="StationBuildingUI" rx="1.75" ry="1.75" style="stroke:#181818;stroke-width:0.3499999999999999;" width="97.5796" x="826.35" y="4.9"/><ellipse cx="836.85" cy="16.1" fill="#C2C2C2" rx="7.7" ry="7.7" style="stroke:#181818;stroke-width:0.6999999999999998;"/><path d="M838.7859,13.2125 Q838.8953,13.0594 839.0266,12.9828 Q839.1578,12.9062 839.3109,12.9062 Q839.5734,12.9062 839.7375,13.0922 Q839.9016,13.2672 839.9016,13.6937 L839.9016,14.7109 Q839.9016,15.1375 839.7375,15.3234 Q839.5734,15.5094 839.3109,15.5094 Q839.0703,15.5094 838.9281,15.3672 Q838.7859,15.2359 838.7094,14.875 Q838.6766,14.6234 838.5453,14.4922 Q838.3156,14.2297 837.8891,14.0766 Q837.4625,13.9234 837.025,13.9234 Q836.4891,13.9234 836.0406,14.1531 Q835.6031,14.3828 835.2531,14.9078 Q834.9141,15.4328 834.9141,16.1547 L834.9141,16.9203 Q834.9141,17.7844 835.5375,18.3641 Q836.1609,18.9328 837.2766,18.9328 Q837.9328,18.9328 838.3922,18.7578 Q838.6656,18.6484 838.9609,18.3422 Q839.1469,18.1562 839.2453,18.1016 Q839.3547,18.0469 839.4969,18.0469 Q839.7266,18.0469 839.9016,18.2328 Q840.0875,18.4078 840.0875,18.6484 Q840.0875,18.8891 839.8469,19.1734 Q839.4969,19.5781 838.9391,19.8078 Q838.1844,20.125 837.2766,20.125 Q836.2156,20.125 835.3734,19.6875 Q834.6844,19.3375 834.2031,18.5937 Q833.7219,17.8391 833.7219,16.9422 L833.7219,16.1328 Q833.7219,15.2031 834.1484,14.4047 Q834.5859,13.5953 835.3516,13.1687 Q836.1172,12.7312 836.9812,12.7312 Q837.4953,12.7312 837.9437,12.8516 Q838.4031,12.9609 838.7859,13.2125 Z " fill="#000000"/><text fill="#000000" font-family="sans-serif" font-size="9.8" lengthAdjust="spacing" textLength="75.1796" x="846.65" y="20.1578">StationBuildingUI</text><line style="stroke:#181818;stroke-width:0.3499999999999999;" x1="827.05" x2="923.2296" y1="27.3" y2="27.3"/><line style="stroke:#181818;stroke-width:0.3499999999999999;" x1="827.05" x2="923.2296" y1="32.9" y2="32.9"/><text fill="#000000" font-family="sans-serif" font-size="9.8" lengthAdjust="spacing" textLength="83.0703" x="830.55" y="46.2752">+getStationTypes()</text><text fill="#000000" font-family="sans-serif" font-size="9.8" lengthAdjust="spacing" textLength="63.4655" x="830.55" y="59.31">+buildStation()</text></g><!--class StationBuildingController--><g id="elem_StationBuildingController"><rect codeLine="13" fill="#F1F1F1" height="124.8434" id="StationBuildingController" rx="1.75" ry="1.75" style="stroke:#181818;stroke-width:0.3499999999999999;" width="259.5202" x="745.15" y="106.4"/><ellipse cx="818.004" cy="117.6" fill="#C2C2C2" rx="7.7" ry="7.7" style="stroke:#181818;stroke-width:0.6999999999999998;"/><path d="M819.9399,114.7125 Q820.0493,114.5594 820.1806,114.4828 Q820.3118,114.4062 820.4649,114.4062 Q820.7274,114.4062 820.8915,114.5922 Q821.0556,114.7672 821.0556,115.1937 L821.0556,116.2109 Q821.0556,116.6375 820.8915,116.8234 Q820.7274,117.0094 820.4649,117.0094 Q820.2243,117.0094 820.0821,116.8672 Q819.9399,116.7359 819.8634,116.375 Q819.8306,116.1234 819.6993,115.9922 Q819.4696,115.7297 819.0431,115.5766 Q818.6165,115.4234 818.179,115.4234 Q817.6431,115.4234 817.1946,115.6531 Q816.7571,115.8828 816.4071,116.4078 Q816.0681,116.9328 816.0681,117.6547 L816.0681,118.4203 Q816.0681,119.2844 816.6915,119.8641 Q817.3149,120.4328 818.4306,120.4328 Q819.0868,120.4328 819.5462,120.2578 Q819.8196,120.1484 820.1149,119.8422 Q820.3009,119.6562 820.3993,119.6016 Q820.5087,119.5469 820.6509,119.5469 Q820.8806,119.5469 821.0556,119.7328 Q821.2415,119.9078 821.2415,120.1484 Q821.2415,120.3891 821.0009,120.6734 Q820.6509,121.0781 820.0931,121.3078 Q819.3384,121.625 818.4306,121.625 Q817.3696,121.625 816.5274,121.1875 Q815.8384,120.8375 815.3571,120.0937 Q814.8759,119.3391 814.8759,118.4422 L814.8759,117.6328 Q814.8759,116.7031 815.3024,115.9047 Q815.7399,115.0953 816.5056,114.6687 Q817.2712,114.2312 818.1353,114.2312 Q818.6493,114.2312 819.0978,114.3516 Q819.5571,114.4609 819.9399,114.7125 Z " fill="#000000"/><text fill="#000000" font-family="sans-serif" font-size="9.8" lengthAdjust="spacing" textLength="107.8622" x="832.354" y="121.6578">StationBuildingController</text><line style="stroke:#181818;stroke-width:0.3499999999999999;" x1="745.85" x2="1003.9702" y1="128.8" y2="128.8"/><line style="stroke:#181818;stroke-width:0.3499999999999999;" x1="745.85" x2="1003.9702" y1="134.4" y2="134.4"/><text fill="#000000" font-family="sans-serif" font-size="9.8" lengthAdjust="spacing" textLength="83.0703" x="749.35" y="147.7752">+getStationTypes()</text><text fill="#000000" font-family="sans-serif" font-size="9.8" lengthAdjust="spacing" textLength="105.4122" x="749.35" y="160.81">+getAvailableBuildings()</text><text fill="#000000" font-family="sans-serif" font-size="9.8" lengthAdjust="spacing" textLength="149.517" x="749.35" y="173.8447">+getClosestCity(position: Position)</text><text fill="#000000" font-family="sans-serif" font-size="9.8" lengthAdjust="spacing" textLength="169.6673" x="749.35" y="186.8795">+buildStation(stationDTO: StationDTO)</text><text fill="#000000" font-family="sans-serif" font-size="9.8" lengthAdjust="spacing" textLength="251.1202" x="749.35" y="199.9143">-calculateDistance(position1: Position, position2: Position)</text><text fill="#000000" font-family="sans-serif" font-size="9.8" lengthAdjust="spacing" textLength="203.1634" x="749.35" y="212.949">-updateClosestCity(city: City, distance: double)</text><text fill="#000000" font-family="sans-serif" font-size="9.8" lengthAdjust="spacing" textLength="130.1562" x="749.35" y="225.9838">-getClosestCityName(): String</text></g><!--class StationDTO--><g id="elem_StationDTO"><rect codeLine="23" fill="#F1F1F1" height="137.8781" id="StationDTO" rx="1.75" ry="1.75" style="stroke:#181818;stroke-width:0.3499999999999999;" width="215.114" x="937.65" y="273"/><ellipse cx="1016.6338" cy="284.2" fill="#C2C2C2" rx="7.7" ry="7.7" style="stroke:#181818;stroke-width:0.6999999999999998;"/><path d="M1018.5697,281.3125 Q1018.6791,281.1594 1018.8104,281.0828 Q1018.9416,281.0062 1019.0947,281.0062 Q1019.3572,281.0062 1019.5213,281.1922 Q1019.6854,281.3672 1019.6854,281.7937 L1019.6854,282.8109 Q1019.6854,283.2375 1019.5213,283.4234 Q1019.3572,283.6094 1019.0947,283.6094 Q1018.8541,283.6094 1018.7119,283.4672 Q1018.5697,283.3359 1018.4932,282.975 Q1018.4604,282.7234 1018.3291,282.5922 Q1018.0994,282.3297 1017.6729,282.1766 Q1017.2463,282.0234 1016.8088,282.0234 Q1016.2729,282.0234 1015.8244,282.2531 Q1015.3869,282.4828 1015.0369,283.0078 Q1014.6979,283.5328 1014.6979,284.2547 L1014.6979,285.0203 Q1014.6979,285.8844 1015.3213,286.4641 Q1015.9447,287.0328 1017.0604,287.0328 Q1017.7166,287.0328 1018.176,286.8578 Q1018.4494,286.7484 1018.7447,286.4422 Q1018.9307,286.2562 1019.0291,286.2016 Q1019.1385,286.1469 1019.2807,286.1469 Q1019.5104,286.1469 1019.6854,286.3328 Q1019.8713,286.5078 1019.8713,286.7484 Q1019.8713,286.9891 1019.6307,287.2734 Q1019.2807,287.6781 1018.7229,287.9078 Q1017.9682,288.225 1017.0604,288.225 Q1015.9994,288.225 1015.1572,287.7875 Q1014.4682,287.4375 1013.9869,286.6937 Q1013.5057,285.9391 1013.5057,285.0422 L1013.5057,284.2328 Q1013.5057,283.3031 1013.9322,282.5047 Q1014.3697,281.6953 1015.1354,281.2687 Q1015.901,280.8312 1016.765,280.8312 Q1017.2791,280.8312 1017.7275,280.9516 Q1018.1869,281.0609 1018.5697,281.3125 Z " fill="#000000"/><text fill="#000000" font-family="sans-serif" font-size="9.8" lengthAdjust="spacing" textLength="51.1964" x="1030.9838" y="288.2578">StationDTO</text><line style="stroke:#181818;stroke-width:0.3499999999999999;" x1="938.35" x2="1152.064" y1="295.4" y2="295.4"/><line style="stroke:#181818;stroke-width:0.3499999999999999;" x1="938.35" x2="1152.064" y1="301" y2="301"/><text fill="#000000" font-family="sans-serif" font-size="9.8" lengthAdjust="spacing" textLength="135.9128" x="941.85" y="314.3752">+getStationType(): StationType</text><text fill="#000000" font-family="sans-serif" font-size="9.8" lengthAdjust="spacing" textLength="101.0481" x="941.85" y="327.41">+getPosition(): Position</text><text fill="#000000" font-family="sans-serif" font-size="9.8" lengthAdjust="spacing" textLength="152.7948" x="941.85" y="340.4447">+getDefaultBuilding(): BuildingDTO</text><text fill="#000000" font-family="sans-serif" font-size="9.8" lengthAdjust="spacing" textLength="125.0122" x="941.85" y="353.4795">+getProposedName(): String</text><text fill="#000000" font-family="sans-serif" font-size="9.8" lengthAdjust="spacing" textLength="157.6948" x="941.85" y="366.5143">+setCenterPoint(centerPoint: String)</text><text fill="#000000" font-family="sans-serif" font-size="9.8" lengthAdjust="spacing" textLength="206.714" x="941.85" y="379.549">+setDefaultBuilding(buildingDTO: BuildingDTO)</text><text fill="#000000" font-family="sans-serif" font-size="9.8" lengthAdjust="spacing" textLength="165.3032" x="941.85" y="392.5838">+setProposedName(cityName: String)</text><text fill="#000000" font-family="sans-serif" font-size="9.8" lengthAdjust="spacing" textLength="134.2763" x="941.85" y="405.6186">+setPosition(position: Position)</text></g><!--class Position--><g id="elem_Position"><rect codeLine="34" fill="#F1F1F1" height="72.7043" id="Position" rx="1.75" ry="1.75" style="stroke:#181818;stroke-width:0.3499999999999999;" width="154.6774" x="943.95" y="452.9"/><ellipse cx="1000.8814" cy="464.1" fill="#C2C2C2" rx="7.7" ry="7.7" style="stroke:#181818;stroke-width:0.6999999999999998;"/><path d="M1002.8173,461.2125 Q1002.9267,461.0594 1003.058,460.9828 Q1003.1892,460.9062 1003.3423,460.9062 Q1003.6048,460.9062 1003.7689,461.0922 Q1003.933,461.2672 1003.933,461.6937 L1003.933,462.7109 Q1003.933,463.1375 1003.7689,463.3234 Q1003.6048,463.5094 1003.3423,463.5094 Q1003.1017,463.5094 1002.9595,463.3672 Q1002.8173,463.2359 1002.7408,462.875 Q1002.708,462.6234 1002.5767,462.4922 Q1002.347,462.2297 1001.9205,462.0766 Q1001.4939,461.9234 1001.0564,461.9234 Q1000.5205,461.9234 1000.072,462.1531 Q999.6345,462.3828 999.2845,462.9078 Q998.9455,463.4328 998.9455,464.1547 L998.9455,464.9203 Q998.9455,465.7844 999.5689,466.3641 Q1000.1923,466.9328 1001.308,466.9328 Q1001.9642,466.9328 1002.4236,466.7578 Q1002.697,466.6484 1002.9923,466.3422 Q1003.1783,466.1562 1003.2767,466.1016 Q1003.3861,466.0469 1003.5283,466.0469 Q1003.758,466.0469 1003.933,466.2328 Q1004.1189,466.4078 1004.1189,466.6484 Q1004.1189,466.8891 1003.8783,467.1734 Q1003.5283,467.5781 1002.9705,467.8078 Q1002.2158,468.125 1001.308,468.125 Q1000.247,468.125 999.4048,467.6875 Q998.7158,467.3375 998.2345,466.5937 Q997.7533,465.8391 997.7533,464.9422 L997.7533,464.1328 Q997.7533,463.2031 998.1798,462.4047 Q998.6173,461.5953 999.383,461.1687 Q1000.1486,460.7312 1001.0126,460.7312 Q1001.5267,460.7312 1001.9751,460.8516 Q1002.4345,460.9609 1002.8173,461.2125 Z " fill="#000000"/><text fill="#000000" font-family="sans-serif" font-size="9.8" lengthAdjust="spacing" textLength="34.8646" x="1015.2314" y="468.1578">Position</text><line style="stroke:#181818;stroke-width:0.3499999999999999;" x1="944.65" x2="1097.9274" y1="475.3" y2="475.3"/><line style="stroke:#181818;stroke-width:0.3499999999999999;" x1="944.65" x2="1097.9274" y1="480.9" y2="480.9"/><text fill="#000000" font-family="sans-serif" font-size="9.8" lengthAdjust="spacing" textLength="48.2057" x="948.15" y="494.2752">+getX(): int</text><text fill="#000000" font-family="sans-serif" font-size="9.8" lengthAdjust="spacing" textLength="48.2057" x="948.15" y="507.31">+getY(): int</text><text fill="#000000" font-family="sans-serif" font-size="9.8" lengthAdjust="spacing" textLength="146.2774" x="948.15" y="520.3447">+setOccupied(occupied: boolean)</text></g><!--class StationTypeDTO--><g id="elem_StationTypeDTO"><rect codeLine="40" fill="#F1F1F1" height="46.6348" id="StationTypeDTO" rx="1.75" ry="1.75" style="stroke:#181818;stroke-width:0.3499999999999999;" width="95.3832" x="802.9" y="465.85"/><ellipse cx="813.4" cy="477.05" fill="#C2C2C2" rx="7.7" ry="7.7" style="stroke:#181818;stroke-width:0.6999999999999998;"/><path d="M815.3359,474.1625 Q815.4453,474.0094 815.5766,473.9328 Q815.7078,473.8562 815.8609,473.8562 Q816.1234,473.8562 816.2875,474.0422 Q816.4516,474.2172 816.4516,474.6437 L816.4516,475.6609 Q816.4516,476.0875 816.2875,476.2734 Q816.1234,476.4594 815.8609,476.4594 Q815.6203,476.4594 815.4781,476.3172 Q815.3359,476.1859 815.2594,475.825 Q815.2266,475.5734 815.0953,475.4422 Q814.8656,475.1797 814.4391,475.0266 Q814.0125,474.8734 813.575,474.8734 Q813.0391,474.8734 812.5906,475.1031 Q812.1531,475.3328 811.8031,475.8578 Q811.4641,476.3828 811.4641,477.1047 L811.4641,477.8703 Q811.4641,478.7344 812.0875,479.3141 Q812.7109,479.8828 813.8266,479.8828 Q814.4828,479.8828 814.9422,479.7078 Q815.2156,479.5984 815.5109,479.2922 Q815.6969,479.1062 815.7953,479.0516 Q815.9047,478.9969 816.0469,478.9969 Q816.2766,478.9969 816.4516,479.1828 Q816.6375,479.3578 816.6375,479.5984 Q816.6375,479.8391 816.3969,480.1234 Q816.0469,480.5281 815.4891,480.7578 Q814.7344,481.075 813.8266,481.075 Q812.7656,481.075 811.9234,480.6375 Q811.2344,480.2875 810.7531,479.5437 Q810.2719,478.7891 810.2719,477.8922 L810.2719,477.0828 Q810.2719,476.1531 810.6984,475.3547 Q811.1359,474.5453 811.9016,474.1187 Q812.6672,473.6812 813.5312,473.6812 Q814.0453,473.6812 814.4937,473.8016 Q814.9531,473.9109 815.3359,474.1625 Z " fill="#000000"/><text fill="#000000" font-family="sans-serif" font-size="9.8" lengthAdjust="spacing" textLength="72.9832" x="823.2" y="481.1078">StationTypeDTO</text><line style="stroke:#181818;stroke-width:0.3499999999999999;" x1="803.6" x2="897.5832" y1="488.25" y2="488.25"/><line style="stroke:#181818;stroke-width:0.3499999999999999;" x1="803.6" x2="897.5832" y1="493.85" y2="493.85"/><text fill="#000000" font-family="sans-serif" font-size="9.8" lengthAdjust="spacing" textLength="78.7062" x="807.1" y="507.2252">+getType(): String</text></g><!--class BuildingDTO--><g id="elem_BuildingDTO"><rect codeLine="44" fill="#F1F1F1" height="46.6348" id="BuildingDTO" rx="1.75" ry="1.75" style="stroke:#181818;stroke-width:0.3499999999999999;" width="91.4607" x="1144.15" y="465.85"/><ellipse cx="1160.7273" cy="477.05" fill="#C2C2C2" rx="7.7" ry="7.7" style="stroke:#181818;stroke-width:0.6999999999999998;"/><path d="M1162.6632,474.1625 Q1162.7726,474.0094 1162.9038,473.9328 Q1163.0351,473.8562 1163.1882,473.8562 Q1163.4507,473.8562 1163.6148,474.0422 Q1163.7788,474.2172 1163.7788,474.6437 L1163.7788,475.6609 Q1163.7788,476.0875 1163.6148,476.2734 Q1163.4507,476.4594 1163.1882,476.4594 Q1162.9476,476.4594 1162.8054,476.3172 Q1162.6632,476.1859 1162.5867,475.825 Q1162.5538,475.5734 1162.4226,475.4422 Q1162.1929,475.1797 1161.7663,475.0266 Q1161.3398,474.8734 1160.9023,474.8734 Q1160.3663,474.8734 1159.9179,475.1031 Q1159.4804,475.3328 1159.1304,475.8578 Q1158.7913,476.3828 1158.7913,477.1047 L1158.7913,477.8703 Q1158.7913,478.7344 1159.4148,479.3141 Q1160.0382,479.8828 1161.1538,479.8828 Q1161.8101,479.8828 1162.2695,479.7078 Q1162.5429,479.5984 1162.8382,479.2922 Q1163.0242,479.1062 1163.1226,479.0516 Q1163.232,478.9969 1163.3742,478.9969 Q1163.6038,478.9969 1163.7788,479.1828 Q1163.9648,479.3578 1163.9648,479.5984 Q1163.9648,479.8391 1163.7242,480.1234 Q1163.3742,480.5281 1162.8163,480.7578 Q1162.0617,481.075 1161.1538,481.075 Q1160.0929,481.075 1159.2507,480.6375 Q1158.5617,480.2875 1158.0804,479.5437 Q1157.5992,478.7891 1157.5992,477.8922 L1157.5992,477.0828 Q1157.5992,476.1531 1158.0257,475.3547 Q1158.4632,474.5453 1159.2288,474.1187 Q1159.9945,473.6812 1160.8585,473.6812 Q1161.3726,473.6812 1161.821,473.8016 Q1162.2804,473.9109 1162.6632,474.1625 Z " fill="#000000"/><text fill="#000000" font-family="sans-serif" font-size="9.8" lengthAdjust="spacing" textLength="55.5557" x="1171.8778" y="481.1078">BuildingDTO</text><line style="stroke:#181818;stroke-width:0.3499999999999999;" x1="1144.85" x2="1234.9107" y1="488.25" y2="488.25"/><line style="stroke:#181818;stroke-width:0.3499999999999999;" x1="1144.85" x2="1234.9107" y1="493.85" y2="493.85"/><text fill="#000000" font-family="sans-serif" font-size="9.8" lengthAdjust="spacing" textLength="83.0607" x="1148.35" y="507.2252">+getName(): String</text></g><!--class StationType--><g id="elem_StationType"><rect codeLine="48" fill="#F1F1F1" height="46.6348" id="StationType" rx="1.75" ry="1.75" style="stroke:#181818;stroke-width:0.3499999999999999;" width="87.1062" x="672" y="465.85"/><ellipse cx="688.0842" cy="477.05" fill="#C2C2C2" rx="7.7" ry="7.7" style="stroke:#181818;stroke-width:0.6999999999999998;"/><path d="M690.0201,474.1625 Q690.1295,474.0094 690.2607,473.9328 Q690.392,473.8562 690.5451,473.8562 Q690.8076,473.8562 690.9717,474.0422 Q691.1357,474.2172 691.1357,474.6437 L691.1357,475.6609 Q691.1357,476.0875 690.9717,476.2734 Q690.8076,476.4594 690.5451,476.4594 Q690.3045,476.4594 690.1623,476.3172 Q690.0201,476.1859 689.9435,475.825 Q689.9107,475.5734 689.7795,475.4422 Q689.5498,475.1797 689.1232,475.0266 Q688.6967,474.8734 688.2592,474.8734 Q687.7232,474.8734 687.2748,475.1031 Q686.8373,475.3328 686.4873,475.8578 Q686.1482,476.3828 686.1482,477.1047 L686.1482,477.8703 Q686.1482,478.7344 686.7717,479.3141 Q687.3951,479.8828 688.5107,479.8828 Q689.167,479.8828 689.6264,479.7078 Q689.8998,479.5984 690.1951,479.2922 Q690.381,479.1062 690.4795,479.0516 Q690.5889,478.9969 690.731,478.9969 Q690.9607,478.9969 691.1357,479.1828 Q691.3217,479.3578 691.3217,479.5984 Q691.3217,479.8391 691.081,480.1234 Q690.731,480.5281 690.1732,480.7578 Q689.4185,481.075 688.5107,481.075 Q687.4498,481.075 686.6076,480.6375 Q685.9185,480.2875 685.4373,479.5437 Q684.956,478.7891 684.956,477.8922 L684.956,477.0828 Q684.956,476.1531 685.3826,475.3547 Q685.8201,474.5453 686.5857,474.1187 Q687.3514,473.6812 688.2154,473.6812 Q688.7295,473.6812 689.1779,473.8016 Q689.6373,473.9109 690.0201,474.1625 Z " fill="#000000"/><text fill="#000000" font-family="sans-serif" font-size="9.8" lengthAdjust="spacing" textLength="52.297" x="699.1251" y="481.1078">StationType</text><line style="stroke:#181818;stroke-width:0.3499999999999999;" x1="672.7" x2="758.4062" y1="488.25" y2="488.25"/><line style="stroke:#181818;stroke-width:0.3499999999999999;" x1="672.7" x2="758.4062" y1="493.85" y2="493.85"/><text fill="#000000" font-family="sans-serif" font-size="9.8" lengthAdjust="spacing" textLength="78.7062" x="676.2" y="507.2252">+getType(): String</text></g><!--class Building--><g id="elem_Building"><rect codeLine="52" fill="#F1F1F1" height="46.6348" id="Building" rx="1.75" ry="1.75" style="stroke:#181818;stroke-width:0.3499999999999999;" width="91.4607" x="1273.65" y="465.85"/><ellipse cx="1299.5361" cy="477.05" fill="#C2C2C2" rx="7.7" ry="7.7" style="stroke:#181818;stroke-width:0.6999999999999998;"/><path d="M1301.472,474.1625 Q1301.5814,474.0094 1301.7127,473.9328 Q1301.8439,473.8562 1301.997,473.8562 Q1302.2595,473.8562 1302.4236,474.0422 Q1302.5877,474.2172 1302.5877,474.6437 L1302.5877,475.6609 Q1302.5877,476.0875 1302.4236,476.2734 Q1302.2595,476.4594 1301.997,476.4594 Q1301.7564,476.4594 1301.6142,476.3172 Q1301.472,476.1859 1301.3955,475.825 Q1301.3627,475.5734 1301.2314,475.4422 Q1301.0017,475.1797 1300.5752,475.0266 Q1300.1486,474.8734 1299.7111,474.8734 Q1299.1752,474.8734 1298.7267,475.1031 Q1298.2892,475.3328 1297.9392,475.8578 Q1297.6002,476.3828 1297.6002,477.1047 L1297.6002,477.8703 Q1297.6002,478.7344 1298.2236,479.3141 Q1298.847,479.8828 1299.9627,479.8828 Q1300.6189,479.8828 1301.0783,479.7078 Q1301.3517,479.5984 1301.647,479.2922 Q1301.833,479.1062 1301.9314,479.0516 Q1302.0408,478.9969 1302.183,478.9969 Q1302.4127,478.9969 1302.5877,479.1828 Q1302.7736,479.3578 1302.7736,479.5984 Q1302.7736,479.8391 1302.533,480.1234 Q1302.183,480.5281 1301.6252,480.7578 Q1300.8705,481.075 1299.9627,481.075 Q1298.9017,481.075 1298.0595,480.6375 Q1297.3705,480.2875 1296.8892,479.5437 Q1296.408,478.7891 1296.408,477.8922 L1296.408,477.0828 Q1296.408,476.1531 1296.8345,475.3547 Q1297.272,474.5453 1298.0377,474.1187 Q1298.8033,473.6812 1299.6673,473.6812 Q1300.1814,473.6812 1300.6298,473.8016 Q1301.0892,473.9109 1301.472,474.1625 Z " fill="#000000"/><text fill="#000000" font-family="sans-serif" font-size="9.8" lengthAdjust="spacing" textLength="34.8694" x="1312.7552" y="481.1078">Building</text><line style="stroke:#181818;stroke-width:0.3499999999999999;" x1="1274.35" x2="1364.4107" y1="488.25" y2="488.25"/><line style="stroke:#181818;stroke-width:0.3499999999999999;" x1="1274.35" x2="1364.4107" y1="493.85" y2="493.85"/><text fill="#000000" font-family="sans-serif" font-size="9.8" lengthAdjust="spacing" textLength="83.0607" x="1277.85" y="507.2252">+getName(): String</text></g><!--class Station--><g id="elem_Station"><rect codeLine="56" fill="#F1F1F1" height="46.6348" id="Station" rx="1.75" ry="1.75" style="stroke:#181818;stroke-width:0.3499999999999999;" width="86.5655" x="1436.4" y="318.5"/><ellipse cx="1462.0449" cy="329.7" fill="#C2C2C2" rx="7.7" ry="7.7" style="stroke:#181818;stroke-width:0.6999999999999998;"/><path d="M1463.9809,326.8125 Q1464.0902,326.6594 1464.2215,326.5828 Q1464.3527,326.5062 1464.5059,326.5062 Q1464.7684,326.5062 1464.9324,326.6922 Q1465.0965,326.8672 1465.0965,327.2937 L1465.0965,328.3109 Q1465.0965,328.7375 1464.9324,328.9234 Q1464.7684,329.1094 1464.5059,329.1094 Q1464.2652,329.1094 1464.123,328.9672 Q1463.9809,328.8359 1463.9043,328.475 Q1463.8715,328.2234 1463.7402,328.0922 Q1463.5105,327.8297 1463.084,327.6766 Q1462.6574,327.5234 1462.2199,327.5234 Q1461.684,327.5234 1461.2355,327.7531 Q1460.798,327.9828 1460.448,328.5078 Q1460.109,329.0328 1460.109,329.7547 L1460.109,330.5203 Q1460.109,331.3844 1460.7324,331.9641 Q1461.3559,332.5328 1462.4715,332.5328 Q1463.1277,332.5328 1463.5871,332.3578 Q1463.8605,332.2484 1464.1559,331.9422 Q1464.3418,331.7562 1464.4402,331.7016 Q1464.5496,331.6469 1464.6918,331.6469 Q1464.9215,331.6469 1465.0965,331.8328 Q1465.2824,332.0078 1465.2824,332.2484 Q1465.2824,332.4891 1465.0418,332.7734 Q1464.6918,333.1781 1464.134,333.4078 Q1463.3793,333.725 1462.4715,333.725 Q1461.4105,333.725 1460.5684,333.2875 Q1459.8793,332.9375 1459.398,332.1937 Q1458.9168,331.4391 1458.9168,330.5422 L1458.9168,329.7328 Q1458.9168,328.8031 1459.3434,328.0047 Q1459.7809,327.1953 1460.5465,326.7687 Q1461.3121,326.3312 1462.1762,326.3312 Q1462.6902,326.3312 1463.1387,326.4516 Q1463.598,326.5609 1463.9809,326.8125 Z " fill="#000000"/><text fill="#000000" font-family="sans-serif" font-size="9.8" lengthAdjust="spacing" textLength="30.5102" x="1475.2105" y="333.7578">Station</text><line style="stroke:#181818;stroke-width:0.3499999999999999;" x1="1437.1" x2="1522.2655" y1="340.9" y2="340.9"/><line style="stroke:#181818;stroke-width:0.3499999999999999;" x1="1437.1" x2="1522.2655" y1="346.5" y2="346.5"/><text fill="#000000" font-family="sans-serif" font-size="9.8" lengthAdjust="spacing" textLength="78.1655" x="1440.6" y="359.8752">+occupyPosition()</text></g><!--class City--><g id="elem_City"><rect codeLine="60" fill="#F1F1F1" height="59.6695" id="City" rx="1.75" ry="1.75" style="stroke:#181818;stroke-width:0.3499999999999999;" width="109.4481" x="180.6" y="312.2"/><ellipse cx="223.9104" cy="323.4" fill="#C2C2C2" rx="7.7" ry="7.7" style="stroke:#181818;stroke-width:0.6999999999999998;"/><path d="M225.8464,320.5125 Q225.9558,320.3594 226.087,320.2828 Q226.2183,320.2062 226.3714,320.2062 Q226.6339,320.2062 226.7979,320.3922 Q226.962,320.5672 226.962,320.9937 L226.962,322.0109 Q226.962,322.4375 226.7979,322.6234 Q226.6339,322.8094 226.3714,322.8094 Q226.1308,322.8094 225.9886,322.6672 Q225.8464,322.5359 225.7698,322.175 Q225.737,321.9234 225.6058,321.7922 Q225.3761,321.5297 224.9495,321.3766 Q224.5229,321.2234 224.0854,321.2234 Q223.5495,321.2234 223.1011,321.4531 Q222.6636,321.6828 222.3136,322.2078 Q221.9745,322.7328 221.9745,323.4547 L221.9745,324.2203 Q221.9745,325.0844 222.5979,325.6641 Q223.2214,326.2328 224.337,326.2328 Q224.9933,326.2328 225.4526,326.0578 Q225.7261,325.9484 226.0214,325.6422 Q226.2073,325.4562 226.3058,325.4016 Q226.4151,325.3469 226.5573,325.3469 Q226.787,325.3469 226.962,325.5328 Q227.1479,325.7078 227.1479,325.9484 Q227.1479,326.1891 226.9073,326.4734 Q226.5573,326.8781 225.9995,327.1078 Q225.2448,327.425 224.337,327.425 Q223.2761,327.425 222.4339,326.9875 Q221.7448,326.6375 221.2636,325.8937 Q220.7823,325.1391 220.7823,324.2422 L220.7823,323.4328 Q220.7823,322.5031 221.2089,321.7047 Q221.6464,320.8953 222.412,320.4687 Q223.1776,320.0312 224.0417,320.0312 Q224.5558,320.0312 225.0042,320.1516 Q225.4636,320.2609 225.8464,320.5125 Z " fill="#000000"/><text fill="#000000" font-family="sans-serif" font-size="9.8" lengthAdjust="spacing" textLength="16.8772" x="238.2604" y="327.4578">City</text><line style="stroke:#181818;stroke-width:0.3499999999999999;" x1="181.3" x2="289.3481" y1="334.6" y2="334.6"/><line style="stroke:#181818;stroke-width:0.3499999999999999;" x1="181.3" x2="289.3481" y1="340.2" y2="340.2"/><text fill="#000000" font-family="sans-serif" font-size="9.8" lengthAdjust="spacing" textLength="101.0481" x="184.8" y="353.5752">+getPosition(): Position</text><text fill="#000000" font-family="sans-serif" font-size="9.8" lengthAdjust="spacing" textLength="83.0607" x="184.8" y="366.61">+getName(): String</text></g><!--class StationTypeMapper--><g id="elem_StationTypeMapper"><rect codeLine="65" fill="#F1F1F1" height="46.6348" id="StationTypeMapper" rx="1.75" ry="1.75" style="stroke:#181818;stroke-width:0.3499999999999999;" width="236.3409" x="576.8" y="318.5"/><ellipse cx="649.2329" cy="329.7" fill="#C2C2C2" rx="7.7" ry="7.7" style="stroke:#181818;stroke-width:0.6999999999999998;"/><path d="M651.1688,326.8125 Q651.2782,326.6594 651.4095,326.5828 Q651.5407,326.5062 651.6938,326.5062 Q651.9563,326.5062 652.1204,326.6922 Q652.2845,326.8672 652.2845,327.2937 L652.2845,328.3109 Q652.2845,328.7375 652.1204,328.9234 Q651.9563,329.1094 651.6938,329.1094 Q651.4532,329.1094 651.311,328.9672 Q651.1688,328.8359 651.0923,328.475 Q651.0595,328.2234 650.9282,328.0922 Q650.6985,327.8297 650.272,327.6766 Q649.8454,327.5234 649.4079,327.5234 Q648.872,327.5234 648.4235,327.7531 Q647.986,327.9828 647.636,328.5078 Q647.297,329.0328 647.297,329.7547 L647.297,330.5203 Q647.297,331.3844 647.9204,331.9641 Q648.5438,332.5328 649.6595,332.5328 Q650.3157,332.5328 650.7751,332.3578 Q651.0485,332.2484 651.3438,331.9422 Q651.5298,331.7562 651.6282,331.7016 Q651.7376,331.6469 651.8798,331.6469 Q652.1095,331.6469 652.2845,331.8328 Q652.4704,332.0078 652.4704,332.2484 Q652.4704,332.4891 652.2298,332.7734 Q651.8798,333.1781 651.322,333.4078 Q650.5673,333.725 649.6595,333.725 Q648.5985,333.725 647.7563,333.2875 Q647.0673,332.9375 646.586,332.1937 Q646.1048,331.4391 646.1048,330.5422 L646.1048,329.7328 Q646.1048,328.8031 646.5313,328.0047 Q646.9688,327.1953 647.7345,326.7687 Q648.5001,326.3312 649.3642,326.3312 Q649.8782,326.3312 650.3267,326.4516 Q650.786,326.5609 651.1688,326.8125 Z " fill="#000000"/><text fill="#000000" font-family="sans-serif" font-size="9.8" lengthAdjust="spacing" textLength="85.5251" x="663.5829" y="333.7578">StationTypeMapper</text><line style="stroke:#181818;stroke-width:0.3499999999999999;" x1="577.5" x2="812.4409" y1="340.9" y2="340.9"/><line style="stroke:#181818;stroke-width:0.3499999999999999;" x1="577.5" x2="812.4409" y1="346.5" y2="346.5"/><text fill="#000000" font-family="sans-serif" font-size="9.8" lengthAdjust="spacing" textLength="227.9409" x="581" y="359.8752">+toDTO(stationType: StationType): StationTypeDTO</text></g><!--class BuildingMapper--><g id="elem_BuildingMapper"><rect codeLine="69" fill="#F1F1F1" height="46.6348" id="BuildingMapper" rx="1.75" ry="1.75" style="stroke:#181818;stroke-width:0.3499999999999999;" width="184.6086" x="1227.1" y="318.5"/><ellipse cx="1282.3805" cy="329.7" fill="#C2C2C2" rx="7.7" ry="7.7" style="stroke:#181818;stroke-width:0.6999999999999998;"/><path d="M1284.3165,326.8125 Q1284.4258,326.6594 1284.5571,326.5828 Q1284.6883,326.5062 1284.8415,326.5062 Q1285.104,326.5062 1285.268,326.6922 Q1285.4321,326.8672 1285.4321,327.2937 L1285.4321,328.3109 Q1285.4321,328.7375 1285.268,328.9234 Q1285.104,329.1094 1284.8415,329.1094 Q1284.6008,329.1094 1284.4586,328.9672 Q1284.3165,328.8359 1284.2399,328.475 Q1284.2071,328.2234 1284.0758,328.0922 Q1283.8461,327.8297 1283.4196,327.6766 Q1282.993,327.5234 1282.5555,327.5234 Q1282.0196,327.5234 1281.5711,327.7531 Q1281.1336,327.9828 1280.7836,328.5078 Q1280.4446,329.0328 1280.4446,329.7547 L1280.4446,330.5203 Q1280.4446,331.3844 1281.068,331.9641 Q1281.6915,332.5328 1282.8071,332.5328 Q1283.4633,332.5328 1283.9227,332.3578 Q1284.1961,332.2484 1284.4915,331.9422 Q1284.6774,331.7562 1284.7758,331.7016 Q1284.8852,331.6469 1285.0274,331.6469 Q1285.2571,331.6469 1285.4321,331.8328 Q1285.618,332.0078 1285.618,332.2484 Q1285.618,332.4891 1285.3774,332.7734 Q1285.0274,333.1781 1284.4696,333.4078 Q1283.7149,333.725 1282.8071,333.725 Q1281.7461,333.725 1280.904,333.2875 Q1280.2149,332.9375 1279.7336,332.1937 Q1279.2524,331.4391 1279.2524,330.5422 L1279.2524,329.7328 Q1279.2524,328.8031 1279.679,328.0047 Q1280.1165,327.1953 1280.8821,326.7687 Q1281.6477,326.3312 1282.5118,326.3312 Q1283.0258,326.3312 1283.4743,326.4516 Q1283.9336,326.5609 1284.3165,326.8125 Z " fill="#000000"/><text fill="#000000" font-family="sans-serif" font-size="9.8" lengthAdjust="spacing" textLength="68.0976" x="1296.7305" y="333.7578">BuildingMapper</text><line style="stroke:#181818;stroke-width:0.3499999999999999;" x1="1227.8" x2="1411.0086" y1="340.9" y2="340.9"/><line style="stroke:#181818;stroke-width:0.3499999999999999;" x1="1227.8" x2="1411.0086" y1="346.5" y2="346.5"/><text fill="#000000" font-family="sans-serif" font-size="9.8" lengthAdjust="spacing" textLength="176.2086" x="1231.3" y="359.8752">+toDTO(building: Building): BuildingDTO</text></g><!--class StationMapper--><g id="elem_StationMapper"><rect codeLine="73" fill="#F1F1F1" height="46.6348" id="StationMapper" rx="1.75" ry="1.75" style="stroke:#181818;stroke-width:0.3499999999999999;" width="197.6721" x="1205.4" y="145.25"/><ellipse cx="1269.3919" cy="156.45" fill="#C2C2C2" rx="7.7" ry="7.7" style="stroke:#181818;stroke-width:0.6999999999999998;"/><path d="M1271.3278,153.5625 Q1271.4372,153.4094 1271.5685,153.3328 Q1271.6997,153.2562 1271.8528,153.2562 Q1272.1153,153.2562 1272.2794,153.4422 Q1272.4435,153.6172 1272.4435,154.0437 L1272.4435,155.0609 Q1272.4435,155.4875 1272.2794,155.6734 Q1272.1153,155.8594 1271.8528,155.8594 Q1271.6122,155.8594 1271.47,155.7172 Q1271.3278,155.5859 1271.2513,155.225 Q1271.2185,154.9734 1271.0872,154.8422 Q1270.8575,154.5797 1270.431,154.4266 Q1270.0044,154.2734 1269.5669,154.2734 Q1269.031,154.2734 1268.5825,154.5031 Q1268.145,154.7328 1267.795,155.2578 Q1267.456,155.7828 1267.456,156.5047 L1267.456,157.2703 Q1267.456,158.1344 1268.0794,158.7141 Q1268.7028,159.2828 1269.8185,159.2828 Q1270.4747,159.2828 1270.9341,159.1078 Q1271.2075,158.9984 1271.5028,158.6922 Q1271.6888,158.5062 1271.7872,158.4516 Q1271.8966,158.3969 1272.0388,158.3969 Q1272.2685,158.3969 1272.4435,158.5828 Q1272.6294,158.7578 1272.6294,158.9984 Q1272.6294,159.2391 1272.3888,159.5234 Q1272.0388,159.9281 1271.481,160.1578 Q1270.7263,160.475 1269.8185,160.475 Q1268.7575,160.475 1267.9153,160.0375 Q1267.2263,159.6875 1266.745,158.9437 Q1266.2638,158.1891 1266.2638,157.2922 L1266.2638,156.4828 Q1266.2638,155.5531 1266.6903,154.7547 Q1267.1278,153.9453 1267.8935,153.5187 Q1268.6591,153.0812 1269.5231,153.0812 Q1270.0372,153.0812 1270.4856,153.2016 Q1270.945,153.3109 1271.3278,153.5625 Z " fill="#000000"/><text fill="#000000" font-family="sans-serif" font-size="9.8" lengthAdjust="spacing" textLength="63.7383" x="1283.7419" y="160.5078">StationMapper</text><line style="stroke:#181818;stroke-width:0.3499999999999999;" x1="1206.1" x2="1402.3721" y1="167.65" y2="167.65"/><line style="stroke:#181818;stroke-width:0.3499999999999999;" x1="1206.1" x2="1402.3721" y1="173.25" y2="173.25"/><text fill="#000000" font-family="sans-serif" font-size="9.8" lengthAdjust="spacing" textLength="189.2721" x="1209.6" y="186.6252">+toModel(stationDTO: StationDTO): Station</text></g><!--class StationTypeRepository--><g id="elem_StationTypeRepository"><rect codeLine="77" fill="#F1F1F1" height="46.6348" id="StationTypeRepository" rx="1.75" ry="1.75" style="stroke:#181818;stroke-width:0.3499999999999999;" width="201.505" x="4.9" y="465.85"/><ellipse cx="53.1081" cy="477.05" fill="#C2C2C2" rx="7.7" ry="7.7" style="stroke:#181818;stroke-width:0.6999999999999998;"/><path d="M55.044,474.1625 Q55.1534,474.0094 55.2846,473.9328 Q55.4159,473.8562 55.569,473.8562 Q55.8315,473.8562 55.9956,474.0422 Q56.1596,474.2172 56.1596,474.6437 L56.1596,475.6609 Q56.1596,476.0875 55.9956,476.2734 Q55.8315,476.4594 55.569,476.4594 Q55.3284,476.4594 55.1862,476.3172 Q55.044,476.1859 54.9674,475.825 Q54.9346,475.5734 54.8034,475.4422 Q54.5737,475.1797 54.1471,475.0266 Q53.7206,474.8734 53.2831,474.8734 Q52.7471,474.8734 52.2987,475.1031 Q51.8612,475.3328 51.5112,475.8578 Q51.1721,476.3828 51.1721,477.1047 L51.1721,477.8703 Q51.1721,478.7344 51.7956,479.3141 Q52.419,479.8828 53.5346,479.8828 Q54.1909,479.8828 54.6502,479.7078 Q54.9237,479.5984 55.219,479.2922 Q55.4049,479.1062 55.5034,479.0516 Q55.6127,478.9969 55.7549,478.9969 Q55.9846,478.9969 56.1596,479.1828 Q56.3456,479.3578 56.3456,479.5984 Q56.3456,479.8391 56.1049,480.1234 Q55.7549,480.5281 55.1971,480.7578 Q54.4424,481.075 53.5346,481.075 Q52.4737,481.075 51.6315,480.6375 Q50.9424,480.2875 50.4612,479.5437 Q49.9799,478.7891 49.9799,477.8922 L49.9799,477.0828 Q49.9799,476.1531 50.4065,475.3547 Q50.844,474.5453 51.6096,474.1187 Q52.3752,473.6812 53.2393,473.6812 Q53.7534,473.6812 54.2018,473.8016 Q54.6612,473.9109 55.044,474.1625 Z " fill="#000000"/><text fill="#000000" font-family="sans-serif" font-size="9.8" lengthAdjust="spacing" textLength="99.1389" x="67.4581" y="481.1078">StationTypeRepository</text><line style="stroke:#181818;stroke-width:0.3499999999999999;" x1="5.6" x2="205.705" y1="488.25" y2="488.25"/><line style="stroke:#181818;stroke-width:0.3499999999999999;" x1="5.6" x2="205.705" y1="493.85" y2="493.85"/><text fill="#000000" font-family="sans-serif" font-size="9.8" lengthAdjust="spacing" textLength="193.105" x="9.1" y="507.2252">+getListOfStationTypes(): List&lt;StationType&gt;</text></g><!--class BuildingRepository--><g id="elem_BuildingRepository"><rect codeLine="81" fill="#F1F1F1" height="46.6348" id="BuildingRepository" rx="1.75" ry="1.75" style="stroke:#181818;stroke-width:0.3499999999999999;" width="166.6499" x="231" y="465.85"/><ellipse cx="270.4943" cy="477.05" fill="#C2C2C2" rx="7.7" ry="7.7" style="stroke:#181818;stroke-width:0.6999999999999998;"/><path d="M272.4302,474.1625 Q272.5396,474.0094 272.6708,473.9328 Q272.8021,473.8562 272.9552,473.8562 Q273.2177,473.8562 273.3818,474.0422 Q273.5458,474.2172 273.5458,474.6437 L273.5458,475.6609 Q273.5458,476.0875 273.3818,476.2734 Q273.2177,476.4594 272.9552,476.4594 Q272.7146,476.4594 272.5724,476.3172 Q272.4302,476.1859 272.3537,475.825 Q272.3208,475.5734 272.1896,475.4422 Q271.9599,475.1797 271.5333,475.0266 Q271.1068,474.8734 270.6693,474.8734 Q270.1333,474.8734 269.6849,475.1031 Q269.2474,475.3328 268.8974,475.8578 Q268.5583,476.3828 268.5583,477.1047 L268.5583,477.8703 Q268.5583,478.7344 269.1818,479.3141 Q269.8052,479.8828 270.9208,479.8828 Q271.5771,479.8828 272.0365,479.7078 Q272.3099,479.5984 272.6052,479.2922 Q272.7912,479.1062 272.8896,479.0516 Q272.999,478.9969 273.1412,478.9969 Q273.3708,478.9969 273.5458,479.1828 Q273.7318,479.3578 273.7318,479.5984 Q273.7318,479.8391 273.4912,480.1234 Q273.1412,480.5281 272.5833,480.7578 Q271.8287,481.075 270.9208,481.075 Q269.8599,481.075 269.0177,480.6375 Q268.3287,480.2875 267.8474,479.5437 Q267.3662,478.7891 267.3662,477.8922 L267.3662,477.0828 Q267.3662,476.1531 267.7927,475.3547 Q268.2302,474.5453 268.9958,474.1187 Q269.7615,473.6812 270.6255,473.6812 Q271.1396,473.6812 271.588,473.8016 Q272.0474,473.9109 272.4302,474.1625 Z " fill="#000000"/><text fill="#000000" font-family="sans-serif" font-size="9.8" lengthAdjust="spacing" textLength="81.7113" x="284.8443" y="481.1078">BuildingRepository</text><line style="stroke:#181818;stroke-width:0.3499999999999999;" x1="231.7" x2="396.9499" y1="488.25" y2="488.25"/><line style="stroke:#181818;stroke-width:0.3499999999999999;" x1="231.7" x2="396.9499" y1="493.85" y2="493.85"/><text fill="#000000" font-family="sans-serif" font-size="9.8" lengthAdjust="spacing" textLength="158.2499" x="235.2" y="507.2252">+getListOfBuildings(): List&lt;Building&gt;</text></g><!--class MapRepository--><g id="elem_MapRepository"><rect codeLine="85" fill="#F1F1F1" height="59.6695" id="MapRepository" rx="1.75" ry="1.75" style="stroke:#181818;stroke-width:0.3499999999999999;" width="224.9235" x="422.45" y="459.55"/><ellipse cx="498.9838" cy="470.75" fill="#C2C2C2" rx="7.7" ry="7.7" style="stroke:#181818;stroke-width:0.6999999999999998;"/><path d="M500.9197,467.8625 Q501.0291,467.7094 501.1604,467.6328 Q501.2916,467.5562 501.4447,467.5562 Q501.7072,467.5562 501.8713,467.7422 Q502.0354,467.9172 502.0354,468.3437 L502.0354,469.3609 Q502.0354,469.7875 501.8713,469.9734 Q501.7072,470.1594 501.4447,470.1594 Q501.2041,470.1594 501.0619,470.0172 Q500.9197,469.8859 500.8432,469.525 Q500.8104,469.2734 500.6791,469.1422 Q500.4494,468.8797 500.0229,468.7266 Q499.5963,468.5734 499.1588,468.5734 Q498.6229,468.5734 498.1744,468.8031 Q497.7369,469.0328 497.3869,469.5578 Q497.0479,470.0828 497.0479,470.8047 L497.0479,471.5703 Q497.0479,472.4344 497.6713,473.0141 Q498.2947,473.5828 499.4104,473.5828 Q500.0666,473.5828 500.526,473.4078 Q500.7994,473.2984 501.0947,472.9922 Q501.2807,472.8062 501.3791,472.7516 Q501.4885,472.6969 501.6307,472.6969 Q501.8604,472.6969 502.0354,472.8828 Q502.2213,473.0578 502.2213,473.2984 Q502.2213,473.5391 501.9807,473.8234 Q501.6307,474.2281 501.0729,474.4578 Q500.3182,474.775 499.4104,474.775 Q498.3494,474.775 497.5072,474.3375 Q496.8182,473.9875 496.3369,473.2437 Q495.8557,472.4891 495.8557,471.5922 L495.8557,470.7828 Q495.8557,469.8531 496.2822,469.0547 Q496.7197,468.2453 497.4854,467.8187 Q498.251,467.3812 499.115,467.3812 Q499.6291,467.3812 500.0775,467.5016 Q500.5369,467.6109 500.9197,467.8625 Z " fill="#000000"/><text fill="#000000" font-family="sans-serif" font-size="9.8" lengthAdjust="spacing" textLength="65.906" x="513.3338" y="474.8078">MapRepository</text><line style="stroke:#181818;stroke-width:0.3499999999999999;" x1="423.15" x2="646.6735" y1="481.95" y2="481.95"/><line style="stroke:#181818;stroke-width:0.3499999999999999;" x1="423.15" x2="646.6735" y1="487.55" y2="487.55"/><text fill="#000000" font-family="sans-serif" font-size="9.8" lengthAdjust="spacing" textLength="124.9931" x="426.65" y="500.9252">+getListOfCities(): List&lt;City&gt;</text><text fill="#000000" font-family="sans-serif" font-size="9.8" lengthAdjust="spacing" textLength="216.5235" x="426.65" y="513.96">+createStation(stationDTO: StationDTO): boolean</text></g><!--class Repositories--><g id="elem_Repositories"><rect codeLine="90" fill="#F1F1F1" height="85.7391" id="Repositories" rx="1.75" ry="1.75" style="stroke:#181818;stroke-width:0.3499999999999999;" width="237.9966" x="314.3" y="299.25"/><ellipse cx="403.0886" cy="310.45" fill="#C2C2C2" rx="7.7" ry="7.7" style="stroke:#181818;stroke-width:0.6999999999999998;"/><path d="M405.0245,307.5625 Q405.1339,307.4094 405.2651,307.3328 Q405.3964,307.2562 405.5495,307.2562 Q405.812,307.2562 405.9761,307.4422 Q406.1401,307.6172 406.1401,308.0437 L406.1401,309.0609 Q406.1401,309.4875 405.9761,309.6734 Q405.812,309.8594 405.5495,309.8594 Q405.3089,309.8594 405.1667,309.7172 Q405.0245,309.5859 404.9479,309.225 Q404.9151,308.9734 404.7839,308.8422 Q404.5542,308.5797 404.1276,308.4266 Q403.7011,308.2734 403.2636,308.2734 Q402.7276,308.2734 402.2792,308.5031 Q401.8417,308.7328 401.4917,309.2578 Q401.1526,309.7828 401.1526,310.5047 L401.1526,311.2703 Q401.1526,312.1344 401.7761,312.7141 Q402.3995,313.2828 403.5151,313.2828 Q404.1714,313.2828 404.6308,313.1078 Q404.9042,312.9984 405.1995,312.6922 Q405.3854,312.5062 405.4839,312.4516 Q405.5933,312.3969 405.7354,312.3969 Q405.9651,312.3969 406.1401,312.5828 Q406.3261,312.7578 406.3261,312.9984 Q406.3261,313.2391 406.0854,313.5234 Q405.7354,313.9281 405.1776,314.1578 Q404.4229,314.475 403.5151,314.475 Q402.4542,314.475 401.612,314.0375 Q400.9229,313.6875 400.4417,312.9437 Q399.9604,312.1891 399.9604,311.2922 L399.9604,310.4828 Q399.9604,309.5531 400.387,308.7547 Q400.8245,307.9453 401.5901,307.5187 Q402.3558,307.0812 403.2198,307.0812 Q403.7339,307.0812 404.1823,307.2016 Q404.6417,307.3109 405.0245,307.5625 Z " fill="#000000"/><text fill="#000000" font-family="sans-serif" font-size="9.8" lengthAdjust="spacing" textLength="54.4694" x="417.4386" y="314.5078">Repositories</text><line style="stroke:#181818;stroke-width:0.3499999999999999;" x1="315" x2="551.5966" y1="321.65" y2="321.65"/><line style="stroke:#181818;stroke-width:0.3499999999999999;" x1="315" x2="551.5966" y1="327.25" y2="327.25"/><text fill="#000000" font-family="sans-serif" font-size="9.8" lengthAdjust="spacing" text-decoration="underline" textLength="122.835" x="318.5" y="340.6252">+getInstance(): Repositories</text><text fill="#000000" font-family="sans-serif" font-size="9.8" lengthAdjust="spacing" textLength="229.5966" x="318.5" y="353.66">+getStationTypeRepository(): StationTypeRepository</text><text fill="#000000" font-family="sans-serif" font-size="9.8" lengthAdjust="spacing" textLength="194.7415" x="318.5" y="366.6947">+getBuildingRepository(): BuildingRepository</text><text fill="#000000" font-family="sans-serif" font-size="9.8" lengthAdjust="spacing" textLength="163.1308" x="318.5" y="379.7295">+getMapRepository(): MapRepository</text></g><!--class StationTypes--><g id="elem_StationTypes"><rect codeLine="97" fill="#F1F1F1" height="46.6348" id="StationTypes" rx="1.75" ry="1.75" style="stroke:#181818;stroke-width:0.3499999999999999;" width="201.505" x="4.9" y="574"/><ellipse cx="74.079" cy="585.2" fill="#C2C2C2" rx="7.7" ry="7.7" style="stroke:#181818;stroke-width:0.6999999999999998;"/><path d="M76.0149,582.3125 Q76.1243,582.1594 76.2556,582.0828 Q76.3868,582.0062 76.5399,582.0062 Q76.8024,582.0062 76.9665,582.1922 Q77.1306,582.3672 77.1306,582.7937 L77.1306,583.8109 Q77.1306,584.2375 76.9665,584.4234 Q76.8024,584.6094 76.5399,584.6094 Q76.2993,584.6094 76.1571,584.4672 Q76.0149,584.3359 75.9384,583.975 Q75.9056,583.7234 75.7743,583.5922 Q75.5446,583.3297 75.1181,583.1766 Q74.6915,583.0234 74.254,583.0234 Q73.7181,583.0234 73.2696,583.2531 Q72.8321,583.4828 72.4821,584.0078 Q72.1431,584.5328 72.1431,585.2547 L72.1431,586.0203 Q72.1431,586.8844 72.7665,587.4641 Q73.3899,588.0328 74.5056,588.0328 Q75.1618,588.0328 75.6212,587.8578 Q75.8946,587.7484 76.1899,587.4422 Q76.3759,587.2562 76.4743,587.2016 Q76.5837,587.1469 76.7259,587.1469 Q76.9556,587.1469 77.1306,587.3328 Q77.3165,587.5078 77.3165,587.7484 Q77.3165,587.9891 77.0759,588.2734 Q76.7259,588.6781 76.1681,588.9078 Q75.4134,589.225 74.5056,589.225 Q73.4446,589.225 72.6024,588.7875 Q71.9134,588.4375 71.4321,587.6937 Q70.9509,586.9391 70.9509,586.0422 L70.9509,585.2328 Q70.9509,584.3031 71.3774,583.5047 Q71.8149,582.6953 72.5806,582.2687 Q73.3462,581.8312 74.2103,581.8312 Q74.7243,581.8312 75.1728,581.9516 Q75.6321,582.0609 76.0149,582.3125 Z " fill="#000000"/><text fill="#000000" font-family="sans-serif" font-size="9.8" lengthAdjust="spacing" textLength="57.197" x="88.429" y="589.2578">StationTypes</text><line style="stroke:#181818;stroke-width:0.3499999999999999;" x1="5.6" x2="205.705" y1="596.4" y2="596.4"/><line style="stroke:#181818;stroke-width:0.3499999999999999;" x1="5.6" x2="205.705" y1="602" y2="602"/><text fill="#000000" font-family="sans-serif" font-size="9.8" lengthAdjust="spacing" textLength="193.105" x="9.1" y="615.3752">+getListOfStationTypes(): List&lt;StationType&gt;</text></g><!--class Buildings--><g id="elem_Buildings"><rect codeLine="101" fill="#F1F1F1" height="46.6348" id="Buildings" rx="1.75" ry="1.75" style="stroke:#181818;stroke-width:0.3499999999999999;" width="166.6499" x="231" y="574"/><ellipse cx="291.4652" cy="585.2" fill="#C2C2C2" rx="7.7" ry="7.7" style="stroke:#181818;stroke-width:0.6999999999999998;"/><path d="M293.4012,582.3125 Q293.5105,582.1594 293.6418,582.0828 Q293.773,582.0062 293.9262,582.0062 Q294.1887,582.0062 294.3527,582.1922 Q294.5168,582.3672 294.5168,582.7937 L294.5168,583.8109 Q294.5168,584.2375 294.3527,584.4234 Q294.1887,584.6094 293.9262,584.6094 Q293.6855,584.6094 293.5434,584.4672 Q293.4012,584.3359 293.3246,583.975 Q293.2918,583.7234 293.1605,583.5922 Q292.9309,583.3297 292.5043,583.1766 Q292.0777,583.0234 291.6402,583.0234 Q291.1043,583.0234 290.6559,583.2531 Q290.2184,583.4828 289.8684,584.0078 Q289.5293,584.5328 289.5293,585.2547 L289.5293,586.0203 Q289.5293,586.8844 290.1527,587.4641 Q290.7762,588.0328 291.8918,588.0328 Q292.548,588.0328 293.0074,587.8578 Q293.2809,587.7484 293.5762,587.4422 Q293.7621,587.2562 293.8605,587.2016 Q293.9699,587.1469 294.1121,587.1469 Q294.3418,587.1469 294.5168,587.3328 Q294.7027,587.5078 294.7027,587.7484 Q294.7027,587.9891 294.4621,588.2734 Q294.1121,588.6781 293.5543,588.9078 Q292.7996,589.225 291.8918,589.225 Q290.8309,589.225 289.9887,588.7875 Q289.2996,588.4375 288.8184,587.6937 Q288.3371,586.9391 288.3371,586.0422 L288.3371,585.2328 Q288.3371,584.3031 288.7637,583.5047 Q289.2012,582.6953 289.9668,582.2687 Q290.7324,581.8312 291.5965,581.8312 Q292.1105,581.8312 292.559,581.9516 Q293.0184,582.0609 293.4012,582.3125 Z " fill="#000000"/><text fill="#000000" font-family="sans-serif" font-size="9.8" lengthAdjust="spacing" textLength="39.7694" x="305.8152" y="589.2578">Buildings</text><line style="stroke:#181818;stroke-width:0.3499999999999999;" x1="231.7" x2="396.9499" y1="596.4" y2="596.4"/><line style="stroke:#181818;stroke-width:0.3499999999999999;" x1="231.7" x2="396.9499" y1="602" y2="602"/><text fill="#000000" font-family="sans-serif" font-size="9.8" lengthAdjust="spacing" textLength="158.2499" x="235.2" y="615.3752">+getListOfBuildings(): List&lt;Building&gt;</text></g><!--class Maps--><g id="elem_Maps"><rect codeLine="105" fill="#F1F1F1" height="59.6695" id="Maps" rx="1.75" ry="1.75" style="stroke:#181818;stroke-width:0.3499999999999999;" width="224.9235" x="422.45" y="567.7"/><ellipse cx="519.9547" cy="578.9" fill="#C2C2C2" rx="7.7" ry="7.7" style="stroke:#181818;stroke-width:0.6999999999999998;"/><path d="M521.8907,576.0125 Q522,575.8594 522.1313,575.7828 Q522.2625,575.7062 522.4157,575.7062 Q522.6782,575.7062 522.8422,575.8922 Q523.0063,576.0672 523.0063,576.4937 L523.0063,577.5109 Q523.0063,577.9375 522.8422,578.1234 Q522.6782,578.3094 522.4157,578.3094 Q522.175,578.3094 522.0329,578.1672 Q521.8907,578.0359 521.8141,577.675 Q521.7813,577.4234 521.65,577.2922 Q521.4204,577.0297 520.9938,576.8766 Q520.5672,576.7234 520.1297,576.7234 Q519.5938,576.7234 519.1454,576.9531 Q518.7079,577.1828 518.3579,577.7078 Q518.0188,578.2328 518.0188,578.9547 L518.0188,579.7203 Q518.0188,580.5844 518.6422,581.1641 Q519.2657,581.7328 520.3813,581.7328 Q521.0375,581.7328 521.4969,581.5578 Q521.7704,581.4484 522.0657,581.1422 Q522.2516,580.9562 522.35,580.9016 Q522.4594,580.8469 522.6016,580.8469 Q522.8313,580.8469 523.0063,581.0328 Q523.1922,581.2078 523.1922,581.4484 Q523.1922,581.6891 522.9516,581.9734 Q522.6016,582.3781 522.0438,582.6078 Q521.2891,582.925 520.3813,582.925 Q519.3204,582.925 518.4782,582.4875 Q517.7891,582.1375 517.3079,581.3937 Q516.8266,580.6391 516.8266,579.7422 L516.8266,578.9328 Q516.8266,578.0031 517.2532,577.2047 Q517.6907,576.3953 518.4563,575.9687 Q519.2219,575.5312 520.086,575.5312 Q520.6,575.5312 521.0485,575.6516 Q521.5079,575.7609 521.8907,576.0125 Z " fill="#000000"/><text fill="#000000" font-family="sans-serif" font-size="9.8" lengthAdjust="spacing" textLength="23.9641" x="534.3047" y="582.9578">Maps</text><line style="stroke:#181818;stroke-width:0.3499999999999999;" x1="423.15" x2="646.6735" y1="590.1" y2="590.1"/><line style="stroke:#181818;stroke-width:0.3499999999999999;" x1="423.15" x2="646.6735" y1="595.7" y2="595.7"/><text fill="#000000" font-family="sans-serif" font-size="9.8" lengthAdjust="spacing" textLength="124.9931" x="426.65" y="609.0752">+getListOfCities(): List&lt;City&gt;</text><text fill="#000000" font-family="sans-serif" font-size="9.8" lengthAdjust="spacing" textLength="216.5235" x="426.65" y="622.11">+createStation(stationDTO: StationDTO): boolean</text></g><!--class Map--><g id="elem_Map"><rect codeLine="110" fill="#F1F1F1" height="59.6695" id="Map" rx="1.75" ry="1.75" style="stroke:#181818;stroke-width:0.3499999999999999;" width="224.9235" x="422.45" y="669.2"/><ellipse cx="522.4047" cy="680.4" fill="#C2C2C2" rx="7.7" ry="7.7" style="stroke:#181818;stroke-width:0.6999999999999998;"/><path d="M524.3407,677.5125 Q524.45,677.3594 524.5813,677.2828 Q524.7125,677.2062 524.8657,677.2062 Q525.1282,677.2062 525.2922,677.3922 Q525.4563,677.5672 525.4563,677.9937 L525.4563,679.0109 Q525.4563,679.4375 525.2922,679.6234 Q525.1282,679.8094 524.8657,679.8094 Q524.625,679.8094 524.4829,679.6672 Q524.3407,679.5359 524.2641,679.175 Q524.2313,678.9234 524.1,678.7922 Q523.8704,678.5297 523.4438,678.3766 Q523.0172,678.2234 522.5797,678.2234 Q522.0438,678.2234 521.5954,678.4531 Q521.1579,678.6828 520.8079,679.2078 Q520.4688,679.7328 520.4688,680.4547 L520.4688,681.2203 Q520.4688,682.0844 521.0922,682.6641 Q521.7157,683.2328 522.8313,683.2328 Q523.4875,683.2328 523.9469,683.0578 Q524.2204,682.9484 524.5157,682.6422 Q524.7016,682.4562 524.8,682.4016 Q524.9094,682.3469 525.0516,682.3469 Q525.2813,682.3469 525.4563,682.5328 Q525.6422,682.7078 525.6422,682.9484 Q525.6422,683.1891 525.4016,683.4734 Q525.0516,683.8781 524.4938,684.1078 Q523.7391,684.425 522.8313,684.425 Q521.7704,684.425 520.9282,683.9875 Q520.2391,683.6375 519.7579,682.8937 Q519.2766,682.1391 519.2766,681.2422 L519.2766,680.4328 Q519.2766,679.5031 519.7032,678.7047 Q520.1407,677.8953 520.9063,677.4687 Q521.6719,677.0312 522.536,677.0312 Q523.05,677.0312 523.4985,677.1516 Q523.9579,677.2609 524.3407,677.5125 Z " fill="#000000"/><text fill="#000000" font-family="sans-serif" font-size="9.8" lengthAdjust="spacing" textLength="19.0641" x="536.7547" y="684.4578">Map</text><line style="stroke:#181818;stroke-width:0.3499999999999999;" x1="423.15" x2="646.6735" y1="691.6" y2="691.6"/><line style="stroke:#181818;stroke-width:0.3499999999999999;" x1="423.15" x2="646.6735" y1="697.2" y2="697.2"/><text fill="#000000" font-family="sans-serif" font-size="9.8" lengthAdjust="spacing" textLength="124.9931" x="426.65" y="710.5752">+getListOfCities(): List&lt;City&gt;</text><text fill="#000000" font-family="sans-serif" font-size="9.8" lengthAdjust="spacing" textLength="216.5235" x="426.65" y="723.61">+createStation(stationDTO: StationDTO): boolean</text></g><!--class Scenarios--><g id="elem_Scenarios"><rect codeLine="115" fill="#F1F1F1" height="46.6348" id="Scenarios" rx="1.75" ry="1.75" style="stroke:#181818;stroke-width:0.3499999999999999;" width="224.9235" x="320.95" y="770.7"/><ellipse cx="408.6476" cy="781.9" fill="#C2C2C2" rx="7.7" ry="7.7" style="stroke:#181818;stroke-width:0.6999999999999998;"/><path d="M410.5835,779.0125 Q410.6929,778.8594 410.8241,778.7828 Q410.9554,778.7062 411.1085,778.7062 Q411.371,778.7062 411.5351,778.8922 Q411.6991,779.0672 411.6991,779.4937 L411.6991,780.5109 Q411.6991,780.9375 411.5351,781.1234 Q411.371,781.3094 411.1085,781.3094 Q410.8679,781.3094 410.7257,781.1672 Q410.5835,781.0359 410.5069,780.675 Q410.4741,780.4234 410.3429,780.2922 Q410.1132,780.0297 409.6866,779.8766 Q409.2601,779.7234 408.8226,779.7234 Q408.2866,779.7234 407.8382,779.9531 Q407.4007,780.1828 407.0507,780.7078 Q406.7116,781.2328 406.7116,781.9547 L406.7116,782.7203 Q406.7116,783.5844 407.3351,784.1641 Q407.9585,784.7328 409.0741,784.7328 Q409.7304,784.7328 410.1897,784.5578 Q410.4632,784.4484 410.7585,784.1422 Q410.9444,783.9562 411.0429,783.9016 Q411.1522,783.8469 411.2944,783.8469 Q411.5241,783.8469 411.6991,784.0328 Q411.8851,784.2078 411.8851,784.4484 Q411.8851,784.6891 411.6444,784.9734 Q411.2944,785.3781 410.7366,785.6078 Q409.9819,785.925 409.0741,785.925 Q408.0132,785.925 407.171,785.4875 Q406.4819,785.1375 406.0007,784.3937 Q405.5194,783.6391 405.5194,782.7422 L405.5194,781.9328 Q405.5194,781.0031 405.946,780.2047 Q406.3835,779.3953 407.1491,778.9687 Q407.9147,778.5312 408.7788,778.5312 Q409.2929,778.5312 409.7413,778.6516 Q410.2007,778.7609 410.5835,779.0125 Z " fill="#000000"/><text fill="#000000" font-family="sans-serif" font-size="9.8" lengthAdjust="spacing" textLength="43.5784" x="422.9976" y="785.9578">Scenarios</text><line style="stroke:#181818;stroke-width:0.3499999999999999;" x1="321.65" x2="545.1735" y1="793.1" y2="793.1"/><line style="stroke:#181818;stroke-width:0.3499999999999999;" x1="321.65" x2="545.1735" y1="798.7" y2="798.7"/><text fill="#000000" font-family="sans-serif" font-size="9.8" lengthAdjust="spacing" textLength="216.5235" x="325.15" y="812.0752">+createStation(stationDTO: StationDTO): boolean</text></g><!--class Scenario--><g id="elem_Scenario"><rect codeLine="119" fill="#F1F1F1" height="46.6348" id="Scenario" rx="1.75" ry="1.75" style="stroke:#181818;stroke-width:0.3499999999999999;" width="224.9235" x="320.95" y="859.6"/><ellipse cx="411.0976" cy="870.8" fill="#C2C2C2" rx="7.7" ry="7.7" style="stroke:#181818;stroke-width:0.6999999999999998;"/><path d="M413.0335,867.9125 Q413.1429,867.7594 413.2741,867.6828 Q413.4054,867.6062 413.5585,867.6062 Q413.821,867.6062 413.9851,867.7922 Q414.1491,867.9672 414.1491,868.3937 L414.1491,869.4109 Q414.1491,869.8375 413.9851,870.0234 Q413.821,870.2094 413.5585,870.2094 Q413.3179,870.2094 413.1757,870.0672 Q413.0335,869.9359 412.9569,869.575 Q412.9241,869.3234 412.7929,869.1922 Q412.5632,868.9297 412.1366,868.7766 Q411.7101,868.6234 411.2726,868.6234 Q410.7366,868.6234 410.2882,868.8531 Q409.8507,869.0828 409.5007,869.6078 Q409.1616,870.1328 409.1616,870.8547 L409.1616,871.6203 Q409.1616,872.4844 409.7851,873.0641 Q410.4085,873.6328 411.5241,873.6328 Q412.1804,873.6328 412.6397,873.4578 Q412.9132,873.3484 413.2085,873.0422 Q413.3944,872.8562 413.4929,872.8016 Q413.6022,872.7469 413.7444,872.7469 Q413.9741,872.7469 414.1491,872.9328 Q414.3351,873.1078 414.3351,873.3484 Q414.3351,873.5891 414.0944,873.8734 Q413.7444,874.2781 413.1866,874.5078 Q412.4319,874.825 411.5241,874.825 Q410.4632,874.825 409.621,874.3875 Q408.9319,874.0375 408.4507,873.2937 Q407.9694,872.5391 407.9694,871.6422 L407.9694,870.8328 Q407.9694,869.9031 408.396,869.1047 Q408.8335,868.2953 409.5991,867.8687 Q410.3647,867.4312 411.2288,867.4312 Q411.7429,867.4312 412.1913,867.5516 Q412.6507,867.6609 413.0335,867.9125 Z " fill="#000000"/><text fill="#000000" font-family="sans-serif" font-size="9.8" lengthAdjust="spacing" textLength="38.6784" x="425.4476" y="874.8578">Scenario</text><line style="stroke:#181818;stroke-width:0.3499999999999999;" x1="321.65" x2="545.1735" y1="882" y2="882"/><line style="stroke:#181818;stroke-width:0.3499999999999999;" x1="321.65" x2="545.1735" y1="887.6" y2="887.6"/><text fill="#000000" font-family="sans-serif" font-size="9.8" lengthAdjust="spacing" textLength="216.5235" x="325.15" y="900.9752">+createStation(stationDTO: StationDTO): boolean</text></g><!--class Stations--><g id="elem_Stations"><rect codeLine="123" fill="#F1F1F1" height="72.7043" id="Stations" rx="1.75" ry="1.75" style="stroke:#181818;stroke-width:0.3499999999999999;" width="224.9235" x="320.95" y="948.5"/><ellipse cx="412.7317" cy="959.7" fill="#C2C2C2" rx="7.7" ry="7.7" style="stroke:#181818;stroke-width:0.6999999999999998;"/><path d="M414.6676,956.8125 Q414.777,956.6594 414.9083,956.5828 Q415.0395,956.5062 415.1926,956.5062 Q415.4551,956.5062 415.6192,956.6922 Q415.7833,956.8672 415.7833,957.2937 L415.7833,958.3109 Q415.7833,958.7375 415.6192,958.9234 Q415.4551,959.1094 415.1926,959.1094 Q414.952,959.1094 414.8098,958.9672 Q414.6676,958.8359 414.5911,958.475 Q414.5583,958.2234 414.427,958.0922 Q414.1973,957.8297 413.7708,957.6766 Q413.3442,957.5234 412.9067,957.5234 Q412.3708,957.5234 411.9223,957.7531 Q411.4848,957.9828 411.1348,958.5078 Q410.7958,959.0328 410.7958,959.7547 L410.7958,960.5203 Q410.7958,961.3844 411.4192,961.9641 Q412.0426,962.5328 413.1583,962.5328 Q413.8145,962.5328 414.2739,962.3578 Q414.5473,962.2484 414.8426,961.9422 Q415.0286,961.7562 415.127,961.7016 Q415.2364,961.6469 415.3786,961.6469 Q415.6083,961.6469 415.7833,961.8328 Q415.9692,962.0078 415.9692,962.2484 Q415.9692,962.4891 415.7286,962.7734 Q415.3786,963.1781 414.8208,963.4078 Q414.0661,963.725 413.1583,963.725 Q412.0973,963.725 411.2551,963.2875 Q410.5661,962.9375 410.0848,962.1937 Q409.6036,961.4391 409.6036,960.5422 L409.6036,959.7328 Q409.6036,958.8031 410.0301,958.0047 Q410.4676,957.1953 411.2333,956.7687 Q411.9989,956.3312 412.8629,956.3312 Q413.377,956.3312 413.8254,956.4516 Q414.2848,956.5609 414.6676,956.8125 Z " fill="#000000"/><text fill="#000000" font-family="sans-serif" font-size="9.8" lengthAdjust="spacing" textLength="35.4102" x="427.0817" y="963.7578">Stations</text><line style="stroke:#181818;stroke-width:0.3499999999999999;" x1="321.65" x2="545.1735" y1="970.9" y2="970.9"/><line style="stroke:#181818;stroke-width:0.3499999999999999;" x1="321.65" x2="545.1735" y1="976.5" y2="976.5"/><text fill="#000000" font-family="sans-serif" font-size="9.8" lengthAdjust="spacing" textLength="216.5235" x="325.15" y="989.8752">+createStation(stationDTO: StationDTO): boolean</text><text fill="#000000" font-family="sans-serif" font-size="9.8" lengthAdjust="spacing" textLength="164.2648" x="325.15" y="1002.91">+addStation(station: Station): boolean</text><text fill="#000000" font-family="sans-serif" font-size="9.8" lengthAdjust="spacing" textLength="181.6924" x="325.15" y="1015.9447">+validateStation(station: Station): boolean</text></g><!--class Cities--><g id="elem_Cities"><rect codeLine="129" fill="#F1F1F1" height="46.6348" id="Cities" rx="1.75" ry="1.75" style="stroke:#181818;stroke-width:0.3499999999999999;" width="133.3931" x="570.15" y="770.7"/><ellipse cx="621.6191" cy="781.9" fill="#C2C2C2" rx="7.7" ry="7.7" style="stroke:#181818;stroke-width:0.6999999999999998;"/><path d="M623.5551,779.0125 Q623.6645,778.8594 623.7957,778.7828 Q623.927,778.7062 624.0801,778.7062 Q624.3426,778.7062 624.5066,778.8922 Q624.6707,779.0672 624.6707,779.4937 L624.6707,780.5109 Q624.6707,780.9375 624.5066,781.1234 Q624.3426,781.3094 624.0801,781.3094 Q623.8395,781.3094 623.6973,781.1672 Q623.5551,781.0359 623.4785,780.675 Q623.4457,780.4234 623.3145,780.2922 Q623.0848,780.0297 622.6582,779.8766 Q622.2316,779.7234 621.7941,779.7234 Q621.2582,779.7234 620.8098,779.9531 Q620.3723,780.1828 620.0223,780.7078 Q619.6832,781.2328 619.6832,781.9547 L619.6832,782.7203 Q619.6832,783.5844 620.3066,784.1641 Q620.9301,784.7328 622.0457,784.7328 Q622.702,784.7328 623.1613,784.5578 Q623.4348,784.4484 623.7301,784.1422 Q623.916,783.9562 624.0145,783.9016 Q624.1238,783.8469 624.266,783.8469 Q624.4957,783.8469 624.6707,784.0328 Q624.8566,784.2078 624.8566,784.4484 Q624.8566,784.6891 624.616,784.9734 Q624.266,785.3781 623.7082,785.6078 Q622.9535,785.925 622.0457,785.925 Q620.9848,785.925 620.1426,785.4875 Q619.4535,785.1375 618.9723,784.3937 Q618.491,783.6391 618.491,782.7422 L618.491,781.9328 Q618.491,781.0031 618.9176,780.2047 Q619.3551,779.3953 620.1207,778.9687 Q620.8863,778.5312 621.7504,778.5312 Q622.2645,778.5312 622.7129,778.6516 Q623.1723,778.7609 623.5551,779.0125 Z " fill="#000000"/><text fill="#000000" font-family="sans-serif" font-size="9.8" lengthAdjust="spacing" textLength="24.5048" x="635.9691" y="785.9578">Cities</text><line style="stroke:#181818;stroke-width:0.3499999999999999;" x1="570.85" x2="702.8431" y1="793.1" y2="793.1"/><line style="stroke:#181818;stroke-width:0.3499999999999999;" x1="570.85" x2="702.8431" y1="798.7" y2="798.7"/><text fill="#000000" font-family="sans-serif" font-size="9.8" lengthAdjust="spacing" textLength="124.9931" x="574.35" y="812.0752">+getListOfCities(): List&lt;City&gt;</text></g><!--link StationBuildingUI to StationBuildingController--><g id="link_StationBuildingUI_StationBuildingController"><path codeLine="134" d="M875,64.463 C875,76.818 875,87.521 875,102.116 " fill="none" id="StationBuildingUI-to-StationBuildingController" style="stroke:#181818;stroke-width:0.6999999999999998;"/><polygon fill="#181818" points="875,106.316,877.8,100.016,875,102.816,872.2,100.016,875,106.316" style="stroke:#181818;stroke-width:0.6999999999999998;"/></g><!--link StationBuildingController to StationDTO--><g id="link_StationBuildingController_StationDTO"><path codeLine="135" d="M936.173,231.196 C949.501,244.671 960.7354,256.015 974.3154,269.735 " fill="none" id="StationBuildingController-to-StationDTO" style="stroke:#181818;stroke-width:0.6999999999999998;"/><polygon fill="#181818" points="977.27,272.72,974.8282,266.2727,974.8079,270.2325,970.8481,270.2122,977.27,272.72" style="stroke:#181818;stroke-width:0.6999999999999998;"/></g><!--link StationBuildingController to Position--><g id="link_StationBuildingController_Position"><path codeLine="136" d="M887.915,231.28 C902.846,302.834 925.4,410.9 925.4,410.9 C925.4,410.9 948.6107,429.7039 973.7337,450.0599 " fill="none" id="StationBuildingController-to-Position" style="stroke:#181818;stroke-width:0.6999999999999998;"/><polygon fill="#181818" points="976.997,452.704,973.8648,446.5624,974.2776,450.5006,970.3394,450.9134,976.997,452.704" style="stroke:#181818;stroke-width:0.6999999999999998;"/></g><!--link StationBuildingController to StationTypeDTO--><g id="link_StationBuildingController_StationTypeDTO"><path codeLine="137" d="M870.261,231.133 C864.759,302.813 856.2884,413.1943 852.5714,461.6203 " fill="none" id="StationBuildingController-to-StationTypeDTO" style="stroke:#181818;stroke-width:0.6999999999999998;"/><polygon fill="#181818" points="852.25,465.808,855.5239,459.7408,852.5179,462.3183,849.9404,459.3122,852.25,465.808" style="stroke:#181818;stroke-width:0.6999999999999998;"/></g><!--link StationBuildingController to BuildingDTO--><g id="link_StationBuildingController_BuildingDTO"><path codeLine="138" d="M1004.857,215.824 C1081.955,243.383 1164.8,273 1164.8,273 C1164.8,273 1180.3567,406.0704 1186.8387,461.5594 " fill="none" id="StationBuildingController-to-BuildingDTO" style="stroke:#181818;stroke-width:0.6999999999999998;"/><polygon fill="#181818" points="1187.326,465.731,1189.3761,459.1487,1186.9199,462.2546,1183.8139,459.7984,1187.326,465.731" style="stroke:#181818;stroke-width:0.6999999999999998;"/></g><!--link StationBuildingController to City--><g id="link_StationBuildingController_City"><path codeLine="139" d="M745.087,192.878 C575.953,223.44 301.7,273 301.7,273 C301.7,273 284.597,290.5508 266.523,309.1008 " fill="none" id="StationBuildingController-to-City" style="stroke:#181818;stroke-width:0.6999999999999998;"/><polygon fill="#181818" points="263.592,312.109,269.994,309.5507,266.0345,309.6022,265.983,305.6427,263.592,312.109" style="stroke:#181818;stroke-width:0.6999999999999998;"/></g><!--link StationBuildingController to Repositories--><g id="link_StationBuildingController_Repositories"><path codeLine="140" d="M745.059,212.807 C660.142,241.178 564.9,273 564.9,273 C564.9,273 545.2062,283.211 518.1232,297.26 " fill="none" id="StationBuildingController-to-Repositories" style="stroke:#181818;stroke-width:0.6999999999999998;"/><polygon fill="#181818" points="514.395,299.194,521.2767,298.7785,517.5019,297.5824,518.698,293.8075,514.395,299.194" style="stroke:#181818;stroke-width:0.6999999999999998;"/></g><!--link StationDTO to Position--><g id="link_StationDTO_Position"><path codeLine="142" d="M1033.97,410.921 C1031.604,425.39 1029.8875,435.959 1027.8155,448.636 " fill="none" id="StationDTO-to-Position" style="stroke:#181818;stroke-width:0.6999999999999998;"/><polygon fill="#181818" points="1027.138,452.781,1030.9176,447.0152,1027.7026,449.3268,1025.3909,446.1118,1027.138,452.781" style="stroke:#181818;stroke-width:0.6999999999999998;"/></g><!--link StationDTO to StationTypeDTO--><g id="link_StationDTO_StationTypeDTO"><path codeLine="143" d="M954.065,410.921 C927.752,430.661 904.1904,448.3366 884.3874,463.1836 " fill="none" id="StationDTO-to-StationTypeDTO" style="stroke:#181818;stroke-width:0.6999999999999998;"/><polygon fill="#181818" points="881.027,465.703,887.7473,464.1641,883.8274,463.6035,884.388,459.6836,881.027,465.703" style="stroke:#181818;stroke-width:0.6999999999999998;"/></g><!--link StationDTO to BuildingDTO--><g id="link_StationDTO_BuildingDTO"><path codeLine="144" d="M1112.881,410.921 C1132.474,430.661 1149.562,447.8763 1164.311,462.7233 " fill="none" id="StationDTO-to-BuildingDTO" style="stroke:#181818;stroke-width:0.6999999999999998;"/><polygon fill="#181818" points="1167.271,465.703,1164.8174,459.2602,1164.8043,463.2199,1160.8446,463.2068,1167.271,465.703" style="stroke:#181818;stroke-width:0.6999999999999998;"/></g><!--link Repositories to StationTypeRepository--><g id="link_Repositories_StationTypeRepository"><path codeLine="146" d="M352.205,384.706 C325.122,398.755 301.7,410.9 301.7,410.9 C301.7,410.9 224.9223,441.3349 167.0883,464.2669 " fill="none" id="Repositories-to-StationTypeRepository" style="stroke:#181818;stroke-width:0.6999999999999998;"/><polygon fill="#181818" points="163.184,465.815,170.0725,466.0957,166.4376,464.5249,168.0083,460.89,163.184,465.815" style="stroke:#181818;stroke-width:0.6999999999999998;"/></g><!--link Repositories to BuildingRepository--><g id="link_Repositories_BuildingRepository"><path codeLine="147" d="M399.042,384.671 C377.552,411.026 353.3197,440.7483 335.6657,462.3923 " fill="none" id="Repositories-to-BuildingRepository" style="stroke:#181818;stroke-width:0.6999999999999998;"/><polygon fill="#181818" points="333.011,465.647,339.1628,462.5348,335.2232,462.9348,334.8232,458.9952,333.011,465.647" style="stroke:#181818;stroke-width:0.6999999999999998;"/></g><!--link Repositories to MapRepository--><g id="link_Repositories_MapRepository"><path codeLine="148" d="M462.525,384.671 C479.157,408.583 497.1785,434.4995 512.0605,455.9055 " fill="none" id="Repositories-to-MapRepository" style="stroke:#181818;stroke-width:0.6999999999999998;"/><polygon fill="#181818" points="514.458,459.354,513.1608,452.5829,512.4601,456.4803,508.5628,455.7796,514.458,459.354" style="stroke:#181818;stroke-width:0.6999999999999998;"/></g><!--link StationTypeRepository to StationTypes--><g id="link_StationTypeRepository_StationTypes"><path codeLine="150" d="M105.7,512.904 C105.7,530.915 105.7,551.684 105.7,569.688 " fill="none" id="StationTypeRepository-to-StationTypes" style="stroke:#181818;stroke-width:0.6999999999999998;"/><polygon fill="#181818" points="105.7,573.888,108.5,567.588,105.7,570.388,102.9,567.588,105.7,573.888" style="stroke:#181818;stroke-width:0.6999999999999998;"/></g><!--link BuildingRepository to Buildings--><g id="link_BuildingRepository_Buildings"><path codeLine="151" d="M314.3,512.904 C314.3,530.915 314.3,551.684 314.3,569.688 " fill="none" id="BuildingRepository-to-Buildings" style="stroke:#181818;stroke-width:0.6999999999999998;"/><polygon fill="#181818" points="314.3,573.888,317.1,567.588,314.3,570.388,311.5,567.588,314.3,573.888" style="stroke:#181818;stroke-width:0.6999999999999998;"/></g><!--link MapRepository to Maps--><g id="link_MapRepository_Maps"><path codeLine="152" d="M534.8,519.169 C534.8,534.233 534.8,548.359 534.8,563.416 " fill="none" id="MapRepository-to-Maps" style="stroke:#181818;stroke-width:0.6999999999999998;"/><polygon fill="#181818" points="534.8,567.616,537.6,561.316,534.8,564.116,532,561.316,534.8,567.616" style="stroke:#181818;stroke-width:0.6999999999999998;"/></g><!--link Maps to Map--><g id="link_Maps_Map"><path codeLine="154" d="M534.8,627.375 C534.8,640.528 534.8,651.826 534.8,664.965 " fill="none" id="Maps-to-Map" style="stroke:#181818;stroke-width:0.6999999999999998;"/><polygon fill="#181818" points="534.8,669.165,537.6,662.865,534.8,665.665,532,662.865,534.8,669.165" style="stroke:#181818;stroke-width:0.6999999999999998;"/></g><!--link Map to Scenarios--><g id="link_Map_Scenarios"><path codeLine="155" d="M503.244,728.812 C488.691,742.259 474.7582,755.1371 461.1572,767.7091 " fill="none" id="Map-to-Scenarios" style="stroke:#181818;stroke-width:0.6999999999999998;"/><polygon fill="#181818" points="458.073,770.56,464.5999,768.3398,460.6432,768.1843,460.7987,764.2275,458.073,770.56" style="stroke:#181818;stroke-width:0.6999999999999998;"/></g><!--link Scenarios to Scenario--><g id="link_Scenarios_Scenario"><path codeLine="156" d="M433.3,817.614 C433.3,830.473 433.3,842.303 433.3,855.197 " fill="none" id="Scenarios-to-Scenario" style="stroke:#181818;stroke-width:0.6999999999999998;"/><polygon fill="#181818" points="433.3,859.397,436.1,853.097,433.3,855.897,430.5,853.097,433.3,859.397" style="stroke:#181818;stroke-width:0.6999999999999998;"/></g><!--link Scenario to Stations--><g id="link_Scenario_Stations"><path codeLine="157" d="M433.3,906.542 C433.3,918.932 433.3,930.328 433.3,944.293 " fill="none" id="Scenario-to-Stations" style="stroke:#181818;stroke-width:0.6999999999999998;"/><polygon fill="#181818" points="433.3,948.493,436.1,942.193,433.3,944.993,430.5,942.193,433.3,948.493" style="stroke:#181818;stroke-width:0.6999999999999998;"/></g><!--link Map to Cities--><g id="link_Map_Cities"><path codeLine="158" d="M566.573,728.812 C581.224,742.259 595.2656,755.1482 608.9646,767.7202 " fill="none" id="Map-to-Cities" style="stroke:#181818;stroke-width:0.6999999999999998;"/><polygon fill="#181818" points="612.059,770.56,609.3106,764.2373,609.4803,768.1935,605.5242,768.3632,612.059,770.56" style="stroke:#181818;stroke-width:0.6999999999999998;"/></g><!--link StationTypeMapper to StationType--><g id="link_StationTypeMapper_StationType"><path codeLine="160" d="M698.271,365.456 C702.072,392.791 707.8284,434.18 711.6364,461.557 " fill="none" id="StationTypeMapper-to-StationType" style="stroke:#181818;stroke-width:0.6999999999999998;stroke-dasharray:7.0,7.0;"/><polygon fill="#181818" points="712.215,465.717,714.1204,459.0913,711.7328,462.2504,708.5738,459.8628,712.215,465.717" style="stroke:#181818;stroke-width:0.6999999999999998;"/></g><!--link StationTypeMapper to StationTypeDTO--><g id="link_StationTypeMapper_StationTypeDTO"><path codeLine="161" d="M719.383,365.456 C748.489,392.791 793.9236,435.4646 823.0716,462.8416 " fill="none" id="StationTypeMapper-to-StationTypeDTO" style="stroke:#181818;stroke-width:0.6999999999999998;stroke-dasharray:7.0,7.0;"/><polygon fill="#181818" points="826.133,465.717,823.4578,459.363,823.5818,463.3208,819.624,463.4448,826.133,465.717" style="stroke:#181818;stroke-width:0.6999999999999998;"/></g><!--link BuildingMapper to Building--><g id="link_BuildingMapper_Building"><path codeLine="162" d="M1319.5,365.456 C1319.5,392.791 1319.5,434.14 1319.5,461.517 " fill="none" id="BuildingMapper-to-Building" style="stroke:#181818;stroke-width:0.6999999999999998;stroke-dasharray:7.0,7.0;"/><polygon fill="#181818" points="1319.5,465.717,1322.3,459.417,1319.5,462.217,1316.7,459.417,1319.5,465.717" style="stroke:#181818;stroke-width:0.6999999999999998;"/></g><!--link BuildingMapper to BuildingDTO--><g id="link_BuildingMapper_BuildingDTO"><path codeLine="163" d="M1299.263,365.456 C1275.008,392.791 1237.3844,435.1983 1213.0944,462.5753 " fill="none" id="BuildingMapper-to-BuildingDTO" style="stroke:#181818;stroke-width:0.6999999999999998;stroke-dasharray:7.0,7.0;"/><polygon fill="#181818" points="1210.307,465.717,1216.5826,462.8628,1212.6299,463.0989,1212.3937,459.1462,1210.307,465.717" style="stroke:#181818;stroke-width:0.6999999999999998;"/></g><!--link StationMapper to StationDTO--><g id="link_StationMapper_StationDTO"><path codeLine="164" d="M1269.709,192.22 C1238.678,212.807 1194.9135,241.8446 1151.7305,270.5026 " fill="none" id="StationMapper-to-StationDTO" style="stroke:#181818;stroke-width:0.6999999999999998;stroke-dasharray:7.0,7.0;"/><polygon fill="#181818" points="1148.231,272.825,1155.0285,271.6744,1151.1472,270.8897,1151.932,267.0084,1148.231,272.825" style="stroke:#181818;stroke-width:0.6999999999999998;"/></g><!--link StationMapper to Station--><g id="link_StationMapper_Station"><path codeLine="165" d="M1330.819,192.395 C1366.288,222.915 1424.5,273 1424.5,273 C1424.5,273 1442.5197,295.2449 1458.5847,315.0689 " fill="none" id="StationMapper-to-Station" style="stroke:#181818;stroke-width:0.6999999999999998;stroke-dasharray:7.0,7.0;"/><polygon fill="#181818" points="1461.229,318.332,1459.4379,311.6745,1459.0254,315.6128,1455.0871,315.2003,1461.229,318.332" style="stroke:#181818;stroke-width:0.6999999999999998;"/></g><!--SRC=[lLPBJnin4BxxL_ZMe1BKzXXLI3mkaKf13PNQe-CrmS9PhzPUgXJntplEhktnhhC9KC4XU6U- -URXyTZcGPOLgzcQhdMf-NsjruBQkX7414t5-0DRYONTA45hmIqhLme3p3qhz1zPhkWTKmPhb2o5tLI2Lbfjt0T1IgwOCMVMrdBPM37dkbp8lu9-8cIheGlBhDJbUIDL0UG_v_I9KFZxI5V2TifR83UJeqw-TD1E0yBd7KmNkhIrLahKUnb1VlR8f69B9RnvehrGsWXZBwJTJ2fjfAEOqPjkbGtCjFylRwzdFZ9Ojz0fvKpnHZ4hBYK0Iou2xUV8Uqozy4lVsPGsLG7cE30EFpFgbiUqw6XdjD0DPEMjqbo-ixMO7BduQiXuK4c8TqVfMgFm6J4-IWVmwwYz57UiKTQNs87y6dmXbbf3vgBenTVg3QGWIYlg6orBE-5nxO574Tdtk8pk4j_8977Ekofbg4EgkOO8fVGYNCXVBYU8Dqf-fn9Wl-QygQGe9hfRpEXIQoLOEUnujmMzlOgRbEuiIXd3zpI2Oti9-mke0tIRvoRsJqIwJiMCuprsG2fNhAhGLB0Qgk7FgzCdlPrskclJGRfPFjzfiSrwtTwFRC1ofGkXTisHy97Dy8VODgMkay9zWw5mVPTEm1brqgz8U3fCS8mEpSkEoqiG4UGsnW4xB54mRiDFEmol1OovFKCrd8teCRW3uk3mQMlFdvtdUTaDNh36uEoyYy7t9bzKHBjXrV2WoraavN7WH93TOVDVDjQyVZ_DksmZE7eNFmkuHbWjTSpghKnl9sgrhuweDM95_qKIu0Fi8rEo6Bh86U3XBCMXlG1M7-2mgJQnUraPCdp-JQUdkvzoPFSZ3zcvyJeE3FV6GNn-ye-3yN0VHxfgx84a8ucW1rakUY_FX-krE3wIpCUUBHez0rXcZ0qmwVGY-NkfvzEGp6M37HgINYAT8oZETXXrd-wZfVO7ciIZZUL1Z0CnmRnjtoJsxdu-EKdYtezmvUwz51p2YyPqQ1E7tADAyWy0]--></g></svg>