<svg xmlns="http://www.w3.org/2000/svg" xmlns:xlink="http://www.w3.org/1999/xlink" contentStyleType="text/css" height="759.5px" preserveAspectRatio="none" style="width:1075px;height:759px;background:#FFFFFF;" version="1.1" viewBox="0 0 1075 759" width="1075.9px" zoomAndPan="magnify"><defs/><g><rect fill="#FFFFFF" height="644.1791" style="stroke:#181818;stroke-width:0.6999999999999998;" width="7" x="113.7295" y="63.3732"/><rect fill="#FFFFFF" height="21.9037" style="stroke:#181818;stroke-width:0.6999999999999998;" width="7" x="213.0567" y="103.6807"/><rect fill="#FFFFFF" height="21.9037" style="stroke:#181818;stroke-width:0.6999999999999998;" width="7" x="285.6875" y="147.4881"/><rect fill="#FFFFFF" height="218.3918" style="stroke:#181818;stroke-width:0.6999999999999998;" width="7" x="373.3006" y="191.2955"/><rect fill="#FFFFFF" height="174.5844" style="stroke:#181818;stroke-width:0.6999999999999998;" width="7" x="488.4582" y="213.1992"/><rect fill="#FFFFFF" height="21" style="stroke:#181818;stroke-width:0.6999999999999998;" width="7" x="586.682" y="297.0762"/><rect fill="#FFFFFF" height="249.1576" style="stroke:#181818;stroke-width:0.6999999999999998;" width="7" x="671.0365" y="431.591"/><rect fill="#FFFFFF" height="25.4037" style="stroke:#181818;stroke-width:0.6999999999999998;" width="7" x="674.5365" y="563.9717"/><rect fill="#FFFFFF" height="21" style="stroke:#181818;stroke-width:0.6999999999999998;" width="7" x="840.526" y="339.9799"/><rect fill="#FFFFFF" height="21" style="stroke:#181818;stroke-width:0.6999999999999998;" width="7" x="840.526" y="515.468"/><rect fill="#FFFFFF" height="21" style="stroke:#181818;stroke-width:0.6999999999999998;" width="7" x="931.9577" y="632.9449"/><rect fill="none" height="612.4754" style="stroke:#000000;stroke-width:1.0499999999999998;" width="1021.8865" x="50.037" y="73.8732"/><rect fill="none" height="99.3111" style="stroke:#000000;stroke-width:1.0499999999999998;" width="429.2583" x="458.8121" y="267.2687"/><rect fill="none" height="173.8844" style="stroke:#000000;stroke-width:1.0499999999999998;" width="437.6972" x="627.2263" y="485.6605"/><line style="stroke:#181818;stroke-width:0.3499999999999999;stroke-dasharray:5.0,5.0;" x1="116.537" x2="116.537" y1="40.0695" y2="720.1523"/><line style="stroke:#181818;stroke-width:0.3499999999999999;stroke-dasharray:5.0,5.0;" x1="215.922" x2="215.922" y1="40.0695" y2="720.1523"/><line style="stroke:#181818;stroke-width:0.3499999999999999;stroke-dasharray:5.0,5.0;" x1="288.5914" x2="288.5914" y1="40.0695" y2="720.1523"/><line style="stroke:#181818;stroke-width:0.3499999999999999;stroke-dasharray:5.0,5.0;" x1="376.5836" x2="376.5836" y1="40.0695" y2="720.1523"/><line style="stroke:#181818;stroke-width:0.3499999999999999;stroke-dasharray:5.0,5.0;" x1="491.7121" x2="491.7121" y1="40.0695" y2="720.1523"/><line style="stroke:#181818;stroke-width:0.3499999999999999;stroke-dasharray:5.0,5.0;" x1="589.5377" x2="589.5377" y1="40.0695" y2="720.1523"/><line style="stroke:#181818;stroke-width:0.3499999999999999;stroke-dasharray:5.0,5.0;" x1="674.1263" x2="674.1263" y1="40.0695" y2="720.1523"/><line style="stroke:#181818;stroke-width:0.3499999999999999;stroke-dasharray:5.0,5.0;" x1="843.3817" x2="843.3817" y1="247.584" y2="720.1523"/><line style="stroke:#181818;stroke-width:0.3499999999999999;stroke-dasharray:5.0,5.0;" x1="934.9703" x2="934.9703" y1="465.9758" y2="720.1523"/><line style="stroke:#181818;stroke-width:0.3499999999999999;stroke-dasharray:5.0,5.0;" x1="1023.4451" x2="1023.4451" y1="601.8564" y2="720.1523"/><rect fill="#E3E3E3" height="22.8348" rx="1.75" ry="1.75" style="stroke:#181818;stroke-width:0.3499999999999999;" width="120.385" x="57.037" y="16.5348"/><text fill="#000000" font-family="sans-serif" font-size="9.8" lengthAdjust="spacing" textLength="110.585" x="61.937" y="32.01">:StationBuildingController</text><rect fill="#E3E3E3" height="22.8348" rx="1.75" ry="1.75" style="stroke:#181818;stroke-width:0.3499999999999999;" width="120.385" x="57.037" y="719.4523"/><text fill="#000000" font-family="sans-serif" font-size="9.8" lengthAdjust="spacing" textLength="110.585" x="61.937" y="734.9275">:StationBuildingController</text><rect fill="#E3E3E3" height="22.8348" rx="1.75" ry="1.75" style="stroke:#181818;stroke-width:0.3499999999999999;" width="64.2694" x="184.422" y="16.5348"/><text fill="#000000" font-family="sans-serif" font-size="9.8" lengthAdjust="spacing" textLength="54.4694" x="189.322" y="32.01">Repositories</text><rect fill="#E3E3E3" height="22.8348" rx="1.75" ry="1.75" style="stroke:#181818;stroke-width:0.3499999999999999;" width="64.2694" x="184.422" y="719.4523"/><text fill="#000000" font-family="sans-serif" font-size="9.8" lengthAdjust="spacing" textLength="54.4694" x="189.322" y="734.9275">Repositories</text><rect fill="#E3E3E3" height="35.8695" rx="1.75" ry="1.75" style="stroke:#181818;stroke-width:0.3499999999999999;" width="66.9922" x="255.6914" y="3.5"/><text fill="#000000" font-family="sans-serif" font-size="9.8" lengthAdjust="spacing" textLength="50.6557" x="263.8597" y="18.9752">repositories</text><text fill="#000000" font-family="sans-serif" font-size="9.8" lengthAdjust="spacing" textLength="57.1922" x="260.5914" y="32.01">:Repositories</text><rect fill="#E3E3E3" height="35.8695" rx="1.75" ry="1.75" style="stroke:#181818;stroke-width:0.3499999999999999;" width="66.9922" x="255.6914" y="719.4523"/><text fill="#000000" font-family="sans-serif" font-size="9.8" lengthAdjust="spacing" textLength="50.6557" x="263.8597" y="734.9275">repositories</text><text fill="#000000" font-family="sans-serif" font-size="9.8" lengthAdjust="spacing" textLength="57.1922" x="260.5914" y="747.9623">:Repositories</text><rect fill="#E3E3E3" height="35.8695" rx="1.75" ry="1.75" style="stroke:#181818;stroke-width:0.3499999999999999;" width="94.2341" x="329.6836" y="3.5"/><text fill="#000000" font-family="sans-serif" font-size="9.8" lengthAdjust="spacing" textLength="80.6251" x="336.4881" y="18.9752">buildingRepository</text><text fill="#000000" font-family="sans-serif" font-size="9.8" lengthAdjust="spacing" textLength="84.4341" x="334.5836" y="32.01">:BuildingRepository</text><rect fill="#E3E3E3" height="35.8695" rx="1.75" ry="1.75" style="stroke:#181818;stroke-width:0.3499999999999999;" width="94.2341" x="329.6836" y="719.4523"/><text fill="#000000" font-family="sans-serif" font-size="9.8" lengthAdjust="spacing" textLength="80.6251" x="336.4881" y="734.9275">buildingRepository</text><text fill="#000000" font-family="sans-serif" font-size="9.8" lengthAdjust="spacing" textLength="84.4341" x="334.5836" y="747.9623">:BuildingRepository</text><rect fill="#E3E3E3" height="35.8695" rx="1.75" ry="1.75" style="stroke:#181818;stroke-width:0.3499999999999999;" width="52.2922" x="465.8121" y="3.5"/><text fill="#000000" font-family="sans-serif" font-size="9.8" lengthAdjust="spacing" textLength="38.6832" x="472.6166" y="18.9752">buildings</text><text fill="#000000" font-family="sans-serif" font-size="9.8" lengthAdjust="spacing" textLength="42.4922" x="470.7121" y="32.01">:Buildings</text><rect fill="#E3E3E3" height="35.8695" rx="1.75" ry="1.75" style="stroke:#181818;stroke-width:0.3499999999999999;" width="52.2922" x="465.8121" y="719.4523"/><text fill="#000000" font-family="sans-serif" font-size="9.8" lengthAdjust="spacing" textLength="38.6832" x="472.6166" y="734.9275">buildings</text><text fill="#000000" font-family="sans-serif" font-size="9.8" lengthAdjust="spacing" textLength="42.4922" x="470.7121" y="747.9623">:Buildings</text><rect fill="#E3E3E3" height="22.8348" rx="1.75" ry="1.75" style="stroke:#181818;stroke-width:0.3499999999999999;" width="74.0886" x="553.1377" y="16.5348"/><text fill="#000000" font-family="sans-serif" font-size="9.8" lengthAdjust="spacing" textLength="64.2886" x="558.0377" y="32.01">:List&lt;Building&gt;</text><rect fill="#E3E3E3" height="22.8348" rx="1.75" ry="1.75" style="stroke:#181818;stroke-width:0.3499999999999999;" width="74.0886" x="553.1377" y="719.4523"/><text fill="#000000" font-family="sans-serif" font-size="9.8" lengthAdjust="spacing" textLength="64.2886" x="558.0377" y="734.9275">:List&lt;Building&gt;</text><rect fill="#E3E3E3" height="22.8348" rx="1.75" ry="1.75" style="stroke:#181818;stroke-width:0.3499999999999999;" width="80.6203" x="634.2263" y="16.5348"/><text fill="#000000" font-family="sans-serif" font-size="9.8" lengthAdjust="spacing" textLength="70.8203" x="639.1263" y="32.01">:BuildingMapper</text><rect fill="#E3E3E3" height="22.8348" rx="1.75" ry="1.75" style="stroke:#181818;stroke-width:0.3499999999999999;" width="80.6203" x="634.2263" y="719.4523"/><text fill="#000000" font-family="sans-serif" font-size="9.8" lengthAdjust="spacing" textLength="70.8203" x="639.1263" y="734.9275">:BuildingMapper</text><rect fill="#E3E3E3" height="35.8695" rx="1.75" ry="1.75" style="stroke:#181818;stroke-width:0.3499999999999999;" width="74.0886" x="806.9817" y="719.4523"/><text fill="#000000" font-family="sans-serif" font-size="9.8" lengthAdjust="spacing" textLength="46.8467" x="820.6027" y="734.9275">listBuilding</text><text fill="#000000" font-family="sans-serif" font-size="9.8" lengthAdjust="spacing" textLength="64.2886" x="811.8817" y="747.9623">:List&lt;Building&gt;</text><rect fill="#E3E3E3" height="35.8695" rx="1.75" ry="1.75" style="stroke:#181818;stroke-width:0.3499999999999999;" width="94.7748" x="888.0703" y="719.4523"/><text fill="#000000" font-family="sans-serif" font-size="9.8" lengthAdjust="spacing" textLength="67.5329" x="901.6913" y="734.9275">listBuildingDTO</text><text fill="#000000" font-family="sans-serif" font-size="9.8" lengthAdjust="spacing" textLength="84.9748" x="892.9703" y="747.9623">:List&lt;BuildingDTO&gt;</text><rect fill="#E3E3E3" height="35.8695" rx="1.75" ry="1.75" style="stroke:#181818;stroke-width:0.3499999999999999;" width="68.0784" x="989.8451" y="719.4523"/><text fill="#000000" font-family="sans-serif" font-size="9.8" lengthAdjust="spacing" textLength="54.4694" x="996.6496" y="734.9275">buildingDTO</text><text fill="#000000" font-family="sans-serif" font-size="9.8" lengthAdjust="spacing" textLength="58.2784" x="994.7451" y="747.9623">:BuildingDTO</text><rect fill="#FFFFFF" height="644.1791" style="stroke:#181818;stroke-width:0.6999999999999998;" width="7" x="113.7295" y="63.3732"/><rect fill="#FFFFFF" height="21.9037" style="stroke:#181818;stroke-width:0.6999999999999998;" width="7" x="213.0567" y="103.6807"/><rect fill="#FFFFFF" height="21.9037" style="stroke:#181818;stroke-width:0.6999999999999998;" width="7" x="285.6875" y="147.4881"/><rect fill="#FFFFFF" height="218.3918" style="stroke:#181818;stroke-width:0.6999999999999998;" width="7" x="373.3006" y="191.2955"/><rect fill="#FFFFFF" height="174.5844" style="stroke:#181818;stroke-width:0.6999999999999998;" width="7" x="488.4582" y="213.1992"/><rect fill="#FFFFFF" height="21" style="stroke:#181818;stroke-width:0.6999999999999998;" width="7" x="586.682" y="297.0762"/><rect fill="#FFFFFF" height="249.1576" style="stroke:#181818;stroke-width:0.6999999999999998;" width="7" x="671.0365" y="431.591"/><rect fill="#FFFFFF" height="25.4037" style="stroke:#181818;stroke-width:0.6999999999999998;" width="7" x="674.5365" y="563.9717"/><rect fill="#FFFFFF" height="21" style="stroke:#181818;stroke-width:0.6999999999999998;" width="7" x="840.526" y="339.9799"/><rect fill="#FFFFFF" height="21" style="stroke:#181818;stroke-width:0.6999999999999998;" width="7" x="840.526" y="515.468"/><rect fill="#FFFFFF" height="21" style="stroke:#181818;stroke-width:0.6999999999999998;" width="7" x="931.9577" y="632.9449"/><polygon fill="#181818" points="105.3295,60.5732,112.3295,63.3732,105.3295,66.1732,108.1295,63.3732" style="stroke:#181818;stroke-width:0.6999999999999998;"/><line style="stroke:#181818;stroke-width:0.6999999999999998;" x1="0" x2="109.5295" y1="63.3732" y2="63.3732"/><text fill="#000000" font-family="sans-serif" font-size="9.1" font-weight="bold" lengthAdjust="spacing" textLength="5.061" x="4.9" y="59.6894">3</text><text fill="#000000" font-family="sans-serif" font-size="9.1" lengthAdjust="spacing" textLength="92.5685" x="12.761" y="59.6894">getAvailableBuildings()</text><path d="M50.037,73.8732 L173.5412,73.8732 L173.5412,80.377 L166.5412,87.377 L50.037,87.377 L50.037,73.8732 " fill="#EEEEEE" style="stroke:#000000;stroke-width:1.0499999999999998;"/><rect fill="none" height="612.4754" style="stroke:#000000;stroke-width:1.0499999999999998;" width="1021.8865" x="50.037" y="73.8732"/><text fill="#000000" font-family="sans-serif" font-size="9.1" font-weight="bold" lengthAdjust="spacing" textLength="92.0042" x="60.537" y="84.3931">Get BuildingDTO List</text><polygon fill="#181818" points="204.6567,100.8807,211.6567,103.6807,204.6567,106.4807,207.4567,103.6807" style="stroke:#181818;stroke-width:0.6999999999999998;"/><line style="stroke:#181818;stroke-width:0.6999999999999998;" x1="120.7295" x2="208.8567" y1="103.6807" y2="103.6807"/><text fill="#000000" font-family="sans-serif" font-size="9.1" font-weight="bold" lengthAdjust="spacing" textLength="12.6502" x="125.6295" y="99.9968">3.1</text><text fill="#000000" font-family="sans-serif" font-size="9.1" lengthAdjust="spacing" textLength="53.1115" x="141.0797" y="99.9968">getInstance()</text><polygon fill="#181818" points="128.4295,122.7844,121.4295,125.5844,128.4295,128.3844,125.6295,125.5844" style="stroke:#181818;stroke-width:0.6999999999999998;"/><line style="stroke:#181818;stroke-width:0.6999999999999998;stroke-dasharray:2.0,2.0;" x1="124.2295" x2="215.8567" y1="125.5844" y2="125.5844"/><text fill="#000000" font-family="sans-serif" font-size="9.1" font-weight="bold" lengthAdjust="spacing" textLength="12.6502" x="132.6295" y="121.9005">3.2</text><text fill="#000000" font-family="sans-serif" font-size="9.1" lengthAdjust="spacing" textLength="47.0374" x="148.0797" y="121.9005">repositories</text><polygon fill="#181818" points="277.2875,144.6881,284.2875,147.4881,277.2875,150.2881,280.0875,147.4881" style="stroke:#181818;stroke-width:0.6999999999999998;"/><line style="stroke:#181818;stroke-width:0.6999999999999998;" x1="120.7295" x2="281.4875" y1="147.4881" y2="147.4881"/><text fill="#000000" font-family="sans-serif" font-size="9.1" font-weight="bold" lengthAdjust="spacing" textLength="12.6502" x="125.6295" y="143.8042">3.3</text><text fill="#000000" font-family="sans-serif" font-size="9.1" lengthAdjust="spacing" textLength="94.5858" x="141.0797" y="143.8042">getBuildingRepository()</text><polygon fill="#181818" points="128.4295,166.5918,121.4295,169.3918,128.4295,172.1918,125.6295,169.3918" style="stroke:#181818;stroke-width:0.6999999999999998;"/><line style="stroke:#181818;stroke-width:0.6999999999999998;stroke-dasharray:2.0,2.0;" x1="124.2295" x2="288.4875" y1="169.3918" y2="169.3918"/><text fill="#000000" font-family="sans-serif" font-size="9.1" font-weight="bold" lengthAdjust="spacing" textLength="12.6502" x="132.6295" y="165.7079">3.4</text><text fill="#000000" font-family="sans-serif" font-size="9.1" lengthAdjust="spacing" textLength="74.8662" x="148.0797" y="165.7079">buildingRepository</text><polygon fill="#181818" points="364.9006,188.4955,371.9006,191.2955,364.9006,194.0955,367.7006,191.2955" style="stroke:#181818;stroke-width:0.6999999999999998;"/><line style="stroke:#181818;stroke-width:0.6999999999999998;" x1="120.7295" x2="369.1006" y1="191.2955" y2="191.2955"/><text fill="#000000" font-family="sans-serif" font-size="9.1" font-weight="bold" lengthAdjust="spacing" textLength="12.6502" x="125.6295" y="187.6116">3.5</text><text fill="#000000" font-family="sans-serif" font-size="9.1" lengthAdjust="spacing" textLength="79.4073" x="141.0797" y="187.6116">getListOfBuildings()</text><polygon fill="#181818" points="480.0582,210.3992,487.0582,213.1992,480.0582,215.9992,482.8582,213.1992" style="stroke:#181818;stroke-width:0.6999999999999998;"/><line style="stroke:#181818;stroke-width:0.6999999999999998;" x1="380.3006" x2="484.2582" y1="213.1992" y2="213.1992"/><text fill="#000000" font-family="sans-serif" font-size="9.1" font-weight="bold" lengthAdjust="spacing" textLength="12.6502" x="385.2006" y="209.5153">3.6</text><text fill="#000000" font-family="sans-serif" font-size="9.1" lengthAdjust="spacing" textLength="79.4073" x="400.6509" y="209.5153">getListOfBuildings()</text><polygon fill="#181818" points="798.5817,232.3029,805.5817,235.1029,798.5817,237.9029,801.3817,235.1029" style="stroke:#181818;stroke-width:0.6999999999999998;"/><line style="stroke:#181818;stroke-width:0.6999999999999998;stroke-dasharray:2.0,2.0;" x1="495.4582" x2="802.7817" y1="235.1029" y2="235.1029"/><text fill="#000000" font-family="sans-serif" font-size="9.1" font-weight="bold" lengthAdjust="spacing" textLength="12.6502" x="500.3582" y="231.419">3.7</text><text fill="#000000" font-family="sans-serif" font-size="9.1" lengthAdjust="spacing" textLength="31.3523" x="515.8084" y="231.419">create()</text><rect fill="#E3E3E3" height="35.8695" rx="1.75" ry="1.75" style="stroke:#181818;stroke-width:0.3499999999999999;" width="74.0886" x="806.9817" y="218.7992"/><text fill="#000000" font-family="sans-serif" font-size="9.8" lengthAdjust="spacing" textLength="46.8467" x="820.6027" y="234.2744">listBuilding</text><text fill="#000000" font-family="sans-serif" font-size="9.8" lengthAdjust="spacing" textLength="64.2886" x="811.8817" y="247.3092">:List&lt;Building&gt;</text><path d="M458.8121,267.2687 L509.5163,267.2687 L509.5163,273.7725 L502.5163,280.7725 L458.8121,280.7725 L458.8121,267.2687 " fill="#EEEEEE" style="stroke:#000000;stroke-width:1.0499999999999998;"/><rect fill="none" height="99.3111" style="stroke:#000000;stroke-width:1.0499999999999998;" width="429.2583" x="458.8121" y="267.2687"/><text fill="#000000" font-family="sans-serif" font-size="9.1" font-weight="bold" lengthAdjust="spacing" textLength="19.2042" x="469.3121" y="277.7886">loop</text><text fill="#000000" font-family="sans-serif" font-size="7.7" font-weight="bold" lengthAdjust="spacing" textLength="94.5355" x="520.0163" y="276.9778">[for each known Building]</text><polygon fill="#181818" points="578.282,294.2762,585.282,297.0762,578.282,299.8762,581.082,297.0762" style="stroke:#181818;stroke-width:0.6999999999999998;"/><line style="stroke:#181818;stroke-width:0.6999999999999998;" x1="495.4582" x2="582.482" y1="297.0762" y2="297.0762"/><text fill="#000000" font-family="sans-serif" font-size="9.1" font-weight="bold" lengthAdjust="spacing" textLength="12.6502" x="500.3582" y="293.3923">3.8</text><text fill="#000000" font-family="sans-serif" font-size="9.1" lengthAdjust="spacing" textLength="62.4736" x="515.8084" y="293.3923">building = get(i)</text><polygon fill="#181818" points="832.126,337.1799,839.126,339.9799,832.126,342.7799,834.926,339.9799" style="stroke:#181818;stroke-width:0.6999999999999998;"/><line style="stroke:#181818;stroke-width:0.6999999999999998;" x1="495.4582" x2="836.326" y1="339.9799" y2="339.9799"/><text fill="#000000" font-family="sans-serif" font-size="9.1" font-weight="bold" lengthAdjust="spacing" textLength="12.6502" x="500.3582" y="336.296">3.9</text><text fill="#000000" font-family="sans-serif" font-size="9.1" lengthAdjust="spacing" textLength="52.6138" x="515.8084" y="336.296">add(building)</text><polygon fill="#181818" points="388.0006,384.9836,381.0006,387.7836,388.0006,390.5836,385.2006,387.7836" style="stroke:#181818;stroke-width:0.6999999999999998;"/><line style="stroke:#181818;stroke-width:0.6999999999999998;stroke-dasharray:2.0,2.0;" x1="383.8006" x2="491.2582" y1="387.7836" y2="387.7836"/><text fill="#000000" font-family="sans-serif" font-size="9.1" font-weight="bold" lengthAdjust="spacing" textLength="17.7112" x="392.2006" y="384.0997">3.10</text><text fill="#000000" font-family="sans-serif" font-size="9.1" lengthAdjust="spacing" textLength="43.5005" x="412.7119" y="384.0997">listBuilding</text><polygon fill="#181818" points="128.4295,406.8873,121.4295,409.6873,128.4295,412.4873,125.6295,409.6873" style="stroke:#181818;stroke-width:0.6999999999999998;"/><line style="stroke:#181818;stroke-width:0.6999999999999998;stroke-dasharray:2.0,2.0;" x1="124.2295" x2="376.1006" y1="409.6873" y2="409.6873"/><text fill="#000000" font-family="sans-serif" font-size="9.1" font-weight="bold" lengthAdjust="spacing" textLength="17.7112" x="132.6295" y="406.0034">3.11</text><text fill="#000000" font-family="sans-serif" font-size="9.1" lengthAdjust="spacing" textLength="43.5005" x="153.1407" y="406.0034">listBuilding</text><polygon fill="#181818" points="662.6365,428.791,669.6365,431.591,662.6365,434.391,665.4365,431.591" style="stroke:#181818;stroke-width:0.6999999999999998;"/><line style="stroke:#181818;stroke-width:0.6999999999999998;" x1="120.7295" x2="666.8365" y1="431.591" y2="431.591"/><text fill="#000000" font-family="sans-serif" font-size="9.1" font-weight="bold" lengthAdjust="spacing" textLength="17.7112" x="125.6295" y="427.9071">3.12</text><text fill="#000000" font-family="sans-serif" font-size="9.1" lengthAdjust="spacing" textLength="76.3591" x="146.1407" y="427.9071">toDTO(listBuilding)</text><polygon fill="#181818" points="879.6703,450.6947,886.6703,453.4947,879.6703,456.2947,882.4703,453.4947" style="stroke:#181818;stroke-width:0.6999999999999998;"/><line style="stroke:#181818;stroke-width:0.6999999999999998;stroke-dasharray:2.0,2.0;" x1="678.0365" x2="883.8703" y1="453.4947" y2="453.4947"/><text fill="#000000" font-family="sans-serif" font-size="9.1" font-weight="bold" lengthAdjust="spacing" textLength="17.7112" x="682.9365" y="449.8108">3.13</text><text fill="#000000" font-family="sans-serif" font-size="9.1" lengthAdjust="spacing" textLength="31.3523" x="703.4477" y="449.8108">create()</text><rect fill="#E3E3E3" height="35.8695" rx="1.75" ry="1.75" style="stroke:#181818;stroke-width:0.3499999999999999;" width="94.7748" x="888.0703" y="437.191"/><text fill="#000000" font-family="sans-serif" font-size="9.8" lengthAdjust="spacing" textLength="67.5329" x="901.6913" y="452.6662">listBuildingDTO</text><text fill="#000000" font-family="sans-serif" font-size="9.8" lengthAdjust="spacing" textLength="84.9748" x="892.9703" y="465.701">:List&lt;BuildingDTO&gt;</text><path d="M627.2263,485.6605 L677.9305,485.6605 L677.9305,492.1643 L670.9305,499.1643 L627.2263,499.1643 L627.2263,485.6605 " fill="#EEEEEE" style="stroke:#000000;stroke-width:1.0499999999999998;"/><rect fill="none" height="173.8844" style="stroke:#000000;stroke-width:1.0499999999999998;" width="437.6972" x="627.2263" y="485.6605"/><text fill="#000000" font-family="sans-serif" font-size="9.1" font-weight="bold" lengthAdjust="spacing" textLength="19.2042" x="637.7263" y="496.1804">loop</text><text fill="#000000" font-family="sans-serif" font-size="7.7" font-weight="bold" lengthAdjust="spacing" textLength="112.9358" x="688.4305" y="495.3696">[for each object in listBuilding]</text><polygon fill="#181818" points="832.126,512.668,839.126,515.468,832.126,518.268,834.926,515.468" style="stroke:#181818;stroke-width:0.6999999999999998;"/><line style="stroke:#181818;stroke-width:0.6999999999999998;" x1="678.0365" x2="836.326" y1="515.468" y2="515.468"/><text fill="#000000" font-family="sans-serif" font-size="9.1" font-weight="bold" lengthAdjust="spacing" textLength="17.7112" x="682.9365" y="511.7841">3.14</text><text fill="#000000" font-family="sans-serif" font-size="9.1" lengthAdjust="spacing" textLength="62.4736" x="703.4477" y="511.7841">building = get(i)</text><line style="stroke:#181818;stroke-width:0.6999999999999998;" x1="678.0365" x2="710.9365" y1="554.8717" y2="554.8717"/><line style="stroke:#181818;stroke-width:0.6999999999999998;" x1="710.9365" x2="710.9365" y1="554.8717" y2="563.9717"/><line style="stroke:#181818;stroke-width:0.6999999999999998;" x1="682.2365" x2="710.9365" y1="563.9717" y2="563.9717"/><polygon fill="#181818" points="689.2365,561.1717,682.2365,563.9717,689.2365,566.7717,686.4365,563.9717" style="stroke:#181818;stroke-width:0.6999999999999998;"/><text fill="#000000" font-family="sans-serif" font-size="9.1" font-weight="bold" lengthAdjust="spacing" textLength="17.7112" x="686.4365" y="551.1878">3.15</text><text fill="#000000" font-family="sans-serif" font-size="9.1" lengthAdjust="spacing" textLength="125.1783" x="706.9477" y="551.1878">buildingDTO = toDTO(building)</text><polygon fill="#181818" points="981.4451,586.5754,988.4451,589.3754,981.4451,592.1754,984.2451,589.3754" style="stroke:#181818;stroke-width:0.6999999999999998;"/><line style="stroke:#181818;stroke-width:0.6999999999999998;stroke-dasharray:2.0,2.0;" x1="678.0365" x2="985.6451" y1="589.3754" y2="589.3754"/><text fill="#000000" font-family="sans-serif" font-size="9.1" font-weight="bold" lengthAdjust="spacing" textLength="17.7112" x="682.9365" y="585.6915">3.16</text><text fill="#000000" font-family="sans-serif" font-size="9.1" lengthAdjust="spacing" textLength="31.3523" x="703.4477" y="585.6915">create()</text><rect fill="#E3E3E3" height="35.8695" rx="1.75" ry="1.75" style="stroke:#181818;stroke-width:0.3499999999999999;" width="68.0784" x="989.8451" y="573.0717"/><text fill="#000000" font-family="sans-serif" font-size="9.8" lengthAdjust="spacing" textLength="54.4694" x="996.6496" y="588.5469">buildingDTO</text><text fill="#000000" font-family="sans-serif" font-size="9.8" lengthAdjust="spacing" textLength="58.2784" x="994.7451" y="601.5816">:BuildingDTO</text><polygon fill="#181818" points="923.5577,630.1449,930.5577,632.9449,923.5577,635.7449,926.3577,632.9449" style="stroke:#181818;stroke-width:0.6999999999999998;"/><line style="stroke:#181818;stroke-width:0.6999999999999998;" x1="678.0365" x2="927.7577" y1="632.9449" y2="632.9449"/><text fill="#000000" font-family="sans-serif" font-size="9.1" font-weight="bold" lengthAdjust="spacing" textLength="17.7112" x="682.9365" y="629.261">3.17</text><text fill="#000000" font-family="sans-serif" font-size="9.1" lengthAdjust="spacing" textLength="71.8225" x="703.4477" y="629.261">add(buildingDTO)</text><polygon fill="#181818" points="128.4295,677.9486,121.4295,680.7486,128.4295,683.5486,125.6295,680.7486" style="stroke:#181818;stroke-width:0.6999999999999998;"/><line style="stroke:#181818;stroke-width:0.6999999999999998;stroke-dasharray:2.0,2.0;" x1="124.2295" x2="673.8365" y1="680.7486" y2="680.7486"/><text fill="#000000" font-family="sans-serif" font-size="9.1" font-weight="bold" lengthAdjust="spacing" textLength="17.7112" x="132.6295" y="677.0647">3.18</text><text fill="#000000" font-family="sans-serif" font-size="9.1" lengthAdjust="spacing" textLength="62.7091" x="153.1407" y="677.0647">listBuildingDTO</text><polygon fill="#181818" points="7.7,704.7523,0.7,707.5523,7.7,710.3523,4.9,707.5523" style="stroke:#181818;stroke-width:0.6999999999999998;"/><line style="stroke:#181818;stroke-width:0.6999999999999998;stroke-dasharray:2.0,2.0;" x1="3.5" x2="116.5295" y1="707.5523" y2="707.5523"/><text fill="#000000" font-family="sans-serif" font-size="9.1" font-weight="bold" lengthAdjust="spacing" textLength="5.061" x="11.9" y="703.8685">4</text><text fill="#000000" font-family="sans-serif" font-size="9.1" lengthAdjust="spacing" textLength="62.7091" x="19.761" y="703.8685">listBuildingDTO</text><!--SRC=[bLN1Rk8m4BtdAqOzqKgijDezHLsaqg8AYHP4s5ibP18Jl0Gxiash_lqw3Z5sx13mqPxtvddcZItsX9Q8emCS66NfZhC31icFE1Bcf4Jf7kKuaTy51evJYMXUs05YXpBsHMWEMrG874LgMvAKb8XAk8iJYIHXT7maHQQ2dXcLd1K5vdU013olbZCNiCGb4qGoJh3G8Sl9OfwuCToA-Q1n6B9Efk-liybg_kw2DoSb1lMjACRUfYOQ_vtENXJDkc8CqmWBBHnGItGy8q8-Dg4Z7JgR9gjML1FmXihoL2IZukrfiPWiNK2XM1kCaX98Ok1-DXlyifgtyMehGB5Ms-5Qr1GMsWLNk0WT9QF7mmPp-1KDHze1CUHOFdqYKg1DWKqr1_Tk-8-V4Keb-KGIryO1jNBEZYMyOWbMNgYk4UdpQbN1e79fNu3EDgL2EJd5AaSJPRXhnu6rQk3GoBKDQ08pt688vp_xKWlndTSfoNAq9-vyPidqhTufrkBsP3jJe4LNvPrlxKPvYjtHiVKw9pP_qiCTvBVAt4vGTypnxiD332d7Yg0oLnjOC5R2bd5GnTd1dh8lQbpb1RSoZVGmdsiEVwhB3CXz46YkeMSIEfRL91tNhy6vR0meomQDe1uXxYjnXQBB04opgnjJsyf-YwAUdAscjnnb_1-a35r1UxJRz_Mx6uDawcqPsAoNZ7zwhSDAwqFVeDKZsMrIrw1iyq_znq1eT-s2EJsRz7ls1fjqMkGcOKt9hQz5gQiRqEtepYPS6fnWBzfjkFQceQPVquGgeJklQkFQFkYVzPPUU01lN4F5yOVAfkchXabXVUc_zSRZS5ZFd4zkaUeV_py0]--></g></svg>