<svg xmlns="http://www.w3.org/2000/svg" xmlns:xlink="http://www.w3.org/1999/xlink" contentStyleType="text/css" height="417px" preserveAspectRatio="none" style="width:483px;height:417px;background:#FFFFFF;" version="1.1" viewBox="0 0 483 417" width="483px" zoomAndPan="magnify"><defs/><g><rect fill="#FFFFFF" height="252.3281" style="stroke:#181818;stroke-width:1.0;" width="10" x="174.7344" y="90.5332"/><rect fill="#FFFFFF" height="31.291" style="stroke:#181818;stroke-width:1.0;" width="10" x="338.8164" y="148.1152"/><rect fill="#FFFFFF" height="31.291" style="stroke:#181818;stroke-width:1.0;" width="10" x="338.8164" y="210.6973"/><rect fill="#FFFFFF" height="31.291" style="stroke:#181818;stroke-width:1.0;" width="10" x="439.4712" y="273.2793"/><rect fill="none" height="207.0371" style="stroke:#000000;stroke-width:1.5;" width="393.2881" x="83.7451" y="105.5332"/><line style="stroke:#181818;stroke-width:0.5;stroke-dasharray:5.0,5.0;" x1="178.7451" x2="178.7451" y1="57.2422" y2="360.8613"/><line style="stroke:#181818;stroke-width:0.5;stroke-dasharray:5.0,5.0;" x1="343.7236" x2="343.7236" y1="57.2422" y2="360.8613"/><line style="stroke:#181818;stroke-width:0.5;stroke-dasharray:5.0,5.0;" x1="443.9092" x2="443.9092" y1="57.2422" y2="360.8613"/><rect fill="#E2E2F0" height="32.6211" rx="2.5" ry="2.5" style="stroke:#181818;stroke-width:0.5;" width="171.9785" x="93.7451" y="23.6211"/><text fill="#000000" font-family="sans-serif" font-size="14" lengthAdjust="spacing" textLength="157.9785" x="100.7451" y="45.7285">:StationBuildingController</text><rect fill="#E2E2F0" height="32.6211" rx="2.5" ry="2.5" style="stroke:#181818;stroke-width:0.5;" width="171.9785" x="93.7451" y="359.8613"/><text fill="#000000" font-family="sans-serif" font-size="14" lengthAdjust="spacing" textLength="157.9785" x="100.7451" y="381.9688">:StationBuildingController</text><rect fill="#E2E2F0" height="51.2422" rx="2.5" ry="2.5" style="stroke:#181818;stroke-width:0.5;" width="136.1855" x="275.7236" y="5"/><text fill="#000000" font-family="sans-serif" font-size="14" lengthAdjust="spacing" textLength="73.165" x="307.2339" y="27.1074">appSession</text><text fill="#000000" font-family="sans-serif" font-size="14" lengthAdjust="spacing" textLength="122.1855" x="282.7236" y="45.7285">:ApplicationSession</text><rect fill="#E2E2F0" height="51.2422" rx="2.5" ry="2.5" style="stroke:#181818;stroke-width:0.5;" width="136.1855" x="275.7236" y="359.8613"/><text fill="#000000" font-family="sans-serif" font-size="14" lengthAdjust="spacing" textLength="73.165" x="307.2339" y="381.9688">appSession</text><text fill="#000000" font-family="sans-serif" font-size="14" lengthAdjust="spacing" textLength="122.1855" x="282.7236" y="400.5898">:ApplicationSession</text><rect fill="#E2E2F0" height="51.2422" rx="2.5" ry="2.5" style="stroke:#181818;stroke-width:0.5;" width="45.124" x="421.9092" y="5"/><text fill="#000000" font-family="sans-serif" font-size="14" lengthAdjust="spacing" textLength="27.2344" x="430.854" y="27.1074">map</text><text fill="#000000" font-family="sans-serif" font-size="14" lengthAdjust="spacing" textLength="31.124" x="428.9092" y="45.7285">:Map</text><rect fill="#E2E2F0" height="51.2422" rx="2.5" ry="2.5" style="stroke:#181818;stroke-width:0.5;" width="45.124" x="421.9092" y="359.8613"/><text fill="#000000" font-family="sans-serif" font-size="14" lengthAdjust="spacing" textLength="27.2344" x="430.854" y="381.9688">map</text><text fill="#000000" font-family="sans-serif" font-size="14" lengthAdjust="spacing" textLength="31.124" x="428.9092" y="400.5898">:Map</text><rect fill="#FFFFFF" height="252.3281" style="stroke:#181818;stroke-width:1.0;" width="10" x="174.7344" y="90.5332"/><rect fill="#FFFFFF" height="31.291" style="stroke:#181818;stroke-width:1.0;" width="10" x="338.8164" y="148.1152"/><rect fill="#FFFFFF" height="31.291" style="stroke:#181818;stroke-width:1.0;" width="10" x="338.8164" y="210.6973"/><rect fill="#FFFFFF" height="31.291" style="stroke:#181818;stroke-width:1.0;" width="10" x="439.4712" y="273.2793"/><polygon fill="#181818" points="162.7344,86.5332,172.7344,90.5332,162.7344,94.5332,166.7344,90.5332" style="stroke:#181818;stroke-width:1.0;"/><line style="stroke:#181818;stroke-width:1.0;" x1="0" x2="168.7344" y1="90.5332" y2="90.5332"/><text fill="#000000" font-family="sans-serif" font-size="13" font-weight="bold" lengthAdjust="spacing" textLength="14.46" x="7" y="85.2705">21</text><text fill="#000000" font-family="sans-serif" font-size="13" lengthAdjust="spacing" textLength="137.2744" x="25.46" y="85.2705">getClosestCity(position)</text><path d="M83.7451,105.5332 L229.1587,105.5332 L229.1587,114.8242 L219.1587,124.8242 L83.7451,124.8242 L83.7451,105.5332 " fill="#EEEEEE" style="stroke:#000000;stroke-width:1.5;"/><rect fill="none" height="207.0371" style="stroke:#000000;stroke-width:1.5;" width="393.2881" x="83.7451" y="105.5332"/><text fill="#000000" font-family="sans-serif" font-size="13" font-weight="bold" lengthAdjust="spacing" textLength="100.4136" x="98.7451" y="120.5615">Get Closest City</text><polygon fill="#181818" points="326.8164,144.1152,336.8164,148.1152,326.8164,152.1152,330.8164,148.1152" style="stroke:#181818;stroke-width:1.0;"/><line style="stroke:#181818;stroke-width:1.0;" x1="184.7344" x2="332.8164" y1="148.1152" y2="148.1152"/><text fill="#000000" font-family="sans-serif" font-size="13" font-weight="bold" lengthAdjust="spacing" textLength="25.3018" x="191.7344" y="142.8525">21.1</text><text fill="#000000" font-family="sans-serif" font-size="13" lengthAdjust="spacing" textLength="75.8735" x="221.0361" y="142.8525">getInstance()</text><polygon fill="#181818" points="195.7344,175.4063,185.7344,179.4063,195.7344,183.4063,191.7344,179.4063" style="stroke:#181818;stroke-width:1.0;"/><line style="stroke:#181818;stroke-width:1.0;stroke-dasharray:2.0,2.0;" x1="189.7344" x2="342.8164" y1="179.4063" y2="179.4063"/><text fill="#000000" font-family="sans-serif" font-size="13" font-weight="bold" lengthAdjust="spacing" textLength="25.3018" x="201.7344" y="174.1436">21.2</text><text fill="#000000" font-family="sans-serif" font-size="13" lengthAdjust="spacing" textLength="93.2217" x="231.0361" y="174.1436">sessionInstance</text><polygon fill="#181818" points="326.8164,206.6973,336.8164,210.6973,326.8164,214.6973,330.8164,210.6973" style="stroke:#181818;stroke-width:1.0;"/><line style="stroke:#181818;stroke-width:1.0;" x1="184.7344" x2="332.8164" y1="210.6973" y2="210.6973"/><text fill="#000000" font-family="sans-serif" font-size="13" font-weight="bold" lengthAdjust="spacing" textLength="25.3018" x="191.7344" y="205.4346">21.3</text><text fill="#000000" font-family="sans-serif" font-size="13" lengthAdjust="spacing" textLength="95.3672" x="221.0361" y="205.4346">getCurrentMap()</text><polygon fill="#181818" points="195.7344,237.9883,185.7344,241.9883,195.7344,245.9883,191.7344,241.9883" style="stroke:#181818;stroke-width:1.0;"/><line style="stroke:#181818;stroke-width:1.0;stroke-dasharray:2.0,2.0;" x1="189.7344" x2="342.8164" y1="241.9883" y2="241.9883"/><text fill="#000000" font-family="sans-serif" font-size="13" font-weight="bold" lengthAdjust="spacing" textLength="25.3018" x="201.7344" y="236.7256">21.4</text><text fill="#000000" font-family="sans-serif" font-size="13" lengthAdjust="spacing" textLength="65.749" x="231.0361" y="236.7256">currentMap</text><polygon fill="#181818" points="427.4712,269.2793,437.4712,273.2793,427.4712,277.2793,431.4712,273.2793" style="stroke:#181818;stroke-width:1.0;"/><line style="stroke:#181818;stroke-width:1.0;" x1="184.7344" x2="433.4712" y1="273.2793" y2="273.2793"/><text fill="#000000" font-family="sans-serif" font-size="13" font-weight="bold" lengthAdjust="spacing" textLength="25.3018" x="191.7344" y="268.0166">21.5</text><text fill="#000000" font-family="sans-serif" font-size="13" lengthAdjust="spacing" textLength="137.2744" x="221.0361" y="268.0166">getClosestCity(position)</text><polygon fill="#181818" points="195.7344,300.5703,185.7344,304.5703,195.7344,308.5703,191.7344,304.5703" style="stroke:#181818;stroke-width:1.0;"/><line style="stroke:#181818;stroke-width:1.0;stroke-dasharray:2.0,2.0;" x1="189.7344" x2="443.4712" y1="304.5703" y2="304.5703"/><text fill="#000000" font-family="sans-serif" font-size="13" font-weight="bold" lengthAdjust="spacing" textLength="25.3018" x="201.7344" y="299.3076">21.6</text><text fill="#000000" font-family="sans-serif" font-size="13" lengthAdjust="spacing" textLength="62.8481" x="231.0361" y="299.3076">closestCity</text><polygon fill="#181818" points="11,338.8613,1,342.8613,11,346.8613,7,342.8613" style="stroke:#181818;stroke-width:1.0;"/><line style="stroke:#181818;stroke-width:1.0;stroke-dasharray:2.0,2.0;" x1="5" x2="178.7344" y1="342.8613" y2="342.8613"/><text fill="#000000" font-family="sans-serif" font-size="13" font-weight="bold" lengthAdjust="spacing" textLength="14.46" x="17" y="337.5986">22</text><text fill="#000000" font-family="sans-serif" font-size="13" lengthAdjust="spacing" textLength="62.8481" x="35.46" y="337.5986">closestCity</text><!--SRC=[fPB1IWCn48RlUOgXf_QmGdjSHAYBIC5gSJqACcR7DJHDGZAhzEtDfksQQb74kMKo_pzVPXBMoZZqk067SeqjrRpL19uaesarYJ0KX5TixBioBRoW3YH4JBEIog5X69Kr8ojhBZkbcrXKMSFUQar-11YWUhY_EHQWSpM542MFffmxfvLC1ljaKirNgwVwgguNTxV7uWswg5gYIsNB-Ke8xDYQRlDC7cPJKLoabb12Irnf6oXmfNWxTZQelitaY-9iAb2oUaEc7Ip4QBtj75mJmzu2UezqrKVg43jbcAdVmeGuFKdZoL0wUETFWYooF1Hx-XB2RXW7mq7Hq4d3Nycgpdio70VtVpOvUFqPAoxiXyLyu-htc_F4SyxnQN8Av20cq-n0yhNFKkQyA0w_9JVBJDAF-000]--></g></svg>