<svg xmlns="http://www.w3.org/2000/svg" xmlns:xlink="http://www.w3.org/1999/xlink" contentStyleType="text/css" height="759.5px" preserveAspectRatio="none" style="width:1194px;height:759px;background:#FFFFFF;" version="1.1" viewBox="0 0 1194 759" width="1194.9px" zoomAndPan="magnify"><defs/><g><rect fill="#FFFFFF" height="644.1791" style="stroke:#181818;stroke-width:0.6999999999999998;" width="7" x="100.0528" y="63.3732"/><rect fill="#FFFFFF" height="21.9037" style="stroke:#181818;stroke-width:0.6999999999999998;" width="7" x="199.38" y="103.6807"/><rect fill="#FFFFFF" height="21.9037" style="stroke:#181818;stroke-width:0.6999999999999998;" width="7" x="272.0108" y="147.4881"/><rect fill="#FFFFFF" height="218.3918" style="stroke:#181818;stroke-width:0.6999999999999998;" width="7" x="368.3377" y="191.2955"/><rect fill="#FFFFFF" height="174.5844" style="stroke:#181818;stroke-width:0.6999999999999998;" width="7" x="499.678" y="213.1992"/><rect fill="#FFFFFF" height="21" style="stroke:#181818;stroke-width:0.6999999999999998;" width="7" x="613.5736" y="297.0762"/><rect fill="#FFFFFF" height="249.1576" style="stroke:#181818;stroke-width:0.6999999999999998;" width="7" x="715.3556" y="431.591"/><rect fill="#FFFFFF" height="25.4037" style="stroke:#181818;stroke-width:0.6999999999999998;" width="7" x="718.8556" y="563.9717"/><rect fill="#FFFFFF" height="21" style="stroke:#181818;stroke-width:0.6999999999999998;" width="7" x="916.1886" y="339.9799"/><rect fill="#FFFFFF" height="21" style="stroke:#181818;stroke-width:0.6999999999999998;" width="7" x="916.1886" y="515.468"/><rect fill="#FFFFFF" height="21" style="stroke:#181818;stroke-width:0.6999999999999998;" width="7" x="1025.0478" y="632.9449"/><rect fill="none" height="612.4754" style="stroke:#000000;stroke-width:1.0499999999999998;" width="1154.7946" x="36.3604" y="73.8732"/><rect fill="none" height="99.3111" style="stroke:#000000;stroke-width:1.0499999999999998;" width="511.1285" x="461.3181" y="267.2687"/><rect fill="none" height="173.8844" style="stroke:#000000;stroke-width:1.0499999999999998;" width="521.3233" x="662.8316" y="485.6605"/><line style="stroke:#181818;stroke-width:0.3499999999999999;stroke-dasharray:5.0,5.0;" x1="102.8604" x2="102.8604" y1="40.0695" y2="720.1523"/><line style="stroke:#181818;stroke-width:0.3499999999999999;stroke-dasharray:5.0,5.0;" x1="202.2453" x2="202.2453" y1="40.0695" y2="720.1523"/><line style="stroke:#181818;stroke-width:0.3499999999999999;stroke-dasharray:5.0,5.0;" x1="274.9147" x2="274.9147" y1="40.0695" y2="720.1523"/><line style="stroke:#181818;stroke-width:0.3499999999999999;stroke-dasharray:5.0,5.0;" x1="371.3069" x2="371.3069" y1="40.0695" y2="720.1523"/><line style="stroke:#181818;stroke-width:0.3499999999999999;stroke-dasharray:5.0,5.0;" x1="502.6181" x2="502.6181" y1="40.0695" y2="720.1523"/><line style="stroke:#181818;stroke-width:0.3499999999999999;stroke-dasharray:5.0,5.0;" x1="616.8155" x2="616.8155" y1="40.0695" y2="720.1523"/><line style="stroke:#181818;stroke-width:0.3499999999999999;stroke-dasharray:5.0,5.0;" x1="718.8316" x2="718.8316" y1="40.0695" y2="720.1523"/><line style="stroke:#181818;stroke-width:0.3499999999999999;stroke-dasharray:5.0,5.0;" x1="919.4305" x2="919.4305" y1="247.584" y2="720.1523"/><line style="stroke:#181818;stroke-width:0.3499999999999999;stroke-dasharray:5.0,5.0;" x1="1028.4466" x2="1028.4466" y1="465.9758" y2="720.1523"/><line style="stroke:#181818;stroke-width:0.3499999999999999;stroke-dasharray:5.0,5.0;" x1="1134.349" x2="1134.349" y1="601.8564" y2="720.1523"/><rect fill="#E3E3E3" height="22.8348" rx="1.75" ry="1.75" style="stroke:#181818;stroke-width:0.3499999999999999;" width="120.385" x="43.3604" y="16.5348"/><text fill="#000000" font-family="sans-serif" font-size="9.8" lengthAdjust="spacing" textLength="110.585" x="48.2604" y="32.01">:StationBuildingController</text><rect fill="#E3E3E3" height="22.8348" rx="1.75" ry="1.75" style="stroke:#181818;stroke-width:0.3499999999999999;" width="120.385" x="43.3604" y="719.4523"/><text fill="#000000" font-family="sans-serif" font-size="9.8" lengthAdjust="spacing" textLength="110.585" x="48.2604" y="734.9275">:StationBuildingController</text><rect fill="#E3E3E3" height="22.8348" rx="1.75" ry="1.75" style="stroke:#181818;stroke-width:0.3499999999999999;" width="64.2694" x="170.7453" y="16.5348"/><text fill="#000000" font-family="sans-serif" font-size="9.8" lengthAdjust="spacing" textLength="54.4694" x="175.6453" y="32.01">Repositories</text><rect fill="#E3E3E3" height="22.8348" rx="1.75" ry="1.75" style="stroke:#181818;stroke-width:0.3499999999999999;" width="64.2694" x="170.7453" y="719.4523"/><text fill="#000000" font-family="sans-serif" font-size="9.8" lengthAdjust="spacing" textLength="54.4694" x="175.6453" y="734.9275">Repositories</text><rect fill="#E3E3E3" height="35.8695" rx="1.75" ry="1.75" style="stroke:#181818;stroke-width:0.3499999999999999;" width="66.9922" x="242.0147" y="3.5"/><text fill="#000000" font-family="sans-serif" font-size="9.8" lengthAdjust="spacing" textLength="50.6557" x="250.183" y="18.9752">repositories</text><text fill="#000000" font-family="sans-serif" font-size="9.8" lengthAdjust="spacing" textLength="57.1922" x="246.9147" y="32.01">:Repositories</text><rect fill="#E3E3E3" height="35.8695" rx="1.75" ry="1.75" style="stroke:#181818;stroke-width:0.3499999999999999;" width="66.9922" x="242.0147" y="719.4523"/><text fill="#000000" font-family="sans-serif" font-size="9.8" lengthAdjust="spacing" textLength="50.6557" x="250.183" y="734.9275">repositories</text><text fill="#000000" font-family="sans-serif" font-size="9.8" lengthAdjust="spacing" textLength="57.1922" x="246.9147" y="747.9623">:Repositories</text><rect fill="#E3E3E3" height="35.8695" rx="1.75" ry="1.75" style="stroke:#181818;stroke-width:0.3499999999999999;" width="111.6616" x="316.0069" y="3.5"/><text fill="#000000" font-family="sans-serif" font-size="9.8" lengthAdjust="spacing" textLength="97.5023" x="323.0866" y="18.9752">stationTypeRepository</text><text fill="#000000" font-family="sans-serif" font-size="9.8" lengthAdjust="spacing" textLength="101.8616" x="320.9069" y="32.01">:StationTypeRepository</text><rect fill="#E3E3E3" height="35.8695" rx="1.75" ry="1.75" style="stroke:#181818;stroke-width:0.3499999999999999;" width="111.6616" x="316.0069" y="719.4523"/><text fill="#000000" font-family="sans-serif" font-size="9.8" lengthAdjust="spacing" textLength="97.5023" x="323.0866" y="734.9275">stationTypeRepository</text><text fill="#000000" font-family="sans-serif" font-size="9.8" lengthAdjust="spacing" textLength="101.8616" x="320.9069" y="747.9623">:StationTypeRepository</text><rect fill="#E3E3E3" height="35.8695" rx="1.75" ry="1.75" style="stroke:#181818;stroke-width:0.3499999999999999;" width="69.7197" x="468.3181" y="3.5"/><text fill="#000000" font-family="sans-serif" font-size="9.8" lengthAdjust="spacing" textLength="55.5604" x="475.3978" y="18.9752">stationTypes</text><text fill="#000000" font-family="sans-serif" font-size="9.8" lengthAdjust="spacing" textLength="59.9197" x="473.2181" y="32.01">:StationTypes</text><rect fill="#E3E3E3" height="35.8695" rx="1.75" ry="1.75" style="stroke:#181818;stroke-width:0.3499999999999999;" width="69.7197" x="468.3181" y="719.4523"/><text fill="#000000" font-family="sans-serif" font-size="9.8" lengthAdjust="spacing" textLength="55.5604" x="475.3978" y="734.9275">stationTypes</text><text fill="#000000" font-family="sans-serif" font-size="9.8" lengthAdjust="spacing" textLength="59.9197" x="473.2181" y="747.9623">:StationTypes</text><rect fill="#E3E3E3" height="22.8348" rx="1.75" ry="1.75" style="stroke:#181818;stroke-width:0.3499999999999999;" width="91.5161" x="571.3155" y="16.5348"/><text fill="#000000" font-family="sans-serif" font-size="9.8" lengthAdjust="spacing" textLength="81.7161" x="576.2155" y="32.01">:List&lt;StationType&gt;</text><rect fill="#E3E3E3" height="22.8348" rx="1.75" ry="1.75" style="stroke:#181818;stroke-width:0.3499999999999999;" width="91.5161" x="571.3155" y="719.4523"/><text fill="#000000" font-family="sans-serif" font-size="9.8" lengthAdjust="spacing" textLength="81.7161" x="576.2155" y="734.9275">:List&lt;StationType&gt;</text><rect fill="#E3E3E3" height="22.8348" rx="1.75" ry="1.75" style="stroke:#181818;stroke-width:0.3499999999999999;" width="98.0479" x="669.8316" y="16.5348"/><text fill="#000000" font-family="sans-serif" font-size="9.8" lengthAdjust="spacing" textLength="88.2479" x="674.7316" y="32.01">:StationTypeMapper</text><rect fill="#E3E3E3" height="22.8348" rx="1.75" ry="1.75" style="stroke:#181818;stroke-width:0.3499999999999999;" width="98.0479" x="669.8316" y="719.4523"/><text fill="#000000" font-family="sans-serif" font-size="9.8" lengthAdjust="spacing" textLength="88.2479" x="674.7316" y="734.9275">:StationTypeMapper</text><rect fill="#E3E3E3" height="35.8695" rx="1.75" ry="1.75" style="stroke:#181818;stroke-width:0.3499999999999999;" width="91.5161" x="873.9305" y="719.4523"/><text fill="#000000" font-family="sans-serif" font-size="9.8" lengthAdjust="spacing" textLength="64.2742" x="887.5515" y="734.9275">listStationType</text><text fill="#000000" font-family="sans-serif" font-size="9.8" lengthAdjust="spacing" textLength="81.7161" x="878.8305" y="747.9623">:List&lt;StationType&gt;</text><rect fill="#E3E3E3" height="35.8695" rx="1.75" ry="1.75" style="stroke:#181818;stroke-width:0.3499999999999999;" width="112.2023" x="972.4466" y="719.4523"/><text fill="#000000" font-family="sans-serif" font-size="9.8" lengthAdjust="spacing" textLength="84.9604" x="986.0676" y="734.9275">listStationTypeDTO</text><text fill="#000000" font-family="sans-serif" font-size="9.8" lengthAdjust="spacing" textLength="102.4023" x="977.3466" y="747.9623">:List&lt;StationTypeDTO&gt;</text><rect fill="#E3E3E3" height="35.8695" rx="1.75" ry="1.75" style="stroke:#181818;stroke-width:0.3499999999999999;" width="85.506" x="1091.649" y="719.4523"/><text fill="#000000" font-family="sans-serif" font-size="9.8" lengthAdjust="spacing" textLength="71.3467" x="1098.7286" y="734.9275">stationTypeDTO</text><text fill="#000000" font-family="sans-serif" font-size="9.8" lengthAdjust="spacing" textLength="75.706" x="1096.549" y="747.9623">:StationTypeDTO</text><rect fill="#FFFFFF" height="644.1791" style="stroke:#181818;stroke-width:0.6999999999999998;" width="7" x="100.0528" y="63.3732"/><rect fill="#FFFFFF" height="21.9037" style="stroke:#181818;stroke-width:0.6999999999999998;" width="7" x="199.38" y="103.6807"/><rect fill="#FFFFFF" height="21.9037" style="stroke:#181818;stroke-width:0.6999999999999998;" width="7" x="272.0108" y="147.4881"/><rect fill="#FFFFFF" height="218.3918" style="stroke:#181818;stroke-width:0.6999999999999998;" width="7" x="368.3377" y="191.2955"/><rect fill="#FFFFFF" height="174.5844" style="stroke:#181818;stroke-width:0.6999999999999998;" width="7" x="499.678" y="213.1992"/><rect fill="#FFFFFF" height="21" style="stroke:#181818;stroke-width:0.6999999999999998;" width="7" x="613.5736" y="297.0762"/><rect fill="#FFFFFF" height="249.1576" style="stroke:#181818;stroke-width:0.6999999999999998;" width="7" x="715.3556" y="431.591"/><rect fill="#FFFFFF" height="25.4037" style="stroke:#181818;stroke-width:0.6999999999999998;" width="7" x="718.8556" y="563.9717"/><rect fill="#FFFFFF" height="21" style="stroke:#181818;stroke-width:0.6999999999999998;" width="7" x="916.1886" y="339.9799"/><rect fill="#FFFFFF" height="21" style="stroke:#181818;stroke-width:0.6999999999999998;" width="7" x="916.1886" y="515.468"/><rect fill="#FFFFFF" height="21" style="stroke:#181818;stroke-width:0.6999999999999998;" width="7" x="1025.0478" y="632.9449"/><polygon fill="#181818" points="91.6528,60.5732,98.6528,63.3732,91.6528,66.1732,94.4528,63.3732" style="stroke:#181818;stroke-width:0.6999999999999998;"/><line style="stroke:#181818;stroke-width:0.6999999999999998;" x1="0" x2="95.8528" y1="63.3732" y2="63.3732"/><text fill="#000000" font-family="sans-serif" font-size="9.1" font-weight="bold" lengthAdjust="spacing" textLength="5.061" x="4.9" y="59.6894">3</text><text fill="#000000" font-family="sans-serif" font-size="9.1" lengthAdjust="spacing" textLength="71.8225" x="12.761" y="59.6894">getStationTypes()</text><path d="M36.3604,73.8732 L175.5496,73.8732 L175.5496,80.377 L168.5496,87.377 L36.3604,87.377 L36.3604,73.8732 " fill="#EEEEEE" style="stroke:#000000;stroke-width:1.0499999999999998;"/><rect fill="none" height="612.4754" style="stroke:#000000;stroke-width:1.0499999999999998;" width="1154.7946" x="36.3604" y="73.8732"/><text fill="#000000" font-family="sans-serif" font-size="9.1" font-weight="bold" lengthAdjust="spacing" textLength="107.6893" x="46.8604" y="84.3931">Get StationTypeDTO List</text><polygon fill="#181818" points="190.98,100.8807,197.98,103.6807,190.98,106.4807,193.78,103.6807" style="stroke:#181818;stroke-width:0.6999999999999998;"/><line style="stroke:#181818;stroke-width:0.6999999999999998;" x1="107.0528" x2="195.18" y1="103.6807" y2="103.6807"/><text fill="#000000" font-family="sans-serif" font-size="9.1" font-weight="bold" lengthAdjust="spacing" textLength="12.6502" x="111.9528" y="99.9968">3.1</text><text fill="#000000" font-family="sans-serif" font-size="9.1" lengthAdjust="spacing" textLength="53.1115" x="127.4031" y="99.9968">getInstance()</text><polygon fill="#181818" points="114.7528,122.7844,107.7528,125.5844,114.7528,128.3844,111.9528,125.5844" style="stroke:#181818;stroke-width:0.6999999999999998;"/><line style="stroke:#181818;stroke-width:0.6999999999999998;stroke-dasharray:2.0,2.0;" x1="110.5528" x2="202.18" y1="125.5844" y2="125.5844"/><text fill="#000000" font-family="sans-serif" font-size="9.1" font-weight="bold" lengthAdjust="spacing" textLength="12.6502" x="118.9528" y="121.9005">3.2</text><text fill="#000000" font-family="sans-serif" font-size="9.1" lengthAdjust="spacing" textLength="47.0374" x="134.4031" y="121.9005">repositories</text><polygon fill="#181818" points="263.6108,144.6881,270.6108,147.4881,263.6108,150.2881,266.4108,147.4881" style="stroke:#181818;stroke-width:0.6999999999999998;"/><line style="stroke:#181818;stroke-width:0.6999999999999998;" x1="107.0528" x2="267.8108" y1="147.4881" y2="147.4881"/><text fill="#000000" font-family="sans-serif" font-size="9.1" font-weight="bold" lengthAdjust="spacing" textLength="12.6502" x="111.9528" y="143.8042">3.3</text><text fill="#000000" font-family="sans-serif" font-size="9.1" lengthAdjust="spacing" textLength="110.7685" x="127.4031" y="143.8042">getStationTypeRepository()</text><polygon fill="#181818" points="114.7528,166.5918,107.7528,169.3918,114.7528,172.1918,111.9528,169.3918" style="stroke:#181818;stroke-width:0.6999999999999998;"/><line style="stroke:#181818;stroke-width:0.6999999999999998;stroke-dasharray:2.0,2.0;" x1="110.5528" x2="274.8108" y1="169.3918" y2="169.3918"/><text fill="#000000" font-family="sans-serif" font-size="9.1" font-weight="bold" lengthAdjust="spacing" textLength="12.6502" x="118.9528" y="165.7079">3.4</text><text fill="#000000" font-family="sans-serif" font-size="9.1" lengthAdjust="spacing" textLength="90.5379" x="134.4031" y="165.7079">stationTypeRepository</text><polygon fill="#181818" points="359.9377,188.4955,366.9377,191.2955,359.9377,194.0955,362.7377,191.2955" style="stroke:#181818;stroke-width:0.6999999999999998;"/><line style="stroke:#181818;stroke-width:0.6999999999999998;" x1="107.0528" x2="364.1377" y1="191.2955" y2="191.2955"/><text fill="#000000" font-family="sans-serif" font-size="9.1" font-weight="bold" lengthAdjust="spacing" textLength="12.6502" x="111.9528" y="187.6116">3.5</text><text fill="#000000" font-family="sans-serif" font-size="9.1" lengthAdjust="spacing" textLength="95.59" x="127.4031" y="187.6116">getListOfStationTypes()</text><polygon fill="#181818" points="491.278,210.3992,498.278,213.1992,491.278,215.9992,494.078,213.1992" style="stroke:#181818;stroke-width:0.6999999999999998;"/><line style="stroke:#181818;stroke-width:0.6999999999999998;" x1="375.3377" x2="495.478" y1="213.1992" y2="213.1992"/><text fill="#000000" font-family="sans-serif" font-size="9.1" font-weight="bold" lengthAdjust="spacing" textLength="12.6502" x="380.2377" y="209.5153">3.6</text><text fill="#000000" font-family="sans-serif" font-size="9.1" lengthAdjust="spacing" textLength="95.59" x="395.688" y="209.5153">getListOfStationTypes()</text><polygon fill="#181818" points="865.5305,232.3029,872.5305,235.1029,865.5305,237.9029,868.3305,235.1029" style="stroke:#181818;stroke-width:0.6999999999999998;"/><line style="stroke:#181818;stroke-width:0.6999999999999998;stroke-dasharray:2.0,2.0;" x1="506.678" x2="869.7305" y1="235.1029" y2="235.1029"/><text fill="#000000" font-family="sans-serif" font-size="9.1" font-weight="bold" lengthAdjust="spacing" textLength="12.6502" x="511.578" y="231.419">3.7</text><text fill="#000000" font-family="sans-serif" font-size="9.1" lengthAdjust="spacing" textLength="31.3523" x="527.0282" y="231.419">create()</text><rect fill="#E3E3E3" height="35.8695" rx="1.75" ry="1.75" style="stroke:#181818;stroke-width:0.3499999999999999;" width="91.5161" x="873.9305" y="218.7992"/><text fill="#000000" font-family="sans-serif" font-size="9.8" lengthAdjust="spacing" textLength="64.2742" x="887.5515" y="234.2744">listStationType</text><text fill="#000000" font-family="sans-serif" font-size="9.8" lengthAdjust="spacing" textLength="81.7161" x="878.8305" y="247.3092">:List&lt;StationType&gt;</text><path d="M461.3181,267.2687 L512.0223,267.2687 L512.0223,273.7725 L505.0223,280.7725 L461.3181,280.7725 L461.3181,267.2687 " fill="#EEEEEE" style="stroke:#000000;stroke-width:1.0499999999999998;"/><rect fill="none" height="99.3111" style="stroke:#000000;stroke-width:1.0499999999999998;" width="511.1285" x="461.3181" y="267.2687"/><text fill="#000000" font-family="sans-serif" font-size="9.1" font-weight="bold" lengthAdjust="spacing" textLength="19.2042" x="471.8181" y="277.7886">loop</text><text fill="#000000" font-family="sans-serif" font-size="7.7" font-weight="bold" lengthAdjust="spacing" textLength="107.8075" x="522.5223" y="276.9778">[for each known StationType]</text><polygon fill="#181818" points="605.1736,294.2762,612.1736,297.0762,605.1736,299.8762,607.9736,297.0762" style="stroke:#181818;stroke-width:0.6999999999999998;"/><line style="stroke:#181818;stroke-width:0.6999999999999998;" x1="506.678" x2="609.3736" y1="297.0762" y2="297.0762"/><text fill="#000000" font-family="sans-serif" font-size="9.1" font-weight="bold" lengthAdjust="spacing" textLength="12.6502" x="511.578" y="293.3923">3.8</text><text fill="#000000" font-family="sans-serif" font-size="9.1" lengthAdjust="spacing" textLength="78.1454" x="527.0282" y="293.3923">stationType = get(i)</text><polygon fill="#181818" points="907.7886,337.1799,914.7886,339.9799,907.7886,342.7799,910.5886,339.9799" style="stroke:#181818;stroke-width:0.6999999999999998;"/><line style="stroke:#181818;stroke-width:0.6999999999999998;" x1="506.678" x2="911.9886" y1="339.9799" y2="339.9799"/><text fill="#000000" font-family="sans-serif" font-size="9.1" font-weight="bold" lengthAdjust="spacing" textLength="12.6502" x="511.578" y="336.296">3.9</text><text fill="#000000" font-family="sans-serif" font-size="9.1" lengthAdjust="spacing" textLength="68.2855" x="527.0282" y="336.296">add(stationType)</text><polygon fill="#181818" points="383.0377,384.9836,376.0377,387.7836,383.0377,390.5836,380.2377,387.7836" style="stroke:#181818;stroke-width:0.6999999999999998;"/><line style="stroke:#181818;stroke-width:0.6999999999999998;stroke-dasharray:2.0,2.0;" x1="378.8377" x2="502.478" y1="387.7836" y2="387.7836"/><text fill="#000000" font-family="sans-serif" font-size="9.1" font-weight="bold" lengthAdjust="spacing" textLength="17.7112" x="387.2377" y="384.0997">3.10</text><text fill="#000000" font-family="sans-serif" font-size="9.1" lengthAdjust="spacing" textLength="59.6832" x="407.749" y="384.0997">listStationType</text><polygon fill="#181818" points="114.7528,406.8873,107.7528,409.6873,114.7528,412.4873,111.9528,409.6873" style="stroke:#181818;stroke-width:0.6999999999999998;"/><line style="stroke:#181818;stroke-width:0.6999999999999998;stroke-dasharray:2.0,2.0;" x1="110.5528" x2="371.1377" y1="409.6873" y2="409.6873"/><text fill="#000000" font-family="sans-serif" font-size="9.1" font-weight="bold" lengthAdjust="spacing" textLength="17.7112" x="118.9528" y="406.0034">3.11</text><text fill="#000000" font-family="sans-serif" font-size="9.1" lengthAdjust="spacing" textLength="59.6832" x="139.4641" y="406.0034">listStationType</text><polygon fill="#181818" points="706.9556,428.791,713.9556,431.591,706.9556,434.391,709.7556,431.591" style="stroke:#181818;stroke-width:0.6999999999999998;"/><line style="stroke:#181818;stroke-width:0.6999999999999998;" x1="107.0528" x2="711.1556" y1="431.591" y2="431.591"/><text fill="#000000" font-family="sans-serif" font-size="9.1" font-weight="bold" lengthAdjust="spacing" textLength="17.7112" x="111.9528" y="427.9071">3.12</text><text fill="#000000" font-family="sans-serif" font-size="9.1" lengthAdjust="spacing" textLength="92.5418" x="132.4641" y="427.9071">toDTO(listStationType)</text><polygon fill="#181818" points="964.0466,450.6947,971.0466,453.4947,964.0466,456.2947,966.8466,453.4947" style="stroke:#181818;stroke-width:0.6999999999999998;"/><line style="stroke:#181818;stroke-width:0.6999999999999998;stroke-dasharray:2.0,2.0;" x1="722.3556" x2="968.2466" y1="453.4947" y2="453.4947"/><text fill="#000000" font-family="sans-serif" font-size="9.1" font-weight="bold" lengthAdjust="spacing" textLength="17.7112" x="727.2556" y="449.8108">3.13</text><text fill="#000000" font-family="sans-serif" font-size="9.1" lengthAdjust="spacing" textLength="31.3523" x="747.7668" y="449.8108">create()</text><rect fill="#E3E3E3" height="35.8695" rx="1.75" ry="1.75" style="stroke:#181818;stroke-width:0.3499999999999999;" width="112.2023" x="972.4466" y="437.191"/><text fill="#000000" font-family="sans-serif" font-size="9.8" lengthAdjust="spacing" textLength="84.9604" x="986.0676" y="452.6662">listStationTypeDTO</text><text fill="#000000" font-family="sans-serif" font-size="9.8" lengthAdjust="spacing" textLength="102.4023" x="977.3466" y="465.701">:List&lt;StationTypeDTO&gt;</text><path d="M662.8316,485.6605 L713.5358,485.6605 L713.5358,492.1643 L706.5358,499.1643 L662.8316,499.1643 L662.8316,485.6605 " fill="#EEEEEE" style="stroke:#000000;stroke-width:1.0499999999999998;"/><rect fill="none" height="173.8844" style="stroke:#000000;stroke-width:1.0499999999999998;" width="521.3233" x="662.8316" y="485.6605"/><text fill="#000000" font-family="sans-serif" font-size="9.1" font-weight="bold" lengthAdjust="spacing" textLength="19.2042" x="673.3316" y="496.1804">loop</text><text fill="#000000" font-family="sans-serif" font-size="7.7" font-weight="bold" lengthAdjust="spacing" textLength="126.2078" x="724.0358" y="495.3696">[for each object in listStationType]</text><polygon fill="#181818" points="907.7886,512.668,914.7886,515.468,907.7886,518.268,910.5886,515.468" style="stroke:#181818;stroke-width:0.6999999999999998;"/><line style="stroke:#181818;stroke-width:0.6999999999999998;" x1="722.3556" x2="911.9886" y1="515.468" y2="515.468"/><text fill="#000000" font-family="sans-serif" font-size="9.1" font-weight="bold" lengthAdjust="spacing" textLength="17.7112" x="727.2556" y="511.7841">3.14</text><text fill="#000000" font-family="sans-serif" font-size="9.1" lengthAdjust="spacing" textLength="78.1454" x="747.7668" y="511.7841">stationType = get(i)</text><line style="stroke:#181818;stroke-width:0.6999999999999998;" x1="722.3556" x2="755.2556" y1="554.8717" y2="554.8717"/><line style="stroke:#181818;stroke-width:0.6999999999999998;" x1="755.2556" x2="755.2556" y1="554.8717" y2="563.9717"/><line style="stroke:#181818;stroke-width:0.6999999999999998;" x1="726.5556" x2="755.2556" y1="563.9717" y2="563.9717"/><polygon fill="#181818" points="733.5556,561.1717,726.5556,563.9717,733.5556,566.7717,730.7556,563.9717" style="stroke:#181818;stroke-width:0.6999999999999998;"/><text fill="#000000" font-family="sans-serif" font-size="9.1" font-weight="bold" lengthAdjust="spacing" textLength="17.7112" x="730.7556" y="551.1878">3.15</text><text fill="#000000" font-family="sans-serif" font-size="9.1" lengthAdjust="spacing" textLength="156.5218" x="751.2668" y="551.1878">stationTypeDTO = toDTO(stationType)</text><polygon fill="#181818" points="1083.249,586.5754,1090.249,589.3754,1083.249,592.1754,1086.049,589.3754" style="stroke:#181818;stroke-width:0.6999999999999998;"/><line style="stroke:#181818;stroke-width:0.6999999999999998;stroke-dasharray:2.0,2.0;" x1="722.3556" x2="1087.449" y1="589.3754" y2="589.3754"/><text fill="#000000" font-family="sans-serif" font-size="9.1" font-weight="bold" lengthAdjust="spacing" textLength="17.7112" x="727.2556" y="585.6915">3.16</text><text fill="#000000" font-family="sans-serif" font-size="9.1" lengthAdjust="spacing" textLength="31.3523" x="747.7668" y="585.6915">create()</text><rect fill="#E3E3E3" height="35.8695" rx="1.75" ry="1.75" style="stroke:#181818;stroke-width:0.3499999999999999;" width="85.506" x="1091.649" y="573.0717"/><text fill="#000000" font-family="sans-serif" font-size="9.8" lengthAdjust="spacing" textLength="71.3467" x="1098.7286" y="588.5469">stationTypeDTO</text><text fill="#000000" font-family="sans-serif" font-size="9.8" lengthAdjust="spacing" textLength="75.706" x="1096.549" y="601.5816">:StationTypeDTO</text><polygon fill="#181818" points="1016.6478,630.1449,1023.6478,632.9449,1016.6478,635.7449,1019.4478,632.9449" style="stroke:#181818;stroke-width:0.6999999999999998;"/><line style="stroke:#181818;stroke-width:0.6999999999999998;" x1="722.3556" x2="1020.8478" y1="632.9449" y2="632.9449"/><text fill="#000000" font-family="sans-serif" font-size="9.1" font-weight="bold" lengthAdjust="spacing" textLength="17.7112" x="727.2556" y="629.261">3.17</text><text fill="#000000" font-family="sans-serif" font-size="9.1" lengthAdjust="spacing" textLength="87.4942" x="747.7668" y="629.261">add(stationTypeDTO)</text><polygon fill="#181818" points="114.7528,677.9486,107.7528,680.7486,114.7528,683.5486,111.9528,680.7486" style="stroke:#181818;stroke-width:0.6999999999999998;"/><line style="stroke:#181818;stroke-width:0.6999999999999998;stroke-dasharray:2.0,2.0;" x1="110.5528" x2="718.1556" y1="680.7486" y2="680.7486"/><text fill="#000000" font-family="sans-serif" font-size="9.1" font-weight="bold" lengthAdjust="spacing" textLength="17.7112" x="118.9528" y="677.0647">3.18</text><text fill="#000000" font-family="sans-serif" font-size="9.1" lengthAdjust="spacing" textLength="78.8918" x="139.4641" y="677.0647">listStationTypeDTO</text><polygon fill="#181818" points="7.7,704.7523,0.7,707.5523,7.7,710.3523,4.9,707.5523" style="stroke:#181818;stroke-width:0.6999999999999998;"/><line style="stroke:#181818;stroke-width:0.6999999999999998;stroke-dasharray:2.0,2.0;" x1="3.5" x2="102.8528" y1="707.5523" y2="707.5523"/><text fill="#000000" font-family="sans-serif" font-size="9.1" font-weight="bold" lengthAdjust="spacing" textLength="5.061" x="11.9" y="703.8685">4</text><text fill="#000000" font-family="sans-serif" font-size="9.1" lengthAdjust="spacing" textLength="78.8918" x="19.761" y="703.8685">listStationTypeDTO</text><!--SRC=[dLR1Rk8m4BtdAqOzqKgiLEsUeYvIjuig90g8vB9I9UGc1bo27TbcA_v-RQSDTcm3sHpjcVUUPzuu5Zj2QyJH7lQCicBBsHw3v0USY7QdHiKERN0cZnK6ZWk9wAQo0yGMbUo3q0siKILmagXbIGfI8ohX9iqaaeJHNmTIbIheYL79MLLXVWD8m5E-dBe9IrmpGIJZ10iJiXmlvfaRmwsOLvg6KrRPPFOy7UVpcPii6a7viSPjub6XPA5r0vVbZ_baFblbVnRZbSQE0WeNHtZfdOEaKoBaWvKnCXdJIPQ7owXZNb1TVvRFKVRok5YCbsvUfV2jL2KlpEW0-VGTcD_vF82aLYDWAxKLhLa3vkBuC1eXGGV9w67_XZbyJuOZuvuKDjZM9WQtRk2t-mGLaln54ZTs0_LjE3lKy8mbkCIW3vMO4FtfU514nb1Wg2PKQQS5LZHVKIryOrMmlYPns6grdTi6bhY34EO_6RfxvfDVewgiQV3qdVOifS4nYKgsu3tntlWO-RhGytMdSPvsV_HizTvkbowxJ1MbizeGuckwwbdzxYw5WcC5fdtO1QWOgs7DEAZoRM57sGUr3UZ51qX7vdPm-WC_zIa7v3QOtnxEZ3L4FgkX9kuwATxnKq1bER2qNT3atpjN2BoSX6dPktkDCpitNNA5X8vH0gPiXog67ZkSSVpvWMfk_HGaKzVNe4DmQQ8-Vnbn_Kr0sEhwJexRtRKwUtjNJmSWz6o1e_H1frqr0JsTTjPb_wNrgp_k7qy9RXfsTbJEDktIW4PxrsrRdpg43DEdQvhSkoFKMf_6cRT0t-PvITuL4QjTS79jj6jgrR9PBvCVPk5XE6m6EyXXOPktopy0]--></g></svg>