<svg xmlns="http://www.w3.org/2000/svg" xmlns:xlink="http://www.w3.org/1999/xlink" contentStyleType="text/css" height="856px" preserveAspectRatio="none" style="width:1018px;height:856px;background:#FFFFFF;" version="1.1" viewBox="0 0 1018 856" width="1018.4px" zoomAndPan="magnify"><defs/><g><rect fill="#FFFFFF" height="724.2828" style="stroke:#181818;stroke-width:0.8000000000000002;" width="8" x="155.9563" y="72.4266"/><rect fill="#FFFFFF" height="33.8328" style="stroke:#181818;stroke-width:0.8000000000000002;" width="8" x="159.9563" y="590.7453"/><rect fill="#FFFFFF" height="22.4" style="stroke:#181818;stroke-width:0.8000000000000002;" width="8" x="159.9563" y="661.6109"/><rect fill="#FFFFFF" height="33.8328" style="stroke:#181818;stroke-width:0.8000000000000002;" width="8" x="159.9563" y="726.6438"/><rect fill="#FFFFFF" height="25.0328" style="stroke:#181818;stroke-width:0.8000000000000002;" width="8" x="389.2578" y="118.4922"/><rect fill="#FFFFFF" height="25.0328" style="stroke:#181818;stroke-width:0.8000000000000002;" width="8" x="472.2645" y="168.5578"/><rect fill="#FFFFFF" height="234.6938" style="stroke:#181818;stroke-width:0.8000000000000002;" width="8" x="562.1125" y="218.6234"/><rect fill="#FFFFFF" height="184.6281" style="stroke:#181818;stroke-width:0.8000000000000002;" width="8" x="677.5219" y="243.6563"/><rect fill="#FFFFFF" height="24" style="stroke:#181818;stroke-width:0.8000000000000002;" width="8" x="786.2656" y="324.6188"/><rect fill="#FFFFFF" height="24" style="stroke:#181818;stroke-width:0.8000000000000002;" width="8" x="786.2656" y="373.6516"/><rect fill="#FFFFFF" height="25.0328" style="stroke:#181818;stroke-width:0.8000000000000002;" width="8" x="922.6957" y="534.2797"/><rect fill="none" height="688.05" style="stroke:#000000;stroke-width:1.2000000000000002;" width="938.4879" x="75.1648" y="84.4266"/><rect fill="none" height="113.4984" style="stroke:#000000;stroke-width:1.2000000000000002;" width="177.9574" x="652.3633" y="290.5531"/><rect fill="none" height="195.7969" style="stroke:#000000;stroke-width:1.2000000000000002;" width="868.3309" x="83.1648" y="500.2141"/><line style="stroke:#181818;stroke-width:0.4000000000000001;stroke-dasharray:5.0,5.0;" x1="159.1648" x2="159.1648" y1="45.7938" y2="811.1094"/><line style="stroke:#181818;stroke-width:0.4000000000000001;stroke-dasharray:5.0,5.0;" x1="392.5324" x2="392.5324" y1="45.7938" y2="811.1094"/><line style="stroke:#181818;stroke-width:0.4000000000000001;stroke-dasharray:5.0,5.0;" x1="475.5832" x2="475.5832" y1="45.7938" y2="811.1094"/><line style="stroke:#181818;stroke-width:0.4000000000000001;stroke-dasharray:5.0,5.0;" x1="565.7457" x2="565.7457" y1="45.7938" y2="811.1094"/><line style="stroke:#181818;stroke-width:0.4000000000000001;stroke-dasharray:5.0,5.0;" x1="681.1633" x2="681.1633" y1="45.7938" y2="811.1094"/><line style="stroke:#181818;stroke-width:0.4000000000000001;stroke-dasharray:5.0,5.0;" x1="790.2105" x2="790.2105" y1="275.5047" y2="811.1094"/><line style="stroke:#181818;stroke-width:0.4000000000000001;stroke-dasharray:5.0,5.0;" x1="865.5207" x2="865.5207" y1="45.7938" y2="811.1094"/><line style="stroke:#181818;stroke-width:0.4000000000000001;stroke-dasharray:5.0,5.0;" x1="926.6957" x2="926.6957" y1="45.7938" y2="811.1094"/><line style="stroke:#181818;stroke-width:0.4000000000000001;stroke-dasharray:5.0,5.0;" x1="977.8957" x2="977.8957" y1="485.1656" y2="811.1094"/><rect fill="#E3E3E3" height="26.0969" rx="2" ry="2" style="stroke:#181818;stroke-width:0.4000000000000001;" width="137.5828" x="91.1648" y="18.8969"/><text fill="#000000" font-family="sans-serif" font-size="11.2" lengthAdjust="spacing" textLength="126.3828" x="96.7648" y="36.5828">:StationBuildingController</text><rect fill="#E3E3E3" height="26.0969" rx="2" ry="2" style="stroke:#181818;stroke-width:0.4000000000000001;" width="137.5828" x="91.1648" y="810.3094"/><text fill="#000000" font-family="sans-serif" font-size="11.2" lengthAdjust="spacing" textLength="126.3828" x="96.7648" y="827.9953">:StationBuildingController</text><rect fill="#E3E3E3" height="26.0969" rx="2" ry="2" style="stroke:#181818;stroke-width:0.4000000000000001;" width="73.4508" x="356.5324" y="18.8969"/><text fill="#000000" font-family="sans-serif" font-size="11.2" lengthAdjust="spacing" textLength="62.2508" x="362.1324" y="36.5828">Repositories</text><rect fill="#E3E3E3" height="26.0969" rx="2" ry="2" style="stroke:#181818;stroke-width:0.4000000000000001;" width="73.4508" x="356.5324" y="810.3094"/><text fill="#000000" font-family="sans-serif" font-size="11.2" lengthAdjust="spacing" textLength="62.2508" x="362.1324" y="827.9953">Repositories</text><rect fill="#E3E3E3" height="40.9938" rx="2" ry="2" style="stroke:#181818;stroke-width:0.4000000000000001;" width="76.5625" x="437.9832" y="4"/><text fill="#000000" font-family="sans-serif" font-size="11.2" lengthAdjust="spacing" textLength="57.8922" x="447.3184" y="21.6859">repositories</text><text fill="#000000" font-family="sans-serif" font-size="11.2" lengthAdjust="spacing" textLength="65.3625" x="443.5832" y="36.5828">:Repositories</text><rect fill="#E3E3E3" height="40.9938" rx="2" ry="2" style="stroke:#181818;stroke-width:0.4000000000000001;" width="76.5625" x="437.9832" y="810.3094"/><text fill="#000000" font-family="sans-serif" font-size="11.2" lengthAdjust="spacing" textLength="57.8922" x="447.3184" y="827.9953">repositories</text><text fill="#000000" font-family="sans-serif" font-size="11.2" lengthAdjust="spacing" textLength="65.3625" x="443.5832" y="842.8922">:Repositories</text><rect fill="#E3E3E3" height="40.9938" rx="2" ry="2" style="stroke:#181818;stroke-width:0.4000000000000001;" width="87.1336" x="522.5457" y="4"/><text fill="#000000" font-family="sans-serif" font-size="11.2" lengthAdjust="spacing" textLength="70.3336" x="530.9457" y="21.6859">cityRepository</text><text fill="#000000" font-family="sans-serif" font-size="11.2" lengthAdjust="spacing" textLength="75.9336" x="528.1457" y="36.5828">:CityRepository</text><rect fill="#E3E3E3" height="40.9938" rx="2" ry="2" style="stroke:#181818;stroke-width:0.4000000000000001;" width="87.1336" x="522.5457" y="810.3094"/><text fill="#000000" font-family="sans-serif" font-size="11.2" lengthAdjust="spacing" textLength="70.3336" x="530.9457" y="827.9953">cityRepository</text><text fill="#000000" font-family="sans-serif" font-size="11.2" lengthAdjust="spacing" textLength="75.9336" x="528.1457" y="842.8922">:CityRepository</text><rect fill="#E3E3E3" height="40.9938" rx="2" ry="2" style="stroke:#181818;stroke-width:0.4000000000000001;" width="42.3172" x="660.3633" y="4"/><text fill="#000000" font-family="sans-serif" font-size="11.2" lengthAdjust="spacing" textLength="25.5172" x="668.7633" y="21.6859">cities</text><text fill="#000000" font-family="sans-serif" font-size="11.2" lengthAdjust="spacing" textLength="31.1172" x="665.9633" y="36.5828">:Cities</text><rect fill="#E3E3E3" height="40.9938" rx="2" ry="2" style="stroke:#181818;stroke-width:0.4000000000000001;" width="42.3172" x="660.3633" y="810.3094"/><text fill="#000000" font-family="sans-serif" font-size="11.2" lengthAdjust="spacing" textLength="25.5172" x="668.7633" y="827.9953">cities</text><text fill="#000000" font-family="sans-serif" font-size="11.2" lengthAdjust="spacing" textLength="31.1172" x="665.9633" y="842.8922">:Cities</text><rect fill="#E3E3E3" height="26.0969" rx="2" ry="2" style="stroke:#181818;stroke-width:0.4000000000000001;" width="64.1102" x="758.2105" y="810.3094"/><text fill="#000000" font-family="sans-serif" font-size="11.2" lengthAdjust="spacing" textLength="52.9102" x="763.8105" y="827.9953">:List&lt;City&gt;</text><rect fill="#E3E3E3" height="26.0969" rx="2" ry="2" style="stroke:#181818;stroke-width:0.4000000000000001;" width="71.575" x="830.3207" y="18.8969"/><text fill="#000000" font-family="sans-serif" font-size="11.2" lengthAdjust="spacing" textLength="60.375" x="835.9207" y="36.5828">:CityMapper</text><rect fill="#E3E3E3" height="26.0969" rx="2" ry="2" style="stroke:#181818;stroke-width:0.4000000000000001;" width="71.575" x="830.3207" y="810.3094"/><text fill="#000000" font-family="sans-serif" font-size="11.2" lengthAdjust="spacing" textLength="60.375" x="835.9207" y="827.9953">:CityMapper</text><rect fill="#E3E3E3" height="26.0969" rx="2" ry="2" style="stroke:#181818;stroke-width:0.4000000000000001;" width="33.6" x="909.8957" y="18.8969"/><text fill="#000000" font-family="sans-serif" font-size="11.2" lengthAdjust="spacing" textLength="22.4" x="915.4957" y="36.5828">:City</text><rect fill="#E3E3E3" height="26.0969" rx="2" ry="2" style="stroke:#181818;stroke-width:0.4000000000000001;" width="33.6" x="909.8957" y="810.3094"/><text fill="#000000" font-family="sans-serif" font-size="11.2" lengthAdjust="spacing" textLength="22.4" x="915.4957" y="827.9953">:City</text><rect fill="#E3E3E3" height="26.0969" rx="2" ry="2" style="stroke:#181818;stroke-width:0.4000000000000001;" width="54.157" x="951.4957" y="810.3094"/><text fill="#000000" font-family="sans-serif" font-size="11.2" lengthAdjust="spacing" textLength="42.957" x="957.0957" y="827.9953">:Position</text><rect fill="#FFFFFF" height="724.2828" style="stroke:#181818;stroke-width:0.8000000000000002;" width="8" x="155.9563" y="72.4266"/><rect fill="#FFFFFF" height="33.8328" style="stroke:#181818;stroke-width:0.8000000000000002;" width="8" x="159.9563" y="590.7453"/><rect fill="#FFFFFF" height="22.4" style="stroke:#181818;stroke-width:0.8000000000000002;" width="8" x="159.9563" y="661.6109"/><rect fill="#FFFFFF" height="33.8328" style="stroke:#181818;stroke-width:0.8000000000000002;" width="8" x="159.9563" y="726.6438"/><rect fill="#FFFFFF" height="25.0328" style="stroke:#181818;stroke-width:0.8000000000000002;" width="8" x="389.2578" y="118.4922"/><rect fill="#FFFFFF" height="25.0328" style="stroke:#181818;stroke-width:0.8000000000000002;" width="8" x="472.2645" y="168.5578"/><rect fill="#FFFFFF" height="234.6938" style="stroke:#181818;stroke-width:0.8000000000000002;" width="8" x="562.1125" y="218.6234"/><rect fill="#FFFFFF" height="184.6281" style="stroke:#181818;stroke-width:0.8000000000000002;" width="8" x="677.5219" y="243.6563"/><rect fill="#FFFFFF" height="24" style="stroke:#181818;stroke-width:0.8000000000000002;" width="8" x="786.2656" y="324.6188"/><rect fill="#FFFFFF" height="24" style="stroke:#181818;stroke-width:0.8000000000000002;" width="8" x="786.2656" y="373.6516"/><rect fill="#FFFFFF" height="25.0328" style="stroke:#181818;stroke-width:0.8000000000000002;" width="8" x="922.6957" y="534.2797"/><polygon fill="#181818" points="146.3563,69.2266,154.3563,72.4266,146.3563,75.6266,149.5563,72.4266" style="stroke:#181818;stroke-width:0.8000000000000002;"/><line style="stroke:#181818;stroke-width:0.8000000000000002;" x1="0" x2="151.1563" y1="72.4266" y2="72.4266"/><text fill="#000000" font-family="sans-serif" font-size="10.4" font-weight="bold" lengthAdjust="spacing" textLength="5.784" x="5.6" y="68.2164">3</text><text fill="#000000" font-family="sans-serif" font-size="10.4" lengthAdjust="spacing" textLength="131.7723" x="14.584" y="68.2164">getClosestCity(positionDTO)</text><path d="M75.1648,84.4266 L191.4957,84.4266 L191.4957,91.8594 L183.4957,99.8594 L75.1648,99.8594 L75.1648,84.4266 " fill="#EEEEEE" style="stroke:#000000;stroke-width:1.2000000000000002;"/><rect fill="none" height="688.05" style="stroke:#000000;stroke-width:1.2000000000000002;" width="938.4879" x="75.1648" y="84.4266"/><text fill="#000000" font-family="sans-serif" font-size="10.4" font-weight="bold" lengthAdjust="spacing" textLength="80.3309" x="87.1648" y="96.4492">Get Closest City</text><polygon fill="#181818" points="379.6578,115.2922,387.6578,118.4922,379.6578,121.6922,382.8578,118.4922" style="stroke:#181818;stroke-width:0.8000000000000002;"/><line style="stroke:#181818;stroke-width:0.8000000000000002;" x1="163.9563" x2="384.4578" y1="118.4922" y2="118.4922"/><text fill="#000000" font-family="sans-serif" font-size="10.4" font-weight="bold" lengthAdjust="spacing" textLength="14.4574" x="169.5563" y="114.282">3.1</text><text fill="#000000" font-family="sans-serif" font-size="10.4" lengthAdjust="spacing" textLength="60.6988" x="187.2137" y="114.282">getInstance()</text><polygon fill="#181818" points="172.7563,140.325,164.7563,143.525,172.7563,146.725,169.5563,143.525" style="stroke:#181818;stroke-width:0.8000000000000002;"/><line style="stroke:#181818;stroke-width:0.8000000000000002;stroke-dasharray:2.0,2.0;" x1="167.9563" x2="392.4578" y1="143.525" y2="143.525"/><text fill="#000000" font-family="sans-serif" font-size="10.4" font-weight="bold" lengthAdjust="spacing" textLength="14.4574" x="177.5563" y="139.3148">3.2</text><text fill="#000000" font-family="sans-serif" font-size="10.4" lengthAdjust="spacing" textLength="53.757" x="195.2137" y="139.3148">repositories</text><polygon fill="#181818" points="462.6645,165.3578,470.6645,168.5578,462.6645,171.7578,465.8645,168.5578" style="stroke:#181818;stroke-width:0.8000000000000002;"/><line style="stroke:#181818;stroke-width:0.8000000000000002;" x1="163.9563" x2="467.4645" y1="168.5578" y2="168.5578"/><text fill="#000000" font-family="sans-serif" font-size="10.4" font-weight="bold" lengthAdjust="spacing" textLength="14.4574" x="169.5563" y="164.3477">3.3</text><text fill="#000000" font-family="sans-serif" font-size="10.4" lengthAdjust="spacing" textLength="89.0043" x="187.2137" y="164.3477">getCityRepository()</text><polygon fill="#181818" points="172.7563,190.3906,164.7563,193.5906,172.7563,196.7906,169.5563,193.5906" style="stroke:#181818;stroke-width:0.8000000000000002;"/><line style="stroke:#181818;stroke-width:0.8000000000000002;stroke-dasharray:2.0,2.0;" x1="167.9563" x2="475.4645" y1="193.5906" y2="193.5906"/><text fill="#000000" font-family="sans-serif" font-size="10.4" font-weight="bold" lengthAdjust="spacing" textLength="14.4574" x="177.5563" y="189.3805">3.4</text><text fill="#000000" font-family="sans-serif" font-size="10.4" lengthAdjust="spacing" textLength="65.3098" x="195.2137" y="189.3805">cityRepository</text><polygon fill="#181818" points="552.5125,215.4234,560.5125,218.6234,552.5125,221.8234,555.7125,218.6234" style="stroke:#181818;stroke-width:0.8000000000000002;"/><line style="stroke:#181818;stroke-width:0.8000000000000002;" x1="163.9563" x2="557.3125" y1="218.6234" y2="218.6234"/><text fill="#000000" font-family="sans-serif" font-size="10.4" font-weight="bold" lengthAdjust="spacing" textLength="14.4574" x="169.5563" y="214.4133">3.5</text><text fill="#000000" font-family="sans-serif" font-size="10.4" lengthAdjust="spacing" textLength="74.552" x="187.2137" y="214.4133">getListOfCities()</text><polygon fill="#181818" points="667.9219,240.4563,675.9219,243.6563,667.9219,246.8563,671.1219,243.6563" style="stroke:#181818;stroke-width:0.8000000000000002;"/><line style="stroke:#181818;stroke-width:0.8000000000000002;" x1="570.1125" x2="672.7219" y1="243.6563" y2="243.6563"/><text fill="#000000" font-family="sans-serif" font-size="10.4" font-weight="bold" lengthAdjust="spacing" textLength="14.4574" x="575.7125" y="239.4461">3.6</text><text fill="#000000" font-family="sans-serif" font-size="10.4" lengthAdjust="spacing" textLength="74.552" x="593.3699" y="239.4461">getListOfCities()</text><polygon fill="#181818" points="748.6105,265.4891,756.6105,268.6891,748.6105,271.8891,751.8105,268.6891" style="stroke:#181818;stroke-width:0.8000000000000002;"/><line style="stroke:#181818;stroke-width:0.8000000000000002;stroke-dasharray:2.0,2.0;" x1="685.5219" x2="753.4105" y1="268.6891" y2="268.6891"/><text fill="#000000" font-family="sans-serif" font-size="10.4" font-weight="bold" lengthAdjust="spacing" textLength="14.4574" x="691.1219" y="264.4789">3.7</text><text fill="#000000" font-family="sans-serif" font-size="10.4" lengthAdjust="spacing" textLength="35.8313" x="708.7793" y="264.4789">create()</text><rect fill="#E3E3E3" height="26.0969" rx="2" ry="2" style="stroke:#181818;stroke-width:0.4000000000000001;" width="64.1102" x="758.2105" y="250.0563"/><text fill="#000000" font-family="sans-serif" font-size="11.2" lengthAdjust="spacing" textLength="52.9102" x="763.8105" y="267.7422">:List&lt;City&gt;</text><path d="M652.3633,290.5531 L710.3109,290.5531 L710.3109,297.9859 L702.3109,305.9859 L652.3633,305.9859 L652.3633,290.5531 " fill="#EEEEEE" style="stroke:#000000;stroke-width:1.2000000000000002;"/><rect fill="none" height="113.4984" style="stroke:#000000;stroke-width:1.2000000000000002;" width="177.9574" x="652.3633" y="290.5531"/><text fill="#000000" font-family="sans-serif" font-size="10.4" font-weight="bold" lengthAdjust="spacing" textLength="21.9477" x="664.3633" y="302.5758">loop</text><text fill="#000000" font-family="sans-serif" font-size="8.8" font-weight="bold" lengthAdjust="spacing" textLength="89.4738" x="722.3109" y="301.6492">[for each known City]</text><polygon fill="#181818" points="776.6656,321.4188,784.6656,324.6188,776.6656,327.8188,779.8656,324.6188" style="stroke:#181818;stroke-width:0.8000000000000002;"/><line style="stroke:#181818;stroke-width:0.8000000000000002;" x1="685.5219" x2="781.4656" y1="324.6188" y2="324.6188"/><text fill="#000000" font-family="sans-serif" font-size="10.4" font-weight="bold" lengthAdjust="spacing" textLength="14.4574" x="691.1219" y="320.4086">3.8</text><text fill="#000000" font-family="sans-serif" font-size="10.4" lengthAdjust="spacing" textLength="51.1469" x="708.7793" y="320.4086">city = get(i)</text><polygon fill="#181818" points="776.6656,370.4516,784.6656,373.6516,776.6656,376.8516,779.8656,373.6516" style="stroke:#181818;stroke-width:0.8000000000000002;"/><line style="stroke:#181818;stroke-width:0.8000000000000002;" x1="685.5219" x2="781.4656" y1="373.6516" y2="373.6516"/><text fill="#000000" font-family="sans-serif" font-size="10.4" font-weight="bold" lengthAdjust="spacing" textLength="14.4574" x="691.1219" y="369.4414">3.9</text><text fill="#000000" font-family="sans-serif" font-size="10.4" lengthAdjust="spacing" textLength="39.8785" x="708.7793" y="369.4414">add(city)</text><polygon fill="#181818" points="578.9125,425.0844,570.9125,428.2844,578.9125,431.4844,575.7125,428.2844" style="stroke:#181818;stroke-width:0.8000000000000002;"/><line style="stroke:#181818;stroke-width:0.8000000000000002;stroke-dasharray:2.0,2.0;" x1="574.1125" x2="680.7219" y1="428.2844" y2="428.2844"/><text fill="#000000" font-family="sans-serif" font-size="10.4" font-weight="bold" lengthAdjust="spacing" textLength="20.2414" x="583.7125" y="424.0742">3.10</text><text fill="#000000" font-family="sans-serif" font-size="10.4" lengthAdjust="spacing" textLength="31.784" x="607.1539" y="424.0742">cityList</text><polygon fill="#181818" points="172.7563,450.1172,164.7563,453.3172,172.7563,456.5172,169.5563,453.3172" style="stroke:#181818;stroke-width:0.8000000000000002;"/><line style="stroke:#181818;stroke-width:0.8000000000000002;stroke-dasharray:2.0,2.0;" x1="167.9563" x2="565.3125" y1="453.3172" y2="453.3172"/><text fill="#000000" font-family="sans-serif" font-size="10.4" font-weight="bold" lengthAdjust="spacing" textLength="20.2414" x="177.5563" y="449.107">3.11</text><text fill="#000000" font-family="sans-serif" font-size="10.4" lengthAdjust="spacing" textLength="31.784" x="200.9977" y="449.107">cityList</text><polygon fill="#181818" points="941.8957,475.15,949.8957,478.35,941.8957,481.55,945.0957,478.35" style="stroke:#181818;stroke-width:0.8000000000000002;"/><line style="stroke:#181818;stroke-width:0.8000000000000002;" x1="163.9563" x2="946.6957" y1="478.35" y2="478.35"/><text fill="#000000" font-family="sans-serif" font-size="10.4" font-weight="bold" lengthAdjust="spacing" textLength="20.2414" x="169.5563" y="474.1398">3.12</text><text fill="#000000" font-family="sans-serif" font-size="10.4" lengthAdjust="spacing" textLength="173.3875" x="192.9977" y="474.1398">create(positionDTO.x, positionDTO.y)</text><rect fill="#E3E3E3" height="26.0969" rx="2" ry="2" style="stroke:#181818;stroke-width:0.4000000000000001;" width="54.157" x="951.4957" y="459.7172"/><text fill="#000000" font-family="sans-serif" font-size="11.2" lengthAdjust="spacing" textLength="42.957" x="957.0957" y="477.4031">:Position</text><path d="M83.1648,500.2141 L141.1125,500.2141 L141.1125,507.6469 L133.1125,515.6469 L83.1648,515.6469 L83.1648,500.2141 " fill="#EEEEEE" style="stroke:#000000;stroke-width:1.2000000000000002;"/><rect fill="none" height="195.7969" style="stroke:#000000;stroke-width:1.2000000000000002;" width="868.3309" x="83.1648" y="500.2141"/><text fill="#000000" font-family="sans-serif" font-size="10.4" font-weight="bold" lengthAdjust="spacing" textLength="21.9477" x="95.1648" y="512.2367">loop</text><text fill="#000000" font-family="sans-serif" font-size="8.8" font-weight="bold" lengthAdjust="spacing" textLength="101.2215" x="153.1125" y="511.3102">[for each city in cityList]</text><polygon fill="#181818" points="913.0957,531.0797,921.0957,534.2797,913.0957,537.4797,916.2957,534.2797" style="stroke:#181818;stroke-width:0.8000000000000002;"/><line style="stroke:#181818;stroke-width:0.8000000000000002;" x1="163.9563" x2="917.8957" y1="534.2797" y2="534.2797"/><text fill="#000000" font-family="sans-serif" font-size="10.4" font-weight="bold" lengthAdjust="spacing" textLength="20.2414" x="169.5563" y="530.0695">3.13</text><text fill="#000000" font-family="sans-serif" font-size="10.4" lengthAdjust="spacing" textLength="58.3832" x="192.9977" y="530.0695">getPosition()</text><polygon fill="#181818" points="172.7563,556.1125,164.7563,559.3125,172.7563,562.5125,169.5563,559.3125" style="stroke:#181818;stroke-width:0.8000000000000002;"/><line style="stroke:#181818;stroke-width:0.8000000000000002;stroke-dasharray:2.0,2.0;" x1="167.9563" x2="925.8957" y1="559.3125" y2="559.3125"/><text fill="#000000" font-family="sans-serif" font-size="10.4" font-weight="bold" lengthAdjust="spacing" textLength="20.2414" x="177.5563" y="555.1023">3.14</text><text fill="#000000" font-family="sans-serif" font-size="10.4" lengthAdjust="spacing" textLength="52.5992" x="200.9977" y="555.1023">cityPosition</text><line style="stroke:#181818;stroke-width:0.8000000000000002;" x1="163.9563" x2="201.5563" y1="580.3453" y2="580.3453"/><line style="stroke:#181818;stroke-width:0.8000000000000002;" x1="201.5563" x2="201.5563" y1="580.3453" y2="590.7453"/><line style="stroke:#181818;stroke-width:0.8000000000000002;" x1="168.7563" x2="201.5563" y1="590.7453" y2="590.7453"/><polygon fill="#181818" points="176.7563,587.5453,168.7563,590.7453,176.7563,593.9453,173.5563,590.7453" style="stroke:#181818;stroke-width:0.8000000000000002;"/><text fill="#000000" font-family="sans-serif" font-size="10.4" font-weight="bold" lengthAdjust="spacing" textLength="20.2414" x="173.5563" y="576.1352">3.15</text><text fill="#000000" font-family="sans-serif" font-size="10.4" lengthAdjust="spacing" textLength="182.6602" x="196.9977" y="576.1352">calculateDistance(position, cityPosition)</text><line style="stroke:#181818;stroke-width:0.8000000000000002;stroke-dasharray:2.0,2.0;" x1="167.9563" x2="201.5563" y1="623.7781" y2="623.7781"/><line style="stroke:#181818;stroke-width:0.8000000000000002;stroke-dasharray:2.0,2.0;" x1="201.5563" x2="201.5563" y1="623.7781" y2="634.1781"/><line style="stroke:#181818;stroke-width:0.8000000000000002;stroke-dasharray:2.0,2.0;" x1="163.9563" x2="201.5563" y1="634.1781" y2="634.1781"/><polygon fill="#181818" points="171.9563,630.9781,163.9563,634.1781,171.9563,637.3781,168.7563,634.1781" style="stroke:#181818;stroke-width:0.8000000000000002;"/><text fill="#000000" font-family="sans-serif" font-size="10.4" font-weight="bold" lengthAdjust="spacing" textLength="20.2414" x="173.5563" y="619.568">3.16</text><text fill="#000000" font-family="sans-serif" font-size="10.4" lengthAdjust="spacing" textLength="38.7359" x="196.9977" y="619.568">distance</text><line style="stroke:#181818;stroke-width:0.8000000000000002;" x1="167.9563" x2="201.5563" y1="655.2109" y2="655.2109"/><line style="stroke:#181818;stroke-width:0.8000000000000002;" x1="201.5563" x2="201.5563" y1="655.2109" y2="665.6109"/><line style="stroke:#181818;stroke-width:0.8000000000000002;" x1="168.7563" x2="201.5563" y1="665.6109" y2="665.6109"/><polygon fill="#181818" points="176.7563,662.4109,168.7563,665.6109,176.7563,668.8109,173.5563,665.6109" style="stroke:#181818;stroke-width:0.8000000000000002;"/><text fill="#000000" font-family="sans-serif" font-size="10.4" font-weight="bold" lengthAdjust="spacing" textLength="20.2414" x="173.5563" y="651.0008">3.17</text><text fill="#000000" font-family="sans-serif" font-size="10.4" lengthAdjust="spacing" textLength="151.4398" x="196.9977" y="651.0008">updateClosestCity(city, distance)</text><line style="stroke:#181818;stroke-width:0.8000000000000002;" x1="163.9563" x2="201.5563" y1="716.2438" y2="716.2438"/><line style="stroke:#181818;stroke-width:0.8000000000000002;" x1="201.5563" x2="201.5563" y1="716.2438" y2="726.6438"/><line style="stroke:#181818;stroke-width:0.8000000000000002;" x1="168.7563" x2="201.5563" y1="726.6438" y2="726.6438"/><polygon fill="#181818" points="176.7563,723.4438,168.7563,726.6438,176.7563,729.8438,173.5563,726.6438" style="stroke:#181818;stroke-width:0.8000000000000002;"/><text fill="#000000" font-family="sans-serif" font-size="10.4" font-weight="bold" lengthAdjust="spacing" textLength="20.2414" x="173.5563" y="712.0336">3.18</text><text fill="#000000" font-family="sans-serif" font-size="10.4" lengthAdjust="spacing" textLength="101.7148" x="196.9977" y="712.0336">getClosestCityName()</text><line style="stroke:#181818;stroke-width:0.8000000000000002;stroke-dasharray:2.0,2.0;" x1="167.9563" x2="201.5563" y1="759.6766" y2="759.6766"/><line style="stroke:#181818;stroke-width:0.8000000000000002;stroke-dasharray:2.0,2.0;" x1="201.5563" x2="201.5563" y1="759.6766" y2="770.0766"/><line style="stroke:#181818;stroke-width:0.8000000000000002;stroke-dasharray:2.0,2.0;" x1="163.9563" x2="201.5563" y1="770.0766" y2="770.0766"/><polygon fill="#181818" points="171.9563,766.8766,163.9563,770.0766,171.9563,773.2766,168.7563,770.0766" style="stroke:#181818;stroke-width:0.8000000000000002;"/><text fill="#000000" font-family="sans-serif" font-size="10.4" font-weight="bold" lengthAdjust="spacing" textLength="20.2414" x="173.5563" y="755.4664">3.19</text><text fill="#000000" font-family="sans-serif" font-size="10.4" lengthAdjust="spacing" textLength="43.3418" x="196.9977" y="755.4664">cityName</text><polygon fill="#181818" points="8.8,793.5094,0.8,796.7094,8.8,799.9094,5.6,796.7094" style="stroke:#181818;stroke-width:0.8000000000000002;"/><line style="stroke:#181818;stroke-width:0.8000000000000002;stroke-dasharray:2.0,2.0;" x1="4" x2="159.1563" y1="796.7094" y2="796.7094"/><text fill="#000000" font-family="sans-serif" font-size="10.4" font-weight="bold" lengthAdjust="spacing" textLength="5.784" x="13.6" y="792.4992">4</text><text fill="#000000" font-family="sans-serif" font-size="10.4" lengthAdjust="spacing" textLength="43.3418" x="22.584" y="792.4992">cityName</text><!--SRC=[jLLDZzem4BtdLups12jOgMfFQBjIow8L4Wi8k22jj78J0nR1ZXodM_vz_P4ujkFGzb2Vm7xpvitCOoZFX1Q8emjS66NfYRCB1i4hd9JsfK3f6HtnLbnp31od0j5ZxWBA4yhO1w57EA2yn4aYhmL9IO6eWBl9LY116FrUaJoJe2cZWhCyn_mEK0dJtMRX1snmmKeY62Uur93DRBtQ-XZkODxe91xolfqlNnQptMhf1wT4N6t4LOPFlGiZQxxRlokMJgZ9EDKV6kXy5kYRB4Wf7XNlKqktc6zt0KmXNb5HDCrGiDTlw_Li4m5QIF2sLi9bX_Mxh5lgaIKdg1ACLfSVcCFdPFoaEps18nRJd9Mu58foKDInpxlLq0zv-9IWL92VI60p993do5bLm0iMK9E0OadqcpeA23ANxZ_eR7DQIiUaU32qACjh9WlECO5ZAzSTj0LcE628vs_dRyhsfjmhnt5DHrZxvaZqxTGhqk7joBLkqqALTrO7ux2OpDQRha1xMnDAJzvY2ncLXI4uvjgKsXZu_bvMpB6CacITY9on0WwCWop-16VAFgXn24HEG- -mcsx2LoLyG8RHCByF-aS5FSUPGGl-UoqeomPAp__H4O8mpP8_Zi2OH8bISqtwawXvzld3iwx74mhLBklOjTanZXUSFVBmQmJkrwlZ4zyVUjQ4nijnVnlQoCsQks7YVQn_-w3WXkT6y_P9N8hXG7bQvHBvJEhDrbGxylZxP3Qxj9l1fiXgvbw9YkE6nAh89CpTyqhOoFB-YxGmRTIkVdh_FsQ9Bj7btyaMD26jOvER3R0odF-kB_hYSJmsb0vLIF4R]--></g></svg>