<svg xmlns="http://www.w3.org/2000/svg" xmlns:xlink="http://www.w3.org/1999/xlink" contentStyleType="text/css" height="989.1px" preserveAspectRatio="none" style="width:639px;height:989px;background:#FFFFFF;" version="1.1" viewBox="0 0 639 989" width="639.8px" zoomAndPan="magnify"><defs/><g><rect fill="#FFFFFF" height="853.2863" style="stroke:#181818;stroke-width:0.6999999999999998;" width="7" x="26.4889" y="65.5348"/><rect fill="#FFFFFF" height="99.4875" style="stroke:#181818;stroke-width:0.6999999999999998;" width="7" x="314.0963" y="107.9422"/><rect fill="#FFFFFF" height="52.4385" style="stroke:#181818;stroke-width:0.6999999999999998;" width="7" x="314.0963" y="229.3334"/><rect fill="#FFFFFF" height="70.8422" style="stroke:#181818;stroke-width:0.6999999999999998;" width="7" x="314.0963" y="303.6756"/><rect fill="#FFFFFF" height="148.1949" style="stroke:#181818;stroke-width:0.6999999999999998;" width="7" x="314.0963" y="396.4215"/><rect fill="#FFFFFF" height="209.0061" style="stroke:#181818;stroke-width:0.6999999999999998;" width="7" x="314.0963" y="566.5201"/><rect fill="#FFFFFF" height="121.3912" style="stroke:#181818;stroke-width:0.6999999999999998;" width="7" x="314.0963" y="797.4299"/><rect fill="#FFFFFF" height="55.6801" style="stroke:#181818;stroke-width:0.6999999999999998;" width="7" x="446.9562" y="129.8459"/><rect fill="#FFFFFF" height="55.6801" style="stroke:#181818;stroke-width:0.6999999999999998;" width="7" x="446.9562" y="445.1289"/><rect fill="#FFFFFF" height="55.6801" style="stroke:#181818;stroke-width:0.6999999999999998;" width="7" x="446.9562" y="610.3275"/><rect fill="#FFFFFF" height="55.6801" style="stroke:#181818;stroke-width:0.6999999999999998;" width="7" x="446.9562" y="819.3336"/><rect fill="none" height="79.2148" style="stroke:#000000;stroke-width:1.0499999999999998;" width="581.3678" x="7" y="344.7104"/><line style="stroke:#181818;stroke-width:0.3499999999999999;stroke-dasharray:5.0,5.0;" x1="29.4" x2="29.4" y1="58.5348" y2="931.4211"/><line style="stroke:#181818;stroke-width:0.3499999999999999;stroke-dasharray:5.0,5.0;" x1="317.1451" x2="317.1451" y1="58.5348" y2="931.4211"/><line style="stroke:#181818;stroke-width:0.3499999999999999;stroke-dasharray:5.0,5.0;" x1="449.7637" x2="449.7637" y1="58.5348" y2="931.4211"/><line style="stroke:#181818;stroke-width:0.3499999999999999;stroke-dasharray:5.0,5.0;" x1="549.1486" x2="549.1486" y1="257.2008" y2="931.4211"/><line style="stroke:#181818;stroke-width:0.3499999999999999;stroke-dasharray:5.0,5.0;" x1="611.4678" x2="611.4678" y1="331.543" y2="931.4211"/><text fill="#000000" font-family="sans-serif" font-size="9.8" lengthAdjust="spacing" textLength="27.7778" x="14" y="56.0752">Player</text><ellipse cx="29.9889" cy="9.45" fill="#E3E3E3" rx="5.6" ry="5.6" style="stroke:#181818;stroke-width:0.3499999999999999;"/><path d="M29.9889,15.05 L29.9889,33.95 M20.8889,20.65 L39.0889,20.65 M29.9889,33.95 L20.8889,44.45 M29.9889,33.95 L39.0889,44.45 " fill="none" style="stroke:#181818;stroke-width:0.3499999999999999;"/><text fill="#000000" font-family="sans-serif" font-size="9.8" lengthAdjust="spacing" textLength="27.7778" x="14" y="941.2963">Player</text><ellipse cx="29.9889" cy="949.7059" fill="#E3E3E3" rx="5.6" ry="5.6" style="stroke:#181818;stroke-width:0.3499999999999999;"/><path d="M29.9889,955.3059 L29.9889,974.2059 M20.8889,960.9059 L39.0889,960.9059 M29.9889,974.2059 L20.8889,984.7059 M29.9889,974.2059 L39.0889,984.7059 " fill="none" style="stroke:#181818;stroke-width:0.3499999999999999;"/><rect fill="#E3E3E3" height="22.8348" rx="1.75" ry="1.75" style="stroke:#181818;stroke-width:0.3499999999999999;" width="87.7023" x="273.7451" y="35"/><text fill="#000000" font-family="sans-serif" font-size="9.8" lengthAdjust="spacing" textLength="77.9023" x="278.6451" y="50.4752">:StationBuildingUI</text><rect fill="#E3E3E3" height="22.8348" rx="1.75" ry="1.75" style="stroke:#181818;stroke-width:0.3499999999999999;" width="87.7023" x="273.7451" y="930.7211"/><text fill="#000000" font-family="sans-serif" font-size="9.8" lengthAdjust="spacing" textLength="77.9023" x="278.6451" y="946.1963">:StationBuildingUI</text><rect fill="#E3E3E3" height="22.8348" rx="1.75" ry="1.75" style="stroke:#181818;stroke-width:0.3499999999999999;" width="120.385" x="390.2637" y="35"/><text fill="#000000" font-family="sans-serif" font-size="9.8" lengthAdjust="spacing" textLength="110.585" x="395.1637" y="50.4752">:StationBuildingController</text><rect fill="#E3E3E3" height="22.8348" rx="1.75" ry="1.75" style="stroke:#181818;stroke-width:0.3499999999999999;" width="120.385" x="390.2637" y="930.7211"/><text fill="#000000" font-family="sans-serif" font-size="9.8" lengthAdjust="spacing" textLength="110.585" x="395.1637" y="946.1963">:StationBuildingController</text><rect fill="#E3E3E3" height="22.8348" rx="1.75" ry="1.75" style="stroke:#181818;stroke-width:0.3499999999999999;" width="63.7191" x="517.6486" y="930.7211"/><text fill="#000000" font-family="sans-serif" font-size="9.8" lengthAdjust="spacing" textLength="53.9191" x="522.5486" y="946.1963">:StationDTO</text><rect fill="#E3E3E3" height="22.8348" rx="1.75" ry="1.75" style="stroke:#181818;stroke-width:0.3499999999999999;" width="47.3874" x="588.3678" y="930.7211"/><text fill="#000000" font-family="sans-serif" font-size="9.8" lengthAdjust="spacing" textLength="37.5874" x="593.2678" y="946.1963">:Position</text><rect fill="#FFFFFF" height="853.2863" style="stroke:#181818;stroke-width:0.6999999999999998;" width="7" x="26.4889" y="65.5348"/><rect fill="#FFFFFF" height="99.4875" style="stroke:#181818;stroke-width:0.6999999999999998;" width="7" x="314.0963" y="107.9422"/><rect fill="#FFFFFF" height="52.4385" style="stroke:#181818;stroke-width:0.6999999999999998;" width="7" x="314.0963" y="229.3334"/><rect fill="#FFFFFF" height="70.8422" style="stroke:#181818;stroke-width:0.6999999999999998;" width="7" x="314.0963" y="303.6756"/><rect fill="#FFFFFF" height="148.1949" style="stroke:#181818;stroke-width:0.6999999999999998;" width="7" x="314.0963" y="396.4215"/><rect fill="#FFFFFF" height="209.0061" style="stroke:#181818;stroke-width:0.6999999999999998;" width="7" x="314.0963" y="566.5201"/><rect fill="#FFFFFF" height="121.3912" style="stroke:#181818;stroke-width:0.6999999999999998;" width="7" x="314.0963" y="797.4299"/><rect fill="#FFFFFF" height="55.6801" style="stroke:#181818;stroke-width:0.6999999999999998;" width="7" x="446.9562" y="129.8459"/><rect fill="#FFFFFF" height="55.6801" style="stroke:#181818;stroke-width:0.6999999999999998;" width="7" x="446.9562" y="445.1289"/><rect fill="#FFFFFF" height="55.6801" style="stroke:#181818;stroke-width:0.6999999999999998;" width="7" x="446.9562" y="610.3275"/><rect fill="#FFFFFF" height="55.6801" style="stroke:#181818;stroke-width:0.6999999999999998;" width="7" x="446.9562" y="819.3336"/><path d="M73.5,69.0348 L73.5,87.9348 L313.6,87.9348 L313.6,76.0348 L306.6,69.0348 L73.5,69.0348 " fill="#FAFAFA" style="stroke:#181818;stroke-width:0.3499999999999999;"/><path d="M306.6,69.0348 L306.6,76.0348 L313.6,76.0348 L306.6,69.0348 " fill="#FAFAFA" style="stroke:#181818;stroke-width:0.3499999999999999;"/><text fill="#000000" font-family="sans-serif" font-size="9.1" lengthAdjust="spacing" textLength="225.6027" x="77.7" y="82.3546">Retrieves available maps and scenarios and loads them</text><polygon fill="#181818" points="305.6963,105.1422,312.6963,107.9422,305.6963,110.7422,308.4963,107.9422" style="stroke:#181818;stroke-width:0.6999999999999998;"/><line style="stroke:#181818;stroke-width:0.6999999999999998;" x1="33.4889" x2="309.8963" y1="107.9422" y2="107.9422"/><text fill="#000000" font-family="sans-serif" font-size="9.1" font-weight="bold" lengthAdjust="spacing" textLength="5.061" x="38.3889" y="104.2583">1</text><text fill="#000000" font-family="sans-serif" font-size="9.1" lengthAdjust="spacing" textLength="87.512" x="46.2499" y="104.2583">asks to build a station</text><polygon fill="#181818" points="438.5562,127.0459,445.5562,129.8459,438.5562,132.6459,441.3562,129.8459" style="stroke:#181818;stroke-width:0.6999999999999998;"/><line style="stroke:#181818;stroke-width:0.6999999999999998;" x1="321.0963" x2="442.7562" y1="129.8459" y2="129.8459"/><text fill="#000000" font-family="sans-serif" font-size="9.1" font-weight="bold" lengthAdjust="spacing" textLength="5.061" x="325.9963" y="126.162">2</text><text fill="#000000" font-family="sans-serif" font-size="9.1" lengthAdjust="spacing" textLength="71.8225" x="333.8573" y="126.162">getStationTypes()</text><rect fill="none" height="30.2764" style="stroke:#000000;stroke-width:1.0499999999999998;" width="124.585" x="388.1637" y="135.4459"/><path d="M388.1637,135.4459 L430.8637,135.4459 L430.8637,141.7459 L423.8637,148.7459 L388.1637,148.7459 L388.1637,135.4459 " fill="#EEEEEE" style="stroke:#000000;stroke-width:1.3999999999999997;"/><text fill="#000000" font-family="sans-serif" font-size="9.1" font-weight="bold" lengthAdjust="spacing" textLength="11.6327" x="397.2637" y="146.6657">ref</text><text fill="#000000" font-family="sans-serif" font-size="8.4" lengthAdjust="spacing" textLength="93.8355" x="403.5384" y="160.6104">Get StationTypeDTO List</text><polygon fill="#181818" points="328.7963,182.726,321.7963,185.526,328.7963,188.326,325.9963,185.526" style="stroke:#181818;stroke-width:0.6999999999999998;"/><line style="stroke:#181818;stroke-width:0.6999999999999998;stroke-dasharray:2.0,2.0;" x1="324.5963" x2="449.7562" y1="185.526" y2="185.526"/><text fill="#000000" font-family="sans-serif" font-size="9.1" font-weight="bold" lengthAdjust="spacing" textLength="5.061" x="332.9963" y="181.8421">3</text><text fill="#000000" font-family="sans-serif" font-size="9.1" lengthAdjust="spacing" textLength="78.8918" x="340.8573" y="181.8421">listStationTypeDTO</text><polygon fill="#181818" points="41.1889,204.6297,34.1889,207.4297,41.1889,210.2297,38.3889,207.4297" style="stroke:#181818;stroke-width:0.6999999999999998;"/><line style="stroke:#181818;stroke-width:0.6999999999999998;stroke-dasharray:2.0,2.0;" x1="36.9889" x2="316.8963" y1="207.4297" y2="207.4297"/><text fill="#000000" font-family="sans-serif" font-size="9.1" font-weight="bold" lengthAdjust="spacing" textLength="5.061" x="45.3889" y="203.7458">4</text><text fill="#000000" font-family="sans-serif" font-size="9.1" lengthAdjust="spacing" textLength="219.4664" x="53.2499" y="203.7458">requests station type (DEPOT, STATION, TERMINAL)</text><polygon fill="#181818" points="305.6963,226.5334,312.6963,229.3334,305.6963,232.1334,308.4963,229.3334" style="stroke:#181818;stroke-width:0.6999999999999998;"/><line style="stroke:#181818;stroke-width:0.6999999999999998;" x1="33.4889" x2="309.8963" y1="229.3334" y2="229.3334"/><text fill="#000000" font-family="sans-serif" font-size="9.1" font-weight="bold" lengthAdjust="spacing" textLength="5.061" x="38.3889" y="225.6495">5</text><text fill="#000000" font-family="sans-serif" font-size="9.1" lengthAdjust="spacing" textLength="77.39" x="46.2499" y="225.6495">selects station type</text><polygon fill="#181818" points="509.2486,248.4371,516.2486,251.2371,509.2486,254.0371,512.0486,251.2371" style="stroke:#181818;stroke-width:0.6999999999999998;"/><line style="stroke:#181818;stroke-width:0.6999999999999998;" x1="321.0963" x2="513.4486" y1="251.2371" y2="251.2371"/><text fill="#000000" font-family="sans-serif" font-size="9.1" font-weight="bold" lengthAdjust="spacing" textLength="5.061" x="325.9963" y="247.5532">6</text><text fill="#000000" font-family="sans-serif" font-size="9.1" lengthAdjust="spacing" textLength="125.9337" x="333.8573" y="247.5532">createStationDTO(stationType)</text><rect fill="#E3E3E3" height="22.8348" rx="1.75" ry="1.75" style="stroke:#181818;stroke-width:0.3499999999999999;" width="63.7191" x="517.6486" y="234.9334"/><text fill="#000000" font-family="sans-serif" font-size="9.8" lengthAdjust="spacing" textLength="53.9191" x="522.5486" y="250.4086">:StationDTO</text><polygon fill="#181818" points="41.1889,278.9719,34.1889,281.7719,41.1889,284.5719,38.3889,281.7719" style="stroke:#181818;stroke-width:0.6999999999999998;"/><line style="stroke:#181818;stroke-width:0.6999999999999998;stroke-dasharray:2.0,2.0;" x1="36.9889" x2="316.8963" y1="281.7719" y2="281.7719"/><text fill="#000000" font-family="sans-serif" font-size="9.1" font-weight="bold" lengthAdjust="spacing" textLength="5.061" x="45.3889" y="278.088">7</text><text fill="#000000" font-family="sans-serif" font-size="9.1" lengthAdjust="spacing" textLength="200.3066" x="53.2499" y="278.088">requests location (Position) on map for the station</text><polygon fill="#181818" points="305.6963,300.8756,312.6963,303.6756,305.6963,306.4756,308.4963,303.6756" style="stroke:#181818;stroke-width:0.6999999999999998;"/><line style="stroke:#181818;stroke-width:0.6999999999999998;" x1="33.4889" x2="309.8963" y1="303.6756" y2="303.6756"/><text fill="#000000" font-family="sans-serif" font-size="9.1" font-weight="bold" lengthAdjust="spacing" textLength="5.061" x="38.3889" y="299.9917">8</text><text fill="#000000" font-family="sans-serif" font-size="9.1" lengthAdjust="spacing" textLength="117.8646" x="46.2499" y="299.9917">provides location coordinates</text><polygon fill="#181818" points="579.9678,322.7793,586.9678,325.5793,579.9678,328.3793,582.7678,325.5793" style="stroke:#181818;stroke-width:0.6999999999999998;"/><line style="stroke:#181818;stroke-width:0.6999999999999998;" x1="321.0963" x2="584.1678" y1="325.5793" y2="325.5793"/><text fill="#000000" font-family="sans-serif" font-size="9.1" font-weight="bold" lengthAdjust="spacing" textLength="5.061" x="325.9963" y="321.8954">9</text><text fill="#000000" font-family="sans-serif" font-size="9.1" lengthAdjust="spacing" textLength="45.5089" x="333.8573" y="321.8954">create(x, y)</text><rect fill="#E3E3E3" height="22.8348" rx="1.75" ry="1.75" style="stroke:#181818;stroke-width:0.3499999999999999;" width="47.3874" x="588.3678" y="309.2756"/><text fill="#000000" font-family="sans-serif" font-size="9.8" lengthAdjust="spacing" textLength="37.5874" x="593.2678" y="324.7508">:Position</text><path d="M7,344.7104 L49.1196,344.7104 L49.1196,351.2141 L42.1196,358.2141 L7,358.2141 L7,344.7104 " fill="#EEEEEE" style="stroke:#000000;stroke-width:1.0499999999999998;"/><rect fill="none" height="79.2148" style="stroke:#000000;stroke-width:1.0499999999999998;" width="581.3678" x="7" y="344.7104"/><text fill="#000000" font-family="sans-serif" font-size="9.1" font-weight="bold" lengthAdjust="spacing" textLength="10.6196" x="17.5" y="355.2302">alt</text><text fill="#000000" font-family="sans-serif" font-size="7.7" font-weight="bold" lengthAdjust="spacing" textLength="100.1338" x="59.6196" y="354.4194">[station type is "STATION"]</text><polygon fill="#181818" points="41.1889,371.7178,34.1889,374.5178,41.1889,377.3178,38.3889,374.5178" style="stroke:#181818;stroke-width:0.6999999999999998;"/><line style="stroke:#181818;stroke-width:0.6999999999999998;stroke-dasharray:2.0,2.0;" x1="36.9889" x2="316.8963" y1="374.5178" y2="374.5178"/><text fill="#000000" font-family="sans-serif" font-size="9.1" font-weight="bold" lengthAdjust="spacing" textLength="10.122" x="45.3889" y="370.8339">10</text><text fill="#000000" font-family="sans-serif" font-size="9.1" lengthAdjust="spacing" textLength="201.7863" x="58.3109" y="370.8339">requests center point selection (NE, SE, NW, SW)</text><polygon fill="#181818" points="305.6963,393.6215,312.6963,396.4215,305.6963,399.2215,308.4963,396.4215" style="stroke:#181818;stroke-width:0.6999999999999998;"/><line style="stroke:#181818;stroke-width:0.6999999999999998;" x1="33.4889" x2="309.8963" y1="396.4215" y2="396.4215"/><text fill="#000000" font-family="sans-serif" font-size="9.1" font-weight="bold" lengthAdjust="spacing" textLength="10.122" x="38.3889" y="392.7376">11</text><text fill="#000000" font-family="sans-serif" font-size="9.1" lengthAdjust="spacing" textLength="78.4031" x="51.3109" y="392.7376">selects center point</text><polygon fill="#181818" points="541.1082,415.5252,548.1082,418.3252,541.1082,421.1252,543.9082,418.3252" style="stroke:#181818;stroke-width:0.6999999999999998;"/><line style="stroke:#181818;stroke-width:0.6999999999999998;" x1="321.0963" x2="545.3082" y1="418.3252" y2="418.3252"/><text fill="#000000" font-family="sans-serif" font-size="9.1" font-weight="bold" lengthAdjust="spacing" textLength="10.122" x="325.9963" y="414.6413">12</text><text fill="#000000" font-family="sans-serif" font-size="9.1" lengthAdjust="spacing" textLength="112.2881" x="338.9183" y="414.6413">setCenterPoint(centerPoint)</text><polygon fill="#181818" points="438.5562,442.3289,445.5562,445.1289,438.5562,447.9289,441.3562,445.1289" style="stroke:#181818;stroke-width:0.6999999999999998;"/><line style="stroke:#181818;stroke-width:0.6999999999999998;" x1="321.0963" x2="442.7562" y1="445.1289" y2="445.1289"/><text fill="#000000" font-family="sans-serif" font-size="9.1" font-weight="bold" lengthAdjust="spacing" textLength="10.122" x="325.9963" y="441.445">13</text><text fill="#000000" font-family="sans-serif" font-size="9.1" lengthAdjust="spacing" textLength="92.5685" x="338.9183" y="441.445">getAvailableBuildings()</text><rect fill="none" height="30.2764" style="stroke:#000000;stroke-width:1.0499999999999998;" width="124.585" x="388.1637" y="450.7289"/><path d="M388.1637,450.7289 L430.8637,450.7289 L430.8637,457.0289 L423.8637,464.0289 L388.1637,464.0289 L388.1637,450.7289 " fill="#EEEEEE" style="stroke:#000000;stroke-width:1.3999999999999997;"/><text fill="#000000" font-family="sans-serif" font-size="9.1" font-weight="bold" lengthAdjust="spacing" textLength="11.6327" x="397.2637" y="461.9487">ref</text><text fill="#000000" font-family="sans-serif" font-size="8.4" lengthAdjust="spacing" textLength="78.8977" x="411.0073" y="475.8934">Get BuildingDTO List</text><polygon fill="#181818" points="328.7963,498.009,321.7963,500.809,328.7963,503.609,325.9963,500.809" style="stroke:#181818;stroke-width:0.6999999999999998;"/><line style="stroke:#181818;stroke-width:0.6999999999999998;stroke-dasharray:2.0,2.0;" x1="324.5963" x2="449.7562" y1="500.809" y2="500.809"/><text fill="#000000" font-family="sans-serif" font-size="9.1" font-weight="bold" lengthAdjust="spacing" textLength="10.122" x="332.9963" y="497.1251">14</text><text fill="#000000" font-family="sans-serif" font-size="9.1" lengthAdjust="spacing" textLength="62.7091" x="345.9183" y="497.1251">listBuildingDTO</text><polygon fill="#181818" points="41.1889,519.9127,34.1889,522.7127,41.1889,525.5127,38.3889,522.7127" style="stroke:#181818;stroke-width:0.6999999999999998;"/><line style="stroke:#181818;stroke-width:0.6999999999999998;stroke-dasharray:2.0,2.0;" x1="36.9889" x2="313.3963" y1="522.7127" y2="522.7127"/><text fill="#000000" font-family="sans-serif" font-size="9.1" font-weight="bold" lengthAdjust="spacing" textLength="10.122" x="45.3889" y="519.0288">15</text><text fill="#000000" font-family="sans-serif" font-size="9.1" lengthAdjust="spacing" textLength="98.6515" x="58.3109" y="519.0288">requests default building</text><polygon fill="#181818" points="41.1889,541.8164,34.1889,544.6164,41.1889,547.4164,38.3889,544.6164" style="stroke:#181818;stroke-width:0.6999999999999998;"/><line style="stroke:#181818;stroke-width:0.6999999999999998;stroke-dasharray:2.0,2.0;" x1="36.9889" x2="316.8963" y1="544.6164" y2="544.6164"/><text fill="#000000" font-family="sans-serif" font-size="9.1" font-weight="bold" lengthAdjust="spacing" textLength="10.122" x="45.3889" y="540.9325">16</text><text fill="#000000" font-family="sans-serif" font-size="9.1" lengthAdjust="spacing" textLength="126.458" x="58.3109" y="540.9325">shows list of available buildings</text><polygon fill="#181818" points="305.6963,563.7201,312.6963,566.5201,305.6963,569.3201,308.4963,566.5201" style="stroke:#181818;stroke-width:0.6999999999999998;"/><line style="stroke:#181818;stroke-width:0.6999999999999998;" x1="33.4889" x2="309.8963" y1="566.5201" y2="566.5201"/><text fill="#000000" font-family="sans-serif" font-size="9.1" font-weight="bold" lengthAdjust="spacing" textLength="10.122" x="38.3889" y="562.8362">17</text><text fill="#000000" font-family="sans-serif" font-size="9.1" lengthAdjust="spacing" textLength="92.0708" x="51.3109" y="562.8362">selects default building</text><polygon fill="#181818" points="541.1082,585.6238,548.1082,588.4238,541.1082,591.2238,543.9082,588.4238" style="stroke:#181818;stroke-width:0.6999999999999998;"/><line style="stroke:#181818;stroke-width:0.6999999999999998;" x1="321.0963" x2="545.3082" y1="588.4238" y2="588.4238"/><text fill="#000000" font-family="sans-serif" font-size="9.1" font-weight="bold" lengthAdjust="spacing" textLength="10.122" x="325.9963" y="584.7399">18</text><text fill="#000000" font-family="sans-serif" font-size="9.1" lengthAdjust="spacing" textLength="129.9905" x="338.9183" y="584.7399">setDefaultBuilding(buildingDTO)</text><polygon fill="#181818" points="438.5562,607.5275,445.5562,610.3275,438.5562,613.1275,441.3562,610.3275" style="stroke:#181818;stroke-width:0.6999999999999998;"/><line style="stroke:#181818;stroke-width:0.6999999999999998;" x1="321.0963" x2="442.7562" y1="610.3275" y2="610.3275"/><text fill="#000000" font-family="sans-serif" font-size="9.1" font-weight="bold" lengthAdjust="spacing" textLength="10.122" x="325.9963" y="606.6437">19</text><text fill="#000000" font-family="sans-serif" font-size="9.1" lengthAdjust="spacing" textLength="96.0921" x="338.9183" y="606.6437">getClosestCity(position)</text><rect fill="none" height="30.2764" style="stroke:#000000;stroke-width:1.0499999999999998;" width="124.585" x="388.1637" y="615.9275"/><path d="M388.1637,615.9275 L430.8637,615.9275 L430.8637,622.2275 L423.8637,629.2275 L388.1637,629.2275 L388.1637,615.9275 " fill="#EEEEEE" style="stroke:#000000;stroke-width:1.3999999999999997;"/><text fill="#000000" font-family="sans-serif" font-size="9.1" font-weight="bold" lengthAdjust="spacing" textLength="11.6327" x="397.2637" y="627.1474">ref</text><text fill="#000000" font-family="sans-serif" font-size="8.4" lengthAdjust="spacing" textLength="60.6826" x="420.1148" y="641.092">Get Closest City</text><polygon fill="#181818" points="328.7963,663.2076,321.7963,666.0076,328.7963,668.8076,325.9963,666.0076" style="stroke:#181818;stroke-width:0.6999999999999998;"/><line style="stroke:#181818;stroke-width:0.6999999999999998;stroke-dasharray:2.0,2.0;" x1="324.5963" x2="449.7562" y1="666.0076" y2="666.0076"/><text fill="#000000" font-family="sans-serif" font-size="9.1" font-weight="bold" lengthAdjust="spacing" textLength="10.122" x="332.9963" y="662.3237">20</text><text fill="#000000" font-family="sans-serif" font-size="9.1" lengthAdjust="spacing" textLength="37.9241" x="345.9183" y="662.3237">cityName</text><polygon fill="#181818" points="541.1082,685.1113,548.1082,687.9113,541.1082,690.7113,543.9082,687.9113" style="stroke:#181818;stroke-width:0.6999999999999998;"/><line style="stroke:#181818;stroke-width:0.6999999999999998;" x1="321.0963" x2="545.3082" y1="687.9113" y2="687.9113"/><text fill="#000000" font-family="sans-serif" font-size="9.1" font-weight="bold" lengthAdjust="spacing" textLength="10.122" x="325.9963" y="684.2274">21</text><text fill="#000000" font-family="sans-serif" font-size="9.1" lengthAdjust="spacing" textLength="119.3531" x="338.9183" y="684.2274">setProposedName(cityName)</text><polygon fill="#181818" points="541.1082,707.015,548.1082,709.815,541.1082,712.615,543.9082,709.815" style="stroke:#181818;stroke-width:0.6999999999999998;"/><line style="stroke:#181818;stroke-width:0.6999999999999998;" x1="321.0963" x2="545.3082" y1="709.815" y2="709.815"/><text fill="#000000" font-family="sans-serif" font-size="9.1" font-weight="bold" lengthAdjust="spacing" textLength="10.122" x="325.9963" y="706.1312">22</text><text fill="#000000" font-family="sans-serif" font-size="9.1" lengthAdjust="spacing" textLength="81.94" x="338.9183" y="706.1312">setPosition(position)</text><polygon fill="#181818" points="41.1889,728.9187,34.1889,731.7187,41.1889,734.5187,38.3889,731.7187" style="stroke:#181818;stroke-width:0.6999999999999998;"/><line style="stroke:#181818;stroke-width:0.6999999999999998;stroke-dasharray:2.0,2.0;" x1="36.9889" x2="313.3963" y1="731.7187" y2="731.7187"/><text fill="#000000" font-family="sans-serif" font-size="9.1" font-weight="bold" lengthAdjust="spacing" textLength="10.122" x="45.3889" y="728.0349">23</text><text fill="#000000" font-family="sans-serif" font-size="9.1" lengthAdjust="spacing" textLength="179.0674" x="58.3109" y="728.0349">proposes station name based on closest city</text><polygon fill="#181818" points="41.1889,750.8225,34.1889,753.6225,41.1889,756.4225,38.3889,753.6225" style="stroke:#181818;stroke-width:0.6999999999999998;"/><line style="stroke:#181818;stroke-width:0.6999999999999998;stroke-dasharray:2.0,2.0;" x1="36.9889" x2="313.3963" y1="753.6225" y2="753.6225"/><text fill="#000000" font-family="sans-serif" font-size="9.1" font-weight="bold" lengthAdjust="spacing" textLength="10.122" x="45.3889" y="749.9386">24</text><text fill="#000000" font-family="sans-serif" font-size="9.1" lengthAdjust="spacing" textLength="167.9323" x="58.3109" y="749.9386">displays station cost and economic radius</text><polygon fill="#181818" points="41.1889,772.7262,34.1889,775.5262,41.1889,778.3262,38.3889,775.5262" style="stroke:#181818;stroke-width:0.6999999999999998;"/><line style="stroke:#181818;stroke-width:0.6999999999999998;stroke-dasharray:2.0,2.0;" x1="36.9889" x2="316.8963" y1="775.5262" y2="775.5262"/><text fill="#000000" font-family="sans-serif" font-size="9.1" font-weight="bold" lengthAdjust="spacing" textLength="10.122" x="45.3889" y="771.8423">25</text><text fill="#000000" font-family="sans-serif" font-size="9.1" lengthAdjust="spacing" textLength="250.8854" x="58.3109" y="771.8423">shows preview of station placement and requests confirmation</text><polygon fill="#181818" points="305.6963,794.6299,312.6963,797.4299,305.6963,800.2299,308.4963,797.4299" style="stroke:#181818;stroke-width:0.6999999999999998;"/><line style="stroke:#181818;stroke-width:0.6999999999999998;" x1="33.4889" x2="309.8963" y1="797.4299" y2="797.4299"/><text fill="#000000" font-family="sans-serif" font-size="9.1" font-weight="bold" lengthAdjust="spacing" textLength="10.122" x="38.3889" y="793.746">26</text><text fill="#000000" font-family="sans-serif" font-size="9.1" lengthAdjust="spacing" textLength="108.2358" x="51.3109" y="793.746">confirms station placement</text><polygon fill="#181818" points="438.5562,816.5336,445.5562,819.3336,438.5562,822.1336,441.3562,819.3336" style="stroke:#181818;stroke-width:0.6999999999999998;"/><line style="stroke:#181818;stroke-width:0.6999999999999998;" x1="321.0963" x2="442.7562" y1="819.3336" y2="819.3336"/><text fill="#000000" font-family="sans-serif" font-size="9.1" font-weight="bold" lengthAdjust="spacing" textLength="10.122" x="325.9963" y="815.6497">27</text><text fill="#000000" font-family="sans-serif" font-size="9.1" lengthAdjust="spacing" textLength="99.6379" x="338.9183" y="815.6497">buildStation(stationDTO)</text><rect fill="none" height="30.2764" style="stroke:#000000;stroke-width:1.0499999999999998;" width="124.585" x="388.1637" y="824.9336"/><path d="M388.1637,824.9336 L430.8637,824.9336 L430.8637,831.2336 L423.8637,838.2336 L388.1637,838.2336 L388.1637,824.9336 " fill="#EEEEEE" style="stroke:#000000;stroke-width:1.3999999999999997;"/><text fill="#000000" font-family="sans-serif" font-size="9.1" font-weight="bold" lengthAdjust="spacing" textLength="11.6327" x="397.2637" y="836.1534">ref</text><text fill="#000000" font-family="sans-serif" font-size="8.4" lengthAdjust="spacing" textLength="80.3086" x="410.3019" y="850.098">Create Station Object</text><polygon fill="#181818" points="328.7963,872.2137,321.7963,875.0137,328.7963,877.8137,325.9963,875.0137" style="stroke:#181818;stroke-width:0.6999999999999998;"/><line style="stroke:#181818;stroke-width:0.6999999999999998;stroke-dasharray:2.0,2.0;" x1="324.5963" x2="449.7562" y1="875.0137" y2="875.0137"/><text fill="#000000" font-family="sans-serif" font-size="9.1" font-weight="bold" lengthAdjust="spacing" textLength="10.122" x="332.9963" y="871.3298">28</text><text fill="#000000" font-family="sans-serif" font-size="9.1" lengthAdjust="spacing" textLength="32.872" x="345.9183" y="871.3298">success</text><polygon fill="#181818" points="41.1889,894.1174,34.1889,896.9174,41.1889,899.7174,38.3889,896.9174" style="stroke:#181818;stroke-width:0.6999999999999998;"/><line style="stroke:#181818;stroke-width:0.6999999999999998;stroke-dasharray:2.0,2.0;" x1="36.9889" x2="313.3963" y1="896.9174" y2="896.9174"/><text fill="#000000" font-family="sans-serif" font-size="9.1" font-weight="bold" lengthAdjust="spacing" textLength="10.122" x="45.3889" y="893.2335">29</text><text fill="#000000" font-family="sans-serif" font-size="9.1" lengthAdjust="spacing" textLength="108.7512" x="58.3109" y="893.2335">displays operation success</text><polygon fill="#181818" points="37.6889,916.0211,30.6889,918.8211,37.6889,921.6211,34.8889,918.8211" style="stroke:#181818;stroke-width:0.6999999999999998;"/><line style="stroke:#181818;stroke-width:0.6999999999999998;stroke-dasharray:2.0,2.0;" x1="33.4889" x2="316.8963" y1="918.8211" y2="918.8211"/><text fill="#000000" font-family="sans-serif" font-size="9.1" font-weight="bold" lengthAdjust="spacing" textLength="10.122" x="41.8889" y="915.1372">30</text><text fill="#000000" font-family="sans-serif" font-size="9.1" lengthAdjust="spacing" textLength="135.0648" x="54.8109" y="915.1372">updates map with the new station</text><!--SRC=[hLPVRzem47_dKvnu2bNx1VemYL4q8J50G3NjQJBE1RmwSMOxCBxzpavC4XfAMMi94SFTx-vtVsDUH9OppL98LQRuJgiKmUe2U-RqJyxu2zlYoXubWaPkMRQLJG6pOx4wY6mB2PC6UprMM9KLwGOrFNEhDFGNaXrHzu4PM4o7FyVBNe-KhU0YPvc5_kFACYjKzhKGCYQevucNVPwyBJPIcTLAoWfwj5vEknMUrdCliLeFrvFvx1VTpmGNoWWdMVeuNqsSdFTVx9d5azkPeel4n89Ad7z0PubM2zoZ0RPdGh8DHIfbELsp60p7Z6cXofjKB3PWTvZsaAuEpKEKyF3mXJ3XaNnu8Ia56qSK69YIXXSzkLHPTuUKIDNn9-Kjsehs-fYZYGOdiPEgZnGqZiO4r1xrwt_S-OOM6f0KFPWAOrjoZWwXj7xp3Zq4Kf9KsYWduHZRhhM8aNuLdaUoyAT0Oqs825X2WkXfl9YlxqDwxs4zNdwVp8RJade3dMBM5M-3aYgxZNebs8rIkhiZ2AwHvEfwYqnDTN2TZrIyD1s5IXm0tQYC8A4Eeeff5S5rIhbMUn5Z0vahfQbhICTSuHRglq4i-diFnq6T62PjEmV2GB-AIRzL11SfKsDOghXS2Uh0CWC-0BCnPP8-in_q_MFG0klW7Sw5b3QjjEIxw7UcruFPaSTPE9Y8ry-rUzG0lOiDEGo38OokpshBWFU1dcn0VA0XOqnOGKMngT0kQfYTEXXls8tGUc86HNDZptOQVbVVbebzAlL35A9D7OuwHHSJEvBA4F-HiCSe3vtxAPcjaC51tvXLJYepbkBxqjaHauLMH0PZ1n85jC5LhOf_8n0Ngo0lBTGZDoCBi65arCqzNf7dJVBd6B4mERrOr1XSaOfRiyZfVIOL73IBHM6kr6AkSI_muCen814knvJQtCFL8qjbYT3fBNEuKZ6leT-tpNqvLcibx9HMQVvlZOtyN0zx7UQRtzHEDnQQAJX7OsuV6wVKgHnrwS0vrhbAaSTkTVcLU11svtTYHcbxOoyshjKBt3y0]--></g></svg>