<svg xmlns="http://www.w3.org/2000/svg" xmlns:xlink="http://www.w3.org/1999/xlink" contentStyleType="text/css" height="1392.3px" preserveAspectRatio="none" style="width:660px;height:1392px;background:#FFFFFF;" version="1.1" viewBox="0 0 660 1392" width="660.1px" zoomAndPan="magnify"><title>Sequence Diagram: US05 - Build a Station (Split)</title><defs/><g><text fill="#000000" font-family="sans-serif" font-size="9.8" font-weight="bold" lengthAdjust="spacing" textLength="226.5245" x="215.2912" y="21.0752">Sequence Diagram: US05 - Build a Station (Split)</text><rect fill="#FFFFFF" height="1228.3742" style="stroke:#181818;stroke-width:0.6999999999999998;" width="7" x="26.4889" y="93.2695"/><rect fill="#FFFFFF" height="130.0223" style="stroke:#181818;stroke-width:0.6999999999999998;" width="7" x="314.0963" y="109.5732"/><rect fill="#FFFFFF" height="99.4875" style="stroke:#181818;stroke-width:0.6999999999999998;" width="7" x="314.0963" y="261.4992"/><rect fill="#FFFFFF" height="99.4875" style="stroke:#181818;stroke-width:0.6999999999999998;" width="7" x="314.0963" y="382.8904"/><rect fill="#FFFFFF" height="99.4875" style="stroke:#181818;stroke-width:0.6999999999999998;" width="7" x="314.0963" y="504.2816"/><rect fill="#FFFFFF" height="21.9037" style="stroke:#181818;stroke-width:0.6999999999999998;" width="7" x="314.0963" y="625.6729"/><rect fill="#FFFFFF" height="117.8912" style="stroke:#181818;stroke-width:0.6999999999999998;" width="7" x="314.0963" y="669.4803"/><rect fill="#FFFFFF" height="126.2912" style="stroke:#181818;stroke-width:0.6999999999999998;" width="7" x="314.0963" y="809.2752"/><rect fill="#FFFFFF" height="220.8787" style="stroke:#181818;stroke-width:0.6999999999999998;" width="7" x="314.0963" y="957.4701"/><rect fill="#FFFFFF" height="121.3912" style="stroke:#181818;stroke-width:0.6999999999999998;" width="7" x="314.0963" y="1200.2525"/><rect fill="#FFFFFF" height="55.6801" style="stroke:#181818;stroke-width:0.6999999999999998;" width="7" x="590.6144" y="162.0117"/><rect fill="#FFFFFF" height="55.6801" style="stroke:#181818;stroke-width:0.6999999999999998;" width="7" x="590.6144" y="283.4029"/><rect fill="#FFFFFF" height="55.6801" style="stroke:#181818;stroke-width:0.6999999999999998;" width="7" x="590.6144" y="404.7941"/><rect fill="#FFFFFF" height="55.6801" style="stroke:#181818;stroke-width:0.6999999999999998;" width="7" x="590.6144" y="526.1854"/><rect fill="#FFFFFF" height="55.6801" style="stroke:#181818;stroke-width:0.6999999999999998;" width="7" x="590.6144" y="691.384"/><rect fill="#FFFFFF" height="55.6801" style="stroke:#181818;stroke-width:0.6999999999999998;" width="7" x="590.6144" y="836.0789"/><rect fill="#FFFFFF" height="55.6801" style="stroke:#181818;stroke-width:0.6999999999999998;" width="7" x="590.6144" y="979.3738"/><rect fill="#FFFFFF" height="55.6801" style="stroke:#181818;stroke-width:0.6999999999999998;" width="7" x="590.6144" y="1056.9576"/><rect fill="#FFFFFF" height="55.6801" style="stroke:#181818;stroke-width:0.6999999999999998;" width="7" x="590.6144" y="1222.1562"/><rect fill="none" height="57.3111" style="stroke:#000000;stroke-width:1.0499999999999998;" width="361.4475" x="7" y="757.5641"/><line style="stroke:#181818;stroke-width:0.3499999999999999;stroke-dasharray:5.0,5.0;" x1="29.4" x2="29.4" y1="86.2695" y2="1334.2437"/><line style="stroke:#181818;stroke-width:0.3499999999999999;stroke-dasharray:5.0,5.0;" x1="317.1451" x2="317.1451" y1="86.2695" y2="1334.2437"/><line style="stroke:#181818;stroke-width:0.3499999999999999;stroke-dasharray:5.0,5.0;" x1="593.4219" x2="593.4219" y1="137.4406" y2="1334.2437"/><text fill="#000000" font-family="sans-serif" font-size="9.8" lengthAdjust="spacing" textLength="27.7778" x="14" y="83.81">Player</text><ellipse cx="29.9889" cy="37.1848" fill="#E2E2F0" rx="5.6" ry="5.6" style="stroke:#181818;stroke-width:0.3499999999999999;"/><path d="M29.9889,42.7848 L29.9889,61.6848 M20.8889,48.3848 L39.0889,48.3848 M29.9889,61.6848 L20.8889,72.1848 M29.9889,61.6848 L39.0889,72.1848 " fill="none" style="stroke:#181818;stroke-width:0.3499999999999999;"/><text fill="#000000" font-family="sans-serif" font-size="9.8" lengthAdjust="spacing" textLength="27.7778" x="14" y="1344.1189">Player</text><ellipse cx="29.9889" cy="1352.5285" fill="#E2E2F0" rx="5.6" ry="5.6" style="stroke:#181818;stroke-width:0.3499999999999999;"/><path d="M29.9889,1358.1285 L29.9889,1377.0285 M20.8889,1363.7285 L39.0889,1363.7285 M29.9889,1377.0285 L20.8889,1387.5285 M29.9889,1377.0285 L39.0889,1387.5285 " fill="none" style="stroke:#181818;stroke-width:0.3499999999999999;"/><rect fill="#E2E2F0" height="22.8348" rx="1.75" ry="1.75" style="stroke:#181818;stroke-width:0.3499999999999999;" width="87.7023" x="273.7451" y="62.7348"/><text fill="#000000" font-family="sans-serif" font-size="9.8" lengthAdjust="spacing" textLength="77.9023" x="278.6451" y="78.21">:StationBuildingUI</text><rect fill="#E2E2F0" height="22.8348" rx="1.75" ry="1.75" style="stroke:#181818;stroke-width:0.3499999999999999;" width="87.7023" x="273.7451" y="1333.5437"/><text fill="#000000" font-family="sans-serif" font-size="9.8" lengthAdjust="spacing" textLength="77.9023" x="278.6451" y="1349.0189">:StationBuildingUI</text><rect fill="#E2E2F0" height="22.8348" rx="1.75" ry="1.75" style="stroke:#181818;stroke-width:0.3499999999999999;" width="120.385" x="533.9219" y="1333.5437"/><text fill="#000000" font-family="sans-serif" font-size="9.8" lengthAdjust="spacing" textLength="110.585" x="538.8219" y="1349.0189">:StationBuildingController</text><rect fill="#FFFFFF" height="1228.3742" style="stroke:#181818;stroke-width:0.6999999999999998;" width="7" x="26.4889" y="93.2695"/><rect fill="#FFFFFF" height="130.0223" style="stroke:#181818;stroke-width:0.6999999999999998;" width="7" x="314.0963" y="109.5732"/><rect fill="#FFFFFF" height="99.4875" style="stroke:#181818;stroke-width:0.6999999999999998;" width="7" x="314.0963" y="261.4992"/><rect fill="#FFFFFF" height="99.4875" style="stroke:#181818;stroke-width:0.6999999999999998;" width="7" x="314.0963" y="382.8904"/><rect fill="#FFFFFF" height="99.4875" style="stroke:#181818;stroke-width:0.6999999999999998;" width="7" x="314.0963" y="504.2816"/><rect fill="#FFFFFF" height="21.9037" style="stroke:#181818;stroke-width:0.6999999999999998;" width="7" x="314.0963" y="625.6729"/><rect fill="#FFFFFF" height="117.8912" style="stroke:#181818;stroke-width:0.6999999999999998;" width="7" x="314.0963" y="669.4803"/><rect fill="#FFFFFF" height="126.2912" style="stroke:#181818;stroke-width:0.6999999999999998;" width="7" x="314.0963" y="809.2752"/><rect fill="#FFFFFF" height="220.8787" style="stroke:#181818;stroke-width:0.6999999999999998;" width="7" x="314.0963" y="957.4701"/><rect fill="#FFFFFF" height="121.3912" style="stroke:#181818;stroke-width:0.6999999999999998;" width="7" x="314.0963" y="1200.2525"/><rect fill="#FFFFFF" height="55.6801" style="stroke:#181818;stroke-width:0.6999999999999998;" width="7" x="590.6144" y="162.0117"/><rect fill="#FFFFFF" height="55.6801" style="stroke:#181818;stroke-width:0.6999999999999998;" width="7" x="590.6144" y="283.4029"/><rect fill="#FFFFFF" height="55.6801" style="stroke:#181818;stroke-width:0.6999999999999998;" width="7" x="590.6144" y="404.7941"/><rect fill="#FFFFFF" height="55.6801" style="stroke:#181818;stroke-width:0.6999999999999998;" width="7" x="590.6144" y="526.1854"/><rect fill="#FFFFFF" height="55.6801" style="stroke:#181818;stroke-width:0.6999999999999998;" width="7" x="590.6144" y="691.384"/><rect fill="#FFFFFF" height="55.6801" style="stroke:#181818;stroke-width:0.6999999999999998;" width="7" x="590.6144" y="836.0789"/><rect fill="#FFFFFF" height="55.6801" style="stroke:#181818;stroke-width:0.6999999999999998;" width="7" x="590.6144" y="979.3738"/><rect fill="#FFFFFF" height="55.6801" style="stroke:#181818;stroke-width:0.6999999999999998;" width="7" x="590.6144" y="1056.9576"/><rect fill="#FFFFFF" height="55.6801" style="stroke:#181818;stroke-width:0.6999999999999998;" width="7" x="590.6144" y="1222.1562"/><polygon fill="#181818" points="305.6963,106.7732,312.6963,109.5732,305.6963,112.3732,308.4963,109.5732" style="stroke:#181818;stroke-width:0.6999999999999998;"/><line style="stroke:#181818;stroke-width:0.6999999999999998;" x1="33.4889" x2="309.8963" y1="109.5732" y2="109.5732"/><text fill="#000000" font-family="sans-serif" font-size="9.1" font-weight="bold" lengthAdjust="spacing" textLength="5.061" x="38.3889" y="105.8894">1</text><text fill="#000000" font-family="sans-serif" font-size="9.1" lengthAdjust="spacing" textLength="109.2578" x="46.2499" y="105.8894">asks to see available maps</text><polygon fill="#181818" points="525.5219,128.677,532.5219,131.477,525.5219,134.277,528.3219,131.477" style="stroke:#181818;stroke-width:0.6999999999999998;"/><line style="stroke:#181818;stroke-width:0.6999999999999998;" x1="321.0963" x2="529.7219" y1="131.477" y2="131.477"/><text fill="#000000" font-family="sans-serif" font-size="9.1" font-weight="bold" lengthAdjust="spacing" textLength="5.061" x="325.9963" y="127.7931">2</text><text fill="#000000" font-family="sans-serif" font-size="9.1" lengthAdjust="spacing" textLength="31.3523" x="333.8573" y="127.7931">create()</text><rect fill="#E2E2F0" height="22.8348" rx="1.75" ry="1.75" style="stroke:#181818;stroke-width:0.3499999999999999;" width="120.385" x="533.9219" y="115.1732"/><text fill="#000000" font-family="sans-serif" font-size="9.8" lengthAdjust="spacing" textLength="110.585" x="538.8219" y="130.6484">:StationBuildingController</text><polygon fill="#181818" points="582.2144,159.2117,589.2144,162.0117,582.2144,164.8117,585.0144,162.0117" style="stroke:#181818;stroke-width:0.6999999999999998;"/><line style="stroke:#181818;stroke-width:0.6999999999999998;" x1="321.0963" x2="586.4144" y1="162.0117" y2="162.0117"/><text fill="#000000" font-family="sans-serif" font-size="9.1" font-weight="bold" lengthAdjust="spacing" textLength="5.061" x="325.9963" y="158.3278">3</text><text fill="#000000" font-family="sans-serif" font-size="9.1" lengthAdjust="spacing" textLength="77.8921" x="333.8573" y="158.3278">getAvailableMaps()</text><rect fill="none" height="30.2764" style="stroke:#000000;stroke-width:1.0499999999999998;" width="124.585" x="531.8219" y="167.6117"/><path d="M531.8219,167.6117 L574.5219,167.6117 L574.5219,173.9117 L567.5219,180.9117 L531.8219,180.9117 L531.8219,167.6117 " fill="#EEEEEE" style="stroke:#000000;stroke-width:1.3999999999999997;"/><text fill="#000000" font-family="sans-serif" font-size="9.1" font-weight="bold" lengthAdjust="spacing" textLength="11.6327" x="540.9219" y="178.8315">ref</text><text fill="#000000" font-family="sans-serif" font-size="8.4" lengthAdjust="spacing" textLength="71.9045" x="558.1622" y="192.7762">Get available maps</text><polygon fill="#181818" points="328.7963,214.8918,321.7963,217.6918,328.7963,220.4918,325.9963,217.6918" style="stroke:#181818;stroke-width:0.6999999999999998;"/><line style="stroke:#181818;stroke-width:0.6999999999999998;stroke-dasharray:2.0,2.0;" x1="324.5963" x2="593.4144" y1="217.6918" y2="217.6918"/><text fill="#000000" font-family="sans-serif" font-size="9.1" font-weight="bold" lengthAdjust="spacing" textLength="5.061" x="332.9963" y="214.0079">4</text><text fill="#000000" font-family="sans-serif" font-size="9.1" lengthAdjust="spacing" textLength="72.3334" x="340.8573" y="214.0079">availableMapsList</text><polygon fill="#181818" points="41.1889,236.7955,34.1889,239.5955,41.1889,242.3955,38.3889,239.5955" style="stroke:#181818;stroke-width:0.6999999999999998;"/><line style="stroke:#181818;stroke-width:0.6999999999999998;stroke-dasharray:2.0,2.0;" x1="36.9889" x2="316.8963" y1="239.5955" y2="239.5955"/><text fill="#000000" font-family="sans-serif" font-size="9.1" font-weight="bold" lengthAdjust="spacing" textLength="5.061" x="45.3889" y="235.9116">5</text><text fill="#000000" font-family="sans-serif" font-size="9.1" lengthAdjust="spacing" textLength="142.1297" x="53.2499" y="235.9116">shows list of available maps to play</text><polygon fill="#181818" points="305.6963,258.6992,312.6963,261.4992,305.6963,264.2992,308.4963,261.4992" style="stroke:#181818;stroke-width:0.6999999999999998;"/><line style="stroke:#181818;stroke-width:0.6999999999999998;" x1="33.4889" x2="309.8963" y1="261.4992" y2="261.4992"/><text fill="#000000" font-family="sans-serif" font-size="9.1" font-weight="bold" lengthAdjust="spacing" textLength="5.061" x="38.3889" y="257.8153">6</text><text fill="#000000" font-family="sans-serif" font-size="9.1" lengthAdjust="spacing" textLength="56.1418" x="46.2499" y="257.8153">selects a map</text><polygon fill="#181818" points="582.2144,280.6029,589.2144,283.4029,582.2144,286.2029,585.0144,283.4029" style="stroke:#181818;stroke-width:0.6999999999999998;"/><line style="stroke:#181818;stroke-width:0.6999999999999998;" x1="321.0963" x2="586.4144" y1="283.4029" y2="283.4029"/><text fill="#000000" font-family="sans-serif" font-size="9.1" font-weight="bold" lengthAdjust="spacing" textLength="5.061" x="325.9963" y="279.719">7</text><text fill="#000000" font-family="sans-serif" font-size="9.1" lengthAdjust="spacing" textLength="103.6813" x="333.8573" y="279.719">getMapScenarios(mapID)</text><rect fill="none" height="30.2764" style="stroke:#000000;stroke-width:1.0499999999999998;" width="124.585" x="531.8219" y="289.0029"/><path d="M531.8219,289.0029 L574.5219,289.0029 L574.5219,295.3029 L567.5219,302.3029 L531.8219,302.3029 L531.8219,289.0029 " fill="#EEEEEE" style="stroke:#000000;stroke-width:1.3999999999999997;"/><text fill="#000000" font-family="sans-serif" font-size="9.1" font-weight="bold" lengthAdjust="spacing" textLength="11.6327" x="540.9219" y="300.2228">ref</text><text fill="#000000" font-family="sans-serif" font-size="8.4" lengthAdjust="spacing" textLength="70.4977" x="558.8656" y="314.1674">Get map scenarios</text><polygon fill="#181818" points="328.7963,336.283,321.7963,339.083,328.7963,341.883,325.9963,339.083" style="stroke:#181818;stroke-width:0.6999999999999998;"/><line style="stroke:#181818;stroke-width:0.6999999999999998;stroke-dasharray:2.0,2.0;" x1="324.5963" x2="593.4144" y1="339.083" y2="339.083"/><text fill="#000000" font-family="sans-serif" font-size="9.1" font-weight="bold" lengthAdjust="spacing" textLength="5.061" x="332.9963" y="335.3991">8</text><text fill="#000000" font-family="sans-serif" font-size="9.1" lengthAdjust="spacing" textLength="58.168" x="340.8573" y="335.3991">mapScenarios</text><polygon fill="#181818" points="41.1889,358.1867,34.1889,360.9867,41.1889,363.7867,38.3889,360.9867" style="stroke:#181818;stroke-width:0.6999999999999998;"/><line style="stroke:#181818;stroke-width:0.6999999999999998;stroke-dasharray:2.0,2.0;" x1="36.9889" x2="316.8963" y1="360.9867" y2="360.9867"/><text fill="#000000" font-family="sans-serif" font-size="9.1" font-weight="bold" lengthAdjust="spacing" textLength="5.061" x="45.3889" y="357.3028">9</text><text fill="#000000" font-family="sans-serif" font-size="9.1" lengthAdjust="spacing" textLength="158.8234" x="53.2499" y="357.3028">shows list of available scenarios to play</text><polygon fill="#181818" points="305.6963,380.0904,312.6963,382.8904,305.6963,385.6904,308.4963,382.8904" style="stroke:#181818;stroke-width:0.6999999999999998;"/><line style="stroke:#181818;stroke-width:0.6999999999999998;" x1="33.4889" x2="309.8963" y1="382.8904" y2="382.8904"/><text fill="#000000" font-family="sans-serif" font-size="9.1" font-weight="bold" lengthAdjust="spacing" textLength="10.122" x="38.3889" y="379.2065">10</text><text fill="#000000" font-family="sans-serif" font-size="9.1" lengthAdjust="spacing" textLength="72.8355" x="51.3109" y="379.2065">selects a scenario</text><polygon fill="#181818" points="582.2144,401.9941,589.2144,404.7941,582.2144,407.5941,585.0144,404.7941" style="stroke:#181818;stroke-width:0.6999999999999998;"/><line style="stroke:#181818;stroke-width:0.6999999999999998;" x1="321.0963" x2="586.4144" y1="404.7941" y2="404.7941"/><text fill="#000000" font-family="sans-serif" font-size="9.1" font-weight="bold" lengthAdjust="spacing" textLength="10.122" x="325.9963" y="401.1103">11</text><text fill="#000000" font-family="sans-serif" font-size="9.1" lengthAdjust="spacing" textLength="116.3227" x="338.9183" y="401.1103">loadMap(mapID, scenarioID)</text><rect fill="none" height="30.2764" style="stroke:#000000;stroke-width:1.0499999999999998;" width="124.585" x="531.8219" y="410.3941"/><path d="M531.8219,410.3941 L574.5219,410.3941 L574.5219,416.6941 L567.5219,423.6941 L531.8219,423.6941 L531.8219,410.3941 " fill="#EEEEEE" style="stroke:#000000;stroke-width:1.3999999999999997;"/><text fill="#000000" font-family="sans-serif" font-size="9.1" font-weight="bold" lengthAdjust="spacing" textLength="11.6327" x="540.9219" y="421.614">ref</text><text fill="#000000" font-family="sans-serif" font-size="8.4" lengthAdjust="spacing" textLength="37.3611" x="575.4338" y="435.5586">Load map</text><polygon fill="#181818" points="328.7963,457.6742,321.7963,460.4742,328.7963,463.2742,325.9963,460.4742" style="stroke:#181818;stroke-width:0.6999999999999998;"/><line style="stroke:#181818;stroke-width:0.6999999999999998;stroke-dasharray:2.0,2.0;" x1="324.5963" x2="593.4144" y1="460.4742" y2="460.4742"/><text fill="#000000" font-family="sans-serif" font-size="9.1" font-weight="bold" lengthAdjust="spacing" textLength="10.122" x="332.9963" y="456.7903">12</text><text fill="#000000" font-family="sans-serif" font-size="9.1" lengthAdjust="spacing" textLength="45.0246" x="345.9183" y="456.7903">mapLayout</text><polygon fill="#181818" points="41.1889,479.5779,34.1889,482.3779,41.1889,485.1779,38.3889,482.3779" style="stroke:#181818;stroke-width:0.6999999999999998;"/><line style="stroke:#181818;stroke-width:0.6999999999999998;stroke-dasharray:2.0,2.0;" x1="36.9889" x2="316.8963" y1="482.3779" y2="482.3779"/><text fill="#000000" font-family="sans-serif" font-size="9.1" font-weight="bold" lengthAdjust="spacing" textLength="10.122" x="45.3889" y="478.694">13</text><text fill="#000000" font-family="sans-serif" font-size="9.1" lengthAdjust="spacing" textLength="146.702" x="58.3109" y="478.694">loads and displays the selected map</text><polygon fill="#181818" points="305.6963,501.4816,312.6963,504.2816,305.6963,507.0816,308.4963,504.2816" style="stroke:#181818;stroke-width:0.6999999999999998;"/><line style="stroke:#181818;stroke-width:0.6999999999999998;" x1="33.4889" x2="309.8963" y1="504.2816" y2="504.2816"/><text fill="#000000" font-family="sans-serif" font-size="9.1" font-weight="bold" lengthAdjust="spacing" textLength="10.122" x="38.3889" y="500.5978">14</text><text fill="#000000" font-family="sans-serif" font-size="9.1" lengthAdjust="spacing" textLength="87.512" x="51.3109" y="500.5978">asks to build a station</text><polygon fill="#181818" points="582.2144,523.3854,589.2144,526.1854,582.2144,528.9854,585.0144,526.1854" style="stroke:#181818;stroke-width:0.6999999999999998;"/><line style="stroke:#181818;stroke-width:0.6999999999999998;" x1="321.0963" x2="586.4144" y1="526.1854" y2="526.1854"/><text fill="#000000" font-family="sans-serif" font-size="9.1" font-weight="bold" lengthAdjust="spacing" textLength="10.122" x="325.9963" y="522.5015">15</text><text fill="#000000" font-family="sans-serif" font-size="9.1" lengthAdjust="spacing" textLength="71.8225" x="338.9183" y="522.5015">getStationTypes()</text><rect fill="none" height="30.2764" style="stroke:#000000;stroke-width:1.0499999999999998;" width="124.585" x="531.8219" y="531.7854"/><path d="M531.8219,531.7854 L574.5219,531.7854 L574.5219,538.0854 L567.5219,545.0854 L531.8219,545.0854 L531.8219,531.7854 " fill="#EEEEEE" style="stroke:#000000;stroke-width:1.3999999999999997;"/><text fill="#000000" font-family="sans-serif" font-size="9.1" font-weight="bold" lengthAdjust="spacing" textLength="11.6327" x="540.9219" y="543.0052">ref</text><text fill="#000000" font-family="sans-serif" font-size="8.4" lengthAdjust="spacing" textLength="82.6383" x="552.7953" y="556.9498">Get Station Types List</text><polygon fill="#181818" points="328.7963,579.0654,321.7963,581.8654,328.7963,584.6654,325.9963,581.8654" style="stroke:#181818;stroke-width:0.6999999999999998;"/><line style="stroke:#181818;stroke-width:0.6999999999999998;stroke-dasharray:2.0,2.0;" x1="324.5963" x2="593.4144" y1="581.8654" y2="581.8654"/><text fill="#000000" font-family="sans-serif" font-size="9.1" font-weight="bold" lengthAdjust="spacing" textLength="10.122" x="332.9963" y="578.1815">16</text><text fill="#000000" font-family="sans-serif" font-size="9.1" lengthAdjust="spacing" textLength="61.2028" x="345.9183" y="578.1815">stationTypeList</text><polygon fill="#181818" points="41.1889,600.9691,34.1889,603.7691,41.1889,606.5691,38.3889,603.7691" style="stroke:#181818;stroke-width:0.6999999999999998;"/><line style="stroke:#181818;stroke-width:0.6999999999999998;stroke-dasharray:2.0,2.0;" x1="36.9889" x2="316.8963" y1="603.7691" y2="603.7691"/><text fill="#000000" font-family="sans-serif" font-size="9.1" font-weight="bold" lengthAdjust="spacing" textLength="10.122" x="45.3889" y="600.0853">17</text><text fill="#000000" font-family="sans-serif" font-size="9.1" lengthAdjust="spacing" textLength="219.4664" x="58.3109" y="600.0853">requests station type (DEPOT, STATION, TERMINAL)</text><polygon fill="#181818" points="305.6963,622.8729,312.6963,625.6729,305.6963,628.4729,308.4963,625.6729" style="stroke:#181818;stroke-width:0.6999999999999998;"/><line style="stroke:#181818;stroke-width:0.6999999999999998;" x1="33.4889" x2="309.8963" y1="625.6729" y2="625.6729"/><text fill="#000000" font-family="sans-serif" font-size="9.1" font-weight="bold" lengthAdjust="spacing" textLength="10.122" x="38.3889" y="621.989">18</text><text fill="#000000" font-family="sans-serif" font-size="9.1" lengthAdjust="spacing" textLength="77.39" x="51.3109" y="621.989">selects station type</text><polygon fill="#181818" points="41.1889,644.7766,34.1889,647.5766,41.1889,650.3766,38.3889,647.5766" style="stroke:#181818;stroke-width:0.6999999999999998;"/><line style="stroke:#181818;stroke-width:0.6999999999999998;stroke-dasharray:2.0,2.0;" x1="36.9889" x2="316.8963" y1="647.5766" y2="647.5766"/><text fill="#000000" font-family="sans-serif" font-size="9.1" font-weight="bold" lengthAdjust="spacing" textLength="10.122" x="45.3889" y="643.8927">19</text><text fill="#000000" font-family="sans-serif" font-size="9.1" lengthAdjust="spacing" textLength="200.3066" x="58.3109" y="643.8927">requests location (Position) on map for the station</text><polygon fill="#181818" points="305.6963,666.6803,312.6963,669.4803,305.6963,672.2803,308.4963,669.4803" style="stroke:#181818;stroke-width:0.6999999999999998;"/><line style="stroke:#181818;stroke-width:0.6999999999999998;" x1="33.4889" x2="309.8963" y1="669.4803" y2="669.4803"/><text fill="#000000" font-family="sans-serif" font-size="9.1" font-weight="bold" lengthAdjust="spacing" textLength="10.122" x="38.3889" y="665.7964">20</text><text fill="#000000" font-family="sans-serif" font-size="9.1" lengthAdjust="spacing" textLength="117.8646" x="51.3109" y="665.7964">provides location coordinates</text><polygon fill="#181818" points="582.2144,688.584,589.2144,691.384,582.2144,694.184,585.0144,691.384" style="stroke:#181818;stroke-width:0.6999999999999998;"/><line style="stroke:#181818;stroke-width:0.6999999999999998;" x1="321.0963" x2="586.4144" y1="691.384" y2="691.384"/><text fill="#000000" font-family="sans-serif" font-size="9.1" font-weight="bold" lengthAdjust="spacing" textLength="10.122" x="325.9963" y="687.7001">21</text><text fill="#000000" font-family="sans-serif" font-size="9.1" lengthAdjust="spacing" textLength="101.1664" x="338.9183" y="687.7001">validatePosition(position)</text><rect fill="none" height="30.2764" style="stroke:#000000;stroke-width:1.0499999999999998;" width="124.585" x="531.8219" y="696.984"/><path d="M531.8219,696.984 L574.5219,696.984 L574.5219,703.284 L567.5219,710.284 L531.8219,710.284 L531.8219,696.984 " fill="#EEEEEE" style="stroke:#000000;stroke-width:1.3999999999999997;"/><text fill="#000000" font-family="sans-serif" font-size="9.1" font-weight="bold" lengthAdjust="spacing" textLength="11.6327" x="540.9219" y="708.2038">ref</text><text fill="#000000" font-family="sans-serif" font-size="8.4" lengthAdjust="spacing" textLength="62.5734" x="562.8277" y="722.1484">Validate Position</text><polygon fill="#181818" points="328.7963,744.2641,321.7963,747.0641,328.7963,749.8641,325.9963,747.0641" style="stroke:#181818;stroke-width:0.6999999999999998;"/><line style="stroke:#181818;stroke-width:0.6999999999999998;stroke-dasharray:2.0,2.0;" x1="324.5963" x2="593.4144" y1="747.0641" y2="747.0641"/><text fill="#000000" font-family="sans-serif" font-size="9.1" font-weight="bold" lengthAdjust="spacing" textLength="10.122" x="332.9963" y="743.3802">22</text><text fill="#000000" font-family="sans-serif" font-size="9.1" lengthAdjust="spacing" textLength="18.7154" x="345.9183" y="743.3802">valid</text><path d="M7,757.5641 L49.1196,757.5641 L49.1196,764.0678 L42.1196,771.0678 L7,771.0678 L7,757.5641 " fill="#EEEEEE" style="stroke:#000000;stroke-width:1.0499999999999998;"/><rect fill="none" height="57.3111" style="stroke:#000000;stroke-width:1.0499999999999998;" width="361.4475" x="7" y="757.5641"/><text fill="#000000" font-family="sans-serif" font-size="9.1" font-weight="bold" lengthAdjust="spacing" textLength="10.6196" x="17.5" y="768.0839">alt</text><text fill="#000000" font-family="sans-serif" font-size="7.7" font-weight="bold" lengthAdjust="spacing" textLength="124.9596" x="59.6196" y="767.2731">[stationType.name == "STATION"]</text><polygon fill="#181818" points="41.1889,784.5715,34.1889,787.3715,41.1889,790.1715,38.3889,787.3715" style="stroke:#181818;stroke-width:0.6999999999999998;"/><line style="stroke:#181818;stroke-width:0.6999999999999998;stroke-dasharray:2.0,2.0;" x1="36.9889" x2="316.8963" y1="787.3715" y2="787.3715"/><text fill="#000000" font-family="sans-serif" font-size="9.1" font-weight="bold" lengthAdjust="spacing" textLength="10.122" x="45.3889" y="783.6876">23</text><text fill="#000000" font-family="sans-serif" font-size="9.1" lengthAdjust="spacing" textLength="201.7863" x="58.3109" y="783.6876">requests center point selection (NE, SE, NW, SW)</text><polygon fill="#181818" points="305.6963,806.4752,312.6963,809.2752,305.6963,812.0752,308.4963,809.2752" style="stroke:#181818;stroke-width:0.6999999999999998;"/><line style="stroke:#181818;stroke-width:0.6999999999999998;" x1="33.4889" x2="309.8963" y1="809.2752" y2="809.2752"/><text fill="#000000" font-family="sans-serif" font-size="9.1" font-weight="bold" lengthAdjust="spacing" textLength="10.122" x="38.3889" y="805.5913">24</text><text fill="#000000" font-family="sans-serif" font-size="9.1" lengthAdjust="spacing" textLength="78.4031" x="51.3109" y="805.5913">selects center point</text><polygon fill="#181818" points="582.2144,833.2789,589.2144,836.0789,582.2144,838.8789,585.0144,836.0789" style="stroke:#181818;stroke-width:0.6999999999999998;"/><line style="stroke:#181818;stroke-width:0.6999999999999998;" x1="321.0963" x2="586.4144" y1="836.0789" y2="836.0789"/><text fill="#000000" font-family="sans-serif" font-size="9.1" font-weight="bold" lengthAdjust="spacing" textLength="10.122" x="325.9963" y="832.395">25</text><text fill="#000000" font-family="sans-serif" font-size="9.1" lengthAdjust="spacing" textLength="92.5685" x="338.9183" y="832.395">getAvailableBuildings()</text><rect fill="none" height="30.2764" style="stroke:#000000;stroke-width:1.0499999999999998;" width="124.585" x="531.8219" y="841.6789"/><path d="M531.8219,841.6789 L574.5219,841.6789 L574.5219,847.9789 L567.5219,854.9789 L531.8219,854.9789 L531.8219,841.6789 " fill="#EEEEEE" style="stroke:#000000;stroke-width:1.3999999999999997;"/><text fill="#000000" font-family="sans-serif" font-size="9.1" font-weight="bold" lengthAdjust="spacing" textLength="11.6327" x="540.9219" y="852.8987">ref</text><text fill="#000000" font-family="sans-serif" font-size="8.4" lengthAdjust="spacing" textLength="86.383" x="550.9229" y="866.8434">Get Available Buildings</text><polygon fill="#181818" points="328.7963,888.959,321.7963,891.759,328.7963,894.559,325.9963,891.759" style="stroke:#181818;stroke-width:0.6999999999999998;"/><line style="stroke:#181818;stroke-width:0.6999999999999998;stroke-dasharray:2.0,2.0;" x1="324.5963" x2="593.4144" y1="891.759" y2="891.759"/><text fill="#000000" font-family="sans-serif" font-size="9.1" font-weight="bold" lengthAdjust="spacing" textLength="10.122" x="332.9963" y="888.0751">26</text><text fill="#000000" font-family="sans-serif" font-size="9.1" lengthAdjust="spacing" textLength="87.0099" x="345.9183" y="888.0751">availableBuildingsList</text><polygon fill="#181818" points="41.1889,910.8627,34.1889,913.6627,41.1889,916.4627,38.3889,913.6627" style="stroke:#181818;stroke-width:0.6999999999999998;"/><line style="stroke:#181818;stroke-width:0.6999999999999998;stroke-dasharray:2.0,2.0;" x1="36.9889" x2="313.3963" y1="913.6627" y2="913.6627"/><text fill="#000000" font-family="sans-serif" font-size="9.1" font-weight="bold" lengthAdjust="spacing" textLength="10.122" x="45.3889" y="909.9788">27</text><text fill="#000000" font-family="sans-serif" font-size="9.1" lengthAdjust="spacing" textLength="98.6515" x="58.3109" y="909.9788">requests default building</text><polygon fill="#181818" points="41.1889,932.7664,34.1889,935.5664,41.1889,938.3664,38.3889,935.5664" style="stroke:#181818;stroke-width:0.6999999999999998;"/><line style="stroke:#181818;stroke-width:0.6999999999999998;stroke-dasharray:2.0,2.0;" x1="36.9889" x2="316.8963" y1="935.5664" y2="935.5664"/><text fill="#000000" font-family="sans-serif" font-size="9.1" font-weight="bold" lengthAdjust="spacing" textLength="10.122" x="45.3889" y="931.8825">28</text><text fill="#000000" font-family="sans-serif" font-size="9.1" lengthAdjust="spacing" textLength="126.458" x="58.3109" y="931.8825">shows list of available buildings</text><polygon fill="#181818" points="305.6963,954.6701,312.6963,957.4701,305.6963,960.2701,308.4963,957.4701" style="stroke:#181818;stroke-width:0.6999999999999998;"/><line style="stroke:#181818;stroke-width:0.6999999999999998;" x1="33.4889" x2="309.8963" y1="957.4701" y2="957.4701"/><text fill="#000000" font-family="sans-serif" font-size="9.1" font-weight="bold" lengthAdjust="spacing" textLength="10.122" x="38.3889" y="953.7862">29</text><text fill="#000000" font-family="sans-serif" font-size="9.1" lengthAdjust="spacing" textLength="92.0708" x="51.3109" y="953.7862">selects default building</text><polygon fill="#181818" points="582.2144,976.5738,589.2144,979.3738,582.2144,982.1738,585.0144,979.3738" style="stroke:#181818;stroke-width:0.6999999999999998;"/><line style="stroke:#181818;stroke-width:0.6999999999999998;" x1="321.0963" x2="586.4144" y1="979.3738" y2="979.3738"/><text fill="#000000" font-family="sans-serif" font-size="9.1" font-weight="bold" lengthAdjust="spacing" textLength="10.122" x="325.9963" y="975.6899">30</text><text fill="#000000" font-family="sans-serif" font-size="9.1" lengthAdjust="spacing" textLength="96.0921" x="338.9183" y="975.6899">getClosestCity(position)</text><rect fill="none" height="30.2764" style="stroke:#000000;stroke-width:1.0499999999999998;" width="124.585" x="531.8219" y="984.9738"/><path d="M531.8219,984.9738 L574.5219,984.9738 L574.5219,991.2738 L567.5219,998.2738 L531.8219,998.2738 L531.8219,984.9738 " fill="#EEEEEE" style="stroke:#000000;stroke-width:1.3999999999999997;"/><text fill="#000000" font-family="sans-serif" font-size="9.1" font-weight="bold" lengthAdjust="spacing" textLength="11.6327" x="540.9219" y="996.1937">ref</text><text fill="#000000" font-family="sans-serif" font-size="8.4" lengthAdjust="spacing" textLength="60.6826" x="563.7731" y="1010.1383">Get Closest City</text><polygon fill="#181818" points="328.7963,1032.2539,321.7963,1035.0539,328.7963,1037.8539,325.9963,1035.0539" style="stroke:#181818;stroke-width:0.6999999999999998;"/><line style="stroke:#181818;stroke-width:0.6999999999999998;stroke-dasharray:2.0,2.0;" x1="324.5963" x2="593.4144" y1="1035.0539" y2="1035.0539"/><text fill="#000000" font-family="sans-serif" font-size="9.1" font-weight="bold" lengthAdjust="spacing" textLength="10.122" x="332.9963" y="1031.37">31</text><text fill="#000000" font-family="sans-serif" font-size="9.1" lengthAdjust="spacing" textLength="43.9937" x="345.9183" y="1031.37">closestCity</text><polygon fill="#181818" points="582.2144,1054.1576,589.2144,1056.9576,582.2144,1059.7576,585.0144,1056.9576" style="stroke:#181818;stroke-width:0.6999999999999998;"/><line style="stroke:#181818;stroke-width:0.6999999999999998;" x1="321.0963" x2="586.4144" y1="1056.9576" y2="1056.9576"/><text fill="#000000" font-family="sans-serif" font-size="9.1" font-weight="bold" lengthAdjust="spacing" textLength="10.122" x="325.9963" y="1053.2737">32</text><text fill="#000000" font-family="sans-serif" font-size="9.1" lengthAdjust="spacing" textLength="243.2961" x="338.9183" y="1053.2737">previewStationPlacement(stationType, position, centerPoint)</text><rect fill="none" height="30.2764" style="stroke:#000000;stroke-width:1.0499999999999998;" width="124.585" x="531.8219" y="1062.5576"/><path d="M531.8219,1062.5576 L574.5219,1062.5576 L574.5219,1068.8576 L567.5219,1075.8576 L531.8219,1075.8576 L531.8219,1062.5576 " fill="#EEEEEE" style="stroke:#000000;stroke-width:1.3999999999999997;"/><text fill="#000000" font-family="sans-serif" font-size="9.1" font-weight="bold" lengthAdjust="spacing" textLength="11.6327" x="540.9219" y="1073.7774">ref</text><text fill="#000000" font-family="sans-serif" font-size="8.4" lengthAdjust="spacing" textLength="100.3816" x="543.9236" y="1087.7221">Preview Station Placement</text><polygon fill="#181818" points="328.7963,1109.8377,321.7963,1112.6377,328.7963,1115.4377,325.9963,1112.6377" style="stroke:#181818;stroke-width:0.6999999999999998;"/><line style="stroke:#181818;stroke-width:0.6999999999999998;stroke-dasharray:2.0,2.0;" x1="324.5963" x2="593.4144" y1="1112.6377" y2="1112.6377"/><text fill="#000000" font-family="sans-serif" font-size="9.1" font-weight="bold" lengthAdjust="spacing" textLength="10.122" x="332.9963" y="1108.9538">33</text><text fill="#000000" font-family="sans-serif" font-size="9.1" lengthAdjust="spacing" textLength="125.4316" x="345.9183" y="1108.9538">preview, economicRadius, cost</text><polygon fill="#181818" points="41.1889,1131.7414,34.1889,1134.5414,41.1889,1137.3414,38.3889,1134.5414" style="stroke:#181818;stroke-width:0.6999999999999998;"/><line style="stroke:#181818;stroke-width:0.6999999999999998;stroke-dasharray:2.0,2.0;" x1="36.9889" x2="313.3963" y1="1134.5414" y2="1134.5414"/><text fill="#000000" font-family="sans-serif" font-size="9.1" font-weight="bold" lengthAdjust="spacing" textLength="10.122" x="45.3889" y="1130.8575">34</text><text fill="#000000" font-family="sans-serif" font-size="9.1" lengthAdjust="spacing" textLength="179.0674" x="58.3109" y="1130.8575">proposes station name based on closest city</text><polygon fill="#181818" points="41.1889,1153.6451,34.1889,1156.4451,41.1889,1159.2451,38.3889,1156.4451" style="stroke:#181818;stroke-width:0.6999999999999998;"/><line style="stroke:#181818;stroke-width:0.6999999999999998;stroke-dasharray:2.0,2.0;" x1="36.9889" x2="313.3963" y1="1156.4451" y2="1156.4451"/><text fill="#000000" font-family="sans-serif" font-size="9.1" font-weight="bold" lengthAdjust="spacing" textLength="10.122" x="45.3889" y="1152.7612">35</text><text fill="#000000" font-family="sans-serif" font-size="9.1" lengthAdjust="spacing" textLength="167.9323" x="58.3109" y="1152.7612">displays station cost and economic radius</text><polygon fill="#181818" points="41.1889,1175.5488,34.1889,1178.3488,41.1889,1181.1488,38.3889,1178.3488" style="stroke:#181818;stroke-width:0.6999999999999998;"/><line style="stroke:#181818;stroke-width:0.6999999999999998;stroke-dasharray:2.0,2.0;" x1="36.9889" x2="316.8963" y1="1178.3488" y2="1178.3488"/><text fill="#000000" font-family="sans-serif" font-size="9.1" font-weight="bold" lengthAdjust="spacing" textLength="10.122" x="45.3889" y="1174.6649">36</text><text fill="#000000" font-family="sans-serif" font-size="9.1" lengthAdjust="spacing" textLength="250.8854" x="58.3109" y="1174.6649">shows preview of station placement and requests confirmation</text><polygon fill="#181818" points="305.6963,1197.4525,312.6963,1200.2525,305.6963,1203.0525,308.4963,1200.2525" style="stroke:#181818;stroke-width:0.6999999999999998;"/><line style="stroke:#181818;stroke-width:0.6999999999999998;" x1="33.4889" x2="309.8963" y1="1200.2525" y2="1200.2525"/><text fill="#000000" font-family="sans-serif" font-size="9.1" font-weight="bold" lengthAdjust="spacing" textLength="10.122" x="38.3889" y="1196.5687">37</text><text fill="#000000" font-family="sans-serif" font-size="9.1" lengthAdjust="spacing" textLength="108.2358" x="51.3109" y="1196.5687">confirms station placement</text><polygon fill="#181818" points="582.2144,1219.3562,589.2144,1222.1562,582.2144,1224.9562,585.0144,1222.1562" style="stroke:#181818;stroke-width:0.6999999999999998;"/><line style="stroke:#181818;stroke-width:0.6999999999999998;" x1="321.0963" x2="586.4144" y1="1222.1562" y2="1222.1562"/><text fill="#000000" font-family="sans-serif" font-size="9.1" font-weight="bold" lengthAdjust="spacing" textLength="10.122" x="325.9963" y="1218.4724">38</text><text fill="#000000" font-family="sans-serif" font-size="9.1" lengthAdjust="spacing" textLength="188.1718" x="338.9183" y="1218.4724">buildStation(stationType, position, centerPoint)</text><rect fill="none" height="30.2764" style="stroke:#000000;stroke-width:1.0499999999999998;" width="124.585" x="531.8219" y="1227.7562"/><path d="M531.8219,1227.7562 L574.5219,1227.7562 L574.5219,1234.0562 L567.5219,1241.0562 L531.8219,1241.0562 L531.8219,1227.7562 " fill="#EEEEEE" style="stroke:#000000;stroke-width:1.3999999999999997;"/><text fill="#000000" font-family="sans-serif" font-size="9.1" font-weight="bold" lengthAdjust="spacing" textLength="11.6327" x="540.9219" y="1238.9761">ref</text><text fill="#000000" font-family="sans-serif" font-size="8.4" lengthAdjust="spacing" textLength="47.1639" x="570.5325" y="1252.9207">Build Station</text><polygon fill="#181818" points="328.7963,1275.0363,321.7963,1277.8363,328.7963,1280.6363,325.9963,1277.8363" style="stroke:#181818;stroke-width:0.6999999999999998;"/><line style="stroke:#181818;stroke-width:0.6999999999999998;stroke-dasharray:2.0,2.0;" x1="324.5963" x2="593.4144" y1="1277.8363" y2="1277.8363"/><text fill="#000000" font-family="sans-serif" font-size="9.1" font-weight="bold" lengthAdjust="spacing" textLength="10.122" x="332.9963" y="1274.1524">39</text><text fill="#000000" font-family="sans-serif" font-size="9.1" lengthAdjust="spacing" textLength="32.872" x="345.9183" y="1274.1524">success</text><polygon fill="#181818" points="41.1889,1296.94,34.1889,1299.74,41.1889,1302.54,38.3889,1299.74" style="stroke:#181818;stroke-width:0.6999999999999998;"/><line style="stroke:#181818;stroke-width:0.6999999999999998;stroke-dasharray:2.0,2.0;" x1="36.9889" x2="313.3963" y1="1299.74" y2="1299.74"/><text fill="#000000" font-family="sans-serif" font-size="9.1" font-weight="bold" lengthAdjust="spacing" textLength="10.122" x="45.3889" y="1296.0562">40</text><text fill="#000000" font-family="sans-serif" font-size="9.1" lengthAdjust="spacing" textLength="108.7512" x="58.3109" y="1296.0562">displays operation success</text><polygon fill="#181818" points="37.6889,1318.8437,30.6889,1321.6437,37.6889,1324.4437,34.8889,1321.6437" style="stroke:#181818;stroke-width:0.6999999999999998;"/><line style="stroke:#181818;stroke-width:0.6999999999999998;stroke-dasharray:2.0,2.0;" x1="33.4889" x2="316.8963" y1="1321.6437" y2="1321.6437"/><text fill="#000000" font-family="sans-serif" font-size="9.1" font-weight="bold" lengthAdjust="spacing" textLength="10.122" x="41.8889" y="1317.9599">41</text><text fill="#000000" font-family="sans-serif" font-size="9.1" lengthAdjust="spacing" textLength="135.0648" x="54.8109" y="1317.9599">updates map with the new station</text><!--SRC=[hLVBRk8m5DtdAwvOqOgEPZCRf8x4q6g4H5l4OwfPckH2hOOuOpiW_dwk7JiaaF2eOWdnYE_nyRbFr2TFKYRP1b8MVh8rplG-Hf0OQfQiOmnKiK5zi4ZiUBA65OiL1W7Bj4YopH9b46YkoMo6_p9CGeGdpjPaquV5xFiFU81V6OyZO33JJ7EHG7UMnbpV4KQeXOJE96Pxb1rW2YRZmT_dQK1dQXxob2KQEdrdPs68mM9ajov6vxSDHQAbY6E7F9nFnu4zac-PHdzI0BJop_3maq3xjFbJWHQW485j6O_PacwtOQcocyqgK8Y4_sqnCW3ccFlxFeGIwNdthkPn7zQe1nxuXN1BsohebZCSBOah45kKzK_D-eswYRXVc4ILtmmMF7W1ojp6NEdArWZh-PaB4a2kPPy2HkmKn6GDOdL4nwYRajE36anIjCOd2cCAIaL1HFPNki7gJ5UOXPWmoONgaktegNsj2HQKF-GsgJSbUcsgND2v8FKvfJr6SBNUiM0H2Pxht2i0sjPyJCTKuk1QgSTiBx8lHREv6McIH11nPVGaOJ_GYOLLDXU26GuLPkaAeyehLt1POx11xIhTV9zYkNO4boKquUhBi3M7IdwJWCRu5B7PPIMDYPmwCAi0DybShpS1ITDC5CMXGmHDaD1zUfwypNimcm_cexVN7ioVfo-Zry4u5-6oyZwwowXdPQ_b58lGTRA9KDnykWFwPkh0YXgQZOoIIo_JIgNOyWXBoA4GaheOsQZhmcBBOXxH1i-ectfgjyJ77uS27gQzqB046mFY01VhSXHzIzW6uV4HEixddSeHZIwYqgFfWgdWD1laNhSEUtscwA7NwpkzlzyrrGBl9xyQmgXyIds9AxdBLAV6b2xc0J- -V26n2mmeGDfp7piXU3R1BoTHX2kMaREN3g_Hegd7BKyksU301kSr4gW5ENROC1QAxZ7aUl-rL3CUSo1WKDfpLNYWTbi1BkwNIjnotBbEGVDvY1iAzMufCNlWRzrpQJ0nMN2J19FycA8Z5GUrfuMxIGym58dOy73A8fufuYo-4hrKg5CZRj50R7bQCaKpWAdQpfzXMVfZZ6A2y1Y6YfqjF4UGbkI5Z71NCqdXaL8le8Kx54EHhBZStDAHd8awXRwk7TcaSdvjEspo_vEpKeTjPtR9mX2LkZqe2eUA56MkrZ7MiKcMcYwhxCYmu_h3pWm9EVFCt53wwlwy_WS0]--></g></svg>