<svg xmlns="http://www.w3.org/2000/svg" xmlns:xlink="http://www.w3.org/1999/xlink" contentStyleType="text/css" height="633.6px" preserveAspectRatio="none" style="width:766px;height:633px;background:#FFFFFF;" version="1.1" viewBox="0 0 766 633" width="766.4px" zoomAndPan="magnify"><defs/><g><rect fill="#FFFFFF" height="501.9844" style="stroke:#181818;stroke-width:0.8000000000000002;" width="8" x="245.0215" y="72.4266"/><rect fill="#FFFFFF" height="25.0328" style="stroke:#181818;stroke-width:0.8000000000000002;" width="8" x="384.7246" y="118.4922"/><rect fill="#FFFFFF" height="25.0328" style="stroke:#181818;stroke-width:0.8000000000000002;" width="8" x="384.7246" y="168.5578"/><rect fill="#FFFFFF" height="25.0328" style="stroke:#181818;stroke-width:0.8000000000000002;" width="8" x="384.7246" y="218.6234"/><rect fill="#FFFFFF" height="25.0328" style="stroke:#181818;stroke-width:0.8000000000000002;" width="8" x="465.2484" y="268.6891"/><rect fill="#FFFFFF" height="25.0328" style="stroke:#181818;stroke-width:0.8000000000000002;" width="8" x="465.2484" y="518.7453"/><rect fill="#FFFFFF" height="25.0328" style="stroke:#181818;stroke-width:0.8000000000000002;" width="8" x="514.327" y="418.8859"/><rect fill="#FFFFFF" height="25.0328" style="stroke:#181818;stroke-width:0.8000000000000002;" width="8" x="582.3957" y="368.8203"/><rect fill="#FFFFFF" height="25.0328" style="stroke:#181818;stroke-width:0.8000000000000002;" width="8" x="660.1086" y="318.7547"/><rect fill="none" height="465.7516" style="stroke:#000000;stroke-width:1.2000000000000002;" width="589.732" x="172.2301" y="84.4266"/><line style="stroke:#181818;stroke-width:0.4000000000000001;stroke-dasharray:5.0,5.0;" x1="248.2301" x2="248.2301" y1="45.7938" y2="588.8109"/><line style="stroke:#181818;stroke-width:0.4000000000000001;stroke-dasharray:5.0,5.0;" x1="388.6504" x2="388.6504" y1="45.7938" y2="588.8109"/><line style="stroke:#181818;stroke-width:0.4000000000000001;stroke-dasharray:5.0,5.0;" x1="468.7988" x2="468.7988" y1="45.7938" y2="588.8109"/><line style="stroke:#181818;stroke-width:0.4000000000000001;stroke-dasharray:5.0,5.0;" x1="517.698" x2="517.698" y1="45.7938" y2="588.8109"/><line style="stroke:#181818;stroke-width:0.4000000000000001;stroke-dasharray:5.0,5.0;" x1="586.1559" x2="586.1559" y1="45.7938" y2="588.8109"/><line style="stroke:#181818;stroke-width:0.4000000000000001;stroke-dasharray:5.0,5.0;" x1="663.4355" x2="663.4355" y1="45.7938" y2="588.8109"/><line style="stroke:#181818;stroke-width:0.4000000000000001;stroke-dasharray:5.0,5.0;" x1="728.7816" x2="728.7816" y1="483.2156" y2="588.8109"/><rect fill="#E2E2F0" height="26.0969" rx="2" ry="2" style="stroke:#181818;stroke-width:0.4000000000000001;" width="137.5828" x="180.2301" y="18.8969"/><text fill="#000000" font-family="sans-serif" font-size="11.2" lengthAdjust="spacing" textLength="126.3828" x="185.8301" y="36.5828">:StationBuildingController</text><rect fill="#E2E2F0" height="26.0969" rx="2" ry="2" style="stroke:#181818;stroke-width:0.4000000000000001;" width="137.5828" x="180.2301" y="588.0109"/><text fill="#000000" font-family="sans-serif" font-size="11.2" lengthAdjust="spacing" textLength="126.3828" x="185.8301" y="605.6969">:StationBuildingController</text><rect fill="#E2E2F0" height="40.9938" rx="2" ry="2" style="stroke:#181818;stroke-width:0.4000000000000001;" width="108.9484" x="334.2504" y="4"/><text fill="#000000" font-family="sans-serif" font-size="11.2" lengthAdjust="spacing" textLength="58.532" x="359.4586" y="21.6859">appSession</text><text fill="#000000" font-family="sans-serif" font-size="11.2" lengthAdjust="spacing" textLength="97.7484" x="339.8504" y="36.5828">:ApplicationSession</text><rect fill="#E2E2F0" height="40.9938" rx="2" ry="2" style="stroke:#181818;stroke-width:0.4000000000000001;" width="108.9484" x="334.2504" y="588.0109"/><text fill="#000000" font-family="sans-serif" font-size="11.2" lengthAdjust="spacing" textLength="58.532" x="359.4586" y="605.6969">appSession</text><text fill="#000000" font-family="sans-serif" font-size="11.2" lengthAdjust="spacing" textLength="97.7484" x="339.8504" y="620.5938">:ApplicationSession</text><rect fill="#E2E2F0" height="40.9938" rx="2" ry="2" style="stroke:#181818;stroke-width:0.4000000000000001;" width="36.0992" x="451.1988" y="4"/><text fill="#000000" font-family="sans-serif" font-size="11.2" lengthAdjust="spacing" textLength="21.7875" x="458.3547" y="21.6859">map</text><text fill="#000000" font-family="sans-serif" font-size="11.2" lengthAdjust="spacing" textLength="24.8992" x="456.7988" y="36.5828">:Map</text><rect fill="#E2E2F0" height="40.9938" rx="2" ry="2" style="stroke:#181818;stroke-width:0.4000000000000001;" width="36.0992" x="451.1988" y="588.0109"/><text fill="#000000" font-family="sans-serif" font-size="11.2" lengthAdjust="spacing" textLength="21.7875" x="458.3547" y="605.6969">map</text><text fill="#000000" font-family="sans-serif" font-size="11.2" lengthAdjust="spacing" textLength="24.8992" x="456.7988" y="620.5938">:Map</text><rect fill="#E2E2F0" height="40.9938" rx="2" ry="2" style="stroke:#181818;stroke-width:0.4000000000000001;" width="46.0578" x="495.298" y="4"/><text fill="#000000" font-family="sans-serif" font-size="11.2" lengthAdjust="spacing" textLength="30.5047" x="503.0746" y="21.6859">player</text><text fill="#000000" font-family="sans-serif" font-size="11.2" lengthAdjust="spacing" textLength="34.8578" x="500.898" y="36.5828">:Player</text><rect fill="#E2E2F0" height="40.9938" rx="2" ry="2" style="stroke:#181818;stroke-width:0.4000000000000001;" width="46.0578" x="495.298" y="588.0109"/><text fill="#000000" font-family="sans-serif" font-size="11.2" lengthAdjust="spacing" textLength="30.5047" x="503.0746" y="605.6969">player</text><text fill="#000000" font-family="sans-serif" font-size="11.2" lengthAdjust="spacing" textLength="34.8578" x="500.898" y="620.5938">:Player</text><rect fill="#E2E2F0" height="40.9938" rx="2" ry="2" style="stroke:#181818;stroke-width:0.4000000000000001;" width="74.0797" x="549.3559" y="4"/><text fill="#000000" font-family="sans-serif" font-size="11.2" lengthAdjust="spacing" textLength="57.8977" x="557.4469" y="21.6859">stationType</text><text fill="#000000" font-family="sans-serif" font-size="11.2" lengthAdjust="spacing" textLength="62.8797" x="554.9559" y="36.5828">:StationType</text><rect fill="#E2E2F0" height="40.9938" rx="2" ry="2" style="stroke:#181818;stroke-width:0.4000000000000001;" width="74.0797" x="549.3559" y="588.0109"/><text fill="#000000" font-family="sans-serif" font-size="11.2" lengthAdjust="spacing" textLength="57.8977" x="557.4469" y="605.6969">stationType</text><text fill="#000000" font-family="sans-serif" font-size="11.2" lengthAdjust="spacing" textLength="62.8797" x="554.9559" y="620.5938">:StationType</text><rect fill="#E2E2F0" height="40.9938" rx="2" ry="2" style="stroke:#181818;stroke-width:0.4000000000000001;" width="65.3461" x="631.4355" y="4"/><text fill="#000000" font-family="sans-serif" font-size="11.2" lengthAdjust="spacing" textLength="54.1461" x="637.0355" y="21.6859">closestCity</text><text fill="#000000" font-family="sans-serif" font-size="11.2" lengthAdjust="spacing" textLength="22.4" x="652.9086" y="36.5828">:City</text><rect fill="#E2E2F0" height="40.9938" rx="2" ry="2" style="stroke:#181818;stroke-width:0.4000000000000001;" width="65.3461" x="631.4355" y="588.0109"/><text fill="#000000" font-family="sans-serif" font-size="11.2" lengthAdjust="spacing" textLength="54.1461" x="637.0355" y="605.6969">closestCity</text><text fill="#000000" font-family="sans-serif" font-size="11.2" lengthAdjust="spacing" textLength="22.4" x="652.9086" y="620.5938">:City</text><rect fill="#E2E2F0" height="40.9938" rx="2" ry="2" style="stroke:#181818;stroke-width:0.4000000000000001;" width="49.1805" x="704.7816" y="588.0109"/><text fill="#000000" font-family="sans-serif" font-size="11.2" lengthAdjust="spacing" textLength="32.9984" x="712.8727" y="605.6969">station</text><text fill="#000000" font-family="sans-serif" font-size="11.2" lengthAdjust="spacing" textLength="37.9805" x="710.3816" y="620.5938">:Station</text><rect fill="#FFFFFF" height="501.9844" style="stroke:#181818;stroke-width:0.8000000000000002;" width="8" x="245.0215" y="72.4266"/><rect fill="#FFFFFF" height="25.0328" style="stroke:#181818;stroke-width:0.8000000000000002;" width="8" x="384.7246" y="118.4922"/><rect fill="#FFFFFF" height="25.0328" style="stroke:#181818;stroke-width:0.8000000000000002;" width="8" x="384.7246" y="168.5578"/><rect fill="#FFFFFF" height="25.0328" style="stroke:#181818;stroke-width:0.8000000000000002;" width="8" x="384.7246" y="218.6234"/><rect fill="#FFFFFF" height="25.0328" style="stroke:#181818;stroke-width:0.8000000000000002;" width="8" x="465.2484" y="268.6891"/><rect fill="#FFFFFF" height="25.0328" style="stroke:#181818;stroke-width:0.8000000000000002;" width="8" x="465.2484" y="518.7453"/><rect fill="#FFFFFF" height="25.0328" style="stroke:#181818;stroke-width:0.8000000000000002;" width="8" x="514.327" y="418.8859"/><rect fill="#FFFFFF" height="25.0328" style="stroke:#181818;stroke-width:0.8000000000000002;" width="8" x="582.3957" y="368.8203"/><rect fill="#FFFFFF" height="25.0328" style="stroke:#181818;stroke-width:0.8000000000000002;" width="8" x="660.1086" y="318.7547"/><polygon fill="#181818" points="235.4215,69.2266,243.4215,72.4266,235.4215,75.6266,238.6215,72.4266" style="stroke:#181818;stroke-width:0.8000000000000002;"/><line style="stroke:#181818;stroke-width:0.8000000000000002;" x1="0" x2="240.2215" y1="72.4266" y2="72.4266"/><text fill="#000000" font-family="sans-serif" font-size="10.4" font-weight="bold" lengthAdjust="spacing" textLength="11.568" x="5.6" y="68.2164">35</text><text fill="#000000" font-family="sans-serif" font-size="10.4" lengthAdjust="spacing" textLength="215.0535" x="20.368" y="68.2164">buildStation(stationType, position, centerPoint)</text><path d="M172.2301,84.4266 L272.3566,84.4266 L272.3566,91.8594 L264.3566,99.8594 L172.2301,99.8594 L172.2301,84.4266 " fill="#EEEEEE" style="stroke:#000000;stroke-width:1.2000000000000002;"/><rect fill="none" height="465.7516" style="stroke:#000000;stroke-width:1.2000000000000002;" width="589.732" x="172.2301" y="84.4266"/><text fill="#000000" font-family="sans-serif" font-size="10.4" font-weight="bold" lengthAdjust="spacing" textLength="64.1266" x="184.2301" y="96.4492">Build Station</text><polygon fill="#181818" points="375.1246,115.2922,383.1246,118.4922,375.1246,121.6922,378.3246,118.4922" style="stroke:#181818;stroke-width:0.8000000000000002;"/><line style="stroke:#181818;stroke-width:0.8000000000000002;" x1="253.0215" x2="379.9246" y1="118.4922" y2="118.4922"/><text fill="#000000" font-family="sans-serif" font-size="10.4" font-weight="bold" lengthAdjust="spacing" textLength="20.2414" x="258.6215" y="114.282">35.1</text><text fill="#000000" font-family="sans-serif" font-size="10.4" lengthAdjust="spacing" textLength="60.6988" x="282.0629" y="114.282">getInstance()</text><polygon fill="#181818" points="261.8215,140.325,253.8215,143.525,261.8215,146.725,258.6215,143.525" style="stroke:#181818;stroke-width:0.8000000000000002;"/><line style="stroke:#181818;stroke-width:0.8000000000000002;stroke-dasharray:2.0,2.0;" x1="257.0215" x2="387.9246" y1="143.525" y2="143.525"/><text fill="#000000" font-family="sans-serif" font-size="10.4" font-weight="bold" lengthAdjust="spacing" textLength="20.2414" x="266.6215" y="139.3148">35.2</text><text fill="#000000" font-family="sans-serif" font-size="10.4" lengthAdjust="spacing" textLength="74.5773" x="290.0629" y="139.3148">sessionInstance</text><polygon fill="#181818" points="375.1246,165.3578,383.1246,168.5578,375.1246,171.7578,378.3246,168.5578" style="stroke:#181818;stroke-width:0.8000000000000002;"/><line style="stroke:#181818;stroke-width:0.8000000000000002;" x1="253.0215" x2="379.9246" y1="168.5578" y2="168.5578"/><text fill="#000000" font-family="sans-serif" font-size="10.4" font-weight="bold" lengthAdjust="spacing" textLength="20.2414" x="258.6215" y="164.3477">35.3</text><text fill="#000000" font-family="sans-serif" font-size="10.4" lengthAdjust="spacing" textLength="76.2938" x="282.0629" y="164.3477">getCurrentMap()</text><polygon fill="#181818" points="261.8215,190.3906,253.8215,193.5906,261.8215,196.7906,258.6215,193.5906" style="stroke:#181818;stroke-width:0.8000000000000002;"/><line style="stroke:#181818;stroke-width:0.8000000000000002;stroke-dasharray:2.0,2.0;" x1="257.0215" x2="387.9246" y1="193.5906" y2="193.5906"/><text fill="#000000" font-family="sans-serif" font-size="10.4" font-weight="bold" lengthAdjust="spacing" textLength="20.2414" x="266.6215" y="189.3805">35.4</text><text fill="#000000" font-family="sans-serif" font-size="10.4" lengthAdjust="spacing" textLength="52.5992" x="290.0629" y="189.3805">currentMap</text><polygon fill="#181818" points="375.1246,215.4234,383.1246,218.6234,375.1246,221.8234,378.3246,218.6234" style="stroke:#181818;stroke-width:0.8000000000000002;"/><line style="stroke:#181818;stroke-width:0.8000000000000002;" x1="253.0215" x2="379.9246" y1="218.6234" y2="218.6234"/><text fill="#000000" font-family="sans-serif" font-size="10.4" font-weight="bold" lengthAdjust="spacing" textLength="20.2414" x="258.6215" y="214.4133">35.5</text><text fill="#000000" font-family="sans-serif" font-size="10.4" lengthAdjust="spacing" textLength="93.0617" x="282.0629" y="214.4133">getCurrentSession()</text><polygon fill="#181818" points="261.8215,240.4563,253.8215,243.6563,261.8215,246.8563,258.6215,243.6563" style="stroke:#181818;stroke-width:0.8000000000000002;"/><line style="stroke:#181818;stroke-width:0.8000000000000002;stroke-dasharray:2.0,2.0;" x1="257.0215" x2="387.9246" y1="243.6563" y2="243.6563"/><text fill="#000000" font-family="sans-serif" font-size="10.4" font-weight="bold" lengthAdjust="spacing" textLength="20.2414" x="266.6215" y="239.4461">35.6</text><text fill="#000000" font-family="sans-serif" font-size="10.4" lengthAdjust="spacing" textLength="28.3258" x="290.0629" y="239.4461">player</text><polygon fill="#181818" points="455.6484,265.4891,463.6484,268.6891,455.6484,271.8891,458.8484,268.6891" style="stroke:#181818;stroke-width:0.8000000000000002;"/><line style="stroke:#181818;stroke-width:0.8000000000000002;" x1="253.0215" x2="460.4484" y1="268.6891" y2="268.6891"/><text fill="#000000" font-family="sans-serif" font-size="10.4" font-weight="bold" lengthAdjust="spacing" textLength="20.2414" x="258.6215" y="264.4789">35.7</text><text fill="#000000" font-family="sans-serif" font-size="10.4" lengthAdjust="spacing" textLength="109.8195" x="282.0629" y="264.4789">getClosestCity(position)</text><polygon fill="#181818" points="261.8215,290.5219,253.8215,293.7219,261.8215,296.9219,258.6215,293.7219" style="stroke:#181818;stroke-width:0.8000000000000002;"/><line style="stroke:#181818;stroke-width:0.8000000000000002;stroke-dasharray:2.0,2.0;" x1="257.0215" x2="468.4484" y1="293.7219" y2="293.7219"/><text fill="#000000" font-family="sans-serif" font-size="10.4" font-weight="bold" lengthAdjust="spacing" textLength="20.2414" x="266.6215" y="289.5117">35.8</text><text fill="#000000" font-family="sans-serif" font-size="10.4" lengthAdjust="spacing" textLength="50.2785" x="290.0629" y="289.5117">closestCity</text><polygon fill="#181818" points="650.5086,315.5547,658.5086,318.7547,650.5086,321.9547,653.7086,318.7547" style="stroke:#181818;stroke-width:0.8000000000000002;"/><line style="stroke:#181818;stroke-width:0.8000000000000002;" x1="253.0215" x2="655.3086" y1="318.7547" y2="318.7547"/><text fill="#000000" font-family="sans-serif" font-size="10.4" font-weight="bold" lengthAdjust="spacing" textLength="20.2414" x="258.6215" y="314.5445">35.9</text><text fill="#000000" font-family="sans-serif" font-size="10.4" lengthAdjust="spacing" textLength="59.5258" x="282.0629" y="314.5445">getNameID()</text><polygon fill="#181818" points="261.8215,340.5875,253.8215,343.7875,261.8215,346.9875,258.6215,343.7875" style="stroke:#181818;stroke-width:0.8000000000000002;"/><line style="stroke:#181818;stroke-width:0.8000000000000002;stroke-dasharray:2.0,2.0;" x1="257.0215" x2="663.3086" y1="343.7875" y2="343.7875"/><text fill="#000000" font-family="sans-serif" font-size="10.4" font-weight="bold" lengthAdjust="spacing" textLength="26.0254" x="266.6215" y="339.5773">35.10</text><text fill="#000000" font-family="sans-serif" font-size="10.4" lengthAdjust="spacing" textLength="43.3418" x="295.8469" y="339.5773">cityName</text><polygon fill="#181818" points="572.7957,365.6203,580.7957,368.8203,572.7957,372.0203,575.9957,368.8203" style="stroke:#181818;stroke-width:0.8000000000000002;"/><line style="stroke:#181818;stroke-width:0.8000000000000002;" x1="253.0215" x2="577.5957" y1="368.8203" y2="368.8203"/><text fill="#000000" font-family="sans-serif" font-size="10.4" font-weight="bold" lengthAdjust="spacing" textLength="26.0254" x="258.6215" y="364.6102">35.11</text><text fill="#000000" font-family="sans-serif" font-size="10.4" lengthAdjust="spacing" textLength="42.768" x="287.8469" y="364.6102">getCost()</text><polygon fill="#181818" points="261.8215,390.6531,253.8215,393.8531,261.8215,397.0531,258.6215,393.8531" style="stroke:#181818;stroke-width:0.8000000000000002;"/><line style="stroke:#181818;stroke-width:0.8000000000000002;stroke-dasharray:2.0,2.0;" x1="257.0215" x2="585.5957" y1="393.8531" y2="393.8531"/><text fill="#000000" font-family="sans-serif" font-size="10.4" font-weight="bold" lengthAdjust="spacing" textLength="26.0254" x="266.6215" y="389.643">35.12</text><text fill="#000000" font-family="sans-serif" font-size="10.4" lengthAdjust="spacing" textLength="19.0734" x="295.8469" y="389.643">cost</text><polygon fill="#181818" points="504.727,415.6859,512.727,418.8859,504.727,422.0859,507.927,418.8859" style="stroke:#181818;stroke-width:0.8000000000000002;"/><line style="stroke:#181818;stroke-width:0.8000000000000002;" x1="253.0215" x2="509.527" y1="418.8859" y2="418.8859"/><text fill="#000000" font-family="sans-serif" font-size="10.4" font-weight="bold" lengthAdjust="spacing" textLength="26.0254" x="258.6215" y="414.6758">35.13</text><text fill="#000000" font-family="sans-serif" font-size="10.4" lengthAdjust="spacing" textLength="114.4508" x="287.8469" y="414.6758">deductFromBudget(cost)</text><polygon fill="#181818" points="261.8215,440.7188,253.8215,443.9188,261.8215,447.1188,258.6215,443.9188" style="stroke:#181818;stroke-width:0.8000000000000002;"/><line style="stroke:#181818;stroke-width:0.8000000000000002;stroke-dasharray:2.0,2.0;" x1="257.0215" x2="517.527" y1="443.9188" y2="443.9188"/><text fill="#000000" font-family="sans-serif" font-size="10.4" font-weight="bold" lengthAdjust="spacing" textLength="26.0254" x="266.6215" y="439.7086">35.14</text><text fill="#000000" font-family="sans-serif" font-size="10.4" lengthAdjust="spacing" textLength="37.568" x="295.8469" y="439.7086">success</text><polygon fill="#181818" points="695.1816,465.7516,703.1816,468.9516,695.1816,472.1516,698.3816,468.9516" style="stroke:#181818;stroke-width:0.8000000000000002;"/><line style="stroke:#181818;stroke-width:0.8000000000000002;" x1="253.0215" x2="699.9816" y1="468.9516" y2="468.9516"/><text fill="#000000" font-family="sans-serif" font-size="10.4" font-weight="bold" lengthAdjust="spacing" textLength="26.0254" x="258.6215" y="464.7414">35.15</text><text fill="#000000" font-family="sans-serif" font-size="10.4" lengthAdjust="spacing" textLength="300.3" x="287.8469" y="464.7414">new Station(cityName + stationType.name, position, stationType)</text><rect fill="#E2E2F0" height="40.9938" rx="2" ry="2" style="stroke:#181818;stroke-width:0.4000000000000001;" width="49.1805" x="704.7816" y="450.3188"/><text fill="#000000" font-family="sans-serif" font-size="11.2" lengthAdjust="spacing" textLength="32.9984" x="712.8727" y="468.0047">station</text><text fill="#000000" font-family="sans-serif" font-size="11.2" lengthAdjust="spacing" textLength="37.9805" x="710.3816" y="482.9016">:Station</text><polygon fill="#181818" points="455.6484,515.5453,463.6484,518.7453,455.6484,521.9453,458.8484,518.7453" style="stroke:#181818;stroke-width:0.8000000000000002;"/><line style="stroke:#181818;stroke-width:0.8000000000000002;" x1="253.0215" x2="460.4484" y1="518.7453" y2="518.7453"/><text fill="#000000" font-family="sans-serif" font-size="10.4" font-weight="bold" lengthAdjust="spacing" textLength="26.0254" x="258.6215" y="514.5352">35.16</text><text fill="#000000" font-family="sans-serif" font-size="10.4" lengthAdjust="spacing" textLength="87.298" x="287.8469" y="514.5352">addStation(station)</text><polygon fill="#181818" points="261.8215,540.5781,253.8215,543.7781,261.8215,546.9781,258.6215,543.7781" style="stroke:#181818;stroke-width:0.8000000000000002;"/><line style="stroke:#181818;stroke-width:0.8000000000000002;stroke-dasharray:2.0,2.0;" x1="257.0215" x2="468.4484" y1="543.7781" y2="543.7781"/><text fill="#000000" font-family="sans-serif" font-size="10.4" font-weight="bold" lengthAdjust="spacing" textLength="26.0254" x="266.6215" y="539.568">35.17</text><text fill="#000000" font-family="sans-serif" font-size="10.4" lengthAdjust="spacing" textLength="37.568" x="295.8469" y="539.568">success</text><polygon fill="#181818" points="8.8,571.2109,0.8,574.4109,8.8,577.6109,5.6,574.4109" style="stroke:#181818;stroke-width:0.8000000000000002;"/><line style="stroke:#181818;stroke-width:0.8000000000000002;stroke-dasharray:2.0,2.0;" x1="4" x2="248.2215" y1="574.4109" y2="574.4109"/><text fill="#000000" font-family="sans-serif" font-size="10.4" font-weight="bold" lengthAdjust="spacing" textLength="11.568" x="13.6" y="570.2008">36</text><text fill="#000000" font-family="sans-serif" font-size="10.4" lengthAdjust="spacing" textLength="37.568" x="28.368" y="570.2008">success</text><!--SRC=[fLHVQzim47_tfpZwb7HDOOpjmOo1csKGQ3jJ-oKm6AgiUQAs92Hv9Tz-9ybsvCGqtUgNnEVx_T7fximJ5ufeqe8Yz8dKhB3xXe5cr19HDomnOuBvJIhvp4KDlqXZM99Ws7BA5H4MBjB24ikbkEbuKs7IMWghPTCmVG74mBfyk9q2Y585CmOXFqIQATLmwWdwe4TbUVwps1J5zllz5DmIXQWxedpQNPPFFwk6x9d6ZDp_yKdvRRRRF4ppJF1SxXN3vEBmvX7bBjzCysaZ3JDspUqUyzrFEDostCqI7qXzNb5cfJjAGZehHTS-CWqVFYQhBxuyaCAZArwFM4Jcha19mztR5L0cBDEvvC8kZvYktoU4Mlw7M1OA3lZKMdOA_BL0J-tZxl6oA1_LEOMQsQr0SK7POZccZiJndK3qH75OzKTAmOJR70X7HCLc2SywMtTQOm7mvj_kZOvSvsmDdrzhh-_XjriCZVpVzd0mWgr3tow6JfhnvkOezeJlSRaE97E6Ol294JSXtiazQTdswrnX_135wYuGowEkGyzfJx0ducwEGncaiNFIVj1ZQHU8fH4t9pl1dSY6XPCYeEge_QPbUzDLw6BXw6PSz0igzX52yJXrb69lpPavWf_OwPVFvMKAWZqFgs0nb1NUGRHmhWM6ugqJVLkUwJTI7Q-mVswr5uuv09cemhQ8D-0d7_cyMWqBTI2AUyKjnhy0]--></g></svg>