<svg xmlns="http://www.w3.org/2000/svg" xmlns:xlink="http://www.w3.org/1999/xlink" contentStyleType="text/css" height="918px" preserveAspectRatio="none" style="width:587px;height:918px;background:#FFFFFF;" version="1.1" viewBox="0 0 587 918" width="587px" zoomAndPan="magnify"><title>System Sequence Diagram: US04 - Create a Scenario</title><defs/><g><text fill="#000000" font-family="sans-serif" font-size="14" font-weight="bold" lengthAdjust="spacing" textLength="354.04" x="118.0623" y="30.1074">System Sequence Diagram: US04 - Create a Scenario</text><rect fill="#FFFFFF" height="693.4023" style="stroke:#181818;stroke-width:1.0;" width="10" x="36.2861" y="133.2422"/><rect fill="#FFFFFF" height="31.291" style="stroke:#181818;stroke-width:1.0;" width="10" x="533.8818" y="156.5332"/><rect fill="#FFFFFF" height="31.291" style="stroke:#181818;stroke-width:1.0;" width="10" x="533.8818" y="219.1152"/><rect fill="#FFFFFF" height="57.582" style="stroke:#181818;stroke-width:1.0;" width="10" x="533.8818" y="281.6973"/><rect fill="#FFFFFF" height="31.291" style="stroke:#181818;stroke-width:1.0;" width="10" x="533.8818" y="370.5703"/><rect fill="#FFFFFF" height="31.291" style="stroke:#181818;stroke-width:1.0;" width="10" x="533.8818" y="433.1523"/><rect fill="#FFFFFF" height="38.291" style="stroke:#181818;stroke-width:1.0;" width="10" x="533.8818" y="495.7344"/><rect fill="#FFFFFF" height="57.582" style="stroke:#181818;stroke-width:1.0;" width="10" x="533.8818" y="565.3164"/><rect fill="#FFFFFF" height="38.291" style="stroke:#181818;stroke-width:1.0;" width="10" x="533.8818" y="654.1895"/><rect fill="#FFFFFF" height="31.291" style="stroke:#181818;stroke-width:1.0;" width="10" x="533.8818" y="723.7715"/><rect fill="#FFFFFF" height="31.291" style="stroke:#181818;stroke-width:1.0;" width="10" x="533.8818" y="786.3535"/><rect fill="none" height="207.0371" style="stroke:#000000;stroke-width:1.5;" width="571.1646" x="10" y="296.6973"/><rect fill="none" height="81.873" style="stroke:#000000;stroke-width:1.5;" width="571.1646" x="10" y="580.3164"/><line style="stroke:#181818;stroke-width:0.5;stroke-dasharray:5.0,5.0;" x1="41" x2="41" y1="123.2422" y2="835.6445"/><line style="stroke:#181818;stroke-width:0.5;stroke-dasharray:5.0,5.0;" x1="538.5991" x2="538.5991" y1="123.2422" y2="835.6445"/><text fill="#000000" font-family="sans-serif" font-size="14" lengthAdjust="spacing" textLength="36.5723" x="20" y="119.7285">Editor</text><ellipse cx="41.2861" cy="53.1211" fill="#E3E3E3" rx="8" ry="8" style="stroke:#181818;stroke-width:0.5;"/><path d="M41.2861,61.1211 L41.2861,88.1211 M28.2861,69.1211 L54.2861,69.1211 M41.2861,88.1211 L28.2861,103.1211 M41.2861,88.1211 L54.2861,103.1211 " fill="none" style="stroke:#181818;stroke-width:0.5;"/><text fill="#000000" font-family="sans-serif" font-size="14" lengthAdjust="spacing" textLength="36.5723" x="20" y="849.752">Editor</text><ellipse cx="41.2861" cy="861.7656" fill="#E3E3E3" rx="8" ry="8" style="stroke:#181818;stroke-width:0.5;"/><path d="M41.2861,869.7656 L41.2861,896.7656 M28.2861,877.7656 L54.2861,877.7656 M41.2861,896.7656 L28.2861,911.7656 M41.2861,896.7656 L54.2861,911.7656 " fill="none" style="stroke:#181818;stroke-width:0.5;"/><rect fill="#E3E3E3" height="32.6211" rx="2.5" ry="2.5" style="stroke:#181818;stroke-width:0.5;" width="64.5654" x="506.5991" y="89.6211"/><text fill="#000000" font-family="sans-serif" font-size="14" lengthAdjust="spacing" textLength="50.5654" x="513.5991" y="111.7285">:System</text><rect fill="#E3E3E3" height="32.6211" rx="2.5" ry="2.5" style="stroke:#181818;stroke-width:0.5;" width="64.5654" x="506.5991" y="834.6445"/><text fill="#000000" font-family="sans-serif" font-size="14" lengthAdjust="spacing" textLength="50.5654" x="513.5991" y="856.752">:System</text><rect fill="#FFFFFF" height="693.4023" style="stroke:#181818;stroke-width:1.0;" width="10" x="36.2861" y="133.2422"/><rect fill="#FFFFFF" height="31.291" style="stroke:#181818;stroke-width:1.0;" width="10" x="533.8818" y="156.5332"/><rect fill="#FFFFFF" height="31.291" style="stroke:#181818;stroke-width:1.0;" width="10" x="533.8818" y="219.1152"/><rect fill="#FFFFFF" height="57.582" style="stroke:#181818;stroke-width:1.0;" width="10" x="533.8818" y="281.6973"/><rect fill="#FFFFFF" height="31.291" style="stroke:#181818;stroke-width:1.0;" width="10" x="533.8818" y="370.5703"/><rect fill="#FFFFFF" height="31.291" style="stroke:#181818;stroke-width:1.0;" width="10" x="533.8818" y="433.1523"/><rect fill="#FFFFFF" height="38.291" style="stroke:#181818;stroke-width:1.0;" width="10" x="533.8818" y="495.7344"/><rect fill="#FFFFFF" height="57.582" style="stroke:#181818;stroke-width:1.0;" width="10" x="533.8818" y="565.3164"/><rect fill="#FFFFFF" height="38.291" style="stroke:#181818;stroke-width:1.0;" width="10" x="533.8818" y="654.1895"/><rect fill="#FFFFFF" height="31.291" style="stroke:#181818;stroke-width:1.0;" width="10" x="533.8818" y="723.7715"/><rect fill="#FFFFFF" height="31.291" style="stroke:#181818;stroke-width:1.0;" width="10" x="533.8818" y="786.3535"/><polygon fill="#181818" points="521.8818,152.5332,531.8818,156.5332,521.8818,160.5332,525.8818,156.5332" style="stroke:#181818;stroke-width:1.0;"/><line style="stroke:#181818;stroke-width:1.0;" x1="46.2861" x2="527.8818" y1="156.5332" y2="156.5332"/><text fill="#000000" font-family="sans-serif" font-size="13" font-weight="bold" lengthAdjust="spacing" textLength="7.23" x="53.2861" y="151.2705">1</text><text fill="#000000" font-family="sans-serif" font-size="13" lengthAdjust="spacing" textLength="144.5171" x="64.5161" y="151.2705">asks to create a scenario</text><polygon fill="#181818" points="57.2861,183.8242,47.2861,187.8242,57.2861,191.8242,53.2861,187.8242" style="stroke:#181818;stroke-width:1.0;"/><line style="stroke:#181818;stroke-width:1.0;stroke-dasharray:2.0,2.0;" x1="51.2861" x2="537.8818" y1="187.8242" y2="187.8242"/><text fill="#000000" font-family="sans-serif" font-size="13" font-weight="bold" lengthAdjust="spacing" textLength="7.23" x="63.2861" y="182.5615">2</text><text fill="#000000" font-family="sans-serif" font-size="13" lengthAdjust="spacing" textLength="343.9478" x="74.5161" y="182.5615">requests name and time restrictions (i.e. start and end date)</text><polygon fill="#181818" points="521.8818,215.1152,531.8818,219.1152,521.8818,223.1152,525.8818,219.1152" style="stroke:#181818;stroke-width:1.0;"/><line style="stroke:#181818;stroke-width:1.0;" x1="46.2861" x2="527.8818" y1="219.1152" y2="219.1152"/><text fill="#000000" font-family="sans-serif" font-size="13" font-weight="bold" lengthAdjust="spacing" textLength="7.23" x="53.2861" y="213.8525">3</text><text fill="#000000" font-family="sans-serif" font-size="13" lengthAdjust="spacing" textLength="121.418" x="64.5161" y="213.8525">types requested data</text><polygon fill="#181818" points="57.2861,246.4063,47.2861,250.4063,57.2861,254.4063,53.2861,250.4063" style="stroke:#181818;stroke-width:1.0;"/><line style="stroke:#181818;stroke-width:1.0;stroke-dasharray:2.0,2.0;" x1="51.2861" x2="537.8818" y1="250.4063" y2="250.4063"/><text fill="#000000" font-family="sans-serif" font-size="13" font-weight="bold" lengthAdjust="spacing" textLength="7.23" x="63.2861" y="245.1436">4</text><text fill="#000000" font-family="sans-serif" font-size="13" lengthAdjust="spacing" textLength="168.3652" x="74.5161" y="245.1436">requests the historical events</text><polygon fill="#181818" points="521.8818,277.6973,531.8818,281.6973,521.8818,285.6973,525.8818,281.6973" style="stroke:#181818;stroke-width:1.0;"/><line style="stroke:#181818;stroke-width:1.0;" x1="46.2861" x2="527.8818" y1="281.6973" y2="281.6973"/><text fill="#000000" font-family="sans-serif" font-size="13" font-weight="bold" lengthAdjust="spacing" textLength="7.23" x="53.2861" y="276.4346">5</text><text fill="#000000" font-family="sans-serif" font-size="13" lengthAdjust="spacing" textLength="149.5762" x="64.5161" y="276.4346">types the historical events</text><path d="M10,296.6973 L82.4346,296.6973 L82.4346,305.9883 L72.4346,315.9883 L10,315.9883 L10,296.6973 " fill="#EEEEEE" style="stroke:#000000;stroke-width:1.5;"/><rect fill="none" height="207.0371" style="stroke:#000000;stroke-width:1.5;" width="571.1646" x="10" y="296.6973"/><text fill="#000000" font-family="sans-serif" font-size="13" font-weight="bold" lengthAdjust="spacing" textLength="27.4346" x="25" y="311.7256">loop</text><text fill="#000000" font-family="sans-serif" font-size="11" font-weight="bold" lengthAdjust="spacing" textLength="185.1953" x="97.4346" y="310.5674">[while port exist (mixed industries)]</text><polygon fill="#181818" points="57.2861,335.2793,47.2861,339.2793,57.2861,343.2793,53.2861,339.2793" style="stroke:#181818;stroke-width:1.0;"/><line style="stroke:#181818;stroke-width:1.0;stroke-dasharray:2.0,2.0;" x1="51.2861" x2="537.8818" y1="339.2793" y2="339.2793"/><text fill="#000000" font-family="sans-serif" font-size="13" font-weight="bold" lengthAdjust="spacing" textLength="7.23" x="63.2861" y="334.0166">6</text><text fill="#000000" font-family="sans-serif" font-size="13" lengthAdjust="spacing" textLength="380.085" x="74.5161" y="334.0166">shows a list of cargoes and asks to select the ones the port import</text><polygon fill="#181818" points="521.8818,366.5703,531.8818,370.5703,521.8818,374.5703,525.8818,370.5703" style="stroke:#181818;stroke-width:1.0;"/><line style="stroke:#181818;stroke-width:1.0;" x1="46.2861" x2="527.8818" y1="370.5703" y2="370.5703"/><text fill="#000000" font-family="sans-serif" font-size="13" font-weight="bold" lengthAdjust="spacing" textLength="7.23" x="53.2861" y="365.3076">7</text><text fill="#000000" font-family="sans-serif" font-size="13" lengthAdjust="spacing" textLength="199.4307" x="64.5161" y="365.3076">selects the cargoes the port import</text><polygon fill="#181818" points="57.2861,397.8613,47.2861,401.8613,57.2861,405.8613,53.2861,401.8613" style="stroke:#181818;stroke-width:1.0;"/><line style="stroke:#181818;stroke-width:1.0;stroke-dasharray:2.0,2.0;" x1="51.2861" x2="537.8818" y1="401.8613" y2="401.8613"/><text fill="#000000" font-family="sans-serif" font-size="13" font-weight="bold" lengthAdjust="spacing" textLength="7.23" x="63.2861" y="396.5986">8</text><text fill="#000000" font-family="sans-serif" font-size="13" lengthAdjust="spacing" textLength="380.0977" x="74.5161" y="396.5986">shows a list of cargoes and asks to select the ones the port export</text><polygon fill="#181818" points="521.8818,429.1523,531.8818,433.1523,521.8818,437.1523,525.8818,433.1523" style="stroke:#181818;stroke-width:1.0;"/><line style="stroke:#181818;stroke-width:1.0;" x1="46.2861" x2="527.8818" y1="433.1523" y2="433.1523"/><text fill="#000000" font-family="sans-serif" font-size="13" font-weight="bold" lengthAdjust="spacing" textLength="7.23" x="53.2861" y="427.8896">9</text><text fill="#000000" font-family="sans-serif" font-size="13" lengthAdjust="spacing" textLength="199.4434" x="64.5161" y="427.8896">selects the cargoes the port export</text><polygon fill="#181818" points="57.2861,460.4434,47.2861,464.4434,57.2861,468.4434,53.2861,464.4434" style="stroke:#181818;stroke-width:1.0;"/><line style="stroke:#181818;stroke-width:1.0;stroke-dasharray:2.0,2.0;" x1="51.2861" x2="537.8818" y1="464.4434" y2="464.4434"/><text fill="#000000" font-family="sans-serif" font-size="13" font-weight="bold" lengthAdjust="spacing" textLength="14.46" x="63.2861" y="459.1807">10</text><text fill="#000000" font-family="sans-serif" font-size="13" lengthAdjust="spacing" textLength="398.8677" x="81.7461" y="459.1807">shows a list of cargoes and asks to select the ones the port transform</text><polygon fill="#181818" points="521.8818,491.7344,531.8818,495.7344,521.8818,499.7344,525.8818,495.7344" style="stroke:#181818;stroke-width:1.0;"/><line style="stroke:#181818;stroke-width:1.0;" x1="46.2861" x2="527.8818" y1="495.7344" y2="495.7344"/><text fill="#000000" font-family="sans-serif" font-size="13" font-weight="bold" lengthAdjust="spacing" textLength="14.46" x="53.2861" y="490.4717">11</text><text fill="#000000" font-family="sans-serif" font-size="13" lengthAdjust="spacing" textLength="218.2134" x="71.7461" y="490.4717">selects the cargoes the port transform</text><polygon fill="#181818" points="57.2861,530.0254,47.2861,534.0254,57.2861,538.0254,53.2861,534.0254" style="stroke:#181818;stroke-width:1.0;"/><line style="stroke:#181818;stroke-width:1.0;stroke-dasharray:2.0,2.0;" x1="51.2861" x2="537.8818" y1="534.0254" y2="534.0254"/><text fill="#000000" font-family="sans-serif" font-size="13" font-weight="bold" lengthAdjust="spacing" textLength="14.46" x="63.2861" y="528.7627">12</text><text fill="#000000" font-family="sans-serif" font-size="13" lengthAdjust="spacing" textLength="445.1357" x="81.7461" y="528.7627">shows a list of industries and asks to select the ones available in the scenario</text><polygon fill="#181818" points="521.8818,561.3164,531.8818,565.3164,521.8818,569.3164,525.8818,565.3164" style="stroke:#181818;stroke-width:1.0;"/><line style="stroke:#181818;stroke-width:1.0;" x1="46.2861" x2="527.8818" y1="565.3164" y2="565.3164"/><text fill="#000000" font-family="sans-serif" font-size="13" font-weight="bold" lengthAdjust="spacing" textLength="14.46" x="53.2861" y="560.0537">13</text><text fill="#000000" font-family="sans-serif" font-size="13" lengthAdjust="spacing" textLength="264.4814" x="71.7461" y="560.0537">selects the available industries in the scenario</text><path d="M10,580.3164 L82.4346,580.3164 L82.4346,589.6074 L72.4346,599.6074 L10,599.6074 L10,580.3164 " fill="#EEEEEE" style="stroke:#000000;stroke-width:1.5;"/><rect fill="none" height="81.873" style="stroke:#000000;stroke-width:1.5;" width="571.1646" x="10" y="580.3164"/><text fill="#000000" font-family="sans-serif" font-size="13" font-weight="bold" lengthAdjust="spacing" textLength="27.4346" x="25" y="595.3447">loop</text><text fill="#000000" font-family="sans-serif" font-size="11" font-weight="bold" lengthAdjust="spacing" textLength="168.6953" x="97.4346" y="594.1865">[while generating industry exist]</text><polygon fill="#181818" points="57.2861,618.8984,47.2861,622.8984,57.2861,626.8984,53.2861,622.8984" style="stroke:#181818;stroke-width:1.0;"/><line style="stroke:#181818;stroke-width:1.0;stroke-dasharray:2.0,2.0;" x1="51.2861" x2="537.8818" y1="622.8984" y2="622.8984"/><text fill="#000000" font-family="sans-serif" font-size="13" font-weight="bold" lengthAdjust="spacing" textLength="14.46" x="63.2861" y="617.6357">14</text><text fill="#000000" font-family="sans-serif" font-size="13" lengthAdjust="spacing" textLength="282.5532" x="81.7461" y="617.6357">requests the industry generating frequency factor</text><polygon fill="#181818" points="521.8818,650.1895,531.8818,654.1895,521.8818,658.1895,525.8818,654.1895" style="stroke:#181818;stroke-width:1.0;"/><line style="stroke:#181818;stroke-width:1.0;" x1="46.2861" x2="527.8818" y1="654.1895" y2="654.1895"/><text fill="#000000" font-family="sans-serif" font-size="13" font-weight="bold" lengthAdjust="spacing" textLength="14.46" x="53.2861" y="648.9268">15</text><text fill="#000000" font-family="sans-serif" font-size="13" lengthAdjust="spacing" textLength="203.0615" x="71.7461" y="648.9268">types the generating industry factor</text><polygon fill="#181818" points="57.2861,688.4805,47.2861,692.4805,57.2861,696.4805,53.2861,692.4805" style="stroke:#181818;stroke-width:1.0;"/><line style="stroke:#181818;stroke-width:1.0;stroke-dasharray:2.0,2.0;" x1="51.2861" x2="537.8818" y1="692.4805" y2="692.4805"/><text fill="#000000" font-family="sans-serif" font-size="13" font-weight="bold" lengthAdjust="spacing" textLength="14.46" x="63.2861" y="687.2178">16</text><text fill="#000000" font-family="sans-serif" font-size="13" lengthAdjust="spacing" textLength="398.1567" x="81.7461" y="687.2178">shows a list of locomotive types and asks to select the available ones</text><polygon fill="#181818" points="521.8818,719.7715,531.8818,723.7715,521.8818,727.7715,525.8818,723.7715" style="stroke:#181818;stroke-width:1.0;"/><line style="stroke:#181818;stroke-width:1.0;" x1="46.2861" x2="527.8818" y1="723.7715" y2="723.7715"/><text fill="#000000" font-family="sans-serif" font-size="13" font-weight="bold" lengthAdjust="spacing" textLength="14.46" x="53.2861" y="718.5088">17</text><text fill="#000000" font-family="sans-serif" font-size="13" lengthAdjust="spacing" textLength="217.5024" x="71.7461" y="718.5088">selects the available locomotive types</text><polygon fill="#181818" points="57.2861,751.0625,47.2861,755.0625,57.2861,759.0625,53.2861,755.0625" style="stroke:#181818;stroke-width:1.0;"/><line style="stroke:#181818;stroke-width:1.0;stroke-dasharray:2.0,2.0;" x1="51.2861" x2="537.8818" y1="755.0625" y2="755.0625"/><text fill="#000000" font-family="sans-serif" font-size="13" font-weight="bold" lengthAdjust="spacing" textLength="14.46" x="63.2861" y="749.7998">18</text><text fill="#000000" font-family="sans-serif" font-size="13" lengthAdjust="spacing" textLength="235.5742" x="81.7461" y="749.7998">shows all data and requests confirmation</text><polygon fill="#181818" points="521.8818,782.3535,531.8818,786.3535,521.8818,790.3535,525.8818,786.3535" style="stroke:#181818;stroke-width:1.0;"/><line style="stroke:#181818;stroke-width:1.0;" x1="46.2861" x2="527.8818" y1="786.3535" y2="786.3535"/><text fill="#000000" font-family="sans-serif" font-size="13" font-weight="bold" lengthAdjust="spacing" textLength="14.46" x="53.2861" y="781.0908">19</text><text fill="#000000" font-family="sans-serif" font-size="13" lengthAdjust="spacing" textLength="78.0317" x="71.7461" y="781.0908">confirms data</text><polygon fill="#181818" points="57.2861,813.6445,47.2861,817.6445,57.2861,821.6445,53.2861,817.6445" style="stroke:#181818;stroke-width:1.0;"/><line style="stroke:#181818;stroke-width:1.0;stroke-dasharray:2.0,2.0;" x1="51.2861" x2="537.8818" y1="817.6445" y2="817.6445"/><text fill="#000000" font-family="sans-serif" font-size="13" font-weight="bold" lengthAdjust="spacing" textLength="14.46" x="63.2861" y="812.3818">20</text><text fill="#000000" font-family="sans-serif" font-size="13" lengthAdjust="spacing" textLength="155.3589" x="81.7461" y="812.3818">displays operation success</text><!--SRC=[lPNDafim3CVlF8LcJxk7xFJGKmwzj7s2J1z0QnJmn5ZKCabu-yfy9Pj2agRTCiFW0VIJ_fOboSxw6WDMKB5dKmQk269eA9FfIurcXmLjOki80fc8ld3dFqY9EH-iBs2BJYZBi8dic-gDGfP56zLiqqga2ZRqio5l2BvPBDHq3Jysdpx32hu6maY0i37aCLXMY8aSuEbxRlNv12ZGBpDr6gsnDVe8J-kUt7tlbvsbtIVSO921NlqQLb_6MDPgiXE836PqBgFpP31HHYmCrs2_KjG0NUksg3290Xvr0z7d46sLTajYi0fYB_1iN-aL96hutH-aTwuENZfoJhCEPyAERKqoUgIEWNyHSIm9IYlwrXfqG7loKHuAQPaqot7CDHnAgyUZPjqJEgejF5VsgAAipvkqToGlaumbALBoGJHzBjdp5Wo6WZMUjCbZZeMSdjmkHFP3h9rNMwN7v6D1yuBkdjhJHgzBv4NkXyYYuxso7f5sGV__yc90BriErKSf_Dt1dCZqJiluUgLT2ZqTxQjQSO_MuPjMX_NTstVTwVxQF9Tvpfo2cCFVAjY2F0MCgUSFfBQltvjfVzTt9jiptZRqGwBLQP96m8EbUMf9Sx5Ue6_czTxSEZPSiS9e260XmwT4f5p_W-vp0bw6SBi1NH7cN3TUEXbJvWpxhGqLfh7sXuTnC9K7XrPkfNRO2d3TfPGzI6CCoTB0-WK0]--></g></svg>