<svg xmlns="http://www.w3.org/2000/svg" xmlns:xlink="http://www.w3.org/1999/xlink" contentStyleType="text/css" height="941px" preserveAspectRatio="none" style="width:540px;height:941px;background:#FFFFFF;" version="1.1" viewBox="0 0 540 941" width="540px" zoomAndPan="magnify"><defs/><g><rect fill="#FFFFFF" height="746.9844" style="stroke:#181818;stroke-width:1.0;" width="10" x="36.2861" y="93.6211"/><rect fill="#FFFFFF" height="31.291" style="stroke:#181818;stroke-width:1.0;" width="10" x="487.6138" y="116.9121"/><rect fill="#FFFFFF" height="31.291" style="stroke:#181818;stroke-width:1.0;" width="10" x="487.6138" y="179.4941"/><rect fill="#FFFFFF" height="31.291" style="stroke:#181818;stroke-width:1.0;" width="10" x="487.6138" y="242.0762"/><rect fill="#FFFFFF" height="57.582" style="stroke:#181818;stroke-width:1.0;" width="10" x="487.6138" y="304.6582"/><rect fill="#FFFFFF" height="31.291" style="stroke:#181818;stroke-width:1.0;" width="10" x="487.6138" y="393.5313"/><rect fill="#FFFFFF" height="31.291" style="stroke:#181818;stroke-width:1.0;" width="10" x="487.6138" y="456.1133"/><rect fill="#FFFFFF" height="38.291" style="stroke:#181818;stroke-width:1.0;" width="10" x="487.6138" y="518.6953"/><rect fill="#FFFFFF" height="31.291" style="stroke:#181818;stroke-width:1.0;" width="10" x="487.6138" y="588.2773"/><rect fill="#FFFFFF" height="57.582" style="stroke:#181818;stroke-width:1.0;" width="10" x="487.6138" y="650.8594"/><rect fill="#FFFFFF" height="38.291" style="stroke:#181818;stroke-width:1.0;" width="10" x="487.6138" y="739.7324"/><rect fill="#FFFFFF" height="31.291" style="stroke:#181818;stroke-width:1.0;" width="10" x="487.6138" y="809.3145"/><rect fill="none" height="207.0371" style="stroke:#000000;stroke-width:1.5;" width="524.8965" x="10" y="319.6582"/><rect fill="none" height="81.873" style="stroke:#000000;stroke-width:1.5;" width="524.8965" x="10" y="665.8594"/><line style="stroke:#181818;stroke-width:0.5;stroke-dasharray:5.0,5.0;" x1="41" x2="41" y1="83.6211" y2="858.6055"/><line style="stroke:#181818;stroke-width:0.5;stroke-dasharray:5.0,5.0;" x1="492.3311" x2="492.3311" y1="83.6211" y2="858.6055"/><text fill="#000000" font-family="sans-serif" font-size="14" lengthAdjust="spacing" textLength="36.5723" x="20" y="80.1074">Editor</text><ellipse cx="41.2861" cy="13.5" fill="#E3E3E3" rx="8" ry="8" style="stroke:#181818;stroke-width:0.5;"/><path d="M41.2861,21.5 L41.2861,48.5 M28.2861,29.5 L54.2861,29.5 M41.2861,48.5 L28.2861,63.5 M41.2861,48.5 L54.2861,63.5 " fill="none" style="stroke:#181818;stroke-width:0.5;"/><text fill="#000000" font-family="sans-serif" font-size="14" lengthAdjust="spacing" textLength="36.5723" x="20" y="872.7129">Editor</text><ellipse cx="41.2861" cy="884.7266" fill="#E3E3E3" rx="8" ry="8" style="stroke:#181818;stroke-width:0.5;"/><path d="M41.2861,892.7266 L41.2861,919.7266 M28.2861,900.7266 L54.2861,900.7266 M41.2861,919.7266 L28.2861,934.7266 M41.2861,919.7266 L54.2861,934.7266 " fill="none" style="stroke:#181818;stroke-width:0.5;"/><rect fill="#E3E3E3" height="32.6211" rx="2.5" ry="2.5" style="stroke:#181818;stroke-width:0.5;" width="64.5654" x="460.3311" y="50"/><text fill="#000000" font-family="sans-serif" font-size="14" lengthAdjust="spacing" textLength="50.5654" x="467.3311" y="72.1074">:System</text><rect fill="#E3E3E3" height="32.6211" rx="2.5" ry="2.5" style="stroke:#181818;stroke-width:0.5;" width="64.5654" x="460.3311" y="857.6055"/><text fill="#000000" font-family="sans-serif" font-size="14" lengthAdjust="spacing" textLength="50.5654" x="467.3311" y="879.7129">:System</text><rect fill="#FFFFFF" height="746.9844" style="stroke:#181818;stroke-width:1.0;" width="10" x="36.2861" y="93.6211"/><rect fill="#FFFFFF" height="31.291" style="stroke:#181818;stroke-width:1.0;" width="10" x="487.6138" y="116.9121"/><rect fill="#FFFFFF" height="31.291" style="stroke:#181818;stroke-width:1.0;" width="10" x="487.6138" y="179.4941"/><rect fill="#FFFFFF" height="31.291" style="stroke:#181818;stroke-width:1.0;" width="10" x="487.6138" y="242.0762"/><rect fill="#FFFFFF" height="57.582" style="stroke:#181818;stroke-width:1.0;" width="10" x="487.6138" y="304.6582"/><rect fill="#FFFFFF" height="31.291" style="stroke:#181818;stroke-width:1.0;" width="10" x="487.6138" y="393.5313"/><rect fill="#FFFFFF" height="31.291" style="stroke:#181818;stroke-width:1.0;" width="10" x="487.6138" y="456.1133"/><rect fill="#FFFFFF" height="38.291" style="stroke:#181818;stroke-width:1.0;" width="10" x="487.6138" y="518.6953"/><rect fill="#FFFFFF" height="31.291" style="stroke:#181818;stroke-width:1.0;" width="10" x="487.6138" y="588.2773"/><rect fill="#FFFFFF" height="57.582" style="stroke:#181818;stroke-width:1.0;" width="10" x="487.6138" y="650.8594"/><rect fill="#FFFFFF" height="38.291" style="stroke:#181818;stroke-width:1.0;" width="10" x="487.6138" y="739.7324"/><rect fill="#FFFFFF" height="31.291" style="stroke:#181818;stroke-width:1.0;" width="10" x="487.6138" y="809.3145"/><polygon fill="#181818" points="475.6138,112.9121,485.6138,116.9121,475.6138,120.9121,479.6138,116.9121" style="stroke:#181818;stroke-width:1.0;"/><line style="stroke:#181818;stroke-width:1.0;" x1="46.2861" x2="481.6138" y1="116.9121" y2="116.9121"/><text fill="#000000" font-family="sans-serif" font-size="13" font-weight="bold" lengthAdjust="spacing" textLength="7.23" x="53.2861" y="111.6494">1</text><text fill="#000000" font-family="sans-serif" font-size="13" lengthAdjust="spacing" textLength="144.5171" x="64.5161" y="111.6494">asks to create a scenario</text><polygon fill="#181818" points="57.2861,144.2031,47.2861,148.2031,57.2861,152.2031,53.2861,148.2031" style="stroke:#181818;stroke-width:1.0;"/><line style="stroke:#181818;stroke-width:1.0;stroke-dasharray:2.0,2.0;" x1="51.2861" x2="491.6138" y1="148.2031" y2="148.2031"/><text fill="#000000" font-family="sans-serif" font-size="13" font-weight="bold" lengthAdjust="spacing" textLength="7.23" x="63.2861" y="142.9404">2</text><text fill="#000000" font-family="sans-serif" font-size="13" lengthAdjust="spacing" textLength="304.9414" x="74.5161" y="142.9404">shows a list of available maps and asks to select one</text><polygon fill="#181818" points="475.6138,175.4941,485.6138,179.4941,475.6138,183.4941,479.6138,179.4941" style="stroke:#181818;stroke-width:1.0;"/><line style="stroke:#181818;stroke-width:1.0;" x1="46.2861" x2="481.6138" y1="179.4941" y2="179.4941"/><text fill="#000000" font-family="sans-serif" font-size="13" font-weight="bold" lengthAdjust="spacing" textLength="7.23" x="53.2861" y="174.2314">3</text><text fill="#000000" font-family="sans-serif" font-size="13" lengthAdjust="spacing" textLength="80.2026" x="64.5161" y="174.2314">selects a map</text><polygon fill="#181818" points="57.2861,206.7852,47.2861,210.7852,57.2861,214.7852,53.2861,210.7852" style="stroke:#181818;stroke-width:1.0;"/><line style="stroke:#181818;stroke-width:1.0;stroke-dasharray:2.0,2.0;" x1="51.2861" x2="491.6138" y1="210.7852" y2="210.7852"/><text fill="#000000" font-family="sans-serif" font-size="13" font-weight="bold" lengthAdjust="spacing" textLength="7.23" x="63.2861" y="205.5225">4</text><text fill="#000000" font-family="sans-serif" font-size="13" lengthAdjust="spacing" textLength="198.0151" x="74.5161" y="205.5225">requests name, start and end date</text><polygon fill="#181818" points="475.6138,238.0762,485.6138,242.0762,475.6138,246.0762,479.6138,242.0762" style="stroke:#181818;stroke-width:1.0;"/><line style="stroke:#181818;stroke-width:1.0;" x1="46.2861" x2="481.6138" y1="242.0762" y2="242.0762"/><text fill="#000000" font-family="sans-serif" font-size="13" font-weight="bold" lengthAdjust="spacing" textLength="7.23" x="53.2861" y="236.8135">5</text><text fill="#000000" font-family="sans-serif" font-size="13" lengthAdjust="spacing" textLength="179.2261" x="64.5161" y="236.8135">types name, start and end date</text><polygon fill="#181818" points="57.2861,269.3672,47.2861,273.3672,57.2861,277.3672,53.2861,273.3672" style="stroke:#181818;stroke-width:1.0;"/><line style="stroke:#181818;stroke-width:1.0;stroke-dasharray:2.0,2.0;" x1="51.2861" x2="491.6138" y1="273.3672" y2="273.3672"/><text fill="#000000" font-family="sans-serif" font-size="13" font-weight="bold" lengthAdjust="spacing" textLength="7.23" x="63.2861" y="268.1045">6</text><text fill="#000000" font-family="sans-serif" font-size="13" lengthAdjust="spacing" textLength="398.1567" x="74.5161" y="268.1045">shows a list of locomotive types and asks to select the available ones</text><polygon fill="#181818" points="475.6138,300.6582,485.6138,304.6582,475.6138,308.6582,479.6138,304.6582" style="stroke:#181818;stroke-width:1.0;"/><line style="stroke:#181818;stroke-width:1.0;" x1="46.2861" x2="481.6138" y1="304.6582" y2="304.6582"/><text fill="#000000" font-family="sans-serif" font-size="13" font-weight="bold" lengthAdjust="spacing" textLength="7.23" x="53.2861" y="299.3955">7</text><text fill="#000000" font-family="sans-serif" font-size="13" lengthAdjust="spacing" textLength="217.5024" x="64.5161" y="299.3955">selects the available locomotive types</text><path d="M10,319.6582 L82.4346,319.6582 L82.4346,328.9492 L72.4346,338.9492 L10,338.9492 L10,319.6582 " fill="#EEEEEE" style="stroke:#000000;stroke-width:1.5;"/><rect fill="none" height="207.0371" style="stroke:#000000;stroke-width:1.5;" width="524.8965" x="10" y="319.6582"/><text fill="#000000" font-family="sans-serif" font-size="13" font-weight="bold" lengthAdjust="spacing" textLength="27.4346" x="25" y="334.6865">loop</text><text fill="#000000" font-family="sans-serif" font-size="11" font-weight="bold" lengthAdjust="spacing" textLength="87.3984" x="97.4346" y="333.5283">[while port exist]</text><polygon fill="#181818" points="57.2861,358.2402,47.2861,362.2402,57.2861,366.2402,53.2861,362.2402" style="stroke:#181818;stroke-width:1.0;"/><line style="stroke:#181818;stroke-width:1.0;stroke-dasharray:2.0,2.0;" x1="51.2861" x2="491.6138" y1="362.2402" y2="362.2402"/><text fill="#000000" font-family="sans-serif" font-size="13" font-weight="bold" lengthAdjust="spacing" textLength="7.23" x="63.2861" y="356.9775">8</text><text fill="#000000" font-family="sans-serif" font-size="13" lengthAdjust="spacing" textLength="380.085" x="74.5161" y="356.9775">shows a list of cargoes and asks to select the ones the port import</text><polygon fill="#181818" points="475.6138,389.5313,485.6138,393.5313,475.6138,397.5313,479.6138,393.5313" style="stroke:#181818;stroke-width:1.0;"/><line style="stroke:#181818;stroke-width:1.0;" x1="46.2861" x2="481.6138" y1="393.5313" y2="393.5313"/><text fill="#000000" font-family="sans-serif" font-size="13" font-weight="bold" lengthAdjust="spacing" textLength="7.23" x="53.2861" y="388.2686">9</text><text fill="#000000" font-family="sans-serif" font-size="13" lengthAdjust="spacing" textLength="199.4307" x="64.5161" y="388.2686">selects the cargoes the port import</text><polygon fill="#181818" points="57.2861,420.8223,47.2861,424.8223,57.2861,428.8223,53.2861,424.8223" style="stroke:#181818;stroke-width:1.0;"/><line style="stroke:#181818;stroke-width:1.0;stroke-dasharray:2.0,2.0;" x1="51.2861" x2="491.6138" y1="424.8223" y2="424.8223"/><text fill="#000000" font-family="sans-serif" font-size="13" font-weight="bold" lengthAdjust="spacing" textLength="14.46" x="63.2861" y="419.5596">10</text><text fill="#000000" font-family="sans-serif" font-size="13" lengthAdjust="spacing" textLength="380.0977" x="81.7461" y="419.5596">shows a list of cargoes and asks to select the ones the port export</text><polygon fill="#181818" points="475.6138,452.1133,485.6138,456.1133,475.6138,460.1133,479.6138,456.1133" style="stroke:#181818;stroke-width:1.0;"/><line style="stroke:#181818;stroke-width:1.0;" x1="46.2861" x2="481.6138" y1="456.1133" y2="456.1133"/><text fill="#000000" font-family="sans-serif" font-size="13" font-weight="bold" lengthAdjust="spacing" textLength="14.46" x="53.2861" y="450.8506">11</text><text fill="#000000" font-family="sans-serif" font-size="13" lengthAdjust="spacing" textLength="199.4434" x="71.7461" y="450.8506">selects the cargoes the port export</text><polygon fill="#181818" points="57.2861,483.4043,47.2861,487.4043,57.2861,491.4043,53.2861,487.4043" style="stroke:#181818;stroke-width:1.0;"/><line style="stroke:#181818;stroke-width:1.0;stroke-dasharray:2.0,2.0;" x1="51.2861" x2="491.6138" y1="487.4043" y2="487.4043"/><text fill="#000000" font-family="sans-serif" font-size="13" font-weight="bold" lengthAdjust="spacing" textLength="14.46" x="63.2861" y="482.1416">12</text><text fill="#000000" font-family="sans-serif" font-size="13" lengthAdjust="spacing" textLength="398.8677" x="81.7461" y="482.1416">shows a list of cargoes and asks to select the ones the port transform</text><polygon fill="#181818" points="475.6138,514.6953,485.6138,518.6953,475.6138,522.6953,479.6138,518.6953" style="stroke:#181818;stroke-width:1.0;"/><line style="stroke:#181818;stroke-width:1.0;" x1="46.2861" x2="481.6138" y1="518.6953" y2="518.6953"/><text fill="#000000" font-family="sans-serif" font-size="13" font-weight="bold" lengthAdjust="spacing" textLength="14.46" x="53.2861" y="513.4326">13</text><text fill="#000000" font-family="sans-serif" font-size="13" lengthAdjust="spacing" textLength="218.2134" x="71.7461" y="513.4326">selects the cargoes the port transform</text><polygon fill="#181818" points="57.2861,552.9863,47.2861,556.9863,57.2861,560.9863,53.2861,556.9863" style="stroke:#181818;stroke-width:1.0;"/><line style="stroke:#181818;stroke-width:1.0;stroke-dasharray:2.0,2.0;" x1="51.2861" x2="491.6138" y1="556.9863" y2="556.9863"/><text fill="#000000" font-family="sans-serif" font-size="13" font-weight="bold" lengthAdjust="spacing" textLength="14.46" x="63.2861" y="551.7236">14</text><text fill="#000000" font-family="sans-serif" font-size="13" lengthAdjust="spacing" textLength="168.3652" x="81.7461" y="551.7236">requests the historical events</text><polygon fill="#181818" points="475.6138,584.2773,485.6138,588.2773,475.6138,592.2773,479.6138,588.2773" style="stroke:#181818;stroke-width:1.0;"/><line style="stroke:#181818;stroke-width:1.0;" x1="46.2861" x2="481.6138" y1="588.2773" y2="588.2773"/><text fill="#000000" font-family="sans-serif" font-size="13" font-weight="bold" lengthAdjust="spacing" textLength="14.46" x="53.2861" y="583.0146">15</text><text fill="#000000" font-family="sans-serif" font-size="13" lengthAdjust="spacing" textLength="149.5762" x="71.7461" y="583.0146">types the historical events</text><polygon fill="#181818" points="57.2861,615.5684,47.2861,619.5684,57.2861,623.5684,53.2861,619.5684" style="stroke:#181818;stroke-width:1.0;"/><line style="stroke:#181818;stroke-width:1.0;stroke-dasharray:2.0,2.0;" x1="51.2861" x2="491.6138" y1="619.5684" y2="619.5684"/><text fill="#000000" font-family="sans-serif" font-size="13" font-weight="bold" lengthAdjust="spacing" textLength="14.46" x="63.2861" y="614.3057">16</text><text fill="#000000" font-family="sans-serif" font-size="13" lengthAdjust="spacing" textLength="356.9731" x="81.7461" y="614.3057">shows a list of industries and asks to select the ones available</text><polygon fill="#181818" points="475.6138,646.8594,485.6138,650.8594,475.6138,654.8594,479.6138,650.8594" style="stroke:#181818;stroke-width:1.0;"/><line style="stroke:#181818;stroke-width:1.0;" x1="46.2861" x2="481.6138" y1="650.8594" y2="650.8594"/><text fill="#000000" font-family="sans-serif" font-size="13" font-weight="bold" lengthAdjust="spacing" textLength="14.46" x="53.2861" y="645.5967">17</text><text fill="#000000" font-family="sans-serif" font-size="13" lengthAdjust="spacing" textLength="176.3188" x="71.7461" y="645.5967">selects the available industries</text><path d="M10,665.8594 L82.4346,665.8594 L82.4346,675.1504 L72.4346,685.1504 L10,685.1504 L10,665.8594 " fill="#EEEEEE" style="stroke:#000000;stroke-width:1.5;"/><rect fill="none" height="81.873" style="stroke:#000000;stroke-width:1.5;" width="524.8965" x="10" y="665.8594"/><text fill="#000000" font-family="sans-serif" font-size="13" font-weight="bold" lengthAdjust="spacing" textLength="27.4346" x="25" y="680.8877">loop</text><text fill="#000000" font-family="sans-serif" font-size="11" font-weight="bold" lengthAdjust="spacing" textLength="218.2275" x="97.4346" y="679.7295">[while available generating industry exist]</text><polygon fill="#181818" points="57.2861,704.4414,47.2861,708.4414,57.2861,712.4414,53.2861,708.4414" style="stroke:#181818;stroke-width:1.0;"/><line style="stroke:#181818;stroke-width:1.0;stroke-dasharray:2.0,2.0;" x1="51.2861" x2="491.6138" y1="708.4414" y2="708.4414"/><text fill="#000000" font-family="sans-serif" font-size="13" font-weight="bold" lengthAdjust="spacing" textLength="14.46" x="63.2861" y="703.1787">18</text><text fill="#000000" font-family="sans-serif" font-size="13" lengthAdjust="spacing" textLength="221.8506" x="81.7461" y="703.1787">requests the generating industry factor</text><polygon fill="#181818" points="475.6138,735.7324,485.6138,739.7324,475.6138,743.7324,479.6138,739.7324" style="stroke:#181818;stroke-width:1.0;"/><line style="stroke:#181818;stroke-width:1.0;" x1="46.2861" x2="481.6138" y1="739.7324" y2="739.7324"/><text fill="#000000" font-family="sans-serif" font-size="13" font-weight="bold" lengthAdjust="spacing" textLength="14.46" x="53.2861" y="734.4697">19</text><text fill="#000000" font-family="sans-serif" font-size="13" lengthAdjust="spacing" textLength="203.0615" x="71.7461" y="734.4697">types the generating industry factor</text><polygon fill="#181818" points="57.2861,774.0234,47.2861,778.0234,57.2861,782.0234,53.2861,778.0234" style="stroke:#181818;stroke-width:1.0;"/><line style="stroke:#181818;stroke-width:1.0;stroke-dasharray:2.0,2.0;" x1="51.2861" x2="491.6138" y1="778.0234" y2="778.0234"/><text fill="#000000" font-family="sans-serif" font-size="13" font-weight="bold" lengthAdjust="spacing" textLength="14.46" x="63.2861" y="772.7607">20</text><text fill="#000000" font-family="sans-serif" font-size="13" lengthAdjust="spacing" textLength="235.5742" x="81.7461" y="772.7607">shows all data and requests confirmation</text><polygon fill="#181818" points="475.6138,805.3145,485.6138,809.3145,475.6138,813.3145,479.6138,809.3145" style="stroke:#181818;stroke-width:1.0;"/><line style="stroke:#181818;stroke-width:1.0;" x1="46.2861" x2="481.6138" y1="809.3145" y2="809.3145"/><text fill="#000000" font-family="sans-serif" font-size="13" font-weight="bold" lengthAdjust="spacing" textLength="14.46" x="53.2861" y="804.0518">21</text><text fill="#000000" font-family="sans-serif" font-size="13" lengthAdjust="spacing" textLength="78.0317" x="71.7461" y="804.0518">confirms data</text><polygon fill="#181818" points="52.2861,836.6055,42.2861,840.6055,52.2861,844.6055,48.2861,840.6055" style="stroke:#181818;stroke-width:1.0;"/><line style="stroke:#181818;stroke-width:1.0;stroke-dasharray:2.0,2.0;" x1="46.2861" x2="491.6138" y1="840.6055" y2="840.6055"/><text fill="#000000" font-family="sans-serif" font-size="13" font-weight="bold" lengthAdjust="spacing" textLength="14.46" x="58.2861" y="835.3428">22</text><text fill="#000000" font-family="sans-serif" font-size="13" lengthAdjust="spacing" textLength="155.3589" x="76.7461" y="835.3428">displays operation success</text><!--SRC=[lLLHSgCm3Ftd59fyRo-GZ_tR4_G4gX7WYMrHooJbzYiC8MaNfeIsomo31lkzvoVPifniQ36Y1y-1JHFP4wJOKI7pI8lcX3KzfzuHH389G-tk9qY39LzigA529rGKs2KEdN-XgB597E7mfxJwFG0AZ66Xs6IDRJ4aE1oVUqday_WOPgGzOw8he01znXYUVa_JuAYGaq1YC966sGXYA62qd04povKMfcV2FodLH7fK9tmHPN1M4d05U4Rhy4LzUsnr89Ipcf3JL007oembBGejB7S43YhA-VWI8xrs98eFwEaNID8qveMHlgMoFBYSrBVq2TcNKkZOi6Sbe4bg8OcfeRjKQqfbPqxV4tsKNZVZc5kuD5P1BMiAw4rNFzlSQjLWh7dTuU0h1rd2-k4pQwnutU3tghh6lChx8xReRQkjFTO-iFz_UobYa8gZ_oc7_meicHp-wH7Ts2a6yaRTShG67T2PGf9TRMATwKizmeQoanJj9rMOJ_QtT8URwAQ-S0FM52XY6kwxYQFVs33ULMI9figtvSwcS2lH1kfTEsggctF3tO2vLhCbmw6oqQigXmVhCq4bipw-cqehhSDUWDlicWD8Pmp9wXw_-pMo_0K0]--></g></svg>