<svg xmlns="http://www.w3.org/2000/svg" xmlns:xlink="http://www.w3.org/1999/xlink" contentStyleType="text/css" height="445px" preserveAspectRatio="none" style="width:359px;height:445px;background:#FFFFFF;" version="1.1" viewBox="0 0 359 445" width="359px" zoomAndPan="magnify"><title>System Sequence Diagram - US01 : Create a Map</title><defs/><g><text fill="#000000" font-family="sans-serif" font-size="14" font-weight="bold" lengthAdjust="spacing" textLength="326.792" x="14.4319" y="30.1074">System Sequence Diagram - US01 : Create a Map</text><rect fill="#FFFFFF" height="220.0371" style="stroke:#181818;stroke-width:1.0;" width="10" x="21.2861" y="133.2422"/><rect fill="#FFFFFF" height="31.291" style="stroke:#181818;stroke-width:1.0;" width="10" x="314.373" y="156.5332"/><rect fill="#FFFFFF" height="31.291" style="stroke:#181818;stroke-width:1.0;" width="10" x="314.373" y="219.1152"/><rect fill="#FFFFFF" height="62.582" style="stroke:#181818;stroke-width:1.0;" width="10" x="314.373" y="281.6973"/><line style="stroke:#181818;stroke-width:0.5;stroke-dasharray:5.0,5.0;" x1="26" x2="26" y1="123.2422" y2="362.2793"/><line style="stroke:#181818;stroke-width:0.5;stroke-dasharray:5.0,5.0;" x1="319.0903" x2="319.0903" y1="123.2422" y2="362.2793"/><text fill="#000000" font-family="sans-serif" font-size="14" lengthAdjust="spacing" textLength="36.5723" x="5" y="119.7285">Editor</text><ellipse cx="26.2861" cy="53.1211" fill="#E2E2F0" rx="8" ry="8" style="stroke:#181818;stroke-width:0.5;"/><path d="M26.2861,61.1211 L26.2861,88.1211 M13.2861,69.1211 L39.2861,69.1211 M26.2861,88.1211 L13.2861,103.1211 M26.2861,88.1211 L39.2861,103.1211 " fill="none" style="stroke:#181818;stroke-width:0.5;"/><text fill="#000000" font-family="sans-serif" font-size="14" lengthAdjust="spacing" textLength="36.5723" x="5" y="376.3867">Editor</text><ellipse cx="26.2861" cy="388.4004" fill="#E2E2F0" rx="8" ry="8" style="stroke:#181818;stroke-width:0.5;"/><path d="M26.2861,396.4004 L26.2861,423.4004 M13.2861,404.4004 L39.2861,404.4004 M26.2861,423.4004 L13.2861,438.4004 M26.2861,423.4004 L39.2861,438.4004 " fill="none" style="stroke:#181818;stroke-width:0.5;"/><rect fill="#E2E2F0" height="32.6211" rx="2.5" ry="2.5" style="stroke:#181818;stroke-width:0.5;" width="64.5654" x="287.0903" y="89.6211"/><text fill="#000000" font-family="sans-serif" font-size="14" lengthAdjust="spacing" textLength="50.5654" x="294.0903" y="111.7285">:System</text><rect fill="#E2E2F0" height="32.6211" rx="2.5" ry="2.5" style="stroke:#181818;stroke-width:0.5;" width="64.5654" x="287.0903" y="361.2793"/><text fill="#000000" font-family="sans-serif" font-size="14" lengthAdjust="spacing" textLength="50.5654" x="294.0903" y="383.3867">:System</text><rect fill="#FFFFFF" height="220.0371" style="stroke:#181818;stroke-width:1.0;" width="10" x="21.2861" y="133.2422"/><rect fill="#FFFFFF" height="31.291" style="stroke:#181818;stroke-width:1.0;" width="10" x="314.373" y="156.5332"/><rect fill="#FFFFFF" height="31.291" style="stroke:#181818;stroke-width:1.0;" width="10" x="314.373" y="219.1152"/><rect fill="#FFFFFF" height="62.582" style="stroke:#181818;stroke-width:1.0;" width="10" x="314.373" y="281.6973"/><polygon fill="#181818" points="302.373,152.5332,312.373,156.5332,302.373,160.5332,306.373,156.5332" style="stroke:#181818;stroke-width:1.0;"/><line style="stroke:#181818;stroke-width:1.0;" x1="31.2861" x2="308.373" y1="156.5332" y2="156.5332"/><text fill="#000000" font-family="sans-serif" font-size="13" font-weight="bold" lengthAdjust="spacing" textLength="7.23" x="38.2861" y="151.2705">1</text><text fill="#000000" font-family="sans-serif" font-size="13" lengthAdjust="spacing" textLength="148.1289" x="49.5161" y="151.2705">asks to create a new map</text><polygon fill="#181818" points="42.2861,183.8242,32.2861,187.8242,42.2861,191.8242,38.2861,187.8242" style="stroke:#181818;stroke-width:1.0;"/><line style="stroke:#181818;stroke-width:1.0;stroke-dasharray:2.0,2.0;" x1="36.2861" x2="318.373" y1="187.8242" y2="187.8242"/><text fill="#000000" font-family="sans-serif" font-size="13" font-weight="bold" lengthAdjust="spacing" textLength="7.23" x="48.2861" y="182.5615">2</text><text fill="#000000" font-family="sans-serif" font-size="13" lengthAdjust="spacing" textLength="232.6797" x="59.5161" y="182.5615">requests map data (name, width, height)</text><polygon fill="#181818" points="302.373,215.1152,312.373,219.1152,302.373,223.1152,306.373,219.1152" style="stroke:#181818;stroke-width:1.0;"/><line style="stroke:#181818;stroke-width:1.0;" x1="31.2861" x2="308.373" y1="219.1152" y2="219.1152"/><text fill="#000000" font-family="sans-serif" font-size="13" font-weight="bold" lengthAdjust="spacing" textLength="7.23" x="38.2861" y="213.8525">3</text><text fill="#000000" font-family="sans-serif" font-size="13" lengthAdjust="spacing" textLength="125.0361" x="49.5161" y="213.8525">inputs requested data</text><polygon fill="#181818" points="42.2861,246.4063,32.2861,250.4063,42.2861,254.4063,38.2861,250.4063" style="stroke:#181818;stroke-width:1.0;"/><line style="stroke:#181818;stroke-width:1.0;stroke-dasharray:2.0,2.0;" x1="36.2861" x2="318.373" y1="250.4063" y2="250.4063"/><text fill="#000000" font-family="sans-serif" font-size="13" font-weight="bold" lengthAdjust="spacing" textLength="7.23" x="48.2861" y="245.1436">4</text><text fill="#000000" font-family="sans-serif" font-size="13" lengthAdjust="spacing" textLength="247.8569" x="59.5161" y="245.1436">shows map data and requests confirmation</text><polygon fill="#181818" points="302.373,277.6973,312.373,281.6973,302.373,285.6973,306.373,281.6973" style="stroke:#181818;stroke-width:1.0;"/><line style="stroke:#181818;stroke-width:1.0;" x1="31.2861" x2="308.373" y1="281.6973" y2="281.6973"/><text fill="#000000" font-family="sans-serif" font-size="13" font-weight="bold" lengthAdjust="spacing" textLength="7.23" x="38.2861" y="276.4346">5</text><text fill="#000000" font-family="sans-serif" font-size="13" lengthAdjust="spacing" textLength="78.0317" x="49.5161" y="276.4346">confirms data</text><polygon fill="#181818" points="42.2861,308.9883,32.2861,312.9883,42.2861,316.9883,38.2861,312.9883" style="stroke:#181818;stroke-width:1.0;"/><line style="stroke:#181818;stroke-width:1.0;stroke-dasharray:2.0,2.0;" x1="36.2861" x2="313.373" y1="312.9883" y2="312.9883"/><text fill="#000000" font-family="sans-serif" font-size="13" font-weight="bold" lengthAdjust="spacing" textLength="7.23" x="48.2861" y="307.7256">6</text><text fill="#000000" font-family="sans-serif" font-size="13" lengthAdjust="spacing" textLength="155.3589" x="59.5161" y="307.7256">displays operation success</text><polygon fill="#181818" points="42.2861,340.2793,32.2861,344.2793,42.2861,348.2793,38.2861,344.2793" style="stroke:#181818;stroke-width:1.0;"/><line style="stroke:#181818;stroke-width:1.0;stroke-dasharray:2.0,2.0;" x1="36.2861" x2="318.373" y1="344.2793" y2="344.2793"/><text fill="#000000" font-family="sans-serif" font-size="13" font-weight="bold" lengthAdjust="spacing" textLength="7.23" x="48.2861" y="339.0166">7</text><text fill="#000000" font-family="sans-serif" font-size="13" lengthAdjust="spacing" textLength="117.0571" x="59.5161" y="339.0166">displays map details</text><!--SRC=[ZO_BJiGm34Nt_Oghha2QaM3R1HjWoQhY0qnYfXPj4cANQlwUFe86eH7gofPox_49ZHR3EBnnhaoiPzJjMOq7jFmvSd2C9w5JfW57lBPtzsZmc9cCGNYXL5VaB6RKprxcMOCKsreboYPE4WL3tMpKzNrRgwKfNmkf5AfjulXG8isS_b1OXFiv6NZ2GEdIBR0YVPox6wL1NZwWfaiUdenm4sZW0oRnrXtGiPmwkwqy_uLT4P6GnXbLcEnNu1uBxUBqIu62luYv6Dub3sGImpwDqj3TvxrewkciY8dpUWWwEiUg_wPNNpQINg-8VGC0]--></g></svg>