<svg xmlns="http://www.w3.org/2000/svg" xmlns:xlink="http://www.w3.org/1999/xlink" contentStyleType="text/css" height="479px" preserveAspectRatio="none" style="width:604px;height:479px;background:#FFFFFF;" version="1.1" viewBox="0 0 604 479" width="604px" zoomAndPan="magnify"><defs/><g><rect fill="#FFFFFF" height="314.9102" style="stroke:#181818;stroke-width:1.0;" width="10" x="141.4854" y="90.5332"/><rect fill="#FFFFFF" height="31.291" style="stroke:#181818;stroke-width:1.0;" width="10" x="266.9644" y="148.1152"/><rect fill="#FFFFFF" height="93.873" style="stroke:#181818;stroke-width:1.0;" width="10" x="370.3228" y="210.6973"/><rect fill="#FFFFFF" height="31.291" style="stroke:#181818;stroke-width:1.0;" width="10" x="478.7466" y="335.8613"/><rect fill="#FFFFFF" height="31.291" style="stroke:#181818;stroke-width:1.0;" width="10" x="557.2119" y="241.9883"/><rect fill="none" height="269.6191" style="stroke:#000000;stroke-width:1.5;" width="538.4331" x="59.8408" y="105.5332"/><line style="stroke:#181818;stroke-width:0.5;stroke-dasharray:5.0,5.0;" x1="145.8408" x2="145.8408" y1="57.2422" y2="423.4434"/><line style="stroke:#181818;stroke-width:0.5;stroke-dasharray:5.0,5.0;" x1="271.6265" x2="271.6265" y1="57.2422" y2="423.4434"/><line style="stroke:#181818;stroke-width:0.5;stroke-dasharray:5.0,5.0;" x1="375.3022" x2="375.3022" y1="57.2422" y2="423.4434"/><line style="stroke:#181818;stroke-width:0.5;stroke-dasharray:5.0,5.0;" x1="483.3433" x2="483.3433" y1="57.2422" y2="423.4434"/><line style="stroke:#181818;stroke-width:0.5;stroke-dasharray:5.0,5.0;" x1="562.1499" x2="562.1499" y1="57.2422" y2="423.4434"/><rect fill="#E3E3E3" height="32.6211" rx="2.5" ry="2.5" style="stroke:#181818;stroke-width:0.5;" width="153.2891" x="69.8408" y="23.6211"/><text fill="#000000" font-family="sans-serif" font-size="14" lengthAdjust="spacing" textLength="139.2891" x="76.8408" y="45.7285">:AddIndustryController</text><rect fill="#E3E3E3" height="32.6211" rx="2.5" ry="2.5" style="stroke:#181818;stroke-width:0.5;" width="153.2891" x="69.8408" y="422.4434"/><text fill="#000000" font-family="sans-serif" font-size="14" lengthAdjust="spacing" textLength="139.2891" x="76.8408" y="444.5508">:AddIndustryController</text><rect fill="#E3E3E3" height="51.2422" rx="2.5" ry="2.5" style="stroke:#181818;stroke-width:0.5;" width="74.6758" x="234.6265" y="5"/><text fill="#000000" font-family="sans-serif" font-size="14" lengthAdjust="spacing" textLength="56.7861" x="243.5713" y="27.1074">mapDTO</text><text fill="#000000" font-family="sans-serif" font-size="14" lengthAdjust="spacing" textLength="60.6758" x="241.6265" y="45.7285">:MapDTO</text><rect fill="#E3E3E3" height="51.2422" rx="2.5" ry="2.5" style="stroke:#181818;stroke-width:0.5;" width="74.6758" x="234.6265" y="422.4434"/><text fill="#000000" font-family="sans-serif" font-size="14" lengthAdjust="spacing" textLength="56.7861" x="243.5713" y="444.5508">mapDTO</text><text fill="#000000" font-family="sans-serif" font-size="14" lengthAdjust="spacing" textLength="60.6758" x="241.6265" y="463.1719">:MapDTO</text><rect fill="#E3E3E3" height="51.2422" rx="2.5" ry="2.5" style="stroke:#181818;stroke-width:0.5;" width="112.041" x="319.3022" y="5"/><text fill="#000000" font-family="sans-serif" font-size="14" lengthAdjust="spacing" textLength="94.1514" x="328.2471" y="27.1074">mapRepository</text><text fill="#000000" font-family="sans-serif" font-size="14" lengthAdjust="spacing" textLength="98.041" x="326.3022" y="45.7285">:MapRepository</text><rect fill="#E3E3E3" height="51.2422" rx="2.5" ry="2.5" style="stroke:#181818;stroke-width:0.5;" width="112.041" x="319.3022" y="422.4434"/><text fill="#000000" font-family="sans-serif" font-size="14" lengthAdjust="spacing" textLength="94.1514" x="328.2471" y="444.5508">mapRepository</text><text fill="#000000" font-family="sans-serif" font-size="14" lengthAdjust="spacing" textLength="98.041" x="326.3022" y="463.1719">:MapRepository</text><rect fill="#E3E3E3" height="51.2422" rx="2.5" ry="2.5" style="stroke:#181818;stroke-width:0.5;" width="84.8066" x="441.3433" y="5"/><text fill="#000000" font-family="sans-serif" font-size="14" lengthAdjust="spacing" textLength="70.8066" x="448.3433" y="27.1074">currentMap</text><text fill="#000000" font-family="sans-serif" font-size="14" lengthAdjust="spacing" textLength="31.124" x="468.1846" y="45.7285">:Map</text><rect fill="#E3E3E3" height="51.2422" rx="2.5" ry="2.5" style="stroke:#181818;stroke-width:0.5;" width="84.8066" x="441.3433" y="422.4434"/><text fill="#000000" font-family="sans-serif" font-size="14" lengthAdjust="spacing" textLength="70.8066" x="448.3433" y="444.5508">currentMap</text><text fill="#000000" font-family="sans-serif" font-size="14" lengthAdjust="spacing" textLength="31.124" x="468.1846" y="463.1719">:Map</text><rect fill="#E3E3E3" height="51.2422" rx="2.5" ry="2.5" style="stroke:#181818;stroke-width:0.5;" width="52.124" x="536.1499" y="5"/><text fill="#000000" font-family="sans-serif" font-size="14" lengthAdjust="spacing" textLength="34.2344" x="545.0947" y="27.1074">maps</text><text fill="#000000" font-family="sans-serif" font-size="14" lengthAdjust="spacing" textLength="38.124" x="543.1499" y="45.7285">:Maps</text><rect fill="#E3E3E3" height="51.2422" rx="2.5" ry="2.5" style="stroke:#181818;stroke-width:0.5;" width="52.124" x="536.1499" y="422.4434"/><text fill="#000000" font-family="sans-serif" font-size="14" lengthAdjust="spacing" textLength="34.2344" x="545.0947" y="444.5508">maps</text><text fill="#000000" font-family="sans-serif" font-size="14" lengthAdjust="spacing" textLength="38.124" x="543.1499" y="463.1719">:Maps</text><rect fill="#FFFFFF" height="314.9102" style="stroke:#181818;stroke-width:1.0;" width="10" x="141.4854" y="90.5332"/><rect fill="#FFFFFF" height="31.291" style="stroke:#181818;stroke-width:1.0;" width="10" x="266.9644" y="148.1152"/><rect fill="#FFFFFF" height="93.873" style="stroke:#181818;stroke-width:1.0;" width="10" x="370.3228" y="210.6973"/><rect fill="#FFFFFF" height="31.291" style="stroke:#181818;stroke-width:1.0;" width="10" x="478.7466" y="335.8613"/><rect fill="#FFFFFF" height="31.291" style="stroke:#181818;stroke-width:1.0;" width="10" x="557.2119" y="241.9883"/><polygon fill="#181818" points="129.4854,86.5332,139.4854,90.5332,129.4854,94.5332,133.4854,90.5332" style="stroke:#181818;stroke-width:1.0;"/><line style="stroke:#181818;stroke-width:1.0;" x1="0" x2="135.4854" y1="90.5332" y2="90.5332"/><text fill="#000000" font-family="sans-serif" font-size="13" font-weight="bold" lengthAdjust="spacing" textLength="7.23" x="7" y="85.2705">7</text><text fill="#000000" font-family="sans-serif" font-size="13" lengthAdjust="spacing" textLength="111.2554" x="18.23" y="85.2705">loadMap(mapDTO)</text><path d="M59.8408,105.5332 L222.5898,105.5332 L222.5898,114.8242 L212.5898,124.8242 L59.8408,124.8242 L59.8408,105.5332 " fill="#EEEEEE" style="stroke:#000000;stroke-width:1.5;"/><rect fill="none" height="269.6191" style="stroke:#000000;stroke-width:1.5;" width="538.4331" x="59.8408" y="105.5332"/><text fill="#000000" font-family="sans-serif" font-size="13" font-weight="bold" lengthAdjust="spacing" textLength="117.749" x="74.8408" y="120.5615">Load Selected Map</text><polygon fill="#181818" points="254.9644,144.1152,264.9644,148.1152,254.9644,152.1152,258.9644,148.1152" style="stroke:#181818;stroke-width:1.0;"/><line style="stroke:#181818;stroke-width:1.0;" x1="151.4854" x2="260.9644" y1="148.1152" y2="148.1152"/><text fill="#000000" font-family="sans-serif" font-size="13" font-weight="bold" lengthAdjust="spacing" textLength="18.0718" x="158.4854" y="142.8525">7.1</text><text fill="#000000" font-family="sans-serif" font-size="13" lengthAdjust="spacing" textLength="74.4072" x="180.5571" y="142.8525">getNameID()</text><polygon fill="#181818" points="162.4854,175.4063,152.4854,179.4063,162.4854,183.4063,158.4854,179.4063" style="stroke:#181818;stroke-width:1.0;"/><line style="stroke:#181818;stroke-width:1.0;stroke-dasharray:2.0,2.0;" x1="156.4854" x2="270.9644" y1="179.4063" y2="179.4063"/><text fill="#000000" font-family="sans-serif" font-size="13" font-weight="bold" lengthAdjust="spacing" textLength="18.0718" x="168.4854" y="174.1436">7.2</text><text fill="#000000" font-family="sans-serif" font-size="13" lengthAdjust="spacing" textLength="45.519" x="190.5571" y="174.1436">nameID</text><polygon fill="#181818" points="358.3228,206.6973,368.3228,210.6973,358.3228,214.6973,362.3228,210.6973" style="stroke:#181818;stroke-width:1.0;"/><line style="stroke:#181818;stroke-width:1.0;" x1="151.4854" x2="364.3228" y1="210.6973" y2="210.6973"/><text fill="#000000" font-family="sans-serif" font-size="13" font-weight="bold" lengthAdjust="spacing" textLength="18.0718" x="158.4854" y="205.4346">7.3</text><text fill="#000000" font-family="sans-serif" font-size="13" lengthAdjust="spacing" textLength="114.1626" x="180.5571" y="205.4346">getMapById(mapId)</text><polygon fill="#181818" points="545.2119,237.9883,555.2119,241.9883,545.2119,245.9883,549.2119,241.9883" style="stroke:#181818;stroke-width:1.0;"/><line style="stroke:#181818;stroke-width:1.0;" x1="380.3228" x2="551.2119" y1="241.9883" y2="241.9883"/><text fill="#000000" font-family="sans-serif" font-size="13" font-weight="bold" lengthAdjust="spacing" textLength="18.0718" x="387.3228" y="236.7256">7.4</text><text fill="#000000" font-family="sans-serif" font-size="13" lengthAdjust="spacing" textLength="114.1626" x="409.3945" y="236.7256">getMapById(mapId)</text><polygon fill="#181818" points="391.3228,269.2793,381.3228,273.2793,391.3228,277.2793,387.3228,273.2793" style="stroke:#181818;stroke-width:1.0;"/><line style="stroke:#181818;stroke-width:1.0;stroke-dasharray:2.0,2.0;" x1="385.3228" x2="561.2119" y1="273.2793" y2="273.2793"/><text fill="#000000" font-family="sans-serif" font-size="13" font-weight="bold" lengthAdjust="spacing" textLength="18.0718" x="397.3228" y="268.0166">7.5</text><text fill="#000000" font-family="sans-serif" font-size="13" lengthAdjust="spacing" textLength="65.749" x="419.3945" y="268.0166">currentMap</text><polygon fill="#181818" points="162.4854,300.5703,152.4854,304.5703,162.4854,308.5703,158.4854,304.5703" style="stroke:#181818;stroke-width:1.0;"/><line style="stroke:#181818;stroke-width:1.0;stroke-dasharray:2.0,2.0;" x1="156.4854" x2="374.3228" y1="304.5703" y2="304.5703"/><text fill="#000000" font-family="sans-serif" font-size="13" font-weight="bold" lengthAdjust="spacing" textLength="18.0718" x="168.4854" y="299.3076">7.6</text><text fill="#000000" font-family="sans-serif" font-size="13" lengthAdjust="spacing" textLength="65.749" x="190.5571" y="299.3076">currentMap</text><polygon fill="#181818" points="466.7466,331.8613,476.7466,335.8613,466.7466,339.8613,470.7466,335.8613" style="stroke:#181818;stroke-width:1.0;"/><line style="stroke:#181818;stroke-width:1.0;" x1="151.4854" x2="472.7466" y1="335.8613" y2="335.8613"/><text fill="#000000" font-family="sans-serif" font-size="13" font-weight="bold" lengthAdjust="spacing" textLength="18.0718" x="158.4854" y="330.5986">7.7</text><text fill="#000000" font-family="sans-serif" font-size="13" lengthAdjust="spacing" textLength="91.0508" x="180.5571" y="330.5986">getMapLayout()</text><polygon fill="#181818" points="162.4854,363.1523,152.4854,367.1523,162.4854,371.1523,158.4854,367.1523" style="stroke:#181818;stroke-width:1.0;"/><line style="stroke:#181818;stroke-width:1.0;stroke-dasharray:2.0,2.0;" x1="156.4854" x2="482.7466" y1="367.1523" y2="367.1523"/><text fill="#000000" font-family="sans-serif" font-size="13" font-weight="bold" lengthAdjust="spacing" textLength="18.0718" x="168.4854" y="361.8896">7.8</text><text fill="#000000" font-family="sans-serif" font-size="13" lengthAdjust="spacing" textLength="64.3208" x="190.5571" y="361.8896">mapLayout</text><polygon fill="#181818" points="11,401.4434,1,405.4434,11,409.4434,7,405.4434" style="stroke:#181818;stroke-width:1.0;"/><line style="stroke:#181818;stroke-width:1.0;stroke-dasharray:2.0,2.0;" x1="5" x2="145.4854" y1="405.4434" y2="405.4434"/><text fill="#000000" font-family="sans-serif" font-size="13" font-weight="bold" lengthAdjust="spacing" textLength="7.23" x="17" y="400.1807">8</text><text fill="#000000" font-family="sans-serif" font-size="13" lengthAdjust="spacing" textLength="64.3208" x="28.23" y="400.1807">mapLayout</text><!--SRC=[XLBBReCm4BpxArOz9GSgzTGALPNIf0Uaf8b2ZfKg5sy92jZ8Dgtu-nhpi0b4tGlWdHtFpA8k6I-ff0KKWelaB4M1e6M5H0sTaYONccAiwnn1Og8fJtCVeCwKYT-Cf_1DSuM4q4eBNXLVAE6H40FIMPALb6ku2rUCHPnLIijwBRYM8izHtW5Li3uTjsDmGSlDQV_1mvrziIZp_Doj3XFW4KkXCYratUBTjnqxlXtsyNGmgQH4hWs-dRBOENhLzbKFY0a9Ngpa4791cUajMhbB0ZJHsG_Ls5g2hb8fgXAs1WmnvYP7P636XhwVslq36SwRQeZ0NDYv3o55_KuBZ3QBvGWuNDtd15VLdKFGoOSGk2KQ8HbEY6Rr3B62bMJilDOHQvA8s0rXRXD-sn4PrYRV__X6d7OXC5DDmreT-4DmEv-CUBPdAJsLBhuRV1wNipmROhzGmx2bjQZqhPrUX-OB2Q7enybjIsDUzyCz3GtaZCmsduEWT-nkyjZjl_u7]--></g></svg>