<svg xmlns="http://www.w3.org/2000/svg" xmlns:xlink="http://www.w3.org/1999/xlink" contentStyleType="text/css" height="1240px" preserveAspectRatio="none" style="width:1988px;height:1240px;background:#FFFFFF;" version="1.1" viewBox="0 0 1988 1240" width="1988px" zoomAndPan="magnify"><defs/><g><rect fill="#FFFFFF" height="1075.7598" style="stroke:#181818;stroke-width:1.0;" width="10" x="232.5234" y="90.5332"/><rect fill="#FFFFFF" height="31.291" style="stroke:#181818;stroke-width:1.0;" width="10" x="366.6987" y="148.1152"/><rect fill="#FFFFFF" height="31.291" style="stroke:#181818;stroke-width:1.0;" width="10" x="470.457" y="210.6973"/><rect fill="#FFFFFF" height="31.291" style="stroke:#181818;stroke-width:1.0;" width="10" x="565.6465" y="273.2793"/><rect fill="#FFFFFF" height="437.1523" style="stroke:#181818;stroke-width:1.0;" width="10" x="669.0049" y="335.8613"/><rect fill="#FFFFFF" height="374.5703" style="stroke:#181818;stroke-width:1.0;" width="10" x="942.6064" y="367.1523"/><rect fill="#FFFFFF" height="311.9883" style="stroke:#181818;stroke-width:1.0;" width="10" x="1083.999" y="398.4434"/><rect fill="#FFFFFF" height="249.4063" style="stroke:#181818;stroke-width:1.0;" width="10" x="1232.6216" y="429.7344"/><rect fill="#FFFFFF" height="30" style="stroke:#181818;stroke-width:1.0;" width="10" x="1388.106" y="549.5586"/><rect fill="#FFFFFF" height="323.6973" style="stroke:#181818;stroke-width:1.0;" width="10" x="1508.5986" y="804.3047"/><rect fill="#FFFFFF" height="28" style="stroke:#181818;stroke-width:1.0;" width="10" x="1513.5986" y="993.4199"/><rect fill="#FFFFFF" height="30" style="stroke:#181818;stroke-width:1.0;" width="10" x="1759.3657" y="610.8496"/><rect fill="#FFFFFF" height="30" style="stroke:#181818;stroke-width:1.0;" width="10" x="1759.3657" y="924.1289"/><rect fill="#FFFFFF" height="30" style="stroke:#181818;stroke-width:1.0;" width="10" x="1889.9688" y="1059.7109"/><rect fill="none" height="1030.4688" style="stroke:#000000;stroke-width:1.5;" width="1831.7793" x="150.8789" y="105.5332"/><rect fill="none" height="141.873" style="stroke:#000000;stroke-width:1.5;" width="638.9507" x="1188.3286" y="506.9766"/><rect fill="none" height="216.1641" style="stroke:#000000;stroke-width:1.5;" width="526.6387" x="1446.0195" y="881.5469"/><line style="stroke:#181818;stroke-width:0.5;stroke-dasharray:5.0,5.0;" x1="236.8789" x2="236.8789" y1="57.2422" y2="1184.293"/><line style="stroke:#181818;stroke-width:0.5;stroke-dasharray:5.0,5.0;" x1="370.792" x2="370.792" y1="57.2422" y2="1184.293"/><line style="stroke:#181818;stroke-width:0.5;stroke-dasharray:5.0,5.0;" x1="474.6055" x2="474.6055" y1="57.2422" y2="1184.293"/><line style="stroke:#181818;stroke-width:0.5;stroke-dasharray:5.0,5.0;" x1="570.3086" x2="570.3086" y1="57.2422" y2="1184.293"/><line style="stroke:#181818;stroke-width:0.5;stroke-dasharray:5.0,5.0;" x1="673.9844" x2="673.9844" y1="57.2422" y2="1184.293"/><line style="stroke:#181818;stroke-width:0.5;stroke-dasharray:5.0,5.0;" x1="947.5444" x2="947.5444" y1="57.2422" y2="1184.293"/><line style="stroke:#181818;stroke-width:0.5;stroke-dasharray:5.0,5.0;" x1="1088.437" x2="1088.437" y1="57.2422" y2="1184.293"/><line style="stroke:#181818;stroke-width:0.5;stroke-dasharray:5.0,5.0;" x1="1237.3286" x2="1237.3286" y1="57.2422" y2="1184.293"/><line style="stroke:#181818;stroke-width:0.5;stroke-dasharray:5.0,5.0;" x1="1392.1924" x2="1392.1924" y1="57.2422" y2="1184.293"/><line style="stroke:#181818;stroke-width:0.5;stroke-dasharray:5.0,5.0;" x1="1513.0195" x2="1513.0195" y1="57.2422" y2="1184.293"/><line style="stroke:#181818;stroke-width:0.5;stroke-dasharray:5.0,5.0;" x1="1763.4521" x2="1763.4521" y1="478.8555" y2="1184.293"/><line style="stroke:#181818;stroke-width:0.5;stroke-dasharray:5.0,5.0;" x1="1894.2793" x2="1894.2793" y1="853.4258" y2="1184.293"/><rect fill="#E3E3E3" height="32.6211" rx="2.5" ry="2.5" style="stroke:#181818;stroke-width:0.5;" width="153.2891" x="160.8789" y="23.6211"/><text fill="#000000" font-family="sans-serif" font-size="14" lengthAdjust="spacing" textLength="139.2891" x="167.8789" y="45.7285">:AddIndustryController</text><rect fill="#E3E3E3" height="32.6211" rx="2.5" ry="2.5" style="stroke:#181818;stroke-width:0.5;" width="153.2891" x="160.8789" y="1183.293"/><text fill="#000000" font-family="sans-serif" font-size="14" lengthAdjust="spacing" textLength="139.2891" x="167.8789" y="1205.4004">:AddIndustryController</text><rect fill="#E3E3E3" height="32.6211" rx="2.5" ry="2.5" style="stroke:#181818;stroke-width:0.5;" width="91.8135" x="325.792" y="23.6211"/><text fill="#000000" font-family="sans-serif" font-size="14" lengthAdjust="spacing" textLength="77.8135" x="332.792" y="45.7285">Repositories</text><rect fill="#E3E3E3" height="32.6211" rx="2.5" ry="2.5" style="stroke:#181818;stroke-width:0.5;" width="91.8135" x="325.792" y="1183.293"/><text fill="#000000" font-family="sans-serif" font-size="14" lengthAdjust="spacing" textLength="77.8135" x="332.792" y="1205.4004">Repositories</text><rect fill="#E3E3E3" height="51.2422" rx="2.5" ry="2.5" style="stroke:#181818;stroke-width:0.5;" width="95.7031" x="427.6055" y="5"/><text fill="#000000" font-family="sans-serif" font-size="14" lengthAdjust="spacing" textLength="72.3652" x="439.2744" y="27.1074">repositories</text><text fill="#000000" font-family="sans-serif" font-size="14" lengthAdjust="spacing" textLength="81.7031" x="434.6055" y="45.7285">:Repositories</text><rect fill="#E3E3E3" height="51.2422" rx="2.5" ry="2.5" style="stroke:#181818;stroke-width:0.5;" width="95.7031" x="427.6055" y="1183.293"/><text fill="#000000" font-family="sans-serif" font-size="14" lengthAdjust="spacing" textLength="72.3652" x="439.2744" y="1205.4004">repositories</text><text fill="#000000" font-family="sans-serif" font-size="14" lengthAdjust="spacing" textLength="81.7031" x="434.6055" y="1224.0215">:Repositories</text><rect fill="#E3E3E3" height="51.2422" rx="2.5" ry="2.5" style="stroke:#181818;stroke-width:0.5;" width="74.6758" x="533.3086" y="5"/><text fill="#000000" font-family="sans-serif" font-size="14" lengthAdjust="spacing" textLength="56.7861" x="542.2534" y="27.1074">mapDTO</text><text fill="#000000" font-family="sans-serif" font-size="14" lengthAdjust="spacing" textLength="60.6758" x="540.3086" y="45.7285">:MapDTO</text><rect fill="#E3E3E3" height="51.2422" rx="2.5" ry="2.5" style="stroke:#181818;stroke-width:0.5;" width="74.6758" x="533.3086" y="1183.293"/><text fill="#000000" font-family="sans-serif" font-size="14" lengthAdjust="spacing" textLength="56.7861" x="542.2534" y="1205.4004">mapDTO</text><text fill="#000000" font-family="sans-serif" font-size="14" lengthAdjust="spacing" textLength="60.6758" x="540.3086" y="1224.0215">:MapDTO</text><rect fill="#E3E3E3" height="51.2422" rx="2.5" ry="2.5" style="stroke:#181818;stroke-width:0.5;" width="112.041" x="617.9844" y="5"/><text fill="#000000" font-family="sans-serif" font-size="14" lengthAdjust="spacing" textLength="94.1514" x="626.9292" y="27.1074">mapRepository</text><text fill="#000000" font-family="sans-serif" font-size="14" lengthAdjust="spacing" textLength="98.041" x="624.9844" y="45.7285">:MapRepository</text><rect fill="#E3E3E3" height="51.2422" rx="2.5" ry="2.5" style="stroke:#181818;stroke-width:0.5;" width="112.041" x="617.9844" y="1183.293"/><text fill="#000000" font-family="sans-serif" font-size="14" lengthAdjust="spacing" textLength="94.1514" x="626.9292" y="1205.4004">mapRepository</text><text fill="#000000" font-family="sans-serif" font-size="14" lengthAdjust="spacing" textLength="98.041" x="624.9844" y="1224.0215">:MapRepository</text><rect fill="#E3E3E3" height="51.2422" rx="2.5" ry="2.5" style="stroke:#181818;stroke-width:0.5;" width="52.124" x="921.5444" y="5"/><text fill="#000000" font-family="sans-serif" font-size="14" lengthAdjust="spacing" textLength="34.2344" x="930.4893" y="27.1074">maps</text><text fill="#000000" font-family="sans-serif" font-size="14" lengthAdjust="spacing" textLength="38.124" x="928.5444" y="45.7285">:Maps</text><rect fill="#E3E3E3" height="51.2422" rx="2.5" ry="2.5" style="stroke:#181818;stroke-width:0.5;" width="52.124" x="921.5444" y="1183.293"/><text fill="#000000" font-family="sans-serif" font-size="14" lengthAdjust="spacing" textLength="34.2344" x="930.4893" y="1205.4004">maps</text><text fill="#000000" font-family="sans-serif" font-size="14" lengthAdjust="spacing" textLength="38.124" x="928.5444" y="1224.0215">:Maps</text><rect fill="#E3E3E3" height="51.2422" rx="2.5" ry="2.5" style="stroke:#181818;stroke-width:0.5;" width="45.124" x="1066.437" y="5"/><text fill="#000000" font-family="sans-serif" font-size="14" lengthAdjust="spacing" textLength="27.2344" x="1075.3818" y="27.1074">map</text><text fill="#000000" font-family="sans-serif" font-size="14" lengthAdjust="spacing" textLength="31.124" x="1073.437" y="45.7285">:Map</text><rect fill="#E3E3E3" height="51.2422" rx="2.5" ry="2.5" style="stroke:#181818;stroke-width:0.5;" width="45.124" x="1066.437" y="1183.293"/><text fill="#000000" font-family="sans-serif" font-size="14" lengthAdjust="spacing" textLength="27.2344" x="1075.3818" y="1205.4004">map</text><text fill="#000000" font-family="sans-serif" font-size="14" lengthAdjust="spacing" textLength="31.124" x="1073.437" y="1224.0215">:Map</text><rect fill="#E3E3E3" height="51.2422" rx="2.5" ry="2.5" style="stroke:#181818;stroke-width:0.5;" width="78.5859" x="1198.3286" y="5"/><text fill="#000000" font-family="sans-serif" font-size="14" lengthAdjust="spacing" textLength="59.917" x="1207.6631" y="27.1074">industries</text><text fill="#000000" font-family="sans-serif" font-size="14" lengthAdjust="spacing" textLength="64.5859" x="1205.3286" y="45.7285">:Industries</text><rect fill="#E3E3E3" height="51.2422" rx="2.5" ry="2.5" style="stroke:#181818;stroke-width:0.5;" width="78.5859" x="1198.3286" y="1183.293"/><text fill="#000000" font-family="sans-serif" font-size="14" lengthAdjust="spacing" textLength="59.917" x="1207.6631" y="1205.4004">industries</text><text fill="#000000" font-family="sans-serif" font-size="14" lengthAdjust="spacing" textLength="64.5859" x="1205.3286" y="1224.0215">:Industries</text><rect fill="#E3E3E3" height="32.6211" rx="2.5" ry="2.5" style="stroke:#181818;stroke-width:0.5;" width="105.8271" x="1340.1924" y="23.6211"/><text fill="#000000" font-family="sans-serif" font-size="14" lengthAdjust="spacing" textLength="91.8271" x="1347.1924" y="45.7285">:List&lt;Industry&gt;</text><rect fill="#E3E3E3" height="32.6211" rx="2.5" ry="2.5" style="stroke:#181818;stroke-width:0.5;" width="105.8271" x="1340.1924" y="1183.293"/><text fill="#000000" font-family="sans-serif" font-size="14" lengthAdjust="spacing" textLength="91.8271" x="1347.1924" y="1205.4004">:List&lt;Industry&gt;</text><rect fill="#E3E3E3" height="32.6211" rx="2.5" ry="2.5" style="stroke:#181818;stroke-width:0.5;" width="115.1582" x="1456.0195" y="23.6211"/><text fill="#000000" font-family="sans-serif" font-size="14" lengthAdjust="spacing" textLength="101.1582" x="1463.0195" y="45.7285">:IndustryMapper</text><rect fill="#E3E3E3" height="32.6211" rx="2.5" ry="2.5" style="stroke:#181818;stroke-width:0.5;" width="115.1582" x="1456.0195" y="1183.293"/><text fill="#000000" font-family="sans-serif" font-size="14" lengthAdjust="spacing" textLength="101.1582" x="1463.0195" y="1205.4004">:IndustryMapper</text><rect fill="#E3E3E3" height="51.2422" rx="2.5" ry="2.5" style="stroke:#181818;stroke-width:0.5;" width="105.8271" x="1711.4521" y="1183.293"/><text fill="#000000" font-family="sans-serif" font-size="14" lengthAdjust="spacing" textLength="66.9102" x="1730.9106" y="1205.4004">listIndustry</text><text fill="#000000" font-family="sans-serif" font-size="14" lengthAdjust="spacing" textLength="91.8271" x="1718.4521" y="1224.0215">:List&lt;Industry&gt;</text><rect fill="#E3E3E3" height="51.2422" rx="2.5" ry="2.5" style="stroke:#181818;stroke-width:0.5;" width="135.3789" x="1827.2793" y="1183.293"/><text fill="#000000" font-family="sans-serif" font-size="14" lengthAdjust="spacing" textLength="96.4619" x="1846.7378" y="1205.4004">listIndustryDTO</text><text fill="#000000" font-family="sans-serif" font-size="14" lengthAdjust="spacing" textLength="121.3789" x="1834.2793" y="1224.0215">:List&lt;IndustryDTO&gt;</text><rect fill="#FFFFFF" height="1075.7598" style="stroke:#181818;stroke-width:1.0;" width="10" x="232.5234" y="90.5332"/><rect fill="#FFFFFF" height="31.291" style="stroke:#181818;stroke-width:1.0;" width="10" x="366.6987" y="148.1152"/><rect fill="#FFFFFF" height="31.291" style="stroke:#181818;stroke-width:1.0;" width="10" x="470.457" y="210.6973"/><rect fill="#FFFFFF" height="31.291" style="stroke:#181818;stroke-width:1.0;" width="10" x="565.6465" y="273.2793"/><rect fill="#FFFFFF" height="437.1523" style="stroke:#181818;stroke-width:1.0;" width="10" x="669.0049" y="335.8613"/><rect fill="#FFFFFF" height="374.5703" style="stroke:#181818;stroke-width:1.0;" width="10" x="942.6064" y="367.1523"/><rect fill="#FFFFFF" height="311.9883" style="stroke:#181818;stroke-width:1.0;" width="10" x="1083.999" y="398.4434"/><rect fill="#FFFFFF" height="249.4063" style="stroke:#181818;stroke-width:1.0;" width="10" x="1232.6216" y="429.7344"/><rect fill="#FFFFFF" height="30" style="stroke:#181818;stroke-width:1.0;" width="10" x="1388.106" y="549.5586"/><rect fill="#FFFFFF" height="323.6973" style="stroke:#181818;stroke-width:1.0;" width="10" x="1508.5986" y="804.3047"/><rect fill="#FFFFFF" height="28" style="stroke:#181818;stroke-width:1.0;" width="10" x="1513.5986" y="993.4199"/><rect fill="#FFFFFF" height="30" style="stroke:#181818;stroke-width:1.0;" width="10" x="1759.3657" y="610.8496"/><rect fill="#FFFFFF" height="30" style="stroke:#181818;stroke-width:1.0;" width="10" x="1759.3657" y="924.1289"/><rect fill="#FFFFFF" height="30" style="stroke:#181818;stroke-width:1.0;" width="10" x="1889.9688" y="1059.7109"/><polygon fill="#181818" points="220.5234,86.5332,230.5234,90.5332,220.5234,94.5332,224.5234,90.5332" style="stroke:#181818;stroke-width:1.0;"/><line style="stroke:#181818;stroke-width:1.0;" x1="0" x2="226.5234" y1="90.5332" y2="90.5332"/><text fill="#000000" font-family="sans-serif" font-size="13" font-weight="bold" lengthAdjust="spacing" textLength="14.46" x="7" y="85.2705">15</text><text fill="#000000" font-family="sans-serif" font-size="13" lengthAdjust="spacing" textLength="195.0635" x="25.46" y="85.2705">getListOfMapIndustries(mapDTO)</text><path d="M150.8789,105.5332 L326.6089,105.5332 L326.6089,114.8242 L316.6089,124.8242 L150.8789,124.8242 L150.8789,105.5332 " fill="#EEEEEE" style="stroke:#000000;stroke-width:1.5;"/><rect fill="none" height="1030.4688" style="stroke:#000000;stroke-width:1.5;" width="1831.7793" x="150.8789" y="105.5332"/><text fill="#000000" font-family="sans-serif" font-size="13" font-weight="bold" lengthAdjust="spacing" textLength="130.73" x="165.8789" y="120.5615">Get IndustryDTO List</text><polygon fill="#181818" points="354.6987,144.1152,364.6987,148.1152,354.6987,152.1152,358.6987,148.1152" style="stroke:#181818;stroke-width:1.0;"/><line style="stroke:#181818;stroke-width:1.0;" x1="242.5234" x2="360.6987" y1="148.1152" y2="148.1152"/><text fill="#000000" font-family="sans-serif" font-size="13" font-weight="bold" lengthAdjust="spacing" textLength="25.3018" x="249.5234" y="142.8525">15.1</text><text fill="#000000" font-family="sans-serif" font-size="13" lengthAdjust="spacing" textLength="75.8735" x="278.8252" y="142.8525">getInstance()</text><polygon fill="#181818" points="253.5234,175.4063,243.5234,179.4063,253.5234,183.4063,249.5234,179.4063" style="stroke:#181818;stroke-width:1.0;"/><line style="stroke:#181818;stroke-width:1.0;stroke-dasharray:2.0,2.0;" x1="247.5234" x2="370.6987" y1="179.4063" y2="179.4063"/><text fill="#000000" font-family="sans-serif" font-size="13" font-weight="bold" lengthAdjust="spacing" textLength="25.3018" x="259.5234" y="174.1436">15.2</text><text fill="#000000" font-family="sans-serif" font-size="13" lengthAdjust="spacing" textLength="67.1963" x="288.8252" y="174.1436">repositories</text><polygon fill="#181818" points="458.457,206.6973,468.457,210.6973,458.457,214.6973,462.457,210.6973" style="stroke:#181818;stroke-width:1.0;"/><line style="stroke:#181818;stroke-width:1.0;" x1="242.5234" x2="464.457" y1="210.6973" y2="210.6973"/><text fill="#000000" font-family="sans-serif" font-size="13" font-weight="bold" lengthAdjust="spacing" textLength="25.3018" x="249.5234" y="205.4346">15.3</text><text fill="#000000" font-family="sans-serif" font-size="13" lengthAdjust="spacing" textLength="114.1563" x="278.8252" y="205.4346">getMapRepository()</text><polygon fill="#181818" points="253.5234,237.9883,243.5234,241.9883,253.5234,245.9883,249.5234,241.9883" style="stroke:#181818;stroke-width:1.0;"/><line style="stroke:#181818;stroke-width:1.0;stroke-dasharray:2.0,2.0;" x1="247.5234" x2="474.457" y1="241.9883" y2="241.9883"/><text fill="#000000" font-family="sans-serif" font-size="13" font-weight="bold" lengthAdjust="spacing" textLength="25.3018" x="259.5234" y="236.7256">15.4</text><text fill="#000000" font-family="sans-serif" font-size="13" lengthAdjust="spacing" textLength="87.4263" x="288.8252" y="236.7256">mapRepository</text><polygon fill="#181818" points="553.6465,269.2793,563.6465,273.2793,553.6465,277.2793,557.6465,273.2793" style="stroke:#181818;stroke-width:1.0;"/><line style="stroke:#181818;stroke-width:1.0;" x1="242.5234" x2="559.6465" y1="273.2793" y2="273.2793"/><text fill="#000000" font-family="sans-serif" font-size="13" font-weight="bold" lengthAdjust="spacing" textLength="25.3018" x="249.5234" y="268.0166">15.5</text><text fill="#000000" font-family="sans-serif" font-size="13" lengthAdjust="spacing" textLength="74.4072" x="278.8252" y="268.0166">getNameID()</text><polygon fill="#181818" points="253.5234,300.5703,243.5234,304.5703,253.5234,308.5703,249.5234,304.5703" style="stroke:#181818;stroke-width:1.0;"/><line style="stroke:#181818;stroke-width:1.0;stroke-dasharray:2.0,2.0;" x1="247.5234" x2="569.6465" y1="304.5703" y2="304.5703"/><text fill="#000000" font-family="sans-serif" font-size="13" font-weight="bold" lengthAdjust="spacing" textLength="25.3018" x="259.5234" y="299.3076">15.6</text><text fill="#000000" font-family="sans-serif" font-size="13" lengthAdjust="spacing" textLength="72.9663" x="288.8252" y="299.3076">mapNameID</text><polygon fill="#181818" points="657.0049,331.8613,667.0049,335.8613,657.0049,339.8613,661.0049,335.8613" style="stroke:#181818;stroke-width:1.0;"/><line style="stroke:#181818;stroke-width:1.0;" x1="242.5234" x2="663.0049" y1="335.8613" y2="335.8613"/><text fill="#000000" font-family="sans-serif" font-size="13" font-weight="bold" lengthAdjust="spacing" textLength="25.3018" x="249.5234" y="330.5986">15.7</text><text fill="#000000" font-family="sans-serif" font-size="13" lengthAdjust="spacing" textLength="215.2998" x="278.8252" y="330.5986">getListOfMapIndustries(mapNameID)</text><polygon fill="#181818" points="930.6064,363.1523,940.6064,367.1523,930.6064,371.1523,934.6064,367.1523" style="stroke:#181818;stroke-width:1.0;"/><line style="stroke:#181818;stroke-width:1.0;" x1="679.0049" x2="936.6064" y1="367.1523" y2="367.1523"/><text fill="#000000" font-family="sans-serif" font-size="13" font-weight="bold" lengthAdjust="spacing" textLength="25.3018" x="686.0049" y="361.8896">15.8</text><text fill="#000000" font-family="sans-serif" font-size="13" lengthAdjust="spacing" textLength="215.2998" x="715.3066" y="361.8896">getListOfMapIndustries(mapNameID)</text><polygon fill="#181818" points="1071.999,394.4434,1081.999,398.4434,1071.999,402.4434,1075.999,398.4434" style="stroke:#181818;stroke-width:1.0;"/><line style="stroke:#181818;stroke-width:1.0;" x1="952.6064" x2="1077.999" y1="398.4434" y2="398.4434"/><text fill="#000000" font-family="sans-serif" font-size="13" font-weight="bold" lengthAdjust="spacing" textLength="25.3018" x="959.6064" y="393.1807">15.9</text><text fill="#000000" font-family="sans-serif" font-size="13" lengthAdjust="spacing" textLength="83.0908" x="988.9082" y="393.1807">getIndustries()</text><polygon fill="#181818" points="1220.6216,425.7344,1230.6216,429.7344,1220.6216,433.7344,1224.6216,429.7344" style="stroke:#181818;stroke-width:1.0;"/><line style="stroke:#181818;stroke-width:1.0;stroke-dasharray:2.0,2.0;" x1="1093.999" x2="1226.6216" y1="429.7344" y2="429.7344"/><text fill="#000000" font-family="sans-serif" font-size="13" font-weight="bold" lengthAdjust="spacing" textLength="32.5317" x="1100.999" y="424.4717">15.10</text><text fill="#000000" font-family="sans-serif" font-size="13" lengthAdjust="spacing" textLength="83.0908" x="1137.5308" y="424.4717">getIndustries()</text><polygon fill="#181818" points="1699.4521,457.0254,1709.4521,461.0254,1699.4521,465.0254,1703.4521,461.0254" style="stroke:#181818;stroke-width:1.0;"/><line style="stroke:#181818;stroke-width:1.0;stroke-dasharray:2.0,2.0;" x1="1242.6216" x2="1705.4521" y1="461.0254" y2="461.0254"/><text fill="#000000" font-family="sans-serif" font-size="13" font-weight="bold" lengthAdjust="spacing" textLength="32.5317" x="1249.6216" y="455.7627">15.11</text><text fill="#000000" font-family="sans-serif" font-size="13" lengthAdjust="spacing" textLength="44.7891" x="1286.1533" y="455.7627">create()</text><rect fill="#E3E3E3" height="51.2422" rx="2.5" ry="2.5" style="stroke:#181818;stroke-width:0.5;" width="105.8271" x="1711.4521" y="437.7344"/><text fill="#000000" font-family="sans-serif" font-size="14" lengthAdjust="spacing" textLength="66.9102" x="1730.9106" y="459.8418">listIndustry</text><text fill="#000000" font-family="sans-serif" font-size="14" lengthAdjust="spacing" textLength="91.8271" x="1718.4521" y="478.4629">:List&lt;Industry&gt;</text><path d="M1188.3286,506.9766 L1260.7632,506.9766 L1260.7632,516.2676 L1250.7632,526.2676 L1188.3286,526.2676 L1188.3286,506.9766 " fill="#EEEEEE" style="stroke:#000000;stroke-width:1.5;"/><rect fill="none" height="141.873" style="stroke:#000000;stroke-width:1.5;" width="638.9507" x="1188.3286" y="506.9766"/><text fill="#000000" font-family="sans-serif" font-size="13" font-weight="bold" lengthAdjust="spacing" textLength="27.4346" x="1203.3286" y="522.0049">loop</text><text fill="#000000" font-family="sans-serif" font-size="11" font-weight="bold" lengthAdjust="spacing" textLength="134.4546" x="1275.7632" y="520.8467">[for each known Industry]</text><polygon fill="#181818" points="1376.106,545.5586,1386.106,549.5586,1376.106,553.5586,1380.106,549.5586" style="stroke:#181818;stroke-width:1.0;"/><line style="stroke:#181818;stroke-width:1.0;stroke-dasharray:2.0,2.0;" x1="1242.6216" x2="1382.106" y1="549.5586" y2="549.5586"/><text fill="#000000" font-family="sans-serif" font-size="13" font-weight="bold" lengthAdjust="spacing" textLength="32.5317" x="1249.6216" y="544.2959">15.12</text><text fill="#000000" font-family="sans-serif" font-size="13" lengthAdjust="spacing" textLength="89.9526" x="1286.1533" y="544.2959">industry = get(i)</text><polygon fill="#181818" points="1747.3657,606.8496,1757.3657,610.8496,1747.3657,614.8496,1751.3657,610.8496" style="stroke:#181818;stroke-width:1.0;"/><line style="stroke:#181818;stroke-width:1.0;stroke-dasharray:2.0,2.0;" x1="1242.6216" x2="1753.3657" y1="610.8496" y2="610.8496"/><text fill="#000000" font-family="sans-serif" font-size="13" font-weight="bold" lengthAdjust="spacing" textLength="32.5317" x="1249.6216" y="605.5869">15.13</text><text fill="#000000" font-family="sans-serif" font-size="13" lengthAdjust="spacing" textLength="75.8672" x="1286.1533" y="605.5869">add(industry)</text><polygon fill="#181818" points="1104.999,675.1406,1094.999,679.1406,1104.999,683.1406,1100.999,679.1406" style="stroke:#181818;stroke-width:1.0;"/><line style="stroke:#181818;stroke-width:1.0;stroke-dasharray:2.0,2.0;" x1="1098.999" x2="1236.6216" y1="679.1406" y2="679.1406"/><text fill="#000000" font-family="sans-serif" font-size="13" font-weight="bold" lengthAdjust="spacing" textLength="32.5317" x="1110.999" y="673.8779">15.14</text><text fill="#000000" font-family="sans-serif" font-size="13" lengthAdjust="spacing" textLength="62.1309" x="1147.5308" y="673.8779">listIndustry</text><polygon fill="#181818" points="963.6064,706.4316,953.6064,710.4316,963.6064,714.4316,959.6064,710.4316" style="stroke:#181818;stroke-width:1.0;"/><line style="stroke:#181818;stroke-width:1.0;stroke-dasharray:2.0,2.0;" x1="957.6064" x2="1087.999" y1="710.4316" y2="710.4316"/><text fill="#000000" font-family="sans-serif" font-size="13" font-weight="bold" lengthAdjust="spacing" textLength="32.5317" x="969.6064" y="705.1689">15.15</text><text fill="#000000" font-family="sans-serif" font-size="13" lengthAdjust="spacing" textLength="62.1309" x="1006.1382" y="705.1689">listIndustry</text><polygon fill="#181818" points="690.0049,737.7227,680.0049,741.7227,690.0049,745.7227,686.0049,741.7227" style="stroke:#181818;stroke-width:1.0;"/><line style="stroke:#181818;stroke-width:1.0;stroke-dasharray:2.0,2.0;" x1="684.0049" x2="946.6064" y1="741.7227" y2="741.7227"/><text fill="#000000" font-family="sans-serif" font-size="13" font-weight="bold" lengthAdjust="spacing" textLength="32.5317" x="696.0049" y="736.46">15.16</text><text fill="#000000" font-family="sans-serif" font-size="13" lengthAdjust="spacing" textLength="62.1309" x="732.5366" y="736.46">listIndustry</text><polygon fill="#181818" points="253.5234,769.0137,243.5234,773.0137,253.5234,777.0137,249.5234,773.0137" style="stroke:#181818;stroke-width:1.0;"/><line style="stroke:#181818;stroke-width:1.0;stroke-dasharray:2.0,2.0;" x1="247.5234" x2="673.0049" y1="773.0137" y2="773.0137"/><text fill="#000000" font-family="sans-serif" font-size="13" font-weight="bold" lengthAdjust="spacing" textLength="32.5317" x="259.5234" y="767.751">15.17</text><text fill="#000000" font-family="sans-serif" font-size="13" lengthAdjust="spacing" textLength="62.1309" x="296.0552" y="767.751">listIndustry</text><polygon fill="#181818" points="1496.5986,800.3047,1506.5986,804.3047,1496.5986,808.3047,1500.5986,804.3047" style="stroke:#181818;stroke-width:1.0;"/><line style="stroke:#181818;stroke-width:1.0;" x1="242.5234" x2="1502.5986" y1="804.3047" y2="804.3047"/><text fill="#000000" font-family="sans-serif" font-size="13" font-weight="bold" lengthAdjust="spacing" textLength="32.5317" x="249.5234" y="799.042">15.18</text><text fill="#000000" font-family="sans-serif" font-size="13" lengthAdjust="spacing" textLength="109.0718" x="286.0552" y="799.042">toDTO(listIndustry)</text><polygon fill="#181818" points="1815.2793,831.5957,1825.2793,835.5957,1815.2793,839.5957,1819.2793,835.5957" style="stroke:#181818;stroke-width:1.0;"/><line style="stroke:#181818;stroke-width:1.0;stroke-dasharray:2.0,2.0;" x1="1518.5986" x2="1821.2793" y1="835.5957" y2="835.5957"/><text fill="#000000" font-family="sans-serif" font-size="13" font-weight="bold" lengthAdjust="spacing" textLength="32.5317" x="1525.5986" y="830.333">15.19</text><text fill="#000000" font-family="sans-serif" font-size="13" lengthAdjust="spacing" textLength="44.7891" x="1562.1304" y="830.333">create()</text><rect fill="#E3E3E3" height="51.2422" rx="2.5" ry="2.5" style="stroke:#181818;stroke-width:0.5;" width="135.3789" x="1827.2793" y="812.3047"/><text fill="#000000" font-family="sans-serif" font-size="14" lengthAdjust="spacing" textLength="96.4619" x="1846.7378" y="834.4121">listIndustryDTO</text><text fill="#000000" font-family="sans-serif" font-size="14" lengthAdjust="spacing" textLength="121.3789" x="1834.2793" y="853.0332">:List&lt;IndustryDTO&gt;</text><path d="M1446.0195,881.5469 L1518.4541,881.5469 L1518.4541,890.8379 L1508.4541,900.8379 L1446.0195,900.8379 L1446.0195,881.5469 " fill="#EEEEEE" style="stroke:#000000;stroke-width:1.5;"/><rect fill="none" height="216.1641" style="stroke:#000000;stroke-width:1.5;" width="526.6387" x="1446.0195" y="881.5469"/><text fill="#000000" font-family="sans-serif" font-size="13" font-weight="bold" lengthAdjust="spacing" textLength="27.4346" x="1461.0195" y="896.5752">loop</text><text fill="#000000" font-family="sans-serif" font-size="11" font-weight="bold" lengthAdjust="spacing" textLength="160.7407" x="1533.4541" y="895.417">[for each object in listIndustry]</text><polygon fill="#181818" points="1747.3657,920.1289,1757.3657,924.1289,1747.3657,928.1289,1751.3657,924.1289" style="stroke:#181818;stroke-width:1.0;"/><line style="stroke:#181818;stroke-width:1.0;" x1="1518.5986" x2="1753.3657" y1="924.1289" y2="924.1289"/><text fill="#000000" font-family="sans-serif" font-size="13" font-weight="bold" lengthAdjust="spacing" textLength="32.5317" x="1525.5986" y="918.8662">15.20</text><text fill="#000000" font-family="sans-serif" font-size="13" lengthAdjust="spacing" textLength="89.9526" x="1562.1304" y="918.8662">industry = get(i)</text><line style="stroke:#181818;stroke-width:1.0;" x1="1523.5986" x2="1565.5986" y1="985.4199" y2="985.4199"/><line style="stroke:#181818;stroke-width:1.0;" x1="1565.5986" x2="1565.5986" y1="985.4199" y2="998.4199"/><line style="stroke:#181818;stroke-width:1.0;" x1="1524.5986" x2="1565.5986" y1="998.4199" y2="998.4199"/><polygon fill="#181818" points="1534.5986,994.4199,1524.5986,998.4199,1534.5986,1002.4199,1530.5986,998.4199" style="stroke:#181818;stroke-width:1.0;"/><text fill="#000000" font-family="sans-serif" font-size="13" font-weight="bold" lengthAdjust="spacing" textLength="32.5317" x="1530.5986" y="980.1572">15.21</text><text fill="#000000" font-family="sans-serif" font-size="13" lengthAdjust="spacing" textLength="180.2354" x="1567.1304" y="980.1572">industryDTO = toDTO(industry)</text><polygon fill="#181818" points="1877.9688,1055.7109,1887.9688,1059.7109,1877.9688,1063.7109,1881.9688,1059.7109" style="stroke:#181818;stroke-width:1.0;"/><line style="stroke:#181818;stroke-width:1.0;" x1="1518.5986" x2="1883.9688" y1="1059.7109" y2="1059.7109"/><text fill="#000000" font-family="sans-serif" font-size="13" font-weight="bold" lengthAdjust="spacing" textLength="32.5317" x="1525.5986" y="1054.4482">15.22</text><text fill="#000000" font-family="sans-serif" font-size="13" lengthAdjust="spacing" textLength="103.3081" x="1562.1304" y="1054.4482">add(industryDTO)</text><polygon fill="#181818" points="253.5234,1124.002,243.5234,1128.002,253.5234,1132.002,249.5234,1128.002" style="stroke:#181818;stroke-width:1.0;"/><line style="stroke:#181818;stroke-width:1.0;stroke-dasharray:2.0,2.0;" x1="247.5234" x2="1512.5986" y1="1128.002" y2="1128.002"/><text fill="#000000" font-family="sans-serif" font-size="13" font-weight="bold" lengthAdjust="spacing" textLength="32.5317" x="259.5234" y="1122.7393">15.23</text><text fill="#000000" font-family="sans-serif" font-size="13" lengthAdjust="spacing" textLength="89.5718" x="296.0552" y="1122.7393">listIndustryDTO</text><polygon fill="#181818" points="11,1162.293,1,1166.293,11,1170.293,7,1166.293" style="stroke:#181818;stroke-width:1.0;"/><line style="stroke:#181818;stroke-width:1.0;stroke-dasharray:2.0,2.0;" x1="5" x2="236.5234" y1="1166.293" y2="1166.293"/><text fill="#000000" font-family="sans-serif" font-size="13" font-weight="bold" lengthAdjust="spacing" textLength="14.46" x="17" y="1161.0303">16</text><text fill="#000000" font-family="sans-serif" font-size="13" lengthAdjust="spacing" textLength="89.5718" x="35.46" y="1161.0303">listIndustryDTO</text><!--SRC=[dLPDR-8m4BtdLunwWagirCFk8MehLGLLaIWWmd4bv2O6iWGxSinM_FlrHsBis85eVKhiDszUnc_irCU2L8YX4vmeeTc1qHC6piuugirAXR8ZskEKNqeC36SSaNrf0-e3okbtGVQmGsMDeqXCyo8hAaGuFCHlUPwG_5npTdcdX3DQbfWz0AhXVREUk-0rhcXTSCeAN2l8UhPQfYw6MPZV90w7RDDayJ6VRPOBD_Y4gkbcAS8-rOCA-7nRRSMp1pJC5us_lfimcSkBgpMyRb6fXz20TjrTBdIjzCSbvaM1ayMqGnRFYve_j_LzLQXvacuwg1OWibPDyGNNLYHVpTOkjXI4BLme2F3BI3-77QTBx8IAAJTQbJn2Pqx9-VI56JpzZ2QloXCnx36NqSkT47ojmKZlthWJzkCfGXal_YAEjQL0Z3sZvme-C0TB0KZIIAtB8S4WSYh7WCgQa5huEyEZiK4PRkr5i8OEd1ZPjZKDCCSTXd3-gsEL4CTllMeictkwhckMGiVMlH8jMaziqorAv0ATS38DgMjxobRLpBbgD4L8IKiHL21bthA9fkqHfhesicN9cOOw_L_QrA5C6xh6LOOa71jr2wMA9DkzFzxXK2S3T8QSR8bKppq-nf0nB084ZmSlAQrWHnc8FJZ0aT1lOfh7Hpi997aCpT5rWHSfUbICWq56ipf3e6TOHb2us_dR3um1vVcerN4dlpd71cWmM0-CIUvE6b5gz-rZCUedJyCEq7uSmk6OIFlFQPKWXnkVXdh2zEe0WgQnl8QzNZKnS2fwUcIJ1Jh2kfkwfMtcdLsNnqI_jLrRqwy_uXT6MBM_gjrCjhtkMtoOlGPPonVHLh6mxhINfgRzhW_LTO2eq0xqrqPV2dRxgQlwRdcyQ-96YJoiqtmTT_YsjQDlVAiXjVyoVgcPvyb4kzedjWZLJqZq3m00]--></g></svg>