<svg xmlns="http://www.w3.org/2000/svg" xmlns:xlink="http://www.w3.org/1999/xlink" contentStyleType="text/css" height="838.6px" preserveAspectRatio="none" style="width:1688px;height:838px;background:#FFFFFF;" version="1.1" viewBox="0 0 1688 838" width="1688.4px" zoomAndPan="magnify"><defs/><g><rect fill="#FFFFFF" height="723.7275" style="stroke:#181818;stroke-width:0.6999999999999998;" width="7" x="224.4802" y="63.3732"/><rect fill="#FFFFFF" height="656.6164" style="stroke:#181818;stroke-width:0.6999999999999998;" width="7" x="463.5497" y="103.6807"/><rect fill="#FFFFFF" height="612.809" style="stroke:#181818;stroke-width:0.6999999999999998;" width="7" x="651.5383" y="125.5844"/><rect fill="#FFFFFF" height="65.7111" style="stroke:#181818;stroke-width:0.6999999999999998;" width="7" x="936.1034" y="147.4881"/><rect fill="#FFFFFF" height="65.7111" style="stroke:#181818;stroke-width:0.6999999999999998;" width="7" x="936.1034" y="650.7785"/><rect fill="#FFFFFF" height="21.9037" style="stroke:#181818;stroke-width:0.6999999999999998;" width="7" x="1039.1305" y="169.3918"/><rect fill="#FFFFFF" height="21.9037" style="stroke:#181818;stroke-width:0.6999999999999998;" width="7" x="1039.1305" y="672.6822"/><rect fill="#FFFFFF" height="393.7719" style="stroke:#181818;stroke-width:0.6999999999999998;" width="7" x="1097.3293" y="235.1029"/><rect fill="#FFFFFF" height="29.6037" style="stroke:#181818;stroke-width:0.6999999999999998;" width="7" x="1100.8293" y="572.4674"/><rect fill="#FFFFFF" height="279.326" style="stroke:#181818;stroke-width:0.6999999999999998;" width="7" x="1276.4534" y="257.0066"/><rect fill="#FFFFFF" height="21" style="stroke:#181818;stroke-width:0.6999999999999998;" width="7" x="1488.5028" y="278.9104"/><rect fill="#FFFFFF" height="21" style="stroke:#181818;stroke-width:0.6999999999999998;" width="7" x="1488.5028" y="321.8141"/><rect fill="#FFFFFF" height="21" style="stroke:#181818;stroke-width:0.6999999999999998;" width="7" x="1488.5028" y="364.7178"/><rect fill="#FFFFFF" height="21" style="stroke:#181818;stroke-width:0.6999999999999998;" width="7" x="1488.5028" y="407.6215"/><rect fill="#FFFFFF" height="21" style="stroke:#181818;stroke-width:0.6999999999999998;" width="7" x="1488.5028" y="450.5252"/><rect fill="#FFFFFF" height="21" style="stroke:#181818;stroke-width:0.6999999999999998;" width="7" x="1488.5028" y="493.4289"/><rect fill="none" height="692.0238" style="stroke:#000000;stroke-width:1.0499999999999998;" width="1516.9167" x="167.3291" y="73.8732"/><line style="stroke:#181818;stroke-width:0.3499999999999999;stroke-dasharray:5.0,5.0;" x1="227.5291" x2="227.5291" y1="40.0695" y2="799.7008"/><line style="stroke:#181818;stroke-width:0.3499999999999999;stroke-dasharray:5.0,5.0;" x1="467.0063" x2="467.0063" y1="40.0695" y2="799.7008"/><line style="stroke:#181818;stroke-width:0.3499999999999999;stroke-dasharray:5.0,5.0;" x1="654.756" x2="654.756" y1="40.0695" y2="799.7008"/><line style="stroke:#181818;stroke-width:0.3499999999999999;stroke-dasharray:5.0,5.0;" x1="939.3597" x2="939.3597" y1="40.0695" y2="799.7008"/><line style="stroke:#181818;stroke-width:0.3499999999999999;stroke-dasharray:5.0,5.0;" x1="1042.0368" x2="1042.0368" y1="40.0695" y2="799.7008"/><line style="stroke:#181818;stroke-width:0.3499999999999999;stroke-dasharray:5.0,5.0;" x1="1100.6242" x2="1100.6242" y1="40.0695" y2="799.7008"/><line style="stroke:#181818;stroke-width:0.3499999999999999;stroke-dasharray:5.0,5.0;" x1="1279.548" x2="1279.548" y1="40.0695" y2="799.7008"/><line style="stroke:#181818;stroke-width:0.3499999999999999;stroke-dasharray:5.0,5.0;" x1="1491.5684" x2="1491.5684" y1="40.0695" y2="799.7008"/><line style="stroke:#181818;stroke-width:0.3499999999999999;stroke-dasharray:5.0,5.0;" x1="1663.8686" x2="1663.8686" y1="542.2963" y2="799.7008"/><rect fill="#E3E3E3" height="22.8348" rx="1.75" ry="1.75" style="stroke:#181818;stroke-width:0.3499999999999999;" width="107.3023" x="174.3291" y="16.5348"/><text fill="#000000" font-family="sans-serif" font-size="9.8" lengthAdjust="spacing" textLength="97.5023" x="179.2291" y="32.01">:AddIndustryController</text><rect fill="#E3E3E3" height="22.8348" rx="1.75" ry="1.75" style="stroke:#181818;stroke-width:0.3499999999999999;" width="107.3023" x="174.3291" y="799.0008"/><text fill="#000000" font-family="sans-serif" font-size="9.8" lengthAdjust="spacing" textLength="97.5023" x="179.2291" y="814.476">:AddIndustryController</text><rect fill="#E3E3E3" height="35.8695" rx="1.75" ry="1.75" style="stroke:#181818;stroke-width:0.3499999999999999;" width="36.4868" x="448.8063" y="3.5"/><text fill="#000000" font-family="sans-serif" font-size="9.8" lengthAdjust="spacing" textLength="23.9641" x="455.0677" y="18.9752">maps</text><text fill="#000000" font-family="sans-serif" font-size="9.8" lengthAdjust="spacing" textLength="26.6868" x="453.7063" y="32.01">:Maps</text><rect fill="#E3E3E3" height="35.8695" rx="1.75" ry="1.75" style="stroke:#181818;stroke-width:0.3499999999999999;" width="36.4868" x="448.8063" y="799.0008"/><text fill="#000000" font-family="sans-serif" font-size="9.8" lengthAdjust="spacing" textLength="23.9641" x="455.0677" y="814.476">maps</text><text fill="#000000" font-family="sans-serif" font-size="9.8" lengthAdjust="spacing" textLength="26.6868" x="453.7063" y="827.5107">:Maps</text><rect fill="#E3E3E3" height="35.8695" rx="1.75" ry="1.75" style="stroke:#181818;stroke-width:0.3499999999999999;" width="59.3646" x="625.356" y="3.5"/><text fill="#000000" font-family="sans-serif" font-size="9.8" lengthAdjust="spacing" textLength="49.5646" x="630.256" y="18.9752">currentMap</text><text fill="#000000" font-family="sans-serif" font-size="9.8" lengthAdjust="spacing" textLength="21.7868" x="644.1449" y="32.01">:Map</text><rect fill="#E3E3E3" height="35.8695" rx="1.75" ry="1.75" style="stroke:#181818;stroke-width:0.3499999999999999;" width="59.3646" x="625.356" y="799.0008"/><text fill="#000000" font-family="sans-serif" font-size="9.8" lengthAdjust="spacing" textLength="49.5646" x="630.256" y="814.476">currentMap</text><text fill="#000000" font-family="sans-serif" font-size="9.8" lengthAdjust="spacing" textLength="21.7868" x="644.1449" y="827.5107">:Map</text><rect fill="#E3E3E3" height="35.8695" rx="1.75" ry="1.75" style="stroke:#181818;stroke-width:0.3499999999999999;" width="52.2874" x="913.4597" y="3.5"/><text fill="#000000" font-family="sans-serif" font-size="9.8" lengthAdjust="spacing" textLength="38.6784" x="920.2642" y="18.9752">positions</text><text fill="#000000" font-family="sans-serif" font-size="9.8" lengthAdjust="spacing" textLength="42.4874" x="918.3597" y="32.01">:Positions</text><rect fill="#E3E3E3" height="35.8695" rx="1.75" ry="1.75" style="stroke:#181818;stroke-width:0.3499999999999999;" width="52.2874" x="913.4597" y="799.0008"/><text fill="#000000" font-family="sans-serif" font-size="9.8" lengthAdjust="spacing" textLength="38.6784" x="920.2642" y="814.476">positions</text><text fill="#000000" font-family="sans-serif" font-size="9.8" lengthAdjust="spacing" textLength="42.4874" x="918.3597" y="827.5107">:Positions</text><rect fill="#E3E3E3" height="35.8695" rx="1.75" ry="1.75" style="stroke:#181818;stroke-width:0.3499999999999999;" width="47.3874" x="1018.9368" y="3.5"/><text fill="#000000" font-family="sans-serif" font-size="9.8" lengthAdjust="spacing" textLength="33.7784" x="1025.7413" y="18.9752">position</text><text fill="#000000" font-family="sans-serif" font-size="9.8" lengthAdjust="spacing" textLength="37.5874" x="1023.8368" y="32.01">:Position</text><rect fill="#E3E3E3" height="35.8695" rx="1.75" ry="1.75" style="stroke:#181818;stroke-width:0.3499999999999999;" width="47.3874" x="1018.9368" y="799.0008"/><text fill="#000000" font-family="sans-serif" font-size="9.8" lengthAdjust="spacing" textLength="33.7784" x="1025.7413" y="814.476">position</text><text fill="#000000" font-family="sans-serif" font-size="9.8" lengthAdjust="spacing" textLength="37.5874" x="1023.8368" y="827.5107">:Position</text><rect fill="#E3E3E3" height="35.8695" rx="1.75" ry="1.75" style="stroke:#181818;stroke-width:0.3499999999999999;" width="55.0102" x="1073.3242" y="3.5"/><text fill="#000000" font-family="sans-serif" font-size="9.8" lengthAdjust="spacing" textLength="41.9419" x="1079.8583" y="18.9752">industries</text><text fill="#000000" font-family="sans-serif" font-size="9.8" lengthAdjust="spacing" textLength="45.2102" x="1078.2242" y="32.01">:Industries</text><rect fill="#E3E3E3" height="35.8695" rx="1.75" ry="1.75" style="stroke:#181818;stroke-width:0.3499999999999999;" width="55.0102" x="1073.3242" y="799.0008"/><text fill="#000000" font-family="sans-serif" font-size="9.8" lengthAdjust="spacing" textLength="41.9419" x="1079.8583" y="814.476">industries</text><text fill="#000000" font-family="sans-serif" font-size="9.8" lengthAdjust="spacing" textLength="45.2102" x="1078.2242" y="827.5107">:Industries</text><rect fill="#E3E3E3" height="22.8348" rx="1.75" ry="1.75" style="stroke:#181818;stroke-width:0.3499999999999999;" width="80.6107" x="1239.648" y="16.5348"/><text fill="#000000" font-family="sans-serif" font-size="9.8" lengthAdjust="spacing" textLength="70.8107" x="1244.548" y="32.01">:IndustryMapper</text><rect fill="#E3E3E3" height="22.8348" rx="1.75" ry="1.75" style="stroke:#181818;stroke-width:0.3499999999999999;" width="80.6107" x="1239.648" y="799.0008"/><text fill="#000000" font-family="sans-serif" font-size="9.8" lengthAdjust="spacing" textLength="70.8107" x="1244.548" y="814.476">:IndustryMapper</text><rect fill="#E3E3E3" height="35.8695" rx="1.75" ry="1.75" style="stroke:#181818;stroke-width:0.3499999999999999;" width="68.0688" x="1457.9684" y="3.5"/><text fill="#000000" font-family="sans-serif" font-size="9.8" lengthAdjust="spacing" textLength="55.0006" x="1464.5025" y="18.9752">industryDTO</text><text fill="#000000" font-family="sans-serif" font-size="9.8" lengthAdjust="spacing" textLength="58.2688" x="1462.8684" y="32.01">:IndustryDTO</text><rect fill="#E3E3E3" height="35.8695" rx="1.75" ry="1.75" style="stroke:#181818;stroke-width:0.3499999999999999;" width="68.0688" x="1457.9684" y="799.0008"/><text fill="#000000" font-family="sans-serif" font-size="9.8" lengthAdjust="spacing" textLength="55.0006" x="1464.5025" y="814.476">industryDTO</text><text fill="#000000" font-family="sans-serif" font-size="9.8" lengthAdjust="spacing" textLength="58.2688" x="1462.8684" y="827.5107">:IndustryDTO</text><rect fill="#E3E3E3" height="22.8348" rx="1.75" ry="1.75" style="stroke:#181818;stroke-width:0.3499999999999999;" width="26.6772" x="1650.5686" y="799.0008"/><text fill="#000000" font-family="sans-serif" font-size="9.8" lengthAdjust="spacing" textLength="16.8772" x="1655.4686" y="814.476">IND</text><rect fill="#FFFFFF" height="723.7275" style="stroke:#181818;stroke-width:0.6999999999999998;" width="7" x="224.4802" y="63.3732"/><rect fill="#FFFFFF" height="656.6164" style="stroke:#181818;stroke-width:0.6999999999999998;" width="7" x="463.5497" y="103.6807"/><rect fill="#FFFFFF" height="612.809" style="stroke:#181818;stroke-width:0.6999999999999998;" width="7" x="651.5383" y="125.5844"/><rect fill="#FFFFFF" height="65.7111" style="stroke:#181818;stroke-width:0.6999999999999998;" width="7" x="936.1034" y="147.4881"/><rect fill="#FFFFFF" height="65.7111" style="stroke:#181818;stroke-width:0.6999999999999998;" width="7" x="936.1034" y="650.7785"/><rect fill="#FFFFFF" height="21.9037" style="stroke:#181818;stroke-width:0.6999999999999998;" width="7" x="1039.1305" y="169.3918"/><rect fill="#FFFFFF" height="21.9037" style="stroke:#181818;stroke-width:0.6999999999999998;" width="7" x="1039.1305" y="672.6822"/><rect fill="#FFFFFF" height="393.7719" style="stroke:#181818;stroke-width:0.6999999999999998;" width="7" x="1097.3293" y="235.1029"/><rect fill="#FFFFFF" height="29.6037" style="stroke:#181818;stroke-width:0.6999999999999998;" width="7" x="1100.8293" y="572.4674"/><rect fill="#FFFFFF" height="279.326" style="stroke:#181818;stroke-width:0.6999999999999998;" width="7" x="1276.4534" y="257.0066"/><rect fill="#FFFFFF" height="21" style="stroke:#181818;stroke-width:0.6999999999999998;" width="7" x="1488.5028" y="278.9104"/><rect fill="#FFFFFF" height="21" style="stroke:#181818;stroke-width:0.6999999999999998;" width="7" x="1488.5028" y="321.8141"/><rect fill="#FFFFFF" height="21" style="stroke:#181818;stroke-width:0.6999999999999998;" width="7" x="1488.5028" y="364.7178"/><rect fill="#FFFFFF" height="21" style="stroke:#181818;stroke-width:0.6999999999999998;" width="7" x="1488.5028" y="407.6215"/><rect fill="#FFFFFF" height="21" style="stroke:#181818;stroke-width:0.6999999999999998;" width="7" x="1488.5028" y="450.5252"/><rect fill="#FFFFFF" height="21" style="stroke:#181818;stroke-width:0.6999999999999998;" width="7" x="1488.5028" y="493.4289"/><polygon fill="#181818" points="216.0802,60.5732,223.0802,63.3732,216.0802,66.1732,218.8802,63.3732" style="stroke:#181818;stroke-width:0.6999999999999998;"/><line style="stroke:#181818;stroke-width:0.6999999999999998;" x1="0" x2="220.2802" y1="63.3732" y2="63.3732"/><text fill="#000000" font-family="sans-serif" font-size="9.1" font-weight="bold" lengthAdjust="spacing" textLength="10.122" x="4.9" y="59.6894">22</text><text fill="#000000" font-family="sans-serif" font-size="9.1" lengthAdjust="spacing" textLength="198.2583" x="17.822" y="59.6894">createAndAddIndustry(currentMap, industryDTO)</text><path d="M167.3291,73.8732 L304.5055,73.8732 L304.5055,80.377 L297.5055,87.377 L167.3291,87.377 L167.3291,73.8732 " fill="#EEEEEE" style="stroke:#000000;stroke-width:1.0499999999999998;"/><rect fill="none" height="692.0238" style="stroke:#000000;stroke-width:1.0499999999999998;" width="1516.9167" x="167.3291" y="73.8732"/><text fill="#000000" font-family="sans-serif" font-size="9.1" font-weight="bold" lengthAdjust="spacing" textLength="105.6764" x="177.8291" y="84.3931">Create and Add Industry</text><polygon fill="#181818" points="455.1497,100.8807,462.1497,103.6807,455.1497,106.4807,457.9497,103.6807" style="stroke:#181818;stroke-width:0.6999999999999998;"/><line style="stroke:#181818;stroke-width:0.6999999999999998;" x1="231.4802" x2="459.3497" y1="103.6807" y2="103.6807"/><text fill="#000000" font-family="sans-serif" font-size="9.1" font-weight="bold" lengthAdjust="spacing" textLength="17.7112" x="236.3802" y="99.9968">22.1</text><text fill="#000000" font-family="sans-serif" font-size="9.1" lengthAdjust="spacing" textLength="198.2583" x="256.8915" y="99.9968">createAndAddIndustry(currentMap, industryDTO)</text><polygon fill="#181818" points="643.1383,122.7844,650.1383,125.5844,643.1383,128.3844,645.9383,125.5844" style="stroke:#181818;stroke-width:0.6999999999999998;"/><line style="stroke:#181818;stroke-width:0.6999999999999998;" x1="470.5497" x2="647.3383" y1="125.5844" y2="125.5844"/><text fill="#000000" font-family="sans-serif" font-size="9.1" font-weight="bold" lengthAdjust="spacing" textLength="17.7112" x="475.4497" y="121.9005">22.2</text><text fill="#000000" font-family="sans-serif" font-size="9.1" lengthAdjust="spacing" textLength="147.1774" x="495.9609" y="121.9005">createAndAddIndustry(industryDTO)</text><polygon fill="#181818" points="927.7034,144.6881,934.7034,147.4881,927.7034,150.2881,930.5034,147.4881" style="stroke:#181818;stroke-width:0.6999999999999998;"/><line style="stroke:#181818;stroke-width:0.6999999999999998;" x1="658.5383" x2="931.9034" y1="147.4881" y2="147.4881"/><text fill="#000000" font-family="sans-serif" font-size="9.1" font-weight="bold" lengthAdjust="spacing" textLength="17.7112" x="663.4383" y="143.8042">22.3</text><text fill="#000000" font-family="sans-serif" font-size="9.1" lengthAdjust="spacing" textLength="243.7538" x="683.9496" y="143.8042">isPositionAvailable(industryDTO.getX(), industryDTO.getY())</text><polygon fill="#181818" points="1030.7305,166.5918,1037.7305,169.3918,1030.7305,172.1918,1033.5305,169.3918" style="stroke:#181818;stroke-width:0.6999999999999998;"/><line style="stroke:#181818;stroke-width:0.6999999999999998;" x1="943.1034" x2="1034.9305" y1="169.3918" y2="169.3918"/><text fill="#000000" font-family="sans-serif" font-size="9.1" font-weight="bold" lengthAdjust="spacing" textLength="17.7112" x="948.0034" y="165.7079">22.4</text><text fill="#000000" font-family="sans-serif" font-size="9.1" lengthAdjust="spacing" textLength="49.5612" x="968.5146" y="165.7079">isAvailable()</text><polygon fill="#181818" points="950.8034,188.4955,943.8034,191.2955,950.8034,194.0955,948.0034,191.2955" style="stroke:#181818;stroke-width:0.6999999999999998;"/><line style="stroke:#181818;stroke-width:0.6999999999999998;stroke-dasharray:2.0,2.0;" x1="946.6034" x2="1041.9305" y1="191.2955" y2="191.2955"/><text fill="#000000" font-family="sans-serif" font-size="9.1" font-weight="bold" lengthAdjust="spacing" textLength="17.7112" x="955.0034" y="187.6116">22.5</text><text fill="#000000" font-family="sans-serif" font-size="9.1" lengthAdjust="spacing" textLength="15.6806" x="975.5146" y="187.6116">true</text><polygon fill="#181818" points="666.2383,210.3992,659.2383,213.1992,666.2383,215.9992,663.4383,213.1992" style="stroke:#181818;stroke-width:0.6999999999999998;"/><line style="stroke:#181818;stroke-width:0.6999999999999998;stroke-dasharray:2.0,2.0;" x1="662.0383" x2="938.9034" y1="213.1992" y2="213.1992"/><text fill="#000000" font-family="sans-serif" font-size="9.1" font-weight="bold" lengthAdjust="spacing" textLength="17.7112" x="670.4383" y="209.5153">22.6</text><text fill="#000000" font-family="sans-serif" font-size="9.1" lengthAdjust="spacing" textLength="32.872" x="690.9496" y="209.5153">success</text><polygon fill="#181818" points="1088.9293,232.3029,1095.9293,235.1029,1088.9293,237.9029,1091.7293,235.1029" style="stroke:#181818;stroke-width:0.6999999999999998;"/><line style="stroke:#181818;stroke-width:0.6999999999999998;" x1="658.5383" x2="1093.1293" y1="235.1029" y2="235.1029"/><text fill="#000000" font-family="sans-serif" font-size="9.1" font-weight="bold" lengthAdjust="spacing" textLength="17.7112" x="663.4383" y="231.419">22.7</text><text fill="#000000" font-family="sans-serif" font-size="9.1" lengthAdjust="spacing" textLength="105.6942" x="683.9496" y="231.419">AddIndustry(industryDTO)</text><polygon fill="#181818" points="1268.0534,254.2066,1275.0534,257.0066,1268.0534,259.8066,1270.8534,257.0066" style="stroke:#181818;stroke-width:0.6999999999999998;"/><line style="stroke:#181818;stroke-width:0.6999999999999998;" x1="1104.3293" x2="1272.2534" y1="257.0066" y2="257.0066"/><text fill="#000000" font-family="sans-serif" font-size="9.1" font-weight="bold" lengthAdjust="spacing" textLength="17.7112" x="1109.2293" y="253.3228">22.8</text><text fill="#000000" font-family="sans-serif" font-size="9.1" lengthAdjust="spacing" textLength="138.3129" x="1129.7405" y="253.3228">industry = toDomain(industryDTO)</text><polygon fill="#181818" points="1480.1028,276.1104,1487.1028,278.9104,1480.1028,281.7104,1482.9028,278.9104" style="stroke:#181818;stroke-width:0.6999999999999998;"/><line style="stroke:#181818;stroke-width:0.6999999999999998;" x1="1283.4534" x2="1484.3028" y1="278.9104" y2="278.9104"/><text fill="#000000" font-family="sans-serif" font-size="9.1" font-weight="bold" lengthAdjust="spacing" textLength="17.7112" x="1288.3534" y="275.2265">22.9</text><text fill="#000000" font-family="sans-serif" font-size="9.1" lengthAdjust="spacing" textLength="94.3192" x="1308.8646" y="275.2265">nameID = getNameID()</text><polygon fill="#181818" points="1480.1028,319.0141,1487.1028,321.8141,1480.1028,324.6141,1482.9028,321.8141" style="stroke:#181818;stroke-width:0.6999999999999998;"/><line style="stroke:#181818;stroke-width:0.6999999999999998;" x1="1283.4534" x2="1484.3028" y1="321.8141" y2="321.8141"/><text fill="#000000" font-family="sans-serif" font-size="9.1" font-weight="bold" lengthAdjust="spacing" textLength="22.7722" x="1288.3534" y="318.1302">22.10</text><text fill="#000000" font-family="sans-serif" font-size="9.1" lengthAdjust="spacing" textLength="66.5126" x="1313.9256" y="318.1302">type = getType()</text><polygon fill="#181818" points="1480.1028,361.9178,1487.1028,364.7178,1480.1028,367.5178,1482.9028,364.7178" style="stroke:#181818;stroke-width:0.6999999999999998;"/><line style="stroke:#181818;stroke-width:0.6999999999999998;" x1="1283.4534" x2="1484.3028" y1="364.7178" y2="364.7178"/><text fill="#000000" font-family="sans-serif" font-size="9.1" font-weight="bold" lengthAdjust="spacing" textLength="22.7722" x="1288.3534" y="361.0339">22.11</text><text fill="#000000" font-family="sans-serif" font-size="9.1" lengthAdjust="spacing" textLength="92.8218" x="1313.9256" y="361.0339">position = getPosition()</text><polygon fill="#181818" points="1480.1028,404.8215,1487.1028,407.6215,1480.1028,410.4215,1482.9028,407.6215" style="stroke:#181818;stroke-width:0.6999999999999998;"/><line style="stroke:#181818;stroke-width:0.6999999999999998;" x1="1283.4534" x2="1484.3028" y1="407.6215" y2="407.6215"/><text fill="#000000" font-family="sans-serif" font-size="9.1" font-weight="bold" lengthAdjust="spacing" textLength="22.7722" x="1288.3534" y="403.9376">22.12</text><text fill="#000000" font-family="sans-serif" font-size="9.1" lengthAdjust="spacing" textLength="152.4961" x="1313.9256" y="403.9376">availabilityYear = getAvailabilityYear()</text><polygon fill="#181818" points="1480.1028,447.7252,1487.1028,450.5252,1480.1028,453.3252,1482.9028,450.5252" style="stroke:#181818;stroke-width:0.6999999999999998;"/><line style="stroke:#181818;stroke-width:0.6999999999999998;" x1="1283.4534" x2="1484.3028" y1="450.5252" y2="450.5252"/><text fill="#000000" font-family="sans-serif" font-size="9.1" font-weight="bold" lengthAdjust="spacing" textLength="22.7722" x="1288.3534" y="446.8413">22.13</text><text fill="#000000" font-family="sans-serif" font-size="9.1" lengthAdjust="spacing" textLength="166.1772" x="1313.9256" y="446.8413">demandedCargo = getDemandedCargo()</text><polygon fill="#181818" points="1480.1028,490.6289,1487.1028,493.4289,1480.1028,496.2289,1482.9028,493.4289" style="stroke:#181818;stroke-width:0.6999999999999998;"/><line style="stroke:#181818;stroke-width:0.6999999999999998;" x1="1283.4534" x2="1484.3028" y1="493.4289" y2="493.4289"/><text fill="#000000" font-family="sans-serif" font-size="9.1" font-weight="bold" lengthAdjust="spacing" textLength="22.7722" x="1288.3534" y="489.745">22.14</text><text fill="#000000" font-family="sans-serif" font-size="9.1" lengthAdjust="spacing" textLength="147.9683" x="1313.9256" y="489.745">suppliedCargo = getSuppliedCargo()</text><polygon fill="#181818" points="1642.1686,533.5326,1649.1686,536.3326,1642.1686,539.1326,1644.9686,536.3326" style="stroke:#181818;stroke-width:0.6999999999999998;"/><line style="stroke:#181818;stroke-width:0.6999999999999998;" x1="1279.9534" x2="1646.3686" y1="536.3326" y2="536.3326"/><text fill="#000000" font-family="sans-serif" font-size="9.1" font-weight="bold" lengthAdjust="spacing" textLength="22.7722" x="1284.8534" y="532.6487">22.15</text><text fill="#000000" font-family="sans-serif" font-size="9.1" lengthAdjust="spacing" textLength="324.7429" x="1310.4256" y="532.6487">create(nameID, type, position, availabilityYear, demandedCargo, suppliedCargo)</text><rect fill="#E3E3E3" height="22.8348" rx="1.75" ry="1.75" style="stroke:#181818;stroke-width:0.3499999999999999;" width="26.6772" x="1650.5686" y="520.0289"/><text fill="#000000" font-family="sans-serif" font-size="9.8" lengthAdjust="spacing" textLength="16.8772" x="1655.4686" y="535.5041">IND</text><line style="stroke:#181818;stroke-width:0.6999999999999998;" x1="1104.3293" x2="1137.2293" y1="563.3674" y2="563.3674"/><line style="stroke:#181818;stroke-width:0.6999999999999998;" x1="1137.2293" x2="1137.2293" y1="563.3674" y2="572.4674"/><line style="stroke:#181818;stroke-width:0.6999999999999998;" x1="1108.5293" x2="1137.2293" y1="572.4674" y2="572.4674"/><polygon fill="#181818" points="1115.5293,569.6674,1108.5293,572.4674,1115.5293,575.2674,1112.7293,572.4674" style="stroke:#181818;stroke-width:0.6999999999999998;"/><text fill="#000000" font-family="sans-serif" font-size="9.1" font-weight="bold" lengthAdjust="spacing" textLength="22.7722" x="1112.7293" y="559.6835">22.16</text><text fill="#000000" font-family="sans-serif" font-size="9.1" lengthAdjust="spacing" textLength="53.107" x="1138.3015" y="559.6835">add(industry)</text><line style="stroke:#181818;stroke-width:0.6999999999999998;stroke-dasharray:2.0,2.0;" x1="1107.8293" x2="1137.2293" y1="601.3711" y2="601.3711"/><line style="stroke:#181818;stroke-width:0.6999999999999998;stroke-dasharray:2.0,2.0;" x1="1137.2293" x2="1137.2293" y1="601.3711" y2="610.4711"/><line style="stroke:#181818;stroke-width:0.6999999999999998;stroke-dasharray:2.0,2.0;" x1="1104.3293" x2="1137.2293" y1="610.4711" y2="610.4711"/><polygon fill="#181818" points="1111.3293,607.6711,1104.3293,610.4711,1111.3293,613.2711,1108.5293,610.4711" style="stroke:#181818;stroke-width:0.6999999999999998;"/><text fill="#000000" font-family="sans-serif" font-size="9.1" font-weight="bold" lengthAdjust="spacing" textLength="22.7722" x="1112.7293" y="597.6872">22.17</text><text fill="#000000" font-family="sans-serif" font-size="9.1" lengthAdjust="spacing" textLength="15.6806" x="1138.3015" y="597.6872">true</text><polygon fill="#181818" points="666.2383,626.0748,659.2383,628.8748,666.2383,631.6748,663.4383,628.8748" style="stroke:#181818;stroke-width:0.6999999999999998;"/><line style="stroke:#181818;stroke-width:0.6999999999999998;stroke-dasharray:2.0,2.0;" x1="662.0383" x2="1100.1293" y1="628.8748" y2="628.8748"/><text fill="#000000" font-family="sans-serif" font-size="9.1" font-weight="bold" lengthAdjust="spacing" textLength="22.7722" x="670.4383" y="625.1909">22.18</text><text fill="#000000" font-family="sans-serif" font-size="9.1" lengthAdjust="spacing" textLength="32.872" x="696.0105" y="625.1909">success</text><polygon fill="#181818" points="927.7034,647.9785,934.7034,650.7785,927.7034,653.5785,930.5034,650.7785" style="stroke:#181818;stroke-width:0.6999999999999998;"/><line style="stroke:#181818;stroke-width:0.6999999999999998;" x1="658.5383" x2="931.9034" y1="650.7785" y2="650.7785"/><text fill="#000000" font-family="sans-serif" font-size="9.1" font-weight="bold" lengthAdjust="spacing" textLength="22.7722" x="663.4383" y="647.0946">22.19</text><text fill="#000000" font-family="sans-serif" font-size="9.1" lengthAdjust="spacing" textLength="218.9732" x="689.0105" y="647.0946">setOcuppied(industryDTO.getX(), industryDTO.getY())</text><polygon fill="#181818" points="1030.7305,669.8822,1037.7305,672.6822,1030.7305,675.4822,1033.5305,672.6822" style="stroke:#181818;stroke-width:0.6999999999999998;"/><line style="stroke:#181818;stroke-width:0.6999999999999998;" x1="943.1034" x2="1034.9305" y1="672.6822" y2="672.6822"/><text fill="#000000" font-family="sans-serif" font-size="9.1" font-weight="bold" lengthAdjust="spacing" textLength="22.7722" x="948.0034" y="668.9983">22.20</text><text fill="#000000" font-family="sans-serif" font-size="9.1" lengthAdjust="spacing" textLength="57.1549" x="973.5756" y="668.9983">setOcuppied()</text><polygon fill="#181818" points="950.8034,691.7859,943.8034,694.5859,950.8034,697.3859,948.0034,694.5859" style="stroke:#181818;stroke-width:0.6999999999999998;"/><line style="stroke:#181818;stroke-width:0.6999999999999998;stroke-dasharray:2.0,2.0;" x1="946.6034" x2="1041.9305" y1="694.5859" y2="694.5859"/><text fill="#000000" font-family="sans-serif" font-size="9.1" font-weight="bold" lengthAdjust="spacing" textLength="22.7722" x="955.0034" y="690.9021">22.21</text><text fill="#000000" font-family="sans-serif" font-size="9.1" lengthAdjust="spacing" textLength="32.872" x="980.5756" y="690.9021">success</text><polygon fill="#181818" points="666.2383,713.6896,659.2383,716.4896,666.2383,719.2896,663.4383,716.4896" style="stroke:#181818;stroke-width:0.6999999999999998;"/><line style="stroke:#181818;stroke-width:0.6999999999999998;stroke-dasharray:2.0,2.0;" x1="662.0383" x2="938.9034" y1="716.4896" y2="716.4896"/><text fill="#000000" font-family="sans-serif" font-size="9.1" font-weight="bold" lengthAdjust="spacing" textLength="22.7722" x="670.4383" y="712.8058">22.22</text><text fill="#000000" font-family="sans-serif" font-size="9.1" lengthAdjust="spacing" textLength="32.872" x="696.0105" y="712.8058">success</text><polygon fill="#181818" points="478.2497,735.5934,471.2497,738.3934,478.2497,741.1934,475.4497,738.3934" style="stroke:#181818;stroke-width:0.6999999999999998;"/><line style="stroke:#181818;stroke-width:0.6999999999999998;stroke-dasharray:2.0,2.0;" x1="474.0497" x2="654.3383" y1="738.3934" y2="738.3934"/><text fill="#000000" font-family="sans-serif" font-size="9.1" font-weight="bold" lengthAdjust="spacing" textLength="22.7722" x="482.4497" y="734.7095">22.23</text><text fill="#000000" font-family="sans-serif" font-size="9.1" lengthAdjust="spacing" textLength="32.872" x="508.0219" y="734.7095">success</text><polygon fill="#181818" points="239.1802,757.4971,232.1802,760.2971,239.1802,763.0971,236.3802,760.2971" style="stroke:#181818;stroke-width:0.6999999999999998;"/><line style="stroke:#181818;stroke-width:0.6999999999999998;stroke-dasharray:2.0,2.0;" x1="234.9802" x2="466.3497" y1="760.2971" y2="760.2971"/><text fill="#000000" font-family="sans-serif" font-size="9.1" font-weight="bold" lengthAdjust="spacing" textLength="22.7722" x="243.3802" y="756.6132">22.24</text><text fill="#000000" font-family="sans-serif" font-size="9.1" lengthAdjust="spacing" textLength="32.872" x="268.9524" y="756.6132">success</text><polygon fill="#181818" points="7.7,784.3008,0.7,787.1008,7.7,789.9008,4.9,787.1008" style="stroke:#181818;stroke-width:0.6999999999999998;"/><line style="stroke:#181818;stroke-width:0.6999999999999998;stroke-dasharray:2.0,2.0;" x1="3.5" x2="227.2802" y1="787.1008" y2="787.1008"/><text fill="#000000" font-family="sans-serif" font-size="9.1" font-weight="bold" lengthAdjust="spacing" textLength="10.122" x="11.9" y="783.4169">23</text><text fill="#000000" font-family="sans-serif" font-size="9.1" lengthAdjust="spacing" textLength="32.872" x="24.822" y="783.4169">success</text><!--SRC=[pLT1Rvim5BxpAvvwMQYIIkjkqJOfIdP0MfEeoM6LAbKkUDGgsCWsdVZtUzX0R1eITjWMBc3xy_S-lsS_FzGhumMH98TSS16_I95JqBAaWUf62XA_afJkT9LHa3JMXAUP2r0l916_64_X9yaK3GBirYnc1U4QhkQB98buKYejgwNWMeeie_8AY8Bb_lwx3yv9eHxv_0vV1d6tsEvyH5nAIRb6XCMrC1zL2CKq4xmcsxRV1hhTxA9zj5dlZazmy2tS1pAx54PhwgXh672qNlNGBQ92fKMpQaGzeU3jj_kZpDLglpbGroqp2zzFE3C8IAa5B_DdAk7sDfXzDLwSGomfqNJ14yVTauEpfk3GXyWIQ_Q64smCe7ayxfkFNN_zf5AK1IoD6I0y0JG4hQN0WzQSWCfC-63-PzAWztHApLxeZneBQ0hV0puOJVvkiE6lwRjT0tDWgjqXYpV2ClASKTV8JKhrZqdehQhkUvY4uL4JdOR3reI1vo33QZ9g3Yh2mOckZK5GOm5clGMRV30q8Q6Zk1tbDbh8gyeufae5vsaRjmIdGbGVlZcCZhpd5NDmXwJNWus1vjpMRc-uuGjeiH8vOVoylRxDDWsS2eXZ5JKqMG05S9BJQ8NcSMkjpVU9y7k6sqno2kouVmnyIAIk2cebxl7h0WMsQT-ARC_r1Gebzf2pZEdgWH9f1IzwlHSeFA4vNXOqMHAP2gjwvNPTe6HL5aN6FCaxj-jY96Fh-XhQUszYKyBKdBffjxMdx_REr0_Ar5zmE2RLEybhJDwiRn6I95s679SUpwNa0_VO6ygG1kTf_Vif6CCwidXGL6zYT3Tw-pyM3QwAlrGqdBhS_tNTC1WRItbAhiDth4IqvMTJX0_G-1Jz_VS1TdOE_bgf0lzI_8rCUUArtGhzandvF9lrhJiMJNd_6m00]--></g></svg>