<svg xmlns="http://www.w3.org/2000/svg" xmlns:xlink="http://www.w3.org/1999/xlink" contentStyleType="text/css" height="1147px" preserveAspectRatio="none" style="width:1992px;height:1147px;background:#FFFFFF;" version="1.1" viewBox="0 0 1992 1147" width="1992px" zoomAndPan="magnify"><defs/><g><rect fill="#FFFFFF" height="982.8379" style="stroke:#181818;stroke-width:1.0;" width="10" x="208.6816" y="90.5332"/><rect fill="#FFFFFF" height="31.291" style="stroke:#181818;stroke-width:1.0;" width="10" x="444.9912" y="148.1152"/><rect fill="#FFFFFF" height="31.291" style="stroke:#181818;stroke-width:1.0;" width="10" x="444.9912" y="273.2793"/><rect fill="#FFFFFF" height="31.291" style="stroke:#181818;stroke-width:1.0;" width="10" x="558.8633" y="210.6973"/><rect fill="#FFFFFF" height="311.9883" style="stroke:#181818;stroke-width:1.0;" width="10" x="750.0386" y="335.8613"/><rect fill="#FFFFFF" height="249.4063" style="stroke:#181818;stroke-width:1.0;" width="10" x="1040.271" y="367.1523"/><rect fill="#FFFFFF" height="30" style="stroke:#181818;stroke-width:1.0;" width="10" x="1258.6226" y="486.9766"/><rect fill="#FFFFFF" height="355.9395" style="stroke:#181818;stroke-width:1.0;" width="10" x="1384.5703" y="679.1406"/><rect fill="#FFFFFF" height="36.291" style="stroke:#181818;stroke-width:1.0;" width="10" x="1389.5703" y="868.2559"/><rect fill="#FFFFFF" height="30" style="stroke:#181818;stroke-width:1.0;" width="10" x="1642.5737" y="548.2676"/><rect fill="#FFFFFF" height="30" style="stroke:#181818;stroke-width:1.0;" width="10" x="1642.5737" y="798.9648"/><rect fill="#FFFFFF" height="30" style="stroke:#181818;stroke-width:1.0;" width="10" x="1778.6318" y="966.7891"/><rect fill="none" height="937.5469" style="stroke:#000000;stroke-width:1.5;" width="1859.708" x="127.0371" y="105.5332"/><rect fill="none" height="141.873" style="stroke:#000000;stroke-width:1.5;" width="718.0161" x="995.1987" y="444.3945"/><rect fill="none" height="248.4063" style="stroke:#000000;stroke-width:1.5;" width="657.4814" x="1319.2637" y="756.3828"/><line style="stroke:#181818;stroke-width:0.5;stroke-dasharray:5.0,5.0;" x1="213.0371" x2="213.0371" y1="57.2422" y2="1091.3711"/><line style="stroke:#181818;stroke-width:0.5;stroke-dasharray:5.0,5.0;" x1="345.3262" x2="345.3262" y1="57.2422" y2="1091.3711"/><line style="stroke:#181818;stroke-width:0.5;stroke-dasharray:5.0,5.0;" x1="449.1396" x2="449.1396" y1="57.2422" y2="1091.3711"/><line style="stroke:#181818;stroke-width:0.5;stroke-dasharray:5.0,5.0;" x1="563.8428" x2="563.8428" y1="57.2422" y2="1091.3711"/><line style="stroke:#181818;stroke-width:0.5;stroke-dasharray:5.0,5.0;" x1="651.8838" x2="651.8838" y1="57.2422" y2="1091.3711"/><line style="stroke:#181818;stroke-width:0.5;stroke-dasharray:5.0,5.0;" x1="755.0078" x2="755.0078" y1="57.2422" y2="1091.3711"/><line style="stroke:#181818;stroke-width:0.5;stroke-dasharray:5.0,5.0;" x1="1045.1987" x2="1045.1987" y1="57.2422" y2="1091.3711"/><line style="stroke:#181818;stroke-width:0.5;stroke-dasharray:5.0,5.0;" x1="1262.9814" x2="1262.9814" y1="57.2422" y2="1091.3711"/><line style="stroke:#181818;stroke-width:0.5;stroke-dasharray:5.0,5.0;" x1="1389.2637" x2="1389.2637" y1="57.2422" y2="1091.3711"/><line style="stroke:#181818;stroke-width:0.5;stroke-dasharray:5.0,5.0;" x1="1646.9326" x2="1646.9326" y1="416.2734" y2="1091.3711"/><line style="stroke:#181818;stroke-width:0.5;stroke-dasharray:5.0,5.0;" x1="1783.2148" x2="1783.2148" y1="728.2617" y2="1091.3711"/><line style="stroke:#181818;stroke-width:0.5;stroke-dasharray:5.0,5.0;" x1="1915.0488" x2="1915.0488" y1="922.377" y2="1091.3711"/><rect fill="#E3E3E3" height="32.6211" rx="2.5" ry="2.5" style="stroke:#181818;stroke-width:0.5;" width="153.2891" x="137.0371" y="23.6211"/><text fill="#000000" font-family="sans-serif" font-size="14" lengthAdjust="spacing" textLength="139.2891" x="144.0371" y="45.7285">:AddIndustryController</text><rect fill="#E3E3E3" height="32.6211" rx="2.5" ry="2.5" style="stroke:#181818;stroke-width:0.5;" width="153.2891" x="137.0371" y="1090.3711"/><text fill="#000000" font-family="sans-serif" font-size="14" lengthAdjust="spacing" textLength="139.2891" x="144.0371" y="1112.4785">:AddIndustryController</text><rect fill="#E3E3E3" height="32.6211" rx="2.5" ry="2.5" style="stroke:#181818;stroke-width:0.5;" width="91.8135" x="300.3262" y="23.6211"/><text fill="#000000" font-family="sans-serif" font-size="14" lengthAdjust="spacing" textLength="77.8135" x="307.3262" y="45.7285">Repositories</text><rect fill="#E3E3E3" height="32.6211" rx="2.5" ry="2.5" style="stroke:#181818;stroke-width:0.5;" width="91.8135" x="300.3262" y="1090.3711"/><text fill="#000000" font-family="sans-serif" font-size="14" lengthAdjust="spacing" textLength="77.8135" x="307.3262" y="1112.4785">Repositories</text><rect fill="#E3E3E3" height="51.2422" rx="2.5" ry="2.5" style="stroke:#181818;stroke-width:0.5;" width="95.7031" x="402.1396" y="5"/><text fill="#000000" font-family="sans-serif" font-size="14" lengthAdjust="spacing" textLength="72.3652" x="413.8086" y="27.1074">repositories</text><text fill="#000000" font-family="sans-serif" font-size="14" lengthAdjust="spacing" textLength="81.7031" x="409.1396" y="45.7285">:Repositories</text><rect fill="#E3E3E3" height="51.2422" rx="2.5" ry="2.5" style="stroke:#181818;stroke-width:0.5;" width="95.7031" x="402.1396" y="1090.3711"/><text fill="#000000" font-family="sans-serif" font-size="14" lengthAdjust="spacing" textLength="72.3652" x="413.8086" y="1112.4785">repositories</text><text fill="#000000" font-family="sans-serif" font-size="14" lengthAdjust="spacing" textLength="81.7031" x="409.1396" y="1131.0996">:Repositories</text><rect fill="#E3E3E3" height="51.2422" rx="2.5" ry="2.5" style="stroke:#181818;stroke-width:0.5;" width="112.041" x="507.8428" y="5"/><text fill="#000000" font-family="sans-serif" font-size="14" lengthAdjust="spacing" textLength="94.1514" x="516.7876" y="27.1074">mapRepository</text><text fill="#000000" font-family="sans-serif" font-size="14" lengthAdjust="spacing" textLength="98.041" x="514.8428" y="45.7285">:MapRepository</text><rect fill="#E3E3E3" height="51.2422" rx="2.5" ry="2.5" style="stroke:#181818;stroke-width:0.5;" width="112.041" x="507.8428" y="1090.3711"/><text fill="#000000" font-family="sans-serif" font-size="14" lengthAdjust="spacing" textLength="94.1514" x="516.7876" y="1112.4785">mapRepository</text><text fill="#000000" font-family="sans-serif" font-size="14" lengthAdjust="spacing" textLength="98.041" x="514.8428" y="1131.0996">:MapRepository</text><rect fill="#E3E3E3" height="51.2422" rx="2.5" ry="2.5" style="stroke:#181818;stroke-width:0.5;" width="45.124" x="629.8838" y="5"/><text fill="#000000" font-family="sans-serif" font-size="14" lengthAdjust="spacing" textLength="27.2344" x="638.8286" y="27.1074">map</text><text fill="#000000" font-family="sans-serif" font-size="14" lengthAdjust="spacing" textLength="31.124" x="636.8838" y="45.7285">:Map</text><rect fill="#E3E3E3" height="51.2422" rx="2.5" ry="2.5" style="stroke:#181818;stroke-width:0.5;" width="45.124" x="629.8838" y="1090.3711"/><text fill="#000000" font-family="sans-serif" font-size="14" lengthAdjust="spacing" textLength="27.2344" x="638.8286" y="1112.4785">map</text><text fill="#000000" font-family="sans-serif" font-size="14" lengthAdjust="spacing" textLength="31.124" x="636.8838" y="1131.0996">:Map</text><rect fill="#E3E3E3" height="51.2422" rx="2.5" ry="2.5" style="stroke:#181818;stroke-width:0.5;" width="140.0615" x="685.0078" y="5"/><text fill="#000000" font-family="sans-serif" font-size="14" lengthAdjust="spacing" textLength="119.834" x="695.1216" y="27.1074">scenarioRepository</text><text fill="#000000" font-family="sans-serif" font-size="14" lengthAdjust="spacing" textLength="126.0615" x="692.0078" y="45.7285">:ScenarioRepository</text><rect fill="#E3E3E3" height="51.2422" rx="2.5" ry="2.5" style="stroke:#181818;stroke-width:0.5;" width="140.0615" x="685.0078" y="1090.3711"/><text fill="#000000" font-family="sans-serif" font-size="14" lengthAdjust="spacing" textLength="119.834" x="695.1216" y="1112.4785">scenarioRepository</text><text fill="#000000" font-family="sans-serif" font-size="14" lengthAdjust="spacing" textLength="126.0615" x="692.0078" y="1131.0996">:ScenarioRepository</text><rect fill="#E3E3E3" height="51.2422" rx="2.5" ry="2.5" style="stroke:#181818;stroke-width:0.5;" width="80.1445" x="1005.1987" y="5"/><text fill="#000000" font-family="sans-serif" font-size="14" lengthAdjust="spacing" textLength="59.917" x="1015.3125" y="27.1074">scenarios</text><text fill="#000000" font-family="sans-serif" font-size="14" lengthAdjust="spacing" textLength="66.1445" x="1012.1987" y="45.7285">:Scenarios</text><rect fill="#E3E3E3" height="51.2422" rx="2.5" ry="2.5" style="stroke:#181818;stroke-width:0.5;" width="80.1445" x="1005.1987" y="1090.3711"/><text fill="#000000" font-family="sans-serif" font-size="14" lengthAdjust="spacing" textLength="59.917" x="1015.3125" y="1112.4785">scenarios</text><text fill="#000000" font-family="sans-serif" font-size="14" lengthAdjust="spacing" textLength="66.1445" x="1012.1987" y="1131.0996">:Scenarios</text><rect fill="#E3E3E3" height="32.6211" rx="2.5" ry="2.5" style="stroke:#181818;stroke-width:0.5;" width="111.2822" x="1207.9814" y="23.6211"/><text fill="#000000" font-family="sans-serif" font-size="14" lengthAdjust="spacing" textLength="97.2822" x="1214.9814" y="45.7285">:List&lt;Scenario&gt;</text><rect fill="#E3E3E3" height="32.6211" rx="2.5" ry="2.5" style="stroke:#181818;stroke-width:0.5;" width="111.2822" x="1207.9814" y="1090.3711"/><text fill="#000000" font-family="sans-serif" font-size="14" lengthAdjust="spacing" textLength="97.2822" x="1214.9814" y="1112.4785">:List&lt;Scenario&gt;</text><rect fill="#E3E3E3" height="32.6211" rx="2.5" ry="2.5" style="stroke:#181818;stroke-width:0.5;" width="120.6133" x="1329.2637" y="23.6211"/><text fill="#000000" font-family="sans-serif" font-size="14" lengthAdjust="spacing" textLength="106.6133" x="1336.2637" y="45.7285">:ScenarioMapper</text><rect fill="#E3E3E3" height="32.6211" rx="2.5" ry="2.5" style="stroke:#181818;stroke-width:0.5;" width="120.6133" x="1329.2637" y="1090.3711"/><text fill="#000000" font-family="sans-serif" font-size="14" lengthAdjust="spacing" textLength="106.6133" x="1336.2637" y="1112.4785">:ScenarioMapper</text><rect fill="#E3E3E3" height="51.2422" rx="2.5" ry="2.5" style="stroke:#181818;stroke-width:0.5;" width="111.2822" x="1591.9326" y="1090.3711"/><text fill="#000000" font-family="sans-serif" font-size="14" lengthAdjust="spacing" textLength="72.3652" x="1611.3911" y="1112.4785">listScenario</text><text fill="#000000" font-family="sans-serif" font-size="14" lengthAdjust="spacing" textLength="97.2822" x="1598.9326" y="1131.0996">:List&lt;Scenario&gt;</text><rect fill="#E3E3E3" height="51.2422" rx="2.5" ry="2.5" style="stroke:#181818;stroke-width:0.5;" width="140.834" x="1713.2148" y="1090.3711"/><text fill="#000000" font-family="sans-serif" font-size="14" lengthAdjust="spacing" textLength="101.917" x="1732.6733" y="1112.4785">listScenarioDTO</text><text fill="#000000" font-family="sans-serif" font-size="14" lengthAdjust="spacing" textLength="126.834" x="1720.2148" y="1131.0996">:List&lt;ScenarioDTO&gt;</text><rect fill="#E3E3E3" height="51.2422" rx="2.5" ry="2.5" style="stroke:#181818;stroke-width:0.5;" width="102.6963" x="1864.0488" y="1090.3711"/><text fill="#000000" font-family="sans-serif" font-size="14" lengthAdjust="spacing" textLength="82.4688" x="1874.1626" y="1112.4785">scenarioDTO</text><text fill="#000000" font-family="sans-serif" font-size="14" lengthAdjust="spacing" textLength="88.6963" x="1871.0488" y="1131.0996">:ScenarioDTO</text><rect fill="#FFFFFF" height="982.8379" style="stroke:#181818;stroke-width:1.0;" width="10" x="208.6816" y="90.5332"/><rect fill="#FFFFFF" height="31.291" style="stroke:#181818;stroke-width:1.0;" width="10" x="444.9912" y="148.1152"/><rect fill="#FFFFFF" height="31.291" style="stroke:#181818;stroke-width:1.0;" width="10" x="444.9912" y="273.2793"/><rect fill="#FFFFFF" height="31.291" style="stroke:#181818;stroke-width:1.0;" width="10" x="558.8633" y="210.6973"/><rect fill="#FFFFFF" height="311.9883" style="stroke:#181818;stroke-width:1.0;" width="10" x="750.0386" y="335.8613"/><rect fill="#FFFFFF" height="249.4063" style="stroke:#181818;stroke-width:1.0;" width="10" x="1040.271" y="367.1523"/><rect fill="#FFFFFF" height="30" style="stroke:#181818;stroke-width:1.0;" width="10" x="1258.6226" y="486.9766"/><rect fill="#FFFFFF" height="355.9395" style="stroke:#181818;stroke-width:1.0;" width="10" x="1384.5703" y="679.1406"/><rect fill="#FFFFFF" height="36.291" style="stroke:#181818;stroke-width:1.0;" width="10" x="1389.5703" y="868.2559"/><rect fill="#FFFFFF" height="30" style="stroke:#181818;stroke-width:1.0;" width="10" x="1642.5737" y="548.2676"/><rect fill="#FFFFFF" height="30" style="stroke:#181818;stroke-width:1.0;" width="10" x="1642.5737" y="798.9648"/><rect fill="#FFFFFF" height="30" style="stroke:#181818;stroke-width:1.0;" width="10" x="1778.6318" y="966.7891"/><polygon fill="#181818" points="196.6816,86.5332,206.6816,90.5332,196.6816,94.5332,200.6816,90.5332" style="stroke:#181818;stroke-width:1.0;"/><line style="stroke:#181818;stroke-width:1.0;" x1="0" x2="202.6816" y1="90.5332" y2="90.5332"/><text fill="#000000" font-family="sans-serif" font-size="13" font-weight="bold" lengthAdjust="spacing" textLength="14.46" x="7" y="85.2705">11</text><text fill="#000000" font-family="sans-serif" font-size="13" lengthAdjust="spacing" textLength="171.2217" x="25.46" y="85.2705">getListOfScenarios(mapDTO)</text><path d="M127.0371,105.5332 L306.3979,105.5332 L306.3979,114.8242 L296.3979,124.8242 L127.0371,124.8242 L127.0371,105.5332 " fill="#EEEEEE" style="stroke:#000000;stroke-width:1.5;"/><rect fill="none" height="937.5469" style="stroke:#000000;stroke-width:1.5;" width="1859.708" x="127.0371" y="105.5332"/><text fill="#000000" font-family="sans-serif" font-size="13" font-weight="bold" lengthAdjust="spacing" textLength="134.3608" x="142.0371" y="120.5615">Get ScenarioDTO List</text><polygon fill="#181818" points="432.9912,144.1152,442.9912,148.1152,432.9912,152.1152,436.9912,148.1152" style="stroke:#181818;stroke-width:1.0;"/><line style="stroke:#181818;stroke-width:1.0;" x1="218.6816" x2="438.9912" y1="148.1152" y2="148.1152"/><text fill="#000000" font-family="sans-serif" font-size="13" font-weight="bold" lengthAdjust="spacing" textLength="25.3018" x="225.6816" y="142.8525">11.1</text><text fill="#000000" font-family="sans-serif" font-size="13" lengthAdjust="spacing" textLength="114.1563" x="254.9834" y="142.8525">getMapRepository()</text><polygon fill="#181818" points="229.6816,175.4063,219.6816,179.4063,229.6816,183.4063,225.6816,179.4063" style="stroke:#181818;stroke-width:1.0;"/><line style="stroke:#181818;stroke-width:1.0;stroke-dasharray:2.0,2.0;" x1="223.6816" x2="448.9912" y1="179.4063" y2="179.4063"/><text fill="#000000" font-family="sans-serif" font-size="13" font-weight="bold" lengthAdjust="spacing" textLength="25.3018" x="235.6816" y="174.1436">11.2</text><text fill="#000000" font-family="sans-serif" font-size="13" lengthAdjust="spacing" textLength="87.4263" x="264.9834" y="174.1436">mapRepository</text><polygon fill="#181818" points="546.8633,206.6973,556.8633,210.6973,546.8633,214.6973,550.8633,210.6973" style="stroke:#181818;stroke-width:1.0;"/><line style="stroke:#181818;stroke-width:1.0;" x1="218.6816" x2="552.8633" y1="210.6973" y2="210.6973"/><text fill="#000000" font-family="sans-serif" font-size="13" font-weight="bold" lengthAdjust="spacing" textLength="25.3018" x="225.6816" y="205.4346">11.3</text><text fill="#000000" font-family="sans-serif" font-size="13" lengthAdjust="spacing" textLength="182.7681" x="254.9834" y="205.4346">getMap(mapDTO.getNameID())</text><polygon fill="#181818" points="229.6816,237.9883,219.6816,241.9883,229.6816,245.9883,225.6816,241.9883" style="stroke:#181818;stroke-width:1.0;"/><line style="stroke:#181818;stroke-width:1.0;stroke-dasharray:2.0,2.0;" x1="223.6816" x2="562.8633" y1="241.9883" y2="241.9883"/><text fill="#000000" font-family="sans-serif" font-size="13" font-weight="bold" lengthAdjust="spacing" textLength="25.3018" x="235.6816" y="236.7256">11.4</text><text fill="#000000" font-family="sans-serif" font-size="13" lengthAdjust="spacing" textLength="25.2891" x="264.9834" y="236.7256">map</text><polygon fill="#181818" points="432.9912,269.2793,442.9912,273.2793,432.9912,277.2793,436.9912,273.2793" style="stroke:#181818;stroke-width:1.0;"/><line style="stroke:#181818;stroke-width:1.0;" x1="218.6816" x2="438.9912" y1="273.2793" y2="273.2793"/><text fill="#000000" font-family="sans-serif" font-size="13" font-weight="bold" lengthAdjust="spacing" textLength="25.3018" x="225.6816" y="268.0166">11.5</text><text fill="#000000" font-family="sans-serif" font-size="13" lengthAdjust="spacing" textLength="140.1753" x="254.9834" y="268.0166">getScenarioRepository()</text><polygon fill="#181818" points="229.6816,300.5703,219.6816,304.5703,229.6816,308.5703,225.6816,304.5703" style="stroke:#181818;stroke-width:1.0;"/><line style="stroke:#181818;stroke-width:1.0;stroke-dasharray:2.0,2.0;" x1="223.6816" x2="448.9912" y1="304.5703" y2="304.5703"/><text fill="#000000" font-family="sans-serif" font-size="13" font-weight="bold" lengthAdjust="spacing" textLength="25.3018" x="235.6816" y="299.3076">11.6</text><text fill="#000000" font-family="sans-serif" font-size="13" lengthAdjust="spacing" textLength="111.2744" x="264.9834" y="299.3076">scenarioRepository</text><polygon fill="#181818" points="738.0386,331.8613,748.0386,335.8613,738.0386,339.8613,742.0386,335.8613" style="stroke:#181818;stroke-width:1.0;"/><line style="stroke:#181818;stroke-width:1.0;" x1="218.6816" x2="744.0386" y1="335.8613" y2="335.8613"/><text fill="#000000" font-family="sans-serif" font-size="13" font-weight="bold" lengthAdjust="spacing" textLength="25.3018" x="225.6816" y="330.5986">11.7</text><text fill="#000000" font-family="sans-serif" font-size="13" lengthAdjust="spacing" textLength="231.9307" x="254.9834" y="330.5986">getListOfScenarios(map.getScenarios())</text><polygon fill="#181818" points="1028.271,363.1523,1038.271,367.1523,1028.271,371.1523,1032.271,367.1523" style="stroke:#181818;stroke-width:1.0;"/><line style="stroke:#181818;stroke-width:1.0;" x1="760.0386" x2="1034.271" y1="367.1523" y2="367.1523"/><text fill="#000000" font-family="sans-serif" font-size="13" font-weight="bold" lengthAdjust="spacing" textLength="25.3018" x="767.0386" y="361.8896">11.8</text><text fill="#000000" font-family="sans-serif" font-size="13" lengthAdjust="spacing" textLength="231.9307" x="796.3403" y="361.8896">getListOfScenarios(map.getScenarios())</text><polygon fill="#181818" points="1579.9326,394.4434,1589.9326,398.4434,1579.9326,402.4434,1583.9326,398.4434" style="stroke:#181818;stroke-width:1.0;"/><line style="stroke:#181818;stroke-width:1.0;stroke-dasharray:2.0,2.0;" x1="1050.271" x2="1585.9326" y1="398.4434" y2="398.4434"/><text fill="#000000" font-family="sans-serif" font-size="13" font-weight="bold" lengthAdjust="spacing" textLength="25.3018" x="1057.271" y="393.1807">11.9</text><text fill="#000000" font-family="sans-serif" font-size="13" lengthAdjust="spacing" textLength="44.7891" x="1086.5728" y="393.1807">create()</text><rect fill="#E3E3E3" height="51.2422" rx="2.5" ry="2.5" style="stroke:#181818;stroke-width:0.5;" width="111.2822" x="1591.9326" y="375.1523"/><text fill="#000000" font-family="sans-serif" font-size="14" lengthAdjust="spacing" textLength="72.3652" x="1611.3911" y="397.2598">listScenario</text><text fill="#000000" font-family="sans-serif" font-size="14" lengthAdjust="spacing" textLength="97.2822" x="1598.9326" y="415.8809">:List&lt;Scenario&gt;</text><path d="M995.1987,444.3945 L1067.6333,444.3945 L1067.6333,453.6855 L1057.6333,463.6855 L995.1987,463.6855 L995.1987,444.3945 " fill="#EEEEEE" style="stroke:#000000;stroke-width:1.5;"/><rect fill="none" height="141.873" style="stroke:#000000;stroke-width:1.5;" width="718.0161" x="995.1987" y="444.3945"/><text fill="#000000" font-family="sans-serif" font-size="13" font-weight="bold" lengthAdjust="spacing" textLength="27.4346" x="1010.1987" y="459.4229">loop</text><text fill="#000000" font-family="sans-serif" font-size="11" font-weight="bold" lengthAdjust="spacing" textLength="230.4468" x="1082.6333" y="458.2646">[for each scenario ID in map.getScenarios()]</text><polygon fill="#181818" points="1246.6226,482.9766,1256.6226,486.9766,1246.6226,490.9766,1250.6226,486.9766" style="stroke:#181818;stroke-width:1.0;"/><line style="stroke:#181818;stroke-width:1.0;" x1="1050.271" x2="1252.6226" y1="486.9766" y2="486.9766"/><text fill="#000000" font-family="sans-serif" font-size="13" font-weight="bold" lengthAdjust="spacing" textLength="32.5317" x="1057.271" y="481.7139">11.10</text><text fill="#000000" font-family="sans-serif" font-size="13" lengthAdjust="spacing" textLength="152.8198" x="1093.8027" y="481.7139">scenario = get(scenarioID)</text><polygon fill="#181818" points="1630.5737,544.2676,1640.5737,548.2676,1630.5737,552.2676,1634.5737,548.2676" style="stroke:#181818;stroke-width:1.0;"/><line style="stroke:#181818;stroke-width:1.0;" x1="1050.271" x2="1636.5737" y1="548.2676" y2="548.2676"/><text fill="#000000" font-family="sans-serif" font-size="13" font-weight="bold" lengthAdjust="spacing" textLength="32.5317" x="1057.271" y="543.0049">11.11</text><text fill="#000000" font-family="sans-serif" font-size="13" lengthAdjust="spacing" textLength="79.4854" x="1093.8027" y="543.0049">add(scenario)</text><polygon fill="#181818" points="771.0386,612.5586,761.0386,616.5586,771.0386,620.5586,767.0386,616.5586" style="stroke:#181818;stroke-width:1.0;"/><line style="stroke:#181818;stroke-width:1.0;stroke-dasharray:2.0,2.0;" x1="765.0386" x2="1044.271" y1="616.5586" y2="616.5586"/><text fill="#000000" font-family="sans-serif" font-size="13" font-weight="bold" lengthAdjust="spacing" textLength="32.5317" x="777.0386" y="611.2959">11.12</text><text fill="#000000" font-family="sans-serif" font-size="13" lengthAdjust="spacing" textLength="67.1963" x="813.5703" y="611.2959">listScenario</text><polygon fill="#181818" points="229.6816,643.8496,219.6816,647.8496,229.6816,651.8496,225.6816,647.8496" style="stroke:#181818;stroke-width:1.0;"/><line style="stroke:#181818;stroke-width:1.0;stroke-dasharray:2.0,2.0;" x1="223.6816" x2="754.0386" y1="647.8496" y2="647.8496"/><text fill="#000000" font-family="sans-serif" font-size="13" font-weight="bold" lengthAdjust="spacing" textLength="32.5317" x="235.6816" y="642.5869">11.13</text><text fill="#000000" font-family="sans-serif" font-size="13" lengthAdjust="spacing" textLength="67.1963" x="272.2134" y="642.5869">listScenario</text><polygon fill="#181818" points="1372.5703,675.1406,1382.5703,679.1406,1372.5703,683.1406,1376.5703,679.1406" style="stroke:#181818;stroke-width:1.0;"/><line style="stroke:#181818;stroke-width:1.0;" x1="218.6816" x2="1378.5703" y1="679.1406" y2="679.1406"/><text fill="#000000" font-family="sans-serif" font-size="13" font-weight="bold" lengthAdjust="spacing" textLength="32.5317" x="225.6816" y="673.8779">11.14</text><text fill="#000000" font-family="sans-serif" font-size="13" lengthAdjust="spacing" textLength="114.1372" x="262.2134" y="673.8779">toDTO(listScenario)</text><polygon fill="#181818" points="1701.2148,706.4316,1711.2148,710.4316,1701.2148,714.4316,1705.2148,710.4316" style="stroke:#181818;stroke-width:1.0;"/><line style="stroke:#181818;stroke-width:1.0;stroke-dasharray:2.0,2.0;" x1="1394.5703" x2="1707.2148" y1="710.4316" y2="710.4316"/><text fill="#000000" font-family="sans-serif" font-size="13" font-weight="bold" lengthAdjust="spacing" textLength="32.5317" x="1401.5703" y="705.1689">11.15</text><text fill="#000000" font-family="sans-serif" font-size="13" lengthAdjust="spacing" textLength="44.7891" x="1438.1021" y="705.1689">create()</text><rect fill="#E3E3E3" height="51.2422" rx="2.5" ry="2.5" style="stroke:#181818;stroke-width:0.5;" width="140.834" x="1713.2148" y="687.1406"/><text fill="#000000" font-family="sans-serif" font-size="14" lengthAdjust="spacing" textLength="101.917" x="1732.6733" y="709.248">listScenarioDTO</text><text fill="#000000" font-family="sans-serif" font-size="14" lengthAdjust="spacing" textLength="126.834" x="1720.2148" y="727.8691">:List&lt;ScenarioDTO&gt;</text><path d="M1319.2637,756.3828 L1391.6982,756.3828 L1391.6982,765.6738 L1381.6982,775.6738 L1319.2637,775.6738 L1319.2637,756.3828 " fill="#EEEEEE" style="stroke:#000000;stroke-width:1.5;"/><rect fill="none" height="248.4063" style="stroke:#000000;stroke-width:1.5;" width="657.4814" x="1319.2637" y="756.3828"/><text fill="#000000" font-family="sans-serif" font-size="13" font-weight="bold" lengthAdjust="spacing" textLength="27.4346" x="1334.2637" y="771.4111">loop</text><text fill="#000000" font-family="sans-serif" font-size="11" font-weight="bold" lengthAdjust="spacing" textLength="163.813" x="1406.6982" y="770.2529">[for each object in listScenario]</text><polygon fill="#181818" points="1630.5737,794.9648,1640.5737,798.9648,1630.5737,802.9648,1634.5737,798.9648" style="stroke:#181818;stroke-width:1.0;"/><line style="stroke:#181818;stroke-width:1.0;" x1="1394.5703" x2="1636.5737" y1="798.9648" y2="798.9648"/><text fill="#000000" font-family="sans-serif" font-size="13" font-weight="bold" lengthAdjust="spacing" textLength="32.5317" x="1401.5703" y="793.7021">11.16</text><text fill="#000000" font-family="sans-serif" font-size="13" lengthAdjust="spacing" textLength="93.5708" x="1438.1021" y="793.7021">scenario = get(i)</text><line style="stroke:#181818;stroke-width:1.0;" x1="1394.5703" x2="1441.5703" y1="855.2559" y2="855.2559"/><line style="stroke:#181818;stroke-width:1.0;" x1="1441.5703" x2="1441.5703" y1="855.2559" y2="868.2559"/><line style="stroke:#181818;stroke-width:1.0;" x1="1400.5703" x2="1441.5703" y1="868.2559" y2="868.2559"/><polygon fill="#181818" points="1410.5703,864.2559,1400.5703,868.2559,1410.5703,872.2559,1406.5703,868.2559" style="stroke:#181818;stroke-width:1.0;"/><text fill="#000000" font-family="sans-serif" font-size="13" font-weight="bold" lengthAdjust="spacing" textLength="32.5317" x="1406.5703" y="849.9932">11.17</text><text fill="#000000" font-family="sans-serif" font-size="13" lengthAdjust="spacing" textLength="187.4717" x="1443.1021" y="849.9932">scenarioDTO = toDTO(scenario)</text><polygon fill="#181818" points="1852.0488,900.5469,1862.0488,904.5469,1852.0488,908.5469,1856.0488,904.5469" style="stroke:#181818;stroke-width:1.0;"/><line style="stroke:#181818;stroke-width:1.0;stroke-dasharray:2.0,2.0;" x1="1394.5703" x2="1858.0488" y1="904.5469" y2="904.5469"/><text fill="#000000" font-family="sans-serif" font-size="13" font-weight="bold" lengthAdjust="spacing" textLength="32.5317" x="1401.5703" y="899.2842">11.18</text><text fill="#000000" font-family="sans-serif" font-size="13" lengthAdjust="spacing" textLength="44.7891" x="1438.1021" y="899.2842">create()</text><rect fill="#E3E3E3" height="51.2422" rx="2.5" ry="2.5" style="stroke:#181818;stroke-width:0.5;" width="102.6963" x="1864.0488" y="881.2559"/><text fill="#000000" font-family="sans-serif" font-size="14" lengthAdjust="spacing" textLength="82.4688" x="1874.1626" y="903.3633">scenarioDTO</text><text fill="#000000" font-family="sans-serif" font-size="14" lengthAdjust="spacing" textLength="88.6963" x="1871.0488" y="921.9844">:ScenarioDTO</text><polygon fill="#181818" points="1766.6318,962.7891,1776.6318,966.7891,1766.6318,970.7891,1770.6318,966.7891" style="stroke:#181818;stroke-width:1.0;"/><line style="stroke:#181818;stroke-width:1.0;" x1="1394.5703" x2="1772.6318" y1="966.7891" y2="966.7891"/><text fill="#000000" font-family="sans-serif" font-size="13" font-weight="bold" lengthAdjust="spacing" textLength="32.5317" x="1401.5703" y="961.5264">11.19</text><text fill="#000000" font-family="sans-serif" font-size="13" lengthAdjust="spacing" textLength="106.9263" x="1438.1021" y="961.5264">add(scenarioDTO)</text><polygon fill="#181818" points="229.6816,1031.0801,219.6816,1035.0801,229.6816,1039.0801,225.6816,1035.0801" style="stroke:#181818;stroke-width:1.0;"/><line style="stroke:#181818;stroke-width:1.0;stroke-dasharray:2.0,2.0;" x1="223.6816" x2="1388.5703" y1="1035.0801" y2="1035.0801"/><text fill="#000000" font-family="sans-serif" font-size="13" font-weight="bold" lengthAdjust="spacing" textLength="32.5317" x="235.6816" y="1029.8174">11.20</text><text fill="#000000" font-family="sans-serif" font-size="13" lengthAdjust="spacing" textLength="94.6372" x="272.2134" y="1029.8174">listScenarioDTO</text><polygon fill="#181818" points="11,1069.3711,1,1073.3711,11,1077.3711,7,1073.3711" style="stroke:#181818;stroke-width:1.0;"/><line style="stroke:#181818;stroke-width:1.0;stroke-dasharray:2.0,2.0;" x1="5" x2="212.6816" y1="1073.3711" y2="1073.3711"/><text fill="#000000" font-family="sans-serif" font-size="13" font-weight="bold" lengthAdjust="spacing" textLength="14.46" x="17" y="1068.1084">12</text><text fill="#000000" font-family="sans-serif" font-size="13" lengthAdjust="spacing" textLength="94.6372" x="35.46" y="1068.1084">listScenarioDTO</text><!--SRC=[jLRBZjem5DtdAwvc1IE1H9VH56a4Q1I90KHOLaAUn40wIHpPfXL_NySXhb-1q4TsiU-vZtFFjSq-ix9251LGa98a9qeA39oUSS3KJeMIJtJ4CR_a62XEE2gFkMx0JYWbFxFo20UKCnm4OfbdILQXaiDJ-9gcKPcU6QUN6Iav9NcEwHCW1hFTTcaQRt55MCO9pJ2J9jl5PXsRDbIp-LQ6ViW-ZbPloyLklJB11QeKu2BGx_g_XB-_RlQr2mVNMBSsvZPBS8beHWpViRCemV5iiNhTHcjFbDODqz3C05bSXCkCyPVMT2fDbr6yiwnQ0v5_TULUPI5gsIos9Y0NNbkCICKJHC7TQ3fulblRUB7aSR4Notuk6XSQsWJNk02TEIdFnGUcC9a4ewbKLWX7pElGwuFYSY3wA1132pAU12ZXsG_4SIDA4D-HadC5RvY35XngXu7Shx_Q64GyItCoj26jmL1XL2HRgA1zrXwCL566WXKcnPrkdMHRXRTPNaaPYxyLAd0q7mmzsQgvqDDi5ytyV5afU2_ktD7vTmIwi_f7B1fZtAMriLOByz9gdWRjjh6gHul_Fb8S64IfPKcHCPJFpo4a50kmODy0vOHKS20K164dnIX4SyXASBCni5RGgJomVhS5ljOL3jhVQEwYLKdoy07FfpLIsjnEm2Ww19IcAloDuEOHU2UBRcDSfhqQqiXCFro3Ex4w6cqFx2CkEqROkan2uFLPET0ztvB-zGhoPzjikkAiJ_w-0YKVtyMxfTPcPx7Uc8uqB95c_qSU3oNMKgxTboAxfW6FgFZQ15-YDtjXjw5lfRwczsb27T2SKNcXz-k3V2uyqWi7O8ohZnXtg7GNzvXGxlNtoHUvyZ8QDGFdUjUyokTBy0i0]--></g></svg>