<svg xmlns="http://www.w3.org/2000/svg" xmlns:xlink="http://www.w3.org/1999/xlink" contentStyleType="text/css" height="702px" preserveAspectRatio="none" style="width:911px;height:702px;background:#FFFFFF;" version="1.1" viewBox="0 0 911 702" width="911px" zoomAndPan="magnify"><defs/><g><rect fill="#FFFFFF" height="507.6172" style="stroke:#181818;stroke-width:1.0;" width="10" x="22.8413" y="93.6211"/><rect fill="#FFFFFF" height="137.4941" style="stroke:#181818;stroke-width:1.0;" width="10" x="354.23" y="116.9121"/><rect fill="#FFFFFF" height="142.125" style="stroke:#181818;stroke-width:1.0;" width="10" x="354.23" y="285.6973"/><rect fill="#FFFFFF" height="142.125" style="stroke:#181818;stroke-width:1.0;" width="10" x="354.23" y="459.1133"/><rect fill="#FFFFFF" height="31.291" style="stroke:#181818;stroke-width:1.0;" width="10" x="674.125" y="191.8242"/><rect fill="#FFFFFF" height="79.543" style="stroke:#181818;stroke-width:1.0;" width="10" x="674.125" y="316.9883"/><rect fill="#FFFFFF" height="79.543" style="stroke:#181818;stroke-width:1.0;" width="10" x="674.125" y="490.4043"/><line style="stroke:#181818;stroke-width:0.5;stroke-dasharray:5.0,5.0;" x1="27" x2="27" y1="83.6211" y2="619.2383"/><line style="stroke:#181818;stroke-width:0.5;stroke-dasharray:5.0,5.0;" x1="358.5234" x2="358.5234" y1="83.6211" y2="619.2383"/><line style="stroke:#181818;stroke-width:0.5;stroke-dasharray:5.0,5.0;" x1="679.0737" x2="679.0737" y1="156.7227" y2="619.2383"/><line style="stroke:#181818;stroke-width:0.5;stroke-dasharray:5.0,5.0;" x1="846.1763" x2="846.1763" y1="83.6211" y2="619.2383"/><text fill="#000000" font-family="sans-serif" font-size="14" lengthAdjust="spacing" textLength="39.6826" x="5" y="80.1074">Player</text><ellipse cx="27.8413" cy="13.5" fill="#E3E3E3" rx="8" ry="8" style="stroke:#181818;stroke-width:0.5;"/><path d="M27.8413,21.5 L27.8413,48.5 M14.8413,29.5 L40.8413,29.5 M27.8413,48.5 L14.8413,63.5 M27.8413,48.5 L40.8413,63.5 " fill="none" style="stroke:#181818;stroke-width:0.5;"/><text fill="#000000" font-family="sans-serif" font-size="14" lengthAdjust="spacing" textLength="39.6826" x="5" y="633.3457">Player</text><ellipse cx="27.8413" cy="645.3594" fill="#E3E3E3" rx="8" ry="8" style="stroke:#181818;stroke-width:0.5;"/><path d="M27.8413,653.3594 L27.8413,680.3594 M14.8413,661.3594 L40.8413,661.3594 M27.8413,680.3594 L14.8413,695.3594 M27.8413,680.3594 L40.8413,695.3594 " fill="none" style="stroke:#181818;stroke-width:0.5;"/><rect fill="#E3E3E3" height="32.6211" rx="2.5" ry="2.5" style="stroke:#181818;stroke-width:0.5;" width="149.4131" x="284.5234" y="50"/><text fill="#000000" font-family="sans-serif" font-size="14" lengthAdjust="spacing" textLength="135.4131" x="291.5234" y="72.1074">:MaintenanceRouteUI</text><rect fill="#E3E3E3" height="32.6211" rx="2.5" ry="2.5" style="stroke:#181818;stroke-width:0.5;" width="149.4131" x="284.5234" y="618.2383"/><text fill="#000000" font-family="sans-serif" font-size="14" lengthAdjust="spacing" textLength="135.4131" x="291.5234" y="640.3457">:MaintenanceRouteUI</text><rect fill="#E3E3E3" height="32.6211" rx="2.5" ry="2.5" style="stroke:#181818;stroke-width:0.5;" width="196.1025" x="581.0737" y="618.2383"/><text fill="#000000" font-family="sans-serif" font-size="14" lengthAdjust="spacing" textLength="182.1025" x="588.0737" y="640.3457">:MaintenanceRouteController</text><rect fill="#E3E3E3" height="51.2422" rx="2.5" ry="2.5" style="stroke:#181818;stroke-width:0.5;" width="118.248" x="787.1763" y="31.3789"/><text fill="#000000" font-family="sans-serif" font-size="14" lengthAdjust="spacing" textLength="49.0205" x="821.79" y="53.4863">network</text><text fill="#000000" font-family="sans-serif" font-size="14" lengthAdjust="spacing" textLength="104.248" x="794.1763" y="72.1074">:RailwayNetwork</text><rect fill="#E3E3E3" height="51.2422" rx="2.5" ry="2.5" style="stroke:#181818;stroke-width:0.5;" width="118.248" x="787.1763" y="618.2383"/><text fill="#000000" font-family="sans-serif" font-size="14" lengthAdjust="spacing" textLength="49.0205" x="821.79" y="640.3457">network</text><text fill="#000000" font-family="sans-serif" font-size="14" lengthAdjust="spacing" textLength="104.248" x="794.1763" y="658.9668">:RailwayNetwork</text><rect fill="#FFFFFF" height="507.6172" style="stroke:#181818;stroke-width:1.0;" width="10" x="22.8413" y="93.6211"/><rect fill="#FFFFFF" height="137.4941" style="stroke:#181818;stroke-width:1.0;" width="10" x="354.23" y="116.9121"/><rect fill="#FFFFFF" height="142.125" style="stroke:#181818;stroke-width:1.0;" width="10" x="354.23" y="285.6973"/><rect fill="#FFFFFF" height="142.125" style="stroke:#181818;stroke-width:1.0;" width="10" x="354.23" y="459.1133"/><rect fill="#FFFFFF" height="31.291" style="stroke:#181818;stroke-width:1.0;" width="10" x="674.125" y="191.8242"/><rect fill="#FFFFFF" height="79.543" style="stroke:#181818;stroke-width:1.0;" width="10" x="674.125" y="316.9883"/><rect fill="#FFFFFF" height="79.543" style="stroke:#181818;stroke-width:1.0;" width="10" x="674.125" y="490.4043"/><polygon fill="#181818" points="342.23,112.9121,352.23,116.9121,342.23,120.9121,346.23,116.9121" style="stroke:#181818;stroke-width:1.0;"/><line style="stroke:#181818;stroke-width:1.0;" x1="32.8413" x2="348.23" y1="116.9121" y2="116.9121"/><text fill="#000000" font-family="sans-serif" font-size="13" font-weight="bold" lengthAdjust="spacing" textLength="7.23" x="39.8413" y="111.6494">1</text><text fill="#000000" font-family="sans-serif" font-size="13" lengthAdjust="spacing" textLength="190.0488" x="51.0713" y="111.6494">asks to check maintenance route</text><polygon fill="#181818" points="569.0737,144.2031,579.0737,148.2031,569.0737,152.2031,573.0737,148.2031" style="stroke:#181818;stroke-width:1.0;"/><line style="stroke:#181818;stroke-width:1.0;stroke-dasharray:2.0,2.0;" x1="364.23" x2="575.0737" y1="148.2031" y2="148.2031"/><text fill="#000000" font-family="sans-serif" font-size="13" font-weight="bold" lengthAdjust="spacing" textLength="7.23" x="371.23" y="142.9404">2</text><text fill="#000000" font-family="sans-serif" font-size="13" lengthAdjust="spacing" textLength="44.7891" x="382.46" y="142.9404">create()</text><rect fill="#E3E3E3" height="32.6211" rx="2.5" ry="2.5" style="stroke:#181818;stroke-width:0.5;" width="196.1025" x="581.0737" y="124.9121"/><text fill="#000000" font-family="sans-serif" font-size="14" lengthAdjust="spacing" textLength="182.1025" x="588.0737" y="147.0195">:MaintenanceRouteController</text><polygon fill="#181818" points="662.125,187.8242,672.125,191.8242,662.125,195.8242,666.125,191.8242" style="stroke:#181818;stroke-width:1.0;"/><line style="stroke:#181818;stroke-width:1.0;" x1="364.23" x2="668.125" y1="191.8242" y2="191.8242"/><text fill="#000000" font-family="sans-serif" font-size="13" font-weight="bold" lengthAdjust="spacing" textLength="7.23" x="371.23" y="186.5615">3</text><text fill="#000000" font-family="sans-serif" font-size="13" lengthAdjust="spacing" textLength="136.5698" x="382.46" y="186.5615">getMaintenanceTypes()</text><polygon fill="#181818" points="375.23,219.1152,365.23,223.1152,375.23,227.1152,371.23,223.1152" style="stroke:#181818;stroke-width:1.0;"/><line style="stroke:#181818;stroke-width:1.0;stroke-dasharray:2.0,2.0;" x1="369.23" x2="678.125" y1="223.1152" y2="223.1152"/><text fill="#000000" font-family="sans-serif" font-size="13" font-weight="bold" lengthAdjust="spacing" textLength="7.23" x="381.23" y="217.8525">4</text><text fill="#000000" font-family="sans-serif" font-size="13" lengthAdjust="spacing" textLength="109.8398" x="392.46" y="217.8525">maintenanceTypes</text><polygon fill="#181818" points="43.8413,250.4063,33.8413,254.4063,43.8413,258.4063,39.8413,254.4063" style="stroke:#181818;stroke-width:1.0;"/><line style="stroke:#181818;stroke-width:1.0;stroke-dasharray:2.0,2.0;" x1="37.8413" x2="358.23" y1="254.4063" y2="254.4063"/><text fill="#000000" font-family="sans-serif" font-size="13" font-weight="bold" lengthAdjust="spacing" textLength="7.23" x="49.8413" y="249.1436">5</text><text fill="#000000" font-family="sans-serif" font-size="13" lengthAdjust="spacing" textLength="282.5532" x="61.0713" y="249.1436">shows maintenance types and asks to select one</text><polygon fill="#181818" points="342.23,281.6973,352.23,285.6973,342.23,289.6973,346.23,285.6973" style="stroke:#181818;stroke-width:1.0;"/><line style="stroke:#181818;stroke-width:1.0;" x1="32.8413" x2="348.23" y1="285.6973" y2="285.6973"/><text fill="#000000" font-family="sans-serif" font-size="13" font-weight="bold" lengthAdjust="spacing" textLength="7.23" x="39.8413" y="280.4346">6</text><text fill="#000000" font-family="sans-serif" font-size="13" lengthAdjust="spacing" textLength="146.6943" x="51.0713" y="280.4346">selects maintenance type</text><polygon fill="#181818" points="662.125,312.9883,672.125,316.9883,662.125,320.9883,666.125,316.9883" style="stroke:#181818;stroke-width:1.0;"/><line style="stroke:#181818;stroke-width:1.0;" x1="364.23" x2="668.125" y1="316.9883" y2="316.9883"/><text fill="#000000" font-family="sans-serif" font-size="13" font-weight="bold" lengthAdjust="spacing" textLength="7.23" x="371.23" y="311.7256">7</text><text fill="#000000" font-family="sans-serif" font-size="13" lengthAdjust="spacing" textLength="106.1899" x="382.46" y="311.7256">visualizeNetwork()</text><rect fill="none" height="43.252" style="stroke:#000000;stroke-width:1.5;" width="202.1025" x="578.0737" y="324.9883"/><path d="M578.0737,324.9883 L639.0737,324.9883 L639.0737,333.9883 L629.0737,343.9883 L578.0737,343.9883 L578.0737,324.9883 " fill="#EEEEEE" style="stroke:#000000;stroke-width:2.0;"/><text fill="#000000" font-family="sans-serif" font-size="13" font-weight="bold" lengthAdjust="spacing" textLength="16.6182" x="591.0737" y="341.0166">ref</text><text fill="#000000" font-family="sans-serif" font-size="12" lengthAdjust="spacing" textLength="168.082" x="595.084" y="360.9375">Generate Network Visualization</text><polygon fill="#181818" points="375.23,392.5313,365.23,396.5313,375.23,400.5313,371.23,396.5313" style="stroke:#181818;stroke-width:1.0;"/><line style="stroke:#181818;stroke-width:1.0;stroke-dasharray:2.0,2.0;" x1="369.23" x2="678.125" y1="396.5313" y2="396.5313"/><text fill="#000000" font-family="sans-serif" font-size="13" font-weight="bold" lengthAdjust="spacing" textLength="7.23" x="381.23" y="391.2686">8</text><text fill="#000000" font-family="sans-serif" font-size="13" lengthAdjust="spacing" textLength="118.5044" x="392.46" y="391.2686">networkVisualization</text><polygon fill="#181818" points="43.8413,423.8223,33.8413,427.8223,43.8413,431.8223,39.8413,427.8223" style="stroke:#181818;stroke-width:1.0;"/><line style="stroke:#181818;stroke-width:1.0;stroke-dasharray:2.0,2.0;" x1="37.8413" x2="358.23" y1="427.8223" y2="427.8223"/><text fill="#000000" font-family="sans-serif" font-size="13" font-weight="bold" lengthAdjust="spacing" textLength="7.23" x="49.8413" y="422.5596">9</text><text fill="#000000" font-family="sans-serif" font-size="13" lengthAdjust="spacing" textLength="214.5889" x="61.0713" y="422.5596">displays railway network visualization</text><polygon fill="#181818" points="342.23,455.1133,352.23,459.1133,342.23,463.1133,346.23,459.1133" style="stroke:#181818;stroke-width:1.0;"/><line style="stroke:#181818;stroke-width:1.0;" x1="32.8413" x2="348.23" y1="459.1133" y2="459.1133"/><text fill="#000000" font-family="sans-serif" font-size="13" font-weight="bold" lengthAdjust="spacing" textLength="14.46" x="39.8413" y="453.8506">10</text><text fill="#000000" font-family="sans-serif" font-size="13" lengthAdjust="spacing" textLength="148.1416" x="58.3013" y="453.8506">requests route calculation</text><polygon fill="#181818" points="662.125,486.4043,672.125,490.4043,662.125,494.4043,666.125,490.4043" style="stroke:#181818;stroke-width:1.0;"/><line style="stroke:#181818;stroke-width:1.0;" x1="364.23" x2="668.125" y1="490.4043" y2="490.4043"/><text fill="#000000" font-family="sans-serif" font-size="13" font-weight="bold" lengthAdjust="spacing" textLength="14.46" x="371.23" y="485.1416">11</text><text fill="#000000" font-family="sans-serif" font-size="13" lengthAdjust="spacing" textLength="272.4351" x="389.6899" y="485.1416">calculateMaintenanceRoute(maintenanceType)</text><rect fill="none" height="43.252" style="stroke:#000000;stroke-width:1.5;" width="202.1025" x="578.0737" y="498.4043"/><path d="M578.0737,498.4043 L639.0737,498.4043 L639.0737,507.4043 L629.0737,517.4043 L578.0737,517.4043 L578.0737,498.4043 " fill="#EEEEEE" style="stroke:#000000;stroke-width:2.0;"/><text fill="#000000" font-family="sans-serif" font-size="13" font-weight="bold" lengthAdjust="spacing" textLength="16.6182" x="591.0737" y="514.4326">ref</text><text fill="#000000" font-family="sans-serif" font-size="12" lengthAdjust="spacing" textLength="157.4297" x="600.4102" y="534.3535">Calculate Maintenance Route</text><polygon fill="#181818" points="375.23,565.9473,365.23,569.9473,375.23,573.9473,371.23,569.9473" style="stroke:#181818;stroke-width:1.0;"/><line style="stroke:#181818;stroke-width:1.0;stroke-dasharray:2.0,2.0;" x1="369.23" x2="678.125" y1="569.9473" y2="569.9473"/><text fill="#000000" font-family="sans-serif" font-size="13" font-weight="bold" lengthAdjust="spacing" textLength="14.46" x="381.23" y="564.6846">12</text><text fill="#000000" font-family="sans-serif" font-size="13" lengthAdjust="spacing" textLength="109.1289" x="399.6899" y="564.6846">maintenanceRoute</text><polygon fill="#181818" points="38.8413,597.2383,28.8413,601.2383,38.8413,605.2383,34.8413,601.2383" style="stroke:#181818;stroke-width:1.0;"/><line style="stroke:#181818;stroke-width:1.0;stroke-dasharray:2.0,2.0;" x1="32.8413" x2="358.23" y1="601.2383" y2="601.2383"/><text fill="#000000" font-family="sans-serif" font-size="13" font-weight="bold" lengthAdjust="spacing" textLength="14.46" x="44.8413" y="595.9756">13</text><text fill="#000000" font-family="sans-serif" font-size="13" lengthAdjust="spacing" textLength="278.9287" x="63.3013" y="595.9756">displays maintenance route or warning message</text><!--SRC=[fLHDRzim3BtxLn2vh2kGFv33W24eXc9TLtZfYW6xi3AJ29P5JvBZfR- -z4SKEycIRjD9jXuVdnuf-bpR4XqMKB1bjNPS40HNKUBZIOagnnLz2rj3u4W5j2ip1FWrPbnhku8b6az9WbLWMnNFv9BatLfd14lcyCo_4rI17KmU36x9JG0zFDnz_76J9ebG1QrqYJR0PFO5jGraqIfAkGhqUDk27syluEPiWsDZUlBv8hqRHrWADRlyfvsbg4sDs_lkHmk_lrayVKq_9urClS50KHt8wlOm_I0oO2Rut4DWK6jIEHHx8U0Q9Mr8v17Xq2y9dWf78-twMdYK8q5SlHy1kdCvNL4Ot76nBSaFe74J4xKtXi5gUQOxqSK1LuHcT9hYK7PlmaoAphKVNJiqX80sYzPuCj8kmBPpOv13_3ZbQHTmJ7lMpEZLHliAZNwXlgO3e_xiZwCby8RSyKcpFf4bryJrbF2zpu51int1IIukP6VCxtllDCLV5o3JlfHdvC5rZRoZZpRi-IyRx-XNHLwSRtiN51fLcJt1HUjt0NJu8AyEEkx_IpBVfO91BaZZcpjNZxUzZ37NlnVcQ2Q0pBuQdMr6PK7UorGzLP_1Ppz_NW40]--></g></svg>