<svg xmlns="http://www.w3.org/2000/svg" xmlns:xlink="http://www.w3.org/1999/xlink" contentStyleType="text/css" height="697px" preserveAspectRatio="none" style="width:530px;height:697px;background:#FFFFFF;" version="1.1" viewBox="0 0 530 697" width="530px" zoomAndPan="magnify"><defs/><g><rect fill="#FFFFFF" height="569.9961" style="stroke:#181818;stroke-width:1.0;" width="10" x="197.1479" y="71.9121"/><rect fill="#FFFFFF" height="42.291" style="stroke:#181818;stroke-width:1.0;" width="10" x="202.1479" y="137.4941"/><rect fill="#FFFFFF" height="42.291" style="stroke:#181818;stroke-width:1.0;" width="10" x="202.1479" y="341.2402"/><rect fill="#FFFFFF" height="42.291" style="stroke:#181818;stroke-width:1.0;" width="10" x="202.1479" y="484.7441"/><rect fill="#FFFFFF" height="393.541" style="stroke:#181818;stroke-width:1.0;" width="10" x="457.5571" y="218.0762"/><rect fill="#FFFFFF" height="31.291" style="stroke:#181818;stroke-width:1.0;" width="10" x="462.5571" y="565.3262"/><rect fill="none" height="524.7051" style="stroke:#000000;stroke-width:1.5;" width="450.4775" x="74.0967" y="86.9121"/><rect fill="none" height="371.541" style="stroke:#000000;stroke-width:1.5;" width="430.4775" x="84.0967" y="233.0762"/><rect fill="none" height="107.873" style="stroke:#000000;stroke-width:1.5;" width="288.1987" x="94.0967" y="290.6582"/><line style="stroke:#181818;stroke-width:0.5;stroke-dasharray:5.0,5.0;" x1="202.0967" x2="202.0967" y1="38.6211" y2="659.9082"/><line style="stroke:#181818;stroke-width:0.5;stroke-dasharray:5.0,5.0;" x1="462.54" x2="462.54" y1="38.6211" y2="659.9082"/><rect fill="#E3E3E3" height="32.6211" rx="2.5" ry="2.5" style="stroke:#181818;stroke-width:0.5;" width="196.1025" x="104.0967" y="5"/><text fill="#000000" font-family="sans-serif" font-size="14" lengthAdjust="spacing" textLength="182.1025" x="111.0967" y="27.1074">:MaintenanceRouteController</text><rect fill="#E3E3E3" height="32.6211" rx="2.5" ry="2.5" style="stroke:#181818;stroke-width:0.5;" width="196.1025" x="104.0967" y="658.9082"/><text fill="#000000" font-family="sans-serif" font-size="14" lengthAdjust="spacing" textLength="182.1025" x="111.0967" y="681.0156">:MaintenanceRouteController</text><rect fill="#E3E3E3" height="32.6211" rx="2.5" ry="2.5" style="stroke:#181818;stroke-width:0.5;" width="84.0342" x="420.54" y="5"/><text fill="#000000" font-family="sans-serif" font-size="14" lengthAdjust="spacing" textLength="70.0342" x="427.54" y="27.1074">sc:Scanner</text><rect fill="#E3E3E3" height="32.6211" rx="2.5" ry="2.5" style="stroke:#181818;stroke-width:0.5;" width="84.0342" x="420.54" y="658.9082"/><text fill="#000000" font-family="sans-serif" font-size="14" lengthAdjust="spacing" textLength="70.0342" x="427.54" y="681.0156">sc:Scanner</text><rect fill="#FFFFFF" height="569.9961" style="stroke:#181818;stroke-width:1.0;" width="10" x="197.1479" y="71.9121"/><rect fill="#FFFFFF" height="42.291" style="stroke:#181818;stroke-width:1.0;" width="10" x="202.1479" y="137.4941"/><rect fill="#FFFFFF" height="42.291" style="stroke:#181818;stroke-width:1.0;" width="10" x="202.1479" y="341.2402"/><rect fill="#FFFFFF" height="42.291" style="stroke:#181818;stroke-width:1.0;" width="10" x="202.1479" y="484.7441"/><rect fill="#FFFFFF" height="393.541" style="stroke:#181818;stroke-width:1.0;" width="10" x="457.5571" y="218.0762"/><rect fill="#FFFFFF" height="31.291" style="stroke:#181818;stroke-width:1.0;" width="10" x="462.5571" y="565.3262"/><polygon fill="#181818" points="185.1479,67.9121,195.1479,71.9121,185.1479,75.9121,189.1479,71.9121" style="stroke:#181818;stroke-width:1.0;"/><line style="stroke:#181818;stroke-width:1.0;" x1="0" x2="191.1479" y1="71.9121" y2="71.9121"/><text fill="#000000" font-family="sans-serif" font-size="13" font-weight="bold" lengthAdjust="spacing" textLength="7.23" x="7" y="66.6494">1</text><text fill="#000000" font-family="sans-serif" font-size="13" lengthAdjust="spacing" textLength="166.918" x="18.23" y="66.6494">chooseMaintenanceType(sc)</text><path d="M74.0967,86.9121 L146.5313,86.9121 L146.5313,96.2031 L136.5313,106.2031 L74.0967,106.2031 L74.0967,86.9121 " fill="#EEEEEE" style="stroke:#000000;stroke-width:1.5;"/><rect fill="none" height="524.7051" style="stroke:#000000;stroke-width:1.5;" width="450.4775" x="74.0967" y="86.9121"/><text fill="#000000" font-family="sans-serif" font-size="13" font-weight="bold" lengthAdjust="spacing" textLength="27.4346" x="89.0967" y="101.9404">loop</text><text fill="#000000" font-family="sans-serif" font-size="11" font-weight="bold" lengthAdjust="spacing" textLength="290.3613" x="161.5313" y="100.7822">[while maintenanceType != 1 &amp;&amp; maintenanceType != 2]</text><line style="stroke:#181818;stroke-width:1.0;" x1="207.1479" x2="254.1479" y1="124.4941" y2="124.4941"/><line style="stroke:#181818;stroke-width:1.0;" x1="254.1479" x2="254.1479" y1="124.4941" y2="137.4941"/><line style="stroke:#181818;stroke-width:1.0;" x1="213.1479" x2="254.1479" y1="137.4941" y2="137.4941"/><polygon fill="#181818" points="223.1479,133.4941,213.1479,137.4941,223.1479,141.4941,219.1479,137.4941" style="stroke:#181818;stroke-width:1.0;"/><text fill="#000000" font-family="sans-serif" font-size="13" font-weight="bold" lengthAdjust="spacing" textLength="7.23" x="219.1479" y="119.2314">2</text><text fill="#000000" font-family="sans-serif" font-size="13" lengthAdjust="spacing" textLength="192.2324" x="230.3779" y="119.2314">display maintenance type options</text><line style="stroke:#181818;stroke-width:1.0;stroke-dasharray:2.0,2.0;" x1="212.1479" x2="254.1479" y1="178.7852" y2="178.7852"/><line style="stroke:#181818;stroke-width:1.0;stroke-dasharray:2.0,2.0;" x1="254.1479" x2="254.1479" y1="178.7852" y2="191.7852"/><line style="stroke:#181818;stroke-width:1.0;stroke-dasharray:2.0,2.0;" x1="207.1479" x2="254.1479" y1="191.7852" y2="191.7852"/><polygon fill="#181818" points="217.1479,187.7852,207.1479,191.7852,217.1479,195.7852,213.1479,191.7852" style="stroke:#181818;stroke-width:1.0;"/><text fill="#000000" font-family="sans-serif" font-size="13" font-weight="bold" lengthAdjust="spacing" textLength="7.23" x="219.1479" y="173.5225">3</text><text fill="#000000" font-family="sans-serif" font-size="13" lengthAdjust="spacing" textLength="3.6118" x="230.3779" y="173.5225">&#160;</text><polygon fill="#181818" points="445.5571,214.0762,455.5571,218.0762,445.5571,222.0762,449.5571,218.0762" style="stroke:#181818;stroke-width:1.0;"/><line style="stroke:#181818;stroke-width:1.0;" x1="207.1479" x2="451.5571" y1="218.0762" y2="218.0762"/><text fill="#000000" font-family="sans-serif" font-size="13" font-weight="bold" lengthAdjust="spacing" textLength="7.23" x="214.1479" y="212.8135">4</text><text fill="#000000" font-family="sans-serif" font-size="13" lengthAdjust="spacing" textLength="47.6836" x="225.3779" y="212.8135">nextInt()</text><path d="M84.0967,233.0762 L144.2676,233.0762 L144.2676,242.3672 L134.2676,252.3672 L84.0967,252.3672 L84.0967,233.0762 " fill="#EEEEEE" style="stroke:#000000;stroke-width:1.5;"/><rect fill="none" height="371.541" style="stroke:#000000;stroke-width:1.5;" width="430.4775" x="84.0967" y="233.0762"/><text fill="#000000" font-family="sans-serif" font-size="13" font-weight="bold" lengthAdjust="spacing" textLength="15.1709" x="99.0967" y="248.1045">alt</text><text fill="#000000" font-family="sans-serif" font-size="11" font-weight="bold" lengthAdjust="spacing" textLength="62.3262" x="159.2676" y="246.9463">[valid input]</text><polygon fill="#181818" points="218.1479,271.6582,208.1479,275.6582,218.1479,279.6582,214.1479,275.6582" style="stroke:#181818;stroke-width:1.0;"/><line style="stroke:#181818;stroke-width:1.0;stroke-dasharray:2.0,2.0;" x1="212.1479" x2="456.5571" y1="275.6582" y2="275.6582"/><text fill="#000000" font-family="sans-serif" font-size="13" font-weight="bold" lengthAdjust="spacing" textLength="7.23" x="224.1479" y="270.3955">5</text><text fill="#000000" font-family="sans-serif" font-size="13" lengthAdjust="spacing" textLength="103.3398" x="235.3779" y="270.3955">maintenanceType</text><path d="M94.0967,290.6582 L154.2676,290.6582 L154.2676,299.9492 L144.2676,309.9492 L94.0967,309.9492 L94.0967,290.6582 " fill="#EEEEEE" style="stroke:#000000;stroke-width:1.5;"/><rect fill="none" height="107.873" style="stroke:#000000;stroke-width:1.5;" width="288.1987" x="94.0967" y="290.6582"/><text fill="#000000" font-family="sans-serif" font-size="13" font-weight="bold" lengthAdjust="spacing" textLength="15.1709" x="109.0967" y="305.6865">alt</text><text fill="#000000" font-family="sans-serif" font-size="11" font-weight="bold" lengthAdjust="spacing" textLength="78.8208" x="169.2676" y="304.5283">[invalid option]</text><line style="stroke:#181818;stroke-width:1.0;" x1="207.1479" x2="254.1479" y1="328.2402" y2="328.2402"/><line style="stroke:#181818;stroke-width:1.0;" x1="254.1479" x2="254.1479" y1="328.2402" y2="341.2402"/><line style="stroke:#181818;stroke-width:1.0;" x1="213.1479" x2="254.1479" y1="341.2402" y2="341.2402"/><polygon fill="#181818" points="223.1479,337.2402,213.1479,341.2402,223.1479,345.2402,219.1479,341.2402" style="stroke:#181818;stroke-width:1.0;"/><text fill="#000000" font-family="sans-serif" font-size="13" font-weight="bold" lengthAdjust="spacing" textLength="7.23" x="219.1479" y="322.9775">6</text><text fill="#000000" font-family="sans-serif" font-size="13" lengthAdjust="spacing" textLength="129.9175" x="230.3779" y="322.9775">display "Invalid option"</text><line style="stroke:#181818;stroke-width:1.0;stroke-dasharray:2.0,2.0;" x1="212.1479" x2="254.1479" y1="382.5313" y2="382.5313"/><line style="stroke:#181818;stroke-width:1.0;stroke-dasharray:2.0,2.0;" x1="254.1479" x2="254.1479" y1="382.5313" y2="395.5313"/><line style="stroke:#181818;stroke-width:1.0;stroke-dasharray:2.0,2.0;" x1="207.1479" x2="254.1479" y1="395.5313" y2="395.5313"/><polygon fill="#181818" points="217.1479,391.5313,207.1479,395.5313,217.1479,399.5313,213.1479,395.5313" style="stroke:#181818;stroke-width:1.0;"/><text fill="#000000" font-family="sans-serif" font-size="13" font-weight="bold" lengthAdjust="spacing" textLength="7.23" x="219.1479" y="377.2686">7</text><text fill="#000000" font-family="sans-serif" font-size="13" lengthAdjust="spacing" textLength="3.6118" x="230.3779" y="377.2686">&#160;</text><line style="stroke:#000000;stroke-width:1.0;stroke-dasharray:2.0,2.0;" x1="84.0967" x2="514.5742" y1="406.5313" y2="406.5313"/><text fill="#000000" font-family="sans-serif" font-size="11" font-weight="bold" lengthAdjust="spacing" textLength="212.6631" x="89.0967" y="418.4014">[invalid input (InputMismatchException)]</text><polygon fill="#181818" points="218.1479,441.4531,208.1479,445.4531,218.1479,449.4531,214.1479,445.4531" style="stroke:#181818;stroke-width:1.0;"/><line style="stroke:#181818;stroke-width:1.0;stroke-dasharray:2.0,2.0;" x1="212.1479" x2="456.5571" y1="445.4531" y2="445.4531"/><text fill="#000000" font-family="sans-serif" font-size="13" font-weight="bold" lengthAdjust="spacing" textLength="7.23" x="224.1479" y="440.1904">8</text><text fill="#000000" font-family="sans-serif" font-size="13" lengthAdjust="spacing" textLength="97.5508" x="235.3779" y="440.1904">throws exception</text><line style="stroke:#181818;stroke-width:1.0;" x1="207.1479" x2="254.1479" y1="471.7441" y2="471.7441"/><line style="stroke:#181818;stroke-width:1.0;" x1="254.1479" x2="254.1479" y1="471.7441" y2="484.7441"/><line style="stroke:#181818;stroke-width:1.0;" x1="213.1479" x2="254.1479" y1="484.7441" y2="484.7441"/><polygon fill="#181818" points="223.1479,480.7441,213.1479,484.7441,223.1479,488.7441,219.1479,484.7441" style="stroke:#181818;stroke-width:1.0;"/><text fill="#000000" font-family="sans-serif" font-size="13" font-weight="bold" lengthAdjust="spacing" textLength="7.23" x="219.1479" y="466.4814">9</text><text fill="#000000" font-family="sans-serif" font-size="13" lengthAdjust="spacing" textLength="215.1792" x="230.3779" y="466.4814">display "Please enter a valid number"</text><line style="stroke:#181818;stroke-width:1.0;stroke-dasharray:2.0,2.0;" x1="212.1479" x2="254.1479" y1="526.0352" y2="526.0352"/><line style="stroke:#181818;stroke-width:1.0;stroke-dasharray:2.0,2.0;" x1="254.1479" x2="254.1479" y1="526.0352" y2="539.0352"/><line style="stroke:#181818;stroke-width:1.0;stroke-dasharray:2.0,2.0;" x1="207.1479" x2="254.1479" y1="539.0352" y2="539.0352"/><polygon fill="#181818" points="217.1479,535.0352,207.1479,539.0352,217.1479,543.0352,213.1479,539.0352" style="stroke:#181818;stroke-width:1.0;"/><text fill="#000000" font-family="sans-serif" font-size="13" font-weight="bold" lengthAdjust="spacing" textLength="14.46" x="219.1479" y="520.7725">10</text><text fill="#000000" font-family="sans-serif" font-size="13" lengthAdjust="spacing" textLength="3.6118" x="237.6079" y="520.7725">&#160;</text><polygon fill="#181818" points="450.5571,561.3262,460.5571,565.3262,450.5571,569.3262,454.5571,565.3262" style="stroke:#181818;stroke-width:1.0;"/><line style="stroke:#181818;stroke-width:1.0;" x1="207.1479" x2="456.5571" y1="565.3262" y2="565.3262"/><text fill="#000000" font-family="sans-serif" font-size="13" font-weight="bold" lengthAdjust="spacing" textLength="14.46" x="214.1479" y="560.0635">11</text><text fill="#000000" font-family="sans-serif" font-size="13" lengthAdjust="spacing" textLength="33.23" x="232.6079" y="560.0635">next()</text><polygon fill="#181818" points="218.1479,592.6172,208.1479,596.6172,218.1479,600.6172,214.1479,596.6172" style="stroke:#181818;stroke-width:1.0;"/><line style="stroke:#181818;stroke-width:1.0;stroke-dasharray:2.0,2.0;" x1="212.1479" x2="456.5571" y1="596.6172" y2="596.6172"/><text fill="#000000" font-family="sans-serif" font-size="13" font-weight="bold" lengthAdjust="spacing" textLength="14.46" x="224.1479" y="591.3545">12</text><text fill="#000000" font-family="sans-serif" font-size="13" lengthAdjust="spacing" textLength="3.6118" x="242.6079" y="591.3545">&#160;</text><polygon fill="#181818" points="11,637.9082,1,641.9082,11,645.9082,7,641.9082" style="stroke:#181818;stroke-width:1.0;"/><line style="stroke:#181818;stroke-width:1.0;stroke-dasharray:2.0,2.0;" x1="5" x2="201.1479" y1="641.9082" y2="641.9082"/><text fill="#000000" font-family="sans-serif" font-size="13" font-weight="bold" lengthAdjust="spacing" textLength="14.46" x="17" y="636.6455">13</text><text fill="#000000" font-family="sans-serif" font-size="13" lengthAdjust="spacing" textLength="103.3398" x="35.46" y="636.6455">maintenanceType</text><!--SRC=[ZLDDJyCm3BtdLvWTq7RO0OuJ8A69moGseOq_O5ApHgHErRYC_NlIhz6KRk1BrVZvsU_5yH-6SommWyonqsdXCW8fIbB-bCbHV-2UTdAq10LfGTxRFi2dcBY3uJsye_Ma59RYkCpUg50gGCHeaoCBJ1PhD2p4o9gshXHQEfR2MKl51D33ydNx75TulTXfP6u1k-NZPlEqLMh-K8DX0JfrpbEF-FMOqzJhcK8jvXE56bfbdSlXa9gW8elHS7KFDt1zFNP-go14tUkdPs9yRl7OnuDK1IuNuzZNDN5xQADXQgdgquG6W_ORje93JwOlMR5CPp5vvqZ7ZrRW4wr985nFAQVpAZgo-O-IWU887lrKl8ORvaPbbBvWqcGLbKr-rOqRzPkvRre_XWRsSyJ9k2OActeIL5i5qrNrMHkVeUZqwKjJFV3iBmybF9k31-eAr7zCUR64OG8AxXU0xPKrZoPswB8xvvsvvCheXF6gJMVZKmptxPmlvsOPrdSND0AfKkfkFZ-tgseeyHi0]--></g></svg>