<svg xmlns="http://www.w3.org/2000/svg" xmlns:xlink="http://www.w3.org/1999/xlink" contentStyleType="text/css" height="1494px" preserveAspectRatio="none" style="width:2394px;height:1494px;background:#FFFFFF;" version="1.1" viewBox="0 0 2394 1494" width="2394px" zoomAndPan="magnify"><defs/><g><!--class ApplicationSession--><g id="elem_ApplicationSession"><rect codeLine="11" fill="#F1F1F1" height="103.8633" id="ApplicationSession" rx="2.5" ry="2.5" style="stroke:#181818;stroke-width:0.5;" width="150.2959" x="7" y="288"/><ellipse cx="22" cy="304" fill="#ADD1B2" rx="11" ry="11" style="stroke:#181818;stroke-width:1.0;"/><path d="M24.7656,299.875 Q24.9219,299.6563 25.1094,299.5469 Q25.2969,299.4375 25.5156,299.4375 Q25.8906,299.4375 26.125,299.7031 Q26.3594,299.9531 26.3594,300.5625 L26.3594,302.0156 Q26.3594,302.625 26.125,302.8906 Q25.8906,303.1563 25.5156,303.1563 Q25.1719,303.1563 24.9688,302.9531 Q24.7656,302.7656 24.6563,302.25 Q24.6094,301.8906 24.4219,301.7031 Q24.0938,301.3281 23.4844,301.1094 Q22.875,300.8906 22.25,300.8906 Q21.4844,300.8906 20.8438,301.2188 Q20.2188,301.5469 19.7188,302.2969 Q19.2344,303.0469 19.2344,304.0781 L19.2344,305.1719 Q19.2344,306.4063 20.125,307.2344 Q21.0156,308.0469 22.6094,308.0469 Q23.5469,308.0469 24.2031,307.7969 Q24.5938,307.6406 25.0156,307.2031 Q25.2813,306.9375 25.4219,306.8594 Q25.5781,306.7813 25.7813,306.7813 Q26.1094,306.7813 26.3594,307.0469 Q26.625,307.2969 26.625,307.6406 Q26.625,307.9844 26.2813,308.3906 Q25.7813,308.9688 24.9844,309.2969 Q23.9063,309.75 22.6094,309.75 Q21.0938,309.75 19.8906,309.125 Q18.9063,308.625 18.2188,307.5625 Q17.5313,306.4844 17.5313,305.2031 L17.5313,304.0469 Q17.5313,302.7188 18.1406,301.5781 Q18.7656,300.4219 19.8594,299.8125 Q20.9531,299.1875 22.1875,299.1875 Q22.9219,299.1875 23.5625,299.3594 Q24.2188,299.5156 24.7656,299.875 Z " fill="#000000"/><text fill="#000000" font-family="sans-serif" font-size="14" lengthAdjust="spacing" textLength="118.2959" x="36" y="309.7969">ApplicationSession</text><line style="stroke:#181818;stroke-width:0.5;" x1="8" x2="156.2959" y1="320" y2="320"/><line style="stroke:#181818;stroke-width:0.5;" x1="8" x2="156.2959" y1="328" y2="328"/><text fill="#000000" font-family="sans-serif" font-size="14" lengthAdjust="spacing" textLength="132.2822" x="13" y="347.1074">-ApplicationSession()</text><text fill="#000000" font-family="sans-serif" font-size="14" lengthAdjust="spacing" text-decoration="underline" textLength="89.8857" x="13" y="365.7285">+getInstance()</text><text fill="#000000" font-family="sans-serif" font-size="14" lengthAdjust="spacing" textLength="133.4512" x="13" y="384.3496">+getCurrentSession()</text></g><!--class UserSession--><g id="elem_UserSession"><rect codeLine="18" fill="#F1F1F1" height="66.6211" id="UserSession" rx="2.5" ry="2.5" style="stroke:#181818;stroke-width:0.5;" width="113.5273" x="150" y="601"/><ellipse cx="165.9729" cy="617" fill="#ADD1B2" rx="11" ry="11" style="stroke:#181818;stroke-width:1.0;"/><path d="M168.7386,612.875 Q168.8948,612.6563 169.0823,612.5469 Q169.2698,612.4375 169.4886,612.4375 Q169.8636,612.4375 170.0979,612.7031 Q170.3323,612.9531 170.3323,613.5625 L170.3323,615.0156 Q170.3323,615.625 170.0979,615.8906 Q169.8636,616.1563 169.4886,616.1563 Q169.1448,616.1563 168.9417,615.9531 Q168.7386,615.7656 168.6292,615.25 Q168.5823,614.8906 168.3948,614.7031 Q168.0667,614.3281 167.4573,614.1094 Q166.8479,613.8906 166.2229,613.8906 Q165.4573,613.8906 164.8167,614.2188 Q164.1917,614.5469 163.6917,615.2969 Q163.2073,616.0469 163.2073,617.0781 L163.2073,618.1719 Q163.2073,619.4063 164.0979,620.2344 Q164.9886,621.0469 166.5823,621.0469 Q167.5198,621.0469 168.1761,620.7969 Q168.5667,620.6406 168.9886,620.2031 Q169.2542,619.9375 169.3948,619.8594 Q169.5511,619.7813 169.7542,619.7813 Q170.0823,619.7813 170.3323,620.0469 Q170.5979,620.2969 170.5979,620.6406 Q170.5979,620.9844 170.2542,621.3906 Q169.7542,621.9688 168.9573,622.2969 Q167.8792,622.75 166.5823,622.75 Q165.0667,622.75 163.8636,622.125 Q162.8792,621.625 162.1917,620.5625 Q161.5042,619.4844 161.5042,618.2031 L161.5042,617.0469 Q161.5042,615.7188 162.1136,614.5781 Q162.7386,613.4219 163.8323,612.8125 Q164.9261,612.1875 166.1604,612.1875 Q166.8948,612.1875 167.5354,612.3594 Q168.1917,612.5156 168.7386,612.875 Z " fill="#000000"/><text fill="#000000" font-family="sans-serif" font-size="14" lengthAdjust="spacing" textLength="79.3652" x="180.1892" y="622.7969">UserSession</text><line style="stroke:#181818;stroke-width:0.5;" x1="151" x2="262.5273" y1="633" y2="633"/><line style="stroke:#181818;stroke-width:0.5;" x1="151" x2="262.5273" y1="641" y2="641"/><text fill="#000000" font-family="sans-serif" font-size="14" lengthAdjust="spacing" textLength="101.5273" x="156" y="660.1074">+getUserEmail()</text></g><!--class Employee--><g id="elem_Employee"><rect codeLine="23" fill="#F1F1F1" height="122.4844" id="Employee" rx="2.5" ry="2.5" style="stroke:#181818;stroke-width:0.5;" width="113.1582" x="838.5" y="1153.5"/><ellipse cx="862.0065" cy="1169.5" fill="#ADD1B2" rx="11" ry="11" style="stroke:#181818;stroke-width:1.0;"/><path d="M864.7721,1165.375 Q864.9284,1165.1563 865.1159,1165.0469 Q865.3034,1164.9375 865.5221,1164.9375 Q865.8971,1164.9375 866.1315,1165.2031 Q866.3659,1165.4531 866.3659,1166.0625 L866.3659,1167.5156 Q866.3659,1168.125 866.1315,1168.3906 Q865.8971,1168.6563 865.5221,1168.6563 Q865.1784,1168.6563 864.9752,1168.4531 Q864.7721,1168.2656 864.6627,1167.75 Q864.6159,1167.3906 864.4284,1167.2031 Q864.1002,1166.8281 863.4909,1166.6094 Q862.8815,1166.3906 862.2565,1166.3906 Q861.4909,1166.3906 860.8502,1166.7188 Q860.2252,1167.0469 859.7252,1167.7969 Q859.2409,1168.5469 859.2409,1169.5781 L859.2409,1170.6719 Q859.2409,1171.9063 860.1315,1172.7344 Q861.0221,1173.5469 862.6159,1173.5469 Q863.5534,1173.5469 864.2096,1173.2969 Q864.6002,1173.1406 865.0221,1172.7031 Q865.2877,1172.4375 865.4284,1172.3594 Q865.5846,1172.2813 865.7877,1172.2813 Q866.1159,1172.2813 866.3659,1172.5469 Q866.6315,1172.7969 866.6315,1173.1406 Q866.6315,1173.4844 866.2877,1173.8906 Q865.7877,1174.4688 864.9909,1174.7969 Q863.9127,1175.25 862.6159,1175.25 Q861.1002,1175.25 859.8971,1174.625 Q858.9127,1174.125 858.2252,1173.0625 Q857.5377,1171.9844 857.5377,1170.7031 L857.5377,1169.5469 Q857.5377,1168.2188 858.1471,1167.0781 Q858.7721,1165.9219 859.8659,1165.3125 Q860.9596,1164.6875 862.194,1164.6875 Q862.9284,1164.6875 863.569,1164.8594 Q864.2252,1165.0156 864.7721,1165.375 Z " fill="#000000"/><text fill="#000000" font-family="sans-serif" font-size="14" lengthAdjust="spacing" textLength="62.2549" x="877.8968" y="1175.2969">Employee</text><line style="stroke:#181818;stroke-width:0.5;" x1="839.5" x2="950.6582" y1="1185.5" y2="1185.5"/><text fill="#000000" font-family="sans-serif" font-size="14" lengthAdjust="spacing" textLength="87.9238" x="844.5" y="1204.6074">-name : String</text><text fill="#000000" font-family="sans-serif" font-size="14" lengthAdjust="spacing" textLength="86.3584" x="844.5" y="1223.2285">-email : String</text><text fill="#000000" font-family="sans-serif" font-size="14" lengthAdjust="spacing" textLength="101.1582" x="844.5" y="1241.8496">-position : String</text><text fill="#000000" font-family="sans-serif" font-size="14" lengthAdjust="spacing" textLength="91.834" x="844.5" y="1260.4707">-phone : String</text><line style="stroke:#181818;stroke-width:0.5;" x1="839.5" x2="950.6582" y1="1267.9844" y2="1267.9844"/></g><!--class Task--><g id="elem_Task"><rect codeLine="30" fill="#F1F1F1" height="215.5898" id="Task" rx="2.5" ry="2.5" style="stroke:#181818;stroke-width:0.5;" width="268.7715" x="627.5" y="849"/><ellipse cx="742.4668" cy="865" fill="#ADD1B2" rx="11" ry="11" style="stroke:#181818;stroke-width:1.0;"/><path d="M745.2324,860.875 Q745.3887,860.6563 745.5762,860.5469 Q745.7637,860.4375 745.9824,860.4375 Q746.3574,860.4375 746.5918,860.7031 Q746.8262,860.9531 746.8262,861.5625 L746.8262,863.0156 Q746.8262,863.625 746.5918,863.8906 Q746.3574,864.1563 745.9824,864.1563 Q745.6387,864.1563 745.4355,863.9531 Q745.2324,863.7656 745.123,863.25 Q745.0762,862.8906 744.8887,862.7031 Q744.5605,862.3281 743.9512,862.1094 Q743.3418,861.8906 742.7168,861.8906 Q741.9512,861.8906 741.3105,862.2188 Q740.6855,862.5469 740.1855,863.2969 Q739.7012,864.0469 739.7012,865.0781 L739.7012,866.1719 Q739.7012,867.4063 740.5918,868.2344 Q741.4824,869.0469 743.0762,869.0469 Q744.0137,869.0469 744.6699,868.7969 Q745.0605,868.6406 745.4824,868.2031 Q745.748,867.9375 745.8887,867.8594 Q746.0449,867.7813 746.248,867.7813 Q746.5762,867.7813 746.8262,868.0469 Q747.0918,868.2969 747.0918,868.6406 Q747.0918,868.9844 746.748,869.3906 Q746.248,869.9688 745.4512,870.2969 Q744.373,870.75 743.0762,870.75 Q741.5605,870.75 740.3574,870.125 Q739.373,869.625 738.6855,868.5625 Q737.998,867.4844 737.998,866.2031 L737.998,865.0469 Q737.998,863.7188 738.6074,862.5781 Q739.2324,861.4219 740.3262,860.8125 Q741.4199,860.1875 742.6543,860.1875 Q743.3887,860.1875 744.0293,860.3594 Q744.6855,860.5156 745.2324,860.875 Z " fill="#000000"/><text fill="#000000" font-family="sans-serif" font-size="14" lengthAdjust="spacing" textLength="30.3379" x="762.9668" y="870.7969">Task</text><line style="stroke:#181818;stroke-width:0.5;" x1="628.5" x2="895.2715" y1="881" y2="881"/><text fill="#000000" font-family="sans-serif" font-size="14" lengthAdjust="spacing" textLength="108.1582" x="633.5" y="900.1074">-reference :String</text><text fill="#000000" font-family="sans-serif" font-size="14" lengthAdjust="spacing" textLength="120.6064" x="633.5" y="918.7285">-description : String</text><text fill="#000000" font-family="sans-serif" font-size="14" lengthAdjust="spacing" textLength="172.7236" x="633.5" y="937.3496">-informalDescription : String</text><text fill="#000000" font-family="sans-serif" font-size="14" lengthAdjust="spacing" textLength="178.1855" x="633.5" y="955.9707">-technicalDescription : String</text><text fill="#000000" font-family="sans-serif" font-size="14" lengthAdjust="spacing" textLength="81.71" x="633.5" y="974.5918">-duration : int</text><text fill="#000000" font-family="sans-serif" font-size="14" lengthAdjust="spacing" textLength="84.0479" x="633.5" y="993.2129">-cost : double</text><line style="stroke:#181818;stroke-width:0.5;" x1="628.5" x2="895.2715" y1="1000.7266" y2="1000.7266"/><text fill="#000000" font-family="sans-serif" font-size="14" lengthAdjust="spacing" textLength="181.6924" x="633.5" y="1019.834">+Task(reference, description,</text><text fill="#000000" font-family="sans-serif" font-size="14" lengthAdjust="spacing" textLength="256.7715" x="633.5" y="1038.4551">informalDescription, technicalDescription,</text><text fill="#000000" font-family="sans-serif" font-size="14" lengthAdjust="spacing" textLength="249.7852" x="633.5" y="1057.0762">duration, cost, taskCategory, createdBy)</text></g><!--class TaskCategory--><g id="elem_TaskCategory"><rect codeLine="41" fill="#F1F1F1" height="66.6211" id="TaskCategory" rx="2.5" ry="2.5" style="stroke:#181818;stroke-width:0.5;" width="132.6064" x="410.5" y="1181"/><ellipse cx="431.5579" cy="1197" fill="#ADD1B2" rx="11" ry="11" style="stroke:#181818;stroke-width:1.0;"/><path d="M434.3235,1192.875 Q434.4797,1192.6563 434.6672,1192.5469 Q434.8547,1192.4375 435.0735,1192.4375 Q435.4485,1192.4375 435.6829,1192.7031 Q435.9172,1192.9531 435.9172,1193.5625 L435.9172,1195.0156 Q435.9172,1195.625 435.6829,1195.8906 Q435.4485,1196.1563 435.0735,1196.1563 Q434.7297,1196.1563 434.5266,1195.9531 Q434.3235,1195.7656 434.2141,1195.25 Q434.1672,1194.8906 433.9797,1194.7031 Q433.6516,1194.3281 433.0422,1194.1094 Q432.4329,1193.8906 431.8079,1193.8906 Q431.0422,1193.8906 430.4016,1194.2188 Q429.7766,1194.5469 429.2766,1195.2969 Q428.7922,1196.0469 428.7922,1197.0781 L428.7922,1198.1719 Q428.7922,1199.4063 429.6829,1200.2344 Q430.5735,1201.0469 432.1672,1201.0469 Q433.1047,1201.0469 433.761,1200.7969 Q434.1516,1200.6406 434.5735,1200.2031 Q434.8391,1199.9375 434.9797,1199.8594 Q435.136,1199.7813 435.3391,1199.7813 Q435.6672,1199.7813 435.9172,1200.0469 Q436.1829,1200.2969 436.1829,1200.6406 Q436.1829,1200.9844 435.8391,1201.3906 Q435.3391,1201.9688 434.5422,1202.2969 Q433.4641,1202.75 432.1672,1202.75 Q430.6516,1202.75 429.4485,1202.125 Q428.4641,1201.625 427.7766,1200.5625 Q427.0891,1199.4844 427.0891,1198.2031 L427.0891,1197.0469 Q427.0891,1195.7188 427.6985,1194.5781 Q428.3235,1193.4219 429.4172,1192.8125 Q430.511,1192.1875 431.7454,1192.1875 Q432.4797,1192.1875 433.1204,1192.3594 Q433.7766,1192.5156 434.3235,1192.875 Z " fill="#000000"/><text fill="#000000" font-family="sans-serif" font-size="14" lengthAdjust="spacing" textLength="87.1445" x="446.9041" y="1202.7969">TaskCategory</text><line style="stroke:#181818;stroke-width:0.5;" x1="411.5" x2="542.1064" y1="1213" y2="1213"/><text fill="#000000" font-family="sans-serif" font-size="14" lengthAdjust="spacing" textLength="120.6064" x="416.5" y="1232.1074">-description : String</text><line style="stroke:#181818;stroke-width:0.5;" x1="411.5" x2="542.1064" y1="1239.6211" y2="1239.6211"/></g><!--class Organization--><g id="elem_Organization"><rect codeLine="45" fill="#F1F1F1" height="271.4531" id="Organization" rx="2.5" ry="2.5" style="stroke:#181818;stroke-width:0.5;" width="525.208" x="704.5" y="499"/><ellipse cx="923.1646" cy="515" fill="#ADD1B2" rx="11" ry="11" style="stroke:#181818;stroke-width:1.0;"/><path d="M925.9302,510.875 Q926.0864,510.6563 926.2739,510.5469 Q926.4614,510.4375 926.6802,510.4375 Q927.0552,510.4375 927.2896,510.7031 Q927.5239,510.9531 927.5239,511.5625 L927.5239,513.0156 Q927.5239,513.625 927.2896,513.8906 Q927.0552,514.1563 926.6802,514.1563 Q926.3364,514.1563 926.1333,513.9531 Q925.9302,513.7656 925.8208,513.25 Q925.7739,512.8906 925.5864,512.7031 Q925.2583,512.3281 924.6489,512.1094 Q924.0396,511.8906 923.4146,511.8906 Q922.6489,511.8906 922.0083,512.2188 Q921.3833,512.5469 920.8833,513.2969 Q920.3989,514.0469 920.3989,515.0781 L920.3989,516.1719 Q920.3989,517.4063 921.2896,518.2344 Q922.1802,519.0469 923.7739,519.0469 Q924.7114,519.0469 925.3677,518.7969 Q925.7583,518.6406 926.1802,518.2031 Q926.4458,517.9375 926.5864,517.8594 Q926.7427,517.7813 926.9458,517.7813 Q927.2739,517.7813 927.5239,518.0469 Q927.7896,518.2969 927.7896,518.6406 Q927.7896,518.9844 927.4458,519.3906 Q926.9458,519.9688 926.1489,520.2969 Q925.0708,520.75 923.7739,520.75 Q922.2583,520.75 921.0552,520.125 Q920.0708,519.625 919.3833,518.5625 Q918.6958,517.4844 918.6958,516.2031 L918.6958,515.0469 Q918.6958,513.7188 919.3052,512.5781 Q919.9302,511.4219 921.0239,510.8125 Q922.1177,510.1875 923.3521,510.1875 Q924.0864,510.1875 924.7271,510.3594 Q925.3833,510.5156 925.9302,510.875 Z " fill="#000000"/><text fill="#000000" font-family="sans-serif" font-size="14" lengthAdjust="spacing" textLength="79.3789" x="943.6646" y="520.7969">Organization</text><line style="stroke:#181818;stroke-width:0.5;" x1="705.5" x2="1228.708" y1="531" y2="531"/><text fill="#000000" font-family="sans-serif" font-size="14" lengthAdjust="spacing" textLength="87.9238" x="710.5" y="550.1074">-name : String</text><text fill="#000000" font-family="sans-serif" font-size="14" lengthAdjust="spacing" textLength="121.3721" x="710.5" y="568.7285">-vatNumber : String</text><text fill="#000000" font-family="sans-serif" font-size="14" lengthAdjust="spacing" textLength="100.3721" x="710.5" y="587.3496">-website : String</text><text fill="#000000" font-family="sans-serif" font-size="14" lengthAdjust="spacing" textLength="91.834" x="710.5" y="605.9707">-phone : String</text><text fill="#000000" font-family="sans-serif" font-size="14" lengthAdjust="spacing" textLength="86.3584" x="710.5" y="624.5918">-email : String</text><line style="stroke:#181818;stroke-width:0.5;" x1="705.5" x2="1228.708" y1="632.1055" y2="632.1055"/><text fill="#000000" font-family="sans-serif" font-size="14" lengthAdjust="spacing" textLength="513.208" x="710.5" y="651.2129">+Organization(name, vatNumber, webSite, phone, email, postalAddress, manager)</text><text fill="#000000" font-family="sans-serif" font-size="14" lengthAdjust="spacing" textLength="195.6855" x="710.5" y="669.834">+anyEmployeeHasEmail(email)</text><text fill="#000000" font-family="sans-serif" font-size="14" lengthAdjust="spacing" textLength="184.0166" x="710.5" y="688.4551">+getEmployeeByEmail(email)</text><text fill="#000000" font-family="sans-serif" font-size="14" lengthAdjust="spacing" textLength="488.2637" x="710.5" y="707.0762">+createTask(reference, description, informalDesccription, technicalDescription,</text><text fill="#000000" font-family="sans-serif" font-size="14" lengthAdjust="spacing" textLength="247.4541" x="710.5" y="725.6973">duration, cost, taskCategory, employee)</text><text fill="#000000" font-family="sans-serif" font-size="14" lengthAdjust="spacing" textLength="93.3584" x="710.5" y="744.3184">-addTask(task)</text><text fill="#000000" font-family="sans-serif" font-size="14" lengthAdjust="spacing" textLength="118.2549" x="710.5" y="762.9395">-validateTask(task)</text></g><!--class TaskCategoryRepository--><g id="elem_TaskCategoryRepository"><rect codeLine="60" fill="#F1F1F1" height="85.2422" id="TaskCategoryRepository" rx="2.5" ry="2.5" style="stroke:#181818;stroke-width:0.5;" width="374.9814" x="412.5" y="297.5"/><ellipse cx="518.71" cy="313.5" fill="#ADD1B2" rx="11" ry="11" style="stroke:#181818;stroke-width:1.0;"/><path d="M521.4756,309.375 Q521.6318,309.1563 521.8193,309.0469 Q522.0068,308.9375 522.2256,308.9375 Q522.6006,308.9375 522.835,309.2031 Q523.0693,309.4531 523.0693,310.0625 L523.0693,311.5156 Q523.0693,312.125 522.835,312.3906 Q522.6006,312.6563 522.2256,312.6563 Q521.8818,312.6563 521.6787,312.4531 Q521.4756,312.2656 521.3662,311.75 Q521.3193,311.3906 521.1318,311.2031 Q520.8037,310.8281 520.1943,310.6094 Q519.585,310.3906 518.96,310.3906 Q518.1943,310.3906 517.5537,310.7188 Q516.9287,311.0469 516.4287,311.7969 Q515.9443,312.5469 515.9443,313.5781 L515.9443,314.6719 Q515.9443,315.9063 516.835,316.7344 Q517.7256,317.5469 519.3193,317.5469 Q520.2568,317.5469 520.9131,317.2969 Q521.3037,317.1406 521.7256,316.7031 Q521.9912,316.4375 522.1318,316.3594 Q522.2881,316.2813 522.4912,316.2813 Q522.8193,316.2813 523.0693,316.5469 Q523.335,316.7969 523.335,317.1406 Q523.335,317.4844 522.9912,317.8906 Q522.4912,318.4688 521.6943,318.7969 Q520.6162,319.25 519.3193,319.25 Q517.8037,319.25 516.6006,318.625 Q515.6162,318.125 514.9287,317.0625 Q514.2412,315.9844 514.2412,314.7031 L514.2412,313.5469 Q514.2412,312.2188 514.8506,311.0781 Q515.4756,309.9219 516.5693,309.3125 Q517.6631,308.6875 518.8975,308.6875 Q519.6318,308.6875 520.2725,308.8594 Q520.9287,309.0156 521.4756,309.375 Z " fill="#000000"/><text fill="#000000" font-family="sans-serif" font-size="14" lengthAdjust="spacing" textLength="154.0615" x="539.21" y="319.2969">TaskCategoryRepository</text><line style="stroke:#181818;stroke-width:0.5;" x1="413.5" x2="786.4814" y1="329.5" y2="329.5"/><line style="stroke:#181818;stroke-width:0.5;" x1="413.5" x2="786.4814" y1="337.5" y2="337.5"/><text fill="#000000" font-family="sans-serif" font-size="14" lengthAdjust="spacing" textLength="135.0029" x="418.5" y="356.6074">+getTaskCategories()</text><text fill="#000000" font-family="sans-serif" font-size="14" lengthAdjust="spacing" textLength="362.9814" x="418.5" y="375.2285">+getTaskCategoryByDescription(taskCategoryDescription)</text></g><!--class OrganizationRepository--><g id="elem_OrganizationRepository"><rect codeLine="65" fill="#F1F1F1" height="66.6211" id="OrganizationRepository" rx="2.5" ry="2.5" style="stroke:#181818;stroke-width:0.5;" width="275.3955" x="894.5" y="306.5"/><ellipse cx="954.7998" cy="322.5" fill="#ADD1B2" rx="11" ry="11" style="stroke:#181818;stroke-width:1.0;"/><path d="M957.5654,318.375 Q957.7217,318.1563 957.9092,318.0469 Q958.0967,317.9375 958.3154,317.9375 Q958.6904,317.9375 958.9248,318.2031 Q959.1592,318.4531 959.1592,319.0625 L959.1592,320.5156 Q959.1592,321.125 958.9248,321.3906 Q958.6904,321.6563 958.3154,321.6563 Q957.9717,321.6563 957.7686,321.4531 Q957.5654,321.2656 957.4561,320.75 Q957.4092,320.3906 957.2217,320.2031 Q956.8936,319.8281 956.2842,319.6094 Q955.6748,319.3906 955.0498,319.3906 Q954.2842,319.3906 953.6436,319.7188 Q953.0186,320.0469 952.5186,320.7969 Q952.0342,321.5469 952.0342,322.5781 L952.0342,323.6719 Q952.0342,324.9063 952.9248,325.7344 Q953.8154,326.5469 955.4092,326.5469 Q956.3467,326.5469 957.0029,326.2969 Q957.3936,326.1406 957.8154,325.7031 Q958.0811,325.4375 958.2217,325.3594 Q958.3779,325.2813 958.5811,325.2813 Q958.9092,325.2813 959.1592,325.5469 Q959.4248,325.7969 959.4248,326.1406 Q959.4248,326.4844 959.0811,326.8906 Q958.5811,327.4688 957.7842,327.7969 Q956.7061,328.25 955.4092,328.25 Q953.8936,328.25 952.6904,327.625 Q951.7061,327.125 951.0186,326.0625 Q950.3311,324.9844 950.3311,323.7031 L950.3311,322.5469 Q950.3311,321.2188 950.9404,320.0781 Q951.5654,318.9219 952.6592,318.3125 Q953.7529,317.6875 954.9873,317.6875 Q955.7217,317.6875 956.3623,317.8594 Q957.0186,318.0156 957.5654,318.375 Z " fill="#000000"/><text fill="#000000" font-family="sans-serif" font-size="14" lengthAdjust="spacing" textLength="146.2959" x="975.2998" y="328.2969">OrganizationRepository</text><line style="stroke:#181818;stroke-width:0.5;" x1="895.5" x2="1168.8955" y1="338.5" y2="338.5"/><line style="stroke:#181818;stroke-width:0.5;" x1="895.5" x2="1168.8955" y1="346.5" y2="346.5"/><text fill="#000000" font-family="sans-serif" font-size="14" lengthAdjust="spacing" textLength="263.3955" x="900.5" y="365.6074">+getOrganizationByEmployeeEmail(email)</text></g><!--class Repositories--><g id="elem_Repositories"><rect codeLine="69" fill="#F1F1F1" height="122.4844" id="Repositories" rx="2.5" ry="2.5" style="stroke:#181818;stroke-width:0.5;" width="203.0234" x="928.5" y="40"/><ellipse cx="986.855" cy="56" fill="#ADD1B2" rx="11" ry="11" style="stroke:#181818;stroke-width:1.0;"/><path d="M989.6206,51.875 Q989.7769,51.6563 989.9644,51.5469 Q990.1519,51.4375 990.3706,51.4375 Q990.7456,51.4375 990.98,51.7031 Q991.2144,51.9531 991.2144,52.5625 L991.2144,54.0156 Q991.2144,54.625 990.98,54.8906 Q990.7456,55.1563 990.3706,55.1563 Q990.0269,55.1563 989.8237,54.9531 Q989.6206,54.7656 989.5112,54.25 Q989.4644,53.8906 989.2769,53.7031 Q988.9487,53.3281 988.3394,53.1094 Q987.73,52.8906 987.105,52.8906 Q986.3394,52.8906 985.6987,53.2188 Q985.0737,53.5469 984.5737,54.2969 Q984.0894,55.0469 984.0894,56.0781 L984.0894,57.1719 Q984.0894,58.4063 984.98,59.2344 Q985.8706,60.0469 987.4644,60.0469 Q988.4019,60.0469 989.0581,59.7969 Q989.4487,59.6406 989.8706,59.2031 Q990.1362,58.9375 990.2769,58.8594 Q990.4331,58.7813 990.6362,58.7813 Q990.9644,58.7813 991.2144,59.0469 Q991.48,59.2969 991.48,59.6406 Q991.48,59.9844 991.1362,60.3906 Q990.6362,60.9688 989.8394,61.2969 Q988.7612,61.75 987.4644,61.75 Q985.9487,61.75 984.7456,61.125 Q983.7612,60.625 983.0737,59.5625 Q982.3862,58.4844 982.3862,57.2031 L982.3862,56.0469 Q982.3862,54.7188 982.9956,53.5781 Q983.6206,52.4219 984.7144,51.8125 Q985.8081,51.1875 987.0425,51.1875 Q987.7769,51.1875 988.4175,51.3594 Q989.0737,51.5156 989.6206,51.875 Z " fill="#000000"/><text fill="#000000" font-family="sans-serif" font-size="14" lengthAdjust="spacing" textLength="77.8135" x="1007.355" y="61.7969">Repositories</text><line style="stroke:#181818;stroke-width:0.5;" x1="929.5" x2="1130.5234" y1="72" y2="72"/><line style="stroke:#181818;stroke-width:0.5;" x1="929.5" x2="1130.5234" y1="80" y2="80"/><text fill="#000000" font-family="sans-serif" font-size="14" lengthAdjust="spacing" textLength="91.7998" x="934.5" y="99.1074">-Repositories()</text><text fill="#000000" font-family="sans-serif" font-size="14" lengthAdjust="spacing" text-decoration="underline" textLength="89.8857" x="934.5" y="117.7285">+getInstance()</text><text fill="#000000" font-family="sans-serif" font-size="14" lengthAdjust="spacing" textLength="191.0234" x="934.5" y="136.3496">+getTaskCategoryRepository()</text><text fill="#000000" font-family="sans-serif" font-size="14" lengthAdjust="spacing" textLength="183.2578" x="934.5" y="154.9707">+getOrganizationRepository()</text></g><!--class CreateTaskController--><g id="elem_CreateTaskController"><rect codeLine="76" fill="#F1F1F1" height="159.7266" id="CreateTaskController" rx="2.5" ry="2.5" style="stroke:#181818;stroke-width:0.5;" width="405.7295" x="249" y="21"/><ellipse cx="381.0908" cy="37" fill="#ADD1B2" rx="11" ry="11" style="stroke:#181818;stroke-width:1.0;"/><path d="M383.8564,32.875 Q384.0127,32.6563 384.2002,32.5469 Q384.3877,32.4375 384.6064,32.4375 Q384.9814,32.4375 385.2158,32.7031 Q385.4502,32.9531 385.4502,33.5625 L385.4502,35.0156 Q385.4502,35.625 385.2158,35.8906 Q384.9814,36.1563 384.6064,36.1563 Q384.2627,36.1563 384.0596,35.9531 Q383.8564,35.7656 383.7471,35.25 Q383.7002,34.8906 383.5127,34.7031 Q383.1846,34.3281 382.5752,34.1094 Q381.9658,33.8906 381.3408,33.8906 Q380.5752,33.8906 379.9346,34.2188 Q379.3096,34.5469 378.8096,35.2969 Q378.3252,36.0469 378.3252,37.0781 L378.3252,38.1719 Q378.3252,39.4063 379.2158,40.2344 Q380.1064,41.0469 381.7002,41.0469 Q382.6377,41.0469 383.2939,40.7969 Q383.6846,40.6406 384.1064,40.2031 Q384.3721,39.9375 384.5127,39.8594 Q384.6689,39.7813 384.8721,39.7813 Q385.2002,39.7813 385.4502,40.0469 Q385.7158,40.2969 385.7158,40.6406 Q385.7158,40.9844 385.3721,41.3906 Q384.8721,41.9688 384.0752,42.2969 Q382.9971,42.75 381.7002,42.75 Q380.1846,42.75 378.9814,42.125 Q377.9971,41.625 377.3096,40.5625 Q376.6221,39.4844 376.6221,38.2031 L376.6221,37.0469 Q376.6221,35.7188 377.2314,34.5781 Q377.8564,33.4219 378.9502,32.8125 Q380.0439,32.1875 381.2783,32.1875 Q382.0127,32.1875 382.6533,32.3594 Q383.3096,32.5156 383.8564,32.875 Z " fill="#000000"/><text fill="#000000" font-family="sans-serif" font-size="14" lengthAdjust="spacing" textLength="133.0479" x="401.5908" y="42.7969">CreateTaskController</text><line style="stroke:#181818;stroke-width:0.5;" x1="250" x2="653.7295" y1="53" y2="53"/><line style="stroke:#181818;stroke-width:0.5;" x1="250" x2="653.7295" y1="61" y2="61"/><text fill="#000000" font-family="sans-serif" font-size="14" lengthAdjust="spacing" textLength="150.5479" x="255" y="80.1074">+CreateTaskController()</text><text fill="#000000" font-family="sans-serif" font-size="14" lengthAdjust="spacing" textLength="135.0029" x="255" y="98.7285">+getTaskCategories()</text><text fill="#000000" font-family="sans-serif" font-size="14" lengthAdjust="spacing" textLength="348.2021" x="255" y="117.3496">+createTask(reference, description, informalDescription,</text><text fill="#000000" font-family="sans-serif" font-size="14" lengthAdjust="spacing" textLength="382.0605" x="266.6689" y="135.9707">technicalDescription, duration, cost, taskCategoryDescription)</text><text fill="#000000" font-family="sans-serif" font-size="14" lengthAdjust="spacing" textLength="359.4678" x="255" y="154.5918">-getTaskCategoryByDescription(taskCategoryDescription)</text><text fill="#000000" font-family="sans-serif" font-size="14" lengthAdjust="spacing" textLength="178.1719" x="255" y="173.2129">-getEmployeeFromSession()</text></g><g id="elem_GMN12"><path d="M690.5,78.5 L690.5,123.082 L893.5762,123.082 L893.5762,88.5 L883.5762,78.5 L690.5,78.5 " fill="#FEFFDD" style="stroke:#181818;stroke-width:0.5;"/><path d="M883.5762,78.5 L883.5762,88.5 L893.5762,88.5 L883.5762,78.5 " fill="#FEFFDD" style="stroke:#181818;stroke-width:1.0;"/><text fill="#000000" font-family="sans-serif" font-size="13" lengthAdjust="spacing" textLength="182.0762" x="696.5" y="97.5283">categoryDescription is retrieved</text><text fill="#000000" font-family="sans-serif" font-size="13" lengthAdjust="spacing" textLength="106.9453" x="696.5" y="114.8193">from selected data</text></g><g id="elem_GMN15"><path d="M530.5,612 L530.5,656.582 A0,0 0 0 0 530.5,656.582 L669.998,656.582 A0,0 0 0 0 669.998,656.582 L669.998,622 L659.998,612 L604,612 L600,382.6 L596,612 L530.5,612 A0,0 0 0 0 530.5,612 " fill="#FEFFDD" style="stroke:#181818;stroke-width:0.5;"/><path d="M659.998,612 L659.998,622 L669.998,622 L659.998,612 " fill="#FEFFDD" style="stroke:#181818;stroke-width:0.5;"/><text fill="#000000" font-family="sans-serif" font-size="13" lengthAdjust="spacing" textLength="116.3398" x="536.5" y="631.0283">- used for displaying</text><text fill="#000000" font-family="sans-serif" font-size="13" lengthAdjust="spacing" textLength="118.498" x="536.5" y="648.3193">the task category list</text></g><!--class CreateTaskUI--><g id="elem_CreateTaskUI"><rect codeLine="94" fill="#F1F1F1" height="48" id="CreateTaskUI" rx="2.5" ry="2.5" style="stroke:#181818;stroke-width:0.5;" width="118.3584" x="96" y="77"/><ellipse cx="111" cy="93" fill="#ADD1B2" rx="11" ry="11" style="stroke:#181818;stroke-width:1.0;"/><path d="M113.7656,88.875 Q113.9219,88.6563 114.1094,88.5469 Q114.2969,88.4375 114.5156,88.4375 Q114.8906,88.4375 115.125,88.7031 Q115.3594,88.9531 115.3594,89.5625 L115.3594,91.0156 Q115.3594,91.625 115.125,91.8906 Q114.8906,92.1563 114.5156,92.1563 Q114.1719,92.1563 113.9688,91.9531 Q113.7656,91.7656 113.6563,91.25 Q113.6094,90.8906 113.4219,90.7031 Q113.0938,90.3281 112.4844,90.1094 Q111.875,89.8906 111.25,89.8906 Q110.4844,89.8906 109.8438,90.2188 Q109.2188,90.5469 108.7188,91.2969 Q108.2344,92.0469 108.2344,93.0781 L108.2344,94.1719 Q108.2344,95.4063 109.125,96.2344 Q110.0156,97.0469 111.6094,97.0469 Q112.5469,97.0469 113.2031,96.7969 Q113.5938,96.6406 114.0156,96.2031 Q114.2813,95.9375 114.4219,95.8594 Q114.5781,95.7813 114.7813,95.7813 Q115.1094,95.7813 115.3594,96.0469 Q115.625,96.2969 115.625,96.6406 Q115.625,96.9844 115.2813,97.3906 Q114.7813,97.9688 113.9844,98.2969 Q112.9063,98.75 111.6094,98.75 Q110.0938,98.75 108.8906,98.125 Q107.9063,97.625 107.2188,96.5625 Q106.5313,95.4844 106.5313,94.2031 L106.5313,93.0469 Q106.5313,91.7188 107.1406,90.5781 Q107.7656,89.4219 108.8594,88.8125 Q109.9531,88.1875 111.1875,88.1875 Q111.9219,88.1875 112.5625,88.3594 Q113.2188,88.5156 113.7656,88.875 Z " fill="#000000"/><text fill="#000000" font-family="sans-serif" font-size="14" lengthAdjust="spacing" textLength="86.3584" x="125" y="98.7969">CreateTaskUI</text><line style="stroke:#181818;stroke-width:0.5;" x1="97" x2="213.3584" y1="109" y2="109"/><line style="stroke:#181818;stroke-width:0.5;" x1="97" x2="213.3584" y1="117" y2="117"/></g><!--class MaintenanceRouteUI--><g id="elem_MaintenanceRouteUI"><rect codeLine="124" fill="#F1F1F1" height="85.2422" id="MaintenanceRouteUI" rx="2.5" ry="2.5" style="stroke:#181818;stroke-width:0.5;" width="183.5957" x="1928" y="58.5"/><ellipse cx="1952.0325" cy="74.5" fill="#ADD1B2" rx="11" ry="11" style="stroke:#181818;stroke-width:1.0;"/><path d="M1954.7981,70.375 Q1954.9544,70.1563 1955.1419,70.0469 Q1955.3294,69.9375 1955.5481,69.9375 Q1955.9231,69.9375 1956.1575,70.2031 Q1956.3919,70.4531 1956.3919,71.0625 L1956.3919,72.5156 Q1956.3919,73.125 1956.1575,73.3906 Q1955.9231,73.6563 1955.5481,73.6563 Q1955.2044,73.6563 1955.0013,73.4531 Q1954.7981,73.2656 1954.6888,72.75 Q1954.6419,72.3906 1954.4544,72.2031 Q1954.1263,71.8281 1953.5169,71.6094 Q1952.9075,71.3906 1952.2825,71.3906 Q1951.5169,71.3906 1950.8763,71.7188 Q1950.2513,72.0469 1949.7513,72.7969 Q1949.2669,73.5469 1949.2669,74.5781 L1949.2669,75.6719 Q1949.2669,76.9063 1950.1575,77.7344 Q1951.0481,78.5469 1952.6419,78.5469 Q1953.5794,78.5469 1954.2356,78.2969 Q1954.6263,78.1406 1955.0481,77.7031 Q1955.3138,77.4375 1955.4544,77.3594 Q1955.6106,77.2813 1955.8138,77.2813 Q1956.1419,77.2813 1956.3919,77.5469 Q1956.6575,77.7969 1956.6575,78.1406 Q1956.6575,78.4844 1956.3138,78.8906 Q1955.8138,79.4688 1955.0169,79.7969 Q1953.9388,80.25 1952.6419,80.25 Q1951.1263,80.25 1949.9231,79.625 Q1948.9388,79.125 1948.2513,78.0625 Q1947.5638,76.9844 1947.5638,75.7031 L1947.5638,74.5469 Q1947.5638,73.2188 1948.1731,72.0781 Q1948.7981,70.9219 1949.8919,70.3125 Q1950.9856,69.6875 1952.22,69.6875 Q1952.9544,69.6875 1953.595,69.8594 Q1954.2513,70.0156 1954.7981,70.375 Z " fill="#000000"/><text fill="#000000" font-family="sans-serif" font-size="14" lengthAdjust="spacing" textLength="131.5234" x="1968.0397" y="80.2969">MaintenanceRouteUI</text><line style="stroke:#181818;stroke-width:0.5;" x1="1929" x2="2110.5957" y1="90.5" y2="90.5"/><line style="stroke:#181818;stroke-width:0.5;" x1="1929" x2="2110.5957" y1="98.5" y2="98.5"/><text fill="#000000" font-family="sans-serif" font-size="14" lengthAdjust="spacing" textLength="149.0234" x="1934" y="117.6074">+MaintenanceRouteUI()</text><text fill="#000000" font-family="sans-serif" font-size="14" lengthAdjust="spacing" textLength="171.5957" x="1934" y="136.2285">+checkMaintenanceRoute()</text></g><!--class MaintenanceRouteController--><g id="elem_MaintenanceRouteController"><rect codeLine="129" fill="#F1F1F1" height="159.7266" id="MaintenanceRouteController" rx="2.5" ry="2.5" style="stroke:#181818;stroke-width:0.5;" width="313.5674" x="1863" y="260"/><ellipse cx="1926.4272" cy="276" fill="#ADD1B2" rx="11" ry="11" style="stroke:#181818;stroke-width:1.0;"/><path d="M1929.1929,271.875 Q1929.3491,271.6563 1929.5366,271.5469 Q1929.7241,271.4375 1929.9429,271.4375 Q1930.3179,271.4375 1930.5522,271.7031 Q1930.7866,271.9531 1930.7866,272.5625 L1930.7866,274.0156 Q1930.7866,274.625 1930.5522,274.8906 Q1930.3179,275.1563 1929.9429,275.1563 Q1929.5991,275.1563 1929.396,274.9531 Q1929.1929,274.7656 1929.0835,274.25 Q1929.0366,273.8906 1928.8491,273.7031 Q1928.521,273.3281 1927.9116,273.1094 Q1927.3022,272.8906 1926.6772,272.8906 Q1925.9116,272.8906 1925.271,273.2188 Q1924.646,273.5469 1924.146,274.2969 Q1923.6616,275.0469 1923.6616,276.0781 L1923.6616,277.1719 Q1923.6616,278.4063 1924.5522,279.2344 Q1925.4429,280.0469 1927.0366,280.0469 Q1927.9741,280.0469 1928.6304,279.7969 Q1929.021,279.6406 1929.4429,279.2031 Q1929.7085,278.9375 1929.8491,278.8594 Q1930.0054,278.7813 1930.2085,278.7813 Q1930.5366,278.7813 1930.7866,279.0469 Q1931.0522,279.2969 1931.0522,279.6406 Q1931.0522,279.9844 1930.7085,280.3906 Q1930.2085,280.9688 1929.4116,281.2969 Q1928.3335,281.75 1927.0366,281.75 Q1925.521,281.75 1924.3179,281.125 Q1923.3335,280.625 1922.646,279.5625 Q1921.9585,278.4844 1921.9585,277.2031 L1921.9585,276.0469 Q1921.9585,274.7188 1922.5679,273.5781 Q1923.1929,272.4219 1924.2866,271.8125 Q1925.3804,271.1875 1926.6147,271.1875 Q1927.3491,271.1875 1927.9897,271.3594 Q1928.646,271.5156 1929.1929,271.875 Z " fill="#000000"/><text fill="#000000" font-family="sans-serif" font-size="14" lengthAdjust="spacing" textLength="178.2129" x="1946.9272" y="281.7969">MaintenanceRouteController</text><line style="stroke:#181818;stroke-width:0.5;" x1="1864" x2="2175.5674" y1="292" y2="292"/><text fill="#000000" font-family="sans-serif" font-size="14" lengthAdjust="spacing" textLength="211.5996" x="1869" y="311.1074">-railwayNetwork : RailwayNetwork</text><line style="stroke:#181818;stroke-width:0.5;" x1="1864" x2="2175.5674" y1="318.6211" y2="318.6211"/><text fill="#000000" font-family="sans-serif" font-size="14" lengthAdjust="spacing" textLength="195.7129" x="1869" y="337.7285">+MaintenanceRouteController()</text><text fill="#000000" font-family="sans-serif" font-size="14" lengthAdjust="spacing" textLength="155.251" x="1869" y="356.3496">+getMaintenanceTypes()</text><text fill="#000000" font-family="sans-serif" font-size="14" lengthAdjust="spacing" textLength="301.5674" x="1869" y="374.9707">+calculateMaintenanceRoute(maintenanceType)</text><text fill="#000000" font-family="sans-serif" font-size="14" lengthAdjust="spacing" textLength="122.5342" x="1869" y="393.5918">+visualizeNetwork()</text><text fill="#000000" font-family="sans-serif" font-size="14" lengthAdjust="spacing" textLength="131.5098" x="1869" y="412.2129">-validateRoute(route)</text></g><!--class RailwayNetwork--><g id="elem_RailwayNetwork"><rect codeLine="139" fill="#F1F1F1" height="196.9688" id="RailwayNetwork" rx="2.5" ry="2.5" style="stroke:#181818;stroke-width:0.5;" width="178.8789" x="1264.5" y="536"/><ellipse cx="1300.4342" cy="552" fill="#ADD1B2" rx="11" ry="11" style="stroke:#181818;stroke-width:1.0;"/><path d="M1303.1999,547.875 Q1303.3561,547.6563 1303.5436,547.5469 Q1303.7311,547.4375 1303.9499,547.4375 Q1304.3249,547.4375 1304.5592,547.7031 Q1304.7936,547.9531 1304.7936,548.5625 L1304.7936,550.0156 Q1304.7936,550.625 1304.5592,550.8906 Q1304.3249,551.1563 1303.9499,551.1563 Q1303.6061,551.1563 1303.403,550.9531 Q1303.1999,550.7656 1303.0905,550.25 Q1303.0436,549.8906 1302.8561,549.7031 Q1302.528,549.3281 1301.9186,549.1094 Q1301.3092,548.8906 1300.6842,548.8906 Q1299.9186,548.8906 1299.278,549.2188 Q1298.653,549.5469 1298.153,550.2969 Q1297.6686,551.0469 1297.6686,552.0781 L1297.6686,553.1719 Q1297.6686,554.4063 1298.5592,555.2344 Q1299.4499,556.0469 1301.0436,556.0469 Q1301.9811,556.0469 1302.6374,555.7969 Q1303.028,555.6406 1303.4499,555.2031 Q1303.7155,554.9375 1303.8561,554.8594 Q1304.0124,554.7813 1304.2155,554.7813 Q1304.5436,554.7813 1304.7936,555.0469 Q1305.0592,555.2969 1305.0592,555.6406 Q1305.0592,555.9844 1304.7155,556.3906 Q1304.2155,556.9688 1303.4186,557.2969 Q1302.3405,557.75 1301.0436,557.75 Q1299.528,557.75 1298.3249,557.125 Q1297.3405,556.625 1296.653,555.5625 Q1295.9655,554.4844 1295.9655,553.2031 L1295.9655,552.0469 Q1295.9655,550.7188 1296.5749,549.5781 Q1297.1999,548.4219 1298.2936,547.8125 Q1299.3874,547.1875 1300.6217,547.1875 Q1301.3561,547.1875 1301.9967,547.3594 Q1302.653,547.5156 1303.1999,547.875 Z " fill="#000000"/><text fill="#000000" font-family="sans-serif" font-size="14" lengthAdjust="spacing" textLength="100.3584" x="1319.0863" y="557.7969">RailwayNetwork</text><line style="stroke:#181818;stroke-width:0.5;" x1="1265.5" x2="1442.3789" y1="568" y2="568"/><text fill="#000000" font-family="sans-serif" font-size="14" lengthAdjust="spacing" textLength="101.9238" x="1270.5" y="587.1074">-nameID : String</text><text fill="#000000" font-family="sans-serif" font-size="14" lengthAdjust="spacing" textLength="158.7441" x="1270.5" y="605.7285">-lines : List&lt;RailwayLine&gt;</text><text fill="#000000" font-family="sans-serif" font-size="14" lengthAdjust="spacing" textLength="146.3027" x="1270.5" y="624.3496">-stations : List&lt;Station&gt;</text><line style="stroke:#181818;stroke-width:0.5;" x1="1265.5" x2="1442.3789" y1="631.8633" y2="631.8633"/><text fill="#000000" font-family="sans-serif" font-size="14" lengthAdjust="spacing" textLength="166.8789" x="1270.5" y="650.9707">+RailwayNetwork(nameID)</text><text fill="#000000" font-family="sans-serif" font-size="14" lengthAdjust="spacing" textLength="70.4307" x="1270.5" y="669.5918">+getLines()</text><text fill="#000000" font-family="sans-serif" font-size="14" lengthAdjust="spacing" textLength="87.5479" x="1270.5" y="688.2129">+getStations()</text><text fill="#000000" font-family="sans-serif" font-size="14" lengthAdjust="spacing" textLength="131.8994" x="1270.5" y="706.834">+getElectrifiedLines()</text><text fill="#000000" font-family="sans-serif" font-size="14" lengthAdjust="spacing" textLength="102.2998" x="1270.5" y="725.4551">+exportToDOT()</text></g><!--class RailwayLine--><g id="elem_RailwayLine"><rect codeLine="151" fill="#F1F1F1" height="196.9688" id="RailwayLine" rx="2.5" ry="2.5" style="stroke:#181818;stroke-width:0.5;" width="375.8018" x="1218" y="858.5"/><ellipse cx="1363.9097" cy="874.5" fill="#ADD1B2" rx="11" ry="11" style="stroke:#181818;stroke-width:1.0;"/><path d="M1366.6753,870.375 Q1366.8315,870.1563 1367.019,870.0469 Q1367.2065,869.9375 1367.4253,869.9375 Q1367.8003,869.9375 1368.0347,870.2031 Q1368.269,870.4531 1368.269,871.0625 L1368.269,872.5156 Q1368.269,873.125 1368.0347,873.3906 Q1367.8003,873.6563 1367.4253,873.6563 Q1367.0815,873.6563 1366.8784,873.4531 Q1366.6753,873.2656 1366.5659,872.75 Q1366.519,872.3906 1366.3315,872.2031 Q1366.0034,871.8281 1365.394,871.6094 Q1364.7847,871.3906 1364.1597,871.3906 Q1363.394,871.3906 1362.7534,871.7188 Q1362.1284,872.0469 1361.6284,872.7969 Q1361.144,873.5469 1361.144,874.5781 L1361.144,875.6719 Q1361.144,876.9063 1362.0347,877.7344 Q1362.9253,878.5469 1364.519,878.5469 Q1365.4565,878.5469 1366.1128,878.2969 Q1366.5034,878.1406 1366.9253,877.7031 Q1367.1909,877.4375 1367.3315,877.3594 Q1367.4878,877.2813 1367.6909,877.2813 Q1368.019,877.2813 1368.269,877.5469 Q1368.5347,877.7969 1368.5347,878.1406 Q1368.5347,878.4844 1368.1909,878.8906 Q1367.6909,879.4688 1366.894,879.7969 Q1365.8159,880.25 1364.519,880.25 Q1363.0034,880.25 1361.8003,879.625 Q1360.8159,879.125 1360.1284,878.0625 Q1359.4409,876.9844 1359.4409,875.7031 L1359.4409,874.5469 Q1359.4409,873.2188 1360.0503,872.0781 Q1360.6753,870.9219 1361.769,870.3125 Q1362.8628,869.6875 1364.0972,869.6875 Q1364.8315,869.6875 1365.4722,869.8594 Q1366.1284,870.0156 1366.6753,870.375 Z " fill="#000000"/><text fill="#000000" font-family="sans-serif" font-size="14" lengthAdjust="spacing" textLength="75.4824" x="1384.4097" y="880.2969">RailwayLine</text><line style="stroke:#181818;stroke-width:0.5;" x1="1219" x2="1592.8018" y1="890.5" y2="890.5"/><text fill="#000000" font-family="sans-serif" font-size="14" lengthAdjust="spacing" textLength="130.7305" x="1224" y="909.6074">-startStation : Station</text><text fill="#000000" font-family="sans-serif" font-size="14" lengthAdjust="spacing" textLength="126.8613" x="1224" y="928.2285">-endStation : Station</text><text fill="#000000" font-family="sans-serif" font-size="14" lengthAdjust="spacing" textLength="137.7373" x="1224" y="946.8496">-isElectrified : boolean</text><text fill="#000000" font-family="sans-serif" font-size="14" lengthAdjust="spacing" textLength="96.5166" x="1224" y="965.4707">-length : double</text><line style="stroke:#181818;stroke-width:0.5;" x1="1219" x2="1592.8018" y1="972.9844" y2="972.9844"/><text fill="#000000" font-family="sans-serif" font-size="14" lengthAdjust="spacing" textLength="363.8018" x="1224" y="992.0918">+RailwayLine(startStation, endStation, isElectrified, length)</text><text fill="#000000" font-family="sans-serif" font-size="14" lengthAdjust="spacing" textLength="110.1133" x="1224" y="1010.7129">+getStartStation()</text><text fill="#000000" font-family="sans-serif" font-size="14" lengthAdjust="spacing" textLength="105.458" x="1224" y="1029.334">+getEndStation()</text><text fill="#000000" font-family="sans-serif" font-size="14" lengthAdjust="spacing" textLength="89.0791" x="1224" y="1047.9551">+isElectrified()</text></g><!--class Station--><g id="elem_Station"><rect codeLine="163" fill="#F1F1F1" height="141.1055" id="Station" rx="2.5" ry="2.5" style="stroke:#181818;stroke-width:0.5;" width="178.1406" x="1317" y="1144"/><ellipse cx="1380.0273" cy="1160" fill="#ADD1B2" rx="11" ry="11" style="stroke:#181818;stroke-width:1.0;"/><path d="M1382.793,1155.875 Q1382.9492,1155.6563 1383.1367,1155.5469 Q1383.3242,1155.4375 1383.543,1155.4375 Q1383.918,1155.4375 1384.1523,1155.7031 Q1384.3867,1155.9531 1384.3867,1156.5625 L1384.3867,1158.0156 Q1384.3867,1158.625 1384.1523,1158.8906 Q1383.918,1159.1563 1383.543,1159.1563 Q1383.1992,1159.1563 1382.9961,1158.9531 Q1382.793,1158.7656 1382.6836,1158.25 Q1382.6367,1157.8906 1382.4492,1157.7031 Q1382.1211,1157.3281 1381.5117,1157.1094 Q1380.9023,1156.8906 1380.2773,1156.8906 Q1379.5117,1156.8906 1378.8711,1157.2188 Q1378.2461,1157.5469 1377.7461,1158.2969 Q1377.2617,1159.0469 1377.2617,1160.0781 L1377.2617,1161.1719 Q1377.2617,1162.4063 1378.1523,1163.2344 Q1379.043,1164.0469 1380.6367,1164.0469 Q1381.5742,1164.0469 1382.2305,1163.7969 Q1382.6211,1163.6406 1383.043,1163.2031 Q1383.3086,1162.9375 1383.4492,1162.8594 Q1383.6055,1162.7813 1383.8086,1162.7813 Q1384.1367,1162.7813 1384.3867,1163.0469 Q1384.6523,1163.2969 1384.6523,1163.6406 Q1384.6523,1163.9844 1384.3086,1164.3906 Q1383.8086,1164.9688 1383.0117,1165.2969 Q1381.9336,1165.75 1380.6367,1165.75 Q1379.1211,1165.75 1377.918,1165.125 Q1376.9336,1164.625 1376.2461,1163.5625 Q1375.5586,1162.4844 1375.5586,1161.2031 L1375.5586,1160.0469 Q1375.5586,1158.7188 1376.168,1157.5781 Q1376.793,1156.4219 1377.8867,1155.8125 Q1378.9805,1155.1875 1380.2148,1155.1875 Q1380.9492,1155.1875 1381.5898,1155.3594 Q1382.2461,1155.5156 1382.793,1155.875 Z " fill="#000000"/><text fill="#000000" font-family="sans-serif" font-size="14" lengthAdjust="spacing" textLength="43.5859" x="1400.5273" y="1165.7969">Station</text><line style="stroke:#181818;stroke-width:0.5;" x1="1318" x2="1494.1406" y1="1176" y2="1176"/><text fill="#000000" font-family="sans-serif" font-size="14" lengthAdjust="spacing" textLength="101.9238" x="1323" y="1195.1074">-nameID : String</text><text fill="#000000" font-family="sans-serif" font-size="14" lengthAdjust="spacing" textLength="114.3926" x="1323" y="1213.7285">-position : Position</text><line style="stroke:#181818;stroke-width:0.5;" x1="1318" x2="1494.1406" y1="1221.2422" y2="1221.2422"/><text fill="#000000" font-family="sans-serif" font-size="14" lengthAdjust="spacing" textLength="166.1406" x="1323" y="1240.3496">+Station(nameID, position)</text><text fill="#000000" font-family="sans-serif" font-size="14" lengthAdjust="spacing" textLength="138.1475" x="1323" y="1258.9707">+getConnectedLines()</text><text fill="#000000" font-family="sans-serif" font-size="14" lengthAdjust="spacing" textLength="86.7686" x="1323" y="1277.5918">+getPosition()</text></g><!--class MaintenanceRoute--><g id="elem_MaintenanceRoute"><rect codeLine="172" fill="#F1F1F1" height="178.3477" id="MaintenanceRoute" rx="2.5" ry="2.5" style="stroke:#181818;stroke-width:0.5;" width="336.9053" x="1478.5" y="545.5"/><ellipse cx="1583.9409" cy="561.5" fill="#ADD1B2" rx="11" ry="11" style="stroke:#181818;stroke-width:1.0;"/><path d="M1586.7065,557.375 Q1586.8628,557.1563 1587.0503,557.0469 Q1587.2378,556.9375 1587.4565,556.9375 Q1587.8315,556.9375 1588.0659,557.2031 Q1588.3003,557.4531 1588.3003,558.0625 L1588.3003,559.5156 Q1588.3003,560.125 1588.0659,560.3906 Q1587.8315,560.6563 1587.4565,560.6563 Q1587.1128,560.6563 1586.9097,560.4531 Q1586.7065,560.2656 1586.5972,559.75 Q1586.5503,559.3906 1586.3628,559.2031 Q1586.0347,558.8281 1585.4253,558.6094 Q1584.8159,558.3906 1584.1909,558.3906 Q1583.4253,558.3906 1582.7847,558.7188 Q1582.1597,559.0469 1581.6597,559.7969 Q1581.1753,560.5469 1581.1753,561.5781 L1581.1753,562.6719 Q1581.1753,563.9063 1582.0659,564.7344 Q1582.9565,565.5469 1584.5503,565.5469 Q1585.4878,565.5469 1586.144,565.2969 Q1586.5347,565.1406 1586.9565,564.7031 Q1587.2222,564.4375 1587.3628,564.3594 Q1587.519,564.2813 1587.7222,564.2813 Q1588.0503,564.2813 1588.3003,564.5469 Q1588.5659,564.7969 1588.5659,565.1406 Q1588.5659,565.4844 1588.2222,565.8906 Q1587.7222,566.4688 1586.9253,566.7969 Q1585.8472,567.25 1584.5503,567.25 Q1583.0347,567.25 1581.8315,566.625 Q1580.8472,566.125 1580.1597,565.0625 Q1579.4722,563.9844 1579.4722,562.7031 L1579.4722,561.5469 Q1579.4722,560.2188 1580.0815,559.0781 Q1580.7065,557.9219 1581.8003,557.3125 Q1582.894,556.6875 1584.1284,556.6875 Q1584.8628,556.6875 1585.5034,556.8594 Q1586.1597,557.0156 1586.7065,557.375 Z " fill="#000000"/><text fill="#000000" font-family="sans-serif" font-size="14" lengthAdjust="spacing" textLength="117.5234" x="1604.4409" y="567.2969">MaintenanceRoute</text><line style="stroke:#181818;stroke-width:0.5;" x1="1479.5" x2="1814.4053" y1="577.5" y2="577.5"/><text fill="#000000" font-family="sans-serif" font-size="14" lengthAdjust="spacing" textLength="130.7305" x="1484.5" y="596.6074">-startStation : Station</text><text fill="#000000" font-family="sans-serif" font-size="14" lengthAdjust="spacing" textLength="224.916" x="1484.5" y="615.2285">-routeSequence : List&lt;RailwayLine&gt;</text><text fill="#000000" font-family="sans-serif" font-size="14" lengthAdjust="spacing" textLength="238.9092" x="1484.5" y="633.8496">-maintenanceType : MaintenanceType</text><line style="stroke:#181818;stroke-width:0.5;" x1="1479.5" x2="1814.4053" y1="641.3633" y2="641.3633"/><text fill="#000000" font-family="sans-serif" font-size="14" lengthAdjust="spacing" textLength="324.9053" x="1484.5" y="660.4707">+MaintenanceRoute(startStation, maintenanceType)</text><text fill="#000000" font-family="sans-serif" font-size="14" lengthAdjust="spacing" textLength="89.1201" x="1484.5" y="679.0918">+addLine(line)</text><text fill="#000000" font-family="sans-serif" font-size="14" lengthAdjust="spacing" textLength="87.5273" x="1484.5" y="697.7129">+isComplete()</text><text fill="#000000" font-family="sans-serif" font-size="14" lengthAdjust="spacing" textLength="65.748" x="1484.5" y="716.334">+toString()</text></g><!--class MaintenanceType--><g id="elem_MaintenanceType"><rect codeLine="183" fill="#F1F1F1" height="122.4844" id="MaintenanceType" rx="2.5" ry="2.5" style="stroke:#181818;stroke-width:0.5;" width="251.292" x="1700.5" y="896"/><ellipse cx="1766.2515" cy="912" fill="#ADD1B2" rx="11" ry="11" style="stroke:#181818;stroke-width:1.0;"/><path d="M1769.0171,907.875 Q1769.1733,907.6563 1769.3608,907.5469 Q1769.5483,907.4375 1769.7671,907.4375 Q1770.1421,907.4375 1770.3765,907.7031 Q1770.6108,907.9531 1770.6108,908.5625 L1770.6108,910.0156 Q1770.6108,910.625 1770.3765,910.8906 Q1770.1421,911.1563 1769.7671,911.1563 Q1769.4233,911.1563 1769.2202,910.9531 Q1769.0171,910.7656 1768.9077,910.25 Q1768.8608,909.8906 1768.6733,909.7031 Q1768.3452,909.3281 1767.7358,909.1094 Q1767.1265,908.8906 1766.5015,908.8906 Q1765.7358,908.8906 1765.0952,909.2188 Q1764.4702,909.5469 1763.9702,910.2969 Q1763.4858,911.0469 1763.4858,912.0781 L1763.4858,913.1719 Q1763.4858,914.4063 1764.3765,915.2344 Q1765.2671,916.0469 1766.8608,916.0469 Q1767.7983,916.0469 1768.4546,915.7969 Q1768.8452,915.6406 1769.2671,915.2031 Q1769.5327,914.9375 1769.6733,914.8594 Q1769.8296,914.7813 1770.0327,914.7813 Q1770.3608,914.7813 1770.6108,915.0469 Q1770.8765,915.2969 1770.8765,915.6406 Q1770.8765,915.9844 1770.5327,916.3906 Q1770.0327,916.9688 1769.2358,917.2969 Q1768.1577,917.75 1766.8608,917.75 Q1765.3452,917.75 1764.1421,917.125 Q1763.1577,916.625 1762.4702,915.5625 Q1761.7827,914.4844 1761.7827,913.2031 L1761.7827,912.0469 Q1761.7827,910.7188 1762.3921,909.5781 Q1763.0171,908.4219 1764.1108,907.8125 Q1765.2046,907.1875 1766.439,907.1875 Q1767.1733,907.1875 1767.814,907.3594 Q1768.4702,907.5156 1769.0171,907.875 Z " fill="#000000"/><text fill="#000000" font-family="sans-serif" font-size="14" lengthAdjust="spacing" textLength="111.2891" x="1786.7515" y="917.7969">MaintenanceType</text><line style="stroke:#181818;stroke-width:0.5;" x1="1701.5" x2="1950.792" y1="928" y2="928"/><text fill="#000000" font-family="sans-serif" font-size="14" lengthAdjust="spacing" textLength="87.9238" x="1706.5" y="947.1074">-name : String</text><text fill="#000000" font-family="sans-serif" font-size="14" lengthAdjust="spacing" textLength="120.6064" x="1706.5" y="965.7285">-description : String</text><line style="stroke:#181818;stroke-width:0.5;" x1="1701.5" x2="1950.792" y1="973.2422" y2="973.2422"/><text fill="#000000" font-family="sans-serif" font-size="14" lengthAdjust="spacing" textLength="239.292" x="1706.5" y="992.3496">+MaintenanceType(name, description)</text><text fill="#000000" font-family="sans-serif" font-size="14" lengthAdjust="spacing" textLength="65.748" x="1706.5" y="1010.9707">+toString()</text></g><!--class FleuryAlgorithm--><g id="elem_FleuryAlgorithm"><rect codeLine="191" fill="#F1F1F1" height="103.8633" id="FleuryAlgorithm" rx="2.5" ry="2.5" style="stroke:#181818;stroke-width:0.5;" width="337.6846" x="1851" y="582.5"/><ellipse cx="1966.5786" cy="598.5" fill="#ADD1B2" rx="11" ry="11" style="stroke:#181818;stroke-width:1.0;"/><path d="M1969.3442,594.375 Q1969.5005,594.1563 1969.688,594.0469 Q1969.8755,593.9375 1970.0942,593.9375 Q1970.4692,593.9375 1970.7036,594.2031 Q1970.938,594.4531 1970.938,595.0625 L1970.938,596.5156 Q1970.938,597.125 1970.7036,597.3906 Q1970.4692,597.6563 1970.0942,597.6563 Q1969.7505,597.6563 1969.5474,597.4531 Q1969.3442,597.2656 1969.2349,596.75 Q1969.188,596.3906 1969.0005,596.2031 Q1968.6724,595.8281 1968.063,595.6094 Q1967.4536,595.3906 1966.8286,595.3906 Q1966.063,595.3906 1965.4224,595.7188 Q1964.7974,596.0469 1964.2974,596.7969 Q1963.813,597.5469 1963.813,598.5781 L1963.813,599.6719 Q1963.813,600.9063 1964.7036,601.7344 Q1965.5942,602.5469 1967.188,602.5469 Q1968.1255,602.5469 1968.7817,602.2969 Q1969.1724,602.1406 1969.5942,601.7031 Q1969.8599,601.4375 1970.0005,601.3594 Q1970.1567,601.2813 1970.3599,601.2813 Q1970.688,601.2813 1970.938,601.5469 Q1971.2036,601.7969 1971.2036,602.1406 Q1971.2036,602.4844 1970.8599,602.8906 Q1970.3599,603.4688 1969.563,603.7969 Q1968.4849,604.25 1967.188,604.25 Q1965.6724,604.25 1964.4692,603.625 Q1963.4849,603.125 1962.7974,602.0625 Q1962.1099,600.9844 1962.1099,599.7031 L1962.1099,598.5469 Q1962.1099,597.2188 1962.7192,596.0781 Q1963.3442,594.9219 1964.438,594.3125 Q1965.5317,593.6875 1966.7661,593.6875 Q1967.5005,593.6875 1968.1411,593.8594 Q1968.7974,594.0156 1969.3442,594.375 Z " fill="#000000"/><text fill="#000000" font-family="sans-serif" font-size="14" lengthAdjust="spacing" textLength="98.0273" x="1987.0786" y="604.2969">FleuryAlgorithm</text><line style="stroke:#181818;stroke-width:0.5;" x1="1852" x2="2187.6846" y1="614.5" y2="614.5"/><line style="stroke:#181818;stroke-width:0.5;" x1="1852" x2="2187.6846" y1="622.5" y2="622.5"/><text fill="#000000" font-family="sans-serif" font-size="14" lengthAdjust="spacing" text-decoration="underline" textLength="325.6846" x="1857" y="641.6074">+findMaintenanceRoute(network, maintenanceType)</text><text fill="#000000" font-family="sans-serif" font-size="14" lengthAdjust="spacing" text-decoration="underline" textLength="176.6338" x="1857" y="660.2285">-isValidStartingPoint(station)</text><text fill="#000000" font-family="sans-serif" font-size="14" lengthAdjust="spacing" text-decoration="underline" textLength="86.3584" x="1857" y="678.8496">-isBridge(line)</text></g><!--class Position--><g id="elem_Position"><rect codeLine="197" fill="#F1F1F1" height="141.1055" id="Position" rx="2.5" ry="2.5" style="stroke:#181818;stroke-width:0.5;" width="101.0859" x="1355.5" y="1346"/><ellipse cx="1379.1757" cy="1362" fill="#ADD1B2" rx="11" ry="11" style="stroke:#181818;stroke-width:1.0;"/><path d="M1381.9413,1357.875 Q1382.0976,1357.6563 1382.2851,1357.5469 Q1382.4726,1357.4375 1382.6913,1357.4375 Q1383.0663,1357.4375 1383.3007,1357.7031 Q1383.5351,1357.9531 1383.5351,1358.5625 L1383.5351,1360.0156 Q1383.5351,1360.625 1383.3007,1360.8906 Q1383.0663,1361.1563 1382.6913,1361.1563 Q1382.3476,1361.1563 1382.1444,1360.9531 Q1381.9413,1360.7656 1381.8319,1360.25 Q1381.7851,1359.8906 1381.5976,1359.7031 Q1381.2694,1359.3281 1380.6601,1359.1094 Q1380.0507,1358.8906 1379.4257,1358.8906 Q1378.6601,1358.8906 1378.0194,1359.2188 Q1377.3944,1359.5469 1376.8944,1360.2969 Q1376.4101,1361.0469 1376.4101,1362.0781 L1376.4101,1363.1719 Q1376.4101,1364.4063 1377.3007,1365.2344 Q1378.1913,1366.0469 1379.7851,1366.0469 Q1380.7226,1366.0469 1381.3788,1365.7969 Q1381.7694,1365.6406 1382.1913,1365.2031 Q1382.4569,1364.9375 1382.5976,1364.8594 Q1382.7538,1364.7813 1382.9569,1364.7813 Q1383.2851,1364.7813 1383.5351,1365.0469 Q1383.8007,1365.2969 1383.8007,1365.6406 Q1383.8007,1365.9844 1383.4569,1366.3906 Q1382.9569,1366.9688 1382.1601,1367.2969 Q1381.0819,1367.75 1379.7851,1367.75 Q1378.2694,1367.75 1377.0663,1367.125 Q1376.0819,1366.625 1375.3944,1365.5625 Q1374.7069,1364.4844 1374.7069,1363.2031 L1374.7069,1362.0469 Q1374.7069,1360.7188 1375.3163,1359.5781 Q1375.9413,1358.4219 1377.0351,1357.8125 Q1378.1288,1357.1875 1379.3632,1357.1875 Q1380.0976,1357.1875 1380.7382,1357.3594 Q1381.3944,1357.5156 1381.9413,1357.875 Z " fill="#000000"/><text fill="#000000" font-family="sans-serif" font-size="14" lengthAdjust="spacing" textLength="49.8066" x="1395.1036" y="1367.7969">Position</text><line style="stroke:#181818;stroke-width:0.5;" x1="1356.5" x2="1455.5859" y1="1378" y2="1378"/><text fill="#000000" font-family="sans-serif" font-size="14" lengthAdjust="spacing" textLength="65.3721" x="1361.5" y="1397.1074">-x : double</text><text fill="#000000" font-family="sans-serif" font-size="14" lengthAdjust="spacing" textLength="65.3721" x="1361.5" y="1415.7285">-y : double</text><line style="stroke:#181818;stroke-width:0.5;" x1="1356.5" x2="1455.5859" y1="1423.2422" y2="1423.2422"/><text fill="#000000" font-family="sans-serif" font-size="14" lengthAdjust="spacing" textLength="89.0859" x="1361.5" y="1442.3496">+Position(x, y)</text><text fill="#000000" font-family="sans-serif" font-size="14" lengthAdjust="spacing" textLength="46.2998" x="1361.5" y="1460.9707">+getX()</text><text fill="#000000" font-family="sans-serif" font-size="14" lengthAdjust="spacing" textLength="46.2998" x="1361.5" y="1479.5918">+getY()</text></g><!--class GraphvizAdapter--><g id="elem_GraphvizAdapter"><rect codeLine="206" fill="#F1F1F1" height="85.2422" id="GraphvizAdapter" rx="2.5" ry="2.5" style="stroke:#181818;stroke-width:0.5;" width="163.3408" x="2224.5" y="592"/><ellipse cx="2251.3288" cy="608" fill="#ADD1B2" rx="11" ry="11" style="stroke:#181818;stroke-width:1.0;"/><path d="M2254.0944,603.875 Q2254.2506,603.6563 2254.4381,603.5469 Q2254.6256,603.4375 2254.8444,603.4375 Q2255.2194,603.4375 2255.4538,603.7031 Q2255.6881,603.9531 2255.6881,604.5625 L2255.6881,606.0156 Q2255.6881,606.625 2255.4538,606.8906 Q2255.2194,607.1563 2254.8444,607.1563 Q2254.5006,607.1563 2254.2975,606.9531 Q2254.0944,606.7656 2253.985,606.25 Q2253.9381,605.8906 2253.7506,605.7031 Q2253.4225,605.3281 2252.8131,605.1094 Q2252.2038,604.8906 2251.5788,604.8906 Q2250.8131,604.8906 2250.1725,605.2188 Q2249.5475,605.5469 2249.0475,606.2969 Q2248.5631,607.0469 2248.5631,608.0781 L2248.5631,609.1719 Q2248.5631,610.4063 2249.4538,611.2344 Q2250.3444,612.0469 2251.9381,612.0469 Q2252.8756,612.0469 2253.5319,611.7969 Q2253.9225,611.6406 2254.3444,611.2031 Q2254.61,610.9375 2254.7506,610.8594 Q2254.9069,610.7813 2255.11,610.7813 Q2255.4381,610.7813 2255.6881,611.0469 Q2255.9538,611.2969 2255.9538,611.6406 Q2255.9538,611.9844 2255.61,612.3906 Q2255.11,612.9688 2254.3131,613.2969 Q2253.235,613.75 2251.9381,613.75 Q2250.4225,613.75 2249.2194,613.125 Q2248.235,612.625 2247.5475,611.5625 Q2246.86,610.4844 2246.86,609.2031 L2246.86,608.0469 Q2246.86,606.7188 2247.4694,605.5781 Q2248.0944,604.4219 2249.1881,603.8125 Q2250.2819,603.1875 2251.5163,603.1875 Q2252.2506,603.1875 2252.8913,603.3594 Q2253.5475,603.5156 2254.0944,603.875 Z " fill="#000000"/><text fill="#000000" font-family="sans-serif" font-size="14" lengthAdjust="spacing" textLength="105.0547" x="2267.9574" y="613.7969">GraphvizAdapter</text><line style="stroke:#181818;stroke-width:0.5;" x1="2225.5" x2="2386.8408" y1="624" y2="624"/><line style="stroke:#181818;stroke-width:0.5;" x1="2225.5" x2="2386.8408" y1="632" y2="632"/><text fill="#000000" font-family="sans-serif" font-size="14" lengthAdjust="spacing" textLength="151.3408" x="2230.5" y="651.1074">+generateDOT(network)</text><text fill="#000000" font-family="sans-serif" font-size="14" lengthAdjust="spacing" textLength="145.1064" x="2230.5" y="669.7285">+exportToPNG(dotFile)</text></g><!--link CreateTaskController to GMN12--><g id="link_CreateTaskController_GMN12"><path d="M655.18,101 C668.94,101 678.67,101 678.67,101 C678.67,101 683.16,101 690.37,101 " fill="none" id="CreateTaskController-GMN12" style="stroke:#181818;stroke-width:1.0;stroke-dasharray:7.0,7.0;"/></g><!--link CreateTaskUI to CreateTaskController--><g id="link_CreateTaskUI_CreateTaskController"><path codeLine="97" d="M214.02,101 C228.59,101 236.03,101 243,101 " fill="none" id="CreateTaskUI-to-CreateTaskController" style="stroke:#181818;stroke-width:1.0;stroke-dasharray:7.0,7.0;"/><polygon fill="#181818" points="249,101,240,97,244,101,240,105,249,101" style="stroke:#181818;stroke-width:1.0;"/></g><!--link CreateTaskController to ApplicationSession--><g id="link_CreateTaskController_ApplicationSession"><path codeLine="99" d="M314.17,181.07 C284.58,198.05 262,211 262,211 C262,211 208.9396,248.7327 158.8096,284.3827 " fill="none" id="CreateTaskController-to-ApplicationSession" style="stroke:#181818;stroke-width:1.0;stroke-dasharray:7.0,7.0;"/><polygon fill="#181818" points="153.92,287.86,163.5726,285.9039,157.9947,284.9623,158.9363,279.3843,153.92,287.86" style="stroke:#181818;stroke-width:1.0;"/></g><!--link CreateTaskController to UserSession--><g id="link_CreateTaskController_UserSession"><path codeLine="100" d="M365.52,181.22 C347.06,198.12 333,211 333,211 C333,211 248.105,495.6803 218.495,594.9503 " fill="none" id="CreateTaskController-to-UserSession" style="stroke:#181818;stroke-width:1.0;stroke-dasharray:7.0,7.0;"/><polygon fill="#181818" points="216.78,600.7,223.1856,593.2188,218.2092,595.9086,215.5194,590.9322,216.78,600.7" style="stroke:#181818;stroke-width:1.0;"/></g><!--link CreateTaskController to TaskCategory--><g id="link_CreateTaskController_TaskCategory"><path codeLine="101" d="M420.9,181.25 C393.87,250.14 359,339 359,339 C359,339 359,339 359,958 C359,958 427.6037,1106.5531 459.4237,1175.4331 " fill="none" id="CreateTaskController-to-TaskCategory" style="stroke:#181818;stroke-width:1.0;stroke-dasharray:7.0,7.0;"/><polygon fill="#181818" points="461.94,1180.88,461.7969,1171.0322,459.8431,1176.3409,454.5344,1174.3872,461.94,1180.88" style="stroke:#181818;stroke-width:1.0;"/></g><!--link CreateTaskController to TaskCategoryRepository--><g id="link_CreateTaskController_TaskCategoryRepository"><path codeLine="102" d="M501.49,181.25 C525.77,220.14 550.8517,260.2909 570.8617,292.3309 " fill="none" id="CreateTaskController-to-TaskCategoryRepository" style="stroke:#181818;stroke-width:1.0;stroke-dasharray:7.0,7.0;"/><polygon fill="#181818" points="574.04,297.42,572.6653,287.6676,571.3914,293.1791,565.8799,291.9053,574.04,297.42" style="stroke:#181818;stroke-width:1.0;"/></g><!--link CreateTaskController to Organization--><g id="link_CreateTaskController_Organization"><path codeLine="103" d="M628.76,181.12 C716.92,220.58 805,260 805,260 C805,260 859.8226,386.3854 906.2426,493.4154 " fill="none" id="CreateTaskController-to-Organization" style="stroke:#181818;stroke-width:1.0;stroke-dasharray:7.0,7.0;"/><polygon fill="#181818" points="908.63,498.92,908.7186,489.0715,906.6405,494.3329,901.3792,492.2547,908.63,498.92" style="stroke:#181818;stroke-width:1.0;"/></g><!--link CreateTaskController to OrganizationRepository--><g id="link_CreateTaskController_OrganizationRepository"><path codeLine="104" d="M655.29,174.67 C666.32,178.61 673,181 673,181 C673,181 860,211 860,211 C860,211 932.3764,264.8682 983.3364,302.7882 " fill="none" id="CreateTaskController-to-OrganizationRepository" style="stroke:#181818;stroke-width:1.0;stroke-dasharray:7.0,7.0;"/><polygon fill="#181818" points="988.15,306.37,983.3175,297.7882,984.1387,303.3851,978.5418,304.2063,988.15,306.37" style="stroke:#181818;stroke-width:1.0;"/></g><!--link CreateTaskController to Repositories--><g id="link_CreateTaskController_Repositories"><path codeLine="105" d="M652.97,20.95 C675.48,11.98 690.5,6 690.5,6 C690.5,6 893.5,6 893.5,6 C893.5,6 910.6753,17.9526 937.0853,36.3326 " fill="none" id="CreateTaskController-to-Repositories" style="stroke:#181818;stroke-width:1.0;stroke-dasharray:7.0,7.0;"/><polygon fill="#181818" points="942.01,39.76,936.9078,31.3358,937.906,36.9039,932.338,37.9021,942.01,39.76" style="stroke:#181818;stroke-width:1.0;"/></g><!--link Repositories to Repositories--><g id="link_Repositories_Repositories"><path codeLine="107" d="M1131.79,79.79 C1152.05,82.18 1166.5,89.25 1166.5,101 C1166.5,112.75 1158.0087,119.1171 1137.7487,121.5071 " fill="none" id="Repositories-to-Repositories" style="stroke:#181818;stroke-width:1.0;"/><polygon fill="#181818" points="1131.79,122.21,1141.1966,125.1281,1136.7556,121.6242,1140.2594,117.1832,1131.79,122.21" style="stroke:#181818;stroke-width:1.0;"/><text fill="#000000" font-family="sans-serif" font-size="13" lengthAdjust="spacing" textLength="48.4199" x="1172.5" y="106.5283">instance</text><text fill="#000000" font-family="sans-serif" font-size="13" lengthAdjust="spacing" textLength="7.23" x="1139.5298" y="120.1646">1</text></g><!--link Repositories to OrganizationRepository--><g id="link_Repositories_OrganizationRepository"><path codeLine="108" d="M1058.19,162.24 C1069.98,187.45 1081,211 1081,211 C1081,211 1081,230 1081,230 C1081,230 1063.5894,268.7172 1049.1594,300.8272 " fill="none" id="Repositories-to-OrganizationRepository" style="stroke:#181818;stroke-width:1.0;"/><polygon fill="#181818" points="1046.7,306.3,1054.0377,299.7305,1048.7495,301.7394,1046.7406,296.4512,1046.7,306.3" style="stroke:#181818;stroke-width:1.0;"/><text fill="#000000" font-family="sans-serif" font-size="13" lengthAdjust="spacing" textLength="132.9644" x="1082" y="226.0283">organizationRepository</text><text fill="#000000" font-family="sans-serif" font-size="13" lengthAdjust="spacing" textLength="7.23" x="1041.8192" y="295.3478">1</text></g><!--link Repositories to TaskCategoryRepository--><g id="link_Repositories_TaskCategoryRepository"><path codeLine="109" d="M939.5,162.08 C923.06,172.99 911,181 911,181 C911,181 779.2092,247.9522 687.0592,294.7722 " fill="none" id="Repositories-to-TaskCategoryRepository" style="stroke:#181818;stroke-width:1.0;"/><polygon fill="#181818" points="681.71,297.49,691.5456,296.9794,686.1676,295.2251,687.9218,289.8472,681.71,297.49" style="stroke:#181818;stroke-width:1.0;"/><text fill="#000000" font-family="sans-serif" font-size="13" lengthAdjust="spacing" textLength="138.728" x="853" y="226.0283">taskCategoryRepository</text><text fill="#000000" font-family="sans-serif" font-size="13" lengthAdjust="spacing" textLength="7.23" x="687.1945" y="286.3925">1</text></g><!--link ApplicationSession to ApplicationSession--><g id="link_ApplicationSession_ApplicationSession"><path codeLine="111" d="M157.06,318.07 C176.94,319.32 192,326.63 192,340 C192,353.37 182.9282,360.3035 163.0482,361.5535 " fill="none" id="ApplicationSession-to-ApplicationSession" style="stroke:#181818;stroke-width:1.0;"/><polygon fill="#181818" points="157.06,361.93,166.2933,365.3573,162.0501,361.6162,165.7912,357.3731,157.06,361.93" style="stroke:#181818;stroke-width:1.0;"/><text fill="#000000" font-family="sans-serif" font-size="13" lengthAdjust="spacing" textLength="48.4199" x="198" y="345.5283">instance</text><text fill="#000000" font-family="sans-serif" font-size="13" lengthAdjust="spacing" textLength="7.23" x="165.1581" y="360.3653">1</text></g><!--link ApplicationSession to UserSession--><g id="link_ApplicationSession_UserSession"><path codeLine="112" d="M103.92,392.28 C129.61,452.41 169.0829,544.7624 190.7029,595.3724 " fill="none" id="ApplicationSession-to-UserSession" style="stroke:#181818;stroke-width:1.0;stroke-dasharray:7.0,7.0;"/><polygon fill="#181818" points="193.06,600.89,193.2028,591.0422,191.0958,596.292,185.846,594.1849,193.06,600.89" style="stroke:#181818;stroke-width:1.0;"/></g><!--link TaskCategoryRepository to TaskCategory--><g id="link_TaskCategoryRepository_TaskCategory"><path codeLine="114" d="M577.14,382.51 C551.37,429.33 513,499 513,499 C513,499 485.9818,1035.1776 478.9418,1174.9476 " fill="none" id="TaskCategoryRepository-to-TaskCategory" style="stroke:#181818;stroke-width:1.0;"/><polygon fill="#181818" points="478.64,1180.94,483.0877,1172.1526,478.8915,1175.9463,475.0978,1171.7502,478.64,1180.94" style="stroke:#181818;stroke-width:1.0;"/><text fill="#000000" font-family="sans-serif" font-size="13" lengthAdjust="spacing" textLength="86.709" x="499" y="815.0283">taskCategories</text><text fill="#000000" font-family="sans-serif" font-size="13" lengthAdjust="spacing" textLength="5.0591" x="473.5152" y="1169.7537">*</text></g><!--link OrganizationRepository to Organization--><g id="link_OrganizationRepository_Organization"><path codeLine="116" d="M1024.73,373.7 C1017.91,404.41 1008.532,446.613 998.202,493.083 " fill="none" id="OrganizationRepository-to-Organization" style="stroke:#181818;stroke-width:1.0;"/><polygon fill="#181818" points="996.9,498.94,1002.7577,491.0224,997.985,494.0591,994.9483,489.2865,996.9,498.94" style="stroke:#181818;stroke-width:1.0;"/><text fill="#000000" font-family="sans-serif" font-size="13" lengthAdjust="spacing" textLength="77.3271" x="1009" y="465.0283">organizations</text><text fill="#000000" font-family="sans-serif" font-size="13" lengthAdjust="spacing" textLength="5.0591" x="993.4798" y="487.6352">*</text></g><!--link Organization to Task--><g id="link_Organization_Task"><path codeLine="118" d="M880.95,770.03 C864.19,796.24 850.0527,818.3353 833.9427,843.5253 " fill="none" id="Organization-to-Task" style="stroke:#181818;stroke-width:1.0;"/><polygon fill="#181818" points="830.71,848.58,838.9288,843.1531,833.4039,844.3678,832.1892,838.8429,830.71,848.58" style="stroke:#181818;stroke-width:1.0;"/><text fill="#000000" font-family="sans-serif" font-size="13" lengthAdjust="spacing" textLength="30.3418" x="860" y="815.0283">tasks</text><text fill="#000000" font-family="sans-serif" font-size="13" lengthAdjust="spacing" textLength="5.0591" x="830.1681" y="837.7763">*</text></g><!--link Organization to Employee--><g id="link_Organization_Employee"><path codeLine="119" d="M950.69,770.06 C933.53,911.59 909,1114 909,1114 C909,1114 907.2562,1126.4286 904.3062,1147.3886 " fill="none" id="Organization-to-Employee" style="stroke:#181818;stroke-width:1.0;"/><polygon fill="#181818" points="903.47,1153.33,908.6853,1144.9753,904.1669,1148.3788,900.7634,1143.8604,903.47,1153.33" style="stroke:#181818;stroke-width:1.0;"/><text fill="#000000" font-family="sans-serif" font-size="13" lengthAdjust="spacing" textLength="62.8672" x="942" y="962.5283">employees</text><text fill="#000000" font-family="sans-serif" font-size="13" lengthAdjust="spacing" textLength="5.0591" x="899.1546" y="1142.2915">*</text></g><!--link Task to TaskCategory--><g id="link_Task_TaskCategory"><path codeLine="121" d="M642.37,1065.24 C595.91,1106.9 550.5874,1147.5248 517.9174,1176.8148 " fill="none" id="Task-to-TaskCategory" style="stroke:#181818;stroke-width:1.0;"/><polygon fill="#181818" points="513.45,1180.82,522.8213,1177.7904,517.1729,1177.4823,517.481,1171.8338,513.45,1180.82" style="stroke:#181818;stroke-width:1.0;"/><text fill="#000000" font-family="sans-serif" font-size="13" lengthAdjust="spacing" textLength="76.5908" x="604" y="1110.0283">taskCategory</text><text fill="#000000" font-family="sans-serif" font-size="13" lengthAdjust="spacing" textLength="7.23" x="512.9984" y="1169.6101">1</text></g><!--link Task to Employee--><g id="link_Task_Employee"><path codeLine="122" d="M817.83,1065.24 C833.47,1095.29 847.1379,1121.5688 860.8179,1147.8288 " fill="none" id="Task-to-Employee" style="stroke:#181818;stroke-width:1.0;"/><polygon fill="#181818" points="863.59,1153.15,862.9794,1143.3201,861.2799,1148.7156,855.8844,1147.0162,863.59,1153.15" style="stroke:#181818;stroke-width:1.0;"/><text fill="#000000" font-family="sans-serif" font-size="13" lengthAdjust="spacing" textLength="58.5317" x="842" y="1110.0283">createdBy</text><text fill="#000000" font-family="sans-serif" font-size="13" lengthAdjust="spacing" textLength="7.23" x="852.5577" y="1142.0907">1</text></g><!--link MaintenanceRouteUI to MaintenanceRouteController--><g id="link_MaintenanceRouteUI_MaintenanceRouteController"><path codeLine="211" d="M2020,143.55 C2020,175.55 2020,214.73 2020,253.59 " fill="none" id="MaintenanceRouteUI-to-MaintenanceRouteController" style="stroke:#181818;stroke-width:1.0;stroke-dasharray:7.0,7.0;"/><polygon fill="#181818" points="2020,259.59,2024,250.59,2020,254.59,2016,250.59,2020,259.59" style="stroke:#181818;stroke-width:1.0;"/></g><!--link MaintenanceRouteController to RailwayNetwork--><g id="link_MaintenanceRouteController_RailwayNetwork"><path codeLine="212" d="M1862.8,385.43 C1697.46,432.16 1461,499 1461,499 C1461,499 1452.0961,510.1951 1435.4961,531.0551 " fill="none" id="MaintenanceRouteController-to-RailwayNetwork" style="stroke:#181818;stroke-width:1.0;"/><polygon fill="#181818" points="1431.76,535.75,1440.494,531.1984,1434.8734,531.8376,1434.2342,526.217,1431.76,535.75" style="stroke:#181818;stroke-width:1.0;"/></g><!--link MaintenanceRouteController to FleuryAlgorithm--><g id="link_MaintenanceRouteController_FleuryAlgorithm"><path codeLine="213" d="M2020,420.15 C2020,471.76 2020,531.59 2020,576.38 " fill="none" id="MaintenanceRouteController-to-FleuryAlgorithm" style="stroke:#181818;stroke-width:1.0;stroke-dasharray:7.0,7.0;"/><polygon fill="#181818" points="2020,582.38,2024,573.38,2020,577.38,2016,573.38,2020,582.38" style="stroke:#181818;stroke-width:1.0;"/></g><!--link MaintenanceRouteController to GraphvizAdapter--><g id="link_MaintenanceRouteController_GraphvizAdapter"><path codeLine="214" d="M2113.27,420.23 C2159.68,459.65 2206,499 2206,499 C2206,499 2241.9695,547.3854 2271.3295,586.8654 " fill="none" id="MaintenanceRouteController-to-GraphvizAdapter" style="stroke:#181818;stroke-width:1.0;stroke-dasharray:7.0,7.0;"/><polygon fill="#181818" points="2274.91,591.68,2272.749,582.0711,2271.9263,587.6678,2266.3296,586.8451,2274.91,591.68" style="stroke:#181818;stroke-width:1.0;"/></g><!--link RailwayNetwork to RailwayLine--><g id="link_RailwayNetwork_RailwayLine"><path codeLine="215" d="M1369.88,733.4 C1376.32,773.07 1382.7793,812.8574 1389.2093,852.4974 " fill="none" id="RailwayNetwork-to-RailwayLine" style="stroke:#181818;stroke-width:1.0;"/><polygon fill="#181818" points="1390.17,858.42,1392.6773,848.8956,1389.3694,853.4845,1384.7806,850.1766,1390.17,858.42" style="stroke:#181818;stroke-width:1.0;"/><text fill="#000000" font-family="sans-serif" font-size="13" lengthAdjust="spacing" textLength="7.23" x="1363.7628" y="754.9912">1</text><text fill="#000000" font-family="sans-serif" font-size="13" lengthAdjust="spacing" textLength="5.0591" x="1383.7765" y="847.2623">*</text></g><!--link RailwayNetwork to Station--><g id="link_RailwayNetwork_Station"><path codeLine="216" d="M1283.53,733.19 C1242.98,789.41 1200,849 1200,849 C1200,849 1200,1065 1200,1065 C1200,1065 1256.3028,1105.5914 1311.9728,1145.7214 " fill="none" id="RailwayNetwork-to-Station" style="stroke:#181818;stroke-width:1.0;"/><polygon fill="#181818" points="1316.84,1149.23,1311.8782,1140.7223,1312.784,1146.3062,1307.2001,1147.212,1316.84,1149.23" style="stroke:#181818;stroke-width:1.0;"/><text fill="#000000" font-family="sans-serif" font-size="13" lengthAdjust="spacing" textLength="7.23" x="1271.1107" y="755.1019">1</text><text fill="#000000" font-family="sans-serif" font-size="13" lengthAdjust="spacing" textLength="5.0591" x="1303.9595" y="1139.9267">*</text></g><!--link RailwayLine to Station--><g id="link_RailwayLine_Station"><path codeLine="217" d="M1406,1055.69 C1406,1084.99 1406,1110.53 1406,1137.65 " fill="none" id="RailwayLine-to-Station" style="stroke:#181818;stroke-width:1.0;"/><polygon fill="#181818" points="1406,1143.65,1410,1134.65,1406,1138.65,1402,1134.65,1406,1143.65" style="stroke:#181818;stroke-width:1.0;"/><text fill="#000000" font-family="sans-serif" font-size="13" lengthAdjust="spacing" textLength="7.23" x="1398.7587" y="1077.6019">1</text><text fill="#000000" font-family="sans-serif" font-size="13" lengthAdjust="spacing" textLength="7.23" x="1398.6437" y="1132.5049">2</text></g><!--link Station to Position--><g id="link_Station_Position"><path codeLine="218" d="M1406,1285.17 C1406,1304.79 1406,1320.12 1406,1339.74 " fill="none" id="Station-to-Position" style="stroke:#181818;stroke-width:1.0;"/><polygon fill="#181818" points="1406,1345.74,1410,1336.74,1406,1340.74,1402,1336.74,1406,1345.74" style="stroke:#181818;stroke-width:1.0;"/></g><!--link MaintenanceRoute to MaintenanceType--><g id="link_MaintenanceRoute_MaintenanceType"><path codeLine="219" d="M1696.15,723.5 C1726.68,778.17 1762.2148,841.7814 1789.3248,890.3314 " fill="none" id="MaintenanceRoute-to-MaintenanceType" style="stroke:#181818;stroke-width:1.0;"/><polygon fill="#181818" points="1792.25,895.57,1791.3546,885.7619,1789.8123,891.2045,1784.3698,889.6622,1792.25,895.57" style="stroke:#181818;stroke-width:1.0;"/></g><!--link MaintenanceRoute to RailwayLine--><g id="link_MaintenanceRoute_RailwayLine"><path codeLine="220" d="M1580.83,723.5 C1549.4,765.29 1515.3564,810.5748 1483.0464,853.5348 " fill="none" id="MaintenanceRoute-to-RailwayLine" style="stroke:#181818;stroke-width:1.0;"/><polygon fill="#181818" points="1479.44,858.33,1488.0464,853.5415,1482.4454,854.334,1481.6529,848.733,1479.44,858.33" style="stroke:#181818;stroke-width:1.0;"/><text fill="#000000" font-family="sans-serif" font-size="13" lengthAdjust="spacing" textLength="5.0591" x="1569.9353" y="745.9048">*</text><text fill="#000000" font-family="sans-serif" font-size="13" lengthAdjust="spacing" textLength="5.0591" x="1479.8812" y="847.1655">*</text></g><!--link MaintenanceRoute to Station--><g id="link_MaintenanceRoute_Station"><path codeLine="221" d="M1639.61,723.71 C1629.07,849.41 1611,1065 1611,1065 C1611,1065 1555.2095,1105.4207 1499.8795,1145.4907 " fill="none" id="MaintenanceRoute-to-Station" style="stroke:#181818;stroke-width:1.0;"/><polygon fill="#181818" points="1495.02,1149.01,1504.6554,1146.9708,1499.0696,1146.0773,1499.9631,1140.4914,1495.02,1149.01" style="stroke:#181818;stroke-width:1.0;"/></g><!--SRC=[dLTBRzms4BxhLn2vUDtAGTkZKHYmdKSDf8dXTOeMw8MMPdS9SqcLvDgMW_pt3YMHEvIejTiS0k_CD-yNTMJlXMguuLksrKfN6wEtm9pPGR7dDBowvsjOkbO2Cr0vhjQI0ko6r_fHg3LRSMafHme5hcs0DLgs_aTnb65gutH1f2h9hJrtpeYxdOEhIgkbU0RsKr4SILWvvZGpOhrnh1RU7Q5LKNGoxBnffAYu9ot1Mi_vLZ3yTv9XBOuxre_ictL8hxwpDRWhXJzK1P69jCkTCQ3SNknxiFVLWaaDTGAU_7xBXQJOzzj6wXQ01OyKnroViYN6gTO33RpKcDXeAxpV4_f6Aw8XMhhbzZvQCR02zBv2O29SWwsCQ79wXLffi-NotJp4GRLHcCv3c7fd-40NoWt4Ibk7X5hlxh27XfHvXnVHqPBwLlwjCkwKMGSG6soMdI64eUPBxc2jJOiq0_XtVT4UfyaAY9YqR7AYo1Upvaeyzy4TgkO3TvztspimOyOZt659uOM2PbjYI1drOU5jbtjhfTU_HFrbhx7iTPI-aHoNvtLji6TBjkKAvzg4JkUg3Jtw6xTz_tQ2P1G2uABDyFlq7Yfcqbel59EzL4qOV3aU4iNhkhFjKSUn0bBKmQcUaQty3NH3jk-1Bbg2463fIg2o5ornUq5z9FJZVFlaxLB4HInAal6eBMf03sCpKkAhrrm-7nIHzvmkkSlO0fTQEQEbnEOFaUMOCmvGl_zZMv7-GV5yQnrghAHeVJh_Ny6ZR2ZW1xokoH5H6dT0VyhqAfkUJaarrSw4nSsE6m4UeEv0ArJEB4WyY50px7bUWAgPDp4OkjFE8GOjvIizEBopA8_fnEjg6ydRi8dS1heyHNVmW5j7Z8mxuEiLLXwZJ2Xlp_9n5jdEUOlmp4sVnT9xF0kYqRyEHN8qYwUpyJhKYrhFaZakYcJKJyxOcv_VfEFl3sq_roFi09xPFAVu0ikwbJCuipLFanaYEeff_OAg38T4aE6EIrpCEDF5-qFgQ-fXby-PT0JfvCodEHe99mO7GpQFYA_0qtY_R1z7hDAyrsqA9BhYooQCuUyStroWV2PlDBwYks7iz-cKjL-r6wZkntowtyUyoPR71oVUfqVUVWRtg8tFnar2w50pdkJF0a7TukS2EGnSLZk9SKyytgOYGU11s1q-29vXy6KnVYRqqiR_Jqzi6X5zyLsz6p_N_5UDdyHFk1n_7IG_8Uriu7T763ieG9RzxpEQbzJWeZT4CkBr9S-HGKb2U-zFWH4h0NMAXwS6lxXkzRiljujfb1uRGqHdJL3U1Tglj-5Xgkevbh34EdBlj9R00rU2MhlD_YjW6hbtOa6DbyHQcQel1trfEg9aafAe8r8JLJGT8RJ3rIQVPjV3dpISOAqNBYESVbngfRgRFIbgK7Xe_bvNgQwXb_3FhlyEdEtDqTWWSZHxXuPtLA-P4SH7UbTSFoRx6bngN6NWzizHf_iqpyJUUNVeoslswtRglDSrV47Lu-TRtf4F4dQcFPV-ZhZDDYxM-C1U2LLFqgFwQPx9pCbUMjW__3hgcXWjNsk4BuQraG5V656lGqAZZw5vOfQUqdaxOMrs06FJFPMi9Stu9-tClsWsFXhUR1x4ytdD6qTU-sjGWAziy6jcY7syWQu_VrpKsdqGidSzSxJyoPy_4yM1U-IlvEZq741xEwEwlWGV1LwCpeI_qE7garax10jJIrTnvF-ovuSvz_IuTYQhmNF7ypi1URCvBxFQWlr_0G00]--></g></svg>