<svg xmlns="http://www.w3.org/2000/svg" xmlns:xlink="http://www.w3.org/1999/xlink" contentStyleType="text/css" height="601px" preserveAspectRatio="none" style="width:926px;height:601px;background:#FFFFFF;" version="1.1" viewBox="0 0 926 601" width="926px" zoomAndPan="magnify"><defs/><g><rect fill="#FFFFFF" height="474.123" style="stroke:#181818;stroke-width:1.0;" width="10" x="197.8779" y="71.9121"/><rect fill="#FFFFFF" height="42.291" style="stroke:#181818;stroke-width:1.0;" width="10" x="202.8779" y="200.0762"/><rect fill="#FFFFFF" height="164.1641" style="stroke:#181818;stroke-width:1.0;" width="10" x="202.8779" y="336.5801"/><rect fill="#FFFFFF" height="42.291" style="stroke:#181818;stroke-width:1.0;" width="10" x="207.8779" y="407.1621"/><rect fill="#FFFFFF" height="419.541" style="stroke:#181818;stroke-width:1.0;" width="10" x="580.6147" y="103.2031"/><rect fill="none" height="397.541" style="stroke:#000000;stroke-width:1.5;" width="568.7466" x="84.8267" y="118.2031"/><rect fill="none" height="107.873" style="stroke:#000000;stroke-width:1.5;" width="235.4839" x="94.8267" y="356.5801"/><line style="stroke:#181818;stroke-width:0.5;stroke-dasharray:5.0,5.0;" x1="202.8267" x2="202.8267" y1="38.6211" y2="564.0352"/><line style="stroke:#181818;stroke-width:0.5;stroke-dasharray:5.0,5.0;" x1="584.6563" x2="584.6563" y1="38.6211" y2="564.0352"/><line style="stroke:#181818;stroke-width:0.5;stroke-dasharray:5.0,5.0;" x1="739.5732" x2="739.5732" y1="38.6211" y2="564.0352"/><line style="stroke:#181818;stroke-width:0.5;stroke-dasharray:5.0,5.0;" x1="878.3447" x2="878.3447" y1="38.6211" y2="564.0352"/><rect fill="#E3E3E3" height="32.6211" rx="2.5" ry="2.5" style="stroke:#181818;stroke-width:0.5;" width="196.1025" x="104.8267" y="5"/><text fill="#000000" font-family="sans-serif" font-size="14" lengthAdjust="spacing" textLength="182.1025" x="111.8267" y="27.1074">:MaintenanceRouteController</text><rect fill="#E3E3E3" height="32.6211" rx="2.5" ry="2.5" style="stroke:#181818;stroke-width:0.5;" width="196.1025" x="104.8267" y="563.0352"/><text fill="#000000" font-family="sans-serif" font-size="14" lengthAdjust="spacing" textLength="182.1025" x="111.8267" y="585.1426">:MaintenanceRouteController</text><rect fill="#E3E3E3" height="32.6211" rx="2.5" ry="2.5" style="stroke:#181818;stroke-width:0.5;" width="115.917" x="527.6563" y="5"/><text fill="#000000" font-family="sans-serif" font-size="14" lengthAdjust="spacing" textLength="101.917" x="534.6563" y="27.1074">:FleuryAlgorithm</text><rect fill="#E3E3E3" height="32.6211" rx="2.5" ry="2.5" style="stroke:#181818;stroke-width:0.5;" width="115.917" x="527.6563" y="563.0352"/><text fill="#000000" font-family="sans-serif" font-size="14" lengthAdjust="spacing" textLength="101.917" x="534.6563" y="585.1426">:FleuryAlgorithm</text><rect fill="#E3E3E3" height="32.6211" rx="2.5" ry="2.5" style="stroke:#181818;stroke-width:0.5;" width="172.7715" x="653.5732" y="5"/><text fill="#000000" font-family="sans-serif" font-size="14" lengthAdjust="spacing" textLength="158.7715" x="660.5732" y="27.1074">:Map&lt;String,List&lt;Edge&gt;&gt;</text><rect fill="#E3E3E3" height="32.6211" rx="2.5" ry="2.5" style="stroke:#181818;stroke-width:0.5;" width="172.7715" x="653.5732" y="563.0352"/><text fill="#000000" font-family="sans-serif" font-size="14" lengthAdjust="spacing" textLength="158.7715" x="660.5732" y="585.1426">:Map&lt;String,List&lt;Edge&gt;&gt;</text><rect fill="#E3E3E3" height="32.6211" rx="2.5" ry="2.5" style="stroke:#181818;stroke-width:0.5;" width="84.0342" x="836.3447" y="5"/><text fill="#000000" font-family="sans-serif" font-size="14" lengthAdjust="spacing" textLength="70.0342" x="843.3447" y="27.1074">sc:Scanner</text><rect fill="#E3E3E3" height="32.6211" rx="2.5" ry="2.5" style="stroke:#181818;stroke-width:0.5;" width="84.0342" x="836.3447" y="563.0352"/><text fill="#000000" font-family="sans-serif" font-size="14" lengthAdjust="spacing" textLength="70.0342" x="843.3447" y="585.1426">sc:Scanner</text><rect fill="#FFFFFF" height="474.123" style="stroke:#181818;stroke-width:1.0;" width="10" x="197.8779" y="71.9121"/><rect fill="#FFFFFF" height="42.291" style="stroke:#181818;stroke-width:1.0;" width="10" x="202.8779" y="200.0762"/><rect fill="#FFFFFF" height="164.1641" style="stroke:#181818;stroke-width:1.0;" width="10" x="202.8779" y="336.5801"/><rect fill="#FFFFFF" height="42.291" style="stroke:#181818;stroke-width:1.0;" width="10" x="207.8779" y="407.1621"/><rect fill="#FFFFFF" height="419.541" style="stroke:#181818;stroke-width:1.0;" width="10" x="580.6147" y="103.2031"/><polygon fill="#181818" points="185.8779,67.9121,195.8779,71.9121,185.8779,75.9121,189.8779,71.9121" style="stroke:#181818;stroke-width:1.0;"/><line style="stroke:#181818;stroke-width:1.0;" x1="0" x2="191.8779" y1="71.9121" y2="71.9121"/><text fill="#000000" font-family="sans-serif" font-size="13" font-weight="bold" lengthAdjust="spacing" textLength="7.23" x="7" y="66.6494">1</text><text fill="#000000" font-family="sans-serif" font-size="13" lengthAdjust="spacing" textLength="167.6479" x="18.23" y="66.6494">computeMaintenanceRoute()</text><polygon fill="#181818" points="568.6147,99.2031,578.6147,103.2031,568.6147,107.2031,572.6147,103.2031" style="stroke:#181818;stroke-width:1.0;"/><line style="stroke:#181818;stroke-width:1.0;" x1="207.8779" x2="574.6147" y1="103.2031" y2="103.2031"/><text fill="#000000" font-family="sans-serif" font-size="13" font-weight="bold" lengthAdjust="spacing" textLength="7.23" x="214.8779" y="97.9404">2</text><text fill="#000000" font-family="sans-serif" font-size="13" lengthAdjust="spacing" textLength="342.5068" x="226.1079" y="97.9404">computeEulerianPath(maintenanceGraph, stationOrder, sc)</text><path d="M84.8267,118.2031 L144.9976,118.2031 L144.9976,127.4941 L134.9976,137.4941 L84.8267,137.4941 L84.8267,118.2031 " fill="#EEEEEE" style="stroke:#000000;stroke-width:1.5;"/><rect fill="none" height="397.541" style="stroke:#000000;stroke-width:1.5;" width="568.7466" x="84.8267" y="118.2031"/><text fill="#000000" font-family="sans-serif" font-size="13" font-weight="bold" lengthAdjust="spacing" textLength="15.1709" x="99.8267" y="133.2314">alt</text><text fill="#000000" font-family="sans-serif" font-size="11" font-weight="bold" lengthAdjust="spacing" textLength="208.4092" x="159.9976" y="132.0732">[graph is disconnected or non-Eulerian]</text><polygon fill="#181818" points="218.8779,156.7852,208.8779,160.7852,218.8779,164.7852,214.8779,160.7852" style="stroke:#181818;stroke-width:1.0;"/><line style="stroke:#181818;stroke-width:1.0;stroke-dasharray:2.0,2.0;" x1="212.8779" x2="579.6147" y1="160.7852" y2="160.7852"/><text fill="#000000" font-family="sans-serif" font-size="13" font-weight="bold" lengthAdjust="spacing" textLength="7.23" x="224.8779" y="155.5225">3</text><text fill="#000000" font-family="sans-serif" font-size="13" lengthAdjust="spacing" textLength="20.2363" x="236.1079" y="155.5225">null</text><line style="stroke:#181818;stroke-width:1.0;" x1="207.8779" x2="254.8779" y1="187.0762" y2="187.0762"/><line style="stroke:#181818;stroke-width:1.0;" x1="254.8779" x2="254.8779" y1="187.0762" y2="200.0762"/><line style="stroke:#181818;stroke-width:1.0;" x1="213.8779" x2="254.8779" y1="200.0762" y2="200.0762"/><polygon fill="#181818" points="223.8779,196.0762,213.8779,200.0762,223.8779,204.0762,219.8779,200.0762" style="stroke:#181818;stroke-width:1.0;"/><text fill="#000000" font-family="sans-serif" font-size="13" font-weight="bold" lengthAdjust="spacing" textLength="7.23" x="219.8779" y="181.8135">4</text><text fill="#000000" font-family="sans-serif" font-size="13" lengthAdjust="spacing" textLength="145.9644" x="231.1079" y="181.8135">display warning message</text><line style="stroke:#181818;stroke-width:1.0;stroke-dasharray:2.0,2.0;" x1="212.8779" x2="254.8779" y1="241.3672" y2="241.3672"/><line style="stroke:#181818;stroke-width:1.0;stroke-dasharray:2.0,2.0;" x1="254.8779" x2="254.8779" y1="241.3672" y2="254.3672"/><line style="stroke:#181818;stroke-width:1.0;stroke-dasharray:2.0,2.0;" x1="207.8779" x2="254.8779" y1="254.3672" y2="254.3672"/><polygon fill="#181818" points="217.8779,250.3672,207.8779,254.3672,217.8779,258.3672,213.8779,254.3672" style="stroke:#181818;stroke-width:1.0;"/><text fill="#000000" font-family="sans-serif" font-size="13" font-weight="bold" lengthAdjust="spacing" textLength="7.23" x="219.8779" y="236.1045">5</text><text fill="#000000" font-family="sans-serif" font-size="13" lengthAdjust="spacing" textLength="3.6118" x="231.1079" y="236.1045">&#160;</text><line style="stroke:#000000;stroke-width:1.0;stroke-dasharray:2.0,2.0;" x1="84.8267" x2="653.5732" y1="258.3672" y2="258.3672"/><text fill="#000000" font-family="sans-serif" font-size="11" font-weight="bold" lengthAdjust="spacing" textLength="96.5454" x="89.8267" y="270.2373">[valid route found]</text><polygon fill="#181818" points="218.8779,293.2891,208.8779,297.2891,218.8779,301.2891,214.8779,297.2891" style="stroke:#181818;stroke-width:1.0;"/><line style="stroke:#181818;stroke-width:1.0;stroke-dasharray:2.0,2.0;" x1="212.8779" x2="579.6147" y1="297.2891" y2="297.2891"/><text fill="#000000" font-family="sans-serif" font-size="13" font-weight="bold" lengthAdjust="spacing" textLength="7.23" x="224.8779" y="292.0264">6</text><text fill="#000000" font-family="sans-serif" font-size="13" lengthAdjust="spacing" textLength="29.6309" x="236.1079" y="292.0264">route</text><line style="stroke:#181818;stroke-width:1.0;" x1="207.8779" x2="254.8779" y1="323.5801" y2="323.5801"/><line style="stroke:#181818;stroke-width:1.0;" x1="254.8779" x2="254.8779" y1="323.5801" y2="336.5801"/><line style="stroke:#181818;stroke-width:1.0;" x1="213.8779" x2="254.8779" y1="336.5801" y2="336.5801"/><polygon fill="#181818" points="223.8779,332.5801,213.8779,336.5801,223.8779,340.5801,219.8779,336.5801" style="stroke:#181818;stroke-width:1.0;"/><text fill="#000000" font-family="sans-serif" font-size="13" font-weight="bold" lengthAdjust="spacing" textLength="7.23" x="219.8779" y="318.3174">7</text><text fill="#000000" font-family="sans-serif" font-size="13" lengthAdjust="spacing" textLength="113.4453" x="231.1079" y="318.3174">displayRoute(route)</text><path d="M94.8267,356.5801 L167.2612,356.5801 L167.2612,365.8711 L157.2612,375.8711 L94.8267,375.8711 L94.8267,356.5801 " fill="#EEEEEE" style="stroke:#000000;stroke-width:1.5;"/><rect fill="none" height="107.873" style="stroke:#000000;stroke-width:1.5;" width="235.4839" x="94.8267" y="356.5801"/><text fill="#000000" font-family="sans-serif" font-size="13" font-weight="bold" lengthAdjust="spacing" textLength="27.4346" x="109.8267" y="371.6084">loop</text><text fill="#000000" font-family="sans-serif" font-size="11" font-weight="bold" lengthAdjust="spacing" textLength="132.6177" x="182.2612" y="370.4502">[for each station in route]</text><line style="stroke:#181818;stroke-width:1.0;" x1="212.8779" x2="259.8779" y1="394.1621" y2="394.1621"/><line style="stroke:#181818;stroke-width:1.0;" x1="259.8779" x2="259.8779" y1="394.1621" y2="407.1621"/><line style="stroke:#181818;stroke-width:1.0;" x1="218.8779" x2="259.8779" y1="407.1621" y2="407.1621"/><polygon fill="#181818" points="228.8779,403.1621,218.8779,407.1621,228.8779,411.1621,224.8779,407.1621" style="stroke:#181818;stroke-width:1.0;"/><text fill="#000000" font-family="sans-serif" font-size="13" font-weight="bold" lengthAdjust="spacing" textLength="7.23" x="224.8779" y="388.8994">8</text><text fill="#000000" font-family="sans-serif" font-size="13" lengthAdjust="spacing" textLength="67.2026" x="236.1079" y="388.8994">print station</text><line style="stroke:#181818;stroke-width:1.0;stroke-dasharray:2.0,2.0;" x1="217.8779" x2="259.8779" y1="448.4531" y2="448.4531"/><line style="stroke:#181818;stroke-width:1.0;stroke-dasharray:2.0,2.0;" x1="259.8779" x2="259.8779" y1="448.4531" y2="461.4531"/><line style="stroke:#181818;stroke-width:1.0;stroke-dasharray:2.0,2.0;" x1="212.8779" x2="259.8779" y1="461.4531" y2="461.4531"/><polygon fill="#181818" points="222.8779,457.4531,212.8779,461.4531,222.8779,465.4531,218.8779,461.4531" style="stroke:#181818;stroke-width:1.0;"/><text fill="#000000" font-family="sans-serif" font-size="13" font-weight="bold" lengthAdjust="spacing" textLength="7.23" x="224.8779" y="443.1904">9</text><text fill="#000000" font-family="sans-serif" font-size="13" lengthAdjust="spacing" textLength="3.6118" x="236.1079" y="443.1904">&#160;</text><line style="stroke:#181818;stroke-width:1.0;stroke-dasharray:2.0,2.0;" x1="212.8779" x2="254.8779" y1="499.7441" y2="499.7441"/><line style="stroke:#181818;stroke-width:1.0;stroke-dasharray:2.0,2.0;" x1="254.8779" x2="254.8779" y1="499.7441" y2="512.7441"/><line style="stroke:#181818;stroke-width:1.0;stroke-dasharray:2.0,2.0;" x1="207.8779" x2="254.8779" y1="512.7441" y2="512.7441"/><polygon fill="#181818" points="217.8779,508.7441,207.8779,512.7441,217.8779,516.7441,213.8779,512.7441" style="stroke:#181818;stroke-width:1.0;"/><text fill="#000000" font-family="sans-serif" font-size="13" font-weight="bold" lengthAdjust="spacing" textLength="14.46" x="219.8779" y="494.4814">10</text><text fill="#000000" font-family="sans-serif" font-size="13" lengthAdjust="spacing" textLength="3.6118" x="238.3379" y="494.4814">&#160;</text><polygon fill="#181818" points="11,542.0352,1,546.0352,11,550.0352,7,546.0352" style="stroke:#181818;stroke-width:1.0;"/><line style="stroke:#181818;stroke-width:1.0;stroke-dasharray:2.0,2.0;" x1="5" x2="201.8779" y1="546.0352" y2="546.0352"/><text fill="#000000" font-family="sans-serif" font-size="13" font-weight="bold" lengthAdjust="spacing" textLength="14.46" x="17" y="540.7725">11</text><text fill="#000000" font-family="sans-serif" font-size="13" lengthAdjust="spacing" textLength="3.6118" x="35.46" y="540.7725">&#160;</text><!--SRC=[dLF1Rk8m4BtxAqOzWTJy04982D7kWUsYq1vwd7McYLLdRDcJLlpzcX12auMsktEAvVUUtvkPn5V37WFMK3jskWgk9f3Ga8hzZKVzYYNjP6y90cb1Bkr7GAomSE-6ItX16qafRCHnK_-ce5I2YD768mlSp7wYOI56rfIxHcZbM8Apbi8DO8JLOxuPCUuiDM6_jAKBHggwXTrjra_vyr_IVhwJa6pSRaoK-ReeQR5eyVVvSljZ28zwjjF8t3syMoqV7jQvKjcYDG4pqAxsoU7OyMIgK8jvGw6ZNGMfMaxY7fsTsUicHJF8MvHgKf-bxWFwwXQYe1Z7lq918Ptqj1NhzRkSq5N_WLQWF2Y0YL2Og5qAeeKAS07OSNPwjcSSglEMdIDoO-q0SehHtITfRt4FxnZuCDwQOaoRCA0Ccm6ZEWfsYeFRWgup-mEbTO8tjAQ0S6W-lBY6YozIjSZBUjSp7cVRKgV_aCywvvEf02bDTHed6BvWuihxFcsid9WN2Pyx-BhJt-bus-nHP_zlVXzLr0ZOxREQPrdtxunL_W00]--></g></svg>