<svg xmlns="http://www.w3.org/2000/svg" xmlns:xlink="http://www.w3.org/1999/xlink" contentStyleType="text/css" height="696.5px" preserveAspectRatio="none" style="width:891px;height:696px;background:#FFFFFF;" version="1.1" viewBox="0 0 891 696" width="891.1px" zoomAndPan="magnify"><defs/><g><rect fill="#FFFFFF" height="581.54" style="stroke:#181818;stroke-width:0.6999999999999998;" width="7" x="112.1876" y="63.3732"/><rect fill="#FFFFFF" height="21.9037" style="stroke:#181818;stroke-width:0.6999999999999998;" width="7" x="206.1104" y="103.6807"/><rect fill="#FFFFFF" height="21.9037" style="stroke:#181818;stroke-width:0.6999999999999998;" width="7" x="278.7412" y="147.4881"/><rect fill="#FFFFFF" height="426.8141" style="stroke:#181818;stroke-width:0.6999999999999998;" width="7" x="358.4516" y="191.2955"/><rect fill="#FFFFFF" height="383.0066" style="stroke:#181818;stroke-width:0.6999999999999998;" width="7" x="485.2285" y="213.1992"/><rect fill="#FFFFFF" height="91.6111" style="stroke:#181818;stroke-width:0.6999999999999998;" width="7" x="488.7285" y="477.791"/><rect fill="#FFFFFF" height="29.6037" style="stroke:#181818;stroke-width:0.6999999999999998;" width="7" x="492.2285" y="508.7947"/><rect fill="#FFFFFF" height="193.5186" style="stroke:#181818;stroke-width:0.6999999999999998;" width="7" x="629.4589" y="235.1029"/><rect fill="#FFFFFF" height="21" style="stroke:#181818;stroke-width:0.6999999999999998;" width="7" x="850.8097" y="257.0066"/><rect fill="#FFFFFF" height="21" style="stroke:#181818;stroke-width:0.6999999999999998;" width="7" x="850.8097" y="299.9104"/><rect fill="#FFFFFF" height="21" style="stroke:#181818;stroke-width:0.6999999999999998;" width="7" x="850.8097" y="342.8141"/><rect fill="#FFFFFF" height="21" style="stroke:#181818;stroke-width:0.6999999999999998;" width="7" x="850.8097" y="385.7178"/><rect fill="none" height="549.8363" style="stroke:#000000;stroke-width:1.0499999999999998;" width="830.5004" x="56.9458" y="73.8732"/><line style="stroke:#181818;stroke-width:0.3499999999999999;stroke-dasharray:5.0,5.0;" x1="115.0458" x2="115.0458" y1="40.0695" y2="657.5133"/><line style="stroke:#181818;stroke-width:0.3499999999999999;stroke-dasharray:5.0,5.0;" x1="208.9756" x2="208.9756" y1="40.0695" y2="657.5133"/><line style="stroke:#181818;stroke-width:0.3499999999999999;stroke-dasharray:5.0,5.0;" x1="281.6451" x2="281.6451" y1="40.0695" y2="657.5133"/><line style="stroke:#181818;stroke-width:0.3499999999999999;stroke-dasharray:5.0,5.0;" x1="361.9373" x2="361.9373" y1="40.0695" y2="657.5133"/><line style="stroke:#181818;stroke-width:0.3499999999999999;stroke-dasharray:5.0,5.0;" x1="488.6851" x2="488.6851" y1="40.0695" y2="657.5133"/><line style="stroke:#181818;stroke-width:0.3499999999999999;stroke-dasharray:5.0,5.0;" x1="632.7515" x2="632.7515" y1="40.0695" y2="657.5133"/><line style="stroke:#181818;stroke-width:0.3499999999999999;stroke-dasharray:5.0,5.0;" x1="804.9863" x2="804.9863" y1="441.1025" y2="657.5133"/><line style="stroke:#181818;stroke-width:0.3499999999999999;stroke-dasharray:5.0,5.0;" x1="854.0731" x2="854.0731" y1="40.0695" y2="657.5133"/><rect fill="#E3E3E3" height="22.8348" rx="1.75" ry="1.75" style="stroke:#181818;stroke-width:0.3499999999999999;" width="103.4838" x="63.9458" y="16.5348"/><text fill="#000000" font-family="sans-serif" font-size="9.8" lengthAdjust="spacing" textLength="93.6838" x="68.8458" y="32.01">:CreateMapController</text><rect fill="#E3E3E3" height="22.8348" rx="1.75" ry="1.75" style="stroke:#181818;stroke-width:0.3499999999999999;" width="103.4838" x="63.9458" y="656.8133"/><text fill="#000000" font-family="sans-serif" font-size="9.8" lengthAdjust="spacing" textLength="93.6838" x="68.8458" y="672.2885">:CreateMapController</text><rect fill="#E3E3E3" height="22.8348" rx="1.75" ry="1.75" style="stroke:#181818;stroke-width:0.3499999999999999;" width="64.2694" x="177.4756" y="16.5348"/><text fill="#000000" font-family="sans-serif" font-size="9.8" lengthAdjust="spacing" textLength="54.4694" x="182.3756" y="32.01">Repositories</text><rect fill="#E3E3E3" height="22.8348" rx="1.75" ry="1.75" style="stroke:#181818;stroke-width:0.3499999999999999;" width="64.2694" x="177.4756" y="656.8133"/><text fill="#000000" font-family="sans-serif" font-size="9.8" lengthAdjust="spacing" textLength="54.4694" x="182.3756" y="672.2885">Repositories</text><rect fill="#E3E3E3" height="35.8695" rx="1.75" ry="1.75" style="stroke:#181818;stroke-width:0.3499999999999999;" width="66.9922" x="248.7451" y="3.5"/><text fill="#000000" font-family="sans-serif" font-size="9.8" lengthAdjust="spacing" textLength="50.6557" x="256.9133" y="18.9752">repositories</text><text fill="#000000" font-family="sans-serif" font-size="9.8" lengthAdjust="spacing" textLength="57.1922" x="253.6451" y="32.01">:Repositories</text><rect fill="#E3E3E3" height="35.8695" rx="1.75" ry="1.75" style="stroke:#181818;stroke-width:0.3499999999999999;" width="66.9922" x="248.7451" y="656.8133"/><text fill="#000000" font-family="sans-serif" font-size="9.8" lengthAdjust="spacing" textLength="50.6557" x="256.9133" y="672.2885">repositories</text><text fill="#000000" font-family="sans-serif" font-size="9.8" lengthAdjust="spacing" textLength="57.1922" x="253.6451" y="685.3232">:Repositories</text><rect fill="#E3E3E3" height="35.8695" rx="1.75" ry="1.75" style="stroke:#181818;stroke-width:0.3499999999999999;" width="78.4287" x="322.7373" y="3.5"/><text fill="#000000" font-family="sans-serif" font-size="9.8" lengthAdjust="spacing" textLength="65.906" x="328.9986" y="18.9752">mapRepository</text><text fill="#000000" font-family="sans-serif" font-size="9.8" lengthAdjust="spacing" textLength="68.6287" x="327.6373" y="32.01">:MapRepository</text><rect fill="#E3E3E3" height="35.8695" rx="1.75" ry="1.75" style="stroke:#181818;stroke-width:0.3499999999999999;" width="78.4287" x="322.7373" y="656.8133"/><text fill="#000000" font-family="sans-serif" font-size="9.8" lengthAdjust="spacing" textLength="65.906" x="328.9986" y="672.2885">mapRepository</text><text fill="#000000" font-family="sans-serif" font-size="9.8" lengthAdjust="spacing" textLength="68.6287" x="327.6373" y="685.3232">:MapRepository</text><rect fill="#E3E3E3" height="35.8695" rx="1.75" ry="1.75" style="stroke:#181818;stroke-width:0.3499999999999999;" width="36.4868" x="470.4851" y="3.5"/><text fill="#000000" font-family="sans-serif" font-size="9.8" lengthAdjust="spacing" textLength="23.9641" x="476.7465" y="18.9752">maps</text><text fill="#000000" font-family="sans-serif" font-size="9.8" lengthAdjust="spacing" textLength="26.6868" x="475.3851" y="32.01">:Maps</text><rect fill="#E3E3E3" height="35.8695" rx="1.75" ry="1.75" style="stroke:#181818;stroke-width:0.3499999999999999;" width="36.4868" x="470.4851" y="656.8133"/><text fill="#000000" font-family="sans-serif" font-size="9.8" lengthAdjust="spacing" textLength="23.9641" x="476.7465" y="672.2885">maps</text><text fill="#000000" font-family="sans-serif" font-size="9.8" lengthAdjust="spacing" textLength="26.6868" x="475.3851" y="685.3232">:Maps</text><rect fill="#E3E3E3" height="22.8348" rx="1.75" ry="1.75" style="stroke:#181818;stroke-width:0.3499999999999999;" width="64.8149" x="600.5515" y="16.5348"/><text fill="#000000" font-family="sans-serif" font-size="9.8" lengthAdjust="spacing" textLength="55.0149" x="605.4515" y="32.01">:MapMapper</text><rect fill="#E3E3E3" height="22.8348" rx="1.75" ry="1.75" style="stroke:#181818;stroke-width:0.3499999999999999;" width="64.8149" x="600.5515" y="656.8133"/><text fill="#000000" font-family="sans-serif" font-size="9.8" lengthAdjust="spacing" textLength="55.0149" x="605.4515" y="672.2885">:MapMapper</text><rect fill="#E3E3E3" height="35.8695" rx="1.75" ry="1.75" style="stroke:#181818;stroke-width:0.3499999999999999;" width="31.5868" x="789.5863" y="656.8133"/><text fill="#000000" font-family="sans-serif" font-size="9.8" lengthAdjust="spacing" textLength="19.0641" x="795.8477" y="672.2885">map</text><text fill="#000000" font-family="sans-serif" font-size="9.8" lengthAdjust="spacing" textLength="21.7868" x="794.4863" y="685.3232">:Map</text><rect fill="#E3E3E3" height="35.8695" rx="1.75" ry="1.75" style="stroke:#181818;stroke-width:0.3499999999999999;" width="52.273" x="828.1731" y="3.5"/><text fill="#000000" font-family="sans-serif" font-size="9.8" lengthAdjust="spacing" textLength="39.7503" x="834.4345" y="18.9752">mapDTO</text><text fill="#000000" font-family="sans-serif" font-size="9.8" lengthAdjust="spacing" textLength="42.473" x="833.0731" y="32.01">:MapDTO</text><rect fill="#E3E3E3" height="35.8695" rx="1.75" ry="1.75" style="stroke:#181818;stroke-width:0.3499999999999999;" width="52.273" x="828.1731" y="656.8133"/><text fill="#000000" font-family="sans-serif" font-size="9.8" lengthAdjust="spacing" textLength="39.7503" x="834.4345" y="672.2885">mapDTO</text><text fill="#000000" font-family="sans-serif" font-size="9.8" lengthAdjust="spacing" textLength="42.473" x="833.0731" y="685.3232">:MapDTO</text><rect fill="#FFFFFF" height="581.54" style="stroke:#181818;stroke-width:0.6999999999999998;" width="7" x="112.1876" y="63.3732"/><rect fill="#FFFFFF" height="21.9037" style="stroke:#181818;stroke-width:0.6999999999999998;" width="7" x="206.1104" y="103.6807"/><rect fill="#FFFFFF" height="21.9037" style="stroke:#181818;stroke-width:0.6999999999999998;" width="7" x="278.7412" y="147.4881"/><rect fill="#FFFFFF" height="426.8141" style="stroke:#181818;stroke-width:0.6999999999999998;" width="7" x="358.4516" y="191.2955"/><rect fill="#FFFFFF" height="383.0066" style="stroke:#181818;stroke-width:0.6999999999999998;" width="7" x="485.2285" y="213.1992"/><rect fill="#FFFFFF" height="91.6111" style="stroke:#181818;stroke-width:0.6999999999999998;" width="7" x="488.7285" y="477.791"/><rect fill="#FFFFFF" height="29.6037" style="stroke:#181818;stroke-width:0.6999999999999998;" width="7" x="492.2285" y="508.7947"/><rect fill="#FFFFFF" height="193.5186" style="stroke:#181818;stroke-width:0.6999999999999998;" width="7" x="629.4589" y="235.1029"/><rect fill="#FFFFFF" height="21" style="stroke:#181818;stroke-width:0.6999999999999998;" width="7" x="850.8097" y="257.0066"/><rect fill="#FFFFFF" height="21" style="stroke:#181818;stroke-width:0.6999999999999998;" width="7" x="850.8097" y="299.9104"/><rect fill="#FFFFFF" height="21" style="stroke:#181818;stroke-width:0.6999999999999998;" width="7" x="850.8097" y="342.8141"/><rect fill="#FFFFFF" height="21" style="stroke:#181818;stroke-width:0.6999999999999998;" width="7" x="850.8097" y="385.7178"/><polygon fill="#181818" points="103.7876,60.5732,110.7876,63.3732,103.7876,66.1732,106.5876,63.3732" style="stroke:#181818;stroke-width:0.6999999999999998;"/><line style="stroke:#181818;stroke-width:0.6999999999999998;" x1="0" x2="107.9876" y1="63.3732" y2="63.3732"/><text fill="#000000" font-family="sans-serif" font-size="9.1" font-weight="bold" lengthAdjust="spacing" textLength="10.122" x="4.9" y="59.6894">22</text><text fill="#000000" font-family="sans-serif" font-size="9.1" lengthAdjust="spacing" textLength="85.9657" x="17.822" y="59.6894">createMap(mapDTO)</text><path d="M56.9458,73.8732 L179.9878,73.8732 L179.9878,80.377 L172.9878,87.377 L56.9458,87.377 L56.9458,73.8732 " fill="#EEEEEE" style="stroke:#000000;stroke-width:1.0499999999999998;"/><rect fill="none" height="549.8363" style="stroke:#000000;stroke-width:1.0499999999999998;" width="830.5004" x="56.9458" y="73.8732"/><text fill="#000000" font-family="sans-serif" font-size="9.1" font-weight="bold" lengthAdjust="spacing" textLength="91.5421" x="67.4458" y="84.3931">Create and Save Map</text><polygon fill="#181818" points="197.7104,100.8807,204.7104,103.6807,197.7104,106.4807,200.5104,103.6807" style="stroke:#181818;stroke-width:0.6999999999999998;"/><line style="stroke:#181818;stroke-width:0.6999999999999998;" x1="119.1876" x2="201.9104" y1="103.6807" y2="103.6807"/><text fill="#000000" font-family="sans-serif" font-size="9.1" font-weight="bold" lengthAdjust="spacing" textLength="17.7112" x="124.0876" y="99.9968">22.1</text><text fill="#000000" font-family="sans-serif" font-size="9.1" lengthAdjust="spacing" textLength="53.1115" x="144.5989" y="99.9968">getInstance()</text><polygon fill="#181818" points="126.8876,122.7844,119.8876,125.5844,126.8876,128.3844,124.0876,125.5844" style="stroke:#181818;stroke-width:0.6999999999999998;"/><line style="stroke:#181818;stroke-width:0.6999999999999998;stroke-dasharray:2.0,2.0;" x1="122.6876" x2="208.9104" y1="125.5844" y2="125.5844"/><text fill="#000000" font-family="sans-serif" font-size="9.1" font-weight="bold" lengthAdjust="spacing" textLength="17.7112" x="131.0876" y="121.9005">22.2</text><text fill="#000000" font-family="sans-serif" font-size="9.1" lengthAdjust="spacing" textLength="47.0374" x="151.5989" y="121.9005">repositories</text><polygon fill="#181818" points="270.3412,144.6881,277.3412,147.4881,270.3412,150.2881,273.1412,147.4881" style="stroke:#181818;stroke-width:0.6999999999999998;"/><line style="stroke:#181818;stroke-width:0.6999999999999998;" x1="119.1876" x2="274.5412" y1="147.4881" y2="147.4881"/><text fill="#000000" font-family="sans-serif" font-size="9.1" font-weight="bold" lengthAdjust="spacing" textLength="17.7112" x="124.0876" y="143.8042">22.3</text><text fill="#000000" font-family="sans-serif" font-size="9.1" lengthAdjust="spacing" textLength="79.9094" x="144.5989" y="143.8042">getMapRepository()</text><polygon fill="#181818" points="126.8876,166.5918,119.8876,169.3918,126.8876,172.1918,124.0876,169.3918" style="stroke:#181818;stroke-width:0.6999999999999998;"/><line style="stroke:#181818;stroke-width:0.6999999999999998;stroke-dasharray:2.0,2.0;" x1="122.6876" x2="281.5412" y1="169.3918" y2="169.3918"/><text fill="#000000" font-family="sans-serif" font-size="9.1" font-weight="bold" lengthAdjust="spacing" textLength="17.7112" x="131.0876" y="165.7079">22.4</text><text fill="#000000" font-family="sans-serif" font-size="9.1" lengthAdjust="spacing" textLength="61.1984" x="151.5989" y="165.7079">mapRepository</text><polygon fill="#181818" points="350.0516,188.4955,357.0516,191.2955,350.0516,194.0955,352.8516,191.2955" style="stroke:#181818;stroke-width:0.6999999999999998;"/><line style="stroke:#181818;stroke-width:0.6999999999999998;" x1="119.1876" x2="354.2516" y1="191.2955" y2="191.2955"/><text fill="#000000" font-family="sans-serif" font-size="9.1" font-weight="bold" lengthAdjust="spacing" textLength="17.7112" x="124.0876" y="187.6116">22.5</text><text fill="#000000" font-family="sans-serif" font-size="9.1" lengthAdjust="spacing" textLength="85.9657" x="144.5989" y="187.6116">createMap(mapDTO)</text><polygon fill="#181818" points="476.8285,210.3992,483.8285,213.1992,476.8285,215.9992,479.6285,213.1992" style="stroke:#181818;stroke-width:0.6999999999999998;"/><line style="stroke:#181818;stroke-width:0.6999999999999998;" x1="365.4516" x2="481.0285" y1="213.1992" y2="213.1992"/><text fill="#000000" font-family="sans-serif" font-size="9.1" font-weight="bold" lengthAdjust="spacing" textLength="17.7112" x="370.3516" y="209.5153">22.6</text><text fill="#000000" font-family="sans-serif" font-size="9.1" lengthAdjust="spacing" textLength="85.9657" x="390.8628" y="209.5153">createMap(mapDTO)</text><polygon fill="#181818" points="621.0589,232.3029,628.0589,235.1029,621.0589,237.9029,623.8589,235.1029" style="stroke:#181818;stroke-width:0.6999999999999998;"/><line style="stroke:#181818;stroke-width:0.6999999999999998;" x1="492.2285" x2="625.2589" y1="235.1029" y2="235.1029"/><text fill="#000000" font-family="sans-serif" font-size="9.1" font-weight="bold" lengthAdjust="spacing" textLength="17.7112" x="497.1285" y="231.419">22.7</text><text fill="#000000" font-family="sans-serif" font-size="9.1" lengthAdjust="spacing" textLength="103.4192" x="517.6397" y="231.419">map = toModel(mapDTO)</text><polygon fill="#181818" points="842.4097,254.2066,849.4097,257.0066,842.4097,259.8066,845.2097,257.0066" style="stroke:#181818;stroke-width:0.6999999999999998;"/><line style="stroke:#181818;stroke-width:0.6999999999999998;" x1="636.4589" x2="846.6097" y1="257.0066" y2="257.0066"/><text fill="#000000" font-family="sans-serif" font-size="9.1" font-weight="bold" lengthAdjust="spacing" textLength="17.7112" x="641.3589" y="253.3228">22.8</text><text fill="#000000" font-family="sans-serif" font-size="9.1" lengthAdjust="spacing" textLength="94.3192" x="661.8702" y="253.3228">nameID = getNameID()</text><polygon fill="#181818" points="842.4097,297.1104,849.4097,299.9104,842.4097,302.7104,845.2097,299.9104" style="stroke:#181818;stroke-width:0.6999999999999998;"/><line style="stroke:#181818;stroke-width:0.6999999999999998;" x1="636.4589" x2="846.6097" y1="299.9104" y2="299.9104"/><text fill="#000000" font-family="sans-serif" font-size="9.1" font-weight="bold" lengthAdjust="spacing" textLength="17.7112" x="641.3589" y="296.2265">22.9</text><text fill="#000000" font-family="sans-serif" font-size="9.1" lengthAdjust="spacing" textLength="73.5865" x="661.8702" y="296.2265">width = getWidth()</text><polygon fill="#181818" points="842.4097,340.0141,849.4097,342.8141,842.4097,345.6141,845.2097,342.8141" style="stroke:#181818;stroke-width:0.6999999999999998;"/><line style="stroke:#181818;stroke-width:0.6999999999999998;" x1="636.4589" x2="846.6097" y1="342.8141" y2="342.8141"/><text fill="#000000" font-family="sans-serif" font-size="9.1" font-weight="bold" lengthAdjust="spacing" textLength="22.7722" x="641.3589" y="339.1302">22.10</text><text fill="#000000" font-family="sans-serif" font-size="9.1" lengthAdjust="spacing" textLength="80.1804" x="666.9312" y="339.1302">height = getHeight()</text><polygon fill="#181818" points="842.4097,382.9178,849.4097,385.7178,842.4097,388.5178,845.2097,385.7178" style="stroke:#181818;stroke-width:0.6999999999999998;"/><line style="stroke:#181818;stroke-width:0.6999999999999998;" x1="636.4589" x2="846.6097" y1="385.7178" y2="385.7178"/><text fill="#000000" font-family="sans-serif" font-size="9.1" font-weight="bold" lengthAdjust="spacing" textLength="22.7722" x="641.3589" y="382.0339">22.11</text><text fill="#000000" font-family="sans-serif" font-size="9.1" lengthAdjust="spacing" textLength="73.0888" x="666.9312" y="382.0339">scale = getScale()</text><polygon fill="#181818" points="781.1863,425.8215,788.1863,428.6215,781.1863,431.4215,783.9863,428.6215" style="stroke:#181818;stroke-width:0.6999999999999998;"/><line style="stroke:#181818;stroke-width:0.6999999999999998;" x1="632.9589" x2="785.3863" y1="428.6215" y2="428.6215"/><text fill="#000000" font-family="sans-serif" font-size="9.1" font-weight="bold" lengthAdjust="spacing" textLength="22.7722" x="637.8589" y="424.9376">22.12</text><text fill="#000000" font-family="sans-serif" font-size="9.1" lengthAdjust="spacing" textLength="110.7552" x="663.4312" y="424.9376">create(nameID, size, scale)</text><rect fill="#E3E3E3" height="35.8695" rx="1.75" ry="1.75" style="stroke:#181818;stroke-width:0.3499999999999999;" width="31.5868" x="789.5863" y="412.3178"/><text fill="#000000" font-family="sans-serif" font-size="9.8" lengthAdjust="spacing" textLength="19.0641" x="795.8477" y="427.793">map</text><text fill="#000000" font-family="sans-serif" font-size="9.8" lengthAdjust="spacing" textLength="21.7868" x="794.4863" y="440.8277">:Map</text><line style="stroke:#181818;stroke-width:0.6999999999999998;" x1="492.2285" x2="525.1285" y1="468.691" y2="468.691"/><line style="stroke:#181818;stroke-width:0.6999999999999998;" x1="525.1285" x2="525.1285" y1="468.691" y2="477.791"/><line style="stroke:#181818;stroke-width:0.6999999999999998;" x1="496.4285" x2="525.1285" y1="477.791" y2="477.791"/><polygon fill="#181818" points="503.4285,474.991,496.4285,477.791,503.4285,480.591,500.6285,477.791" style="stroke:#181818;stroke-width:0.6999999999999998;"/><text fill="#000000" font-family="sans-serif" font-size="9.1" font-weight="bold" lengthAdjust="spacing" textLength="22.7722" x="500.6285" y="465.0071">22.13</text><text fill="#000000" font-family="sans-serif" font-size="9.1" lengthAdjust="spacing" textLength="56.6484" x="526.2007" y="465.0071">addMap(map)</text><line style="stroke:#181818;stroke-width:0.6999999999999998;" x1="495.7285" x2="528.6285" y1="499.6947" y2="499.6947"/><line style="stroke:#181818;stroke-width:0.6999999999999998;" x1="528.6285" x2="528.6285" y1="499.6947" y2="508.7947"/><line style="stroke:#181818;stroke-width:0.6999999999999998;" x1="499.9285" x2="528.6285" y1="508.7947" y2="508.7947"/><polygon fill="#181818" points="506.9285,505.9947,499.9285,508.7947,506.9285,511.5947,504.1285,508.7947" style="stroke:#181818;stroke-width:0.6999999999999998;"/><text fill="#000000" font-family="sans-serif" font-size="9.1" font-weight="bold" lengthAdjust="spacing" textLength="22.7722" x="504.1285" y="496.0108">22.14</text><text fill="#000000" font-family="sans-serif" font-size="9.1" lengthAdjust="spacing" textLength="72.8311" x="529.7007" y="496.0108">validateMap(map)</text><line style="stroke:#181818;stroke-width:0.6999999999999998;stroke-dasharray:2.0,2.0;" x1="499.2285" x2="528.6285" y1="537.6984" y2="537.6984"/><line style="stroke:#181818;stroke-width:0.6999999999999998;stroke-dasharray:2.0,2.0;" x1="528.6285" x2="528.6285" y1="537.6984" y2="546.7984"/><line style="stroke:#181818;stroke-width:0.6999999999999998;stroke-dasharray:2.0,2.0;" x1="495.7285" x2="528.6285" y1="546.7984" y2="546.7984"/><polygon fill="#181818" points="502.7285,543.9984,495.7285,546.7984,502.7285,549.5984,499.9285,546.7984" style="stroke:#181818;stroke-width:0.6999999999999998;"/><text fill="#000000" font-family="sans-serif" font-size="9.1" font-weight="bold" lengthAdjust="spacing" textLength="22.7722" x="504.1285" y="534.0146">22.15</text><text fill="#000000" font-family="sans-serif" font-size="9.1" lengthAdjust="spacing" textLength="15.6806" x="529.7007" y="534.0146">true</text><line style="stroke:#181818;stroke-width:0.6999999999999998;stroke-dasharray:2.0,2.0;" x1="495.7285" x2="525.1285" y1="568.7021" y2="568.7021"/><line style="stroke:#181818;stroke-width:0.6999999999999998;stroke-dasharray:2.0,2.0;" x1="525.1285" x2="525.1285" y1="568.7021" y2="577.8021"/><line style="stroke:#181818;stroke-width:0.6999999999999998;stroke-dasharray:2.0,2.0;" x1="492.2285" x2="525.1285" y1="577.8021" y2="577.8021"/><polygon fill="#181818" points="499.2285,575.0021,492.2285,577.8021,499.2285,580.6021,496.4285,577.8021" style="stroke:#181818;stroke-width:0.6999999999999998;"/><text fill="#000000" font-family="sans-serif" font-size="9.1" font-weight="bold" lengthAdjust="spacing" textLength="22.7722" x="500.6285" y="565.0183">22.16</text><text fill="#000000" font-family="sans-serif" font-size="9.1" lengthAdjust="spacing" textLength="15.6806" x="526.2007" y="565.0183">true</text><polygon fill="#181818" points="373.1516,593.4059,366.1516,596.2059,373.1516,599.0059,370.3516,596.2059" style="stroke:#181818;stroke-width:0.6999999999999998;"/><line style="stroke:#181818;stroke-width:0.6999999999999998;stroke-dasharray:2.0,2.0;" x1="368.9516" x2="488.0285" y1="596.2059" y2="596.2059"/><text fill="#000000" font-family="sans-serif" font-size="9.1" font-weight="bold" lengthAdjust="spacing" textLength="22.7722" x="377.3516" y="592.522">22.17</text><text fill="#000000" font-family="sans-serif" font-size="9.1" lengthAdjust="spacing" textLength="32.872" x="402.9238" y="592.522">success</text><polygon fill="#181818" points="126.8876,615.3096,119.8876,618.1096,126.8876,620.9096,124.0876,618.1096" style="stroke:#181818;stroke-width:0.6999999999999998;"/><line style="stroke:#181818;stroke-width:0.6999999999999998;stroke-dasharray:2.0,2.0;" x1="122.6876" x2="361.2516" y1="618.1096" y2="618.1096"/><text fill="#000000" font-family="sans-serif" font-size="9.1" font-weight="bold" lengthAdjust="spacing" textLength="22.7722" x="131.0876" y="614.4257">22.18</text><text fill="#000000" font-family="sans-serif" font-size="9.1" lengthAdjust="spacing" textLength="32.872" x="156.6599" y="614.4257">success</text><polygon fill="#181818" points="7.7,642.1133,0.7,644.9133,7.7,647.7133,4.9,644.9133" style="stroke:#181818;stroke-width:0.6999999999999998;"/><line style="stroke:#181818;stroke-width:0.6999999999999998;stroke-dasharray:2.0,2.0;" x1="3.5" x2="114.9876" y1="644.9133" y2="644.9133"/><text fill="#000000" font-family="sans-serif" font-size="9.1" font-weight="bold" lengthAdjust="spacing" textLength="10.122" x="11.9" y="641.2294">23</text><text fill="#000000" font-family="sans-serif" font-size="9.1" lengthAdjust="spacing" textLength="32.872" x="24.822" y="641.2294">success</text><!--SRC=[nLLjQzim4FxkNt7qKrAQmRflOHkCD6o1veKuq2-3ejatMzIMZ2IdTBz-icJByalS5GOL2PnrpprwT7UIv1Db1H4aXvmp7gM2vmXAb1X8vob8z4GI3DLBXY0mKeGbcG-GAOdvCsK9_2QPn23Gquf6j21CmTLo9P0et99YnPaIFCjGN06Hi3eTxxlG8nPSKiK5HMaWn_LX7tOnmiFyPClnaCTmi_j-lpxjTztWd1Gku4L7R_rl4xxzTdYiA0Pnqi9bW-h9gdpwLzHxgsZq_x0-3eWiJuCQkEzEUulGXgFITX2GKd5MvhzGmErjiFXg4hY4g4dlp4RFUyWF7mCIANhM89joq2CHl2p0LWO8Yo4aPmHD4XXtDIeiw5LCGc492QeDaxhu4Sxc3kMeRQd06pPmuOJwbNF067iCu-kt1JL2EdMxgCRhWe6krkSfxBJ7HOaUxK1iqpvZPHc8TBtcgsicQxPmYgdFrir_pHOskcm_cbt25r1yosFCHZa7AkjMXf7HkfjrDDqI6CbnSwVNqTNQ6Nis7utlh5Fr-HZ8Au4x3cyGyqnZbLej3vNvZb9If4cgh9OVnlxVOjwYHaP4t-b6J5YPxvAOw-kcnsUsQsv0qZzuOzKD5VKMgdjpglNr8I9nN9-WwLOFBsdskCuaet5x95_FsJXfI-oOpSjx2TlTzvJGr_dwNC4KKNsZoJAAKChWdtdQgypTi7sENYtDRMYSo69h-6_P9pFpUR6mzsrBvz6O9-ul]--></g></svg>