<svg xmlns="http://www.w3.org/2000/svg" xmlns:xlink="http://www.w3.org/1999/xlink" contentStyleType="text/css" height="527.8px" preserveAspectRatio="none" style="width:478px;height:527px;background:#FFFFFF;" version="1.1" viewBox="0 0 478 527" width="478.1px" zoomAndPan="magnify"><title>Sequence Diagram: US01 - Create a Map</title><defs/><g><text fill="#000000" font-family="sans-serif" font-size="9.8" font-weight="bold" lengthAdjust="spacing" textLength="188.4442" x="144.1773" y="21.0752">Sequence Diagram: US01 - Create a Map</text><rect fill="#FFFFFF" height="363.9631" style="stroke:#181818;stroke-width:0.6999999999999998;" width="7" x="14.9003" y="93.2695"/><rect fill="#FFFFFF" height="52.4385" style="stroke:#181818;stroke-width:0.6999999999999998;" width="7" x="220.0611" y="109.5732"/><rect fill="#FFFFFF" height="130.0223" style="stroke:#181818;stroke-width:0.6999999999999998;" width="7" x="220.0611" y="183.9154"/><rect fill="#FFFFFF" height="121.3912" style="stroke:#181818;stroke-width:0.6999999999999998;" width="7" x="220.0611" y="335.8414"/><rect fill="#FFFFFF" height="55.6801" style="stroke:#181818;stroke-width:0.6999999999999998;" width="7" x="359.4838" y="236.3539"/><rect fill="#FFFFFF" height="55.6801" style="stroke:#181818;stroke-width:0.6999999999999998;" width="7" x="359.4838" y="357.7451"/><line style="stroke:#181818;stroke-width:0.3499999999999999;stroke-dasharray:5.0,5.0;" x1="18.2" x2="18.2" y1="86.2695" y2="469.8326"/><line style="stroke:#181818;stroke-width:0.3499999999999999;stroke-dasharray:5.0,5.0;" x1="223.1605" x2="223.1605" y1="86.2695" y2="469.8326"/><line style="stroke:#181818;stroke-width:0.3499999999999999;stroke-dasharray:5.0,5.0;" x1="362.3419" x2="362.3419" y1="137.4406" y2="469.8326"/><line style="stroke:#181818;stroke-width:0.3499999999999999;stroke-dasharray:5.0,5.0;" x1="447.6257" x2="447.6257" y1="211.7828" y2="469.8326"/><text fill="#000000" font-family="sans-serif" font-size="9.8" lengthAdjust="spacing" textLength="25.6006" x="3.5" y="83.81">Editor</text><ellipse cx="18.4003" cy="37.1848" fill="#E3E3E3" rx="5.6" ry="5.6" style="stroke:#181818;stroke-width:0.3499999999999999;"/><path d="M18.4003,42.7848 L18.4003,61.6848 M9.3003,48.3848 L27.5003,48.3848 M18.4003,61.6848 L9.3003,72.1848 M18.4003,61.6848 L27.5003,72.1848 " fill="none" style="stroke:#181818;stroke-width:0.3499999999999999;"/><text fill="#000000" font-family="sans-serif" font-size="9.8" lengthAdjust="spacing" textLength="25.6006" x="3.5" y="479.7078">Editor</text><ellipse cx="18.4003" cy="488.1174" fill="#E3E3E3" rx="5.6" ry="5.6" style="stroke:#181818;stroke-width:0.3499999999999999;"/><path d="M18.4003,493.7174 L18.4003,512.6174 M9.3003,499.3174 L27.5003,499.3174 M18.4003,512.6174 L9.3003,523.1174 M18.4003,512.6174 L27.5003,523.1174 " fill="none" style="stroke:#181818;stroke-width:0.3499999999999999;"/><rect fill="#E3E3E3" height="22.8348" rx="1.75" ry="1.75" style="stroke:#181818;stroke-width:0.3499999999999999;" width="70.8012" x="188.1605" y="62.7348"/><text fill="#000000" font-family="sans-serif" font-size="9.8" lengthAdjust="spacing" textLength="61.0012" x="193.0605" y="78.21">:CreateMapUI</text><rect fill="#E3E3E3" height="22.8348" rx="1.75" ry="1.75" style="stroke:#181818;stroke-width:0.3499999999999999;" width="70.8012" x="188.1605" y="469.1326"/><text fill="#000000" font-family="sans-serif" font-size="9.8" lengthAdjust="spacing" textLength="61.0012" x="193.0605" y="484.6078">:CreateMapUI</text><rect fill="#E3E3E3" height="22.8348" rx="1.75" ry="1.75" style="stroke:#181818;stroke-width:0.3499999999999999;" width="103.4838" x="311.2419" y="469.1326"/><text fill="#000000" font-family="sans-serif" font-size="9.8" lengthAdjust="spacing" textLength="93.6838" x="316.1419" y="484.6078">:CreateMapController</text><rect fill="#E3E3E3" height="22.8348" rx="1.75" ry="1.75" style="stroke:#181818;stroke-width:0.3499999999999999;" width="52.273" x="421.7257" y="469.1326"/><text fill="#000000" font-family="sans-serif" font-size="9.8" lengthAdjust="spacing" textLength="42.473" x="426.6257" y="484.6078">:MapDTO</text><rect fill="#FFFFFF" height="363.9631" style="stroke:#181818;stroke-width:0.6999999999999998;" width="7" x="14.9003" y="93.2695"/><rect fill="#FFFFFF" height="52.4385" style="stroke:#181818;stroke-width:0.6999999999999998;" width="7" x="220.0611" y="109.5732"/><rect fill="#FFFFFF" height="130.0223" style="stroke:#181818;stroke-width:0.6999999999999998;" width="7" x="220.0611" y="183.9154"/><rect fill="#FFFFFF" height="121.3912" style="stroke:#181818;stroke-width:0.6999999999999998;" width="7" x="220.0611" y="335.8414"/><rect fill="#FFFFFF" height="55.6801" style="stroke:#181818;stroke-width:0.6999999999999998;" width="7" x="359.4838" y="236.3539"/><rect fill="#FFFFFF" height="55.6801" style="stroke:#181818;stroke-width:0.6999999999999998;" width="7" x="359.4838" y="357.7451"/><polygon fill="#181818" points="211.6611,106.7732,218.6611,109.5732,211.6611,112.3732,214.4611,109.5732" style="stroke:#181818;stroke-width:0.6999999999999998;"/><line style="stroke:#181818;stroke-width:0.6999999999999998;" x1="21.9003" x2="215.8611" y1="109.5732" y2="109.5732"/><text fill="#000000" font-family="sans-serif" font-size="9.1" font-weight="bold" lengthAdjust="spacing" textLength="5.061" x="26.8003" y="105.8894">1</text><text fill="#000000" font-family="sans-serif" font-size="9.1" lengthAdjust="spacing" textLength="103.6902" x="34.6613" y="105.8894">asks to create a new map</text><polygon fill="#181818" points="302.8419,128.677,309.8419,131.477,302.8419,134.277,305.6419,131.477" style="stroke:#181818;stroke-width:0.6999999999999998;"/><line style="stroke:#181818;stroke-width:0.6999999999999998;" x1="227.0611" x2="307.0419" y1="131.477" y2="131.477"/><text fill="#000000" font-family="sans-serif" font-size="9.1" font-weight="bold" lengthAdjust="spacing" textLength="5.061" x="231.9611" y="127.7931">2</text><text fill="#000000" font-family="sans-serif" font-size="9.1" lengthAdjust="spacing" textLength="31.3523" x="239.8221" y="127.7931">create()</text><rect fill="#E3E3E3" height="22.8348" rx="1.75" ry="1.75" style="stroke:#181818;stroke-width:0.3499999999999999;" width="103.4838" x="311.2419" y="115.1732"/><text fill="#000000" font-family="sans-serif" font-size="9.8" lengthAdjust="spacing" textLength="93.6838" x="316.1419" y="130.6484">:CreateMapController</text><polygon fill="#181818" points="29.6003,159.2117,22.6003,162.0117,29.6003,164.8117,26.8003,162.0117" style="stroke:#181818;stroke-width:0.6999999999999998;"/><line style="stroke:#181818;stroke-width:0.6999999999999998;stroke-dasharray:2.0,2.0;" x1="25.4003" x2="222.8611" y1="162.0117" y2="162.0117"/><text fill="#000000" font-family="sans-serif" font-size="9.1" font-weight="bold" lengthAdjust="spacing" textLength="5.061" x="33.8003" y="158.3278">3</text><text fill="#000000" font-family="sans-serif" font-size="9.1" lengthAdjust="spacing" textLength="162.8758" x="41.6613" y="158.3278">requests map data (name, width, height)</text><polygon fill="#181818" points="211.6611,181.1154,218.6611,183.9154,211.6611,186.7154,214.4611,183.9154" style="stroke:#181818;stroke-width:0.6999999999999998;"/><line style="stroke:#181818;stroke-width:0.6999999999999998;" x1="21.9003" x2="215.8611" y1="183.9154" y2="183.9154"/><text fill="#000000" font-family="sans-serif" font-size="9.1" font-weight="bold" lengthAdjust="spacing" textLength="5.061" x="26.8003" y="180.2315">4</text><text fill="#000000" font-family="sans-serif" font-size="9.1" lengthAdjust="spacing" textLength="87.5253" x="34.6613" y="180.2315">inputs requested data</text><polygon fill="#181818" points="413.3257,203.0191,420.3257,205.8191,413.3257,208.6191,416.1257,205.8191" style="stroke:#181818;stroke-width:0.6999999999999998;"/><line style="stroke:#181818;stroke-width:0.6999999999999998;" x1="227.0611" x2="417.5257" y1="205.8191" y2="205.8191"/><text fill="#000000" font-family="sans-serif" font-size="9.1" font-weight="bold" lengthAdjust="spacing" textLength="5.061" x="231.9611" y="202.1353">5</text><text fill="#000000" font-family="sans-serif" font-size="9.1" lengthAdjust="spacing" textLength="119.3664" x="239.8221" y="202.1353">create(nameID, width, height)</text><rect fill="#E3E3E3" height="22.8348" rx="1.75" ry="1.75" style="stroke:#181818;stroke-width:0.3499999999999999;" width="52.273" x="421.7257" y="189.5154"/><text fill="#000000" font-family="sans-serif" font-size="9.8" lengthAdjust="spacing" textLength="42.473" x="426.6257" y="204.9906">:MapDTO</text><polygon fill="#181818" points="351.0838,233.5539,358.0838,236.3539,351.0838,239.1539,353.8838,236.3539" style="stroke:#181818;stroke-width:0.6999999999999998;"/><line style="stroke:#181818;stroke-width:0.6999999999999998;" x1="227.0611" x2="355.2838" y1="236.3539" y2="236.3539"/><text fill="#000000" font-family="sans-serif" font-size="9.1" font-weight="bold" lengthAdjust="spacing" textLength="5.061" x="231.9611" y="232.67">6</text><text fill="#000000" font-family="sans-serif" font-size="9.1" lengthAdjust="spacing" textLength="111.2617" x="239.8221" y="232.67">validateMapData(mapDTO)</text><rect fill="none" height="30.2764" style="stroke:#000000;stroke-width:1.0499999999999998;" width="107.6838" x="309.1419" y="241.9539"/><path d="M309.1419,241.9539 L351.8419,241.9539 L351.8419,248.2539 L344.8419,255.2539 L309.1419,255.2539 L309.1419,241.9539 " fill="#EEEEEE" style="stroke:#000000;stroke-width:1.3999999999999997;"/><text fill="#000000" font-family="sans-serif" font-size="9.1" font-weight="bold" lengthAdjust="spacing" textLength="11.6327" x="318.2419" y="253.1737">ref</text><text fill="#000000" font-family="sans-serif" font-size="8.4" lengthAdjust="spacing" textLength="67.7127" x="329.1275" y="267.1184">Validate map data</text><polygon fill="#181818" points="234.7611,289.234,227.7611,292.034,234.7611,294.834,231.9611,292.034" style="stroke:#181818;stroke-width:0.6999999999999998;"/><line style="stroke:#181818;stroke-width:0.6999999999999998;stroke-dasharray:2.0,2.0;" x1="230.5611" x2="362.2838" y1="292.034" y2="292.034"/><text fill="#000000" font-family="sans-serif" font-size="9.1" font-weight="bold" lengthAdjust="spacing" textLength="5.061" x="238.9611" y="288.3501">7</text><text fill="#000000" font-family="sans-serif" font-size="9.1" lengthAdjust="spacing" textLength="18.7154" x="246.8221" y="288.3501">valid</text><polygon fill="#181818" points="29.6003,311.1377,22.6003,313.9377,29.6003,316.7377,26.8003,313.9377" style="stroke:#181818;stroke-width:0.6999999999999998;"/><line style="stroke:#181818;stroke-width:0.6999999999999998;stroke-dasharray:2.0,2.0;" x1="25.4003" x2="222.8611" y1="313.9377" y2="313.9377"/><text fill="#000000" font-family="sans-serif" font-size="9.1" font-weight="bold" lengthAdjust="spacing" textLength="5.061" x="33.8003" y="310.2538">8</text><text fill="#000000" font-family="sans-serif" font-size="9.1" lengthAdjust="spacing" textLength="173.4999" x="41.6613" y="310.2538">shows map data and requests confirmation</text><polygon fill="#181818" points="211.6611,333.0414,218.6611,335.8414,211.6611,338.6414,214.4611,335.8414" style="stroke:#181818;stroke-width:0.6999999999999998;"/><line style="stroke:#181818;stroke-width:0.6999999999999998;" x1="21.9003" x2="215.8611" y1="335.8414" y2="335.8414"/><text fill="#000000" font-family="sans-serif" font-size="9.1" font-weight="bold" lengthAdjust="spacing" textLength="5.061" x="26.8003" y="332.1575">9</text><text fill="#000000" font-family="sans-serif" font-size="9.1" lengthAdjust="spacing" textLength="54.6222" x="34.6613" y="332.1575">confirms data</text><polygon fill="#181818" points="351.0838,354.9451,358.0838,357.7451,351.0838,360.5451,353.8838,357.7451" style="stroke:#181818;stroke-width:0.6999999999999998;"/><line style="stroke:#181818;stroke-width:0.6999999999999998;" x1="227.0611" x2="355.2838" y1="357.7451" y2="357.7451"/><text fill="#000000" font-family="sans-serif" font-size="9.1" font-weight="bold" lengthAdjust="spacing" textLength="10.122" x="231.9611" y="354.0612">10</text><text fill="#000000" font-family="sans-serif" font-size="9.1" lengthAdjust="spacing" textLength="85.9657" x="244.8831" y="354.0612">createMap(mapDTO)</text><rect fill="none" height="30.2764" style="stroke:#000000;stroke-width:1.0499999999999998;" width="107.6838" x="309.1419" y="363.3451"/><path d="M309.1419,363.3451 L351.8419,363.3451 L351.8419,369.6451 L344.8419,376.6451 L309.1419,376.6451 L309.1419,363.3451 " fill="#EEEEEE" style="stroke:#000000;stroke-width:1.3999999999999997;"/><text fill="#000000" font-family="sans-serif" font-size="9.1" font-weight="bold" lengthAdjust="spacing" textLength="11.6327" x="318.2419" y="374.5649">ref</text><text fill="#000000" font-family="sans-serif" font-size="8.4" lengthAdjust="spacing" textLength="80.3127" x="322.8275" y="388.5096">Create and save map</text><polygon fill="#181818" points="234.7611,410.6252,227.7611,413.4252,234.7611,416.2252,231.9611,413.4252" style="stroke:#181818;stroke-width:0.6999999999999998;"/><line style="stroke:#181818;stroke-width:0.6999999999999998;stroke-dasharray:2.0,2.0;" x1="230.5611" x2="362.2838" y1="413.4252" y2="413.4252"/><text fill="#000000" font-family="sans-serif" font-size="9.1" font-weight="bold" lengthAdjust="spacing" textLength="10.122" x="238.9611" y="409.7413">11</text><text fill="#000000" font-family="sans-serif" font-size="9.1" lengthAdjust="spacing" textLength="80.1538" x="251.8831" y="409.7413">success + mapDTO</text><polygon fill="#181818" points="29.6003,432.5289,22.6003,435.3289,29.6003,438.1289,26.8003,435.3289" style="stroke:#181818;stroke-width:0.6999999999999998;"/><line style="stroke:#181818;stroke-width:0.6999999999999998;stroke-dasharray:2.0,2.0;" x1="25.4003" x2="219.3611" y1="435.3289" y2="435.3289"/><text fill="#000000" font-family="sans-serif" font-size="9.1" font-weight="bold" lengthAdjust="spacing" textLength="10.122" x="33.8003" y="431.645">12</text><text fill="#000000" font-family="sans-serif" font-size="9.1" lengthAdjust="spacing" textLength="108.7512" x="46.7223" y="431.645">displays operation success</text><polygon fill="#181818" points="26.1003,454.4326,19.1003,457.2326,26.1003,460.0326,23.3003,457.2326" style="stroke:#181818;stroke-width:0.6999999999999998;"/><line style="stroke:#181818;stroke-width:0.6999999999999998;stroke-dasharray:2.0,2.0;" x1="21.9003" x2="222.8611" y1="457.2326" y2="457.2326"/><text fill="#000000" font-family="sans-serif" font-size="9.1" font-weight="bold" lengthAdjust="spacing" textLength="10.122" x="30.3003" y="453.5487">13</text><text fill="#000000" font-family="sans-serif" font-size="9.1" lengthAdjust="spacing" textLength="81.94" x="43.2223" y="453.5487">displays map details</text><!--SRC=[hLJ1Zfim4Btp5QESqkskr5uvz9Bq4AchIisczwaz0IjWivuXqVvz1qEoi2dTLAelWFpclUVt03uuts346khWWobZg0aajfJnPQT1Sy22jl9I4KGoWhwenW0kqOQJymNiiMBACcmb-BR-HJ7Bn8cERUcv9My8rWuBdSbXj_tq6HvW5Gc50E4H6nqq4Y8ilbgdrmKW0wNRJ8N46TUW5rZa_P1Ex3O9jDlC0LR1ImnLHJtRwkd7jpTG1QsVlgTTlIOBxjXP6fGpqDNVmyCNbO9SiGS62M3EvZsTeDO3mB0k9EeCHakdbQDpSNUN3-FB3rSGnVIAkUQjmR5mHmyM1M7fiQPxE3ahvJsKv8fINYaiZRMlpEUWfRLAD_2IJQGt6jU0Hhux7vlrh9FfUNCuOkLityfQ9PTr2dwAlyYdeiOxauT8UmX7YjUmduF89Qx9BdaxJzgjZY_5toML34yWet3_Rl1DYLo6qwX1zFQrLnFytiKQnGL_Uul35FzBUtqDvlnf_B606sC-VxLw4COZJTxzTuEUp_2g0cwD8MRu2BtP_zA6TTnK-C8G6eefzxFEJLEfHX9q5S_rDNeS_YA_0G00]--></g></svg>