<svg xmlns="http://www.w3.org/2000/svg" xmlns:xlink="http://www.w3.org/1999/xlink" contentStyleType="text/css" height="843.2px" preserveAspectRatio="none" style="width:863px;height:843px;background:#FFFFFF;" version="1.1" viewBox="0 0 863 843" width="863.2px" zoomAndPan="magnify"><title>Class Diagram: US01 - Create a Map</title><defs/><g><text fill="#000000" font-family="sans-serif" font-size="11.2" font-weight="bold" lengthAdjust="spacing" textLength="192.3414" x="330.1184" y="20.0859">Class Diagram: US01 - Create a Map</text><!--class CreateMapUI--><g id="elem_CreateMapUI"><rect codeLine="7" fill="#F1F1F1" height="38.4" id="CreateMapUI" rx="2" ry="2" style="stroke:#181818;stroke-width:0.4000000000000001;" width="92.2039" x="617.6" y="37.2969"/><ellipse cx="629.6" cy="50.0969" fill="#ADD1B2" rx="8.8" ry="8.8" style="stroke:#181818;stroke-width:0.8000000000000002;"/><path d="M631.8125,46.7969 Q631.9375,46.6219 632.0875,46.5344 Q632.2375,46.4469 632.4125,46.4469 Q632.7125,46.4469 632.9,46.6594 Q633.0875,46.8594 633.0875,47.3469 L633.0875,48.5094 Q633.0875,48.9969 632.9,49.2094 Q632.7125,49.4219 632.4125,49.4219 Q632.1375,49.4219 631.975,49.2594 Q631.8125,49.1094 631.725,48.6969 Q631.6875,48.4094 631.5375,48.2594 Q631.275,47.9594 630.7875,47.7844 Q630.3,47.6094 629.8,47.6094 Q629.1875,47.6094 628.675,47.8719 Q628.175,48.1344 627.775,48.7344 Q627.3875,49.3344 627.3875,50.1594 L627.3875,51.0344 Q627.3875,52.0219 628.1,52.6844 Q628.8125,53.3344 630.0875,53.3344 Q630.8375,53.3344 631.3625,53.1344 Q631.675,53.0094 632.0125,52.6594 Q632.225,52.4469 632.3375,52.3844 Q632.4625,52.3219 632.625,52.3219 Q632.8875,52.3219 633.0875,52.5344 Q633.3,52.7344 633.3,53.0094 Q633.3,53.2844 633.025,53.6094 Q632.625,54.0719 631.9875,54.3344 Q631.125,54.6969 630.0875,54.6969 Q628.875,54.6969 627.9125,54.1969 Q627.125,53.7969 626.575,52.9469 Q626.025,52.0844 626.025,51.0594 L626.025,50.1344 Q626.025,49.0719 626.5125,48.1594 Q627.0125,47.2344 627.8875,46.7469 Q628.7625,46.2469 629.75,46.2469 Q630.3375,46.2469 630.85,46.3844 Q631.375,46.5094 631.8125,46.7969 Z " fill="#000000"/><text fill="#000000" font-family="sans-serif" font-size="11.2" lengthAdjust="spacing" textLength="66.6039" x="640.8" y="54.7344">CreateMapUI</text><line style="stroke:#181818;stroke-width:0.4000000000000001;" x1="618.4" x2="709.0039" y1="62.8969" y2="62.8969"/><line style="stroke:#181818;stroke-width:0.4000000000000001;" x1="618.4" x2="709.0039" y1="69.2969" y2="69.2969"/></g><!--class CreateMapController--><g id="elem_CreateMapController"><rect codeLine="10" fill="#F1F1F1" height="83.0906" id="CreateMapController" rx="2" ry="2" style="stroke:#181818;stroke-width:0.4000000000000001;" width="253.9273" x="536.8" y="124.4969"/><ellipse cx="608.3859" cy="137.2969" fill="#ADD1B2" rx="8.8" ry="8.8" style="stroke:#181818;stroke-width:0.8000000000000002;"/><path d="M610.5984,133.9969 Q610.7234,133.8219 610.8734,133.7344 Q611.0234,133.6469 611.1984,133.6469 Q611.4984,133.6469 611.6859,133.8594 Q611.8734,134.0594 611.8734,134.5469 L611.8734,135.7094 Q611.8734,136.1969 611.6859,136.4094 Q611.4984,136.6219 611.1984,136.6219 Q610.9234,136.6219 610.7609,136.4594 Q610.5984,136.3094 610.5109,135.8969 Q610.4734,135.6094 610.3234,135.4594 Q610.0609,135.1594 609.5734,134.9844 Q609.0859,134.8094 608.5859,134.8094 Q607.9734,134.8094 607.4609,135.0719 Q606.9609,135.3344 606.5609,135.9344 Q606.1734,136.5344 606.1734,137.3594 L606.1734,138.2344 Q606.1734,139.2219 606.8859,139.8844 Q607.5984,140.5344 608.8734,140.5344 Q609.6234,140.5344 610.1484,140.3344 Q610.4609,140.2094 610.7984,139.8594 Q611.0109,139.6469 611.1234,139.5844 Q611.2484,139.5219 611.4109,139.5219 Q611.6734,139.5219 611.8734,139.7344 Q612.0859,139.9344 612.0859,140.2094 Q612.0859,140.4844 611.8109,140.8094 Q611.4109,141.2719 610.7734,141.5344 Q609.9109,141.8969 608.8734,141.8969 Q607.6609,141.8969 606.6984,141.3969 Q605.9109,140.9969 605.3609,140.1469 Q604.8109,139.2844 604.8109,138.2594 L604.8109,137.3344 Q604.8109,136.2719 605.2984,135.3594 Q605.7984,134.4344 606.6734,133.9469 Q607.5484,133.4469 608.5359,133.4469 Q609.1234,133.4469 609.6359,133.5844 Q610.1609,133.7094 610.5984,133.9969 Z " fill="#000000"/><text fill="#000000" font-family="sans-serif" font-size="11.2" lengthAdjust="spacing" textLength="103.9555" x="624.7859" y="141.9344">CreateMapController</text><line style="stroke:#181818;stroke-width:0.4000000000000001;" x1="537.6" x2="789.9273" y1="150.0969" y2="150.0969"/><line style="stroke:#181818;stroke-width:0.4000000000000001;" x1="537.6" x2="789.9273" y1="156.4969" y2="156.4969"/><text fill="#000000" font-family="sans-serif" font-size="11.2" lengthAdjust="spacing" textLength="45.1281" x="541.6" y="171.7828">+create()</text><text fill="#000000" font-family="sans-serif" font-size="11.2" lengthAdjust="spacing" textLength="244.3273" x="541.6" y="186.6797">+validateMapData(mapDTO: MapDTO) : boolean</text><text fill="#000000" font-family="sans-serif" font-size="11.2" lengthAdjust="spacing" textLength="218.7609" x="541.6" y="201.5766">+createMap(mapDTO: MapDTO) : MapDTO</text></g><!--class MapDTO--><g id="elem_MapDTO"><rect codeLine="16" fill="#F1F1F1" height="83.0906" id="MapDTO" rx="2" ry="2" style="stroke:#181818;stroke-width:0.4000000000000001;" width="93.95" x="572" y="256.4969"/><ellipse cx="594.3145" cy="269.2969" fill="#ADD1B2" rx="8.8" ry="8.8" style="stroke:#181818;stroke-width:0.8000000000000002;"/><path d="M596.527,265.9969 Q596.652,265.8219 596.802,265.7344 Q596.952,265.6469 597.127,265.6469 Q597.427,265.6469 597.6145,265.8594 Q597.802,266.0594 597.802,266.5469 L597.802,267.7094 Q597.802,268.1969 597.6145,268.4094 Q597.427,268.6219 597.127,268.6219 Q596.852,268.6219 596.6895,268.4594 Q596.527,268.3094 596.4395,267.8969 Q596.402,267.6094 596.252,267.4594 Q595.9895,267.1594 595.502,266.9844 Q595.0145,266.8094 594.5145,266.8094 Q593.902,266.8094 593.3895,267.0719 Q592.8895,267.3344 592.4895,267.9344 Q592.102,268.5344 592.102,269.3594 L592.102,270.2344 Q592.102,271.2219 592.8145,271.8844 Q593.527,272.5344 594.802,272.5344 Q595.552,272.5344 596.077,272.3344 Q596.3895,272.2094 596.727,271.8594 Q596.9395,271.6469 597.052,271.5844 Q597.177,271.5219 597.3395,271.5219 Q597.602,271.5219 597.802,271.7344 Q598.0145,271.9344 598.0145,272.2094 Q598.0145,272.4844 597.7395,272.8094 Q597.3395,273.2719 596.702,273.5344 Q595.8395,273.8969 594.802,273.8969 Q593.5895,273.8969 592.627,273.3969 Q591.8395,272.9969 591.2895,272.1469 Q590.7395,271.2844 590.7395,270.2594 L590.7395,269.3344 Q590.7395,268.2719 591.227,267.3594 Q591.727,266.4344 592.602,265.9469 Q593.477,265.4469 594.4645,265.4469 Q595.052,265.4469 595.5645,265.5844 Q596.0895,265.7094 596.527,265.9969 Z " fill="#000000"/><text fill="#000000" font-family="sans-serif" font-size="11.2" lengthAdjust="spacing" textLength="45.4289" x="607.8066" y="273.9344">MapDTO</text><line style="stroke:#181818;stroke-width:0.4000000000000001;" x1="572.8" x2="665.15" y1="282.0969" y2="282.0969"/><text fill="#000000" font-family="sans-serif" font-size="11.2" lengthAdjust="spacing" textLength="84.35" x="576.8" y="297.3828">+nameID : String</text><text fill="#000000" font-family="sans-serif" font-size="11.2" lengthAdjust="spacing" textLength="53.8508" x="576.8" y="312.2797">+width : int</text><text fill="#000000" font-family="sans-serif" font-size="11.2" lengthAdjust="spacing" textLength="58.2203" x="576.8" y="327.1766">+height : int</text><line style="stroke:#181818;stroke-width:0.4000000000000001;" x1="572.8" x2="665.15" y1="333.1875" y2="333.1875"/></g><!--class Map--><g id="elem_Map"><rect codeLine="24" fill="#F1F1F1" height="142.6781" id="Map" rx="2" ry="2" style="stroke:#181818;stroke-width:0.4000000000000001;" width="236.4875" x="542.8" y="534.0969"/><ellipse cx="646.75" cy="546.8969" fill="#ADD1B2" rx="8.8" ry="8.8" style="stroke:#181818;stroke-width:0.8000000000000002;"/><path d="M648.9625,543.5969 Q649.0875,543.4219 649.2375,543.3344 Q649.3875,543.2469 649.5625,543.2469 Q649.8625,543.2469 650.05,543.4594 Q650.2375,543.6594 650.2375,544.1469 L650.2375,545.3094 Q650.2375,545.7969 650.05,546.0094 Q649.8625,546.2219 649.5625,546.2219 Q649.2875,546.2219 649.125,546.0594 Q648.9625,545.9094 648.875,545.4969 Q648.8375,545.2094 648.6875,545.0594 Q648.425,544.7594 647.9375,544.5844 Q647.45,544.4094 646.95,544.4094 Q646.3375,544.4094 645.825,544.6719 Q645.325,544.9344 644.925,545.5344 Q644.5375,546.1344 644.5375,546.9594 L644.5375,547.8344 Q644.5375,548.8219 645.25,549.4844 Q645.9625,550.1344 647.2375,550.1344 Q647.9875,550.1344 648.5125,549.9344 Q648.825,549.8094 649.1625,549.4594 Q649.375,549.2469 649.4875,549.1844 Q649.6125,549.1219 649.775,549.1219 Q650.0375,549.1219 650.2375,549.3344 Q650.45,549.5344 650.45,549.8094 Q650.45,550.0844 650.175,550.4094 Q649.775,550.8719 649.1375,551.1344 Q648.275,551.4969 647.2375,551.4969 Q646.025,551.4969 645.0625,550.9969 Q644.275,550.5969 643.725,549.7469 Q643.175,548.8844 643.175,547.8594 L643.175,546.9344 Q643.175,545.8719 643.6625,544.9594 Q644.1625,544.0344 645.0375,543.5469 Q645.9125,543.0469 646.9,543.0469 Q647.4875,543.0469 648,543.1844 Q648.525,543.3094 648.9625,543.5969 Z " fill="#000000"/><text fill="#000000" font-family="sans-serif" font-size="11.2" lengthAdjust="spacing" textLength="21.7875" x="663.15" y="551.5344">Map</text><line style="stroke:#181818;stroke-width:0.4000000000000001;" x1="543.6" x2="778.4875" y1="559.6969" y2="559.6969"/><text fill="#000000" font-family="sans-serif" font-size="11.2" lengthAdjust="spacing" textLength="81.5391" x="547.6" y="574.9828">-nameID : String</text><text fill="#000000" font-family="sans-serif" font-size="11.2" lengthAdjust="spacing" textLength="54.7695" x="547.6" y="589.8797">-size : Size</text><text fill="#000000" font-family="sans-serif" font-size="11.2" lengthAdjust="spacing" textLength="97.0922" x="547.6" y="604.7766">-cityList : List&lt;City&gt;</text><text fill="#000000" font-family="sans-serif" font-size="11.2" lengthAdjust="spacing" textLength="140.0602" x="547.6" y="619.6734">-industryList : List&lt;Industry&gt;</text><line style="stroke:#181818;stroke-width:0.4000000000000001;" x1="543.6" x2="778.4875" y1="625.6844" y2="625.6844"/><text fill="#000000" font-family="sans-serif" font-size="11.2" lengthAdjust="spacing" text-decoration="underline" textLength="192.6805" x="547.6" y="640.9703">+validateMapName(nameID) : boolean</text><text fill="#000000" font-family="sans-serif" font-size="11.2" lengthAdjust="spacing" textLength="226.8875" x="547.6" y="655.8672">+createMap(nameID: String, size: Size) : Map</text><text fill="#000000" font-family="sans-serif" font-size="11.2" lengthAdjust="spacing" textLength="101.7461" x="547.6" y="670.7641">+toDTO() : MapDTO</text></g><!--class Size--><g id="elem_Size"><rect codeLine="35" fill="#F1F1F1" height="97.9875" id="Size" rx="2" ry="2" style="stroke:#181818;stroke-width:0.4000000000000001;" width="232.1781" x="626" y="739.6969"/><ellipse cx="727.7953" cy="752.4969" fill="#ADD1B2" rx="8.8" ry="8.8" style="stroke:#181818;stroke-width:0.8000000000000002;"/><path d="M730.0078,749.1969 Q730.1328,749.0219 730.2828,748.9344 Q730.4328,748.8469 730.6078,748.8469 Q730.9078,748.8469 731.0953,749.0594 Q731.2828,749.2594 731.2828,749.7469 L731.2828,750.9094 Q731.2828,751.3969 731.0953,751.6094 Q730.9078,751.8219 730.6078,751.8219 Q730.3328,751.8219 730.1703,751.6594 Q730.0078,751.5094 729.9203,751.0969 Q729.8828,750.8094 729.7328,750.6594 Q729.4703,750.3594 728.9828,750.1844 Q728.4953,750.0094 727.9953,750.0094 Q727.3828,750.0094 726.8703,750.2719 Q726.3703,750.5344 725.9703,751.1344 Q725.5828,751.7344 725.5828,752.5594 L725.5828,753.4344 Q725.5828,754.4219 726.2953,755.0844 Q727.0078,755.7344 728.2828,755.7344 Q729.0328,755.7344 729.5578,755.5344 Q729.8703,755.4094 730.2078,755.0594 Q730.4203,754.8469 730.5328,754.7844 Q730.6578,754.7219 730.8203,754.7219 Q731.0828,754.7219 731.2828,754.9344 Q731.4953,755.1344 731.4953,755.4094 Q731.4953,755.6844 731.2203,756.0094 Q730.8203,756.4719 730.1828,756.7344 Q729.3203,757.0969 728.2828,757.0969 Q727.0703,757.0969 726.1078,756.5969 Q725.3203,756.1969 724.7703,755.3469 Q724.2203,754.4844 724.2203,753.4594 L724.2203,752.5344 Q724.2203,751.4719 724.7078,750.5594 Q725.2078,749.6344 726.0828,749.1469 Q726.9578,748.6469 727.9453,748.6469 Q728.5328,748.6469 729.0453,748.7844 Q729.5703,748.9094 730.0078,749.1969 Z " fill="#000000"/><text fill="#000000" font-family="sans-serif" font-size="11.2" lengthAdjust="spacing" textLength="21.7875" x="744.1953" y="757.1344">Size</text><line style="stroke:#181818;stroke-width:0.4000000000000001;" x1="626.8" x2="857.3781" y1="765.2969" y2="765.2969"/><text fill="#000000" font-family="sans-serif" font-size="11.2" lengthAdjust="spacing" textLength="51.0398" x="630.8" y="780.5828">-width : int</text><text fill="#000000" font-family="sans-serif" font-size="11.2" lengthAdjust="spacing" textLength="55.4094" x="630.8" y="795.4797">-height : int</text><line style="stroke:#181818;stroke-width:0.4000000000000001;" x1="626.8" x2="857.3781" y1="801.4906" y2="801.4906"/><text fill="#000000" font-family="sans-serif" font-size="11.2" lengthAdjust="spacing" text-decoration="underline" textLength="222.5781" x="630.8" y="816.7766">+validateSize(width: int, height: int) : boolean</text><text fill="#000000" font-family="sans-serif" font-size="11.2" lengthAdjust="spacing" textLength="197.0281" x="630.8" y="831.6734">+createSize(width: int, height: int) : Size</text></g><!--class MapRepository--><g id="elem_MapRepository"><rect codeLine="45" fill="#F1F1F1" height="68.1938" id="MapRepository" rx="2" ry="2" style="stroke:#181818;stroke-width:0.4000000000000001;" width="191.0477" x="531.2" y="402.8969"/><ellipse cx="585.6633" cy="415.6969" fill="#ADD1B2" rx="8.8" ry="8.8" style="stroke:#181818;stroke-width:0.8000000000000002;"/><path d="M587.8758,412.3969 Q588.0008,412.2219 588.1508,412.1344 Q588.3008,412.0469 588.4758,412.0469 Q588.7758,412.0469 588.9633,412.2594 Q589.1508,412.4594 589.1508,412.9469 L589.1508,414.1094 Q589.1508,414.5969 588.9633,414.8094 Q588.7758,415.0219 588.4758,415.0219 Q588.2008,415.0219 588.0383,414.8594 Q587.8758,414.7094 587.7883,414.2969 Q587.7508,414.0094 587.6008,413.8594 Q587.3383,413.5594 586.8508,413.3844 Q586.3633,413.2094 585.8633,413.2094 Q585.2508,413.2094 584.7383,413.4719 Q584.2383,413.7344 583.8383,414.3344 Q583.4508,414.9344 583.4508,415.7594 L583.4508,416.6344 Q583.4508,417.6219 584.1633,418.2844 Q584.8758,418.9344 586.1508,418.9344 Q586.9008,418.9344 587.4258,418.7344 Q587.7383,418.6094 588.0758,418.2594 Q588.2883,418.0469 588.4008,417.9844 Q588.5258,417.9219 588.6883,417.9219 Q588.9508,417.9219 589.1508,418.1344 Q589.3633,418.3344 589.3633,418.6094 Q589.3633,418.8844 589.0883,419.2094 Q588.6883,419.6719 588.0508,419.9344 Q587.1883,420.2969 586.1508,420.2969 Q584.9383,420.2969 583.9758,419.7969 Q583.1883,419.3969 582.6383,418.5469 Q582.0883,417.6844 582.0883,416.6594 L582.0883,415.7344 Q582.0883,414.6719 582.5758,413.7594 Q583.0758,412.8344 583.9508,412.3469 Q584.8258,411.8469 585.8133,411.8469 Q586.4008,411.8469 586.9133,411.9844 Q587.4383,412.1094 587.8758,412.3969 Z " fill="#000000"/><text fill="#000000" font-family="sans-serif" font-size="11.2" lengthAdjust="spacing" textLength="75.3211" x="602.0633" y="420.3344">MapRepository</text><line style="stroke:#181818;stroke-width:0.4000000000000001;" x1="532" x2="721.4477" y1="428.4969" y2="428.4969"/><line style="stroke:#181818;stroke-width:0.4000000000000001;" x1="532" x2="721.4477" y1="434.8969" y2="434.8969"/><text fill="#000000" font-family="sans-serif" font-size="11.2" lengthAdjust="spacing" textLength="136.6531" x="536" y="450.1828">+save(map: Map) : boolean</text><text fill="#000000" font-family="sans-serif" font-size="11.2" lengthAdjust="spacing" textLength="181.4477" x="536" y="465.0797">+getMapByID(nameID: String) : Map</text></g><!--class Repositories--><g id="elem_Repositories"><rect codeLine="50" fill="#F1F1F1" height="68.1938" id="Repositories" rx="2" ry="2" style="stroke:#181818;stroke-width:0.4000000000000001;" width="199.1469" x="5.6" y="264.0969"/><ellipse cx="70.648" cy="276.8969" fill="#ADD1B2" rx="8.8" ry="8.8" style="stroke:#181818;stroke-width:0.8000000000000002;"/><path d="M72.8605,273.5969 Q72.9855,273.4219 73.1355,273.3344 Q73.2855,273.2469 73.4605,273.2469 Q73.7605,273.2469 73.948,273.4594 Q74.1355,273.6594 74.1355,274.1469 L74.1355,275.3094 Q74.1355,275.7969 73.948,276.0094 Q73.7605,276.2219 73.4605,276.2219 Q73.1855,276.2219 73.023,276.0594 Q72.8605,275.9094 72.773,275.4969 Q72.7355,275.2094 72.5855,275.0594 Q72.323,274.7594 71.8355,274.5844 Q71.348,274.4094 70.848,274.4094 Q70.2355,274.4094 69.723,274.6719 Q69.223,274.9344 68.823,275.5344 Q68.4355,276.1344 68.4355,276.9594 L68.4355,277.8344 Q68.4355,278.8219 69.148,279.4844 Q69.8605,280.1344 71.1355,280.1344 Q71.8855,280.1344 72.4105,279.9344 Q72.723,279.8094 73.0605,279.4594 Q73.273,279.2469 73.3855,279.1844 Q73.5105,279.1219 73.673,279.1219 Q73.9355,279.1219 74.1355,279.3344 Q74.348,279.5344 74.348,279.8094 Q74.348,280.0844 74.073,280.4094 Q73.673,280.8719 73.0355,281.1344 Q72.173,281.4969 71.1355,281.4969 Q69.923,281.4969 68.9605,280.9969 Q68.173,280.5969 67.623,279.7469 Q67.073,278.8844 67.073,277.8594 L67.073,276.9344 Q67.073,275.8719 67.5605,274.9594 Q68.0605,274.0344 68.9355,273.5469 Q69.8105,273.0469 70.798,273.0469 Q71.3855,273.0469 71.898,273.1844 Q72.423,273.3094 72.8605,273.5969 Z " fill="#000000"/><text fill="#000000" font-family="sans-serif" font-size="11.2" lengthAdjust="spacing" textLength="62.2508" x="87.048" y="281.5344">Repositories</text><line style="stroke:#181818;stroke-width:0.4000000000000001;" x1="6.4" x2="203.9469" y1="289.6969" y2="289.6969"/><line style="stroke:#181818;stroke-width:0.4000000000000001;" x1="6.4" x2="203.9469" y1="296.0969" y2="296.0969"/><text fill="#000000" font-family="sans-serif" font-size="11.2" lengthAdjust="spacing" text-decoration="underline" textLength="143.4945" x="10.4" y="311.3828">+getInstance() : Repositories</text><text fill="#000000" font-family="sans-serif" font-size="11.2" lengthAdjust="spacing" textLength="189.5469" x="10.4" y="326.2797">+getMapRepository() : MapRepository</text></g><!--class ApplicationSession--><g id="elem_ApplicationSession"><rect codeLine="55" fill="#F1F1F1" height="53.2969" id="ApplicationSession" rx="2" ry="2" style="stroke:#181818;stroke-width:0.4000000000000001;" width="185.4805" x="295.6" y="271.2969"/><ellipse cx="337.6219" cy="284.0969" fill="#ADD1B2" rx="8.8" ry="8.8" style="stroke:#181818;stroke-width:0.8000000000000002;"/><path d="M339.8344,280.7969 Q339.9594,280.6219 340.1094,280.5344 Q340.2594,280.4469 340.4344,280.4469 Q340.7344,280.4469 340.9219,280.6594 Q341.1094,280.8594 341.1094,281.3469 L341.1094,282.5094 Q341.1094,282.9969 340.9219,283.2094 Q340.7344,283.4219 340.4344,283.4219 Q340.1594,283.4219 339.9969,283.2594 Q339.8344,283.1094 339.7469,282.6969 Q339.7094,282.4094 339.5594,282.2594 Q339.2969,281.9594 338.8094,281.7844 Q338.3219,281.6094 337.8219,281.6094 Q337.2094,281.6094 336.6969,281.8719 Q336.1969,282.1344 335.7969,282.7344 Q335.4094,283.3344 335.4094,284.1594 L335.4094,285.0344 Q335.4094,286.0219 336.1219,286.6844 Q336.8344,287.3344 338.1094,287.3344 Q338.8594,287.3344 339.3844,287.1344 Q339.6969,287.0094 340.0344,286.6594 Q340.2469,286.4469 340.3594,286.3844 Q340.4844,286.3219 340.6469,286.3219 Q340.9094,286.3219 341.1094,286.5344 Q341.3219,286.7344 341.3219,287.0094 Q341.3219,287.2844 341.0469,287.6094 Q340.6469,288.0719 340.0094,288.3344 Q339.1469,288.6969 338.1094,288.6969 Q336.8969,288.6969 335.9344,288.1969 Q335.1469,287.7969 334.5969,286.9469 Q334.0469,286.0844 334.0469,285.0594 L334.0469,284.1344 Q334.0469,283.0719 334.5344,282.1594 Q335.0344,281.2344 335.9094,280.7469 Q336.7844,280.2469 337.7719,280.2469 Q338.3594,280.2469 338.8719,280.3844 Q339.3969,280.5094 339.8344,280.7969 Z " fill="#000000"/><text fill="#000000" font-family="sans-serif" font-size="11.2" lengthAdjust="spacing" textLength="94.6367" x="354.0219" y="288.7344">ApplicationSession</text><line style="stroke:#181818;stroke-width:0.4000000000000001;" x1="296.4" x2="480.2805" y1="296.8969" y2="296.8969"/><line style="stroke:#181818;stroke-width:0.4000000000000001;" x1="296.4" x2="480.2805" y1="303.2969" y2="303.2969"/><text fill="#000000" font-family="sans-serif" font-size="11.2" lengthAdjust="spacing" text-decoration="underline" textLength="175.8805" x="300.4" y="318.5828">+getInstance() : ApplicationSession</text></g><!--link CreateMapUI to CreateMapController--><g id="link_CreateMapUI_CreateMapController"><path codeLine="60" d="M663.6,75.8649 C663.6,89.1929 663.6,102.8729 663.6,119.5849 " fill="none" id="CreateMapUI-to-CreateMapController" style="stroke:#181818;stroke-width:0.8000000000000002;stroke-dasharray:7.0,7.0;"/><polygon fill="#181818" points="663.6,124.3849,666.8,117.1849,663.6,120.3849,660.4,117.1849,663.6,124.3849" style="stroke:#181818;stroke-width:0.8000000000000002;"/></g><!--link CreateMapController to MapDTO--><g id="link_CreateMapController_MapDTO"><path codeLine="61" d="M649.544,207.8009 C644.24,223.2569 639.7514,236.3092 634.4394,251.7732 " fill="none" id="CreateMapController-to-MapDTO" style="stroke:#181818;stroke-width:0.8000000000000002;stroke-dasharray:7.0,7.0;"/><polygon fill="#181818" points="632.88,256.3129,638.2455,250.543,634.1795,252.5298,632.1927,248.4638,632.88,256.3129" style="stroke:#181818;stroke-width:0.8000000000000002;"/></g><!--link CreateMapController to MapRepository--><g id="link_CreateMapController_MapRepository"><path codeLine="62" d="M675.16,208.0169 C683.288,243.4249 690.88,295.6249 679.6,339.6969 C673.848,362.1609 664.2213,380.9468 653.0053,398.7628 " fill="none" id="CreateMapController-to-MapRepository" style="stroke:#181818;stroke-width:0.8000000000000002;stroke-dasharray:7.0,7.0;"/><polygon fill="#181818" points="650.448,402.8249,656.9919,398.4366,652.5791,399.4398,651.5758,395.0269,650.448,402.8249" style="stroke:#181818;stroke-width:0.8000000000000002;"/></g><!--link CreateMapController to Repositories--><g id="link_CreateMapController_Repositories"><path codeLine="63" d="M536.544,196.5689 C435.968,220.0569 302.1542,251.3012 209.4982,272.9412 " fill="none" id="CreateMapController-to-Repositories" style="stroke:#181818;stroke-width:0.8000000000000002;stroke-dasharray:7.0,7.0;"/><polygon fill="#181818" points="204.824,274.0329,212.5631,275.5115,208.7192,273.1231,211.1075,269.2792,204.824,274.0329" style="stroke:#181818;stroke-width:0.8000000000000002;"/></g><!--link CreateMapController to ApplicationSession--><g id="link_CreateMapController_ApplicationSession"><path codeLine="64" d="M577.28,207.8009 C533.536,228.5289 486.0656,251.0174 447.7776,269.1614 " fill="none" id="CreateMapController-to-ApplicationSession" style="stroke:#181818;stroke-width:0.8000000000000002;stroke-dasharray:7.0,7.0;"/><polygon fill="#181818" points="443.44,271.2169,451.3168,271.0253,447.0547,269.5039,448.5761,265.2419,443.44,271.2169" style="stroke:#181818;stroke-width:0.8000000000000002;"/></g><!--link CreateMapController to Map--><g id="link_CreateMapController_Map"><path codeLine="65" d="M689.936,207.7449 C694.16,215.4809 698.144,223.6729 701.2,231.6969 C739.48,332.1049 763.648,366.9529 736.4,470.8969 C730.728,492.5209 723.0325,510.1564 712.0885,529.7084 " fill="none" id="CreateMapController-to-Map" style="stroke:#181818;stroke-width:0.8000000000000002;stroke-dasharray:7.0,7.0;"/><polygon fill="#181818" points="709.744,533.8969,716.053,529.1771,711.6977,530.4065,710.4684,526.0512,709.744,533.8969" style="stroke:#181818;stroke-width:0.8000000000000002;"/></g><!--link CreateMapController to Size--><g id="link_CreateMapController_Size"><path codeLine="66" d="M759.848,207.8169 C793.016,228.8009 822,258.2969 822,297.2969 C822,297.2969 822,297.2969 822,606.0969 C822,654.3289 800.5884,700.0334 778.9084,735.2494 " fill="none" id="CreateMapController-to-Size" style="stroke:#181818;stroke-width:0.8000000000000002;stroke-dasharray:7.0,7.0;"/><polygon fill="#181818" points="776.392,739.3369,782.8916,734.8832,778.489,735.9306,777.4416,731.528,776.392,739.3369" style="stroke:#181818;stroke-width:0.8000000000000002;"/></g><!--link Map to Size--><g id="link_Map_Size"><path codeLine="68" d="M692.552,676.5689 C701.912,697.6009 710.0094,715.7911 718.5774,735.0551 " fill="none" id="Map-to-Size" style="stroke:#181818;stroke-width:0.8000000000000002;"/><polygon fill="#181818" points="720.528,739.4409,720.5259,731.5618,718.9025,735.7861,714.6782,734.1627,720.528,739.4409" style="stroke:#181818;stroke-width:0.8000000000000002;"/><text fill="#000000" font-family="sans-serif" font-size="10.4" lengthAdjust="spacing" textLength="18.4945" x="710" y="712.5195">size</text><text fill="#000000" font-family="sans-serif" font-size="10.4" lengthAdjust="spacing" textLength="5.784" x="689.427" y="694.4989">1</text><text fill="#000000" font-family="sans-serif" font-size="10.4" lengthAdjust="spacing" textLength="5.784" x="712.1219" y="730.5962">1</text></g><!--link MapRepository to Map--><g id="link_MapRepository_Map"><path codeLine="69" d="M633.68,471.0489 C637.408,489.1129 641.1822,507.4439 645.6862,529.2759 " fill="none" id="MapRepository-to-Map" style="stroke:#181818;stroke-width:0.8000000000000002;"/><polygon fill="#181818" points="646.656,533.9769,648.3353,526.2788,645.8478,530.0594,642.0673,527.5719,646.656,533.9769" style="stroke:#181818;stroke-width:0.8000000000000002;"/><text fill="#000000" font-family="sans-serif" font-size="10.4" lengthAdjust="spacing" textLength="20.2313" x="642" y="506.9195">map</text><text fill="#000000" font-family="sans-serif" font-size="10.4" lengthAdjust="spacing" textLength="5.784" x="639.6403" y="525.1283">1</text></g><!--link Repositories to Repositories--><g id="link_Repositories_Repositories"><path codeLine="71" d="M204.976,286.6889 C221.456,288.3049 232.8,292.1049 232.8,298.0969 C232.8,304.0889 226.2331,307.4204 209.7531,309.0364 " fill="none" id="Repositories-to-Repositories" style="stroke:#181818;stroke-width:0.8000000000000002;"/><polygon fill="#181818" points="204.976,309.5049,212.4539,311.987,208.9569,309.1145,211.8293,305.6175,204.976,309.5049" style="stroke:#181818;stroke-width:0.8000000000000002;"/><text fill="#000000" font-family="sans-serif" font-size="10.4" lengthAdjust="spacing" textLength="38.7359" x="237.6" y="302.5195">instance</text><text fill="#000000" font-family="sans-serif" font-size="10.4" lengthAdjust="spacing" textLength="5.784" x="211.2339" y="307.4095">1</text></g><!--link Repositories to MapRepository--><g id="link_Repositories_MapRepository"><path codeLine="72" d="M204.848,325.1049 C298.728,349.8009 433.7898,385.3321 526.3898,409.6841 " fill="none" id="Repositories-to-MapRepository" style="stroke:#181818;stroke-width:0.8000000000000002;"/><polygon fill="#181818" points="531.032,410.9049,524.8826,405.9789,527.1635,409.8875,523.2549,412.1685,531.032,410.9049" style="stroke:#181818;stroke-width:0.8000000000000002;"/><text fill="#000000" font-family="sans-serif" font-size="10.4" lengthAdjust="spacing" textLength="69.941" x="398.8" y="375.7195">mapRepository</text><text fill="#000000" font-family="sans-serif" font-size="10.4" lengthAdjust="spacing" textLength="5.784" x="519.1283" y="406.428">1</text></g><!--link ApplicationSession to ApplicationSession--><g id="link_ApplicationSession_ApplicationSession"><path codeLine="74" d="M481.344,286.5449 C497.76,288.0649 509.2,291.9129 509.2,298.0969 C509.2,304.2809 502.5396,307.6863 486.1236,309.2063 " fill="none" id="ApplicationSession-to-ApplicationSession" style="stroke:#181818;stroke-width:0.8000000000000002;"/><polygon fill="#181818" points="481.344,309.6489,488.8084,312.1714,485.327,309.2801,488.2183,305.7987,481.344,309.6489" style="stroke:#181818;stroke-width:0.8000000000000002;"/><text fill="#000000" font-family="sans-serif" font-size="10.4" lengthAdjust="spacing" textLength="38.7359" x="514" y="302.5195">instance</text><text fill="#000000" font-family="sans-serif" font-size="10.4" lengthAdjust="spacing" textLength="5.784" x="487.4873" y="307.5931">1</text></g><!--SRC=[ZLHDRzim3BthLmWzkLXTjDTW2D0b5mDR2zJh3s0LpH6go8R5jaYB_FTH7t6asEwM2oFoyP5w8crVbEcWXntlGBn08slSQybxAH1CeoMp0y1kOTE-AzFmFw1j6X4QhBr3xDNpAyfAjAPM7vBVC8OAYMtbudoje27qWZ_LDxUyvAjU0aeE_1TqZ7cEw2F7KyK_sM7aNhK6-rPhsLEOq-yR5pvMNCRZ6sYr2U0r81GxihyV5gu8sKk-uCzjgoMOB9sY4yZmxzH6ECVA8Tt0JbPhmjPqUzD4qdUrmIqvbS7esKhLR36wY91v_q2RS9QJd25YdQpa9vDuXSBzJsKTkpFVLtHU9d5bDgyM-mnJHT-I9PVvj0Yen24LyPwQAK97v-AT2nXGnxQlVBUXsIXcaeKjALaa8Zlt8BGVdo19EHAppCLaCxqxZiBdUjnLpFA7kJ7uLuuNVlnwZx9hhSAstsUpOU5DkgdoTvmMhv58iH_xQdscNghO8Iqtr5BIPjK60OYpCdGmGdg1qunHwLFhnySuUSR5xxfEAq5bQCEbjMJ-huLntf6RfHj_VRsSMdKsjVuE6qVdYt1ocJbK9iySQE82NrITZVdvOMxVBsulU5aklQt3LhjrOVaq7H4kOy5txZkPlNyCPputh47wC-o9AwdWMHELsCGJnyI9I5BhBm00]--></g></svg>