<svg xmlns="http://www.w3.org/2000/svg" xmlns:xlink="http://www.w3.org/1999/xlink" contentStyleType="text/css" height="643px" preserveAspectRatio="none" style="width:710px;height:643px;background:#FFFFFF;" version="1.1" viewBox="0 0 710 643" width="710px" zoomAndPan="magnify"><title>Sequence Diagram: US01 - Create a Map</title><defs/><g><text fill="#000000" font-family="sans-serif" font-size="14" font-weight="bold" lengthAdjust="spacing" textLength="269.2061" x="219.6462" y="30.1074">Sequence Diagram: US01 - Create a Map</text><rect fill="#FFFFFF" height="409.1133" style="stroke:#181818;stroke-width:1.0;" width="10" x="21.2861" y="133.2422"/><rect fill="#FFFFFF" height="74.9121" style="stroke:#181818;stroke-width:1.0;" width="10" x="333.1558" y="156.5332"/><rect fill="#FFFFFF" height="74.9121" style="stroke:#181818;stroke-width:1.0;" width="10" x="333.1558" y="262.7363"/><rect fill="#FFFFFF" height="173.416" style="stroke:#181818;stroke-width:1.0;" width="10" x="333.1558" y="368.9395"/><rect fill="#FFFFFF" height="79.543" style="stroke:#181818;stroke-width:1.0;" width="10" x="496.1938" y="400.2305"/><line style="stroke:#181818;stroke-width:0.5;stroke-dasharray:5.0,5.0;" x1="26" x2="26" y1="123.2422" y2="560.3555"/><line style="stroke:#181818;stroke-width:0.5;stroke-dasharray:5.0,5.0;" x1="337.5835" x2="337.5835" y1="123.2422" y2="560.3555"/><line style="stroke:#181818;stroke-width:0.5;stroke-dasharray:5.0,5.0;" x1="500.2769" x2="500.2769" y1="196.3438" y2="560.3555"/><line style="stroke:#181818;stroke-width:0.5;stroke-dasharray:5.0,5.0;" x1="666.8228" x2="666.8228" y1="302.5469" y2="560.3555"/><text fill="#000000" font-family="sans-serif" font-size="14" lengthAdjust="spacing" textLength="36.5723" x="5" y="119.7285">Editor</text><ellipse cx="26.2861" cy="53.1211" fill="#E3E3E3" rx="8" ry="8" style="stroke:#181818;stroke-width:0.5;"/><path d="M26.2861,61.1211 L26.2861,88.1211 M13.2861,69.1211 L39.2861,69.1211 M26.2861,88.1211 L13.2861,103.1211 M26.2861,88.1211 L39.2861,103.1211 " fill="none" style="stroke:#181818;stroke-width:0.5;"/><text fill="#000000" font-family="sans-serif" font-size="14" lengthAdjust="spacing" textLength="36.5723" x="5" y="574.4629">Editor</text><ellipse cx="26.2861" cy="586.4766" fill="#E3E3E3" rx="8" ry="8" style="stroke:#181818;stroke-width:0.5;"/><path d="M26.2861,594.4766 L26.2861,621.4766 M13.2861,602.4766 L39.2861,602.4766 M26.2861,621.4766 L13.2861,636.4766 M26.2861,621.4766 L39.2861,636.4766 " fill="none" style="stroke:#181818;stroke-width:0.5;"/><rect fill="#E3E3E3" height="32.6211" rx="2.5" ry="2.5" style="stroke:#181818;stroke-width:0.5;" width="101.1445" x="287.5835" y="89.6211"/><text fill="#000000" font-family="sans-serif" font-size="14" lengthAdjust="spacing" textLength="87.1445" x="294.5835" y="111.7285">:CreateMapUI</text><rect fill="#E3E3E3" height="32.6211" rx="2.5" ry="2.5" style="stroke:#181818;stroke-width:0.5;" width="101.1445" x="287.5835" y="559.3555"/><text fill="#000000" font-family="sans-serif" font-size="14" lengthAdjust="spacing" textLength="87.1445" x="294.5835" y="581.4629">:CreateMapUI</text><rect fill="#E3E3E3" height="32.6211" rx="2.5" ry="2.5" style="stroke:#181818;stroke-width:0.5;" width="147.834" x="427.2769" y="559.3555"/><text fill="#000000" font-family="sans-serif" font-size="14" lengthAdjust="spacing" textLength="133.834" x="434.2769" y="581.4629">:CreateMapController</text><rect fill="#E3E3E3" height="32.6211" rx="2.5" ry="2.5" style="stroke:#181818;stroke-width:0.5;" width="74.6758" x="629.8228" y="559.3555"/><text fill="#000000" font-family="sans-serif" font-size="14" lengthAdjust="spacing" textLength="60.6758" x="636.8228" y="581.4629">:MapDTO</text><rect fill="#FFFFFF" height="409.1133" style="stroke:#181818;stroke-width:1.0;" width="10" x="21.2861" y="133.2422"/><rect fill="#FFFFFF" height="74.9121" style="stroke:#181818;stroke-width:1.0;" width="10" x="333.1558" y="156.5332"/><rect fill="#FFFFFF" height="74.9121" style="stroke:#181818;stroke-width:1.0;" width="10" x="333.1558" y="262.7363"/><rect fill="#FFFFFF" height="173.416" style="stroke:#181818;stroke-width:1.0;" width="10" x="333.1558" y="368.9395"/><rect fill="#FFFFFF" height="79.543" style="stroke:#181818;stroke-width:1.0;" width="10" x="496.1938" y="400.2305"/><polygon fill="#181818" points="321.1558,152.5332,331.1558,156.5332,321.1558,160.5332,325.1558,156.5332" style="stroke:#181818;stroke-width:1.0;"/><line style="stroke:#181818;stroke-width:1.0;" x1="31.2861" x2="327.1558" y1="156.5332" y2="156.5332"/><text fill="#000000" font-family="sans-serif" font-size="13" font-weight="bold" lengthAdjust="spacing" textLength="7.23" x="38.2861" y="151.2705">1</text><text fill="#000000" font-family="sans-serif" font-size="13" lengthAdjust="spacing" textLength="148.1289" x="49.5161" y="151.2705">asks to create a new map</text><polygon fill="#181818" points="415.2769,183.8242,425.2769,187.8242,415.2769,191.8242,419.2769,187.8242" style="stroke:#181818;stroke-width:1.0;"/><line style="stroke:#181818;stroke-width:1.0;" x1="343.1558" x2="421.2769" y1="187.8242" y2="187.8242"/><text fill="#000000" font-family="sans-serif" font-size="13" font-weight="bold" lengthAdjust="spacing" textLength="7.23" x="350.1558" y="182.5615">2</text><text fill="#000000" font-family="sans-serif" font-size="13" lengthAdjust="spacing" textLength="44.7891" x="361.3857" y="182.5615">create()</text><rect fill="#E3E3E3" height="32.6211" rx="2.5" ry="2.5" style="stroke:#181818;stroke-width:0.5;" width="147.834" x="427.2769" y="164.5332"/><text fill="#000000" font-family="sans-serif" font-size="14" lengthAdjust="spacing" textLength="133.834" x="434.2769" y="186.6406">:CreateMapController</text><polygon fill="#181818" points="42.2861,227.4453,32.2861,231.4453,42.2861,235.4453,38.2861,231.4453" style="stroke:#181818;stroke-width:1.0;"/><line style="stroke:#181818;stroke-width:1.0;stroke-dasharray:2.0,2.0;" x1="36.2861" x2="337.1558" y1="231.4453" y2="231.4453"/><text fill="#000000" font-family="sans-serif" font-size="13" font-weight="bold" lengthAdjust="spacing" textLength="7.23" x="48.2861" y="226.1826">3</text><text fill="#000000" font-family="sans-serif" font-size="13" lengthAdjust="spacing" textLength="266.6396" x="59.5161" y="226.1826">requests map data (name, width, height,scale)</text><polygon fill="#181818" points="321.1558,258.7363,331.1558,262.7363,321.1558,266.7363,325.1558,262.7363" style="stroke:#181818;stroke-width:1.0;"/><line style="stroke:#181818;stroke-width:1.0;" x1="31.2861" x2="327.1558" y1="262.7363" y2="262.7363"/><text fill="#000000" font-family="sans-serif" font-size="13" font-weight="bold" lengthAdjust="spacing" textLength="7.23" x="38.2861" y="257.4736">4</text><text fill="#000000" font-family="sans-serif" font-size="13" lengthAdjust="spacing" textLength="125.0361" x="49.5161" y="257.4736">inputs requested data</text><polygon fill="#181818" points="617.8228,290.0273,627.8228,294.0273,617.8228,298.0273,621.8228,294.0273" style="stroke:#181818;stroke-width:1.0;"/><line style="stroke:#181818;stroke-width:1.0;" x1="343.1558" x2="623.8228" y1="294.0273" y2="294.0273"/><text fill="#000000" font-family="sans-serif" font-size="13" font-weight="bold" lengthAdjust="spacing" textLength="7.23" x="350.1558" y="288.7646">5</text><text fill="#000000" font-family="sans-serif" font-size="13" lengthAdjust="spacing" textLength="251.437" x="361.3857" y="288.7646">create MapDTO(name, width, height, scale)</text><rect fill="#E3E3E3" height="32.6211" rx="2.5" ry="2.5" style="stroke:#181818;stroke-width:0.5;" width="74.6758" x="629.8228" y="270.7363"/><text fill="#000000" font-family="sans-serif" font-size="14" lengthAdjust="spacing" textLength="60.6758" x="636.8228" y="292.8438">:MapDTO</text><polygon fill="#181818" points="42.2861,333.6484,32.2861,337.6484,42.2861,341.6484,38.2861,337.6484" style="stroke:#181818;stroke-width:1.0;"/><line style="stroke:#181818;stroke-width:1.0;stroke-dasharray:2.0,2.0;" x1="36.2861" x2="337.1558" y1="337.6484" y2="337.6484"/><text fill="#000000" font-family="sans-serif" font-size="13" font-weight="bold" lengthAdjust="spacing" textLength="7.23" x="48.2861" y="332.3857">6</text><text fill="#000000" font-family="sans-serif" font-size="13" lengthAdjust="spacing" textLength="247.8569" x="59.5161" y="332.3857">shows map data and requests confirmation</text><polygon fill="#181818" points="321.1558,364.9395,331.1558,368.9395,321.1558,372.9395,325.1558,368.9395" style="stroke:#181818;stroke-width:1.0;"/><line style="stroke:#181818;stroke-width:1.0;" x1="31.2861" x2="327.1558" y1="368.9395" y2="368.9395"/><text fill="#000000" font-family="sans-serif" font-size="13" font-weight="bold" lengthAdjust="spacing" textLength="7.23" x="38.2861" y="363.6768">7</text><text fill="#000000" font-family="sans-serif" font-size="13" lengthAdjust="spacing" textLength="78.0317" x="49.5161" y="363.6768">confirms data</text><polygon fill="#181818" points="484.1938,396.2305,494.1938,400.2305,484.1938,404.2305,488.1938,400.2305" style="stroke:#181818;stroke-width:1.0;"/><line style="stroke:#181818;stroke-width:1.0;" x1="343.1558" x2="490.1938" y1="400.2305" y2="400.2305"/><text fill="#000000" font-family="sans-serif" font-size="13" font-weight="bold" lengthAdjust="spacing" textLength="7.23" x="350.1558" y="394.9678">8</text><text fill="#000000" font-family="sans-serif" font-size="13" lengthAdjust="spacing" textLength="122.8081" x="361.3857" y="394.9678">createMap(mapDTO)</text><rect fill="none" height="43.252" style="stroke:#000000;stroke-width:1.5;" width="153.834" x="424.2769" y="408.2305"/><path d="M424.2769,408.2305 L485.2769,408.2305 L485.2769,417.2305 L475.2769,427.2305 L424.2769,427.2305 L424.2769,408.2305 " fill="#EEEEEE" style="stroke:#000000;stroke-width:2.0;"/><text fill="#000000" font-family="sans-serif" font-size="13" font-weight="bold" lengthAdjust="spacing" textLength="16.6182" x="437.2769" y="424.2588">ref</text><text fill="#000000" font-family="sans-serif" font-size="12" lengthAdjust="spacing" textLength="114.7324" x="443.8276" y="444.1797">Create and save map</text><polygon fill="#181818" points="354.1558,475.7734,344.1558,479.7734,354.1558,483.7734,350.1558,479.7734" style="stroke:#181818;stroke-width:1.0;"/><line style="stroke:#181818;stroke-width:1.0;stroke-dasharray:2.0,2.0;" x1="348.1558" x2="500.1938" y1="479.7734" y2="479.7734"/><text fill="#000000" font-family="sans-serif" font-size="13" font-weight="bold" lengthAdjust="spacing" textLength="7.23" x="360.1558" y="474.5107">9</text><text fill="#000000" font-family="sans-serif" font-size="13" lengthAdjust="spacing" textLength="46.96" x="371.3857" y="474.5107">success</text><polygon fill="#181818" points="42.2861,507.0645,32.2861,511.0645,42.2861,515.0645,38.2861,511.0645" style="stroke:#181818;stroke-width:1.0;"/><line style="stroke:#181818;stroke-width:1.0;stroke-dasharray:2.0,2.0;" x1="36.2861" x2="332.1558" y1="511.0645" y2="511.0645"/><text fill="#000000" font-family="sans-serif" font-size="13" font-weight="bold" lengthAdjust="spacing" textLength="14.46" x="48.2861" y="505.8018">10</text><text fill="#000000" font-family="sans-serif" font-size="13" lengthAdjust="spacing" textLength="155.3589" x="66.7461" y="505.8018">displays operation success</text><polygon fill="#181818" points="37.2861,538.3555,27.2861,542.3555,37.2861,546.3555,33.2861,542.3555" style="stroke:#181818;stroke-width:1.0;"/><line style="stroke:#181818;stroke-width:1.0;stroke-dasharray:2.0,2.0;" x1="31.2861" x2="337.1558" y1="542.3555" y2="542.3555"/><text fill="#000000" font-family="sans-serif" font-size="13" font-weight="bold" lengthAdjust="spacing" textLength="14.46" x="43.2861" y="537.0928">11</text><text fill="#000000" font-family="sans-serif" font-size="13" lengthAdjust="spacing" textLength="117.0571" x="61.7461" y="537.0928">displays map details</text><!--SRC=[bLD1JiCm4Bpd5QkU2YeIN7FWKZWWWP0eVS1YRnEhYHsycrRydesJjYbj4VXYEvuPp-mwl7Q-mOWrrC47KyPG4qXiAUFzIODcZGKjvAiYY6G4VL6D0LoY3Lld2rXXnPHbs4hmRVr1CSl4YT8MzDcIDmGF3WlbvB1StDx13SmZeH0Wl62ZH2CXmkJHEfqdW0oKbfbU9Cwu1ht09Ez9obW-9T3owH9W7hp4K5NKgytVtvv_G1NqyFwQJdLE5jocipJSd86EVWqtzteLv8fTCqW0ipFlQGkr1e1Xx4NK6Oo6ibMZSt5zdG_qwTK9H37zZRdMMml7mfqyM1I4gSUQPh1rLiePbEIAKcPiiAA3aAMnWvC8EMZhMXKTrCacwJ_Qrp8Tt4DVlxEcu8UhC_6u3DjHDlJsaDW4ltAnHd71_ptPmEB_9EeQiWkaUQProdHi_6WJQGLXGx5_KEEJtNlM88mREdeLoQotbsNtBazaaxH-JCNhOd9h334VWKQrEH7uhGdMSLFX5qDeAAPodvM_n4hT8q5NyQKsZRR3R_KD]--></g></svg>