<svg xmlns="http://www.w3.org/2000/svg" xmlns:xlink="http://www.w3.org/1999/xlink" contentStyleType="text/css" height="527.8px" preserveAspectRatio="none" style="width:889px;height:527px;background:#FFFFFF;" version="1.1" viewBox="0 0 889 527" width="889.7px" zoomAndPan="magnify"><defs/><g><rect fill="#FFFFFF" height="412.9289" style="stroke:#181818;stroke-width:0.6999999999999998;" width="7" x="112.1876" y="63.3732"/><rect fill="#FFFFFF" height="21.9037" style="stroke:#181818;stroke-width:0.6999999999999998;" width="7" x="208.5973" y="296.1725"/><rect fill="#FFFFFF" height="21.9037" style="stroke:#181818;stroke-width:0.6999999999999998;" width="7" x="281.2281" y="339.9799"/><rect fill="#FFFFFF" height="21.9037" style="stroke:#181818;stroke-width:0.6999999999999998;" width="7" x="360.9385" y="383.7873"/><rect fill="#FFFFFF" height="21.9037" style="stroke:#181818;stroke-width:0.6999999999999998;" width="7" x="453.4564" y="103.6807"/><rect fill="#FFFFFF" height="21.9037" style="stroke:#181818;stroke-width:0.6999999999999998;" width="7" x="554.425" y="147.4881"/><rect fill="#FFFFFF" height="52.4385" style="stroke:#181818;stroke-width:0.6999999999999998;" width="7" x="628.1516" y="221.8303"/><rect fill="#FFFFFF" height="21.9037" style="stroke:#181818;stroke-width:0.6999999999999998;" width="7" x="824.9914" y="427.5947"/><rect fill="none" height="381.2252" style="stroke:#000000;stroke-width:1.0499999999999998;" width="828.8417" x="56.9458" y="73.8732"/><line style="stroke:#181818;stroke-width:0.3499999999999999;stroke-dasharray:5.0,5.0;" x1="115.0458" x2="115.0458" y1="40.0695" y2="488.9021"/><line style="stroke:#181818;stroke-width:0.3499999999999999;stroke-dasharray:5.0,5.0;" x1="211.4625" x2="211.4625" y1="40.0695" y2="488.9021"/><line style="stroke:#181818;stroke-width:0.3499999999999999;stroke-dasharray:5.0,5.0;" x1="284.132" x2="284.132" y1="40.0695" y2="488.9021"/><line style="stroke:#181818;stroke-width:0.3499999999999999;stroke-dasharray:5.0,5.0;" x1="364.4242" x2="364.4242" y1="40.0695" y2="488.9021"/><line style="stroke:#181818;stroke-width:0.3499999999999999;stroke-dasharray:5.0,5.0;" x1="456.8529" x2="456.8529" y1="40.0695" y2="488.9021"/><line style="stroke:#181818;stroke-width:0.3499999999999999;stroke-dasharray:5.0,5.0;" x1="557.86" x2="557.86" y1="40.0695" y2="488.9021"/><line style="stroke:#181818;stroke-width:0.3499999999999999;stroke-dasharray:5.0,5.0;" x1="631.4899" x2="631.4899" y1="40.0695" y2="488.9021"/><line style="stroke:#181818;stroke-width:0.3499999999999999;stroke-dasharray:5.0,5.0;" x1="828.0593" x2="828.0593" y1="249.6977" y2="488.9021"/><line style="stroke:#181818;stroke-width:0.3499999999999999;stroke-dasharray:5.0,5.0;" x1="863.9234" x2="863.9234" y1="197.2592" y2="488.9021"/><rect fill="#E3E3E3" height="22.8348" rx="1.75" ry="1.75" style="stroke:#181818;stroke-width:0.3499999999999999;" width="103.4838" x="63.9458" y="16.5348"/><text fill="#000000" font-family="sans-serif" font-size="9.8" lengthAdjust="spacing" textLength="93.6838" x="68.8458" y="32.01">:CreateMapController</text><rect fill="#E3E3E3" height="22.8348" rx="1.75" ry="1.75" style="stroke:#181818;stroke-width:0.3499999999999999;" width="103.4838" x="63.9458" y="488.2021"/><text fill="#000000" font-family="sans-serif" font-size="9.8" lengthAdjust="spacing" textLength="93.6838" x="68.8458" y="503.6773">:CreateMapController</text><rect fill="#E3E3E3" height="22.8348" rx="1.75" ry="1.75" style="stroke:#181818;stroke-width:0.3499999999999999;" width="64.2694" x="179.9625" y="16.5348"/><text fill="#000000" font-family="sans-serif" font-size="9.8" lengthAdjust="spacing" textLength="54.4694" x="184.8625" y="32.01">Repositories</text><rect fill="#E3E3E3" height="22.8348" rx="1.75" ry="1.75" style="stroke:#181818;stroke-width:0.3499999999999999;" width="64.2694" x="179.9625" y="488.2021"/><text fill="#000000" font-family="sans-serif" font-size="9.8" lengthAdjust="spacing" textLength="54.4694" x="184.8625" y="503.6773">Repositories</text><rect fill="#E3E3E3" height="35.8695" rx="1.75" ry="1.75" style="stroke:#181818;stroke-width:0.3499999999999999;" width="66.9922" x="251.232" y="3.5"/><text fill="#000000" font-family="sans-serif" font-size="9.8" lengthAdjust="spacing" textLength="50.6557" x="259.4002" y="18.9752">repositories</text><text fill="#000000" font-family="sans-serif" font-size="9.8" lengthAdjust="spacing" textLength="57.1922" x="256.132" y="32.01">:Repositories</text><rect fill="#E3E3E3" height="35.8695" rx="1.75" ry="1.75" style="stroke:#181818;stroke-width:0.3499999999999999;" width="66.9922" x="251.232" y="488.2021"/><text fill="#000000" font-family="sans-serif" font-size="9.8" lengthAdjust="spacing" textLength="50.6557" x="259.4002" y="503.6773">repositories</text><text fill="#000000" font-family="sans-serif" font-size="9.8" lengthAdjust="spacing" textLength="57.1922" x="256.132" y="516.7121">:Repositories</text><rect fill="#E3E3E3" height="35.8695" rx="1.75" ry="1.75" style="stroke:#181818;stroke-width:0.3499999999999999;" width="78.4287" x="325.2242" y="3.5"/><text fill="#000000" font-family="sans-serif" font-size="9.8" lengthAdjust="spacing" textLength="65.906" x="331.4855" y="18.9752">mapRepository</text><text fill="#000000" font-family="sans-serif" font-size="9.8" lengthAdjust="spacing" textLength="68.6287" x="330.1242" y="32.01">:MapRepository</text><rect fill="#E3E3E3" height="35.8695" rx="1.75" ry="1.75" style="stroke:#181818;stroke-width:0.3499999999999999;" width="78.4287" x="325.2242" y="488.2021"/><text fill="#000000" font-family="sans-serif" font-size="9.8" lengthAdjust="spacing" textLength="65.906" x="331.4855" y="503.6773">mapRepository</text><text fill="#000000" font-family="sans-serif" font-size="9.8" lengthAdjust="spacing" textLength="68.6287" x="330.1242" y="516.7121">:MapRepository</text><rect fill="#E3E3E3" height="22.8348" rx="1.75" ry="1.75" style="stroke:#181818;stroke-width:0.3499999999999999;" width="92.6071" x="410.6529" y="16.5348"/><text fill="#000000" font-family="sans-serif" font-size="9.8" lengthAdjust="spacing" textLength="82.8071" x="415.5529" y="32.01">ApplicationSession</text><rect fill="#E3E3E3" height="22.8348" rx="1.75" ry="1.75" style="stroke:#181818;stroke-width:0.3499999999999999;" width="92.6071" x="410.6529" y="488.2021"/><text fill="#000000" font-family="sans-serif" font-size="9.8" lengthAdjust="spacing" textLength="82.8071" x="415.5529" y="503.6773">ApplicationSession</text><rect fill="#E3E3E3" height="35.8695" rx="1.75" ry="1.75" style="stroke:#181818;stroke-width:0.3499999999999999;" width="95.3299" x="510.26" y="3.5"/><text fill="#000000" font-family="sans-serif" font-size="9.8" lengthAdjust="spacing" textLength="51.2155" x="532.3172" y="18.9752">appSession</text><text fill="#000000" font-family="sans-serif" font-size="9.8" lengthAdjust="spacing" textLength="85.5299" x="515.16" y="32.01">:ApplicationSession</text><rect fill="#E3E3E3" height="35.8695" rx="1.75" ry="1.75" style="stroke:#181818;stroke-width:0.3499999999999999;" width="95.3299" x="510.26" y="488.2021"/><text fill="#000000" font-family="sans-serif" font-size="9.8" lengthAdjust="spacing" textLength="51.2155" x="532.3172" y="503.6773">appSession</text><text fill="#000000" font-family="sans-serif" font-size="9.8" lengthAdjust="spacing" textLength="85.5299" x="515.16" y="516.7121">:ApplicationSession</text><rect fill="#E3E3E3" height="35.8695" rx="1.75" ry="1.75" style="stroke:#181818;stroke-width:0.3499999999999999;" width="38.1233" x="612.5899" y="3.5"/><text fill="#000000" font-family="sans-serif" font-size="9.8" lengthAdjust="spacing" textLength="24.5144" x="619.3944" y="18.9752">editor</text><text fill="#000000" font-family="sans-serif" font-size="9.8" lengthAdjust="spacing" textLength="28.3233" x="617.4899" y="32.01">:Editor</text><rect fill="#E3E3E3" height="35.8695" rx="1.75" ry="1.75" style="stroke:#181818;stroke-width:0.3499999999999999;" width="38.1233" x="612.5899" y="488.2021"/><text fill="#000000" font-family="sans-serif" font-size="9.8" lengthAdjust="spacing" textLength="24.5144" x="619.3944" y="503.6773">editor</text><text fill="#000000" font-family="sans-serif" font-size="9.8" lengthAdjust="spacing" textLength="28.3233" x="617.4899" y="516.7121">:Editor</text><rect fill="#E3E3E3" height="22.8348" rx="1.75" ry="1.75" style="stroke:#181818;stroke-width:0.3499999999999999;" width="28.8641" x="814.0593" y="488.2021"/><text fill="#000000" font-family="sans-serif" font-size="9.8" lengthAdjust="spacing" textLength="19.0641" x="818.9593" y="503.6773">Map</text><rect fill="#E3E3E3" height="22.8348" rx="1.75" ry="1.75" style="stroke:#181818;stroke-width:0.3499999999999999;" width="28.8641" x="849.9234" y="488.2021"/><text fill="#000000" font-family="sans-serif" font-size="9.8" lengthAdjust="spacing" textLength="19.0641" x="854.8234" y="503.6773">Size</text><rect fill="#FFFFFF" height="412.9289" style="stroke:#181818;stroke-width:0.6999999999999998;" width="7" x="112.1876" y="63.3732"/><rect fill="#FFFFFF" height="21.9037" style="stroke:#181818;stroke-width:0.6999999999999998;" width="7" x="208.5973" y="296.1725"/><rect fill="#FFFFFF" height="21.9037" style="stroke:#181818;stroke-width:0.6999999999999998;" width="7" x="281.2281" y="339.9799"/><rect fill="#FFFFFF" height="21.9037" style="stroke:#181818;stroke-width:0.6999999999999998;" width="7" x="360.9385" y="383.7873"/><rect fill="#FFFFFF" height="21.9037" style="stroke:#181818;stroke-width:0.6999999999999998;" width="7" x="453.4564" y="103.6807"/><rect fill="#FFFFFF" height="21.9037" style="stroke:#181818;stroke-width:0.6999999999999998;" width="7" x="554.425" y="147.4881"/><rect fill="#FFFFFF" height="52.4385" style="stroke:#181818;stroke-width:0.6999999999999998;" width="7" x="628.1516" y="221.8303"/><rect fill="#FFFFFF" height="21.9037" style="stroke:#181818;stroke-width:0.6999999999999998;" width="7" x="824.9914" y="427.5947"/><polygon fill="#181818" points="103.7876,60.5732,110.7876,63.3732,103.7876,66.1732,106.5876,63.3732" style="stroke:#181818;stroke-width:0.6999999999999998;"/><line style="stroke:#181818;stroke-width:0.6999999999999998;" x1="0" x2="107.9876" y1="63.3732" y2="63.3732"/><text fill="#000000" font-family="sans-serif" font-size="9.1" font-weight="bold" lengthAdjust="spacing" textLength="10.122" x="4.9" y="59.6894">11</text><text fill="#000000" font-family="sans-serif" font-size="9.1" lengthAdjust="spacing" textLength="85.9657" x="17.822" y="59.6894">createMap(mapDTO)</text><path d="M56.9458,73.8732 L179.4902,73.8732 L179.4902,80.377 L172.4902,87.377 L56.9458,87.377 L56.9458,73.8732 " fill="#EEEEEE" style="stroke:#000000;stroke-width:1.0499999999999998;"/><rect fill="none" height="381.2252" style="stroke:#000000;stroke-width:1.0499999999999998;" width="828.8417" x="56.9458" y="73.8732"/><text fill="#000000" font-family="sans-serif" font-size="9.1" font-weight="bold" lengthAdjust="spacing" textLength="91.0444" x="67.4458" y="84.3931">Create and save map</text><polygon fill="#181818" points="445.0564,100.8807,452.0564,103.6807,445.0564,106.4807,447.8564,103.6807" style="stroke:#181818;stroke-width:0.6999999999999998;"/><line style="stroke:#181818;stroke-width:0.6999999999999998;" x1="119.1876" x2="449.2564" y1="103.6807" y2="103.6807"/><text fill="#000000" font-family="sans-serif" font-size="9.1" font-weight="bold" lengthAdjust="spacing" textLength="17.7112" x="124.0876" y="99.9968">11.1</text><text fill="#000000" font-family="sans-serif" font-size="9.1" lengthAdjust="spacing" textLength="53.1115" x="144.5989" y="99.9968">getInstance()</text><polygon fill="#181818" points="126.8876,122.7844,119.8876,125.5844,126.8876,128.3844,124.0876,125.5844" style="stroke:#181818;stroke-width:0.6999999999999998;"/><line style="stroke:#181818;stroke-width:0.6999999999999998;stroke-dasharray:2.0,2.0;" x1="122.6876" x2="456.2564" y1="125.5844" y2="125.5844"/><text fill="#000000" font-family="sans-serif" font-size="9.1" font-weight="bold" lengthAdjust="spacing" textLength="17.7112" x="131.0876" y="121.9005">11.2</text><text fill="#000000" font-family="sans-serif" font-size="9.1" lengthAdjust="spacing" textLength="47.5573" x="151.5989" y="121.9005">appSession</text><polygon fill="#181818" points="546.025,144.6881,553.025,147.4881,546.025,150.2881,548.825,147.4881" style="stroke:#181818;stroke-width:0.6999999999999998;"/><line style="stroke:#181818;stroke-width:0.6999999999999998;" x1="119.1876" x2="550.225" y1="147.4881" y2="147.4881"/><text fill="#000000" font-family="sans-serif" font-size="9.1" font-weight="bold" lengthAdjust="spacing" textLength="17.7112" x="124.0876" y="143.8042">11.3</text><text fill="#000000" font-family="sans-serif" font-size="9.1" lengthAdjust="spacing" textLength="81.429" x="144.5989" y="143.8042">getCurrentSession()</text><polygon fill="#181818" points="126.8876,166.5918,119.8876,169.3918,126.8876,172.1918,124.0876,169.3918" style="stroke:#181818;stroke-width:0.6999999999999998;"/><line style="stroke:#181818;stroke-width:0.6999999999999998;stroke-dasharray:2.0,2.0;" x1="122.6876" x2="557.225" y1="169.3918" y2="169.3918"/><text fill="#000000" font-family="sans-serif" font-size="9.1" font-weight="bold" lengthAdjust="spacing" textLength="17.7112" x="131.0876" y="165.7079">11.4</text><text fill="#000000" font-family="sans-serif" font-size="9.1" lengthAdjust="spacing" textLength="22.7633" x="151.5989" y="165.7079">editor</text><polygon fill="#181818" points="841.5234,188.4955,848.5234,191.2955,841.5234,194.0955,844.3234,191.2955" style="stroke:#181818;stroke-width:0.6999999999999998;"/><line style="stroke:#181818;stroke-width:0.6999999999999998;" x1="119.1876" x2="845.7234" y1="191.2955" y2="191.2955"/><text fill="#000000" font-family="sans-serif" font-size="9.1" font-weight="bold" lengthAdjust="spacing" textLength="17.7112" x="124.0876" y="187.6116">11.5</text><text fill="#000000" font-family="sans-serif" font-size="9.1" lengthAdjust="spacing" textLength="179.0274" x="144.5989" y="187.6116">createSize(mapDTO.width, mapDTO.height)</text><rect fill="#E3E3E3" height="22.8348" rx="1.75" ry="1.75" style="stroke:#181818;stroke-width:0.3499999999999999;" width="28.8641" x="849.9234" y="174.9918"/><text fill="#000000" font-family="sans-serif" font-size="9.8" lengthAdjust="spacing" textLength="19.0641" x="854.8234" y="190.467">Size</text><polygon fill="#181818" points="619.7516,219.0303,626.7516,221.8303,619.7516,224.6303,622.5516,221.8303" style="stroke:#181818;stroke-width:0.6999999999999998;"/><line style="stroke:#181818;stroke-width:0.6999999999999998;" x1="119.1876" x2="623.9516" y1="221.8303" y2="221.8303"/><text fill="#000000" font-family="sans-serif" font-size="9.1" font-weight="bold" lengthAdjust="spacing" textLength="17.7112" x="124.0876" y="218.1464">11.6</text><text fill="#000000" font-family="sans-serif" font-size="9.1" lengthAdjust="spacing" textLength="141.5965" x="144.5989" y="218.1464">createMap(mapDTO.nameID, size)</text><polygon fill="#181818" points="805.6593,240.934,812.6593,243.734,805.6593,246.534,808.4593,243.734" style="stroke:#181818;stroke-width:0.6999999999999998;"/><line style="stroke:#181818;stroke-width:0.6999999999999998;" x1="635.1516" x2="809.8593" y1="243.734" y2="243.734"/><text fill="#000000" font-family="sans-serif" font-size="9.1" font-weight="bold" lengthAdjust="spacing" textLength="17.7112" x="640.0516" y="240.0501">11.7</text><text fill="#000000" font-family="sans-serif" font-size="9.1" lengthAdjust="spacing" textLength="141.5965" x="660.5628" y="240.0501">createMap(mapDTO.nameID, size)</text><rect fill="#E3E3E3" height="22.8348" rx="1.75" ry="1.75" style="stroke:#181818;stroke-width:0.3499999999999999;" width="28.8641" x="814.0593" y="227.4303"/><text fill="#000000" font-family="sans-serif" font-size="9.8" lengthAdjust="spacing" textLength="19.0641" x="818.9593" y="242.9055">Map</text><polygon fill="#181818" points="126.8876,271.4687,119.8876,274.2687,126.8876,277.0687,124.0876,274.2687" style="stroke:#181818;stroke-width:0.6999999999999998;"/><line style="stroke:#181818;stroke-width:0.6999999999999998;stroke-dasharray:2.0,2.0;" x1="122.6876" x2="630.9516" y1="274.2687" y2="274.2687"/><text fill="#000000" font-family="sans-serif" font-size="9.1" font-weight="bold" lengthAdjust="spacing" textLength="17.7112" x="131.0876" y="270.5849">11.8</text><text fill="#000000" font-family="sans-serif" font-size="9.1" lengthAdjust="spacing" textLength="17.7023" x="151.5989" y="270.5849">map</text><polygon fill="#181818" points="200.1973,293.3725,207.1973,296.1725,200.1973,298.9725,202.9973,296.1725" style="stroke:#181818;stroke-width:0.6999999999999998;"/><line style="stroke:#181818;stroke-width:0.6999999999999998;" x1="119.1876" x2="204.3973" y1="296.1725" y2="296.1725"/><text fill="#000000" font-family="sans-serif" font-size="9.1" font-weight="bold" lengthAdjust="spacing" textLength="17.7112" x="124.0876" y="292.4886">11.9</text><text fill="#000000" font-family="sans-serif" font-size="9.1" lengthAdjust="spacing" textLength="53.1115" x="144.5989" y="292.4886">getInstance()</text><polygon fill="#181818" points="126.8876,315.2762,119.8876,318.0762,126.8876,320.8762,124.0876,318.0762" style="stroke:#181818;stroke-width:0.6999999999999998;"/><line style="stroke:#181818;stroke-width:0.6999999999999998;stroke-dasharray:2.0,2.0;" x1="122.6876" x2="211.3973" y1="318.0762" y2="318.0762"/><text fill="#000000" font-family="sans-serif" font-size="9.1" font-weight="bold" lengthAdjust="spacing" textLength="22.7722" x="131.0876" y="314.3923">11.10</text><text fill="#000000" font-family="sans-serif" font-size="9.1" lengthAdjust="spacing" textLength="47.0374" x="156.6599" y="314.3923">repositories</text><polygon fill="#181818" points="272.8281,337.1799,279.8281,339.9799,272.8281,342.7799,275.6281,339.9799" style="stroke:#181818;stroke-width:0.6999999999999998;"/><line style="stroke:#181818;stroke-width:0.6999999999999998;" x1="119.1876" x2="277.0281" y1="339.9799" y2="339.9799"/><text fill="#000000" font-family="sans-serif" font-size="9.1" font-weight="bold" lengthAdjust="spacing" textLength="22.7722" x="124.0876" y="336.296">11.11</text><text fill="#000000" font-family="sans-serif" font-size="9.1" lengthAdjust="spacing" textLength="79.9094" x="149.6599" y="336.296">getMapRepository()</text><polygon fill="#181818" points="126.8876,359.0836,119.8876,361.8836,126.8876,364.6836,124.0876,361.8836" style="stroke:#181818;stroke-width:0.6999999999999998;"/><line style="stroke:#181818;stroke-width:0.6999999999999998;stroke-dasharray:2.0,2.0;" x1="122.6876" x2="284.0281" y1="361.8836" y2="361.8836"/><text fill="#000000" font-family="sans-serif" font-size="9.1" font-weight="bold" lengthAdjust="spacing" textLength="22.7722" x="131.0876" y="358.1997">11.12</text><text fill="#000000" font-family="sans-serif" font-size="9.1" lengthAdjust="spacing" textLength="61.1984" x="156.6599" y="358.1997">mapRepository</text><polygon fill="#181818" points="352.5385,380.9873,359.5385,383.7873,352.5385,386.5873,355.3385,383.7873" style="stroke:#181818;stroke-width:0.6999999999999998;"/><line style="stroke:#181818;stroke-width:0.6999999999999998;" x1="119.1876" x2="356.7385" y1="383.7873" y2="383.7873"/><text fill="#000000" font-family="sans-serif" font-size="9.1" font-weight="bold" lengthAdjust="spacing" textLength="22.7722" x="124.0876" y="380.1034">11.13</text><text fill="#000000" font-family="sans-serif" font-size="9.1" lengthAdjust="spacing" textLength="42.9851" x="149.6599" y="380.1034">save(map)</text><polygon fill="#181818" points="126.8876,402.891,119.8876,405.691,126.8876,408.491,124.0876,405.691" style="stroke:#181818;stroke-width:0.6999999999999998;"/><line style="stroke:#181818;stroke-width:0.6999999999999998;stroke-dasharray:2.0,2.0;" x1="122.6876" x2="363.7385" y1="405.691" y2="405.691"/><text fill="#000000" font-family="sans-serif" font-size="9.1" font-weight="bold" lengthAdjust="spacing" textLength="22.7722" x="131.0876" y="402.0071">11.14</text><text fill="#000000" font-family="sans-serif" font-size="9.1" lengthAdjust="spacing" textLength="32.872" x="156.6599" y="402.0071">success</text><polygon fill="#181818" points="816.5914,424.7947,823.5914,427.5947,816.5914,430.3947,819.3914,427.5947" style="stroke:#181818;stroke-width:0.6999999999999998;"/><line style="stroke:#181818;stroke-width:0.6999999999999998;" x1="119.1876" x2="820.7914" y1="427.5947" y2="427.5947"/><text fill="#000000" font-family="sans-serif" font-size="9.1" font-weight="bold" lengthAdjust="spacing" textLength="22.7722" x="124.0876" y="423.9108">11.15</text><text fill="#000000" font-family="sans-serif" font-size="9.1" lengthAdjust="spacing" textLength="32.8586" x="149.6599" y="423.9108">toDTO()</text><polygon fill="#181818" points="126.8876,446.6984,119.8876,449.4984,126.8876,452.2984,124.0876,449.4984" style="stroke:#181818;stroke-width:0.6999999999999998;"/><line style="stroke:#181818;stroke-width:0.6999999999999998;stroke-dasharray:2.0,2.0;" x1="122.6876" x2="827.7914" y1="449.4984" y2="449.4984"/><text fill="#000000" font-family="sans-serif" font-size="9.1" font-weight="bold" lengthAdjust="spacing" textLength="22.7722" x="131.0876" y="445.8146">11.16</text><text fill="#000000" font-family="sans-serif" font-size="9.1" lengthAdjust="spacing" textLength="36.911" x="156.6599" y="445.8146">mapDTO</text><polygon fill="#181818" points="7.7,473.5021,0.7,476.3021,7.7,479.1021,4.9,476.3021" style="stroke:#181818;stroke-width:0.6999999999999998;"/><line style="stroke:#181818;stroke-width:0.6999999999999998;stroke-dasharray:2.0,2.0;" x1="3.5" x2="114.9876" y1="476.3021" y2="476.3021"/><text fill="#000000" font-family="sans-serif" font-size="9.1" font-weight="bold" lengthAdjust="spacing" textLength="10.122" x="11.9" y="472.6183">12</text><text fill="#000000" font-family="sans-serif" font-size="9.1" lengthAdjust="spacing" textLength="80.1538" x="24.822" y="472.6183">success + mapDTO</text><!--SRC=[ZLJ1Rjim3BtxAuYUcgu9a1s3OK2G68E1fWdYd8O1XMPpZb1R4YIvHVVra-N4eMAxcIw9AVBnaO-YUUL2CSqggAIGsL7B2i7g6YFJtIYMlR82K_jH8cZCB1D5IHtCaUNodOi2_h3IO1InsafHLxzHHv5piJpZYWaBTukLHcPnmzHA2gjbMQA-0sPWTTW_XQvxLD9mApL7urtsyMwRXZwQ-FmIY-6GbpHv_l4K7xRFON35L1VmuQ8tz9k4RvQxC72fLCapPhaKAHhZVhptShTxIUCqJQuJCQLEVYxBxU0nlfWtp1n4xF_ui7YT7BRxqC_LuUzwl5F-5_rDcloCgKWmdqVJxrw31MHdXUvTWzQ7xIG2TrXc-Pkpjq9v2msVpRsjqB9Mq6eCJEHWs1k2m_6tpMd2mUKYzIwWG9i8uyOgm_j9vzgbf8q5SeWTfXt_IxSxvnm_nVgCt4KCJtDLQut2dXBS84k47A5zyI05j3hV83-0tIkZaVdXuQnee_v9qjaxp-tn4KvVH-J5qKx6WTefwu_6JB0Aa_KZ68Szq8lJTDBYMrC3wiRpGkucPi2B0dLjerD6UdR5eLURV-CtHx3TFJI_jv3qT1KDyGWHXcbS3Lkma4PPZKpPrLtOg0liADN_6R1kFoxyGsyK76NPRAC-FsSbp4oTPUvbZNDgG7eiV7uhtUmCzUWwRvYndRcXXESu57bltNtrbc_JQSWRlfpn28xVb_y0]--></g></svg>