<svg xmlns="http://www.w3.org/2000/svg" xmlns:xlink="http://www.w3.org/1999/xlink" contentStyleType="text/css" height="553px" preserveAspectRatio="none" style="width:1192px;height:553px;background:#FFFFFF;" version="1.1" viewBox="0 0 1192 553" width="1192px" zoomAndPan="magnify"><defs/><g><rect fill="#FFFFFF" height="389.2012" style="stroke:#181818;stroke-width:1.0;" width="10" x="213.0171" y="90.5332"/><rect fill="#FFFFFF" height="31.291" style="stroke:#181818;stroke-width:1.0;" width="10" x="378.9033" y="148.1152"/><rect fill="#FFFFFF" height="93.873" style="stroke:#181818;stroke-width:1.0;" width="10" x="526.6201" y="210.6973"/><rect fill="#FFFFFF" height="31.291" style="stroke:#181818;stroke-width:1.0;" width="10" x="780.7153" y="241.9883"/><rect fill="#FFFFFF" height="105.582" style="stroke:#181818;stroke-width:1.0;" width="10" x="907.4321" y="335.8613"/><rect fill="#FFFFFF" height="28" style="stroke:#181818;stroke-width:1.0;" width="10" x="912.4321" y="375.1523"/><rect fill="none" height="343.9102" style="stroke:#000000;stroke-width:1.5;" width="1066.1064" x="120.8691" y="105.5332"/><line style="stroke:#181818;stroke-width:0.5;stroke-dasharray:5.0,5.0;" x1="217.8691" x2="217.8691" y1="57.2422" y2="497.7344"/><line style="stroke:#181818;stroke-width:0.5;stroke-dasharray:5.0,5.0;" x1="383.3862" x2="383.3862" y1="57.2422" y2="497.7344"/><line style="stroke:#181818;stroke-width:0.5;stroke-dasharray:5.0,5.0;" x1="531.4204" x2="531.4204" y1="57.2422" y2="497.7344"/><line style="stroke:#181818;stroke-width:0.5;stroke-dasharray:5.0,5.0;" x1="785.4741" x2="785.4741" y1="57.2422" y2="497.7344"/><line style="stroke:#181818;stroke-width:0.5;stroke-dasharray:5.0,5.0;" x1="911.9565" x2="911.9565" y1="57.2422" y2="497.7344"/><rect fill="#E3E3E3" height="32.6211" rx="2.5" ry="2.5" style="stroke:#181818;stroke-width:0.5;" width="174.2959" x="130.8691" y="23.6211"/><text fill="#000000" font-family="sans-serif" font-size="14" lengthAdjust="spacing" textLength="160.2959" x="137.8691" y="45.7285">:BuyLocomotiveController</text><rect fill="#E3E3E3" height="32.6211" rx="2.5" ry="2.5" style="stroke:#181818;stroke-width:0.5;" width="174.2959" x="130.8691" y="496.7344"/><text fill="#000000" font-family="sans-serif" font-size="14" lengthAdjust="spacing" textLength="160.2959" x="137.8691" y="518.8418">:BuyLocomotiveController</text><rect fill="#E3E3E3" height="51.2422" rx="2.5" ry="2.5" style="stroke:#181818;stroke-width:0.5;" width="119.0342" x="324.3862" y="5"/><text fill="#000000" font-family="sans-serif" font-size="14" lengthAdjust="spacing" textLength="96.4688" x="335.6689" y="27.1074">locomotiveDTO</text><text fill="#000000" font-family="sans-serif" font-size="14" lengthAdjust="spacing" textLength="105.0342" x="331.3862" y="45.7285">:LocomotiveDTO</text><rect fill="#E3E3E3" height="51.2422" rx="2.5" ry="2.5" style="stroke:#181818;stroke-width:0.5;" width="119.0342" x="324.3862" y="496.7344"/><text fill="#000000" font-family="sans-serif" font-size="14" lengthAdjust="spacing" textLength="96.4688" x="335.6689" y="518.8418">locomotiveDTO</text><text fill="#000000" font-family="sans-serif" font-size="14" lengthAdjust="spacing" textLength="105.0342" x="331.3862" y="537.4629">:LocomotiveDTO</text><rect fill="#E3E3E3" height="51.2422" rx="2.5" ry="2.5" style="stroke:#181818;stroke-width:0.5;" width="156.3994" x="453.4204" y="5"/><text fill="#000000" font-family="sans-serif" font-size="14" lengthAdjust="spacing" textLength="133.834" x="464.7031" y="27.1074">locomotiveRepository</text><text fill="#000000" font-family="sans-serif" font-size="14" lengthAdjust="spacing" textLength="142.3994" x="460.4204" y="45.7285">:LocomotiveRepository</text><rect fill="#E3E3E3" height="51.2422" rx="2.5" ry="2.5" style="stroke:#181818;stroke-width:0.5;" width="156.3994" x="453.4204" y="496.7344"/><text fill="#000000" font-family="sans-serif" font-size="14" lengthAdjust="spacing" textLength="133.834" x="464.7031" y="518.8418">locomotiveRepository</text><text fill="#000000" font-family="sans-serif" font-size="14" lengthAdjust="spacing" textLength="142.3994" x="460.4204" y="537.4629">:LocomotiveRepository</text><rect fill="#E3E3E3" height="51.2422" rx="2.5" ry="2.5" style="stroke:#181818;stroke-width:0.5;" width="96.4824" x="737.4741" y="5"/><text fill="#000000" font-family="sans-serif" font-size="14" lengthAdjust="spacing" textLength="73.917" x="748.7568" y="27.1074">locomotives</text><text fill="#000000" font-family="sans-serif" font-size="14" lengthAdjust="spacing" textLength="82.4824" x="744.4741" y="45.7285">:Locomotives</text><rect fill="#E3E3E3" height="51.2422" rx="2.5" ry="2.5" style="stroke:#181818;stroke-width:0.5;" width="96.4824" x="737.4741" y="496.7344"/><text fill="#000000" font-family="sans-serif" font-size="14" lengthAdjust="spacing" textLength="73.917" x="748.7568" y="518.8418">locomotives</text><text fill="#000000" font-family="sans-serif" font-size="14" lengthAdjust="spacing" textLength="82.4824" x="744.4741" y="537.4629">:Locomotives</text><rect fill="#E3E3E3" height="32.6211" rx="2.5" ry="2.5" style="stroke:#181818;stroke-width:0.5;" width="136.9512" x="843.9565" y="23.6211"/><text fill="#000000" font-family="sans-serif" font-size="14" lengthAdjust="spacing" textLength="122.9512" x="850.9565" y="45.7285">:LocomotiveMapper</text><rect fill="#E3E3E3" height="32.6211" rx="2.5" ry="2.5" style="stroke:#181818;stroke-width:0.5;" width="136.9512" x="843.9565" y="496.7344"/><text fill="#000000" font-family="sans-serif" font-size="14" lengthAdjust="spacing" textLength="122.9512" x="850.9565" y="518.8418">:LocomotiveMapper</text><rect fill="#FFFFFF" height="389.2012" style="stroke:#181818;stroke-width:1.0;" width="10" x="213.0171" y="90.5332"/><rect fill="#FFFFFF" height="31.291" style="stroke:#181818;stroke-width:1.0;" width="10" x="378.9033" y="148.1152"/><rect fill="#FFFFFF" height="93.873" style="stroke:#181818;stroke-width:1.0;" width="10" x="526.6201" y="210.6973"/><rect fill="#FFFFFF" height="31.291" style="stroke:#181818;stroke-width:1.0;" width="10" x="780.7153" y="241.9883"/><rect fill="#FFFFFF" height="105.582" style="stroke:#181818;stroke-width:1.0;" width="10" x="907.4321" y="335.8613"/><rect fill="#FFFFFF" height="28" style="stroke:#181818;stroke-width:1.0;" width="10" x="912.4321" y="375.1523"/><polygon fill="#181818" points="201.0171,86.5332,211.0171,90.5332,201.0171,94.5332,205.0171,90.5332" style="stroke:#181818;stroke-width:1.0;"/><line style="stroke:#181818;stroke-width:1.0;" x1="0" x2="207.0171" y1="90.5332" y2="90.5332"/><text fill="#000000" font-family="sans-serif" font-size="13" font-weight="bold" lengthAdjust="spacing" textLength="7.23" x="7" y="85.2705">3</text><text fill="#000000" font-family="sans-serif" font-size="13" lengthAdjust="spacing" textLength="182.7871" x="18.23" y="85.2705">getLocomotive(locomotiveDTO)</text><path d="M120.8691,105.5332 L291.5464,105.5332 L291.5464,114.8242 L281.5464,124.8242 L120.8691,124.8242 L120.8691,105.5332 " fill="#EEEEEE" style="stroke:#000000;stroke-width:1.5;"/><rect fill="none" height="343.9102" style="stroke:#000000;stroke-width:1.5;" width="1066.1064" x="120.8691" y="105.5332"/><text fill="#000000" font-family="sans-serif" font-size="13" font-weight="bold" lengthAdjust="spacing" textLength="125.6772" x="135.8691" y="120.5615">Get LocomotiveDTO</text><polygon fill="#181818" points="366.9033,144.1152,376.9033,148.1152,366.9033,152.1152,370.9033,148.1152" style="stroke:#181818;stroke-width:1.0;"/><line style="stroke:#181818;stroke-width:1.0;" x1="223.0171" x2="372.9033" y1="148.1152" y2="148.1152"/><text fill="#000000" font-family="sans-serif" font-size="13" font-weight="bold" lengthAdjust="spacing" textLength="18.0718" x="230.0171" y="142.8525">3.1</text><text fill="#000000" font-family="sans-serif" font-size="13" lengthAdjust="spacing" textLength="74.4072" x="252.0889" y="142.8525">getNameID()</text><polygon fill="#181818" points="234.0171,175.4063,224.0171,179.4063,234.0171,183.4063,230.0171,179.4063" style="stroke:#181818;stroke-width:1.0;"/><line style="stroke:#181818;stroke-width:1.0;stroke-dasharray:2.0,2.0;" x1="228.0171" x2="382.9033" y1="179.4063" y2="179.4063"/><text fill="#000000" font-family="sans-serif" font-size="13" font-weight="bold" lengthAdjust="spacing" textLength="18.0718" x="240.0171" y="174.1436">3.2</text><text fill="#000000" font-family="sans-serif" font-size="13" lengthAdjust="spacing" textLength="109.8145" x="262.0889" y="174.1436">locomotiveNameID</text><polygon fill="#181818" points="514.6201,206.6973,524.6201,210.6973,514.6201,214.6973,518.6201,210.6973" style="stroke:#181818;stroke-width:1.0;"/><line style="stroke:#181818;stroke-width:1.0;" x1="223.0171" x2="520.6201" y1="210.6973" y2="210.6973"/><text fill="#000000" font-family="sans-serif" font-size="13" font-weight="bold" lengthAdjust="spacing" textLength="18.0718" x="230.0171" y="205.4346">3.3</text><text fill="#000000" font-family="sans-serif" font-size="13" lengthAdjust="spacing" textLength="203.0234" x="252.0889" y="205.4346">getLocomotive(locomotiveNameID)</text><polygon fill="#181818" points="768.7153,237.9883,778.7153,241.9883,768.7153,245.9883,772.7153,241.9883" style="stroke:#181818;stroke-width:1.0;"/><line style="stroke:#181818;stroke-width:1.0;" x1="536.6201" x2="774.7153" y1="241.9883" y2="241.9883"/><text fill="#000000" font-family="sans-serif" font-size="13" font-weight="bold" lengthAdjust="spacing" textLength="18.0718" x="543.6201" y="236.7256">3.4</text><text fill="#000000" font-family="sans-serif" font-size="13" lengthAdjust="spacing" textLength="203.0234" x="565.6919" y="236.7256">getLocomotive(locomotiveNameID)</text><polygon fill="#181818" points="547.6201,269.2793,537.6201,273.2793,547.6201,277.2793,543.6201,273.2793" style="stroke:#181818;stroke-width:1.0;"/><line style="stroke:#181818;stroke-width:1.0;stroke-dasharray:2.0,2.0;" x1="541.6201" x2="784.7153" y1="273.2793" y2="273.2793"/><text fill="#000000" font-family="sans-serif" font-size="13" font-weight="bold" lengthAdjust="spacing" textLength="18.0718" x="553.6201" y="268.0166">3.5</text><text fill="#000000" font-family="sans-serif" font-size="13" lengthAdjust="spacing" textLength="62.1372" x="575.6919" y="268.0166">locomotive</text><polygon fill="#181818" points="234.0171,300.5703,224.0171,304.5703,234.0171,308.5703,230.0171,304.5703" style="stroke:#181818;stroke-width:1.0;"/><line style="stroke:#181818;stroke-width:1.0;stroke-dasharray:2.0,2.0;" x1="228.0171" x2="530.6201" y1="304.5703" y2="304.5703"/><text fill="#000000" font-family="sans-serif" font-size="13" font-weight="bold" lengthAdjust="spacing" textLength="18.0718" x="240.0171" y="299.3076">3.6</text><text fill="#000000" font-family="sans-serif" font-size="13" lengthAdjust="spacing" textLength="62.1372" x="262.0889" y="299.3076">locomotive</text><polygon fill="#181818" points="895.4321,331.8613,905.4321,335.8613,895.4321,339.8613,899.4321,335.8613" style="stroke:#181818;stroke-width:1.0;"/><line style="stroke:#181818;stroke-width:1.0;" x1="223.0171" x2="901.4321" y1="335.8613" y2="335.8613"/><text fill="#000000" font-family="sans-serif" font-size="13" font-weight="bold" lengthAdjust="spacing" textLength="18.0718" x="230.0171" y="330.5986">3.7</text><text fill="#000000" font-family="sans-serif" font-size="13" lengthAdjust="spacing" textLength="109.0781" x="252.0889" y="330.5986">toDTO(locomotive)</text><line style="stroke:#181818;stroke-width:1.0;" x1="922.4321" x2="964.4321" y1="367.1523" y2="367.1523"/><line style="stroke:#181818;stroke-width:1.0;" x1="964.4321" x2="964.4321" y1="367.1523" y2="380.1523"/><line style="stroke:#181818;stroke-width:1.0;" x1="923.4321" x2="964.4321" y1="380.1523" y2="380.1523"/><polygon fill="#181818" points="933.4321,376.1523,923.4321,380.1523,933.4321,384.1523,929.4321,380.1523" style="stroke:#181818;stroke-width:1.0;"/><text fill="#000000" font-family="sans-serif" font-size="13" font-weight="bold" lengthAdjust="spacing" textLength="18.0718" x="929.4321" y="361.8896">3.8</text><text fill="#000000" font-family="sans-serif" font-size="13" lengthAdjust="spacing" textLength="213.4717" x="951.5039" y="361.8896">locomotiveDTO = toDTO(locomotive)</text><polygon fill="#181818" points="234.0171,437.4434,224.0171,441.4434,234.0171,445.4434,230.0171,441.4434" style="stroke:#181818;stroke-width:1.0;"/><line style="stroke:#181818;stroke-width:1.0;stroke-dasharray:2.0,2.0;" x1="228.0171" x2="911.4321" y1="441.4434" y2="441.4434"/><text fill="#000000" font-family="sans-serif" font-size="13" font-weight="bold" lengthAdjust="spacing" textLength="18.0718" x="240.0171" y="436.1807">3.9</text><text fill="#000000" font-family="sans-serif" font-size="13" lengthAdjust="spacing" textLength="89.5781" x="262.0889" y="436.1807">locomotiveDTO</text><polygon fill="#181818" points="11,475.7344,1,479.7344,11,483.7344,7,479.7344" style="stroke:#181818;stroke-width:1.0;"/><line style="stroke:#181818;stroke-width:1.0;stroke-dasharray:2.0,2.0;" x1="5" x2="217.0171" y1="479.7344" y2="479.7344"/><text fill="#000000" font-family="sans-serif" font-size="13" font-weight="bold" lengthAdjust="spacing" textLength="7.23" x="17" y="474.4717">4</text><text fill="#000000" font-family="sans-serif" font-size="13" lengthAdjust="spacing" textLength="89.5781" x="28.23" y="474.4717">locomotiveDTO</text><!--SRC=[ZLDTJuCm57tlhxZPq_Q0YT4deYQwBSQ4EG9xD36LNHaPjAGjclrxeMNG8kZwLEx7kUSSRkKnOoKLj822CvuS12yGbAYGo2vJqkH8KupLAKSGc2ZAqjmka0UwvzyPI-6JvX89gSCgIxAICWKp_waw1JpX1LVP5ouvKuBdEOePK0dBNHIuvNbNkjfjtvWVsD-w9zWkt-lxL5k49PUPukBaTFVX3YHQXvCeqccMvvvueAqlsT2oR4Krs9l7C5n7X11QASwguWC5t13lGIls8KNLjyuTpGktv-gQqAHEKON6BQXFAdXLmZCgSEmXEjcSfXBgQQrNUk0hBV1bDLzqHHtksL6mJXi3h-FSipH8NVaUVo6D4cdydfPkG2VOwLyrfDS4M-puSjmXTknaMknOw-v9zt1EjQiydc0uuk2KTrhdg7bceNnGlFRNaZTXMBj_Gq8cFCHqzW_k_vXnoPmHMV-m6J78NiTnC9r6jZSNwydSwi2Tvnd_XgWMcdvFFm00]--></g></svg>