<svg xmlns="http://www.w3.org/2000/svg" xmlns:xlink="http://www.w3.org/1999/xlink" contentStyleType="text/css" height="1343px" preserveAspectRatio="none" style="width:2524px;height:1343px;background:#FFFFFF;" version="1.1" viewBox="0 0 2524 1343" width="2524px" zoomAndPan="magnify"><defs/><g><rect fill="#FFFFFF" height="1179.1855" style="stroke:#181818;stroke-width:1.0;" width="10" x="248.4243" y="90.5332"/><rect fill="#FFFFFF" height="31.291" style="stroke:#181818;stroke-width:1.0;" width="10" x="420.8823" y="148.1152"/><rect fill="#FFFFFF" height="31.291" style="stroke:#181818;stroke-width:1.0;" width="10" x="420.8823" y="210.6973"/><rect fill="#FFFFFF" height="31.291" style="stroke:#181818;stroke-width:1.0;" width="10" x="544.0889" y="273.2793"/><rect fill="#FFFFFF" height="93.873" style="stroke:#181818;stroke-width:1.0;" width="10" x="691.8057" y="335.8613"/><rect fill="#FFFFFF" height="770.4023" style="stroke:#181818;stroke-width:1.0;" width="10" x="691.8057" y="461.0254"/><rect fill="#FFFFFF" height="31.291" style="stroke:#181818;stroke-width:1.0;" width="10" x="1039.8525" y="367.1523"/><rect fill="#FFFFFF" height="707.8203" style="stroke:#181818;stroke-width:1.0;" width="10" x="1039.8525" y="492.3164"/><rect fill="#FFFFFF" height="645.2383" style="stroke:#181818;stroke-width:1.0;" width="10" x="1318.5386" y="523.6074"/><rect fill="#FFFFFF" height="42.291" style="stroke:#181818;stroke-width:1.0;" width="10" x="1323.5386" y="562.8984"/><rect fill="#FFFFFF" height="156.4551" style="stroke:#181818;stroke-width:1.0;" width="10" x="1670.1973" y="643.4805"/><rect fill="#FFFFFF" height="306.3281" style="stroke:#181818;stroke-width:1.0;" width="10" x="1670.1973" y="831.2266"/><rect fill="#FFFFFF" height="93.873" style="stroke:#181818;stroke-width:1.0;" width="10" x="1965.4951" y="674.7715"/><rect fill="#FFFFFF" height="243.7461" style="stroke:#181818;stroke-width:1.0;" width="10" x="1965.4951" y="862.5176"/><rect fill="#FFFFFF" height="31.291" style="stroke:#181818;stroke-width:1.0;" width="10" x="2218.1621" y="706.0625"/><rect fill="#FFFFFF" height="181.1641" style="stroke:#181818;stroke-width:1.0;" width="10" x="2218.1621" y="893.8086"/><rect fill="#FFFFFF" height="42.291" style="stroke:#181818;stroke-width:1.0;" width="10" x="2223.1621" y="933.0996"/><rect fill="#FFFFFF" height="30" style="stroke:#181818;stroke-width:1.0;" width="10" x="2435.4282" y="1013.6816"/><rect fill="none" height="1133.8945" style="stroke:#000000;stroke-width:1.5;" width="2362.2344" x="156.2764" y="105.5332"/><line style="stroke:#181818;stroke-width:0.5;stroke-dasharray:5.0,5.0;" x1="253.2764" x2="253.2764" y1="57.2422" y2="1287.7188"/><line style="stroke:#181818;stroke-width:0.5;stroke-dasharray:5.0,5.0;" x1="425.1929" x2="425.1929" y1="57.2422" y2="1287.7188"/><line style="stroke:#181818;stroke-width:0.5;stroke-dasharray:5.0,5.0;" x1="548.5718" x2="548.5718" y1="57.2422" y2="1287.7188"/><line style="stroke:#181818;stroke-width:0.5;stroke-dasharray:5.0,5.0;" x1="696.606" x2="696.606" y1="57.2422" y2="1287.7188"/><line style="stroke:#181818;stroke-width:0.5;stroke-dasharray:5.0,5.0;" x1="1044.6113" x2="1044.6113" y1="57.2422" y2="1287.7188"/><line style="stroke:#181818;stroke-width:0.5;stroke-dasharray:5.0,5.0;" x1="1322.7974" x2="1322.7974" y1="57.2422" y2="1287.7188"/><line style="stroke:#181818;stroke-width:0.5;stroke-dasharray:5.0,5.0;" x1="1674.625" x2="1674.625" y1="57.2422" y2="1287.7188"/><line style="stroke:#181818;stroke-width:0.5;stroke-dasharray:5.0,5.0;" x1="1970.209" x2="1970.209" y1="57.2422" y2="1287.7188"/><line style="stroke:#181818;stroke-width:0.5;stroke-dasharray:5.0,5.0;" x1="2222.376" x2="2222.376" y1="57.2422" y2="1287.7188"/><line style="stroke:#181818;stroke-width:0.5;stroke-dasharray:5.0,5.0;" x1="2440.3457" x2="2440.3457" y1="57.2422" y2="1287.7188"/><rect fill="#E3E3E3" height="32.6211" rx="2.5" ry="2.5" style="stroke:#181818;stroke-width:0.5;" width="174.2959" x="166.2764" y="23.6211"/><text fill="#000000" font-family="sans-serif" font-size="14" lengthAdjust="spacing" textLength="160.2959" x="173.2764" y="45.7285">:BuyLocomotiveController</text><rect fill="#E3E3E3" height="32.6211" rx="2.5" ry="2.5" style="stroke:#181818;stroke-width:0.5;" width="174.2959" x="166.2764" y="1286.7188"/><text fill="#000000" font-family="sans-serif" font-size="14" lengthAdjust="spacing" textLength="160.2959" x="173.2764" y="1308.8262">:BuyLocomotiveController</text><rect fill="#E3E3E3" height="51.2422" rx="2.5" ry="2.5" style="stroke:#181818;stroke-width:0.5;" width="107.3789" x="372.1929" y="5"/><text fill="#000000" font-family="sans-serif" font-size="14" lengthAdjust="spacing" textLength="93.3789" x="379.1929" y="27.1074">currentSession</text><text fill="#000000" font-family="sans-serif" font-size="14" lengthAdjust="spacing" textLength="83.2549" x="384.2549" y="45.7285">:UserSession</text><rect fill="#E3E3E3" height="51.2422" rx="2.5" ry="2.5" style="stroke:#181818;stroke-width:0.5;" width="107.3789" x="372.1929" y="1286.7188"/><text fill="#000000" font-family="sans-serif" font-size="14" lengthAdjust="spacing" textLength="93.3789" x="379.1929" y="1308.8262">currentSession</text><text fill="#000000" font-family="sans-serif" font-size="14" lengthAdjust="spacing" textLength="83.2549" x="384.2549" y="1327.4473">:UserSession</text><rect fill="#E3E3E3" height="51.2422" rx="2.5" ry="2.5" style="stroke:#181818;stroke-width:0.5;" width="119.0342" x="489.5718" y="5"/><text fill="#000000" font-family="sans-serif" font-size="14" lengthAdjust="spacing" textLength="96.4688" x="500.8545" y="27.1074">locomotiveDTO</text><text fill="#000000" font-family="sans-serif" font-size="14" lengthAdjust="spacing" textLength="105.0342" x="496.5718" y="45.7285">:LocomotiveDTO</text><rect fill="#E3E3E3" height="51.2422" rx="2.5" ry="2.5" style="stroke:#181818;stroke-width:0.5;" width="119.0342" x="489.5718" y="1286.7188"/><text fill="#000000" font-family="sans-serif" font-size="14" lengthAdjust="spacing" textLength="96.4688" x="500.8545" y="1308.8262">locomotiveDTO</text><text fill="#000000" font-family="sans-serif" font-size="14" lengthAdjust="spacing" textLength="105.0342" x="496.5718" y="1327.4473">:LocomotiveDTO</text><rect fill="#E3E3E3" height="51.2422" rx="2.5" ry="2.5" style="stroke:#181818;stroke-width:0.5;" width="156.3994" x="618.606" y="5"/><text fill="#000000" font-family="sans-serif" font-size="14" lengthAdjust="spacing" textLength="133.834" x="629.8887" y="27.1074">locomotiveRepository</text><text fill="#000000" font-family="sans-serif" font-size="14" lengthAdjust="spacing" textLength="142.3994" x="625.606" y="45.7285">:LocomotiveRepository</text><rect fill="#E3E3E3" height="51.2422" rx="2.5" ry="2.5" style="stroke:#181818;stroke-width:0.5;" width="156.3994" x="618.606" y="1286.7188"/><text fill="#000000" font-family="sans-serif" font-size="14" lengthAdjust="spacing" textLength="133.834" x="629.8887" y="1308.8262">locomotiveRepository</text><text fill="#000000" font-family="sans-serif" font-size="14" lengthAdjust="spacing" textLength="142.3994" x="625.606" y="1327.4473">:LocomotiveRepository</text><rect fill="#E3E3E3" height="51.2422" rx="2.5" ry="2.5" style="stroke:#181818;stroke-width:0.5;" width="96.4824" x="996.6113" y="5"/><text fill="#000000" font-family="sans-serif" font-size="14" lengthAdjust="spacing" textLength="73.917" x="1007.894" y="27.1074">locomotives</text><text fill="#000000" font-family="sans-serif" font-size="14" lengthAdjust="spacing" textLength="82.4824" x="1003.6113" y="45.7285">:Locomotives</text><rect fill="#E3E3E3" height="51.2422" rx="2.5" ry="2.5" style="stroke:#181818;stroke-width:0.5;" width="96.4824" x="996.6113" y="1286.7188"/><text fill="#000000" font-family="sans-serif" font-size="14" lengthAdjust="spacing" textLength="73.917" x="1007.894" y="1308.8262">locomotives</text><text fill="#000000" font-family="sans-serif" font-size="14" lengthAdjust="spacing" textLength="82.4824" x="1003.6113" y="1327.4473">:Locomotives</text><rect fill="#E3E3E3" height="51.2422" rx="2.5" ry="2.5" style="stroke:#181818;stroke-width:0.5;" width="89.4824" x="1278.7974" y="5"/><text fill="#000000" font-family="sans-serif" font-size="14" lengthAdjust="spacing" textLength="66.917" x="1290.0801" y="27.1074">locomotive</text><text fill="#000000" font-family="sans-serif" font-size="14" lengthAdjust="spacing" textLength="75.4824" x="1285.7974" y="45.7285">:Locomotive</text><rect fill="#E3E3E3" height="51.2422" rx="2.5" ry="2.5" style="stroke:#181818;stroke-width:0.5;" width="89.4824" x="1278.7974" y="1286.7188"/><text fill="#000000" font-family="sans-serif" font-size="14" lengthAdjust="spacing" textLength="66.917" x="1290.0801" y="1308.8262">locomotive</text><text fill="#000000" font-family="sans-serif" font-size="14" lengthAdjust="spacing" textLength="75.4824" x="1285.7974" y="1327.4473">:Locomotive</text><rect fill="#E3E3E3" height="51.2422" rx="2.5" ry="2.5" style="stroke:#181818;stroke-width:0.5;" width="73.1445" x="1638.625" y="5"/><text fill="#000000" font-family="sans-serif" font-size="14" lengthAdjust="spacing" textLength="52.917" x="1648.7388" y="27.1074">scenario</text><text fill="#000000" font-family="sans-serif" font-size="14" lengthAdjust="spacing" textLength="59.1445" x="1645.625" y="45.7285">:Scenario</text><rect fill="#E3E3E3" height="51.2422" rx="2.5" ry="2.5" style="stroke:#181818;stroke-width:0.5;" width="73.1445" x="1638.625" y="1286.7188"/><text fill="#000000" font-family="sans-serif" font-size="14" lengthAdjust="spacing" textLength="52.917" x="1648.7388" y="1308.8262">scenario</text><text fill="#000000" font-family="sans-serif" font-size="14" lengthAdjust="spacing" textLength="59.1445" x="1645.625" y="1327.4473">:Scenario</text><rect fill="#E3E3E3" height="51.2422" rx="2.5" ry="2.5" style="stroke:#181818;stroke-width:0.5;" width="64.5723" x="1938.209" y="5"/><text fill="#000000" font-family="sans-serif" font-size="14" lengthAdjust="spacing" textLength="45.1309" x="1947.9297" y="27.1074">players</text><text fill="#000000" font-family="sans-serif" font-size="14" lengthAdjust="spacing" textLength="50.5723" x="1945.209" y="45.7285">:Players</text><rect fill="#E3E3E3" height="51.2422" rx="2.5" ry="2.5" style="stroke:#181818;stroke-width:0.5;" width="64.5723" x="1938.209" y="1286.7188"/><text fill="#000000" font-family="sans-serif" font-size="14" lengthAdjust="spacing" textLength="45.1309" x="1947.9297" y="1308.8262">players</text><text fill="#000000" font-family="sans-serif" font-size="14" lengthAdjust="spacing" textLength="50.5723" x="1945.209" y="1327.4473">:Players</text><rect fill="#E3E3E3" height="51.2422" rx="2.5" ry="2.5" style="stroke:#181818;stroke-width:0.5;" width="57.5723" x="2194.376" y="5"/><text fill="#000000" font-family="sans-serif" font-size="14" lengthAdjust="spacing" textLength="38.1309" x="2204.0967" y="27.1074">player</text><text fill="#000000" font-family="sans-serif" font-size="14" lengthAdjust="spacing" textLength="43.5723" x="2201.376" y="45.7285">:Player</text><rect fill="#E3E3E3" height="51.2422" rx="2.5" ry="2.5" style="stroke:#181818;stroke-width:0.5;" width="57.5723" x="2194.376" y="1286.7188"/><text fill="#000000" font-family="sans-serif" font-size="14" lengthAdjust="spacing" textLength="38.1309" x="2204.0967" y="1308.8262">player</text><text fill="#000000" font-family="sans-serif" font-size="14" lengthAdjust="spacing" textLength="43.5723" x="2201.376" y="1327.4473">:Player</text><rect fill="#E3E3E3" height="51.2422" rx="2.5" ry="2.5" style="stroke:#181818;stroke-width:0.5;" width="136.165" x="2372.3457" y="5"/><text fill="#000000" font-family="sans-serif" font-size="14" lengthAdjust="spacing" textLength="116.7236" x="2382.0664" y="27.1074">playerLocomotives</text><text fill="#000000" font-family="sans-serif" font-size="14" lengthAdjust="spacing" textLength="122.165" x="2379.3457" y="45.7285">:PlayerLocomotives</text><rect fill="#E3E3E3" height="51.2422" rx="2.5" ry="2.5" style="stroke:#181818;stroke-width:0.5;" width="136.165" x="2372.3457" y="1286.7188"/><text fill="#000000" font-family="sans-serif" font-size="14" lengthAdjust="spacing" textLength="116.7236" x="2382.0664" y="1308.8262">playerLocomotives</text><text fill="#000000" font-family="sans-serif" font-size="14" lengthAdjust="spacing" textLength="122.165" x="2379.3457" y="1327.4473">:PlayerLocomotives</text><rect fill="#FFFFFF" height="1179.1855" style="stroke:#181818;stroke-width:1.0;" width="10" x="248.4243" y="90.5332"/><rect fill="#FFFFFF" height="31.291" style="stroke:#181818;stroke-width:1.0;" width="10" x="420.8823" y="148.1152"/><rect fill="#FFFFFF" height="31.291" style="stroke:#181818;stroke-width:1.0;" width="10" x="420.8823" y="210.6973"/><rect fill="#FFFFFF" height="31.291" style="stroke:#181818;stroke-width:1.0;" width="10" x="544.0889" y="273.2793"/><rect fill="#FFFFFF" height="93.873" style="stroke:#181818;stroke-width:1.0;" width="10" x="691.8057" y="335.8613"/><rect fill="#FFFFFF" height="770.4023" style="stroke:#181818;stroke-width:1.0;" width="10" x="691.8057" y="461.0254"/><rect fill="#FFFFFF" height="31.291" style="stroke:#181818;stroke-width:1.0;" width="10" x="1039.8525" y="367.1523"/><rect fill="#FFFFFF" height="707.8203" style="stroke:#181818;stroke-width:1.0;" width="10" x="1039.8525" y="492.3164"/><rect fill="#FFFFFF" height="645.2383" style="stroke:#181818;stroke-width:1.0;" width="10" x="1318.5386" y="523.6074"/><rect fill="#FFFFFF" height="42.291" style="stroke:#181818;stroke-width:1.0;" width="10" x="1323.5386" y="562.8984"/><rect fill="#FFFFFF" height="156.4551" style="stroke:#181818;stroke-width:1.0;" width="10" x="1670.1973" y="643.4805"/><rect fill="#FFFFFF" height="306.3281" style="stroke:#181818;stroke-width:1.0;" width="10" x="1670.1973" y="831.2266"/><rect fill="#FFFFFF" height="93.873" style="stroke:#181818;stroke-width:1.0;" width="10" x="1965.4951" y="674.7715"/><rect fill="#FFFFFF" height="243.7461" style="stroke:#181818;stroke-width:1.0;" width="10" x="1965.4951" y="862.5176"/><rect fill="#FFFFFF" height="31.291" style="stroke:#181818;stroke-width:1.0;" width="10" x="2218.1621" y="706.0625"/><rect fill="#FFFFFF" height="181.1641" style="stroke:#181818;stroke-width:1.0;" width="10" x="2218.1621" y="893.8086"/><rect fill="#FFFFFF" height="42.291" style="stroke:#181818;stroke-width:1.0;" width="10" x="2223.1621" y="933.0996"/><rect fill="#FFFFFF" height="30" style="stroke:#181818;stroke-width:1.0;" width="10" x="2435.4282" y="1013.6816"/><polygon fill="#181818" points="236.4243,86.5332,246.4243,90.5332,236.4243,94.5332,240.4243,90.5332" style="stroke:#181818;stroke-width:1.0;"/><line style="stroke:#181818;stroke-width:1.0;" x1="0" x2="242.4243" y1="90.5332" y2="90.5332"/><text fill="#000000" font-family="sans-serif" font-size="13" font-weight="bold" lengthAdjust="spacing" textLength="7.23" x="7" y="85.2705">5</text><text fill="#000000" font-family="sans-serif" font-size="13" lengthAdjust="spacing" textLength="218.1943" x="18.23" y="85.2705">purchaseLocomotive(locomotiveDTO)</text><path d="M156.2764,105.5332 L336.3735,105.5332 L336.3735,114.8242 L326.3735,124.8242 L156.2764,124.8242 L156.2764,105.5332 " fill="#EEEEEE" style="stroke:#000000;stroke-width:1.5;"/><rect fill="none" height="1133.8945" style="stroke:#000000;stroke-width:1.5;" width="2362.2344" x="156.2764" y="105.5332"/><text fill="#000000" font-family="sans-serif" font-size="13" font-weight="bold" lengthAdjust="spacing" textLength="135.0972" x="171.2764" y="120.5615">Purchase Locomotive</text><polygon fill="#181818" points="408.8823,144.1152,418.8823,148.1152,408.8823,152.1152,412.8823,148.1152" style="stroke:#181818;stroke-width:1.0;"/><line style="stroke:#181818;stroke-width:1.0;" x1="258.4243" x2="414.8823" y1="148.1152" y2="148.1152"/><text fill="#000000" font-family="sans-serif" font-size="13" font-weight="bold" lengthAdjust="spacing" textLength="18.0718" x="265.4243" y="142.8525">5.1</text><text fill="#000000" font-family="sans-serif" font-size="13" lengthAdjust="spacing" textLength="121.3862" x="287.4961" y="142.8525">getCurrentScenario()</text><polygon fill="#181818" points="269.4243,175.4063,259.4243,179.4063,269.4243,183.4063,265.4243,179.4063" style="stroke:#181818;stroke-width:1.0;"/><line style="stroke:#181818;stroke-width:1.0;stroke-dasharray:2.0,2.0;" x1="263.4243" x2="424.8823" y1="179.4063" y2="179.4063"/><text fill="#000000" font-family="sans-serif" font-size="13" font-weight="bold" lengthAdjust="spacing" textLength="18.0718" x="275.4243" y="174.1436">5.2</text><text fill="#000000" font-family="sans-serif" font-size="13" lengthAdjust="spacing" textLength="49.1372" x="297.4961" y="174.1436">scenario</text><polygon fill="#181818" points="408.8823,206.6973,418.8823,210.6973,408.8823,214.6973,412.8823,210.6973" style="stroke:#181818;stroke-width:1.0;"/><line style="stroke:#181818;stroke-width:1.0;" x1="258.4243" x2="414.8823" y1="210.6973" y2="210.6973"/><text fill="#000000" font-family="sans-serif" font-size="13" font-weight="bold" lengthAdjust="spacing" textLength="18.0718" x="265.4243" y="205.4346">5.3</text><text fill="#000000" font-family="sans-serif" font-size="13" lengthAdjust="spacing" textLength="106.9263" x="287.4961" y="205.4346">getCurrentPlayer()</text><polygon fill="#181818" points="269.4243,237.9883,259.4243,241.9883,269.4243,245.9883,265.4243,241.9883" style="stroke:#181818;stroke-width:1.0;"/><line style="stroke:#181818;stroke-width:1.0;stroke-dasharray:2.0,2.0;" x1="263.4243" x2="424.8823" y1="241.9883" y2="241.9883"/><text fill="#000000" font-family="sans-serif" font-size="13" font-weight="bold" lengthAdjust="spacing" textLength="18.0718" x="275.4243" y="236.7256">5.4</text><text fill="#000000" font-family="sans-serif" font-size="13" lengthAdjust="spacing" textLength="35.4072" x="297.4961" y="236.7256">player</text><polygon fill="#181818" points="532.0889,269.2793,542.0889,273.2793,532.0889,277.2793,536.0889,273.2793" style="stroke:#181818;stroke-width:1.0;"/><line style="stroke:#181818;stroke-width:1.0;" x1="258.4243" x2="538.0889" y1="273.2793" y2="273.2793"/><text fill="#000000" font-family="sans-serif" font-size="13" font-weight="bold" lengthAdjust="spacing" textLength="18.0718" x="265.4243" y="268.0166">5.5</text><text fill="#000000" font-family="sans-serif" font-size="13" lengthAdjust="spacing" textLength="74.4072" x="287.4961" y="268.0166">getNameID()</text><polygon fill="#181818" points="269.4243,300.5703,259.4243,304.5703,269.4243,308.5703,265.4243,304.5703" style="stroke:#181818;stroke-width:1.0;"/><line style="stroke:#181818;stroke-width:1.0;stroke-dasharray:2.0,2.0;" x1="263.4243" x2="548.0889" y1="304.5703" y2="304.5703"/><text fill="#000000" font-family="sans-serif" font-size="13" font-weight="bold" lengthAdjust="spacing" textLength="18.0718" x="275.4243" y="299.3076">5.6</text><text fill="#000000" font-family="sans-serif" font-size="13" lengthAdjust="spacing" textLength="109.8145" x="297.4961" y="299.3076">locomotiveNameID</text><polygon fill="#181818" points="679.8057,331.8613,689.8057,335.8613,679.8057,339.8613,683.8057,335.8613" style="stroke:#181818;stroke-width:1.0;"/><line style="stroke:#181818;stroke-width:1.0;" x1="258.4243" x2="685.8057" y1="335.8613" y2="335.8613"/><text fill="#000000" font-family="sans-serif" font-size="13" font-weight="bold" lengthAdjust="spacing" textLength="18.0718" x="265.4243" y="330.5986">5.7</text><text fill="#000000" font-family="sans-serif" font-size="13" lengthAdjust="spacing" textLength="203.0234" x="287.4961" y="330.5986">getLocomotive(locomotiveNameID)</text><polygon fill="#181818" points="1027.8525,363.1523,1037.8525,367.1523,1027.8525,371.1523,1031.8525,367.1523" style="stroke:#181818;stroke-width:1.0;"/><line style="stroke:#181818;stroke-width:1.0;" x1="701.8057" x2="1033.8525" y1="367.1523" y2="367.1523"/><text fill="#000000" font-family="sans-serif" font-size="13" font-weight="bold" lengthAdjust="spacing" textLength="18.0718" x="708.8057" y="361.8896">5.8</text><text fill="#000000" font-family="sans-serif" font-size="13" lengthAdjust="spacing" textLength="203.0234" x="730.8774" y="361.8896">getLocomotive(locomotiveNameID)</text><polygon fill="#181818" points="712.8057,394.4434,702.8057,398.4434,712.8057,402.4434,708.8057,398.4434" style="stroke:#181818;stroke-width:1.0;"/><line style="stroke:#181818;stroke-width:1.0;stroke-dasharray:2.0,2.0;" x1="706.8057" x2="1043.8525" y1="398.4434" y2="398.4434"/><text fill="#000000" font-family="sans-serif" font-size="13" font-weight="bold" lengthAdjust="spacing" textLength="18.0718" x="718.8057" y="393.1807">5.9</text><text fill="#000000" font-family="sans-serif" font-size="13" lengthAdjust="spacing" textLength="62.1372" x="740.8774" y="393.1807">locomotive</text><polygon fill="#181818" points="269.4243,425.7344,259.4243,429.7344,269.4243,433.7344,265.4243,429.7344" style="stroke:#181818;stroke-width:1.0;"/><line style="stroke:#181818;stroke-width:1.0;stroke-dasharray:2.0,2.0;" x1="263.4243" x2="695.8057" y1="429.7344" y2="429.7344"/><text fill="#000000" font-family="sans-serif" font-size="13" font-weight="bold" lengthAdjust="spacing" textLength="25.3018" x="275.4243" y="424.4717">5.10</text><text fill="#000000" font-family="sans-serif" font-size="13" lengthAdjust="spacing" textLength="62.1372" x="304.7261" y="424.4717">locomotive</text><polygon fill="#181818" points="679.8057,457.0254,689.8057,461.0254,679.8057,465.0254,683.8057,461.0254" style="stroke:#181818;stroke-width:1.0;"/><line style="stroke:#181818;stroke-width:1.0;" x1="258.4243" x2="685.8057" y1="461.0254" y2="461.0254"/><text fill="#000000" font-family="sans-serif" font-size="13" font-weight="bold" lengthAdjust="spacing" textLength="25.3018" x="265.4243" y="455.7627">5.11</text><text fill="#000000" font-family="sans-serif" font-size="13" lengthAdjust="spacing" textLength="289.7451" x="294.7261" y="455.7627">purchaseLocomotive(locomotive, player, scenario)</text><polygon fill="#181818" points="1027.8525,488.3164,1037.8525,492.3164,1027.8525,496.3164,1031.8525,492.3164" style="stroke:#181818;stroke-width:1.0;"/><line style="stroke:#181818;stroke-width:1.0;" x1="701.8057" x2="1033.8525" y1="492.3164" y2="492.3164"/><text fill="#000000" font-family="sans-serif" font-size="13" font-weight="bold" lengthAdjust="spacing" textLength="25.3018" x="708.8057" y="487.0537">5.12</text><text fill="#000000" font-family="sans-serif" font-size="13" lengthAdjust="spacing" textLength="289.7451" x="738.1074" y="487.0537">purchaseLocomotive(locomotive, player, scenario)</text><polygon fill="#181818" points="1306.5386,519.6074,1316.5386,523.6074,1306.5386,527.6074,1310.5386,523.6074" style="stroke:#181818;stroke-width:1.0;"/><line style="stroke:#181818;stroke-width:1.0;" x1="1049.8525" x2="1312.5386" y1="523.6074" y2="523.6074"/><text fill="#000000" font-family="sans-serif" font-size="13" font-weight="bold" lengthAdjust="spacing" textLength="25.3018" x="1056.8525" y="518.3447">5.13</text><text fill="#000000" font-family="sans-serif" font-size="13" lengthAdjust="spacing" textLength="220.3843" x="1086.1543" y="518.3447">purchaseLocomotive(player, scenario)</text><line style="stroke:#181818;stroke-width:1.0;" x1="1328.5386" x2="1375.5386" y1="549.8984" y2="549.8984"/><line style="stroke:#181818;stroke-width:1.0;" x1="1375.5386" x2="1375.5386" y1="549.8984" y2="562.8984"/><line style="stroke:#181818;stroke-width:1.0;" x1="1334.5386" x2="1375.5386" y1="562.8984" y2="562.8984"/><polygon fill="#181818" points="1344.5386,558.8984,1334.5386,562.8984,1344.5386,566.8984,1340.5386,562.8984" style="stroke:#181818;stroke-width:1.0;"/><text fill="#000000" font-family="sans-serif" font-size="13" font-weight="bold" lengthAdjust="spacing" textLength="25.3018" x="1340.5386" y="544.6357">5.14</text><text fill="#000000" font-family="sans-serif" font-size="13" lengthAdjust="spacing" textLength="56.3481" x="1369.8403" y="544.6357">getPrice()</text><line style="stroke:#181818;stroke-width:1.0;stroke-dasharray:2.0,2.0;" x1="1333.5386" x2="1375.5386" y1="604.1895" y2="604.1895"/><line style="stroke:#181818;stroke-width:1.0;stroke-dasharray:2.0,2.0;" x1="1375.5386" x2="1375.5386" y1="604.1895" y2="617.1895"/><line style="stroke:#181818;stroke-width:1.0;stroke-dasharray:2.0,2.0;" x1="1328.5386" x2="1375.5386" y1="617.1895" y2="617.1895"/><polygon fill="#181818" points="1338.5386,613.1895,1328.5386,617.1895,1338.5386,621.1895,1334.5386,617.1895" style="stroke:#181818;stroke-width:1.0;"/><text fill="#000000" font-family="sans-serif" font-size="13" font-weight="bold" lengthAdjust="spacing" textLength="25.3018" x="1340.5386" y="598.9268">5.15</text><text fill="#000000" font-family="sans-serif" font-size="13" lengthAdjust="spacing" textLength="28.1772" x="1369.8403" y="598.9268">price</text><polygon fill="#181818" points="1658.1973,639.4805,1668.1973,643.4805,1658.1973,647.4805,1662.1973,643.4805" style="stroke:#181818;stroke-width:1.0;"/><line style="stroke:#181818;stroke-width:1.0;" x1="1328.5386" x2="1664.1973" y1="643.4805" y2="643.4805"/><text fill="#000000" font-family="sans-serif" font-size="13" font-weight="bold" lengthAdjust="spacing" textLength="25.3018" x="1335.5386" y="638.2178">5.16</text><text fill="#000000" font-family="sans-serif" font-size="13" lengthAdjust="spacing" textLength="246.3906" x="1364.8403" y="638.2178">hasSufficientFunds(price, player, scenario)</text><polygon fill="#181818" points="1953.4951,670.7715,1963.4951,674.7715,1953.4951,678.7715,1957.4951,674.7715" style="stroke:#181818;stroke-width:1.0;"/><line style="stroke:#181818;stroke-width:1.0;" x1="1680.1973" x2="1959.4951" y1="674.7715" y2="674.7715"/><text fill="#000000" font-family="sans-serif" font-size="13" font-weight="bold" lengthAdjust="spacing" textLength="25.3018" x="1687.1973" y="669.5088">5.17</text><text fill="#000000" font-family="sans-serif" font-size="13" lengthAdjust="spacing" textLength="190.0298" x="1716.499" y="669.5088">hasSufficientFunds(price, player)</text><polygon fill="#181818" points="2206.1621,702.0625,2216.1621,706.0625,2206.1621,710.0625,2210.1621,706.0625" style="stroke:#181818;stroke-width:1.0;"/><line style="stroke:#181818;stroke-width:1.0;" x1="1975.4951" x2="2212.1621" y1="706.0625" y2="706.0625"/><text fill="#000000" font-family="sans-serif" font-size="13" font-weight="bold" lengthAdjust="spacing" textLength="25.3018" x="1982.4951" y="700.7998">5.18</text><text fill="#000000" font-family="sans-serif" font-size="13" lengthAdjust="spacing" textLength="147.3989" x="2011.7969" y="700.7998">hasSufficientFunds(price)</text><polygon fill="#181818" points="1986.4951,733.3535,1976.4951,737.3535,1986.4951,741.3535,1982.4951,737.3535" style="stroke:#181818;stroke-width:1.0;"/><line style="stroke:#181818;stroke-width:1.0;stroke-dasharray:2.0,2.0;" x1="1980.4951" x2="2222.1621" y1="737.3535" y2="737.3535"/><text fill="#000000" font-family="sans-serif" font-size="13" font-weight="bold" lengthAdjust="spacing" textLength="25.3018" x="1992.4951" y="732.0908">5.19</text><text fill="#000000" font-family="sans-serif" font-size="13" lengthAdjust="spacing" textLength="22.4009" x="2021.7969" y="732.0908">true</text><polygon fill="#181818" points="1691.1973,764.6445,1681.1973,768.6445,1691.1973,772.6445,1687.1973,768.6445" style="stroke:#181818;stroke-width:1.0;"/><line style="stroke:#181818;stroke-width:1.0;stroke-dasharray:2.0,2.0;" x1="1685.1973" x2="1969.4951" y1="768.6445" y2="768.6445"/><text fill="#000000" font-family="sans-serif" font-size="13" font-weight="bold" lengthAdjust="spacing" textLength="25.3018" x="1697.1973" y="763.3818">5.20</text><text fill="#000000" font-family="sans-serif" font-size="13" lengthAdjust="spacing" textLength="22.4009" x="1726.499" y="763.3818">true</text><polygon fill="#181818" points="1339.5386,795.9355,1329.5386,799.9355,1339.5386,803.9355,1335.5386,799.9355" style="stroke:#181818;stroke-width:1.0;"/><line style="stroke:#181818;stroke-width:1.0;stroke-dasharray:2.0,2.0;" x1="1333.5386" x2="1674.1973" y1="799.9355" y2="799.9355"/><text fill="#000000" font-family="sans-serif" font-size="13" font-weight="bold" lengthAdjust="spacing" textLength="25.3018" x="1345.5386" y="794.6729">5.21</text><text fill="#000000" font-family="sans-serif" font-size="13" lengthAdjust="spacing" textLength="22.4009" x="1374.8403" y="794.6729">true</text><polygon fill="#181818" points="1658.1973,827.2266,1668.1973,831.2266,1658.1973,835.2266,1662.1973,831.2266" style="stroke:#181818;stroke-width:1.0;"/><line style="stroke:#181818;stroke-width:1.0;" x1="1328.5386" x2="1664.1973" y1="831.2266" y2="831.2266"/><text fill="#000000" font-family="sans-serif" font-size="13" font-weight="bold" lengthAdjust="spacing" textLength="25.3018" x="1335.5386" y="825.9639">5.22</text><text fill="#000000" font-family="sans-serif" font-size="13" lengthAdjust="spacing" textLength="293.3569" x="1364.8403" y="825.9639">addLocomotive(price, locomotive, player, scenario)</text><polygon fill="#181818" points="1953.4951,858.5176,1963.4951,862.5176,1953.4951,866.5176,1957.4951,862.5176" style="stroke:#181818;stroke-width:1.0;"/><line style="stroke:#181818;stroke-width:1.0;" x1="1680.1973" x2="1959.4951" y1="862.5176" y2="862.5176"/><text fill="#000000" font-family="sans-serif" font-size="13" font-weight="bold" lengthAdjust="spacing" textLength="25.3018" x="1687.1973" y="857.2549">5.23</text><text fill="#000000" font-family="sans-serif" font-size="13" lengthAdjust="spacing" textLength="236.9961" x="1716.499" y="857.2549">addLocomotive(price, locomotive, player)</text><polygon fill="#181818" points="2206.1621,889.8086,2216.1621,893.8086,2206.1621,897.8086,2210.1621,893.8086" style="stroke:#181818;stroke-width:1.0;"/><line style="stroke:#181818;stroke-width:1.0;" x1="1975.4951" x2="2212.1621" y1="893.8086" y2="893.8086"/><text fill="#000000" font-family="sans-serif" font-size="13" font-weight="bold" lengthAdjust="spacing" textLength="25.3018" x="1982.4951" y="888.5459">5.24</text><text fill="#000000" font-family="sans-serif" font-size="13" lengthAdjust="spacing" textLength="194.3652" x="2011.7969" y="888.5459">addLocomotive(price, locomotive)</text><line style="stroke:#181818;stroke-width:1.0;" x1="2228.1621" x2="2275.1621" y1="920.0996" y2="920.0996"/><line style="stroke:#181818;stroke-width:1.0;" x1="2275.1621" x2="2275.1621" y1="920.0996" y2="933.0996"/><line style="stroke:#181818;stroke-width:1.0;" x1="2234.1621" x2="2275.1621" y1="933.0996" y2="933.0996"/><polygon fill="#181818" points="2244.1621,929.0996,2234.1621,933.0996,2244.1621,937.0996,2240.1621,933.0996" style="stroke:#181818;stroke-width:1.0;"/><text fill="#000000" font-family="sans-serif" font-size="13" font-weight="bold" lengthAdjust="spacing" textLength="25.3018" x="2240.1621" y="914.8369">5.25</text><text fill="#000000" font-family="sans-serif" font-size="13" lengthAdjust="spacing" textLength="121.3862" x="2269.4639" y="914.8369">removeBudget(price)</text><line style="stroke:#181818;stroke-width:1.0;stroke-dasharray:2.0,2.0;" x1="2233.1621" x2="2275.1621" y1="974.3906" y2="974.3906"/><line style="stroke:#181818;stroke-width:1.0;stroke-dasharray:2.0,2.0;" x1="2275.1621" x2="2275.1621" y1="974.3906" y2="987.3906"/><line style="stroke:#181818;stroke-width:1.0;stroke-dasharray:2.0,2.0;" x1="2228.1621" x2="2275.1621" y1="987.3906" y2="987.3906"/><polygon fill="#181818" points="2238.1621,983.3906,2228.1621,987.3906,2238.1621,991.3906,2234.1621,987.3906" style="stroke:#181818;stroke-width:1.0;"/><text fill="#000000" font-family="sans-serif" font-size="13" font-weight="bold" lengthAdjust="spacing" textLength="25.3018" x="2240.1621" y="969.1279">5.26</text><text fill="#000000" font-family="sans-serif" font-size="13" lengthAdjust="spacing" textLength="22.4009" x="2269.4639" y="969.1279">true</text><polygon fill="#181818" points="2423.4282,1009.6816,2433.4282,1013.6816,2423.4282,1017.6816,2427.4282,1013.6816" style="stroke:#181818;stroke-width:1.0;"/><line style="stroke:#181818;stroke-width:1.0;" x1="2228.1621" x2="2429.4282" y1="1013.6816" y2="1013.6816"/><text fill="#000000" font-family="sans-serif" font-size="13" font-weight="bold" lengthAdjust="spacing" textLength="25.3018" x="2235.1621" y="1008.4189">5.27</text><text fill="#000000" font-family="sans-serif" font-size="13" lengthAdjust="spacing" textLength="158.9644" x="2264.4639" y="1008.4189">addLocomotive(locomotive)</text><polygon fill="#181818" points="1986.4951,1070.9727,1976.4951,1074.9727,1986.4951,1078.9727,1982.4951,1074.9727" style="stroke:#181818;stroke-width:1.0;"/><line style="stroke:#181818;stroke-width:1.0;stroke-dasharray:2.0,2.0;" x1="1980.4951" x2="2222.1621" y1="1074.9727" y2="1074.9727"/><text fill="#000000" font-family="sans-serif" font-size="13" font-weight="bold" lengthAdjust="spacing" textLength="25.3018" x="1992.4951" y="1069.71">5.28</text><text fill="#000000" font-family="sans-serif" font-size="13" lengthAdjust="spacing" textLength="46.96" x="2021.7969" y="1069.71">success</text><polygon fill="#181818" points="1691.1973,1102.2637,1681.1973,1106.2637,1691.1973,1110.2637,1687.1973,1106.2637" style="stroke:#181818;stroke-width:1.0;"/><line style="stroke:#181818;stroke-width:1.0;stroke-dasharray:2.0,2.0;" x1="1685.1973" x2="1969.4951" y1="1106.2637" y2="1106.2637"/><text fill="#000000" font-family="sans-serif" font-size="13" font-weight="bold" lengthAdjust="spacing" textLength="25.3018" x="1697.1973" y="1101.001">5.29</text><text fill="#000000" font-family="sans-serif" font-size="13" lengthAdjust="spacing" textLength="46.96" x="1726.499" y="1101.001">success</text><polygon fill="#181818" points="1339.5386,1133.5547,1329.5386,1137.5547,1339.5386,1141.5547,1335.5386,1137.5547" style="stroke:#181818;stroke-width:1.0;"/><line style="stroke:#181818;stroke-width:1.0;stroke-dasharray:2.0,2.0;" x1="1333.5386" x2="1674.1973" y1="1137.5547" y2="1137.5547"/><text fill="#000000" font-family="sans-serif" font-size="13" font-weight="bold" lengthAdjust="spacing" textLength="25.3018" x="1345.5386" y="1132.292">5.30</text><text fill="#000000" font-family="sans-serif" font-size="13" lengthAdjust="spacing" textLength="46.96" x="1374.8403" y="1132.292">success</text><polygon fill="#181818" points="1060.8525,1164.8457,1050.8525,1168.8457,1060.8525,1172.8457,1056.8525,1168.8457" style="stroke:#181818;stroke-width:1.0;"/><line style="stroke:#181818;stroke-width:1.0;stroke-dasharray:2.0,2.0;" x1="1054.8525" x2="1322.5386" y1="1168.8457" y2="1168.8457"/><text fill="#000000" font-family="sans-serif" font-size="13" font-weight="bold" lengthAdjust="spacing" textLength="25.3018" x="1066.8525" y="1163.583">5.31</text><text fill="#000000" font-family="sans-serif" font-size="13" lengthAdjust="spacing" textLength="46.96" x="1096.1543" y="1163.583">success</text><polygon fill="#181818" points="712.8057,1196.1367,702.8057,1200.1367,712.8057,1204.1367,708.8057,1200.1367" style="stroke:#181818;stroke-width:1.0;"/><line style="stroke:#181818;stroke-width:1.0;stroke-dasharray:2.0,2.0;" x1="706.8057" x2="1043.8525" y1="1200.1367" y2="1200.1367"/><text fill="#000000" font-family="sans-serif" font-size="13" font-weight="bold" lengthAdjust="spacing" textLength="25.3018" x="718.8057" y="1194.874">5.32</text><text fill="#000000" font-family="sans-serif" font-size="13" lengthAdjust="spacing" textLength="46.96" x="748.1074" y="1194.874">success</text><polygon fill="#181818" points="269.4243,1227.4277,259.4243,1231.4277,269.4243,1235.4277,265.4243,1231.4277" style="stroke:#181818;stroke-width:1.0;"/><line style="stroke:#181818;stroke-width:1.0;stroke-dasharray:2.0,2.0;" x1="263.4243" x2="695.8057" y1="1231.4277" y2="1231.4277"/><text fill="#000000" font-family="sans-serif" font-size="13" font-weight="bold" lengthAdjust="spacing" textLength="25.3018" x="275.4243" y="1226.165">5.33</text><text fill="#000000" font-family="sans-serif" font-size="13" lengthAdjust="spacing" textLength="46.96" x="304.7261" y="1226.165">success</text><polygon fill="#181818" points="11,1265.7188,1,1269.7188,11,1273.7188,7,1269.7188" style="stroke:#181818;stroke-width:1.0;"/><line style="stroke:#181818;stroke-width:1.0;stroke-dasharray:2.0,2.0;" x1="5" x2="252.4243" y1="1269.7188" y2="1269.7188"/><text fill="#000000" font-family="sans-serif" font-size="13" font-weight="bold" lengthAdjust="spacing" textLength="7.23" x="17" y="1264.4561">6</text><text fill="#000000" font-family="sans-serif" font-size="13" lengthAdjust="spacing" textLength="46.96" x="28.23" y="1264.4561">success</text><!--SRC=[jLTTQzim57tthn1zIg0Px65x26EmfXaKGXkYzg4m29gjfgQsP2Ix8_z- -h8ikPBjXDHFjdJkELVtGvBvMqugn509Iafe-ifeYK7D6fnmErEXz0qTCAoF1GOCfpKYXy85y5UKqNyvEO0NL72S96AupjEyGgG6LykRvhYXAIrfdR_Z5IKreqM1sHL07AmUTniVdZQCOL93p7bEoH-oVEAOcIzjyhJRhUyVzt0DuTt3lMzTMA7RnmTXl76_bVdcORKNxp6p7QuepslAZfvrDsn9Tkjjb8LxnhorWJ6y1s_HFfYdc22MKm65vbK1uQeNWgf0Hyoa1rlzfc3RpJCCuIpCe7uzhtSXtCPRsxO_vbZlrK8JrDIKDELVpC2tPF5JPNe9geQbhuZZpdJcfMpk6txvcg1KJA4Qwr81uZamsbHWQvX0HvMeQVb8B92YVgqimG7NArDW9eYpkRNgf7eb1fodDmSMTcrjXYmymr76KppLmRwSdpgXPtbfcaTvTuzAV7SRSgjjCTSTC-QuqULTCuKSQfc2ZiW6L9u4YqcJHhnJlTjtJmuQRZYTjyyDlHd33TMwEwSxEW_jhnn6F0n4C1OxjSw1u0ssuxMfb6jRsUT7ysoXgU5LGa6TOUu-_uT98s4LH5riMPxYsJm87UMoVDPboHQ4-ibCXbmJfy0IY8N3vkL5xDnYr_ZTa8pF5FbOV3_uBi-KgFDYKYhA0sLSSXwbiMBgP8h2v2CHMbAUBt7H-I2B8wWEkH59YL59qWjLTw8X2oTPOm9wFMtMeimUOon6AXjjAKsXYkRMhIIKPMu7wOnERzXWGKsgfud2dr9M8zgVK5sTDiCbVSStJIQsbtEAUN8jQxbBLdDeGNkzw_iHFJEK- -2kF-gmkOQUrEIyILFnft7PoBYzVhB0K0rxhJ_4FBdxxN4TO-kTI1DkEY6c4wyvVOhe7GUJJByuln3VrS2FnKBVVZeszzeh_op-0m00]--></g></svg>