<svg xmlns="http://www.w3.org/2000/svg" xmlns:xlink="http://www.w3.org/1999/xlink" contentStyleType="text/css" height="767px" preserveAspectRatio="none" style="width:742px;height:767px;background:#FFFFFF;" version="1.1" viewBox="0 0 742 767" width="742px" zoomAndPan="magnify"><defs/><g><rect fill="#FFFFFF" height="573.1602" style="stroke:#181818;stroke-width:1.0;" width="10" x="22.8413" y="93.6211"/><rect fill="#FFFFFF" height="203.0371" style="stroke:#181818;stroke-width:1.0;" width="10" x="365.0527" y="116.9121"/><rect fill="#FFFFFF" height="142.125" style="stroke:#181818;stroke-width:1.0;" width="10" x="365.0527" y="351.2402"/><rect fill="#FFFFFF" height="142.125" style="stroke:#181818;stroke-width:1.0;" width="10" x="365.0527" y="524.6563"/><rect fill="#FFFFFF" height="79.543" style="stroke:#181818;stroke-width:1.0;" width="10" x="630.707" y="191.8242"/><rect fill="#FFFFFF" height="79.543" style="stroke:#181818;stroke-width:1.0;" width="10" x="630.707" y="382.5313"/><rect fill="#FFFFFF" height="79.543" style="stroke:#181818;stroke-width:1.0;" width="10" x="630.707" y="555.9473"/><line style="stroke:#181818;stroke-width:0.5;stroke-dasharray:5.0,5.0;" x1="27" x2="27" y1="83.6211" y2="684.7813"/><line style="stroke:#181818;stroke-width:0.5;stroke-dasharray:5.0,5.0;" x1="369.2495" x2="369.2495" y1="83.6211" y2="684.7813"/><line style="stroke:#181818;stroke-width:0.5;stroke-dasharray:5.0,5.0;" x1="635.5591" x2="635.5591" y1="156.7227" y2="684.7813"/><text fill="#000000" font-family="sans-serif" font-size="14" lengthAdjust="spacing" textLength="39.6826" x="5" y="80.1074">Player</text><ellipse cx="27.8413" cy="13.5" fill="#E3E3E3" rx="8" ry="8" style="stroke:#181818;stroke-width:0.5;"/><path d="M27.8413,21.5 L27.8413,48.5 M14.8413,29.5 L40.8413,29.5 M27.8413,48.5 L14.8413,63.5 M27.8413,48.5 L40.8413,63.5 " fill="none" style="stroke:#181818;stroke-width:0.5;"/><text fill="#000000" font-family="sans-serif" font-size="14" lengthAdjust="spacing" textLength="39.6826" x="5" y="698.8887">Player</text><ellipse cx="27.8413" cy="710.9023" fill="#E3E3E3" rx="8" ry="8" style="stroke:#181818;stroke-width:0.5;"/><path d="M27.8413,718.9023 L27.8413,745.9023 M14.8413,726.9023 L40.8413,726.9023 M27.8413,745.9023 L14.8413,760.9023 M27.8413,745.9023 L40.8413,760.9023 " fill="none" style="stroke:#181818;stroke-width:0.5;"/><rect fill="#E3E3E3" height="32.6211" rx="2.5" ry="2.5" style="stroke:#181818;stroke-width:0.5;" width="127.6064" x="306.2495" y="50"/><text fill="#000000" font-family="sans-serif" font-size="14" lengthAdjust="spacing" textLength="113.6064" x="313.2495" y="72.1074">:BuyLocomotiveUI</text><rect fill="#E3E3E3" height="32.6211" rx="2.5" ry="2.5" style="stroke:#181818;stroke-width:0.5;" width="127.6064" x="306.2495" y="683.7813"/><text fill="#000000" font-family="sans-serif" font-size="14" lengthAdjust="spacing" textLength="113.6064" x="313.2495" y="705.8887">:BuyLocomotiveUI</text><rect fill="#E3E3E3" height="32.6211" rx="2.5" ry="2.5" style="stroke:#181818;stroke-width:0.5;" width="174.2959" x="548.5591" y="683.7813"/><text fill="#000000" font-family="sans-serif" font-size="14" lengthAdjust="spacing" textLength="160.2959" x="555.5591" y="705.8887">:BuyLocomotiveController</text><rect fill="#FFFFFF" height="573.1602" style="stroke:#181818;stroke-width:1.0;" width="10" x="22.8413" y="93.6211"/><rect fill="#FFFFFF" height="203.0371" style="stroke:#181818;stroke-width:1.0;" width="10" x="365.0527" y="116.9121"/><rect fill="#FFFFFF" height="142.125" style="stroke:#181818;stroke-width:1.0;" width="10" x="365.0527" y="351.2402"/><rect fill="#FFFFFF" height="142.125" style="stroke:#181818;stroke-width:1.0;" width="10" x="365.0527" y="524.6563"/><rect fill="#FFFFFF" height="79.543" style="stroke:#181818;stroke-width:1.0;" width="10" x="630.707" y="191.8242"/><rect fill="#FFFFFF" height="79.543" style="stroke:#181818;stroke-width:1.0;" width="10" x="630.707" y="382.5313"/><rect fill="#FFFFFF" height="79.543" style="stroke:#181818;stroke-width:1.0;" width="10" x="630.707" y="555.9473"/><polygon fill="#181818" points="353.0527,112.9121,363.0527,116.9121,353.0527,120.9121,357.0527,116.9121" style="stroke:#181818;stroke-width:1.0;"/><line style="stroke:#181818;stroke-width:1.0;" x1="32.8413" x2="359.0527" y1="116.9121" y2="116.9121"/><text fill="#000000" font-family="sans-serif" font-size="13" font-weight="bold" lengthAdjust="spacing" textLength="7.23" x="39.8413" y="111.6494">1</text><text fill="#000000" font-family="sans-serif" font-size="13" lengthAdjust="spacing" textLength="142.3462" x="51.0713" y="111.6494">asks to buy a locomotive</text><polygon fill="#181818" points="536.5591,144.2031,546.5591,148.2031,536.5591,152.2031,540.5591,148.2031" style="stroke:#181818;stroke-width:1.0;"/><line style="stroke:#181818;stroke-width:1.0;stroke-dasharray:2.0,2.0;" x1="375.0527" x2="542.5591" y1="148.2031" y2="148.2031"/><text fill="#000000" font-family="sans-serif" font-size="13" font-weight="bold" lengthAdjust="spacing" textLength="7.23" x="382.0527" y="142.9404">2</text><text fill="#000000" font-family="sans-serif" font-size="13" lengthAdjust="spacing" textLength="44.7891" x="393.2827" y="142.9404">create()</text><rect fill="#E3E3E3" height="32.6211" rx="2.5" ry="2.5" style="stroke:#181818;stroke-width:0.5;" width="174.2959" x="548.5591" y="124.9121"/><text fill="#000000" font-family="sans-serif" font-size="14" lengthAdjust="spacing" textLength="160.2959" x="555.5591" y="147.0195">:BuyLocomotiveController</text><polygon fill="#181818" points="618.707,187.8242,628.707,191.8242,618.707,195.8242,622.707,191.8242" style="stroke:#181818;stroke-width:1.0;"/><line style="stroke:#181818;stroke-width:1.0;" x1="375.0527" x2="624.707" y1="191.8242" y2="191.8242"/><text fill="#000000" font-family="sans-serif" font-size="13" font-weight="bold" lengthAdjust="spacing" textLength="7.23" x="382.0527" y="186.5615">3</text><text fill="#000000" font-family="sans-serif" font-size="13" lengthAdjust="spacing" textLength="152.4644" x="393.2827" y="186.5615">getAvailableLocomotives()</text><rect fill="none" height="43.252" style="stroke:#000000;stroke-width:1.5;" width="191.4102" x="545.5591" y="199.8242"/><path d="M545.5591,199.8242 L606.5591,199.8242 L606.5591,208.8242 L596.5591,218.8242 L545.5591,218.8242 L545.5591,199.8242 " fill="#EEEEEE" style="stroke:#000000;stroke-width:2.0;"/><text fill="#000000" font-family="sans-serif" font-size="13" font-weight="bold" lengthAdjust="spacing" textLength="16.6182" x="558.5591" y="215.8525">ref</text><text fill="#000000" font-family="sans-serif" font-size="12" lengthAdjust="spacing" textLength="183.4102" x="549.5591" y="235.7734">Get Available LocomotiveDTO List</text><polygon fill="#181818" points="386.0527,267.3672,376.0527,271.3672,386.0527,275.3672,382.0527,271.3672" style="stroke:#181818;stroke-width:1.0;"/><line style="stroke:#181818;stroke-width:1.0;stroke-dasharray:2.0,2.0;" x1="380.0527" x2="634.707" y1="271.3672" y2="271.3672"/><text fill="#000000" font-family="sans-serif" font-size="13" font-weight="bold" lengthAdjust="spacing" textLength="7.23" x="392.0527" y="266.1045">4</text><text fill="#000000" font-family="sans-serif" font-size="13" lengthAdjust="spacing" textLength="162.5635" x="403.2827" y="266.1045">listAvailableLocomotiveDTO</text><polygon fill="#181818" points="43.8413,315.9492,33.8413,319.9492,43.8413,323.9492,39.8413,319.9492" style="stroke:#181818;stroke-width:1.0;"/><line style="stroke:#181818;stroke-width:1.0;stroke-dasharray:2.0,2.0;" x1="37.8413" x2="369.0527" y1="319.9492" y2="319.9492"/><text fill="#000000" font-family="sans-serif" font-size="13" font-weight="bold" lengthAdjust="spacing" textLength="7.23" x="49.8413" y="306.041">5</text><text fill="#000000" font-family="sans-serif" font-size="13" lengthAdjust="spacing" textLength="208.8188" x="61.0713" y="297.3955">shows a list of available locomotives</text><text fill="#000000" font-family="sans-serif" font-size="13" lengthAdjust="spacing" textLength="196.5488" x="64.6831" y="314.6865">(for the scenario and current date)</text><polygon fill="#181818" points="353.0527,347.2402,363.0527,351.2402,353.0527,355.2402,357.0527,351.2402" style="stroke:#181818;stroke-width:1.0;"/><line style="stroke:#181818;stroke-width:1.0;" x1="32.8413" x2="359.0527" y1="351.2402" y2="351.2402"/><text fill="#000000" font-family="sans-serif" font-size="13" font-weight="bold" lengthAdjust="spacing" textLength="7.23" x="39.8413" y="345.9775">6</text><text fill="#000000" font-family="sans-serif" font-size="13" lengthAdjust="spacing" textLength="117.0508" x="51.0713" y="345.9775">selects a locomotive</text><polygon fill="#181818" points="618.707,378.5313,628.707,382.5313,618.707,386.5313,622.707,382.5313" style="stroke:#181818;stroke-width:1.0;"/><line style="stroke:#181818;stroke-width:1.0;" x1="375.0527" x2="624.707" y1="382.5313" y2="382.5313"/><text fill="#000000" font-family="sans-serif" font-size="13" font-weight="bold" lengthAdjust="spacing" textLength="7.23" x="382.0527" y="377.2686">7</text><text fill="#000000" font-family="sans-serif" font-size="13" lengthAdjust="spacing" textLength="182.7871" x="393.2827" y="377.2686">getLocomotive(locomotiveDTO)</text><rect fill="none" height="43.252" style="stroke:#000000;stroke-width:1.5;" width="180.2959" x="545.5591" y="390.5313"/><path d="M545.5591,390.5313 L606.5591,390.5313 L606.5591,399.5313 L596.5591,409.5313 L545.5591,409.5313 L545.5591,390.5313 " fill="#EEEEEE" style="stroke:#000000;stroke-width:2.0;"/><text fill="#000000" font-family="sans-serif" font-size="13" font-weight="bold" lengthAdjust="spacing" textLength="16.6182" x="558.5591" y="406.5596">ref</text><text fill="#000000" font-family="sans-serif" font-size="12" lengthAdjust="spacing" textLength="109.3711" x="581.0215" y="426.4805">Get LocomotiveDTO</text><polygon fill="#181818" points="386.0527,458.0742,376.0527,462.0742,386.0527,466.0742,382.0527,462.0742" style="stroke:#181818;stroke-width:1.0;"/><line style="stroke:#181818;stroke-width:1.0;stroke-dasharray:2.0,2.0;" x1="380.0527" x2="634.707" y1="462.0742" y2="462.0742"/><text fill="#000000" font-family="sans-serif" font-size="13" font-weight="bold" lengthAdjust="spacing" textLength="7.23" x="392.0527" y="456.8115">8</text><text fill="#000000" font-family="sans-serif" font-size="13" lengthAdjust="spacing" textLength="89.5781" x="403.2827" y="456.8115">locomotiveDTO</text><polygon fill="#181818" points="43.8413,489.3652,33.8413,493.3652,43.8413,497.3652,39.8413,493.3652" style="stroke:#181818;stroke-width:1.0;"/><line style="stroke:#181818;stroke-width:1.0;stroke-dasharray:2.0,2.0;" x1="37.8413" x2="369.0527" y1="493.3652" y2="493.3652"/><text fill="#000000" font-family="sans-serif" font-size="13" font-weight="bold" lengthAdjust="spacing" textLength="7.23" x="49.8413" y="488.1025">9</text><text fill="#000000" font-family="sans-serif" font-size="13" lengthAdjust="spacing" textLength="296.9814" x="61.0713" y="488.1025">shows locomotive details and requests confirmation</text><polygon fill="#181818" points="353.0527,520.6563,363.0527,524.6563,353.0527,528.6563,357.0527,524.6563" style="stroke:#181818;stroke-width:1.0;"/><line style="stroke:#181818;stroke-width:1.0;" x1="32.8413" x2="359.0527" y1="524.6563" y2="524.6563"/><text fill="#000000" font-family="sans-serif" font-size="13" font-weight="bold" lengthAdjust="spacing" textLength="14.46" x="39.8413" y="519.3936">10</text><text fill="#000000" font-family="sans-serif" font-size="13" lengthAdjust="spacing" textLength="106.209" x="58.3013" y="519.3936">confirms purchase</text><polygon fill="#181818" points="618.707,551.9473,628.707,555.9473,618.707,559.9473,622.707,555.9473" style="stroke:#181818;stroke-width:1.0;"/><line style="stroke:#181818;stroke-width:1.0;" x1="375.0527" x2="624.707" y1="555.9473" y2="555.9473"/><text fill="#000000" font-family="sans-serif" font-size="13" font-weight="bold" lengthAdjust="spacing" textLength="14.46" x="382.0527" y="550.6846">11</text><text fill="#000000" font-family="sans-serif" font-size="13" lengthAdjust="spacing" textLength="218.1943" x="400.5127" y="550.6846">purchaseLocomotive(locomotiveDTO)</text><rect fill="none" height="43.252" style="stroke:#000000;stroke-width:1.5;" width="180.2959" x="545.5591" y="563.9473"/><path d="M545.5591,563.9473 L606.5591,563.9473 L606.5591,572.9473 L596.5591,582.9473 L545.5591,582.9473 L545.5591,563.9473 " fill="#EEEEEE" style="stroke:#000000;stroke-width:2.0;"/><text fill="#000000" font-family="sans-serif" font-size="13" font-weight="bold" lengthAdjust="spacing" textLength="16.6182" x="558.5591" y="579.9756">ref</text><text fill="#000000" font-family="sans-serif" font-size="12" lengthAdjust="spacing" textLength="115.3945" x="578.0098" y="599.8965">Purchase Locomotive</text><polygon fill="#181818" points="386.0527,631.4902,376.0527,635.4902,386.0527,639.4902,382.0527,635.4902" style="stroke:#181818;stroke-width:1.0;"/><line style="stroke:#181818;stroke-width:1.0;stroke-dasharray:2.0,2.0;" x1="380.0527" x2="634.707" y1="635.4902" y2="635.4902"/><text fill="#000000" font-family="sans-serif" font-size="13" font-weight="bold" lengthAdjust="spacing" textLength="14.46" x="392.0527" y="630.2275">12</text><text fill="#000000" font-family="sans-serif" font-size="13" lengthAdjust="spacing" textLength="46.96" x="410.5127" y="630.2275">success</text><polygon fill="#181818" points="38.8413,662.7813,28.8413,666.7813,38.8413,670.7813,34.8413,666.7813" style="stroke:#181818;stroke-width:1.0;"/><line style="stroke:#181818;stroke-width:1.0;stroke-dasharray:2.0,2.0;" x1="32.8413" x2="369.0527" y1="666.7813" y2="666.7813"/><text fill="#000000" font-family="sans-serif" font-size="13" font-weight="bold" lengthAdjust="spacing" textLength="14.46" x="44.8413" y="661.5186">13</text><text fill="#000000" font-family="sans-serif" font-size="13" lengthAdjust="spacing" textLength="155.3589" x="63.3013" y="661.5186">displays operation success</text><!--SRC=[hPJFRjim3CRlVWeYbsK5yW8v3EYwOIWGO47N7WRimiXqB4GMFL5AbxSVupYoqwM3zqSd6_huaVfzWcHdVOi16sZOiwa3DmGn92eaxxHeThYbB_7W20APY7xhnWAfiUHdwxTGeHCg2aoHVMes58hYJMrBWeevRlX7WIPoWDdQuO72351WlRhz-l6XKATeZMtHHvWjtwV3YWqt7EsUdkuxuTFzxqHtx6DWvthNkyU7LN7iPlSOwToa05sdRrYyKqTOgdWd41aswG08BXjsscoWpQ5VMhNGucE7cnirC85KCNzx8JZjw-wMukqUhSEDes5QKNdM1wg0znHEGyDeVQ88kHg6yW-Fds5b9MOn-V9eCtZcmN_nxEPQd4_lrENAVDeW5vLqQVOIHCzpgTU0d-N8K3s1Ay0y-K1LldcOLte5OaqWXZm6ou0wlaaXaEPQQgCJor5ZnNyjEo6drr6cvpQEPJZjt8qFFWGvCQ7hsFu-al-Hmc2YbL5pa0voeE-9H8aPzfKD3KRBVYBilaIWJS7KA1D9dzMluvw0UTsRZ5Z_EsX9nf38doCkhRJwW0bmIw53UE7r0kNejt-6VW80]--></g></svg>