<svg xmlns="http://www.w3.org/2000/svg" xmlns:xlink="http://www.w3.org/1999/xlink" contentStyleType="text/css" height="488px" preserveAspectRatio="none" style="width:412px;height:488px;background:#FFFFFF;" version="1.1" viewBox="0 0 412 488" width="412px" zoomAndPan="magnify"><defs/><g><rect fill="#FFFFFF" height="303.2012" style="stroke:#181818;stroke-width:1.0;" width="10" x="22.8413" y="93.6211"/><rect fill="#FFFFFF" height="48.582" style="stroke:#181818;stroke-width:1.0;" width="10" x="369.3882" y="116.9121"/><rect fill="#FFFFFF" height="48.582" style="stroke:#181818;stroke-width:1.0;" width="10" x="369.3882" y="196.7852"/><rect fill="#FFFFFF" height="31.291" style="stroke:#181818;stroke-width:1.0;" width="10" x="369.3882" y="276.6582"/><rect fill="#FFFFFF" height="48.582" style="stroke:#181818;stroke-width:1.0;" width="10" x="369.3882" y="339.2402"/><line style="stroke:#181818;stroke-width:0.5;stroke-dasharray:5.0,5.0;" x1="27" x2="27" y1="83.6211" y2="405.8223"/><line style="stroke:#181818;stroke-width:0.5;stroke-dasharray:5.0,5.0;" x1="374.1055" x2="374.1055" y1="83.6211" y2="405.8223"/><text fill="#000000" font-family="sans-serif" font-size="14" lengthAdjust="spacing" textLength="39.6826" x="5" y="80.1074">Player</text><ellipse cx="27.8413" cy="13.5" fill="#E3E3E3" rx="8" ry="8" style="stroke:#181818;stroke-width:0.5;"/><path d="M27.8413,21.5 L27.8413,48.5 M14.8413,29.5 L40.8413,29.5 M27.8413,48.5 L14.8413,63.5 M27.8413,48.5 L40.8413,63.5 " fill="none" style="stroke:#181818;stroke-width:0.5;"/><text fill="#000000" font-family="sans-serif" font-size="14" lengthAdjust="spacing" textLength="39.6826" x="5" y="419.9297">Player</text><ellipse cx="27.8413" cy="431.9434" fill="#E3E3E3" rx="8" ry="8" style="stroke:#181818;stroke-width:0.5;"/><path d="M27.8413,439.9434 L27.8413,466.9434 M14.8413,447.9434 L40.8413,447.9434 M27.8413,466.9434 L14.8413,481.9434 M27.8413,466.9434 L40.8413,481.9434 " fill="none" style="stroke:#181818;stroke-width:0.5;"/><rect fill="#E3E3E3" height="32.6211" rx="2.5" ry="2.5" style="stroke:#181818;stroke-width:0.5;" width="64.5654" x="342.1055" y="50"/><text fill="#000000" font-family="sans-serif" font-size="14" lengthAdjust="spacing" textLength="50.5654" x="349.1055" y="72.1074">:System</text><rect fill="#E3E3E3" height="32.6211" rx="2.5" ry="2.5" style="stroke:#181818;stroke-width:0.5;" width="64.5654" x="342.1055" y="404.8223"/><text fill="#000000" font-family="sans-serif" font-size="14" lengthAdjust="spacing" textLength="50.5654" x="349.1055" y="426.9297">:System</text><rect fill="#FFFFFF" height="303.2012" style="stroke:#181818;stroke-width:1.0;" width="10" x="22.8413" y="93.6211"/><rect fill="#FFFFFF" height="48.582" style="stroke:#181818;stroke-width:1.0;" width="10" x="369.3882" y="116.9121"/><rect fill="#FFFFFF" height="48.582" style="stroke:#181818;stroke-width:1.0;" width="10" x="369.3882" y="196.7852"/><rect fill="#FFFFFF" height="31.291" style="stroke:#181818;stroke-width:1.0;" width="10" x="369.3882" y="276.6582"/><rect fill="#FFFFFF" height="48.582" style="stroke:#181818;stroke-width:1.0;" width="10" x="369.3882" y="339.2402"/><polygon fill="#181818" points="357.3882,112.9121,367.3882,116.9121,357.3882,120.9121,361.3882,116.9121" style="stroke:#181818;stroke-width:1.0;"/><line style="stroke:#181818;stroke-width:1.0;" x1="32.8413" x2="363.3882" y1="116.9121" y2="116.9121"/><text fill="#000000" font-family="sans-serif" font-size="13" font-weight="bold" lengthAdjust="spacing" textLength="7.23" x="39.8413" y="111.6494">1</text><text fill="#000000" font-family="sans-serif" font-size="13" lengthAdjust="spacing" textLength="241.3315" x="51.0713" y="111.6494">asks to verify train travel between stations</text><polygon fill="#181818" points="43.8413,161.4941,33.8413,165.4941,43.8413,169.4941,39.8413,165.4941" style="stroke:#181818;stroke-width:1.0;"/><line style="stroke:#181818;stroke-width:1.0;stroke-dasharray:2.0,2.0;" x1="37.8413" x2="373.3882" y1="165.4941" y2="165.4941"/><text fill="#000000" font-family="sans-serif" font-size="13" font-weight="bold" lengthAdjust="spacing" textLength="7.23" x="49.8413" y="151.5859">2</text><text fill="#000000" font-family="sans-serif" font-size="13" lengthAdjust="spacing" textLength="292.6206" x="61.0713" y="142.9404">shows available train types (steam, diesel, electric)</text><text fill="#000000" font-family="sans-serif" font-size="13" lengthAdjust="spacing" textLength="130.0825" x="61.0713" y="160.2314">and requests selection</text><polygon fill="#181818" points="357.3882,192.7852,367.3882,196.7852,357.3882,200.7852,361.3882,196.7852" style="stroke:#181818;stroke-width:1.0;"/><line style="stroke:#181818;stroke-width:1.0;" x1="32.8413" x2="363.3882" y1="196.7852" y2="196.7852"/><text fill="#000000" font-family="sans-serif" font-size="13" font-weight="bold" lengthAdjust="spacing" textLength="7.23" x="39.8413" y="191.5225">3</text><text fill="#000000" font-family="sans-serif" font-size="13" lengthAdjust="spacing" textLength="97.5444" x="51.0713" y="191.5225">selects train type</text><polygon fill="#181818" points="43.8413,241.3672,33.8413,245.3672,43.8413,249.3672,39.8413,245.3672" style="stroke:#181818;stroke-width:1.0;"/><line style="stroke:#181818;stroke-width:1.0;stroke-dasharray:2.0,2.0;" x1="37.8413" x2="373.3882" y1="245.3672" y2="245.3672"/><text fill="#000000" font-family="sans-serif" font-size="13" font-weight="bold" lengthAdjust="spacing" textLength="7.23" x="49.8413" y="231.459">4</text><text fill="#000000" font-family="sans-serif" font-size="13" lengthAdjust="spacing" textLength="301.3169" x="61.0713" y="222.8135">displays network visualization with stations and lines</text><text fill="#000000" font-family="sans-serif" font-size="13" lengthAdjust="spacing" textLength="190.7471" x="61.0713" y="240.1045">(electrified lines in different color)</text><polygon fill="#181818" points="357.3882,272.6582,367.3882,276.6582,357.3882,280.6582,361.3882,276.6582" style="stroke:#181818;stroke-width:1.0;"/><line style="stroke:#181818;stroke-width:1.0;" x1="32.8413" x2="363.3882" y1="276.6582" y2="276.6582"/><text fill="#000000" font-family="sans-serif" font-size="13" font-weight="bold" lengthAdjust="spacing" textLength="7.23" x="39.8413" y="271.3955">5</text><text fill="#000000" font-family="sans-serif" font-size="13" lengthAdjust="spacing" textLength="117.7808" x="51.0713" y="271.3955">selects origin station</text><polygon fill="#181818" points="43.8413,303.9492,33.8413,307.9492,43.8413,311.9492,39.8413,307.9492" style="stroke:#181818;stroke-width:1.0;"/><line style="stroke:#181818;stroke-width:1.0;stroke-dasharray:2.0,2.0;" x1="37.8413" x2="373.3882" y1="307.9492" y2="307.9492"/><text fill="#000000" font-family="sans-serif" font-size="13" font-weight="bold" lengthAdjust="spacing" textLength="7.23" x="49.8413" y="302.6865">6</text><text fill="#000000" font-family="sans-serif" font-size="13" lengthAdjust="spacing" textLength="213.186" x="61.0713" y="302.6865">requests destination station selection</text><polygon fill="#181818" points="357.3882,335.2402,367.3882,339.2402,357.3882,343.2402,361.3882,339.2402" style="stroke:#181818;stroke-width:1.0;"/><line style="stroke:#181818;stroke-width:1.0;" x1="32.8413" x2="363.3882" y1="339.2402" y2="339.2402"/><text fill="#000000" font-family="sans-serif" font-size="13" font-weight="bold" lengthAdjust="spacing" textLength="7.23" x="39.8413" y="333.9775">7</text><text fill="#000000" font-family="sans-serif" font-size="13" lengthAdjust="spacing" textLength="148.8652" x="51.0713" y="333.9775">selects destination station</text><polygon fill="#181818" points="43.8413,383.8223,33.8413,387.8223,43.8413,391.8223,39.8413,387.8223" style="stroke:#181818;stroke-width:1.0;"/><line style="stroke:#181818;stroke-width:1.0;stroke-dasharray:2.0,2.0;" x1="37.8413" x2="373.3882" y1="387.8223" y2="387.8223"/><text fill="#000000" font-family="sans-serif" font-size="13" font-weight="bold" lengthAdjust="spacing" textLength="7.23" x="49.8413" y="373.9141">8</text><text fill="#000000" font-family="sans-serif" font-size="13" lengthAdjust="spacing" textLength="219.667" x="61.0713" y="365.2686">displays if the selected train can travel</text><text fill="#000000" font-family="sans-serif" font-size="13" lengthAdjust="spacing" textLength="164.7788" x="61.0713" y="382.5596">between the chosen stations</text><!--SRC=[fL9BRiD02Dtx52YhH4eka4NFK2dRRCWOsyZZ6NV0jjpJb_YdgCqcpImG6k31Uo0rXnOJDj3445sLOaEWgQDCjaYBhiQIBZfwWaHECPJ-CK4gpEF0eOG2lL2MOQSnTCsDalbEOuBTfyUHqWvGO7OpgrLst69Gs9qleoWrKtnsfqhkKMajoC3UxCFfOqc3ivNK0XgXfyJ5QDCZXxljoSEDT20A88hACSY4iG6ldM1v2-J9q9S-PoCN1m7iaJtUFAtmOqi2Uql7vWWvav0_0dbJ9x4xN0E6tBJwwaXKGAQ0zPywvVHqW2VCvZfvwFdw_3bBQxv0C2bYgg5dwT3pzoG83ApLfWxSf_OSIAvXlv0fc9O_i1boBWfAP2jpqSTq-2UXcBZaRIklazgKpSrocAaiQ6-h_GJp3Tcv0Are0JSfvrqwN4_q6jORlQUvAihlS_tBu0S0]--></g></svg>