<svg xmlns="http://www.w3.org/2000/svg" xmlns:xlink="http://www.w3.org/1999/xlink" contentStyleType="text/css" height="291px" preserveAspectRatio="none" style="width:404px;height:291px;background:#FFFFFF;" version="1.1" viewBox="0 0 404 291" width="404px" zoomAndPan="magnify"><defs/><g><rect fill="#FFFFFF" height="127.1641" style="stroke:#181818;stroke-width:1.0;" width="10" x="219.5488" y="90.5332"/><rect fill="#FFFFFF" height="31.291" style="stroke:#181818;stroke-width:1.0;" width="10" x="360.9414" y="148.1152"/><rect fill="none" height="81.873" style="stroke:#000000;stroke-width:1.5;" width="271.8818" x="126.6216" y="105.5332"/><line style="stroke:#181818;stroke-width:0.5;stroke-dasharray:5.0,5.0;" x1="223.6216" x2="223.6216" y1="57.2422" y2="235.6973"/><line style="stroke:#181818;stroke-width:0.5;stroke-dasharray:5.0,5.0;" x1="365.3794" x2="365.3794" y1="57.2422" y2="235.6973"/><rect fill="#E3E3E3" height="32.6211" rx="2.5" ry="2.5" style="stroke:#181818;stroke-width:0.5;" width="175.8545" x="136.6216" y="23.6211"/><text fill="#000000" font-family="sans-serif" font-size="14" lengthAdjust="spacing" textLength="161.8545" x="143.6216" y="45.7285">:CreateScenarioController</text><rect fill="#E3E3E3" height="32.6211" rx="2.5" ry="2.5" style="stroke:#181818;stroke-width:0.5;" width="175.8545" x="136.6216" y="234.6973"/><text fill="#000000" font-family="sans-serif" font-size="14" lengthAdjust="spacing" textLength="161.8545" x="143.6216" y="256.8047">:CreateScenarioController</text><rect fill="#E3E3E3" height="51.2422" rx="2.5" ry="2.5" style="stroke:#181818;stroke-width:0.5;" width="45.124" x="343.3794" y="5"/><text fill="#000000" font-family="sans-serif" font-size="14" lengthAdjust="spacing" textLength="27.2344" x="352.3242" y="27.1074">map</text><text fill="#000000" font-family="sans-serif" font-size="14" lengthAdjust="spacing" textLength="31.124" x="350.3794" y="45.7285">:Map</text><rect fill="#E3E3E3" height="51.2422" rx="2.5" ry="2.5" style="stroke:#181818;stroke-width:0.5;" width="45.124" x="343.3794" y="234.6973"/><text fill="#000000" font-family="sans-serif" font-size="14" lengthAdjust="spacing" textLength="27.2344" x="352.3242" y="256.8047">map</text><text fill="#000000" font-family="sans-serif" font-size="14" lengthAdjust="spacing" textLength="31.124" x="350.3794" y="275.4258">:Map</text><rect fill="#FFFFFF" height="127.1641" style="stroke:#181818;stroke-width:1.0;" width="10" x="219.5488" y="90.5332"/><rect fill="#FFFFFF" height="31.291" style="stroke:#181818;stroke-width:1.0;" width="10" x="360.9414" y="148.1152"/><polygon fill="#181818" points="207.5488,86.5332,217.5488,90.5332,207.5488,94.5332,211.5488,90.5332" style="stroke:#181818;stroke-width:1.0;"/><line style="stroke:#181818;stroke-width:1.0;" x1="0" x2="213.5488" y1="90.5332" y2="90.5332"/><text fill="#000000" font-family="sans-serif" font-size="13" font-weight="bold" lengthAdjust="spacing" textLength="14.46" x="7" y="85.2705">11</text><text fill="#000000" font-family="sans-serif" font-size="13" lengthAdjust="spacing" textLength="182.0889" x="25.46" y="85.2705">getMapIndustries(selectedMap)</text><path d="M126.6216,105.5332 L315.3643,105.5332 L315.3643,114.8242 L305.3643,124.8242 L126.6216,124.8242 L126.6216,105.5332 " fill="#EEEEEE" style="stroke:#000000;stroke-width:1.5;"/><rect fill="none" height="81.873" style="stroke:#000000;stroke-width:1.5;" width="271.8818" x="126.6216" y="105.5332"/><text fill="#000000" font-family="sans-serif" font-size="13" font-weight="bold" lengthAdjust="spacing" textLength="143.7427" x="141.6216" y="120.5615">Get Map Industries List</text><polygon fill="#181818" points="348.9414,144.1152,358.9414,148.1152,348.9414,152.1152,352.9414,148.1152" style="stroke:#181818;stroke-width:1.0;"/><line style="stroke:#181818;stroke-width:1.0;" x1="229.5488" x2="354.9414" y1="148.1152" y2="148.1152"/><text fill="#000000" font-family="sans-serif" font-size="13" font-weight="bold" lengthAdjust="spacing" textLength="25.3018" x="236.5488" y="142.8525">11.1</text><text fill="#000000" font-family="sans-serif" font-size="13" lengthAdjust="spacing" textLength="83.0908" x="265.8506" y="142.8525">getIndustries()</text><polygon fill="#181818" points="240.5488,175.4063,230.5488,179.4063,240.5488,183.4063,236.5488,179.4063" style="stroke:#181818;stroke-width:1.0;"/><line style="stroke:#181818;stroke-width:1.0;stroke-dasharray:2.0,2.0;" x1="234.5488" x2="364.9414" y1="179.4063" y2="179.4063"/><text fill="#000000" font-family="sans-serif" font-size="13" font-weight="bold" lengthAdjust="spacing" textLength="25.3018" x="246.5488" y="174.1436">11.2</text><text fill="#000000" font-family="sans-serif" font-size="13" lengthAdjust="spacing" textLength="65.749" x="275.8506" y="174.1436">industryList</text><polygon fill="#181818" points="11,213.6973,1,217.6973,11,221.6973,7,217.6973" style="stroke:#181818;stroke-width:1.0;"/><line style="stroke:#181818;stroke-width:1.0;stroke-dasharray:2.0,2.0;" x1="5" x2="223.5488" y1="217.6973" y2="217.6973"/><text fill="#000000" font-family="sans-serif" font-size="13" font-weight="bold" lengthAdjust="spacing" textLength="14.46" x="17" y="212.4346">12</text><text fill="#000000" font-family="sans-serif" font-size="13" lengthAdjust="spacing" textLength="65.749" x="35.46" y="212.4346">industryList</text><!--SRC=[RKzDIyD04BtlhnXwieS8yHX4a1n4Q46iHo_ZPaoNRcQNsOdIV-zc0scgljCmyxucdHn751nW21piKS90e3AIISibeZrXJmSzUm8XgyYzNnFI4RlmxRY7J_I9ZCbhTTP5P8LDqmgXqi4IexZG1bO9tfDi01EqRw-xQ_w0yPsRFSPotp- -68EZ1Xw73nAeQrCz51Kqq9DctZDtOr9nb6uI-ToFkhpT_fBTrWQjkgzSPGw5Z5x26E695B82BaQmSqaBOq99owcvonowIjmkhCLzgWmhJBBgKjhDulDLH4T_vCITASFwZRkokQ-gVzrMBkN57m00]--></g></svg>