<svg xmlns="http://www.w3.org/2000/svg" xmlns:xlink="http://www.w3.org/1999/xlink" contentStyleType="text/css" height="1885px" preserveAspectRatio="none" style="width:1403px;height:1885px;background:#FFFFFF;" version="1.1" viewBox="0 0 1403 1885" width="1403px" zoomAndPan="magnify"><defs/><g><!--class ApplicationSession--><g id="elem_ApplicationSession"><rect codeLine="11" fill="#F1F1F1" height="103.8633" id="ApplicationSession" rx="2.5" ry="2.5" style="stroke:#181818;stroke-width:0.5;" width="150.2959" x="7" y="320"/><ellipse cx="22" cy="336" fill="#ADD1B2" rx="11" ry="11" style="stroke:#181818;stroke-width:1.0;"/><path d="M24.7656,331.875 Q24.9219,331.6563 25.1094,331.5469 Q25.2969,331.4375 25.5156,331.4375 Q25.8906,331.4375 26.125,331.7031 Q26.3594,331.9531 26.3594,332.5625 L26.3594,334.0156 Q26.3594,334.625 26.125,334.8906 Q25.8906,335.1563 25.5156,335.1563 Q25.1719,335.1563 24.9688,334.9531 Q24.7656,334.7656 24.6563,334.25 Q24.6094,333.8906 24.4219,333.7031 Q24.0938,333.3281 23.4844,333.1094 Q22.875,332.8906 22.25,332.8906 Q21.4844,332.8906 20.8438,333.2188 Q20.2188,333.5469 19.7188,334.2969 Q19.2344,335.0469 19.2344,336.0781 L19.2344,337.1719 Q19.2344,338.4063 20.125,339.2344 Q21.0156,340.0469 22.6094,340.0469 Q23.5469,340.0469 24.2031,339.7969 Q24.5938,339.6406 25.0156,339.2031 Q25.2813,338.9375 25.4219,338.8594 Q25.5781,338.7813 25.7813,338.7813 Q26.1094,338.7813 26.3594,339.0469 Q26.625,339.2969 26.625,339.6406 Q26.625,339.9844 26.2813,340.3906 Q25.7813,340.9688 24.9844,341.2969 Q23.9063,341.75 22.6094,341.75 Q21.0938,341.75 19.8906,341.125 Q18.9063,340.625 18.2188,339.5625 Q17.5313,338.4844 17.5313,337.2031 L17.5313,336.0469 Q17.5313,334.7188 18.1406,333.5781 Q18.7656,332.4219 19.8594,331.8125 Q20.9531,331.1875 22.1875,331.1875 Q22.9219,331.1875 23.5625,331.3594 Q24.2188,331.5156 24.7656,331.875 Z " fill="#000000"/><text fill="#000000" font-family="sans-serif" font-size="14" lengthAdjust="spacing" textLength="118.2959" x="36" y="341.7969">ApplicationSession</text><line style="stroke:#181818;stroke-width:0.5;" x1="8" x2="156.2959" y1="352" y2="352"/><line style="stroke:#181818;stroke-width:0.5;" x1="8" x2="156.2959" y1="360" y2="360"/><text fill="#000000" font-family="sans-serif" font-size="14" lengthAdjust="spacing" textLength="132.2822" x="13" y="379.1074">-ApplicationSession()</text><text fill="#000000" font-family="sans-serif" font-size="14" lengthAdjust="spacing" text-decoration="underline" textLength="89.8857" x="13" y="397.7285">+getInstance()</text><text fill="#000000" font-family="sans-serif" font-size="14" lengthAdjust="spacing" textLength="133.4512" x="13" y="416.3496">+getCurrentSession()</text></g><!--class UserSession--><g id="elem_UserSession"><rect codeLine="17" fill="#F1F1F1" height="66.6211" id="UserSession" rx="2.5" ry="2.5" style="stroke:#181818;stroke-width:0.5;" width="113.541" x="150" y="530.5"/><ellipse cx="165.9791" cy="546.5" fill="#ADD1B2" rx="11" ry="11" style="stroke:#181818;stroke-width:1.0;"/><path d="M168.7447,542.375 Q168.901,542.1563 169.0885,542.0469 Q169.276,541.9375 169.4947,541.9375 Q169.8697,541.9375 170.1041,542.2031 Q170.3385,542.4531 170.3385,543.0625 L170.3385,544.5156 Q170.3385,545.125 170.1041,545.3906 Q169.8697,545.6563 169.4947,545.6563 Q169.151,545.6563 168.9479,545.4531 Q168.7447,545.2656 168.6354,544.75 Q168.5885,544.3906 168.401,544.2031 Q168.0729,543.8281 167.4635,543.6094 Q166.8541,543.3906 166.2291,543.3906 Q165.4635,543.3906 164.8229,543.7188 Q164.1979,544.0469 163.6979,544.7969 Q163.2135,545.5469 163.2135,546.5781 L163.2135,547.6719 Q163.2135,548.9063 164.1041,549.7344 Q164.9947,550.5469 166.5885,550.5469 Q167.526,550.5469 168.1822,550.2969 Q168.5729,550.1406 168.9947,549.7031 Q169.2604,549.4375 169.401,549.3594 Q169.5572,549.2813 169.7604,549.2813 Q170.0885,549.2813 170.3385,549.5469 Q170.6041,549.7969 170.6041,550.1406 Q170.6041,550.4844 170.2604,550.8906 Q169.7604,551.4688 168.9635,551.7969 Q167.8854,552.25 166.5885,552.25 Q165.0729,552.25 163.8697,551.625 Q162.8854,551.125 162.1979,550.0625 Q161.5104,548.9844 161.5104,547.7031 L161.5104,546.5469 Q161.5104,545.2188 162.1197,544.0781 Q162.7447,542.9219 163.8385,542.3125 Q164.9322,541.6875 166.1666,541.6875 Q166.901,541.6875 167.5416,541.8594 Q168.1979,542.0156 168.7447,542.375 Z " fill="#000000"/><text fill="#000000" font-family="sans-serif" font-size="14" lengthAdjust="spacing" textLength="79.3652" x="180.1967" y="552.2969">UserSession</text><line style="stroke:#181818;stroke-width:0.5;" x1="151" x2="262.541" y1="562.5" y2="562.5"/><line style="stroke:#181818;stroke-width:0.5;" x1="151" x2="262.541" y1="570.5" y2="570.5"/><text fill="#000000" font-family="sans-serif" font-size="14" lengthAdjust="spacing" textLength="101.541" x="156" y="589.6074">+getUsername()</text></g><!--class Editor--><g id="elem_Editor"><rect codeLine="21" fill="#F1F1F1" height="122.4844" id="Editor" rx="2.5" ry="2.5" style="stroke:#181818;stroke-width:0.5;" width="161.0303" x="635.5" y="503"/><ellipse cx="693.479" cy="519" fill="#ADD1B2" rx="11" ry="11" style="stroke:#181818;stroke-width:1.0;"/><path d="M696.2446,514.875 Q696.4009,514.6563 696.5884,514.5469 Q696.7759,514.4375 696.9946,514.4375 Q697.3696,514.4375 697.604,514.7031 Q697.8384,514.9531 697.8384,515.5625 L697.8384,517.0156 Q697.8384,517.625 697.604,517.8906 Q697.3696,518.1563 696.9946,518.1563 Q696.6509,518.1563 696.4478,517.9531 Q696.2446,517.7656 696.1353,517.25 Q696.0884,516.8906 695.9009,516.7031 Q695.5728,516.3281 694.9634,516.1094 Q694.354,515.8906 693.729,515.8906 Q692.9634,515.8906 692.3228,516.2188 Q691.6978,516.5469 691.1978,517.2969 Q690.7134,518.0469 690.7134,519.0781 L690.7134,520.1719 Q690.7134,521.4063 691.604,522.2344 Q692.4946,523.0469 694.0884,523.0469 Q695.0259,523.0469 695.6821,522.7969 Q696.0728,522.6406 696.4946,522.2031 Q696.7603,521.9375 696.9009,521.8594 Q697.0571,521.7813 697.2603,521.7813 Q697.5884,521.7813 697.8384,522.0469 Q698.104,522.2969 698.104,522.6406 Q698.104,522.9844 697.7603,523.3906 Q697.2603,523.9688 696.4634,524.2969 Q695.3853,524.75 694.0884,524.75 Q692.5728,524.75 691.3696,524.125 Q690.3853,523.625 689.6978,522.5625 Q689.0103,521.4844 689.0103,520.2031 L689.0103,519.0469 Q689.0103,517.7188 689.6196,516.5781 Q690.2446,515.4219 691.3384,514.8125 Q692.4321,514.1875 693.6665,514.1875 Q694.4009,514.1875 695.0415,514.3594 Q695.6978,514.5156 696.2446,514.875 Z " fill="#000000"/><text fill="#000000" font-family="sans-serif" font-size="14" lengthAdjust="spacing" textLength="36.5723" x="713.979" y="524.7969">Editor</text><line style="stroke:#181818;stroke-width:0.5;" x1="636.5" x2="795.5303" y1="535" y2="535"/><text fill="#000000" font-family="sans-serif" font-size="14" lengthAdjust="spacing" textLength="115.1582" x="641.5" y="554.1074">-username : String</text><text fill="#000000" font-family="sans-serif" font-size="14" lengthAdjust="spacing" textLength="112.8203" x="641.5" y="572.7285">-password : String</text><line style="stroke:#181818;stroke-width:0.5;" x1="636.5" x2="795.5303" y1="580.2422" y2="580.2422"/><text fill="#000000" font-family="sans-serif" font-size="14" lengthAdjust="spacing" textLength="149.0303" x="641.5" y="599.3496">+addScenario(scenario)</text><text fill="#000000" font-family="sans-serif" font-size="14" lengthAdjust="spacing" textLength="95.3271" x="641.5" y="617.9707">+addMap(map)</text></g><!--class Scenario--><g id="elem_Scenario"><rect codeLine="28" fill="#F1F1F1" height="290.0742" id="Scenario" rx="2.5" ry="2.5" style="stroke:#181818;stroke-width:0.5;" width="367.6055" x="562" y="1036"/><ellipse cx="713.9253" cy="1052" fill="#ADD1B2" rx="11" ry="11" style="stroke:#181818;stroke-width:1.0;"/><path d="M716.6909,1047.875 Q716.8472,1047.6563 717.0347,1047.5469 Q717.2222,1047.4375 717.4409,1047.4375 Q717.8159,1047.4375 718.0503,1047.7031 Q718.2847,1047.9531 718.2847,1048.5625 L718.2847,1050.0156 Q718.2847,1050.625 718.0503,1050.8906 Q717.8159,1051.1563 717.4409,1051.1563 Q717.0972,1051.1563 716.894,1050.9531 Q716.6909,1050.7656 716.5815,1050.25 Q716.5347,1049.8906 716.3472,1049.7031 Q716.019,1049.3281 715.4097,1049.1094 Q714.8003,1048.8906 714.1753,1048.8906 Q713.4097,1048.8906 712.769,1049.2188 Q712.144,1049.5469 711.644,1050.2969 Q711.1597,1051.0469 711.1597,1052.0781 L711.1597,1053.1719 Q711.1597,1054.4063 712.0503,1055.2344 Q712.9409,1056.0469 714.5347,1056.0469 Q715.4722,1056.0469 716.1284,1055.7969 Q716.519,1055.6406 716.9409,1055.2031 Q717.2065,1054.9375 717.3472,1054.8594 Q717.5034,1054.7813 717.7065,1054.7813 Q718.0347,1054.7813 718.2847,1055.0469 Q718.5503,1055.2969 718.5503,1055.6406 Q718.5503,1055.9844 718.2065,1056.3906 Q717.7065,1056.9688 716.9097,1057.2969 Q715.8315,1057.75 714.5347,1057.75 Q713.019,1057.75 711.8159,1057.125 Q710.8315,1056.625 710.144,1055.5625 Q709.4565,1054.4844 709.4565,1053.2031 L709.4565,1052.0469 Q709.4565,1050.7188 710.0659,1049.5781 Q710.6909,1048.4219 711.7847,1047.8125 Q712.8784,1047.1875 714.1128,1047.1875 Q714.8472,1047.1875 715.4878,1047.3594 Q716.144,1047.5156 716.6909,1047.875 Z " fill="#000000"/><text fill="#000000" font-family="sans-serif" font-size="14" lengthAdjust="spacing" textLength="55.2549" x="734.4253" y="1057.7969">Scenario</text><line style="stroke:#181818;stroke-width:0.5;" x1="563" x2="928.6055" y1="1068" y2="1068"/><text fill="#000000" font-family="sans-serif" font-size="14" lengthAdjust="spacing" textLength="101.9238" x="568" y="1087.1074">-nameID : String</text><text fill="#000000" font-family="sans-serif" font-size="14" lengthAdjust="spacing" textLength="102.7031" x="568" y="1105.7285">-startDate : Date</text><text fill="#000000" font-family="sans-serif" font-size="14" lengthAdjust="spacing" textLength="98.834" x="568" y="1124.3496">-endDate : Date</text><text fill="#000000" font-family="sans-serif" font-size="14" lengthAdjust="spacing" textLength="176.6201" x="568" y="1142.9707">-tweakedCityList : List&lt;City&gt;</text><text fill="#000000" font-family="sans-serif" font-size="14" lengthAdjust="spacing" textLength="231.1162" x="568" y="1161.5918">-availableIndustryList : List&lt;Industry&gt;</text><text fill="#000000" font-family="sans-serif" font-size="14" lengthAdjust="spacing" textLength="259.916" x="568" y="1180.2129">-availableLocomotives : List&lt;Locomotive&gt;</text><line style="stroke:#181818;stroke-width:0.5;" x1="563" x2="928.6055" y1="1187.7266" y2="1187.7266"/><text fill="#000000" font-family="sans-serif" font-size="14" lengthAdjust="spacing" textLength="289.0918" x="568" y="1206.834">+Scenario(nameID, editor, startDate, endDate,</text><text fill="#000000" font-family="sans-serif" font-size="14" lengthAdjust="spacing" textLength="340.0469" x="583.5586" y="1225.4551">selectedIndustries, availableLocomotives, mapCityList)</text><text fill="#000000" font-family="sans-serif" font-size="14" lengthAdjust="spacing" textLength="202.6992" x="568" y="1244.0762">+configurePort(port, portImports,</text><text fill="#000000" font-family="sans-serif" font-size="14" lengthAdjust="spacing" textLength="167.2959" x="583.5586" y="1262.6973">portExports, portProduces)</text><text fill="#000000" font-family="sans-serif" font-size="14" lengthAdjust="spacing" textLength="242.4092" x="568" y="1281.3184">+configureGeneratingIndustry(industry,</text><text fill="#000000" font-family="sans-serif" font-size="14" lengthAdjust="spacing" textLength="124.4961" x="583.5586" y="1299.9395">genIndustryFactors)</text><text fill="#000000" font-family="sans-serif" font-size="14" lengthAdjust="spacing" textLength="224.4443" x="568" y="1318.5605">+configureCity(city, cityTrafficRates)</text></g><!--class Map--><g id="elem_Map"><rect codeLine="42" fill="#F1F1F1" height="252.832" id="Map" rx="2.5" ry="2.5" style="stroke:#181818;stroke-width:0.5;" width="351.2266" x="306.5" y="704"/><ellipse cx="464.2461" cy="720" fill="#ADD1B2" rx="11" ry="11" style="stroke:#181818;stroke-width:1.0;"/><path d="M467.0117,715.875 Q467.168,715.6563 467.3555,715.5469 Q467.543,715.4375 467.7617,715.4375 Q468.1367,715.4375 468.3711,715.7031 Q468.6055,715.9531 468.6055,716.5625 L468.6055,718.0156 Q468.6055,718.625 468.3711,718.8906 Q468.1367,719.1563 467.7617,719.1563 Q467.418,719.1563 467.2148,718.9531 Q467.0117,718.7656 466.9023,718.25 Q466.8555,717.8906 466.668,717.7031 Q466.3398,717.3281 465.7305,717.1094 Q465.1211,716.8906 464.4961,716.8906 Q463.7305,716.8906 463.0898,717.2188 Q462.4648,717.5469 461.9648,718.2969 Q461.4805,719.0469 461.4805,720.0781 L461.4805,721.1719 Q461.4805,722.4063 462.3711,723.2344 Q463.2617,724.0469 464.8555,724.0469 Q465.793,724.0469 466.4492,723.7969 Q466.8398,723.6406 467.2617,723.2031 Q467.5273,722.9375 467.668,722.8594 Q467.8242,722.7813 468.0273,722.7813 Q468.3555,722.7813 468.6055,723.0469 Q468.8711,723.2969 468.8711,723.6406 Q468.8711,723.9844 468.5273,724.3906 Q468.0273,724.9688 467.2305,725.2969 Q466.1523,725.75 464.8555,725.75 Q463.3398,725.75 462.1367,725.125 Q461.1523,724.625 460.4648,723.5625 Q459.7773,722.4844 459.7773,721.2031 L459.7773,720.0469 Q459.7773,718.7188 460.3867,717.5781 Q461.0117,716.4219 462.1055,715.8125 Q463.1992,715.1875 464.4336,715.1875 Q465.168,715.1875 465.8086,715.3594 Q466.4648,715.5156 467.0117,715.875 Z " fill="#000000"/><text fill="#000000" font-family="sans-serif" font-size="14" lengthAdjust="spacing" textLength="27.2344" x="484.7461" y="725.7969">Map</text><line style="stroke:#181818;stroke-width:0.5;" x1="307.5" x2="656.7266" y1="736" y2="736"/><text fill="#000000" font-family="sans-serif" font-size="14" lengthAdjust="spacing" textLength="101.9238" x="312.5" y="755.1074">-nameID : String</text><text fill="#000000" font-family="sans-serif" font-size="14" lengthAdjust="spacing" textLength="121.3652" x="312.5" y="773.7285">-cityList : List&lt;City&gt;</text><text fill="#000000" font-family="sans-serif" font-size="14" lengthAdjust="spacing" textLength="175.0752" x="312.5" y="792.3496">-industryList : List&lt;Industry&gt;</text><line style="stroke:#181818;stroke-width:0.5;" x1="307.5" x2="656.7266" y1="799.8633" y2="799.8633"/><text fill="#000000" font-family="sans-serif" font-size="14" lengthAdjust="spacing" textLength="97.6582" x="312.5" y="818.9707">+getIndustries()</text><text fill="#000000" font-family="sans-serif" font-size="14" lengthAdjust="spacing" textLength="71.9688" x="312.5" y="837.5918">+getCities()</text><text fill="#000000" font-family="sans-serif" font-size="14" lengthAdjust="spacing" textLength="328.002" x="312.5" y="856.2129">+createScenario(nameID, editor, startDate, endDate,</text><text fill="#000000" font-family="sans-serif" font-size="14" lengthAdjust="spacing" textLength="274.6748" x="328.0586" y="874.834">selectedIndustries, portImports, portExports,</text><text fill="#000000" font-family="sans-serif" font-size="14" lengthAdjust="spacing" textLength="214.7715" x="328.0586" y="893.4551">portProduces, genIndustryFactors,</text><text fill="#000000" font-family="sans-serif" font-size="14" lengthAdjust="spacing" textLength="323.668" x="328.0586" y="912.0762">availableLocomotives, mapCityList, cityTrafficRates)</text><text fill="#000000" font-family="sans-serif" font-size="14" lengthAdjust="spacing" textLength="149.0303" x="312.5" y="930.6973">+addScenario(scenario)</text><text fill="#000000" font-family="sans-serif" font-size="14" lengthAdjust="spacing" textLength="117.4961" x="312.5" y="949.3184">-validateScenario()</text></g><!--class Industry--><g id="elem_Industry"><rect codeLine="54" fill="#F1F1F1" height="159.7266" id="Industry" rx="2.5" ry="2.5" style="stroke:#181818;stroke-width:0.5;" width="208.8955" x="578.5" y="1451.5"/><ellipse cx="653.7979" cy="1467.5" fill="#ADD1B2" rx="11" ry="11" style="stroke:#181818;stroke-width:1.0;"/><path d="M656.5635,1463.375 Q656.7197,1463.1563 656.9072,1463.0469 Q657.0947,1462.9375 657.3135,1462.9375 Q657.6885,1462.9375 657.9229,1463.2031 Q658.1572,1463.4531 658.1572,1464.0625 L658.1572,1465.5156 Q658.1572,1466.125 657.9229,1466.3906 Q657.6885,1466.6563 657.3135,1466.6563 Q656.9697,1466.6563 656.7666,1466.4531 Q656.5635,1466.2656 656.4541,1465.75 Q656.4072,1465.3906 656.2197,1465.2031 Q655.8916,1464.8281 655.2822,1464.6094 Q654.6729,1464.3906 654.0479,1464.3906 Q653.2822,1464.3906 652.6416,1464.7188 Q652.0166,1465.0469 651.5166,1465.7969 Q651.0322,1466.5469 651.0322,1467.5781 L651.0322,1468.6719 Q651.0322,1469.9063 651.9229,1470.7344 Q652.8135,1471.5469 654.4072,1471.5469 Q655.3447,1471.5469 656.001,1471.2969 Q656.3916,1471.1406 656.8135,1470.7031 Q657.0791,1470.4375 657.2197,1470.3594 Q657.376,1470.2813 657.5791,1470.2813 Q657.9072,1470.2813 658.1572,1470.5469 Q658.4229,1470.7969 658.4229,1471.1406 Q658.4229,1471.4844 658.0791,1471.8906 Q657.5791,1472.4688 656.7822,1472.7969 Q655.7041,1473.25 654.4072,1473.25 Q652.8916,1473.25 651.6885,1472.625 Q650.7041,1472.125 650.0166,1471.0625 Q649.3291,1469.9844 649.3291,1468.7031 L649.3291,1467.5469 Q649.3291,1466.2188 649.9385,1465.0781 Q650.5635,1463.9219 651.6572,1463.3125 Q652.751,1462.6875 653.9854,1462.6875 Q654.7197,1462.6875 655.3604,1462.8594 Q656.0166,1463.0156 656.5635,1463.375 Z " fill="#000000"/><text fill="#000000" font-family="sans-serif" font-size="14" lengthAdjust="spacing" textLength="49.7998" x="674.2979" y="1473.2969">Industry</text><line style="stroke:#181818;stroke-width:0.5;" x1="579.5" x2="786.3955" y1="1483.5" y2="1483.5"/><text fill="#000000" font-family="sans-serif" font-size="14" lengthAdjust="spacing" textLength="101.9238" x="584.5" y="1502.6074">-nameID : String</text><text fill="#000000" font-family="sans-serif" font-size="14" lengthAdjust="spacing" textLength="79.3652" x="584.5" y="1521.2285">-type : String</text><text fill="#000000" font-family="sans-serif" font-size="14" lengthAdjust="spacing" textLength="125.2754" x="584.5" y="1539.8496">-availabilityYear : int</text><text fill="#000000" font-family="sans-serif" font-size="14" lengthAdjust="spacing" textLength="126.0684" x="584.5" y="1558.4707">-productionRate : int</text><text fill="#000000" font-family="sans-serif" font-size="14" lengthAdjust="spacing" textLength="182.8818" x="584.5" y="1577.0918">-suppliedCargo : List&lt;Cargo&gt;</text><text fill="#000000" font-family="sans-serif" font-size="14" lengthAdjust="spacing" textLength="196.8955" x="584.5" y="1595.7129">-demandedCargo : List&lt;Cargo&gt;</text><line style="stroke:#181818;stroke-width:0.5;" x1="579.5" x2="786.3955" y1="1603.2266" y2="1603.2266"/></g><!--class IndustrySector--><g id="elem_IndustrySector"><rect codeLine="63" fill="#F1F1F1" height="141.1055" id="IndustrySector" rx="2.5" ry="2.5" style="stroke:#181818;stroke-width:0.5;" width="180.0957" x="642" y="1737"/><ellipse cx="683.0253" cy="1753" fill="#ADD1B2" rx="11" ry="11" style="stroke:#181818;stroke-width:1.0;"/><path d="M685.7909,1748.875 Q685.9472,1748.6563 686.1347,1748.5469 Q686.3222,1748.4375 686.5409,1748.4375 Q686.9159,1748.4375 687.1503,1748.7031 Q687.3847,1748.9531 687.3847,1749.5625 L687.3847,1751.0156 Q687.3847,1751.625 687.1503,1751.8906 Q686.9159,1752.1563 686.5409,1752.1563 Q686.1972,1752.1563 685.994,1751.9531 Q685.7909,1751.7656 685.6815,1751.25 Q685.6347,1750.8906 685.4472,1750.7031 Q685.119,1750.3281 684.5097,1750.1094 Q683.9003,1749.8906 683.2753,1749.8906 Q682.5097,1749.8906 681.869,1750.2188 Q681.244,1750.5469 680.744,1751.2969 Q680.2597,1752.0469 680.2597,1753.0781 L680.2597,1754.1719 Q680.2597,1755.4063 681.1503,1756.2344 Q682.0409,1757.0469 683.6347,1757.0469 Q684.5722,1757.0469 685.2284,1756.7969 Q685.619,1756.6406 686.0409,1756.2031 Q686.3065,1755.9375 686.4472,1755.8594 Q686.6034,1755.7813 686.8065,1755.7813 Q687.1347,1755.7813 687.3847,1756.0469 Q687.6503,1756.2969 687.6503,1756.6406 Q687.6503,1756.9844 687.3065,1757.3906 Q686.8065,1757.9688 686.0097,1758.2969 Q684.9315,1758.75 683.6347,1758.75 Q682.119,1758.75 680.9159,1758.125 Q679.9315,1757.625 679.244,1756.5625 Q678.5565,1755.4844 678.5565,1754.2031 L678.5565,1753.0469 Q678.5565,1751.7188 679.1659,1750.5781 Q679.7909,1749.4219 680.8847,1748.8125 Q681.9784,1748.1875 683.2128,1748.1875 Q683.9472,1748.1875 684.5878,1748.3594 Q685.244,1748.5156 685.7909,1748.875 Z " fill="#000000"/><text fill="#000000" font-family="sans-serif" font-size="14" lengthAdjust="spacing" textLength="90.2617" x="702.8087" y="1758.7969">IndustrySector</text><line style="stroke:#181818;stroke-width:0.5;" x1="643" x2="821.0957" y1="1769" y2="1769"/><text fill="#000000" font-family="sans-serif" font-size="14" lengthAdjust="spacing" textLength="87.9238" x="648" y="1788.1074">-name : String</text><text fill="#000000" font-family="sans-serif" font-size="14" lengthAdjust="spacing" textLength="159.5166" x="648" y="1806.7285">-importsExports : boolean</text><text fill="#000000" font-family="sans-serif" font-size="14" lengthAdjust="spacing" textLength="166.5576" x="648" y="1825.3496">-generatesCargo : boolean</text><text fill="#000000" font-family="sans-serif" font-size="14" lengthAdjust="spacing" textLength="168.0957" x="648" y="1843.9707">-consumesCargo : boolean</text><text fill="#000000" font-family="sans-serif" font-size="14" lengthAdjust="spacing" textLength="120.6064" x="648" y="1862.5918">-description : String</text><line style="stroke:#181818;stroke-width:0.5;" x1="643" x2="821.0957" y1="1870.1055" y2="1870.1055"/></g><!--class Cargo--><g id="elem_Cargo"><rect codeLine="71" fill="#F1F1F1" height="141.1055" id="Cargo" rx="2.5" ry="2.5" style="stroke:#181818;stroke-width:0.5;" width="235.3369" x="322.5" y="1737"/><ellipse cx="416.853" cy="1753" fill="#ADD1B2" rx="11" ry="11" style="stroke:#181818;stroke-width:1.0;"/><path d="M419.6187,1748.875 Q419.7749,1748.6563 419.9624,1748.5469 Q420.1499,1748.4375 420.3687,1748.4375 Q420.7437,1748.4375 420.978,1748.7031 Q421.2124,1748.9531 421.2124,1749.5625 L421.2124,1751.0156 Q421.2124,1751.625 420.978,1751.8906 Q420.7437,1752.1563 420.3687,1752.1563 Q420.0249,1752.1563 419.8218,1751.9531 Q419.6187,1751.7656 419.5093,1751.25 Q419.4624,1750.8906 419.2749,1750.7031 Q418.9468,1750.3281 418.3374,1750.1094 Q417.728,1749.8906 417.103,1749.8906 Q416.3374,1749.8906 415.6968,1750.2188 Q415.0718,1750.5469 414.5718,1751.2969 Q414.0874,1752.0469 414.0874,1753.0781 L414.0874,1754.1719 Q414.0874,1755.4063 414.978,1756.2344 Q415.8687,1757.0469 417.4624,1757.0469 Q418.3999,1757.0469 419.0562,1756.7969 Q419.4468,1756.6406 419.8687,1756.2031 Q420.1343,1755.9375 420.2749,1755.8594 Q420.4312,1755.7813 420.6343,1755.7813 Q420.9624,1755.7813 421.2124,1756.0469 Q421.478,1756.2969 421.478,1756.6406 Q421.478,1756.9844 421.1343,1757.3906 Q420.6343,1757.9688 419.8374,1758.2969 Q418.7593,1758.75 417.4624,1758.75 Q415.9468,1758.75 414.7437,1758.125 Q413.7593,1757.625 413.0718,1756.5625 Q412.3843,1755.4844 412.3843,1754.2031 L412.3843,1753.0469 Q412.3843,1751.7188 412.9937,1750.5781 Q413.6187,1749.4219 414.7124,1748.8125 Q415.8062,1748.1875 417.0405,1748.1875 Q417.7749,1748.1875 418.4155,1748.3594 Q419.0718,1748.5156 419.6187,1748.875 Z " fill="#000000"/><text fill="#000000" font-family="sans-serif" font-size="14" lengthAdjust="spacing" textLength="38.1309" x="437.353" y="1758.7969">Cargo</text><line style="stroke:#181818;stroke-width:0.5;" x1="323.5" x2="556.8369" y1="1769" y2="1769"/><text fill="#000000" font-family="sans-serif" font-size="14" lengthAdjust="spacing" textLength="87.9238" x="328.5" y="1788.1074">-name : String</text><text fill="#000000" font-family="sans-serif" font-size="14" lengthAdjust="spacing" textLength="105.0684" x="328.5" y="1806.7285">-amount : double</text><text fill="#000000" font-family="sans-serif" font-size="14" lengthAdjust="spacing" textLength="79.3721" x="328.5" y="1825.3496">-lifespan : int</text><text fill="#000000" font-family="sans-serif" font-size="14" lengthAdjust="spacing" textLength="79.3652" x="328.5" y="1843.9707">-type : String</text><text fill="#000000" font-family="sans-serif" font-size="14" lengthAdjust="spacing" textLength="223.3369" x="328.5" y="1862.5918">-productionResources : List&lt;String&gt;</text><line style="stroke:#181818;stroke-width:0.5;" x1="323.5" x2="556.8369" y1="1870.1055" y2="1870.1055"/></g><!--class City--><g id="elem_City"><rect codeLine="79" fill="#F1F1F1" height="122.4844" id="City" rx="2.5" ry="2.5" style="stroke:#181818;stroke-width:0.5;" width="208.8955" x="285.5" y="1470.5"/><ellipse cx="373.6426" cy="1486.5" fill="#ADD1B2" rx="11" ry="11" style="stroke:#181818;stroke-width:1.0;"/><path d="M376.4082,1482.375 Q376.5645,1482.1563 376.752,1482.0469 Q376.9395,1481.9375 377.1582,1481.9375 Q377.5332,1481.9375 377.7676,1482.2031 Q378.002,1482.4531 378.002,1483.0625 L378.002,1484.5156 Q378.002,1485.125 377.7676,1485.3906 Q377.5332,1485.6563 377.1582,1485.6563 Q376.8145,1485.6563 376.6113,1485.4531 Q376.4082,1485.2656 376.2988,1484.75 Q376.252,1484.3906 376.0645,1484.2031 Q375.7363,1483.8281 375.127,1483.6094 Q374.5176,1483.3906 373.8926,1483.3906 Q373.127,1483.3906 372.4863,1483.7188 Q371.8613,1484.0469 371.3613,1484.7969 Q370.877,1485.5469 370.877,1486.5781 L370.877,1487.6719 Q370.877,1488.9063 371.7676,1489.7344 Q372.6582,1490.5469 374.252,1490.5469 Q375.1895,1490.5469 375.8457,1490.2969 Q376.2363,1490.1406 376.6582,1489.7031 Q376.9238,1489.4375 377.0645,1489.3594 Q377.2207,1489.2813 377.4238,1489.2813 Q377.752,1489.2813 378.002,1489.5469 Q378.2676,1489.7969 378.2676,1490.1406 Q378.2676,1490.4844 377.9238,1490.8906 Q377.4238,1491.4688 376.627,1491.7969 Q375.5488,1492.25 374.252,1492.25 Q372.7363,1492.25 371.5332,1491.625 Q370.5488,1491.125 369.8613,1490.0625 Q369.1738,1488.9844 369.1738,1487.7031 L369.1738,1486.5469 Q369.1738,1485.2188 369.7832,1484.0781 Q370.4082,1482.9219 371.502,1482.3125 Q372.5957,1481.6875 373.8301,1481.6875 Q374.5645,1481.6875 375.2051,1481.8594 Q375.8613,1482.0156 376.4082,1482.375 Z " fill="#000000"/><text fill="#000000" font-family="sans-serif" font-size="14" lengthAdjust="spacing" textLength="24.1104" x="394.1426" y="1492.2969">City</text><line style="stroke:#181818;stroke-width:0.5;" x1="286.5" x2="493.3955" y1="1502.5" y2="1502.5"/><text fill="#000000" font-family="sans-serif" font-size="14" lengthAdjust="spacing" textLength="101.9238" x="291.5" y="1521.6074">-nameID : String</text><text fill="#000000" font-family="sans-serif" font-size="14" lengthAdjust="spacing" textLength="94.917" x="291.5" y="1540.2285">-trafficRate : int</text><text fill="#000000" font-family="sans-serif" font-size="14" lengthAdjust="spacing" textLength="182.8818" x="291.5" y="1558.8496">-suppliedCargo : List&lt;Cargo&gt;</text><text fill="#000000" font-family="sans-serif" font-size="14" lengthAdjust="spacing" textLength="196.8955" x="291.5" y="1577.4707">-demandedCargo : List&lt;Cargo&gt;</text><line style="stroke:#181818;stroke-width:0.5;" x1="286.5" x2="493.3955" y1="1584.9844" y2="1584.9844"/></g><!--class Locomotive--><g id="elem_Locomotive"><rect codeLine="86" fill="#F1F1F1" height="252.832" id="Locomotive" rx="2.5" ry="2.5" style="stroke:#181818;stroke-width:0.5;" width="182.4336" x="879" y="1405"/><ellipse cx="930.1704" cy="1421" fill="#ADD1B2" rx="11" ry="11" style="stroke:#181818;stroke-width:1.0;"/><path d="M932.936,1416.875 Q933.0923,1416.6563 933.2798,1416.5469 Q933.4673,1416.4375 933.686,1416.4375 Q934.061,1416.4375 934.2954,1416.7031 Q934.5298,1416.9531 934.5298,1417.5625 L934.5298,1419.0156 Q934.5298,1419.625 934.2954,1419.8906 Q934.061,1420.1563 933.686,1420.1563 Q933.3423,1420.1563 933.1392,1419.9531 Q932.936,1419.7656 932.8267,1419.25 Q932.7798,1418.8906 932.5923,1418.7031 Q932.2642,1418.3281 931.6548,1418.1094 Q931.0454,1417.8906 930.4204,1417.8906 Q929.6548,1417.8906 929.0142,1418.2188 Q928.3892,1418.5469 927.8892,1419.2969 Q927.4048,1420.0469 927.4048,1421.0781 L927.4048,1422.1719 Q927.4048,1423.4063 928.2954,1424.2344 Q929.186,1425.0469 930.7798,1425.0469 Q931.7173,1425.0469 932.3735,1424.7969 Q932.7642,1424.6406 933.186,1424.2031 Q933.4517,1423.9375 933.5923,1423.8594 Q933.7485,1423.7813 933.9517,1423.7813 Q934.2798,1423.7813 934.5298,1424.0469 Q934.7954,1424.2969 934.7954,1424.6406 Q934.7954,1424.9844 934.4517,1425.3906 Q933.9517,1425.9688 933.1548,1426.2969 Q932.0767,1426.75 930.7798,1426.75 Q929.2642,1426.75 928.061,1426.125 Q927.0767,1425.625 926.3892,1424.5625 Q925.7017,1423.4844 925.7017,1422.2031 L925.7017,1421.0469 Q925.7017,1419.7188 926.311,1418.5781 Q926.936,1417.4219 928.0298,1416.8125 Q929.1235,1416.1875 930.3579,1416.1875 Q931.0923,1416.1875 931.7329,1416.3594 Q932.3892,1416.5156 932.936,1416.875 Z " fill="#000000"/><text fill="#000000" font-family="sans-serif" font-size="14" lengthAdjust="spacing" textLength="71.5928" x="950.6704" y="1426.7969">Locomotive</text><line style="stroke:#181818;stroke-width:0.5;" x1="880" x2="1060.4336" y1="1437" y2="1437"/><text fill="#000000" font-family="sans-serif" font-size="14" lengthAdjust="spacing" textLength="101.9238" x="885" y="1456.1074">-nameID : String</text><text fill="#000000" font-family="sans-serif" font-size="14" lengthAdjust="spacing" textLength="91.0342" x="885" y="1474.7285">-owner : String</text><text fill="#000000" font-family="sans-serif" font-size="14" lengthAdjust="spacing" textLength="79.3652" x="885" y="1493.3496">-type : String</text><text fill="#000000" font-family="sans-serif" font-size="14" lengthAdjust="spacing" textLength="96.5029" x="885" y="1511.9707">-power : double</text><text fill="#000000" font-family="sans-serif" font-size="14" lengthAdjust="spacing" textLength="133.8613" x="885" y="1530.5918">-acceleration : double</text><text fill="#000000" font-family="sans-serif" font-size="14" lengthAdjust="spacing" textLength="118.3164" x="885" y="1549.2129">-topSpeed : double</text><text fill="#000000" font-family="sans-serif" font-size="14" lengthAdjust="spacing" textLength="87.917" x="885" y="1567.834">-startYear : int</text><text fill="#000000" font-family="sans-serif" font-size="14" lengthAdjust="spacing" textLength="109.7305" x="885" y="1586.4551">-fuelCost : double</text><text fill="#000000" font-family="sans-serif" font-size="14" lengthAdjust="spacing" textLength="125.2754" x="885" y="1605.0762">-availabilityYear : int</text><text fill="#000000" font-family="sans-serif" font-size="14" lengthAdjust="spacing" textLength="156.4199" x="885" y="1623.6973">-acquisitionPrice : double</text><text fill="#000000" font-family="sans-serif" font-size="14" lengthAdjust="spacing" textLength="170.4336" x="885" y="1642.3184">-maintenancePrice : double</text><line style="stroke:#181818;stroke-width:0.5;" x1="880" x2="1060.4336" y1="1649.832" y2="1649.832"/></g><!--class MapRepository--><g id="elem_MapRepository"><rect codeLine="100" fill="#F1F1F1" height="66.6211" id="MapRepository" rx="2.5" ry="2.5" style="stroke:#181818;stroke-width:0.5;" width="140.0098" x="412" y="338.5"/><ellipse cx="433.2363" cy="354.5" fill="#ADD1B2" rx="11" ry="11" style="stroke:#181818;stroke-width:1.0;"/><path d="M436.0019,350.375 Q436.1582,350.1563 436.3457,350.0469 Q436.5332,349.9375 436.7519,349.9375 Q437.1269,349.9375 437.3613,350.2031 Q437.5957,350.4531 437.5957,351.0625 L437.5957,352.5156 Q437.5957,353.125 437.3613,353.3906 Q437.1269,353.6563 436.7519,353.6563 Q436.4082,353.6563 436.205,353.4531 Q436.0019,353.2656 435.8925,352.75 Q435.8457,352.3906 435.6582,352.2031 Q435.33,351.8281 434.7207,351.6094 Q434.1113,351.3906 433.4863,351.3906 Q432.7207,351.3906 432.08,351.7188 Q431.455,352.0469 430.955,352.7969 Q430.4707,353.5469 430.4707,354.5781 L430.4707,355.6719 Q430.4707,356.9063 431.3613,357.7344 Q432.2519,358.5469 433.8457,358.5469 Q434.7832,358.5469 435.4394,358.2969 Q435.83,358.1406 436.2519,357.7031 Q436.5175,357.4375 436.6582,357.3594 Q436.8144,357.2813 437.0175,357.2813 Q437.3457,357.2813 437.5957,357.5469 Q437.8613,357.7969 437.8613,358.1406 Q437.8613,358.4844 437.5175,358.8906 Q437.0175,359.4688 436.2207,359.7969 Q435.1425,360.25 433.8457,360.25 Q432.33,360.25 431.1269,359.625 Q430.1425,359.125 429.455,358.0625 Q428.7675,356.9844 428.7675,355.7031 L428.7675,354.5469 Q428.7675,353.2188 429.3769,352.0781 Q430.0019,350.9219 431.0957,350.3125 Q432.1894,349.6875 433.4238,349.6875 Q434.1582,349.6875 434.7988,349.8594 Q435.455,350.0156 436.0019,350.375 Z " fill="#000000"/><text fill="#000000" font-family="sans-serif" font-size="14" lengthAdjust="spacing" textLength="94.1514" x="448.6221" y="360.2969">MapRepository</text><line style="stroke:#181818;stroke-width:0.5;" x1="413" x2="551.0098" y1="370.5" y2="370.5"/><line style="stroke:#181818;stroke-width:0.5;" x1="413" x2="551.0098" y1="378.5" y2="378.5"/><text fill="#000000" font-family="sans-serif" font-size="14" lengthAdjust="spacing" textLength="128.0098" x="418" y="397.6074">+getAvailableMaps()</text></g><!--class CargoRepository--><g id="elem_CargoRepository"><rect codeLine="104" fill="#F1F1F1" height="66.6211" id="CargoRepository" rx="2.5" ry="2.5" style="stroke:#181818;stroke-width:0.5;" width="137.0479" x="1259.5" y="338.5"/><ellipse cx="1274.5" cy="354.5" fill="#ADD1B2" rx="11" ry="11" style="stroke:#181818;stroke-width:1.0;"/><path d="M1277.2656,350.375 Q1277.4219,350.1563 1277.6094,350.0469 Q1277.7969,349.9375 1278.0156,349.9375 Q1278.3906,349.9375 1278.625,350.2031 Q1278.8594,350.4531 1278.8594,351.0625 L1278.8594,352.5156 Q1278.8594,353.125 1278.625,353.3906 Q1278.3906,353.6563 1278.0156,353.6563 Q1277.6719,353.6563 1277.4688,353.4531 Q1277.2656,353.2656 1277.1563,352.75 Q1277.1094,352.3906 1276.9219,352.2031 Q1276.5938,351.8281 1275.9844,351.6094 Q1275.375,351.3906 1274.75,351.3906 Q1273.9844,351.3906 1273.3438,351.7188 Q1272.7188,352.0469 1272.2188,352.7969 Q1271.7344,353.5469 1271.7344,354.5781 L1271.7344,355.6719 Q1271.7344,356.9063 1272.625,357.7344 Q1273.5156,358.5469 1275.1094,358.5469 Q1276.0469,358.5469 1276.7031,358.2969 Q1277.0938,358.1406 1277.5156,357.7031 Q1277.7813,357.4375 1277.9219,357.3594 Q1278.0781,357.2813 1278.2813,357.2813 Q1278.6094,357.2813 1278.8594,357.5469 Q1279.125,357.7969 1279.125,358.1406 Q1279.125,358.4844 1278.7813,358.8906 Q1278.2813,359.4688 1277.4844,359.7969 Q1276.4063,360.25 1275.1094,360.25 Q1273.5938,360.25 1272.3906,359.625 Q1271.4063,359.125 1270.7188,358.0625 Q1270.0313,356.9844 1270.0313,355.7031 L1270.0313,354.5469 Q1270.0313,353.2188 1270.6406,352.0781 Q1271.2656,350.9219 1272.3594,350.3125 Q1273.4531,349.6875 1274.6875,349.6875 Q1275.4219,349.6875 1276.0625,349.8594 Q1276.7188,350.0156 1277.2656,350.375 Z " fill="#000000"/><text fill="#000000" font-family="sans-serif" font-size="14" lengthAdjust="spacing" textLength="105.0479" x="1288.5" y="360.2969">CargoRepository</text><line style="stroke:#181818;stroke-width:0.5;" x1="1260.5" x2="1395.5479" y1="370.5" y2="370.5"/><line style="stroke:#181818;stroke-width:0.5;" x1="1260.5" x2="1395.5479" y1="378.5" y2="378.5"/><text fill="#000000" font-family="sans-serif" font-size="14" lengthAdjust="spacing" textLength="96.8789" x="1265.5" y="397.6074">+getCargoList()</text></g><!--class EditorRepository--><g id="elem_EditorRepository"><rect codeLine="108" fill="#F1F1F1" height="85.2422" id="EditorRepository" rx="2.5" ry="2.5" style="stroke:#181818;stroke-width:0.5;" width="256.7402" x="587.5" y="329.5"/><ellipse cx="659.8755" cy="345.5" fill="#ADD1B2" rx="11" ry="11" style="stroke:#181818;stroke-width:1.0;"/><path d="M662.6411,341.375 Q662.7974,341.1563 662.9849,341.0469 Q663.1724,340.9375 663.3911,340.9375 Q663.7661,340.9375 664.0005,341.2031 Q664.2349,341.4531 664.2349,342.0625 L664.2349,343.5156 Q664.2349,344.125 664.0005,344.3906 Q663.7661,344.6563 663.3911,344.6563 Q663.0474,344.6563 662.8442,344.4531 Q662.6411,344.2656 662.5317,343.75 Q662.4849,343.3906 662.2974,343.2031 Q661.9692,342.8281 661.3599,342.6094 Q660.7505,342.3906 660.1255,342.3906 Q659.3599,342.3906 658.7192,342.7188 Q658.0942,343.0469 657.5942,343.7969 Q657.1099,344.5469 657.1099,345.5781 L657.1099,346.6719 Q657.1099,347.9063 658.0005,348.7344 Q658.8911,349.5469 660.4849,349.5469 Q661.4224,349.5469 662.0786,349.2969 Q662.4692,349.1406 662.8911,348.7031 Q663.1567,348.4375 663.2974,348.3594 Q663.4536,348.2813 663.6567,348.2813 Q663.9849,348.2813 664.2349,348.5469 Q664.5005,348.7969 664.5005,349.1406 Q664.5005,349.4844 664.1567,349.8906 Q663.6567,350.4688 662.8599,350.7969 Q661.7817,351.25 660.4849,351.25 Q658.9692,351.25 657.7661,350.625 Q656.7817,350.125 656.0942,349.0625 Q655.4067,347.9844 655.4067,346.7031 L655.4067,345.5469 Q655.4067,344.2188 656.0161,343.0781 Q656.6411,341.9219 657.7349,341.3125 Q658.8286,340.6875 660.063,340.6875 Q660.7974,340.6875 661.438,340.8594 Q662.0942,341.0156 662.6411,341.375 Z " fill="#000000"/><text fill="#000000" font-family="sans-serif" font-size="14" lengthAdjust="spacing" textLength="103.4893" x="680.3755" y="351.2969">EditorRepository</text><line style="stroke:#181818;stroke-width:0.5;" x1="588.5" x2="843.2402" y1="361.5" y2="361.5"/><line style="stroke:#181818;stroke-width:0.5;" x1="588.5" x2="843.2402" y1="369.5" y2="369.5"/><text fill="#000000" font-family="sans-serif" font-size="14" lengthAdjust="spacing" textLength="216.7061" x="593.5" y="388.6074">+getEditorByUsername(username)</text><text fill="#000000" font-family="sans-serif" font-size="14" lengthAdjust="spacing" textLength="244.7402" x="593.5" y="407.2285">+addScenarioToEditor(editor, scenario)</text></g><!--class LocomotiveRepository--><g id="elem_LocomotiveRepository"><rect codeLine="113" fill="#F1F1F1" height="103.8633" id="LocomotiveRepository" rx="2.5" ry="2.5" style="stroke:#181818;stroke-width:0.5;" width="345.457" x="879.5" y="320"/><ellipse cx="978.7236" cy="336" fill="#ADD1B2" rx="11" ry="11" style="stroke:#181818;stroke-width:1.0;"/><path d="M981.4893,331.875 Q981.6455,331.6563 981.833,331.5469 Q982.0205,331.4375 982.2393,331.4375 Q982.6143,331.4375 982.8486,331.7031 Q983.083,331.9531 983.083,332.5625 L983.083,334.0156 Q983.083,334.625 982.8486,334.8906 Q982.6143,335.1563 982.2393,335.1563 Q981.8955,335.1563 981.6924,334.9531 Q981.4893,334.7656 981.3799,334.25 Q981.333,333.8906 981.1455,333.7031 Q980.8174,333.3281 980.208,333.1094 Q979.5986,332.8906 978.9736,332.8906 Q978.208,332.8906 977.5674,333.2188 Q976.9424,333.5469 976.4424,334.2969 Q975.958,335.0469 975.958,336.0781 L975.958,337.1719 Q975.958,338.4063 976.8486,339.2344 Q977.7393,340.0469 979.333,340.0469 Q980.2705,340.0469 980.9268,339.7969 Q981.3174,339.6406 981.7393,339.2031 Q982.0049,338.9375 982.1455,338.8594 Q982.3018,338.7813 982.5049,338.7813 Q982.833,338.7813 983.083,339.0469 Q983.3486,339.2969 983.3486,339.6406 Q983.3486,339.9844 983.0049,340.3906 Q982.5049,340.9688 981.708,341.2969 Q980.6299,341.75 979.333,341.75 Q977.8174,341.75 976.6143,341.125 Q975.6299,340.625 974.9424,339.5625 Q974.2549,338.4844 974.2549,337.2031 L974.2549,336.0469 Q974.2549,334.7188 974.8643,333.5781 Q975.4893,332.4219 976.583,331.8125 Q977.6768,331.1875 978.9111,331.1875 Q979.6455,331.1875 980.2861,331.3594 Q980.9424,331.5156 981.4893,331.875 Z " fill="#000000"/><text fill="#000000" font-family="sans-serif" font-size="14" lengthAdjust="spacing" textLength="138.5098" x="999.2236" y="341.7969">LocomotiveRepository</text><line style="stroke:#181818;stroke-width:0.5;" x1="880.5" x2="1223.957" y1="352" y2="352"/><line style="stroke:#181818;stroke-width:0.5;" x1="880.5" x2="1223.957" y1="360" y2="360"/><text fill="#000000" font-family="sans-serif" font-size="14" lengthAdjust="spacing" textLength="146.6787" x="885.5" y="379.1074">+getLocomotiveTypes()</text><text fill="#000000" font-family="sans-serif" font-size="14" lengthAdjust="spacing" textLength="333.457" x="885.5" y="397.7285">+getAvailableLocomotives(selectedLocomotiveTypes,</text><text fill="#000000" font-family="sans-serif" font-size="14" lengthAdjust="spacing" textLength="57.5928" x="901.0586" y="416.3496">endDate)</text></g><!--class Repositories--><g id="elem_Repositories"><rect codeLine="118" fill="#F1F1F1" height="159.7266" id="Repositories" rx="2.5" ry="2.5" style="stroke:#181818;stroke-width:0.5;" width="187.4717" x="665.5" y="44"/><ellipse cx="716.0791" cy="60" fill="#ADD1B2" rx="11" ry="11" style="stroke:#181818;stroke-width:1.0;"/><path d="M718.8447,55.875 Q719.001,55.6563 719.1885,55.5469 Q719.376,55.4375 719.5947,55.4375 Q719.9697,55.4375 720.2041,55.7031 Q720.4385,55.9531 720.4385,56.5625 L720.4385,58.0156 Q720.4385,58.625 720.2041,58.8906 Q719.9697,59.1563 719.5947,59.1563 Q719.251,59.1563 719.0479,58.9531 Q718.8447,58.7656 718.7354,58.25 Q718.6885,57.8906 718.501,57.7031 Q718.1729,57.3281 717.5635,57.1094 Q716.9541,56.8906 716.3291,56.8906 Q715.5635,56.8906 714.9229,57.2188 Q714.2979,57.5469 713.7979,58.2969 Q713.3135,59.0469 713.3135,60.0781 L713.3135,61.1719 Q713.3135,62.4063 714.2041,63.2344 Q715.0947,64.0469 716.6885,64.0469 Q717.626,64.0469 718.2822,63.7969 Q718.6729,63.6406 719.0947,63.2031 Q719.3604,62.9375 719.501,62.8594 Q719.6572,62.7813 719.8604,62.7813 Q720.1885,62.7813 720.4385,63.0469 Q720.7041,63.2969 720.7041,63.6406 Q720.7041,63.9844 720.3604,64.3906 Q719.8604,64.9688 719.0635,65.2969 Q717.9854,65.75 716.6885,65.75 Q715.1729,65.75 713.9697,65.125 Q712.9854,64.625 712.2979,63.5625 Q711.6104,62.4844 711.6104,61.2031 L711.6104,60.0469 Q711.6104,58.7188 712.2197,57.5781 Q712.8447,56.4219 713.9385,55.8125 Q715.0322,55.1875 716.2666,55.1875 Q717.001,55.1875 717.6416,55.3594 Q718.2979,55.5156 718.8447,55.875 Z " fill="#000000"/><text fill="#000000" font-family="sans-serif" font-size="14" lengthAdjust="spacing" textLength="77.8135" x="736.5791" y="65.7969">Repositories</text><line style="stroke:#181818;stroke-width:0.5;" x1="666.5" x2="851.9717" y1="76" y2="76"/><line style="stroke:#181818;stroke-width:0.5;" x1="666.5" x2="851.9717" y1="84" y2="84"/><text fill="#000000" font-family="sans-serif" font-size="14" lengthAdjust="spacing" textLength="91.7998" x="671.5" y="103.1074">-Repositories()</text><text fill="#000000" font-family="sans-serif" font-size="14" lengthAdjust="spacing" text-decoration="underline" textLength="89.8857" x="671.5" y="121.7285">+getInstance()</text><text fill="#000000" font-family="sans-serif" font-size="14" lengthAdjust="spacing" textLength="131.1133" x="671.5" y="140.3496">+getMapRepository()</text><text fill="#000000" font-family="sans-serif" font-size="14" lengthAdjust="spacing" textLength="140.4512" x="671.5" y="158.9707">+getEditorRepository()</text><text fill="#000000" font-family="sans-serif" font-size="14" lengthAdjust="spacing" textLength="175.4717" x="671.5" y="177.5918">+getLocomotiveRepository()</text><text fill="#000000" font-family="sans-serif" font-size="14" lengthAdjust="spacing" textLength="142.0098" x="671.5" y="196.2129">+getCargoRepository()</text></g><!--class CreateScenarioController--><g id="elem_CreateScenarioController"><rect codeLine="127" fill="#F1F1F1" height="234.2109" id="CreateScenarioController" rx="2.5" ry="2.5" style="stroke:#181818;stroke-width:0.5;" width="384.3604" x="246" y="7"/><ellipse cx="354.9478" cy="23" fill="#ADD1B2" rx="11" ry="11" style="stroke:#181818;stroke-width:1.0;"/><path d="M357.7134,18.875 Q357.8696,18.6563 358.0571,18.5469 Q358.2446,18.4375 358.4634,18.4375 Q358.8384,18.4375 359.0728,18.7031 Q359.3071,18.9531 359.3071,19.5625 L359.3071,21.0156 Q359.3071,21.625 359.0728,21.8906 Q358.8384,22.1563 358.4634,22.1563 Q358.1196,22.1563 357.9165,21.9531 Q357.7134,21.7656 357.604,21.25 Q357.5571,20.8906 357.3696,20.7031 Q357.0415,20.3281 356.4321,20.1094 Q355.8228,19.8906 355.1978,19.8906 Q354.4321,19.8906 353.7915,20.2188 Q353.1665,20.5469 352.6665,21.2969 Q352.1821,22.0469 352.1821,23.0781 L352.1821,24.1719 Q352.1821,25.4063 353.0728,26.2344 Q353.9634,27.0469 355.5571,27.0469 Q356.4946,27.0469 357.1509,26.7969 Q357.5415,26.6406 357.9634,26.2031 Q358.229,25.9375 358.3696,25.8594 Q358.5259,25.7813 358.729,25.7813 Q359.0571,25.7813 359.3071,26.0469 Q359.5728,26.2969 359.5728,26.6406 Q359.5728,26.9844 359.229,27.3906 Q358.729,27.9688 357.9321,28.2969 Q356.854,28.75 355.5571,28.75 Q354.0415,28.75 352.8384,28.125 Q351.854,27.625 351.1665,26.5625 Q350.479,25.4844 350.479,24.2031 L350.479,23.0469 Q350.479,21.7188 351.0884,20.5781 Q351.7134,19.4219 352.8071,18.8125 Q353.9009,18.1875 355.1353,18.1875 Q355.8696,18.1875 356.5103,18.3594 Q357.1665,18.5156 357.7134,18.875 Z " fill="#000000"/><text fill="#000000" font-family="sans-serif" font-size="14" lengthAdjust="spacing" textLength="157.9648" x="375.4478" y="28.7969">CreateScenarioController</text><line style="stroke:#181818;stroke-width:0.5;" x1="247" x2="629.3604" y1="39" y2="39"/><line style="stroke:#181818;stroke-width:0.5;" x1="247" x2="629.3604" y1="47" y2="47"/><text fill="#000000" font-family="sans-serif" font-size="14" lengthAdjust="spacing" textLength="175.4648" x="252" y="66.1074">+CreateScenarioController()</text><text fill="#000000" font-family="sans-serif" font-size="14" lengthAdjust="spacing" textLength="128.0098" x="252" y="84.7285">+getAvailableMaps()</text><text fill="#000000" font-family="sans-serif" font-size="14" lengthAdjust="spacing" textLength="204.2715" x="252" y="103.3496">+getMapIndustries(selectedMap)</text><text fill="#000000" font-family="sans-serif" font-size="14" lengthAdjust="spacing" textLength="178.582" x="252" y="121.9707">+getMapCities(selectedMap)</text><text fill="#000000" font-family="sans-serif" font-size="14" lengthAdjust="spacing" textLength="146.6787" x="252" y="140.5918">+getLocomotiveTypes()</text><text fill="#000000" font-family="sans-serif" font-size="14" lengthAdjust="spacing" textLength="372.3604" x="252" y="159.2129">+createScenario(nameID, selectedMap, startDate, endDate,</text><text fill="#000000" font-family="sans-serif" font-size="14" lengthAdjust="spacing" textLength="274.6748" x="267.5586" y="177.834">selectedIndustries, portImports, portExports,</text><text fill="#000000" font-family="sans-serif" font-size="14" lengthAdjust="spacing" textLength="214.7715" x="267.5586" y="196.4551">portProduces, genIndustryFactors,</text><text fill="#000000" font-family="sans-serif" font-size="14" lengthAdjust="spacing" textLength="351.6748" x="267.5586" y="215.0762">selectedLocomotiveTypes, mapCityList, cityTrafficRates)</text><text fill="#000000" font-family="sans-serif" font-size="14" lengthAdjust="spacing" textLength="152.4893" x="252" y="233.6973">-getEditorFromSession()</text></g><!--class CreateScenarioUI--><g id="elem_CreateScenarioUI"><rect codeLine="137" fill="#F1F1F1" height="48" id="CreateScenarioUI" rx="2.5" ry="2.5" style="stroke:#181818;stroke-width:0.5;" width="143.2754" x="67.5" y="100"/><ellipse cx="82.5" cy="116" fill="#ADD1B2" rx="11" ry="11" style="stroke:#181818;stroke-width:1.0;"/><path d="M85.2656,111.875 Q85.4219,111.6563 85.6094,111.5469 Q85.7969,111.4375 86.0156,111.4375 Q86.3906,111.4375 86.625,111.7031 Q86.8594,111.9531 86.8594,112.5625 L86.8594,114.0156 Q86.8594,114.625 86.625,114.8906 Q86.3906,115.1563 86.0156,115.1563 Q85.6719,115.1563 85.4688,114.9531 Q85.2656,114.7656 85.1563,114.25 Q85.1094,113.8906 84.9219,113.7031 Q84.5938,113.3281 83.9844,113.1094 Q83.375,112.8906 82.75,112.8906 Q81.9844,112.8906 81.3438,113.2188 Q80.7188,113.5469 80.2188,114.2969 Q79.7344,115.0469 79.7344,116.0781 L79.7344,117.1719 Q79.7344,118.4063 80.625,119.2344 Q81.5156,120.0469 83.1094,120.0469 Q84.0469,120.0469 84.7031,119.7969 Q85.0938,119.6406 85.5156,119.2031 Q85.7813,118.9375 85.9219,118.8594 Q86.0781,118.7813 86.2813,118.7813 Q86.6094,118.7813 86.8594,119.0469 Q87.125,119.2969 87.125,119.6406 Q87.125,119.9844 86.7813,120.3906 Q86.2813,120.9688 85.4844,121.2969 Q84.4063,121.75 83.1094,121.75 Q81.5938,121.75 80.3906,121.125 Q79.4063,120.625 78.7188,119.5625 Q78.0313,118.4844 78.0313,117.2031 L78.0313,116.0469 Q78.0313,114.7188 78.6406,113.5781 Q79.2656,112.4219 80.3594,111.8125 Q81.4531,111.1875 82.6875,111.1875 Q83.4219,111.1875 84.0625,111.3594 Q84.7188,111.5156 85.2656,111.875 Z " fill="#000000"/><text fill="#000000" font-family="sans-serif" font-size="14" lengthAdjust="spacing" textLength="111.2754" x="96.5" y="121.7969">CreateScenarioUI</text><line style="stroke:#181818;stroke-width:0.5;" x1="68.5" x2="209.7754" y1="132" y2="132"/><line style="stroke:#181818;stroke-width:0.5;" x1="68.5" x2="209.7754" y1="140" y2="140"/></g><!--link CreateScenarioUI to CreateScenarioController--><g id="link_CreateScenarioUI_CreateScenarioController"><path codeLine="140" d="M210.64,124 C226.48,124 238.67,124 238.67,124 C238.67,124 235.35,124 239.83,124 " fill="none" id="CreateScenarioUI-to-CreateScenarioController" style="stroke:#181818;stroke-width:1.0;stroke-dasharray:7.0,7.0;"/><polygon fill="#181818" points="245.83,124,236.83,120,240.83,124,236.83,128,245.83,124" style="stroke:#181818;stroke-width:1.0;"/></g><!--link CreateScenarioController to ApplicationSession--><g id="link_CreateScenarioController_ApplicationSession"><path codeLine="142" d="M269.9,241.16 C229.94,268.77 194.236,293.4389 161.026,316.3889 " fill="none" id="CreateScenarioController-to-ApplicationSession" style="stroke:#181818;stroke-width:1.0;stroke-dasharray:7.0,7.0;"/><polygon fill="#181818" points="156.09,319.8,165.7681,317.9741,160.2034,316.9574,161.22,311.3927,156.09,319.8" style="stroke:#181818;stroke-width:1.0;"/></g><!--link CreateScenarioController to UserSession--><g id="link_CreateScenarioController_UserSession"><path codeLine="143" d="M354.5,241.1 C341.89,258.64 333,271 333,271 C333,271 256.3474,448.6511 223.4674,524.8411 " fill="none" id="CreateScenarioController-to-UserSession" style="stroke:#181818;stroke-width:1.0;stroke-dasharray:7.0,7.0;"/><polygon fill="#181818" points="221.09,530.35,228.3287,523.6716,223.0712,525.7592,220.9835,520.5017,221.09,530.35" style="stroke:#181818;stroke-width:1.0;"/></g><!--link CreateScenarioController to Map--><g id="link_CreateScenarioController_Map"><path codeLine="144" d="M411.77,241.25 C402.35,283.01 394,320 394,320 C394,320 394,424 394,424 C394,424 427.6373,579.0165 453.4873,698.1065 " fill="none" id="CreateScenarioController-to-Map" style="stroke:#181818;stroke-width:1.0;stroke-dasharray:7.0,7.0;"/><polygon fill="#181818" points="454.76,703.97,456.7599,694.3263,453.6994,699.0838,448.9419,696.0233,454.76,703.97" style="stroke:#181818;stroke-width:1.0;"/></g><!--link CreateScenarioController to MapRepository--><g id="link_CreateScenarioController_MapRepository"><path codeLine="145" d="M458.78,241.16 C465.16,276.86 470.6336,307.4337 475.1336,332.5937 " fill="none" id="CreateScenarioController-to-MapRepository" style="stroke:#181818;stroke-width:1.0;stroke-dasharray:7.0,7.0;"/><polygon fill="#181818" points="476.19,338.5,478.543,328.9363,475.3097,333.5781,470.6679,330.3448,476.19,338.5" style="stroke:#181818;stroke-width:1.0;"/></g><!--link CreateScenarioController to EditorRepository--><g id="link_CreateScenarioController_EditorRepository"><path codeLine="146" d="M538.87,241.39 C562.53,268.69 581,290 581,290 C581,290 608.2945,306.3839 641.3745,326.2239 " fill="none" id="CreateScenarioController-to-EditorRepository" style="stroke:#181818;stroke-width:1.0;stroke-dasharray:7.0,7.0;"/><polygon fill="#181818" points="646.52,329.31,640.8591,321.2506,642.2321,326.7383,636.7444,328.1112,646.52,329.31" style="stroke:#181818;stroke-width:1.0;"/></g><!--link CreateScenarioController to LocomotiveRepository--><g id="link_CreateScenarioController_LocomotiveRepository"><path codeLine="147" d="M630.07,236.2 C681.45,265.94 723,290 723,290 C723,290 862,320 862,320 C862,320 862.7449,320.2052 873.4049,323.0652 " fill="none" id="CreateScenarioController-to-LocomotiveRepository" style="stroke:#181818;stroke-width:1.0;stroke-dasharray:7.0,7.0;"/><polygon fill="#181818" points="879.2,324.62,871.5439,318.4245,874.3708,323.3244,869.4709,326.1512,879.2,324.62" style="stroke:#181818;stroke-width:1.0;"/></g><!--link CreateScenarioController to Repositories--><g id="link_CreateScenarioController_Repositories"><path codeLine="148" d="M630.09,124 C642.94,124 652,124 652,124 C652,124 651.12,124 659.12,124 " fill="none" id="CreateScenarioController-to-Repositories" style="stroke:#181818;stroke-width:1.0;stroke-dasharray:7.0,7.0;"/><polygon fill="#181818" points="665.12,124,656.12,120,660.12,124,656.12,128,665.12,124" style="stroke:#181818;stroke-width:1.0;"/></g><!--link Repositories to Repositories--><g id="link_Repositories_Repositories"><path codeLine="150" d="M852.56,95.61 C872.81,98.39 887.5,107.85 887.5,124 C887.5,140.15 878.7542,148.794 858.5042,151.574 " fill="none" id="Repositories-to-Repositories" style="stroke:#181818;stroke-width:1.0;"/><polygon fill="#181818" points="852.56,152.39,862.0204,155.1288,857.5135,151.71,860.9323,147.2031,852.56,152.39" style="stroke:#181818;stroke-width:1.0;"/><text fill="#000000" font-family="sans-serif" font-size="13" lengthAdjust="spacing" textLength="48.4199" x="893.5" y="129.5283">instance</text><text fill="#000000" font-family="sans-serif" font-size="13" lengthAdjust="spacing" textLength="7.23" x="860.8907" y="151.1519">1</text></g><!--link Repositories to MapRepository--><g id="link_Repositories_MapRepository"><path codeLine="151" d="M683.12,204.3 C663.61,224.69 648,241 648,241 C648,241 577.7832,295.9798 528.6132,334.4998 " fill="none" id="Repositories-to-MapRepository" style="stroke:#181818;stroke-width:1.0;"/><polygon fill="#181818" points="523.89,338.2,533.4416,335.7985,527.826,335.1165,528.508,329.5009,523.89,338.2" style="stroke:#181818;stroke-width:1.0;"/><text fill="#000000" font-family="sans-serif" font-size="13" lengthAdjust="spacing" textLength="87.4263" x="608" y="286.0283">mapRepository</text><text fill="#000000" font-family="sans-serif" font-size="13" lengthAdjust="spacing" textLength="7.23" x="524.2291" y="327.2287">1</text></g><!--link Repositories to EditorRepository--><g id="link_Repositories_EditorRepository"><path codeLine="152" d="M745.16,204.19 C737.89,245.77 730.3129,289.1096 724.3429,323.2696 " fill="none" id="Repositories-to-EditorRepository" style="stroke:#181818;stroke-width:1.0;"/><polygon fill="#181818" points="723.31,329.18,728.7997,321.003,724.1708,324.2547,720.9191,319.6257,723.31,329.18" style="stroke:#181818;stroke-width:1.0;"/><text fill="#000000" font-family="sans-serif" font-size="13" lengthAdjust="spacing" textLength="94.6563" x="733" y="286.0283">editorRepository</text><text fill="#000000" font-family="sans-serif" font-size="13" lengthAdjust="spacing" textLength="7.23" x="716.9309" y="318.3537">1</text></g><!--link Repositories to LocomotiveRepository--><g id="link_Repositories_LocomotiveRepository"><path codeLine="153" d="M852.51,203.51 C897.9,241.62 946.5351,282.4517 986.5851,316.0817 " fill="none" id="Repositories-to-LocomotiveRepository" style="stroke:#181818;stroke-width:1.0;"/><polygon fill="#181818" points="991.18,319.94,986.8599,311.0892,987.3509,316.7247,981.7154,317.2158,991.18,319.94" style="stroke:#181818;stroke-width:1.0;"/><text fill="#000000" font-family="sans-serif" font-size="13" lengthAdjust="spacing" textLength="124.2744" x="949" y="286.0283">locomotiveRepository</text><text fill="#000000" font-family="sans-serif" font-size="13" lengthAdjust="spacing" textLength="7.23" x="975.5217" y="308.8593">1</text></g><!--link Repositories to CargoRepository--><g id="link_Repositories_CargoRepository"><path codeLine="154" d="M852.7,162.83 C993.16,219.54 1242,320 1242,320 C1242,320 1251.0281,325.3614 1267.8881,335.3514 " fill="none" id="Repositories-to-CargoRepository" style="stroke:#181818;stroke-width:1.0;"/><polygon fill="#181818" points="1273.05,338.41,1267.3462,330.3809,1268.7484,335.8612,1263.2681,337.2634,1273.05,338.41" style="stroke:#181818;stroke-width:1.0;"/><text fill="#000000" font-family="sans-serif" font-size="13" lengthAdjust="spacing" textLength="94.6563" x="1162" y="286.0283">cargoRepository</text><text fill="#000000" font-family="sans-serif" font-size="13" lengthAdjust="spacing" textLength="7.23" x="1254.5606" y="327.2178">1</text></g><!--link ApplicationSession to ApplicationSession--><g id="link_ApplicationSession_ApplicationSession"><path codeLine="156" d="M157.06,355.27 C176.94,356.23 192,361.8 192,372 C192,382.2 182.933,387.4806 163.053,388.4406 " fill="none" id="ApplicationSession-to-ApplicationSession" style="stroke:#181818;stroke-width:1.0;"/><polygon fill="#181818" points="157.06,388.73,166.2425,392.2912,162.0542,388.4888,165.8566,384.3006,157.06,388.73" style="stroke:#181818;stroke-width:1.0;"/><text fill="#000000" font-family="sans-serif" font-size="13" lengthAdjust="spacing" textLength="48.4199" x="198" y="377.5283">instance</text><text fill="#000000" font-family="sans-serif" font-size="13" lengthAdjust="spacing" textLength="7.23" x="165.1581" y="386.6291">1</text></g><!--link ApplicationSession to UserSession--><g id="link_ApplicationSession_UserSession"><path codeLine="157" d="M115.66,424.17 C137.86,457.91 162.9832,496.0869 182.1732,525.2669 " fill="none" id="ApplicationSession-to-UserSession" style="stroke:#181818;stroke-width:1.0;stroke-dasharray:7.0,7.0;"/><polygon fill="#181818" points="185.47,530.28,183.8668,520.5625,182.7227,526.1024,177.1827,524.9583,185.47,530.28" style="stroke:#181818;stroke-width:1.0;"/></g><!--link MapRepository to Map--><g id="link_MapRepository_Map"><path codeLine="159" d="M482,405.83 C482,467.26 482,596.53 482,697.79 " fill="none" id="MapRepository-to-Map" style="stroke:#181818;stroke-width:1.0;"/><polygon fill="#181818" points="482,703.79,486,694.79,482,698.79,478,694.79,482,703.79" style="stroke:#181818;stroke-width:1.0;"/><text fill="#000000" font-family="sans-serif" font-size="13" lengthAdjust="spacing" textLength="31.7891" x="483" y="569.5283">maps</text><text fill="#000000" font-family="sans-serif" font-size="13" lengthAdjust="spacing" textLength="5.0591" x="476.8426" y="692.5929">*</text></g><!--link Map to Industry--><g id="link_Map_Industry"><path codeLine="161" d="M483.53,957.24 C485.3,1103.75 488,1326 488,1326 C488,1326 548.5889,1389.5482 603.4689,1447.0882 " fill="none" id="Map-to-Industry" style="stroke:#181818;stroke-width:1.0;"/><polygon fill="#181818" points="607.61,1451.43,604.2929,1442.1566,604.1591,1447.8118,598.5038,1447.678,607.61,1451.43" style="stroke:#181818;stroke-width:1.0;"/><text fill="#000000" font-family="sans-serif" font-size="13" lengthAdjust="spacing" textLength="55.6372" x="489" y="1186.5283">industries</text><text fill="#000000" font-family="sans-serif" font-size="13" lengthAdjust="spacing" textLength="5.0591" x="595.4371" y="1440.3193">*</text></g><!--link Map to City--><g id="link_Map_City"><path codeLine="162" d="M429.13,957.23 C411.38,999.43 396,1036 396,1036 C396,1036 392.4028,1332.5704 390.8028,1464.3604 " fill="none" id="Map-to-City" style="stroke:#181818;stroke-width:1.0;"/><polygon fill="#181818" points="390.73,1470.36,394.839,1461.4092,390.7907,1465.3604,386.8396,1461.3121,390.73,1470.36" style="stroke:#181818;stroke-width:1.0;"/><text fill="#000000" font-family="sans-serif" font-size="13" lengthAdjust="spacing" textLength="29.6182" x="397" y="1186.5283">cities</text><text fill="#000000" font-family="sans-serif" font-size="13" lengthAdjust="spacing" textLength="5.0591" x="385.5348" y="1459.325">*</text></g><!--link Map to Scenario--><g id="link_Map_Scenario"><path codeLine="163" d="M538.27,957.39 C550.57,984.91 560,1006 560,1006 C560,1006 568.5482,1014.0013 587.5882,1031.8113 " fill="none" id="Map-to-Scenario" style="stroke:#181818;stroke-width:1.0;"/><polygon fill="#181818" points="591.97,1035.91,588.1298,1026.8407,588.3185,1032.4944,582.6648,1032.6831,591.97,1035.91" style="stroke:#181818;stroke-width:1.0;"/><text fill="#000000" font-family="sans-serif" font-size="13" lengthAdjust="spacing" textLength="55.6372" x="561" y="1002.0283">scenarios</text><text fill="#000000" font-family="sans-serif" font-size="13" lengthAdjust="spacing" textLength="5.0591" x="578.4222" y="1024.5448">*</text></g><!--link Scenario to Map--><g id="link_Scenario_Map"><path codeLine="171" d="M652.7,1035.95 C634.54,1007.9 621,987 621,987 C621,987 610,974.7 594.2,957.02 " fill="none" id="Scenario-Map" style="stroke:#181818;stroke-width:1.0;"/><polygon fill="#000000" points="633.0228,992.6285,636.0475,1001.6453,640.7698,998.1453,633.0228,992.6285" style="stroke:#000000;stroke-width:1.0;"/><text fill="#000000" font-family="sans-serif" font-size="13" lengthAdjust="spacing" textLength="27.46" x="645" y="1002.0283">uses</text><text fill="#000000" font-family="sans-serif" font-size="13" lengthAdjust="spacing" textLength="5.0591" x="642.4733" y="1024.587">*</text><text fill="#000000" font-family="sans-serif" font-size="13" lengthAdjust="spacing" textLength="7.23" x="593.4843" y="978.8674">1</text></g><!--link Editor to Map--><g id="link_Editor_Map"><path codeLine="165" d="M662.9,625.02 C642.14,648.49 617.5,676.34 593.19,703.82 " fill="none" id="Editor-Map" style="stroke:#181818;stroke-width:1.0;"/><polygon fill="#000000" points="634.6871,668.3904,642.8814,663.5631,638.479,659.6685,634.6871,668.3904" style="stroke:#000000;stroke-width:1.0;"/><text fill="#000000" font-family="sans-serif" font-size="13" lengthAdjust="spacing" textLength="42.6309" x="647" y="670.0283">creates</text><text fill="#000000" font-family="sans-serif" font-size="13" lengthAdjust="spacing" textLength="7.23" x="649.014" y="647.5093">1</text><text fill="#000000" font-family="sans-serif" font-size="13" lengthAdjust="spacing" textLength="5.0591" x="594.8082" y="692.6248">*</text></g><!--link Editor to Scenario--><g id="link_Editor_Scenario"><path codeLine="166" d="M718.93,625.09 C723.54,719.54 732.61,905.42 738.97,1035.93 " fill="none" id="Editor-Scenario" style="stroke:#181818;stroke-width:1.0;"/><polygon fill="#000000" points="739.2436,835.6396,741.7384,826.462,735.8675,826.7484,739.2436,835.6396" style="stroke:#000000;stroke-width:1.0;"/><text fill="#000000" font-family="sans-serif" font-size="13" lengthAdjust="spacing" textLength="42.6309" x="748" y="836.0283">creates</text><text fill="#000000" font-family="sans-serif" font-size="13" lengthAdjust="spacing" textLength="7.23" x="711.8727" y="647.5878">1</text><text fill="#000000" font-family="sans-serif" font-size="13" lengthAdjust="spacing" textLength="5.0591" x="733.4612" y="1024.5659">*</text></g><!--link Industry to Cargo--><g id="link_Industry_Cargo"><path codeLine="168" d="M612.71,1611.75 C577.67,1651.27 535.67,1698.62 501.86,1736.74 " fill="none" id="Industry-Cargo" style="stroke:#181818;stroke-width:1.0;"/><polygon fill="#000000" points="540.6824,1701.3863,548.8828,1696.5692,544.4852,1692.6691,540.6824,1701.3863" style="stroke:#000000;stroke-width:1.0;"/><text fill="#000000" font-family="sans-serif" font-size="13" lengthAdjust="spacing" textLength="116.3398" x="553" y="1703.0283">produces/consumes</text><text fill="#000000" font-family="sans-serif" font-size="13" lengthAdjust="spacing" textLength="5.0591" x="601.6889" y="1633.1513">*</text><text fill="#000000" font-family="sans-serif" font-size="13" lengthAdjust="spacing" textLength="5.0591" x="502.9672" y="1725.6042">*</text></g><!--link Industry to IndustrySector--><g id="link_Industry_IndustrySector"><path codeLine="169" d="M697.17,1611.75 C704.24,1651.27 712.71,1698.62 719.53,1736.74 " fill="none" id="Industry-IndustrySector" style="stroke:#181818;stroke-width:1.0;"/><polygon fill="#000000" points="718.8805,1702.5674,720.1807,1693.1461,714.3947,1694.1812,718.8805,1702.5674" style="stroke:#000000;stroke-width:1.0;"/><text fill="#000000" font-family="sans-serif" font-size="13" lengthAdjust="spacing" textLength="59.9917" x="727" y="1703.0283">belongs to</text><text fill="#000000" font-family="sans-serif" font-size="13" lengthAdjust="spacing" textLength="5.0591" x="693.1432" y="1633.1513">*</text><text fill="#000000" font-family="sans-serif" font-size="13" lengthAdjust="spacing" textLength="7.23" x="710.89" y="1725.6042">1</text></g><!--link Scenario to Industry--><g id="link_Scenario_Industry"><path codeLine="172" d="M719.97,1326.01 C712.21,1368.92 704,1414.35 697.29,1451.47 " fill="none" id="Scenario-Industry" style="stroke:#181818;stroke-width:1.0;"/><polygon fill="#000000" points="718.1105,1370.5658,722.6116,1362.1878,716.8275,1361.1421,718.1105,1370.5658" style="stroke:#000000;stroke-width:1.0;"/><text fill="#000000" font-family="sans-serif" font-size="13" lengthAdjust="spacing" textLength="59.979" x="728" y="1371.0283">configures</text><text fill="#000000" font-family="sans-serif" font-size="13" lengthAdjust="spacing" textLength="7.23" x="711.4635" y="1347.9593">1</text><text fill="#000000" font-family="sans-serif" font-size="13" lengthAdjust="spacing" textLength="5.0591" x="693.3844" y="1440.363">*</text></g><!--link Scenario to Locomotive--><g id="link_Scenario_Locomotive"><path codeLine="173" d="M838.56,1326.01 C855.37,1352.15 872.77,1379.23 889.2,1404.79 " fill="none" id="Scenario-Locomotive" style="stroke:#181818;stroke-width:1.0;"/><polygon fill="#000000" points="871.7036,1369.8515,869.2849,1360.6536,864.3405,1363.8319,871.7036,1369.8515" style="stroke:#000000;stroke-width:1.0;"/><text fill="#000000" font-family="sans-serif" font-size="13" lengthAdjust="spacing" textLength="59.979" x="878" y="1371.0283">configures</text><text fill="#000000" font-family="sans-serif" font-size="13" lengthAdjust="spacing" textLength="7.23" x="836.1683" y="1347.9593">1</text><text fill="#000000" font-family="sans-serif" font-size="13" lengthAdjust="spacing" textLength="5.0591" x="879.1125" y="1393.5929">*</text></g><!--link Scenario to City--><g id="link_Scenario_City"><path codeLine="174" d="M598.89,1326.01 C547.4,1376.42 492.35,1430.3 451.7,1470.1 " fill="none" id="Scenario-City" style="stroke:#181818;stroke-width:1.0;"/><polygon fill="#000000" points="569.427,1369.1432,577.9465,1364.9159,573.8347,1360.7157,569.427,1369.1432" style="stroke:#000000;stroke-width:1.0;"/><text fill="#000000" font-family="sans-serif" font-size="13" lengthAdjust="spacing" textLength="59.979" x="582" y="1371.0283">configures</text><text fill="#000000" font-family="sans-serif" font-size="13" lengthAdjust="spacing" textLength="7.23" x="584.1403" y="1347.9593">1</text><text fill="#000000" font-family="sans-serif" font-size="13" lengthAdjust="spacing" textLength="5.0591" x="453.5545" y="1459.035">*</text></g><!--link City to Cargo--><g id="link_City_Cargo"><path codeLine="176" d="M388.84,1592.62 C388,1636.38 387,1688 387,1688 C387,1688 387,1707 387,1707 C387,1707 393.99,1720.13 402.9,1736.85 " fill="none" id="City-Cargo" style="stroke:#181818;stroke-width:1.0;"/><polygon fill="#000000" points="392.4851,1702.6219,394.5326,1693.3344,388.6825,1693.9047,392.4851,1702.6219" style="stroke:#000000;stroke-width:1.0;"/><text fill="#000000" font-family="sans-serif" font-size="13" lengthAdjust="spacing" textLength="116.3398" x="401" y="1703.0283">produces/consumes</text><text fill="#000000" font-family="sans-serif" font-size="13" lengthAdjust="spacing" textLength="5.0591" x="383.4039" y="1615.1215">*</text><text fill="#000000" font-family="sans-serif" font-size="13" lengthAdjust="spacing" textLength="5.0591" x="393.8019" y="1725.7255">*</text></g><!--link EditorRepository to Editor--><g id="link_EditorRepository_Editor"><path codeLine="178" d="M716,414.7 C716,440.48 716,468 716,496.65 " fill="none" id="EditorRepository-to-Editor" style="stroke:#181818;stroke-width:1.0;"/><polygon fill="#181818" points="716,502.65,720,493.65,716,497.65,712,493.65,716,502.65" style="stroke:#181818;stroke-width:1.0;"/><text fill="#000000" font-family="sans-serif" font-size="13" lengthAdjust="spacing" textLength="39.019" x="717" y="469.0283">editors</text><text fill="#000000" font-family="sans-serif" font-size="13" lengthAdjust="spacing" textLength="5.0591" x="710.7126" y="491.5907">*</text></g><!--link LocomotiveRepository to Locomotive--><g id="link_LocomotiveRepository_Locomotive"><path codeLine="179" d="M1045,424.17 C1037.3,480.44 1026,563 1026,563 C1026,563 1026,563 1026,1182 C1026,1182 1007.2119,1298.936 991.1719,1398.756 " fill="none" id="LocomotiveRepository-to-Locomotive" style="stroke:#181818;stroke-width:1.0;"/><polygon fill="#181818" points="990.22,1404.68,995.5972,1396.4286,991.0133,1399.7433,987.6985,1395.1594,990.22,1404.68" style="stroke:#181818;stroke-width:1.0;"/><text fill="#000000" font-family="sans-serif" font-size="13" lengthAdjust="spacing" textLength="68.6372" x="1027" y="836.0283">locomotives</text><text fill="#000000" font-family="sans-serif" font-size="13" lengthAdjust="spacing" textLength="5.0591" x="986.2336" y="1393.8984">*</text></g><!--SRC=[nLXDRzms4BthLn2-UDFifirrKIpWEacnG08ONkSGe1UQcfK9IwHAKdQtGVvxXn8faXBtuz2YFcYbcJUQuRoP8ULh_Sn5InLjI2E5P4zADa2Cwg08cfQoPrh1pXng80gOeQAgOu1-egLyvQ8YUrhhM5Dp0URG0cbbVR0FnNL6APMHHMJ5QghrZJ6AFtO6jaoA7VyRo2z5SLt3tX0ZYUBLao4bj-5mAOgYjo4tRLjpHgre1rhZ3_bU4FnRPLIBDxtgBVck3ShP3rA1sGfy40n69SfkEwL0c63sm_lxga6bZde3AnQqWHZwiUH6gZ6Spa78cknmeQ9oyXQnhrALgVmjeMMvOo2eudAXtSsReFj2sqL3syYVHuyUhRVjXwa_NAqo7wYnWTWV9mPHpeNc5UWpbBVS73vpRL1fVtwrpni7eI-Kr_InXgqeEsrK0lIo6VYpPBAHXh-0zjWW6j1kgMCEXjKi2VHfNOPrB7tiop-4jT5GOur0wPnpqCkiuoN1_Fcb-SnYwUrvrIcumnfTj7XP4dlTDlQgdGjx__6lGT8_t2bPTWpqx3M_Wm25jIOgdui5TpVkNHK8h_f46Ivj_X8Rv8BXPKdizK7H_PwpUrooZlZ7YZX3FJl18pzBNwZsaDcaQRY99Km11lZlq1Spa2G_qE4PM6OIwc1dYo2NtdFDk28ljEPblDI84n_86MBweJYHkMXvZI5z0wfGpuNnGwDVhHrjzqFJ1fNkxDp3fgMgaYFJzi5JNK93HPb7p2BV0OkdM6w2yO4Pnmbg7wMiWGgdheOM0EtzfMgiSjqrnxGbQAPuQrSQt8v13ZQdOgEDx8Gjw59soBoJrdmFkgKYILoEX2ZFe6MdM9XN0oxAcAsYSpo7qlelE0jrVIOE-OgKN5A4hNpjWKdsA6FOeuewKXATaUsk1IYdyhxTPsMyxw2-bNh6pydQf-pFZcjklTyfpc1gt534OYlYdZxHnwFo7bgfxIWwnFluZHyHYD1n8_UfpjlqAil7VFFF6mowtmxZeS4V3JBJva4EwCKuDyVfaw4zxo_e7v3YP6RVP4RYma_WYPsRecvQH_v7hpYhnyABXHUVkn9UOiKqdR4kj_naNqgfIrXDzgXRAOoIDPRscBrZW6mENSt4gubsIf_LB_RG5cFSlfdN7-FkoEuQlUH_sMAFbSubk-mg4Fq9lqeoX- -KZQzRf0brC-cxpL7UfkY8ydTeDlzaE8sFlWPE0v6Fiu1GegUXqruuZSvrnmcBJTAuHP7qzcf3hjvVfVrk9_FGo1Ei0wUZTcqB8GeaQpARdMjtQZndc1s4QrBdKf1zmNJAhmbB9KMH-U1qnXbDb9oCTbf1HPghFgYV-WmEUTCzOfIFPykrFxnRnc94Vo9PstQRQiPlnVMueU3RtHUhNSng5VaUXeqccmmYUbE05MDi5kAG_kZIkZ7oip_veS4C__vgUWB5ao7KKbJQ_ZS0NOoE8vCXNDnExJi384GRvMpykZg6ZKvJ5w1zhcDSqGilJ44nAtjFbakwxm9TPElSevEmG-dhuXy0]--></g></svg>