<svg xmlns="http://www.w3.org/2000/svg" xmlns:xlink="http://www.w3.org/1999/xlink" contentStyleType="text/css" height="417px" preserveAspectRatio="none" style="width:566px;height:417px;background:#FFFFFF;" version="1.1" viewBox="0 0 566 417" width="566px" zoomAndPan="magnify"><defs/><g><rect fill="#FFFFFF" height="252.3281" style="stroke:#181818;stroke-width:1.0;" width="10" x="119.8271" y="90.5332"/><rect fill="#FFFFFF" height="31.291" style="stroke:#181818;stroke-width:1.0;" width="10" x="263.6611" y="148.1152"/><rect fill="#FFFFFF" height="31.291" style="stroke:#181818;stroke-width:1.0;" width="10" x="367.4194" y="210.6973"/><rect fill="#FFFFFF" height="31.291" style="stroke:#181818;stroke-width:1.0;" width="10" x="485.1846" y="273.2793"/><rect fill="none" height="207.0371" style="stroke:#000000;stroke-width:1.5;" width="533.1982" x="26.8999" y="105.5332"/><line style="stroke:#181818;stroke-width:0.5;stroke-dasharray:5.0,5.0;" x1="123.8999" x2="123.8999" y1="57.2422" y2="360.8613"/><line style="stroke:#181818;stroke-width:0.5;stroke-dasharray:5.0,5.0;" x1="267.7544" x2="267.7544" y1="57.2422" y2="360.8613"/><line style="stroke:#181818;stroke-width:0.5;stroke-dasharray:5.0,5.0;" x1="371.5679" x2="371.5679" y1="57.2422" y2="360.8613"/><line style="stroke:#181818;stroke-width:0.5;stroke-dasharray:5.0,5.0;" x1="489.271" x2="489.271" y1="57.2422" y2="360.8613"/><rect fill="#E3E3E3" height="32.6211" rx="2.5" ry="2.5" style="stroke:#181818;stroke-width:0.5;" width="175.8545" x="36.8999" y="23.6211"/><text fill="#000000" font-family="sans-serif" font-size="14" lengthAdjust="spacing" textLength="161.8545" x="43.8999" y="45.7285">:CreateScenarioController</text><rect fill="#E3E3E3" height="32.6211" rx="2.5" ry="2.5" style="stroke:#181818;stroke-width:0.5;" width="175.8545" x="36.8999" y="359.8613"/><text fill="#000000" font-family="sans-serif" font-size="14" lengthAdjust="spacing" textLength="161.8545" x="43.8999" y="381.9688">:CreateScenarioController</text><rect fill="#E3E3E3" height="32.6211" rx="2.5" ry="2.5" style="stroke:#181818;stroke-width:0.5;" width="91.8135" x="222.7544" y="23.6211"/><text fill="#000000" font-family="sans-serif" font-size="14" lengthAdjust="spacing" textLength="77.8135" x="229.7544" y="45.7285">Repositories</text><rect fill="#E3E3E3" height="32.6211" rx="2.5" ry="2.5" style="stroke:#181818;stroke-width:0.5;" width="91.8135" x="222.7544" y="359.8613"/><text fill="#000000" font-family="sans-serif" font-size="14" lengthAdjust="spacing" textLength="77.8135" x="229.7544" y="381.9688">Repositories</text><rect fill="#E3E3E3" height="51.2422" rx="2.5" ry="2.5" style="stroke:#181818;stroke-width:0.5;" width="95.7031" x="324.5679" y="5"/><text fill="#000000" font-family="sans-serif" font-size="14" lengthAdjust="spacing" textLength="72.3652" x="336.2368" y="27.1074">repositories</text><text fill="#000000" font-family="sans-serif" font-size="14" lengthAdjust="spacing" textLength="81.7031" x="331.5679" y="45.7285">:Repositories</text><rect fill="#E3E3E3" height="51.2422" rx="2.5" ry="2.5" style="stroke:#181818;stroke-width:0.5;" width="95.7031" x="324.5679" y="359.8613"/><text fill="#000000" font-family="sans-serif" font-size="14" lengthAdjust="spacing" textLength="72.3652" x="336.2368" y="381.9688">repositories</text><text fill="#000000" font-family="sans-serif" font-size="14" lengthAdjust="spacing" textLength="81.7031" x="331.5679" y="400.5898">:Repositories</text><rect fill="#E3E3E3" height="51.2422" rx="2.5" ry="2.5" style="stroke:#181818;stroke-width:0.5;" width="119.8271" x="430.271" y="5"/><text fill="#000000" font-family="sans-serif" font-size="14" lengthAdjust="spacing" textLength="101.9375" x="439.2158" y="27.1074">cargoRepository</text><text fill="#000000" font-family="sans-serif" font-size="14" lengthAdjust="spacing" textLength="105.8271" x="437.271" y="45.7285">:cargoRepository</text><rect fill="#E3E3E3" height="51.2422" rx="2.5" ry="2.5" style="stroke:#181818;stroke-width:0.5;" width="119.8271" x="430.271" y="359.8613"/><text fill="#000000" font-family="sans-serif" font-size="14" lengthAdjust="spacing" textLength="101.9375" x="439.2158" y="381.9688">cargoRepository</text><text fill="#000000" font-family="sans-serif" font-size="14" lengthAdjust="spacing" textLength="105.8271" x="437.271" y="400.5898">:cargoRepository</text><rect fill="#FFFFFF" height="252.3281" style="stroke:#181818;stroke-width:1.0;" width="10" x="119.8271" y="90.5332"/><rect fill="#FFFFFF" height="31.291" style="stroke:#181818;stroke-width:1.0;" width="10" x="263.6611" y="148.1152"/><rect fill="#FFFFFF" height="31.291" style="stroke:#181818;stroke-width:1.0;" width="10" x="367.4194" y="210.6973"/><rect fill="#FFFFFF" height="31.291" style="stroke:#181818;stroke-width:1.0;" width="10" x="485.1846" y="273.2793"/><polygon fill="#181818" points="107.8271,86.5332,117.8271,90.5332,107.8271,94.5332,111.8271,90.5332" style="stroke:#181818;stroke-width:1.0;"/><line style="stroke:#181818;stroke-width:1.0;" x1="0" x2="113.8271" y1="90.5332" y2="90.5332"/><text fill="#000000" font-family="sans-serif" font-size="13" font-weight="bold" lengthAdjust="spacing" textLength="14.46" x="7" y="85.2705">13</text><text fill="#000000" font-family="sans-serif" font-size="13" lengthAdjust="spacing" textLength="82.3672" x="25.46" y="85.2705">getCargoList()</text><path d="M26.8999,105.5332 L161.4653,105.5332 L161.4653,114.8242 L151.4653,124.8242 L26.8999,124.8242 L26.8999,105.5332 " fill="#EEEEEE" style="stroke:#000000;stroke-width:1.5;"/><rect fill="none" height="207.0371" style="stroke:#000000;stroke-width:1.5;" width="533.1982" x="26.8999" y="105.5332"/><text fill="#000000" font-family="sans-serif" font-size="13" font-weight="bold" lengthAdjust="spacing" textLength="89.5654" x="41.8999" y="120.5615">Get Cargo List</text><polygon fill="#181818" points="251.6611,144.1152,261.6611,148.1152,251.6611,152.1152,255.6611,148.1152" style="stroke:#181818;stroke-width:1.0;"/><line style="stroke:#181818;stroke-width:1.0;" x1="129.8271" x2="257.6611" y1="148.1152" y2="148.1152"/><text fill="#000000" font-family="sans-serif" font-size="13" font-weight="bold" lengthAdjust="spacing" textLength="25.3018" x="136.8271" y="142.8525">13.1</text><text fill="#000000" font-family="sans-serif" font-size="13" lengthAdjust="spacing" textLength="75.8735" x="166.1289" y="142.8525">getInstance()</text><polygon fill="#181818" points="140.8271,175.4063,130.8271,179.4063,140.8271,183.4063,136.8271,179.4063" style="stroke:#181818;stroke-width:1.0;"/><line style="stroke:#181818;stroke-width:1.0;stroke-dasharray:2.0,2.0;" x1="134.8271" x2="267.6611" y1="179.4063" y2="179.4063"/><text fill="#000000" font-family="sans-serif" font-size="13" font-weight="bold" lengthAdjust="spacing" textLength="25.3018" x="146.8271" y="174.1436">13.2</text><text fill="#000000" font-family="sans-serif" font-size="13" lengthAdjust="spacing" textLength="67.1963" x="176.1289" y="174.1436">repositories</text><polygon fill="#181818" points="355.4194,206.6973,365.4194,210.6973,355.4194,214.6973,359.4194,210.6973" style="stroke:#181818;stroke-width:1.0;"/><line style="stroke:#181818;stroke-width:1.0;" x1="129.8271" x2="361.4194" y1="210.6973" y2="210.6973"/><text fill="#000000" font-family="sans-serif" font-size="13" font-weight="bold" lengthAdjust="spacing" textLength="25.3018" x="136.8271" y="205.4346">13.3</text><text fill="#000000" font-family="sans-serif" font-size="13" lengthAdjust="spacing" textLength="124.2744" x="166.1289" y="205.4346">getCargoRepository()</text><polygon fill="#181818" points="140.8271,237.9883,130.8271,241.9883,140.8271,245.9883,136.8271,241.9883" style="stroke:#181818;stroke-width:1.0;"/><line style="stroke:#181818;stroke-width:1.0;stroke-dasharray:2.0,2.0;" x1="134.8271" x2="371.4194" y1="241.9883" y2="241.9883"/><text fill="#000000" font-family="sans-serif" font-size="13" font-weight="bold" lengthAdjust="spacing" textLength="25.3018" x="146.8271" y="236.7256">13.4</text><text fill="#000000" font-family="sans-serif" font-size="13" lengthAdjust="spacing" textLength="94.6563" x="176.1289" y="236.7256">cargoRepository</text><polygon fill="#181818" points="473.1846,269.2793,483.1846,273.2793,473.1846,277.2793,477.1846,273.2793" style="stroke:#181818;stroke-width:1.0;"/><line style="stroke:#181818;stroke-width:1.0;" x1="129.8271" x2="479.1846" y1="273.2793" y2="273.2793"/><text fill="#000000" font-family="sans-serif" font-size="13" font-weight="bold" lengthAdjust="spacing" textLength="25.3018" x="136.8271" y="268.0166">13.5</text><text fill="#000000" font-family="sans-serif" font-size="13" lengthAdjust="spacing" textLength="82.3672" x="166.1289" y="268.0166">getCargoList()</text><polygon fill="#181818" points="140.8271,300.5703,130.8271,304.5703,140.8271,308.5703,136.8271,304.5703" style="stroke:#181818;stroke-width:1.0;"/><line style="stroke:#181818;stroke-width:1.0;stroke-dasharray:2.0,2.0;" x1="134.8271" x2="489.1846" y1="304.5703" y2="304.5703"/><text fill="#000000" font-family="sans-serif" font-size="13" font-weight="bold" lengthAdjust="spacing" textLength="25.3018" x="146.8271" y="299.3076">13.6</text><text fill="#000000" font-family="sans-serif" font-size="13" lengthAdjust="spacing" textLength="52.749" x="176.1289" y="299.3076">cargoList</text><polygon fill="#181818" points="11,338.8613,1,342.8613,11,346.8613,7,342.8613" style="stroke:#181818;stroke-width:1.0;"/><line style="stroke:#181818;stroke-width:1.0;stroke-dasharray:2.0,2.0;" x1="5" x2="123.8271" y1="342.8613" y2="342.8613"/><text fill="#000000" font-family="sans-serif" font-size="13" font-weight="bold" lengthAdjust="spacing" textLength="14.46" x="17" y="337.5986">14</text><text fill="#000000" font-family="sans-serif" font-size="13" lengthAdjust="spacing" textLength="52.749" x="35.46" y="337.5986">cargoList</text><!--SRC=[TP9HQuCm58NVyoikVTeU79JjISPWI2c5KeVsSL3kqZiRgeaaSQF_VZ6k6hNDOtBEbvDpOyv2rgYnWaf9nKzQLGHMDyHCVr8ZFsD1kRsK19guHLcKeS2SyAX-XIpW6qj3ZBbjAxYeKLfOn8acj9HpagY5IfIqMfKbwGMWWMIVRSVwZ6fbX5LQaF6IRFMHvcED3ZIVChvjEUIRtNgxsgUxiPcZBbHlkJZ_PASBzfwjqqCBOWmRgsHJVP66vJEBtdngYA4WcxJMhJ3suN6YUreov5RykBTthmIt2gsQ6jPamHkXTVg3Tdcge_lq7NuZZQkRawDVLJsqwmM2rHcZ_u0nX3NrmYDD2BVl7zeB7ZfqT3TGqFeiMi0SGaxAlvip0CyI3yEQJsKMCvXic31WHCE8-PLqAzU4HFBOHGl_mOlVUOsYEJ4ajH_a3m00]--></g></svg>