<svg xmlns="http://www.w3.org/2000/svg" xmlns:xlink="http://www.w3.org/1999/xlink" contentStyleType="text/css" height="787px" preserveAspectRatio="none" style="width:701px;height:787px;background:#FFFFFF;" version="1.1" viewBox="0 0 701 787" width="701px" zoomAndPan="magnify"><title>System Sequence Diagram: US03 - Add a city</title><defs/><g><text fill="#000000" font-family="sans-serif" font-size="14" font-weight="bold" lengthAdjust="spacing" textLength="307.8728" x="197.7732" y="29.9659">System Sequence Diagram: US03 - Add a city</text><rect fill="#FFFFFF" height="551.9842" style="stroke:#181818;stroke-width:1.0;" width="10" x="47.6559" y="134.1358"/><rect fill="#FFFFFF" height="31.706" style="stroke:#181818;stroke-width:1.0;" width="10" x="636.7573" y="157.8419"/><rect fill="#FFFFFF" height="31.706" style="stroke:#181818;stroke-width:1.0;" width="10" x="636.7573" y="221.2539"/><rect fill="#FFFFFF" height="31.706" style="stroke:#181818;stroke-width:1.0;" width="10" x="636.7573" y="284.6659"/><rect fill="#FFFFFF" height="85.118" style="stroke:#181818;stroke-width:1.0;" width="10" x="636.7573" y="348.0779"/><rect fill="#FFFFFF" height="31.706" style="stroke:#181818;stroke-width:1.0;" width="10" x="636.7573" y="464.902"/><rect fill="none" height="228.924" style="stroke:#000000;stroke-width:1.5;" width="684.4192" x="10" y="363.0779"/><rect fill="none" height="146.5301" style="stroke:#000000;stroke-width:1.5;" width="664.4192" x="20" y="389.784"/><line style="stroke:#181818;stroke-width:0.5;stroke-dasharray:5.0,5.0;" x1="52" x2="52" y1="124.1358" y2="704.12"/><line style="stroke:#181818;stroke-width:0.5;stroke-dasharray:5.0,5.0;" x1="641.0954" x2="641.0954" y1="124.1358" y2="704.12"/><text fill="#000000" font-family="sans-serif" font-size="14" lengthAdjust="spacing" textLength="39.3119" x="30" y="120.0339">Editor</text><ellipse cx="52.6559" cy="53.5679" fill="#E3E3E3" rx="8" ry="8" style="stroke:#181818;stroke-width:0.5;"/><path d="M52.6559,61.5679 L52.6559,88.5679 M39.6559,69.5679 L65.6559,69.5679 M52.6559,88.5679 L39.6559,103.5679 M52.6559,88.5679 L65.6559,103.5679 " fill="none" style="stroke:#181818;stroke-width:0.5;"/><text fill="#000000" font-family="sans-serif" font-size="14" lengthAdjust="spacing" textLength="39.3119" x="30" y="718.0859">Editor</text><ellipse cx="52.6559" cy="730.6879" fill="#E3E3E3" rx="8" ry="8" style="stroke:#181818;stroke-width:0.5;"/><path d="M52.6559,738.6879 L52.6559,765.6879 M39.6559,746.6879 L65.6559,746.6879 M52.6559,765.6879 L39.6559,780.6879 M52.6559,765.6879 L65.6559,780.6879 " fill="none" style="stroke:#181818;stroke-width:0.5;"/><rect fill="#E3E3E3" height="33.0679" rx="2.5" ry="2.5" style="stroke:#181818;stroke-width:0.5;" width="65.3238" x="609.0954" y="90.0679"/><text fill="#000000" font-family="sans-serif" font-size="14" lengthAdjust="spacing" textLength="51.3238" x="616.0954" y="112.0339">:System</text><rect fill="#E3E3E3" height="33.0679" rx="2.5" ry="2.5" style="stroke:#181818;stroke-width:0.5;" width="65.3238" x="609.0954" y="703.12"/><text fill="#000000" font-family="sans-serif" font-size="14" lengthAdjust="spacing" textLength="51.3238" x="616.0954" y="725.0859">:System</text><rect fill="#FFFFFF" height="551.9842" style="stroke:#181818;stroke-width:1.0;" width="10" x="47.6559" y="134.1358"/><rect fill="#FFFFFF" height="31.706" style="stroke:#181818;stroke-width:1.0;" width="10" x="636.7573" y="157.8419"/><rect fill="#FFFFFF" height="31.706" style="stroke:#181818;stroke-width:1.0;" width="10" x="636.7573" y="221.2539"/><rect fill="#FFFFFF" height="31.706" style="stroke:#181818;stroke-width:1.0;" width="10" x="636.7573" y="284.6659"/><rect fill="#FFFFFF" height="85.118" style="stroke:#181818;stroke-width:1.0;" width="10" x="636.7573" y="348.0779"/><rect fill="#FFFFFF" height="31.706" style="stroke:#181818;stroke-width:1.0;" width="10" x="636.7573" y="464.902"/><polygon fill="#181818" points="624.7573,153.8419,634.7573,157.8419,624.7573,161.8419,628.7573,157.8419" style="stroke:#181818;stroke-width:1.0;"/><line style="stroke:#181818;stroke-width:1.0;" x1="57.6559" x2="630.7573" y1="157.8419" y2="157.8419"/><text fill="#000000" font-family="sans-serif" font-size="13" font-weight="bold" lengthAdjust="spacing" textLength="7.436" x="64.6559" y="152.0328">1</text><text fill="#000000" font-family="sans-serif" font-size="13" lengthAdjust="spacing" textLength="94.6011" x="76.0919" y="152.0328">Asks to add city</text><polygon fill="#181818" points="68.6559,185.5479,58.6559,189.5479,68.6559,193.5479,64.6559,189.5479" style="stroke:#181818;stroke-width:1.0;"/><line style="stroke:#181818;stroke-width:1.0;stroke-dasharray:2.0,2.0;" x1="62.6559" x2="640.7573" y1="189.5479" y2="189.5479"/><text fill="#000000" font-family="sans-serif" font-size="13" font-weight="bold" lengthAdjust="spacing" textLength="7.436" x="74.6559" y="183.7389">2</text><text fill="#000000" font-family="sans-serif" font-size="13" lengthAdjust="spacing" textLength="438.8153" x="86.0919" y="183.7389">Requests city data (name, X and Y coordinates, number of house blocks)</text><polygon fill="#181818" points="624.7573,217.2539,634.7573,221.2539,624.7573,225.2539,628.7573,221.2539" style="stroke:#181818;stroke-width:1.0;"/><line style="stroke:#181818;stroke-width:1.0;" x1="57.6559" x2="630.7573" y1="221.2539" y2="221.2539"/><text fill="#000000" font-family="sans-serif" font-size="13" font-weight="bold" lengthAdjust="spacing" textLength="7.436" x="64.6559" y="215.4449">3</text><text fill="#000000" font-family="sans-serif" font-size="13" lengthAdjust="spacing" textLength="119.7821" x="76.0919" y="215.4449">Types industry data</text><polygon fill="#181818" points="68.6559,248.9599,58.6559,252.9599,68.6559,256.9599,64.6559,252.9599" style="stroke:#181818;stroke-width:1.0;"/><line style="stroke:#181818;stroke-width:1.0;stroke-dasharray:2.0,2.0;" x1="62.6559" x2="640.7573" y1="252.9599" y2="252.9599"/><text fill="#000000" font-family="sans-serif" font-size="13" font-weight="bold" lengthAdjust="spacing" textLength="7.436" x="74.6559" y="247.1509">4</text><text fill="#000000" font-family="sans-serif" font-size="13" lengthAdjust="spacing" textLength="130.8971" x="86.0919" y="247.1509">Asks for confirmation</text><polygon fill="#181818" points="624.7573,280.6659,634.7573,284.6659,624.7573,288.6659,628.7573,284.6659" style="stroke:#181818;stroke-width:1.0;"/><line style="stroke:#181818;stroke-width:1.0;" x1="57.6559" x2="630.7573" y1="284.6659" y2="284.6659"/><text fill="#000000" font-family="sans-serif" font-size="13" font-weight="bold" lengthAdjust="spacing" textLength="7.436" x="64.6559" y="278.8569">5</text><text fill="#000000" font-family="sans-serif" font-size="13" lengthAdjust="spacing" textLength="140.0621" x="76.0919" y="278.8569">Confirms industry data</text><polygon fill="#181818" points="68.6559,312.3719,58.6559,316.3719,68.6559,320.3719,64.6559,316.3719" style="stroke:#181818;stroke-width:1.0;"/><line style="stroke:#181818;stroke-width:1.0;stroke-dasharray:2.0,2.0;" x1="62.6559" x2="640.7573" y1="316.3719" y2="316.3719"/><text fill="#000000" font-family="sans-serif" font-size="13" font-weight="bold" lengthAdjust="spacing" textLength="7.436" x="74.6559" y="310.5629">6</text><text fill="#000000" font-family="sans-serif" font-size="13" lengthAdjust="spacing" textLength="325.5983" x="86.0919" y="310.5629">Asks if the editor wants to assign the blocks manually</text><polygon fill="#181818" points="624.7573,344.0779,634.7573,348.0779,624.7573,352.0779,628.7573,348.0779" style="stroke:#181818;stroke-width:1.0;"/><line style="stroke:#181818;stroke-width:1.0;" x1="57.6559" x2="630.7573" y1="348.0779" y2="348.0779"/><text fill="#000000" font-family="sans-serif" font-size="13" font-weight="bold" lengthAdjust="spacing" textLength="7.436" x="64.6559" y="342.2689">7</text><text fill="#000000" font-family="sans-serif" font-size="13" lengthAdjust="spacing" textLength="101.7771" x="76.0919" y="342.2689">Selects yes or no</text><path d="M10,363.0779 L72.459,363.0779 L72.459,372.784 L62.459,382.784 L10,382.784 L10,363.0779 " fill="#EEEEEE" style="stroke:#000000;stroke-width:1.5;"/><rect fill="none" height="228.924" style="stroke:#000000;stroke-width:1.5;" width="684.4192" x="10" y="363.0779"/><text fill="#000000" font-family="sans-serif" font-size="13" font-weight="bold" lengthAdjust="spacing" textLength="17.459" x="25" y="377.975">alt</text><text fill="#000000" font-family="sans-serif" font-size="11" font-weight="bold" lengthAdjust="spacing" textLength="84.0614" x="87.459" y="376.8369">[answer == yes]</text><path d="M20,389.784 L93.288,389.784 L93.288,399.49 L83.288,409.49 L20,409.49 L20,389.784 " fill="#EEEEEE" style="stroke:#000000;stroke-width:1.5;"/><rect fill="none" height="146.5301" style="stroke:#000000;stroke-width:1.5;" width="664.4192" x="20" y="389.784"/><text fill="#000000" font-family="sans-serif" font-size="13" font-weight="bold" lengthAdjust="spacing" textLength="28.288" x="35" y="404.681">loop</text><text fill="#000000" font-family="sans-serif" font-size="11" font-weight="bold" lengthAdjust="spacing" textLength="116.7751" x="108.288" y="403.5429">[while answer == yes]</text><polygon fill="#181818" points="68.6559,429.196,58.6559,433.196,68.6559,437.196,64.6559,433.196" style="stroke:#181818;stroke-width:1.0;"/><line style="stroke:#181818;stroke-width:1.0;stroke-dasharray:2.0,2.0;" x1="62.6559" x2="640.7573" y1="433.196" y2="433.196"/><text fill="#000000" font-family="sans-serif" font-size="13" font-weight="bold" lengthAdjust="spacing" textLength="7.436" x="74.6559" y="427.387">8</text><text fill="#000000" font-family="sans-serif" font-size="13" lengthAdjust="spacing" textLength="191.5682" x="86.0919" y="427.387">Requests house blocks position</text><polygon fill="#181818" points="624.7573,460.902,634.7573,464.902,624.7573,468.902,628.7573,464.902" style="stroke:#181818;stroke-width:1.0;"/><line style="stroke:#181818;stroke-width:1.0;" x1="57.6559" x2="630.7573" y1="464.902" y2="464.902"/><text fill="#000000" font-family="sans-serif" font-size="13" font-weight="bold" lengthAdjust="spacing" textLength="7.436" x="64.6559" y="459.093">9</text><text fill="#000000" font-family="sans-serif" font-size="13" lengthAdjust="spacing" textLength="137.0851" x="76.0919" y="459.093">Selects blocks position</text><polygon fill="#181818" points="68.6559,492.608,58.6559,496.608,68.6559,500.608,64.6559,496.608" style="stroke:#181818;stroke-width:1.0;"/><line style="stroke:#181818;stroke-width:1.0;stroke-dasharray:2.0,2.0;" x1="62.6559" x2="640.7573" y1="496.608" y2="496.608"/><text fill="#000000" font-family="sans-serif" font-size="13" font-weight="bold" lengthAdjust="spacing" textLength="14.872" x="74.6559" y="490.799">10</text><text fill="#000000" font-family="sans-serif" font-size="13" lengthAdjust="spacing" textLength="349.6873" x="93.5279" y="490.799">Asks if the editor wants to assign the next block manually</text><polygon fill="#181818" points="629.7573,524.314,639.7573,528.314,629.7573,532.314,633.7573,528.314" style="stroke:#181818;stroke-width:1.0;"/><line style="stroke:#181818;stroke-width:1.0;" x1="57.6559" x2="635.7573" y1="528.314" y2="528.314"/><text fill="#000000" font-family="sans-serif" font-size="13" font-weight="bold" lengthAdjust="spacing" textLength="14.872" x="64.6559" y="522.505">11</text><text fill="#000000" font-family="sans-serif" font-size="13" lengthAdjust="spacing" textLength="101.7771" x="83.5279" y="522.505">Selects yes or no</text><line style="stroke:#000000;stroke-width:1.0;stroke-dasharray:2.0,2.0;" x1="10" x2="694.4192" y1="544.314" y2="544.314"/><text fill="#000000" font-family="sans-serif" font-size="11" font-weight="bold" lengthAdjust="spacing" textLength="79.8704" x="15" y="556.073">[answer == no]</text><polygon fill="#181818" points="68.6559,580.002,58.6559,584.002,68.6559,588.002,64.6559,584.002" style="stroke:#181818;stroke-width:1.0;"/><line style="stroke:#181818;stroke-width:1.0;stroke-dasharray:2.0,2.0;" x1="62.6559" x2="640.7573" y1="584.002" y2="584.002"/><text fill="#000000" font-family="sans-serif" font-size="13" font-weight="bold" lengthAdjust="spacing" textLength="14.872" x="74.6559" y="578.1929">12</text><text fill="#000000" font-family="sans-serif" font-size="13" lengthAdjust="spacing" textLength="214.8772" x="93.5279" y="578.1929">Assigns house blocks automatically</text><polygon fill="#181818" points="68.6559,618.708,58.6559,622.708,68.6559,626.708,64.6559,622.708" style="stroke:#181818;stroke-width:1.0;"/><line style="stroke:#181818;stroke-width:1.0;stroke-dasharray:2.0,2.0;" x1="62.6559" x2="640.7573" y1="622.708" y2="622.708"/><text fill="#000000" font-family="sans-serif" font-size="13" font-weight="bold" lengthAdjust="spacing" textLength="14.872" x="74.6559" y="616.899">13</text><text fill="#000000" font-family="sans-serif" font-size="13" lengthAdjust="spacing" textLength="140.6341" x="93.5279" y="616.899">City added successfully</text><polygon fill="#181818" points="68.6559,650.414,58.6559,654.414,68.6559,658.414,64.6559,654.414" style="stroke:#181818;stroke-width:1.0;"/><line style="stroke:#181818;stroke-width:1.0;stroke-dasharray:2.0,2.0;" x1="62.6559" x2="640.7573" y1="654.414" y2="654.414"/><text fill="#000000" font-family="sans-serif" font-size="13" font-weight="bold" lengthAdjust="spacing" textLength="14.872" x="74.6559" y="648.605">14</text><text fill="#000000" font-family="sans-serif" font-size="13" lengthAdjust="spacing" textLength="148.1352" x="93.5279" y="648.605">List the cities in the map</text><polygon fill="#181818" points="63.6559,682.12,53.6559,686.12,63.6559,690.12,59.6559,686.12" style="stroke:#181818;stroke-width:1.0;"/><line style="stroke:#181818;stroke-width:1.0;stroke-dasharray:2.0,2.0;" x1="57.6559" x2="640.7573" y1="686.12" y2="686.12"/><text fill="#000000" font-family="sans-serif" font-size="13" font-weight="bold" lengthAdjust="spacing" textLength="14.872" x="69.6559" y="680.311">15</text><text fill="#000000" font-family="sans-serif" font-size="13" lengthAdjust="spacing" textLength="541.2294" x="88.5279" y="680.311">List the Details of the city that was added (name, position, number of house blocks, map)</text><!--SRC=[fLHDRzim3BtxLn0vhK023DWjG0SKxMuxpHkm7Lc9TeJOacVIo_plHqbEQiJka7MvM16_7jyJAKuQWd9aeHPA-ZcGDmHF3kiUspryAzz_W1qyM0i8nibOyD7v3jK8RV317FhG4aW_qCpIeJbYJQMCchid8-ZhPkx01xJXv7mD5JPCHO6313-qpzJhsKZeOVF9Elrk01doiT1OSSPrw0Ks-umvsVCnHRfVA7GEo1_OVJmtk8S7FZ980DIEKZym_IwnKxBp_HIvqoGvtHw-H9fOE2K0YuBmpcDBM_WEw2ty01D2RvtNTBo5t1U42WvXO8Bd9fWZtrqgMBgkdKpNuFVmTUo8mNaxiFIvy5lW9megJMs2hrpVehZW_ntDOuw-5T02o5aCLu4S22XVdbJSB12pgtqoPSAWHJzWqup54kAAq2Kr-l0OHgLCJJuKYxwm4TMBJohE_NrqJE2R43eu7Pm-tQLnbLAOFOcvnD05ThUGkqRmh8NNijsi-UrKU_ejkTuBtVy7_eN_w4ZU5gGJFwDsigo3Zi2kI8sh8hvPSm6t11RBBFLUA_4OHrYN0LdWmHXYheQOTyttisD9BEdSkpI9wL-BtT_TdqZGDHmtm1GzwW555U2fzhG_pXA_jZIsiTXTiJ81iviCu0y0]--></g></svg>