<svg xmlns="http://www.w3.org/2000/svg" xmlns:xlink="http://www.w3.org/1999/xlink" contentStyleType="text/css" height="1019px" preserveAspectRatio="none" style="width:1039px;height:1019px;background:#FFFFFF;" version="1.1" viewBox="0 0 1039 1019" width="1039px" zoomAndPan="magnify"><defs/><g><rect fill="#FFFFFF" height="823.9263" style="stroke:#181818;stroke-width:1.0;" width="10" x="37.6559" y="94.0679"/><rect fill="#FFFFFF" height="31.706" style="stroke:#181818;stroke-width:1.0;" width="10" x="637.3653" y="117.7739"/><rect fill="#FFFFFF" height="31.706" style="stroke:#181818;stroke-width:1.0;" width="10" x="637.3653" y="181.186"/><rect fill="#FFFFFF" height="76.412" style="stroke:#181818;stroke-width:1.0;" width="10" x="637.3653" y="244.598"/><rect fill="#FFFFFF" height="76.412" style="stroke:#181818;stroke-width:1.0;" width="10" x="637.3653" y="352.716"/><rect fill="#FFFFFF" height="76.412" style="stroke:#181818;stroke-width:1.0;" width="10" x="637.3653" y="460.8341"/><rect fill="#FFFFFF" height="58.412" style="stroke:#181818;stroke-width:1.0;" width="10" x="637.3653" y="568.9521"/><rect fill="#FFFFFF" height="76.412" style="stroke:#181818;stroke-width:1.0;" width="10" x="637.3653" y="659.0702"/><rect fill="none" height="239.924" style="stroke:#000000;stroke-width:1.5;" width="864.9624" x="10" y="583.9521"/><line style="stroke:#181818;stroke-width:0.5;stroke-dasharray:5.0,5.0;" x1="42" x2="42" y1="84.0679" y2="935.9942"/><line style="stroke:#181818;stroke-width:0.5;stroke-dasharray:5.0,5.0;" x1="641.7034" x2="641.7034" y1="84.0679" y2="935.9942"/><text fill="#000000" font-family="sans-serif" font-size="14" lengthAdjust="spacing" textLength="39.3119" x="20" y="79.9659">Editor</text><ellipse cx="42.6559" cy="13.5" fill="#E3E3E3" rx="8" ry="8" style="stroke:#181818;stroke-width:0.5;"/><path d="M42.6559,21.5 L42.6559,48.5 M29.6559,29.5 L55.6559,29.5 M42.6559,48.5 L29.6559,63.5 M42.6559,48.5 L55.6559,63.5 " fill="none" style="stroke:#181818;stroke-width:0.5;"/><text fill="#000000" font-family="sans-serif" font-size="14" lengthAdjust="spacing" textLength="39.3119" x="20" y="949.9601">Editor</text><ellipse cx="42.6559" cy="962.5621" fill="#E3E3E3" rx="8" ry="8" style="stroke:#181818;stroke-width:0.5;"/><path d="M42.6559,970.5621 L42.6559,997.5621 M29.6559,978.5621 L55.6559,978.5621 M42.6559,997.5621 L29.6559,1012.5621 M42.6559,997.5621 L55.6559,1012.5621 " fill="none" style="stroke:#181818;stroke-width:0.5;"/><rect fill="#E3E3E3" height="33.0679" rx="2.5" ry="2.5" style="stroke:#181818;stroke-width:0.5;" width="65.3238" x="609.7034" y="50"/><text fill="#000000" font-family="sans-serif" font-size="14" lengthAdjust="spacing" textLength="51.3238" x="616.7034" y="71.9659">:System</text><rect fill="#E3E3E3" height="33.0679" rx="2.5" ry="2.5" style="stroke:#181818;stroke-width:0.5;" width="65.3238" x="609.7034" y="934.9942"/><text fill="#000000" font-family="sans-serif" font-size="14" lengthAdjust="spacing" textLength="51.3238" x="616.7034" y="956.9601">:System</text><rect fill="#FFFFFF" height="823.9263" style="stroke:#181818;stroke-width:1.0;" width="10" x="37.6559" y="94.0679"/><rect fill="#FFFFFF" height="31.706" style="stroke:#181818;stroke-width:1.0;" width="10" x="637.3653" y="117.7739"/><rect fill="#FFFFFF" height="31.706" style="stroke:#181818;stroke-width:1.0;" width="10" x="637.3653" y="181.186"/><rect fill="#FFFFFF" height="76.412" style="stroke:#181818;stroke-width:1.0;" width="10" x="637.3653" y="244.598"/><rect fill="#FFFFFF" height="76.412" style="stroke:#181818;stroke-width:1.0;" width="10" x="637.3653" y="352.716"/><rect fill="#FFFFFF" height="76.412" style="stroke:#181818;stroke-width:1.0;" width="10" x="637.3653" y="460.8341"/><rect fill="#FFFFFF" height="58.412" style="stroke:#181818;stroke-width:1.0;" width="10" x="637.3653" y="568.9521"/><rect fill="#FFFFFF" height="76.412" style="stroke:#181818;stroke-width:1.0;" width="10" x="637.3653" y="659.0702"/><polygon fill="#181818" points="625.3653,113.7739,635.3653,117.7739,625.3653,121.7739,629.3653,117.7739" style="stroke:#181818;stroke-width:1.0;"/><line style="stroke:#181818;stroke-width:1.0;" x1="47.6559" x2="631.3653" y1="117.7739" y2="117.7739"/><text fill="#000000" font-family="sans-serif" font-size="13" font-weight="bold" lengthAdjust="spacing" textLength="7.436" x="54.6559" y="111.9649">1</text><text fill="#000000" font-family="sans-serif" font-size="13" lengthAdjust="spacing" textLength="166.8421" x="66.0919" y="111.9649">"Request to add a new city"</text><polygon fill="#181818" points="58.6559,145.4799,48.6559,149.4799,58.6559,153.4799,54.6559,149.4799" style="stroke:#181818;stroke-width:1.0;"/><line style="stroke:#181818;stroke-width:1.0;" x1="52.6559" x2="641.3653" y1="149.4799" y2="149.4799"/><text fill="#000000" font-family="sans-serif" font-size="13" font-weight="bold" lengthAdjust="spacing" textLength="7.436" x="64.6559" y="143.6709">2</text><text fill="#000000" font-family="sans-serif" font-size="13" lengthAdjust="spacing" textLength="309.3613" x="76.0919" y="143.6709">"Request for each map he wants to add the city to"</text><polygon fill="#181818" points="625.3653,177.186,635.3653,181.186,625.3653,185.186,629.3653,181.186" style="stroke:#181818;stroke-width:1.0;"/><line style="stroke:#181818;stroke-width:1.0;" x1="47.6559" x2="631.3653" y1="181.186" y2="181.186"/><text fill="#000000" font-family="sans-serif" font-size="13" font-weight="bold" lengthAdjust="spacing" textLength="7.436" x="54.6559" y="175.377">3</text><text fill="#000000" font-family="sans-serif" font-size="13" lengthAdjust="spacing" textLength="288.2493" x="66.0919" y="175.377">"Selects the map he wants to add a new city to"</text><polygon fill="#181818" points="58.6559,208.892,48.6559,212.892,58.6559,216.892,54.6559,212.892" style="stroke:#181818;stroke-width:1.0;"/><line style="stroke:#181818;stroke-width:1.0;" x1="52.6559" x2="641.3653" y1="212.892" y2="212.892"/><text fill="#000000" font-family="sans-serif" font-size="13" font-weight="bold" lengthAdjust="spacing" textLength="7.436" x="64.6559" y="207.083">4</text><text fill="#000000" font-family="sans-serif" font-size="13" lengthAdjust="spacing" textLength="167.3232" x="76.0919" y="207.083">"Request for the city name"</text><polygon fill="#181818" points="625.3653,240.598,635.3653,244.598,625.3653,248.598,629.3653,244.598" style="stroke:#181818;stroke-width:1.0;"/><line style="stroke:#181818;stroke-width:1.0;" x1="47.6559" x2="631.3653" y1="244.598" y2="244.598"/><text fill="#000000" font-family="sans-serif" font-size="13" font-weight="bold" lengthAdjust="spacing" textLength="7.436" x="54.6559" y="238.789">5</text><text fill="#000000" font-family="sans-serif" font-size="13" lengthAdjust="spacing" textLength="174.5772" x="66.0919" y="238.789">"Enters the name of the city"</text><line style="stroke:#181818;stroke-width:1.0;" x1="647.3653" x2="689.3653" y1="276.304" y2="276.304"/><line style="stroke:#181818;stroke-width:1.0;" x1="689.3653" x2="689.3653" y1="276.304" y2="289.304"/><line style="stroke:#181818;stroke-width:1.0;" x1="648.3653" x2="689.3653" y1="289.304" y2="289.304"/><polygon fill="#181818" points="658.3653,285.304,648.3653,289.304,658.3653,293.304,654.3653,289.304" style="stroke:#181818;stroke-width:1.0;"/><text fill="#000000" font-family="sans-serif" font-size="13" font-weight="bold" lengthAdjust="spacing" textLength="7.436" x="654.3653" y="270.495">6</text><text fill="#000000" font-family="sans-serif" font-size="13" lengthAdjust="spacing" textLength="365.3392" x="665.8013" y="270.495">"Check if there isn&#8217;t special digits or characters in the name"</text><polygon fill="#181818" points="58.6559,317.01,48.6559,321.01,58.6559,325.01,54.6559,321.01" style="stroke:#181818;stroke-width:1.0;"/><line style="stroke:#181818;stroke-width:1.0;" x1="52.6559" x2="641.3653" y1="321.01" y2="321.01"/><text fill="#000000" font-family="sans-serif" font-size="13" font-weight="bold" lengthAdjust="spacing" textLength="7.436" x="64.6559" y="315.201">7</text><text fill="#000000" font-family="sans-serif" font-size="13" lengthAdjust="spacing" textLength="222.8462" x="76.0919" y="315.201">"Request the coordinates of the city"</text><polygon fill="#181818" points="625.3653,348.716,635.3653,352.716,625.3653,356.716,629.3653,352.716" style="stroke:#181818;stroke-width:1.0;"/><line style="stroke:#181818;stroke-width:1.0;" x1="47.6559" x2="631.3653" y1="352.716" y2="352.716"/><text fill="#000000" font-family="sans-serif" font-size="13" font-weight="bold" lengthAdjust="spacing" textLength="7.436" x="54.6559" y="346.907">8</text><text fill="#000000" font-family="sans-serif" font-size="13" lengthAdjust="spacing" textLength="212.0302" x="66.0919" y="346.907">"Enters the coordinates of the city"</text><line style="stroke:#181818;stroke-width:1.0;" x1="647.3653" x2="689.3653" y1="384.4221" y2="384.4221"/><line style="stroke:#181818;stroke-width:1.0;" x1="689.3653" x2="689.3653" y1="384.4221" y2="397.4221"/><line style="stroke:#181818;stroke-width:1.0;" x1="648.3653" x2="689.3653" y1="397.4221" y2="397.4221"/><polygon fill="#181818" points="658.3653,393.4221,648.3653,397.4221,658.3653,401.4221,654.3653,397.4221" style="stroke:#181818;stroke-width:1.0;"/><text fill="#000000" font-family="sans-serif" font-size="13" font-weight="bold" lengthAdjust="spacing" textLength="7.436" x="654.3653" y="378.6131">9</text><text fill="#000000" font-family="sans-serif" font-size="13" lengthAdjust="spacing" textLength="222.2612" x="665.8013" y="378.6131">"Validate the coordinates of the city"</text><polygon fill="#181818" points="58.6559,425.1281,48.6559,429.1281,58.6559,433.1281,54.6559,429.1281" style="stroke:#181818;stroke-width:1.0;"/><line style="stroke:#181818;stroke-width:1.0;" x1="52.6559" x2="641.3653" y1="429.1281" y2="429.1281"/><text fill="#000000" font-family="sans-serif" font-size="13" font-weight="bold" lengthAdjust="spacing" textLength="14.872" x="64.6559" y="423.3191">10</text><text fill="#000000" font-family="sans-serif" font-size="13" lengthAdjust="spacing" textLength="234.6372" x="83.5279" y="423.3191">"Request the number of house blocks"</text><polygon fill="#181818" points="625.3653,456.8341,635.3653,460.8341,625.3653,464.8341,629.3653,460.8341" style="stroke:#181818;stroke-width:1.0;"/><line style="stroke:#181818;stroke-width:1.0;" x1="47.6559" x2="631.3653" y1="460.8341" y2="460.8341"/><text fill="#000000" font-family="sans-serif" font-size="13" font-weight="bold" lengthAdjust="spacing" textLength="14.872" x="54.6559" y="455.0251">11</text><text fill="#000000" font-family="sans-serif" font-size="13" lengthAdjust="spacing" textLength="223.8212" x="73.5279" y="455.0251">"Enters the number of house blocks"</text><line style="stroke:#181818;stroke-width:1.0;" x1="647.3653" x2="689.3653" y1="492.5401" y2="492.5401"/><line style="stroke:#181818;stroke-width:1.0;" x1="689.3653" x2="689.3653" y1="492.5401" y2="505.5401"/><line style="stroke:#181818;stroke-width:1.0;" x1="648.3653" x2="689.3653" y1="505.5401" y2="505.5401"/><polygon fill="#181818" points="658.3653,501.5401,648.3653,505.5401,658.3653,509.5401,654.3653,505.5401" style="stroke:#181818;stroke-width:1.0;"/><text fill="#000000" font-family="sans-serif" font-size="13" font-weight="bold" lengthAdjust="spacing" textLength="14.872" x="654.3653" y="486.7311">12</text><text fill="#000000" font-family="sans-serif" font-size="13" lengthAdjust="spacing" textLength="359.6453" x="673.2373" y="486.7311">"Check if the number of house blocks is a positive number"</text><polygon fill="#181818" points="58.6559,533.2461,48.6559,537.2461,58.6559,541.2461,54.6559,537.2461" style="stroke:#181818;stroke-width:1.0;"/><line style="stroke:#181818;stroke-width:1.0;" x1="52.6559" x2="641.3653" y1="537.2461" y2="537.2461"/><text fill="#000000" font-family="sans-serif" font-size="13" font-weight="bold" lengthAdjust="spacing" textLength="14.872" x="64.6559" y="531.4371">13</text><text fill="#000000" font-family="sans-serif" font-size="13" lengthAdjust="spacing" textLength="432.2244" x="83.5279" y="531.4371">"Ask if the editor wants to assign the blocks manually or automatically"</text><polygon fill="#181818" points="625.3653,564.9521,635.3653,568.9521,625.3653,572.9521,629.3653,568.9521" style="stroke:#181818;stroke-width:1.0;"/><line style="stroke:#181818;stroke-width:1.0;" x1="47.6559" x2="631.3653" y1="568.9521" y2="568.9521"/><text fill="#000000" font-family="sans-serif" font-size="13" font-weight="bold" lengthAdjust="spacing" textLength="14.872" x="54.6559" y="563.1431">14</text><text fill="#000000" font-family="sans-serif" font-size="13" lengthAdjust="spacing" textLength="112.3851" x="73.5279" y="563.1431">"Selects yes or no"</text><path d="M10,583.9521 L67.376,583.9521 L67.376,593.6582 L57.376,603.6582 L10,603.6582 L10,583.9521 " fill="#EEEEEE" style="stroke:#000000;stroke-width:1.5;"/><rect fill="none" height="239.924" style="stroke:#000000;stroke-width:1.5;" width="864.9624" x="10" y="583.9521"/><text fill="#000000" font-family="sans-serif" font-size="13" font-weight="bold" lengthAdjust="spacing" textLength="8.996" x="25" y="598.8492">if</text><text fill="#000000" font-family="sans-serif" font-size="11" font-weight="bold" lengthAdjust="spacing" textLength="113.0132" x="82.376" y="597.7111">[while answer is yes]</text><polygon fill="#181818" points="58.6559,623.3642,48.6559,627.3642,58.6559,631.3642,54.6559,627.3642" style="stroke:#181818;stroke-width:1.0;"/><line style="stroke:#181818;stroke-width:1.0;stroke-dasharray:2.0,2.0;" x1="52.6559" x2="641.3653" y1="627.3642" y2="627.3642"/><text fill="#000000" font-family="sans-serif" font-size="13" font-weight="bold" lengthAdjust="spacing" textLength="14.872" x="64.6559" y="621.5552">15</text><text fill="#000000" font-family="sans-serif" font-size="13" lengthAdjust="spacing" textLength="202.1762" x="83.5279" y="621.5552">"Requests house blocks position"</text><polygon fill="#181818" points="625.3653,655.0702,635.3653,659.0702,625.3653,663.0702,629.3653,659.0702" style="stroke:#181818;stroke-width:1.0;"/><line style="stroke:#181818;stroke-width:1.0;" x1="47.6559" x2="631.3653" y1="659.0702" y2="659.0702"/><text fill="#000000" font-family="sans-serif" font-size="13" font-weight="bold" lengthAdjust="spacing" textLength="14.872" x="54.6559" y="653.2612">16</text><text fill="#000000" font-family="sans-serif" font-size="13" lengthAdjust="spacing" textLength="147.6931" x="73.5279" y="653.2612">"Selects blocks position"</text><line style="stroke:#181818;stroke-width:1.0;" x1="647.3653" x2="689.3653" y1="690.7762" y2="690.7762"/><line style="stroke:#181818;stroke-width:1.0;" x1="689.3653" x2="689.3653" y1="690.7762" y2="703.7762"/><line style="stroke:#181818;stroke-width:1.0;" x1="648.3653" x2="689.3653" y1="703.7762" y2="703.7762"/><polygon fill="#181818" points="658.3653,699.7762,648.3653,703.7762,658.3653,707.7762,654.3653,703.7762" style="stroke:#181818;stroke-width:1.0;"/><text fill="#000000" font-family="sans-serif" font-size="13" font-weight="bold" lengthAdjust="spacing" textLength="14.872" x="654.3653" y="684.9672">17</text><text fill="#000000" font-family="sans-serif" font-size="13" lengthAdjust="spacing" textLength="179.7252" x="673.2373" y="684.9672">"Check if the position is valid"</text><polygon fill="#181818" points="58.6559,731.4822,48.6559,735.4822,58.6559,739.4822,54.6559,735.4822" style="stroke:#181818;stroke-width:1.0;"/><line style="stroke:#181818;stroke-width:1.0;" x1="52.6559" x2="641.3653" y1="735.4822" y2="735.4822"/><text fill="#000000" font-family="sans-serif" font-size="13" font-weight="bold" lengthAdjust="spacing" textLength="14.872" x="64.6559" y="729.6732">18</text><text fill="#000000" font-family="sans-serif" font-size="13" lengthAdjust="spacing" textLength="360.2953" x="83.5279" y="729.6732">"Asks if the editor wants to assign the next block manually"</text><polygon fill="#181818" points="630.3653,763.1882,640.3653,767.1882,630.3653,771.1882,634.3653,767.1882" style="stroke:#181818;stroke-width:1.0;"/><line style="stroke:#181818;stroke-width:1.0;" x1="47.6559" x2="636.3653" y1="767.1882" y2="767.1882"/><text fill="#000000" font-family="sans-serif" font-size="13" font-weight="bold" lengthAdjust="spacing" textLength="14.872" x="54.6559" y="761.3792">19</text><text fill="#000000" font-family="sans-serif" font-size="13" lengthAdjust="spacing" textLength="112.3851" x="73.5279" y="761.3792">"Selects yes or no"</text><line style="stroke:#000000;stroke-width:1.0;stroke-dasharray:2.0,2.0;" x1="10" x2="874.9624" y1="776.1882" y2="776.1882"/><text fill="#000000" font-family="sans-serif" font-size="11" font-weight="bold" lengthAdjust="spacing" textLength="93.8623" x="15" y="787.9472">[if [answer is no]]</text><polygon fill="#181818" points="58.6559,811.8762,48.6559,815.8762,58.6559,819.8762,54.6559,815.8762" style="stroke:#181818;stroke-width:1.0;"/><line style="stroke:#181818;stroke-width:1.0;stroke-dasharray:2.0,2.0;" x1="52.6559" x2="641.3653" y1="815.8762" y2="815.8762"/><text fill="#000000" font-family="sans-serif" font-size="13" font-weight="bold" lengthAdjust="spacing" textLength="14.872" x="64.6559" y="810.0671">20</text><text fill="#000000" font-family="sans-serif" font-size="13" lengthAdjust="spacing" textLength="213.8632" x="83.5279" y="810.0671">assigns house blocks automatically</text><polygon fill="#181818" points="58.6559,850.5822,48.6559,854.5822,58.6559,858.5822,54.6559,854.5822" style="stroke:#181818;stroke-width:1.0;"/><line style="stroke:#181818;stroke-width:1.0;" x1="52.6559" x2="641.3653" y1="854.5822" y2="854.5822"/><text fill="#000000" font-family="sans-serif" font-size="13" font-weight="bold" lengthAdjust="spacing" textLength="14.872" x="64.6559" y="848.7732">21</text><text fill="#000000" font-family="sans-serif" font-size="13" lengthAdjust="spacing" textLength="151.2421" x="83.5279" y="848.7732">"City added successfully"</text><polygon fill="#181818" points="58.6559,882.2882,48.6559,886.2882,58.6559,890.2882,54.6559,886.2882" style="stroke:#181818;stroke-width:1.0;"/><line style="stroke:#181818;stroke-width:1.0;" x1="52.6559" x2="641.3653" y1="886.2882" y2="886.2882"/><text fill="#000000" font-family="sans-serif" font-size="13" font-weight="bold" lengthAdjust="spacing" textLength="14.872" x="64.6559" y="880.4792">22</text><text fill="#000000" font-family="sans-serif" font-size="13" lengthAdjust="spacing" textLength="158.7432" x="83.5279" y="880.4792">"List the cities in the map"</text><polygon fill="#181818" points="53.6559,913.9942,43.6559,917.9942,53.6559,921.9942,49.6559,917.9942" style="stroke:#181818;stroke-width:1.0;"/><line style="stroke:#181818;stroke-width:1.0;" x1="47.6559" x2="641.3653" y1="917.9942" y2="917.9942"/><text fill="#000000" font-family="sans-serif" font-size="13" font-weight="bold" lengthAdjust="spacing" textLength="14.872" x="59.6559" y="912.1852">23</text><text fill="#000000" font-family="sans-serif" font-size="13" lengthAdjust="spacing" textLength="551.8373" x="78.5279" y="912.1852">"List the Details of the city that was added (name, position, number of house blocks, map)"</text><!--SRC=[dLGxZjim4ErvYe6g170ki4M0OBDTgXX84smnIuqbmXAfQAXrrEKQkLvEaY6fZ-sL_5areYY-n_VcntjZ6sonXjfPfylMrGI-xKZnzAT1lSU2jhwl25hI7crH7H_W4dDtCBQ07LPCIc7ddUtg5sfbhRrh8NlAZRmpG8QqL8BrHfi6hOViOTkpfph-Jyk8DA_eQGIez8PFduSZy03PT_hL4Nlm3Z3F0S7I0RJnVJRZ1y819F21w0Y-aqz2NKAD3PG41r758wcNZK0ftvdAwPntITQMAWaKH-WIvQmpajuhTL9aiQPRDJrPJssI563WTXFF9GKpmMD9UWycmbe2m_RVdxyUk25ji8BS54OSohMwbBhGyJPZfmkpYxQY5EVQt5YHmQVgxZQuodIBpnzOcJoSkSXqpKngW80fNSS4BvNJUtvFibQ8xatP2f7aKSgnSMo4RZoqREyBJroKDkUYPZP5olL0MwFjiAhwK11X8DGexHusxksXdc9HsOK-KKNhkYPe-daeZOmdj7mGYoQYdXN8CnfPIXIVHY85mTai0j-gZDkNf2xodBCSYrhDrKWHhBo6UipES2TPuHlIOkctJmAdr6HgnUWrdqSf8PduCG5pwArxLajHJsBEOdvI6agHpOLjiVeUmy2JuKavSASrCU-wQ6Bfy3SppXG98qrpI6RnbVDVoQEfJdfT5kWbfZpS_Y5CiysKeirAOst2RHybnc_ZUxIJ9Fm7]--></g></svg>