<svg xmlns="http://www.w3.org/2000/svg" xmlns:xlink="http://www.w3.org/1999/xlink" contentStyleType="text/css" height="1552px" preserveAspectRatio="none" style="width:1382px;height:1552px;background:#FFFFFF;" version="1.1" viewBox="0 0 1382 1552" width="1382px" zoomAndPan="magnify"><title>Sequence Diagram: US06 - Upgrade a selected station with a building</title><defs/><g><text fill="#000000" font-family="sans-serif" font-size="14" font-weight="bold" lengthAdjust="spacing" textLength="462.1025" x="459.0559" y="30.1074">Sequence Diagram: US06 - Upgrade a selected station with a building</text><rect fill="#FFFFFF" height="1318.5527" style="stroke:#181818;stroke-width:1.0;" width="10" x="22.8413" y="133.2422"/><rect fill="#FFFFFF" height="450.4043" style="stroke:#181818;stroke-width:1.0;" width="10" x="305.8291" y="156.5332"/><rect fill="#FFFFFF" height="312.9102" style="stroke:#181818;stroke-width:1.0;" width="10" x="305.8291" y="638.2285"/><rect fill="#FFFFFF" height="469.3652" style="stroke:#181818;stroke-width:1.0;" width="10" x="305.8291" y="982.4297"/><rect fill="#FFFFFF" height="344.2012" style="stroke:#181818;stroke-width:1.0;" width="10" x="503.6143" y="231.4453"/><rect fill="#FFFFFF" height="219.0371" style="stroke:#181818;stroke-width:1.0;" width="10" x="503.6143" y="669.5195"/><rect fill="#FFFFFF" height="156.4551" style="stroke:#181818;stroke-width:1.0;" width="10" x="503.6143" y="1013.7207"/><rect fill="#FFFFFF" height="187.7461" style="stroke:#181818;stroke-width:1.0;" width="10" x="503.6143" y="1232.7578"/><rect fill="#FFFFFF" height="31.291" style="stroke:#181818;stroke-width:1.0;" width="10" x="647.4551" y="262.7363"/><rect fill="#FFFFFF" height="31.291" style="stroke:#181818;stroke-width:1.0;" width="10" x="751.2134" y="325.3184"/><rect fill="#FFFFFF" height="31.291" style="stroke:#181818;stroke-width:1.0;" width="10" x="751.2134" y="700.8105"/><rect fill="#FFFFFF" height="31.291" style="stroke:#181818;stroke-width:1.0;" width="10" x="875.2129" y="387.9004"/><rect fill="#FFFFFF" height="31.291" style="stroke:#181818;stroke-width:1.0;" width="10" x="1015.5571" y="450.4824"/><rect fill="#FFFFFF" height="31.291" style="stroke:#181818;stroke-width:1.0;" width="10" x="1015.5571" y="1107.5938"/><rect fill="#FFFFFF" height="31.291" style="stroke:#181818;stroke-width:1.0;" width="10" x="1119.3223" y="513.0645"/><rect fill="#FFFFFF" height="31.291" style="stroke:#181818;stroke-width:1.0;" width="10" x="1119.3223" y="1045.0117"/><rect fill="#FFFFFF" height="31.291" style="stroke:#181818;stroke-width:1.0;" width="10" x="1119.3223" y="1264.0488"/><rect fill="#FFFFFF" height="31.291" style="stroke:#181818;stroke-width:1.0;" width="10" x="1192.7427" y="825.9746"/><rect fill="#FFFFFF" height="31.291" style="stroke:#181818;stroke-width:1.0;" width="10" x="1192.7427" y="1326.6309"/><rect fill="#FFFFFF" height="31.291" style="stroke:#181818;stroke-width:1.0;" width="10" x="1303.9043" y="763.3926"/><line style="stroke:#181818;stroke-width:0.5;stroke-dasharray:5.0,5.0;" x1="27" x2="27" y1="123.2422" y2="1469.7949"/><line style="stroke:#181818;stroke-width:0.5;stroke-dasharray:5.0,5.0;" x1="310.2397" x2="310.2397" y1="123.2422" y2="1469.7949"/><line style="stroke:#181818;stroke-width:0.5;stroke-dasharray:5.0,5.0;" x1="507.6802" x2="507.6802" y1="196.3438" y2="1469.7949"/><line style="stroke:#181818;stroke-width:0.5;stroke-dasharray:5.0,5.0;" x1="651.5483" x2="651.5483" y1="123.2422" y2="1469.7949"/><line style="stroke:#181818;stroke-width:0.5;stroke-dasharray:5.0,5.0;" x1="755.3618" x2="755.3618" y1="123.2422" y2="1469.7949"/><line style="stroke:#181818;stroke-width:0.5;stroke-dasharray:5.0,5.0;" x1="880.0649" x2="880.0649" y1="123.2422" y2="1469.7949"/><line style="stroke:#181818;stroke-width:0.5;stroke-dasharray:5.0,5.0;" x1="1020.3608" x2="1020.3608" y1="123.2422" y2="1469.7949"/><line style="stroke:#181818;stroke-width:0.5;stroke-dasharray:5.0,5.0;" x1="1123.7534" x2="1123.7534" y1="123.2422" y2="1469.7949"/><line style="stroke:#181818;stroke-width:0.5;stroke-dasharray:5.0,5.0;" x1="1196.8911" x2="1196.8911" y1="123.2422" y2="1469.7949"/><line style="stroke:#181818;stroke-width:0.5;stroke-dasharray:5.0,5.0;" x1="1308.5942" x2="1308.5942" y1="123.2422" y2="1469.7949"/><text fill="#000000" font-family="sans-serif" font-size="14" lengthAdjust="spacing" textLength="39.6826" x="5" y="119.7285">Player</text><ellipse cx="27.8413" cy="53.1211" fill="#E3E3E3" rx="8" ry="8" style="stroke:#181818;stroke-width:0.5;"/><path d="M27.8413,61.1211 L27.8413,88.1211 M14.8413,69.1211 L40.8413,69.1211 M27.8413,88.1211 L14.8413,103.1211 M27.8413,88.1211 L40.8413,103.1211 " fill="none" style="stroke:#181818;stroke-width:0.5;"/><text fill="#000000" font-family="sans-serif" font-size="14" lengthAdjust="spacing" textLength="39.6826" x="5" y="1483.9023">Player</text><ellipse cx="27.8413" cy="1495.916" fill="#E3E3E3" rx="8" ry="8" style="stroke:#181818;stroke-width:0.5;"/><path d="M27.8413,1503.916 L27.8413,1530.916 M14.8413,1511.916 L40.8413,1511.916 M27.8413,1530.916 L14.8413,1545.916 M27.8413,1530.916 L40.8413,1545.916 " fill="none" style="stroke:#181818;stroke-width:0.5;"/><rect fill="#E3E3E3" height="32.6211" rx="2.5" ry="2.5" style="stroke:#181818;stroke-width:0.5;" width="129.1787" x="246.2397" y="89.6211"/><text fill="#000000" font-family="sans-serif" font-size="14" lengthAdjust="spacing" textLength="115.1787" x="253.2397" y="111.7285">:UpgradeStationUI</text><rect fill="#E3E3E3" height="32.6211" rx="2.5" ry="2.5" style="stroke:#181818;stroke-width:0.5;" width="129.1787" x="246.2397" y="1468.7949"/><text fill="#000000" font-family="sans-serif" font-size="14" lengthAdjust="spacing" textLength="115.1787" x="253.2397" y="1490.9023">:UpgradeStationUI</text><rect fill="#E3E3E3" height="32.6211" rx="2.5" ry="2.5" style="stroke:#181818;stroke-width:0.5;" width="175.8682" x="420.6802" y="1468.7949"/><text fill="#000000" font-family="sans-serif" font-size="14" lengthAdjust="spacing" textLength="161.8682" x="427.6802" y="1490.9023">:UpgradeStationController</text><rect fill="#E3E3E3" height="32.6211" rx="2.5" ry="2.5" style="stroke:#181818;stroke-width:0.5;" width="91.8135" x="606.5483" y="89.6211"/><text fill="#000000" font-family="sans-serif" font-size="14" lengthAdjust="spacing" textLength="77.8135" x="613.5483" y="111.7285">Repositories</text><rect fill="#E3E3E3" height="32.6211" rx="2.5" ry="2.5" style="stroke:#181818;stroke-width:0.5;" width="91.8135" x="606.5483" y="1468.7949"/><text fill="#000000" font-family="sans-serif" font-size="14" lengthAdjust="spacing" textLength="77.8135" x="613.5483" y="1490.9023">Repositories</text><rect fill="#E3E3E3" height="51.2422" rx="2.5" ry="2.5" style="stroke:#181818;stroke-width:0.5;" width="95.7031" x="708.3618" y="71"/><text fill="#000000" font-family="sans-serif" font-size="14" lengthAdjust="spacing" textLength="72.3652" x="720.0308" y="93.1074">repositories</text><text fill="#000000" font-family="sans-serif" font-size="14" lengthAdjust="spacing" textLength="81.7031" x="715.3618" y="111.7285">:Repositories</text><rect fill="#E3E3E3" height="51.2422" rx="2.5" ry="2.5" style="stroke:#181818;stroke-width:0.5;" width="95.7031" x="708.3618" y="1468.7949"/><text fill="#000000" font-family="sans-serif" font-size="14" lengthAdjust="spacing" textLength="72.3652" x="720.0308" y="1490.9023">repositories</text><text fill="#000000" font-family="sans-serif" font-size="14" lengthAdjust="spacing" textLength="81.7031" x="715.3618" y="1509.5234">:Repositories</text><rect fill="#E3E3E3" height="32.6211" rx="2.5" ry="2.5" style="stroke:#181818;stroke-width:0.5;" width="132.2959" x="814.0649" y="89.6211"/><text fill="#000000" font-family="sans-serif" font-size="14" lengthAdjust="spacing" textLength="118.2959" x="821.0649" y="111.7285">ApplicationSession</text><rect fill="#E3E3E3" height="32.6211" rx="2.5" ry="2.5" style="stroke:#181818;stroke-width:0.5;" width="132.2959" x="814.0649" y="1468.7949"/><text fill="#000000" font-family="sans-serif" font-size="14" lengthAdjust="spacing" textLength="118.2959" x="821.0649" y="1490.9023">ApplicationSession</text><rect fill="#E3E3E3" height="51.2422" rx="2.5" ry="2.5" style="stroke:#181818;stroke-width:0.5;" width="128.3926" x="956.3608" y="71"/><text fill="#000000" font-family="sans-serif" font-size="14" lengthAdjust="spacing" textLength="108.165" x="966.4746" y="93.1074">stationRepository</text><text fill="#000000" font-family="sans-serif" font-size="14" lengthAdjust="spacing" textLength="114.3926" x="963.3608" y="111.7285">:StationRepository</text><rect fill="#E3E3E3" height="51.2422" rx="2.5" ry="2.5" style="stroke:#181818;stroke-width:0.5;" width="128.3926" x="956.3608" y="1468.7949"/><text fill="#000000" font-family="sans-serif" font-size="14" lengthAdjust="spacing" textLength="108.165" x="966.4746" y="1490.9023">stationRepository</text><text fill="#000000" font-family="sans-serif" font-size="14" lengthAdjust="spacing" textLength="114.3926" x="963.3608" y="1509.5234">:StationRepository</text><rect fill="#E3E3E3" height="51.2422" rx="2.5" ry="2.5" style="stroke:#181818;stroke-width:0.5;" width="59.1377" x="1094.7534" y="71"/><text fill="#000000" font-family="sans-serif" font-size="14" lengthAdjust="spacing" textLength="45.1377" x="1101.7534" y="93.1074">:station</text><text fill="#000000" font-family="sans-serif" font-size="14" lengthAdjust="spacing" textLength="43.5859" x="1102.5293" y="111.7285">Station</text><rect fill="#E3E3E3" height="51.2422" rx="2.5" ry="2.5" style="stroke:#181818;stroke-width:0.5;" width="59.1377" x="1094.7534" y="1468.7949"/><text fill="#000000" font-family="sans-serif" font-size="14" lengthAdjust="spacing" textLength="45.1377" x="1101.7534" y="1490.9023">:station</text><text fill="#000000" font-family="sans-serif" font-size="14" lengthAdjust="spacing" textLength="43.5859" x="1102.5293" y="1509.5234">Station</text><rect fill="#E3E3E3" height="51.2422" rx="2.5" ry="2.5" style="stroke:#181818;stroke-width:0.5;" width="67.7031" x="1163.8911" y="71"/><text fill="#000000" font-family="sans-serif" font-size="14" lengthAdjust="spacing" textLength="48.2617" x="1173.6118" y="93.1074">building</text><text fill="#000000" font-family="sans-serif" font-size="14" lengthAdjust="spacing" textLength="53.7031" x="1170.8911" y="111.7285">:Building</text><rect fill="#E3E3E3" height="51.2422" rx="2.5" ry="2.5" style="stroke:#181818;stroke-width:0.5;" width="67.7031" x="1163.8911" y="1468.7949"/><text fill="#000000" font-family="sans-serif" font-size="14" lengthAdjust="spacing" textLength="48.2617" x="1173.6118" y="1490.9023">building</text><text fill="#000000" font-family="sans-serif" font-size="14" lengthAdjust="spacing" textLength="53.7031" x="1170.8911" y="1509.5234">:Building</text><rect fill="#E3E3E3" height="51.2422" rx="2.5" ry="2.5" style="stroke:#181818;stroke-width:0.5;" width="134.6201" x="1241.5942" y="71"/><text fill="#000000" font-family="sans-serif" font-size="14" lengthAdjust="spacing" textLength="115.1787" x="1251.3149" y="93.1074">buildingRepository</text><text fill="#000000" font-family="sans-serif" font-size="14" lengthAdjust="spacing" textLength="120.6201" x="1248.5942" y="111.7285">:BuildingRepository</text><rect fill="#E3E3E3" height="51.2422" rx="2.5" ry="2.5" style="stroke:#181818;stroke-width:0.5;" width="134.6201" x="1241.5942" y="1468.7949"/><text fill="#000000" font-family="sans-serif" font-size="14" lengthAdjust="spacing" textLength="115.1787" x="1251.3149" y="1490.9023">buildingRepository</text><text fill="#000000" font-family="sans-serif" font-size="14" lengthAdjust="spacing" textLength="120.6201" x="1248.5942" y="1509.5234">:BuildingRepository</text><rect fill="#FFFFFF" height="1318.5527" style="stroke:#181818;stroke-width:1.0;" width="10" x="22.8413" y="133.2422"/><rect fill="#FFFFFF" height="450.4043" style="stroke:#181818;stroke-width:1.0;" width="10" x="305.8291" y="156.5332"/><rect fill="#FFFFFF" height="312.9102" style="stroke:#181818;stroke-width:1.0;" width="10" x="305.8291" y="638.2285"/><rect fill="#FFFFFF" height="469.3652" style="stroke:#181818;stroke-width:1.0;" width="10" x="305.8291" y="982.4297"/><rect fill="#FFFFFF" height="344.2012" style="stroke:#181818;stroke-width:1.0;" width="10" x="503.6143" y="231.4453"/><rect fill="#FFFFFF" height="219.0371" style="stroke:#181818;stroke-width:1.0;" width="10" x="503.6143" y="669.5195"/><rect fill="#FFFFFF" height="156.4551" style="stroke:#181818;stroke-width:1.0;" width="10" x="503.6143" y="1013.7207"/><rect fill="#FFFFFF" height="187.7461" style="stroke:#181818;stroke-width:1.0;" width="10" x="503.6143" y="1232.7578"/><rect fill="#FFFFFF" height="31.291" style="stroke:#181818;stroke-width:1.0;" width="10" x="647.4551" y="262.7363"/><rect fill="#FFFFFF" height="31.291" style="stroke:#181818;stroke-width:1.0;" width="10" x="751.2134" y="325.3184"/><rect fill="#FFFFFF" height="31.291" style="stroke:#181818;stroke-width:1.0;" width="10" x="751.2134" y="700.8105"/><rect fill="#FFFFFF" height="31.291" style="stroke:#181818;stroke-width:1.0;" width="10" x="875.2129" y="387.9004"/><rect fill="#FFFFFF" height="31.291" style="stroke:#181818;stroke-width:1.0;" width="10" x="1015.5571" y="450.4824"/><rect fill="#FFFFFF" height="31.291" style="stroke:#181818;stroke-width:1.0;" width="10" x="1015.5571" y="1107.5938"/><rect fill="#FFFFFF" height="31.291" style="stroke:#181818;stroke-width:1.0;" width="10" x="1119.3223" y="513.0645"/><rect fill="#FFFFFF" height="31.291" style="stroke:#181818;stroke-width:1.0;" width="10" x="1119.3223" y="1045.0117"/><rect fill="#FFFFFF" height="31.291" style="stroke:#181818;stroke-width:1.0;" width="10" x="1119.3223" y="1264.0488"/><rect fill="#FFFFFF" height="31.291" style="stroke:#181818;stroke-width:1.0;" width="10" x="1192.7427" y="825.9746"/><rect fill="#FFFFFF" height="31.291" style="stroke:#181818;stroke-width:1.0;" width="10" x="1192.7427" y="1326.6309"/><rect fill="#FFFFFF" height="31.291" style="stroke:#181818;stroke-width:1.0;" width="10" x="1303.9043" y="763.3926"/><polygon fill="#181818" points="293.8291,152.5332,303.8291,156.5332,293.8291,160.5332,297.8291,156.5332" style="stroke:#181818;stroke-width:1.0;"/><line style="stroke:#181818;stroke-width:1.0;" x1="32.8413" x2="299.8291" y1="156.5332" y2="156.5332"/><text fill="#000000" font-family="sans-serif" font-size="13" font-weight="bold" lengthAdjust="spacing" textLength="7.23" x="39.8413" y="151.2705">1</text><text fill="#000000" font-family="sans-serif" font-size="13" lengthAdjust="spacing" textLength="134.418" x="51.0713" y="151.2705">asks to upgrade station</text><polygon fill="#181818" points="408.6802,183.8242,418.6802,187.8242,408.6802,191.8242,412.6802,187.8242" style="stroke:#181818;stroke-width:1.0;"/><line style="stroke:#181818;stroke-width:1.0;" x1="315.8291" x2="414.6802" y1="187.8242" y2="187.8242"/><text fill="#000000" font-family="sans-serif" font-size="13" font-weight="bold" lengthAdjust="spacing" textLength="7.23" x="322.8291" y="182.5615">2</text><text fill="#000000" font-family="sans-serif" font-size="13" lengthAdjust="spacing" textLength="44.7891" x="334.0591" y="182.5615">create()</text><rect fill="#E3E3E3" height="32.6211" rx="2.5" ry="2.5" style="stroke:#181818;stroke-width:0.5;" width="175.8682" x="420.6802" y="164.5332"/><text fill="#000000" font-family="sans-serif" font-size="14" lengthAdjust="spacing" textLength="161.8682" x="427.6802" y="186.6406">:UpgradeStationController</text><polygon fill="#181818" points="491.6143,227.4453,501.6143,231.4453,491.6143,235.4453,495.6143,231.4453" style="stroke:#181818;stroke-width:1.0;"/><line style="stroke:#181818;stroke-width:1.0;" x1="315.8291" x2="497.6143" y1="231.4453" y2="231.4453"/><text fill="#000000" font-family="sans-serif" font-size="13" font-weight="bold" lengthAdjust="spacing" textLength="7.23" x="322.8291" y="226.1826">3</text><text fill="#000000" font-family="sans-serif" font-size="13" lengthAdjust="spacing" textLength="135.8525" x="334.0591" y="226.1826">getAvailableUpgrades()</text><polygon fill="#181818" points="635.4551,258.7363,645.4551,262.7363,635.4551,266.7363,639.4551,262.7363" style="stroke:#181818;stroke-width:1.0;"/><line style="stroke:#181818;stroke-width:1.0;" x1="513.6143" x2="641.4551" y1="262.7363" y2="262.7363"/><text fill="#000000" font-family="sans-serif" font-size="13" font-weight="bold" lengthAdjust="spacing" textLength="7.23" x="520.6143" y="257.4736">4</text><text fill="#000000" font-family="sans-serif" font-size="13" lengthAdjust="spacing" textLength="75.8735" x="531.8442" y="257.4736">getInstance()</text><polygon fill="#181818" points="524.6143,290.0273,514.6143,294.0273,524.6143,298.0273,520.6143,294.0273" style="stroke:#181818;stroke-width:1.0;"/><line style="stroke:#181818;stroke-width:1.0;stroke-dasharray:2.0,2.0;" x1="518.6143" x2="651.4551" y1="294.0273" y2="294.0273"/><text fill="#000000" font-family="sans-serif" font-size="13" font-weight="bold" lengthAdjust="spacing" textLength="7.23" x="530.6143" y="288.7646">5</text><text fill="#000000" font-family="sans-serif" font-size="13" lengthAdjust="spacing" textLength="67.1963" x="541.8442" y="288.7646">repositories</text><polygon fill="#181818" points="739.2134,321.3184,749.2134,325.3184,739.2134,329.3184,743.2134,325.3184" style="stroke:#181818;stroke-width:1.0;"/><line style="stroke:#181818;stroke-width:1.0;" x1="513.6143" x2="745.2134" y1="325.3184" y2="325.3184"/><text fill="#000000" font-family="sans-serif" font-size="13" font-weight="bold" lengthAdjust="spacing" textLength="7.23" x="520.6143" y="320.0557">6</text><text fill="#000000" font-family="sans-serif" font-size="13" lengthAdjust="spacing" textLength="129.3398" x="531.8442" y="320.0557">getStationRepository()</text><polygon fill="#181818" points="524.6143,352.6094,514.6143,356.6094,524.6143,360.6094,520.6143,356.6094" style="stroke:#181818;stroke-width:1.0;"/><line style="stroke:#181818;stroke-width:1.0;stroke-dasharray:2.0,2.0;" x1="518.6143" x2="755.2134" y1="356.6094" y2="356.6094"/><text fill="#000000" font-family="sans-serif" font-size="13" font-weight="bold" lengthAdjust="spacing" textLength="7.23" x="530.6143" y="351.3467">7</text><text fill="#000000" font-family="sans-serif" font-size="13" lengthAdjust="spacing" textLength="100.439" x="541.8442" y="351.3467">stationRepository</text><polygon fill="#181818" points="863.2129,383.9004,873.2129,387.9004,863.2129,391.9004,867.2129,387.9004" style="stroke:#181818;stroke-width:1.0;"/><line style="stroke:#181818;stroke-width:1.0;" x1="513.6143" x2="869.2129" y1="387.9004" y2="387.9004"/><text fill="#000000" font-family="sans-serif" font-size="13" font-weight="bold" lengthAdjust="spacing" textLength="7.23" x="520.6143" y="382.6377">8</text><text fill="#000000" font-family="sans-serif" font-size="13" lengthAdjust="spacing" textLength="75.8735" x="531.8442" y="382.6377">getInstance()</text><polygon fill="#181818" points="524.6143,415.1914,514.6143,419.1914,524.6143,423.1914,520.6143,419.1914" style="stroke:#181818;stroke-width:1.0;"/><line style="stroke:#181818;stroke-width:1.0;stroke-dasharray:2.0,2.0;" x1="518.6143" x2="879.2129" y1="419.1914" y2="419.1914"/><text fill="#000000" font-family="sans-serif" font-size="13" font-weight="bold" lengthAdjust="spacing" textLength="7.23" x="530.6143" y="413.9287">9</text><text fill="#000000" font-family="sans-serif" font-size="13" lengthAdjust="spacing" textLength="131.8979" x="541.8442" y="413.9287">stationId = appSession</text><polygon fill="#181818" points="1003.5571,446.4824,1013.5571,450.4824,1003.5571,454.4824,1007.5571,450.4824" style="stroke:#181818;stroke-width:1.0;"/><line style="stroke:#181818;stroke-width:1.0;" x1="513.6143" x2="1009.5571" y1="450.4824" y2="450.4824"/><text fill="#000000" font-family="sans-serif" font-size="13" font-weight="bold" lengthAdjust="spacing" textLength="14.46" x="520.6143" y="445.2197">10</text><text fill="#000000" font-family="sans-serif" font-size="13" lengthAdjust="spacing" textLength="116.3462" x="539.0742" y="445.2197">getStation(stationId)</text><polygon fill="#181818" points="524.6143,477.7734,514.6143,481.7734,524.6143,485.7734,520.6143,481.7734" style="stroke:#181818;stroke-width:1.0;"/><line style="stroke:#181818;stroke-width:1.0;stroke-dasharray:2.0,2.0;" x1="518.6143" x2="1019.5571" y1="481.7734" y2="481.7734"/><text fill="#000000" font-family="sans-serif" font-size="13" font-weight="bold" lengthAdjust="spacing" textLength="14.46" x="530.6143" y="476.5107">11</text><text fill="#000000" font-family="sans-serif" font-size="13" lengthAdjust="spacing" textLength="38.3018" x="549.0742" y="476.5107">station</text><polygon fill="#181818" points="1107.3223,509.0645,1117.3223,513.0645,1107.3223,517.0645,1111.3223,513.0645" style="stroke:#181818;stroke-width:1.0;"/><line style="stroke:#181818;stroke-width:1.0;" x1="513.6143" x2="1113.3223" y1="513.0645" y2="513.0645"/><text fill="#000000" font-family="sans-serif" font-size="13" font-weight="bold" lengthAdjust="spacing" textLength="14.46" x="520.6143" y="507.8018">12</text><text fill="#000000" font-family="sans-serif" font-size="13" lengthAdjust="spacing" textLength="174.1543" x="539.0742" y="507.8018">getAvailableUpgrades(station)</text><polygon fill="#181818" points="524.6143,540.3555,514.6143,544.3555,524.6143,548.3555,520.6143,544.3555" style="stroke:#181818;stroke-width:1.0;"/><line style="stroke:#181818;stroke-width:1.0;stroke-dasharray:2.0,2.0;" x1="518.6143" x2="1123.3223" y1="544.3555" y2="544.3555"/><text fill="#000000" font-family="sans-serif" font-size="13" font-weight="bold" lengthAdjust="spacing" textLength="14.46" x="530.6143" y="539.0928">13</text><text fill="#000000" font-family="sans-serif" font-size="13" lengthAdjust="spacing" textLength="107.6816" x="549.0742" y="539.0928">availableUpgrades</text><polygon fill="#181818" points="326.8291,571.6465,316.8291,575.6465,326.8291,579.6465,322.8291,575.6465" style="stroke:#181818;stroke-width:1.0;"/><line style="stroke:#181818;stroke-width:1.0;stroke-dasharray:2.0,2.0;" x1="320.8291" x2="507.6143" y1="575.6465" y2="575.6465"/><text fill="#000000" font-family="sans-serif" font-size="13" font-weight="bold" lengthAdjust="spacing" textLength="14.46" x="332.8291" y="570.3838">14</text><text fill="#000000" font-family="sans-serif" font-size="13" lengthAdjust="spacing" textLength="107.6816" x="351.2891" y="570.3838">availableUpgrades</text><polygon fill="#181818" points="43.8413,602.9375,33.8413,606.9375,43.8413,610.9375,39.8413,606.9375" style="stroke:#181818;stroke-width:1.0;"/><line style="stroke:#181818;stroke-width:1.0;stroke-dasharray:2.0,2.0;" x1="37.8413" x2="309.8291" y1="606.9375" y2="606.9375"/><text fill="#000000" font-family="sans-serif" font-size="13" font-weight="bold" lengthAdjust="spacing" textLength="14.46" x="49.8413" y="601.6748">15</text><text fill="#000000" font-family="sans-serif" font-size="13" lengthAdjust="spacing" textLength="143.8188" x="68.3013" y="601.6748">displays upgrade options</text><polygon fill="#181818" points="293.8291,634.2285,303.8291,638.2285,293.8291,642.2285,297.8291,638.2285" style="stroke:#181818;stroke-width:1.0;"/><line style="stroke:#181818;stroke-width:1.0;" x1="32.8413" x2="299.8291" y1="638.2285" y2="638.2285"/><text fill="#000000" font-family="sans-serif" font-size="13" font-weight="bold" lengthAdjust="spacing" textLength="14.46" x="39.8413" y="632.9658">16</text><text fill="#000000" font-family="sans-serif" font-size="13" lengthAdjust="spacing" textLength="162.6206" x="58.3013" y="632.9658">chooses building to upgrade</text><polygon fill="#181818" points="491.6143,665.5195,501.6143,669.5195,491.6143,673.5195,495.6143,669.5195" style="stroke:#181818;stroke-width:1.0;"/><line style="stroke:#181818;stroke-width:1.0;" x1="315.8291" x2="497.6143" y1="669.5195" y2="669.5195"/><text fill="#000000" font-family="sans-serif" font-size="13" font-weight="bold" lengthAdjust="spacing" textLength="14.46" x="322.8291" y="664.2568">17</text><text fill="#000000" font-family="sans-serif" font-size="13" lengthAdjust="spacing" textLength="150.3252" x="341.2891" y="664.2568">getBuildingInfo(buildingId)</text><polygon fill="#181818" points="739.2134,696.8105,749.2134,700.8105,739.2134,704.8105,743.2134,700.8105" style="stroke:#181818;stroke-width:1.0;"/><line style="stroke:#181818;stroke-width:1.0;" x1="513.6143" x2="745.2134" y1="700.8105" y2="700.8105"/><text fill="#000000" font-family="sans-serif" font-size="13" font-weight="bold" lengthAdjust="spacing" textLength="14.46" x="520.6143" y="695.5479">18</text><text fill="#000000" font-family="sans-serif" font-size="13" lengthAdjust="spacing" textLength="135.1226" x="539.0742" y="695.5479">getBuildingRepository()</text><polygon fill="#181818" points="524.6143,728.1016,514.6143,732.1016,524.6143,736.1016,520.6143,732.1016" style="stroke:#181818;stroke-width:1.0;"/><line style="stroke:#181818;stroke-width:1.0;stroke-dasharray:2.0,2.0;" x1="518.6143" x2="755.2134" y1="732.1016" y2="732.1016"/><text fill="#000000" font-family="sans-serif" font-size="13" font-weight="bold" lengthAdjust="spacing" textLength="14.46" x="530.6143" y="726.8389">19</text><text fill="#000000" font-family="sans-serif" font-size="13" lengthAdjust="spacing" textLength="106.9517" x="549.0742" y="726.8389">buildingRepository</text><polygon fill="#181818" points="1291.9043,759.3926,1301.9043,763.3926,1291.9043,767.3926,1295.9043,763.3926" style="stroke:#181818;stroke-width:1.0;"/><line style="stroke:#181818;stroke-width:1.0;" x1="513.6143" x2="1297.9043" y1="763.3926" y2="763.3926"/><text fill="#000000" font-family="sans-serif" font-size="13" font-weight="bold" lengthAdjust="spacing" textLength="14.46" x="520.6143" y="758.1299">20</text><text fill="#000000" font-family="sans-serif" font-size="13" lengthAdjust="spacing" textLength="128.6416" x="539.0742" y="758.1299">getBuilding(buildingId)</text><polygon fill="#181818" points="524.6143,790.6836,514.6143,794.6836,524.6143,798.6836,520.6143,794.6836" style="stroke:#181818;stroke-width:1.0;"/><line style="stroke:#181818;stroke-width:1.0;stroke-dasharray:2.0,2.0;" x1="518.6143" x2="1307.9043" y1="794.6836" y2="794.6836"/><text fill="#000000" font-family="sans-serif" font-size="13" font-weight="bold" lengthAdjust="spacing" textLength="14.46" x="530.6143" y="789.4209">21</text><text fill="#000000" font-family="sans-serif" font-size="13" lengthAdjust="spacing" textLength="44.8145" x="549.0742" y="789.4209">building</text><polygon fill="#181818" points="1180.7427,821.9746,1190.7427,825.9746,1180.7427,829.9746,1184.7427,825.9746" style="stroke:#181818;stroke-width:1.0;"/><line style="stroke:#181818;stroke-width:1.0;" x1="513.6143" x2="1186.7427" y1="825.9746" y2="825.9746"/><text fill="#000000" font-family="sans-serif" font-size="13" font-weight="bold" lengthAdjust="spacing" textLength="14.46" x="520.6143" y="820.7119">22</text><text fill="#000000" font-family="sans-serif" font-size="13" lengthAdjust="spacing" textLength="48.4136" x="539.0742" y="820.7119">getInfo()</text><polygon fill="#181818" points="524.6143,853.2656,514.6143,857.2656,524.6143,861.2656,520.6143,857.2656" style="stroke:#181818;stroke-width:1.0;"/><line style="stroke:#181818;stroke-width:1.0;stroke-dasharray:2.0,2.0;" x1="518.6143" x2="1196.7427" y1="857.2656" y2="857.2656"/><text fill="#000000" font-family="sans-serif" font-size="13" font-weight="bold" lengthAdjust="spacing" textLength="14.46" x="530.6143" y="852.0029">23</text><text fill="#000000" font-family="sans-serif" font-size="13" lengthAdjust="spacing" textLength="66.498" x="549.0742" y="852.0029">buildingInfo</text><polygon fill="#181818" points="326.8291,884.5566,316.8291,888.5566,326.8291,892.5566,322.8291,888.5566" style="stroke:#181818;stroke-width:1.0;"/><line style="stroke:#181818;stroke-width:1.0;stroke-dasharray:2.0,2.0;" x1="320.8291" x2="507.6143" y1="888.5566" y2="888.5566"/><text fill="#000000" font-family="sans-serif" font-size="13" font-weight="bold" lengthAdjust="spacing" textLength="14.46" x="332.8291" y="883.2939">24</text><text fill="#000000" font-family="sans-serif" font-size="13" lengthAdjust="spacing" textLength="66.498" x="351.2891" y="883.2939">buildingInfo</text><polygon fill="#181818" points="43.8413,915.8477,33.8413,919.8477,43.8413,923.8477,39.8413,919.8477" style="stroke:#181818;stroke-width:1.0;"/><line style="stroke:#181818;stroke-width:1.0;stroke-dasharray:2.0,2.0;" x1="37.8413" x2="304.8291" y1="919.8477" y2="919.8477"/><text fill="#000000" font-family="sans-serif" font-size="13" font-weight="bold" lengthAdjust="spacing" textLength="14.46" x="49.8413" y="914.585">25</text><text fill="#000000" font-family="sans-serif" font-size="13" lengthAdjust="spacing" textLength="163.3125" x="68.3013" y="914.585">displays building information</text><polygon fill="#181818" points="43.8413,947.1387,33.8413,951.1387,43.8413,955.1387,39.8413,951.1387" style="stroke:#181818;stroke-width:1.0;"/><line style="stroke:#181818;stroke-width:1.0;stroke-dasharray:2.0,2.0;" x1="37.8413" x2="309.8291" y1="951.1387" y2="951.1387"/><text fill="#000000" font-family="sans-serif" font-size="13" font-weight="bold" lengthAdjust="spacing" textLength="14.46" x="49.8413" y="945.876">26</text><text fill="#000000" font-family="sans-serif" font-size="13" lengthAdjust="spacing" textLength="119.9326" x="68.3013" y="945.876">asks for confirmation</text><polygon fill="#181818" points="293.8291,978.4297,303.8291,982.4297,293.8291,986.4297,297.8291,982.4297" style="stroke:#181818;stroke-width:1.0;"/><line style="stroke:#181818;stroke-width:1.0;" x1="32.8413" x2="299.8291" y1="982.4297" y2="982.4297"/><text fill="#000000" font-family="sans-serif" font-size="13" font-weight="bold" lengthAdjust="spacing" textLength="14.46" x="39.8413" y="977.167">27</text><text fill="#000000" font-family="sans-serif" font-size="13" lengthAdjust="spacing" textLength="100.439" x="58.3013" y="977.167">confirms upgrade</text><polygon fill="#181818" points="491.6143,1009.7207,501.6143,1013.7207,491.6143,1017.7207,495.6143,1013.7207" style="stroke:#181818;stroke-width:1.0;"/><line style="stroke:#181818;stroke-width:1.0;" x1="315.8291" x2="497.6143" y1="1013.7207" y2="1013.7207"/><text fill="#000000" font-family="sans-serif" font-size="13" font-weight="bold" lengthAdjust="spacing" textLength="14.46" x="322.8291" y="1008.458">28</text><text fill="#000000" font-family="sans-serif" font-size="13" lengthAdjust="spacing" textLength="96.8398" x="341.2891" y="1008.458">upgradeStation()</text><polygon fill="#181818" points="1107.3223,1041.0117,1117.3223,1045.0117,1107.3223,1049.0117,1111.3223,1045.0117" style="stroke:#181818;stroke-width:1.0;"/><line style="stroke:#181818;stroke-width:1.0;" x1="513.6143" x2="1113.3223" y1="1045.0117" y2="1045.0117"/><text fill="#000000" font-family="sans-serif" font-size="13" font-weight="bold" lengthAdjust="spacing" textLength="14.46" x="520.6143" y="1039.749">29</text><text fill="#000000" font-family="sans-serif" font-size="13" lengthAdjust="spacing" textLength="101.1816" x="539.0742" y="1039.749">upgrade(building)</text><polygon fill="#181818" points="524.6143,1072.3027,514.6143,1076.3027,524.6143,1080.3027,520.6143,1076.3027" style="stroke:#181818;stroke-width:1.0;"/><line style="stroke:#181818;stroke-width:1.0;stroke-dasharray:2.0,2.0;" x1="518.6143" x2="1123.3223" y1="1076.3027" y2="1076.3027"/><text fill="#000000" font-family="sans-serif" font-size="13" font-weight="bold" lengthAdjust="spacing" textLength="14.46" x="530.6143" y="1071.04">30</text><text fill="#000000" font-family="sans-serif" font-size="13" lengthAdjust="spacing" textLength="46.96" x="549.0742" y="1071.04">success</text><polygon fill="#181818" points="1003.5571,1103.5938,1013.5571,1107.5938,1003.5571,1111.5938,1007.5571,1107.5938" style="stroke:#181818;stroke-width:1.0;"/><line style="stroke:#181818;stroke-width:1.0;" x1="513.6143" x2="1009.5571" y1="1107.5938" y2="1107.5938"/><text fill="#000000" font-family="sans-serif" font-size="13" font-weight="bold" lengthAdjust="spacing" textLength="14.46" x="520.6143" y="1102.3311">31</text><text fill="#000000" font-family="sans-serif" font-size="13" lengthAdjust="spacing" textLength="74.4199" x="539.0742" y="1102.3311">save(station)</text><polygon fill="#181818" points="524.6143,1134.8848,514.6143,1138.8848,524.6143,1142.8848,520.6143,1138.8848" style="stroke:#181818;stroke-width:1.0;"/><line style="stroke:#181818;stroke-width:1.0;stroke-dasharray:2.0,2.0;" x1="518.6143" x2="1019.5571" y1="1138.8848" y2="1138.8848"/><text fill="#000000" font-family="sans-serif" font-size="13" font-weight="bold" lengthAdjust="spacing" textLength="14.46" x="530.6143" y="1133.6221">32</text><text fill="#000000" font-family="sans-serif" font-size="13" lengthAdjust="spacing" textLength="46.96" x="549.0742" y="1133.6221">success</text><polygon fill="#181818" points="326.8291,1166.1758,316.8291,1170.1758,326.8291,1174.1758,322.8291,1170.1758" style="stroke:#181818;stroke-width:1.0;"/><line style="stroke:#181818;stroke-width:1.0;stroke-dasharray:2.0,2.0;" x1="320.8291" x2="507.6143" y1="1170.1758" y2="1170.1758"/><text fill="#000000" font-family="sans-serif" font-size="13" font-weight="bold" lengthAdjust="spacing" textLength="14.46" x="332.8291" y="1164.9131">33</text><text fill="#000000" font-family="sans-serif" font-size="13" lengthAdjust="spacing" textLength="46.96" x="351.2891" y="1164.9131">success</text><polygon fill="#181818" points="43.8413,1197.4668,33.8413,1201.4668,43.8413,1205.4668,39.8413,1201.4668" style="stroke:#181818;stroke-width:1.0;"/><line style="stroke:#181818;stroke-width:1.0;stroke-dasharray:2.0,2.0;" x1="37.8413" x2="304.8291" y1="1201.4668" y2="1201.4668"/><text fill="#000000" font-family="sans-serif" font-size="13" font-weight="bold" lengthAdjust="spacing" textLength="14.46" x="49.8413" y="1196.2041">34</text><text fill="#000000" font-family="sans-serif" font-size="13" lengthAdjust="spacing" textLength="155.3589" x="68.3013" y="1196.2041">displays operation success</text><polygon fill="#181818" points="491.6143,1228.7578,501.6143,1232.7578,491.6143,1236.7578,495.6143,1232.7578" style="stroke:#181818;stroke-width:1.0;"/><line style="stroke:#181818;stroke-width:1.0;" x1="315.8291" x2="497.6143" y1="1232.7578" y2="1232.7578"/><text fill="#000000" font-family="sans-serif" font-size="13" font-weight="bold" lengthAdjust="spacing" textLength="14.46" x="322.8291" y="1227.4951">35</text><text fill="#000000" font-family="sans-serif" font-size="13" lengthAdjust="spacing" textLength="138.0298" x="341.2891" y="1227.4951">getStationInfo(stationId)</text><polygon fill="#181818" points="1107.3223,1260.0488,1117.3223,1264.0488,1107.3223,1268.0488,1111.3223,1264.0488" style="stroke:#181818;stroke-width:1.0;"/><line style="stroke:#181818;stroke-width:1.0;" x1="513.6143" x2="1113.3223" y1="1264.0488" y2="1264.0488"/><text fill="#000000" font-family="sans-serif" font-size="13" font-weight="bold" lengthAdjust="spacing" textLength="14.46" x="520.6143" y="1258.7861">36</text><text fill="#000000" font-family="sans-serif" font-size="13" lengthAdjust="spacing" textLength="48.4136" x="539.0742" y="1258.7861">getInfo()</text><polygon fill="#181818" points="524.6143,1291.3398,514.6143,1295.3398,524.6143,1299.3398,520.6143,1295.3398" style="stroke:#181818;stroke-width:1.0;"/><line style="stroke:#181818;stroke-width:1.0;stroke-dasharray:2.0,2.0;" x1="518.6143" x2="1123.3223" y1="1295.3398" y2="1295.3398"/><text fill="#000000" font-family="sans-serif" font-size="13" font-weight="bold" lengthAdjust="spacing" textLength="14.46" x="530.6143" y="1290.0771">37</text><text fill="#000000" font-family="sans-serif" font-size="13" lengthAdjust="spacing" textLength="59.9854" x="549.0742" y="1290.0771">stationInfo</text><polygon fill="#181818" points="1180.7427,1322.6309,1190.7427,1326.6309,1180.7427,1330.6309,1184.7427,1326.6309" style="stroke:#181818;stroke-width:1.0;"/><line style="stroke:#181818;stroke-width:1.0;" x1="513.6143" x2="1186.7427" y1="1326.6309" y2="1326.6309"/><text fill="#000000" font-family="sans-serif" font-size="13" font-weight="bold" lengthAdjust="spacing" textLength="14.46" x="520.6143" y="1321.3682">38</text><text fill="#000000" font-family="sans-serif" font-size="13" lengthAdjust="spacing" textLength="48.4136" x="539.0742" y="1321.3682">getInfo()</text><polygon fill="#181818" points="524.6143,1353.9219,514.6143,1357.9219,524.6143,1361.9219,520.6143,1357.9219" style="stroke:#181818;stroke-width:1.0;"/><line style="stroke:#181818;stroke-width:1.0;stroke-dasharray:2.0,2.0;" x1="518.6143" x2="1196.7427" y1="1357.9219" y2="1357.9219"/><text fill="#000000" font-family="sans-serif" font-size="13" font-weight="bold" lengthAdjust="spacing" textLength="14.46" x="530.6143" y="1352.6592">39</text><text fill="#000000" font-family="sans-serif" font-size="13" lengthAdjust="spacing" textLength="66.498" x="549.0742" y="1352.6592">buildingInfo</text><polygon fill="#181818" points="326.8291,1385.2129,316.8291,1389.2129,326.8291,1393.2129,322.8291,1389.2129" style="stroke:#181818;stroke-width:1.0;"/><line style="stroke:#181818;stroke-width:1.0;stroke-dasharray:2.0,2.0;" x1="320.8291" x2="502.6143" y1="1389.2129" y2="1389.2129"/><text fill="#000000" font-family="sans-serif" font-size="13" font-weight="bold" lengthAdjust="spacing" textLength="14.46" x="332.8291" y="1383.9502">40</text><text fill="#000000" font-family="sans-serif" font-size="13" lengthAdjust="spacing" textLength="59.9854" x="351.2891" y="1383.9502">stationInfo</text><polygon fill="#181818" points="326.8291,1416.5039,316.8291,1420.5039,326.8291,1424.5039,322.8291,1420.5039" style="stroke:#181818;stroke-width:1.0;"/><line style="stroke:#181818;stroke-width:1.0;stroke-dasharray:2.0,2.0;" x1="320.8291" x2="507.6143" y1="1420.5039" y2="1420.5039"/><text fill="#000000" font-family="sans-serif" font-size="13" font-weight="bold" lengthAdjust="spacing" textLength="14.46" x="332.8291" y="1415.2412">41</text><text fill="#000000" font-family="sans-serif" font-size="13" lengthAdjust="spacing" textLength="66.498" x="351.2891" y="1415.2412">buildingInfo</text><polygon fill="#181818" points="38.8413,1447.7949,28.8413,1451.7949,38.8413,1455.7949,34.8413,1451.7949" style="stroke:#181818;stroke-width:1.0;"/><line style="stroke:#181818;stroke-width:1.0;stroke-dasharray:2.0,2.0;" x1="32.8413" x2="309.8291" y1="1451.7949" y2="1451.7949"/><text fill="#000000" font-family="sans-serif" font-size="13" font-weight="bold" lengthAdjust="spacing" textLength="14.46" x="44.8413" y="1446.5322">42</text><text fill="#000000" font-family="sans-serif" font-size="13" lengthAdjust="spacing" textLength="230.5278" x="63.3013" y="1446.5322">displays station and building information</text><!--SRC=[tLTDRwCm4BtpAqOzPIjLsjCUa7Qbz4ChfAYDGdAhLBdW95Q9pMBJglz-ZR4T0pOGxUvbkPJOCs_UU6QUANyZj4GLEi69KPOTAtR28AeQHzpkb2XxGmUSYiy2GuKpWUYXS0tu4UNiWz03x571SHIXMZ1Qdrvn5KM22EcMubyrfXc6Uu8EqYU6NVhr6zp0hfG_Smm8E2uaDiw12oG8e_11n56klzQao2MuXCq4g-1gNQ1FN5q1ub2grqZI42GZ9Q82hc8DcROmkqHPxf9Hgpj6HSMAGkFURJUhhlq6bumJ6PzWhams3-kdj6jJEJRFDFQxlAJ9uy_Lm_RfiUkyBCk2P8fCYZcNVvJFShr-IH_IDEdRwrEoGJvbnBI_veRTBhS3a5YZF5FjgXpqOjVKb466kTMlojYMnslTeNSxM7JutUwIrRqycaZLcRmZWKrv8v1F-mutFsGfO-dsna4mg7Nx6CgW7miXwsxMTadZtPJs-Zg6hC9oV_75RdTDOZXWiNn7f42l1TRDmdlcDehgbyvMiz9WgUGKM48bIJa2FOmEJjjKu7dK3jnOTcwl3Hnot4CCKpkteo8vwA19jau_1tcVRPmC1WqycOOJofkGCokpJzoTBnz_Pt_8FSdXEw2or0Cxbe0RPwmQxPIwjLZOODEbq3C-KeZMOfZAZCFNu5xs6YKmDNftX7-8XRaBpdnH7tsCkG-sfMnqP1JDGL8Jxig416WbAOQSyEQLMpLYPHFrZENWE7haaRNio1Z7Pr5r96wcjAaA6A5Dw9uj35Q_V_ofMM9pr68ewFzEBeOtoYLwqJSTIT5SH9qCWwVeoT3UPE44ZOadl-ciWlZUf0okLaJP42C914dOXXmIRZ37I0SnmrCPXBvq82rj8f6gKrSCUaxgaq9QGSRedlIDvuzmwyqldjkwyq6wc3kimS9RITR0jeN_YWppEilahNUf-4x9Yxd-E7h7CwwDyMilUELDSny73dUk3phKj1saK0Up4bVjsVUXUvgl-qPDUE2BuKB5T-_qAU6ue77EFESqpt-ZQQ6y_qpuPlMGAGAY-RWYTaKkSdxg_yH-0m00]--></g></svg>