<svg xmlns="http://www.w3.org/2000/svg" xmlns:xlink="http://www.w3.org/1999/xlink" contentStyleType="text/css" height="1249px" preserveAspectRatio="none" style="width:787px;height:1249px;background:#FFFFFF;" version="1.1" viewBox="0 0 787 1249" width="787px" zoomAndPan="magnify"><title>Class Diagram: US06 - Upgrade a selected station with a building</title><defs/><g><text fill="#000000" font-family="sans-serif" font-size="14" font-weight="bold" lengthAdjust="spacing" textLength="433.3232" x="169.8884" y="25.1074">Class Diagram: US06 - Upgrade a selected station with a building</text><!--class UpgradeStationUI--><g id="elem_UpgradeStationUI"><rect codeLine="7" fill="#F1F1F1" height="48" id="UpgradeStationUI" rx="2.5" ry="2.5" style="stroke:#181818;stroke-width:0.5;" width="143.2891" x="383.5" y="46.6211"/><ellipse cx="398.5" cy="62.6211" fill="#ADD1B2" rx="11" ry="11" style="stroke:#181818;stroke-width:1.0;"/><path d="M401.2656,58.4961 Q401.4219,58.2773 401.6094,58.168 Q401.7969,58.0586 402.0156,58.0586 Q402.3906,58.0586 402.625,58.3242 Q402.8594,58.5742 402.8594,59.1836 L402.8594,60.6367 Q402.8594,61.2461 402.625,61.5117 Q402.3906,61.7773 402.0156,61.7773 Q401.6719,61.7773 401.4688,61.5742 Q401.2656,61.3867 401.1563,60.8711 Q401.1094,60.5117 400.9219,60.3242 Q400.5938,59.9492 399.9844,59.7305 Q399.375,59.5117 398.75,59.5117 Q397.9844,59.5117 397.3438,59.8398 Q396.7188,60.168 396.2188,60.918 Q395.7344,61.668 395.7344,62.6992 L395.7344,63.793 Q395.7344,65.0273 396.625,65.8555 Q397.5156,66.668 399.1094,66.668 Q400.0469,66.668 400.7031,66.418 Q401.0938,66.2617 401.5156,65.8242 Q401.7813,65.5586 401.9219,65.4805 Q402.0781,65.4023 402.2813,65.4023 Q402.6094,65.4023 402.8594,65.668 Q403.125,65.918 403.125,66.2617 Q403.125,66.6055 402.7813,67.0117 Q402.2813,67.5898 401.4844,67.918 Q400.4063,68.3711 399.1094,68.3711 Q397.5938,68.3711 396.3906,67.7461 Q395.4063,67.2461 394.7188,66.1836 Q394.0313,65.1055 394.0313,63.8242 L394.0313,62.668 Q394.0313,61.3398 394.6406,60.1992 Q395.2656,59.043 396.3594,58.4336 Q397.4531,57.8086 398.6875,57.8086 Q399.4219,57.8086 400.0625,57.9805 Q400.7188,58.1367 401.2656,58.4961 Z " fill="#000000"/><text fill="#000000" font-family="sans-serif" font-size="14" lengthAdjust="spacing" textLength="111.2891" x="412.5" y="68.418">UpgradeStationUI</text><line style="stroke:#181818;stroke-width:0.5;" x1="384.5" x2="525.7891" y1="78.6211" y2="78.6211"/><line style="stroke:#181818;stroke-width:0.5;" x1="384.5" x2="525.7891" y1="86.6211" y2="86.6211"/></g><!--class UpgradeStationController--><g id="elem_UpgradeStationController"><rect codeLine="10" fill="#F1F1F1" height="141.1055" id="UpgradeStationController" rx="2.5" ry="2.5" style="stroke:#181818;stroke-width:0.5;" width="266.8984" x="321.5" y="173.6211"/><ellipse cx="371.71" cy="189.6211" fill="#ADD1B2" rx="11" ry="11" style="stroke:#181818;stroke-width:1.0;"/><path d="M374.4756,185.4961 Q374.6318,185.2773 374.8193,185.168 Q375.0068,185.0586 375.2256,185.0586 Q375.6006,185.0586 375.835,185.3242 Q376.0693,185.5742 376.0693,186.1836 L376.0693,187.6367 Q376.0693,188.2461 375.835,188.5117 Q375.6006,188.7773 375.2256,188.7773 Q374.8818,188.7773 374.6787,188.5742 Q374.4756,188.3867 374.3662,187.8711 Q374.3193,187.5117 374.1318,187.3242 Q373.8037,186.9492 373.1943,186.7305 Q372.585,186.5117 371.96,186.5117 Q371.1943,186.5117 370.5537,186.8398 Q369.9287,187.168 369.4287,187.918 Q368.9443,188.668 368.9443,189.6992 L368.9443,190.793 Q368.9443,192.0273 369.835,192.8555 Q370.7256,193.668 372.3193,193.668 Q373.2568,193.668 373.9131,193.418 Q374.3037,193.2617 374.7256,192.8242 Q374.9912,192.5586 375.1318,192.4805 Q375.2881,192.4023 375.4912,192.4023 Q375.8193,192.4023 376.0693,192.668 Q376.335,192.918 376.335,193.2617 Q376.335,193.6055 375.9912,194.0117 Q375.4912,194.5898 374.6943,194.918 Q373.6162,195.3711 372.3193,195.3711 Q370.8037,195.3711 369.6006,194.7461 Q368.6162,194.2461 367.9287,193.1836 Q367.2412,192.1055 367.2412,190.8242 L367.2412,189.668 Q367.2412,188.3398 367.8506,187.1992 Q368.4756,186.043 369.5693,185.4336 Q370.6631,184.8086 371.8975,184.8086 Q372.6318,184.8086 373.2725,184.9805 Q373.9287,185.1367 374.4756,185.4961 Z " fill="#000000"/><text fill="#000000" font-family="sans-serif" font-size="14" lengthAdjust="spacing" textLength="157.9785" x="392.21" y="195.418">UpgradeStationController</text><line style="stroke:#181818;stroke-width:0.5;" x1="322.5" x2="587.3984" y1="205.6211" y2="205.6211"/><line style="stroke:#181818;stroke-width:0.5;" x1="322.5" x2="587.3984" y1="213.6211" y2="213.6211"/><text fill="#000000" font-family="sans-serif" font-size="14" lengthAdjust="spacing" textLength="56.4102" x="327.5" y="232.7285">+create()</text><text fill="#000000" font-family="sans-serif" font-size="14" lengthAdjust="spacing" textLength="254.0986" x="327.5" y="251.3496">+getAvailableUpgrades() : List&lt;Building&gt;</text><text fill="#000000" font-family="sans-serif" font-size="14" lengthAdjust="spacing" textLength="254.8984" x="327.5" y="269.9707">+getBuildingInfo(buildingId) : BuildingInfo</text><text fill="#000000" font-family="sans-serif" font-size="14" lengthAdjust="spacing" textLength="173.9609" x="327.5" y="288.5918">+upgradeStation() : boolean</text><text fill="#000000" font-family="sans-serif" font-size="14" lengthAdjust="spacing" textLength="235.4297" x="327.5" y="307.2129">+getStationInfo(stationId) : StationInfo</text></g><!--class StationRepository--><g id="elem_StationRepository"><rect codeLine="18" fill="#F1F1F1" height="85.2422" id="StationRepository" rx="2.5" ry="2.5" style="stroke:#181818;stroke-width:0.5;" width="200.7266" x="490.5" y="642.6211"/><ellipse cx="531.7006" cy="658.6211" fill="#ADD1B2" rx="11" ry="11" style="stroke:#181818;stroke-width:1.0;"/><path d="M534.4663,654.4961 Q534.6225,654.2773 534.81,654.168 Q534.9975,654.0586 535.2163,654.0586 Q535.5913,654.0586 535.8256,654.3242 Q536.06,654.5742 536.06,655.1836 L536.06,656.6367 Q536.06,657.2461 535.8256,657.5117 Q535.5913,657.7773 535.2163,657.7773 Q534.8725,657.7773 534.6694,657.5742 Q534.4663,657.3867 534.3569,656.8711 Q534.31,656.5117 534.1225,656.3242 Q533.7944,655.9492 533.185,655.7305 Q532.5756,655.5117 531.9506,655.5117 Q531.185,655.5117 530.5444,655.8398 Q529.9194,656.168 529.4194,656.918 Q528.935,657.668 528.935,658.6992 L528.935,659.793 Q528.935,661.0273 529.8256,661.8555 Q530.7163,662.668 532.31,662.668 Q533.2475,662.668 533.9038,662.418 Q534.2944,662.2617 534.7163,661.8242 Q534.9819,661.5586 535.1225,661.4805 Q535.2788,661.4023 535.4819,661.4023 Q535.81,661.4023 536.06,661.668 Q536.3256,661.918 536.3256,662.2617 Q536.3256,662.6055 535.9819,663.0117 Q535.4819,663.5898 534.685,663.918 Q533.6069,664.3711 532.31,664.3711 Q530.7944,664.3711 529.5913,663.7461 Q528.6069,663.2461 527.9194,662.1836 Q527.2319,661.1055 527.2319,659.8242 L527.2319,658.668 Q527.2319,657.3398 527.8413,656.1992 Q528.4663,655.043 529.56,654.4336 Q530.6538,653.8086 531.8881,653.8086 Q532.6225,653.8086 533.2631,653.9805 Q533.9194,654.1367 534.4663,654.4961 Z " fill="#000000"/><text fill="#000000" font-family="sans-serif" font-size="14" lengthAdjust="spacing" textLength="110.5029" x="551.523" y="664.418">StationRepository</text><line style="stroke:#181818;stroke-width:0.5;" x1="491.5" x2="690.2266" y1="674.6211" y2="674.6211"/><line style="stroke:#181818;stroke-width:0.5;" x1="491.5" x2="690.2266" y1="682.6211" y2="682.6211"/><text fill="#000000" font-family="sans-serif" font-size="14" lengthAdjust="spacing" textLength="188.7266" x="496.5" y="701.7285">+getStation(stationId) : Station</text><text fill="#000000" font-family="sans-serif" font-size="14" lengthAdjust="spacing" textLength="149.8164" x="496.5" y="720.3496">+save(station) : boolean</text></g><!--class BuildingRepository--><g id="elem_BuildingRepository"><rect codeLine="23" fill="#F1F1F1" height="66.6211" id="BuildingRepository" rx="2.5" ry="2.5" style="stroke:#181818;stroke-width:0.5;" width="220.1953" x="70" y="651.6211"/><ellipse cx="117.4824" cy="667.6211" fill="#ADD1B2" rx="11" ry="11" style="stroke:#181818;stroke-width:1.0;"/><path d="M120.248,663.4961 Q120.4043,663.2773 120.5918,663.168 Q120.7793,663.0586 120.998,663.0586 Q121.373,663.0586 121.6074,663.3242 Q121.8418,663.5742 121.8418,664.1836 L121.8418,665.6367 Q121.8418,666.2461 121.6074,666.5117 Q121.373,666.7773 120.998,666.7773 Q120.6543,666.7773 120.4512,666.5742 Q120.248,666.3867 120.1387,665.8711 Q120.0918,665.5117 119.9043,665.3242 Q119.5762,664.9492 118.9668,664.7305 Q118.3574,664.5117 117.7324,664.5117 Q116.9668,664.5117 116.3262,664.8398 Q115.7012,665.168 115.2012,665.918 Q114.7168,666.668 114.7168,667.6992 L114.7168,668.793 Q114.7168,670.0273 115.6074,670.8555 Q116.498,671.668 118.0918,671.668 Q119.0293,671.668 119.6855,671.418 Q120.0762,671.2617 120.498,670.8242 Q120.7637,670.5586 120.9043,670.4805 Q121.0605,670.4023 121.2637,670.4023 Q121.5918,670.4023 121.8418,670.668 Q122.1074,670.918 122.1074,671.2617 Q122.1074,671.6055 121.7637,672.0117 Q121.2637,672.5898 120.4668,672.918 Q119.3887,673.3711 118.0918,673.3711 Q116.5762,673.3711 115.373,672.7461 Q114.3887,672.2461 113.7012,671.1836 Q113.0137,670.1055 113.0137,668.8242 L113.0137,667.668 Q113.0137,666.3398 113.623,665.1992 Q114.248,664.043 115.3418,663.4336 Q116.4355,662.8086 117.6699,662.8086 Q118.4043,662.8086 119.0449,662.9805 Q119.7012,663.1367 120.248,663.4961 Z " fill="#000000"/><text fill="#000000" font-family="sans-serif" font-size="14" lengthAdjust="spacing" textLength="116.7305" x="137.9824" y="673.418">BuildingRepository</text><line style="stroke:#181818;stroke-width:0.5;" x1="71" x2="289.1953" y1="683.6211" y2="683.6211"/><line style="stroke:#181818;stroke-width:0.5;" x1="71" x2="289.1953" y1="691.6211" y2="691.6211"/><text fill="#000000" font-family="sans-serif" font-size="14" lengthAdjust="spacing" textLength="208.1953" x="76" y="710.7285">+getBuilding(buildingId) : Building</text></g><!--class Repositories--><g id="elem_Repositories"><rect codeLine="27" fill="#F1F1F1" height="103.8633" id="Repositories" rx="2.5" ry="2.5" style="stroke:#181818;stroke-width:0.5;" width="294.0918" x="158" y="393.6211"/><ellipse cx="261.8892" cy="409.6211" fill="#ADD1B2" rx="11" ry="11" style="stroke:#181818;stroke-width:1.0;"/><path d="M264.6548,405.4961 Q264.811,405.2773 264.9985,405.168 Q265.186,405.0586 265.4048,405.0586 Q265.7798,405.0586 266.0142,405.3242 Q266.2485,405.5742 266.2485,406.1836 L266.2485,407.6367 Q266.2485,408.2461 266.0142,408.5117 Q265.7798,408.7773 265.4048,408.7773 Q265.061,408.7773 264.8579,408.5742 Q264.6548,408.3867 264.5454,407.8711 Q264.4985,407.5117 264.311,407.3242 Q263.9829,406.9492 263.3735,406.7305 Q262.7642,406.5117 262.1392,406.5117 Q261.3735,406.5117 260.7329,406.8398 Q260.1079,407.168 259.6079,407.918 Q259.1235,408.668 259.1235,409.6992 L259.1235,410.793 Q259.1235,412.0273 260.0142,412.8555 Q260.9048,413.668 262.4985,413.668 Q263.436,413.668 264.0923,413.418 Q264.4829,413.2617 264.9048,412.8242 Q265.1704,412.5586 265.311,412.4805 Q265.4673,412.4023 265.6704,412.4023 Q265.9985,412.4023 266.2485,412.668 Q266.5142,412.918 266.5142,413.2617 Q266.5142,413.6055 266.1704,414.0117 Q265.6704,414.5898 264.8735,414.918 Q263.7954,415.3711 262.4985,415.3711 Q260.9829,415.3711 259.7798,414.7461 Q258.7954,414.2461 258.1079,413.1836 Q257.4204,412.1055 257.4204,410.8242 L257.4204,409.668 Q257.4204,408.3398 258.0298,407.1992 Q258.6548,406.043 259.7485,405.4336 Q260.8423,404.8086 262.0767,404.8086 Q262.811,404.8086 263.4517,404.9805 Q264.1079,405.1367 264.6548,405.4961 Z " fill="#000000"/><text fill="#000000" font-family="sans-serif" font-size="14" lengthAdjust="spacing" textLength="77.8135" x="282.3892" y="415.418">Repositories</text><line style="stroke:#181818;stroke-width:0.5;" x1="159" x2="451.0918" y1="425.6211" y2="425.6211"/><line style="stroke:#181818;stroke-width:0.5;" x1="159" x2="451.0918" y1="433.6211" y2="433.6211"/><text fill="#000000" font-family="sans-serif" font-size="14" lengthAdjust="spacing" text-decoration="underline" textLength="179.3682" x="164" y="452.7285">+getInstance() : Repositories</text><text fill="#000000" font-family="sans-serif" font-size="14" lengthAdjust="spacing" textLength="269.6367" x="164" y="471.3496">+getStationRepository() : StationRepository</text><text fill="#000000" font-family="sans-serif" font-size="14" lengthAdjust="spacing" textLength="282.0918" x="164" y="489.9707">+getBuildingRepository() : BuildingRepository</text></g><!--class ApplicationSession--><g id="elem_ApplicationSession"><rect codeLine="33" fill="#F1F1F1" height="85.2422" id="ApplicationSession" rx="2.5" ry="2.5" style="stroke:#181818;stroke-width:0.5;" width="231.8506" x="368" y="527.6211"/><ellipse cx="420.5273" cy="543.6211" fill="#ADD1B2" rx="11" ry="11" style="stroke:#181818;stroke-width:1.0;"/><path d="M423.293,539.4961 Q423.4492,539.2773 423.6367,539.168 Q423.8242,539.0586 424.043,539.0586 Q424.418,539.0586 424.6523,539.3242 Q424.8867,539.5742 424.8867,540.1836 L424.8867,541.6367 Q424.8867,542.2461 424.6523,542.5117 Q424.418,542.7773 424.043,542.7773 Q423.6992,542.7773 423.4961,542.5742 Q423.293,542.3867 423.1836,541.8711 Q423.1367,541.5117 422.9492,541.3242 Q422.6211,540.9492 422.0117,540.7305 Q421.4023,540.5117 420.7773,540.5117 Q420.0117,540.5117 419.3711,540.8398 Q418.7461,541.168 418.2461,541.918 Q417.7617,542.668 417.7617,543.6992 L417.7617,544.793 Q417.7617,546.0273 418.6523,546.8555 Q419.543,547.668 421.1367,547.668 Q422.0742,547.668 422.7305,547.418 Q423.1211,547.2617 423.543,546.8242 Q423.8086,546.5586 423.9492,546.4805 Q424.1055,546.4023 424.3086,546.4023 Q424.6367,546.4023 424.8867,546.668 Q425.1523,546.918 425.1523,547.2617 Q425.1523,547.6055 424.8086,548.0117 Q424.3086,548.5898 423.5117,548.918 Q422.4336,549.3711 421.1367,549.3711 Q419.6211,549.3711 418.418,548.7461 Q417.4336,548.2461 416.7461,547.1836 Q416.0586,546.1055 416.0586,544.8242 L416.0586,543.668 Q416.0586,542.3398 416.668,541.1992 Q417.293,540.043 418.3867,539.4336 Q419.4805,538.8086 420.7148,538.8086 Q421.4492,538.8086 422.0898,538.9805 Q422.7461,539.1367 423.293,539.4961 Z " fill="#000000"/><text fill="#000000" font-family="sans-serif" font-size="14" lengthAdjust="spacing" textLength="118.2959" x="441.0273" y="549.418">ApplicationSession</text><line style="stroke:#181818;stroke-width:0.5;" x1="369" x2="598.8506" y1="559.6211" y2="559.6211"/><line style="stroke:#181818;stroke-width:0.5;" x1="369" x2="598.8506" y1="567.6211" y2="567.6211"/><text fill="#000000" font-family="sans-serif" font-size="14" lengthAdjust="spacing" text-decoration="underline" textLength="219.8506" x="374" y="586.7285">+getInstance() : ApplicationSession</text><text fill="#000000" font-family="sans-serif" font-size="14" lengthAdjust="spacing" textLength="182.4854" x="374" y="605.3496">+getCurrentStation() : Station</text></g><!--class Station--><g id="elem_Station"><rect codeLine="38" fill="#F1F1F1" height="196.9688" id="Station" rx="2.5" ry="2.5" style="stroke:#181818;stroke-width:0.5;" width="266.0986" x="319" y="806.6211"/><ellipse cx="426.0063" cy="822.6211" fill="#ADD1B2" rx="11" ry="11" style="stroke:#181818;stroke-width:1.0;"/><path d="M428.772,818.4961 Q428.9282,818.2773 429.1157,818.168 Q429.3032,818.0586 429.522,818.0586 Q429.897,818.0586 430.1313,818.3242 Q430.3657,818.5742 430.3657,819.1836 L430.3657,820.6367 Q430.3657,821.2461 430.1313,821.5117 Q429.897,821.7773 429.522,821.7773 Q429.1782,821.7773 428.9751,821.5742 Q428.772,821.3867 428.6626,820.8711 Q428.6157,820.5117 428.4282,820.3242 Q428.1001,819.9492 427.4907,819.7305 Q426.8813,819.5117 426.2563,819.5117 Q425.4907,819.5117 424.8501,819.8398 Q424.2251,820.168 423.7251,820.918 Q423.2407,821.668 423.2407,822.6992 L423.2407,823.793 Q423.2407,825.0273 424.1313,825.8555 Q425.022,826.668 426.6157,826.668 Q427.5532,826.668 428.2095,826.418 Q428.6001,826.2617 429.022,825.8242 Q429.2876,825.5586 429.4282,825.4805 Q429.5845,825.4023 429.7876,825.4023 Q430.1157,825.4023 430.3657,825.668 Q430.6313,825.918 430.6313,826.2617 Q430.6313,826.6055 430.2876,827.0117 Q429.7876,827.5898 428.9907,827.918 Q427.9126,828.3711 426.6157,828.3711 Q425.1001,828.3711 423.897,827.7461 Q422.9126,827.2461 422.2251,826.1836 Q421.5376,825.1055 421.5376,823.8242 L421.5376,822.668 Q421.5376,821.3398 422.147,820.1992 Q422.772,819.043 423.8657,818.4336 Q424.9595,817.8086 426.1938,817.8086 Q426.9282,817.8086 427.5688,817.9805 Q428.2251,818.1367 428.772,818.4961 Z " fill="#000000"/><text fill="#000000" font-family="sans-serif" font-size="14" lengthAdjust="spacing" textLength="43.5859" x="446.5063" y="828.418">Station</text><line style="stroke:#181818;stroke-width:0.5;" x1="320" x2="584.0986" y1="838.6211" y2="838.6211"/><text fill="#000000" font-family="sans-serif" font-size="14" lengthAdjust="spacing" textLength="98.0342" x="325" y="857.7285">-nameID: String</text><text fill="#000000" font-family="sans-serif" font-size="14" lengthAdjust="spacing" textLength="128.3926" x="325" y="876.3496">-storageCapacity: int</text><text fill="#000000" font-family="sans-serif" font-size="14" lengthAdjust="spacing" textLength="106.6133" x="325" y="894.9707">-buildingSlots: int</text><text fill="#000000" font-family="sans-serif" font-size="14" lengthAdjust="spacing" textLength="120.6201" x="325" y="913.5918">-availableCargo: int</text><text fill="#000000" font-family="sans-serif" font-size="14" lengthAdjust="spacing" textLength="127.627" x="325" y="932.2129">-requestedCargo: int</text><line style="stroke:#181818;stroke-width:0.5;" x1="320" x2="584.0986" y1="939.7266" y2="939.7266"/><text fill="#000000" font-family="sans-serif" font-size="14" lengthAdjust="spacing" textLength="254.0986" x="325" y="958.834">+getAvailableUpgrades() : List&lt;Building&gt;</text><text fill="#000000" font-family="sans-serif" font-size="14" lengthAdjust="spacing" textLength="236.2295" x="325" y="977.4551">+upgrade(building: Building) : boolean</text><text fill="#000000" font-family="sans-serif" font-size="14" lengthAdjust="spacing" textLength="138.9199" x="325" y="996.0762">+getInfo() : StationInfo</text></g><!--class Building--><g id="elem_Building"><rect codeLine="50" fill="#F1F1F1" height="159.7266" id="Building" rx="2.5" ry="2.5" style="stroke:#181818;stroke-width:0.5;" width="162.2061" x="99" y="1082.6211"/><ellipse cx="150.9463" cy="1098.6211" fill="#ADD1B2" rx="11" ry="11" style="stroke:#181818;stroke-width:1.0;"/><path d="M153.7119,1094.4961 Q153.8682,1094.2773 154.0557,1094.168 Q154.2432,1094.0586 154.4619,1094.0586 Q154.8369,1094.0586 155.0713,1094.3242 Q155.3057,1094.5742 155.3057,1095.1836 L155.3057,1096.6367 Q155.3057,1097.2461 155.0713,1097.5117 Q154.8369,1097.7773 154.4619,1097.7773 Q154.1182,1097.7773 153.915,1097.5742 Q153.7119,1097.3867 153.6025,1096.8711 Q153.5557,1096.5117 153.3682,1096.3242 Q153.04,1095.9492 152.4307,1095.7305 Q151.8213,1095.5117 151.1963,1095.5117 Q150.4307,1095.5117 149.79,1095.8398 Q149.165,1096.168 148.665,1096.918 Q148.1807,1097.668 148.1807,1098.6992 L148.1807,1099.793 Q148.1807,1101.0273 149.0713,1101.8555 Q149.9619,1102.668 151.5557,1102.668 Q152.4932,1102.668 153.1494,1102.418 Q153.54,1102.2617 153.9619,1101.8242 Q154.2275,1101.5586 154.3682,1101.4805 Q154.5244,1101.4023 154.7275,1101.4023 Q155.0557,1101.4023 155.3057,1101.668 Q155.5713,1101.918 155.5713,1102.2617 Q155.5713,1102.6055 155.2275,1103.0117 Q154.7275,1103.5898 153.9307,1103.918 Q152.8525,1104.3711 151.5557,1104.3711 Q150.04,1104.3711 148.8369,1103.7461 Q147.8525,1103.2461 147.165,1102.1836 Q146.4775,1101.1055 146.4775,1099.8242 L146.4775,1098.668 Q146.4775,1097.3398 147.0869,1096.1992 Q147.7119,1095.043 148.8057,1094.4336 Q149.8994,1093.8086 151.1338,1093.8086 Q151.8682,1093.8086 152.5088,1093.9805 Q153.165,1094.1367 153.7119,1094.4961 Z " fill="#000000"/><text fill="#000000" font-family="sans-serif" font-size="14" lengthAdjust="spacing" textLength="49.8135" x="171.4463" y="1104.418">Building</text><line style="stroke:#181818;stroke-width:0.5;" x1="100" x2="260.2061" y1="1114.6211" y2="1114.6211"/><text fill="#000000" font-family="sans-serif" font-size="14" lengthAdjust="spacing" textLength="98.0342" x="105" y="1133.7285">-nameID: String</text><text fill="#000000" font-family="sans-serif" font-size="14" lengthAdjust="spacing" textLength="75.4756" x="105" y="1152.3496">-type: String</text><text fill="#000000" font-family="sans-serif" font-size="14" lengthAdjust="spacing" textLength="121.3857" x="105" y="1170.9707">-availabilityYear: int</text><text fill="#000000" font-family="sans-serif" font-size="14" lengthAdjust="spacing" textLength="112.0547" x="105" y="1189.5918">-evolutionCost: int</text><text fill="#000000" font-family="sans-serif" font-size="14" lengthAdjust="spacing" textLength="150.2061" x="105" y="1208.2129">-evolutionStagesLeft: int</text><line style="stroke:#181818;stroke-width:0.5;" x1="100" x2="260.2061" y1="1215.7266" y2="1215.7266"/><text fill="#000000" font-family="sans-serif" font-size="14" lengthAdjust="spacing" textLength="145.1475" x="105" y="1234.834">+getInfo() : BuildingInfo</text></g><!--link UpgradeStationUI to UpgradeStationController--><g id="link_UpgradeStationUI_UpgradeStationController"><path codeLine="59" d="M455,94.7511 C455,114.9611 455,139.3611 455,167.4011 " fill="none" id="UpgradeStationUI-to-UpgradeStationController" style="stroke:#181818;stroke-width:1.0;stroke-dasharray:7.0,7.0;"/><polygon fill="#181818" points="455,173.4011,459,164.4011,455,168.4011,451,164.4011,455,173.4011" style="stroke:#181818;stroke-width:1.0;"/><text fill="#000000" font-family="sans-serif" font-size="13" lengthAdjust="spacing" textLength="27.46" x="456" y="139.6494">uses</text></g><!--link UpgradeStationController to StationRepository--><g id="link_UpgradeStationController_StationRepository"><path codeLine="60" d="M503.06,314.8111 C537.91,369.8111 582.12,449.9711 601,527.6211 C610.26,565.7111 606.9694,604.5601 601.4194,636.4301 " fill="none" id="UpgradeStationController-to-StationRepository" style="stroke:#181818;stroke-width:1.0;stroke-dasharray:7.0,7.0;"/><polygon fill="#181818" points="600.39,642.3411,605.8748,634.1608,601.2478,637.4152,597.9934,632.7883,600.39,642.3411" style="stroke:#181818;stroke-width:1.0;"/><text fill="#000000" font-family="sans-serif" font-size="13" lengthAdjust="spacing" textLength="27.46" x="593" y="451.1494">uses</text></g><!--link UpgradeStationController to BuildingRepository--><g id="link_UpgradeStationController_BuildingRepository"><path codeLine="61" d="M321.23,266.1711 C245.78,285.6311 157.55,322.8311 111,393.6211 C57.32,475.2711 116.8443,589.1412 153.6843,646.1712 " fill="none" id="UpgradeStationController-to-BuildingRepository" style="stroke:#181818;stroke-width:1.0;stroke-dasharray:7.0,7.0;"/><polygon fill="#181818" points="156.94,651.2111,155.4165,641.4808,154.227,647.0112,148.6966,645.8217,156.94,651.2111" style="stroke:#181818;stroke-width:1.0;"/><text fill="#000000" font-family="sans-serif" font-size="13" lengthAdjust="spacing" textLength="27.46" x="112" y="451.1494">uses</text></g><!--link UpgradeStationController to Repositories--><g id="link_UpgradeStationController_Repositories"><path codeLine="62" d="M402.54,314.9011 C383.11,340.7411 365.0555,364.7452 347.0955,388.6352 " fill="none" id="UpgradeStationController-to-Repositories" style="stroke:#181818;stroke-width:1.0;stroke-dasharray:7.0,7.0;"/><polygon fill="#181818" points="343.49,393.4311,352.0955,388.6409,346.4945,389.4345,345.7009,383.8336,343.49,393.4311" style="stroke:#181818;stroke-width:1.0;"/><text fill="#000000" font-family="sans-serif" font-size="13" lengthAdjust="spacing" textLength="27.46" x="381" y="359.6494">uses</text></g><!--link UpgradeStationController to ApplicationSession--><g id="link_UpgradeStationController_ApplicationSession"><path codeLine="63" d="M461.71,314.9911 C464.07,339.8111 466.69,367.9611 469,393.6211 C473.11,439.3111 477.0489,485.7321 480.0289,521.2921 " fill="none" id="UpgradeStationController-to-ApplicationSession" style="stroke:#181818;stroke-width:1.0;stroke-dasharray:7.0,7.0;"/><polygon fill="#181818" points="480.53,527.2711,483.7644,517.9685,480.1125,522.2886,475.7924,518.6366,480.53,527.2711" style="stroke:#181818;stroke-width:1.0;"/><text fill="#000000" font-family="sans-serif" font-size="13" lengthAdjust="spacing" textLength="27.46" x="468" y="359.6494">uses</text></g><!--link UpgradeStationController to Station--><g id="link_UpgradeStationController_Station"><path codeLine="64" d="M555.52,314.7011 C582.41,337.2911 609.41,364.2011 629,393.6211 C713.62,520.6611 780.1,592.5411 709,727.6211 C682.15,778.6311 638.3312,814.7082 590.2712,842.9882 " fill="none" id="UpgradeStationController-to-Station" style="stroke:#181818;stroke-width:1.0;stroke-dasharray:7.0,7.0;"/><polygon fill="#181818" points="585.1,846.0311,594.8853,844.9142,589.4093,843.4954,590.8282,838.0193,585.1,846.0311" style="stroke:#181818;stroke-width:1.0;"/><text fill="#000000" font-family="sans-serif" font-size="13" lengthAdjust="spacing" textLength="27.46" x="739" y="575.6494">uses</text></g><!--link UpgradeStationController to Building--><g id="link_UpgradeStationController_Building"><path codeLine="65" d="M321.2,249.8411 C188.87,262.5211 6,305.2611 6,444.6211 C6,444.6211 6,444.6211 6,906.1211 C6,977.9011 49.3407,1040.0967 94.7007,1087.2567 " fill="none" id="UpgradeStationController-to-Building" style="stroke:#181818;stroke-width:1.0;stroke-dasharray:7.0,7.0;"/><polygon fill="#181818" points="98.86,1091.5811,95.5039,1082.3217,95.3939,1087.9775,89.7381,1087.8674,98.86,1091.5811" style="stroke:#181818;stroke-width:1.0;"/><text fill="#000000" font-family="sans-serif" font-size="13" lengthAdjust="spacing" textLength="27.46" x="7" y="690.6494">uses</text></g><!--reverse link Station to Building--><g id="link_Station_Building"><path codeLine="67" d="M339.2546,1012.028 C310.4646,1039.078 288.38,1059.8111 261.1,1085.4411 " fill="none" id="Station-backto-Building" style="stroke:#181818;stroke-width:1.0;"/><polygon fill="none" points="348,1003.8111,340.8883,1005.0044,339.2546,1012.028,346.3662,1010.8347,348,1003.8111" style="stroke:#181818;stroke-width:1.0;"/><polygon fill="#000000" points="317.3556,1046.6899,325.9605,1042.6392,321.9362,1038.355,317.3556,1046.6899" style="stroke:#000000;stroke-width:1.0;"/><text fill="#000000" font-family="sans-serif" font-size="13" lengthAdjust="spacing" textLength="20.96" x="330" y="1048.6494">has</text><text fill="#000000" font-family="sans-serif" font-size="13" lengthAdjust="spacing" textLength="7.23" x="333.1103" y="1025.723">1</text><text fill="#000000" font-family="sans-serif" font-size="13" lengthAdjust="spacing" textLength="21.6836" x="269.2794" y="1074.8637">0..1</text></g><!--link StationRepository to Station--><g id="link_StationRepository_Station"><path codeLine="68" d="M564.53,727.6411 C550.27,750.0011 535.2544,773.5412 517.6344,801.1912 " fill="none" id="StationRepository-to-Station" style="stroke:#181818;stroke-width:1.0;"/><polygon fill="#181818" points="514.41,806.2511,522.62,800.8108,517.097,802.0345,515.8734,796.5116,514.41,806.2511" style="stroke:#181818;stroke-width:1.0;"/><text fill="#000000" font-family="sans-serif" font-size="13" lengthAdjust="spacing" textLength="40.46" x="544" y="772.6494">returns</text><text fill="#000000" font-family="sans-serif" font-size="13" lengthAdjust="spacing" textLength="7.23" x="511.741" y="795.4063">1</text></g><!--link BuildingRepository to Building--><g id="link_BuildingRepository_Building"><path codeLine="69" d="M180,718.8011 C180,793.0811 180,970.3311 180,1076.3611 " fill="none" id="BuildingRepository-to-Building" style="stroke:#181818;stroke-width:1.0;"/><polygon fill="#181818" points="180,1082.3611,184,1073.3611,180,1077.3611,176,1073.3611,180,1082.3611" style="stroke:#181818;stroke-width:1.0;"/><text fill="#000000" font-family="sans-serif" font-size="13" lengthAdjust="spacing" textLength="49.1372" x="181" y="910.6494">provides</text><text fill="#000000" font-family="sans-serif" font-size="13" lengthAdjust="spacing" textLength="5.0591" x="174.7628" y="1071.2329">*</text></g><!--link Repositories to StationRepository--><g id="link_Repositories_StationRepository"><path codeLine="71" d="M281.1,497.7211 C268.11,533.8611 259.51,581.2611 286,612.6211 C311.74,643.1011 424.26,633.1111 463,642.6211 C471.96,644.8211 475.4468,645.6621 484.6668,648.3321 " fill="none" id="Repositories-to-StationRepository" style="stroke:#181818;stroke-width:1.0;"/><polygon fill="#181818" points="490.43,650.0011,482.8978,643.6555,485.6273,648.6103,480.6725,651.3398,490.43,650.0011" style="stroke:#181818;stroke-width:1.0;"/><polygon fill="#000000" points="295.0195,573.2405,289.4962,565.4981,286.0002,570.2233,295.0195,573.2405" style="stroke:#000000;stroke-width:1.0;"/><text fill="#000000" font-family="sans-serif" font-size="13" lengthAdjust="spacing" textLength="49.1372" x="300" y="575.6494">provides</text></g><!--link Repositories to BuildingRepository--><g id="link_Repositories_BuildingRepository"><path codeLine="72" d="M216.09,497.8611 C206.64,506.6611 198.22,516.5811 192,527.6211 C170.41,565.9711 170.6496,612.2554 174.2296,645.6054 " fill="none" id="Repositories-to-BuildingRepository" style="stroke:#181818;stroke-width:1.0;"/><polygon fill="#181818" points="174.87,651.5711,177.8866,642.1956,174.3363,646.5997,169.9323,643.0494,174.87,651.5711" style="stroke:#181818;stroke-width:1.0;"/><polygon fill="#000000" points="195.637,575.0772,200.9303,567.1759,195.2751,565.5736,195.637,575.0772" style="stroke:#000000;stroke-width:1.0;"/><text fill="#000000" font-family="sans-serif" font-size="13" lengthAdjust="spacing" textLength="49.1372" x="206" y="575.6494">provides</text></g><!--link ApplicationSession to Station--><g id="link_ApplicationSession_Station"><path codeLine="74" d="M402.96,612.6511 C392.94,621.1911 384.1,631.1511 378,642.6211 C350.87,693.6511 364.0935,750.2883 387.9335,801.1483 " fill="none" id="ApplicationSession-to-Station" style="stroke:#181818;stroke-width:1.0;"/><polygon fill="#181818" points="390.48,806.5811,390.282,796.7342,388.3579,802.0538,383.0383,800.1296,390.48,806.5811" style="stroke:#181818;stroke-width:1.0;"/><polygon fill="#000000" points="382.6027,690.2508,386.2511,681.4679,380.3918,681.0008,382.6027,690.2508" style="stroke:#000000;stroke-width:1.0;"/><text fill="#000000" font-family="sans-serif" font-size="13" lengthAdjust="spacing" textLength="80.9326" x="392" y="690.6494">currentStation</text></g><!--SRC=[dLJ1Zjem4BtdAqQSs5P1zD83gf0eUucqfqOSUZJ9RB3MQwVsX1LTyUzrWfqunBHiEH6_zsRUZ6TiNhYicMQlKBFYXLMOqqaWQ2o8oKfWOdg2ER1IlN5PmJCJ9aGAmOpP46c-RmYpGicS_qPO9Wbnij6sBGwFd5MMlO9TllmAAUng-raYC30eR3uimH0ZhYIySJhOytt3HMaJ9acNmIlo2skNmNjoZcDR9Kah8L1R3jZVPoWqCiBvW_kia3P7nWNR2tHQCt-05JnnGz- -kyphWUsFClcivjvPLhQI47A2PcId2xnNIY2JGqG7TW5TvPTu0J0Kw0v_OAqC9wLFVML3g6WOnpBiY1uFxVG9V1Nn31wzKVeGffTpD7s0zovnSMuZPT9-o0AxfeJiIJc3atbGpt0wTNUbc1uFFZTrBNZHHSpHc7Ri_kbsgXaiR1kjKL9uu_u2hk_G9Kf1ibVC7bkYRdjuEJJMfrt4BRCRoUcq0Yx9GRxtkL1aGe3vKTuoNQaGqVYhGMENwmhvhpLmKztFmD3Xw81tatrpeBtqxzsWKurNHwvOBcntVYBJORbuLAAvl026ee3rKg5vmcUADQEtFDhfSp9vUXQBzUqtPmMDiVDy4s_5qts-HnLPqdjaewMyHn3PZWyKzQ5IF3dnujcN6QWqXTboiR1_0zw16LWdqywbwRfJ3UarKgEbIIBzwiYVHd5hhOwyR3sC6jKoOzVawTRBX1-ze42GH3eRvB7aOlIGMCaV]--></g></svg>