<svg xmlns="http://www.w3.org/2000/svg" xmlns:xlink="http://www.w3.org/1999/xlink" contentStyleType="text/css" height="1396.8px" preserveAspectRatio="none" style="width:1243px;height:1396px;background:#FFFFFF;" version="1.1" viewBox="0 0 1243 1396" width="1243.8px" zoomAndPan="magnify"><title>Sequence Diagram: US06 - Upgrade a selected station with a building</title><defs/><g><text fill="#000000" font-family="sans-serif" font-size="12.6" font-weight="bold" lengthAdjust="spacing" textLength="415.8923" x="413.1503" y="27.0967">Sequence Diagram: US06 - Upgrade a selected station with a building</text><rect fill="#FFFFFF" height="1186.6975" style="stroke:#181818;stroke-width:0.9;" width="9" x="20.5572" y="119.918"/><rect fill="#FFFFFF" height="405.3639" style="stroke:#181818;stroke-width:0.9;" width="9" x="275.2462" y="140.8799"/><rect fill="#FFFFFF" height="281.6191" style="stroke:#181818;stroke-width:0.9;" width="9" x="275.2462" y="574.4057"/><rect fill="#FFFFFF" height="422.4287" style="stroke:#181818;stroke-width:0.9;" width="9" x="275.2462" y="884.1867"/><rect fill="#FFFFFF" height="309.7811" style="stroke:#181818;stroke-width:0.9;" width="9" x="453.2528" y="208.3008"/><rect fill="#FFFFFF" height="197.1334" style="stroke:#181818;stroke-width:0.9;" width="9" x="453.2528" y="602.5676"/><rect fill="#FFFFFF" height="140.8096" style="stroke:#181818;stroke-width:0.9;" width="9" x="453.2528" y="912.3486"/><rect fill="#FFFFFF" height="168.9715" style="stroke:#181818;stroke-width:0.9;" width="9" x="453.2528" y="1109.482"/><rect fill="#FFFFFF" height="28.1619" style="stroke:#181818;stroke-width:0.9;" width="9" x="582.7096" y="236.4627"/><rect fill="#FFFFFF" height="28.1619" style="stroke:#181818;stroke-width:0.9;" width="9" x="676.092" y="292.7865"/><rect fill="#FFFFFF" height="28.1619" style="stroke:#181818;stroke-width:0.9;" width="9" x="676.092" y="630.7295"/><rect fill="#FFFFFF" height="28.1619" style="stroke:#181818;stroke-width:0.9;" width="9" x="787.6916" y="349.1104"/><rect fill="#FFFFFF" height="28.1619" style="stroke:#181818;stroke-width:0.9;" width="9" x="914.0014" y="405.4342"/><rect fill="#FFFFFF" height="28.1619" style="stroke:#181818;stroke-width:0.9;" width="9" x="914.0014" y="996.8344"/><rect fill="#FFFFFF" height="28.1619" style="stroke:#181818;stroke-width:0.9;" width="9" x="1007.39" y="461.758"/><rect fill="#FFFFFF" height="28.1619" style="stroke:#181818;stroke-width:0.9;" width="9" x="1007.39" y="940.5105"/><rect fill="#FFFFFF" height="28.1619" style="stroke:#181818;stroke-width:0.9;" width="9" x="1007.39" y="1137.6439"/><rect fill="#FFFFFF" height="28.1619" style="stroke:#181818;stroke-width:0.9;" width="9" x="1073.4684" y="743.3771"/><rect fill="#FFFFFF" height="28.1619" style="stroke:#181818;stroke-width:0.9;" width="9" x="1073.4684" y="1193.9678"/><rect fill="#FFFFFF" height="28.1619" style="stroke:#181818;stroke-width:0.9;" width="9" x="1173.5139" y="687.0533"/><line style="stroke:#181818;stroke-width:0.45;stroke-dasharray:5.0,5.0;" x1="24.3" x2="24.3" y1="110.918" y2="1322.8154"/><line style="stroke:#181818;stroke-width:0.45;stroke-dasharray:5.0,5.0;" x1="279.2158" x2="279.2158" y1="110.918" y2="1322.8154"/><line style="stroke:#181818;stroke-width:0.45;stroke-dasharray:5.0,5.0;" x1="456.9122" x2="456.9122" y1="176.7094" y2="1322.8154"/><line style="stroke:#181818;stroke-width:0.45;stroke-dasharray:5.0,5.0;" x1="586.3935" x2="586.3935" y1="110.918" y2="1322.8154"/><line style="stroke:#181818;stroke-width:0.45;stroke-dasharray:5.0,5.0;" x1="679.8256" x2="679.8256" y1="110.918" y2="1322.8154"/><line style="stroke:#181818;stroke-width:0.45;stroke-dasharray:5.0,5.0;" x1="792.0584" x2="792.0584" y1="110.918" y2="1322.8154"/><line style="stroke:#181818;stroke-width:0.45;stroke-dasharray:5.0,5.0;" x1="918.3248" x2="918.3248" y1="110.918" y2="1322.8154"/><line style="stroke:#181818;stroke-width:0.45;stroke-dasharray:5.0,5.0;" x1="1011.3781" x2="1011.3781" y1="110.918" y2="1322.8154"/><line style="stroke:#181818;stroke-width:0.45;stroke-dasharray:5.0,5.0;" x1="1077.202" x2="1077.202" y1="110.918" y2="1322.8154"/><line style="stroke:#181818;stroke-width:0.45;stroke-dasharray:5.0,5.0;" x1="1177.7348" x2="1177.7348" y1="110.918" y2="1322.8154"/><text fill="#000000" font-family="sans-serif" font-size="12.6" lengthAdjust="spacing" textLength="35.7144" x="4.5" y="107.7557">Player</text><ellipse cx="25.0572" cy="47.809" fill="#E3E3E3" rx="7.2" ry="7.2" style="stroke:#181818;stroke-width:0.45;"/><path d="M25.0572,55.009 L25.0572,79.309 M13.3572,62.209 L36.7572,62.209 M25.0572,79.309 L13.3572,92.809 M25.0572,79.309 L36.7572,92.809 " fill="none" style="stroke:#181818;stroke-width:0.45;"/><text fill="#000000" font-family="sans-serif" font-size="12.6" lengthAdjust="spacing" textLength="35.7144" x="4.5" y="1335.5121">Player</text><ellipse cx="25.0572" cy="1346.3244" fill="#E3E3E3" rx="7.2" ry="7.2" style="stroke:#181818;stroke-width:0.45;"/><path d="M25.0572,1353.5244 L25.0572,1377.8244 M13.3572,1360.7244 L36.7572,1360.7244 M25.0572,1377.8244 L13.3572,1391.3244 M25.0572,1377.8244 L36.7572,1391.3244 " fill="none" style="stroke:#181818;stroke-width:0.45;"/><rect fill="#E3E3E3" height="29.359" rx="2.25" ry="2.25" style="stroke:#181818;stroke-width:0.45;" width="116.2608" x="221.6158" y="80.659"/><text fill="#000000" font-family="sans-serif" font-size="12.6" lengthAdjust="spacing" textLength="103.6608" x="227.9158" y="100.5557">:UpgradeStationUI</text><rect fill="#E3E3E3" height="29.359" rx="2.25" ry="2.25" style="stroke:#181818;stroke-width:0.45;" width="116.2608" x="221.6158" y="1321.9154"/><text fill="#000000" font-family="sans-serif" font-size="12.6" lengthAdjust="spacing" textLength="103.6608" x="227.9158" y="1341.8121">:UpgradeStationUI</text><rect fill="#E3E3E3" height="29.359" rx="2.25" ry="2.25" style="stroke:#181818;stroke-width:0.45;" width="158.2813" x="378.6122" y="1321.9154"/><text fill="#000000" font-family="sans-serif" font-size="12.6" lengthAdjust="spacing" textLength="145.6813" x="384.9122" y="1341.8121">:UpgradeStationController</text><rect fill="#E3E3E3" height="29.359" rx="2.25" ry="2.25" style="stroke:#181818;stroke-width:0.45;" width="82.6321" x="545.8935" y="80.659"/><text fill="#000000" font-family="sans-serif" font-size="12.6" lengthAdjust="spacing" textLength="70.0321" x="552.1935" y="100.5557">Repositories</text><rect fill="#E3E3E3" height="29.359" rx="2.25" ry="2.25" style="stroke:#181818;stroke-width:0.45;" width="82.6321" x="545.8935" y="1321.9154"/><text fill="#000000" font-family="sans-serif" font-size="12.6" lengthAdjust="spacing" textLength="70.0321" x="552.1935" y="1341.8121">Repositories</text><rect fill="#E3E3E3" height="46.118" rx="2.25" ry="2.25" style="stroke:#181818;stroke-width:0.45;" width="86.1328" x="637.5256" y="63.9"/><text fill="#000000" font-family="sans-serif" font-size="12.6" lengthAdjust="spacing" textLength="65.1287" x="648.0277" y="83.7967">repositories</text><text fill="#000000" font-family="sans-serif" font-size="12.6" lengthAdjust="spacing" textLength="73.5328" x="643.8256" y="100.5557">:Repositories</text><rect fill="#E3E3E3" height="46.118" rx="2.25" ry="2.25" style="stroke:#181818;stroke-width:0.45;" width="86.1328" x="637.5256" y="1321.9154"/><text fill="#000000" font-family="sans-serif" font-size="12.6" lengthAdjust="spacing" textLength="65.1287" x="648.0277" y="1341.8121">repositories</text><text fill="#000000" font-family="sans-serif" font-size="12.6" lengthAdjust="spacing" textLength="73.5328" x="643.8256" y="1358.5711">:Repositories</text><rect fill="#E3E3E3" height="29.359" rx="2.25" ry="2.25" style="stroke:#181818;stroke-width:0.45;" width="119.0663" x="732.6584" y="80.659"/><text fill="#000000" font-family="sans-serif" font-size="12.6" lengthAdjust="spacing" textLength="106.4663" x="738.9584" y="100.5557">ApplicationSession</text><rect fill="#E3E3E3" height="29.359" rx="2.25" ry="2.25" style="stroke:#181818;stroke-width:0.45;" width="119.0663" x="732.6584" y="1321.9154"/><text fill="#000000" font-family="sans-serif" font-size="12.6" lengthAdjust="spacing" textLength="106.4663" x="738.9584" y="1341.8121">ApplicationSession</text><rect fill="#E3E3E3" height="46.118" rx="2.25" ry="2.25" style="stroke:#181818;stroke-width:0.45;" width="115.5533" x="860.7248" y="63.9"/><text fill="#000000" font-family="sans-serif" font-size="12.6" lengthAdjust="spacing" textLength="97.3485" x="869.8271" y="83.7967">stationRepository</text><text fill="#000000" font-family="sans-serif" font-size="12.6" lengthAdjust="spacing" textLength="102.9533" x="867.0248" y="100.5557">:StationRepository</text><rect fill="#E3E3E3" height="46.118" rx="2.25" ry="2.25" style="stroke:#181818;stroke-width:0.45;" width="115.5533" x="860.7248" y="1321.9154"/><text fill="#000000" font-family="sans-serif" font-size="12.6" lengthAdjust="spacing" textLength="97.3485" x="869.8271" y="1341.8121">stationRepository</text><text fill="#000000" font-family="sans-serif" font-size="12.6" lengthAdjust="spacing" textLength="102.9533" x="867.0248" y="1358.5711">:StationRepository</text><rect fill="#E3E3E3" height="46.118" rx="2.25" ry="2.25" style="stroke:#181818;stroke-width:0.45;" width="53.2239" x="985.2781" y="63.9"/><text fill="#000000" font-family="sans-serif" font-size="12.6" lengthAdjust="spacing" textLength="40.6239" x="991.5781" y="83.7967">:station</text><text fill="#000000" font-family="sans-serif" font-size="12.6" lengthAdjust="spacing" textLength="39.2273" x="992.2764" y="100.5557">Station</text><rect fill="#E3E3E3" height="46.118" rx="2.25" ry="2.25" style="stroke:#181818;stroke-width:0.45;" width="53.2239" x="985.2781" y="1321.9154"/><text fill="#000000" font-family="sans-serif" font-size="12.6" lengthAdjust="spacing" textLength="40.6239" x="991.5781" y="1341.8121">:station</text><text fill="#000000" font-family="sans-serif" font-size="12.6" lengthAdjust="spacing" textLength="39.2273" x="992.2764" y="1358.5711">Station</text><rect fill="#E3E3E3" height="29.359" rx="2.25" ry="2.25" style="stroke:#181818;stroke-width:0.45;" width="60.9328" x="1047.502" y="80.659"/><text fill="#000000" font-family="sans-serif" font-size="12.6" lengthAdjust="spacing" textLength="48.3328" x="1053.802" y="100.5557">:Building</text><rect fill="#E3E3E3" height="29.359" rx="2.25" ry="2.25" style="stroke:#181818;stroke-width:0.45;" width="60.9328" x="1047.502" y="1321.9154"/><text fill="#000000" font-family="sans-serif" font-size="12.6" lengthAdjust="spacing" textLength="48.3328" x="1053.802" y="1341.8121">:Building</text><rect fill="#E3E3E3" height="46.118" rx="2.25" ry="2.25" style="stroke:#181818;stroke-width:0.45;" width="121.1581" x="1117.4348" y="63.9"/><text fill="#000000" font-family="sans-serif" font-size="12.6" lengthAdjust="spacing" textLength="103.6608" x="1126.1834" y="83.7967">buildingRepository</text><text fill="#000000" font-family="sans-serif" font-size="12.6" lengthAdjust="spacing" textLength="108.5581" x="1123.7348" y="100.5557">:BuildingRepository</text><rect fill="#E3E3E3" height="46.118" rx="2.25" ry="2.25" style="stroke:#181818;stroke-width:0.45;" width="121.1581" x="1117.4348" y="1321.9154"/><text fill="#000000" font-family="sans-serif" font-size="12.6" lengthAdjust="spacing" textLength="103.6608" x="1126.1834" y="1341.8121">buildingRepository</text><text fill="#000000" font-family="sans-serif" font-size="12.6" lengthAdjust="spacing" textLength="108.5581" x="1123.7348" y="1358.5711">:BuildingRepository</text><rect fill="#FFFFFF" height="1186.6975" style="stroke:#181818;stroke-width:0.9;" width="9" x="20.5572" y="119.918"/><rect fill="#FFFFFF" height="405.3639" style="stroke:#181818;stroke-width:0.9;" width="9" x="275.2462" y="140.8799"/><rect fill="#FFFFFF" height="281.6191" style="stroke:#181818;stroke-width:0.9;" width="9" x="275.2462" y="574.4057"/><rect fill="#FFFFFF" height="422.4287" style="stroke:#181818;stroke-width:0.9;" width="9" x="275.2462" y="884.1867"/><rect fill="#FFFFFF" height="309.7811" style="stroke:#181818;stroke-width:0.9;" width="9" x="453.2528" y="208.3008"/><rect fill="#FFFFFF" height="197.1334" style="stroke:#181818;stroke-width:0.9;" width="9" x="453.2528" y="602.5676"/><rect fill="#FFFFFF" height="140.8096" style="stroke:#181818;stroke-width:0.9;" width="9" x="453.2528" y="912.3486"/><rect fill="#FFFFFF" height="168.9715" style="stroke:#181818;stroke-width:0.9;" width="9" x="453.2528" y="1109.482"/><rect fill="#FFFFFF" height="28.1619" style="stroke:#181818;stroke-width:0.9;" width="9" x="582.7096" y="236.4627"/><rect fill="#FFFFFF" height="28.1619" style="stroke:#181818;stroke-width:0.9;" width="9" x="676.092" y="292.7865"/><rect fill="#FFFFFF" height="28.1619" style="stroke:#181818;stroke-width:0.9;" width="9" x="676.092" y="630.7295"/><rect fill="#FFFFFF" height="28.1619" style="stroke:#181818;stroke-width:0.9;" width="9" x="787.6916" y="349.1104"/><rect fill="#FFFFFF" height="28.1619" style="stroke:#181818;stroke-width:0.9;" width="9" x="914.0014" y="405.4342"/><rect fill="#FFFFFF" height="28.1619" style="stroke:#181818;stroke-width:0.9;" width="9" x="914.0014" y="996.8344"/><rect fill="#FFFFFF" height="28.1619" style="stroke:#181818;stroke-width:0.9;" width="9" x="1007.39" y="461.758"/><rect fill="#FFFFFF" height="28.1619" style="stroke:#181818;stroke-width:0.9;" width="9" x="1007.39" y="940.5105"/><rect fill="#FFFFFF" height="28.1619" style="stroke:#181818;stroke-width:0.9;" width="9" x="1007.39" y="1137.6439"/><rect fill="#FFFFFF" height="28.1619" style="stroke:#181818;stroke-width:0.9;" width="9" x="1073.4684" y="743.3771"/><rect fill="#FFFFFF" height="28.1619" style="stroke:#181818;stroke-width:0.9;" width="9" x="1073.4684" y="1193.9678"/><rect fill="#FFFFFF" height="28.1619" style="stroke:#181818;stroke-width:0.9;" width="9" x="1173.5139" y="687.0533"/><polygon fill="#181818" points="264.4462,137.2799,273.4462,140.8799,264.4462,144.4799,268.0462,140.8799" style="stroke:#181818;stroke-width:0.9;"/><line style="stroke:#181818;stroke-width:0.9;" x1="29.5572" x2="269.8462" y1="140.8799" y2="140.8799"/><text fill="#000000" font-family="sans-serif" font-size="11.7" font-weight="bold" lengthAdjust="spacing" textLength="6.507" x="35.8572" y="136.1435">1</text><text fill="#000000" font-family="sans-serif" font-size="11.7" lengthAdjust="spacing" textLength="120.9762" x="45.9642" y="136.1435">asks to upgrade station</text><polygon fill="#181818" points="367.8122,165.4418,376.8122,169.0418,367.8122,172.6418,371.4122,169.0418" style="stroke:#181818;stroke-width:0.9;"/><line style="stroke:#181818;stroke-width:0.9;" x1="284.2462" x2="373.2122" y1="169.0418" y2="169.0418"/><text fill="#000000" font-family="sans-serif" font-size="11.7" font-weight="bold" lengthAdjust="spacing" textLength="6.507" x="290.5462" y="164.3054">2</text><text fill="#000000" font-family="sans-serif" font-size="11.7" lengthAdjust="spacing" textLength="40.3102" x="300.6532" y="164.3054">create()</text><rect fill="#E3E3E3" height="29.359" rx="2.25" ry="2.25" style="stroke:#181818;stroke-width:0.45;" width="158.2813" x="378.6122" y="148.0799"/><text fill="#000000" font-family="sans-serif" font-size="12.6" lengthAdjust="spacing" textLength="145.6813" x="384.9122" y="167.9766">:UpgradeStationController</text><polygon fill="#181818" points="442.4528,204.7008,451.4528,208.3008,442.4528,211.9008,446.0528,208.3008" style="stroke:#181818;stroke-width:0.9;"/><line style="stroke:#181818;stroke-width:0.9;" x1="284.2462" x2="447.8528" y1="208.3008" y2="208.3008"/><text fill="#000000" font-family="sans-serif" font-size="11.7" font-weight="bold" lengthAdjust="spacing" textLength="6.507" x="290.5462" y="203.5644">3</text><text fill="#000000" font-family="sans-serif" font-size="11.7" lengthAdjust="spacing" textLength="122.2673" x="300.6532" y="203.5644">getAvailableUpgrades()</text><polygon fill="#181818" points="571.9096,232.8627,580.9096,236.4627,571.9096,240.0627,575.5096,236.4627" style="stroke:#181818;stroke-width:0.9;"/><line style="stroke:#181818;stroke-width:0.9;" x1="462.2528" x2="577.3096" y1="236.4627" y2="236.4627"/><text fill="#000000" font-family="sans-serif" font-size="11.7" font-weight="bold" lengthAdjust="spacing" textLength="6.507" x="468.5528" y="231.7263">4</text><text fill="#000000" font-family="sans-serif" font-size="11.7" lengthAdjust="spacing" textLength="68.2862" x="478.6598" y="231.7263">getInstance()</text><polygon fill="#181818" points="472.1528,261.0246,463.1528,264.6246,472.1528,268.2246,468.5528,264.6246" style="stroke:#181818;stroke-width:0.9;"/><line style="stroke:#181818;stroke-width:0.9;stroke-dasharray:2.0,2.0;" x1="466.7528" x2="586.3096" y1="264.6246" y2="264.6246"/><text fill="#000000" font-family="sans-serif" font-size="11.7" font-weight="bold" lengthAdjust="spacing" textLength="6.507" x="477.5528" y="259.8882">5</text><text fill="#000000" font-family="sans-serif" font-size="11.7" lengthAdjust="spacing" textLength="60.4767" x="487.6598" y="259.8882">repositories</text><polygon fill="#181818" points="665.292,289.1865,674.292,292.7865,665.292,296.3865,668.892,292.7865" style="stroke:#181818;stroke-width:0.9;"/><line style="stroke:#181818;stroke-width:0.9;" x1="462.2528" x2="670.692" y1="292.7865" y2="292.7865"/><text fill="#000000" font-family="sans-serif" font-size="11.7" font-weight="bold" lengthAdjust="spacing" textLength="6.507" x="468.5528" y="288.0501">6</text><text fill="#000000" font-family="sans-serif" font-size="11.7" lengthAdjust="spacing" textLength="116.4059" x="478.6598" y="288.0501">getStationRepository()</text><polygon fill="#181818" points="472.1528,317.3484,463.1528,320.9484,472.1528,324.5484,468.5528,320.9484" style="stroke:#181818;stroke-width:0.9;"/><line style="stroke:#181818;stroke-width:0.9;stroke-dasharray:2.0,2.0;" x1="466.7528" x2="679.692" y1="320.9484" y2="320.9484"/><text fill="#000000" font-family="sans-serif" font-size="11.7" font-weight="bold" lengthAdjust="spacing" textLength="6.507" x="477.5528" y="316.212">7</text><text fill="#000000" font-family="sans-serif" font-size="11.7" lengthAdjust="spacing" textLength="90.3951" x="487.6598" y="316.212">stationRepository</text><polygon fill="#181818" points="776.8916,345.5104,785.8916,349.1104,776.8916,352.7104,780.4916,349.1104" style="stroke:#181818;stroke-width:0.9;"/><line style="stroke:#181818;stroke-width:0.9;" x1="462.2528" x2="782.2916" y1="349.1104" y2="349.1104"/><text fill="#000000" font-family="sans-serif" font-size="11.7" font-weight="bold" lengthAdjust="spacing" textLength="6.507" x="468.5528" y="344.3739">8</text><text fill="#000000" font-family="sans-serif" font-size="11.7" lengthAdjust="spacing" textLength="68.2862" x="478.6598" y="344.3739">getInstance()</text><polygon fill="#181818" points="472.1528,373.6723,463.1528,377.2723,472.1528,380.8723,468.5528,377.2723" style="stroke:#181818;stroke-width:0.9;"/><line style="stroke:#181818;stroke-width:0.9;stroke-dasharray:2.0,2.0;" x1="466.7528" x2="791.2916" y1="377.2723" y2="377.2723"/><text fill="#000000" font-family="sans-serif" font-size="11.7" font-weight="bold" lengthAdjust="spacing" textLength="6.507" x="477.5528" y="372.5358">9</text><text fill="#000000" font-family="sans-serif" font-size="11.7" lengthAdjust="spacing" textLength="118.7082" x="487.6598" y="372.5358">stationId = appSession</text><polygon fill="#181818" points="903.2014,401.8342,912.2014,405.4342,903.2014,409.0342,906.8014,405.4342" style="stroke:#181818;stroke-width:0.9;"/><line style="stroke:#181818;stroke-width:0.9;" x1="462.2528" x2="908.6014" y1="405.4342" y2="405.4342"/><text fill="#000000" font-family="sans-serif" font-size="11.7" font-weight="bold" lengthAdjust="spacing" textLength="13.014" x="468.5528" y="400.6978">10</text><text fill="#000000" font-family="sans-serif" font-size="11.7" lengthAdjust="spacing" textLength="104.7116" x="485.1668" y="400.6978">getStation(stationId)</text><polygon fill="#181818" points="472.1528,429.9961,463.1528,433.5961,472.1528,437.1961,468.5528,433.5961" style="stroke:#181818;stroke-width:0.9;"/><line style="stroke:#181818;stroke-width:0.9;stroke-dasharray:2.0,2.0;" x1="466.7528" x2="917.6014" y1="433.5961" y2="433.5961"/><text fill="#000000" font-family="sans-serif" font-size="11.7" font-weight="bold" lengthAdjust="spacing" textLength="13.014" x="477.5528" y="428.8597">11</text><text fill="#000000" font-family="sans-serif" font-size="11.7" lengthAdjust="spacing" textLength="34.4716" x="494.1668" y="428.8597">station</text><polygon fill="#181818" points="996.59,458.158,1005.59,461.758,996.59,465.358,1000.19,461.758" style="stroke:#181818;stroke-width:0.9;"/><line style="stroke:#181818;stroke-width:0.9;" x1="462.2528" x2="1001.99" y1="461.758" y2="461.758"/><text fill="#000000" font-family="sans-serif" font-size="11.7" font-weight="bold" lengthAdjust="spacing" textLength="13.014" x="468.5528" y="457.0216">12</text><text fill="#000000" font-family="sans-serif" font-size="11.7" lengthAdjust="spacing" textLength="156.7389" x="485.1668" y="457.0216">getAvailableUpgrades(station)</text><polygon fill="#181818" points="472.1528,486.3199,463.1528,489.9199,472.1528,493.5199,468.5528,489.9199" style="stroke:#181818;stroke-width:0.9;"/><line style="stroke:#181818;stroke-width:0.9;stroke-dasharray:2.0,2.0;" x1="466.7528" x2="1010.99" y1="489.9199" y2="489.9199"/><text fill="#000000" font-family="sans-serif" font-size="11.7" font-weight="bold" lengthAdjust="spacing" textLength="13.014" x="477.5528" y="485.1835">13</text><text fill="#000000" font-family="sans-serif" font-size="11.7" lengthAdjust="spacing" textLength="96.9135" x="494.1668" y="485.1835">availableUpgrades</text><polygon fill="#181818" points="294.1462,514.4818,285.1462,518.0818,294.1462,521.6818,290.5462,518.0818" style="stroke:#181818;stroke-width:0.9;"/><line style="stroke:#181818;stroke-width:0.9;stroke-dasharray:2.0,2.0;" x1="288.7462" x2="456.8528" y1="518.0818" y2="518.0818"/><text fill="#000000" font-family="sans-serif" font-size="11.7" font-weight="bold" lengthAdjust="spacing" textLength="13.014" x="299.5462" y="513.3454">14</text><text fill="#000000" font-family="sans-serif" font-size="11.7" lengthAdjust="spacing" textLength="96.9135" x="316.1602" y="513.3454">availableUpgrades</text><polygon fill="#181818" points="39.4572,542.6438,30.4572,546.2438,39.4572,549.8438,35.8572,546.2438" style="stroke:#181818;stroke-width:0.9;"/><line style="stroke:#181818;stroke-width:0.9;stroke-dasharray:2.0,2.0;" x1="34.0572" x2="278.8462" y1="546.2438" y2="546.2438"/><text fill="#000000" font-family="sans-serif" font-size="11.7" font-weight="bold" lengthAdjust="spacing" textLength="13.014" x="44.8572" y="541.5073">15</text><text fill="#000000" font-family="sans-serif" font-size="11.7" lengthAdjust="spacing" textLength="129.437" x="61.4711" y="541.5073">displays upgrade options</text><polygon fill="#181818" points="264.4462,570.8057,273.4462,574.4057,264.4462,578.0057,268.0462,574.4057" style="stroke:#181818;stroke-width:0.9;"/><line style="stroke:#181818;stroke-width:0.9;" x1="29.5572" x2="269.8462" y1="574.4057" y2="574.4057"/><text fill="#000000" font-family="sans-serif" font-size="11.7" font-weight="bold" lengthAdjust="spacing" textLength="13.014" x="35.8572" y="569.6692">16</text><text fill="#000000" font-family="sans-serif" font-size="11.7" lengthAdjust="spacing" textLength="146.3585" x="52.4711" y="569.6692">chooses building to upgrade</text><polygon fill="#181818" points="442.4528,598.9676,451.4528,602.5676,442.4528,606.1676,446.0528,602.5676" style="stroke:#181818;stroke-width:0.9;"/><line style="stroke:#181818;stroke-width:0.9;" x1="284.2462" x2="447.8528" y1="602.5676" y2="602.5676"/><text fill="#000000" font-family="sans-serif" font-size="11.7" font-weight="bold" lengthAdjust="spacing" textLength="13.014" x="290.5462" y="597.8312">17</text><text fill="#000000" font-family="sans-serif" font-size="11.7" lengthAdjust="spacing" textLength="135.2927" x="307.1602" y="597.8312">getBuildingInfo(buildingId)</text><polygon fill="#181818" points="665.292,627.1295,674.292,630.7295,665.292,634.3295,668.892,630.7295" style="stroke:#181818;stroke-width:0.9;"/><line style="stroke:#181818;stroke-width:0.9;" x1="462.2528" x2="670.692" y1="630.7295" y2="630.7295"/><text fill="#000000" font-family="sans-serif" font-size="11.7" font-weight="bold" lengthAdjust="spacing" textLength="13.014" x="468.5528" y="625.9931">18</text><text fill="#000000" font-family="sans-serif" font-size="11.7" lengthAdjust="spacing" textLength="121.6103" x="485.1668" y="625.9931">getBuildingRepository()</text><polygon fill="#181818" points="472.1528,655.2914,463.1528,658.8914,472.1528,662.4914,468.5528,658.8914" style="stroke:#181818;stroke-width:0.9;"/><line style="stroke:#181818;stroke-width:0.9;stroke-dasharray:2.0,2.0;" x1="466.7528" x2="679.692" y1="658.8914" y2="658.8914"/><text fill="#000000" font-family="sans-serif" font-size="11.7" font-weight="bold" lengthAdjust="spacing" textLength="13.014" x="477.5528" y="654.155">19</text><text fill="#000000" font-family="sans-serif" font-size="11.7" lengthAdjust="spacing" textLength="96.2565" x="494.1668" y="654.155">buildingRepository</text><polygon fill="#181818" points="1162.7139,683.4533,1171.7139,687.0533,1162.7139,690.6533,1166.3139,687.0533" style="stroke:#181818;stroke-width:0.9;"/><line style="stroke:#181818;stroke-width:0.9;" x1="462.2528" x2="1168.1139" y1="687.0533" y2="687.0533"/><text fill="#000000" font-family="sans-serif" font-size="11.7" font-weight="bold" lengthAdjust="spacing" textLength="13.014" x="468.5528" y="682.3169">20</text><text fill="#000000" font-family="sans-serif" font-size="11.7" lengthAdjust="spacing" textLength="115.7774" x="485.1668" y="682.3169">getBuilding(buildingId)</text><polygon fill="#181818" points="472.1528,711.6152,463.1528,715.2152,472.1528,718.8152,468.5528,715.2152" style="stroke:#181818;stroke-width:0.9;"/><line style="stroke:#181818;stroke-width:0.9;stroke-dasharray:2.0,2.0;" x1="466.7528" x2="1177.1139" y1="715.2152" y2="715.2152"/><text fill="#000000" font-family="sans-serif" font-size="11.7" font-weight="bold" lengthAdjust="spacing" textLength="13.014" x="477.5528" y="710.4788">21</text><text fill="#000000" font-family="sans-serif" font-size="11.7" lengthAdjust="spacing" textLength="40.333" x="494.1668" y="710.4788">building</text><polygon fill="#181818" points="1062.6684,739.7771,1071.6684,743.3771,1062.6684,746.9771,1066.2684,743.3771" style="stroke:#181818;stroke-width:0.9;"/><line style="stroke:#181818;stroke-width:0.9;" x1="462.2528" x2="1068.0684" y1="743.3771" y2="743.3771"/><text fill="#000000" font-family="sans-serif" font-size="11.7" font-weight="bold" lengthAdjust="spacing" textLength="13.014" x="468.5528" y="738.6407">22</text><text fill="#000000" font-family="sans-serif" font-size="11.7" lengthAdjust="spacing" textLength="43.5722" x="485.1668" y="738.6407">getInfo()</text><polygon fill="#181818" points="472.1528,767.9391,463.1528,771.5391,472.1528,775.1391,468.5528,771.5391" style="stroke:#181818;stroke-width:0.9;"/><line style="stroke:#181818;stroke-width:0.9;stroke-dasharray:2.0,2.0;" x1="466.7528" x2="1077.0684" y1="771.5391" y2="771.5391"/><text fill="#000000" font-family="sans-serif" font-size="11.7" font-weight="bold" lengthAdjust="spacing" textLength="13.014" x="477.5528" y="766.8026">23</text><text fill="#000000" font-family="sans-serif" font-size="11.7" lengthAdjust="spacing" textLength="59.8482" x="494.1668" y="766.8026">buildingInfo</text><polygon fill="#181818" points="294.1462,796.101,285.1462,799.701,294.1462,803.301,290.5462,799.701" style="stroke:#181818;stroke-width:0.9;"/><line style="stroke:#181818;stroke-width:0.9;stroke-dasharray:2.0,2.0;" x1="288.7462" x2="456.8528" y1="799.701" y2="799.701"/><text fill="#000000" font-family="sans-serif" font-size="11.7" font-weight="bold" lengthAdjust="spacing" textLength="13.014" x="299.5462" y="794.9646">24</text><text fill="#000000" font-family="sans-serif" font-size="11.7" lengthAdjust="spacing" textLength="59.8482" x="316.1602" y="794.9646">buildingInfo</text><polygon fill="#181818" points="39.4572,824.2629,30.4572,827.8629,39.4572,831.4629,35.8572,827.8629" style="stroke:#181818;stroke-width:0.9;"/><line style="stroke:#181818;stroke-width:0.9;stroke-dasharray:2.0,2.0;" x1="34.0572" x2="274.3462" y1="827.8629" y2="827.8629"/><text fill="#000000" font-family="sans-serif" font-size="11.7" font-weight="bold" lengthAdjust="spacing" textLength="13.014" x="44.8572" y="823.1265">25</text><text fill="#000000" font-family="sans-serif" font-size="11.7" lengthAdjust="spacing" textLength="146.9813" x="61.4711" y="823.1265">displays building information</text><polygon fill="#181818" points="39.4572,852.4248,30.4572,856.0248,39.4572,859.6248,35.8572,856.0248" style="stroke:#181818;stroke-width:0.9;"/><line style="stroke:#181818;stroke-width:0.9;stroke-dasharray:2.0,2.0;" x1="34.0572" x2="278.8462" y1="856.0248" y2="856.0248"/><text fill="#000000" font-family="sans-serif" font-size="11.7" font-weight="bold" lengthAdjust="spacing" textLength="13.014" x="44.8572" y="851.2884">26</text><text fill="#000000" font-family="sans-serif" font-size="11.7" lengthAdjust="spacing" textLength="107.9394" x="61.4711" y="851.2884">asks for confirmation</text><polygon fill="#181818" points="264.4462,880.5867,273.4462,884.1867,264.4462,887.7867,268.0462,884.1867" style="stroke:#181818;stroke-width:0.9;"/><line style="stroke:#181818;stroke-width:0.9;" x1="29.5572" x2="269.8462" y1="884.1867" y2="884.1867"/><text fill="#000000" font-family="sans-serif" font-size="11.7" font-weight="bold" lengthAdjust="spacing" textLength="13.014" x="35.8572" y="879.4503">27</text><text fill="#000000" font-family="sans-serif" font-size="11.7" lengthAdjust="spacing" textLength="90.3951" x="52.4711" y="879.4503">confirms upgrade</text><polygon fill="#181818" points="442.4528,908.7486,451.4528,912.3486,442.4528,915.9486,446.0528,912.3486" style="stroke:#181818;stroke-width:0.9;"/><line style="stroke:#181818;stroke-width:0.9;" x1="284.2462" x2="447.8528" y1="912.3486" y2="912.3486"/><text fill="#000000" font-family="sans-serif" font-size="11.7" font-weight="bold" lengthAdjust="spacing" textLength="13.014" x="290.5462" y="907.6122">28</text><text fill="#000000" font-family="sans-serif" font-size="11.7" lengthAdjust="spacing" textLength="87.1559" x="307.1602" y="907.6122">upgradeStation()</text><polygon fill="#181818" points="996.59,936.9105,1005.59,940.5105,996.59,944.1105,1000.19,940.5105" style="stroke:#181818;stroke-width:0.9;"/><line style="stroke:#181818;stroke-width:0.9;" x1="462.2528" x2="1001.99" y1="940.5105" y2="940.5105"/><text fill="#000000" font-family="sans-serif" font-size="11.7" font-weight="bold" lengthAdjust="spacing" textLength="13.014" x="468.5528" y="935.7741">29</text><text fill="#000000" font-family="sans-serif" font-size="11.7" lengthAdjust="spacing" textLength="91.0635" x="485.1668" y="935.7741">upgrade(building)</text><polygon fill="#181818" points="472.1528,965.0725,463.1528,968.6725,472.1528,972.2725,468.5528,968.6725" style="stroke:#181818;stroke-width:0.9;"/><line style="stroke:#181818;stroke-width:0.9;stroke-dasharray:2.0,2.0;" x1="466.7528" x2="1010.99" y1="968.6725" y2="968.6725"/><text fill="#000000" font-family="sans-serif" font-size="11.7" font-weight="bold" lengthAdjust="spacing" textLength="13.014" x="477.5528" y="963.936">30</text><text fill="#000000" font-family="sans-serif" font-size="11.7" lengthAdjust="spacing" textLength="42.264" x="494.1668" y="963.936">success</text><polygon fill="#181818" points="903.2014,993.2344,912.2014,996.8344,903.2014,1000.4344,906.8014,996.8344" style="stroke:#181818;stroke-width:0.9;"/><line style="stroke:#181818;stroke-width:0.9;" x1="462.2528" x2="908.6014" y1="996.8344" y2="996.8344"/><text fill="#000000" font-family="sans-serif" font-size="11.7" font-weight="bold" lengthAdjust="spacing" textLength="13.014" x="468.5528" y="992.0979">31</text><text fill="#000000" font-family="sans-serif" font-size="11.7" lengthAdjust="spacing" textLength="66.9779" x="485.1668" y="992.0979">save(station)</text><polygon fill="#181818" points="472.1528,1021.3963,463.1528,1024.9963,472.1528,1028.5963,468.5528,1024.9963" style="stroke:#181818;stroke-width:0.9;"/><line style="stroke:#181818;stroke-width:0.9;stroke-dasharray:2.0,2.0;" x1="466.7528" x2="917.6014" y1="1024.9963" y2="1024.9963"/><text fill="#000000" font-family="sans-serif" font-size="11.7" font-weight="bold" lengthAdjust="spacing" textLength="13.014" x="477.5528" y="1020.2599">32</text><text fill="#000000" font-family="sans-serif" font-size="11.7" lengthAdjust="spacing" textLength="42.264" x="494.1668" y="1020.2599">success</text><polygon fill="#181818" points="294.1462,1049.5582,285.1462,1053.1582,294.1462,1056.7582,290.5462,1053.1582" style="stroke:#181818;stroke-width:0.9;"/><line style="stroke:#181818;stroke-width:0.9;stroke-dasharray:2.0,2.0;" x1="288.7462" x2="456.8528" y1="1053.1582" y2="1053.1582"/><text fill="#000000" font-family="sans-serif" font-size="11.7" font-weight="bold" lengthAdjust="spacing" textLength="13.014" x="299.5462" y="1048.4218">33</text><text fill="#000000" font-family="sans-serif" font-size="11.7" lengthAdjust="spacing" textLength="42.264" x="316.1602" y="1048.4218">success</text><polygon fill="#181818" points="39.4572,1077.7201,30.4572,1081.3201,39.4572,1084.9201,35.8572,1081.3201" style="stroke:#181818;stroke-width:0.9;"/><line style="stroke:#181818;stroke-width:0.9;stroke-dasharray:2.0,2.0;" x1="34.0572" x2="274.3462" y1="1081.3201" y2="1081.3201"/><text fill="#000000" font-family="sans-serif" font-size="11.7" font-weight="bold" lengthAdjust="spacing" textLength="13.014" x="44.8572" y="1076.5837">34</text><text fill="#000000" font-family="sans-serif" font-size="11.7" lengthAdjust="spacing" textLength="139.823" x="61.4711" y="1076.5837">displays operation success</text><polygon fill="#181818" points="442.4528,1105.882,451.4528,1109.482,442.4528,1113.082,446.0528,1109.482" style="stroke:#181818;stroke-width:0.9;"/><line style="stroke:#181818;stroke-width:0.9;" x1="284.2462" x2="447.8528" y1="1109.482" y2="1109.482"/><text fill="#000000" font-family="sans-serif" font-size="11.7" font-weight="bold" lengthAdjust="spacing" textLength="13.014" x="290.5462" y="1104.7456">35</text><text fill="#000000" font-family="sans-serif" font-size="11.7" lengthAdjust="spacing" textLength="124.2268" x="307.1602" y="1104.7456">getStationInfo(stationId)</text><polygon fill="#181818" points="996.59,1134.0439,1005.59,1137.6439,996.59,1141.2439,1000.19,1137.6439" style="stroke:#181818;stroke-width:0.9;"/><line style="stroke:#181818;stroke-width:0.9;" x1="462.2528" x2="1001.99" y1="1137.6439" y2="1137.6439"/><text fill="#000000" font-family="sans-serif" font-size="11.7" font-weight="bold" lengthAdjust="spacing" textLength="13.014" x="468.5528" y="1132.9075">36</text><text fill="#000000" font-family="sans-serif" font-size="11.7" lengthAdjust="spacing" textLength="43.5722" x="485.1668" y="1132.9075">getInfo()</text><polygon fill="#181818" points="472.1528,1162.2059,463.1528,1165.8059,472.1528,1169.4059,468.5528,1165.8059" style="stroke:#181818;stroke-width:0.9;"/><line style="stroke:#181818;stroke-width:0.9;stroke-dasharray:2.0,2.0;" x1="466.7528" x2="1010.99" y1="1165.8059" y2="1165.8059"/><text fill="#000000" font-family="sans-serif" font-size="11.7" font-weight="bold" lengthAdjust="spacing" textLength="13.014" x="477.5528" y="1161.0694">37</text><text fill="#000000" font-family="sans-serif" font-size="11.7" lengthAdjust="spacing" textLength="53.9868" x="494.1668" y="1161.0694">stationInfo</text><polygon fill="#181818" points="1062.6684,1190.3678,1071.6684,1193.9678,1062.6684,1197.5678,1066.2684,1193.9678" style="stroke:#181818;stroke-width:0.9;"/><line style="stroke:#181818;stroke-width:0.9;" x1="462.2528" x2="1068.0684" y1="1193.9678" y2="1193.9678"/><text fill="#000000" font-family="sans-serif" font-size="11.7" font-weight="bold" lengthAdjust="spacing" textLength="13.014" x="468.5528" y="1189.2313">38</text><text fill="#000000" font-family="sans-serif" font-size="11.7" lengthAdjust="spacing" textLength="43.5722" x="485.1668" y="1189.2313">getInfo()</text><polygon fill="#181818" points="472.1528,1218.5297,463.1528,1222.1297,472.1528,1225.7297,468.5528,1222.1297" style="stroke:#181818;stroke-width:0.9;"/><line style="stroke:#181818;stroke-width:0.9;stroke-dasharray:2.0,2.0;" x1="466.7528" x2="1077.0684" y1="1222.1297" y2="1222.1297"/><text fill="#000000" font-family="sans-serif" font-size="11.7" font-weight="bold" lengthAdjust="spacing" textLength="13.014" x="477.5528" y="1217.3933">39</text><text fill="#000000" font-family="sans-serif" font-size="11.7" lengthAdjust="spacing" textLength="59.8482" x="494.1668" y="1217.3933">buildingInfo</text><polygon fill="#181818" points="294.1462,1246.6916,285.1462,1250.2916,294.1462,1253.8916,290.5462,1250.2916" style="stroke:#181818;stroke-width:0.9;"/><line style="stroke:#181818;stroke-width:0.9;stroke-dasharray:2.0,2.0;" x1="288.7462" x2="452.3528" y1="1250.2916" y2="1250.2916"/><text fill="#000000" font-family="sans-serif" font-size="11.7" font-weight="bold" lengthAdjust="spacing" textLength="13.014" x="299.5462" y="1245.5552">40</text><text fill="#000000" font-family="sans-serif" font-size="11.7" lengthAdjust="spacing" textLength="53.9868" x="316.1602" y="1245.5552">stationInfo</text><polygon fill="#181818" points="294.1462,1274.8535,285.1462,1278.4535,294.1462,1282.0535,290.5462,1278.4535" style="stroke:#181818;stroke-width:0.9;"/><line style="stroke:#181818;stroke-width:0.9;stroke-dasharray:2.0,2.0;" x1="288.7462" x2="456.8528" y1="1278.4535" y2="1278.4535"/><text fill="#000000" font-family="sans-serif" font-size="11.7" font-weight="bold" lengthAdjust="spacing" textLength="13.014" x="299.5462" y="1273.7171">41</text><text fill="#000000" font-family="sans-serif" font-size="11.7" lengthAdjust="spacing" textLength="59.8482" x="316.1602" y="1273.7171">buildingInfo</text><polygon fill="#181818" points="34.9572,1303.0154,25.9572,1306.6154,34.9572,1310.2154,31.3572,1306.6154" style="stroke:#181818;stroke-width:0.9;"/><line style="stroke:#181818;stroke-width:0.9;stroke-dasharray:2.0,2.0;" x1="29.5572" x2="278.8462" y1="1306.6154" y2="1306.6154"/><text fill="#000000" font-family="sans-serif" font-size="11.7" font-weight="bold" lengthAdjust="spacing" textLength="13.014" x="40.3572" y="1301.879">42</text><text fill="#000000" font-family="sans-serif" font-size="11.7" lengthAdjust="spacing" textLength="207.475" x="56.9711" y="1301.879">displays station and building information</text><!--SRC=[tLTDQ-Cm4BtxLmmzPGk5FUt1i0lf1uiXj25EReMYsaeYwaXUIsxflrzPbXJvGxB3xbxMbphIpDCRpSmRbxyHMg8AdU34ACkE5JjX45MD8svtIfIzeGDEnMU1eSAPGFHGk0RyY7BsGUW1zgZWE8fGBHYjJw-uYY91X7HByQyQqmp3FK47wHF3Bltw3MvWLygVEGO471SI6-V01HA4KVWWuYZNNsjIv19SmcQ2LN2rBj0dhgu0SIZLQoHf29AH4b41Lx66J5kONQ8iTqdGwevHKR6YqBXtsysgQx_19UD4daymLoQRX_LJshMf79jd6e-xlAJ9uy_Lm_RfiUkyBCk2P8fCYZcNVvJFShr-IH_IDEdRwrkoXtpA4zF-cdliThaTWCGQvPbgL-MW5tkcjpeFoiGcfMDZLZkaRWUB3glRNRAwbnSIgUoIToImIMe4ycdVuUQ7J60itTuu20QrBXf35FHZ8MIspTekQRoRX5vVnv1LMEulljZjhaaC1ooMxuWKwBN0kaHupzoUeggaizMiD5WgE0MMK4bI5duFeuFJbXACF6e7RYmxjy863Zdk8VgfdOjGaHpKpIHRfugzlCysJWI3ifqCmpbgD22dGsRVkDjLO_oT_I7t98VlWCfIjsae0FUSK3RQtdHpiR27JQT2TtOW4Qt5C9GPbw_1Hzbh54_NwDq0VnyBCm7EV54VFSHy3BQbR7GaYEOWgGvtPK82j98KGqvuyygj6h6oEVMCvU0uUZGYQzcHCOxFekf8t4nfKnamGflGFLiOh7xzZ8TcYSrHYw6W_pkv64wKI_IYRne8qGoYJeJUMno9q4uoVu36P2I-wQYy-AD16LojYB8W0W5uITY2719kC4EalPZ-hlH2NzgGbZQHIDMfAmOz9_L98QqWOtHF-iRpMxZrvXVtRTtv35tCRLPlugqaQs1Rmdz5XdcTPNBgNIg-K_9YnXz7xtZ6s0YFFU_8c-OU1lPNxXYqhsWxIBuAPYMkshllG_SqNzUDwd3F5yE5Yk_Ez2dXkA1mpZpd5Cz_esc-kFzC-6RLa4a2edbO4RiY5pa_zNzYlm40]--></g></svg>