<svg xmlns="http://www.w3.org/2000/svg" xmlns:xlink="http://www.w3.org/1999/xlink" contentStyleType="text/css" height="748px" preserveAspectRatio="none" style="width:610px;height:748px;background:#FFFFFF;" version="1.1" viewBox="0 0 610 748" width="610px" zoomAndPan="magnify"><defs/><g><rect fill="#FFFFFF" height="644.5293" style="stroke:#181818;stroke-width:1.0;" width="10" x="193.5425" y="48.6211"/><rect fill="#FFFFFF" height="28" style="stroke:#181818;stroke-width:1.0;" width="10" x="198.5425" y="325.2402"/><rect fill="#FFFFFF" height="31.291" style="stroke:#181818;stroke-width:1.0;" width="10" x="402.0913" y="129.4941"/><rect fill="#FFFFFF" height="31.291" style="stroke:#181818;stroke-width:1.0;" width="10" x="402.0913" y="192.0762"/><rect fill="#FFFFFF" height="31.291" style="stroke:#181818;stroke-width:1.0;" width="10" x="500.8013" y="254.6582"/><rect fill="#FFFFFF" height="31.291" style="stroke:#181818;stroke-width:1.0;" width="10" x="560.2114" y="391.5313"/><rect fill="#FFFFFF" height="31.291" style="stroke:#181818;stroke-width:1.0;" width="10" x="560.2114" y="454.1133"/><rect fill="#FFFFFF" height="31.291" style="stroke:#181818;stroke-width:1.0;" width="10" x="560.2114" y="516.6953"/><rect fill="#FFFFFF" height="31.291" style="stroke:#181818;stroke-width:1.0;" width="10" x="560.2114" y="579.2773"/><rect fill="none" height="575.9473" style="stroke:#000000;stroke-width:1.5;" width="487.4375" x="116.5669" y="86.9121"/><line style="stroke:#181818;stroke-width:0.5;stroke-dasharray:5.0,5.0;" x1="197.5669" x2="197.5669" y1="38.6211" y2="711.1504"/><line style="stroke:#181818;stroke-width:0.5;stroke-dasharray:5.0,5.0;" x1="406.9985" x2="406.9985" y1="38.6211" y2="711.1504"/><line style="stroke:#181818;stroke-width:0.5;stroke-dasharray:5.0,5.0;" x1="505.1841" x2="505.1841" y1="38.6211" y2="711.1504"/><line style="stroke:#181818;stroke-width:0.5;stroke-dasharray:5.0,5.0;" x1="564.4185" x2="564.4185" y1="38.6211" y2="711.1504"/><rect fill="#E3E3E3" height="32.6211" rx="2.5" ry="2.5" style="stroke:#181818;stroke-width:0.5;" width="143.9512" x="126.5669" y="5"/><text fill="#000000" font-family="sans-serif" font-size="14" lengthAdjust="spacing" textLength="129.9512" x="133.5669" y="27.1074">:ListStationController</text><rect fill="#E3E3E3" height="32.6211" rx="2.5" ry="2.5" style="stroke:#181818;stroke-width:0.5;" width="143.9512" x="126.5669" y="710.1504"/><text fill="#000000" font-family="sans-serif" font-size="14" lengthAdjust="spacing" textLength="129.9512" x="133.5669" y="732.2578">:ListStationController</text><rect fill="#E3E3E3" height="32.6211" rx="2.5" ry="2.5" style="stroke:#181818;stroke-width:0.5;" width="136.1855" x="338.9985" y="5"/><text fill="#000000" font-family="sans-serif" font-size="14" lengthAdjust="spacing" textLength="122.1855" x="345.9985" y="27.1074">:ApplicationSession</text><rect fill="#E3E3E3" height="32.6211" rx="2.5" ry="2.5" style="stroke:#181818;stroke-width:0.5;" width="136.1855" x="338.9985" y="710.1504"/><text fill="#000000" font-family="sans-serif" font-size="14" lengthAdjust="spacing" textLength="122.1855" x="345.9985" y="732.2578">:ApplicationSession</text><rect fill="#E3E3E3" height="32.6211" rx="2.5" ry="2.5" style="stroke:#181818;stroke-width:0.5;" width="41.2344" x="485.1841" y="5"/><text fill="#000000" font-family="sans-serif" font-size="14" lengthAdjust="spacing" textLength="27.2344" x="492.1841" y="27.1074">Map</text><rect fill="#E3E3E3" height="32.6211" rx="2.5" ry="2.5" style="stroke:#181818;stroke-width:0.5;" width="41.2344" x="485.1841" y="710.1504"/><text fill="#000000" font-family="sans-serif" font-size="14" lengthAdjust="spacing" textLength="27.2344" x="492.1841" y="732.2578">Map</text><rect fill="#E3E3E3" height="32.6211" rx="2.5" ry="2.5" style="stroke:#181818;stroke-width:0.5;" width="57.5859" x="536.4185" y="5"/><text fill="#000000" font-family="sans-serif" font-size="14" lengthAdjust="spacing" textLength="43.5859" x="543.4185" y="27.1074">Station</text><rect fill="#E3E3E3" height="32.6211" rx="2.5" ry="2.5" style="stroke:#181818;stroke-width:0.5;" width="57.5859" x="536.4185" y="710.1504"/><text fill="#000000" font-family="sans-serif" font-size="14" lengthAdjust="spacing" textLength="43.5859" x="543.4185" y="732.2578">Station</text><rect fill="#FFFFFF" height="644.5293" style="stroke:#181818;stroke-width:1.0;" width="10" x="193.5425" y="48.6211"/><rect fill="#FFFFFF" height="28" style="stroke:#181818;stroke-width:1.0;" width="10" x="198.5425" y="325.2402"/><rect fill="#FFFFFF" height="31.291" style="stroke:#181818;stroke-width:1.0;" width="10" x="402.0913" y="129.4941"/><rect fill="#FFFFFF" height="31.291" style="stroke:#181818;stroke-width:1.0;" width="10" x="402.0913" y="192.0762"/><rect fill="#FFFFFF" height="31.291" style="stroke:#181818;stroke-width:1.0;" width="10" x="500.8013" y="254.6582"/><rect fill="#FFFFFF" height="31.291" style="stroke:#181818;stroke-width:1.0;" width="10" x="560.2114" y="391.5313"/><rect fill="#FFFFFF" height="31.291" style="stroke:#181818;stroke-width:1.0;" width="10" x="560.2114" y="454.1133"/><rect fill="#FFFFFF" height="31.291" style="stroke:#181818;stroke-width:1.0;" width="10" x="560.2114" y="516.6953"/><rect fill="#FFFFFF" height="31.291" style="stroke:#181818;stroke-width:1.0;" width="10" x="560.2114" y="579.2773"/><polygon fill="#181818" points="181.5425,67.9121,191.5425,71.9121,181.5425,75.9121,185.5425,71.9121" style="stroke:#181818;stroke-width:1.0;"/><line style="stroke:#181818;stroke-width:1.0;stroke-dasharray:2.0,2.0;" x1="0" x2="187.5425" y1="71.9121" y2="71.9121"/><text fill="#000000" font-family="sans-serif" font-size="13" font-weight="bold" lengthAdjust="spacing" textLength="14.46" x="7" y="66.6494">16</text><text fill="#000000" font-family="sans-serif" font-size="13" lengthAdjust="spacing" textLength="156.0825" x="25.46" y="66.6494">getStationDetails(stationId)</text><path d="M116.5669,86.9121 L274.2568,86.9121 L274.2568,96.2031 L264.2568,106.2031 L116.5669,106.2031 L116.5669,86.9121 " fill="#EEEEEE" style="stroke:#000000;stroke-width:1.5;"/><rect fill="none" height="575.9473" style="stroke:#000000;stroke-width:1.5;" width="487.4375" x="116.5669" y="86.9121"/><text fill="#000000" font-family="sans-serif" font-size="13" font-weight="bold" lengthAdjust="spacing" textLength="112.6899" x="131.5669" y="101.9404">Get station details</text><polygon fill="#181818" points="390.0913,125.4941,400.0913,129.4941,390.0913,133.4941,394.0913,129.4941" style="stroke:#181818;stroke-width:1.0;"/><line style="stroke:#181818;stroke-width:1.0;" x1="203.5425" x2="396.0913" y1="129.4941" y2="129.4941"/><text fill="#000000" font-family="sans-serif" font-size="13" font-weight="bold" lengthAdjust="spacing" textLength="25.3018" x="210.5425" y="124.2314">16.1</text><text fill="#000000" font-family="sans-serif" font-size="13" lengthAdjust="spacing" textLength="75.8735" x="239.8442" y="124.2314">getInstance()</text><polygon fill="#181818" points="214.5425,156.7852,204.5425,160.7852,214.5425,164.7852,210.5425,160.7852" style="stroke:#181818;stroke-width:1.0;"/><line style="stroke:#181818;stroke-width:1.0;stroke-dasharray:2.0,2.0;" x1="208.5425" x2="406.0913" y1="160.7852" y2="160.7852"/><text fill="#000000" font-family="sans-serif" font-size="13" font-weight="bold" lengthAdjust="spacing" textLength="25.3018" x="220.5425" y="155.5225">16.2</text><text fill="#000000" font-family="sans-serif" font-size="13" lengthAdjust="spacing" textLength="93.2217" x="249.8442" y="155.5225">sessionInstance</text><polygon fill="#181818" points="390.0913,188.0762,400.0913,192.0762,390.0913,196.0762,394.0913,192.0762" style="stroke:#181818;stroke-width:1.0;"/><line style="stroke:#181818;stroke-width:1.0;" x1="203.5425" x2="396.0913" y1="192.0762" y2="192.0762"/><text fill="#000000" font-family="sans-serif" font-size="13" font-weight="bold" lengthAdjust="spacing" textLength="25.3018" x="210.5425" y="186.8135">16.3</text><text fill="#000000" font-family="sans-serif" font-size="13" lengthAdjust="spacing" textLength="95.3672" x="239.8442" y="186.8135">getCurrentMap()</text><polygon fill="#181818" points="214.5425,219.3672,204.5425,223.3672,214.5425,227.3672,210.5425,223.3672" style="stroke:#181818;stroke-width:1.0;"/><line style="stroke:#181818;stroke-width:1.0;stroke-dasharray:2.0,2.0;" x1="208.5425" x2="406.0913" y1="223.3672" y2="223.3672"/><text fill="#000000" font-family="sans-serif" font-size="13" font-weight="bold" lengthAdjust="spacing" textLength="25.3018" x="220.5425" y="218.1045">16.4</text><text fill="#000000" font-family="sans-serif" font-size="13" lengthAdjust="spacing" textLength="65.749" x="249.8442" y="218.1045">currentMap</text><polygon fill="#181818" points="488.8013,250.6582,498.8013,254.6582,488.8013,258.6582,492.8013,254.6582" style="stroke:#181818;stroke-width:1.0;"/><line style="stroke:#181818;stroke-width:1.0;" x1="203.5425" x2="494.8013" y1="254.6582" y2="254.6582"/><text fill="#000000" font-family="sans-serif" font-size="13" font-weight="bold" lengthAdjust="spacing" textLength="25.3018" x="210.5425" y="249.3955">16.5</text><text fill="#000000" font-family="sans-serif" font-size="13" lengthAdjust="spacing" textLength="59.2363" x="239.8442" y="249.3955">getCities()</text><polygon fill="#181818" points="214.5425,281.9492,204.5425,285.9492,214.5425,289.9492,210.5425,285.9492" style="stroke:#181818;stroke-width:1.0;"/><line style="stroke:#181818;stroke-width:1.0;stroke-dasharray:2.0,2.0;" x1="208.5425" x2="504.8013" y1="285.9492" y2="285.9492"/><text fill="#000000" font-family="sans-serif" font-size="13" font-weight="bold" lengthAdjust="spacing" textLength="25.3018" x="220.5425" y="280.6865">16.6</text><text fill="#000000" font-family="sans-serif" font-size="13" lengthAdjust="spacing" textLength="49.8481" x="249.8442" y="280.6865">citiesList</text><line style="stroke:#181818;stroke-width:1.0;" x1="208.5425" x2="250.5425" y1="317.2402" y2="317.2402"/><line style="stroke:#181818;stroke-width:1.0;" x1="250.5425" x2="250.5425" y1="317.2402" y2="330.2402"/><line style="stroke:#181818;stroke-width:1.0;" x1="209.5425" x2="250.5425" y1="330.2402" y2="330.2402"/><polygon fill="#181818" points="219.5425,326.2402,209.5425,330.2402,219.5425,334.2402,215.5425,330.2402" style="stroke:#181818;stroke-width:1.0;"/><text fill="#000000" font-family="sans-serif" font-size="13" font-weight="bold" lengthAdjust="spacing" textLength="25.3018" x="215.5425" y="311.9775">16.7</text><text fill="#000000" font-family="sans-serif" font-size="13" lengthAdjust="spacing" textLength="145.2471" x="244.8442" y="311.9775">findStationById(stationId)</text><polygon fill="#181818" points="548.2114,387.5313,558.2114,391.5313,548.2114,395.5313,552.2114,391.5313" style="stroke:#181818;stroke-width:1.0;"/><line style="stroke:#181818;stroke-width:1.0;" x1="203.5425" x2="554.2114" y1="391.5313" y2="391.5313"/><text fill="#000000" font-family="sans-serif" font-size="13" font-weight="bold" lengthAdjust="spacing" textLength="25.3018" x="210.5425" y="386.2686">16.8</text><text fill="#000000" font-family="sans-serif" font-size="13" lengthAdjust="spacing" textLength="66.4663" x="239.8442" y="386.2686">getDetails()</text><polygon fill="#181818" points="214.5425,418.8223,204.5425,422.8223,214.5425,426.8223,210.5425,422.8223" style="stroke:#181818;stroke-width:1.0;"/><line style="stroke:#181818;stroke-width:1.0;stroke-dasharray:2.0,2.0;" x1="208.5425" x2="564.2114" y1="422.8223" y2="422.8223"/><text fill="#000000" font-family="sans-serif" font-size="13" font-weight="bold" lengthAdjust="spacing" textLength="25.3018" x="220.5425" y="417.5596">16.9</text><text fill="#000000" font-family="sans-serif" font-size="13" lengthAdjust="spacing" textLength="91.7744" x="249.8442" y="417.5596">stationBasicInfo</text><polygon fill="#181818" points="548.2114,450.1133,558.2114,454.1133,548.2114,458.1133,552.2114,454.1133" style="stroke:#181818;stroke-width:1.0;"/><line style="stroke:#181818;stroke-width:1.0;" x1="203.5425" x2="554.2114" y1="454.1133" y2="454.1133"/><text fill="#000000" font-family="sans-serif" font-size="13" font-weight="bold" lengthAdjust="spacing" textLength="32.5317" x="210.5425" y="448.8506">16.10</text><text fill="#000000" font-family="sans-serif" font-size="13" lengthAdjust="spacing" textLength="79.4854" x="247.0742" y="448.8506">getBuildings()</text><polygon fill="#181818" points="214.5425,481.4043,204.5425,485.4043,214.5425,489.4043,210.5425,485.4043" style="stroke:#181818;stroke-width:1.0;"/><line style="stroke:#181818;stroke-width:1.0;stroke-dasharray:2.0,2.0;" x1="208.5425" x2="564.2114" y1="485.4043" y2="485.4043"/><text fill="#000000" font-family="sans-serif" font-size="13" font-weight="bold" lengthAdjust="spacing" textLength="32.5317" x="220.5425" y="480.1416">16.11</text><text fill="#000000" font-family="sans-serif" font-size="13" lengthAdjust="spacing" textLength="71.5444" x="257.0742" y="480.1416">buildingsList</text><polygon fill="#181818" points="548.2114,512.6953,558.2114,516.6953,548.2114,520.6953,552.2114,516.6953" style="stroke:#181818;stroke-width:1.0;"/><line style="stroke:#181818;stroke-width:1.0;" x1="203.5425" x2="554.2114" y1="516.6953" y2="516.6953"/><text fill="#000000" font-family="sans-serif" font-size="13" font-weight="bold" lengthAdjust="spacing" textLength="32.5317" x="210.5425" y="511.4326">16.12</text><text fill="#000000" font-family="sans-serif" font-size="13" lengthAdjust="spacing" textLength="125.7344" x="247.0742" y="511.4326">getDemandedCargo()</text><polygon fill="#181818" points="214.5425,543.9863,204.5425,547.9863,214.5425,551.9863,210.5425,547.9863" style="stroke:#181818;stroke-width:1.0;"/><line style="stroke:#181818;stroke-width:1.0;stroke-dasharray:2.0,2.0;" x1="208.5425" x2="564.2114" y1="547.9863" y2="547.9863"/><text fill="#000000" font-family="sans-serif" font-size="13" font-weight="bold" lengthAdjust="spacing" textLength="32.5317" x="220.5425" y="542.7236">16.13</text><text fill="#000000" font-family="sans-serif" font-size="13" lengthAdjust="spacing" textLength="117.0762" x="257.0742" y="542.7236">demandedCargoList</text><polygon fill="#181818" points="548.2114,575.2773,558.2114,579.2773,548.2114,583.2773,552.2114,579.2773" style="stroke:#181818;stroke-width:1.0;"/><line style="stroke:#181818;stroke-width:1.0;" x1="203.5425" x2="554.2114" y1="579.2773" y2="579.2773"/><text fill="#000000" font-family="sans-serif" font-size="13" font-weight="bold" lengthAdjust="spacing" textLength="32.5317" x="210.5425" y="574.0146">16.14</text><text fill="#000000" font-family="sans-serif" font-size="13" lengthAdjust="spacing" textLength="101.8862" x="247.0742" y="574.0146">getSupplyCargo()</text><polygon fill="#181818" points="214.5425,606.5684,204.5425,610.5684,214.5425,614.5684,210.5425,610.5684" style="stroke:#181818;stroke-width:1.0;"/><line style="stroke:#181818;stroke-width:1.0;stroke-dasharray:2.0,2.0;" x1="208.5425" x2="564.2114" y1="610.5684" y2="610.5684"/><text fill="#000000" font-family="sans-serif" font-size="13" font-weight="bold" lengthAdjust="spacing" textLength="32.5317" x="220.5425" y="605.3057">16.15</text><text fill="#000000" font-family="sans-serif" font-size="13" lengthAdjust="spacing" textLength="93.2153" x="257.0742" y="605.3057">supplyCargoList</text><line style="stroke:#181818;stroke-width:1.0;" x1="203.5425" x2="245.5425" y1="641.8594" y2="641.8594"/><line style="stroke:#181818;stroke-width:1.0;" x1="245.5425" x2="245.5425" y1="641.8594" y2="654.8594"/><line style="stroke:#181818;stroke-width:1.0;" x1="204.5425" x2="245.5425" y1="654.8594" y2="654.8594"/><polygon fill="#181818" points="214.5425,650.8594,204.5425,654.8594,214.5425,658.8594,210.5425,654.8594" style="stroke:#181818;stroke-width:1.0;"/><text fill="#000000" font-family="sans-serif" font-size="13" font-weight="bold" lengthAdjust="spacing" textLength="32.5317" x="210.5425" y="636.5967">16.16</text><text fill="#000000" font-family="sans-serif" font-size="13" lengthAdjust="spacing" textLength="133.6626" x="247.0742" y="636.5967">compileStationDetails()</text><polygon fill="#181818" points="11,689.1504,1,693.1504,11,697.1504,7,693.1504" style="stroke:#181818;stroke-width:1.0;"/><line style="stroke:#181818;stroke-width:1.0;stroke-dasharray:2.0,2.0;" x1="5" x2="197.5425" y1="693.1504" y2="693.1504"/><text fill="#000000" font-family="sans-serif" font-size="13" font-weight="bold" lengthAdjust="spacing" textLength="14.46" x="17" y="687.8877">17</text><text fill="#000000" font-family="sans-serif" font-size="13" lengthAdjust="spacing" textLength="78.0381" x="35.46" y="687.8877">stationDetails</text><!--SRC=[hPJFRi8m3CRlUGgB4noOn6MJq3HfW3HLsauyWKbCYKYJAaatyVOBzCyQQBiDwAMgOt_VpwaJjvSwHuiPP4ORlhCc8_2s8EQQbHpv7bDQ-uCYiCGzwbIr4zmEXVcIEeKjAaSC2szqaMt8CXOolEGoH-rXD7-NpgyzUcdqqcXlZL9aHu0EEbVEgb_pN4b-obcJS-5rAhqCHtKVc4VVbGjZoBtyH4yztgqsOFR8fjENxiGvf5H7L-HHAZTsvMSY9YorfiZXZJnKGH1b4eFmH1uFin3hz81WVjacdAmJ7OGrf_4aL3SzTMmAT4dqjXN4NPbJ6mG1GKC6rz0l2sj9-_2Jxi_F6-sRq4DznIgz91TpbkB7b46IK-LnDIOvLWzPz-bjfHPLV758H7lUMcpTSnq1z8p-058LB7UadlV8jZvWqEGE3bdL1Zh94xqrCLzpMFzAj2Ya4k4gkebfKujS_h5_0wqeGor8BD6cvXOeqHQw0zYw2CVWS3EM-v6v3ghtp9WibuhERjO98otYk_c9iUVfjEzoTb4zOxyE_pS0]--></g></svg>