<svg xmlns="http://www.w3.org/2000/svg" xmlns:xlink="http://www.w3.org/1999/xlink" contentStyleType="text/css" height="1775px" preserveAspectRatio="none" style="width:1205px;height:1775px;background:#FFFFFF;" version="1.1" viewBox="0 0 1205 1775" width="1205px" zoomAndPan="magnify"><title>Sequence Diagram: US06 - Upgrade a selected station with a building</title><defs/><g><text fill="#000000" font-family="sans-serif" font-size="14" font-weight="bold" lengthAdjust="spacing" textLength="462.1025" x="369.1633" y="30.1074">Sequence Diagram: US06 - Upgrade a selected station with a building</text><rect fill="#FFFFFF" height="1541.4824" style="stroke:#181818;stroke-width:1.0;" width="10" x="22.8413" y="133.2422"/><rect fill="#FFFFFF" height="185.7461" style="stroke:#181818;stroke-width:1.0;" width="10" x="277.6455" y="156.5332"/><rect fill="#FFFFFF" height="142.125" style="stroke:#181818;stroke-width:1.0;" width="10" x="277.6455" y="373.5703"/><rect fill="#FFFFFF" height="79.543" style="stroke:#181818;stroke-width:1.0;" width="10" x="429.1499" y="231.4453"/><rect fill="#FFFFFF" height="79.543" style="stroke:#181818;stroke-width:1.0;" width="10" x="429.1499" y="404.8613"/><rect fill="#FFFFFF" height="185.7461" style="stroke:#181818;stroke-width:1.0;" width="10" x="540.6875" y="546.9863"/><rect fill="#FFFFFF" height="142.125" style="stroke:#181818;stroke-width:1.0;" width="10" x="540.6875" y="764.0234"/><rect fill="#FFFFFF" height="79.543" style="stroke:#181818;stroke-width:1.0;" width="10" x="744.23" y="621.8984"/><rect fill="#FFFFFF" height="79.543" style="stroke:#181818;stroke-width:1.0;" width="10" x="744.23" y="795.3145"/><rect fill="#FFFFFF" height="185.7461" style="stroke:#181818;stroke-width:1.0;" width="10" x="890.7949" y="937.4395"/><rect fill="#FFFFFF" height="173.416" style="stroke:#181818;stroke-width:1.0;" width="10" x="890.7949" y="1154.4766"/><rect fill="#FFFFFF" height="315.541" style="stroke:#181818;stroke-width:1.0;" width="10" x="890.7949" y="1359.1836"/><rect fill="#FFFFFF" height="79.543" style="stroke:#181818;stroke-width:1.0;" width="10" x="1088.5801" y="1012.3516"/><rect fill="#FFFFFF" height="79.543" style="stroke:#181818;stroke-width:1.0;" width="10" x="1088.5801" y="1185.7676"/><rect fill="#FFFFFF" height="79.543" style="stroke:#181818;stroke-width:1.0;" width="10" x="1088.5801" y="1390.4746"/><rect fill="#FFFFFF" height="110.834" style="stroke:#181818;stroke-width:1.0;" width="10" x="1088.5801" y="1532.5996"/><line style="stroke:#181818;stroke-width:0.5;stroke-dasharray:5.0,5.0;" x1="27" x2="27" y1="123.2422" y2="1692.7246"/><line style="stroke:#181818;stroke-width:0.5;stroke-dasharray:5.0,5.0;" x1="282.0835" x2="282.0835" y1="123.2422" y2="1692.7246"/><line style="stroke:#181818;stroke-width:0.5;stroke-dasharray:5.0,5.0;" x1="433.2432" x2="433.2432" y1="196.3438" y2="1692.7246"/><line style="stroke:#181818;stroke-width:0.5;stroke-dasharray:5.0,5.0;" x1="545.0566" x2="545.0566" y1="123.2422" y2="1692.7246"/><line style="stroke:#181818;stroke-width:0.5;stroke-dasharray:5.0,5.0;" x1="748.2544" x2="748.2544" y1="586.7969" y2="1692.7246"/><line style="stroke:#181818;stroke-width:0.5;stroke-dasharray:5.0,5.0;" x1="895.2056" x2="895.2056" y1="123.2422" y2="1692.7246"/><line style="stroke:#181818;stroke-width:0.5;stroke-dasharray:5.0,5.0;" x1="1092.646" x2="1092.646" y1="977.25" y2="1692.7246"/><text fill="#000000" font-family="sans-serif" font-size="14" lengthAdjust="spacing" textLength="39.6826" x="5" y="119.7285">Player</text><ellipse cx="27.8413" cy="53.1211" fill="#E3E3E3" rx="8" ry="8" style="stroke:#181818;stroke-width:0.5;"/><path d="M27.8413,61.1211 L27.8413,88.1211 M14.8413,69.1211 L40.8413,69.1211 M27.8413,88.1211 L14.8413,103.1211 M27.8413,88.1211 L40.8413,103.1211 " fill="none" style="stroke:#181818;stroke-width:0.5;"/><text fill="#000000" font-family="sans-serif" font-size="14" lengthAdjust="spacing" textLength="39.6826" x="5" y="1706.832">Player</text><ellipse cx="27.8413" cy="1718.8457" fill="#E3E3E3" rx="8" ry="8" style="stroke:#181818;stroke-width:0.5;"/><path d="M27.8413,1726.8457 L27.8413,1753.8457 M14.8413,1734.8457 L40.8413,1734.8457 M27.8413,1753.8457 L14.8413,1768.8457 M27.8413,1753.8457 L40.8413,1768.8457 " fill="none" style="stroke:#181818;stroke-width:0.5;"/><rect fill="#E3E3E3" height="32.6211" rx="2.5" ry="2.5" style="stroke:#181818;stroke-width:0.5;" width="59.124" x="253.0835" y="89.6211"/><text fill="#000000" font-family="sans-serif" font-size="14" lengthAdjust="spacing" textLength="45.124" x="260.0835" y="111.7285">:MapUI</text><rect fill="#E3E3E3" height="32.6211" rx="2.5" ry="2.5" style="stroke:#181818;stroke-width:0.5;" width="59.124" x="253.0835" y="1691.7246"/><text fill="#000000" font-family="sans-serif" font-size="14" lengthAdjust="spacing" textLength="45.124" x="260.0835" y="1713.832">:MapUI</text><rect fill="#E3E3E3" height="32.6211" rx="2.5" ry="2.5" style="stroke:#181818;stroke-width:0.5;" width="105.8135" x="381.2432" y="1691.7246"/><text fill="#000000" font-family="sans-serif" font-size="14" lengthAdjust="spacing" textLength="91.8135" x="388.2432" y="1713.832">:MapController</text><rect fill="#E3E3E3" height="32.6211" rx="2.5" ry="2.5" style="stroke:#181818;stroke-width:0.5;" width="97.2617" x="497.0566" y="89.6211"/><text fill="#000000" font-family="sans-serif" font-size="14" lengthAdjust="spacing" textLength="83.2617" x="504.0566" y="111.7285">:ListStationUI</text><rect fill="#E3E3E3" height="32.6211" rx="2.5" ry="2.5" style="stroke:#181818;stroke-width:0.5;" width="97.2617" x="497.0566" y="1691.7246"/><text fill="#000000" font-family="sans-serif" font-size="14" lengthAdjust="spacing" textLength="83.2617" x="504.0566" y="1713.832">:ListStationUI</text><rect fill="#E3E3E3" height="32.6211" rx="2.5" ry="2.5" style="stroke:#181818;stroke-width:0.5;" width="143.9512" x="677.2544" y="1691.7246"/><text fill="#000000" font-family="sans-serif" font-size="14" lengthAdjust="spacing" textLength="129.9512" x="684.2544" y="1713.832">:ListStationController</text><rect fill="#E3E3E3" height="32.6211" rx="2.5" ry="2.5" style="stroke:#181818;stroke-width:0.5;" width="129.1787" x="831.2056" y="89.6211"/><text fill="#000000" font-family="sans-serif" font-size="14" lengthAdjust="spacing" textLength="115.1787" x="838.2056" y="111.7285">:UpgradeStationUI</text><rect fill="#E3E3E3" height="32.6211" rx="2.5" ry="2.5" style="stroke:#181818;stroke-width:0.5;" width="129.1787" x="831.2056" y="1691.7246"/><text fill="#000000" font-family="sans-serif" font-size="14" lengthAdjust="spacing" textLength="115.1787" x="838.2056" y="1713.832">:UpgradeStationUI</text><rect fill="#E3E3E3" height="32.6211" rx="2.5" ry="2.5" style="stroke:#181818;stroke-width:0.5;" width="175.8682" x="1005.646" y="1691.7246"/><text fill="#000000" font-family="sans-serif" font-size="14" lengthAdjust="spacing" textLength="161.8682" x="1012.646" y="1713.832">:UpgradeStationController</text><rect fill="#FFFFFF" height="1541.4824" style="stroke:#181818;stroke-width:1.0;" width="10" x="22.8413" y="133.2422"/><rect fill="#FFFFFF" height="185.7461" style="stroke:#181818;stroke-width:1.0;" width="10" x="277.6455" y="156.5332"/><rect fill="#FFFFFF" height="142.125" style="stroke:#181818;stroke-width:1.0;" width="10" x="277.6455" y="373.5703"/><rect fill="#FFFFFF" height="79.543" style="stroke:#181818;stroke-width:1.0;" width="10" x="429.1499" y="231.4453"/><rect fill="#FFFFFF" height="79.543" style="stroke:#181818;stroke-width:1.0;" width="10" x="429.1499" y="404.8613"/><rect fill="#FFFFFF" height="185.7461" style="stroke:#181818;stroke-width:1.0;" width="10" x="540.6875" y="546.9863"/><rect fill="#FFFFFF" height="142.125" style="stroke:#181818;stroke-width:1.0;" width="10" x="540.6875" y="764.0234"/><rect fill="#FFFFFF" height="79.543" style="stroke:#181818;stroke-width:1.0;" width="10" x="744.23" y="621.8984"/><rect fill="#FFFFFF" height="79.543" style="stroke:#181818;stroke-width:1.0;" width="10" x="744.23" y="795.3145"/><rect fill="#FFFFFF" height="185.7461" style="stroke:#181818;stroke-width:1.0;" width="10" x="890.7949" y="937.4395"/><rect fill="#FFFFFF" height="173.416" style="stroke:#181818;stroke-width:1.0;" width="10" x="890.7949" y="1154.4766"/><rect fill="#FFFFFF" height="315.541" style="stroke:#181818;stroke-width:1.0;" width="10" x="890.7949" y="1359.1836"/><rect fill="#FFFFFF" height="79.543" style="stroke:#181818;stroke-width:1.0;" width="10" x="1088.5801" y="1012.3516"/><rect fill="#FFFFFF" height="79.543" style="stroke:#181818;stroke-width:1.0;" width="10" x="1088.5801" y="1185.7676"/><rect fill="#FFFFFF" height="79.543" style="stroke:#181818;stroke-width:1.0;" width="10" x="1088.5801" y="1390.4746"/><rect fill="#FFFFFF" height="110.834" style="stroke:#181818;stroke-width:1.0;" width="10" x="1088.5801" y="1532.5996"/><polygon fill="#181818" points="265.6455,152.5332,275.6455,156.5332,265.6455,160.5332,269.6455,156.5332" style="stroke:#181818;stroke-width:1.0;"/><line style="stroke:#181818;stroke-width:1.0;" x1="32.8413" x2="271.6455" y1="156.5332" y2="156.5332"/><text fill="#000000" font-family="sans-serif" font-size="13" font-weight="bold" lengthAdjust="spacing" textLength="7.23" x="39.8413" y="151.2705">1</text><text fill="#000000" font-family="sans-serif" font-size="13" lengthAdjust="spacing" textLength="156.0825" x="51.0713" y="151.2705">asks to see available maps</text><polygon fill="#181818" points="369.2432,183.8242,379.2432,187.8242,369.2432,191.8242,373.2432,187.8242" style="stroke:#181818;stroke-width:1.0;"/><line style="stroke:#181818;stroke-width:1.0;" x1="287.6455" x2="375.2432" y1="187.8242" y2="187.8242"/><text fill="#000000" font-family="sans-serif" font-size="13" font-weight="bold" lengthAdjust="spacing" textLength="7.23" x="294.6455" y="182.5615">2</text><text fill="#000000" font-family="sans-serif" font-size="13" lengthAdjust="spacing" textLength="44.7891" x="305.8755" y="182.5615">create()</text><rect fill="#E3E3E3" height="32.6211" rx="2.5" ry="2.5" style="stroke:#181818;stroke-width:0.5;" width="105.8135" x="381.2432" y="164.5332"/><text fill="#000000" font-family="sans-serif" font-size="14" lengthAdjust="spacing" textLength="91.8135" x="388.2432" y="186.6406">:MapController</text><polygon fill="#181818" points="417.1499,227.4453,427.1499,231.4453,417.1499,235.4453,421.1499,231.4453" style="stroke:#181818;stroke-width:1.0;"/><line style="stroke:#181818;stroke-width:1.0;" x1="287.6455" x2="423.1499" y1="231.4453" y2="231.4453"/><text fill="#000000" font-family="sans-serif" font-size="13" font-weight="bold" lengthAdjust="spacing" textLength="7.23" x="294.6455" y="226.1826">3</text><text fill="#000000" font-family="sans-serif" font-size="13" lengthAdjust="spacing" textLength="111.2744" x="305.8755" y="226.1826">getAvailableMaps()</text><rect fill="none" height="43.252" style="stroke:#000000;stroke-width:1.5;" width="111.8135" x="378.2432" y="239.4453"/><path d="M378.2432,239.4453 L439.2432,239.4453 L439.2432,248.4453 L429.2432,258.4453 L378.2432,258.4453 L378.2432,239.4453 " fill="#EEEEEE" style="stroke:#000000;stroke-width:2.0;"/><text fill="#000000" font-family="sans-serif" font-size="13" font-weight="bold" lengthAdjust="spacing" textLength="16.6182" x="391.2432" y="255.4736">ref</text><text fill="#000000" font-family="sans-serif" font-size="12" lengthAdjust="spacing" textLength="102.7207" x="382.7896" y="275.3945">Get available maps</text><polygon fill="#181818" points="298.6455,306.9883,288.6455,310.9883,298.6455,314.9883,294.6455,310.9883" style="stroke:#181818;stroke-width:1.0;"/><line style="stroke:#181818;stroke-width:1.0;stroke-dasharray:2.0,2.0;" x1="292.6455" x2="433.1499" y1="310.9883" y2="310.9883"/><text fill="#000000" font-family="sans-serif" font-size="13" font-weight="bold" lengthAdjust="spacing" textLength="7.23" x="304.6455" y="305.7256">4</text><text fill="#000000" font-family="sans-serif" font-size="13" lengthAdjust="spacing" textLength="103.3335" x="315.8755" y="305.7256">availableMapsList</text><polygon fill="#181818" points="43.8413,338.2793,33.8413,342.2793,43.8413,346.2793,39.8413,342.2793" style="stroke:#181818;stroke-width:1.0;"/><line style="stroke:#181818;stroke-width:1.0;stroke-dasharray:2.0,2.0;" x1="37.8413" x2="281.6455" y1="342.2793" y2="342.2793"/><text fill="#000000" font-family="sans-serif" font-size="13" font-weight="bold" lengthAdjust="spacing" textLength="7.23" x="49.8413" y="337.0166">5</text><text fill="#000000" font-family="sans-serif" font-size="13" lengthAdjust="spacing" textLength="203.0425" x="61.0713" y="337.0166">shows list of available maps to play</text><polygon fill="#181818" points="265.6455,369.5703,275.6455,373.5703,265.6455,377.5703,269.6455,373.5703" style="stroke:#181818;stroke-width:1.0;"/><line style="stroke:#181818;stroke-width:1.0;" x1="32.8413" x2="271.6455" y1="373.5703" y2="373.5703"/><text fill="#000000" font-family="sans-serif" font-size="13" font-weight="bold" lengthAdjust="spacing" textLength="7.23" x="39.8413" y="368.3076">6</text><text fill="#000000" font-family="sans-serif" font-size="13" lengthAdjust="spacing" textLength="80.2026" x="51.0713" y="368.3076">selects a map</text><polygon fill="#181818" points="417.1499,400.8613,427.1499,404.8613,417.1499,408.8613,421.1499,404.8613" style="stroke:#181818;stroke-width:1.0;"/><line style="stroke:#181818;stroke-width:1.0;" x1="287.6455" x2="423.1499" y1="404.8613" y2="404.8613"/><text fill="#000000" font-family="sans-serif" font-size="13" font-weight="bold" lengthAdjust="spacing" textLength="7.23" x="294.6455" y="399.5986">7</text><text fill="#000000" font-family="sans-serif" font-size="13" lengthAdjust="spacing" textLength="94.6563" x="305.8755" y="399.5986">loadMap(mapId)</text><rect fill="none" height="43.252" style="stroke:#000000;stroke-width:1.5;" width="111.8135" x="378.2432" y="412.8613"/><path d="M378.2432,412.8613 L439.2432,412.8613 L439.2432,421.8613 L429.2432,431.8613 L378.2432,431.8613 L378.2432,412.8613 " fill="#EEEEEE" style="stroke:#000000;stroke-width:2.0;"/><text fill="#000000" font-family="sans-serif" font-size="13" font-weight="bold" lengthAdjust="spacing" textLength="16.6182" x="391.2432" y="428.8896">ref</text><text fill="#000000" font-family="sans-serif" font-size="12" lengthAdjust="spacing" textLength="53.373" x="407.4634" y="448.8105">Load map</text><polygon fill="#181818" points="298.6455,480.4043,288.6455,484.4043,298.6455,488.4043,294.6455,484.4043" style="stroke:#181818;stroke-width:1.0;"/><line style="stroke:#181818;stroke-width:1.0;stroke-dasharray:2.0,2.0;" x1="292.6455" x2="433.1499" y1="484.4043" y2="484.4043"/><text fill="#000000" font-family="sans-serif" font-size="13" font-weight="bold" lengthAdjust="spacing" textLength="7.23" x="304.6455" y="479.1416">8</text><text fill="#000000" font-family="sans-serif" font-size="13" lengthAdjust="spacing" textLength="64.3208" x="315.8755" y="479.1416">mapLayout</text><polygon fill="#181818" points="43.8413,511.6953,33.8413,515.6953,43.8413,519.6953,39.8413,515.6953" style="stroke:#181818;stroke-width:1.0;"/><line style="stroke:#181818;stroke-width:1.0;stroke-dasharray:2.0,2.0;" x1="37.8413" x2="281.6455" y1="515.6953" y2="515.6953"/><text fill="#000000" font-family="sans-serif" font-size="13" font-weight="bold" lengthAdjust="spacing" textLength="7.23" x="49.8413" y="510.4326">9</text><text fill="#000000" font-family="sans-serif" font-size="13" lengthAdjust="spacing" textLength="209.5742" x="61.0713" y="510.4326">loads and displays the selected map</text><polygon fill="#181818" points="528.6875,542.9863,538.6875,546.9863,528.6875,550.9863,532.6875,546.9863" style="stroke:#181818;stroke-width:1.0;"/><line style="stroke:#181818;stroke-width:1.0;" x1="32.8413" x2="534.6875" y1="546.9863" y2="546.9863"/><text fill="#000000" font-family="sans-serif" font-size="13" font-weight="bold" lengthAdjust="spacing" textLength="14.46" x="39.8413" y="541.7236">10</text><text fill="#000000" font-family="sans-serif" font-size="13" lengthAdjust="spacing" textLength="192.2261" x="58.3013" y="541.7236">requests to see available stations</text><polygon fill="#181818" points="665.2544,574.2773,675.2544,578.2773,665.2544,582.2773,669.2544,578.2773" style="stroke:#181818;stroke-width:1.0;"/><line style="stroke:#181818;stroke-width:1.0;" x1="550.6875" x2="671.2544" y1="578.2773" y2="578.2773"/><text fill="#000000" font-family="sans-serif" font-size="13" font-weight="bold" lengthAdjust="spacing" textLength="14.46" x="557.6875" y="573.0146">11</text><text fill="#000000" font-family="sans-serif" font-size="13" lengthAdjust="spacing" textLength="44.7891" x="576.1475" y="573.0146">create()</text><rect fill="#E3E3E3" height="32.6211" rx="2.5" ry="2.5" style="stroke:#181818;stroke-width:0.5;" width="143.9512" x="677.2544" y="554.9863"/><text fill="#000000" font-family="sans-serif" font-size="14" lengthAdjust="spacing" textLength="129.9512" x="684.2544" y="577.0938">:ListStationController</text><polygon fill="#181818" points="732.23,617.8984,742.23,621.8984,732.23,625.8984,736.23,621.8984" style="stroke:#181818;stroke-width:1.0;"/><line style="stroke:#181818;stroke-width:1.0;" x1="550.6875" x2="738.23" y1="621.8984" y2="621.8984"/><text fill="#000000" font-family="sans-serif" font-size="13" font-weight="bold" lengthAdjust="spacing" textLength="14.46" x="557.6875" y="616.6357">12</text><text fill="#000000" font-family="sans-serif" font-size="13" lengthAdjust="spacing" textLength="126.458" x="576.1475" y="616.6357">getAvailableStations()</text><rect fill="none" height="43.252" style="stroke:#000000;stroke-width:1.5;" width="149.9512" x="674.2544" y="629.8984"/><path d="M674.2544,629.8984 L735.2544,629.8984 L735.2544,638.8984 L725.2544,648.8984 L674.2544,648.8984 L674.2544,629.8984 " fill="#EEEEEE" style="stroke:#000000;stroke-width:2.0;"/><text fill="#000000" font-family="sans-serif" font-size="13" font-weight="bold" lengthAdjust="spacing" textLength="16.6182" x="687.2544" y="645.9268">ref</text><text fill="#000000" font-family="sans-serif" font-size="12" lengthAdjust="spacing" textLength="114.7324" x="691.8638" y="665.8477">Get available stations</text><polygon fill="#181818" points="561.6875,697.4414,551.6875,701.4414,561.6875,705.4414,557.6875,701.4414" style="stroke:#181818;stroke-width:1.0;"/><line style="stroke:#181818;stroke-width:1.0;stroke-dasharray:2.0,2.0;" x1="555.6875" x2="748.23" y1="701.4414" y2="701.4414"/><text fill="#000000" font-family="sans-serif" font-size="13" font-weight="bold" lengthAdjust="spacing" textLength="14.46" x="567.6875" y="696.1787">13</text><text fill="#000000" font-family="sans-serif" font-size="13" lengthAdjust="spacing" textLength="118.5171" x="586.1475" y="696.1787">availableStationsList</text><polygon fill="#181818" points="43.8413,728.7324,33.8413,732.7324,43.8413,736.7324,39.8413,732.7324" style="stroke:#181818;stroke-width:1.0;"/><line style="stroke:#181818;stroke-width:1.0;stroke-dasharray:2.0,2.0;" x1="37.8413" x2="544.6875" y1="732.7324" y2="732.7324"/><text fill="#000000" font-family="sans-serif" font-size="13" font-weight="bold" lengthAdjust="spacing" textLength="14.46" x="49.8413" y="727.4697">14</text><text fill="#000000" font-family="sans-serif" font-size="13" lengthAdjust="spacing" textLength="184.2598" x="68.3013" y="727.4697">displays list of available stations</text><polygon fill="#181818" points="528.6875,760.0234,538.6875,764.0234,528.6875,768.0234,532.6875,764.0234" style="stroke:#181818;stroke-width:1.0;"/><line style="stroke:#181818;stroke-width:1.0;" x1="32.8413" x2="534.6875" y1="764.0234" y2="764.0234"/><text fill="#000000" font-family="sans-serif" font-size="13" font-weight="bold" lengthAdjust="spacing" textLength="14.46" x="39.8413" y="758.7607">15</text><text fill="#000000" font-family="sans-serif" font-size="13" lengthAdjust="spacing" textLength="140.1753" x="58.3013" y="758.7607">selects a specific station</text><polygon fill="#181818" points="732.23,791.3145,742.23,795.3145,732.23,799.3145,736.23,795.3145" style="stroke:#181818;stroke-width:1.0;"/><line style="stroke:#181818;stroke-width:1.0;" x1="550.6875" x2="738.23" y1="795.3145" y2="795.3145"/><text fill="#000000" font-family="sans-serif" font-size="13" font-weight="bold" lengthAdjust="spacing" textLength="14.46" x="557.6875" y="790.0518">16</text><text fill="#000000" font-family="sans-serif" font-size="13" lengthAdjust="spacing" textLength="156.0825" x="576.1475" y="790.0518">getStationDetails(stationId)</text><rect fill="none" height="43.252" style="stroke:#000000;stroke-width:1.5;" width="149.9512" x="674.2544" y="803.3145"/><path d="M674.2544,803.3145 L735.2544,803.3145 L735.2544,812.3145 L725.2544,822.3145 L674.2544,822.3145 L674.2544,803.3145 " fill="#EEEEEE" style="stroke:#000000;stroke-width:2.0;"/><text fill="#000000" font-family="sans-serif" font-size="13" font-weight="bold" lengthAdjust="spacing" textLength="16.6182" x="687.2544" y="819.3428">ref</text><text fill="#000000" font-family="sans-serif" font-size="12" lengthAdjust="spacing" textLength="96.0527" x="701.2036" y="839.2637">Get station details</text><polygon fill="#181818" points="561.6875,870.8574,551.6875,874.8574,561.6875,878.8574,557.6875,874.8574" style="stroke:#181818;stroke-width:1.0;"/><line style="stroke:#181818;stroke-width:1.0;stroke-dasharray:2.0,2.0;" x1="555.6875" x2="748.23" y1="874.8574" y2="874.8574"/><text fill="#000000" font-family="sans-serif" font-size="13" font-weight="bold" lengthAdjust="spacing" textLength="14.46" x="567.6875" y="869.5947">17</text><text fill="#000000" font-family="sans-serif" font-size="13" lengthAdjust="spacing" textLength="78.0381" x="586.1475" y="869.5947">stationDetails</text><polygon fill="#181818" points="43.8413,902.1484,33.8413,906.1484,43.8413,910.1484,39.8413,906.1484" style="stroke:#181818;stroke-width:1.0;"/><line style="stroke:#181818;stroke-width:1.0;stroke-dasharray:2.0,2.0;" x1="37.8413" x2="544.6875" y1="906.1484" y2="906.1484"/><text fill="#000000" font-family="sans-serif" font-size="13" font-weight="bold" lengthAdjust="spacing" textLength="14.46" x="49.8413" y="900.8857">18</text><text fill="#000000" font-family="sans-serif" font-size="13" lengthAdjust="spacing" textLength="119.9517" x="68.3013" y="900.8857">shows station details</text><polygon fill="#181818" points="878.7949,933.4395,888.7949,937.4395,878.7949,941.4395,882.7949,937.4395" style="stroke:#181818;stroke-width:1.0;"/><line style="stroke:#181818;stroke-width:1.0;" x1="32.8413" x2="884.7949" y1="937.4395" y2="937.4395"/><text fill="#000000" font-family="sans-serif" font-size="13" font-weight="bold" lengthAdjust="spacing" textLength="14.46" x="39.8413" y="932.1768">19</text><text fill="#000000" font-family="sans-serif" font-size="13" lengthAdjust="spacing" textLength="134.418" x="58.3013" y="932.1768">asks to upgrade station</text><polygon fill="#181818" points="993.646,964.7305,1003.646,968.7305,993.646,972.7305,997.646,968.7305" style="stroke:#181818;stroke-width:1.0;"/><line style="stroke:#181818;stroke-width:1.0;" x1="900.7949" x2="999.646" y1="968.7305" y2="968.7305"/><text fill="#000000" font-family="sans-serif" font-size="13" font-weight="bold" lengthAdjust="spacing" textLength="14.46" x="907.7949" y="963.4678">20</text><text fill="#000000" font-family="sans-serif" font-size="13" lengthAdjust="spacing" textLength="44.7891" x="926.2549" y="963.4678">create()</text><rect fill="#E3E3E3" height="32.6211" rx="2.5" ry="2.5" style="stroke:#181818;stroke-width:0.5;" width="175.8682" x="1005.646" y="945.4395"/><text fill="#000000" font-family="sans-serif" font-size="14" lengthAdjust="spacing" textLength="161.8682" x="1012.646" y="967.5469">:UpgradeStationController</text><polygon fill="#181818" points="1076.5801,1008.3516,1086.5801,1012.3516,1076.5801,1016.3516,1080.5801,1012.3516" style="stroke:#181818;stroke-width:1.0;"/><line style="stroke:#181818;stroke-width:1.0;" x1="900.7949" x2="1082.5801" y1="1012.3516" y2="1012.3516"/><text fill="#000000" font-family="sans-serif" font-size="13" font-weight="bold" lengthAdjust="spacing" textLength="14.46" x="907.7949" y="1007.0889">21</text><text fill="#000000" font-family="sans-serif" font-size="13" lengthAdjust="spacing" textLength="135.8525" x="926.2549" y="1007.0889">getAvailableUpgrades()</text><rect fill="none" height="43.252" style="stroke:#000000;stroke-width:1.5;" width="181.8682" x="1002.646" y="1020.3516"/><path d="M1002.646,1020.3516 L1063.646,1020.3516 L1063.646,1029.3516 L1053.646,1039.3516 L1002.646,1039.3516 L1002.646,1020.3516 " fill="#EEEEEE" style="stroke:#000000;stroke-width:2.0;"/><text fill="#000000" font-family="sans-serif" font-size="13" font-weight="bold" lengthAdjust="spacing" textLength="16.6182" x="1015.646" y="1036.3799">ref</text><text fill="#000000" font-family="sans-serif" font-size="12" lengthAdjust="spacing" textLength="123.416" x="1031.8721" y="1056.3008">Get available upgrades</text><polygon fill="#181818" points="911.7949,1087.8945,901.7949,1091.8945,911.7949,1095.8945,907.7949,1091.8945" style="stroke:#181818;stroke-width:1.0;"/><line style="stroke:#181818;stroke-width:1.0;stroke-dasharray:2.0,2.0;" x1="905.7949" x2="1092.5801" y1="1091.8945" y2="1091.8945"/><text fill="#000000" font-family="sans-serif" font-size="13" font-weight="bold" lengthAdjust="spacing" textLength="14.46" x="917.7949" y="1086.6318">22</text><text fill="#000000" font-family="sans-serif" font-size="13" lengthAdjust="spacing" textLength="107.6816" x="936.2549" y="1086.6318">availableUpgrades</text><polygon fill="#181818" points="43.8413,1119.1855,33.8413,1123.1855,43.8413,1127.1855,39.8413,1123.1855" style="stroke:#181818;stroke-width:1.0;"/><line style="stroke:#181818;stroke-width:1.0;stroke-dasharray:2.0,2.0;" x1="37.8413" x2="894.7949" y1="1123.1855" y2="1123.1855"/><text fill="#000000" font-family="sans-serif" font-size="13" font-weight="bold" lengthAdjust="spacing" textLength="14.46" x="49.8413" y="1117.9229">23</text><text fill="#000000" font-family="sans-serif" font-size="13" lengthAdjust="spacing" textLength="260.876" x="68.3013" y="1117.9229">shows list of available buildings for upgrading</text><polygon fill="#181818" points="878.7949,1150.4766,888.7949,1154.4766,878.7949,1158.4766,882.7949,1154.4766" style="stroke:#181818;stroke-width:1.0;"/><line style="stroke:#181818;stroke-width:1.0;" x1="32.8413" x2="884.7949" y1="1154.4766" y2="1154.4766"/><text fill="#000000" font-family="sans-serif" font-size="13" font-weight="bold" lengthAdjust="spacing" textLength="14.46" x="39.8413" y="1149.2139">24</text><text fill="#000000" font-family="sans-serif" font-size="13" lengthAdjust="spacing" textLength="88.8862" x="58.3013" y="1149.2139">selects building</text><polygon fill="#181818" points="1076.5801,1181.7676,1086.5801,1185.7676,1076.5801,1189.7676,1080.5801,1185.7676" style="stroke:#181818;stroke-width:1.0;"/><line style="stroke:#181818;stroke-width:1.0;" x1="900.7949" x2="1082.5801" y1="1185.7676" y2="1185.7676"/><text fill="#000000" font-family="sans-serif" font-size="13" font-weight="bold" lengthAdjust="spacing" textLength="14.46" x="907.7949" y="1180.5049">25</text><text fill="#000000" font-family="sans-serif" font-size="13" lengthAdjust="spacing" textLength="150.3252" x="926.2549" y="1180.5049">getBuildingInfo(buildingId)</text><rect fill="none" height="43.252" style="stroke:#000000;stroke-width:1.5;" width="181.8682" x="1002.646" y="1193.7676"/><path d="M1002.646,1193.7676 L1063.646,1193.7676 L1063.646,1202.7676 L1053.646,1212.7676 L1002.646,1212.7676 L1002.646,1193.7676 " fill="#EEEEEE" style="stroke:#000000;stroke-width:2.0;"/><text fill="#000000" font-family="sans-serif" font-size="13" font-weight="bold" lengthAdjust="spacing" textLength="16.6182" x="1015.646" y="1209.7959">ref</text><text fill="#000000" font-family="sans-serif" font-size="12" lengthAdjust="spacing" textLength="146.7773" x="1020.1914" y="1229.7168">Choose building to upgrade</text><polygon fill="#181818" points="911.7949,1261.3105,901.7949,1265.3105,911.7949,1269.3105,907.7949,1265.3105" style="stroke:#181818;stroke-width:1.0;"/><line style="stroke:#181818;stroke-width:1.0;stroke-dasharray:2.0,2.0;" x1="905.7949" x2="1092.5801" y1="1265.3105" y2="1265.3105"/><text fill="#000000" font-family="sans-serif" font-size="13" font-weight="bold" lengthAdjust="spacing" textLength="14.46" x="917.7949" y="1260.0479">26</text><text fill="#000000" font-family="sans-serif" font-size="13" lengthAdjust="spacing" textLength="66.498" x="936.2549" y="1260.0479">buildingInfo</text><polygon fill="#181818" points="43.8413,1292.6016,33.8413,1296.6016,43.8413,1300.6016,39.8413,1296.6016" style="stroke:#181818;stroke-width:1.0;"/><line style="stroke:#181818;stroke-width:1.0;stroke-dasharray:2.0,2.0;" x1="37.8413" x2="889.7949" y1="1296.6016" y2="1296.6016"/><text fill="#000000" font-family="sans-serif" font-size="13" font-weight="bold" lengthAdjust="spacing" textLength="14.46" x="49.8413" y="1291.3389">27</text><text fill="#000000" font-family="sans-serif" font-size="13" lengthAdjust="spacing" textLength="163.3125" x="68.3013" y="1291.3389">displays building information</text><polygon fill="#181818" points="43.8413,1323.8926,33.8413,1327.8926,43.8413,1331.8926,39.8413,1327.8926" style="stroke:#181818;stroke-width:1.0;"/><line style="stroke:#181818;stroke-width:1.0;stroke-dasharray:2.0,2.0;" x1="37.8413" x2="894.7949" y1="1327.8926" y2="1327.8926"/><text fill="#000000" font-family="sans-serif" font-size="13" font-weight="bold" lengthAdjust="spacing" textLength="14.46" x="49.8413" y="1322.6299">28</text><text fill="#000000" font-family="sans-serif" font-size="13" lengthAdjust="spacing" textLength="119.9326" x="68.3013" y="1322.6299">asks for confirmation</text><polygon fill="#181818" points="878.7949,1355.1836,888.7949,1359.1836,878.7949,1363.1836,882.7949,1359.1836" style="stroke:#181818;stroke-width:1.0;"/><line style="stroke:#181818;stroke-width:1.0;" x1="32.8413" x2="884.7949" y1="1359.1836" y2="1359.1836"/><text fill="#000000" font-family="sans-serif" font-size="13" font-weight="bold" lengthAdjust="spacing" textLength="14.46" x="39.8413" y="1353.9209">29</text><text fill="#000000" font-family="sans-serif" font-size="13" lengthAdjust="spacing" textLength="100.439" x="58.3013" y="1353.9209">confirms upgrade</text><polygon fill="#181818" points="1076.5801,1386.4746,1086.5801,1390.4746,1076.5801,1394.4746,1080.5801,1390.4746" style="stroke:#181818;stroke-width:1.0;"/><line style="stroke:#181818;stroke-width:1.0;" x1="900.7949" x2="1082.5801" y1="1390.4746" y2="1390.4746"/><text fill="#000000" font-family="sans-serif" font-size="13" font-weight="bold" lengthAdjust="spacing" textLength="14.46" x="907.7949" y="1385.2119">30</text><text fill="#000000" font-family="sans-serif" font-size="13" lengthAdjust="spacing" textLength="96.8398" x="926.2549" y="1385.2119">upgradeStation()</text><rect fill="none" height="43.252" style="stroke:#000000;stroke-width:1.5;" width="181.8682" x="1002.646" y="1398.4746"/><path d="M1002.646,1398.4746 L1063.646,1398.4746 L1063.646,1407.4746 L1053.646,1417.4746 L1002.646,1417.4746 L1002.646,1398.4746 " fill="#EEEEEE" style="stroke:#000000;stroke-width:2.0;"/><text fill="#000000" font-family="sans-serif" font-size="13" font-weight="bold" lengthAdjust="spacing" textLength="16.6182" x="1015.646" y="1414.5029">ref</text><text fill="#000000" font-family="sans-serif" font-size="12" lengthAdjust="spacing" textLength="128.0684" x="1029.5459" y="1434.4238">Confirm station upgrade</text><polygon fill="#181818" points="911.7949,1466.0176,901.7949,1470.0176,911.7949,1474.0176,907.7949,1470.0176" style="stroke:#181818;stroke-width:1.0;"/><line style="stroke:#181818;stroke-width:1.0;stroke-dasharray:2.0,2.0;" x1="905.7949" x2="1092.5801" y1="1470.0176" y2="1470.0176"/><text fill="#000000" font-family="sans-serif" font-size="13" font-weight="bold" lengthAdjust="spacing" textLength="14.46" x="917.7949" y="1464.7549">31</text><text fill="#000000" font-family="sans-serif" font-size="13" lengthAdjust="spacing" textLength="46.96" x="936.2549" y="1464.7549">success</text><polygon fill="#181818" points="43.8413,1497.3086,33.8413,1501.3086,43.8413,1505.3086,39.8413,1501.3086" style="stroke:#181818;stroke-width:1.0;"/><line style="stroke:#181818;stroke-width:1.0;stroke-dasharray:2.0,2.0;" x1="37.8413" x2="889.7949" y1="1501.3086" y2="1501.3086"/><text fill="#000000" font-family="sans-serif" font-size="13" font-weight="bold" lengthAdjust="spacing" textLength="14.46" x="49.8413" y="1496.0459">32</text><text fill="#000000" font-family="sans-serif" font-size="13" lengthAdjust="spacing" textLength="155.3589" x="68.3013" y="1496.0459">displays operation success</text><polygon fill="#181818" points="1076.5801,1528.5996,1086.5801,1532.5996,1076.5801,1536.5996,1080.5801,1532.5996" style="stroke:#181818;stroke-width:1.0;"/><line style="stroke:#181818;stroke-width:1.0;" x1="900.7949" x2="1082.5801" y1="1532.5996" y2="1532.5996"/><text fill="#000000" font-family="sans-serif" font-size="13" font-weight="bold" lengthAdjust="spacing" textLength="14.46" x="907.7949" y="1527.3369">33</text><text fill="#000000" font-family="sans-serif" font-size="13" lengthAdjust="spacing" textLength="138.0298" x="926.2549" y="1527.3369">getStationInfo(stationId)</text><rect fill="none" height="43.252" style="stroke:#000000;stroke-width:1.5;" width="196.7832" x="1002.646" y="1540.5996"/><path d="M1002.646,1540.5996 L1063.646,1540.5996 L1063.646,1549.5996 L1053.646,1559.5996 L1002.646,1559.5996 L1002.646,1540.5996 " fill="#EEEEEE" style="stroke:#000000;stroke-width:2.0;"/><text fill="#000000" font-family="sans-serif" font-size="13" font-weight="bold" lengthAdjust="spacing" textLength="16.6182" x="1015.646" y="1556.6279">ref</text><text fill="#000000" font-family="sans-serif" font-size="12" lengthAdjust="spacing" textLength="188.7832" x="1006.646" y="1576.5488">Get station and building information</text><polygon fill="#181818" points="911.7949,1608.1426,901.7949,1612.1426,911.7949,1616.1426,907.7949,1612.1426" style="stroke:#181818;stroke-width:1.0;"/><line style="stroke:#181818;stroke-width:1.0;stroke-dasharray:2.0,2.0;" x1="905.7949" x2="1087.5801" y1="1612.1426" y2="1612.1426"/><text fill="#000000" font-family="sans-serif" font-size="13" font-weight="bold" lengthAdjust="spacing" textLength="14.46" x="917.7949" y="1606.8799">34</text><text fill="#000000" font-family="sans-serif" font-size="13" lengthAdjust="spacing" textLength="59.9854" x="936.2549" y="1606.8799">stationInfo</text><polygon fill="#181818" points="911.7949,1639.4336,901.7949,1643.4336,911.7949,1647.4336,907.7949,1643.4336" style="stroke:#181818;stroke-width:1.0;"/><line style="stroke:#181818;stroke-width:1.0;stroke-dasharray:2.0,2.0;" x1="905.7949" x2="1092.5801" y1="1643.4336" y2="1643.4336"/><text fill="#000000" font-family="sans-serif" font-size="13" font-weight="bold" lengthAdjust="spacing" textLength="14.46" x="917.7949" y="1638.1709">35</text><text fill="#000000" font-family="sans-serif" font-size="13" lengthAdjust="spacing" textLength="66.498" x="936.2549" y="1638.1709">buildingInfo</text><polygon fill="#181818" points="38.8413,1670.7246,28.8413,1674.7246,38.8413,1678.7246,34.8413,1674.7246" style="stroke:#181818;stroke-width:1.0;"/><line style="stroke:#181818;stroke-width:1.0;stroke-dasharray:2.0,2.0;" x1="32.8413" x2="894.7949" y1="1674.7246" y2="1674.7246"/><text fill="#000000" font-family="sans-serif" font-size="13" font-weight="bold" lengthAdjust="spacing" textLength="14.46" x="44.8413" y="1669.4619">36</text><text fill="#000000" font-family="sans-serif" font-size="13" lengthAdjust="spacing" textLength="257.9878" x="63.3013" y="1669.4619">displays station and building new information</text><!--SRC=[lLV1Rjim3BtxAuYUiW85Tjh1Xm5R2XG5Cc1ObWzGR3eHwaYU9IV8tu-oPKUIhJfji-aIMw8eyZq-Mb4lN5IiPWSuI26pVIqF2BfkC573IiMo5xR3jJwN23LccebTwHgeFSlbYOiT5AnKc2IiqL8qXotMIQAvfcrh_DEWo10UETlHdXGswyzVu04s5Rtc20mKbkGRSr2QQIu5dBZUq_osuMLEpibjfcKDTpzBTiRw3fY2gdrCA0pDCruneU4k_S6gpNExV31FuzMb5BgMPMcTaDNozwzLOBVYIg-xIAotqfs9MmVUdLqJfzZq_OD6tdshu83Mgy667vd67f84Q7JFyF2rGo8bynS5MXBMXFYHyP9jYHnQLAsz6OEZ3hn-kdspdio9z_SfP3MIuU9Jr2Y57Ufl_Jc4l7ACmyFQF20ODHOWZvH3pC2C9zInRFg18lVch3juSB1nupHyUXjoZCPgioPF7Tuf2KAUEkP15a5e1dvZbqnx9iYdgUlaeKWGDF5Mjb8e9SifiGLDFEV_WeGL7U25zWRewMV5phBv0EGcFm97v91pPIO9w3rUceeRsHpYdj1JIfzwbz8Jmh6TQa8yVg_ebxtPuAIegEOs-IAp2r6XXUqeolMSuLXu8pHY5H2uRdaCC6TXFgy9CXPgW9nJBKEDZ3KwocBweDcgkUXLLPZnWcUzwrjLIqkyVNz4JGceXJqYAl6Rqzz_hFCkW5jmhxoKRaTwrvLZ0LzBi_iPRUpb9KgimsP7OLJbbsLVp_RJ7zNpwonUgLoRnpnx0sMUHZTJsnqylIYk_5Jsjpu51TtvkW3D9N32_JH7lVw6w-DrvBJeVxTxdaKX5xs3gARUIS5oBwMw9EhKqzjes3h1leU1eHSEaN3oL1_yaWusjGemp6HI53mqdYN7xbAZZEV8QRoRy8r5iUoY6bh4k-XGJPQXKXzYGbPOTo64te92jJYqTJhN-Z_GANf0pFNgrIgv3g5BqF-XgYTZ5tYQZ3yeNEVL_gtw2m00]--></g></svg>