<svg xmlns="http://www.w3.org/2000/svg" xmlns:xlink="http://www.w3.org/1999/xlink" contentStyleType="text/css" height="352px" preserveAspectRatio="none" style="width:383px;height:352px;background:#FFFFFF;" version="1.1" viewBox="0 0 383 352" width="383px" zoomAndPan="magnify"><defs/><g><!--class LoadGameUI--><g id="elem_LoadGameUI"><rect codeLine="5" fill="#F1F1F1" height="48" id="LoadGameUI" rx="2.5" ry="2.5" style="stroke:#181818;stroke-width:0.5;" width="115.2686" x="137" y="7"/><ellipse cx="152" cy="23" fill="#C2C2C2" rx="11" ry="11" style="stroke:#181818;stroke-width:1.0;"/><path d="M154.7656,18.875 Q154.9219,18.6563 155.1094,18.5469 Q155.2969,18.4375 155.5156,18.4375 Q155.8906,18.4375 156.125,18.7031 Q156.3594,18.9531 156.3594,19.5625 L156.3594,21.0156 Q156.3594,21.625 156.125,21.8906 Q155.8906,22.1563 155.5156,22.1563 Q155.1719,22.1563 154.9688,21.9531 Q154.7656,21.7656 154.6563,21.25 Q154.6094,20.8906 154.4219,20.7031 Q154.0938,20.3281 153.4844,20.1094 Q152.875,19.8906 152.25,19.8906 Q151.4844,19.8906 150.8438,20.2188 Q150.2188,20.5469 149.7188,21.2969 Q149.2344,22.0469 149.2344,23.0781 L149.2344,24.1719 Q149.2344,25.4063 150.125,26.2344 Q151.0156,27.0469 152.6094,27.0469 Q153.5469,27.0469 154.2031,26.7969 Q154.5938,26.6406 155.0156,26.2031 Q155.2813,25.9375 155.4219,25.8594 Q155.5781,25.7813 155.7813,25.7813 Q156.1094,25.7813 156.3594,26.0469 Q156.625,26.2969 156.625,26.6406 Q156.625,26.9844 156.2813,27.3906 Q155.7813,27.9688 154.9844,28.2969 Q153.9063,28.75 152.6094,28.75 Q151.0938,28.75 149.8906,28.125 Q148.9063,27.625 148.2188,26.5625 Q147.5313,25.4844 147.5313,24.2031 L147.5313,23.0469 Q147.5313,21.7188 148.1406,20.5781 Q148.7656,19.4219 149.8594,18.8125 Q150.9531,18.1875 152.1875,18.1875 Q152.9219,18.1875 153.5625,18.3594 Q154.2188,18.5156 154.7656,18.875 Z " fill="#000000"/><text fill="#000000" font-family="sans-serif" font-size="14" lengthAdjust="spacing" textLength="83.2686" x="166" y="28.7969">LoadGameUI</text><line style="stroke:#181818;stroke-width:0.5;" x1="138" x2="251.2686" y1="39" y2="39"/><line style="stroke:#181818;stroke-width:0.5;" x1="138" x2="251.2686" y1="47" y2="47"/></g><!--class LoadGameController--><g id="elem_LoadGameController"><rect codeLine="8" fill="#F1F1F1" height="85.2422" id="LoadGameController" rx="2.5" ry="2.5" style="stroke:#181818;stroke-width:0.5;" width="161.958" x="113.5" y="115"/><ellipse cx="128.5" cy="131" fill="#C2C2C2" rx="11" ry="11" style="stroke:#181818;stroke-width:1.0;"/><path d="M131.2656,126.875 Q131.4219,126.6563 131.6094,126.5469 Q131.7969,126.4375 132.0156,126.4375 Q132.3906,126.4375 132.625,126.7031 Q132.8594,126.9531 132.8594,127.5625 L132.8594,129.0156 Q132.8594,129.625 132.625,129.8906 Q132.3906,130.1563 132.0156,130.1563 Q131.6719,130.1563 131.4688,129.9531 Q131.2656,129.7656 131.1563,129.25 Q131.1094,128.8906 130.9219,128.7031 Q130.5938,128.3281 129.9844,128.1094 Q129.375,127.8906 128.75,127.8906 Q127.9844,127.8906 127.3438,128.2188 Q126.7188,128.5469 126.2188,129.2969 Q125.7344,130.0469 125.7344,131.0781 L125.7344,132.1719 Q125.7344,133.4063 126.625,134.2344 Q127.5156,135.0469 129.1094,135.0469 Q130.0469,135.0469 130.7031,134.7969 Q131.0938,134.6406 131.5156,134.2031 Q131.7813,133.9375 131.9219,133.8594 Q132.0781,133.7813 132.2813,133.7813 Q132.6094,133.7813 132.8594,134.0469 Q133.125,134.2969 133.125,134.6406 Q133.125,134.9844 132.7813,135.3906 Q132.2813,135.9688 131.4844,136.2969 Q130.4063,136.75 129.1094,136.75 Q127.5938,136.75 126.3906,136.125 Q125.4063,135.625 124.7188,134.5625 Q124.0313,133.4844 124.0313,132.2031 L124.0313,131.0469 Q124.0313,129.7188 124.6406,128.5781 Q125.2656,127.4219 126.3594,126.8125 Q127.4531,126.1875 128.6875,126.1875 Q129.4219,126.1875 130.0625,126.3594 Q130.7188,126.5156 131.2656,126.875 Z " fill="#000000"/><text fill="#000000" font-family="sans-serif" font-size="14" lengthAdjust="spacing" textLength="129.958" x="142.5" y="136.7969">LoadGameController</text><line style="stroke:#181818;stroke-width:0.5;" x1="114.5" x2="274.458" y1="147" y2="147"/><line style="stroke:#181818;stroke-width:0.5;" x1="114.5" x2="274.458" y1="155" y2="155"/><ellipse cx="124.5" cy="169.8105" fill="#A6A6A6" rx="3" ry="3" style="stroke:#545454;stroke-width:1.0;"/><text fill="#000000" font-family="sans-serif" font-size="14" lengthAdjust="spacing" textLength="129.9375" x="133.5" y="174.1074">loadGameProgress()</text><ellipse cx="124.5" cy="188.4316" fill="#A6A6A6" rx="3" ry="3" style="stroke:#545454;stroke-width:1.0;"/><text fill="#000000" font-family="sans-serif" font-size="14" lengthAdjust="spacing" textLength="135.3926" x="133.5" y="192.7285">getSavedGamesList()</text></g><!--class Scenario--><g id="elem_Scenario"><rect codeLine="13" fill="#F1F1F1" height="66.6211" id="Scenario" rx="2.5" ry="2.5" style="stroke:#181818;stroke-width:0.5;" width="173.0615" x="7" y="269"/><ellipse cx="61.6533" cy="285" fill="#C2C2C2" rx="11" ry="11" style="stroke:#181818;stroke-width:1.0;"/><path d="M64.4189,280.875 Q64.5752,280.6563 64.7627,280.5469 Q64.9502,280.4375 65.1689,280.4375 Q65.5439,280.4375 65.7783,280.7031 Q66.0127,280.9531 66.0127,281.5625 L66.0127,283.0156 Q66.0127,283.625 65.7783,283.8906 Q65.5439,284.1563 65.1689,284.1563 Q64.8252,284.1563 64.6221,283.9531 Q64.4189,283.7656 64.3096,283.25 Q64.2627,282.8906 64.0752,282.7031 Q63.7471,282.3281 63.1377,282.1094 Q62.5283,281.8906 61.9033,281.8906 Q61.1377,281.8906 60.4971,282.2188 Q59.8721,282.5469 59.3721,283.2969 Q58.8877,284.0469 58.8877,285.0781 L58.8877,286.1719 Q58.8877,287.4063 59.7783,288.2344 Q60.6689,289.0469 62.2627,289.0469 Q63.2002,289.0469 63.8564,288.7969 Q64.2471,288.6406 64.6689,288.2031 Q64.9346,287.9375 65.0752,287.8594 Q65.2314,287.7813 65.4346,287.7813 Q65.7627,287.7813 66.0127,288.0469 Q66.2783,288.2969 66.2783,288.6406 Q66.2783,288.9844 65.9346,289.3906 Q65.4346,289.9688 64.6377,290.2969 Q63.5596,290.75 62.2627,290.75 Q60.7471,290.75 59.5439,290.125 Q58.5596,289.625 57.8721,288.5625 Q57.1846,287.4844 57.1846,286.2031 L57.1846,285.0469 Q57.1846,283.7188 57.7939,282.5781 Q58.4189,281.4219 59.5127,280.8125 Q60.6064,280.1875 61.8408,280.1875 Q62.5752,280.1875 63.2158,280.3594 Q63.8721,280.5156 64.4189,280.875 Z " fill="#000000"/><text fill="#000000" font-family="sans-serif" font-size="14" lengthAdjust="spacing" textLength="55.2549" x="82.1533" y="290.7969">Scenario</text><line style="stroke:#181818;stroke-width:0.5;" x1="8" x2="179.0615" y1="301" y2="301"/><line style="stroke:#181818;stroke-width:0.5;" x1="8" x2="179.0615" y1="309" y2="309"/><ellipse cx="18" cy="323.8105" fill="#A6A6A6" rx="3" ry="3" style="stroke:#545454;stroke-width:1.0;"/><text fill="#000000" font-family="sans-serif" font-size="14" lengthAdjust="spacing" textLength="147.0615" x="27" y="328.1074">deserializeGameState()</text></g><!--class GameRepository--><g id="elem_GameRepository"><rect codeLine="17" fill="#F1F1F1" height="85.2422" id="GameRepository" rx="2.5" ry="2.5" style="stroke:#181818;stroke-width:0.5;" width="161.3926" x="215" y="260"/><ellipse cx="240.9582" cy="276" fill="#C2C2C2" rx="11" ry="11" style="stroke:#181818;stroke-width:1.0;"/><path d="M243.7238,271.875 Q243.8801,271.6563 244.0676,271.5469 Q244.2551,271.4375 244.4738,271.4375 Q244.8488,271.4375 245.0832,271.7031 Q245.3176,271.9531 245.3176,272.5625 L245.3176,274.0156 Q245.3176,274.625 245.0832,274.8906 Q244.8488,275.1563 244.4738,275.1563 Q244.1301,275.1563 243.927,274.9531 Q243.7238,274.7656 243.6145,274.25 Q243.5676,273.8906 243.3801,273.7031 Q243.052,273.3281 242.4426,273.1094 Q241.8332,272.8906 241.2082,272.8906 Q240.4426,272.8906 239.802,273.2188 Q239.177,273.5469 238.677,274.2969 Q238.1926,275.0469 238.1926,276.0781 L238.1926,277.1719 Q238.1926,278.4063 239.0832,279.2344 Q239.9738,280.0469 241.5676,280.0469 Q242.5051,280.0469 243.1613,279.7969 Q243.552,279.6406 243.9738,279.2031 Q244.2395,278.9375 244.3801,278.8594 Q244.5363,278.7813 244.7395,278.7813 Q245.0676,278.7813 245.3176,279.0469 Q245.5832,279.2969 245.5832,279.6406 Q245.5832,279.9844 245.2395,280.3906 Q244.7395,280.9688 243.9426,281.2969 Q242.8645,281.75 241.5676,281.75 Q240.052,281.75 238.8488,281.125 Q237.8645,280.625 237.177,279.5625 Q236.4895,278.4844 236.4895,277.2031 L236.4895,276.0469 Q236.4895,274.7188 237.0988,273.5781 Q237.7238,272.4219 238.8176,271.8125 Q239.9113,271.1875 241.1457,271.1875 Q241.8801,271.1875 242.5207,271.3594 Q243.177,271.5156 243.7238,271.875 Z " fill="#000000"/><text fill="#000000" font-family="sans-serif" font-size="14" lengthAdjust="spacing" textLength="105.041" x="257.3934" y="281.7969">GameRepository</text><line style="stroke:#181818;stroke-width:0.5;" x1="216" x2="375.3926" y1="292" y2="292"/><line style="stroke:#181818;stroke-width:0.5;" x1="216" x2="375.3926" y1="300" y2="300"/><ellipse cx="226" cy="314.8105" fill="#A6A6A6" rx="3" ry="3" style="stroke:#545454;stroke-width:1.0;"/><text fill="#000000" font-family="sans-serif" font-size="14" lengthAdjust="spacing" textLength="120.6133" x="235" y="319.1074">loadGame(gameId)</text><ellipse cx="226" cy="333.4316" fill="#A6A6A6" rx="3" ry="3" style="stroke:#545454;stroke-width:1.0;"/><text fill="#000000" font-family="sans-serif" font-size="14" lengthAdjust="spacing" textLength="135.3926" x="235" y="337.7285">getSavedGamesList()</text></g><!--link LoadGameUI to LoadGameController--><g id="link_LoadGameUI_LoadGameController"><path codeLine="22" d="M194.5,55.13 C194.5,71.86 194.5,88.94 194.5,108.86 " fill="none" id="LoadGameUI-to-LoadGameController" style="stroke:#181818;stroke-width:1.0;"/><polygon fill="#181818" points="194.5,114.86,198.5,105.86,194.5,109.86,190.5,105.86,194.5,114.86" style="stroke:#181818;stroke-width:1.0;"/></g><!--link LoadGameController to Scenario--><g id="link_LoadGameController_Scenario"><path codeLine="23" d="M165.02,200.25 C149.64,222.01 134.5723,243.3497 120.2223,263.6597 " fill="none" id="LoadGameController-to-Scenario" style="stroke:#181818;stroke-width:1.0;"/><polygon fill="#181818" points="116.76,268.56,125.2203,263.5178,119.6452,264.4764,118.6866,258.9014,116.76,268.56" style="stroke:#181818;stroke-width:1.0;"/></g><!--link LoadGameController to GameRepository--><g id="link_LoadGameController_GameRepository"><path codeLine="24" d="M223.98,200.25 C237.26,219.04 249.4281,236.2795 262.6881,255.0495 " fill="none" id="LoadGameController-to-GameRepository" style="stroke:#181818;stroke-width:1.0;"/><polygon fill="#181818" points="266.15,259.95,264.2241,250.2913,263.265,255.8662,257.6901,254.9072,266.15,259.95" style="stroke:#181818;stroke-width:1.0;"/></g><!--SRC=[XOzDRi9038NtSufPKY6km8P5XSIY8k80rkHr634PHxPf1OYxDq4GXPyABxpmv-VdfxjKMX9gVCE5mrQuWJVPm-b0MWexYgZiaE45mQZ4F5xGBTNycqhqtvGLpeLCgdx5L7zIWytIdzpvSRhWOi8vGphgkvhwV4LVmb6WElcuWWYhw0SNgAkarf7XO1LGI18FPsee955EH_I2oiWm5lJ3DLhMP2o79_T9xDgoVkCz2ZURpL-aSY-2zfktT__Zzz-vFm00]--></g></svg>