<svg xmlns="http://www.w3.org/2000/svg" xmlns:xlink="http://www.w3.org/1999/xlink" contentStyleType="text/css" height="382px" preserveAspectRatio="none" style="width:343px;height:382px;background:#FFFFFF;" version="1.1" viewBox="0 0 343 382" width="343px" zoomAndPan="magnify"><title>System Sequence Diagram - US19 : Save a Map</title><defs/><g><text fill="#000000" font-family="sans-serif" font-size="14" font-weight="bold" lengthAdjust="spacing" textLength="315.9092" x="10" y="30.1074">System Sequence Diagram - US19 : Save a Map</text><rect fill="#FFFFFF" height="157.4551" style="stroke:#181818;stroke-width:1.0;" width="10" x="53.6619" y="133.2422"/><rect fill="#FFFFFF" height="31.291" style="stroke:#181818;stroke-width:1.0;" width="10" x="262.2507" y="156.5332"/><rect fill="#FFFFFF" height="62.582" style="stroke:#181818;stroke-width:1.0;" width="10" x="262.2507" y="219.1152"/><line style="stroke:#181818;stroke-width:0.5;stroke-dasharray:5.0,5.0;" x1="58.3757" x2="58.3757" y1="123.2422" y2="299.6973"/><line style="stroke:#181818;stroke-width:0.5;stroke-dasharray:5.0,5.0;" x1="266.968" x2="266.968" y1="123.2422" y2="299.6973"/><text fill="#000000" font-family="sans-serif" font-size="14" lengthAdjust="spacing" textLength="36.5723" x="37.3757" y="119.7285">Editor</text><ellipse cx="58.6619" cy="53.1211" fill="#E2E2F0" rx="8" ry="8" style="stroke:#181818;stroke-width:0.5;"/><path d="M58.6619,61.1211 L58.6619,88.1211 M45.6619,69.1211 L71.6619,69.1211 M58.6619,88.1211 L45.6619,103.1211 M58.6619,88.1211 L71.6619,103.1211 " fill="none" style="stroke:#181818;stroke-width:0.5;"/><text fill="#000000" font-family="sans-serif" font-size="14" lengthAdjust="spacing" textLength="36.5723" x="37.3757" y="313.8047">Editor</text><ellipse cx="58.6619" cy="325.8184" fill="#E2E2F0" rx="8" ry="8" style="stroke:#181818;stroke-width:0.5;"/><path d="M58.6619,333.8184 L58.6619,360.8184 M45.6619,341.8184 L71.6619,341.8184 M58.6619,360.8184 L45.6619,375.8184 M58.6619,360.8184 L71.6619,375.8184 " fill="none" style="stroke:#181818;stroke-width:0.5;"/><rect fill="#E2E2F0" height="32.6211" rx="2.5" ry="2.5" style="stroke:#181818;stroke-width:0.5;" width="64.5654" x="234.968" y="89.6211"/><text fill="#000000" font-family="sans-serif" font-size="14" lengthAdjust="spacing" textLength="50.5654" x="241.968" y="111.7285">:System</text><rect fill="#E2E2F0" height="32.6211" rx="2.5" ry="2.5" style="stroke:#181818;stroke-width:0.5;" width="64.5654" x="234.968" y="298.6973"/><text fill="#000000" font-family="sans-serif" font-size="14" lengthAdjust="spacing" textLength="50.5654" x="241.968" y="320.8047">:System</text><rect fill="#FFFFFF" height="157.4551" style="stroke:#181818;stroke-width:1.0;" width="10" x="53.6619" y="133.2422"/><rect fill="#FFFFFF" height="31.291" style="stroke:#181818;stroke-width:1.0;" width="10" x="262.2507" y="156.5332"/><rect fill="#FFFFFF" height="62.582" style="stroke:#181818;stroke-width:1.0;" width="10" x="262.2507" y="219.1152"/><polygon fill="#181818" points="250.2507,152.5332,260.2507,156.5332,250.2507,160.5332,254.2507,156.5332" style="stroke:#181818;stroke-width:1.0;"/><line style="stroke:#181818;stroke-width:1.0;" x1="63.6619" x2="256.2507" y1="156.5332" y2="156.5332"/><text fill="#000000" font-family="sans-serif" font-size="13" font-weight="bold" lengthAdjust="spacing" textLength="7.23" x="70.6619" y="151.2705">1</text><text fill="#000000" font-family="sans-serif" font-size="13" lengthAdjust="spacing" textLength="168.3589" x="81.8918" y="151.2705">requests to save current map</text><polygon fill="#181818" points="74.6619,183.8242,64.6619,187.8242,74.6619,191.8242,70.6619,187.8242" style="stroke:#181818;stroke-width:1.0;"/><line style="stroke:#181818;stroke-width:1.0;stroke-dasharray:2.0,2.0;" x1="68.6619" x2="266.2507" y1="187.8242" y2="187.8242"/><text fill="#000000" font-family="sans-serif" font-size="13" font-weight="bold" lengthAdjust="spacing" textLength="7.23" x="80.6619" y="182.5615">2</text><text fill="#000000" font-family="sans-serif" font-size="13" lengthAdjust="spacing" textLength="148.8525" x="91.8918" y="182.5615">request save confirmation</text><polygon fill="#181818" points="250.2507,215.1152,260.2507,219.1152,250.2507,223.1152,254.2507,219.1152" style="stroke:#181818;stroke-width:1.0;"/><line style="stroke:#181818;stroke-width:1.0;" x1="63.6619" x2="256.2507" y1="219.1152" y2="219.1152"/><text fill="#000000" font-family="sans-serif" font-size="13" font-weight="bold" lengthAdjust="spacing" textLength="7.23" x="70.6619" y="213.8525">3</text><text fill="#000000" font-family="sans-serif" font-size="13" lengthAdjust="spacing" textLength="138.0107" x="81.8918" y="213.8525">confirms save operation</text><polygon fill="#181818" points="74.6619,246.4063,64.6619,250.4063,74.6619,254.4063,70.6619,250.4063" style="stroke:#181818;stroke-width:1.0;"/><line style="stroke:#181818;stroke-width:1.0;stroke-dasharray:2.0,2.0;" x1="68.6619" x2="261.2507" y1="250.4063" y2="250.4063"/><text fill="#000000" font-family="sans-serif" font-size="13" font-weight="bold" lengthAdjust="spacing" textLength="7.23" x="80.6619" y="245.1436">4</text><text fill="#000000" font-family="sans-serif" font-size="13" lengthAdjust="spacing" textLength="155.3589" x="91.8918" y="245.1436">displays operation success</text><polygon fill="#181818" points="74.6619,277.6973,64.6619,281.6973,74.6619,285.6973,70.6619,281.6973" style="stroke:#181818;stroke-width:1.0;"/><line style="stroke:#181818;stroke-width:1.0;stroke-dasharray:2.0,2.0;" x1="68.6619" x2="266.2507" y1="281.6973" y2="281.6973"/><text fill="#000000" font-family="sans-serif" font-size="13" font-weight="bold" lengthAdjust="spacing" textLength="7.23" x="80.6619" y="276.4346">5</text><text fill="#000000" font-family="sans-serif" font-size="13" lengthAdjust="spacing" textLength="155.3589" x="91.8918" y="276.4346">displays saved map details</text><!--SRC=[ZO-zJWGn38JxF8MLVWjAjg22ach50vZ4XonjVh2Ta-xjsLm29w4Jel98zZSpncObj_HEuenj9_3RHOqIRFJPA0U2PyOFmGGBl6qFZx32XcS2X5Uitc6m8k1V8X_J0oeCwIgASU2AsS2lm_Ew7z9raizez0suCM5vcYShIA-Wfc05j8U69aA7OS9wuwVXhBqS_73wuITRyeabeN79Bj9l_4xy97JmfP8C-1_9aRNkUD4R1Tf28DK_htjGxDz194FUzKxHBm00]--></g></svg>