<svg xmlns="http://www.w3.org/2000/svg" xmlns:xlink="http://www.w3.org/1999/xlink" contentStyleType="text/css" height="709.1px" preserveAspectRatio="none" style="width:1003px;height:709px;background:#FFFFFF;" version="1.1" viewBox="0 0 1003 709" width="1003.8px" zoomAndPan="magnify"><title>System Sequence Diagram - US05 : Build a Station</title><defs/><g><text fill="#000000" font-family="sans-serif" font-size="9.8" font-weight="bold" lengthAdjust="spacing" textLength="236.3532" x="379.1454" y="17.5752">System Sequence Diagram - US05 : Build a Station</text><!--class Player--><g id="elem_Player"><rect codeLine="12" fill="#ADD8E6" height="90.8086" id="Player" rx="1.75" ry="1.75" style="stroke:#0000FF;stroke-width:0.3499999999999999;" width="92.2934" x="449.05" y="32.6348"/><text fill="#000000" font-family="sans-serif" font-size="9.8" lengthAdjust="spacing" textLength="27.7778" x="481.3078" y="46.71">Player</text><line style="stroke:#0000FF;stroke-width:0.3499999999999999;" x1="449.75" x2="540.6434" y1="52.6695" y2="52.6695"/><text fill="#000000" font-family="sans-serif" font-size="9.8" lengthAdjust="spacing" textLength="43.5784" x="453.25" y="66.0447">username</text><text fill="#000000" font-family="sans-serif" font-size="9.8" lengthAdjust="spacing" textLength="41.9419" x="453.25" y="79.0795">password</text><text fill="#000000" font-family="sans-serif" font-size="9.8" lengthAdjust="spacing" textLength="53.3928" x="453.25" y="92.1143">initialBudget</text><text fill="#000000" font-family="sans-serif" font-size="9.8" lengthAdjust="spacing" textLength="61.561" x="453.25" y="105.149">currentBudget</text><text fill="#000000" font-family="sans-serif" font-size="9.8" lengthAdjust="spacing" textLength="83.8934" x="453.25" y="118.1838">ownedLocomotives</text></g><!--class Map--><g id="elem_Map"><rect codeLine="20" fill="#ADD8E6" height="64.7391" id="Map" rx="1.75" ry="1.75" style="stroke:#0000FF;stroke-width:0.3499999999999999;" width="57.9646" x="785.4" y="45.9348"/><text fill="#000000" font-family="sans-serif" font-size="9.8" lengthAdjust="spacing" textLength="19.0641" x="804.8503" y="60.01">Map</text><line style="stroke:#0000FF;stroke-width:0.3499999999999999;" x1="786.1" x2="842.6646" y1="65.9695" y2="65.9695"/><text fill="#000000" font-family="sans-serif" font-size="9.8" lengthAdjust="spacing" textLength="34.3144" x="789.6" y="79.3447">nameID</text><text fill="#000000" font-family="sans-serif" font-size="9.8" lengthAdjust="spacing" textLength="29.9503" x="789.6" y="92.3795">cityList</text><text fill="#000000" font-family="sans-serif" font-size="9.8" lengthAdjust="spacing" textLength="49.5646" x="789.6" y="105.4143">industryList</text></g><!--class City--><g id="elem_City"><rect codeLine="26" fill="#ADD8E6" height="77.7738" id="City" rx="1.75" ry="1.75" style="stroke:#0000FF;stroke-width:0.3499999999999999;" width="81.4071" x="540.05" y="368.9848"/><text fill="#000000" font-family="sans-serif" font-size="9.8" lengthAdjust="spacing" textLength="16.8772" x="572.3149" y="383.06">City</text><line style="stroke:#0000FF;stroke-width:0.3499999999999999;" x1="540.75" x2="620.7571" y1="389.0195" y2="389.0195"/><text fill="#000000" font-family="sans-serif" font-size="9.8" lengthAdjust="spacing" textLength="34.3144" x="544.25" y="402.3947">nameID</text><text fill="#000000" font-family="sans-serif" font-size="9.8" lengthAdjust="spacing" textLength="44.6599" x="544.25" y="415.4295">trafficRate</text><text fill="#000000" font-family="sans-serif" font-size="9.8" lengthAdjust="spacing" textLength="63.1976" x="544.25" y="428.4643">suppliedCargo</text><text fill="#000000" font-family="sans-serif" font-size="9.8" lengthAdjust="spacing" textLength="73.0071" x="544.25" y="441.499">demandedCargo</text></g><!--class Industry--><g id="elem_Industry"><rect codeLine="33" fill="#ADD8E6" height="103.8434" id="Industry" rx="1.75" ry="1.75" style="stroke:#0000FF;stroke-width:0.3499999999999999;" width="81.4071" x="692.65" y="356.0348"/><text fill="#000000" font-family="sans-serif" font-size="9.8" lengthAdjust="spacing" textLength="34.8599" x="715.9236" y="370.11">Industry</text><line style="stroke:#0000FF;stroke-width:0.3499999999999999;" x1="693.35" x2="773.3571" y1="376.0695" y2="376.0695"/><text fill="#000000" font-family="sans-serif" font-size="9.8" lengthAdjust="spacing" textLength="34.3144" x="696.85" y="389.4447">nameID</text><text fill="#000000" font-family="sans-serif" font-size="9.8" lengthAdjust="spacing" textLength="18.5233" x="696.85" y="402.4795">type</text><text fill="#000000" font-family="sans-serif" font-size="9.8" lengthAdjust="spacing" textLength="65.9107" x="696.85" y="415.5143">availabilityYear</text><text fill="#000000" font-family="sans-serif" font-size="9.8" lengthAdjust="spacing" textLength="66.4658" x="696.85" y="428.549">productionRate</text><text fill="#000000" font-family="sans-serif" font-size="9.8" lengthAdjust="spacing" textLength="63.1976" x="696.85" y="441.5838">suppliedCargo</text><text fill="#000000" font-family="sans-serif" font-size="9.8" lengthAdjust="spacing" textLength="73.0071" x="696.85" y="454.6186">demandedCargo</text></g><!--class IndustrySector--><g id="elem_IndustrySector"><rect codeLine="42" fill="#ADD8E6" height="90.8086" id="IndustrySector" rx="1.75" ry="1.75" style="stroke:#0000FF;stroke-width:0.3499999999999999;" width="79.7562" x="685.65" y="178.9348"/><text fill="#000000" font-family="sans-serif" font-size="9.8" lengthAdjust="spacing" textLength="63.1832" x="693.9365" y="193.01">IndustrySector</text><line style="stroke:#0000FF;stroke-width:0.3499999999999999;" x1="686.35" x2="764.7062" y1="198.9695" y2="198.9695"/><text fill="#000000" font-family="sans-serif" font-size="9.8" lengthAdjust="spacing" textLength="24.5144" x="689.85" y="212.3447">name</text><text fill="#000000" font-family="sans-serif" font-size="9.8" lengthAdjust="spacing" textLength="65.3509" x="689.85" y="225.3795">importsExports</text><text fill="#000000" font-family="sans-serif" font-size="9.8" lengthAdjust="spacing" textLength="70.2796" x="689.85" y="238.4143">generatesCargo</text><text fill="#000000" font-family="sans-serif" font-size="9.8" lengthAdjust="spacing" textLength="71.3562" x="689.85" y="251.449">consumesCargo</text><text fill="#000000" font-family="sans-serif" font-size="9.8" lengthAdjust="spacing" textLength="47.3922" x="689.85" y="264.4838">description</text></g><!--class Position--><g id="elem_Position"><rect codeLine="50" fill="#ADD8E6" height="64.7391" id="Position" rx="1.75" ry="1.75" style="stroke:#0000FF;stroke-width:0.3499999999999999;" width="47.6287" x="618.45" y="639.5348"/><text fill="#000000" font-family="sans-serif" font-size="9.8" lengthAdjust="spacing" textLength="34.8646" x="624.832" y="653.61">Position</text><line style="stroke:#0000FF;stroke-width:0.3499999999999999;" x1="619.15" x2="665.3787" y1="659.5695" y2="659.5695"/><text fill="#000000" font-family="sans-serif" font-size="9.8" lengthAdjust="spacing" textLength="4.9" x="622.65" y="672.9447">x</text><text fill="#000000" font-family="sans-serif" font-size="9.8" lengthAdjust="spacing" textLength="4.9" x="622.65" y="685.9795">y</text><text fill="#000000" font-family="sans-serif" font-size="9.8" lengthAdjust="spacing" textLength="39.2287" x="622.65" y="699.0143">occupied</text></g><!--class Size--><g id="elem_Size"><rect codeLine="56" fill="#ADD8E6" height="51.7043" id="Size" rx="1.75" ry="1.75" style="stroke:#0000FF;stroke-width:0.3499999999999999;" width="35.1012" x="883.05" y="198.5348"/><text fill="#000000" font-family="sans-serif" font-size="9.8" lengthAdjust="spacing" textLength="19.0641" x="891.0686" y="212.61">Size</text><line style="stroke:#0000FF;stroke-width:0.3499999999999999;" x1="883.75" x2="917.4512" y1="218.5695" y2="218.5695"/><text fill="#000000" font-family="sans-serif" font-size="9.8" lengthAdjust="spacing" textLength="22.8778" x="887.25" y="231.9447">width</text><text fill="#000000" font-family="sans-serif" font-size="9.8" lengthAdjust="spacing" textLength="26.7012" x="887.25" y="244.9795">height</text></g><!--class Station--><g id="elem_Station"><rect codeLine="61" fill="#ADD8E6" height="90.8086" id="Station" rx="1.75" ry="1.75" style="stroke:#0000FF;stroke-width:0.3499999999999999;" width="79.2155" x="457.1" y="178.9348"/><text fill="#000000" font-family="sans-serif" font-size="9.8" lengthAdjust="spacing" textLength="30.5102" x="481.4527" y="193.01">Station</text><line style="stroke:#0000FF;stroke-width:0.3499999999999999;" x1="457.8" x2="535.6155" y1="198.9695" y2="198.9695"/><text fill="#000000" font-family="sans-serif" font-size="9.8" lengthAdjust="spacing" textLength="34.3144" x="461.3" y="212.3447">nameID</text><text fill="#000000" font-family="sans-serif" font-size="9.8" lengthAdjust="spacing" textLength="70.8155" x="461.3" y="225.3795">storageCapacity</text><text fill="#000000" font-family="sans-serif" font-size="9.8" lengthAdjust="spacing" textLength="55.57" x="461.3" y="238.4143">buildingSlots</text><text fill="#000000" font-family="sans-serif" font-size="9.8" lengthAdjust="spacing" textLength="65.3748" x="461.3" y="251.449">availableCargo</text><text fill="#000000" font-family="sans-serif" font-size="9.8" lengthAdjust="spacing" textLength="70.2796" x="461.3" y="264.4838">requestedCargo</text></g><!--class StationType--><g id="elem_StationType"><rect codeLine="69" fill="#ADD8E6" height="77.7738" id="StationType" rx="1.75" ry="1.75" style="stroke:#0000FF;stroke-width:0.3499999999999999;" width="80.8473" x="263.2" y="368.9848"/><text fill="#000000" font-family="sans-serif" font-size="9.8" lengthAdjust="spacing" textLength="52.297" x="277.4751" y="383.06">StationType</text><line style="stroke:#0000FF;stroke-width:0.3499999999999999;" x1="263.9" x2="343.3473" y1="389.0195" y2="389.0195"/><text fill="#000000" font-family="sans-serif" font-size="9.8" lengthAdjust="spacing" textLength="24.5144" x="267.4" y="402.3947">name</text><text fill="#000000" font-family="sans-serif" font-size="9.8" lengthAdjust="spacing" textLength="72.4473" x="267.4" y="415.4295">economicRadius</text><text fill="#000000" font-family="sans-serif" font-size="9.8" lengthAdjust="spacing" textLength="17.973" x="267.4" y="428.4643">cost</text><text fill="#000000" font-family="sans-serif" font-size="9.8" lengthAdjust="spacing" textLength="49.5742" x="267.4" y="441.499">centerPoint</text></g><!--class HouseBlock--><g id="elem_HouseBlock"><rect codeLine="76" fill="#ADD8E6" height="38.6695" id="HouseBlock" rx="1.75" ry="1.75" style="stroke:#0000FF;stroke-width:0.3499999999999999;" width="97.1886" x="495.6" y="545.7348"/><text fill="#000000" font-family="sans-serif" font-size="9.8" lengthAdjust="spacing" textLength="52.2922" x="518.0482" y="559.81">HouseBlock</text><line style="stroke:#0000FF;stroke-width:0.3499999999999999;" x1="496.3" x2="592.0886" y1="565.7695" y2="565.7695"/><text fill="#000000" font-family="sans-serif" font-size="9.8" lengthAdjust="spacing" textLength="88.7886" x="499.8" y="579.1447">automaticPlacement</text></g><path d="M237.3,211.4848 L237.3,230.5885 A0,0 0 0 0 237.3,230.5885 L432.7958,230.5885 A0,0 0 0 0 432.7958,230.5885 L432.7958,224.0848 L459.9,208.2869 L432.7958,218.4848 L432.7958,218.4848 L425.7958,211.4848 L237.3,211.4848 A0,0 0 0 0 237.3,211.4848 " fill="#FEFFDD" style="stroke:#181818;stroke-width:0.3499999999999999;"/><path d="M425.7958,211.4848 L425.7958,218.4848 L432.7958,218.4848 L425.7958,211.4848 " fill="#FEFFDD" style="stroke:#181818;stroke-width:0.3499999999999999;"/><text fill="#000000" font-family="sans-serif" font-size="9.1" lengthAdjust="spacing" textLength="180.7958" x="241.5" y="224.8046">Format: [Closest City Name] + [Station Type]</text><path d="M4.2,325.2348 L4.2,344.3385 A0,0 0 0 0 4.2,344.3385 L190.8269,344.3385 A0,0 0 0 0 190.8269,344.3385 L190.8269,337.8348 L266,398.3369 L190.8269,332.2348 L190.8269,332.2348 L183.8269,325.2348 L4.2,325.2348 A0,0 0 0 0 4.2,325.2348 " fill="#FEFFDD" style="stroke:#181818;stroke-width:0.3499999999999999;"/><path d="M183.8269,325.2348 L183.8269,332.2348 L190.8269,332.2348 L183.8269,325.2348 " fill="#FEFFDD" style="stroke:#181818;stroke-width:0.3499999999999999;"/><text fill="#000000" font-family="sans-serif" font-size="9.1" lengthAdjust="spacing" textLength="171.9269" x="8.4" y="338.5546">Can be: DEPOT, STATION, or TERMINAL</text><path d="M4.2,351.3385 L4.2,394.6496 A0,0 0 0 0 4.2,394.6496 L111.9528,394.6496 A0,0 0 0 0 111.9528,394.6496 L111.9528,375.794 L266,411.3717 L111.9528,370.194 L111.9528,358.3385 L104.9528,351.3385 L4.2,351.3385 A0,0 0 0 0 4.2,351.3385 " fill="#FEFFDD" style="stroke:#181818;stroke-width:0.3499999999999999;"/><path d="M104.9528,351.3385 L104.9528,358.3385 L111.9528,358.3385 L104.9528,351.3385 " fill="#FEFFDD" style="stroke:#181818;stroke-width:0.3499999999999999;"/><text fill="#000000" font-family="sans-serif" font-size="9.1" lengthAdjust="spacing" textLength="78.3897" x="8.4" y="364.6583">DEPOT: 3x3 radius</text><text fill="#000000" font-family="sans-serif" font-size="9.1" lengthAdjust="spacing" textLength="86.4767" x="8.4" y="376.762">STATION: 4x4 radius</text><text fill="#000000" font-family="sans-serif" font-size="9.1" lengthAdjust="spacing" textLength="93.0528" x="8.4" y="388.8657">TERMINAL: 5x5 radius</text><path d="M4.2,401.6496 L4.2,444.9607 A0,0 0 0 0 4.2,444.9607 L89.7005,444.9607 A0,0 0 0 0 89.7005,444.9607 L89.7005,426.1052 L266,424.4064 L89.7005,420.5052 L89.7005,408.6496 L82.7005,401.6496 L4.2,401.6496 A0,0 0 0 0 4.2,401.6496 " fill="#FEFFDD" style="stroke:#181818;stroke-width:0.3499999999999999;"/><path d="M82.7005,401.6496 L82.7005,408.6496 L89.7005,408.6496 L82.7005,401.6496 " fill="#FEFFDD" style="stroke:#181818;stroke-width:0.3499999999999999;"/><text fill="#000000" font-family="sans-serif" font-size="9.1" lengthAdjust="spacing" textLength="51.0764" x="8.4" y="414.9694">DEPOT: 50k</text><text fill="#000000" font-family="sans-serif" font-size="9.1" lengthAdjust="spacing" textLength="64.2243" x="8.4" y="427.0731">STATION: 100k</text><text fill="#000000" font-family="sans-serif" font-size="9.1" lengthAdjust="spacing" textLength="70.8005" x="8.4" y="439.1769">TERMINAL: 200k</text><path d="M4.2,451.9607 L4.2,483.1682 A0,0 0 0 0 4.2,483.1682 L238.8863,483.1682 A0,0 0 0 0 238.8863,483.1682 L238.8863,470.3645 L266,437.4412 L238.8863,464.7645 L238.8863,458.9607 L231.8863,451.9607 L4.2,451.9607 A0,0 0 0 0 4.2,451.9607 " fill="#FEFFDD" style="stroke:#181818;stroke-width:0.3499999999999999;"/><path d="M231.8863,451.9607 L231.8863,458.9607 L238.8863,458.9607 L231.8863,451.9607 " fill="#FEFFDD" style="stroke:#181818;stroke-width:0.3499999999999999;"/><text fill="#000000" font-family="sans-serif" font-size="9.1" lengthAdjust="spacing" textLength="201.262" x="8.4" y="465.2806">For STATION type only: Can be NE, SE, NW, SW</text><text fill="#000000" font-family="sans-serif" font-size="9.1" lengthAdjust="spacing" textLength="219.9863" x="8.4" y="477.3843">For DEPOT and TERMINAL: Geometric center is used</text><!--link Player to Station--><g id="link_Player_Station"><path codeLine="107" d="M493.227,123.8028 C492.954,134.9538 492.856,146.8818 493.15,157.9348 C493.332,164.6828 493.612,171.8158 493.941,178.7948 " fill="none" id="Player-Station" style="stroke:#181818;stroke-width:0.6999999999999998;"/><polygon fill="#000000" points="496.6954,154.8863,498.6703,148.5286,494.5562,148.582,496.6954,154.8863" style="stroke:#000000;stroke-width:0.6999999999999998;"/><text fill="#000000" font-family="sans-serif" font-size="9.1" lengthAdjust="spacing" textLength="23.7764" x="502.95" y="155.1546">builds</text><text fill="#000000" font-family="sans-serif" font-size="9.1" lengthAdjust="spacing" textLength="5.061" x="487.8795" y="138.9661">1</text><text fill="#000000" font-family="sans-serif" font-size="9.1" lengthAdjust="spacing" textLength="3.5414" x="489.9492" y="171.0935">*</text></g><!--link City to Position--><g id="link_City_Position"><path codeLine="108" d="M590.191,446.8598 C594.965,466.2008 600.789,490.0428 605.85,511.4348 C616.35,555.8218 627.991,607.2858 635.215,639.5068 " fill="none" id="City-Position" style="stroke:#181818;stroke-width:0.6999999999999998;"/><polygon fill="#000000" points="626.9465,568.4948,627.5089,561.8612,623.5023,562.7976,626.9465,568.4948" style="stroke:#000000;stroke-width:0.6999999999999998;"/><text fill="#000000" font-family="sans-serif" font-size="9.1" lengthAdjust="spacing" textLength="39.4615" x="632.45" y="568.8546">located at</text><text fill="#000000" font-family="sans-serif" font-size="9.1" lengthAdjust="spacing" textLength="5.061" x="586.1524" y="462.1688">1</text><text fill="#000000" font-family="sans-serif" font-size="9.1" lengthAdjust="spacing" textLength="5.061" x="628.8727" y="631.5702">1</text></g><!--link Industry to Position--><g id="link_Industry_Position"><path codeLine="109" d="M718.417,459.6628 C707.875,494.9288 692.979,542.7458 677.95,584.2348 C671.265,602.6938 662.963,623.0078 656.047,639.3388 " fill="none" id="Industry-Position" style="stroke:#181818;stroke-width:0.6999999999999998;"/><polygon fill="#000000" points="693.6022,568.3931,697.622,563.0863,693.7351,561.737,693.6022,568.3931" style="stroke:#000000;stroke-width:0.6999999999999998;"/><text fill="#000000" font-family="sans-serif" font-size="9.1" lengthAdjust="spacing" textLength="39.4615" x="701.05" y="568.8546">located at</text><text fill="#000000" font-family="sans-serif" font-size="9.1" lengthAdjust="spacing" textLength="5.061" x="711.7323" y="475.4389">1</text><text fill="#000000" font-family="sans-serif" font-size="9.1" lengthAdjust="spacing" textLength="5.061" x="652.8233" y="631.6166">1</text></g><!--link Map to City--><g id="link_Map_City"><path codeLine="110" d="M785.197,86.2198 C743.666,98.2878 668.297,126.3368 628.95,178.9348 C627.515,180.8528 601.874,304.3188 588.546,368.8168 " fill="none" id="Map-City" style="stroke:#181818;stroke-width:0.6999999999999998;"/><polygon fill="#000000" points="630.4509,227.4095,635.756,223.3875,632.3787,221.0373,630.4509,227.4095" style="stroke:#000000;stroke-width:0.6999999999999998;"/><text fill="#000000" font-family="sans-serif" font-size="9.1" lengthAdjust="spacing" textLength="33.8939" x="638.75" y="228.3046">contains</text><text fill="#000000" font-family="sans-serif" font-size="9.1" lengthAdjust="spacing" textLength="5.061" x="774.6763" y="98.5275">1</text><text fill="#000000" font-family="sans-serif" font-size="9.1" lengthAdjust="spacing" textLength="3.5414" x="585.8228" y="360.9834">*</text></g><!--link Map to Industry--><g id="link_Map_Industry"><path codeLine="111" d="M811.867,110.3768 C807.695,154.4698 797.86,236.7198 778.05,304.2348 C772.975,321.5318 765.723,339.7598 758.52,355.9928 " fill="none" id="Map-Industry" style="stroke:#181818;stroke-width:0.6999999999999998;"/><polygon fill="#000000" points="806.0071,227.9569,809.3614,222.2062,805.3406,221.3329,806.0071,227.9569" style="stroke:#000000;stroke-width:0.6999999999999998;"/><text fill="#000000" font-family="sans-serif" font-size="9.1" lengthAdjust="spacing" textLength="33.8939" x="813.05" y="228.3046">contains</text><text fill="#000000" font-family="sans-serif" font-size="9.1" lengthAdjust="spacing" textLength="5.061" x="806.219" y="126.0344">1</text><text fill="#000000" font-family="sans-serif" font-size="9.1" lengthAdjust="spacing" textLength="3.5414" x="757.3271" y="348.2217">*</text></g><!--link Map to Position--><g id="link_Map_Position"><path codeLine="112" d="M843.605,92.5128 C884.814,114.1148 955.15,160.2658 955.15,223.7348 C955.15,223.7348 955.15,223.7348 955.15,565.6848 C955.15,626.5848 739.55,658.9738 666.281,668.2208 " fill="none" id="Map-Position" style="stroke:#181818;stroke-width:0.6999999999999998;"/><polygon fill="#000000" points="957.6197,411.2815,961.4496,405.8361,957.5174,404.6249,957.6197,411.2815" style="stroke:#000000;stroke-width:0.6999999999999998;"/><text fill="#000000" font-family="sans-serif" font-size="9.1" lengthAdjust="spacing" textLength="33.8939" x="964.95" y="411.7046">contains</text><text fill="#000000" font-family="sans-serif" font-size="9.1" lengthAdjust="spacing" textLength="5.061" x="849.0626" y="91.8695">1</text><text fill="#000000" font-family="sans-serif" font-size="9.1" lengthAdjust="spacing" textLength="3.5414" x="671.5996" y="664.1747">*</text></g><!--link Map to Station--><g id="link_Map_Station"><path codeLine="113" d="M785.379,79.9058 C734.468,83.0628 627.662,95.5298 554.75,144.6348 C541.674,153.4408 530.467,166.2088 521.479,178.9278 " fill="none" id="Map-Station" style="stroke:#181818;stroke-width:0.6999999999999998;"/><polygon fill="#000000" points="554.9731,152.6162,561.6238,152.318,560.1783,148.4658,554.9731,152.6162" style="stroke:#000000;stroke-width:0.6999999999999998;"/><text fill="#000000" font-family="sans-serif" font-size="9.1" lengthAdjust="spacing" textLength="33.8939" x="564.55" y="155.1546">contains</text><text fill="#000000" font-family="sans-serif" font-size="9.1" lengthAdjust="spacing" textLength="5.061" x="774.6946" y="77.0426">1</text><text fill="#000000" font-family="sans-serif" font-size="9.1" lengthAdjust="spacing" textLength="3.5414" x="520.6432" y="170.9207">*</text></g><!--link Map to Size--><g id="link_Map_Size"><path codeLine="114" d="M833.238,110.4538 C848.925,136.8508 870.989,173.9858 885.521,198.4438 " fill="none" id="Map-Size" style="stroke:#181818;stroke-width:0.6999999999999998;"/><polygon fill="#000000" points="865.2379,154.3955,863.7722,147.9015,860.235,150.0032,865.2379,154.3955" style="stroke:#000000;stroke-width:0.6999999999999998;"/><text fill="#000000" font-family="sans-serif" font-size="9.1" lengthAdjust="spacing" textLength="14.672" x="869.75" y="155.1546">has</text><text fill="#000000" font-family="sans-serif" font-size="9.1" lengthAdjust="spacing" textLength="3.5414" x="832.3605" y="126.1232">*</text><text fill="#000000" font-family="sans-serif" font-size="9.1" lengthAdjust="spacing" textLength="5.061" x="877.5129" y="190.7008">1</text></g><!--link Station to City--><g id="link_Station_City"><path codeLine="115" d="M491.407,269.9698 C491.477,281.4078 492.821,293.4968 496.65,304.2348 C505.477,329.0008 523.096,352.1148 539.931,370.1328 " fill="none" id="Station-City" style="stroke:#181818;stroke-width:0.6999999999999998;"/><polygon fill="#000000" points="501.6759,300.8365,500.7669,294.2414,497.0641,296.0353,501.6759,300.8365" style="stroke:#000000;stroke-width:0.6999999999999998;"/><text fill="#000000" font-family="sans-serif" font-size="9.1" lengthAdjust="spacing" textLength="26.8023" x="506.45" y="301.4546">serves</text><text fill="#000000" font-family="sans-serif" font-size="9.1" lengthAdjust="spacing" textLength="5.061" x="485.716" y="285.1194">1</text><text fill="#000000" font-family="sans-serif" font-size="9.1" lengthAdjust="spacing" textLength="3.5414" x="530.979" y="362.468">*</text></g><!--link Station to Industry--><g id="link_Station_Industry"><path codeLine="116" d="M536.487,253.4988 C563.934,273.2458 601.097,300.3918 633.15,325.2348 C652.939,340.5718 674.478,358.0858 692.489,372.9678 " fill="none" id="Station-Industry" style="stroke:#181818;stroke-width:0.6999999999999998;"/><polygon fill="#000000" points="610.0288,299.8146,606.2528,294.3317,603.7511,297.5983,610.0288,299.8146" style="stroke:#000000;stroke-width:0.6999999999999998;"/><text fill="#000000" font-family="sans-serif" font-size="9.1" lengthAdjust="spacing" textLength="26.8023" x="613.55" y="301.4546">serves</text><text fill="#000000" font-family="sans-serif" font-size="9.1" lengthAdjust="spacing" textLength="5.061" x="541.9079" y="254.4054">1</text><text fill="#000000" font-family="sans-serif" font-size="9.1" lengthAdjust="spacing" textLength="3.5414" x="683.5317" y="365.6554">*</text></g><!--link Station to Position--><g id="link_Station_Position"><path codeLine="117" d="M480.466,270.0678 C457.541,342.0278 424.543,485.1078 483.35,584.2348 C512.778,633.8438 581.658,656.9298 618.317,666.0298 " fill="none" id="Station-Position" style="stroke:#181818;stroke-width:0.6999999999999998;"/><polygon fill="#000000" points="464.2008,521.492,464.0619,514.8361,460.1761,516.1889,464.2008,521.492" style="stroke:#000000;stroke-width:0.6999999999999998;"/><text fill="#000000" font-family="sans-serif" font-size="9.1" lengthAdjust="spacing" textLength="39.4615" x="469.35" y="521.9546">located at</text><text fill="#000000" font-family="sans-serif" font-size="9.1" lengthAdjust="spacing" textLength="5.061" x="473.6467" y="285.2275">1</text><text fill="#000000" font-family="sans-serif" font-size="9.1" lengthAdjust="spacing" textLength="5.061" x="607.6602" y="661.3853">1</text></g><!--link City to HouseBlock--><g id="link_City_HouseBlock"><path codeLine="119" d="M571.697,446.8318 C564.354,478.2688 554.267,521.4238 548.59,545.7138 " fill="none" id="City-HouseBlock" style="stroke:#181818;stroke-width:0.6999999999999998;"/><polygon fill="#000000" points="558.8536,521.5948,562.2976,515.8975,558.291,514.9612,558.8536,521.5948" style="stroke:#000000;stroke-width:0.6999999999999998;"/><text fill="#000000" font-family="sans-serif" font-size="9.1" lengthAdjust="spacing" textLength="33.8939" x="565.95" y="521.9546">contains</text><text fill="#000000" font-family="sans-serif" font-size="9.1" lengthAdjust="spacing" textLength="5.061" x="565.4044" y="462.1374">1</text><text fill="#000000" font-family="sans-serif" font-size="9.1" lengthAdjust="spacing" textLength="13.6589" x="534.8102" y="537.8052">1..*</text></g><!--link HouseBlock to Position--><g id="link_HouseBlock_Position"><path codeLine="120" d="M561.547,584.2768 C577.318,601.2308 600.761,626.4378 618.331,645.3168 " fill="none" id="HouseBlock-Position" style="stroke:#181818;stroke-width:0.6999999999999998;"/><polygon fill="#000000" points="599.1339,614.5492,596.3276,608.5122,593.3151,611.3147,599.1339,614.5492" style="stroke:#000000;stroke-width:0.6999999999999998;"/><text fill="#000000" font-family="sans-serif" font-size="9.1" lengthAdjust="spacing" textLength="14.672" x="603.05" y="615.7546">has</text><text fill="#000000" font-family="sans-serif" font-size="9.1" lengthAdjust="spacing" textLength="5.061" x="560.1119" y="599.9378">1</text><text fill="#000000" font-family="sans-serif" font-size="9.1" lengthAdjust="spacing" textLength="5.061" x="607.6772" y="636.1413">1</text></g><!--link IndustrySector to Industry--><g id="link_IndustrySector_Industry"><path codeLine="122" d="M727.454,270.1238 C728.553,296.1218 729.939,328.9238 731.08,355.9158 " fill="none" id="IndustrySector-Industry" style="stroke:#181818;stroke-width:0.6999999999999998;"/><polygon fill="#000000" points="731.9978,301.1835,733.7858,294.7707,729.675,294.9445,731.9978,301.1835" style="stroke:#000000;stroke-width:0.6999999999999998;"/><text fill="#000000" font-family="sans-serif" font-size="9.1" lengthAdjust="spacing" textLength="33.8939" x="738.15" y="301.4546">contains</text><text fill="#000000" font-family="sans-serif" font-size="9.1" lengthAdjust="spacing" textLength="5.061" x="722.5083" y="285.2892">1</text><text fill="#000000" font-family="sans-serif" font-size="9.1" lengthAdjust="spacing" textLength="3.5414" x="727.186" y="348.1372">*</text></g><!--link Station to StationType--><g id="link_Station_StationType"><path codeLine="123" d="M456.995,261.8288 C453.026,264.7548 448.945,267.5128 444.85,269.9348 C421.715,283.6128 409.577,274.7158 388.15,290.9348 C360.78,311.6478 338.373,343.6308 323.498,368.8028 " fill="none" id="Station-StationType" style="stroke:#181818;stroke-width:0.6999999999999998;"/><polygon fill="#000000" points="388.9187,299.8753,395.1461,297.5214,392.5732,294.3106,388.9187,299.8753" style="stroke:#000000;stroke-width:0.6999999999999998;"/><text fill="#000000" font-family="sans-serif" font-size="9.1" lengthAdjust="spacing" textLength="41.9942" x="397.95" y="301.4546">defined by</text><text fill="#000000" font-family="sans-serif" font-size="9.1" lengthAdjust="spacing" textLength="3.5414" x="447.9262" y="264.0004">*</text><text fill="#000000" font-family="sans-serif" font-size="9.1" lengthAdjust="spacing" textLength="5.061" x="320.8408" y="360.9676">1</text></g><!--link StationType to StationType--><g id="link_StationType_StationType"><path codeLine="125" d="M343.917,387.3598 C357.406,387.3598 368.2,394.1848 368.2,407.8348 C368.2,421.4848 357.406,428.3098 343.917,428.3098 " fill="none" id="StationType-StationType" style="stroke:#181818;stroke-width:0.6999999999999998;"/><polygon fill="#000000" points="371.7,411.4366,373.7572,405.1051,369.6428,405.1051,371.7,411.4366" style="stroke:#000000;stroke-width:0.6999999999999998;"/><text fill="#000000" font-family="sans-serif" font-size="9.1" lengthAdjust="spacing" textLength="47.0552" x="381.5" y="411.7046">can change</text><text fill="#000000" font-family="sans-serif" font-size="9.1" lengthAdjust="spacing" textLength="5.061" x="349.6715" y="381.7375">1</text><text fill="#000000" font-family="sans-serif" font-size="9.1" lengthAdjust="spacing" textLength="3.5414" x="349.5694" y="428.1901">*</text></g><!--SRC=[dLLDRzGm4BtdLupsWWGKbOzUSa3gRWkiL9QgkmWXnC5hpoQZEdQm7ReBuhypTZustHQeE4I9n-Ctpy_F4tzDfXPELE1BeUmDcG8sGdlC_30ZjV3-D0H7woRWN5gpf1y8nuSfy3C3c0fvNJZR63MpsZgueA8CKzrWdBDEeMlZAVGhAqaXI79IO_jTOIYjybaMA6Y4oNBd0rQmn6yD6ebmHgA85O_Wu_Bu17AODgGL25W64SYQIPQrP2wrsA5Bd1gFpeWgKgXvwePfy2SP2YJqj5451XxBnZaqOHZR6uFgmafRsK3VqJFR3lgzg1Dkn9oVnQKKTXVaGq9LZG-k7GuhPfnmUqbmOhCXUIL2fEMRkjQ4QYPSONcii196zUC1Pjw17q3jweWXlWlIOasQQtr6uU9kdLMDZBByNvqboc3TK2rkhwgj2_vycruSAD2WOt3VGx8zV5FjnmgzT5H74li2bzPJZ2JeBJ-xABYKJStazcd9Pp7bXbGe-LrYjDCeeJtqstfuvYmAd8bQn8FXo3fwXAszr3QHxgJIs9DqqLvij4CXElmLApnM0NcJjegdfwZnQTFfy2Nx1zsb9JFY-Cwo_wRQoki48PfWAqQLR5295RQfcR41GUCcWDtqPVDysDCRwtXH3bzcsdfcsZfgmTDVuGbywNM8HBzcQ1H4lFjHOqwBpBWpOM2DEPoTNtvOFONbwdGr_x1u2dpgg_Ehz_F5wSM3uEueaW1pUBbz2QwFTUWvlDg-saVxEZcSR4_wy4DgTg9tbKwEhySbdX-dyHxyHGmy27PqY4du7ZHTDB16x_9EDrYSisRyB3xn-rENdWW1twjHzRTekRCvafr7W7niIsh4w15SeKuyV4crPy-7aet5JKcoCQ5gT22-l6nfucRKjRV9ymaS7S7ayMIu2tbhTm-lisIIFeLVmxNBWVqe8gm8d3VqbGVankOtgffAvF7M1q76tqqOiF-MD2hsvwJz1Wzp7W-iKyV8eHHnhbzmbox_4BYZtvyo8lp7jB_eSo3wisSCEMe1jyYFulSZj_l83lhnFzKTw8w46NMod9loXlZl1kjTX1_FtTMxMoBPyR8Kfi2uv3S0]--></g></svg>