<svg xmlns="http://www.w3.org/2000/svg" xmlns:xlink="http://www.w3.org/1999/xlink" contentStyleType="text/css" height="972px" preserveAspectRatio="none" style="width:921px;height:972px;background:#FFFFFF;" version="1.1" viewBox="0 0 921 972" width="921px" zoomAndPan="magnify"><title>System Sequence Diagram - US05 : Build a Station</title><defs/><g><text fill="#000000" font-family="sans-serif" font-size="14" font-weight="bold" lengthAdjust="spacing" textLength="337.6475" x="284.8151" y="25.1074">System Sequence Diagram - US05 : Build a Station</text><!--class Player--><g id="elem_Player"><rect codeLine="12" fill="#ADD8E6" height="129.7266" id="Player" rx="2.5" ry="2.5" style="stroke:#0000FF;stroke-width:0.5;" width="131.8477" x="782.43" y="46.6211"/><text fill="#000000" font-family="sans-serif" font-size="14" lengthAdjust="spacing" textLength="39.6826" x="828.5125" y="66.7285">Player</text><line style="stroke:#0000FF;stroke-width:0.5;" x1="783.43" x2="913.2777" y1="75.2422" y2="75.2422"/><text fill="#000000" font-family="sans-serif" font-size="14" lengthAdjust="spacing" textLength="62.2549" x="788.43" y="94.3496">username</text><text fill="#000000" font-family="sans-serif" font-size="14" lengthAdjust="spacing" textLength="59.917" x="788.43" y="112.9707">password</text><text fill="#000000" font-family="sans-serif" font-size="14" lengthAdjust="spacing" textLength="76.2754" x="788.43" y="131.5918">initialBudget</text><text fill="#000000" font-family="sans-serif" font-size="14" lengthAdjust="spacing" textLength="87.9443" x="788.43" y="150.2129">currentBudget</text><text fill="#000000" font-family="sans-serif" font-size="14" lengthAdjust="spacing" textLength="119.8477" x="788.43" y="168.834">ownedLocomotives</text></g><!--class Map--><g id="elem_Map"><rect codeLine="20" fill="#ADD8E6" height="55.2422" id="Map" rx="2.5" ry="2.5" style="stroke:#0000FF;stroke-width:0.5;" width="61.0205" x="158.93" y="84.1211"/><text fill="#000000" font-family="sans-serif" font-size="14" lengthAdjust="spacing" textLength="27.2344" x="175.8231" y="104.2285">Map</text><line style="stroke:#0000FF;stroke-width:0.5;" x1="159.93" x2="218.9505" y1="112.7422" y2="112.7422"/><text fill="#000000" font-family="sans-serif" font-size="14" lengthAdjust="spacing" textLength="49.0205" x="164.93" y="131.8496">nameID</text></g><!--class City--><g id="elem_City"><rect codeLine="24" fill="#ADD8E6" height="129.7266" id="City" rx="2.5" ry="2.5" style="stroke:#0000FF;stroke-width:0.5;" width="116.2959" x="287.43" y="635.6211"/><text fill="#000000" font-family="sans-serif" font-size="14" lengthAdjust="spacing" textLength="24.1104" x="333.5228" y="655.7285">City</text><line style="stroke:#0000FF;stroke-width:0.5;" x1="288.43" x2="402.7259" y1="664.2422" y2="664.2422"/><text fill="#000000" font-family="sans-serif" font-size="14" lengthAdjust="spacing" textLength="49.0205" x="293.43" y="683.3496">nameID</text><text fill="#000000" font-family="sans-serif" font-size="14" lengthAdjust="spacing" textLength="79.3789" x="293.43" y="701.9707">houseBlocks</text><text fill="#000000" font-family="sans-serif" font-size="14" lengthAdjust="spacing" textLength="94.9512" x="293.43" y="720.5918">productionRate</text><text fill="#000000" font-family="sans-serif" font-size="14" lengthAdjust="spacing" textLength="90.2822" x="293.43" y="739.2129">suppliedCargo</text><text fill="#000000" font-family="sans-serif" font-size="14" lengthAdjust="spacing" textLength="104.2959" x="293.43" y="757.834">demandedCargo</text></g><!--class Industry--><g id="elem_Industry"><rect codeLine="32" fill="#ADD8E6" height="185.5898" id="Industry" rx="2.5" ry="2.5" style="stroke:#0000FF;stroke-width:0.5;" width="116.2959" x="438.43" y="607.6211"/><text fill="#000000" font-family="sans-serif" font-size="14" lengthAdjust="spacing" textLength="49.7998" x="471.678" y="627.7285">Industry</text><line style="stroke:#0000FF;stroke-width:0.5;" x1="439.43" x2="553.7259" y1="636.2422" y2="636.2422"/><text fill="#000000" font-family="sans-serif" font-size="14" lengthAdjust="spacing" textLength="49.0205" x="444.43" y="655.3496">nameID</text><text fill="#000000" font-family="sans-serif" font-size="14" lengthAdjust="spacing" textLength="38.124" x="444.43" y="673.9707">sector</text><text fill="#000000" font-family="sans-serif" font-size="14" lengthAdjust="spacing" textLength="26.4619" x="444.43" y="692.5918">type</text><text fill="#000000" font-family="sans-serif" font-size="14" lengthAdjust="spacing" textLength="67.7031" x="444.43" y="711.2129">description</text><text fill="#000000" font-family="sans-serif" font-size="14" lengthAdjust="spacing" textLength="94.1582" x="444.43" y="729.834">availabilityYear</text><text fill="#000000" font-family="sans-serif" font-size="14" lengthAdjust="spacing" textLength="94.9512" x="444.43" y="748.4551">productionRate</text><text fill="#000000" font-family="sans-serif" font-size="14" lengthAdjust="spacing" textLength="90.2822" x="444.43" y="767.0762">suppliedCargo</text><text fill="#000000" font-family="sans-serif" font-size="14" lengthAdjust="spacing" textLength="104.2959" x="444.43" y="785.6973">demandedCargo</text></g><!--class Position--><g id="elem_Position"><rect codeLine="43" fill="#ADD8E6" height="92.4844" id="Position" rx="2.5" ry="2.5" style="stroke:#0000FF;stroke-width:0.5;" width="68.041" x="396.43" y="872.6211"/><text fill="#000000" font-family="sans-serif" font-size="14" lengthAdjust="spacing" textLength="49.8066" x="405.5472" y="892.7285">Position</text><line style="stroke:#0000FF;stroke-width:0.5;" x1="397.43" x2="463.471" y1="901.2422" y2="901.2422"/><text fill="#000000" font-family="sans-serif" font-size="14" lengthAdjust="spacing" textLength="7" x="402.43" y="920.3496">x</text><text fill="#000000" font-family="sans-serif" font-size="14" lengthAdjust="spacing" textLength="7" x="402.43" y="938.9707">y</text><text fill="#000000" font-family="sans-serif" font-size="14" lengthAdjust="spacing" textLength="56.041" x="402.43" y="957.5918">occupied</text></g><!--class Size--><g id="elem_Size"><rect codeLine="49" fill="#ADD8E6" height="73.8633" id="Size" rx="2.5" ry="2.5" style="stroke:#0000FF;stroke-width:0.5;" width="50.1445" x="69.43" y="355.1211"/><text fill="#000000" font-family="sans-serif" font-size="14" lengthAdjust="spacing" textLength="27.2344" x="80.8851" y="375.2285">Size</text><line style="stroke:#0000FF;stroke-width:0.5;" x1="70.43" x2="118.5745" y1="383.7422" y2="383.7422"/><text fill="#000000" font-family="sans-serif" font-size="14" lengthAdjust="spacing" textLength="32.6826" x="75.43" y="402.8496">width</text><text fill="#000000" font-family="sans-serif" font-size="14" lengthAdjust="spacing" textLength="38.1445" x="75.43" y="421.4707">height</text></g><!--class Station--><g id="elem_Station"><rect codeLine="54" fill="#ADD8E6" height="204.2109" id="Station" rx="2.5" ry="2.5" style="stroke:#0000FF;stroke-width:0.5;" width="115.4961" x="790.93" y="290.1211"/><text fill="#000000" font-family="sans-serif" font-size="14" lengthAdjust="spacing" textLength="43.5859" x="826.8851" y="310.2285">Station</text><line style="stroke:#0000FF;stroke-width:0.5;" x1="791.93" x2="905.4261" y1="318.7422" y2="318.7422"/><text fill="#000000" font-family="sans-serif" font-size="14" lengthAdjust="spacing" textLength="49.0205" x="796.93" y="337.8496">nameID</text><text fill="#000000" font-family="sans-serif" font-size="14" lengthAdjust="spacing" textLength="26.4619" x="796.93" y="356.4707">type</text><text fill="#000000" font-family="sans-serif" font-size="14" lengthAdjust="spacing" textLength="103.4961" x="796.93" y="375.0918">economicRadius</text><text fill="#000000" font-family="sans-serif" font-size="14" lengthAdjust="spacing" textLength="25.6758" x="796.93" y="393.7129">cost</text><text fill="#000000" font-family="sans-serif" font-size="14" lengthAdjust="spacing" textLength="101.165" x="796.93" y="412.334">storageCapacity</text><text fill="#000000" font-family="sans-serif" font-size="14" lengthAdjust="spacing" textLength="70.8203" x="796.93" y="430.9551">centerPoint</text><text fill="#000000" font-family="sans-serif" font-size="14" lengthAdjust="spacing" textLength="79.3857" x="796.93" y="449.5762">buildingSlots</text><text fill="#000000" font-family="sans-serif" font-size="14" lengthAdjust="spacing" textLength="93.3926" x="796.93" y="468.1973">availableCargo</text><text fill="#000000" font-family="sans-serif" font-size="14" lengthAdjust="spacing" textLength="100.3994" x="796.93" y="486.8184">requestedCargo</text></g><path d="M420.93,255.6211 L420.93,282.9121 A0,0 0 0 0 420.93,282.9121 L700.2098,282.9121 A0,0 0 0 0 700.2098,282.9121 L700.2098,273.6211 L794.93,332.0527 L700.2098,265.6211 L700.2098,265.6211 L690.2098,255.6211 L420.93,255.6211 A0,0 0 0 0 420.93,255.6211 " fill="#FEFFDD" style="stroke:#181818;stroke-width:0.5;"/><path d="M690.2098,255.6211 L690.2098,265.6211 L700.2098,265.6211 L690.2098,255.6211 " fill="#FEFFDD" style="stroke:#181818;stroke-width:0.5;"/><text fill="#000000" font-family="sans-serif" font-size="13" lengthAdjust="spacing" textLength="258.2798" x="426.93" y="274.6494">Format: [Closest City Name] + [Station Type]</text><path d="M420.93,292.9121 L420.93,320.2031 A0,0 0 0 0 420.93,320.2031 L687.5399,320.2031 A0,0 0 0 0 687.5399,320.2031 L687.5399,310.9121 L794.93,350.6738 L687.5399,302.9121 L687.5399,302.9121 L677.5399,292.9121 L420.93,292.9121 A0,0 0 0 0 420.93,292.9121 " fill="#FEFFDD" style="stroke:#181818;stroke-width:0.5;"/><path d="M677.5399,292.9121 L677.5399,302.9121 L687.5399,302.9121 L677.5399,292.9121 " fill="#FEFFDD" style="stroke:#181818;stroke-width:0.5;"/><text fill="#000000" font-family="sans-serif" font-size="13" lengthAdjust="spacing" textLength="245.6099" x="426.93" y="311.9404">Can be: DEPOT, STATION, or TERMINAL</text><path d="M420.93,330.2031 L420.93,392.0762 A0,0 0 0 0 420.93,392.0762 L574.8626,392.0762 A0,0 0 0 0 574.8626,392.0762 L574.8626,365.1396 L794.93,369.2949 L574.8626,357.1396 L574.8626,340.2031 L564.8626,330.2031 L420.93,330.2031 A0,0 0 0 0 420.93,330.2031 " fill="#FEFFDD" style="stroke:#181818;stroke-width:0.5;"/><path d="M564.8626,330.2031 L564.8626,340.2031 L574.8626,340.2031 L564.8626,330.2031 " fill="#FEFFDD" style="stroke:#181818;stroke-width:0.5;"/><text fill="#000000" font-family="sans-serif" font-size="13" lengthAdjust="spacing" textLength="111.9854" x="426.93" y="349.2314">DEPOT: 3x3 radius</text><text fill="#000000" font-family="sans-serif" font-size="13" lengthAdjust="spacing" textLength="123.5381" x="426.93" y="366.5225">STATION: 4x4 radius</text><text fill="#000000" font-family="sans-serif" font-size="13" lengthAdjust="spacing" textLength="132.9326" x="426.93" y="383.8135">TERMINAL: 5x5 radius</text><path d="M420.93,402.0762 L420.93,463.9492 A0,0 0 0 0 420.93,463.9492 L543.0736,463.9492 A0,0 0 0 0 543.0736,463.9492 L543.0736,437.0127 L794.93,387.916 L543.0736,429.0127 L543.0736,412.0762 L533.0736,402.0762 L420.93,402.0762 A0,0 0 0 0 420.93,402.0762 " fill="#FEFFDD" style="stroke:#181818;stroke-width:0.5;"/><path d="M533.0736,402.0762 L533.0736,412.0762 L543.0736,412.0762 L533.0736,402.0762 " fill="#FEFFDD" style="stroke:#181818;stroke-width:0.5;"/><text fill="#000000" font-family="sans-serif" font-size="13" lengthAdjust="spacing" textLength="72.9663" x="426.93" y="421.1045">DEPOT: 50k</text><text fill="#000000" font-family="sans-serif" font-size="13" lengthAdjust="spacing" textLength="91.749" x="426.93" y="438.3955">STATION: 100k</text><text fill="#000000" font-family="sans-serif" font-size="13" lengthAdjust="spacing" textLength="101.1436" x="426.93" y="455.6865">TERMINAL: 200k</text><path d="M420.93,473.9492 L420.93,518.5313 A0,0 0 0 0 420.93,518.5313 L756.1961,518.5313 A0,0 0 0 0 756.1961,518.5313 L756.1961,500.2402 L794.93,425.1582 L756.1961,492.2402 L756.1961,483.9492 L746.1961,473.9492 L420.93,473.9492 A0,0 0 0 0 420.93,473.9492 " fill="#FEFFDD" style="stroke:#181818;stroke-width:0.5;"/><path d="M746.1961,473.9492 L746.1961,483.9492 L756.1961,483.9492 L746.1961,473.9492 " fill="#FEFFDD" style="stroke:#181818;stroke-width:0.5;"/><text fill="#000000" font-family="sans-serif" font-size="13" lengthAdjust="spacing" textLength="287.5171" x="426.93" y="492.9775">For STATION type only: Can be NE, SE, NW, SW</text><text fill="#000000" font-family="sans-serif" font-size="13" lengthAdjust="spacing" textLength="314.2661" x="426.93" y="510.2686">For DEPOT and TERMINAL: Geometric center is used</text><!--link Player to Station--><g id="link_Player_Station"><path codeLine="94" d="M848.43,176.8611 C848.43,210.4411 848.43,252.3011 848.43,290.1011 " fill="none" id="Player-Station" style="stroke:#181818;stroke-width:1.0;"/><polygon fill="#000000" points="853.43,221.2666,856.3689,212.2215,850.4911,212.2215,853.43,221.2666" style="stroke:#000000;stroke-width:1.0;"/><text fill="#000000" font-family="sans-serif" font-size="13" lengthAdjust="spacing" textLength="33.9663" x="862.43" y="221.6494">builds</text><text fill="#000000" font-family="sans-serif" font-size="13" lengthAdjust="spacing" textLength="7.23" x="841.0888" y="198.523">1</text><text fill="#000000" font-family="sans-serif" font-size="13" lengthAdjust="spacing" textLength="5.0591" x="843.2304" y="279.016">*</text></g><!--link City to Position--><g id="link_City_Position"><path codeLine="95" d="M353.22,765.8911 C357.71,790.6111 364.69,818.6411 375.43,842.6211 C380.84,854.7011 388.43,866.7411 396.25,877.5211 " fill="none" id="City-Position" style="stroke:#181818;stroke-width:1.0;"/><polygon fill="#000000" points="382.2284,837.932,381.7173,828.4352,376.2328,830.5493,382.2284,837.932" style="stroke:#000000;stroke-width:1.0;"/><text fill="#000000" font-family="sans-serif" font-size="13" lengthAdjust="spacing" textLength="56.3735" x="389.43" y="838.6494">located at</text><text fill="#000000" font-family="sans-serif" font-size="13" lengthAdjust="spacing" textLength="7.23" x="346.659" y="787.556">1</text><text fill="#000000" font-family="sans-serif" font-size="13" lengthAdjust="spacing" textLength="7.23" x="381.0282" y="863.6783">1</text></g><!--link Industry to Position--><g id="link_Industry_Position"><path codeLine="96" d="M468.25,793.8511 C459.95,821.0311 451.23,849.5611 444.26,872.3811 " fill="none" id="Industry-Position" style="stroke:#181818;stroke-width:1.0;"/><polygon fill="#000000" points="461.9692,838.0484,467.4225,830.2566,461.8011,828.5394,461.9692,838.0484" style="stroke:#000000;stroke-width:1.0;"/><text fill="#000000" font-family="sans-serif" font-size="13" lengthAdjust="spacing" textLength="56.3735" x="472.43" y="838.6494">located at</text><text fill="#000000" font-family="sans-serif" font-size="13" lengthAdjust="spacing" textLength="7.23" x="458.9211" y="815.376">1</text><text fill="#000000" font-family="sans-serif" font-size="13" lengthAdjust="spacing" textLength="7.23" x="438.7911" y="861.3553">1</text></g><!--link Map to City--><g id="link_Map_City"><path codeLine="97" d="M186.01,139.5111 C178.47,207.3411 164.91,389.8711 216.43,528.6211 C231.84,570.1111 260.79,609.9711 287.38,640.7611 " fill="none" id="Map-City" style="stroke:#181818;stroke-width:1.0;"/><polygon fill="#000000" points="222.4211,397.1674,223.5088,387.7192,217.7476,388.8843,222.4211,397.1674" style="stroke:#000000;stroke-width:1.0;"/><text fill="#000000" font-family="sans-serif" font-size="13" lengthAdjust="spacing" textLength="48.4199" x="230.43" y="397.6494">contains</text><text fill="#000000" font-family="sans-serif" font-size="13" lengthAdjust="spacing" textLength="7.23" x="177.5192" y="161.5051">1</text><text fill="#000000" font-family="sans-serif" font-size="13" lengthAdjust="spacing" textLength="5.0591" x="274.2277" y="628.6415">*</text></g><!--link Map to Industry--><g id="link_Map_Industry"><path codeLine="98" d="M211.48,139.3511 C233.04,166.8411 265.2,211.7211 283.43,255.6211 C330.98,370.0911 281.14,419.7711 340.43,528.6211 C364.33,572.5011 386.7,570.7511 420.43,607.6211 C426.31,614.0411 432.3,620.8311 438.21,627.6911 " fill="none" id="Map-Industry" style="stroke:#181818;stroke-width:1.0;"/><polygon fill="#000000" points="347.5356,396.8016,346.3922,387.3601,341.0609,389.8353,347.5356,396.8016" style="stroke:#000000;stroke-width:1.0;"/><text fill="#000000" font-family="sans-serif" font-size="13" lengthAdjust="spacing" textLength="48.4199" x="354.43" y="397.6494">contains</text><text fill="#000000" font-family="sans-serif" font-size="13" lengthAdjust="spacing" textLength="7.23" x="208.5607" y="161.3101">1</text><text fill="#000000" font-family="sans-serif" font-size="13" lengthAdjust="spacing" textLength="5.0591" x="425.4151" y="614.3311">*</text></g><!--link Map to Position--><g id="link_Map_Position"><path codeLine="99" d="M158.81,133.0811 C125.16,157.6211 73.01,202.1911 51.43,255.6211 C6,368.1311 10.49,414.4011 51.43,528.6211 C115.86,708.3611 315.5,847.1411 396.13,897.3011 " fill="none" id="Map-Position" style="stroke:#181818;stroke-width:1.0;"/><polygon fill="#000000" points="77.9128,573.0417,78.0371,563.5319,72.4236,565.2751,77.9128,573.0417" style="stroke:#000000;stroke-width:1.0;"/><text fill="#000000" font-family="sans-serif" font-size="13" lengthAdjust="spacing" textLength="48.4199" x="85.43" y="573.6494">contains</text><text fill="#000000" font-family="sans-serif" font-size="13" lengthAdjust="spacing" textLength="7.23" x="143.5188" y="133.2744">1</text><text fill="#000000" font-family="sans-serif" font-size="13" lengthAdjust="spacing" textLength="5.0591" x="383.5419" y="888.1591">*</text></g><!--link Map to Station--><g id="link_Map_Station"><path codeLine="100" d="M220.01,111.9311 C313.17,111.3811 597.83,121.3811 773.43,255.6211 C785.71,265.0111 796.26,277.0211 805.24,289.9911 " fill="none" id="Map-Station" style="stroke:#181818;stroke-width:1.0;"/><polygon fill="#000000" points="730.2135,217.722,722.4155,212.2775,720.7046,217.9008,730.2135,217.722" style="stroke:#000000;stroke-width:1.0;"/><text fill="#000000" font-family="sans-serif" font-size="13" lengthAdjust="spacing" textLength="48.4199" x="734.43" y="221.6494">contains</text><text fill="#000000" font-family="sans-serif" font-size="13" lengthAdjust="spacing" textLength="7.23" x="227.9152" y="107.0711">1</text><text fill="#000000" font-family="sans-serif" font-size="13" lengthAdjust="spacing" textLength="5.0591" x="796.8686" y="278.898">*</text></g><!--link Map to Size--><g id="link_Map_Size"><path codeLine="101" d="M167.94,139.4111 C154.58,157.4111 138.15,182.2211 128.43,206.6211 C108.85,255.7911 100.43,316.8811 96.89,354.9411 " fill="none" id="Map-Size" style="stroke:#181818;stroke-width:1.0;"/><polygon fill="#000000" points="131.8646,221.0152,137.4876,213.345,131.9053,211.5048,131.8646,221.0152" style="stroke:#000000;stroke-width:1.0;"/><text fill="#000000" font-family="sans-serif" font-size="13" lengthAdjust="spacing" textLength="20.96" x="142.43" y="221.6494">has</text><text fill="#000000" font-family="sans-serif" font-size="13" lengthAdjust="spacing" textLength="5.0591" x="157.6964" y="161.3832">*</text><text fill="#000000" font-family="sans-serif" font-size="13" lengthAdjust="spacing" textLength="7.23" x="89.7124" y="343.8708">1</text></g><!--link Station to City--><g id="link_Station_City"><path codeLine="102" d="M806.19,494.2211 C797.05,507.3711 786.2,519.4311 773.43,528.6211 C713.64,571.6411 682.36,542.7511 610.43,558.6211 C525.27,577.4111 493.87,560.5911 420.43,607.6211 C408.8,615.0711 398.13,624.9211 388.7,635.4011 " fill="none" id="Station-City" style="stroke:#181818;stroke-width:1.0;"/><polygon fill="#000000" points="610.6935,569.8683,620.2034,569.7548,618.3205,564.1867,610.6935,569.8683" style="stroke:#000000;stroke-width:1.0;"/><text fill="#000000" font-family="sans-serif" font-size="13" lengthAdjust="spacing" textLength="38.2891" x="624.43" y="573.6494">serves</text><text fill="#000000" font-family="sans-serif" font-size="13" lengthAdjust="spacing" textLength="7.23" x="803.3353" y="516.3745">1</text><text fill="#000000" font-family="sans-serif" font-size="13" lengthAdjust="spacing" textLength="5.0591" x="388.1463" y="624.3972">*</text></g><!--link Station to Industry--><g id="link_Station_Industry"><path codeLine="103" d="M802.75,494.3611 C794.23,506.9211 784.47,518.7811 773.43,528.6211 C747.24,551.9511 731.26,541.8811 700.43,558.6211 C648.78,586.6611 594.21,624.8811 554.52,654.4611 " fill="none" id="Station-Industry" style="stroke:#181818;stroke-width:1.0;"/><polygon fill="#000000" points="701.2281,570.9767,710.4223,568.5439,707.2364,563.6043,701.2281,570.9767" style="stroke:#000000;stroke-width:1.0;"/><text fill="#000000" font-family="sans-serif" font-size="13" lengthAdjust="spacing" textLength="38.2891" x="714.43" y="573.6494">serves</text><text fill="#000000" font-family="sans-serif" font-size="13" lengthAdjust="spacing" textLength="7.23" x="792.1286" y="516.5248">1</text><text fill="#000000" font-family="sans-serif" font-size="13" lengthAdjust="spacing" textLength="5.0591" x="562.6459" y="644.1916">*</text></g><!--link Station to Position--><g id="link_Station_Position"><path codeLine="104" d="M803.69,494.5811 C790.09,522.2411 774.25,551.7011 757.43,577.6211 C674.11,706.0311 649.99,738.8811 537.43,842.6211 C514.91,863.3711 486.39,883.1011 464.45,897.1011 " fill="none" id="Station-Position" style="stroke:#181818;stroke-width:1.0;"/><polygon fill="#000000" points="739.2078,704.5899,747.2841,699.5675,742.7896,695.7795,739.2078,704.5899" style="stroke:#000000;stroke-width:1.0;"/><text fill="#000000" font-family="sans-serif" font-size="13" lengthAdjust="spacing" textLength="56.3735" x="751.43" y="706.1494">located at</text><text fill="#000000" font-family="sans-serif" font-size="13" lengthAdjust="spacing" textLength="7.23" x="797.0349" y="516.4141">1</text><text fill="#000000" font-family="sans-serif" font-size="13" lengthAdjust="spacing" textLength="7.23" x="472.6782" y="887.5414">1</text></g><!--SRC=[fLHHJzim47xFhpZrPH83gGpwaeT9jB2f4fIATa8Jui6rZ-PKnyviXxQRzjztJfCqm819UuXYtvs_-yxtdVsAJ26SoC5dGjarcIKy2EqnyQr7Qk7zMGYE5cN0iRHcHZyH-iz3u5S2C1HojNIsD6fajNLmISii37M9qMUTGhUpLwRVIKOAGPAJ6dVh74DcbK-IG44Zz6PR7p276VueqKY4SnBBcF48litw0qXXM99M860MH21hUaco8pFLOekkubHwT4RaaKB1hZNJu2KP2YJqi5HB3BoNfNDeGhktQuFgqagRsq2Fw9bj3NqbYWetOexFz_OHXMtN0P1PpZtKLgvyJEwiAcLaUID2PEFBej24QYJSql9UOIwCQlOjxjYeqWVt3DkZ3DRn8cmBh0vxwQY8yBmJZuAqM91cJjzHkFz8FxMUugag_OQ_RRmTASk2p-x3Ab74a3MfaCNYCVQ-4x3hqDCgQlB8gh8voHkXg8nt9QsFJV1SebZYI1H2SYNHmJr2DxLaedyHky-YdMaR_BviZKrDBWg79RGlAacC3GWQ7mBOXuPLchQKlbYNYv32tKXRpsTtVPsm-nu-mbrJnfoPtoTe54Iyrr3h-aR2m09JEB-ONiyFOJO_cu-l9uV0ap2_kBaQJyuktuLwSKSLM0edcnDmZQr6Jk5qSxgtDZbI66m6ZVczV7KBwYo3_geBVzolzdlWJz7mBkIJvl55Du2L3i0QlKthkuB91TyJVvDR_j_MuHKPO9LsCdz5ow-68rbh0yZ7aLSTDX_W1dN5mMTKU9Peo5XYFF2IfG5vgGFnAB34Y0UzVZfwnpquEeBUGQ-LRheJd8VFIIMA9eH_xPIamFCk8gm87DSExp_4neUbaxLAaJ9F4mGP_pAWnNuhg9FizQ1zWSzZ3bhMrO2da8deQmwyfCkFBR-MVm_f47urx8tx-GC0]--></g></svg>