<svg xmlns="http://www.w3.org/2000/svg" xmlns:xlink="http://www.w3.org/1999/xlink" contentStyleType="text/css" height="934px" preserveAspectRatio="none" style="width:917px;height:934px;background:#FFFFFF;" version="1.1" viewBox="0 0 917 934" width="917px" zoomAndPan="magnify"><title>System Sequence Diagram - US05 : Build a Station</title><defs/><g><text fill="#000000" font-family="sans-serif" font-size="14" font-weight="bold" lengthAdjust="spacing" textLength="337.6475" x="282.8793" y="25.1074">System Sequence Diagram - US05 : Build a Station</text><!--class Player--><g id="elem_Player"><rect codeLine="12" fill="#ADD8E6" height="92.4844" id="Player" rx="2.5" ry="2.5" style="stroke:#0000FF;stroke-width:0.5;" width="74.2549" x="815.41" y="46.6211"/><text fill="#000000" font-family="sans-serif" font-size="14" lengthAdjust="spacing" textLength="39.6826" x="832.6961" y="66.7285">Player</text><line style="stroke:#0000FF;stroke-width:0.5;" x1="816.41" x2="888.6649" y1="75.2422" y2="75.2422"/><text fill="#000000" font-family="sans-serif" font-size="14" lengthAdjust="spacing" textLength="62.2549" x="821.41" y="94.3496">username</text><text fill="#000000" font-family="sans-serif" font-size="14" lengthAdjust="spacing" textLength="59.917" x="821.41" y="112.9707">password</text><text fill="#000000" font-family="sans-serif" font-size="14" lengthAdjust="spacing" textLength="42.8203" x="821.41" y="131.5918">budget</text></g><!--class Map--><g id="elem_Map"><rect codeLine="18" fill="#ADD8E6" height="55.2422" id="Map" rx="2.5" ry="2.5" style="stroke:#0000FF;stroke-width:0.5;" width="61.0205" x="162.91" y="65.1211"/><text fill="#000000" font-family="sans-serif" font-size="14" lengthAdjust="spacing" textLength="27.2344" x="179.8031" y="85.2285">Map</text><line style="stroke:#0000FF;stroke-width:0.5;" x1="163.91" x2="222.9305" y1="93.7422" y2="93.7422"/><text fill="#000000" font-family="sans-serif" font-size="14" lengthAdjust="spacing" textLength="49.0205" x="168.91" y="112.8496">nameID</text></g><!--class City--><g id="elem_City"><rect codeLine="22" fill="#ADD8E6" height="129.7266" id="City" rx="2.5" ry="2.5" style="stroke:#0000FF;stroke-width:0.5;" width="116.2959" x="291.41" y="597.6211"/><text fill="#000000" font-family="sans-serif" font-size="14" lengthAdjust="spacing" textLength="24.1104" x="337.5028" y="617.7285">City</text><line style="stroke:#0000FF;stroke-width:0.5;" x1="292.41" x2="406.7059" y1="626.2422" y2="626.2422"/><text fill="#000000" font-family="sans-serif" font-size="14" lengthAdjust="spacing" textLength="49.0205" x="297.41" y="645.3496">nameID</text><text fill="#000000" font-family="sans-serif" font-size="14" lengthAdjust="spacing" textLength="79.3789" x="297.41" y="663.9707">houseBlocks</text><text fill="#000000" font-family="sans-serif" font-size="14" lengthAdjust="spacing" textLength="94.9512" x="297.41" y="682.5918">productionRate</text><text fill="#000000" font-family="sans-serif" font-size="14" lengthAdjust="spacing" textLength="90.2822" x="297.41" y="701.2129">suppliedCargo</text><text fill="#000000" font-family="sans-serif" font-size="14" lengthAdjust="spacing" textLength="104.2959" x="297.41" y="719.834">demandedCargo</text></g><!--class Industry--><g id="elem_Industry"><rect codeLine="30" fill="#ADD8E6" height="185.5898" id="Industry" rx="2.5" ry="2.5" style="stroke:#0000FF;stroke-width:0.5;" width="116.2959" x="442.41" y="569.6211"/><text fill="#000000" font-family="sans-serif" font-size="14" lengthAdjust="spacing" textLength="49.7998" x="475.658" y="589.7285">Industry</text><line style="stroke:#0000FF;stroke-width:0.5;" x1="443.41" x2="557.7059" y1="598.2422" y2="598.2422"/><text fill="#000000" font-family="sans-serif" font-size="14" lengthAdjust="spacing" textLength="49.0205" x="448.41" y="617.3496">nameID</text><text fill="#000000" font-family="sans-serif" font-size="14" lengthAdjust="spacing" textLength="38.124" x="448.41" y="635.9707">sector</text><text fill="#000000" font-family="sans-serif" font-size="14" lengthAdjust="spacing" textLength="26.4619" x="448.41" y="654.5918">type</text><text fill="#000000" font-family="sans-serif" font-size="14" lengthAdjust="spacing" textLength="67.7031" x="448.41" y="673.2129">description</text><text fill="#000000" font-family="sans-serif" font-size="14" lengthAdjust="spacing" textLength="94.1582" x="448.41" y="691.834">availabilityYear</text><text fill="#000000" font-family="sans-serif" font-size="14" lengthAdjust="spacing" textLength="94.9512" x="448.41" y="710.4551">productionRate</text><text fill="#000000" font-family="sans-serif" font-size="14" lengthAdjust="spacing" textLength="90.2822" x="448.41" y="729.0762">suppliedCargo</text><text fill="#000000" font-family="sans-serif" font-size="14" lengthAdjust="spacing" textLength="104.2959" x="448.41" y="747.6973">demandedCargo</text></g><!--class Position--><g id="elem_Position"><rect codeLine="41" fill="#ADD8E6" height="92.4844" id="Position" rx="2.5" ry="2.5" style="stroke:#0000FF;stroke-width:0.5;" width="68.041" x="400.41" y="834.6211"/><text fill="#000000" font-family="sans-serif" font-size="14" lengthAdjust="spacing" textLength="49.8066" x="409.5272" y="854.7285">Position</text><line style="stroke:#0000FF;stroke-width:0.5;" x1="401.41" x2="467.451" y1="863.2422" y2="863.2422"/><text fill="#000000" font-family="sans-serif" font-size="14" lengthAdjust="spacing" textLength="7" x="406.41" y="882.3496">x</text><text fill="#000000" font-family="sans-serif" font-size="14" lengthAdjust="spacing" textLength="7" x="406.41" y="900.9707">y</text><text fill="#000000" font-family="sans-serif" font-size="14" lengthAdjust="spacing" textLength="56.041" x="406.41" y="919.5918">occupied</text></g><!--class Size--><g id="elem_Size"><rect codeLine="47" fill="#ADD8E6" height="73.8633" id="Size" rx="2.5" ry="2.5" style="stroke:#0000FF;stroke-width:0.5;" width="50.1445" x="73.41" y="317.1211"/><text fill="#000000" font-family="sans-serif" font-size="14" lengthAdjust="spacing" textLength="27.2344" x="84.8651" y="337.2285">Size</text><line style="stroke:#0000FF;stroke-width:0.5;" x1="74.41" x2="122.5545" y1="345.7422" y2="345.7422"/><text fill="#000000" font-family="sans-serif" font-size="14" lengthAdjust="spacing" textLength="32.6826" x="79.41" y="364.8496">width</text><text fill="#000000" font-family="sans-serif" font-size="14" lengthAdjust="spacing" textLength="38.1445" x="79.41" y="383.4707">height</text></g><!--class Station--><g id="elem_Station"><rect codeLine="52" fill="#ADD8E6" height="204.2109" id="Station" rx="2.5" ry="2.5" style="stroke:#0000FF;stroke-width:0.5;" width="115.4961" x="794.91" y="252.1211"/><text fill="#000000" font-family="sans-serif" font-size="14" lengthAdjust="spacing" textLength="43.5859" x="830.8651" y="272.2285">Station</text><line style="stroke:#0000FF;stroke-width:0.5;" x1="795.91" x2="909.4061" y1="280.7422" y2="280.7422"/><text fill="#000000" font-family="sans-serif" font-size="14" lengthAdjust="spacing" textLength="49.0205" x="800.91" y="299.8496">nameID</text><text fill="#000000" font-family="sans-serif" font-size="14" lengthAdjust="spacing" textLength="26.4619" x="800.91" y="318.4707">type</text><text fill="#000000" font-family="sans-serif" font-size="14" lengthAdjust="spacing" textLength="103.4961" x="800.91" y="337.0918">economicRadius</text><text fill="#000000" font-family="sans-serif" font-size="14" lengthAdjust="spacing" textLength="25.6758" x="800.91" y="355.7129">cost</text><text fill="#000000" font-family="sans-serif" font-size="14" lengthAdjust="spacing" textLength="101.165" x="800.91" y="374.334">storageCapacity</text><text fill="#000000" font-family="sans-serif" font-size="14" lengthAdjust="spacing" textLength="70.8203" x="800.91" y="392.9551">centerPoint</text><text fill="#000000" font-family="sans-serif" font-size="14" lengthAdjust="spacing" textLength="79.3857" x="800.91" y="411.5762">buildingSlots</text><text fill="#000000" font-family="sans-serif" font-size="14" lengthAdjust="spacing" textLength="93.3926" x="800.91" y="430.1973">availableCargo</text><text fill="#000000" font-family="sans-serif" font-size="14" lengthAdjust="spacing" textLength="100.3994" x="800.91" y="448.8184">requestedCargo</text></g><path d="M424.91,217.6211 L424.91,244.9121 A0,0 0 0 0 424.91,244.9121 L704.1898,244.9121 A0,0 0 0 0 704.1898,244.9121 L704.1898,235.6211 L798.91,294.0527 L704.1898,227.6211 L704.1898,227.6211 L694.1898,217.6211 L424.91,217.6211 A0,0 0 0 0 424.91,217.6211 " fill="#FEFFDD" style="stroke:#181818;stroke-width:0.5;"/><path d="M694.1898,217.6211 L694.1898,227.6211 L704.1898,227.6211 L694.1898,217.6211 " fill="#FEFFDD" style="stroke:#181818;stroke-width:0.5;"/><text fill="#000000" font-family="sans-serif" font-size="13" lengthAdjust="spacing" textLength="258.2798" x="430.91" y="236.6494">Format: [Closest City Name] + [Station Type]</text><path d="M424.91,254.9121 L424.91,282.2031 A0,0 0 0 0 424.91,282.2031 L691.5199,282.2031 A0,0 0 0 0 691.5199,282.2031 L691.5199,272.9121 L798.91,312.6738 L691.5199,264.9121 L691.5199,264.9121 L681.5199,254.9121 L424.91,254.9121 A0,0 0 0 0 424.91,254.9121 " fill="#FEFFDD" style="stroke:#181818;stroke-width:0.5;"/><path d="M681.5199,254.9121 L681.5199,264.9121 L691.5199,264.9121 L681.5199,254.9121 " fill="#FEFFDD" style="stroke:#181818;stroke-width:0.5;"/><text fill="#000000" font-family="sans-serif" font-size="13" lengthAdjust="spacing" textLength="245.6099" x="430.91" y="273.9404">Can be: DEPOT, STATION, or TERMINAL</text><path d="M424.91,292.2031 L424.91,354.0762 A0,0 0 0 0 424.91,354.0762 L578.8426,354.0762 A0,0 0 0 0 578.8426,354.0762 L578.8426,327.1396 L798.91,331.2949 L578.8426,319.1396 L578.8426,302.2031 L568.8426,292.2031 L424.91,292.2031 A0,0 0 0 0 424.91,292.2031 " fill="#FEFFDD" style="stroke:#181818;stroke-width:0.5;"/><path d="M568.8426,292.2031 L568.8426,302.2031 L578.8426,302.2031 L568.8426,292.2031 " fill="#FEFFDD" style="stroke:#181818;stroke-width:0.5;"/><text fill="#000000" font-family="sans-serif" font-size="13" lengthAdjust="spacing" textLength="111.9854" x="430.91" y="311.2314">DEPOT: 3x3 radius</text><text fill="#000000" font-family="sans-serif" font-size="13" lengthAdjust="spacing" textLength="123.5381" x="430.91" y="328.5225">STATION: 4x4 radius</text><text fill="#000000" font-family="sans-serif" font-size="13" lengthAdjust="spacing" textLength="132.9326" x="430.91" y="345.8135">TERMINAL: 5x5 radius</text><path d="M424.91,364.0762 L424.91,425.9492 A0,0 0 0 0 424.91,425.9492 L547.0536,425.9492 A0,0 0 0 0 547.0536,425.9492 L547.0536,399.0127 L798.91,349.916 L547.0536,391.0127 L547.0536,374.0762 L537.0536,364.0762 L424.91,364.0762 A0,0 0 0 0 424.91,364.0762 " fill="#FEFFDD" style="stroke:#181818;stroke-width:0.5;"/><path d="M537.0536,364.0762 L537.0536,374.0762 L547.0536,374.0762 L537.0536,364.0762 " fill="#FEFFDD" style="stroke:#181818;stroke-width:0.5;"/><text fill="#000000" font-family="sans-serif" font-size="13" lengthAdjust="spacing" textLength="72.9663" x="430.91" y="383.1045">DEPOT: 50k</text><text fill="#000000" font-family="sans-serif" font-size="13" lengthAdjust="spacing" textLength="91.749" x="430.91" y="400.3955">STATION: 100k</text><text fill="#000000" font-family="sans-serif" font-size="13" lengthAdjust="spacing" textLength="101.1436" x="430.91" y="417.6865">TERMINAL: 200k</text><path d="M424.91,435.9492 L424.91,480.5313 A0,0 0 0 0 424.91,480.5313 L760.1761,480.5313 A0,0 0 0 0 760.1761,480.5313 L760.1761,462.2402 L798.91,387.1582 L760.1761,454.2402 L760.1761,445.9492 L750.1761,435.9492 L424.91,435.9492 A0,0 0 0 0 424.91,435.9492 " fill="#FEFFDD" style="stroke:#181818;stroke-width:0.5;"/><path d="M750.1761,435.9492 L750.1761,445.9492 L760.1761,445.9492 L750.1761,435.9492 " fill="#FEFFDD" style="stroke:#181818;stroke-width:0.5;"/><text fill="#000000" font-family="sans-serif" font-size="13" lengthAdjust="spacing" textLength="287.5171" x="430.91" y="454.9775">For STATION type only: Can be NE, SE, NW, SW</text><text fill="#000000" font-family="sans-serif" font-size="13" lengthAdjust="spacing" textLength="314.2661" x="430.91" y="472.2686">For DEPOT and TERMINAL: Geometric center is used</text><!--link Player to Station--><g id="link_Player_Station"><path codeLine="92" d="M852.41,138.8211 C852.41,170.0411 852.41,212.8311 852.41,251.9711 " fill="none" id="Player-Station" style="stroke:#181818;stroke-width:1.0;"/><polygon fill="#000000" points="857.41,183.2666,860.3489,174.2215,854.4711,174.2215,857.41,183.2666" style="stroke:#000000;stroke-width:1.0;"/><text fill="#000000" font-family="sans-serif" font-size="13" lengthAdjust="spacing" textLength="33.9663" x="866.41" y="183.6494">builds</text><text fill="#000000" font-family="sans-serif" font-size="13" lengthAdjust="spacing" textLength="7.23" x="844.8722" y="161.2105">1</text><text fill="#000000" font-family="sans-serif" font-size="13" lengthAdjust="spacing" textLength="5.0591" x="847.2104" y="240.8765">*</text></g><!--link City to Position--><g id="link_City_Position"><path codeLine="93" d="M357.19,727.8911 C361.68,752.6111 368.66,780.6411 379.41,804.6211 C384.82,816.7011 392.41,828.7411 400.22,839.5211 " fill="none" id="City-Position" style="stroke:#181818;stroke-width:1.0;"/><polygon fill="#000000" points="386.2084,799.932,385.6973,790.4352,380.2128,792.5493,386.2084,799.932" style="stroke:#000000;stroke-width:1.0;"/><text fill="#000000" font-family="sans-serif" font-size="13" lengthAdjust="spacing" textLength="56.3735" x="393.41" y="800.6494">located at</text><text fill="#000000" font-family="sans-serif" font-size="13" lengthAdjust="spacing" textLength="7.23" x="350.628" y="749.556">1</text><text fill="#000000" font-family="sans-serif" font-size="13" lengthAdjust="spacing" textLength="7.23" x="384.996" y="825.6783">1</text></g><!--link Industry to Position--><g id="link_Industry_Position"><path codeLine="94" d="M472.22,755.8511 C463.92,783.0311 455.2,811.5611 448.23,834.3811 " fill="none" id="Industry-Position" style="stroke:#181818;stroke-width:1.0;"/><polygon fill="#000000" points="465.9492,800.0484,471.4025,792.2566,465.7811,790.5394,465.9492,800.0484" style="stroke:#000000;stroke-width:1.0;"/><text fill="#000000" font-family="sans-serif" font-size="13" lengthAdjust="spacing" textLength="56.3735" x="476.41" y="800.6494">located at</text><text fill="#000000" font-family="sans-serif" font-size="13" lengthAdjust="spacing" textLength="7.23" x="462.8903" y="777.376">1</text><text fill="#000000" font-family="sans-serif" font-size="13" lengthAdjust="spacing" textLength="7.23" x="442.7596" y="823.3553">1</text></g><!--link Map to City--><g id="link_Map_City"><path codeLine="95" d="M190.15,120.2411 C183.19,185.7311 171.26,358.9111 220.41,490.6211 C235.88,532.0811 264.84,571.9511 291.41,602.7411 " fill="none" id="Map-City" style="stroke:#181818;stroke-width:1.0;"/><polygon fill="#000000" points="226.437,359.16,227.4554,349.7041,221.7029,350.9114,226.437,359.16" style="stroke:#000000;stroke-width:1.0;"/><text fill="#000000" font-family="sans-serif" font-size="13" lengthAdjust="spacing" textLength="48.4199" x="234.41" y="359.6494">contains</text><text fill="#000000" font-family="sans-serif" font-size="13" lengthAdjust="spacing" textLength="7.23" x="181.6942" y="142.176">1</text><text fill="#000000" font-family="sans-serif" font-size="13" lengthAdjust="spacing" textLength="5.0591" x="278.2644" y="590.6188">*</text></g><!--link Map to Industry--><g id="link_Map_Industry"><path codeLine="96" d="M219.34,120.3511 C240.84,144.0211 270.5,180.5011 287.41,217.6211 C338.77,330.4311 285.12,381.7711 344.41,490.6211 C368.31,534.5011 390.67,532.7511 424.41,569.6211 C430.28,576.0411 436.27,582.8311 442.19,589.6911 " fill="none" id="Map-Industry" style="stroke:#181818;stroke-width:1.0;"/><polygon fill="#000000" points="351.5546,358.7833,350.3298,349.3519,345.0201,351.8731,351.5546,358.7833" style="stroke:#000000;stroke-width:1.0;"/><text fill="#000000" font-family="sans-serif" font-size="13" lengthAdjust="spacing" textLength="48.4199" x="358.41" y="359.6494">contains</text><text fill="#000000" font-family="sans-serif" font-size="13" lengthAdjust="spacing" textLength="7.23" x="217.2695" y="142.3101">1</text><text fill="#000000" font-family="sans-serif" font-size="13" lengthAdjust="spacing" textLength="5.0591" x="429.3951" y="576.3311">*</text></g><!--link Map to Position--><g id="link_Map_Position"><path codeLine="97" d="M162.61,110.5311 C129.05,130.9211 77.24,168.6411 55.41,217.6211 C6,328.4411 14.46,376.4011 55.41,490.6211 C119.84,670.3611 319.48,809.1411 400.11,859.3011 " fill="none" id="Map-Position" style="stroke:#181818;stroke-width:1.0;"/><polygon fill="#000000" points="81.9217,535.0326,81.9884,525.5223,76.3856,527.2994,81.9217,535.0326" style="stroke:#000000;stroke-width:1.0;"/><text fill="#000000" font-family="sans-serif" font-size="13" lengthAdjust="spacing" textLength="48.4199" x="89.41" y="535.6494">contains</text><text fill="#000000" font-family="sans-serif" font-size="13" lengthAdjust="spacing" textLength="7.23" x="147.7023" y="109.7411">1</text><text fill="#000000" font-family="sans-serif" font-size="13" lengthAdjust="spacing" textLength="5.0591" x="387.5219" y="850.1591">*</text></g><!--link Map to Station--><g id="link_Map_Station"><path codeLine="98" d="M224.01,96.7611 C331.07,108.2311 687.12,150.7911 777.41,217.6211 C789.94,226.9011 800.64,238.9311 809.7,251.9911 " fill="none" id="Map-Station" style="stroke:#181818;stroke-width:1.0;"/><polygon fill="#000000" points="723.2431,179.5476,715.2528,174.3894,713.747,180.0711,723.2431,179.5476" style="stroke:#000000;stroke-width:1.0;"/><text fill="#000000" font-family="sans-serif" font-size="13" lengthAdjust="spacing" textLength="48.4199" x="727.41" y="183.6494">contains</text><text fill="#000000" font-family="sans-serif" font-size="13" lengthAdjust="spacing" textLength="7.23" x="231.9198" y="92.7868">1</text><text fill="#000000" font-family="sans-serif" font-size="13" lengthAdjust="spacing" textLength="5.0591" x="801.3638" y="240.898">*</text></g><!--link Map to Size--><g id="link_Map_Size"><path codeLine="99" d="M166.26,120.1711 C154.09,133.5911 140.64,150.7911 132.41,168.6211 C110.15,216.8211 102.45,278.4411 99.8,316.8511 " fill="none" id="Map-Size" style="stroke:#181818;stroke-width:1.0;"/><polygon fill="#000000" points="135.8094,183.0035,141.4892,175.3752,135.9207,173.4936,135.8094,183.0035" style="stroke:#000000;stroke-width:1.0;"/><text fill="#000000" font-family="sans-serif" font-size="13" lengthAdjust="spacing" textLength="20.96" x="146.41" y="183.6494">has</text><text fill="#000000" font-family="sans-serif" font-size="13" lengthAdjust="spacing" textLength="5.0591" x="154.4079" y="142.5416">*</text><text fill="#000000" font-family="sans-serif" font-size="13" lengthAdjust="spacing" textLength="7.23" x="92.4318" y="305.7647">1</text></g><!--link Station to City--><g id="link_Station_City"><path codeLine="100" d="M810.16,456.2211 C801.02,469.3711 790.17,481.4311 777.41,490.6211 C717.61,533.6411 686.34,504.7511 614.41,520.6211 C529.25,539.4111 497.84,522.5911 424.41,569.6211 C412.78,577.0711 402.1,586.9211 392.67,597.4011 " fill="none" id="Station-City" style="stroke:#181818;stroke-width:1.0;"/><polygon fill="#000000" points="614.6735,531.8683,624.1834,531.7548,622.3005,526.1867,614.6735,531.8683" style="stroke:#000000;stroke-width:1.0;"/><text fill="#000000" font-family="sans-serif" font-size="13" lengthAdjust="spacing" textLength="38.2891" x="628.41" y="535.6494">serves</text><text fill="#000000" font-family="sans-serif" font-size="13" lengthAdjust="spacing" textLength="7.23" x="807.3045" y="478.3745">1</text><text fill="#000000" font-family="sans-serif" font-size="13" lengthAdjust="spacing" textLength="5.0591" x="392.1152" y="586.3972">*</text></g><!--link Station to Industry--><g id="link_Station_Industry"><path codeLine="101" d="M806.73,456.3611 C798.21,468.9211 788.45,480.7811 777.41,490.6211 C751.21,513.9511 735.23,503.8811 704.41,520.6211 C652.76,548.6611 598.19,586.8811 558.5,616.4611 " fill="none" id="Station-Industry" style="stroke:#181818;stroke-width:1.0;"/><polygon fill="#000000" points="705.2081,532.9767,714.4023,530.5439,711.2164,525.6043,705.2081,532.9767" style="stroke:#000000;stroke-width:1.0;"/><text fill="#000000" font-family="sans-serif" font-size="13" lengthAdjust="spacing" textLength="38.2891" x="718.41" y="535.6494">serves</text><text fill="#000000" font-family="sans-serif" font-size="13" lengthAdjust="spacing" textLength="7.23" x="796.1086" y="478.5248">1</text><text fill="#000000" font-family="sans-serif" font-size="13" lengthAdjust="spacing" textLength="5.0591" x="566.6259" y="606.1916">*</text></g><!--link Station to Position--><g id="link_Station_Position"><path codeLine="102" d="M807.67,456.5811 C794.06,484.2411 778.22,513.7011 761.41,539.6211 C678.09,668.0311 653.97,700.8811 541.41,804.6211 C518.89,825.3711 490.36,845.1011 468.43,859.1011 " fill="none" id="Station-Position" style="stroke:#181818;stroke-width:1.0;"/><polygon fill="#000000" points="743.1878,666.5899,751.2641,661.5675,746.7696,657.7795,743.1878,666.5899" style="stroke:#000000;stroke-width:1.0;"/><text fill="#000000" font-family="sans-serif" font-size="13" lengthAdjust="spacing" textLength="56.3735" x="755.41" y="668.1494">located at</text><text fill="#000000" font-family="sans-serif" font-size="13" lengthAdjust="spacing" textLength="7.23" x="799.1418" y="478.4141">1</text><text fill="#000000" font-family="sans-serif" font-size="13" lengthAdjust="spacing" textLength="7.23" x="476.6582" y="849.5414">1</text></g><!--SRC=[fLHHJzim47xFhpZrPH8RKXdq9G-JQ65J9IXLqmbDY0VNFXAhZftP3hIRzjztTfCqW0gJzc0blllytNVdExkrr1Mph0HNC66UfCxXWIc7YUiyN37dphstSbLxd7AZC_aBOVWI0hyJW37ZwzoQMek9KSR2bSmBFrOr1f-n0ktE7ar_aa8A12ujLxZxBz4NHhWayT8hX46sTHvBoF1dZPeZN4YMXuZ7y3qRZY25SIsL00QPPruQFKYIdPYvObkqKLFjq6fM1WaLkPv81lskQf6Z9mtDWMjMHNH0JY_szedqsxu3e334E5Q6hrsWj4RKFCHUC1zYkBggb4GnOJOtj1TOCYtQVSSxrQ9sthxWTiYziVJZjnN6muvRMGLwsh579XLRIKMQVY2p_n5-RfmCfsBu3QqjBSDvNT7PFInUTO0yIU6Ba3o66-q1TdL_daKZ7gbNJ2dvWWbPXrfnutoGI2co72UiOfmo2GxK7ktSIEtZrT2TKYjcodYtJrjXcvCDxK2DiKygIRJn20eVF9Y7LbMQTfA-6biodyBTH1b7PtVtEYFtFNo4kpQD9Ic_Jr0B27o7M9ly9ap32bEuk9pVB3z1jZnVJczcdu3wUtcvk9xEpg_UfNfLeqYMmkdc56nhQvXJEDkSxQrjZ1H6cr5hVYzUSmLDbD5mtQS_6SRzdlXpCBnB-UpogD0jOUm3C5fjqwPMCBkaEj6QtTBtje57CK1Tsely3Gsz1LRofZT0kZ38egVc0onGHGska9MZ5lK5jPYrD4CeeAoLbpGAr68INT8y28EJ0HmVm-1eqBLkkciu1r-Is1GjX3xTbAH0yyu2BVE4wuRt7x3XOUb5ZI5Iqgazazgz1dJSRu5wmGw3zWc-n1nrgkE0fr2mu6iFl9PBJ-WZ7e3q11-4lL6Vlm00]--></g></svg>