<svg xmlns="http://www.w3.org/2000/svg" xmlns:xlink="http://www.w3.org/1999/xlink" contentStyleType="text/css" height="1034.6px" preserveAspectRatio="none" style="width:674px;height:1034px;background:#FFFFFF;" version="1.1" viewBox="0 0 674 1034" width="674.8px" zoomAndPan="magnify"><title>Sequence Diagram - US27 : Find Shortest Path</title><defs/><g><text fill="#000000" font-family="sans-serif" font-size="9.8" font-weight="bold" lengthAdjust="spacing" textLength="217.2796" x="228.3981" y="21.0752">Sequence Diagram - US27 : Find Shortest Path</text><rect fill="#FFFFFF" height="877.0863" style="stroke:#181818;stroke-width:0.6999999999999998;" width="7" x="26.4889" y="93.2695"/><rect fill="#FFFFFF" height="854.4826" style="stroke:#181818;stroke-width:0.6999999999999998;" width="7" x="233.6848" y="109.5732"/><rect fill="#FFFFFF" height="21.9037" style="stroke:#181818;stroke-width:0.6999999999999998;" width="7" x="454.0522" y="175.2844"/><rect fill="#FFFFFF" height="21.9037" style="stroke:#181818;stroke-width:0.6999999999999998;" width="7" x="454.0522" y="219.0918"/><rect fill="#FFFFFF" height="21.9037" style="stroke:#181818;stroke-width:0.6999999999999998;" width="7" x="454.0522" y="262.8992"/><rect fill="#FFFFFF" height="21.9037" style="stroke:#181818;stroke-width:0.6999999999999998;" width="7" x="454.0522" y="306.7066"/><rect fill="#FFFFFF" height="21.9037" style="stroke:#181818;stroke-width:0.6999999999999998;" width="7" x="454.0522" y="544.1475"/><rect fill="#FFFFFF" height="21.9037" style="stroke:#181818;stroke-width:0.6999999999999998;" width="7" x="454.0522" y="810.7299"/><rect fill="#FFFFFF" height="21.9037" style="stroke:#181818;stroke-width:0.6999999999999998;" width="7" x="454.0522" y="854.5373"/><rect fill="#FFFFFF" height="21.9037" style="stroke:#181818;stroke-width:0.6999999999999998;" width="7" x="454.0522" y="898.3447"/><rect fill="#FFFFFF" height="65.7111" style="stroke:#181818;stroke-width:0.6999999999999998;" width="7" x="530.4776" y="679.3076"/><rect fill="#FFFFFF" height="21.9037" style="stroke:#181818;stroke-width:0.6999999999999998;" width="7" x="608.2132" y="394.3215"/><rect fill="#FFFFFF" height="21.9037" style="stroke:#181818;stroke-width:0.6999999999999998;" width="7" x="651.4344" y="766.9225"/><rect fill="none" height="187.5713" style="stroke:#000000;stroke-width:1.0499999999999998;" width="483.6863" x="7" y="470.5326"/><line style="stroke:#181818;stroke-width:0.3499999999999999;stroke-dasharray:5.0,5.0;" x1="29.4" x2="29.4" y1="86.2695" y2="976.6559"/><line style="stroke:#181818;stroke-width:0.3499999999999999;stroke-dasharray:5.0,5.0;" x1="237.0064" x2="237.0064" y1="86.2695" y2="976.6559"/><line style="stroke:#181818;stroke-width:0.3499999999999999;stroke-dasharray:5.0,5.0;" x1="457.3181" x2="457.3181" y1="86.2695" y2="976.6559"/><line style="stroke:#181818;stroke-width:0.3499999999999999;stroke-dasharray:5.0,5.0;" x1="533.3863" x2="533.3863" y1="86.2695" y2="976.6559"/><line style="stroke:#181818;stroke-width:0.3499999999999999;stroke-dasharray:5.0,5.0;" x1="611.4333" x2="611.4333" y1="86.2695" y2="976.6559"/><line style="stroke:#181818;stroke-width:0.3499999999999999;stroke-dasharray:5.0,5.0;" x1="654.6931" x2="654.6931" y1="86.2695" y2="976.6559"/><text fill="#000000" font-family="sans-serif" font-size="9.8" lengthAdjust="spacing" textLength="27.7778" x="14" y="83.81">Player</text><ellipse cx="29.9889" cy="37.1848" fill="#E2E2F0" rx="5.6" ry="5.6" style="stroke:#181818;stroke-width:0.3499999999999999;"/><path d="M29.9889,42.7848 L29.9889,61.6848 M20.8889,48.3848 L39.0889,48.3848 M29.9889,61.6848 L20.8889,72.1848 M29.9889,61.6848 L39.0889,72.1848 " fill="none" style="stroke:#181818;stroke-width:0.3499999999999999;"/><text fill="#000000" font-family="sans-serif" font-size="9.8" lengthAdjust="spacing" textLength="27.7778" x="14" y="986.5311">Player</text><ellipse cx="29.9889" cy="994.9406" fill="#E2E2F0" rx="5.6" ry="5.6" style="stroke:#181818;stroke-width:0.3499999999999999;"/><path d="M29.9889,1000.5406 L29.9889,1019.4406 M20.8889,1006.1406 L39.0889,1006.1406 M29.9889,1019.4406 L20.8889,1029.9406 M29.9889,1019.4406 L39.0889,1029.9406 " fill="none" style="stroke:#181818;stroke-width:0.3499999999999999;"/><rect fill="#E2E2F0" height="22.8348" rx="1.75" ry="1.75" style="stroke:#181818;stroke-width:0.3499999999999999;" width="96.9568" x="188.7064" y="62.7348"/><text fill="#000000" font-family="sans-serif" font-size="9.8" lengthAdjust="spacing" textLength="87.1568" x="193.6064" y="78.21">:ShortestPathFinder</text><rect fill="#E2E2F0" height="22.8348" rx="1.75" ry="1.75" style="stroke:#181818;stroke-width:0.3499999999999999;" width="96.9568" x="188.7064" y="975.9559"/><text fill="#000000" font-family="sans-serif" font-size="9.8" lengthAdjust="spacing" textLength="87.1568" x="193.6064" y="991.4311">:ShortestPathFinder</text><rect fill="#E2E2F0" height="22.8348" rx="1.75" ry="1.75" style="stroke:#181818;stroke-width:0.3499999999999999;" width="52.2683" x="431.4181" y="62.7348"/><text fill="#000000" font-family="sans-serif" font-size="9.8" lengthAdjust="spacing" textLength="42.4683" x="436.3181" y="78.21">:FilesUtils</text><rect fill="#E2E2F0" height="22.8348" rx="1.75" ry="1.75" style="stroke:#181818;stroke-width:0.3499999999999999;" width="52.2683" x="431.4181" y="975.9559"/><text fill="#000000" font-family="sans-serif" font-size="9.8" lengthAdjust="spacing" textLength="42.4683" x="436.3181" y="991.4311">:FilesUtils</text><rect fill="#E2E2F0" height="22.8348" rx="1.75" ry="1.75" style="stroke:#181818;stroke-width:0.3499999999999999;" width="86.5826" x="490.6863" y="62.7348"/><text fill="#000000" font-family="sans-serif" font-size="9.8" lengthAdjust="spacing" textLength="76.7826" x="495.5863" y="78.21">:DijkstraAlgorithm</text><rect fill="#E2E2F0" height="22.8348" rx="1.75" ry="1.75" style="stroke:#181818;stroke-width:0.3499999999999999;" width="86.5826" x="490.6863" y="975.9559"/><text fill="#000000" font-family="sans-serif" font-size="9.8" lengthAdjust="spacing" textLength="76.7826" x="495.5863" y="991.4311">:DijkstraAlgorithm</text><rect fill="#E2E2F0" height="22.8348" rx="1.75" ry="1.75" style="stroke:#181818;stroke-width:0.3499999999999999;" width="39.7599" x="591.8333" y="62.7348"/><text fill="#000000" font-family="sans-serif" font-size="9.8" lengthAdjust="spacing" textLength="29.9599" x="596.7333" y="78.21">:Graph</text><rect fill="#E2E2F0" height="22.8348" rx="1.75" ry="1.75" style="stroke:#181818;stroke-width:0.3499999999999999;" width="39.7599" x="591.8333" y="975.9559"/><text fill="#000000" font-family="sans-serif" font-size="9.8" lengthAdjust="spacing" textLength="29.9599" x="596.7333" y="991.4311">:Graph</text><rect fill="#E2E2F0" height="22.8348" rx="1.75" ry="1.75" style="stroke:#181818;stroke-width:0.3499999999999999;" width="32.6826" x="638.5931" y="62.7348"/><text fill="#000000" font-family="sans-serif" font-size="9.8" lengthAdjust="spacing" textLength="22.8826" x="643.4931" y="78.21">:Path</text><rect fill="#E2E2F0" height="22.8348" rx="1.75" ry="1.75" style="stroke:#181818;stroke-width:0.3499999999999999;" width="32.6826" x="638.5931" y="975.9559"/><text fill="#000000" font-family="sans-serif" font-size="9.8" lengthAdjust="spacing" textLength="22.8826" x="643.4931" y="991.4311">:Path</text><rect fill="#FFFFFF" height="877.0863" style="stroke:#181818;stroke-width:0.6999999999999998;" width="7" x="26.4889" y="93.2695"/><rect fill="#FFFFFF" height="854.4826" style="stroke:#181818;stroke-width:0.6999999999999998;" width="7" x="233.6848" y="109.5732"/><rect fill="#FFFFFF" height="21.9037" style="stroke:#181818;stroke-width:0.6999999999999998;" width="7" x="454.0522" y="175.2844"/><rect fill="#FFFFFF" height="21.9037" style="stroke:#181818;stroke-width:0.6999999999999998;" width="7" x="454.0522" y="219.0918"/><rect fill="#FFFFFF" height="21.9037" style="stroke:#181818;stroke-width:0.6999999999999998;" width="7" x="454.0522" y="262.8992"/><rect fill="#FFFFFF" height="21.9037" style="stroke:#181818;stroke-width:0.6999999999999998;" width="7" x="454.0522" y="306.7066"/><rect fill="#FFFFFF" height="21.9037" style="stroke:#181818;stroke-width:0.6999999999999998;" width="7" x="454.0522" y="544.1475"/><rect fill="#FFFFFF" height="21.9037" style="stroke:#181818;stroke-width:0.6999999999999998;" width="7" x="454.0522" y="810.7299"/><rect fill="#FFFFFF" height="21.9037" style="stroke:#181818;stroke-width:0.6999999999999998;" width="7" x="454.0522" y="854.5373"/><rect fill="#FFFFFF" height="21.9037" style="stroke:#181818;stroke-width:0.6999999999999998;" width="7" x="454.0522" y="898.3447"/><rect fill="#FFFFFF" height="65.7111" style="stroke:#181818;stroke-width:0.6999999999999998;" width="7" x="530.4776" y="679.3076"/><rect fill="#FFFFFF" height="21.9037" style="stroke:#181818;stroke-width:0.6999999999999998;" width="7" x="608.2132" y="394.3215"/><rect fill="#FFFFFF" height="21.9037" style="stroke:#181818;stroke-width:0.6999999999999998;" width="7" x="651.4344" y="766.9225"/><polygon fill="#181818" points="225.2848,106.7732,232.2848,109.5732,225.2848,112.3732,228.0848,109.5732" style="stroke:#181818;stroke-width:0.6999999999999998;"/><line style="stroke:#181818;stroke-width:0.6999999999999998;" x1="33.4889" x2="229.4848" y1="109.5732" y2="109.5732"/><text fill="#000000" font-family="sans-serif" font-size="9.1" font-weight="bold" lengthAdjust="spacing" textLength="5.061" x="38.3889" y="105.8894">1</text><text fill="#000000" font-family="sans-serif" font-size="9.1" lengthAdjust="spacing" textLength="117.358" x="46.2499" y="105.8894">requests to find shortest path</text><polygon fill="#181818" points="41.1889,128.677,34.1889,131.477,41.1889,134.277,38.3889,131.477" style="stroke:#181818;stroke-width:0.6999999999999998;"/><line style="stroke:#181818;stroke-width:0.6999999999999998;" x1="36.9889" x2="232.9848" y1="131.477" y2="131.477"/><text fill="#000000" font-family="sans-serif" font-size="9.1" font-weight="bold" lengthAdjust="spacing" textLength="5.061" x="45.3889" y="127.7931">2</text><text fill="#000000" font-family="sans-serif" font-size="9.1" lengthAdjust="spacing" textLength="106.2274" x="53.2499" y="127.7931">requests scenario file path</text><polygon fill="#181818" points="225.2848,150.5807,232.2848,153.3807,225.2848,156.1807,228.0848,153.3807" style="stroke:#181818;stroke-width:0.6999999999999998;"/><line style="stroke:#181818;stroke-width:0.6999999999999998;" x1="33.4889" x2="229.4848" y1="153.3807" y2="153.3807"/><text fill="#000000" font-family="sans-serif" font-size="9.1" font-weight="bold" lengthAdjust="spacing" textLength="5.061" x="38.3889" y="149.6968">3</text><text fill="#000000" font-family="sans-serif" font-size="9.1" lengthAdjust="spacing" textLength="105.7208" x="46.2499" y="149.6968">provides scenario file path</text><polygon fill="#181818" points="445.6522,172.4844,452.6522,175.2844,445.6522,178.0844,448.4522,175.2844" style="stroke:#181818;stroke-width:0.6999999999999998;"/><line style="stroke:#181818;stroke-width:0.6999999999999998;" x1="240.6848" x2="449.8522" y1="175.2844" y2="175.2844"/><text fill="#000000" font-family="sans-serif" font-size="9.1" font-weight="bold" lengthAdjust="spacing" textLength="5.061" x="245.5848" y="171.6005">4</text><text fill="#000000" font-family="sans-serif" font-size="9.1" lengthAdjust="spacing" textLength="192.2064" x="253.4458" y="171.6005">loadCSV(filePath, stations, graph, stationOrder)</text><polygon fill="#181818" points="248.3848,194.3881,241.3848,197.1881,248.3848,199.9881,245.5848,197.1881" style="stroke:#181818;stroke-width:0.6999999999999998;"/><line style="stroke:#181818;stroke-width:0.6999999999999998;stroke-dasharray:2.0,2.0;" x1="244.1848" x2="456.8522" y1="197.1881" y2="197.1881"/><text fill="#000000" font-family="sans-serif" font-size="9.1" font-weight="bold" lengthAdjust="spacing" textLength="5.061" x="252.5848" y="193.5042">5</text><text fill="#000000" font-family="sans-serif" font-size="9.1" lengthAdjust="spacing" textLength="81.9578" x="260.4458" y="193.5042">network data loaded</text><polygon fill="#181818" points="445.6522,216.2918,452.6522,219.0918,445.6522,221.8918,448.4522,219.0918" style="stroke:#181818;stroke-width:0.6999999999999998;"/><line style="stroke:#181818;stroke-width:0.6999999999999998;" x1="240.6848" x2="449.8522" y1="219.0918" y2="219.0918"/><text fill="#000000" font-family="sans-serif" font-size="9.1" font-weight="bold" lengthAdjust="spacing" textLength="5.061" x="245.5848" y="215.4079">6</text><text fill="#000000" font-family="sans-serif" font-size="9.1" lengthAdjust="spacing" textLength="120.8816" x="253.4458" y="215.4079">exportToDOT(dotPath, graph)</text><polygon fill="#181818" points="248.3848,238.1955,241.3848,240.9955,248.3848,243.7955,245.5848,240.9955" style="stroke:#181818;stroke-width:0.6999999999999998;"/><line style="stroke:#181818;stroke-width:0.6999999999999998;stroke-dasharray:2.0,2.0;" x1="244.1848" x2="456.8522" y1="240.9955" y2="240.9955"/><text fill="#000000" font-family="sans-serif" font-size="9.1" font-weight="bold" lengthAdjust="spacing" textLength="5.061" x="252.5848" y="237.3116">7</text><text fill="#000000" font-family="sans-serif" font-size="9.1" lengthAdjust="spacing" textLength="59.6921" x="260.4458" y="237.3116">dot file created</text><polygon fill="#181818" points="445.6522,260.0992,452.6522,262.8992,445.6522,265.6992,448.4522,262.8992" style="stroke:#181818;stroke-width:0.6999999999999998;"/><line style="stroke:#181818;stroke-width:0.6999999999999998;" x1="240.6848" x2="449.8522" y1="262.8992" y2="262.8992"/><text fill="#000000" font-family="sans-serif" font-size="9.1" font-weight="bold" lengthAdjust="spacing" textLength="5.061" x="245.5848" y="259.2153">8</text><text fill="#000000" font-family="sans-serif" font-size="9.1" lengthAdjust="spacing" textLength="119.3797" x="253.4458" y="259.2153">dotToPNG(dotPath, pngPath)</text><polygon fill="#181818" points="248.3848,282.0029,241.3848,284.8029,248.3848,287.6029,245.5848,284.8029" style="stroke:#181818;stroke-width:0.6999999999999998;"/><line style="stroke:#181818;stroke-width:0.6999999999999998;stroke-dasharray:2.0,2.0;" x1="244.1848" x2="456.8522" y1="284.8029" y2="284.8029"/><text fill="#000000" font-family="sans-serif" font-size="9.1" font-weight="bold" lengthAdjust="spacing" textLength="5.061" x="252.5848" y="281.119">9</text><text fill="#000000" font-family="sans-serif" font-size="9.1" lengthAdjust="spacing" textLength="62.2248" x="260.4458" y="281.119">png file created</text><polygon fill="#181818" points="445.6522,303.9066,452.6522,306.7066,445.6522,309.5066,448.4522,306.7066" style="stroke:#181818;stroke-width:0.6999999999999998;"/><line style="stroke:#181818;stroke-width:0.6999999999999998;" x1="240.6848" x2="449.8522" y1="306.7066" y2="306.7066"/><text fill="#000000" font-family="sans-serif" font-size="9.1" font-weight="bold" lengthAdjust="spacing" textLength="10.122" x="245.5848" y="303.0228">10</text><text fill="#000000" font-family="sans-serif" font-size="9.1" lengthAdjust="spacing" textLength="74.8706" x="258.5068" y="303.0228">openFile(pngPath)</text><polygon fill="#181818" points="248.3848,325.8104,241.3848,328.6104,248.3848,331.4104,245.5848,328.6104" style="stroke:#181818;stroke-width:0.6999999999999998;"/><line style="stroke:#181818;stroke-width:0.6999999999999998;stroke-dasharray:2.0,2.0;" x1="244.1848" x2="456.8522" y1="328.6104" y2="328.6104"/><text fill="#000000" font-family="sans-serif" font-size="9.1" font-weight="bold" lengthAdjust="spacing" textLength="10.122" x="252.5848" y="324.9265">11</text><text fill="#000000" font-family="sans-serif" font-size="9.1" lengthAdjust="spacing" textLength="82.4643" x="265.5068" y="324.9265">visualization opened</text><polygon fill="#181818" points="41.1889,347.7141,34.1889,350.5141,41.1889,353.3141,38.3889,350.5141" style="stroke:#181818;stroke-width:0.6999999999999998;"/><line style="stroke:#181818;stroke-width:0.6999999999999998;" x1="36.9889" x2="232.9848" y1="350.5141" y2="350.5141"/><text fill="#000000" font-family="sans-serif" font-size="9.1" font-weight="bold" lengthAdjust="spacing" textLength="10.122" x="45.3889" y="346.8302">12</text><text fill="#000000" font-family="sans-serif" font-size="9.1" lengthAdjust="spacing" textLength="119.3664" x="58.3109" y="346.8302">displays network visualization</text><polygon fill="#181818" points="225.2848,369.6178,232.2848,372.4178,225.2848,375.2178,228.0848,372.4178" style="stroke:#181818;stroke-width:0.6999999999999998;"/><line style="stroke:#181818;stroke-width:0.6999999999999998;" x1="33.4889" x2="229.4848" y1="372.4178" y2="372.4178"/><text fill="#000000" font-family="sans-serif" font-size="9.1" font-weight="bold" lengthAdjust="spacing" textLength="10.122" x="38.3889" y="368.7339">13</text><text fill="#000000" font-family="sans-serif" font-size="9.1" lengthAdjust="spacing" textLength="64.7442" x="51.3109" y="368.7339">selects line type</text><polygon fill="#181818" points="599.8132,391.5215,606.8132,394.3215,599.8132,397.1215,602.6132,394.3215" style="stroke:#181818;stroke-width:0.6999999999999998;"/><line style="stroke:#181818;stroke-width:0.6999999999999998;" x1="240.6848" x2="604.0132" y1="394.3215" y2="394.3215"/><text fill="#000000" font-family="sans-serif" font-size="9.1" font-weight="bold" lengthAdjust="spacing" textLength="10.122" x="245.5848" y="390.6376">14</text><text fill="#000000" font-family="sans-serif" font-size="9.1" lengthAdjust="spacing" textLength="82.9397" x="258.5068" y="390.6376">filterGraph(lineType)</text><polygon fill="#181818" points="248.3848,413.4252,241.3848,416.2252,248.3848,419.0252,245.5848,416.2252" style="stroke:#181818;stroke-width:0.6999999999999998;"/><line style="stroke:#181818;stroke-width:0.6999999999999998;stroke-dasharray:2.0,2.0;" x1="244.1848" x2="611.0132" y1="416.2252" y2="416.2252"/><text fill="#000000" font-family="sans-serif" font-size="9.1" font-weight="bold" lengthAdjust="spacing" textLength="10.122" x="252.5848" y="412.5413">15</text><text fill="#000000" font-family="sans-serif" font-size="9.1" lengthAdjust="spacing" textLength="53.1159" x="265.5068" y="412.5413">filtered graph</text><polygon fill="#181818" points="41.1889,435.3289,34.1889,438.1289,41.1889,440.9289,38.3889,438.1289" style="stroke:#181818;stroke-width:0.6999999999999998;"/><line style="stroke:#181818;stroke-width:0.6999999999999998;" x1="36.9889" x2="232.9848" y1="438.1289" y2="438.1289"/><text fill="#000000" font-family="sans-serif" font-size="9.1" font-weight="bold" lengthAdjust="spacing" textLength="10.122" x="45.3889" y="434.445">16</text><text fill="#000000" font-family="sans-serif" font-size="9.1" lengthAdjust="spacing" textLength="119.3842" x="58.3109" y="434.445">requests station input method</text><polygon fill="#181818" points="225.2848,457.2326,232.2848,460.0326,225.2848,462.8326,228.0848,460.0326" style="stroke:#181818;stroke-width:0.6999999999999998;"/><line style="stroke:#181818;stroke-width:0.6999999999999998;" x1="33.4889" x2="229.4848" y1="460.0326" y2="460.0326"/><text fill="#000000" font-family="sans-serif" font-size="9.1" font-weight="bold" lengthAdjust="spacing" textLength="10.122" x="38.3889" y="456.3487">17</text><text fill="#000000" font-family="sans-serif" font-size="9.1" lengthAdjust="spacing" textLength="83.4641" x="51.3109" y="456.3487">selects input method</text><path d="M7,470.5326 L49.1196,470.5326 L49.1196,477.0363 L42.1196,484.0363 L7,484.0363 L7,470.5326 " fill="#EEEEEE" style="stroke:#000000;stroke-width:1.0499999999999998;"/><rect fill="none" height="187.5713" style="stroke:#000000;stroke-width:1.0499999999999998;" width="483.6863" x="7" y="470.5326"/><text fill="#000000" font-family="sans-serif" font-size="9.1" font-weight="bold" lengthAdjust="spacing" textLength="10.6196" x="17.5" y="481.0524">alt</text><text fill="#000000" font-family="sans-serif" font-size="7.7" font-weight="bold" lengthAdjust="spacing" textLength="75.4923" x="59.6196" y="480.2417">[Input Method = File]</text><polygon fill="#181818" points="41.1889,497.54,34.1889,500.34,41.1889,503.14,38.3889,500.34" style="stroke:#181818;stroke-width:0.6999999999999998;"/><line style="stroke:#181818;stroke-width:0.6999999999999998;" x1="36.9889" x2="232.9848" y1="500.34" y2="500.34"/><text fill="#000000" font-family="sans-serif" font-size="9.1" font-weight="bold" lengthAdjust="spacing" textLength="10.122" x="45.3889" y="496.6562">18</text><text fill="#000000" font-family="sans-serif" font-size="9.1" lengthAdjust="spacing" textLength="118.3711" x="58.3109" y="496.6562">requests stop station file path</text><polygon fill="#181818" points="225.2848,519.4437,232.2848,522.2437,225.2848,525.0437,228.0848,522.2437" style="stroke:#181818;stroke-width:0.6999999999999998;"/><line style="stroke:#181818;stroke-width:0.6999999999999998;" x1="33.4889" x2="229.4848" y1="522.2437" y2="522.2437"/><text fill="#000000" font-family="sans-serif" font-size="9.1" font-weight="bold" lengthAdjust="spacing" textLength="10.122" x="38.3889" y="518.5599">19</text><text fill="#000000" font-family="sans-serif" font-size="9.1" lengthAdjust="spacing" textLength="117.8646" x="51.3109" y="518.5599">provides stop station file path</text><polygon fill="#181818" points="445.6522,541.3475,452.6522,544.1475,445.6522,546.9475,448.4522,544.1475" style="stroke:#181818;stroke-width:0.6999999999999998;"/><line style="stroke:#181818;stroke-width:0.6999999999999998;" x1="240.6848" x2="449.8522" y1="544.1475" y2="544.1475"/><text fill="#000000" font-family="sans-serif" font-size="9.1" font-weight="bold" lengthAdjust="spacing" textLength="10.122" x="245.5848" y="540.4636">20</text><text fill="#000000" font-family="sans-serif" font-size="9.1" lengthAdjust="spacing" textLength="116.3405" x="258.5068" y="540.4636">readStopStationFile(filePath)</text><polygon fill="#181818" points="248.3848,563.2512,241.3848,566.0512,248.3848,568.8512,245.5848,566.0512" style="stroke:#181818;stroke-width:0.6999999999999998;"/><line style="stroke:#181818;stroke-width:0.6999999999999998;stroke-dasharray:2.0,2.0;" x1="244.1848" x2="456.8522" y1="566.0512" y2="566.0512"/><text fill="#000000" font-family="sans-serif" font-size="9.1" font-weight="bold" lengthAdjust="spacing" textLength="10.122" x="252.5848" y="562.3673">21</text><text fill="#000000" font-family="sans-serif" font-size="9.1" lengthAdjust="spacing" textLength="67.2769" x="265.5068" y="562.3673">required stations</text><line style="stroke:#000000;stroke-width:0.6999999999999998;stroke-dasharray:2.0,2.0;" x1="7" x2="490.6863" y1="572.3512" y2="572.3512"/><text fill="#000000" font-family="sans-serif" font-size="7.7" font-weight="bold" lengthAdjust="spacing" textLength="88.753" x="10.5" y="580.6603">[Input Method = Manual]</text><polygon fill="#181818" points="41.1889,596.7965,34.1889,599.5965,41.1889,602.3965,38.3889,599.5965" style="stroke:#181818;stroke-width:0.6999999999999998;"/><line style="stroke:#181818;stroke-width:0.6999999999999998;" x1="36.9889" x2="232.9848" y1="599.5965" y2="599.5965"/><text fill="#000000" font-family="sans-serif" font-size="9.1" font-weight="bold" lengthAdjust="spacing" textLength="10.122" x="45.3889" y="595.9126">22</text><text fill="#000000" font-family="sans-serif" font-size="9.1" lengthAdjust="spacing" textLength="105.2143" x="58.3109" y="595.9126">displays available stations</text><polygon fill="#181818" points="225.2848,618.7002,232.2848,621.5002,225.2848,624.3002,228.0848,621.5002" style="stroke:#181818;stroke-width:0.6999999999999998;"/><line style="stroke:#181818;stroke-width:0.6999999999999998;" x1="33.4889" x2="229.4848" y1="621.5002" y2="621.5002"/><text fill="#000000" font-family="sans-serif" font-size="9.1" font-weight="bold" lengthAdjust="spacing" textLength="10.122" x="38.3889" y="617.8163">23</text><text fill="#000000" font-family="sans-serif" font-size="9.1" lengthAdjust="spacing" textLength="62.2115" x="51.3109" y="617.8163">selects stations</text><line style="stroke:#181818;stroke-width:0.6999999999999998;" x1="240.6848" x2="270.0848" y1="643.4039" y2="643.4039"/><line style="stroke:#181818;stroke-width:0.6999999999999998;" x1="270.0848" x2="270.0848" y1="643.4039" y2="652.5039"/><line style="stroke:#181818;stroke-width:0.6999999999999998;" x1="241.3848" x2="270.0848" y1="652.5039" y2="652.5039"/><polygon fill="#181818" points="248.3848,649.7039,241.3848,652.5039,248.3848,655.3039,245.5848,652.5039" style="stroke:#181818;stroke-width:0.6999999999999998;"/><text fill="#000000" font-family="sans-serif" font-size="9.1" font-weight="bold" lengthAdjust="spacing" textLength="10.122" x="245.5848" y="639.72">24</text><text fill="#000000" font-family="sans-serif" font-size="9.1" lengthAdjust="spacing" textLength="88.5206" x="258.5068" y="639.72">getRequiredStations()</text><polygon fill="#181818" points="522.0776,676.5076,529.0776,679.3076,522.0776,682.1076,524.8776,679.3076" style="stroke:#181818;stroke-width:0.6999999999999998;"/><line style="stroke:#181818;stroke-width:0.6999999999999998;" x1="240.6848" x2="526.2776" y1="679.3076" y2="679.3076"/><text fill="#000000" font-family="sans-serif" font-size="9.1" font-weight="bold" lengthAdjust="spacing" textLength="10.122" x="245.5848" y="675.6237">25</text><text fill="#000000" font-family="sans-serif" font-size="9.1" lengthAdjust="spacing" textLength="200.8265" x="258.5068" y="675.6237">findPathThroughStations(graph, requiredStations)</text><polygon fill="#181818" points="603.3132,698.4113,610.3132,701.2113,603.3132,704.0113,606.1132,701.2113" style="stroke:#181818;stroke-width:0.6999999999999998;"/><line style="stroke:#181818;stroke-width:0.6999999999999998;" x1="537.4776" x2="607.5132" y1="701.2113" y2="701.2113"/><text fill="#000000" font-family="sans-serif" font-size="9.1" font-weight="bold" lengthAdjust="spacing" textLength="10.122" x="542.3776" y="697.5274">26</text><text fill="#000000" font-family="sans-serif" font-size="9.1" lengthAdjust="spacing" textLength="44.5136" x="555.2996" y="697.5274">getEdges()</text><polygon fill="#181818" points="545.1776,720.315,538.1776,723.115,545.1776,725.915,542.3776,723.115" style="stroke:#181818;stroke-width:0.6999999999999998;"/><line style="stroke:#181818;stroke-width:0.6999999999999998;stroke-dasharray:2.0,2.0;" x1="540.9776" x2="611.0132" y1="723.115" y2="723.115"/><text fill="#000000" font-family="sans-serif" font-size="9.1" font-weight="bold" lengthAdjust="spacing" textLength="10.122" x="549.3776" y="719.4312">27</text><text fill="#000000" font-family="sans-serif" font-size="9.1" lengthAdjust="spacing" textLength="24.7939" x="562.2996" y="719.4312">edges</text><polygon fill="#181818" points="248.3848,742.2187,241.3848,745.0187,248.3848,747.8187,245.5848,745.0187" style="stroke:#181818;stroke-width:0.6999999999999998;"/><line style="stroke:#181818;stroke-width:0.6999999999999998;stroke-dasharray:2.0,2.0;" x1="244.1848" x2="533.2776" y1="745.0187" y2="745.0187"/><text fill="#000000" font-family="sans-serif" font-size="9.1" font-weight="bold" lengthAdjust="spacing" textLength="10.122" x="252.5848" y="741.3349">28</text><text fill="#000000" font-family="sans-serif" font-size="9.1" lengthAdjust="spacing" textLength="17.7112" x="265.5068" y="741.3349">path</text><polygon fill="#181818" points="643.0344,764.1225,650.0344,766.9225,643.0344,769.7225,645.8344,766.9225" style="stroke:#181818;stroke-width:0.6999999999999998;"/><line style="stroke:#181818;stroke-width:0.6999999999999998;" x1="240.6848" x2="647.2344" y1="766.9225" y2="766.9225"/><text fill="#000000" font-family="sans-serif" font-size="9.1" font-weight="bold" lengthAdjust="spacing" textLength="10.122" x="245.5848" y="763.2386">29</text><text fill="#000000" font-family="sans-serif" font-size="9.1" lengthAdjust="spacing" textLength="88.5117" x="258.5068" y="763.2386">calculatePathDetails()</text><polygon fill="#181818" points="248.3848,786.0262,241.3848,788.8262,248.3848,791.6262,245.5848,788.8262" style="stroke:#181818;stroke-width:0.6999999999999998;"/><line style="stroke:#181818;stroke-width:0.6999999999999998;stroke-dasharray:2.0,2.0;" x1="244.1848" x2="654.2344" y1="788.8262" y2="788.8262"/><text fill="#000000" font-family="sans-serif" font-size="9.1" font-weight="bold" lengthAdjust="spacing" textLength="10.122" x="252.5848" y="785.1423">30</text><text fill="#000000" font-family="sans-serif" font-size="9.1" lengthAdjust="spacing" textLength="46.5442" x="265.5068" y="785.1423">path details</text><polygon fill="#181818" points="445.6522,807.9299,452.6522,810.7299,445.6522,813.5299,448.4522,810.7299" style="stroke:#181818;stroke-width:0.6999999999999998;"/><line style="stroke:#181818;stroke-width:0.6999999999999998;" x1="240.6848" x2="449.8522" y1="810.7299" y2="810.7299"/><text fill="#000000" font-family="sans-serif" font-size="9.1" font-weight="bold" lengthAdjust="spacing" textLength="10.122" x="245.5848" y="807.046">31</text><text fill="#000000" font-family="sans-serif" font-size="9.1" lengthAdjust="spacing" textLength="180.5692" x="258.5068" y="807.046">exportToDOTWithPath(dotPath, graph, path)</text><polygon fill="#181818" points="248.3848,829.8336,241.3848,832.6336,248.3848,835.4336,245.5848,832.6336" style="stroke:#181818;stroke-width:0.6999999999999998;"/><line style="stroke:#181818;stroke-width:0.6999999999999998;stroke-dasharray:2.0,2.0;" x1="244.1848" x2="456.8522" y1="832.6336" y2="832.6336"/><text fill="#000000" font-family="sans-serif" font-size="9.1" font-weight="bold" lengthAdjust="spacing" textLength="10.122" x="252.5848" y="828.9497">32</text><text fill="#000000" font-family="sans-serif" font-size="9.1" lengthAdjust="spacing" textLength="62.2337" x="265.5068" y="828.9497">updated dot file</text><polygon fill="#181818" points="445.6522,851.7373,452.6522,854.5373,445.6522,857.3373,448.4522,854.5373" style="stroke:#181818;stroke-width:0.6999999999999998;"/><line style="stroke:#181818;stroke-width:0.6999999999999998;" x1="240.6848" x2="449.8522" y1="854.5373" y2="854.5373"/><text fill="#000000" font-family="sans-serif" font-size="9.1" font-weight="bold" lengthAdjust="spacing" textLength="10.122" x="245.5848" y="850.8534">33</text><text fill="#000000" font-family="sans-serif" font-size="9.1" lengthAdjust="spacing" textLength="119.3797" x="258.5068" y="850.8534">dotToPNG(dotPath, pngPath)</text><polygon fill="#181818" points="248.3848,873.641,241.3848,876.441,248.3848,879.241,245.5848,876.441" style="stroke:#181818;stroke-width:0.6999999999999998;"/><line style="stroke:#181818;stroke-width:0.6999999999999998;stroke-dasharray:2.0,2.0;" x1="244.1848" x2="456.8522" y1="876.441" y2="876.441"/><text fill="#000000" font-family="sans-serif" font-size="9.1" font-weight="bold" lengthAdjust="spacing" textLength="10.122" x="252.5848" y="872.7571">34</text><text fill="#000000" font-family="sans-serif" font-size="9.1" lengthAdjust="spacing" textLength="64.7664" x="265.5068" y="872.7571">updated png file</text><polygon fill="#181818" points="445.6522,895.5447,452.6522,898.3447,445.6522,901.1447,448.4522,898.3447" style="stroke:#181818;stroke-width:0.6999999999999998;"/><line style="stroke:#181818;stroke-width:0.6999999999999998;" x1="240.6848" x2="449.8522" y1="898.3447" y2="898.3447"/><text fill="#000000" font-family="sans-serif" font-size="9.1" font-weight="bold" lengthAdjust="spacing" textLength="10.122" x="245.5848" y="894.6608">35</text><text fill="#000000" font-family="sans-serif" font-size="9.1" lengthAdjust="spacing" textLength="74.8706" x="258.5068" y="894.6608">openFile(pngPath)</text><polygon fill="#181818" points="248.3848,917.4484,241.3848,920.2484,248.3848,923.0484,245.5848,920.2484" style="stroke:#181818;stroke-width:0.6999999999999998;"/><line style="stroke:#181818;stroke-width:0.6999999999999998;stroke-dasharray:2.0,2.0;" x1="244.1848" x2="456.8522" y1="920.2484" y2="920.2484"/><text fill="#000000" font-family="sans-serif" font-size="9.1" font-weight="bold" lengthAdjust="spacing" textLength="10.122" x="252.5848" y="916.5646">36</text><text fill="#000000" font-family="sans-serif" font-size="9.1" lengthAdjust="spacing" textLength="82.4643" x="265.5068" y="916.5646">visualization opened</text><polygon fill="#181818" points="41.1889,939.3521,34.1889,942.1521,41.1889,944.9521,38.3889,942.1521" style="stroke:#181818;stroke-width:0.6999999999999998;"/><line style="stroke:#181818;stroke-width:0.6999999999999998;" x1="36.9889" x2="232.9848" y1="942.1521" y2="942.1521"/><text fill="#000000" font-family="sans-serif" font-size="9.1" font-weight="bold" lengthAdjust="spacing" textLength="10.122" x="45.3889" y="938.4683">37</text><text fill="#000000" font-family="sans-serif" font-size="9.1" lengthAdjust="spacing" textLength="81.9489" x="58.3109" y="938.4683">displays path details</text><polygon fill="#181818" points="41.1889,961.2559,34.1889,964.0559,41.1889,966.8559,38.3889,964.0559" style="stroke:#181818;stroke-width:0.6999999999999998;"/><line style="stroke:#181818;stroke-width:0.6999999999999998;" x1="36.9889" x2="236.4848" y1="964.0559" y2="964.0559"/><text fill="#000000" font-family="sans-serif" font-size="9.1" font-weight="bold" lengthAdjust="spacing" textLength="10.122" x="45.3889" y="960.372">38</text><text fill="#000000" font-family="sans-serif" font-size="9.1" lengthAdjust="spacing" textLength="170.4739" x="58.3109" y="960.372">displays visualization with highlighted path</text><!--SRC=[nLLDZzCm4BtdLunwwagx5ov8aK2g25rnMBOYBPozyP2OTUDWJxeilvuPfqcJQ0CSaAZKnFQyUVFfYMh9rUtn0Nr2XYp2AiVlBTO5GcPKwTKHRk2GlteDAMnDhI6ld2SC13j5rIf9L47EmywgPwPeb2TJc4RL1AkqXmfITD6lG0N8TziPS6iiXWCP6o9WUvZ9C_FjCP1N6riwRwWwHbYscS5klMggA8ghcJJwAq9PYDlcf0XxpxiNtBmLzrBmaeH00SZ1Lmaxz64t4ss99U67A7OK8zrGOAsy4GPER5IScMcyEncDBqBFhDj32jOf_Ix_l1QXU7yDWHGPLuThA2NKuU3USvQlBlvnAhS7kEdjrKXFpZ-2LgGYA-f4unWzDei_6WvwxxBx_LexwYn7UyiM6DV5K7XayU_e6Rftku-t5-wcBcMnpCw0lsLt3TRIL-i_afvCQ9KrFsC2ezuYSLzYRKB3op0aTC8nht90YmNtWpKr0ZqtsDF5Daqb8a8VDsl1x1aoShThvlYyEDtfeExgCNQtWoytPTSeOEgc9JWYLKulEJp19CeIV8WdT_44te0aE07-BLjppM3oqjkYidWLbbL6vUNwwvoHUGUCbUwlnrK4Z-id-t79nJyZsUllKKHCQuusu3pUErLpcL-AUEW8TLB6gWTsUyAzaE49vamP0INIfxEJvn33-Yh1MW-LpJPf74qIyRxohYsh0NaU2dx6C6eg7fxPPjI3RE-zBb6CN3fDJA2SHknGAId7A5TCDNGRYr8eb2rQooBPPaYS4E6zZDmu2VanvUJyH-YOEq8NPj8N_XA8V3QRhYFPydLl6osZOvXK_tP2zUpzfFhl4sgIsINGrC0J9nOgKrQM_p6OMSNbg_SB]--></g></svg>