<svg xmlns="http://www.w3.org/2000/svg" xmlns:xlink="http://www.w3.org/1999/xlink" contentStyleType="text/css" height="380px" preserveAspectRatio="none" style="width:477px;height:380px;background:#FFFFFF;" version="1.1" viewBox="0 0 477 380" width="477px" zoomAndPan="magnify"><defs/><g><rect fill="#FFFFFF" height="215.7461" style="stroke:#181818;stroke-width:1.0;" width="10" x="135.0044" y="90.5332"/><rect fill="#FFFFFF" height="119.873" style="stroke:#181818;stroke-width:1.0;" width="10" x="295.8506" y="148.1152"/><rect fill="#FFFFFF" height="42.291" style="stroke:#181818;stroke-width:1.0;" width="10" x="300.8506" y="187.4063"/><rect fill="none" height="170.4551" style="stroke:#000000;stroke-width:1.5;" width="410.5474" x="61.1494" y="105.5332"/><line style="stroke:#181818;stroke-width:0.5;stroke-dasharray:5.0,5.0;" x1="139.1494" x2="139.1494" y1="57.2422" y2="324.2793"/><line style="stroke:#181818;stroke-width:0.5;stroke-dasharray:5.0,5.0;" x1="300.3403" x2="300.3403" y1="57.2422" y2="324.2793"/><rect fill="#E3E3E3" height="32.6211" rx="2.5" ry="2.5" style="stroke:#181818;stroke-width:0.5;" width="137.71" x="71.1494" y="23.6211"/><text fill="#000000" font-family="sans-serif" font-size="14" lengthAdjust="spacing" textLength="123.71" x="78.1494" y="45.7285">:SimulatorController</text><rect fill="#E3E3E3" height="32.6211" rx="2.5" ry="2.5" style="stroke:#181818;stroke-width:0.5;" width="137.71" x="71.1494" y="323.2793"/><text fill="#000000" font-family="sans-serif" font-size="14" lengthAdjust="spacing" textLength="123.71" x="78.1494" y="345.3867">:SimulatorController</text><rect fill="#E3E3E3" height="51.2422" rx="2.5" ry="2.5" style="stroke:#181818;stroke-width:0.5;" width="77.0205" x="262.3403" y="5"/><text fill="#000000" font-family="sans-serif" font-size="14" lengthAdjust="spacing" textLength="56.793" x="272.4541" y="27.1074">simulator</text><text fill="#000000" font-family="sans-serif" font-size="14" lengthAdjust="spacing" textLength="63.0205" x="269.3403" y="45.7285">:Simulator</text><rect fill="#E3E3E3" height="51.2422" rx="2.5" ry="2.5" style="stroke:#181818;stroke-width:0.5;" width="77.0205" x="262.3403" y="323.2793"/><text fill="#000000" font-family="sans-serif" font-size="14" lengthAdjust="spacing" textLength="56.793" x="272.4541" y="345.3867">simulator</text><text fill="#000000" font-family="sans-serif" font-size="14" lengthAdjust="spacing" textLength="63.0205" x="269.3403" y="364.0078">:Simulator</text><rect fill="#FFFFFF" height="215.7461" style="stroke:#181818;stroke-width:1.0;" width="10" x="135.0044" y="90.5332"/><rect fill="#FFFFFF" height="119.873" style="stroke:#181818;stroke-width:1.0;" width="10" x="295.8506" y="148.1152"/><rect fill="#FFFFFF" height="42.291" style="stroke:#181818;stroke-width:1.0;" width="10" x="300.8506" y="187.4063"/><polygon fill="#181818" points="123.0044,86.5332,133.0044,90.5332,123.0044,94.5332,127.0044,90.5332" style="stroke:#181818;stroke-width:1.0;"/><line style="stroke:#181818;stroke-width:1.0;" x1="0" x2="129.0044" y1="90.5332" y2="90.5332"/><text fill="#000000" font-family="sans-serif" font-size="13" font-weight="bold" lengthAdjust="spacing" textLength="14.46" x="7" y="85.2705">12</text><text fill="#000000" font-family="sans-serif" font-size="13" lengthAdjust="spacing" textLength="93.9263" x="25.46" y="85.2705">stopSimulation()</text><path d="M61.1494,105.5332 L198.5967,105.5332 L198.5967,114.8242 L188.5967,124.8242 L61.1494,124.8242 L61.1494,105.5332 " fill="#EEEEEE" style="stroke:#000000;stroke-width:1.5;"/><rect fill="none" height="170.4551" style="stroke:#000000;stroke-width:1.5;" width="410.5474" x="61.1494" y="105.5332"/><text fill="#000000" font-family="sans-serif" font-size="13" font-weight="bold" lengthAdjust="spacing" textLength="92.4473" x="76.1494" y="120.5615">Stop Simulator</text><polygon fill="#181818" points="283.8506,144.1152,293.8506,148.1152,283.8506,152.1152,287.8506,148.1152" style="stroke:#181818;stroke-width:1.0;"/><line style="stroke:#181818;stroke-width:1.0;" x1="145.0044" x2="289.8506" y1="148.1152" y2="148.1152"/><text fill="#000000" font-family="sans-serif" font-size="13" font-weight="bold" lengthAdjust="spacing" textLength="25.3018" x="152.0044" y="142.8525">12.1</text><text fill="#000000" font-family="sans-serif" font-size="13" lengthAdjust="spacing" textLength="33.23" x="181.3062" y="142.8525">stop()</text><line style="stroke:#181818;stroke-width:1.0;" x1="305.8506" x2="352.8506" y1="174.4063" y2="174.4063"/><line style="stroke:#181818;stroke-width:1.0;" x1="352.8506" x2="352.8506" y1="174.4063" y2="187.4063"/><line style="stroke:#181818;stroke-width:1.0;" x1="311.8506" x2="352.8506" y1="187.4063" y2="187.4063"/><polygon fill="#181818" points="321.8506,183.4063,311.8506,187.4063,321.8506,191.4063,317.8506,187.4063" style="stroke:#181818;stroke-width:1.0;"/><text fill="#000000" font-family="sans-serif" font-size="13" font-weight="bold" lengthAdjust="spacing" textLength="25.3018" x="317.8506" y="169.1436">12.2</text><text fill="#000000" font-family="sans-serif" font-size="13" lengthAdjust="spacing" textLength="98.998" x="347.1523" y="169.1436">generateReport()</text><line style="stroke:#181818;stroke-width:1.0;stroke-dasharray:2.0,2.0;" x1="310.8506" x2="352.8506" y1="228.6973" y2="228.6973"/><line style="stroke:#181818;stroke-width:1.0;stroke-dasharray:2.0,2.0;" x1="352.8506" x2="352.8506" y1="228.6973" y2="241.6973"/><line style="stroke:#181818;stroke-width:1.0;stroke-dasharray:2.0,2.0;" x1="305.8506" x2="352.8506" y1="241.6973" y2="241.6973"/><polygon fill="#181818" points="315.8506,237.6973,305.8506,241.6973,315.8506,245.6973,311.8506,241.6973" style="stroke:#181818;stroke-width:1.0;"/><text fill="#000000" font-family="sans-serif" font-size="13" font-weight="bold" lengthAdjust="spacing" textLength="25.3018" x="317.8506" y="223.4346">12.3</text><text fill="#000000" font-family="sans-serif" font-size="13" lengthAdjust="spacing" textLength="97.5444" x="347.1523" y="223.4346">simulationReport</text><polygon fill="#181818" points="156.0044,263.9883,146.0044,267.9883,156.0044,271.9883,152.0044,267.9883" style="stroke:#181818;stroke-width:1.0;"/><line style="stroke:#181818;stroke-width:1.0;stroke-dasharray:2.0,2.0;" x1="150.0044" x2="299.8506" y1="267.9883" y2="267.9883"/><text fill="#000000" font-family="sans-serif" font-size="13" font-weight="bold" lengthAdjust="spacing" textLength="25.3018" x="162.0044" y="262.7256">12.4</text><text fill="#000000" font-family="sans-serif" font-size="13" lengthAdjust="spacing" textLength="97.5444" x="191.3062" y="262.7256">simulationReport</text><polygon fill="#181818" points="11,302.2793,1,306.2793,11,310.2793,7,306.2793" style="stroke:#181818;stroke-width:1.0;"/><line style="stroke:#181818;stroke-width:1.0;stroke-dasharray:2.0,2.0;" x1="5" x2="139.0044" y1="306.2793" y2="306.2793"/><text fill="#000000" font-family="sans-serif" font-size="13" font-weight="bold" lengthAdjust="spacing" textLength="14.46" x="17" y="301.0166">13</text><text fill="#000000" font-family="sans-serif" font-size="13" lengthAdjust="spacing" textLength="97.5444" x="35.46" y="301.0166">simulationReport</text><!--SRC=[VP31JiCm38RlUGfh9pWKQN2R49UTaE2oSkHYMjD5I-qeSK6yFMcsPkt4yD7-_i-9uy6onu0zzCBIx8Fq11e6Ch5CF3O7xAZM7qSGg57apis1kCTMlYrty8akaZ6fhRQn7bbXjQbjFpXK2LjX3U8SXHLWXEtRxcM9nebyvtCgi_Npgp4ugF3GVr20zRsfdh81DX1L_0ctmZUt5-JTsc2ZzWkLZZiXLHTay52d99HDUJ1MzYP_sdhI9-aqBAxnJJ2haIwXZfX2edRa9UWi_g-YQCxBox-EfWNUqi9a_j9CDxhckN2CBUBsw9gVyI5t7glggd5cocV-1G00]--></g></svg>