<svg xmlns="http://www.w3.org/2000/svg" xmlns:xlink="http://www.w3.org/1999/xlink" contentStyleType="text/css" height="1717px" preserveAspectRatio="none" style="width:961px;height:1717px;background:#FFFFFF;" version="1.1" viewBox="0 0 961 1717" width="961px" zoomAndPan="magnify"><defs/><g><rect fill="#FFFFFF" height="1530.793" style="stroke:#181818;stroke-width:1.0;" width="10" x="74.686" y="93.6211"/><rect fill="#FFFFFF" height="296.5801" style="stroke:#181818;stroke-width:1.0;" width="10" x="546.231" y="116.9121"/><rect fill="#FFFFFF" height="142.125" style="stroke:#181818;stroke-width:1.0;" width="10" x="546.231" y="444.7832"/><rect fill="#FFFFFF" height="142.125" style="stroke:#181818;stroke-width:1.0;" width="10" x="546.231" y="670.7813"/><rect fill="#FFFFFF" height="142.125" style="stroke:#181818;stroke-width:1.0;" width="10" x="546.231" y="844.1973"/><rect fill="#FFFFFF" height="142.125" style="stroke:#181818;stroke-width:1.0;" width="10" x="546.231" y="1034.2441"/><rect fill="#FFFFFF" height="142.125" style="stroke:#181818;stroke-width:1.0;" width="10" x="546.231" y="1207.6602"/><rect fill="#FFFFFF" height="31.291" style="stroke:#181818;stroke-width:1.0;" width="10" x="546.231" y="1397.707"/><rect fill="#FFFFFF" height="142.125" style="stroke:#181818;stroke-width:1.0;" width="10" x="546.231" y="1460.2891"/><rect fill="#FFFFFF" height="79.543" style="stroke:#181818;stroke-width:1.0;" width="10" x="861.7588" y="191.8242"/><rect fill="#FFFFFF" height="79.543" style="stroke:#181818;stroke-width:1.0;" width="10" x="861.7588" y="302.6582"/><rect fill="#FFFFFF" height="79.543" style="stroke:#181818;stroke-width:1.0;" width="10" x="861.7588" y="476.0742"/><rect fill="#FFFFFF" height="79.543" style="stroke:#181818;stroke-width:1.0;" width="10" x="861.7588" y="702.0723"/><rect fill="#FFFFFF" height="79.543" style="stroke:#181818;stroke-width:1.0;" width="10" x="861.7588" y="875.4883"/><rect fill="#FFFFFF" height="79.543" style="stroke:#181818;stroke-width:1.0;" width="10" x="861.7588" y="1065.5352"/><rect fill="#FFFFFF" height="79.543" style="stroke:#181818;stroke-width:1.0;" width="10" x="861.7588" y="1238.9512"/><rect fill="#FFFFFF" height="79.543" style="stroke:#181818;stroke-width:1.0;" width="10" x="861.7588" y="1491.5801"/><rect fill="none" height="1015.5059" style="stroke:#000000;stroke-width:1.5;" width="945.6138" x="10" y="601.9082"/><rect fill="none" height="982.2148" style="stroke:#000000;stroke-width:1.5;" width="925.6138" x="20" y="628.1992"/><line style="stroke:#181818;stroke-width:0.5;stroke-dasharray:5.0,5.0;" x1="79" x2="79" y1="83.6211" y2="1634.4141"/><line style="stroke:#181818;stroke-width:0.5;stroke-dasharray:5.0,5.0;" x1="550.7207" x2="550.7207" y1="83.6211" y2="1634.4141"/><line style="stroke:#181818;stroke-width:0.5;stroke-dasharray:5.0,5.0;" x1="865.9038" x2="865.9038" y1="156.7227" y2="1634.4141"/><text fill="#000000" font-family="sans-serif" font-size="14" lengthAdjust="spacing" textLength="93.3721" x="30" y="80.1074">Product Owner</text><ellipse cx="79.686" cy="13.5" fill="#E3E3E3" rx="8" ry="8" style="stroke:#181818;stroke-width:0.5;"/><path d="M79.686,21.5 L79.686,48.5 M66.686,29.5 L92.686,29.5 M79.686,48.5 L66.686,63.5 M79.686,48.5 L92.686,63.5 " fill="none" style="stroke:#181818;stroke-width:0.5;"/><text fill="#000000" font-family="sans-serif" font-size="14" lengthAdjust="spacing" textLength="93.3721" x="30" y="1648.5215">Product Owner</text><ellipse cx="79.686" cy="1660.5352" fill="#E3E3E3" rx="8" ry="8" style="stroke:#181818;stroke-width:0.5;"/><path d="M79.686,1668.5352 L79.686,1695.5352 M66.686,1676.5352 L92.686,1676.5352 M79.686,1695.5352 L66.686,1710.5352 M79.686,1695.5352 L92.686,1710.5352 " fill="none" style="stroke:#181818;stroke-width:0.5;"/><rect fill="#E3E3E3" height="32.6211" rx="2.5" ry="2.5" style="stroke:#181818;stroke-width:0.5;" width="91.0205" x="505.7207" y="50"/><text fill="#000000" font-family="sans-serif" font-size="14" lengthAdjust="spacing" textLength="77.0205" x="512.7207" y="72.1074">:SimulatorUI</text><rect fill="#E3E3E3" height="32.6211" rx="2.5" ry="2.5" style="stroke:#181818;stroke-width:0.5;" width="91.0205" x="505.7207" y="1633.4141"/><text fill="#000000" font-family="sans-serif" font-size="14" lengthAdjust="spacing" textLength="77.0205" x="512.7207" y="1655.5215">:SimulatorUI</text><rect fill="#E3E3E3" height="32.6211" rx="2.5" ry="2.5" style="stroke:#181818;stroke-width:0.5;" width="137.71" x="797.9038" y="1633.4141"/><text fill="#000000" font-family="sans-serif" font-size="14" lengthAdjust="spacing" textLength="123.71" x="804.9038" y="1655.5215">:SimulatorController</text><rect fill="#FFFFFF" height="1530.793" style="stroke:#181818;stroke-width:1.0;" width="10" x="74.686" y="93.6211"/><rect fill="#FFFFFF" height="296.5801" style="stroke:#181818;stroke-width:1.0;" width="10" x="546.231" y="116.9121"/><rect fill="#FFFFFF" height="142.125" style="stroke:#181818;stroke-width:1.0;" width="10" x="546.231" y="444.7832"/><rect fill="#FFFFFF" height="142.125" style="stroke:#181818;stroke-width:1.0;" width="10" x="546.231" y="670.7813"/><rect fill="#FFFFFF" height="142.125" style="stroke:#181818;stroke-width:1.0;" width="10" x="546.231" y="844.1973"/><rect fill="#FFFFFF" height="142.125" style="stroke:#181818;stroke-width:1.0;" width="10" x="546.231" y="1034.2441"/><rect fill="#FFFFFF" height="142.125" style="stroke:#181818;stroke-width:1.0;" width="10" x="546.231" y="1207.6602"/><rect fill="#FFFFFF" height="31.291" style="stroke:#181818;stroke-width:1.0;" width="10" x="546.231" y="1397.707"/><rect fill="#FFFFFF" height="142.125" style="stroke:#181818;stroke-width:1.0;" width="10" x="546.231" y="1460.2891"/><rect fill="#FFFFFF" height="79.543" style="stroke:#181818;stroke-width:1.0;" width="10" x="861.7588" y="191.8242"/><rect fill="#FFFFFF" height="79.543" style="stroke:#181818;stroke-width:1.0;" width="10" x="861.7588" y="302.6582"/><rect fill="#FFFFFF" height="79.543" style="stroke:#181818;stroke-width:1.0;" width="10" x="861.7588" y="476.0742"/><rect fill="#FFFFFF" height="79.543" style="stroke:#181818;stroke-width:1.0;" width="10" x="861.7588" y="702.0723"/><rect fill="#FFFFFF" height="79.543" style="stroke:#181818;stroke-width:1.0;" width="10" x="861.7588" y="875.4883"/><rect fill="#FFFFFF" height="79.543" style="stroke:#181818;stroke-width:1.0;" width="10" x="861.7588" y="1065.5352"/><rect fill="#FFFFFF" height="79.543" style="stroke:#181818;stroke-width:1.0;" width="10" x="861.7588" y="1238.9512"/><rect fill="#FFFFFF" height="79.543" style="stroke:#181818;stroke-width:1.0;" width="10" x="861.7588" y="1491.5801"/><polygon fill="#181818" points="534.231,112.9121,544.231,116.9121,534.231,120.9121,538.231,116.9121" style="stroke:#181818;stroke-width:1.0;"/><line style="stroke:#181818;stroke-width:1.0;" x1="84.686" x2="540.231" y1="116.9121" y2="116.9121"/><text fill="#000000" font-family="sans-serif" font-size="13" font-weight="bold" lengthAdjust="spacing" textLength="7.23" x="91.686" y="111.6494">1</text><text fill="#000000" font-family="sans-serif" font-size="13" lengthAdjust="spacing" textLength="143.0571" x="102.916" y="111.6494">asks to start a simulation</text><polygon fill="#181818" points="785.9038,144.2031,795.9038,148.2031,785.9038,152.2031,789.9038,148.2031" style="stroke:#181818;stroke-width:1.0;"/><line style="stroke:#181818;stroke-width:1.0;stroke-dasharray:2.0,2.0;" x1="556.231" x2="791.9038" y1="148.2031" y2="148.2031"/><text fill="#000000" font-family="sans-serif" font-size="13" font-weight="bold" lengthAdjust="spacing" textLength="7.23" x="563.231" y="142.9404">2</text><text fill="#000000" font-family="sans-serif" font-size="13" lengthAdjust="spacing" textLength="44.7891" x="574.4609" y="142.9404">create()</text><rect fill="#E3E3E3" height="32.6211" rx="2.5" ry="2.5" style="stroke:#181818;stroke-width:0.5;" width="137.71" x="797.9038" y="124.9121"/><text fill="#000000" font-family="sans-serif" font-size="14" lengthAdjust="spacing" textLength="123.71" x="804.9038" y="147.0195">:SimulatorController</text><polygon fill="#181818" points="849.7588,187.8242,859.7588,191.8242,849.7588,195.8242,853.7588,191.8242" style="stroke:#181818;stroke-width:1.0;"/><line style="stroke:#181818;stroke-width:1.0;" x1="556.231" x2="855.7588" y1="191.8242" y2="191.8242"/><text fill="#000000" font-family="sans-serif" font-size="13" font-weight="bold" lengthAdjust="spacing" textLength="7.23" x="563.231" y="186.5615">3</text><text fill="#000000" font-family="sans-serif" font-size="13" lengthAdjust="spacing" textLength="111.2744" x="574.4609" y="186.5615">getAvailableMaps()</text><rect fill="none" height="43.252" style="stroke:#000000;stroke-width:1.5;" width="143.71" x="794.9038" y="199.8242"/><path d="M794.9038,199.8242 L855.9038,199.8242 L855.9038,208.8242 L845.9038,218.8242 L794.9038,218.8242 L794.9038,199.8242 " fill="#EEEEEE" style="stroke:#000000;stroke-width:2.0;"/><text fill="#000000" font-family="sans-serif" font-size="13" font-weight="bold" lengthAdjust="spacing" textLength="16.6182" x="807.9038" y="215.8525">ref</text><text fill="#000000" font-family="sans-serif" font-size="12" lengthAdjust="spacing" textLength="104.0508" x="814.7334" y="235.7734">Get Available Maps</text><polygon fill="#181818" points="567.231,267.3672,557.231,271.3672,567.231,275.3672,563.231,271.3672" style="stroke:#181818;stroke-width:1.0;"/><line style="stroke:#181818;stroke-width:1.0;stroke-dasharray:2.0,2.0;" x1="561.231" x2="865.7588" y1="271.3672" y2="271.3672"/><text fill="#000000" font-family="sans-serif" font-size="13" font-weight="bold" lengthAdjust="spacing" textLength="7.23" x="573.231" y="266.1045">4</text><text fill="#000000" font-family="sans-serif" font-size="13" lengthAdjust="spacing" textLength="45.519" x="584.4609" y="266.1045">mapList</text><polygon fill="#181818" points="849.7588,298.6582,859.7588,302.6582,849.7588,306.6582,853.7588,302.6582" style="stroke:#181818;stroke-width:1.0;"/><line style="stroke:#181818;stroke-width:1.0;" x1="556.231" x2="855.7588" y1="302.6582" y2="302.6582"/><text fill="#000000" font-family="sans-serif" font-size="13" font-weight="bold" lengthAdjust="spacing" textLength="7.23" x="563.231" y="297.3955">5</text><text fill="#000000" font-family="sans-serif" font-size="13" lengthAdjust="spacing" textLength="137.2935" x="574.4609" y="297.3955">getAvailableScenarios()</text><rect fill="none" height="43.252" style="stroke:#000000;stroke-width:1.5;" width="143.71" x="794.9038" y="310.6582"/><path d="M794.9038,310.6582 L855.9038,310.6582 L855.9038,319.6582 L845.9038,329.6582 L794.9038,329.6582 L794.9038,310.6582 " fill="#EEEEEE" style="stroke:#000000;stroke-width:2.0;"/><text fill="#000000" font-family="sans-serif" font-size="13" font-weight="bold" lengthAdjust="spacing" textLength="16.6182" x="807.9038" y="326.6865">ref</text><text fill="#000000" font-family="sans-serif" font-size="12" lengthAdjust="spacing" textLength="128.0684" x="802.7246" y="346.6074">Get Available Scenarios</text><polygon fill="#181818" points="567.231,378.2012,557.231,382.2012,567.231,386.2012,563.231,382.2012" style="stroke:#181818;stroke-width:1.0;"/><line style="stroke:#181818;stroke-width:1.0;stroke-dasharray:2.0,2.0;" x1="561.231" x2="865.7588" y1="382.2012" y2="382.2012"/><text fill="#000000" font-family="sans-serif" font-size="13" font-weight="bold" lengthAdjust="spacing" textLength="7.23" x="573.231" y="376.9385">6</text><text fill="#000000" font-family="sans-serif" font-size="13" lengthAdjust="spacing" textLength="69.3672" x="584.4609" y="376.9385">scenarioList</text><polygon fill="#181818" points="95.686,409.4922,85.686,413.4922,95.686,417.4922,91.686,413.4922" style="stroke:#181818;stroke-width:1.0;"/><line style="stroke:#181818;stroke-width:1.0;stroke-dasharray:2.0,2.0;" x1="89.686" x2="550.231" y1="413.4922" y2="413.4922"/><text fill="#000000" font-family="sans-serif" font-size="13" font-weight="bold" lengthAdjust="spacing" textLength="7.23" x="101.686" y="408.2295">7</text><text fill="#000000" font-family="sans-serif" font-size="13" lengthAdjust="spacing" textLength="426.3149" x="112.916" y="408.2295">shows details (map and scenario for the simulation) and asks confirmation</text><polygon fill="#181818" points="534.231,440.7832,544.231,444.7832,534.231,448.7832,538.231,444.7832" style="stroke:#181818;stroke-width:1.0;"/><line style="stroke:#181818;stroke-width:1.0;" x1="84.686" x2="540.231" y1="444.7832" y2="444.7832"/><text fill="#000000" font-family="sans-serif" font-size="13" font-weight="bold" lengthAdjust="spacing" textLength="7.23" x="91.686" y="439.5205">8</text><text fill="#000000" font-family="sans-serif" font-size="13" lengthAdjust="spacing" textLength="111.2554" x="102.916" y="439.5205">confirms simulation</text><polygon fill="#181818" points="849.7588,472.0742,859.7588,476.0742,849.7588,480.0742,853.7588,476.0742" style="stroke:#181818;stroke-width:1.0;"/><line style="stroke:#181818;stroke-width:1.0;" x1="556.231" x2="855.7588" y1="476.0742" y2="476.0742"/><text fill="#000000" font-family="sans-serif" font-size="13" font-weight="bold" lengthAdjust="spacing" textLength="7.23" x="563.231" y="470.8115">9</text><text fill="#000000" font-family="sans-serif" font-size="13" lengthAdjust="spacing" textLength="275.2979" x="574.4609" y="470.8115">startSimulation(selectedMap, selectedScenario)</text><rect fill="none" height="43.252" style="stroke:#000000;stroke-width:1.5;" width="150.0664" x="794.9038" y="484.0742"/><path d="M794.9038,484.0742 L855.9038,484.0742 L855.9038,493.0742 L845.9038,503.0742 L794.9038,503.0742 L794.9038,484.0742 " fill="#EEEEEE" style="stroke:#000000;stroke-width:2.0;"/><text fill="#000000" font-family="sans-serif" font-size="13" font-weight="bold" lengthAdjust="spacing" textLength="16.6182" x="807.9038" y="500.1025">ref</text><text fill="#000000" font-family="sans-serif" font-size="12" lengthAdjust="spacing" textLength="142.0664" x="798.9038" y="520.0234">Create and Start Simulator</text><polygon fill="#181818" points="567.231,551.6172,557.231,555.6172,567.231,559.6172,563.231,555.6172" style="stroke:#181818;stroke-width:1.0;"/><line style="stroke:#181818;stroke-width:1.0;stroke-dasharray:2.0,2.0;" x1="561.231" x2="865.7588" y1="555.6172" y2="555.6172"/><text fill="#000000" font-family="sans-serif" font-size="13" font-weight="bold" lengthAdjust="spacing" textLength="14.46" x="573.231" y="550.3545">10</text><text fill="#000000" font-family="sans-serif" font-size="13" lengthAdjust="spacing" textLength="46.96" x="591.6909" y="550.3545">success</text><polygon fill="#181818" points="95.686,582.9082,85.686,586.9082,95.686,590.9082,91.686,586.9082" style="stroke:#181818;stroke-width:1.0;"/><line style="stroke:#181818;stroke-width:1.0;stroke-dasharray:2.0,2.0;" x1="89.686" x2="550.231" y1="586.9082" y2="586.9082"/><text fill="#000000" font-family="sans-serif" font-size="13" font-weight="bold" lengthAdjust="spacing" textLength="14.46" x="101.686" y="581.6455">11</text><text fill="#000000" font-family="sans-serif" font-size="13" lengthAdjust="spacing" textLength="263.0088" x="120.146" y="581.6455">display operation success (simulation started)</text><path d="M10,601.9082 L82.4346,601.9082 L82.4346,611.1992 L72.4346,621.1992 L10,621.1992 L10,601.9082 " fill="#EEEEEE" style="stroke:#000000;stroke-width:1.5;"/><rect fill="none" height="1015.5059" style="stroke:#000000;stroke-width:1.5;" width="945.6138" x="10" y="601.9082"/><text fill="#000000" font-family="sans-serif" font-size="13" font-weight="bold" lengthAdjust="spacing" textLength="27.4346" x="25" y="616.9365">loop</text><text fill="#000000" font-family="sans-serif" font-size="11" font-weight="bold" lengthAdjust="spacing" textLength="149.1123" x="97.4346" y="615.7783">[while simulation is running]</text><path d="M20,628.1992 L80.1709,628.1992 L80.1709,637.4902 L70.1709,647.4902 L20,647.4902 L20,628.1992 " fill="#EEEEEE" style="stroke:#000000;stroke-width:1.5;"/><rect fill="none" height="982.2148" style="stroke:#000000;stroke-width:1.5;" width="925.6138" x="20" y="628.1992"/><text fill="#000000" font-family="sans-serif" font-size="13" font-weight="bold" lengthAdjust="spacing" textLength="15.1709" x="35" y="643.2275">alt</text><text fill="#000000" font-family="sans-serif" font-size="11" font-weight="bold" lengthAdjust="spacing" textLength="132.6392" x="95.1709" y="642.0693">[user requests operation]</text><polygon fill="#181818" points="534.231,666.7813,544.231,670.7813,534.231,674.7813,538.231,670.7813" style="stroke:#181818;stroke-width:1.0;"/><line style="stroke:#181818;stroke-width:1.0;" x1="84.686" x2="540.231" y1="670.7813" y2="670.7813"/><text fill="#000000" font-family="sans-serif" font-size="13" font-weight="bold" lengthAdjust="spacing" textLength="14.46" x="91.686" y="665.5186">12</text><text fill="#000000" font-family="sans-serif" font-size="13" lengthAdjust="spacing" textLength="327.3169" x="110.146" y="665.5186">asks for operation (buy locomotive, add railway line, etc.)</text><polygon fill="#181818" points="849.7588,698.0723,859.7588,702.0723,849.7588,706.0723,853.7588,702.0723" style="stroke:#181818;stroke-width:1.0;"/><line style="stroke:#181818;stroke-width:1.0;" x1="556.231" x2="855.7588" y1="702.0723" y2="702.0723"/><text fill="#000000" font-family="sans-serif" font-size="13" font-weight="bold" lengthAdjust="spacing" textLength="14.46" x="563.231" y="696.8096">13</text><text fill="#000000" font-family="sans-serif" font-size="13" lengthAdjust="spacing" textLength="206.667" x="581.6909" y="696.8096">getOperationDetails(operationType)</text><rect fill="none" height="43.252" style="stroke:#000000;stroke-width:1.5;" width="143.71" x="794.9038" y="710.0723"/><path d="M794.9038,710.0723 L855.9038,710.0723 L855.9038,719.0723 L845.9038,729.0723 L794.9038,729.0723 L794.9038,710.0723 " fill="#EEEEEE" style="stroke:#000000;stroke-width:2.0;"/><text fill="#000000" font-family="sans-serif" font-size="13" font-weight="bold" lengthAdjust="spacing" textLength="16.6182" x="807.9038" y="726.1006">ref</text><text fill="#000000" font-family="sans-serif" font-size="12" lengthAdjust="spacing" textLength="115.3887" x="809.0645" y="746.0215">Get Operation Details</text><polygon fill="#181818" points="567.231,777.6152,557.231,781.6152,567.231,785.6152,563.231,781.6152" style="stroke:#181818;stroke-width:1.0;"/><line style="stroke:#181818;stroke-width:1.0;stroke-dasharray:2.0,2.0;" x1="561.231" x2="865.7588" y1="781.6152" y2="781.6152"/><text fill="#000000" font-family="sans-serif" font-size="13" font-weight="bold" lengthAdjust="spacing" textLength="14.46" x="573.231" y="776.3525">14</text><text fill="#000000" font-family="sans-serif" font-size="13" lengthAdjust="spacing" textLength="93.9453" x="591.6909" y="776.3525">operationDetails</text><polygon fill="#181818" points="95.686,808.9063,85.686,812.9063,95.686,816.9063,91.686,812.9063" style="stroke:#181818;stroke-width:1.0;"/><line style="stroke:#181818;stroke-width:1.0;stroke-dasharray:2.0,2.0;" x1="89.686" x2="550.231" y1="812.9063" y2="812.9063"/><text fill="#000000" font-family="sans-serif" font-size="13" font-weight="bold" lengthAdjust="spacing" textLength="14.46" x="101.686" y="807.6436">15</text><text fill="#000000" font-family="sans-serif" font-size="13" lengthAdjust="spacing" textLength="259.4224" x="120.146" y="807.6436">shows operation details and ask confirmation</text><polygon fill="#181818" points="534.231,840.1973,544.231,844.1973,534.231,848.1973,538.231,844.1973" style="stroke:#181818;stroke-width:1.0;"/><line style="stroke:#181818;stroke-width:1.0;" x1="84.686" x2="540.231" y1="844.1973" y2="844.1973"/><text fill="#000000" font-family="sans-serif" font-size="13" font-weight="bold" lengthAdjust="spacing" textLength="14.46" x="91.686" y="838.9346">16</text><text fill="#000000" font-family="sans-serif" font-size="13" lengthAdjust="spacing" textLength="106.939" x="110.146" y="838.9346">confirms operation</text><polygon fill="#181818" points="849.7588,871.4883,859.7588,875.4883,849.7588,879.4883,853.7588,875.4883" style="stroke:#181818;stroke-width:1.0;"/><line style="stroke:#181818;stroke-width:1.0;" x1="556.231" x2="855.7588" y1="875.4883" y2="875.4883"/><text fill="#000000" font-family="sans-serif" font-size="13" font-weight="bold" lengthAdjust="spacing" textLength="14.46" x="563.231" y="870.2256">17</text><text fill="#000000" font-family="sans-serif" font-size="13" lengthAdjust="spacing" textLength="267.3633" x="581.6909" y="870.2256">executeOperation(operationType, parameters)</text><rect fill="none" height="43.252" style="stroke:#000000;stroke-width:1.5;" width="143.71" x="794.9038" y="883.4883"/><path d="M794.9038,883.4883 L855.9038,883.4883 L855.9038,892.4883 L845.9038,902.4883 L794.9038,902.4883 L794.9038,883.4883 " fill="#EEEEEE" style="stroke:#000000;stroke-width:2.0;"/><text fill="#000000" font-family="sans-serif" font-size="13" font-weight="bold" lengthAdjust="spacing" textLength="16.6182" x="807.9038" y="899.5166">ref</text><text fill="#000000" font-family="sans-serif" font-size="12" lengthAdjust="spacing" textLength="99.3926" x="817.0625" y="919.4375">Execute Operation</text><polygon fill="#181818" points="567.231,951.0313,557.231,955.0313,567.231,959.0313,563.231,955.0313" style="stroke:#181818;stroke-width:1.0;"/><line style="stroke:#181818;stroke-width:1.0;stroke-dasharray:2.0,2.0;" x1="561.231" x2="865.7588" y1="955.0313" y2="955.0313"/><text fill="#000000" font-family="sans-serif" font-size="13" font-weight="bold" lengthAdjust="spacing" textLength="14.46" x="573.231" y="949.7686">18</text><text fill="#000000" font-family="sans-serif" font-size="13" lengthAdjust="spacing" textLength="31.7891" x="591.6909" y="949.7686">result</text><polygon fill="#181818" points="95.686,982.3223,85.686,986.3223,95.686,990.3223,91.686,986.3223" style="stroke:#181818;stroke-width:1.0;"/><line style="stroke:#181818;stroke-width:1.0;stroke-dasharray:2.0,2.0;" x1="89.686" x2="550.231" y1="986.3223" y2="986.3223"/><text fill="#000000" font-family="sans-serif" font-size="13" font-weight="bold" lengthAdjust="spacing" textLength="14.46" x="101.686" y="981.0596">19</text><text fill="#000000" font-family="sans-serif" font-size="13" lengthAdjust="spacing" textLength="155.3589" x="120.146" y="981.0596">displays operation success</text><line style="stroke:#000000;stroke-width:1.0;stroke-dasharray:2.0,2.0;" x1="20" x2="945.6138" y1="995.3223" y2="995.3223"/><text fill="#000000" font-family="sans-serif" font-size="11" font-weight="bold" lengthAdjust="spacing" textLength="129.5884" x="25" y="1007.1924">[user pauses simulation]</text><polygon fill="#181818" points="534.231,1030.2441,544.231,1034.2441,534.231,1038.2441,538.231,1034.2441" style="stroke:#181818;stroke-width:1.0;"/><line style="stroke:#181818;stroke-width:1.0;" x1="84.686" x2="540.231" y1="1034.2441" y2="1034.2441"/><text fill="#000000" font-family="sans-serif" font-size="13" font-weight="bold" lengthAdjust="spacing" textLength="14.46" x="91.686" y="1028.9814">20</text><text fill="#000000" font-family="sans-serif" font-size="13" lengthAdjust="spacing" textLength="158.2471" x="110.146" y="1028.9814">asks to pause the simulator</text><polygon fill="#181818" points="849.7588,1061.5352,859.7588,1065.5352,849.7588,1069.5352,853.7588,1065.5352" style="stroke:#181818;stroke-width:1.0;"/><line style="stroke:#181818;stroke-width:1.0;" x1="556.231" x2="855.7588" y1="1065.5352" y2="1065.5352"/><text fill="#000000" font-family="sans-serif" font-size="13" font-weight="bold" lengthAdjust="spacing" textLength="14.46" x="563.231" y="1060.2725">21</text><text fill="#000000" font-family="sans-serif" font-size="13" lengthAdjust="spacing" textLength="104.7744" x="581.6909" y="1060.2725">pauseSimulation()</text><rect fill="none" height="43.252" style="stroke:#000000;stroke-width:1.5;" width="143.71" x="794.9038" y="1073.5352"/><path d="M794.9038,1073.5352 L855.9038,1073.5352 L855.9038,1082.5352 L845.9038,1092.5352 L794.9038,1092.5352 L794.9038,1073.5352 " fill="#EEEEEE" style="stroke:#000000;stroke-width:2.0;"/><text fill="#000000" font-family="sans-serif" font-size="13" font-weight="bold" lengthAdjust="spacing" textLength="16.6182" x="807.9038" y="1089.5635">ref</text><text fill="#000000" font-family="sans-serif" font-size="12" lengthAdjust="spacing" textLength="88.043" x="822.7373" y="1109.4844">Pause Simulator</text><polygon fill="#181818" points="567.231,1141.0781,557.231,1145.0781,567.231,1149.0781,563.231,1145.0781" style="stroke:#181818;stroke-width:1.0;"/><line style="stroke:#181818;stroke-width:1.0;stroke-dasharray:2.0,2.0;" x1="561.231" x2="865.7588" y1="1145.0781" y2="1145.0781"/><text fill="#000000" font-family="sans-serif" font-size="13" font-weight="bold" lengthAdjust="spacing" textLength="14.46" x="573.231" y="1139.8154">22</text><text fill="#000000" font-family="sans-serif" font-size="13" lengthAdjust="spacing" textLength="46.96" x="591.6909" y="1139.8154">success</text><polygon fill="#181818" points="95.686,1172.3691,85.686,1176.3691,95.686,1180.3691,91.686,1176.3691" style="stroke:#181818;stroke-width:1.0;"/><line style="stroke:#181818;stroke-width:1.0;stroke-dasharray:2.0,2.0;" x1="89.686" x2="550.231" y1="1176.3691" y2="1176.3691"/><text fill="#000000" font-family="sans-serif" font-size="13" font-weight="bold" lengthAdjust="spacing" textLength="14.46" x="101.686" y="1171.1064">23</text><text fill="#000000" font-family="sans-serif" font-size="13" lengthAdjust="spacing" textLength="312.146" x="120.146" y="1171.1064">pauses simulation and waits for instructions to resume</text><polygon fill="#181818" points="534.231,1203.6602,544.231,1207.6602,534.231,1211.6602,538.231,1207.6602" style="stroke:#181818;stroke-width:1.0;"/><line style="stroke:#181818;stroke-width:1.0;" x1="84.686" x2="540.231" y1="1207.6602" y2="1207.6602"/><text fill="#000000" font-family="sans-serif" font-size="13" font-weight="bold" lengthAdjust="spacing" textLength="14.46" x="91.686" y="1202.3975">24</text><text fill="#000000" font-family="sans-serif" font-size="13" lengthAdjust="spacing" textLength="171.9644" x="110.146" y="1202.3975">asks to resume the simulation</text><polygon fill="#181818" points="849.7588,1234.9512,859.7588,1238.9512,849.7588,1242.9512,853.7588,1238.9512" style="stroke:#181818;stroke-width:1.0;"/><line style="stroke:#181818;stroke-width:1.0;" x1="556.231" x2="855.7588" y1="1238.9512" y2="1238.9512"/><text fill="#000000" font-family="sans-serif" font-size="13" font-weight="bold" lengthAdjust="spacing" textLength="14.46" x="563.231" y="1233.6885">25</text><text fill="#000000" font-family="sans-serif" font-size="13" lengthAdjust="spacing" textLength="112.7026" x="581.6909" y="1233.6885">resumeSimulation()</text><rect fill="none" height="43.252" style="stroke:#000000;stroke-width:1.5;" width="143.71" x="794.9038" y="1246.9512"/><path d="M794.9038,1246.9512 L855.9038,1246.9512 L855.9038,1255.9512 L845.9038,1265.9512 L794.9038,1265.9512 L794.9038,1246.9512 " fill="#EEEEEE" style="stroke:#000000;stroke-width:2.0;"/><text fill="#000000" font-family="sans-serif" font-size="13" font-weight="bold" lengthAdjust="spacing" textLength="16.6182" x="807.9038" y="1262.9795">ref</text><text fill="#000000" font-family="sans-serif" font-size="12" lengthAdjust="spacing" textLength="98.7012" x="817.4082" y="1282.9004">Resume Simulator</text><polygon fill="#181818" points="567.231,1314.4941,557.231,1318.4941,567.231,1322.4941,563.231,1318.4941" style="stroke:#181818;stroke-width:1.0;"/><line style="stroke:#181818;stroke-width:1.0;stroke-dasharray:2.0,2.0;" x1="561.231" x2="865.7588" y1="1318.4941" y2="1318.4941"/><text fill="#000000" font-family="sans-serif" font-size="13" font-weight="bold" lengthAdjust="spacing" textLength="14.46" x="573.231" y="1313.2314">26</text><text fill="#000000" font-family="sans-serif" font-size="13" lengthAdjust="spacing" textLength="46.96" x="591.6909" y="1313.2314">success</text><polygon fill="#181818" points="95.686,1345.7852,85.686,1349.7852,95.686,1353.7852,91.686,1349.7852" style="stroke:#181818;stroke-width:1.0;"/><line style="stroke:#181818;stroke-width:1.0;stroke-dasharray:2.0,2.0;" x1="89.686" x2="550.231" y1="1349.7852" y2="1349.7852"/><text fill="#000000" font-family="sans-serif" font-size="13" font-weight="bold" lengthAdjust="spacing" textLength="14.46" x="101.686" y="1344.5225">27</text><text fill="#000000" font-family="sans-serif" font-size="13" lengthAdjust="spacing" textLength="248.5742" x="120.146" y="1344.5225">resume simulation of the map and scenario</text><line style="stroke:#000000;stroke-width:1.0;stroke-dasharray:2.0,2.0;" x1="20" x2="945.6138" y1="1358.7852" y2="1358.7852"/><text fill="#000000" font-family="sans-serif" font-size="11" font-weight="bold" lengthAdjust="spacing" textLength="121.0161" x="25" y="1370.6553">[user stops simulation]</text><polygon fill="#181818" points="534.231,1393.707,544.231,1397.707,534.231,1401.707,538.231,1397.707" style="stroke:#181818;stroke-width:1.0;"/><line style="stroke:#181818;stroke-width:1.0;" x1="84.686" x2="540.231" y1="1397.707" y2="1397.707"/><text fill="#000000" font-family="sans-serif" font-size="13" font-weight="bold" lengthAdjust="spacing" textLength="14.46" x="91.686" y="1392.4443">28</text><text fill="#000000" font-family="sans-serif" font-size="13" lengthAdjust="spacing" textLength="153.188" x="110.146" y="1392.4443">asks to stop the simulation</text><polygon fill="#181818" points="95.686,1424.998,85.686,1428.998,95.686,1432.998,91.686,1428.998" style="stroke:#181818;stroke-width:1.0;"/><line style="stroke:#181818;stroke-width:1.0;stroke-dasharray:2.0,2.0;" x1="89.686" x2="550.231" y1="1428.998" y2="1428.998"/><text fill="#000000" font-family="sans-serif" font-size="13" font-weight="bold" lengthAdjust="spacing" textLength="14.46" x="101.686" y="1423.7354">29</text><text fill="#000000" font-family="sans-serif" font-size="13" lengthAdjust="spacing" textLength="124.2808" x="120.146" y="1423.7354">requests confirmation</text><polygon fill="#181818" points="534.231,1456.2891,544.231,1460.2891,534.231,1464.2891,538.231,1460.2891" style="stroke:#181818;stroke-width:1.0;"/><line style="stroke:#181818;stroke-width:1.0;" x1="84.686" x2="540.231" y1="1460.2891" y2="1460.2891"/><text fill="#000000" font-family="sans-serif" font-size="13" font-weight="bold" lengthAdjust="spacing" textLength="14.46" x="91.686" y="1455.0264">30</text><text fill="#000000" font-family="sans-serif" font-size="13" lengthAdjust="spacing" textLength="151.0107" x="110.146" y="1455.0264">confirms end of simulation</text><polygon fill="#181818" points="849.7588,1487.5801,859.7588,1491.5801,849.7588,1495.5801,853.7588,1491.5801" style="stroke:#181818;stroke-width:1.0;"/><line style="stroke:#181818;stroke-width:1.0;" x1="556.231" x2="855.7588" y1="1491.5801" y2="1491.5801"/><text fill="#000000" font-family="sans-serif" font-size="13" font-weight="bold" lengthAdjust="spacing" textLength="14.46" x="563.231" y="1486.3174">31</text><text fill="#000000" font-family="sans-serif" font-size="13" lengthAdjust="spacing" textLength="93.9263" x="581.6909" y="1486.3174">stopSimulation()</text><rect fill="none" height="43.252" style="stroke:#000000;stroke-width:1.5;" width="143.71" x="794.9038" y="1499.5801"/><path d="M794.9038,1499.5801 L855.9038,1499.5801 L855.9038,1508.5801 L845.9038,1518.5801 L794.9038,1518.5801 L794.9038,1499.5801 " fill="#EEEEEE" style="stroke:#000000;stroke-width:2.0;"/><text fill="#000000" font-family="sans-serif" font-size="13" font-weight="bold" lengthAdjust="spacing" textLength="16.6182" x="807.9038" y="1515.6084">ref</text><text fill="#000000" font-family="sans-serif" font-size="12" lengthAdjust="spacing" textLength="78.7031" x="827.4072" y="1535.5293">Stop Simulator</text><polygon fill="#181818" points="567.231,1567.123,557.231,1571.123,567.231,1575.123,563.231,1571.123" style="stroke:#181818;stroke-width:1.0;"/><line style="stroke:#181818;stroke-width:1.0;stroke-dasharray:2.0,2.0;" x1="561.231" x2="865.7588" y1="1571.123" y2="1571.123"/><text fill="#000000" font-family="sans-serif" font-size="13" font-weight="bold" lengthAdjust="spacing" textLength="14.46" x="573.231" y="1565.8604">32</text><text fill="#000000" font-family="sans-serif" font-size="13" lengthAdjust="spacing" textLength="97.5444" x="591.6909" y="1565.8604">simulationReport</text><polygon fill="#181818" points="95.686,1598.4141,85.686,1602.4141,95.686,1606.4141,91.686,1602.4141" style="stroke:#181818;stroke-width:1.0;"/><line style="stroke:#181818;stroke-width:1.0;stroke-dasharray:2.0,2.0;" x1="89.686" x2="550.231" y1="1602.4141" y2="1602.4141"/><text fill="#000000" font-family="sans-serif" font-size="13" font-weight="bold" lengthAdjust="spacing" textLength="14.46" x="101.686" y="1597.1514">33</text><text fill="#000000" font-family="sans-serif" font-size="13" lengthAdjust="spacing" textLength="260.8442" x="120.146" y="1597.1514">shows simulation results and creates a report</text><!--SRC=[rLTBRjim4Dth58Eix23k0R8eKAH54I253Jiv04EDRI8KgPAKNT- -8rAYlaxzIGjK6zdMVDzxCvJjcr0vCoo3J2lDjqPd2CuKcDZu96VyZMrmvGuImI1tJ6rasy1kMQhtGcrWpQJ59665qwh8Nj7GP-wqWPk5qMd17Spt2iqDC0kBUKBkJd2HC-NWvdubia8oidvvz0OlZySC7hHoHajPHNfuNZubFfFOCOTbv0JeMinXzfd2m3rPlLbm6goZYC30Xb12AsyPNIadL1VvpSYz37vxIo6uGRAOJ9EEHJ2WnnjqNtPCIFOgyGVBBHdMTWRNe7TeGg7GkhwZW-W5fLjyZ2ej7PjiiSP155_1h6urO_cJi2vQfDZr_7FvAuwA6Q4lwI7wNj-8hKATtWrv4kVakTLxIwQEgh8m8KI0KHLrG5YJ8jqMMogOUWEl4gxLMfYi4KSh9ScZhwpAt9uggOYub-8gEaqiIfejJ4a5Tr1_gU6Sde3USOeyjbw-lisL7u8uJHtJ0LiZl1ISexNdKP8Acqjs09sZyVtMOM3I01SmmNHw37UfTGxxhP1jxa1OC8LIj80QbAI3mX8M1dyMQ9rj4dSwww-8KXbDYPFNua0vkSuq5O9tm592XqIrfqwaKFGBElvfsWavHlonaPlNgRu6hKvYxkT3ZjE1__iKrzCOeq8LTc0volBxwXhNWkurC73fYsCCaUxODl3N0roDvd0oHvBKIXaXE4xgk1HEvWr_8IySHfIxfDs1FnJHeR6N4FWjH6z8_7la6RI5T5THLesr7SxrAGGXlIs4CSqPtGOxzDYKqa7k7TfBlBV7JcRJ1sgjuKiuM_XYnXVgXp8sXksvb0sWzlErPyA5zIUKfHT0NZxnI9SgoV22UQkf2W5w1-vbP8LGLxAr3FNy9tHLwBNeqckFPV-jvho1iqxdvynRQNyDXKqxrNdyKSky98iGkLPPPNzNwcfLGlGlL1NBN6AkZVk0CxUbhd0eX4Ct_EMXp_Jh85ENfrQNINrFMYRqd-mt]--></g></svg>