<svg xmlns="http://www.w3.org/2000/svg" xmlns:xlink="http://www.w3.org/1999/xlink" contentStyleType="text/css" height="346.5px" preserveAspectRatio="none" style="width:378px;height:346px;background:#FFFFFF;" version="1.1" viewBox="0 0 378 346" width="378.4px" zoomAndPan="magnify"><defs/><g><!--class SaveMapUI--><g id="elem_SaveMapUI"><rect codeLine="5" fill="#F1F1F1" height="52.8" id="SaveMapUI" rx="2.75" ry="2.75" style="stroke:#181818;stroke-width:0.55;" width="115.659" x="97.9" y="7.7"/><ellipse cx="114.4" cy="25.3" fill="#C2C2C2" rx="12.1" ry="12.1" style="stroke:#181818;stroke-width:1.1;"/><path d="M117.4422,20.7625 Q117.6141,20.5219 117.8203,20.4016 Q118.0266,20.2813 118.2672,20.2813 Q118.6797,20.2813 118.9375,20.5734 Q119.1953,20.8484 119.1953,21.5188 L119.1953,23.1172 Q119.1953,23.7875 118.9375,24.0797 Q118.6797,24.3719 118.2672,24.3719 Q117.8891,24.3719 117.6656,24.1484 Q117.4422,23.9422 117.3219,23.375 Q117.2703,22.9797 117.0641,22.7734 Q116.7031,22.3609 116.0328,22.1203 Q115.3625,21.8797 114.675,21.8797 Q113.8328,21.8797 113.1281,22.2406 Q112.4406,22.6016 111.8906,23.4266 Q111.3578,24.2516 111.3578,25.3859 L111.3578,26.5891 Q111.3578,27.9469 112.3375,28.8578 Q113.3172,29.7516 115.0703,29.7516 Q116.1016,29.7516 116.8234,29.4766 Q117.2531,29.3047 117.7172,28.8234 Q118.0094,28.5313 118.1641,28.4453 Q118.3359,28.3594 118.5594,28.3594 Q118.9203,28.3594 119.1953,28.6516 Q119.4875,28.9266 119.4875,29.3047 Q119.4875,29.6828 119.1094,30.1297 Q118.5594,30.7656 117.6828,31.1266 Q116.4969,31.625 115.0703,31.625 Q113.4031,31.625 112.0797,30.9375 Q110.9969,30.3875 110.2406,29.2188 Q109.4844,28.0328 109.4844,26.6234 L109.4844,25.3516 Q109.4844,23.8906 110.1547,22.6359 Q110.8422,21.3641 112.0453,20.6938 Q113.2484,20.0063 114.6063,20.0063 Q115.4141,20.0063 116.1188,20.1953 Q116.8406,20.3672 117.4422,20.7625 Z " fill="#000000"/><text fill="#000000" font-family="sans-serif" font-size="15.4" lengthAdjust="spacing" textLength="80.459" x="129.8" y="31.6766">SaveMapUI</text><line style="stroke:#181818;stroke-width:0.55;" x1="99" x2="212.459" y1="42.9" y2="42.9"/><line style="stroke:#181818;stroke-width:0.55;" x1="99" x2="212.459" y1="51.7" y2="51.7"/></g><!--class SaveMapController--><g id="elem_SaveMapController"><rect codeLine="8" fill="#F1F1F1" height="73.2832" id="SaveMapController" rx="2.75" ry="2.75" style="stroke:#181818;stroke-width:0.55;" width="167.0174" x="72.05" y="126.5"/><ellipse cx="88.55" cy="144.1" fill="#C2C2C2" rx="12.1" ry="12.1" style="stroke:#181818;stroke-width:1.1;"/><path d="M91.5922,139.5625 Q91.7641,139.3219 91.9703,139.2016 Q92.1766,139.0813 92.4172,139.0813 Q92.8297,139.0813 93.0875,139.3734 Q93.3453,139.6484 93.3453,140.3188 L93.3453,141.9172 Q93.3453,142.5875 93.0875,142.8797 Q92.8297,143.1719 92.4172,143.1719 Q92.0391,143.1719 91.8156,142.9484 Q91.5922,142.7422 91.4719,142.175 Q91.4203,141.7797 91.2141,141.5734 Q90.8531,141.1609 90.1828,140.9203 Q89.5125,140.6797 88.825,140.6797 Q87.9828,140.6797 87.2781,141.0406 Q86.5906,141.4016 86.0406,142.2266 Q85.5078,143.0516 85.5078,144.1859 L85.5078,145.3891 Q85.5078,146.7469 86.4875,147.6578 Q87.4672,148.5516 89.2203,148.5516 Q90.2516,148.5516 90.9734,148.2766 Q91.4031,148.1047 91.8672,147.6234 Q92.1594,147.3313 92.3141,147.2453 Q92.4859,147.1594 92.7094,147.1594 Q93.0703,147.1594 93.3453,147.4516 Q93.6375,147.7266 93.6375,148.1047 Q93.6375,148.4828 93.2594,148.9297 Q92.7094,149.5656 91.8328,149.9266 Q90.6469,150.425 89.2203,150.425 Q87.5531,150.425 86.2297,149.7375 Q85.1469,149.1875 84.3906,148.0188 Q83.6344,146.8328 83.6344,145.4234 L83.6344,144.1516 Q83.6344,142.6906 84.3047,141.4359 Q84.9922,140.1641 86.1953,139.4938 Q87.3984,138.8063 88.7563,138.8063 Q89.5641,138.8063 90.2688,138.9953 Q90.9906,139.1672 91.5922,139.5625 Z " fill="#000000"/><text fill="#000000" font-family="sans-serif" font-size="15.4" lengthAdjust="spacing" textLength="131.8174" x="103.95" y="150.4766">SaveMapController</text><line style="stroke:#181818;stroke-width:0.55;" x1="73.15" x2="237.9674" y1="161.7" y2="161.7"/><line style="stroke:#181818;stroke-width:0.55;" x1="73.15" x2="237.9674" y1="170.5" y2="170.5"/><ellipse cx="84.15" cy="186.7916" fill="#A6A6A6" rx="3.3" ry="3.3" style="stroke:#545454;stroke-width:1.1;"/><text fill="#000000" font-family="sans-serif" font-size="15.4" lengthAdjust="spacing" textLength="72.7439" x="94.05" y="191.5182">saveMap()</text></g><!--class Map--><g id="elem_Map"><rect codeLine="12" fill="#F1F1F1" height="73.2832" id="Map" rx="2.75" ry="2.75" style="stroke:#181818;stroke-width:0.55;" width="95.3434" x="7.7" y="266.2"/><ellipse cx="37.7835" cy="283.8" fill="#C2C2C2" rx="12.1" ry="12.1" style="stroke:#181818;stroke-width:1.1;"/><path d="M40.8257,279.2625 Q40.9976,279.0219 41.2038,278.9016 Q41.4101,278.7813 41.6507,278.7813 Q42.0632,278.7813 42.321,279.0734 Q42.5788,279.3484 42.5788,280.0188 L42.5788,281.6172 Q42.5788,282.2875 42.321,282.5797 Q42.0632,282.8719 41.6507,282.8719 Q41.2726,282.8719 41.0491,282.6484 Q40.8257,282.4422 40.7054,281.875 Q40.6538,281.4797 40.4476,281.2734 Q40.0866,280.8609 39.4163,280.6203 Q38.746,280.3797 38.0585,280.3797 Q37.2163,280.3797 36.5116,280.7406 Q35.8241,281.1016 35.2741,281.9266 Q34.7413,282.7516 34.7413,283.8859 L34.7413,285.0891 Q34.7413,286.4469 35.721,287.3578 Q36.7007,288.2516 38.4538,288.2516 Q39.4851,288.2516 40.2069,287.9766 Q40.6366,287.8047 41.1007,287.3234 Q41.3929,287.0313 41.5476,286.9453 Q41.7194,286.8594 41.9429,286.8594 Q42.3038,286.8594 42.5788,287.1516 Q42.871,287.4266 42.871,287.8047 Q42.871,288.1828 42.4929,288.6297 Q41.9429,289.2656 41.0663,289.6266 Q39.8804,290.125 38.4538,290.125 Q36.7866,290.125 35.4632,289.4375 Q34.3804,288.8875 33.6241,287.7188 Q32.8679,286.5328 32.8679,285.1234 L32.8679,283.8516 Q32.8679,282.3906 33.5382,281.1359 Q34.2257,279.8641 35.4288,279.1938 Q36.6319,278.5063 37.9897,278.5063 Q38.7976,278.5063 39.5022,278.6953 Q40.2241,278.8672 40.8257,279.2625 Z " fill="#000000"/><text fill="#000000" font-family="sans-serif" font-size="15.4" lengthAdjust="spacing" textLength="29.9578" x="56.2021" y="290.1766">Map</text><line style="stroke:#181818;stroke-width:0.55;" x1="8.8" x2="101.9434" y1="301.4" y2="301.4"/><line style="stroke:#181818;stroke-width:0.55;" x1="8.8" x2="101.9434" y1="310.2" y2="310.2"/><ellipse cx="19.8" cy="326.4916" fill="#A6A6A6" rx="3.3" ry="3.3" style="stroke:#545454;stroke-width:1.1;"/><text fill="#000000" font-family="sans-serif" font-size="15.4" lengthAdjust="spacing" textLength="66.7434" x="29.7" y="331.2182">serialize()</text></g><!--class MapRepository--><g id="elem_MapRepository"><rect codeLine="16" fill="#F1F1F1" height="73.2832" id="MapRepository" rx="2.75" ry="2.75" style="stroke:#181818;stroke-width:0.55;" width="228.8827" x="142.45" y="266.2"/><ellipse cx="200.4331" cy="283.8" fill="#C2C2C2" rx="12.1" ry="12.1" style="stroke:#181818;stroke-width:1.1;"/><path d="M203.4753,279.2625 Q203.6472,279.0219 203.8534,278.9016 Q204.0597,278.7813 204.3003,278.7813 Q204.7128,278.7813 204.9706,279.0734 Q205.2284,279.3484 205.2284,280.0188 L205.2284,281.6172 Q205.2284,282.2875 204.9706,282.5797 Q204.7128,282.8719 204.3003,282.8719 Q203.9222,282.8719 203.6987,282.6484 Q203.4753,282.4422 203.355,281.875 Q203.3034,281.4797 203.0972,281.2734 Q202.7362,280.8609 202.0659,280.6203 Q201.3956,280.3797 200.7081,280.3797 Q199.8659,280.3797 199.1612,280.7406 Q198.4737,281.1016 197.9237,281.9266 Q197.3909,282.7516 197.3909,283.8859 L197.3909,285.0891 Q197.3909,286.4469 198.3706,287.3578 Q199.3503,288.2516 201.1034,288.2516 Q202.1347,288.2516 202.8565,287.9766 Q203.2862,287.8047 203.7503,287.3234 Q204.0425,287.0313 204.1972,286.9453 Q204.369,286.8594 204.5925,286.8594 Q204.9534,286.8594 205.2284,287.1516 Q205.5206,287.4266 205.5206,287.8047 Q205.5206,288.1828 205.1425,288.6297 Q204.5925,289.2656 203.7159,289.6266 Q202.53,290.125 201.1034,290.125 Q199.4362,290.125 198.1128,289.4375 Q197.03,288.8875 196.2737,287.7188 Q195.5175,286.5328 195.5175,285.1234 L195.5175,283.8516 Q195.5175,282.3906 196.1878,281.1359 Q196.8753,279.8641 198.0784,279.1938 Q199.2815,278.5063 200.6394,278.5063 Q201.4472,278.5063 202.1519,278.6953 Q202.8737,278.8672 203.4753,279.2625 Z " fill="#000000"/><text fill="#000000" font-family="sans-serif" font-size="15.4" lengthAdjust="spacing" textLength="103.5665" x="222.9831" y="290.1766">MapRepository</text><line style="stroke:#181818;stroke-width:0.55;" x1="143.55" x2="370.2327" y1="301.4" y2="301.4"/><line style="stroke:#181818;stroke-width:0.55;" x1="143.55" x2="370.2327" y1="310.2" y2="310.2"/><ellipse cx="154.55" cy="326.4916" fill="#A6A6A6" rx="3.3" ry="3.3" style="stroke:#545454;stroke-width:1.1;"/><text fill="#000000" font-family="sans-serif" font-size="15.4" lengthAdjust="spacing" textLength="200.2827" x="164.45" y="331.2182">saveMap(serializedMapData)</text></g><!--link SaveMapUI to SaveMapController--><g id="link_SaveMapUI_SaveMapController"><path codeLine="20" d="M155.65,60.61 C155.65,79.431 155.65,98.747 155.65,119.702 " fill="none" id="SaveMapUI-to-SaveMapController" style="stroke:#181818;stroke-width:1.1;"/><polygon fill="#181818" points="155.65,126.302,160.05,116.402,155.65,120.802,151.25,116.402,155.65,126.302" style="stroke:#181818;stroke-width:1.1;"/></g><!--link SaveMapController to Map--><g id="link_SaveMapController_Map"><path codeLine="21" d="M129.613,200.222 C114.895,220.429 100.4425,240.2832 85.6915,260.5452 " fill="none" id="SaveMapController-to-Map" style="stroke:#181818;stroke-width:1.1;"/><polygon fill="#181818" points="81.807,265.881,91.191,260.467,85.0441,261.4345,84.0766,255.2877,81.807,265.881" style="stroke:#181818;stroke-width:1.1;"/></g><!--link SaveMapController to MapRepository--><g id="link_SaveMapController_MapRepository"><path codeLine="22" d="M181.973,200.222 C196.845,220.429 211.4782,240.3039 226.3942,260.5659 " fill="none" id="SaveMapController-to-MapRepository" style="stroke:#181818;stroke-width:1.1;"/><polygon fill="#181818" points="230.307,265.881,227.9813,255.2998,227.0464,261.4517,220.8945,260.5168,230.307,265.881" style="stroke:#181818;stroke-width:1.1;"/></g><!--SRC=[TOwn3i8m34JtV8L74EeliC32m0BY0wpKj57JEB83g23-dG1IWrhXxUxTMQUT2n45U-Wvi6s5Uu8a5p8waeYsmuQEQV04GZPXQFnlG5ki-UP20sVqIiPOZwfmn2ljCPvsy33FYRdXa8Iz9yaGygr0lsInBE4i2oPnwDsT9e43HLQNM8RPfx5IPxN5X9zccLLLw_aUCr_upcNdFoaRp0i0]--></g></svg>