<svg xmlns="http://www.w3.org/2000/svg" xmlns:xlink="http://www.w3.org/1999/xlink" contentStyleType="text/css" height="414px" preserveAspectRatio="none" style="width:499px;height:414px;background:#FFFFFF;" version="1.1" viewBox="0 0 499 414" width="499px" zoomAndPan="magnify"><title>System Sequence Diagram - US24 : Load Game Progress</title><defs/><g><text fill="#000000" font-family="sans-serif" font-size="14" font-weight="bold" lengthAdjust="spacing" textLength="380.4746" x="58.4304" y="30.1074">System Sequence Diagram - US24 : Load Game Progress</text><rect fill="#FFFFFF" height="188.7461" style="stroke:#181818;stroke-width:1.0;" width="10" x="22.8413" y="133.2422"/><rect fill="#FFFFFF" height="31.291" style="stroke:#181818;stroke-width:1.0;" width="10" x="456.0527" y="156.5332"/><rect fill="#FFFFFF" height="93.873" style="stroke:#181818;stroke-width:1.0;" width="10" x="456.0527" y="219.1152"/><line style="stroke:#181818;stroke-width:0.5;stroke-dasharray:5.0,5.0;" x1="27" x2="27" y1="123.2422" y2="330.9883"/><line style="stroke:#181818;stroke-width:0.5;stroke-dasharray:5.0,5.0;" x1="460.77" x2="460.77" y1="123.2422" y2="330.9883"/><text fill="#000000" font-family="sans-serif" font-size="14" lengthAdjust="spacing" textLength="39.6826" x="5" y="119.7285">Player</text><ellipse cx="27.8413" cy="53.1211" fill="#E2E2F0" rx="8" ry="8" style="stroke:#181818;stroke-width:0.5;"/><path d="M27.8413,61.1211 L27.8413,88.1211 M14.8413,69.1211 L40.8413,69.1211 M27.8413,88.1211 L14.8413,103.1211 M27.8413,88.1211 L40.8413,103.1211 " fill="none" style="stroke:#181818;stroke-width:0.5;"/><text fill="#000000" font-family="sans-serif" font-size="14" lengthAdjust="spacing" textLength="39.6826" x="5" y="345.0957">Player</text><ellipse cx="27.8413" cy="357.1094" fill="#E2E2F0" rx="8" ry="8" style="stroke:#181818;stroke-width:0.5;"/><path d="M27.8413,365.1094 L27.8413,392.1094 M14.8413,373.1094 L40.8413,373.1094 M27.8413,392.1094 L14.8413,407.1094 M27.8413,392.1094 L40.8413,407.1094 " fill="none" style="stroke:#181818;stroke-width:0.5;"/><rect fill="#E2E2F0" height="32.6211" rx="2.5" ry="2.5" style="stroke:#181818;stroke-width:0.5;" width="64.5654" x="428.77" y="89.6211"/><text fill="#000000" font-family="sans-serif" font-size="14" lengthAdjust="spacing" textLength="50.5654" x="435.77" y="111.7285">:System</text><rect fill="#E2E2F0" height="32.6211" rx="2.5" ry="2.5" style="stroke:#181818;stroke-width:0.5;" width="64.5654" x="428.77" y="329.9883"/><text fill="#000000" font-family="sans-serif" font-size="14" lengthAdjust="spacing" textLength="50.5654" x="435.77" y="352.0957">:System</text><rect fill="#FFFFFF" height="188.7461" style="stroke:#181818;stroke-width:1.0;" width="10" x="22.8413" y="133.2422"/><rect fill="#FFFFFF" height="31.291" style="stroke:#181818;stroke-width:1.0;" width="10" x="456.0527" y="156.5332"/><rect fill="#FFFFFF" height="93.873" style="stroke:#181818;stroke-width:1.0;" width="10" x="456.0527" y="219.1152"/><polygon fill="#181818" points="444.0527,152.5332,454.0527,156.5332,444.0527,160.5332,448.0527,156.5332" style="stroke:#181818;stroke-width:1.0;"/><line style="stroke:#181818;stroke-width:1.0;" x1="32.8413" x2="450.0527" y1="156.5332" y2="156.5332"/><text fill="#000000" font-family="sans-serif" font-size="13" font-weight="bold" lengthAdjust="spacing" textLength="7.23" x="39.8413" y="151.2705">1</text><text fill="#000000" font-family="sans-serif" font-size="13" lengthAdjust="spacing" textLength="221.127" x="51.0713" y="151.2705">requests to load saved game progress</text><polygon fill="#181818" points="43.8413,183.8242,33.8413,187.8242,43.8413,191.8242,39.8413,187.8242" style="stroke:#181818;stroke-width:1.0;"/><line style="stroke:#181818;stroke-width:1.0;stroke-dasharray:2.0,2.0;" x1="37.8413" x2="460.0527" y1="187.8242" y2="187.8242"/><text fill="#000000" font-family="sans-serif" font-size="13" font-weight="bold" lengthAdjust="spacing" textLength="7.23" x="49.8413" y="182.5615">2</text><text fill="#000000" font-family="sans-serif" font-size="13" lengthAdjust="spacing" textLength="387.9814" x="61.0713" y="182.5615">displays list of saved games with details (timestamp, progress, etc.)</text><polygon fill="#181818" points="444.0527,215.1152,454.0527,219.1152,444.0527,223.1152,448.0527,219.1152" style="stroke:#181818;stroke-width:1.0;"/><line style="stroke:#181818;stroke-width:1.0;" x1="32.8413" x2="450.0527" y1="219.1152" y2="219.1152"/><text fill="#000000" font-family="sans-serif" font-size="13" font-weight="bold" lengthAdjust="spacing" textLength="7.23" x="39.8413" y="213.8525">3</text><text fill="#000000" font-family="sans-serif" font-size="13" lengthAdjust="spacing" textLength="157.5361" x="51.0713" y="213.8525">selects saved game to load</text><polygon fill="#181818" points="43.8413,246.4063,33.8413,250.4063,43.8413,254.4063,39.8413,250.4063" style="stroke:#181818;stroke-width:1.0;"/><line style="stroke:#181818;stroke-width:1.0;stroke-dasharray:2.0,2.0;" x1="37.8413" x2="455.0527" y1="250.4063" y2="250.4063"/><text fill="#000000" font-family="sans-serif" font-size="13" font-weight="bold" lengthAdjust="spacing" textLength="7.23" x="49.8413" y="245.1436">4</text><text fill="#000000" font-family="sans-serif" font-size="13" lengthAdjust="spacing" textLength="288.3105" x="61.0713" y="245.1436">displays selected game details (budget, time, etc.)</text><polygon fill="#181818" points="43.8413,277.6973,33.8413,281.6973,43.8413,285.6973,39.8413,281.6973" style="stroke:#181818;stroke-width:1.0;"/><line style="stroke:#181818;stroke-width:1.0;stroke-dasharray:2.0,2.0;" x1="37.8413" x2="455.0527" y1="281.6973" y2="281.6973"/><text fill="#000000" font-family="sans-serif" font-size="13" font-weight="bold" lengthAdjust="spacing" textLength="7.23" x="49.8413" y="276.4346">5</text><text fill="#000000" font-family="sans-serif" font-size="13" lengthAdjust="spacing" textLength="155.3589" x="61.0713" y="276.4346">displays operation success</text><polygon fill="#181818" points="43.8413,308.9883,33.8413,312.9883,43.8413,316.9883,39.8413,312.9883" style="stroke:#181818;stroke-width:1.0;"/><line style="stroke:#181818;stroke-width:1.0;stroke-dasharray:2.0,2.0;" x1="37.8413" x2="460.0527" y1="312.9883" y2="312.9883"/><text fill="#000000" font-family="sans-serif" font-size="13" font-weight="bold" lengthAdjust="spacing" textLength="7.23" x="49.8413" y="307.7256">6</text><text fill="#000000" font-family="sans-serif" font-size="13" lengthAdjust="spacing" textLength="114.8862" x="61.0713" y="307.7256">restores game state</text><!--SRC=[bP6nQiGm38PtFyLFfXPo7Kgd39qANJeSX3w0pbPJWnFxBENAlNsTIt8zIYXqih2bJvza6ZKEOt_WRDHhO5JjMPHxj7mSUR2C5qzTfXuxlBUFJsZm5idXbNh6FiSkiqXbo6hCgFQ1pfmha60EJQAitlf4Ww9gPlRbVGxDLEbFfBmMcFd4xdb9QP0d5L61HeIfkT297Rf98IqAFvm5l8onAvoPsC1vIIKK12-A-7734Nnv_OHZ9Hy4T-hBdLAVwck76gpsuTuu_jrgGraui2t6DwQB_Bz4PynAkDeTHjUnrfWiLws_C35n9lLnW8pMJjlQo2upbZyicxZqAiChRypw3G00]--></g></svg>