<svg xmlns="http://www.w3.org/2000/svg" xmlns:xlink="http://www.w3.org/1999/xlink" contentStyleType="text/css" height="417px" preserveAspectRatio="none" style="width:400px;height:417px;background:#FFFFFF;" version="1.1" viewBox="0 0 400 417" width="400px" zoomAndPan="magnify"><title>System Sequence Diagram: US07 - List all the stations</title><defs/><g><text fill="#000000" font-family="sans-serif" font-size="14" font-weight="bold" lengthAdjust="spacing" textLength="372.5806" x="10" y="29.9659">System Sequence Diagram: US07 - List all the stations</text><rect fill="#FFFFFF" height="191.2361" style="stroke:#181818;stroke-width:1.0;" width="10" x="48.6452" y="134.1358"/><rect fill="#FFFFFF" height="23.706" style="stroke:#181818;stroke-width:1.0;" width="10" x="325.6504" y="134.1358"/><rect fill="#FFFFFF" height="31.706" style="stroke:#181818;stroke-width:1.0;" width="10" x="325.6504" y="189.5479"/><rect fill="#FFFFFF" height="63.412" style="stroke:#181818;stroke-width:1.0;" width="10" x="325.6504" y="252.9599"/><line style="stroke:#181818;stroke-width:0.5;stroke-dasharray:5.0,5.0;" x1="53.2683" x2="53.2683" y1="124.1358" y2="334.3719"/><line style="stroke:#181818;stroke-width:0.5;stroke-dasharray:5.0,5.0;" x1="329.9885" x2="329.9885" y1="124.1358" y2="334.3719"/><text fill="#000000" font-family="sans-serif" font-size="14" lengthAdjust="spacing" textLength="40.7538" x="30.2683" y="120.0339">Player</text><ellipse cx="53.6452" cy="53.5679" fill="#E3E3E3" rx="8" ry="8" style="stroke:#181818;stroke-width:0.5;"/><path d="M53.6452,61.5679 L53.6452,88.5679 M40.6452,69.5679 L66.6452,69.5679 M53.6452,88.5679 L40.6452,103.5679 M53.6452,88.5679 L66.6452,103.5679 " fill="none" style="stroke:#181818;stroke-width:0.5;"/><text fill="#000000" font-family="sans-serif" font-size="14" lengthAdjust="spacing" textLength="40.7538" x="30.2683" y="348.3379">Player</text><ellipse cx="53.6452" cy="360.9398" fill="#E3E3E3" rx="8" ry="8" style="stroke:#181818;stroke-width:0.5;"/><path d="M53.6452,368.9398 L53.6452,395.9398 M40.6452,376.9398 L66.6452,376.9398 M53.6452,395.9398 L40.6452,410.9398 M53.6452,395.9398 L66.6452,410.9398 " fill="none" style="stroke:#181818;stroke-width:0.5;"/><rect fill="#E3E3E3" height="33.0679" rx="2.5" ry="2.5" style="stroke:#181818;stroke-width:0.5;" width="65.3238" x="297.9885" y="90.0679"/><text fill="#000000" font-family="sans-serif" font-size="14" lengthAdjust="spacing" textLength="51.3238" x="304.9885" y="112.0339">:System</text><rect fill="#E3E3E3" height="33.0679" rx="2.5" ry="2.5" style="stroke:#181818;stroke-width:0.5;" width="65.3238" x="297.9885" y="333.3719"/><text fill="#000000" font-family="sans-serif" font-size="14" lengthAdjust="spacing" textLength="51.3238" x="304.9885" y="355.3379">:System</text><rect fill="#FFFFFF" height="191.2361" style="stroke:#181818;stroke-width:1.0;" width="10" x="48.6452" y="134.1358"/><rect fill="#FFFFFF" height="23.706" style="stroke:#181818;stroke-width:1.0;" width="10" x="325.6504" y="134.1358"/><rect fill="#FFFFFF" height="31.706" style="stroke:#181818;stroke-width:1.0;" width="10" x="325.6504" y="189.5479"/><rect fill="#FFFFFF" height="63.412" style="stroke:#181818;stroke-width:1.0;" width="10" x="325.6504" y="252.9599"/><polygon fill="#181818" points="69.6452,153.8419,59.6452,157.8419,69.6452,161.8419,65.6452,157.8419" style="stroke:#181818;stroke-width:1.0;"/><line style="stroke:#181818;stroke-width:1.0;stroke-dasharray:2.0,2.0;" x1="63.6452" x2="329.6504" y1="157.8419" y2="157.8419"/><text fill="#000000" font-family="sans-serif" font-size="13" font-weight="bold" lengthAdjust="spacing" textLength="7.436" x="75.6452" y="152.0328">1</text><text fill="#000000" font-family="sans-serif" font-size="13" lengthAdjust="spacing" textLength="148.4991" x="87.0812" y="152.0328">Shows available stations</text><polygon fill="#181818" points="313.6504,185.5479,323.6504,189.5479,313.6504,193.5479,317.6504,189.5479" style="stroke:#181818;stroke-width:1.0;"/><line style="stroke:#181818;stroke-width:1.0;" x1="58.6452" x2="319.6504" y1="189.5479" y2="189.5479"/><text fill="#000000" font-family="sans-serif" font-size="13" font-weight="bold" lengthAdjust="spacing" textLength="7.436" x="65.6452" y="183.7389">2</text><text fill="#000000" font-family="sans-serif" font-size="13" lengthAdjust="spacing" textLength="87.8541" x="77.0812" y="183.7389">Selects station</text><polygon fill="#181818" points="69.6452,217.2539,59.6452,221.2539,69.6452,225.2539,65.6452,221.2539" style="stroke:#181818;stroke-width:1.0;"/><line style="stroke:#181818;stroke-width:1.0;stroke-dasharray:2.0,2.0;" x1="63.6452" x2="329.6504" y1="221.2539" y2="221.2539"/><text fill="#000000" font-family="sans-serif" font-size="13" font-weight="bold" lengthAdjust="spacing" textLength="7.436" x="75.6452" y="215.4449">3</text><text fill="#000000" font-family="sans-serif" font-size="13" lengthAdjust="spacing" textLength="130.8971" x="87.0812" y="215.4449">Asks for confirmation</text><polygon fill="#181818" points="313.6504,248.9599,323.6504,252.9599,313.6504,256.9599,317.6504,252.9599" style="stroke:#181818;stroke-width:1.0;"/><line style="stroke:#181818;stroke-width:1.0;" x1="58.6452" x2="319.6504" y1="252.9599" y2="252.9599"/><text fill="#000000" font-family="sans-serif" font-size="13" font-weight="bold" lengthAdjust="spacing" textLength="7.436" x="65.6452" y="247.1509">4</text><text fill="#000000" font-family="sans-serif" font-size="13" lengthAdjust="spacing" textLength="113.5031" x="77.0812" y="247.1509">Confirms selection</text><polygon fill="#181818" points="69.6452,280.6659,59.6452,284.6659,69.6452,288.6659,65.6452,284.6659" style="stroke:#181818;stroke-width:1.0;"/><line style="stroke:#181818;stroke-width:1.0;stroke-dasharray:2.0,2.0;" x1="63.6452" x2="324.6504" y1="284.6659" y2="284.6659"/><text fill="#000000" font-family="sans-serif" font-size="13" font-weight="bold" lengthAdjust="spacing" textLength="7.436" x="75.6452" y="278.8569">5</text><text fill="#000000" font-family="sans-serif" font-size="13" lengthAdjust="spacing" textLength="205.1402" x="87.0812" y="278.8569">Shows station's existing buildings</text><polygon fill="#181818" points="69.6452,312.3719,59.6452,316.3719,69.6452,320.3719,65.6452,316.3719" style="stroke:#181818;stroke-width:1.0;"/><line style="stroke:#181818;stroke-width:1.0;stroke-dasharray:2.0,2.0;" x1="63.6452" x2="329.6504" y1="316.3719" y2="316.3719"/><text fill="#000000" font-family="sans-serif" font-size="13" font-weight="bold" lengthAdjust="spacing" textLength="7.436" x="75.6452" y="310.5629">6</text><text fill="#000000" font-family="sans-serif" font-size="13" lengthAdjust="spacing" textLength="231.5692" x="87.0812" y="310.5629">Shows station's demand/supply cargo</text><!--SRC=[bPBDJeKm48NtFCM4ZIkYEnCM9aQNBao83p2K0Hhwm-rCxvMtjvSV9Ig9iXhQyvqvqrQq689gOY4B5PqYEKNmhB4BQ4jug-xkeO0NpG9e34XFm8AYlUEC1-r6J3gmtddL1sy994JQxOoe1koeaYcr2QG4NMVs0kwnyHVjEcZHC6KPHl4ksff2gfNu0FchmOb23iYmb5bYHIizeXF8ooN-lB-KCwdFABG1d_-R0DAtZbqK3wiCIgXwVs70Csg3jTbDUmKQ-jLdXPFDwfXioAHXUSDdsNVsAC8Z3mnj6bnvr-fWlnn-zZze_xIGgV-Suxy9baDOizymq7jw0DSxggCsJIhupsX35brpot4SpGGAG-UFZl9e_GC0]--></g></svg>