<svg xmlns="http://www.w3.org/2000/svg" xmlns:xlink="http://www.w3.org/1999/xlink" contentStyleType="text/css" height="399px" preserveAspectRatio="none" style="width:504px;height:399px;background:#FFFFFF;" version="1.1" viewBox="0 0 504 399" width="504px" zoomAndPan="magnify"><title>System Sequence Diagram: US07 - Show station details</title><defs/><g><text fill="#000000" font-family="sans-serif" font-size="14" font-weight="bold" lengthAdjust="spacing" textLength="380.9526" x="68.9004" y="29.9659">System Sequence Diagram: US07 - Show station details</text><rect fill="#FFFFFF" height="172.5301" style="stroke:#181818;stroke-width:1.0;" width="10" x="23.3769" y="134.1358"/><rect fill="#FFFFFF" height="23.706" style="stroke:#181818;stroke-width:1.0;" width="10" x="300.3821" y="134.1358"/><rect fill="#FFFFFF" height="108.118" style="stroke:#181818;stroke-width:1.0;" width="10" x="300.3821" y="189.5479"/><line style="stroke:#181818;stroke-width:0.5;stroke-dasharray:5.0,5.0;" x1="28" x2="28" y1="124.1358" y2="315.6659"/><line style="stroke:#181818;stroke-width:0.5;stroke-dasharray:5.0,5.0;" x1="304.7202" x2="304.7202" y1="124.1358" y2="315.6659"/><text fill="#000000" font-family="sans-serif" font-size="14" lengthAdjust="spacing" textLength="40.7538" x="5" y="120.0339">Player</text><ellipse cx="28.3769" cy="53.5679" fill="#E3E3E3" rx="8" ry="8" style="stroke:#181818;stroke-width:0.5;"/><path d="M28.3769,61.5679 L28.3769,88.5679 M15.3769,69.5679 L41.3769,69.5679 M28.3769,88.5679 L15.3769,103.5679 M28.3769,88.5679 L41.3769,103.5679 " fill="none" style="stroke:#181818;stroke-width:0.5;"/><text fill="#000000" font-family="sans-serif" font-size="14" lengthAdjust="spacing" textLength="40.7538" x="5" y="329.6319">Player</text><ellipse cx="28.3769" cy="342.2338" fill="#E3E3E3" rx="8" ry="8" style="stroke:#181818;stroke-width:0.5;"/><path d="M28.3769,350.2338 L28.3769,377.2338 M15.3769,358.2338 L41.3769,358.2338 M28.3769,377.2338 L15.3769,392.2338 M28.3769,377.2338 L41.3769,392.2338 " fill="none" style="stroke:#181818;stroke-width:0.5;"/><rect fill="#E3E3E3" height="33.0679" rx="2.5" ry="2.5" style="stroke:#181818;stroke-width:0.5;" width="65.3238" x="272.7202" y="90.0679"/><text fill="#000000" font-family="sans-serif" font-size="14" lengthAdjust="spacing" textLength="51.3238" x="279.7202" y="112.0339">:System</text><rect fill="#E3E3E3" height="33.0679" rx="2.5" ry="2.5" style="stroke:#181818;stroke-width:0.5;" width="65.3238" x="272.7202" y="314.6659"/><text fill="#000000" font-family="sans-serif" font-size="14" lengthAdjust="spacing" textLength="51.3238" x="279.7202" y="336.6319">:System</text><rect fill="#FFFFFF" height="172.5301" style="stroke:#181818;stroke-width:1.0;" width="10" x="23.3769" y="134.1358"/><rect fill="#FFFFFF" height="23.706" style="stroke:#181818;stroke-width:1.0;" width="10" x="300.3821" y="134.1358"/><rect fill="#FFFFFF" height="108.118" style="stroke:#181818;stroke-width:1.0;" width="10" x="300.3821" y="189.5479"/><polygon fill="#181818" points="44.3769,153.8419,34.3769,157.8419,44.3769,161.8419,40.3769,157.8419" style="stroke:#181818;stroke-width:1.0;"/><line style="stroke:#181818;stroke-width:1.0;stroke-dasharray:2.0,2.0;" x1="38.3769" x2="304.3821" y1="157.8419" y2="157.8419"/><text fill="#000000" font-family="sans-serif" font-size="13" font-weight="bold" lengthAdjust="spacing" textLength="7.436" x="50.3769" y="152.0328">1</text><text fill="#000000" font-family="sans-serif" font-size="13" lengthAdjust="spacing" textLength="148.4991" x="61.8129" y="152.0328">Shows available stations</text><polygon fill="#181818" points="288.3821,185.5479,298.3821,189.5479,288.3821,193.5479,292.3821,189.5479" style="stroke:#181818;stroke-width:1.0;"/><line style="stroke:#181818;stroke-width:1.0;" x1="33.3769" x2="294.3821" y1="189.5479" y2="189.5479"/><text fill="#000000" font-family="sans-serif" font-size="13" font-weight="bold" lengthAdjust="spacing" textLength="7.436" x="40.3769" y="183.7389">2</text><text fill="#000000" font-family="sans-serif" font-size="13" lengthAdjust="spacing" textLength="119.1451" x="51.8129" y="183.7389">Types station name</text><line style="stroke:#181818;stroke-width:1.0;stroke-dasharray:2.0,2.0;" x1="310.3821" x2="352.3821" y1="221.2539" y2="221.2539"/><line style="stroke:#181818;stroke-width:1.0;stroke-dasharray:2.0,2.0;" x1="352.3821" x2="352.3821" y1="221.2539" y2="234.2539"/><line style="stroke:#181818;stroke-width:1.0;stroke-dasharray:2.0,2.0;" x1="311.3821" x2="352.3821" y1="234.2539" y2="234.2539"/><polygon fill="#181818" points="321.3821,230.2539,311.3821,234.2539,321.3821,238.2539,317.3821,234.2539" style="stroke:#181818;stroke-width:1.0;"/><text fill="#000000" font-family="sans-serif" font-size="13" font-weight="bold" lengthAdjust="spacing" textLength="7.436" x="317.3821" y="215.4449">3</text><text fill="#000000" font-family="sans-serif" font-size="13" lengthAdjust="spacing" textLength="168.9351" x="328.8181" y="215.4449">Searches for station's name</text><polygon fill="#181818" points="44.3769,261.9599,34.3769,265.9599,44.3769,269.9599,40.3769,265.9599" style="stroke:#181818;stroke-width:1.0;"/><line style="stroke:#181818;stroke-width:1.0;stroke-dasharray:2.0,2.0;" x1="38.3769" x2="299.3821" y1="265.9599" y2="265.9599"/><text fill="#000000" font-family="sans-serif" font-size="13" font-weight="bold" lengthAdjust="spacing" textLength="7.436" x="50.3769" y="260.1509">4</text><text fill="#000000" font-family="sans-serif" font-size="13" lengthAdjust="spacing" textLength="205.1402" x="61.8129" y="260.1509">Shows station's existing buildings</text><polygon fill="#181818" points="44.3769,293.6659,34.3769,297.6659,44.3769,301.6659,40.3769,297.6659" style="stroke:#181818;stroke-width:1.0;"/><line style="stroke:#181818;stroke-width:1.0;stroke-dasharray:2.0,2.0;" x1="38.3769" x2="304.3821" y1="297.6659" y2="297.6659"/><text fill="#000000" font-family="sans-serif" font-size="13" font-weight="bold" lengthAdjust="spacing" textLength="7.436" x="50.3769" y="291.8569">5</text><text fill="#000000" font-family="sans-serif" font-size="13" lengthAdjust="spacing" textLength="231.5692" x="61.8129" y="291.8569">Shows station's demand/supply cargo</text><!--SRC=[ZL2xRiCm3Dpz5OINJaQx1V3GgHzGmEq7q19Z2z735Qca_lkgjk84GGrKqqcyEzrHZ5Y2RcOX1nrz9VAAuCtW4D6ryDcz7A21RWmNO44nmOCcGMEvufFn4sOQkE236cDm118JtKqcL2SSg9Cv_n992Vh1tXDuH1qknWzmHCjKLPWa-EHwYXah2H7gTuipnHgGOOLLrefHPa8lKBTh-cM-maLfpYXq5MptAm7oAQsRvhNGe5sQCk0vDyG-PowbUH5e-jEdYBDDSMpXOvw8jurvTBGm7-KFAJPvHnZLc1sEkNznUUARptxo6vc-3SllOljahCw0_otLvD3hPqxJP6TG68Umrt_l_GS0]--></g></svg>