<svg xmlns="http://www.w3.org/2000/svg" xmlns:xlink="http://www.w3.org/1999/xlink" contentStyleType="text/css" height="352px" preserveAspectRatio="none" style="width:325px;height:352px;background:#FFFFFF;" version="1.1" viewBox="0 0 325 352" width="325px" zoomAndPan="magnify"><defs/><g><!--class MapUI--><g id="elem_MapUI"><rect codeLine="5" fill="#F1F1F1" height="48" id="MapUI" rx="2.5" ry="2.5" style="stroke:#181818;stroke-width:0.5;" width="73.2344" x="121" y="7"/><ellipse cx="136" cy="23" fill="#C2C2C2" rx="11" ry="11" style="stroke:#181818;stroke-width:1.0;"/><path d="M138.7656,18.875 Q138.9219,18.6563 139.1094,18.5469 Q139.2969,18.4375 139.5156,18.4375 Q139.8906,18.4375 140.125,18.7031 Q140.3594,18.9531 140.3594,19.5625 L140.3594,21.0156 Q140.3594,21.625 140.125,21.8906 Q139.8906,22.1563 139.5156,22.1563 Q139.1719,22.1563 138.9688,21.9531 Q138.7656,21.7656 138.6563,21.25 Q138.6094,20.8906 138.4219,20.7031 Q138.0938,20.3281 137.4844,20.1094 Q136.875,19.8906 136.25,19.8906 Q135.4844,19.8906 134.8438,20.2188 Q134.2188,20.5469 133.7188,21.2969 Q133.2344,22.0469 133.2344,23.0781 L133.2344,24.1719 Q133.2344,25.4063 134.125,26.2344 Q135.0156,27.0469 136.6094,27.0469 Q137.5469,27.0469 138.2031,26.7969 Q138.5938,26.6406 139.0156,26.2031 Q139.2813,25.9375 139.4219,25.8594 Q139.5781,25.7813 139.7813,25.7813 Q140.1094,25.7813 140.3594,26.0469 Q140.625,26.2969 140.625,26.6406 Q140.625,26.9844 140.2813,27.3906 Q139.7813,27.9688 138.9844,28.2969 Q137.9063,28.75 136.6094,28.75 Q135.0938,28.75 133.8906,28.125 Q132.9063,27.625 132.2188,26.5625 Q131.5313,25.4844 131.5313,24.2031 L131.5313,23.0469 Q131.5313,21.7188 132.1406,20.5781 Q132.7656,19.4219 133.8594,18.8125 Q134.9531,18.1875 136.1875,18.1875 Q136.9219,18.1875 137.5625,18.3594 Q138.2188,18.5156 138.7656,18.875 Z " fill="#000000"/><text fill="#000000" font-family="sans-serif" font-size="14" lengthAdjust="spacing" textLength="41.2344" x="150" y="28.7969">MapUI</text><line style="stroke:#181818;stroke-width:0.5;" x1="122" x2="193.2344" y1="39" y2="39"/><line style="stroke:#181818;stroke-width:0.5;" x1="122" x2="193.2344" y1="47" y2="47"/></g><!--class MapController--><g id="elem_MapController"><rect codeLine="8" fill="#F1F1F1" height="85.2422" id="MapController" rx="2.5" ry="2.5" style="stroke:#181818;stroke-width:0.5;" width="161.4063" x="77" y="115"/><ellipse cx="110.6671" cy="131" fill="#C2C2C2" rx="11" ry="11" style="stroke:#181818;stroke-width:1.0;"/><path d="M113.4327,126.875 Q113.589,126.6563 113.7765,126.5469 Q113.964,126.4375 114.1827,126.4375 Q114.5577,126.4375 114.7921,126.7031 Q115.0265,126.9531 115.0265,127.5625 L115.0265,129.0156 Q115.0265,129.625 114.7921,129.8906 Q114.5577,130.1563 114.1827,130.1563 Q113.839,130.1563 113.6358,129.9531 Q113.4327,129.7656 113.3233,129.25 Q113.2765,128.8906 113.089,128.7031 Q112.7608,128.3281 112.1515,128.1094 Q111.5421,127.8906 110.9171,127.8906 Q110.1515,127.8906 109.5108,128.2188 Q108.8858,128.5469 108.3858,129.2969 Q107.9015,130.0469 107.9015,131.0781 L107.9015,132.1719 Q107.9015,133.4063 108.7921,134.2344 Q109.6827,135.0469 111.2765,135.0469 Q112.214,135.0469 112.8702,134.7969 Q113.2608,134.6406 113.6827,134.2031 Q113.9483,133.9375 114.089,133.8594 Q114.2452,133.7813 114.4483,133.7813 Q114.7765,133.7813 115.0265,134.0469 Q115.2921,134.2969 115.2921,134.6406 Q115.2921,134.9844 114.9483,135.3906 Q114.4483,135.9688 113.6515,136.2969 Q112.5733,136.75 111.2765,136.75 Q109.7608,136.75 108.5577,136.125 Q107.5733,135.625 106.8858,134.5625 Q106.1983,133.4844 106.1983,132.2031 L106.1983,131.0469 Q106.1983,129.7188 106.8077,128.5781 Q107.4327,127.4219 108.5265,126.8125 Q109.6202,126.1875 110.8546,126.1875 Q111.589,126.1875 112.2296,126.3594 Q112.8858,126.5156 113.4327,126.875 Z " fill="#000000"/><text fill="#000000" font-family="sans-serif" font-size="14" lengthAdjust="spacing" textLength="87.9238" x="128.8153" y="136.7969">MapController</text><line style="stroke:#181818;stroke-width:0.5;" x1="78" x2="237.4063" y1="147" y2="147"/><line style="stroke:#181818;stroke-width:0.5;" x1="78" x2="237.4063" y1="155" y2="155"/><ellipse cx="88" cy="169.8105" fill="#A6A6A6" rx="3" ry="3" style="stroke:#545454;stroke-width:1.0;"/><text fill="#000000" font-family="sans-serif" font-size="14" lengthAdjust="spacing" textLength="63.0273" x="97" y="174.1074">loadMap()</text><ellipse cx="88" cy="188.4316" fill="#A6A6A6" rx="3" ry="3" style="stroke:#545454;stroke-width:1.0;"/><text fill="#000000" font-family="sans-serif" font-size="14" lengthAdjust="spacing" textLength="135.4063" x="97" y="192.7285">loadSelectedMap(file)</text></g><!--class Map--><g id="elem_Map"><rect codeLine="13" fill="#F1F1F1" height="66.6211" id="Map" rx="2.5" ry="2.5" style="stroke:#181818;stroke-width:0.5;" width="128.7168" x="7" y="269"/><ellipse cx="53.4912" cy="285" fill="#C2C2C2" rx="11" ry="11" style="stroke:#181818;stroke-width:1.0;"/><path d="M56.2568,280.875 Q56.4131,280.6563 56.6006,280.5469 Q56.7881,280.4375 57.0068,280.4375 Q57.3818,280.4375 57.6162,280.7031 Q57.8506,280.9531 57.8506,281.5625 L57.8506,283.0156 Q57.8506,283.625 57.6162,283.8906 Q57.3818,284.1563 57.0068,284.1563 Q56.6631,284.1563 56.46,283.9531 Q56.2568,283.7656 56.1475,283.25 Q56.1006,282.8906 55.9131,282.7031 Q55.585,282.3281 54.9756,282.1094 Q54.3662,281.8906 53.7412,281.8906 Q52.9756,281.8906 52.335,282.2188 Q51.71,282.5469 51.21,283.2969 Q50.7256,284.0469 50.7256,285.0781 L50.7256,286.1719 Q50.7256,287.4063 51.6162,288.2344 Q52.5068,289.0469 54.1006,289.0469 Q55.0381,289.0469 55.6943,288.7969 Q56.085,288.6406 56.5068,288.2031 Q56.7725,287.9375 56.9131,287.8594 Q57.0693,287.7813 57.2725,287.7813 Q57.6006,287.7813 57.8506,288.0469 Q58.1162,288.2969 58.1162,288.6406 Q58.1162,288.9844 57.7725,289.3906 Q57.2725,289.9688 56.4756,290.2969 Q55.3975,290.75 54.1006,290.75 Q52.585,290.75 51.3818,290.125 Q50.3975,289.625 49.71,288.5625 Q49.0225,287.4844 49.0225,286.2031 L49.0225,285.0469 Q49.0225,283.7188 49.6318,282.5781 Q50.2568,281.4219 51.3506,280.8125 Q52.4443,280.1875 53.6787,280.1875 Q54.4131,280.1875 55.0537,280.3594 Q55.71,280.5156 56.2568,280.875 Z " fill="#000000"/><text fill="#000000" font-family="sans-serif" font-size="14" lengthAdjust="spacing" textLength="27.2344" x="73.9912" y="290.7969">Map</text><line style="stroke:#181818;stroke-width:0.5;" x1="8" x2="134.7168" y1="301" y2="301"/><line style="stroke:#181818;stroke-width:0.5;" x1="8" x2="134.7168" y1="309" y2="309"/><ellipse cx="18" cy="323.8105" fill="#A6A6A6" rx="3" ry="3" style="stroke:#545454;stroke-width:1.0;"/><text fill="#000000" font-family="sans-serif" font-size="14" lengthAdjust="spacing" textLength="102.7168" x="27" y="328.1074">createMap(data)</text></g><!--class MapRepository--><g id="elem_MapRepository"><rect codeLine="17" fill="#F1F1F1" height="85.2422" id="MapRepository" rx="2.5" ry="2.5" style="stroke:#181818;stroke-width:0.5;" width="147.3789" x="171" y="260"/><ellipse cx="195.5524" cy="276" fill="#C2C2C2" rx="11" ry="11" style="stroke:#181818;stroke-width:1.0;"/><path d="M198.318,271.875 Q198.4743,271.6563 198.6618,271.5469 Q198.8493,271.4375 199.068,271.4375 Q199.443,271.4375 199.6774,271.7031 Q199.9118,271.9531 199.9118,272.5625 L199.9118,274.0156 Q199.9118,274.625 199.6774,274.8906 Q199.443,275.1563 199.068,275.1563 Q198.7243,275.1563 198.5211,274.9531 Q198.318,274.7656 198.2086,274.25 Q198.1618,273.8906 197.9743,273.7031 Q197.6461,273.3281 197.0368,273.1094 Q196.4274,272.8906 195.8024,272.8906 Q195.0368,272.8906 194.3961,273.2188 Q193.7711,273.5469 193.2711,274.2969 Q192.7868,275.0469 192.7868,276.0781 L192.7868,277.1719 Q192.7868,278.4063 193.6774,279.2344 Q194.568,280.0469 196.1618,280.0469 Q197.0993,280.0469 197.7555,279.7969 Q198.1461,279.6406 198.568,279.2031 Q198.8336,278.9375 198.9743,278.8594 Q199.1305,278.7813 199.3336,278.7813 Q199.6618,278.7813 199.9118,279.0469 Q200.1774,279.2969 200.1774,279.6406 Q200.1774,279.9844 199.8336,280.3906 Q199.3336,280.9688 198.5368,281.2969 Q197.4586,281.75 196.1618,281.75 Q194.6461,281.75 193.443,281.125 Q192.4586,280.625 191.7711,279.5625 Q191.0836,278.4844 191.0836,277.2031 L191.0836,276.0469 Q191.0836,274.7188 191.693,273.5781 Q192.318,272.4219 193.4118,271.8125 Q194.5055,271.1875 195.7399,271.1875 Q196.4743,271.1875 197.1149,271.3594 Q197.7711,271.5156 198.318,271.875 Z " fill="#000000"/><text fill="#000000" font-family="sans-serif" font-size="14" lengthAdjust="spacing" textLength="94.1514" x="211.6751" y="281.7969">MapRepository</text><line style="stroke:#181818;stroke-width:0.5;" x1="172" x2="317.3789" y1="292" y2="292"/><line style="stroke:#181818;stroke-width:0.5;" x1="172" x2="317.3789" y1="300" y2="300"/><ellipse cx="182" cy="314.8105" fill="#A6A6A6" rx="3" ry="3" style="stroke:#545454;stroke-width:1.0;"/><text fill="#000000" font-family="sans-serif" font-size="14" lengthAdjust="spacing" textLength="102.7168" x="191" y="319.1074">getSavedMaps()</text><ellipse cx="182" cy="333.4316" fill="#A6A6A6" rx="3" ry="3" style="stroke:#545454;stroke-width:1.0;"/><text fill="#000000" font-family="sans-serif" font-size="14" lengthAdjust="spacing" textLength="121.3789" x="191" y="337.7285">deserializeMap(file)</text></g><!--link MapUI to MapController--><g id="link_MapUI_MapController"><path codeLine="22" d="M157.5,55.13 C157.5,71.86 157.5,88.94 157.5,108.86 " fill="none" id="MapUI-to-MapController" style="stroke:#181818;stroke-width:1.0;"/><polygon fill="#181818" points="157.5,114.86,161.5,105.86,157.5,109.86,153.5,105.86,157.5,114.86" style="stroke:#181818;stroke-width:1.0;"/></g><!--link MapController to Map--><g id="link_MapController_Map"><path codeLine="23" d="M132.39,200.25 C119.31,222.01 106.6114,243.1077 94.4014,263.4177 " fill="none" id="MapController-to-Map" style="stroke:#181818;stroke-width:1.0;"/><polygon fill="#181818" points="91.31,268.56,99.3753,262.9075,93.8862,264.2748,92.519,258.7856,91.31,268.56" style="stroke:#181818;stroke-width:1.0;"/></g><!--link MapController to MapRepository--><g id="link_MapController_MapRepository"><path codeLine="24" d="M182.9,200.25 C194.33,219.04 204.6814,236.0542 216.1014,254.8242 " fill="none" id="MapController-to-MapRepository" style="stroke:#181818;stroke-width:1.0;"/><polygon fill="#181818" points="219.22,259.95,217.9593,250.1822,216.6211,255.6785,211.1248,254.3404,219.22,259.95" style="stroke:#181818;stroke-width:1.0;"/></g><!--SRC=[RK_B3i8m3BltAte48Nw12oSEN9ZuWAWpeo9hfgI01kBV6G-DLIAts8xjs2ccZfHQtqgIS5HfuREUuMnaEWedQb3bdk4L8LDgU2gm8zLoZQdn1sA3Su79p6-fss_ytJqcm5fILc663eGVPk5Pg1wOsNooL-0X1s_y41dpmcGy3GhAU8bgobIATkZ4OXRjHtc3ND7bxMfZN0s3Hk9uGv7sQRzShihQhdpYo_z7VnNS4m00]--></g></svg>