<svg xmlns="http://www.w3.org/2000/svg" xmlns:xlink="http://www.w3.org/1999/xlink" contentStyleType="text/css" height="488px" preserveAspectRatio="none" style="width:315px;height:488px;background:#FFFFFF;" version="1.1" viewBox="0 0 315 488" width="315px" zoomAndPan="magnify"><title>Domain Model: US01 - Create a Map</title><defs/><g><text fill="#000000" font-family="sans-serif" font-size="14" font-weight="bold" lengthAdjust="spacing" textLength="238.8271" x="31.4832" y="25.1074">Domain Model: US01 - Create a Map</text><!--class Editor--><g id="elem_Editor"><rect codeLine="12" fill="#ADD8E6" height="111.1055" id="Editor" rx="2.5" ry="2.5" style="stroke:#0000FF;stroke-width:0.5;" width="120.9512" x="7" y="46.6211"/><text fill="#000000" font-family="sans-serif" font-size="14" lengthAdjust="spacing" textLength="36.5723" x="49.1895" y="66.7285">Editor</text><line style="stroke:#0000FF;stroke-width:0.5;" x1="8" x2="126.9512" y1="75.2422" y2="75.2422"/><text fill="#000000" font-family="sans-serif" font-size="14" lengthAdjust="spacing" textLength="62.2549" x="13" y="94.3496">username</text><text fill="#000000" font-family="sans-serif" font-size="14" lengthAdjust="spacing" textLength="59.917" x="13" y="112.9707">password</text><text fill="#000000" font-family="sans-serif" font-size="14" lengthAdjust="spacing" textLength="80.9307" x="13" y="131.5918">createdMaps</text><text fill="#000000" font-family="sans-serif" font-size="14" lengthAdjust="spacing" textLength="108.9512" x="13" y="150.2129">createdScenarios</text></g><!--class Map--><g id="elem_Map"><rect codeLine="19" fill="#ADD8E6" height="92.4844" id="Map" rx="2.5" ry="2.5" style="stroke:#0000FF;stroke-width:0.5;" width="82.8066" x="26" y="236.6211"/><text fill="#000000" font-family="sans-serif" font-size="14" lengthAdjust="spacing" textLength="27.2344" x="53.7861" y="256.7285">Map</text><line style="stroke:#0000FF;stroke-width:0.5;" x1="27" x2="107.8066" y1="265.2422" y2="265.2422"/><text fill="#000000" font-family="sans-serif" font-size="14" lengthAdjust="spacing" textLength="49.0205" x="32" y="284.3496">nameID</text><text fill="#000000" font-family="sans-serif" font-size="14" lengthAdjust="spacing" textLength="42.7861" x="32" y="302.9707">cityList</text><text fill="#000000" font-family="sans-serif" font-size="14" lengthAdjust="spacing" textLength="70.8066" x="32" y="321.5918">industryList</text></g><!--class Size--><g id="elem_Size"><rect codeLine="25" fill="#ADD8E6" height="73.8633" id="Size" rx="2.5" ry="2.5" style="stroke:#0000FF;stroke-width:0.5;" width="50.1445" x="42.5" y="408.1211"/><text fill="#000000" font-family="sans-serif" font-size="14" lengthAdjust="spacing" textLength="27.2344" x="53.9551" y="428.2285">Size</text><line style="stroke:#0000FF;stroke-width:0.5;" x1="43.5" x2="91.6445" y1="436.7422" y2="436.7422"/><text fill="#000000" font-family="sans-serif" font-size="14" lengthAdjust="spacing" textLength="32.6826" x="48.5" y="455.8496">width</text><text fill="#000000" font-family="sans-serif" font-size="14" lengthAdjust="spacing" textLength="38.1445" x="48.5" y="474.4707">height</text></g><path d="M144,264.1211 L144,273.7666 L81.0205,278.5527 L144,281.7666 L144,291.4121 A0,0 0 0 0 144,291.4121 L308.7935,291.4121 A0,0 0 0 0 308.7935,291.4121 L308.7935,274.1211 L298.7935,264.1211 L144,264.1211 A0,0 0 0 0 144,264.1211 " fill="#FEFFDD" style="stroke:#181818;stroke-width:0.5;"/><path d="M298.7935,264.1211 L298.7935,274.1211 L308.7935,274.1211 L298.7935,264.1211 " fill="#FEFFDD" style="stroke:#181818;stroke-width:0.5;"/><text fill="#000000" font-family="sans-serif" font-size="13" lengthAdjust="spacing" textLength="143.7935" x="150" y="283.1494">Must be a valid file name</text><path d="M127.5,407.6211 L127.5,417.2666 L81.1826,450.0527 L127.5,425.2666 L127.5,434.9121 A0,0 0 0 0 127.5,434.9121 L285.7935,434.9121 A0,0 0 0 0 285.7935,434.9121 L285.7935,417.6211 L275.7935,407.6211 L127.5,407.6211 A0,0 0 0 0 127.5,407.6211 " fill="#FEFFDD" style="stroke:#181818;stroke-width:0.5;"/><path d="M275.7935,407.6211 L275.7935,417.6211 L285.7935,417.6211 L275.7935,407.6211 " fill="#FEFFDD" style="stroke:#181818;stroke-width:0.5;"/><text fill="#000000" font-family="sans-serif" font-size="13" lengthAdjust="spacing" textLength="137.2935" x="133.5" y="426.6494">Must be positive integer</text><path d="M127.5,444.9121 L127.5,454.5576 L86.6445,468.6738 L127.5,462.5576 L127.5,472.2031 A0,0 0 0 0 127.5,472.2031 L285.7935,472.2031 A0,0 0 0 0 285.7935,472.2031 L285.7935,454.9121 L275.7935,444.9121 L127.5,444.9121 A0,0 0 0 0 127.5,444.9121 " fill="#FEFFDD" style="stroke:#181818;stroke-width:0.5;"/><path d="M275.7935,444.9121 L275.7935,454.9121 L285.7935,454.9121 L275.7935,444.9121 " fill="#FEFFDD" style="stroke:#181818;stroke-width:0.5;"/><text fill="#000000" font-family="sans-serif" font-size="13" lengthAdjust="spacing" textLength="137.2935" x="133.5" y="463.9404">Must be positive integer</text><!--link Editor to Map--><g id="link_Editor_Map"><path codeLine="42" d="M67.5,157.6511 C67.5,182.8711 67.5,212.4711 67.5,236.4311 " fill="none" id="Editor-Map" style="stroke:#181818;stroke-width:1.0;"/><polygon fill="#000000" points="72.5,202.2666,75.4389,193.2215,69.5611,193.2215,72.5,202.2666" style="stroke:#000000;stroke-width:1.0;"/><text fill="#000000" font-family="sans-serif" font-size="13" lengthAdjust="spacing" textLength="42.6309" x="81.5" y="202.6494">creates</text><text fill="#000000" font-family="sans-serif" font-size="13" lengthAdjust="spacing" textLength="7.23" x="60.0694" y="179.8951">1</text><text fill="#000000" font-family="sans-serif" font-size="13" lengthAdjust="spacing" textLength="5.0591" x="62.1514" y="225.4126">*</text></g><!--link Map to Size--><g id="link_Map_Size"><path codeLine="43" d="M67.5,328.7611 C67.5,353.7911 67.5,384.5011 67.5,407.9411 " fill="none" id="Map-Size" style="stroke:#181818;stroke-width:1.0;"/><polygon fill="#000000" points="72.5,373.2666,75.4389,364.2215,69.5611,364.2215,72.5,373.2666" style="stroke:#000000;stroke-width:1.0;"/><text fill="#000000" font-family="sans-serif" font-size="13" lengthAdjust="spacing" textLength="20.96" x="81.5" y="373.6494">has</text><text fill="#000000" font-family="sans-serif" font-size="13" lengthAdjust="spacing" textLength="5.0591" x="62.1365" y="351.1414">*</text><text fill="#000000" font-family="sans-serif" font-size="13" lengthAdjust="spacing" textLength="7.23" x="59.8842" y="396.8708">1</text></g><!--SRC=[ZL11RW8n3Bpd5TOUAo71DOTA1Nf0WXFY0I4nknRPP9LuGMtLlpVE0fMujAV47izuFFbCOJ39z90xu-ALGWidupEg_42iDpc_CISwZemR6yEUFX7cpoFmfG2MnfxR5CVWLj7715jgErxw4GMBoM6Q-hNrhLH73i5IiXwdVu_SHPSL4tk4TUmD1TX5Xrx3OJzVm0nM2GqZ6DYPGQbfzxiZBh9YOSoOWkbbur2WQzbQlhQINA7atsflCPX4COkLIQWCL1LHsAnbbFXZIvdBbu8RCwUfV31g6aAvakEkl1tAqJ8GOl6Pf89u4ccj7xgx8WL7EUDYF3auKRct-iRWG9ZFV5cazNtBdJ_4J4mNBEuOMqn_q6_c_iM_XTei6fZDe7bfQZhwbbw6LoMrz0KkKpKA3PqHx0S0]--></g></svg>