<svg xmlns="http://www.w3.org/2000/svg" xmlns:xlink="http://www.w3.org/1999/xlink" contentStyleType="text/css" height="451px" preserveAspectRatio="none" style="width:304px;height:451px;background:#FFFFFF;" version="1.1" viewBox="0 0 304 451" width="304px" zoomAndPan="magnify"><title>Domain Model: US01 - Create a Map</title><defs/><g><text fill="#000000" font-family="sans-serif" font-size="14" font-weight="bold" lengthAdjust="spacing" textLength="238.8271" x="25.9832" y="25.1074">Domain Model: US01 - Create a Map</text><!--class Editor--><g id="elem_Editor"><rect codeLine="12" fill="#ADD8E6" height="111.1055" id="Editor" rx="2.5" ry="2.5" style="stroke:#0000FF;stroke-width:0.5;" width="120.9512" x="7" y="46.6211"/><text fill="#000000" font-family="sans-serif" font-size="14" lengthAdjust="spacing" textLength="36.5723" x="49.1895" y="66.7285">Editor</text><line style="stroke:#0000FF;stroke-width:0.5;" x1="8" x2="126.9512" y1="75.2422" y2="75.2422"/><text fill="#000000" font-family="sans-serif" font-size="14" lengthAdjust="spacing" textLength="62.2549" x="13" y="94.3496">username</text><text fill="#000000" font-family="sans-serif" font-size="14" lengthAdjust="spacing" textLength="59.917" x="13" y="112.9707">password</text><text fill="#000000" font-family="sans-serif" font-size="14" lengthAdjust="spacing" textLength="80.9307" x="13" y="131.5918">createdMaps</text><text fill="#000000" font-family="sans-serif" font-size="14" lengthAdjust="spacing" textLength="108.9512" x="13" y="150.2129">createdScenarios</text></g><!--class Map--><g id="elem_Map"><rect codeLine="19" fill="#ADD8E6" height="55.2422" id="Map" rx="2.5" ry="2.5" style="stroke:#0000FF;stroke-width:0.5;" width="61.0205" x="37" y="236.6211"/><text fill="#000000" font-family="sans-serif" font-size="14" lengthAdjust="spacing" textLength="27.2344" x="53.8931" y="256.7285">Map</text><line style="stroke:#0000FF;stroke-width:0.5;" x1="38" x2="97.0205" y1="265.2422" y2="265.2422"/><text fill="#000000" font-family="sans-serif" font-size="14" lengthAdjust="spacing" textLength="49.0205" x="43" y="284.3496">nameID</text></g><!--class Size--><g id="elem_Size"><rect codeLine="23" fill="#ADD8E6" height="73.8633" id="Size" rx="2.5" ry="2.5" style="stroke:#0000FF;stroke-width:0.5;" width="50.1445" x="42.5" y="371.1211"/><text fill="#000000" font-family="sans-serif" font-size="14" lengthAdjust="spacing" textLength="27.2344" x="53.9551" y="391.2285">Size</text><line style="stroke:#0000FF;stroke-width:0.5;" x1="43.5" x2="91.6445" y1="399.7422" y2="399.7422"/><text fill="#000000" font-family="sans-serif" font-size="14" lengthAdjust="spacing" textLength="32.6826" x="48.5" y="418.8496">width</text><text fill="#000000" font-family="sans-serif" font-size="14" lengthAdjust="spacing" textLength="38.1445" x="48.5" y="437.4707">height</text></g><path d="M133,245.6211 L133,255.2666 L92.0205,278.5527 L133,263.2666 L133,272.9121 A0,0 0 0 0 133,272.9121 L297.7935,272.9121 A0,0 0 0 0 297.7935,272.9121 L297.7935,255.6211 L287.7935,245.6211 L133,245.6211 A0,0 0 0 0 133,245.6211 " fill="#FEFFDD" style="stroke:#181818;stroke-width:0.5;"/><path d="M287.7935,245.6211 L287.7935,255.6211 L297.7935,255.6211 L287.7935,245.6211 " fill="#FEFFDD" style="stroke:#181818;stroke-width:0.5;"/><text fill="#000000" font-family="sans-serif" font-size="13" lengthAdjust="spacing" textLength="143.7935" x="139" y="264.6494">Must be a valid file name</text><path d="M127.5,370.6211 L127.5,380.2666 L81.1826,413.0527 L127.5,388.2666 L127.5,397.9121 A0,0 0 0 0 127.5,397.9121 L285.7935,397.9121 A0,0 0 0 0 285.7935,397.9121 L285.7935,380.6211 L275.7935,370.6211 L127.5,370.6211 A0,0 0 0 0 127.5,370.6211 " fill="#FEFFDD" style="stroke:#181818;stroke-width:0.5;"/><path d="M275.7935,370.6211 L275.7935,380.6211 L285.7935,380.6211 L275.7935,370.6211 " fill="#FEFFDD" style="stroke:#181818;stroke-width:0.5;"/><text fill="#000000" font-family="sans-serif" font-size="13" lengthAdjust="spacing" textLength="137.2935" x="133.5" y="389.6494">Must be positive integer</text><path d="M127.5,407.9121 L127.5,417.5576 L86.6445,431.6738 L127.5,425.5576 L127.5,435.2031 A0,0 0 0 0 127.5,435.2031 L285.7935,435.2031 A0,0 0 0 0 285.7935,435.2031 L285.7935,417.9121 L275.7935,407.9121 L127.5,407.9121 A0,0 0 0 0 127.5,407.9121 " fill="#FEFFDD" style="stroke:#181818;stroke-width:0.5;"/><path d="M275.7935,407.9121 L275.7935,417.9121 L285.7935,417.9121 L275.7935,407.9121 " fill="#FEFFDD" style="stroke:#181818;stroke-width:0.5;"/><text fill="#000000" font-family="sans-serif" font-size="13" lengthAdjust="spacing" textLength="137.2935" x="133.5" y="426.9404">Must be positive integer</text><!--link Editor to Map--><g id="link_Editor_Map"><path codeLine="40" d="M67.5,157.7411 C67.5,184.3511 67.5,215.1511 67.5,236.5511 " fill="none" id="Editor-Map" style="stroke:#181818;stroke-width:1.0;"/><polygon fill="#000000" points="72.5,202.2666,75.4389,193.2215,69.5611,193.2215,72.5,202.2666" style="stroke:#000000;stroke-width:1.0;"/><text fill="#000000" font-family="sans-serif" font-size="13" lengthAdjust="spacing" textLength="42.6309" x="81.5" y="202.6494">creates</text><text fill="#000000" font-family="sans-serif" font-size="13" lengthAdjust="spacing" textLength="7.23" x="60.0904" y="179.5953">1</text><text fill="#000000" font-family="sans-serif" font-size="13" lengthAdjust="spacing" textLength="5.0591" x="61.9263" y="225.2439">*</text></g><!--link Map to Size--><g id="link_Map_Size"><path codeLine="41" d="M67.5,291.8311 C67.5,314.1611 67.5,346.2311 67.5,370.8811 " fill="none" id="Map-Size" style="stroke:#181818;stroke-width:1.0;"/><polygon fill="#000000" points="72.5,336.2666,75.4389,327.2215,69.5611,327.2215,72.5,336.2666" style="stroke:#000000;stroke-width:1.0;"/><text fill="#000000" font-family="sans-serif" font-size="13" lengthAdjust="spacing" textLength="20.96" x="81.5" y="336.6494">has</text><text fill="#000000" font-family="sans-serif" font-size="13" lengthAdjust="spacing" textLength="5.0591" x="61.9573" y="313.7857">*</text><text fill="#000000" font-family="sans-serif" font-size="13" lengthAdjust="spacing" textLength="7.23" x="59.8842" y="359.8001">1</text></g><!--SRC=[ZL2zRW8n3Dxp5DQDbP1WpL2fG0Sac50Vm5pCnIANd98SIAtwxerpHv5OsYcnFty_Thgm7p1Y3ycY2JVs7PpH9LBf5saTflIMS-JJc6dN1d_aJuBbymXyAO0rjfSkXj6RJN0XmfuxczTk9C52D1IdVcrzAsNP4BGSMqVJlwTiWqagStO4sz0ZUpW4Gqx3nt6vWWLi8c4cG3ZWeDJa_Muu5rc9C2QA7djn70fqAwxbsrQIAPJqg8ujUOmSaaIPXCf0LH65tVRHhpiBS6EJRNajoMeou4D94wM2S1O1hMSsm65C6KuIzegE3PovR5NJaJSWp6U-66bzTxdpXv0uyvM0VQQEuX_qETo_-FFfcbK3YmKqBqszWPvlbE1LIIrzWSjKFOK6YuBz0000]--></g></svg>