<svg xmlns="http://www.w3.org/2000/svg" xmlns:xlink="http://www.w3.org/1999/xlink" contentStyleType="text/css" height="948px" preserveAspectRatio="none" style="width:501px;height:948px;background:#FFFFFF;" version="1.1" viewBox="0 0 501 948" width="501px" zoomAndPan="magnify"><title>System Sequence Diagram - US05: Build a Station</title><defs/><g><text fill="#000000" font-family="sans-serif" font-size="14" font-weight="bold" lengthAdjust="spacing" textLength="333.7578" x="85.6169" y="30.1074">System Sequence Diagram - US05: Build a Station</text><rect fill="#FFFFFF" height="722.6934" style="stroke:#181818;stroke-width:1.0;" width="10" x="37.8413" y="133.2422"/><rect fill="#FFFFFF" height="31.291" style="stroke:#181818;stroke-width:1.0;" width="10" x="448.709" y="156.5332"/><rect fill="#FFFFFF" height="31.291" style="stroke:#181818;stroke-width:1.0;" width="10" x="448.709" y="219.1152"/><rect fill="#FFFFFF" height="31.291" style="stroke:#181818;stroke-width:1.0;" width="10" x="448.709" y="281.6973"/><rect fill="#FFFFFF" height="31.291" style="stroke:#181818;stroke-width:1.0;" width="10" x="448.709" y="344.2793"/><rect fill="#FFFFFF" height="31.291" style="stroke:#181818;stroke-width:1.0;" width="10" x="448.709" y="406.8613"/><rect fill="#FFFFFF" height="57.582" style="stroke:#181818;stroke-width:1.0;" width="10" x="448.709" y="469.4434"/><rect fill="#FFFFFF" height="69.582" style="stroke:#181818;stroke-width:1.0;" width="10" x="448.709" y="558.3164"/><rect fill="#FFFFFF" height="93.873" style="stroke:#181818;stroke-width:1.0;" width="10" x="448.709" y="659.1895"/><rect fill="#FFFFFF" height="62.582" style="stroke:#181818;stroke-width:1.0;" width="10" x="448.709" y="784.3535"/><rect fill="none" height="81.873" style="stroke:#000000;stroke-width:1.5;" width="485.9917" x="10" y="484.4434"/><line style="stroke:#181818;stroke-width:0.5;stroke-dasharray:5.0,5.0;" x1="42" x2="42" y1="123.2422" y2="864.9355"/><line style="stroke:#181818;stroke-width:0.5;stroke-dasharray:5.0,5.0;" x1="453.4263" x2="453.4263" y1="123.2422" y2="864.9355"/><text fill="#000000" font-family="sans-serif" font-size="14" lengthAdjust="spacing" textLength="39.6826" x="20" y="119.7285">Player</text><ellipse cx="42.8413" cy="53.1211" fill="#E2E2F0" rx="8" ry="8" style="stroke:#181818;stroke-width:0.5;"/><path d="M42.8413,61.1211 L42.8413,88.1211 M29.8413,69.1211 L55.8413,69.1211 M42.8413,88.1211 L29.8413,103.1211 M42.8413,88.1211 L55.8413,103.1211 " fill="none" style="stroke:#181818;stroke-width:0.5;"/><text fill="#000000" font-family="sans-serif" font-size="14" lengthAdjust="spacing" textLength="39.6826" x="20" y="879.043">Player</text><ellipse cx="42.8413" cy="891.0566" fill="#E2E2F0" rx="8" ry="8" style="stroke:#181818;stroke-width:0.5;"/><path d="M42.8413,899.0566 L42.8413,926.0566 M29.8413,907.0566 L55.8413,907.0566 M42.8413,926.0566 L29.8413,941.0566 M42.8413,926.0566 L55.8413,941.0566 " fill="none" style="stroke:#181818;stroke-width:0.5;"/><rect fill="#E2E2F0" height="32.6211" rx="2.5" ry="2.5" style="stroke:#181818;stroke-width:0.5;" width="64.5654" x="421.4263" y="89.6211"/><text fill="#000000" font-family="sans-serif" font-size="14" lengthAdjust="spacing" textLength="50.5654" x="428.4263" y="111.7285">:System</text><rect fill="#E2E2F0" height="32.6211" rx="2.5" ry="2.5" style="stroke:#181818;stroke-width:0.5;" width="64.5654" x="421.4263" y="863.9355"/><text fill="#000000" font-family="sans-serif" font-size="14" lengthAdjust="spacing" textLength="50.5654" x="428.4263" y="886.043">:System</text><rect fill="#FFFFFF" height="722.6934" style="stroke:#181818;stroke-width:1.0;" width="10" x="37.8413" y="133.2422"/><rect fill="#FFFFFF" height="31.291" style="stroke:#181818;stroke-width:1.0;" width="10" x="448.709" y="156.5332"/><rect fill="#FFFFFF" height="31.291" style="stroke:#181818;stroke-width:1.0;" width="10" x="448.709" y="219.1152"/><rect fill="#FFFFFF" height="31.291" style="stroke:#181818;stroke-width:1.0;" width="10" x="448.709" y="281.6973"/><rect fill="#FFFFFF" height="31.291" style="stroke:#181818;stroke-width:1.0;" width="10" x="448.709" y="344.2793"/><rect fill="#FFFFFF" height="31.291" style="stroke:#181818;stroke-width:1.0;" width="10" x="448.709" y="406.8613"/><rect fill="#FFFFFF" height="57.582" style="stroke:#181818;stroke-width:1.0;" width="10" x="448.709" y="469.4434"/><rect fill="#FFFFFF" height="69.582" style="stroke:#181818;stroke-width:1.0;" width="10" x="448.709" y="558.3164"/><rect fill="#FFFFFF" height="93.873" style="stroke:#181818;stroke-width:1.0;" width="10" x="448.709" y="659.1895"/><rect fill="#FFFFFF" height="62.582" style="stroke:#181818;stroke-width:1.0;" width="10" x="448.709" y="784.3535"/><polygon fill="#181818" points="436.709,152.5332,446.709,156.5332,436.709,160.5332,440.709,156.5332" style="stroke:#181818;stroke-width:1.0;"/><line style="stroke:#181818;stroke-width:1.0;" x1="47.8413" x2="442.709" y1="156.5332" y2="156.5332"/><text fill="#000000" font-family="sans-serif" font-size="13" font-weight="bold" lengthAdjust="spacing" textLength="7.23" x="54.8413" y="151.2705">1</text><text fill="#000000" font-family="sans-serif" font-size="13" lengthAdjust="spacing" textLength="156.0825" x="66.0713" y="151.2705">asks to see available maps</text><polygon fill="#181818" points="58.8413,183.8242,48.8413,187.8242,58.8413,191.8242,54.8413,187.8242" style="stroke:#181818;stroke-width:1.0;"/><line style="stroke:#181818;stroke-width:1.0;stroke-dasharray:2.0,2.0;" x1="52.8413" x2="452.709" y1="187.8242" y2="187.8242"/><text fill="#000000" font-family="sans-serif" font-size="13" font-weight="bold" lengthAdjust="spacing" textLength="7.23" x="64.8413" y="182.5615">2</text><text fill="#000000" font-family="sans-serif" font-size="13" lengthAdjust="spacing" textLength="203.0425" x="76.0713" y="182.5615">shows list of available maps to play</text><polygon fill="#181818" points="436.709,215.1152,446.709,219.1152,436.709,223.1152,440.709,219.1152" style="stroke:#181818;stroke-width:1.0;"/><line style="stroke:#181818;stroke-width:1.0;" x1="47.8413" x2="442.709" y1="219.1152" y2="219.1152"/><text fill="#000000" font-family="sans-serif" font-size="13" font-weight="bold" lengthAdjust="spacing" textLength="7.23" x="54.8413" y="213.8525">3</text><text fill="#000000" font-family="sans-serif" font-size="13" lengthAdjust="spacing" textLength="80.2026" x="66.0713" y="213.8525">selects a map</text><polygon fill="#181818" points="58.8413,246.4063,48.8413,250.4063,58.8413,254.4063,54.8413,250.4063" style="stroke:#181818;stroke-width:1.0;"/><line style="stroke:#181818;stroke-width:1.0;stroke-dasharray:2.0,2.0;" x1="52.8413" x2="452.709" y1="250.4063" y2="250.4063"/><text fill="#000000" font-family="sans-serif" font-size="13" font-weight="bold" lengthAdjust="spacing" textLength="7.23" x="64.8413" y="245.1436">4</text><text fill="#000000" font-family="sans-serif" font-size="13" lengthAdjust="spacing" textLength="226.8906" x="76.0713" y="245.1436">shows list of available scenarios to play</text><polygon fill="#181818" points="436.709,277.6973,446.709,281.6973,436.709,285.6973,440.709,281.6973" style="stroke:#181818;stroke-width:1.0;"/><line style="stroke:#181818;stroke-width:1.0;" x1="47.8413" x2="442.709" y1="281.6973" y2="281.6973"/><text fill="#000000" font-family="sans-serif" font-size="13" font-weight="bold" lengthAdjust="spacing" textLength="7.23" x="54.8413" y="276.4346">5</text><text fill="#000000" font-family="sans-serif" font-size="13" lengthAdjust="spacing" textLength="104.0508" x="66.0713" y="276.4346">selects a scenario</text><polygon fill="#181818" points="58.8413,308.9883,48.8413,312.9883,58.8413,316.9883,54.8413,312.9883" style="stroke:#181818;stroke-width:1.0;"/><line style="stroke:#181818;stroke-width:1.0;stroke-dasharray:2.0,2.0;" x1="52.8413" x2="452.709" y1="312.9883" y2="312.9883"/><text fill="#000000" font-family="sans-serif" font-size="13" font-weight="bold" lengthAdjust="spacing" textLength="7.23" x="64.8413" y="307.7256">6</text><text fill="#000000" font-family="sans-serif" font-size="13" lengthAdjust="spacing" textLength="209.5742" x="76.0713" y="307.7256">loads and displays the selected map</text><polygon fill="#181818" points="436.709,340.2793,446.709,344.2793,436.709,348.2793,440.709,344.2793" style="stroke:#181818;stroke-width:1.0;"/><line style="stroke:#181818;stroke-width:1.0;" x1="47.8413" x2="442.709" y1="344.2793" y2="344.2793"/><text fill="#000000" font-family="sans-serif" font-size="13" font-weight="bold" lengthAdjust="spacing" textLength="7.23" x="54.8413" y="339.0166">7</text><text fill="#000000" font-family="sans-serif" font-size="13" lengthAdjust="spacing" textLength="125.0171" x="66.0713" y="339.0166">asks to build a station</text><polygon fill="#181818" points="58.8413,371.5703,48.8413,375.5703,58.8413,379.5703,54.8413,375.5703" style="stroke:#181818;stroke-width:1.0;"/><line style="stroke:#181818;stroke-width:1.0;stroke-dasharray:2.0,2.0;" x1="52.8413" x2="452.709" y1="375.5703" y2="375.5703"/><text fill="#000000" font-family="sans-serif" font-size="13" font-weight="bold" lengthAdjust="spacing" textLength="7.23" x="64.8413" y="370.3076">8</text><text fill="#000000" font-family="sans-serif" font-size="13" lengthAdjust="spacing" textLength="313.5234" x="76.0713" y="370.3076">requests station type (DEPOT, STATION, TERMINAL)</text><polygon fill="#181818" points="436.709,402.8613,446.709,406.8613,436.709,410.8613,440.709,406.8613" style="stroke:#181818;stroke-width:1.0;"/><line style="stroke:#181818;stroke-width:1.0;" x1="47.8413" x2="442.709" y1="406.8613" y2="406.8613"/><text fill="#000000" font-family="sans-serif" font-size="13" font-weight="bold" lengthAdjust="spacing" textLength="7.23" x="54.8413" y="401.5986">9</text><text fill="#000000" font-family="sans-serif" font-size="13" lengthAdjust="spacing" textLength="110.5571" x="66.0713" y="401.5986">selects station type</text><polygon fill="#181818" points="58.8413,434.1523,48.8413,438.1523,58.8413,442.1523,54.8413,438.1523" style="stroke:#181818;stroke-width:1.0;"/><line style="stroke:#181818;stroke-width:1.0;stroke-dasharray:2.0,2.0;" x1="52.8413" x2="452.709" y1="438.1523" y2="438.1523"/><text fill="#000000" font-family="sans-serif" font-size="13" font-weight="bold" lengthAdjust="spacing" textLength="14.46" x="64.8413" y="432.8896">10</text><text fill="#000000" font-family="sans-serif" font-size="13" lengthAdjust="spacing" textLength="286.1523" x="83.3013" y="432.8896">requests location (Position) on map for the station</text><polygon fill="#181818" points="436.709,465.4434,446.709,469.4434,436.709,473.4434,440.709,469.4434" style="stroke:#181818;stroke-width:1.0;"/><line style="stroke:#181818;stroke-width:1.0;" x1="47.8413" x2="442.709" y1="469.4434" y2="469.4434"/><text fill="#000000" font-family="sans-serif" font-size="13" font-weight="bold" lengthAdjust="spacing" textLength="14.46" x="54.8413" y="464.1807">11</text><text fill="#000000" font-family="sans-serif" font-size="13" lengthAdjust="spacing" textLength="168.3779" x="73.3013" y="464.1807">provides location coordinates</text><path d="M10,484.4434 L70.1709,484.4434 L70.1709,493.7344 L60.1709,503.7344 L10,503.7344 L10,484.4434 " fill="#EEEEEE" style="stroke:#000000;stroke-width:1.5;"/><rect fill="none" height="81.873" style="stroke:#000000;stroke-width:1.5;" width="485.9917" x="10" y="484.4434"/><text fill="#000000" font-family="sans-serif" font-size="13" font-weight="bold" lengthAdjust="spacing" textLength="15.1709" x="25" y="499.4717">alt</text><text fill="#000000" font-family="sans-serif" font-size="11" font-weight="bold" lengthAdjust="spacing" textLength="143.0483" x="85.1709" y="498.3135">[station type is "STATION"]</text><polygon fill="#181818" points="58.8413,523.0254,48.8413,527.0254,58.8413,531.0254,54.8413,527.0254" style="stroke:#181818;stroke-width:1.0;"/><line style="stroke:#181818;stroke-width:1.0;stroke-dasharray:2.0,2.0;" x1="52.8413" x2="452.709" y1="527.0254" y2="527.0254"/><text fill="#000000" font-family="sans-serif" font-size="13" font-weight="bold" lengthAdjust="spacing" textLength="14.46" x="64.8413" y="521.7627">12</text><text fill="#000000" font-family="sans-serif" font-size="13" lengthAdjust="spacing" textLength="288.2661" x="83.3013" y="521.7627">requests center point selection (NE, SE, NW, SW)</text><polygon fill="#181818" points="436.709,554.3164,446.709,558.3164,436.709,562.3164,440.709,558.3164" style="stroke:#181818;stroke-width:1.0;"/><line style="stroke:#181818;stroke-width:1.0;" x1="47.8413" x2="442.709" y1="558.3164" y2="558.3164"/><text fill="#000000" font-family="sans-serif" font-size="13" font-weight="bold" lengthAdjust="spacing" textLength="14.46" x="54.8413" y="553.0537">13</text><text fill="#000000" font-family="sans-serif" font-size="13" lengthAdjust="spacing" textLength="112.0044" x="73.3013" y="553.0537">selects center point</text><polygon fill="#181818" points="58.8413,592.6074,48.8413,596.6074,58.8413,600.6074,54.8413,596.6074" style="stroke:#181818;stroke-width:1.0;"/><line style="stroke:#181818;stroke-width:1.0;stroke-dasharray:2.0,2.0;" x1="52.8413" x2="447.709" y1="596.6074" y2="596.6074"/><text fill="#000000" font-family="sans-serif" font-size="13" font-weight="bold" lengthAdjust="spacing" textLength="14.46" x="64.8413" y="591.3447">14</text><text fill="#000000" font-family="sans-serif" font-size="13" lengthAdjust="spacing" textLength="140.9307" x="83.3013" y="591.3447">requests default building</text><polygon fill="#181818" points="58.8413,623.8984,48.8413,627.8984,58.8413,631.8984,54.8413,627.8984" style="stroke:#181818;stroke-width:1.0;"/><line style="stroke:#181818;stroke-width:1.0;stroke-dasharray:2.0,2.0;" x1="52.8413" x2="452.709" y1="627.8984" y2="627.8984"/><text fill="#000000" font-family="sans-serif" font-size="13" font-weight="bold" lengthAdjust="spacing" textLength="14.46" x="64.8413" y="622.6357">15</text><text fill="#000000" font-family="sans-serif" font-size="13" lengthAdjust="spacing" textLength="180.6543" x="83.3013" y="622.6357">shows list of available buildings</text><polygon fill="#181818" points="436.709,655.1895,446.709,659.1895,436.709,663.1895,440.709,659.1895" style="stroke:#181818;stroke-width:1.0;"/><line style="stroke:#181818;stroke-width:1.0;" x1="47.8413" x2="442.709" y1="659.1895" y2="659.1895"/><text fill="#000000" font-family="sans-serif" font-size="13" font-weight="bold" lengthAdjust="spacing" textLength="14.46" x="54.8413" y="653.9268">16</text><text fill="#000000" font-family="sans-serif" font-size="13" lengthAdjust="spacing" textLength="131.5298" x="73.3013" y="653.9268">selects default building</text><polygon fill="#181818" points="58.8413,686.4805,48.8413,690.4805,58.8413,694.4805,54.8413,690.4805" style="stroke:#181818;stroke-width:1.0;"/><line style="stroke:#181818;stroke-width:1.0;stroke-dasharray:2.0,2.0;" x1="52.8413" x2="447.709" y1="690.4805" y2="690.4805"/><text fill="#000000" font-family="sans-serif" font-size="13" font-weight="bold" lengthAdjust="spacing" textLength="14.46" x="64.8413" y="685.2178">17</text><text fill="#000000" font-family="sans-serif" font-size="13" lengthAdjust="spacing" textLength="255.8105" x="83.3013" y="685.2178">proposes station name based on closest city</text><polygon fill="#181818" points="58.8413,717.7715,48.8413,721.7715,58.8413,725.7715,54.8413,721.7715" style="stroke:#181818;stroke-width:1.0;"/><line style="stroke:#181818;stroke-width:1.0;stroke-dasharray:2.0,2.0;" x1="52.8413" x2="447.709" y1="721.7715" y2="721.7715"/><text fill="#000000" font-family="sans-serif" font-size="13" font-weight="bold" lengthAdjust="spacing" textLength="14.46" x="64.8413" y="716.5088">18</text><text fill="#000000" font-family="sans-serif" font-size="13" lengthAdjust="spacing" textLength="239.9033" x="83.3013" y="716.5088">displays station cost and economic radius</text><polygon fill="#181818" points="58.8413,749.0625,48.8413,753.0625,58.8413,757.0625,54.8413,753.0625" style="stroke:#181818;stroke-width:1.0;"/><line style="stroke:#181818;stroke-width:1.0;stroke-dasharray:2.0,2.0;" x1="52.8413" x2="452.709" y1="753.0625" y2="753.0625"/><text fill="#000000" font-family="sans-serif" font-size="13" font-weight="bold" lengthAdjust="spacing" textLength="14.46" x="64.8413" y="747.7998">19</text><text fill="#000000" font-family="sans-serif" font-size="13" lengthAdjust="spacing" textLength="358.4077" x="83.3013" y="747.7998">shows preview of station placement and requests confirmation</text><polygon fill="#181818" points="436.709,780.3535,446.709,784.3535,436.709,788.3535,440.709,784.3535" style="stroke:#181818;stroke-width:1.0;"/><line style="stroke:#181818;stroke-width:1.0;" x1="47.8413" x2="442.709" y1="784.3535" y2="784.3535"/><text fill="#000000" font-family="sans-serif" font-size="13" font-weight="bold" lengthAdjust="spacing" textLength="14.46" x="54.8413" y="779.0908">20</text><text fill="#000000" font-family="sans-serif" font-size="13" lengthAdjust="spacing" textLength="154.6226" x="73.3013" y="779.0908">confirms station placement</text><polygon fill="#181818" points="58.8413,811.6445,48.8413,815.6445,58.8413,819.6445,54.8413,815.6445" style="stroke:#181818;stroke-width:1.0;"/><line style="stroke:#181818;stroke-width:1.0;stroke-dasharray:2.0,2.0;" x1="52.8413" x2="447.709" y1="815.6445" y2="815.6445"/><text fill="#000000" font-family="sans-serif" font-size="13" font-weight="bold" lengthAdjust="spacing" textLength="14.46" x="64.8413" y="810.3818">21</text><text fill="#000000" font-family="sans-serif" font-size="13" lengthAdjust="spacing" textLength="155.3589" x="83.3013" y="810.3818">displays operation success</text><polygon fill="#181818" points="58.8413,842.9355,48.8413,846.9355,58.8413,850.9355,54.8413,846.9355" style="stroke:#181818;stroke-width:1.0;"/><line style="stroke:#181818;stroke-width:1.0;stroke-dasharray:2.0,2.0;" x1="52.8413" x2="452.709" y1="846.9355" y2="846.9355"/><text fill="#000000" font-family="sans-serif" font-size="13" font-weight="bold" lengthAdjust="spacing" textLength="14.46" x="64.8413" y="841.6729">22</text><text fill="#000000" font-family="sans-serif" font-size="13" lengthAdjust="spacing" textLength="192.9497" x="83.3013" y="841.6729">updates map with the new station</text><!--SRC=[fLF1Rjf04BtxAqO-1Ib8lVJ2eLAgS8ZK4bIeSXvsXp2glUlkh47yVSThEr0C21Gav0NlU_FcpJoietTrkQAGPP5ZGP0lzXAfX0NzhSaPWcV6zu0bZE7tuilN2NolkR20i8WOsRiyop8qqGV8vmNkAUI00kqngp14DboXYv1FMkRqlZqc96ynKWze7p3-rjsOwEK_0j63405kaGjSgSeIApc0ExPE-LZHBSy4PEDt0WLB1By-mJUibTxBB9qo3MK85MIYQDyA_KnbCUGmiB-dF1pNxma68iwfA3nQ1JaBbgMffcKtrB6HJSqCwryPmwgRlhJJpswn8ZIh92g-0q7SLmGFpzFvw_8H5ikdvSlhx16Mqry_NsPFFqQtAUeTEIQzJqxXJGjzc7lXvZG2_QMUm5htEHdLjNcJeYhuBLiw8ZRU1yjEOJAKXaNytn4MJL_hHfw1Vgw9ros8MhxohDbglKYjpAPggNvdR_fy6oMUC-gRlozxUaoUhfxYoTchrbfQOwtzfNLXztvFGdgCtBS7WvAtv4D7LdcXmnOvB5K1YcQZcL_Hl8nWEExFmJz2rSEDrzjDtCXuvqis4D1oBPVxhm9jcNQD1Js9KXegTGI9wJ1nxzOSoZiMiaF8aFcce7nqvoiABO7Knf2SRQUkRBFdAJuxZfkK7wUTNSxGFm00]--></g></svg>