<svg xmlns="http://www.w3.org/2000/svg" xmlns:xlink="http://www.w3.org/1999/xlink" contentStyleType="text/css" height="760px" preserveAspectRatio="none" style="width:501px;height:760px;background:#FFFFFF;" version="1.1" viewBox="0 0 501 760" width="501px" zoomAndPan="magnify"><title>System Sequence Diagram - US05: Build a Station</title><defs/><g><text fill="#000000" font-family="sans-serif" font-size="14" font-weight="bold" lengthAdjust="spacing" textLength="333.7578" x="85.6169" y="30.1074">System Sequence Diagram - US05: Build a Station</text><rect fill="#FFFFFF" height="534.9473" style="stroke:#181818;stroke-width:1.0;" width="10" x="37.8413" y="133.2422"/><rect fill="#FFFFFF" height="31.291" style="stroke:#181818;stroke-width:1.0;" width="10" x="448.709" y="156.5332"/><rect fill="#FFFFFF" height="31.291" style="stroke:#181818;stroke-width:1.0;" width="10" x="448.709" y="219.1152"/><rect fill="#FFFFFF" height="57.582" style="stroke:#181818;stroke-width:1.0;" width="10" x="448.709" y="281.6973"/><rect fill="#FFFFFF" height="69.582" style="stroke:#181818;stroke-width:1.0;" width="10" x="448.709" y="370.5703"/><rect fill="#FFFFFF" height="93.873" style="stroke:#181818;stroke-width:1.0;" width="10" x="448.709" y="471.4434"/><rect fill="#FFFFFF" height="62.582" style="stroke:#181818;stroke-width:1.0;" width="10" x="448.709" y="596.6074"/><rect fill="none" height="81.873" style="stroke:#000000;stroke-width:1.5;" width="485.9917" x="10" y="296.6973"/><line style="stroke:#181818;stroke-width:0.5;stroke-dasharray:5.0,5.0;" x1="42" x2="42" y1="123.2422" y2="677.1895"/><line style="stroke:#181818;stroke-width:0.5;stroke-dasharray:5.0,5.0;" x1="453.4263" x2="453.4263" y1="123.2422" y2="677.1895"/><text fill="#000000" font-family="sans-serif" font-size="14" lengthAdjust="spacing" textLength="39.6826" x="20" y="119.7285">Player</text><ellipse cx="42.8413" cy="53.1211" fill="#E2E2F0" rx="8" ry="8" style="stroke:#181818;stroke-width:0.5;"/><path d="M42.8413,61.1211 L42.8413,88.1211 M29.8413,69.1211 L55.8413,69.1211 M42.8413,88.1211 L29.8413,103.1211 M42.8413,88.1211 L55.8413,103.1211 " fill="none" style="stroke:#181818;stroke-width:0.5;"/><text fill="#000000" font-family="sans-serif" font-size="14" lengthAdjust="spacing" textLength="39.6826" x="20" y="691.2969">Player</text><ellipse cx="42.8413" cy="703.3105" fill="#E2E2F0" rx="8" ry="8" style="stroke:#181818;stroke-width:0.5;"/><path d="M42.8413,711.3105 L42.8413,738.3105 M29.8413,719.3105 L55.8413,719.3105 M42.8413,738.3105 L29.8413,753.3105 M42.8413,738.3105 L55.8413,753.3105 " fill="none" style="stroke:#181818;stroke-width:0.5;"/><rect fill="#E2E2F0" height="32.6211" rx="2.5" ry="2.5" style="stroke:#181818;stroke-width:0.5;" width="64.5654" x="421.4263" y="89.6211"/><text fill="#000000" font-family="sans-serif" font-size="14" lengthAdjust="spacing" textLength="50.5654" x="428.4263" y="111.7285">:System</text><rect fill="#E2E2F0" height="32.6211" rx="2.5" ry="2.5" style="stroke:#181818;stroke-width:0.5;" width="64.5654" x="421.4263" y="676.1895"/><text fill="#000000" font-family="sans-serif" font-size="14" lengthAdjust="spacing" textLength="50.5654" x="428.4263" y="698.2969">:System</text><rect fill="#FFFFFF" height="534.9473" style="stroke:#181818;stroke-width:1.0;" width="10" x="37.8413" y="133.2422"/><rect fill="#FFFFFF" height="31.291" style="stroke:#181818;stroke-width:1.0;" width="10" x="448.709" y="156.5332"/><rect fill="#FFFFFF" height="31.291" style="stroke:#181818;stroke-width:1.0;" width="10" x="448.709" y="219.1152"/><rect fill="#FFFFFF" height="57.582" style="stroke:#181818;stroke-width:1.0;" width="10" x="448.709" y="281.6973"/><rect fill="#FFFFFF" height="69.582" style="stroke:#181818;stroke-width:1.0;" width="10" x="448.709" y="370.5703"/><rect fill="#FFFFFF" height="93.873" style="stroke:#181818;stroke-width:1.0;" width="10" x="448.709" y="471.4434"/><rect fill="#FFFFFF" height="62.582" style="stroke:#181818;stroke-width:1.0;" width="10" x="448.709" y="596.6074"/><polygon fill="#181818" points="436.709,152.5332,446.709,156.5332,436.709,160.5332,440.709,156.5332" style="stroke:#181818;stroke-width:1.0;"/><line style="stroke:#181818;stroke-width:1.0;" x1="47.8413" x2="442.709" y1="156.5332" y2="156.5332"/><text fill="#000000" font-family="sans-serif" font-size="13" font-weight="bold" lengthAdjust="spacing" textLength="7.23" x="54.8413" y="151.2705">1</text><text fill="#000000" font-family="sans-serif" font-size="13" lengthAdjust="spacing" textLength="125.0171" x="66.0713" y="151.2705">asks to build a station</text><polygon fill="#181818" points="58.8413,183.8242,48.8413,187.8242,58.8413,191.8242,54.8413,187.8242" style="stroke:#181818;stroke-width:1.0;"/><line style="stroke:#181818;stroke-width:1.0;stroke-dasharray:2.0,2.0;" x1="52.8413" x2="452.709" y1="187.8242" y2="187.8242"/><text fill="#000000" font-family="sans-serif" font-size="13" font-weight="bold" lengthAdjust="spacing" textLength="7.23" x="64.8413" y="182.5615">2</text><text fill="#000000" font-family="sans-serif" font-size="13" lengthAdjust="spacing" textLength="313.5234" x="76.0713" y="182.5615">requests station type (DEPOT, STATION, TERMINAL)</text><polygon fill="#181818" points="436.709,215.1152,446.709,219.1152,436.709,223.1152,440.709,219.1152" style="stroke:#181818;stroke-width:1.0;"/><line style="stroke:#181818;stroke-width:1.0;" x1="47.8413" x2="442.709" y1="219.1152" y2="219.1152"/><text fill="#000000" font-family="sans-serif" font-size="13" font-weight="bold" lengthAdjust="spacing" textLength="7.23" x="54.8413" y="213.8525">3</text><text fill="#000000" font-family="sans-serif" font-size="13" lengthAdjust="spacing" textLength="110.5571" x="66.0713" y="213.8525">selects station type</text><polygon fill="#181818" points="58.8413,246.4063,48.8413,250.4063,58.8413,254.4063,54.8413,250.4063" style="stroke:#181818;stroke-width:1.0;"/><line style="stroke:#181818;stroke-width:1.0;stroke-dasharray:2.0,2.0;" x1="52.8413" x2="452.709" y1="250.4063" y2="250.4063"/><text fill="#000000" font-family="sans-serif" font-size="13" font-weight="bold" lengthAdjust="spacing" textLength="7.23" x="64.8413" y="245.1436">4</text><text fill="#000000" font-family="sans-serif" font-size="13" lengthAdjust="spacing" textLength="286.1523" x="76.0713" y="245.1436">requests location (Position) on map for the station</text><polygon fill="#181818" points="436.709,277.6973,446.709,281.6973,436.709,285.6973,440.709,281.6973" style="stroke:#181818;stroke-width:1.0;"/><line style="stroke:#181818;stroke-width:1.0;" x1="47.8413" x2="442.709" y1="281.6973" y2="281.6973"/><text fill="#000000" font-family="sans-serif" font-size="13" font-weight="bold" lengthAdjust="spacing" textLength="7.23" x="54.8413" y="276.4346">5</text><text fill="#000000" font-family="sans-serif" font-size="13" lengthAdjust="spacing" textLength="168.3779" x="66.0713" y="276.4346">provides location coordinates</text><path d="M10,296.6973 L70.1709,296.6973 L70.1709,305.9883 L60.1709,315.9883 L10,315.9883 L10,296.6973 " fill="#EEEEEE" style="stroke:#000000;stroke-width:1.5;"/><rect fill="none" height="81.873" style="stroke:#000000;stroke-width:1.5;" width="485.9917" x="10" y="296.6973"/><text fill="#000000" font-family="sans-serif" font-size="13" font-weight="bold" lengthAdjust="spacing" textLength="15.1709" x="25" y="311.7256">alt</text><text fill="#000000" font-family="sans-serif" font-size="11" font-weight="bold" lengthAdjust="spacing" textLength="143.0483" x="85.1709" y="310.5674">[station type is "STATION"]</text><polygon fill="#181818" points="58.8413,335.2793,48.8413,339.2793,58.8413,343.2793,54.8413,339.2793" style="stroke:#181818;stroke-width:1.0;"/><line style="stroke:#181818;stroke-width:1.0;stroke-dasharray:2.0,2.0;" x1="52.8413" x2="452.709" y1="339.2793" y2="339.2793"/><text fill="#000000" font-family="sans-serif" font-size="13" font-weight="bold" lengthAdjust="spacing" textLength="7.23" x="64.8413" y="334.0166">6</text><text fill="#000000" font-family="sans-serif" font-size="13" lengthAdjust="spacing" textLength="288.2661" x="76.0713" y="334.0166">requests center point selection (NE, SE, NW, SW)</text><polygon fill="#181818" points="436.709,366.5703,446.709,370.5703,436.709,374.5703,440.709,370.5703" style="stroke:#181818;stroke-width:1.0;"/><line style="stroke:#181818;stroke-width:1.0;" x1="47.8413" x2="442.709" y1="370.5703" y2="370.5703"/><text fill="#000000" font-family="sans-serif" font-size="13" font-weight="bold" lengthAdjust="spacing" textLength="7.23" x="54.8413" y="365.3076">7</text><text fill="#000000" font-family="sans-serif" font-size="13" lengthAdjust="spacing" textLength="112.0044" x="66.0713" y="365.3076">selects center point</text><polygon fill="#181818" points="58.8413,404.8613,48.8413,408.8613,58.8413,412.8613,54.8413,408.8613" style="stroke:#181818;stroke-width:1.0;"/><line style="stroke:#181818;stroke-width:1.0;stroke-dasharray:2.0,2.0;" x1="52.8413" x2="447.709" y1="408.8613" y2="408.8613"/><text fill="#000000" font-family="sans-serif" font-size="13" font-weight="bold" lengthAdjust="spacing" textLength="7.23" x="64.8413" y="403.5986">8</text><text fill="#000000" font-family="sans-serif" font-size="13" lengthAdjust="spacing" textLength="140.9307" x="76.0713" y="403.5986">requests default building</text><polygon fill="#181818" points="58.8413,436.1523,48.8413,440.1523,58.8413,444.1523,54.8413,440.1523" style="stroke:#181818;stroke-width:1.0;"/><line style="stroke:#181818;stroke-width:1.0;stroke-dasharray:2.0,2.0;" x1="52.8413" x2="452.709" y1="440.1523" y2="440.1523"/><text fill="#000000" font-family="sans-serif" font-size="13" font-weight="bold" lengthAdjust="spacing" textLength="7.23" x="64.8413" y="434.8896">9</text><text fill="#000000" font-family="sans-serif" font-size="13" lengthAdjust="spacing" textLength="180.6543" x="76.0713" y="434.8896">shows list of available buildings</text><polygon fill="#181818" points="436.709,467.4434,446.709,471.4434,436.709,475.4434,440.709,471.4434" style="stroke:#181818;stroke-width:1.0;"/><line style="stroke:#181818;stroke-width:1.0;" x1="47.8413" x2="442.709" y1="471.4434" y2="471.4434"/><text fill="#000000" font-family="sans-serif" font-size="13" font-weight="bold" lengthAdjust="spacing" textLength="14.46" x="54.8413" y="466.1807">10</text><text fill="#000000" font-family="sans-serif" font-size="13" lengthAdjust="spacing" textLength="131.5298" x="73.3013" y="466.1807">selects default building</text><polygon fill="#181818" points="58.8413,498.7344,48.8413,502.7344,58.8413,506.7344,54.8413,502.7344" style="stroke:#181818;stroke-width:1.0;"/><line style="stroke:#181818;stroke-width:1.0;stroke-dasharray:2.0,2.0;" x1="52.8413" x2="447.709" y1="502.7344" y2="502.7344"/><text fill="#000000" font-family="sans-serif" font-size="13" font-weight="bold" lengthAdjust="spacing" textLength="14.46" x="64.8413" y="497.4717">11</text><text fill="#000000" font-family="sans-serif" font-size="13" lengthAdjust="spacing" textLength="255.8105" x="83.3013" y="497.4717">proposes station name based on closest city</text><polygon fill="#181818" points="58.8413,530.0254,48.8413,534.0254,58.8413,538.0254,54.8413,534.0254" style="stroke:#181818;stroke-width:1.0;"/><line style="stroke:#181818;stroke-width:1.0;stroke-dasharray:2.0,2.0;" x1="52.8413" x2="447.709" y1="534.0254" y2="534.0254"/><text fill="#000000" font-family="sans-serif" font-size="13" font-weight="bold" lengthAdjust="spacing" textLength="14.46" x="64.8413" y="528.7627">12</text><text fill="#000000" font-family="sans-serif" font-size="13" lengthAdjust="spacing" textLength="239.9033" x="83.3013" y="528.7627">displays station cost and economic radius</text><polygon fill="#181818" points="58.8413,561.3164,48.8413,565.3164,58.8413,569.3164,54.8413,565.3164" style="stroke:#181818;stroke-width:1.0;"/><line style="stroke:#181818;stroke-width:1.0;stroke-dasharray:2.0,2.0;" x1="52.8413" x2="452.709" y1="565.3164" y2="565.3164"/><text fill="#000000" font-family="sans-serif" font-size="13" font-weight="bold" lengthAdjust="spacing" textLength="14.46" x="64.8413" y="560.0537">13</text><text fill="#000000" font-family="sans-serif" font-size="13" lengthAdjust="spacing" textLength="358.4077" x="83.3013" y="560.0537">shows preview of station placement and requests confirmation</text><polygon fill="#181818" points="436.709,592.6074,446.709,596.6074,436.709,600.6074,440.709,596.6074" style="stroke:#181818;stroke-width:1.0;"/><line style="stroke:#181818;stroke-width:1.0;" x1="47.8413" x2="442.709" y1="596.6074" y2="596.6074"/><text fill="#000000" font-family="sans-serif" font-size="13" font-weight="bold" lengthAdjust="spacing" textLength="14.46" x="54.8413" y="591.3447">14</text><text fill="#000000" font-family="sans-serif" font-size="13" lengthAdjust="spacing" textLength="154.6226" x="73.3013" y="591.3447">confirms station placement</text><polygon fill="#181818" points="58.8413,623.8984,48.8413,627.8984,58.8413,631.8984,54.8413,627.8984" style="stroke:#181818;stroke-width:1.0;"/><line style="stroke:#181818;stroke-width:1.0;stroke-dasharray:2.0,2.0;" x1="52.8413" x2="447.709" y1="627.8984" y2="627.8984"/><text fill="#000000" font-family="sans-serif" font-size="13" font-weight="bold" lengthAdjust="spacing" textLength="14.46" x="64.8413" y="622.6357">15</text><text fill="#000000" font-family="sans-serif" font-size="13" lengthAdjust="spacing" textLength="155.3589" x="83.3013" y="622.6357">displays operation success</text><polygon fill="#181818" points="58.8413,655.1895,48.8413,659.1895,58.8413,663.1895,54.8413,659.1895" style="stroke:#181818;stroke-width:1.0;"/><line style="stroke:#181818;stroke-width:1.0;stroke-dasharray:2.0,2.0;" x1="52.8413" x2="452.709" y1="659.1895" y2="659.1895"/><text fill="#000000" font-family="sans-serif" font-size="13" font-weight="bold" lengthAdjust="spacing" textLength="14.46" x="64.8413" y="653.9268">16</text><text fill="#000000" font-family="sans-serif" font-size="13" lengthAdjust="spacing" textLength="192.9497" x="83.3013" y="653.9268">updates map with the new station</text><!--SRC=[bLF1Rjim3BtxAmYV6g01TkabXm4TcaE1BGtc33qp4jCGioLLb1FaxqTRIPCbJj4OC2HRV4-FZoIsoRksML8iYiIf9YYhdIHgeABtbfmXU69yYzZ06FvKtnucyAFbsW92bJ2nTsLH56YIZr3EQznHB045yhO861CR3kWIb9FCt9_dRO_a3IOw08gymlZxFcIYqNy5aeVb_bx9zvvWzsHxuMF5PfO9n2u9IN80GTe5WhkdwVnbSG_Lud7n_3AxXyNqzw_dsUFFKM7fd7L0aL1DvepqDZcrDnbwD_V2tMu4-jLWW9KwcTRqaUQN58NeDspfXDXu7oqxXScbDApJ_uwmQDsp6sK1-dmctf1BUdtmh5NDNlIfpAPggRwpLrrVHptFWFhkztLFJydxq7CyEVkfjPPMs6f-VRkmUniAbhNVgbSi2VmAS8DSur9x_u2Hs_hWuieBx806BLdmGiSkSjYe0XIoNIkOkZjCO3ZjXk2M9UZs23TUez5P8EETRzX0HCkjNCy_HDemRJiB3YHAQQZH4lHCnufxj-BOtD2GUuHSCdzfK3woyu5Y9f3M69B1TDfWkpxlnsVBQTtFZzFChi_GFm00]--></g></svg>