<svg xmlns="http://www.w3.org/2000/svg" xmlns:xlink="http://www.w3.org/1999/xlink" contentStyleType="text/css" height="697px" preserveAspectRatio="none" style="width:460px;height:697px;background:#FFFFFF;" version="1.1" viewBox="0 0 460 697" width="460px" zoomAndPan="magnify"><title>Domain Model - US20 : Load a Map</title><defs/><g><text fill="#000000" font-family="sans-serif" font-size="14" font-weight="bold" lengthAdjust="spacing" textLength="232.5791" x="107.0459" y="25.1074">Domain Model - US20 : Load a Map</text><!--class Editor--><g id="elem_Editor"><rect codeLine="12" fill="#ADD8E6" height="92.4844" id="Editor" rx="2.5" ry="2.5" style="stroke:#0000FF;stroke-width:0.5;" width="92.9307" x="178.5" y="46.6211"/><text fill="#000000" font-family="sans-serif" font-size="14" lengthAdjust="spacing" textLength="36.5723" x="206.6792" y="66.7285">Editor</text><line style="stroke:#0000FF;stroke-width:0.5;" x1="179.5" x2="270.4307" y1="75.2422" y2="75.2422"/><text fill="#000000" font-family="sans-serif" font-size="14" lengthAdjust="spacing" textLength="62.2549" x="184.5" y="94.3496">username</text><text fill="#000000" font-family="sans-serif" font-size="14" lengthAdjust="spacing" textLength="59.917" x="184.5" y="112.9707">password</text><text fill="#000000" font-family="sans-serif" font-size="14" lengthAdjust="spacing" textLength="80.9307" x="184.5" y="131.5918">createdMaps</text></g><!--class Map--><g id="elem_Map"><rect codeLine="18" fill="#ADD8E6" height="73.8633" id="Map" rx="2.5" ry="2.5" style="stroke:#0000FF;stroke-width:0.5;" width="61.0205" x="194.5" y="217.6211"/><text fill="#000000" font-family="sans-serif" font-size="14" lengthAdjust="spacing" textLength="27.2344" x="211.3931" y="237.7285">Map</text><line style="stroke:#0000FF;stroke-width:0.5;" x1="195.5" x2="254.5205" y1="246.2422" y2="246.2422"/><text fill="#000000" font-family="sans-serif" font-size="14" lengthAdjust="spacing" textLength="49.0205" x="200.5" y="265.3496">nameID</text><text fill="#000000" font-family="sans-serif" font-size="14" lengthAdjust="spacing" textLength="32.6826" x="200.5" y="283.9707">scale</text></g><!--class Size--><g id="elem_Size"><rect codeLine="23" fill="#ADD8E6" height="73.8633" id="Size" rx="2.5" ry="2.5" style="stroke:#0000FF;stroke-width:0.5;" width="50.1445" x="7" y="407.6211"/><text fill="#000000" font-family="sans-serif" font-size="14" lengthAdjust="spacing" textLength="27.2344" x="18.4551" y="427.7285">Size</text><line style="stroke:#0000FF;stroke-width:0.5;" x1="8" x2="56.1445" y1="436.2422" y2="436.2422"/><text fill="#000000" font-family="sans-serif" font-size="14" lengthAdjust="spacing" textLength="32.6826" x="13" y="455.3496">width</text><text fill="#000000" font-family="sans-serif" font-size="14" lengthAdjust="spacing" textLength="38.1445" x="13" y="473.9707">height</text></g><!--class City--><g id="elem_City"><rect codeLine="28" fill="#ADD8E6" height="111.1055" id="City" rx="2.5" ry="2.5" style="stroke:#0000FF;stroke-width:0.5;" width="116.2959" x="92" y="389.1211"/><text fill="#000000" font-family="sans-serif" font-size="14" lengthAdjust="spacing" textLength="24.1104" x="138.0928" y="409.2285">City</text><line style="stroke:#0000FF;stroke-width:0.5;" x1="93" x2="207.2959" y1="417.7422" y2="417.7422"/><text fill="#000000" font-family="sans-serif" font-size="14" lengthAdjust="spacing" textLength="49.0205" x="98" y="436.8496">nameID</text><text fill="#000000" font-family="sans-serif" font-size="14" lengthAdjust="spacing" textLength="63.7998" x="98" y="455.4707">trafficRate</text><text fill="#000000" font-family="sans-serif" font-size="14" lengthAdjust="spacing" textLength="90.2822" x="98" y="474.0918">suppliedCargo</text><text fill="#000000" font-family="sans-serif" font-size="14" lengthAdjust="spacing" textLength="104.2959" x="98" y="492.7129">demandedCargo</text></g><!--class Industry--><g id="elem_Industry"><rect codeLine="35" fill="#ADD8E6" height="148.3477" id="Industry" rx="2.5" ry="2.5" style="stroke:#0000FF;stroke-width:0.5;" width="116.2959" x="243" y="370.6211"/><text fill="#000000" font-family="sans-serif" font-size="14" lengthAdjust="spacing" textLength="49.7998" x="276.248" y="390.7285">Industry</text><line style="stroke:#0000FF;stroke-width:0.5;" x1="244" x2="358.2959" y1="399.2422" y2="399.2422"/><text fill="#000000" font-family="sans-serif" font-size="14" lengthAdjust="spacing" textLength="49.0205" x="249" y="418.3496">nameID</text><text fill="#000000" font-family="sans-serif" font-size="14" lengthAdjust="spacing" textLength="26.4619" x="249" y="436.9707">type</text><text fill="#000000" font-family="sans-serif" font-size="14" lengthAdjust="spacing" textLength="94.1582" x="249" y="455.5918">availabilityYear</text><text fill="#000000" font-family="sans-serif" font-size="14" lengthAdjust="spacing" textLength="94.9512" x="249" y="474.2129">productionRate</text><text fill="#000000" font-family="sans-serif" font-size="14" lengthAdjust="spacing" textLength="90.2822" x="249" y="492.834">suppliedCargo</text><text fill="#000000" font-family="sans-serif" font-size="14" lengthAdjust="spacing" textLength="104.2959" x="249" y="511.4551">demandedCargo</text></g><!--class Position--><g id="elem_Position"><rect codeLine="44" fill="#ADD8E6" height="92.4844" id="Position" rx="2.5" ry="2.5" style="stroke:#0000FF;stroke-width:0.5;" width="68.041" x="267" y="597.6211"/><text fill="#000000" font-family="sans-serif" font-size="14" lengthAdjust="spacing" textLength="49.8066" x="276.1172" y="617.7285">Position</text><line style="stroke:#0000FF;stroke-width:0.5;" x1="268" x2="334.041" y1="626.2422" y2="626.2422"/><text fill="#000000" font-family="sans-serif" font-size="14" lengthAdjust="spacing" textLength="7" x="273" y="645.3496">x</text><text fill="#000000" font-family="sans-serif" font-size="14" lengthAdjust="spacing" textLength="7" x="273" y="663.9707">y</text><text fill="#000000" font-family="sans-serif" font-size="14" lengthAdjust="spacing" textLength="56.041" x="273" y="682.5918">occupied</text></g><!--link Editor to Map--><g id="link_Editor_Map"><path codeLine="52" d="M225,139.0411 C225,163.8911 225,194.2611 225,217.4911 " fill="none" id="Editor-Map" style="stroke:#181818;stroke-width:1.0;"/><polygon fill="#000000" points="230,183.2666,232.9389,174.2215,227.0611,174.2215,230,183.2666" style="stroke:#000000;stroke-width:1.0;"/><text fill="#000000" font-family="sans-serif" font-size="13" lengthAdjust="spacing" textLength="31.0781" x="239" y="183.6494">loads</text><text fill="#000000" font-family="sans-serif" font-size="13" lengthAdjust="spacing" textLength="7.23" x="217.5079" y="161.1216">1</text><text fill="#000000" font-family="sans-serif" font-size="13" lengthAdjust="spacing" textLength="5.0591" x="219.5581" y="206.4297">*</text></g><!--link Map to Size--><g id="link_Map_Size"><path codeLine="53" d="M194.1,272.5811 C172.69,284.9511 144,302.7911 121,321.6211 C97.65,340.7311 92.1,346.4811 74,370.6211 C65.49,381.9711 57.4,395.2011 50.63,407.2511 " fill="none" id="Map-Size" style="stroke:#181818;stroke-width:1.0;"/><polygon fill="#000000" points="122.3544,334.6886,130.9607,330.641,126.9379,326.3554,122.3544,334.6886" style="stroke:#000000;stroke-width:1.0;"/><text fill="#000000" font-family="sans-serif" font-size="13" lengthAdjust="spacing" textLength="20.96" x="135" y="336.6494">has</text><text fill="#000000" font-family="sans-serif" font-size="13" lengthAdjust="spacing" textLength="7.23" x="179.1692" y="271.8465">1</text><text fill="#000000" font-family="sans-serif" font-size="13" lengthAdjust="spacing" textLength="7.23" x="46.2378" y="396.4323">1</text></g><!--link Map to City--><g id="link_Map_City"><path codeLine="54" d="M194.44,286.2511 C185.59,296.7011 176.78,308.9611 171,321.6211 C161.45,342.5411 156.22,367.2911 153.36,389.0011 " fill="none" id="Map-City" style="stroke:#181818;stroke-width:1.0;"/><polygon fill="#000000" points="174.1438,335.9093,180.2306,328.6016,174.7728,326.4196,174.1438,335.9093" style="stroke:#000000;stroke-width:1.0;"/><text fill="#000000" font-family="sans-serif" font-size="13" lengthAdjust="spacing" textLength="48.4199" x="185" y="336.6494">contains</text><text fill="#000000" font-family="sans-serif" font-size="13" lengthAdjust="spacing" textLength="7.23" x="179.1634" y="310.1132">1</text><text fill="#000000" font-family="sans-serif" font-size="13" lengthAdjust="spacing" textLength="5.0591" x="148.455" y="377.8259">*</text></g><!--link Map to Industry--><g id="link_Map_Industry"><path codeLine="55" d="M239.65,291.8711 C248.67,314.1711 260.55,343.5511 271.45,370.5111 " fill="none" id="Map-Industry" style="stroke:#181818;stroke-width:1.0;"/><polygon fill="#000000" points="264.8744,335.902,264.2082,326.4148,258.759,328.6183,264.8744,335.902" style="stroke:#000000;stroke-width:1.0;"/><text fill="#000000" font-family="sans-serif" font-size="13" lengthAdjust="spacing" textLength="48.4199" x="272" y="336.6494">contains</text><text fill="#000000" font-family="sans-serif" font-size="13" lengthAdjust="spacing" textLength="7.23" x="234.5141" y="313.5122">1</text><text fill="#000000" font-family="sans-serif" font-size="13" lengthAdjust="spacing" textLength="5.0591" x="263.2834" y="359.4047">*</text></g><!--link Map to Position--><g id="link_Map_Position"><path codeLine="56" d="M255.61,267.3911 C293.27,283.8511 354.92,317.8011 377,370.6211 C410.77,451.4111 414.56,487.1611 380,567.6211 C370.82,588.9911 352.22,607.1411 335.38,620.2311 " fill="none" id="Map-Position" style="stroke:#181818;stroke-width:1.0;"/><polygon fill="#000000" points="410.1026,449.6435,410.9746,440.173,405.2414,441.4692,410.1026,449.6435" style="stroke:#000000;stroke-width:1.0;"/><text fill="#000000" font-family="sans-serif" font-size="13" lengthAdjust="spacing" textLength="34.6709" x="418" y="450.1494">tracks</text><text fill="#000000" font-family="sans-serif" font-size="13" lengthAdjust="spacing" textLength="7.23" x="263.5222" y="265.4563">1</text><text fill="#000000" font-family="sans-serif" font-size="13" lengthAdjust="spacing" textLength="5.0591" x="342.9884" y="610.6622">*</text></g><!--link City to Position--><g id="link_City_Position"><path codeLine="57" d="M177.95,500.2711 C190.2,522.1111 205.54,546.9311 222,567.6211 C235.19,584.1911 251.96,600.6211 266.65,613.8611 " fill="none" id="City-Position" style="stroke:#181818;stroke-width:1.0;"/><polygon fill="#000000" points="230.0773,562.2074,226.8268,553.2696,222.194,556.8872,230.0773,562.2074" style="stroke:#000000;stroke-width:1.0;"/><text fill="#000000" font-family="sans-serif" font-size="13" lengthAdjust="spacing" textLength="56.3735" x="236" y="563.6494">located at</text><text fill="#000000" font-family="sans-serif" font-size="13" lengthAdjust="spacing" textLength="7.23" x="173.9258" y="522.129">1</text><text fill="#000000" font-family="sans-serif" font-size="13" lengthAdjust="spacing" textLength="7.23" x="251.8629" y="602.9783">1</text></g><!--link Industry to Position--><g id="link_Industry_Position"><path codeLine="58" d="M301,518.7011 C301,545.0911 301,574.0911 301,597.4011 " fill="none" id="Industry-Position" style="stroke:#181818;stroke-width:1.0;"/><polygon fill="#000000" points="306,563.2666,308.9389,554.2215,303.0611,554.2215,306,563.2666" style="stroke:#000000;stroke-width:1.0;"/><text fill="#000000" font-family="sans-serif" font-size="13" lengthAdjust="spacing" textLength="56.3735" x="315" y="563.6494">located at</text><text fill="#000000" font-family="sans-serif" font-size="13" lengthAdjust="spacing" textLength="7.23" x="293.6357" y="541.2426">1</text><text fill="#000000" font-family="sans-serif" font-size="13" lengthAdjust="spacing" textLength="7.23" x="293.4998" y="586.3782">1</text></g><!--SRC=[bLB1IWCn4BtdAuQz24AXUjo3O5iFXHQanOF7QJBj3iqcIvArLl7VdMpjjXOHFOHaCc_Uoxn9tB9hC60DiKBZT-msi4ORISK-eot6U9zIu5MRQAgzM_8RmV0I0kyAO8Hwkmc-TMRihGymuqsLHhQbdFF1K3ZSTrSVgc93e3beIuTpJQdo9YgLE5c2Ok9hP0TpRyZ209wMjqCeOURH0C8ScqAfW_Y3uIIy-GrjfE2mpfADf7OYAqST21CPgOaY_5KbKLUIuTE97A96IwTyrsa6xDYaIlQASaCdm9ZJ_Zj32hXUirw8MEPhcyOocJ66ZPVOK8tE7EEUPkfC6rEufDetcGDVa2sks8hMCs78VGLlMftOk__fFFh8kQhJUPMrb-MrRXkfpJ1r1Gkoc36nOh7gozVYfe3108hhelEi12iZY72dSdHCojOPLaA5bpafxBmgGJvGafd-0EXT-0tKjr1cg_KsGphcirUSOQpNUUo0IN2zm1-mdm00]--></g></svg>