<svg xmlns="http://www.w3.org/2000/svg" xmlns:xlink="http://www.w3.org/1999/xlink" contentStyleType="text/css" height="389px" preserveAspectRatio="none" style="width:450px;height:389px;background:#FFFFFF;" version="1.1" viewBox="0 0 450 389" width="450px" zoomAndPan="magnify"><defs/><g><!--class ScenarioUI--><g id="elem_ScenarioUI"><rect codeLine="5" fill="#F1F1F1" height="48" id="ScenarioUI" rx="2.5" ry="2.5" style="stroke:#181818;stroke-width:0.5;" width="101.2549" x="153" y="7"/><ellipse cx="168" cy="23" fill="#C2C2C2" rx="11" ry="11" style="stroke:#181818;stroke-width:1.0;"/><path d="M170.7656,18.875 Q170.9219,18.6563 171.1094,18.5469 Q171.2969,18.4375 171.5156,18.4375 Q171.8906,18.4375 172.125,18.7031 Q172.3594,18.9531 172.3594,19.5625 L172.3594,21.0156 Q172.3594,21.625 172.125,21.8906 Q171.8906,22.1563 171.5156,22.1563 Q171.1719,22.1563 170.9688,21.9531 Q170.7656,21.7656 170.6563,21.25 Q170.6094,20.8906 170.4219,20.7031 Q170.0938,20.3281 169.4844,20.1094 Q168.875,19.8906 168.25,19.8906 Q167.4844,19.8906 166.8438,20.2188 Q166.2188,20.5469 165.7188,21.2969 Q165.2344,22.0469 165.2344,23.0781 L165.2344,24.1719 Q165.2344,25.4063 166.125,26.2344 Q167.0156,27.0469 168.6094,27.0469 Q169.5469,27.0469 170.2031,26.7969 Q170.5938,26.6406 171.0156,26.2031 Q171.2813,25.9375 171.4219,25.8594 Q171.5781,25.7813 171.7813,25.7813 Q172.1094,25.7813 172.3594,26.0469 Q172.625,26.2969 172.625,26.6406 Q172.625,26.9844 172.2813,27.3906 Q171.7813,27.9688 170.9844,28.2969 Q169.9063,28.75 168.6094,28.75 Q167.0938,28.75 165.8906,28.125 Q164.9063,27.625 164.2188,26.5625 Q163.5313,25.4844 163.5313,24.2031 L163.5313,23.0469 Q163.5313,21.7188 164.1406,20.5781 Q164.7656,19.4219 165.8594,18.8125 Q166.9531,18.1875 168.1875,18.1875 Q168.9219,18.1875 169.5625,18.3594 Q170.2188,18.5156 170.7656,18.875 Z " fill="#000000"/><text fill="#000000" font-family="sans-serif" font-size="14" lengthAdjust="spacing" textLength="69.2549" x="182" y="28.7969">ScenarioUI</text><line style="stroke:#181818;stroke-width:0.5;" x1="154" x2="253.2549" y1="39" y2="39"/><line style="stroke:#181818;stroke-width:0.5;" x1="154" x2="253.2549" y1="47" y2="47"/></g><!--class ScenarioController--><g id="elem_ScenarioController"><rect codeLine="8" fill="#F1F1F1" height="103.8633" id="ScenarioController" rx="2.5" ry="2.5" style="stroke:#181818;stroke-width:0.5;" width="244.6543" x="81" y="115"/><ellipse cx="141.105" cy="131" fill="#C2C2C2" rx="11" ry="11" style="stroke:#181818;stroke-width:1.0;"/><path d="M143.8706,126.875 Q144.0269,126.6563 144.2144,126.5469 Q144.4019,126.4375 144.6206,126.4375 Q144.9956,126.4375 145.23,126.7031 Q145.4644,126.9531 145.4644,127.5625 L145.4644,129.0156 Q145.4644,129.625 145.23,129.8906 Q144.9956,130.1563 144.6206,130.1563 Q144.2769,130.1563 144.0737,129.9531 Q143.8706,129.7656 143.7612,129.25 Q143.7144,128.8906 143.5269,128.7031 Q143.1987,128.3281 142.5894,128.1094 Q141.98,127.8906 141.355,127.8906 Q140.5894,127.8906 139.9487,128.2188 Q139.3237,128.5469 138.8237,129.2969 Q138.3394,130.0469 138.3394,131.0781 L138.3394,132.1719 Q138.3394,133.4063 139.23,134.2344 Q140.1206,135.0469 141.7144,135.0469 Q142.6519,135.0469 143.3081,134.7969 Q143.6987,134.6406 144.1206,134.2031 Q144.3862,133.9375 144.5269,133.8594 Q144.6831,133.7813 144.8862,133.7813 Q145.2144,133.7813 145.4644,134.0469 Q145.73,134.2969 145.73,134.6406 Q145.73,134.9844 145.3862,135.3906 Q144.8862,135.9688 144.0894,136.2969 Q143.0112,136.75 141.7144,136.75 Q140.1987,136.75 138.9956,136.125 Q138.0112,135.625 137.3237,134.5625 Q136.6362,133.4844 136.6362,132.2031 L136.6362,131.0469 Q136.6362,129.7188 137.2456,128.5781 Q137.8706,127.4219 138.9644,126.8125 Q140.0581,126.1875 141.2925,126.1875 Q142.0269,126.1875 142.6675,126.3594 Q143.3237,126.5156 143.8706,126.875 Z " fill="#000000"/><text fill="#000000" font-family="sans-serif" font-size="14" lengthAdjust="spacing" textLength="115.9443" x="161.605" y="136.7969">ScenarioController</text><line style="stroke:#181818;stroke-width:0.5;" x1="82" x2="324.6543" y1="147" y2="147"/><line style="stroke:#181818;stroke-width:0.5;" x1="82" x2="324.6543" y1="155" y2="155"/><ellipse cx="92" cy="169.8105" fill="#A6A6A6" rx="3" ry="3" style="stroke:#545454;stroke-width:1.0;"/><text fill="#000000" font-family="sans-serif" font-size="14" lengthAdjust="spacing" textLength="91.0479" x="101" y="174.1074">loadScenario()</text><ellipse cx="92" cy="188.4316" fill="#A6A6A6" rx="3" ry="3" style="stroke:#545454;stroke-width:1.0;"/><text fill="#000000" font-family="sans-serif" font-size="14" lengthAdjust="spacing" textLength="218.6543" x="101" y="192.7285">getScenariosForMap(selectedMap)</text><ellipse cx="92" cy="207.0527" fill="#A6A6A6" rx="3" ry="3" style="stroke:#545454;stroke-width:1.0;"/><text fill="#000000" font-family="sans-serif" font-size="14" lengthAdjust="spacing" textLength="163.4268" x="101" y="211.3496">loadSelectedScenario(file)</text></g><!--class Scenario--><g id="elem_Scenario"><rect codeLine="14" fill="#F1F1F1" height="66.6211" id="Scenario" rx="2.5" ry="2.5" style="stroke:#181818;stroke-width:0.5;" width="156.7373" x="7" y="297.5"/><ellipse cx="53.4912" cy="313.5" fill="#C2C2C2" rx="11" ry="11" style="stroke:#181818;stroke-width:1.0;"/><path d="M56.2568,309.375 Q56.4131,309.1563 56.6006,309.0469 Q56.7881,308.9375 57.0068,308.9375 Q57.3818,308.9375 57.6162,309.2031 Q57.8506,309.4531 57.8506,310.0625 L57.8506,311.5156 Q57.8506,312.125 57.6162,312.3906 Q57.3818,312.6563 57.0068,312.6563 Q56.6631,312.6563 56.46,312.4531 Q56.2568,312.2656 56.1475,311.75 Q56.1006,311.3906 55.9131,311.2031 Q55.585,310.8281 54.9756,310.6094 Q54.3662,310.3906 53.7412,310.3906 Q52.9756,310.3906 52.335,310.7188 Q51.71,311.0469 51.21,311.7969 Q50.7256,312.5469 50.7256,313.5781 L50.7256,314.6719 Q50.7256,315.9063 51.6162,316.7344 Q52.5068,317.5469 54.1006,317.5469 Q55.0381,317.5469 55.6943,317.2969 Q56.085,317.1406 56.5068,316.7031 Q56.7725,316.4375 56.9131,316.3594 Q57.0693,316.2813 57.2725,316.2813 Q57.6006,316.2813 57.8506,316.5469 Q58.1162,316.7969 58.1162,317.1406 Q58.1162,317.4844 57.7725,317.8906 Q57.2725,318.4688 56.4756,318.7969 Q55.3975,319.25 54.1006,319.25 Q52.585,319.25 51.3818,318.625 Q50.3975,318.125 49.71,317.0625 Q49.0225,315.9844 49.0225,314.7031 L49.0225,313.5469 Q49.0225,312.2188 49.6318,311.0781 Q50.2568,309.9219 51.3506,309.3125 Q52.4443,308.6875 53.6787,308.6875 Q54.4131,308.6875 55.0537,308.8594 Q55.71,309.0156 56.2568,309.375 Z " fill="#000000"/><text fill="#000000" font-family="sans-serif" font-size="14" lengthAdjust="spacing" textLength="55.2549" x="73.9912" y="319.2969">Scenario</text><line style="stroke:#181818;stroke-width:0.5;" x1="8" x2="162.7373" y1="329.5" y2="329.5"/><line style="stroke:#181818;stroke-width:0.5;" x1="8" x2="162.7373" y1="337.5" y2="337.5"/><ellipse cx="18" cy="352.3105" fill="#A6A6A6" rx="3" ry="3" style="stroke:#545454;stroke-width:1.0;"/><text fill="#000000" font-family="sans-serif" font-size="14" lengthAdjust="spacing" textLength="130.7373" x="27" y="356.6074">createScenario(data)</text></g><!--class MapRepository--><g id="elem_MapRepository"><rect codeLine="19" fill="#F1F1F1" height="103.8633" id="MapRepository" rx="2.5" ry="2.5" style="stroke:#181818;stroke-width:0.5;" width="244.6543" x="199" y="279"/><ellipse cx="270.0015" cy="295" fill="#C2C2C2" rx="11" ry="11" style="stroke:#181818;stroke-width:1.0;"/><path d="M272.7671,290.875 Q272.9233,290.6563 273.1108,290.5469 Q273.2983,290.4375 273.5171,290.4375 Q273.8921,290.4375 274.1265,290.7031 Q274.3608,290.9531 274.3608,291.5625 L274.3608,293.0156 Q274.3608,293.625 274.1265,293.8906 Q273.8921,294.1563 273.5171,294.1563 Q273.1733,294.1563 272.9702,293.9531 Q272.7671,293.7656 272.6577,293.25 Q272.6108,292.8906 272.4233,292.7031 Q272.0952,292.3281 271.4858,292.1094 Q270.8765,291.8906 270.2515,291.8906 Q269.4858,291.8906 268.8452,292.2188 Q268.2202,292.5469 267.7202,293.2969 Q267.2358,294.0469 267.2358,295.0781 L267.2358,296.1719 Q267.2358,297.4063 268.1265,298.2344 Q269.0171,299.0469 270.6108,299.0469 Q271.5483,299.0469 272.2046,298.7969 Q272.5952,298.6406 273.0171,298.2031 Q273.2827,297.9375 273.4233,297.8594 Q273.5796,297.7813 273.7827,297.7813 Q274.1108,297.7813 274.3608,298.0469 Q274.6265,298.2969 274.6265,298.6406 Q274.6265,298.9844 274.2827,299.3906 Q273.7827,299.9688 272.9858,300.2969 Q271.9077,300.75 270.6108,300.75 Q269.0952,300.75 267.8921,300.125 Q266.9077,299.625 266.2202,298.5625 Q265.5327,297.4844 265.5327,296.2031 L265.5327,295.0469 Q265.5327,293.7188 266.1421,292.5781 Q266.7671,291.4219 267.8608,290.8125 Q268.9546,290.1875 270.189,290.1875 Q270.9233,290.1875 271.564,290.3594 Q272.2202,290.5156 272.7671,290.875 Z " fill="#000000"/><text fill="#000000" font-family="sans-serif" font-size="14" lengthAdjust="spacing" textLength="94.1514" x="290.5015" y="300.7969">MapRepository</text><line style="stroke:#181818;stroke-width:0.5;" x1="200" x2="442.6543" y1="311" y2="311"/><line style="stroke:#181818;stroke-width:0.5;" x1="200" x2="442.6543" y1="319" y2="319"/><ellipse cx="210" cy="333.8105" fill="#A6A6A6" rx="3" ry="3" style="stroke:#545454;stroke-width:1.0;"/><text fill="#000000" font-family="sans-serif" font-size="14" lengthAdjust="spacing" textLength="119.834" x="219" y="338.1074">getAvailableMaps()</text><ellipse cx="210" cy="352.4316" fill="#A6A6A6" rx="3" ry="3" style="stroke:#545454;stroke-width:1.0;"/><text fill="#000000" font-family="sans-serif" font-size="14" lengthAdjust="spacing" textLength="218.6543" x="219" y="356.7285">getScenariosForMap(selectedMap)</text><ellipse cx="210" cy="371.0527" fill="#A6A6A6" rx="3" ry="3" style="stroke:#545454;stroke-width:1.0;"/><text fill="#000000" font-family="sans-serif" font-size="14" lengthAdjust="spacing" textLength="149.3994" x="219" y="375.3496">deserializeScenario(file)</text></g><!--link ScenarioUI to ScenarioController--><g id="link_ScenarioUI_ScenarioController"><path codeLine="25" d="M203.5,55.04 C203.5,71.5 203.5,88.3 203.5,108.96 " fill="none" id="ScenarioUI-to-ScenarioController" style="stroke:#181818;stroke-width:1.0;"/><polygon fill="#181818" points="203.5,114.96,207.5,105.96,203.5,109.96,199.5,105.96,203.5,114.96" style="stroke:#181818;stroke-width:1.0;"/></g><!--link ScenarioController to Scenario--><g id="link_ScenarioController_Scenario"><path codeLine="26" d="M166.16,219.26 C147.53,244.84 129.0713,270.1693 112.7713,292.5593 " fill="none" id="ScenarioController-to-Scenario" style="stroke:#181818;stroke-width:1.0;"/><polygon fill="#181818" points="109.24,297.41,117.7708,292.4881,112.1828,293.3677,111.3032,287.7797,109.24,297.41" style="stroke:#181818;stroke-width:1.0;"/></g><!--link ScenarioController to MapRepository--><g id="link_ScenarioController_MapRepository"><path codeLine="27" d="M240.84,219.26 C254.68,238.26 266.839,254.949 280.669,273.949 " fill="none" id="ScenarioController-to-MapRepository" style="stroke:#181818;stroke-width:1.0;"/><polygon fill="#181818" points="284.2,278.8,282.1375,269.1695,281.2575,274.7575,275.6695,273.8775,284.2,278.8" style="stroke:#181818;stroke-width:1.0;"/></g><!--SRC=[ZP11QWCn34NtFeMN6KAkK2Y5G1RTDFG0glqpCT5OW-IqfALthsacPjgaKA_C_q_Ib-oGyaXAWnyaIzYh3F15Zt3Md972WNfioudX5Q5GxdaEs9wYlANS-nsnmRd0PEQt0PaqoVF6VxZFt-g3vAB23Askhs_fMIXUx4KtYJtAHRErw2ED2mFN58ZrtyrB9xcrs2L6TpsvpGiAAcXuf4BV-CJNzayOnL8HFRMYckV-bHBJ2wCIDWNzVzWp6M7GH9pUSPrtThdLwkx6oToDAyv9v_y0VkpalW00]--></g></svg>