<svg xmlns="http://www.w3.org/2000/svg" xmlns:xlink="http://www.w3.org/1999/xlink" contentStyleType="text/css" height="639.8px" preserveAspectRatio="none" style="width:804px;height:639px;background:#FFFFFF;" version="1.1" viewBox="0 0 804 639" width="805px" zoomAndPan="magnify"><title>Sequence Diagram - US22 : Load a Scenario</title><defs/><g><text fill="#000000" font-family="sans-serif" font-size="9.8" font-weight="bold" lengthAdjust="spacing" textLength="205.867" x="299.0345" y="21.0752">Sequence Diagram - US22 : Load a Scenario</text><rect fill="#FFFFFF" height="482.5816" style="stroke:#181818;stroke-width:0.6999999999999998;" width="7" x="14.9003" y="93.2695"/><rect fill="#FFFFFF" height="109.5186" style="stroke:#181818;stroke-width:0.6999999999999998;" width="7" x="356.6367" y="109.5732"/><rect fill="#FFFFFF" height="109.5186" style="stroke:#181818;stroke-width:0.6999999999999998;" width="7" x="356.6367" y="240.9955"/><rect fill="#FFFFFF" height="197.1334" style="stroke:#181818;stroke-width:0.6999999999999998;" width="7" x="356.6367" y="372.4178"/><rect fill="#FFFFFF" height="65.7111" style="stroke:#181818;stroke-width:0.6999999999999998;" width="7" x="526.9229" y="131.477"/><rect fill="#FFFFFF" height="65.7111" style="stroke:#181818;stroke-width:0.6999999999999998;" width="7" x="526.9229" y="262.8992"/><rect fill="#FFFFFF" height="109.5186" style="stroke:#181818;stroke-width:0.6999999999999998;" width="7" x="526.9229" y="394.3215"/><rect fill="#FFFFFF" height="21.9037" style="stroke:#181818;stroke-width:0.6999999999999998;" width="7" x="700.2205" y="153.3807"/><rect fill="#FFFFFF" height="21.9037" style="stroke:#181818;stroke-width:0.6999999999999998;" width="7" x="700.2205" y="284.8029"/><rect fill="#FFFFFF" height="21.9037" style="stroke:#181818;stroke-width:0.6999999999999998;" width="7" x="700.2205" y="416.2252"/><rect fill="#FFFFFF" height="21.9037" style="stroke:#181818;stroke-width:0.6999999999999998;" width="7" x="772.0354" y="460.0326"/><line style="stroke:#181818;stroke-width:0.3499999999999999;stroke-dasharray:5.0,5.0;" x1="18.2" x2="18.2" y1="86.2695" y2="582.1512"/><line style="stroke:#181818;stroke-width:0.3499999999999999;stroke-dasharray:5.0,5.0;" x1="359.7361" x2="359.7361" y1="86.2695" y2="582.1512"/><line style="stroke:#181818;stroke-width:0.3499999999999999;stroke-dasharray:5.0,5.0;" x1="529.7811" x2="529.7811" y1="86.2695" y2="582.1512"/><line style="stroke:#181818;stroke-width:0.3499999999999999;stroke-dasharray:5.0,5.0;" x1="703.7061" x2="703.7061" y1="86.2695" y2="582.1512"/><line style="stroke:#181818;stroke-width:0.3499999999999999;stroke-dasharray:5.0,5.0;" x1="775.1348" x2="775.1348" y1="86.2695" y2="582.1512"/><text fill="#000000" font-family="sans-serif" font-size="9.8" lengthAdjust="spacing" textLength="25.6006" x="3.5" y="83.81">Editor</text><ellipse cx="18.4003" cy="37.1848" fill="#E2E2F0" rx="5.6" ry="5.6" style="stroke:#181818;stroke-width:0.3499999999999999;"/><path d="M18.4003,42.7848 L18.4003,61.6848 M9.3003,48.3848 L27.5003,48.3848 M18.4003,61.6848 L9.3003,72.1848 M18.4003,61.6848 L27.5003,72.1848 " fill="none" style="stroke:#181818;stroke-width:0.3499999999999999;"/><text fill="#000000" font-family="sans-serif" font-size="9.8" lengthAdjust="spacing" textLength="25.6006" x="3.5" y="592.0264">Editor</text><ellipse cx="18.4003" cy="600.4359" fill="#E2E2F0" rx="5.6" ry="5.6" style="stroke:#181818;stroke-width:0.3499999999999999;"/><path d="M18.4003,606.0359 L18.4003,624.9359 M9.3003,611.6359 L27.5003,611.6359 M18.4003,624.9359 L9.3003,635.4359 M18.4003,624.9359 L27.5003,635.4359 " fill="none" style="stroke:#181818;stroke-width:0.3499999999999999;"/><rect fill="#E2E2F0" height="22.8348" rx="1.75" ry="1.75" style="stroke:#181818;stroke-width:0.3499999999999999;" width="61.0012" x="329.6361" y="62.7348"/><text fill="#000000" font-family="sans-serif" font-size="9.8" lengthAdjust="spacing" textLength="51.2012" x="334.5361" y="78.21">:ScenarioUI</text><rect fill="#E2E2F0" height="22.8348" rx="1.75" ry="1.75" style="stroke:#181818;stroke-width:0.3499999999999999;" width="61.0012" x="329.6361" y="581.4512"/><text fill="#000000" font-family="sans-serif" font-size="9.8" lengthAdjust="spacing" textLength="51.2012" x="334.5361" y="596.9264">:ScenarioUI</text><rect fill="#E2E2F0" height="22.8348" rx="1.75" ry="1.75" style="stroke:#181818;stroke-width:0.3499999999999999;" width="93.6838" x="483.5811" y="62.7348"/><text fill="#000000" font-family="sans-serif" font-size="9.8" lengthAdjust="spacing" textLength="83.8838" x="488.4811" y="78.21">:ScenarioController</text><rect fill="#E2E2F0" height="22.8348" rx="1.75" ry="1.75" style="stroke:#181818;stroke-width:0.3499999999999999;" width="93.6838" x="483.5811" y="581.4512"/><text fill="#000000" font-family="sans-serif" font-size="9.8" lengthAdjust="spacing" textLength="83.8838" x="488.4811" y="596.9264">:ScenarioController</text><rect fill="#E2E2F0" height="22.8348" rx="1.75" ry="1.75" style="stroke:#181818;stroke-width:0.3499999999999999;" width="78.4287" x="664.5061" y="62.7348"/><text fill="#000000" font-family="sans-serif" font-size="9.8" lengthAdjust="spacing" textLength="68.6287" x="669.4061" y="78.21">:MapRepository</text><rect fill="#E2E2F0" height="22.8348" rx="1.75" ry="1.75" style="stroke:#181818;stroke-width:0.3499999999999999;" width="78.4287" x="664.5061" y="581.4512"/><text fill="#000000" font-family="sans-serif" font-size="9.8" lengthAdjust="spacing" textLength="68.6287" x="669.4061" y="596.9264">:MapRepository</text><rect fill="#E2E2F0" height="22.8348" rx="1.75" ry="1.75" style="stroke:#181818;stroke-width:0.3499999999999999;" width="51.2012" x="749.9348" y="62.7348"/><text fill="#000000" font-family="sans-serif" font-size="9.8" lengthAdjust="spacing" textLength="41.4012" x="754.8348" y="78.21">:Scenario</text><rect fill="#E2E2F0" height="22.8348" rx="1.75" ry="1.75" style="stroke:#181818;stroke-width:0.3499999999999999;" width="51.2012" x="749.9348" y="581.4512"/><text fill="#000000" font-family="sans-serif" font-size="9.8" lengthAdjust="spacing" textLength="41.4012" x="754.8348" y="596.9264">:Scenario</text><rect fill="#FFFFFF" height="482.5816" style="stroke:#181818;stroke-width:0.6999999999999998;" width="7" x="14.9003" y="93.2695"/><rect fill="#FFFFFF" height="109.5186" style="stroke:#181818;stroke-width:0.6999999999999998;" width="7" x="356.6367" y="109.5732"/><rect fill="#FFFFFF" height="109.5186" style="stroke:#181818;stroke-width:0.6999999999999998;" width="7" x="356.6367" y="240.9955"/><rect fill="#FFFFFF" height="197.1334" style="stroke:#181818;stroke-width:0.6999999999999998;" width="7" x="356.6367" y="372.4178"/><rect fill="#FFFFFF" height="65.7111" style="stroke:#181818;stroke-width:0.6999999999999998;" width="7" x="526.9229" y="131.477"/><rect fill="#FFFFFF" height="65.7111" style="stroke:#181818;stroke-width:0.6999999999999998;" width="7" x="526.9229" y="262.8992"/><rect fill="#FFFFFF" height="109.5186" style="stroke:#181818;stroke-width:0.6999999999999998;" width="7" x="526.9229" y="394.3215"/><rect fill="#FFFFFF" height="21.9037" style="stroke:#181818;stroke-width:0.6999999999999998;" width="7" x="700.2205" y="153.3807"/><rect fill="#FFFFFF" height="21.9037" style="stroke:#181818;stroke-width:0.6999999999999998;" width="7" x="700.2205" y="284.8029"/><rect fill="#FFFFFF" height="21.9037" style="stroke:#181818;stroke-width:0.6999999999999998;" width="7" x="700.2205" y="416.2252"/><rect fill="#FFFFFF" height="21.9037" style="stroke:#181818;stroke-width:0.6999999999999998;" width="7" x="772.0354" y="460.0326"/><polygon fill="#181818" points="348.2367,106.7732,355.2367,109.5732,348.2367,112.3732,351.0367,109.5732" style="stroke:#181818;stroke-width:0.6999999999999998;"/><line style="stroke:#181818;stroke-width:0.6999999999999998;" x1="21.9003" x2="352.4367" y1="109.5732" y2="109.5732"/><text fill="#000000" font-family="sans-serif" font-size="9.1" font-weight="bold" lengthAdjust="spacing" textLength="5.061" x="26.8003" y="105.8894">1</text><text fill="#000000" font-family="sans-serif" font-size="9.1" lengthAdjust="spacing" textLength="109.2667" x="34.6613" y="105.8894">requests to load a scenario</text><polygon fill="#181818" points="518.5229,128.677,525.5229,131.477,518.5229,134.277,521.3229,131.477" style="stroke:#181818;stroke-width:0.6999999999999998;"/><line style="stroke:#181818;stroke-width:0.6999999999999998;" x1="363.6367" x2="522.7229" y1="131.477" y2="131.477"/><text fill="#000000" font-family="sans-serif" font-size="9.1" font-weight="bold" lengthAdjust="spacing" textLength="5.061" x="368.5367" y="127.7931">2</text><text fill="#000000" font-family="sans-serif" font-size="9.1" lengthAdjust="spacing" textLength="59.1811" x="376.3977" y="127.7931">loadScenario()</text><polygon fill="#181818" points="691.8205,150.5807,698.8205,153.3807,691.8205,156.1807,694.6205,153.3807" style="stroke:#181818;stroke-width:0.6999999999999998;"/><line style="stroke:#181818;stroke-width:0.6999999999999998;" x1="533.9229" x2="696.0205" y1="153.3807" y2="153.3807"/><text fill="#000000" font-family="sans-serif" font-size="9.1" font-weight="bold" lengthAdjust="spacing" textLength="5.061" x="538.8229" y="149.6968">3</text><text fill="#000000" font-family="sans-serif" font-size="9.1" lengthAdjust="spacing" textLength="77.8921" x="546.6839" y="149.6968">getAvailableMaps()</text><polygon fill="#181818" points="541.6229,172.4844,534.6229,175.2844,541.6229,178.0844,538.8229,175.2844" style="stroke:#181818;stroke-width:0.6999999999999998;"/><line style="stroke:#181818;stroke-width:0.6999999999999998;stroke-dasharray:2.0,2.0;" x1="537.4229" x2="703.0205" y1="175.2844" y2="175.2844"/><text fill="#000000" font-family="sans-serif" font-size="9.1" font-weight="bold" lengthAdjust="spacing" textLength="5.061" x="545.8229" y="171.6005">4</text><text fill="#000000" font-family="sans-serif" font-size="9.1" lengthAdjust="spacing" textLength="115.3185" x="553.6839" y="171.6005">returns list of available maps</text><polygon fill="#181818" points="371.3367,194.3881,364.3367,197.1881,371.3367,199.9881,368.5367,197.1881" style="stroke:#181818;stroke-width:0.6999999999999998;"/><line style="stroke:#181818;stroke-width:0.6999999999999998;stroke-dasharray:2.0,2.0;" x1="367.1367" x2="529.7229" y1="197.1881" y2="197.1881"/><text fill="#000000" font-family="sans-serif" font-size="9.1" font-weight="bold" lengthAdjust="spacing" textLength="5.061" x="375.5367" y="193.5042">5</text><text fill="#000000" font-family="sans-serif" font-size="9.1" lengthAdjust="spacing" textLength="115.3185" x="383.3977" y="193.5042">returns list of available maps</text><polygon fill="#181818" points="29.6003,216.2918,22.6003,219.0918,29.6003,221.8918,26.8003,219.0918" style="stroke:#181818;stroke-width:0.6999999999999998;"/><line style="stroke:#181818;stroke-width:0.6999999999999998;stroke-dasharray:2.0,2.0;" x1="25.4003" x2="359.4367" y1="219.0918" y2="219.0918"/><text fill="#000000" font-family="sans-serif" font-size="9.1" font-weight="bold" lengthAdjust="spacing" textLength="5.061" x="33.8003" y="215.4079">6</text><text fill="#000000" font-family="sans-serif" font-size="9.1" lengthAdjust="spacing" textLength="96.1054" x="41.6613" y="215.4079">displays available maps</text><polygon fill="#181818" points="348.2367,238.1955,355.2367,240.9955,348.2367,243.7955,351.0367,240.9955" style="stroke:#181818;stroke-width:0.6999999999999998;"/><line style="stroke:#181818;stroke-width:0.6999999999999998;" x1="21.9003" x2="352.4367" y1="240.9955" y2="240.9955"/><text fill="#000000" font-family="sans-serif" font-size="9.1" font-weight="bold" lengthAdjust="spacing" textLength="5.061" x="26.8003" y="237.3116">7</text><text fill="#000000" font-family="sans-serif" font-size="9.1" lengthAdjust="spacing" textLength="128.4753" x="34.6613" y="237.3116">selects map to load scenario for</text><polygon fill="#181818" points="518.5229,260.0992,525.5229,262.8992,518.5229,265.6992,521.3229,262.8992" style="stroke:#181818;stroke-width:0.6999999999999998;"/><line style="stroke:#181818;stroke-width:0.6999999999999998;" x1="363.6367" x2="522.7229" y1="262.8992" y2="262.8992"/><text fill="#000000" font-family="sans-serif" font-size="9.1" font-weight="bold" lengthAdjust="spacing" textLength="5.061" x="368.5367" y="259.2153">8</text><text fill="#000000" font-family="sans-serif" font-size="9.1" lengthAdjust="spacing" textLength="142.1253" x="376.3977" y="259.2153">getScenariosForMap(selectedMap)</text><polygon fill="#181818" points="691.8205,282.0029,698.8205,284.8029,691.8205,287.6029,694.6205,284.8029" style="stroke:#181818;stroke-width:0.6999999999999998;"/><line style="stroke:#181818;stroke-width:0.6999999999999998;" x1="533.9229" x2="696.0205" y1="284.8029" y2="284.8029"/><text fill="#000000" font-family="sans-serif" font-size="9.1" font-weight="bold" lengthAdjust="spacing" textLength="5.061" x="538.8229" y="281.119">9</text><text fill="#000000" font-family="sans-serif" font-size="9.1" lengthAdjust="spacing" textLength="142.1253" x="546.6839" y="281.119">getScenariosForMap(selectedMap)</text><polygon fill="#181818" points="541.6229,303.9066,534.6229,306.7066,541.6229,309.5066,538.8229,306.7066" style="stroke:#181818;stroke-width:0.6999999999999998;"/><line style="stroke:#181818;stroke-width:0.6999999999999998;stroke-dasharray:2.0,2.0;" x1="537.4229" x2="703.0205" y1="306.7066" y2="306.7066"/><text fill="#000000" font-family="sans-serif" font-size="9.1" font-weight="bold" lengthAdjust="spacing" textLength="10.122" x="545.8229" y="303.0228">10</text><text fill="#000000" font-family="sans-serif" font-size="9.1" lengthAdjust="spacing" textLength="120.375" x="558.7449" y="303.0228">returns list of saved scenarios</text><polygon fill="#181818" points="371.3367,325.8104,364.3367,328.6104,371.3367,331.4104,368.5367,328.6104" style="stroke:#181818;stroke-width:0.6999999999999998;"/><line style="stroke:#181818;stroke-width:0.6999999999999998;stroke-dasharray:2.0,2.0;" x1="367.1367" x2="529.7229" y1="328.6104" y2="328.6104"/><text fill="#000000" font-family="sans-serif" font-size="9.1" font-weight="bold" lengthAdjust="spacing" textLength="10.122" x="375.5367" y="324.9265">11</text><text fill="#000000" font-family="sans-serif" font-size="9.1" lengthAdjust="spacing" textLength="120.375" x="388.4586" y="324.9265">returns list of saved scenarios</text><polygon fill="#181818" points="29.6003,347.7141,22.6003,350.5141,29.6003,353.3141,26.8003,350.5141" style="stroke:#181818;stroke-width:0.6999999999999998;"/><line style="stroke:#181818;stroke-width:0.6999999999999998;stroke-dasharray:2.0,2.0;" x1="25.4003" x2="359.4367" y1="350.5141" y2="350.5141"/><text fill="#000000" font-family="sans-serif" font-size="9.1" font-weight="bold" lengthAdjust="spacing" textLength="10.122" x="33.8003" y="346.8302">12</text><text fill="#000000" font-family="sans-serif" font-size="9.1" lengthAdjust="spacing" textLength="170.9627" x="46.7223" y="346.8302">displays saved scenarios for selected map</text><polygon fill="#181818" points="348.2367,369.6178,355.2367,372.4178,348.2367,375.2178,351.0367,372.4178" style="stroke:#181818;stroke-width:0.6999999999999998;"/><line style="stroke:#181818;stroke-width:0.6999999999999998;" x1="21.9003" x2="352.4367" y1="372.4178" y2="372.4178"/><text fill="#000000" font-family="sans-serif" font-size="9.1" font-weight="bold" lengthAdjust="spacing" textLength="10.122" x="26.8003" y="368.7339">13</text><text fill="#000000" font-family="sans-serif" font-size="9.1" lengthAdjust="spacing" textLength="109.2578" x="39.7223" y="368.7339">selects scenario file to load</text><polygon fill="#181818" points="518.5229,391.5215,525.5229,394.3215,518.5229,397.1215,521.3229,394.3215" style="stroke:#181818;stroke-width:0.6999999999999998;"/><line style="stroke:#181818;stroke-width:0.6999999999999998;" x1="363.6367" x2="522.7229" y1="394.3215" y2="394.3215"/><text fill="#000000" font-family="sans-serif" font-size="9.1" font-weight="bold" lengthAdjust="spacing" textLength="10.122" x="368.5367" y="390.6376">14</text><text fill="#000000" font-family="sans-serif" font-size="9.1" lengthAdjust="spacing" textLength="106.2274" x="381.4586" y="390.6376">loadSelectedScenario(file)</text><polygon fill="#181818" points="691.8205,413.4252,698.8205,416.2252,691.8205,419.0252,694.6205,416.2252" style="stroke:#181818;stroke-width:0.6999999999999998;"/><line style="stroke:#181818;stroke-width:0.6999999999999998;" x1="533.9229" x2="696.0205" y1="416.2252" y2="416.2252"/><text fill="#000000" font-family="sans-serif" font-size="9.1" font-weight="bold" lengthAdjust="spacing" textLength="10.122" x="538.8229" y="412.5413">15</text><text fill="#000000" font-family="sans-serif" font-size="9.1" lengthAdjust="spacing" textLength="97.1096" x="551.7449" y="412.5413">deserializeScenario(file)</text><polygon fill="#181818" points="541.6229,435.3289,534.6229,438.1289,541.6229,440.9289,538.8229,438.1289" style="stroke:#181818;stroke-width:0.6999999999999998;"/><line style="stroke:#181818;stroke-width:0.6999999999999998;stroke-dasharray:2.0,2.0;" x1="537.4229" x2="703.0205" y1="438.1289" y2="438.1289"/><text fill="#000000" font-family="sans-serif" font-size="9.1" font-weight="bold" lengthAdjust="spacing" textLength="10.122" x="545.8229" y="434.445">16</text><text fill="#000000" font-family="sans-serif" font-size="9.1" lengthAdjust="spacing" textLength="136.5755" x="558.7449" y="434.445">returns deserialized scenario data</text><polygon fill="#181818" points="763.6354,457.2326,770.6354,460.0326,763.6354,462.8326,766.4354,460.0326" style="stroke:#181818;stroke-width:0.6999999999999998;"/><line style="stroke:#181818;stroke-width:0.6999999999999998;" x1="533.9229" x2="767.8354" y1="460.0326" y2="460.0326"/><text fill="#000000" font-family="sans-serif" font-size="9.1" font-weight="bold" lengthAdjust="spacing" textLength="10.122" x="538.8229" y="456.3487">17</text><text fill="#000000" font-family="sans-serif" font-size="9.1" lengthAdjust="spacing" textLength="84.9792" x="551.7449" y="456.3487">createScenario(data)</text><polygon fill="#181818" points="541.6229,479.1363,534.6229,481.9363,541.6229,484.7363,538.8229,481.9363" style="stroke:#181818;stroke-width:0.6999999999999998;"/><line style="stroke:#181818;stroke-width:0.6999999999999998;stroke-dasharray:2.0,2.0;" x1="537.4229" x2="774.8354" y1="481.9363" y2="481.9363"/><text fill="#000000" font-family="sans-serif" font-size="9.1" font-weight="bold" lengthAdjust="spacing" textLength="10.122" x="545.8229" y="478.2524">18</text><text fill="#000000" font-family="sans-serif" font-size="9.1" lengthAdjust="spacing" textLength="122.4101" x="558.7449" y="478.2524">returns new Scenario instance</text><polygon fill="#181818" points="371.3367,501.04,364.3367,503.84,371.3367,506.64,368.5367,503.84" style="stroke:#181818;stroke-width:0.6999999999999998;"/><line style="stroke:#181818;stroke-width:0.6999999999999998;stroke-dasharray:2.0,2.0;" x1="367.1367" x2="529.7229" y1="503.84" y2="503.84"/><text fill="#000000" font-family="sans-serif" font-size="9.1" font-weight="bold" lengthAdjust="spacing" textLength="10.122" x="375.5367" y="500.1562">19</text><text fill="#000000" font-family="sans-serif" font-size="9.1" lengthAdjust="spacing" textLength="95.1012" x="388.4586" y="500.1562">returns loaded scenario</text><polygon fill="#181818" points="29.6003,522.9437,22.6003,525.7437,29.6003,528.5437,26.8003,525.7437" style="stroke:#181818;stroke-width:0.6999999999999998;"/><line style="stroke:#181818;stroke-width:0.6999999999999998;stroke-dasharray:2.0,2.0;" x1="25.4003" x2="355.9367" y1="525.7437" y2="525.7437"/><text fill="#000000" font-family="sans-serif" font-size="9.1" font-weight="bold" lengthAdjust="spacing" textLength="10.122" x="33.8003" y="522.0599">20</text><text fill="#000000" font-family="sans-serif" font-size="9.1" lengthAdjust="spacing" textLength="108.7512" x="46.7223" y="522.0599">displays operation success</text><polygon fill="#181818" points="29.6003,544.8475,22.6003,547.6475,29.6003,550.4475,26.8003,547.6475" style="stroke:#181818;stroke-width:0.6999999999999998;"/><line style="stroke:#181818;stroke-width:0.6999999999999998;stroke-dasharray:2.0,2.0;" x1="25.4003" x2="355.9367" y1="547.6475" y2="547.6475"/><text fill="#000000" font-family="sans-serif" font-size="9.1" font-weight="bold" lengthAdjust="spacing" textLength="10.122" x="33.8003" y="543.9636">21</text><text fill="#000000" font-family="sans-serif" font-size="9.1" lengthAdjust="spacing" textLength="305.0144" x="46.7223" y="543.9636">displays loaded scenario details (nameID, startDate, endDate, initialBudget)</text><polygon fill="#181818" points="29.6003,566.7512,22.6003,569.5512,29.6003,572.3512,26.8003,569.5512" style="stroke:#181818;stroke-width:0.6999999999999998;"/><line style="stroke:#181818;stroke-width:0.6999999999999998;stroke-dasharray:2.0,2.0;" x1="25.4003" x2="359.4367" y1="569.5512" y2="569.5512"/><text fill="#000000" font-family="sans-serif" font-size="9.1" font-weight="bold" lengthAdjust="spacing" textLength="10.122" x="33.8003" y="565.8673">22</text><text fill="#000000" font-family="sans-serif" font-size="9.1" lengthAdjust="spacing" textLength="291.831" x="46.7223" y="565.8673">displays scenario configurations (locomotives, industries, stations, cities)</text><!--SRC=[hPNBRjim44Nt-eg1LZPWRxBKea1RDq20PXCZ7p0XnmO1YbGvb8lqwpkqefTjnOxjbIYAFFEubnJMqRkwVAEGHHCjGRwcFpKvHR0ok0rOmX9UrmyFKC1lZneGreeS1kFpB4CLVO3ybpRop04Pcc5MOOX6cGfTXBneTxm-xTVqhnFhVdeNWxUMmcXzFtsmxnch5weyfz3l-osZcOae8_Q-5hF3I6q9MVE4vRT1mWM4r1wE3D63RHh2BQD332hC-l4GrTTIx37j_6n-J1dKdHtF9Uget0As5B_lq5XyioIVU0WTTsRq1ik910F5EZW6QpY2tm2sS2Y5dccQe9_CzgYVbx8_QqTghe0RoGhGXYkBxtm1BKbqMcacIqg4bfsTsAtKi167N2ctgDDEywCFqh9P4ugqZE-a_sKHxc46nXtrZRcp6pw1NsE70rnI4ThE99slCqXl2YD6-x3AJPV1HqhTfP30zp269gPWq9f_DCM-nH83_E2eQ8puHLVqOGfGWMHNbswYdMX5XpcRfAE_tNSmZYFAp-wKy5yphCWsAFfMe_gA0aRZ7N2j536VtN6GW6WHvUfZc3aiwMcr02aqn9Kaj01okXaOPwBezQFMScNCpn-V5gwysvXjtQGeCQnNllHIBt62wffZC6aiGVTB5g0a4l5yueJz1m00]--></g></svg>