<svg xmlns="http://www.w3.org/2000/svg" xmlns:xlink="http://www.w3.org/1999/xlink" contentStyleType="text/css" height="544px" preserveAspectRatio="none" style="width:880px;height:544px;background:#FFFFFF;" version="1.1" viewBox="0 0 880 544" width="880px" zoomAndPan="magnify"><title>SaveCity</title><defs/><g><text fill="#000000" font-family="sans-serif" font-size="14" font-weight="bold" lengthAdjust="spacing" textLength="59.1445" x="412.4255" y="30.1074">SaveCity</text><rect fill="#FFFFFF" height="377.4922" style="stroke:#181818;stroke-width:1.0;" width="10" x="274.4497" y="111.5332"/><rect fill="#FFFFFF" height="31.291" style="stroke:#181818;stroke-width:1.0;" width="10" x="569.7412" y="169.1152"/><rect fill="#FFFFFF" height="31.291" style="stroke:#181818;stroke-width:1.0;" width="10" x="619.4136" y="231.6973"/><rect fill="#FFFFFF" height="31.291" style="stroke:#181818;stroke-width:1.0;" width="10" x="695.9375" y="294.2793"/><rect fill="#FFFFFF" height="31.291" style="stroke:#181818;stroke-width:1.0;" width="10" x="695.9375" y="356.8613"/><rect fill="#FFFFFF" height="31.291" style="stroke:#181818;stroke-width:1.0;" width="10" x="805.9199" y="419.4434"/><rect fill="none" height="332.2012" style="stroke:#000000;stroke-width:1.5;" width="667.4009" x="207.5947" y="126.5332"/><line style="stroke:#181818;stroke-width:0.5;stroke-dasharray:5.0,5.0;" x1="278.5947" x2="278.5947" y1="78.2422" y2="507.0254"/><line style="stroke:#181818;stroke-width:0.5;stroke-dasharray:5.0,5.0;" x1="574.686" x2="574.686" y1="78.2422" y2="507.0254"/><line style="stroke:#181818;stroke-width:0.5;stroke-dasharray:5.0,5.0;" x1="623.7964" x2="623.7964" y1="78.2422" y2="507.0254"/><line style="stroke:#181818;stroke-width:0.5;stroke-dasharray:5.0,5.0;" x1="700.0308" x2="700.0308" y1="78.2422" y2="507.0254"/><line style="stroke:#181818;stroke-width:0.5;stroke-dasharray:5.0,5.0;" x1="810.8442" x2="810.8442" y1="78.2422" y2="507.0254"/><rect fill="#E3E3E3" height="32.6211" rx="2.5" ry="2.5" style="stroke:#181818;stroke-width:0.5;" width="123.71" x="217.5947" y="44.6211"/><text fill="#000000" font-family="sans-serif" font-size="14" lengthAdjust="spacing" textLength="109.71" x="224.5947" y="66.7285">AddCityController</text><rect fill="#E3E3E3" height="32.6211" rx="2.5" ry="2.5" style="stroke:#181818;stroke-width:0.5;" width="123.71" x="217.5947" y="506.0254"/><text fill="#000000" font-family="sans-serif" font-size="14" lengthAdjust="spacing" textLength="109.71" x="224.5947" y="528.1328">AddCityController</text><rect fill="#E3E3E3" height="32.6211" rx="2.5" ry="2.5" style="stroke:#181818;stroke-width:0.5;" width="38.1104" x="555.686" y="44.6211"/><text fill="#000000" font-family="sans-serif" font-size="14" lengthAdjust="spacing" textLength="24.1104" x="562.686" y="66.7285">City</text><rect fill="#E3E3E3" height="32.6211" rx="2.5" ry="2.5" style="stroke:#181818;stroke-width:0.5;" width="38.1104" x="555.686" y="506.0254"/><text fill="#000000" font-family="sans-serif" font-size="14" lengthAdjust="spacing" textLength="24.1104" x="562.686" y="528.1328">City</text><rect fill="#E3E3E3" height="32.6211" rx="2.5" ry="2.5" style="stroke:#181818;stroke-width:0.5;" width="41.2344" x="603.7964" y="44.6211"/><text fill="#000000" font-family="sans-serif" font-size="14" lengthAdjust="spacing" textLength="27.2344" x="610.7964" y="66.7285">Map</text><rect fill="#E3E3E3" height="32.6211" rx="2.5" ry="2.5" style="stroke:#181818;stroke-width:0.5;" width="41.2344" x="603.7964" y="506.0254"/><text fill="#000000" font-family="sans-serif" font-size="14" lengthAdjust="spacing" textLength="27.2344" x="610.7964" y="528.1328">Map</text><rect fill="#E3E3E3" height="32.6211" rx="2.5" ry="2.5" style="stroke:#181818;stroke-width:0.5;" width="91.8135" x="655.0308" y="44.6211"/><text fill="#000000" font-family="sans-serif" font-size="14" lengthAdjust="spacing" textLength="77.8135" x="662.0308" y="66.7285">Repositories</text><rect fill="#E3E3E3" height="32.6211" rx="2.5" ry="2.5" style="stroke:#181818;stroke-width:0.5;" width="91.8135" x="655.0308" y="506.0254"/><text fill="#000000" font-family="sans-serif" font-size="14" lengthAdjust="spacing" textLength="77.8135" x="662.0308" y="528.1328">Repositories</text><rect fill="#E3E3E3" height="32.6211" rx="2.5" ry="2.5" style="stroke:#181818;stroke-width:0.5;" width="108.1514" x="756.8442" y="44.6211"/><text fill="#000000" font-family="sans-serif" font-size="14" lengthAdjust="spacing" textLength="94.1514" x="763.8442" y="66.7285">MapRepository</text><rect fill="#E3E3E3" height="32.6211" rx="2.5" ry="2.5" style="stroke:#181818;stroke-width:0.5;" width="108.1514" x="756.8442" y="506.0254"/><text fill="#000000" font-family="sans-serif" font-size="14" lengthAdjust="spacing" textLength="94.1514" x="763.8442" y="528.1328">MapRepository</text><rect fill="#FFFFFF" height="377.4922" style="stroke:#181818;stroke-width:1.0;" width="10" x="274.4497" y="111.5332"/><rect fill="#FFFFFF" height="31.291" style="stroke:#181818;stroke-width:1.0;" width="10" x="569.7412" y="169.1152"/><rect fill="#FFFFFF" height="31.291" style="stroke:#181818;stroke-width:1.0;" width="10" x="619.4136" y="231.6973"/><rect fill="#FFFFFF" height="31.291" style="stroke:#181818;stroke-width:1.0;" width="10" x="695.9375" y="294.2793"/><rect fill="#FFFFFF" height="31.291" style="stroke:#181818;stroke-width:1.0;" width="10" x="695.9375" y="356.8613"/><rect fill="#FFFFFF" height="31.291" style="stroke:#181818;stroke-width:1.0;" width="10" x="805.9199" y="419.4434"/><polygon fill="#181818" points="262.4497,107.5332,272.4497,111.5332,262.4497,115.5332,266.4497,111.5332" style="stroke:#181818;stroke-width:1.0;"/><line style="stroke:#181818;stroke-width:1.0;stroke-dasharray:2.0,2.0;" x1="0" x2="268.4497" y1="111.5332" y2="111.5332"/><text fill="#000000" font-family="sans-serif" font-size="13" font-weight="bold" lengthAdjust="spacing" textLength="14.46" x="7" y="106.2705">24</text><text fill="#000000" font-family="sans-serif" font-size="13" lengthAdjust="spacing" textLength="236.9897" x="25.46" y="106.2705">saveCity(nameID, position, houseBlocks)</text><path d="M207.5947,126.5332 L378.3291,126.5332 L378.3291,135.8242 L368.3291,145.8242 L207.5947,145.8242 L207.5947,126.5332 " fill="#EEEEEE" style="stroke:#000000;stroke-width:1.5;"/><rect fill="none" height="332.2012" style="stroke:#000000;stroke-width:1.5;" width="667.4009" x="207.5947" y="126.5332"/><text fill="#000000" font-family="sans-serif" font-size="13" font-weight="bold" lengthAdjust="spacing" textLength="125.7344" x="222.5947" y="141.5615">Create and save city</text><polygon fill="#181818" points="557.7412,165.1152,567.7412,169.1152,557.7412,173.1152,561.7412,169.1152" style="stroke:#181818;stroke-width:1.0;"/><line style="stroke:#181818;stroke-width:1.0;" x1="284.4497" x2="563.7412" y1="169.1152" y2="169.1152"/><text fill="#000000" font-family="sans-serif" font-size="13" font-weight="bold" lengthAdjust="spacing" textLength="25.3018" x="291.4497" y="163.8525">24.1</text><text fill="#000000" font-family="sans-serif" font-size="13" lengthAdjust="spacing" textLength="236.9897" x="320.7515" y="163.8525">new City(nameID, position, houseBlocks)</text><polygon fill="#181818" points="295.4497,196.4063,285.4497,200.4063,295.4497,204.4063,291.4497,200.4063" style="stroke:#181818;stroke-width:1.0;"/><line style="stroke:#181818;stroke-width:1.0;stroke-dasharray:2.0,2.0;" x1="289.4497" x2="573.7412" y1="200.4063" y2="200.4063"/><text fill="#000000" font-family="sans-serif" font-size="13" font-weight="bold" lengthAdjust="spacing" textLength="25.3018" x="301.4497" y="195.1436">24.2</text><text fill="#000000" font-family="sans-serif" font-size="13" lengthAdjust="spacing" textLength="19.5" x="330.7515" y="195.1436">city</text><polygon fill="#181818" points="607.4136,227.6973,617.4136,231.6973,607.4136,235.6973,611.4136,231.6973" style="stroke:#181818;stroke-width:1.0;"/><line style="stroke:#181818;stroke-width:1.0;" x1="284.4497" x2="613.4136" y1="231.6973" y2="231.6973"/><text fill="#000000" font-family="sans-serif" font-size="13" font-weight="bold" lengthAdjust="spacing" textLength="25.3018" x="291.4497" y="226.4346">24.3</text><text fill="#000000" font-family="sans-serif" font-size="13" lengthAdjust="spacing" textLength="72.2363" x="320.7515" y="226.4346">addCity(city)</text><polygon fill="#181818" points="295.4497,258.9883,285.4497,262.9883,295.4497,266.9883,291.4497,262.9883" style="stroke:#181818;stroke-width:1.0;"/><line style="stroke:#181818;stroke-width:1.0;stroke-dasharray:2.0,2.0;" x1="289.4497" x2="623.4136" y1="262.9883" y2="262.9883"/><text fill="#000000" font-family="sans-serif" font-size="13" font-weight="bold" lengthAdjust="spacing" textLength="25.3018" x="301.4497" y="257.7256">24.4</text><text fill="#000000" font-family="sans-serif" font-size="13" lengthAdjust="spacing" textLength="46.96" x="330.7515" y="257.7256">success</text><polygon fill="#181818" points="683.9375,290.2793,693.9375,294.2793,683.9375,298.2793,687.9375,294.2793" style="stroke:#181818;stroke-width:1.0;"/><line style="stroke:#181818;stroke-width:1.0;" x1="284.4497" x2="689.9375" y1="294.2793" y2="294.2793"/><text fill="#000000" font-family="sans-serif" font-size="13" font-weight="bold" lengthAdjust="spacing" textLength="25.3018" x="291.4497" y="289.0166">24.5</text><text fill="#000000" font-family="sans-serif" font-size="13" lengthAdjust="spacing" textLength="75.8735" x="320.7515" y="289.0166">getInstance()</text><polygon fill="#181818" points="295.4497,321.5703,285.4497,325.5703,295.4497,329.5703,291.4497,325.5703" style="stroke:#181818;stroke-width:1.0;"/><line style="stroke:#181818;stroke-width:1.0;stroke-dasharray:2.0,2.0;" x1="289.4497" x2="699.9375" y1="325.5703" y2="325.5703"/><text fill="#000000" font-family="sans-serif" font-size="13" font-weight="bold" lengthAdjust="spacing" textLength="25.3018" x="301.4497" y="320.3076">24.6</text><text fill="#000000" font-family="sans-serif" font-size="13" lengthAdjust="spacing" textLength="67.1963" x="330.7515" y="320.3076">repositories</text><polygon fill="#181818" points="683.9375,352.8613,693.9375,356.8613,683.9375,360.8613,687.9375,356.8613" style="stroke:#181818;stroke-width:1.0;"/><line style="stroke:#181818;stroke-width:1.0;" x1="284.4497" x2="689.9375" y1="356.8613" y2="356.8613"/><text fill="#000000" font-family="sans-serif" font-size="13" font-weight="bold" lengthAdjust="spacing" textLength="25.3018" x="291.4497" y="351.5986">24.7</text><text fill="#000000" font-family="sans-serif" font-size="13" lengthAdjust="spacing" textLength="96.0845" x="320.7515" y="351.5986">mapRepository()</text><polygon fill="#181818" points="295.4497,384.1523,285.4497,388.1523,295.4497,392.1523,291.4497,388.1523" style="stroke:#181818;stroke-width:1.0;"/><line style="stroke:#181818;stroke-width:1.0;stroke-dasharray:2.0,2.0;" x1="289.4497" x2="699.9375" y1="388.1523" y2="388.1523"/><text fill="#000000" font-family="sans-serif" font-size="13" font-weight="bold" lengthAdjust="spacing" textLength="25.3018" x="301.4497" y="382.8896">24.8</text><text fill="#000000" font-family="sans-serif" font-size="13" lengthAdjust="spacing" textLength="87.4263" x="330.7515" y="382.8896">mapRepository</text><polygon fill="#181818" points="793.9199,415.4434,803.9199,419.4434,793.9199,423.4434,797.9199,419.4434" style="stroke:#181818;stroke-width:1.0;"/><line style="stroke:#181818;stroke-width:1.0;" x1="284.4497" x2="799.9199" y1="419.4434" y2="419.4434"/><text fill="#000000" font-family="sans-serif" font-size="13" font-weight="bold" lengthAdjust="spacing" textLength="25.3018" x="291.4497" y="414.1807">24.9</text><text fill="#000000" font-family="sans-serif" font-size="13" lengthAdjust="spacing" textLength="86.6963" x="320.7515" y="414.1807">saveMap(map)</text><polygon fill="#181818" points="295.4497,446.7344,285.4497,450.7344,295.4497,454.7344,291.4497,450.7344" style="stroke:#181818;stroke-width:1.0;"/><line style="stroke:#181818;stroke-width:1.0;stroke-dasharray:2.0,2.0;" x1="289.4497" x2="809.9199" y1="450.7344" y2="450.7344"/><text fill="#000000" font-family="sans-serif" font-size="13" font-weight="bold" lengthAdjust="spacing" textLength="32.5317" x="301.4497" y="445.4717">24.10</text><text fill="#000000" font-family="sans-serif" font-size="13" lengthAdjust="spacing" textLength="46.96" x="337.9814" y="445.4717">success</text><polygon fill="#181818" points="11,485.0254,1,489.0254,11,493.0254,7,489.0254" style="stroke:#181818;stroke-width:1.0;"/><line style="stroke:#181818;stroke-width:1.0;stroke-dasharray:2.0,2.0;" x1="5" x2="278.4497" y1="489.0254" y2="489.0254"/><text fill="#000000" font-family="sans-serif" font-size="13" font-weight="bold" lengthAdjust="spacing" textLength="14.46" x="17" y="483.7627">25</text><text fill="#000000" font-family="sans-serif" font-size="13" lengthAdjust="spacing" textLength="46.96" x="35.46" y="483.7627">success</text><!--SRC=[hLFDJiCm3BxxANmiqee4Wik4aA1STk32di2afelM9bMIRjhRauHjIjeL0QAtVlRtqzgsMwbwCjHXfvKM6wCxHcS61dkkz2IsrF3Q7Lf6myAHQjgqmMwerdkf6loWrZBGuBGQkdSs04uwprhJZYlf3W2UuQIGFIc7JtKTm4ehPtJR-lQq6ljJu9NwxFsDUssbqqQo7JUUQuSa3TxUGLa-JdsNYFQOi53KyUfbWP4ljLhWHW-MdrijjlOAe35wwB4oJ8wHL1sPA49OF3wPu_KD00adTw5_-iMHD87Hfmm8Bb7n7dyIB1gVVAfJd2XoyPkzz3bqpJbpFfJ_jPv8NwKY28oSmv0241hdVEqW15ixjWxKUUTqsbwZORTIrg-Yu68K8TkBKCceSw7Cc9KaonH_7B5Br_1_GcQIVqoPNKUOXjzVZnLUUphBaLlE_Vry4pbWVplnc2xUpJt0Grb-Avz8J-_g4m00]--></g></svg>