<svg xmlns="http://www.w3.org/2000/svg" xmlns:xlink="http://www.w3.org/1999/xlink" contentStyleType="text/css" height="1061.2px" preserveAspectRatio="none" style="width:784px;height:1061px;background:#FFFFFF;" version="1.1" viewBox="0 0 784 1061" width="784.7px" zoomAndPan="magnify"><title>System Sequence Diagram : US03 - Add a city</title><defs/><g><text fill="#000000" font-family="sans-serif" font-size="9.8" font-weight="bold" lengthAdjust="spacing" textLength="214.5855" x="285.9816" y="21.0752">System Sequence Diagram : US03 - Add a city</text><rect fill="#FFFFFF" height="904.0459" style="stroke:#181818;stroke-width:0.6999999999999998;" width="7" x="14.9003" y="93.2695"/><rect fill="#FFFFFF" height="130.0223" style="stroke:#181818;stroke-width:0.6999999999999998;" width="7" x="193.2632" y="109.5732"/><rect fill="#FFFFFF" height="99.4875" style="stroke:#181818;stroke-width:0.6999999999999998;" width="7" x="193.2632" y="261.4992"/><rect fill="#FFFFFF" height="55.6801" style="stroke:#181818;stroke-width:0.6999999999999998;" width="7" x="313.9883" y="162.0117"/><rect fill="#FFFFFF" height="55.6801" style="stroke:#181818;stroke-width:0.6999999999999998;" width="7" x="313.9883" y="283.4029"/><rect fill="#FFFFFF" height="21.9037" style="stroke:#181818;stroke-width:0.6999999999999998;" width="7" x="393.4236" y="382.8904"/><rect fill="#FFFFFF" height="187.1023" style="stroke:#181818;stroke-width:0.6999999999999998;" width="7" x="393.4236" y="426.6979"/><rect fill="#FFFFFF" height="212.0166" style="stroke:#181818;stroke-width:0.6999999999999998;" width="7" x="393.4236" y="635.7039"/><rect fill="#FFFFFF" height="121.3912" style="stroke:#181818;stroke-width:0.6999999999999998;" width="7" x="393.4236" y="869.6242"/><rect fill="#FFFFFF" height="21.9037" style="stroke:#181818;stroke-width:0.6999999999999998;" width="7" x="592.5384" y="448.6016"/><rect fill="#FFFFFF" height="55.6801" style="stroke:#181818;stroke-width:0.6999999999999998;" width="7" x="592.5384" y="492.409"/><rect fill="#FFFFFF" height="21.9037" style="stroke:#181818;stroke-width:0.6999999999999998;" width="7" x="592.5384" y="569.9928"/><rect fill="#FFFFFF" height="55.6801" style="stroke:#181818;stroke-width:0.6999999999999998;" width="7" x="592.5384" y="891.5279"/><rect fill="#FFFFFF" height="55.6801" style="stroke:#181818;stroke-width:0.6999999999999998;" width="7" x="706.2928" y="676.0113"/><rect fill="#FFFFFF" height="55.6801" style="stroke:#181818;stroke-width:0.6999999999999998;" width="7" x="706.2928" y="765.2367"/><rect fill="none" height="180.3129" style="stroke:#000000;stroke-width:1.0499999999999998;" width="417.2824" x="362.9664" y="646.2039"/><line style="stroke:#181818;stroke-width:0.3499999999999999;stroke-dasharray:5.0,5.0;" x1="18.2" x2="18.2" y1="86.2695" y2="1003.6154"/><line style="stroke:#181818;stroke-width:0.3499999999999999;stroke-dasharray:5.0,5.0;" x1="196.3264" x2="196.3264" y1="86.2695" y2="1003.6154"/><line style="stroke:#181818;stroke-width:0.3499999999999999;stroke-dasharray:5.0,5.0;" x1="316.8102" x2="316.8102" y1="137.4406" y2="1003.6154"/><line style="stroke:#181818;stroke-width:0.3499999999999999;stroke-dasharray:5.0,5.0;" x1="396.5664" x2="396.5664" y1="86.2695" y2="1003.6154"/><line style="stroke:#181818;stroke-width:0.3499999999999999;stroke-dasharray:5.0,5.0;" x1="595.4399" x2="595.4399" y1="86.2695" y2="1003.6154"/><line style="stroke:#181818;stroke-width:0.3499999999999999;stroke-dasharray:5.0,5.0;" x1="709.3369" x2="709.3369" y1="86.2695" y2="1003.6154"/><text fill="#000000" font-family="sans-serif" font-size="9.8" lengthAdjust="spacing" textLength="25.6006" x="3.5" y="83.81">Editor</text><ellipse cx="18.4003" cy="37.1848" fill="#E3E3E3" rx="5.6" ry="5.6" style="stroke:#181818;stroke-width:0.3499999999999999;"/><path d="M18.4003,42.7848 L18.4003,61.6848 M9.3003,48.3848 L27.5003,48.3848 M18.4003,61.6848 L9.3003,72.1848 M18.4003,61.6848 L27.5003,72.1848 " fill="none" style="stroke:#181818;stroke-width:0.3499999999999999;"/><text fill="#000000" font-family="sans-serif" font-size="9.8" lengthAdjust="spacing" textLength="25.6006" x="3.5" y="1013.4906">Editor</text><ellipse cx="18.4003" cy="1021.9002" fill="#E3E3E3" rx="5.6" ry="5.6" style="stroke:#181818;stroke-width:0.3499999999999999;"/><path d="M18.4003,1027.5002 L18.4003,1046.4002 M9.3003,1033.1002 L27.5003,1033.1002 M18.4003,1046.4002 L9.3003,1056.9002 M18.4003,1046.4002 L27.5003,1056.9002 " fill="none" style="stroke:#181818;stroke-width:0.3499999999999999;"/><rect fill="#E3E3E3" height="22.8348" rx="1.75" ry="1.75" style="stroke:#181818;stroke-width:0.3499999999999999;" width="58.2736" x="167.6264" y="62.7348"/><text fill="#000000" font-family="sans-serif" font-size="9.8" lengthAdjust="spacing" textLength="48.4736" x="172.5264" y="78.21">:EditMapUI</text><rect fill="#E3E3E3" height="22.8348" rx="1.75" ry="1.75" style="stroke:#181818;stroke-width:0.3499999999999999;" width="58.2736" x="167.6264" y="1002.9154"/><text fill="#000000" font-family="sans-serif" font-size="9.8" lengthAdjust="spacing" textLength="48.4736" x="172.5264" y="1018.3906">:EditMapUI</text><rect fill="#E3E3E3" height="22.8348" rx="1.75" ry="1.75" style="stroke:#181818;stroke-width:0.3499999999999999;" width="90.9562" x="272.0102" y="1002.9154"/><text fill="#000000" font-family="sans-serif" font-size="9.8" lengthAdjust="spacing" textLength="81.1562" x="276.9102" y="1018.3906">:EditMapController</text><rect fill="#E3E3E3" height="22.8348" rx="1.75" ry="1.75" style="stroke:#181818;stroke-width:0.3499999999999999;" width="53.9144" x="369.9664" y="62.7348"/><text fill="#000000" font-family="sans-serif" font-size="9.8" lengthAdjust="spacing" textLength="44.1144" x="374.8664" y="78.21">AddCityUI</text><rect fill="#E3E3E3" height="22.8348" rx="1.75" ry="1.75" style="stroke:#181818;stroke-width:0.3499999999999999;" width="53.9144" x="369.9664" y="1002.9154"/><text fill="#000000" font-family="sans-serif" font-size="9.8" lengthAdjust="spacing" textLength="44.1144" x="374.8664" y="1018.3906">AddCityUI</text><rect fill="#E3E3E3" height="22.8348" rx="1.75" ry="1.75" style="stroke:#181818;stroke-width:0.3499999999999999;" width="86.597" x="552.7399" y="62.7348"/><text fill="#000000" font-family="sans-serif" font-size="9.8" lengthAdjust="spacing" textLength="76.797" x="557.6399" y="78.21">AddCityController</text><rect fill="#E3E3E3" height="22.8348" rx="1.75" ry="1.75" style="stroke:#181818;stroke-width:0.3499999999999999;" width="86.597" x="552.7399" y="1002.9154"/><text fill="#000000" font-family="sans-serif" font-size="9.8" lengthAdjust="spacing" textLength="76.797" x="557.6399" y="1018.3906">AddCityController</text><rect fill="#E3E3E3" height="22.8348" rx="1.75" ry="1.75" style="stroke:#181818;stroke-width:0.3499999999999999;" width="126.9119" x="646.3369" y="62.7348"/><text fill="#000000" font-family="sans-serif" font-size="9.8" lengthAdjust="spacing" textLength="117.1119" x="651.2369" y="78.21">AddHouseBlocksController</text><rect fill="#E3E3E3" height="22.8348" rx="1.75" ry="1.75" style="stroke:#181818;stroke-width:0.3499999999999999;" width="126.9119" x="646.3369" y="1002.9154"/><text fill="#000000" font-family="sans-serif" font-size="9.8" lengthAdjust="spacing" textLength="117.1119" x="651.2369" y="1018.3906">AddHouseBlocksController</text><rect fill="#FFFFFF" height="904.0459" style="stroke:#181818;stroke-width:0.6999999999999998;" width="7" x="14.9003" y="93.2695"/><rect fill="#FFFFFF" height="130.0223" style="stroke:#181818;stroke-width:0.6999999999999998;" width="7" x="193.2632" y="109.5732"/><rect fill="#FFFFFF" height="99.4875" style="stroke:#181818;stroke-width:0.6999999999999998;" width="7" x="193.2632" y="261.4992"/><rect fill="#FFFFFF" height="55.6801" style="stroke:#181818;stroke-width:0.6999999999999998;" width="7" x="313.9883" y="162.0117"/><rect fill="#FFFFFF" height="55.6801" style="stroke:#181818;stroke-width:0.6999999999999998;" width="7" x="313.9883" y="283.4029"/><rect fill="#FFFFFF" height="21.9037" style="stroke:#181818;stroke-width:0.6999999999999998;" width="7" x="393.4236" y="382.8904"/><rect fill="#FFFFFF" height="187.1023" style="stroke:#181818;stroke-width:0.6999999999999998;" width="7" x="393.4236" y="426.6979"/><rect fill="#FFFFFF" height="212.0166" style="stroke:#181818;stroke-width:0.6999999999999998;" width="7" x="393.4236" y="635.7039"/><rect fill="#FFFFFF" height="121.3912" style="stroke:#181818;stroke-width:0.6999999999999998;" width="7" x="393.4236" y="869.6242"/><rect fill="#FFFFFF" height="21.9037" style="stroke:#181818;stroke-width:0.6999999999999998;" width="7" x="592.5384" y="448.6016"/><rect fill="#FFFFFF" height="55.6801" style="stroke:#181818;stroke-width:0.6999999999999998;" width="7" x="592.5384" y="492.409"/><rect fill="#FFFFFF" height="21.9037" style="stroke:#181818;stroke-width:0.6999999999999998;" width="7" x="592.5384" y="569.9928"/><rect fill="#FFFFFF" height="55.6801" style="stroke:#181818;stroke-width:0.6999999999999998;" width="7" x="592.5384" y="891.5279"/><rect fill="#FFFFFF" height="55.6801" style="stroke:#181818;stroke-width:0.6999999999999998;" width="7" x="706.2928" y="676.0113"/><rect fill="#FFFFFF" height="55.6801" style="stroke:#181818;stroke-width:0.6999999999999998;" width="7" x="706.2928" y="765.2367"/><polygon fill="#181818" points="184.8632,106.7732,191.8632,109.5732,184.8632,112.3732,187.6632,109.5732" style="stroke:#181818;stroke-width:0.6999999999999998;"/><line style="stroke:#181818;stroke-width:0.6999999999999998;" x1="21.9003" x2="189.0632" y1="109.5732" y2="109.5732"/><text fill="#000000" font-family="sans-serif" font-size="9.1" font-weight="bold" lengthAdjust="spacing" textLength="5.061" x="26.8003" y="105.8894">1</text><text fill="#000000" font-family="sans-serif" font-size="9.1" lengthAdjust="spacing" textLength="66.2594" x="34.6613" y="105.8894">asks to edit map</text><polygon fill="#181818" points="263.6102,128.677,270.6102,131.477,263.6102,134.277,266.4102,131.477" style="stroke:#181818;stroke-width:0.6999999999999998;"/><line style="stroke:#181818;stroke-width:0.6999999999999998;" x1="200.2632" x2="267.8102" y1="131.477" y2="131.477"/><text fill="#000000" font-family="sans-serif" font-size="9.1" font-weight="bold" lengthAdjust="spacing" textLength="5.061" x="205.1632" y="127.7931">2</text><text fill="#000000" font-family="sans-serif" font-size="9.1" lengthAdjust="spacing" textLength="31.3523" x="213.0242" y="127.7931">create()</text><rect fill="#E3E3E3" height="22.8348" rx="1.75" ry="1.75" style="stroke:#181818;stroke-width:0.3499999999999999;" width="90.9562" x="272.0102" y="115.1732"/><text fill="#000000" font-family="sans-serif" font-size="9.8" lengthAdjust="spacing" textLength="81.1562" x="276.9102" y="130.6484">:EditMapController</text><polygon fill="#181818" points="305.5883,159.2117,312.5883,162.0117,305.5883,164.8117,308.3883,162.0117" style="stroke:#181818;stroke-width:0.6999999999999998;"/><line style="stroke:#181818;stroke-width:0.6999999999999998;" x1="200.2632" x2="309.7883" y1="162.0117" y2="162.0117"/><text fill="#000000" font-family="sans-serif" font-size="9.1" font-weight="bold" lengthAdjust="spacing" textLength="5.061" x="205.1632" y="158.3278">3</text><text fill="#000000" font-family="sans-serif" font-size="9.1" lengthAdjust="spacing" textLength="77.8921" x="213.0242" y="158.3278">getAvailableMaps()</text><rect fill="none" height="30.2764" style="stroke:#000000;stroke-width:1.0499999999999998;" width="95.1562" x="269.9102" y="167.6117"/><path d="M269.9102,167.6117 L312.6102,167.6117 L312.6102,173.9117 L305.6102,180.9117 L269.9102,180.9117 L269.9102,167.6117 " fill="#EEEEEE" style="stroke:#000000;stroke-width:1.3999999999999997;"/><text fill="#000000" font-family="sans-serif" font-size="9.1" font-weight="bold" lengthAdjust="spacing" textLength="11.6327" x="279.0102" y="178.8315">ref</text><text fill="#000000" font-family="sans-serif" font-size="8.4" lengthAdjust="spacing" textLength="71.9045" x="281.536" y="192.7762">Get available maps</text><polygon fill="#181818" points="207.9632,214.8918,200.9632,217.6918,207.9632,220.4918,205.1632,217.6918" style="stroke:#181818;stroke-width:0.6999999999999998;"/><line style="stroke:#181818;stroke-width:0.6999999999999998;stroke-dasharray:2.0,2.0;" x1="203.7632" x2="316.7883" y1="217.6918" y2="217.6918"/><text fill="#000000" font-family="sans-serif" font-size="9.1" font-weight="bold" lengthAdjust="spacing" textLength="5.061" x="212.1632" y="214.0079">4</text><text fill="#000000" font-family="sans-serif" font-size="9.1" lengthAdjust="spacing" textLength="72.3334" x="220.0242" y="214.0079">availableMapsList</text><polygon fill="#181818" points="29.6003,236.7955,22.6003,239.5955,29.6003,242.3955,26.8003,239.5955" style="stroke:#181818;stroke-width:0.6999999999999998;"/><line style="stroke:#181818;stroke-width:0.6999999999999998;stroke-dasharray:2.0,2.0;" x1="25.4003" x2="196.0632" y1="239.5955" y2="239.5955"/><text fill="#000000" font-family="sans-serif" font-size="9.1" font-weight="bold" lengthAdjust="spacing" textLength="5.061" x="33.8003" y="235.9116">5</text><text fill="#000000" font-family="sans-serif" font-size="9.1" lengthAdjust="spacing" textLength="112.7902" x="41.6613" y="235.9116">shows list of available maps</text><polygon fill="#181818" points="184.8632,258.6992,191.8632,261.4992,184.8632,264.2992,187.6632,261.4992" style="stroke:#181818;stroke-width:0.6999999999999998;"/><line style="stroke:#181818;stroke-width:0.6999999999999998;" x1="21.9003" x2="189.0632" y1="261.4992" y2="261.4992"/><text fill="#000000" font-family="sans-serif" font-size="9.1" font-weight="bold" lengthAdjust="spacing" textLength="5.061" x="26.8003" y="257.8153">6</text><text fill="#000000" font-family="sans-serif" font-size="9.1" lengthAdjust="spacing" textLength="56.1418" x="34.6613" y="257.8153">selects a map</text><polygon fill="#181818" points="305.5883,280.6029,312.5883,283.4029,305.5883,286.2029,308.3883,283.4029" style="stroke:#181818;stroke-width:0.6999999999999998;"/><line style="stroke:#181818;stroke-width:0.6999999999999998;" x1="200.2632" x2="309.7883" y1="283.4029" y2="283.4029"/><text fill="#000000" font-family="sans-serif" font-size="9.1" font-weight="bold" lengthAdjust="spacing" textLength="5.061" x="205.1632" y="279.719">7</text><text fill="#000000" font-family="sans-serif" font-size="9.1" lengthAdjust="spacing" textLength="92.5641" x="213.0242" y="279.719">loadMap(selectedMap)</text><rect fill="none" height="30.2764" style="stroke:#000000;stroke-width:1.0499999999999998;" width="95.1562" x="269.9102" y="289.0029"/><path d="M269.9102,289.0029 L312.6102,289.0029 L312.6102,295.3029 L305.6102,302.3029 L269.9102,302.3029 L269.9102,289.0029 " fill="#EEEEEE" style="stroke:#000000;stroke-width:1.3999999999999997;"/><text fill="#000000" font-family="sans-serif" font-size="9.1" font-weight="bold" lengthAdjust="spacing" textLength="11.6327" x="279.0102" y="300.2228">ref</text><text fill="#000000" font-family="sans-serif" font-size="8.4" lengthAdjust="spacing" textLength="70.9816" x="281.9975" y="314.1674">Load selected map</text><polygon fill="#181818" points="207.9632,336.283,200.9632,339.083,207.9632,341.883,205.1632,339.083" style="stroke:#181818;stroke-width:0.6999999999999998;"/><line style="stroke:#181818;stroke-width:0.6999999999999998;stroke-dasharray:2.0,2.0;" x1="203.7632" x2="316.7883" y1="339.083" y2="339.083"/><text fill="#000000" font-family="sans-serif" font-size="9.1" font-weight="bold" lengthAdjust="spacing" textLength="5.061" x="212.1632" y="335.3991">8</text><text fill="#000000" font-family="sans-serif" font-size="9.1" lengthAdjust="spacing" textLength="45.0246" x="220.0242" y="335.3991">mapLayout</text><polygon fill="#181818" points="29.6003,358.1867,22.6003,360.9867,29.6003,363.7867,26.8003,360.9867" style="stroke:#181818;stroke-width:0.6999999999999998;"/><line style="stroke:#181818;stroke-width:0.6999999999999998;stroke-dasharray:2.0,2.0;" x1="25.4003" x2="196.0632" y1="360.9867" y2="360.9867"/><text fill="#000000" font-family="sans-serif" font-size="9.1" font-weight="bold" lengthAdjust="spacing" textLength="5.061" x="33.8003" y="357.3028">9</text><text fill="#000000" font-family="sans-serif" font-size="9.1" lengthAdjust="spacing" textLength="146.702" x="41.6613" y="357.3028">loads and displays the selected map</text><polygon fill="#181818" points="385.0236,380.0904,392.0236,382.8904,385.0236,385.6904,387.8236,382.8904" style="stroke:#181818;stroke-width:0.6999999999999998;"/><line style="stroke:#181818;stroke-width:0.6999999999999998;" x1="21.9003" x2="389.2236" y1="382.8904" y2="382.8904"/><text fill="#000000" font-family="sans-serif" font-size="9.1" font-weight="bold" lengthAdjust="spacing" textLength="10.122" x="26.8003" y="379.2065">10</text><text fill="#000000" font-family="sans-serif" font-size="9.1" lengthAdjust="spacing" textLength="62.718" x="39.7223" y="379.2065">asks to add city</text><polygon fill="#181818" points="29.6003,401.9941,22.6003,404.7941,29.6003,407.5941,26.8003,404.7941" style="stroke:#181818;stroke-width:0.6999999999999998;"/><line style="stroke:#181818;stroke-width:0.6999999999999998;stroke-dasharray:2.0,2.0;" x1="25.4003" x2="396.2236" y1="404.7941" y2="404.7941"/><text fill="#000000" font-family="sans-serif" font-size="9.1" font-weight="bold" lengthAdjust="spacing" textLength="10.122" x="33.8003" y="401.1103">11</text><text fill="#000000" font-family="sans-serif" font-size="9.1" lengthAdjust="spacing" textLength="300.4555" x="46.7223" y="401.1103">requests city data (nameID, X and Y coordinates, number of house blocks)</text><polygon fill="#181818" points="385.0236,423.8979,392.0236,426.6979,385.0236,429.4979,387.8236,426.6979" style="stroke:#181818;stroke-width:0.6999999999999998;"/><line style="stroke:#181818;stroke-width:0.6999999999999998;" x1="21.9003" x2="389.2236" y1="426.6979" y2="426.6979"/><text fill="#000000" font-family="sans-serif" font-size="9.1" font-weight="bold" lengthAdjust="spacing" textLength="10.122" x="26.8003" y="423.014">12</text><text fill="#000000" font-family="sans-serif" font-size="9.1" lengthAdjust="spacing" textLength="58.168" x="39.7223" y="423.014">types city data</text><polygon fill="#181818" points="584.1384,445.8016,591.1384,448.6016,584.1384,451.4016,586.9384,448.6016" style="stroke:#181818;stroke-width:0.6999999999999998;"/><line style="stroke:#181818;stroke-width:0.6999999999999998;stroke-dasharray:2.0,2.0;" x1="400.4236" x2="588.3384" y1="448.6016" y2="448.6016"/><text fill="#000000" font-family="sans-serif" font-size="9.1" font-weight="bold" lengthAdjust="spacing" textLength="10.122" x="405.3236" y="444.9177">13</text><text fill="#000000" font-family="sans-serif" font-size="9.1" lengthAdjust="spacing" textLength="84.4638" x="418.2456" y="444.9177">validateName(name)</text><polygon fill="#181818" points="408.1236,467.7053,401.1236,470.5053,408.1236,473.3053,405.3236,470.5053" style="stroke:#181818;stroke-width:0.6999999999999998;"/><line style="stroke:#181818;stroke-width:0.6999999999999998;stroke-dasharray:2.0,2.0;" x1="403.9236" x2="595.3384" y1="470.5053" y2="470.5053"/><text fill="#000000" font-family="sans-serif" font-size="9.1" font-weight="bold" lengthAdjust="spacing" textLength="10.122" x="412.3236" y="466.8214">14</text><text fill="#000000" font-family="sans-serif" font-size="9.1" lengthAdjust="spacing" textLength="22.7633" x="425.2456" y="466.8214">name</text><polygon fill="#181818" points="584.1384,489.609,591.1384,492.409,584.1384,495.209,586.9384,492.409" style="stroke:#181818;stroke-width:0.6999999999999998;"/><line style="stroke:#181818;stroke-width:0.6999999999999998;stroke-dasharray:2.0,2.0;" x1="400.4236" x2="588.3384" y1="492.409" y2="492.409"/><text fill="#000000" font-family="sans-serif" font-size="9.1" font-weight="bold" lengthAdjust="spacing" textLength="10.122" x="405.3236" y="488.7251">15</text><text fill="#000000" font-family="sans-serif" font-size="9.1" lengthAdjust="spacing" textLength="100.651" x="418.2456" y="488.7251">validateCoordinates(x, y)</text><rect fill="none" height="30.2764" style="stroke:#000000;stroke-width:1.0499999999999998;" width="90.797" x="550.6399" y="498.009"/><path d="M550.6399,498.009 L593.3399,498.009 L593.3399,504.309 L586.3399,511.309 L550.6399,511.309 L550.6399,498.009 " fill="#EEEEEE" style="stroke:#000000;stroke-width:1.3999999999999997;"/><text fill="#000000" font-family="sans-serif" font-size="9.1" font-weight="bold" lengthAdjust="spacing" textLength="11.6327" x="559.7399" y="509.2288">ref</text><text fill="#000000" font-family="sans-serif" font-size="8.4" lengthAdjust="spacing" textLength="81.2437" x="555.4165" y="523.1734">ValidateCoordinates()</text><polygon fill="#181818" points="408.1236,545.2891,401.1236,548.0891,408.1236,550.8891,405.3236,548.0891" style="stroke:#181818;stroke-width:0.6999999999999998;"/><line style="stroke:#181818;stroke-width:0.6999999999999998;stroke-dasharray:2.0,2.0;" x1="403.9236" x2="595.3384" y1="548.0891" y2="548.0891"/><text fill="#000000" font-family="sans-serif" font-size="9.1" font-weight="bold" lengthAdjust="spacing" textLength="10.122" x="412.3236" y="544.4052">16</text><text fill="#000000" font-family="sans-serif" font-size="9.1" lengthAdjust="spacing" textLength="31.3657" x="425.2456" y="544.4052">position</text><polygon fill="#181818" points="584.1384,567.1928,591.1384,569.9928,584.1384,572.7928,586.9384,569.9928" style="stroke:#181818;stroke-width:0.6999999999999998;"/><line style="stroke:#181818;stroke-width:0.6999999999999998;stroke-dasharray:2.0,2.0;" x1="400.4236" x2="588.3384" y1="569.9928" y2="569.9928"/><text fill="#000000" font-family="sans-serif" font-size="9.1" font-weight="bold" lengthAdjust="spacing" textLength="10.122" x="405.3236" y="566.3089">17</text><text fill="#000000" font-family="sans-serif" font-size="9.1" lengthAdjust="spacing" textLength="127.9465" x="418.2456" y="566.3089">validateNumBlocks(numBlocks)</text><polygon fill="#181818" points="408.1236,589.0965,401.1236,591.8965,408.1236,594.6965,405.3236,591.8965" style="stroke:#181818;stroke-width:0.6999999999999998;"/><line style="stroke:#181818;stroke-width:0.6999999999999998;stroke-dasharray:2.0,2.0;" x1="403.9236" x2="595.3384" y1="591.8965" y2="591.8965"/><text fill="#000000" font-family="sans-serif" font-size="9.1" font-weight="bold" lengthAdjust="spacing" textLength="10.122" x="412.3236" y="588.2126">18</text><text fill="#000000" font-family="sans-serif" font-size="9.1" lengthAdjust="spacing" textLength="44.5047" x="425.2456" y="588.2126">numBlocks</text><polygon fill="#181818" points="29.6003,611.0002,22.6003,613.8002,29.6003,616.6002,26.8003,613.8002" style="stroke:#181818;stroke-width:0.6999999999999998;"/><line style="stroke:#181818;stroke-width:0.6999999999999998;stroke-dasharray:2.0,2.0;" x1="25.4003" x2="396.2236" y1="613.8002" y2="613.8002"/><text fill="#000000" font-family="sans-serif" font-size="9.1" font-weight="bold" lengthAdjust="spacing" textLength="10.122" x="33.8003" y="610.1163">19</text><text fill="#000000" font-family="sans-serif" font-size="9.1" lengthAdjust="spacing" textLength="280.2116" x="46.7223" y="610.1163">asks if the editor wants to assign the blocks manually or automatically</text><polygon fill="#181818" points="385.0236,632.9039,392.0236,635.7039,385.0236,638.5039,387.8236,635.7039" style="stroke:#181818;stroke-width:0.6999999999999998;"/><line style="stroke:#181818;stroke-width:0.6999999999999998;" x1="21.9003" x2="389.2236" y1="635.7039" y2="635.7039"/><text fill="#000000" font-family="sans-serif" font-size="9.1" font-weight="bold" lengthAdjust="spacing" textLength="10.122" x="26.8003" y="632.02">20</text><text fill="#000000" font-family="sans-serif" font-size="9.1" lengthAdjust="spacing" textLength="57.6615" x="39.7223" y="632.02">selects yes/no</text><path d="M362.9664,646.2039 L405.086,646.2039 L405.086,652.7076 L398.086,659.7076 L362.9664,659.7076 L362.9664,646.2039 " fill="#EEEEEE" style="stroke:#000000;stroke-width:1.0499999999999998;"/><rect fill="none" height="180.3129" style="stroke:#000000;stroke-width:1.0499999999999998;" width="417.2824" x="362.9664" y="646.2039"/><text fill="#000000" font-family="sans-serif" font-size="9.1" font-weight="bold" lengthAdjust="spacing" textLength="10.6196" x="373.4664" y="656.7237">alt</text><text fill="#000000" font-family="sans-serif" font-size="7.7" font-weight="bold" lengthAdjust="spacing" textLength="107.018" x="415.586" y="655.913">[User selects "yes" (manual)]</text><polygon fill="#181818" points="697.8928,673.2113,704.8928,676.0113,697.8928,678.8113,700.6928,676.0113" style="stroke:#181818;stroke-width:0.6999999999999998;"/><line style="stroke:#181818;stroke-width:0.6999999999999998;stroke-dasharray:2.0,2.0;" x1="400.4236" x2="702.0928" y1="676.0113" y2="676.0113"/><text fill="#000000" font-family="sans-serif" font-size="9.1" font-weight="bold" lengthAdjust="spacing" textLength="10.122" x="405.3236" y="672.3274">21</text><text fill="#000000" font-family="sans-serif" font-size="9.1" lengthAdjust="spacing" textLength="103.6725" x="418.2456" y="672.3274">assignBlocks(numBlocks)</text><rect fill="none" height="30.2764" style="stroke:#000000;stroke-width:1.0499999999999998;" width="131.1119" x="644.2369" y="681.6113"/><path d="M644.2369,681.6113 L686.9369,681.6113 L686.9369,687.9113 L679.9369,694.9113 L644.2369,694.9113 L644.2369,681.6113 " fill="#EEEEEE" style="stroke:#000000;stroke-width:1.3999999999999997;"/><text fill="#000000" font-family="sans-serif" font-size="9.1" font-weight="bold" lengthAdjust="spacing" textLength="11.6327" x="653.3369" y="692.8312">ref</text><text fill="#000000" font-family="sans-serif" font-size="8.4" lengthAdjust="spacing" textLength="83.0977" x="668.244" y="706.7758">AssignManualBlocks()</text><polygon fill="#181818" points="408.1236,728.8914,401.1236,731.6914,408.1236,734.4914,405.3236,731.6914" style="stroke:#181818;stroke-width:0.6999999999999998;"/><line style="stroke:#181818;stroke-width:0.6999999999999998;stroke-dasharray:2.0,2.0;" x1="403.9236" x2="709.0928" y1="731.6914" y2="731.6914"/><text fill="#000000" font-family="sans-serif" font-size="9.1" font-weight="bold" lengthAdjust="spacing" textLength="10.122" x="412.3236" y="728.0075">22</text><text fill="#000000" font-family="sans-serif" font-size="9.1" lengthAdjust="spacing" textLength="51.5963" x="425.2456" y="728.0075">houseBlocks</text><line style="stroke:#000000;stroke-width:0.6999999999999998;stroke-dasharray:2.0,2.0;" x1="362.9664" x2="780.2488" y1="737.9914" y2="737.9914"/><text fill="#000000" font-family="sans-serif" font-size="7.7" font-weight="bold" lengthAdjust="spacing" textLength="112.9885" x="366.4664" y="746.3005">[User selects "no" (automatic)]</text><polygon fill="#181818" points="697.8928,762.4367,704.8928,765.2367,697.8928,768.0367,700.6928,765.2367" style="stroke:#181818;stroke-width:0.6999999999999998;"/><line style="stroke:#181818;stroke-width:0.6999999999999998;stroke-dasharray:2.0,2.0;" x1="400.4236" x2="702.0928" y1="765.2367" y2="765.2367"/><text fill="#000000" font-family="sans-serif" font-size="9.1" font-weight="bold" lengthAdjust="spacing" textLength="10.122" x="405.3236" y="761.5528">23</text><text fill="#000000" font-family="sans-serif" font-size="9.1" lengthAdjust="spacing" textLength="103.6725" x="418.2456" y="761.5528">assignBlocks(numBlocks)</text><rect fill="none" height="30.2764" style="stroke:#000000;stroke-width:1.0499999999999998;" width="131.1119" x="644.2369" y="770.8367"/><path d="M644.2369,770.8367 L686.9369,770.8367 L686.9369,777.1367 L679.9369,784.1367 L644.2369,784.1367 L644.2369,770.8367 " fill="#EEEEEE" style="stroke:#000000;stroke-width:1.3999999999999997;"/><text fill="#000000" font-family="sans-serif" font-size="9.1" font-weight="bold" lengthAdjust="spacing" textLength="11.6327" x="653.3369" y="782.0565">ref</text><text fill="#000000" font-family="sans-serif" font-size="8.4" lengthAdjust="spacing" textLength="72.8273" x="673.3792" y="796.0012">AssignAutoBlocks()</text><polygon fill="#181818" points="408.1236,818.1168,401.1236,820.9168,408.1236,823.7168,405.3236,820.9168" style="stroke:#181818;stroke-width:0.6999999999999998;"/><line style="stroke:#181818;stroke-width:0.6999999999999998;stroke-dasharray:2.0,2.0;" x1="403.9236" x2="709.0928" y1="820.9168" y2="820.9168"/><text fill="#000000" font-family="sans-serif" font-size="9.1" font-weight="bold" lengthAdjust="spacing" textLength="10.122" x="412.3236" y="817.2329">24</text><text fill="#000000" font-family="sans-serif" font-size="9.1" lengthAdjust="spacing" textLength="51.5963" x="425.2456" y="817.2329">houseBlocks</text><polygon fill="#181818" points="29.6003,844.9205,22.6003,847.7205,29.6003,850.5205,26.8003,847.7205" style="stroke:#181818;stroke-width:0.6999999999999998;"/><line style="stroke:#181818;stroke-width:0.6999999999999998;stroke-dasharray:2.0,2.0;" x1="25.4003" x2="396.2236" y1="847.7205" y2="847.7205"/><text fill="#000000" font-family="sans-serif" font-size="9.1" font-weight="bold" lengthAdjust="spacing" textLength="10.122" x="33.8003" y="844.0366">25</text><text fill="#000000" font-family="sans-serif" font-size="9.1" lengthAdjust="spacing" textLength="83.9528" x="46.7223" y="844.0366">asks for confirmation</text><polygon fill="#181818" points="385.0236,866.8242,392.0236,869.6242,385.0236,872.4242,387.8236,869.6242" style="stroke:#181818;stroke-width:0.6999999999999998;"/><line style="stroke:#181818;stroke-width:0.6999999999999998;" x1="21.9003" x2="389.2236" y1="869.6242" y2="869.6242"/><text fill="#000000" font-family="sans-serif" font-size="9.1" font-weight="bold" lengthAdjust="spacing" textLength="10.122" x="26.8003" y="865.9403">26</text><text fill="#000000" font-family="sans-serif" font-size="9.1" lengthAdjust="spacing" textLength="70.8005" x="39.7223" y="865.9403">confirms city data</text><polygon fill="#181818" points="584.1384,888.7279,591.1384,891.5279,584.1384,894.3279,586.9384,891.5279" style="stroke:#181818;stroke-width:0.6999999999999998;"/><line style="stroke:#181818;stroke-width:0.6999999999999998;stroke-dasharray:2.0,2.0;" x1="400.4236" x2="588.3384" y1="891.5279" y2="891.5279"/><text fill="#000000" font-family="sans-serif" font-size="9.1" font-weight="bold" lengthAdjust="spacing" textLength="10.122" x="405.3236" y="887.844">27</text><text fill="#000000" font-family="sans-serif" font-size="9.1" lengthAdjust="spacing" textLength="165.8928" x="418.2456" y="887.844">saveCity(nameID, position, houseBlocks)</text><rect fill="none" height="30.2764" style="stroke:#000000;stroke-width:1.0499999999999998;" width="90.797" x="550.6399" y="897.1279"/><path d="M550.6399,897.1279 L593.3399,897.1279 L593.3399,903.4279 L586.3399,910.4279 L550.6399,910.4279 L550.6399,897.1279 " fill="#EEEEEE" style="stroke:#000000;stroke-width:1.3999999999999997;"/><text fill="#000000" font-family="sans-serif" font-size="9.1" font-weight="bold" lengthAdjust="spacing" textLength="11.6327" x="559.7399" y="908.3478">ref</text><text fill="#000000" font-family="sans-serif" font-size="8.4" lengthAdjust="spacing" textLength="32.2096" x="579.9336" y="922.2924">saveCity</text><polygon fill="#181818" points="408.1236,944.408,401.1236,947.208,408.1236,950.008,405.3236,947.208" style="stroke:#181818;stroke-width:0.6999999999999998;"/><line style="stroke:#181818;stroke-width:0.6999999999999998;stroke-dasharray:2.0,2.0;" x1="403.9236" x2="595.3384" y1="947.208" y2="947.208"/><text fill="#000000" font-family="sans-serif" font-size="9.1" font-weight="bold" lengthAdjust="spacing" textLength="10.122" x="412.3236" y="943.5241">28</text><text fill="#000000" font-family="sans-serif" font-size="9.1" lengthAdjust="spacing" textLength="32.872" x="425.2456" y="943.5241">success</text><polygon fill="#181818" points="29.6003,966.3117,22.6003,969.1117,29.6003,971.9117,26.8003,969.1117" style="stroke:#181818;stroke-width:0.6999999999999998;"/><line style="stroke:#181818;stroke-width:0.6999999999999998;stroke-dasharray:2.0,2.0;" x1="25.4003" x2="392.7236" y1="969.1117" y2="969.1117"/><text fill="#000000" font-family="sans-serif" font-size="9.1" font-weight="bold" lengthAdjust="spacing" textLength="10.122" x="33.8003" y="965.4278">29</text><text fill="#000000" font-family="sans-serif" font-size="9.1" lengthAdjust="spacing" textLength="108.7512" x="46.7223" y="965.4278">displays operation success</text><polygon fill="#181818" points="29.6003,988.2154,22.6003,991.0154,29.6003,993.8154,26.8003,991.0154" style="stroke:#181818;stroke-width:0.6999999999999998;"/><line style="stroke:#181818;stroke-width:0.6999999999999998;stroke-dasharray:2.0,2.0;" x1="25.4003" x2="396.2236" y1="991.0154" y2="991.0154"/><text fill="#000000" font-family="sans-serif" font-size="9.1" font-weight="bold" lengthAdjust="spacing" textLength="10.122" x="33.8003" y="987.3315">30</text><text fill="#000000" font-family="sans-serif" font-size="9.1" lengthAdjust="spacing" textLength="73.3376" x="46.7223" y="987.3315">display city details</text><!--SRC=[pLR1Rjim3BtxAuYSqg711kpcmu0k7RO2QG_BEcn7rcOI8RBaMN8w__qesueTntQQ8XlcYmM9UYJV4ocPhL0fPfX0efMEDfbE26oMKs3sAob6MrpJqXQI8AF8ebhBje7POAoVXLh32gMX07EhLPuyKHO4LbZUjIoCfGIMz2id5H7S2boxdI4yBj-zXndSn34WHC8MGO2HrHbCFiM2_nD00zKmO6zMH295PM4IkibxJ1_lIfF4ZVejvbhPJ4j9cRUSV_kwEB1bztFstK6ePvlztTKlEZVqKUfeQneZvsDehKnExD2IpmcW7i7iGvK4au9cQy1g85vnau4pyzyUeKeP3hyAei9oQRvv4qAK4TjFhqxPXh0cUxD38V594ZDdU4ztKzjzoICSVncjGE-OYX6RpsG1lIzdQFgiICLzqpKkp3nfOOFbubu8OxlxOZeAVO0G1gqq2VbewsS3ak50hqRYFGHdMVnYHrn69CabPFYqEs67TJqjbjGOSxBJ2f7S-EgaMg-LQy7Em7lgXjvMwuLoyM-1XSvjS16T71VCgOeX5YQLM73zREWmu61Si4QfVJTebI9oWohRqn6pJU_mIyt-9aI6obptCoozmu4OBS9KOK9tjzVmeupz9qHQPx5GZ6kkeUgXxk1jN3E1fxARD1gtScY220vFtNuX15kar79-VYP7_J247Kh1OFJ0UPJ9N0t2jhfW1xxLEsU78Jl4aNJRZVNiaESDrTFVrr2S5Vc-P8PDllVuQNoq6zj96b9jX1LQ_Iqg7lAakgccoeykhAE7VLa6tcYqekhQ5AkoqgawySzyCrVrQenOgtAfAXikSvMZb0MmcNkX9CXNkPiOhwU3M7hhodVqWinRfSVAAa1fuT4mFtxFX3TDO5h5Ld5-f5h_AoEiK-mNhksy_oNIFSN3LcLGfQ_xCipQO-N8d-F1E6UTXhffh89ZqWTUJSJFoWvnIZDlUnt_U-fkED9_Jnmx0JvpmKiAQSK7Ez9g9JB7w6YpwPR5O6dKU9U-TGpkoCtjhq_V8A_RB5sweNklh-lX9eyYCcSsm7wvzaySdL9MQdM4FhgnLeCilsRDkCn_0000]--></g></svg>