<svg xmlns="http://www.w3.org/2000/svg" xmlns:xlink="http://www.w3.org/1999/xlink" contentStyleType="text/css" height="1181px" preserveAspectRatio="none" style="width:1806px;height:1181px;background:#FFFFFF;" version="1.1" viewBox="0 0 1806 1181" width="1806px" zoomAndPan="magnify"><title>Create City Object with HouseBlocks</title><defs/><g><text fill="#000000" font-family="sans-serif" font-size="14" font-weight="bold" lengthAdjust="spacing" textLength="254.435" x="777.5966" y="29.9659">Create City Object with HouseBlocks</text><rect fill="#FFFFFF" height="1012.8865" style="stroke:#181818;stroke-width:1.0;" width="10" x="204.9872" y="112.8419"/><rect fill="#FFFFFF" height="915.7685" style="stroke:#181818;stroke-width:1.0;" width="10" x="441.8664" y="171.2539"/><rect fill="#FFFFFF" height="31.706" style="stroke:#181818;stroke-width:1.0;" width="10" x="624.8735" y="202.9599"/><rect fill="#FFFFFF" height="788.9444" style="stroke:#181818;stroke-width:1.0;" width="10" x="703.2143" y="266.3719"/><rect fill="#FFFFFF" height="725.5324" style="stroke:#181818;stroke-width:1.0;" width="10" x="878.9155" y="298.0779"/><rect fill="#FFFFFF" height="572.7083" style="stroke:#181818;stroke-width:1.0;" width="10" x="1079.4726" y="329.784"/><rect fill="#FFFFFF" height="31.706" style="stroke:#181818;stroke-width:1.0;" width="10" x="1386.2395" y="488.314"/><rect fill="#FFFFFF" height="31.706" style="stroke:#181818;stroke-width:1.0;" width="10" x="1716.2823" y="673.5501"/><rect fill="#FFFFFF" height="31.706" style="stroke:#181818;stroke-width:1.0;" width="10" x="1716.2823" y="736.9622"/><rect fill="none" height="967.1805" style="stroke:#000000;stroke-width:1.5;" width="1666.1397" x="134.4884" y="127.8419"/><rect fill="none" height="178.2361" style="stroke:#000000;stroke-width:1.5;" width="763.0833" x="1027.5448" y="630.1381"/><line style="stroke:#181818;stroke-width:0.5;stroke-dasharray:5.0,5.0;" x1="209.4884" x2="209.4884" y1="79.1358" y2="1143.7284"/><line style="stroke:#181818;stroke-width:0.5;stroke-dasharray:5.0,5.0;" x1="446.3648" x2="446.3648" y1="79.1358" y2="1143.7284"/><line style="stroke:#181818;stroke-width:0.5;stroke-dasharray:5.0,5.0;" x1="629.1137" x2="629.1137" y1="79.1358" y2="1143.7284"/><line style="stroke:#181818;stroke-width:0.5;stroke-dasharray:5.0,5.0;" x1="707.6334" x2="707.6334" y1="79.1358" y2="1143.7284"/><line style="stroke:#181818;stroke-width:0.5;stroke-dasharray:5.0,5.0;" x1="883.5556" x2="883.5556" y1="79.1358" y2="1143.7284"/><line style="stroke:#181818;stroke-width:0.5;stroke-dasharray:5.0,5.0;" x1="1083.5448" x2="1083.5448" y1="79.1358" y2="1143.7284"/><line style="stroke:#181818;stroke-width:0.5;stroke-dasharray:5.0,5.0;" x1="1283.506" x2="1283.506" y1="79.1358" y2="1143.7284"/><line style="stroke:#181818;stroke-width:0.5;stroke-dasharray:5.0,5.0;" x1="1390.9536" x2="1390.9536" y1="79.1358" y2="1143.7284"/><line style="stroke:#181818;stroke-width:0.5;stroke-dasharray:5.0,5.0;" x1="1543.5253" x2="1543.5253" y1="79.1358" y2="1143.7284"/><line style="stroke:#181818;stroke-width:0.5;stroke-dasharray:5.0,5.0;" x1="1720.9365" x2="1720.9365" y1="79.1358" y2="1143.7284"/><rect fill="#E3E3E3" height="33.0679" rx="2.5" ry="2.5" style="stroke:#181818;stroke-width:0.5;" width="130.9976" x="144.4884" y="45.0679"/><text fill="#000000" font-family="sans-serif" font-size="14" lengthAdjust="spacing" textLength="116.9976" x="151.4884" y="67.0339">AddCityController</text><rect fill="#E3E3E3" height="33.0679" rx="2.5" ry="2.5" style="stroke:#181818;stroke-width:0.5;" width="130.9976" x="144.4884" y="1142.7284"/><text fill="#000000" font-family="sans-serif" font-size="14" lengthAdjust="spacing" textLength="116.9976" x="151.4884" y="1164.6943">AddCityController</text><rect fill="#E3E3E3" height="33.0679" rx="2.5" ry="2.5" style="stroke:#181818;stroke-width:0.5;" width="221.0032" x="336.3648" y="45.0679"/><text fill="#000000" font-family="sans-serif" font-size="14" lengthAdjust="spacing" textLength="207.0032" x="343.3648" y="67.0339">mapRepository: MapRepository</text><rect fill="#E3E3E3" height="33.0679" rx="2.5" ry="2.5" style="stroke:#181818;stroke-width:0.5;" width="221.0032" x="336.3648" y="1142.7284"/><text fill="#000000" font-family="sans-serif" font-size="14" lengthAdjust="spacing" textLength="207.0032" x="343.3648" y="1164.6943">mapRepository: MapRepository</text><rect fill="#E3E3E3" height="33.0679" rx="2.5" ry="2.5" style="stroke:#181818;stroke-width:0.5;" width="93.5197" x="583.1137" y="45.0679"/><text fill="#000000" font-family="sans-serif" font-size="14" lengthAdjust="spacing" textLength="79.5197" x="590.1137" y="67.0339">maps: Maps</text><rect fill="#E3E3E3" height="33.0679" rx="2.5" ry="2.5" style="stroke:#181818;stroke-width:0.5;" width="93.5197" x="583.1137" y="1142.7284"/><text fill="#000000" font-family="sans-serif" font-size="14" lengthAdjust="spacing" textLength="79.5197" x="590.1137" y="1164.6943">maps: Maps</text><rect fill="#E3E3E3" height="33.0679" rx="2.5" ry="2.5" style="stroke:#181818;stroke-width:0.5;" width="43.1619" x="686.6334" y="45.0679"/><text fill="#000000" font-family="sans-serif" font-size="14" lengthAdjust="spacing" textLength="29.1619" x="693.6334" y="67.0339">Map</text><rect fill="#E3E3E3" height="33.0679" rx="2.5" ry="2.5" style="stroke:#181818;stroke-width:0.5;" width="43.1619" x="686.6334" y="1142.7284"/><text fill="#000000" font-family="sans-serif" font-size="14" lengthAdjust="spacing" textLength="29.1619" x="693.6334" y="1164.6943">Map</text><rect fill="#E3E3E3" height="33.0679" rx="2.5" ry="2.5" style="stroke:#181818;stroke-width:0.5;" width="90.7197" x="838.5556" y="45.0679"/><text fill="#000000" font-family="sans-serif" font-size="14" lengthAdjust="spacing" textLength="76.7197" x="845.5556" y="67.0339">cities: Cities</text><rect fill="#E3E3E3" height="33.0679" rx="2.5" ry="2.5" style="stroke:#181818;stroke-width:0.5;" width="90.7197" x="838.5556" y="1142.7284"/><text fill="#000000" font-family="sans-serif" font-size="14" lengthAdjust="spacing" textLength="76.7197" x="845.5556" y="1164.6943">cities: Cities</text><rect fill="#E3E3E3" height="33.0679" rx="2.5" ry="2.5" style="stroke:#181818;stroke-width:0.5;" width="93.8557" x="1037.5448" y="45.0679"/><text fill="#000000" font-family="sans-serif" font-size="14" lengthAdjust="spacing" textLength="79.8557" x="1044.5448" y="67.0339">:CityMapper</text><rect fill="#E3E3E3" height="33.0679" rx="2.5" ry="2.5" style="stroke:#181818;stroke-width:0.5;" width="93.8557" x="1037.5448" y="1142.7284"/><text fill="#000000" font-family="sans-serif" font-size="14" lengthAdjust="spacing" textLength="79.8557" x="1044.5448" y="1164.6943">:CityMapper</text><rect fill="#E3E3E3" height="33.0679" rx="2.5" ry="2.5" style="stroke:#181818;stroke-width:0.5;" width="126.4475" x="1220.506" y="45.0679"/><text fill="#000000" font-family="sans-serif" font-size="14" lengthAdjust="spacing" textLength="112.4475" x="1227.506" y="67.0339">cityDTO: CityDTO</text><rect fill="#E3E3E3" height="33.0679" rx="2.5" ry="2.5" style="stroke:#181818;stroke-width:0.5;" width="126.4475" x="1220.506" y="1142.7284"/><text fill="#000000" font-family="sans-serif" font-size="14" lengthAdjust="spacing" textLength="112.4475" x="1227.506" y="1164.6943">cityDTO: CityDTO</text><rect fill="#E3E3E3" height="33.0679" rx="2.5" ry="2.5" style="stroke:#181818;stroke-width:0.5;" width="68.5718" x="1356.9536" y="45.0679"/><text fill="#000000" font-family="sans-serif" font-size="14" lengthAdjust="spacing" textLength="54.5718" x="1363.9536" y="67.0339">city: City</text><rect fill="#E3E3E3" height="33.0679" rx="2.5" ry="2.5" style="stroke:#181818;stroke-width:0.5;" width="68.5718" x="1356.9536" y="1142.7284"/><text fill="#000000" font-family="sans-serif" font-size="14" lengthAdjust="spacing" textLength="54.5718" x="1363.9536" y="1164.6943">city: City</text><rect fill="#E3E3E3" height="33.0679" rx="2.5" ry="2.5" style="stroke:#181818;stroke-width:0.5;" width="216.4112" x="1435.5253" y="45.0679"/><text fill="#000000" font-family="sans-serif" font-size="14" lengthAdjust="spacing" textLength="202.4112" x="1442.5253" y="67.0339">houseBlocks:List&lt;HouseBlock&gt;</text><rect fill="#E3E3E3" height="33.0679" rx="2.5" ry="2.5" style="stroke:#181818;stroke-width:0.5;" width="216.4112" x="1435.5253" y="1142.7284"/><text fill="#000000" font-family="sans-serif" font-size="14" lengthAdjust="spacing" textLength="202.4112" x="1442.5253" y="1164.6943">houseBlocks:List&lt;HouseBlock&gt;</text><rect fill="#E3E3E3" height="33.0679" rx="2.5" ry="2.5" style="stroke:#181818;stroke-width:0.5;" width="118.6916" x="1661.9365" y="45.0679"/><text fill="#000000" font-family="sans-serif" font-size="14" lengthAdjust="spacing" textLength="104.6916" x="1668.9365" y="67.0339">houseBlockDTO</text><rect fill="#E3E3E3" height="33.0679" rx="2.5" ry="2.5" style="stroke:#181818;stroke-width:0.5;" width="118.6916" x="1661.9365" y="1142.7284"/><text fill="#000000" font-family="sans-serif" font-size="14" lengthAdjust="spacing" textLength="104.6916" x="1668.9365" y="1164.6943">houseBlockDTO</text><rect fill="#FFFFFF" height="1012.8865" style="stroke:#181818;stroke-width:1.0;" width="10" x="204.9872" y="112.8419"/><rect fill="#FFFFFF" height="915.7685" style="stroke:#181818;stroke-width:1.0;" width="10" x="441.8664" y="171.2539"/><rect fill="#FFFFFF" height="31.706" style="stroke:#181818;stroke-width:1.0;" width="10" x="624.8735" y="202.9599"/><rect fill="#FFFFFF" height="788.9444" style="stroke:#181818;stroke-width:1.0;" width="10" x="703.2143" y="266.3719"/><rect fill="#FFFFFF" height="725.5324" style="stroke:#181818;stroke-width:1.0;" width="10" x="878.9155" y="298.0779"/><rect fill="#FFFFFF" height="572.7083" style="stroke:#181818;stroke-width:1.0;" width="10" x="1079.4726" y="329.784"/><rect fill="#FFFFFF" height="31.706" style="stroke:#181818;stroke-width:1.0;" width="10" x="1386.2395" y="488.314"/><rect fill="#FFFFFF" height="31.706" style="stroke:#181818;stroke-width:1.0;" width="10" x="1716.2823" y="673.5501"/><rect fill="#FFFFFF" height="31.706" style="stroke:#181818;stroke-width:1.0;" width="10" x="1716.2823" y="736.9622"/><polygon fill="#181818" points="192.9872,108.8419,202.9872,112.8419,192.9872,116.8419,196.9872,112.8419" style="stroke:#181818;stroke-width:1.0;"/><line style="stroke:#181818;stroke-width:1.0;" x1="0" x2="198.9872" y1="112.8419" y2="112.8419"/><text fill="#000000" font-family="sans-serif" font-size="13" font-weight="bold" lengthAdjust="spacing" textLength="14.872" x="7" y="107.0328">22</text><text fill="#000000" font-family="sans-serif" font-size="13" lengthAdjust="spacing" textLength="167.1152" x="25.872" y="107.0328">saveCity(cityDTO, mapDTO)</text><path d="M134.4884,127.8419 L297.1385,127.8419 L297.1385,137.5479 L287.1385,147.5479 L134.4884,147.5479 L134.4884,127.8419 " fill="#EEEEEE" style="stroke:#000000;stroke-width:1.5;"/><rect fill="none" height="967.1805" style="stroke:#000000;stroke-width:1.5;" width="1666.1397" x="134.4884" y="127.8419"/><text fill="#000000" font-family="sans-serif" font-size="13" font-weight="bold" lengthAdjust="spacing" textLength="117.6501" x="149.4884" y="142.7389">Create City Object</text><polygon fill="#181818" points="429.8664,167.2539,439.8664,171.2539,429.8664,175.2539,433.8664,171.2539" style="stroke:#181818;stroke-width:1.0;"/><line style="stroke:#181818;stroke-width:1.0;" x1="214.9872" x2="435.8664" y1="171.2539" y2="171.2539"/><text fill="#000000" font-family="sans-serif" font-size="13" font-weight="bold" lengthAdjust="spacing" textLength="25.961" x="221.9872" y="165.4449">22.1</text><text fill="#000000" font-family="sans-serif" font-size="13" lengthAdjust="spacing" textLength="177.9182" x="251.9482" y="165.4449">createCity(cityDTO, mapDTO)</text><polygon fill="#181818" points="612.8735,198.9599,622.8735,202.9599,612.8735,206.9599,616.8735,202.9599" style="stroke:#181818;stroke-width:1.0;"/><line style="stroke:#181818;stroke-width:1.0;" x1="451.8664" x2="618.8735" y1="202.9599" y2="202.9599"/><text fill="#000000" font-family="sans-serif" font-size="13" font-weight="bold" lengthAdjust="spacing" textLength="25.961" x="458.8664" y="197.1509">22.2</text><text fill="#000000" font-family="sans-serif" font-size="13" lengthAdjust="spacing" textLength="124.0461" x="488.8274" y="197.1509">getMap(mapDTO.id)</text><polygon fill="#181818" points="462.8664,230.6659,452.8664,234.6659,462.8664,238.6659,458.8664,234.6659" style="stroke:#181818;stroke-width:1.0;"/><line style="stroke:#181818;stroke-width:1.0;stroke-dasharray:2.0,2.0;" x1="456.8664" x2="628.8735" y1="234.6659" y2="234.6659"/><text fill="#000000" font-family="sans-serif" font-size="13" font-weight="bold" lengthAdjust="spacing" textLength="25.961" x="468.8664" y="228.8569">22.3</text><text fill="#000000" font-family="sans-serif" font-size="13" lengthAdjust="spacing" textLength="27.443" x="498.8274" y="228.8569">map</text><polygon fill="#181818" points="691.2143,262.3719,701.2143,266.3719,691.2143,270.3719,695.2143,266.3719" style="stroke:#181818;stroke-width:1.0;"/><line style="stroke:#181818;stroke-width:1.0;" x1="451.8664" x2="697.2143" y1="266.3719" y2="266.3719"/><text fill="#000000" font-family="sans-serif" font-size="13" font-weight="bold" lengthAdjust="spacing" textLength="25.961" x="458.8664" y="260.5629">22.4</text><text fill="#000000" font-family="sans-serif" font-size="13" lengthAdjust="spacing" textLength="116.7401" x="488.8274" y="260.5629">createCity(cityDTO)</text><polygon fill="#181818" points="866.9155,294.0779,876.9155,298.0779,866.9155,302.0779,870.9155,298.0779" style="stroke:#181818;stroke-width:1.0;"/><line style="stroke:#181818;stroke-width:1.0;" x1="713.2143" x2="872.9155" y1="298.0779" y2="298.0779"/><text fill="#000000" font-family="sans-serif" font-size="13" font-weight="bold" lengthAdjust="spacing" textLength="25.961" x="720.2143" y="292.2689">22.5</text><text fill="#000000" font-family="sans-serif" font-size="13" lengthAdjust="spacing" textLength="116.7401" x="750.1754" y="292.2689">createCity(cityDTO)</text><polygon fill="#181818" points="1067.4726,325.784,1077.4726,329.784,1067.4726,333.784,1071.4726,329.784" style="stroke:#181818;stroke-width:1.0;"/><line style="stroke:#181818;stroke-width:1.0;" x1="888.9155" x2="1073.4726" y1="329.784" y2="329.784"/><text fill="#000000" font-family="sans-serif" font-size="13" font-weight="bold" lengthAdjust="spacing" textLength="25.961" x="895.9155" y="323.975">22.6</text><text fill="#000000" font-family="sans-serif" font-size="13" lengthAdjust="spacing" textLength="141.5962" x="925.8765" y="323.975">city = toModel(cityDTO)</text><polygon fill="#181818" points="1271.7298,357.49,1281.7298,361.49,1271.7298,365.49,1275.7298,361.49" style="stroke:#181818;stroke-width:1.0;"/><line style="stroke:#181818;stroke-width:1.0;" x1="1089.4726" x2="1277.7298" y1="361.49" y2="361.49"/><text fill="#000000" font-family="sans-serif" font-size="13" font-weight="bold" lengthAdjust="spacing" textLength="25.961" x="1096.4726" y="355.681">22.7</text><text fill="#000000" font-family="sans-serif" font-size="13" lengthAdjust="spacing" textLength="78.3771" x="1126.4337" y="355.681">getNameID()</text><polygon fill="#181818" points="1100.4726,389.196,1090.4726,393.196,1100.4726,397.196,1096.4726,393.196" style="stroke:#181818;stroke-width:1.0;"/><line style="stroke:#181818;stroke-width:1.0;stroke-dasharray:2.0,2.0;" x1="1094.4726" x2="1282.7298" y1="393.196" y2="393.196"/><text fill="#000000" font-family="sans-serif" font-size="13" font-weight="bold" lengthAdjust="spacing" textLength="25.961" x="1106.4726" y="387.387">22.8</text><text fill="#000000" font-family="sans-serif" font-size="13" lengthAdjust="spacing" textLength="48.711" x="1136.4337" y="387.387">nameID</text><polygon fill="#181818" points="1271.7298,420.902,1281.7298,424.902,1271.7298,428.902,1275.7298,424.902" style="stroke:#181818;stroke-width:1.0;"/><line style="stroke:#181818;stroke-width:1.0;" x1="1089.4726" x2="1277.7298" y1="424.902" y2="424.902"/><text fill="#000000" font-family="sans-serif" font-size="13" font-weight="bold" lengthAdjust="spacing" textLength="25.961" x="1096.4726" y="419.093">22.9</text><text fill="#000000" font-family="sans-serif" font-size="13" lengthAdjust="spacing" textLength="77.0771" x="1126.4337" y="419.093">getPosition()</text><polygon fill="#181818" points="1100.4726,452.608,1090.4726,456.608,1100.4726,460.608,1096.4726,456.608" style="stroke:#181818;stroke-width:1.0;"/><line style="stroke:#181818;stroke-width:1.0;stroke-dasharray:2.0,2.0;" x1="1094.4726" x2="1282.7298" y1="456.608" y2="456.608"/><text fill="#000000" font-family="sans-serif" font-size="13" font-weight="bold" lengthAdjust="spacing" textLength="33.397" x="1106.4726" y="450.799">22.10</text><text fill="#000000" font-family="sans-serif" font-size="13" lengthAdjust="spacing" textLength="49.3871" x="1143.8697" y="450.799">position</text><polygon fill="#181818" points="1374.2395,484.314,1384.2395,488.314,1374.2395,492.314,1378.2395,488.314" style="stroke:#181818;stroke-width:1.0;"/><line style="stroke:#181818;stroke-width:1.0;" x1="1089.4726" x2="1380.2395" y1="488.314" y2="488.314"/><text fill="#000000" font-family="sans-serif" font-size="13" font-weight="bold" lengthAdjust="spacing" textLength="33.397" x="1096.4726" y="482.505">22.11</text><text fill="#000000" font-family="sans-serif" font-size="13" lengthAdjust="spacing" textLength="151.0211" x="1133.8697" y="482.505">create(nameID, position)</text><polygon fill="#181818" points="1100.4726,516.0201,1090.4726,520.0201,1100.4726,524.0201,1096.4726,520.0201" style="stroke:#181818;stroke-width:1.0;"/><line style="stroke:#181818;stroke-width:1.0;stroke-dasharray:2.0,2.0;" x1="1094.4726" x2="1390.2395" y1="520.0201" y2="520.0201"/><text fill="#000000" font-family="sans-serif" font-size="13" font-weight="bold" lengthAdjust="spacing" textLength="33.397" x="1106.4726" y="514.2111">22.12</text><text fill="#000000" font-family="sans-serif" font-size="13" lengthAdjust="spacing" textLength="20.917" x="1143.8697" y="514.2111">city</text><polygon fill="#181818" points="1271.7298,547.7261,1281.7298,551.7261,1271.7298,555.7261,1275.7298,551.7261" style="stroke:#181818;stroke-width:1.0;"/><line style="stroke:#181818;stroke-width:1.0;" x1="1089.4726" x2="1277.7298" y1="551.7261" y2="551.7261"/><text fill="#000000" font-family="sans-serif" font-size="13" font-weight="bold" lengthAdjust="spacing" textLength="33.397" x="1096.4726" y="545.9171">22.13</text><text fill="#000000" font-family="sans-serif" font-size="13" lengthAdjust="spacing" textLength="132.8601" x="1133.8697" y="545.9171">getHouseBlocksDTO()</text><polygon fill="#181818" points="1100.4726,579.4321,1090.4726,583.4321,1100.4726,587.4321,1096.4726,583.4321" style="stroke:#181818;stroke-width:1.0;"/><line style="stroke:#181818;stroke-width:1.0;stroke-dasharray:2.0,2.0;" x1="1094.4726" x2="1282.7298" y1="583.4321" y2="583.4321"/><text fill="#000000" font-family="sans-serif" font-size="13" font-weight="bold" lengthAdjust="spacing" textLength="33.397" x="1106.4726" y="577.6231">22.14</text><text fill="#000000" font-family="sans-serif" font-size="13" lengthAdjust="spacing" textLength="103.4411" x="1143.8697" y="577.6231">houseBlockDTOs</text><polygon fill="#181818" points="1531.7309,611.1381,1541.7309,615.1381,1531.7309,619.1381,1535.7309,615.1381" style="stroke:#181818;stroke-width:1.0;"/><line style="stroke:#181818;stroke-width:1.0;" x1="1089.4726" x2="1537.7309" y1="615.1381" y2="615.1381"/><text fill="#000000" font-family="sans-serif" font-size="13" font-weight="bold" lengthAdjust="spacing" textLength="33.397" x="1096.4726" y="609.3291">22.15</text><text fill="#000000" font-family="sans-serif" font-size="13" lengthAdjust="spacing" textLength="105.6901" x="1133.8697" y="609.3291">new ArrayList&lt;&gt;()</text><path d="M1027.5448,630.1381 L1100.8848,630.1381 L1100.8848,639.8441 L1090.8848,649.8441 L1027.5448,649.8441 L1027.5448,630.1381 " fill="#EEEEEE" style="stroke:#000000;stroke-width:1.5;"/><rect fill="none" height="178.2361" style="stroke:#000000;stroke-width:1.5;" width="763.0833" x="1027.5448" y="630.1381"/><text fill="#000000" font-family="sans-serif" font-size="13" font-weight="bold" lengthAdjust="spacing" textLength="28.34" x="1042.5448" y="645.0351">loop</text><text fill="#000000" font-family="sans-serif" font-size="11" font-weight="bold" lengthAdjust="spacing" textLength="141.36" x="1115.8848" y="643.897">[for each houseBlockDTO]</text><polygon fill="#181818" points="1704.2823,669.5501,1714.2823,673.5501,1704.2823,677.5501,1708.2823,673.5501" style="stroke:#181818;stroke-width:1.0;"/><line style="stroke:#181818;stroke-width:1.0;" x1="1089.4726" x2="1710.2823" y1="673.5501" y2="673.5501"/><text fill="#000000" font-family="sans-serif" font-size="13" font-weight="bold" lengthAdjust="spacing" textLength="33.397" x="1096.4726" y="667.7411">22.16</text><text fill="#000000" font-family="sans-serif" font-size="13" lengthAdjust="spacing" textLength="77.0771" x="1133.8697" y="667.7411">getPosition()</text><polygon fill="#181818" points="1100.4726,701.2562,1090.4726,705.2562,1100.4726,709.2562,1096.4726,705.2562" style="stroke:#181818;stroke-width:1.0;"/><line style="stroke:#181818;stroke-width:1.0;stroke-dasharray:2.0,2.0;" x1="1094.4726" x2="1720.2823" y1="705.2562" y2="705.2562"/><text fill="#000000" font-family="sans-serif" font-size="13" font-weight="bold" lengthAdjust="spacing" textLength="33.397" x="1106.4726" y="699.4472">22.17</text><text fill="#000000" font-family="sans-serif" font-size="13" lengthAdjust="spacing" textLength="49.3871" x="1143.8697" y="699.4472">position</text><polygon fill="#181818" points="1704.2823,732.9622,1714.2823,736.9622,1704.2823,740.9622,1708.2823,736.9622" style="stroke:#181818;stroke-width:1.0;"/><line style="stroke:#181818;stroke-width:1.0;" x1="1089.4726" x2="1710.2823" y1="736.9622" y2="736.9622"/><text fill="#000000" font-family="sans-serif" font-size="13" font-weight="bold" lengthAdjust="spacing" textLength="33.397" x="1096.4726" y="731.1532">22.18</text><text fill="#000000" font-family="sans-serif" font-size="13" lengthAdjust="spacing" textLength="144.3131" x="1133.8697" y="731.1532">isAutomaticPlacement()</text><polygon fill="#181818" points="1100.4726,764.6682,1090.4726,768.6682,1100.4726,772.6682,1096.4726,768.6682" style="stroke:#181818;stroke-width:1.0;"/><line style="stroke:#181818;stroke-width:1.0;stroke-dasharray:2.0,2.0;" x1="1094.4726" x2="1720.2823" y1="768.6682" y2="768.6682"/><text fill="#000000" font-family="sans-serif" font-size="13" font-weight="bold" lengthAdjust="spacing" textLength="33.397" x="1106.4726" y="762.8592">22.19</text><text fill="#000000" font-family="sans-serif" font-size="13" lengthAdjust="spacing" textLength="125.9181" x="1143.8697" y="762.8592">automaticPlacement</text><polygon fill="#181818" points="1531.7309,796.3742,1541.7309,800.3742,1531.7309,804.3742,1535.7309,800.3742" style="stroke:#181818;stroke-width:1.0;"/><line style="stroke:#181818;stroke-width:1.0;" x1="1089.4726" x2="1537.7309" y1="800.3742" y2="800.3742"/><text fill="#000000" font-family="sans-serif" font-size="13" font-weight="bold" lengthAdjust="spacing" textLength="33.397" x="1096.4726" y="794.5652">22.20</text><text fill="#000000" font-family="sans-serif" font-size="13" lengthAdjust="spacing" textLength="321.9583" x="1133.8697" y="794.5652">add(new HouseBlock(position, automaticPlacement))</text><polygon fill="#181818" points="1100.4726,835.0802,1090.4726,839.0802,1100.4726,843.0802,1096.4726,839.0802" style="stroke:#181818;stroke-width:1.0;"/><line style="stroke:#181818;stroke-width:1.0;stroke-dasharray:2.0,2.0;" x1="1094.4726" x2="1542.7309" y1="839.0802" y2="839.0802"/><text fill="#000000" font-family="sans-serif" font-size="13" font-weight="bold" lengthAdjust="spacing" textLength="33.397" x="1106.4726" y="833.2712">22.21</text><text fill="#000000" font-family="sans-serif" font-size="13" lengthAdjust="spacing" textLength="76.5701" x="1143.8697" y="833.2712">houseBlocks</text><polygon fill="#181818" points="1379.2395,866.7862,1389.2395,870.7862,1379.2395,874.7862,1383.2395,870.7862" style="stroke:#181818;stroke-width:1.0;"/><line style="stroke:#181818;stroke-width:1.0;" x1="1089.4726" x2="1385.2395" y1="870.7862" y2="870.7862"/><text fill="#000000" font-family="sans-serif" font-size="13" font-weight="bold" lengthAdjust="spacing" textLength="33.397" x="1096.4726" y="864.9772">22.22</text><text fill="#000000" font-family="sans-serif" font-size="13" lengthAdjust="spacing" textLength="180.7912" x="1133.8697" y="864.9772">setHouseBlocks(houseBlocks)</text><polygon fill="#181818" points="899.9155,898.4923,889.9155,902.4923,899.9155,906.4923,895.9155,902.4923" style="stroke:#181818;stroke-width:1.0;"/><line style="stroke:#181818;stroke-width:1.0;stroke-dasharray:2.0,2.0;" x1="893.9155" x2="1083.4726" y1="902.4923" y2="902.4923"/><text fill="#000000" font-family="sans-serif" font-size="13" font-weight="bold" lengthAdjust="spacing" textLength="33.397" x="905.9155" y="896.6833">22.23</text><text fill="#000000" font-family="sans-serif" font-size="13" lengthAdjust="spacing" textLength="20.917" x="943.3125" y="896.6833">city</text><line style="stroke:#181818;stroke-width:1.0;" x1="888.9155" x2="930.9155" y1="934.1983" y2="934.1983"/><line style="stroke:#181818;stroke-width:1.0;" x1="930.9155" x2="930.9155" y1="934.1983" y2="947.1983"/><line style="stroke:#181818;stroke-width:1.0;" x1="889.9155" x2="930.9155" y1="947.1983" y2="947.1983"/><polygon fill="#181818" points="899.9155,943.1983,889.9155,947.1983,899.9155,951.1983,895.9155,947.1983" style="stroke:#181818;stroke-width:1.0;"/><text fill="#000000" font-family="sans-serif" font-size="13" font-weight="bold" lengthAdjust="spacing" textLength="33.397" x="895.9155" y="928.3893">22.24</text><text fill="#000000" font-family="sans-serif" font-size="13" lengthAdjust="spacing" textLength="99.5281" x="933.3125" y="928.3893">validateCity(city)</text><line style="stroke:#181818;stroke-width:1.0;" x1="888.9155" x2="930.9155" y1="978.9043" y2="978.9043"/><line style="stroke:#181818;stroke-width:1.0;" x1="930.9155" x2="930.9155" y1="978.9043" y2="991.9043"/><line style="stroke:#181818;stroke-width:1.0;" x1="889.9155" x2="930.9155" y1="991.9043" y2="991.9043"/><polygon fill="#181818" points="899.9155,987.9043,889.9155,991.9043,899.9155,995.9043,895.9155,991.9043" style="stroke:#181818;stroke-width:1.0;"/><text fill="#000000" font-family="sans-serif" font-size="13" font-weight="bold" lengthAdjust="spacing" textLength="33.397" x="895.9155" y="973.0953">22.25</text><text fill="#000000" font-family="sans-serif" font-size="13" lengthAdjust="spacing" textLength="74.8931" x="933.3125" y="973.0953">addCity(city)</text><polygon fill="#181818" points="724.2143,1019.6103,714.2143,1023.6103,724.2143,1027.6103,720.2143,1023.6103" style="stroke:#181818;stroke-width:1.0;"/><line style="stroke:#181818;stroke-width:1.0;stroke-dasharray:2.0,2.0;" x1="718.2143" x2="882.9155" y1="1023.6103" y2="1023.6103"/><text fill="#000000" font-family="sans-serif" font-size="13" font-weight="bold" lengthAdjust="spacing" textLength="33.397" x="730.2143" y="1017.8013">22.26</text><text fill="#000000" font-family="sans-serif" font-size="13" lengthAdjust="spacing" textLength="47.7881" x="767.6114" y="1017.8013">cityDTO</text><polygon fill="#181818" points="462.8664,1051.3163,452.8664,1055.3163,462.8664,1059.3163,458.8664,1055.3163" style="stroke:#181818;stroke-width:1.0;"/><line style="stroke:#181818;stroke-width:1.0;stroke-dasharray:2.0,2.0;" x1="456.8664" x2="707.2143" y1="1055.3163" y2="1055.3163"/><text fill="#000000" font-family="sans-serif" font-size="13" font-weight="bold" lengthAdjust="spacing" textLength="33.397" x="468.8664" y="1049.5073">22.27</text><text fill="#000000" font-family="sans-serif" font-size="13" lengthAdjust="spacing" textLength="47.7881" x="506.2634" y="1049.5073">cityDTO</text><polygon fill="#181818" points="225.9872,1083.0223,215.9872,1087.0223,225.9872,1091.0223,221.9872,1087.0223" style="stroke:#181818;stroke-width:1.0;"/><line style="stroke:#181818;stroke-width:1.0;stroke-dasharray:2.0,2.0;" x1="219.9872" x2="445.8664" y1="1087.0223" y2="1087.0223"/><text fill="#000000" font-family="sans-serif" font-size="13" font-weight="bold" lengthAdjust="spacing" textLength="33.397" x="231.9872" y="1081.2133">22.28</text><text fill="#000000" font-family="sans-serif" font-size="13" lengthAdjust="spacing" textLength="47.7881" x="269.3842" y="1081.2133">cityDTO</text><polygon fill="#181818" points="11,1121.7284,1,1125.7284,11,1129.7284,7,1125.7284" style="stroke:#181818;stroke-width:1.0;"/><line style="stroke:#181818;stroke-width:1.0;stroke-dasharray:2.0,2.0;" x1="5" x2="208.9872" y1="1125.7284" y2="1125.7284"/><text fill="#000000" font-family="sans-serif" font-size="13" font-weight="bold" lengthAdjust="spacing" textLength="14.872" x="17" y="1119.9194">23</text><text fill="#000000" font-family="sans-serif" font-size="13" lengthAdjust="spacing" textLength="47.7881" x="35.872" y="1119.9194">cityDTO</text><!--SRC=[jLRRZfim47ttLupo15AoKhTlQ1iftNrefMvtrVO7Pi6Rk04RsKwY_7rz2M3794HgomlWEUVCnSCOjMMyHOaDD8ABSYD5Gq7B7IMgjxHORd5DV-fZJK7IKYDVro50RR0I1yRNy8wreWHtMl1TyqOb8PffmtgK5BMvCNs4bxVVHWCEJ6_WYzWf-haMvLOHOiGqArcBNCEggYpuKN0jHLqRfT3QOFk3ja8nBUGHKC4iMYdWENoTdNDLHr4EgHA0injBR2YPPjHp_MDX4pBt66RZDjoMIWSjXlT4xlZqwwNJiyzEq3wao1xcCJCIL1dkxybYcTOC2b2uftOnEtcOs_JCFITOQhQtcvAMcgobsBKZcqR0N97VkmzkBNLjuZdRazB9ZGVZTBk08XvnjdZ3lROf_vfgKzdCgzonAXLI7Lt18Wt9l3fxHKSvYSkn95AVVSYMrNNA9D43FVVKQOOUD5FX- -0JQF4iAbfVq1aONijUWOeFoJURATztREZNfopleLrNBYBd1N07l4NorTQC2Nw3Q7k2NfFjIfVv2EOzAIS3BQpYCNAR-8mGmSQxzHlI2qQMMGgId4fsqnEDLP645xkS3N1LV6DAFmoEbpCeE3t0IaeyEjjo98vQY1RUXGIJuoRsdc1J_n7-qhw6Lr_8QKyHud9JZ5633VlBZ9XQcK7Me9cohpMMjA5S_-_KCF7uhvESQXl0gifixmpBMLVm-KXyULeHogkqUIVyNluMrCHtu4U0YhwxBA3dFfQG54xTxcCFIde-88TXsx7sMBCgdDRv1I3wO- -4YK3zWU6d0KcdJJ_jtKanSbwECyC39ZoWndu0hec4HwpRql1S_qWU5ejhUe5M-l_m1m00]--></g></svg>