<svg xmlns="http://www.w3.org/2000/svg" xmlns:xlink="http://www.w3.org/1999/xlink" contentStyleType="text/css" height="1269px" preserveAspectRatio="none" style="width:943px;height:1269px;background:#FFFFFF;" version="1.1" viewBox="0 0 943 1269" width="943px" zoomAndPan="magnify"><title>System Sequence Diagram : US03 - Add a City</title><defs/><g><text fill="#000000" font-family="sans-serif" font-size="14" font-weight="bold" lengthAdjust="spacing" textLength="312.7028" x="316.4501" y="29.9659">System Sequence Diagram : US03 - Add a City</text><rect fill="#FFFFFF" height="1042.5388" style="stroke:#181818;stroke-width:1.0;" width="10" x="47.6559" y="134.1358"/><rect fill="#FFFFFF" height="175.8742" style="stroke:#181818;stroke-width:1.0;" width="10" x="463.5662" y="157.8419"/><rect fill="#FFFFFF" height="31.706" style="stroke:#181818;stroke-width:1.0;" width="10" x="463.5662" y="365.4221"/><rect fill="#FFFFFF" height="63.412" style="stroke:#181818;stroke-width:1.0;" width="10" x="463.5662" y="428.8341"/><rect fill="#FFFFFF" height="643.7225" style="stroke:#181818;stroke-width:1.0;" width="10" x="463.5662" y="523.9521"/><rect fill="#FFFFFF" height="112.4622" style="stroke:#181818;stroke-width:1.0;" width="10" x="762.8844" y="189.5479"/><rect fill="#FFFFFF" height="80.7561" style="stroke:#181818;stroke-width:1.0;" width="10" x="762.8844" y="672.4822"/><rect fill="#FFFFFF" height="80.7561" style="stroke:#181818;stroke-width:1.0;" width="10" x="762.8844" y="840.6323"/><rect fill="#FFFFFF" height="80.7561" style="stroke:#181818;stroke-width:1.0;" width="10" x="762.8844" y="1055.2125"/><rect fill="none" height="422.1423" style="stroke:#000000;stroke-width:1.5;" width="926.603" x="10" y="538.9521"/><rect fill="none" height="227.2862" style="stroke:#000000;stroke-width:1.5;" width="906.603" x="20" y="565.6582"/><line style="stroke:#181818;stroke-width:0.5;stroke-dasharray:5.0,5.0;" x1="52" x2="52" y1="124.1358" y2="1185.6747"/><line style="stroke:#181818;stroke-width:0.5;stroke-dasharray:5.0,5.0;" x1="467.7903" x2="467.7903" y1="124.1358" y2="1185.6747"/><line style="stroke:#181818;stroke-width:0.5;stroke-dasharray:5.0,5.0;" x1="767.5096" x2="767.5096" y1="124.1358" y2="1185.6747"/><line style="stroke:#181818;stroke-width:0.5;stroke-dasharray:5.0,5.0;" x1="880.2592" x2="880.2592" y1="124.1358" y2="1185.6747"/><text fill="#000000" font-family="sans-serif" font-size="14" lengthAdjust="spacing" textLength="39.3119" x="30" y="120.0339">Editor</text><ellipse cx="52.6559" cy="53.5679" fill="#E3E3E3" rx="8" ry="8" style="stroke:#181818;stroke-width:0.5;"/><path d="M52.6559,61.5679 L52.6559,88.5679 M39.6559,69.5679 L65.6559,69.5679 M52.6559,88.5679 L39.6559,103.5679 M52.6559,88.5679 L65.6559,103.5679 " fill="none" style="stroke:#181818;stroke-width:0.5;"/><text fill="#000000" font-family="sans-serif" font-size="14" lengthAdjust="spacing" textLength="39.3119" x="30" y="1199.6406">Editor</text><ellipse cx="52.6559" cy="1212.2426" fill="#E3E3E3" rx="8" ry="8" style="stroke:#181818;stroke-width:0.5;"/><path d="M52.6559,1220.2426 L52.6559,1247.2426 M39.6559,1228.2426 L65.6559,1228.2426 M52.6559,1247.2426 L39.6559,1262.2426 M52.6559,1247.2426 L65.6559,1262.2426 " fill="none" style="stroke:#181818;stroke-width:0.5;"/><rect fill="#E3E3E3" height="33.0679" rx="2.5" ry="2.5" style="stroke:#181818;stroke-width:0.5;" width="83.5517" x="426.7903" y="90.0679"/><text fill="#000000" font-family="sans-serif" font-size="14" lengthAdjust="spacing" textLength="69.5517" x="433.7903" y="112.0339">:AddCityUI</text><rect fill="#E3E3E3" height="33.0679" rx="2.5" ry="2.5" style="stroke:#181818;stroke-width:0.5;" width="83.5517" x="426.7903" y="1184.6747"/><text fill="#000000" font-family="sans-serif" font-size="14" lengthAdjust="spacing" textLength="69.5517" x="433.7903" y="1206.6406">:AddCityUI</text><rect fill="#E3E3E3" height="33.0679" rx="2.5" ry="2.5" style="stroke:#181818;stroke-width:0.5;" width="134.7495" x="700.5096" y="90.0679"/><text fill="#000000" font-family="sans-serif" font-size="14" lengthAdjust="spacing" textLength="120.7495" x="707.5096" y="112.0339">:AddCityController</text><rect fill="#E3E3E3" height="33.0679" rx="2.5" ry="2.5" style="stroke:#181818;stroke-width:0.5;" width="134.7495" x="700.5096" y="1184.6747"/><text fill="#000000" font-family="sans-serif" font-size="14" lengthAdjust="spacing" textLength="120.7495" x="707.5096" y="1206.6406">:AddCityController</text><rect fill="#E3E3E3" height="33.0679" rx="2.5" ry="2.5" style="stroke:#181818;stroke-width:0.5;" width="71.3438" x="845.2592" y="90.0679"/><text fill="#000000" font-family="sans-serif" font-size="14" lengthAdjust="spacing" textLength="57.3438" x="852.2592" y="112.0339">:CityDTO</text><rect fill="#E3E3E3" height="33.0679" rx="2.5" ry="2.5" style="stroke:#181818;stroke-width:0.5;" width="71.3438" x="845.2592" y="1184.6747"/><text fill="#000000" font-family="sans-serif" font-size="14" lengthAdjust="spacing" textLength="57.3438" x="852.2592" y="1206.6406">:CityDTO</text><rect fill="#FFFFFF" height="1042.5388" style="stroke:#181818;stroke-width:1.0;" width="10" x="47.6559" y="134.1358"/><rect fill="#FFFFFF" height="175.8742" style="stroke:#181818;stroke-width:1.0;" width="10" x="463.5662" y="157.8419"/><rect fill="#FFFFFF" height="31.706" style="stroke:#181818;stroke-width:1.0;" width="10" x="463.5662" y="365.4221"/><rect fill="#FFFFFF" height="63.412" style="stroke:#181818;stroke-width:1.0;" width="10" x="463.5662" y="428.8341"/><rect fill="#FFFFFF" height="643.7225" style="stroke:#181818;stroke-width:1.0;" width="10" x="463.5662" y="523.9521"/><rect fill="#FFFFFF" height="112.4622" style="stroke:#181818;stroke-width:1.0;" width="10" x="762.8844" y="189.5479"/><rect fill="#FFFFFF" height="80.7561" style="stroke:#181818;stroke-width:1.0;" width="10" x="762.8844" y="672.4822"/><rect fill="#FFFFFF" height="80.7561" style="stroke:#181818;stroke-width:1.0;" width="10" x="762.8844" y="840.6323"/><rect fill="#FFFFFF" height="80.7561" style="stroke:#181818;stroke-width:1.0;" width="10" x="762.8844" y="1055.2125"/><polygon fill="#181818" points="451.5662,153.8419,461.5662,157.8419,451.5662,161.8419,455.5662,157.8419" style="stroke:#181818;stroke-width:1.0;"/><line style="stroke:#181818;stroke-width:1.0;" x1="57.6559" x2="457.5662" y1="157.8419" y2="157.8419"/><text fill="#000000" font-family="sans-serif" font-size="13" font-weight="bold" lengthAdjust="spacing" textLength="7.436" x="64.6559" y="152.0328">1</text><text fill="#000000" font-family="sans-serif" font-size="13" lengthAdjust="spacing" textLength="104.2601" x="76.0919" y="152.0328">asks to add a city</text><polygon fill="#181818" points="750.8844,185.5479,760.8844,189.5479,750.8844,193.5479,754.8844,189.5479" style="stroke:#181818;stroke-width:1.0;"/><line style="stroke:#181818;stroke-width:1.0;" x1="473.5662" x2="756.8844" y1="189.5479" y2="189.5479"/><text fill="#000000" font-family="sans-serif" font-size="13" font-weight="bold" lengthAdjust="spacing" textLength="7.436" x="480.5662" y="183.7389">2</text><text fill="#000000" font-family="sans-serif" font-size="13" lengthAdjust="spacing" textLength="46.059" x="492.0022" y="183.7389">create()</text><polygon fill="#181818" points="750.8844,217.2539,760.8844,221.2539,750.8844,225.2539,754.8844,221.2539" style="stroke:#181818;stroke-width:1.0;"/><line style="stroke:#181818;stroke-width:1.0;" x1="473.5662" x2="756.8844" y1="221.2539" y2="221.2539"/><text fill="#000000" font-family="sans-serif" font-size="13" font-weight="bold" lengthAdjust="spacing" textLength="7.436" x="480.5662" y="215.4449">3</text><text fill="#000000" font-family="sans-serif" font-size="13" lengthAdjust="spacing" textLength="96.8371" x="492.0022" y="215.4449">getListOfMaps()</text><rect fill="none" height="44.0501" style="stroke:#000000;stroke-width:1.5;" width="140.7495" x="697.5096" y="229.2539"/><path d="M697.5096,229.2539 L760.5096,229.2539 L760.5096,238.2539 L750.5096,248.2539 L697.5096,248.2539 L697.5096,229.2539 " fill="#EEEEEE" style="stroke:#000000;stroke-width:2.0;"/><text fill="#000000" font-family="sans-serif" font-size="13" font-weight="bold" lengthAdjust="spacing" textLength="18.603" x="710.5096" y="245.1509">ref</text><text fill="#000000" font-family="sans-serif" font-size="12" lengthAdjust="spacing" textLength="95.3407" x="720.2141" y="265.082">Get MapDTO List</text><polygon fill="#181818" points="484.5662,298.01,474.5662,302.01,484.5662,306.01,480.5662,302.01" style="stroke:#181818;stroke-width:1.0;"/><line style="stroke:#181818;stroke-width:1.0;stroke-dasharray:2.0,2.0;" x1="478.5662" x2="766.8844" y1="302.01" y2="302.01"/><text fill="#000000" font-family="sans-serif" font-size="13" font-weight="bold" lengthAdjust="spacing" textLength="7.436" x="490.5662" y="296.201">4</text><text fill="#000000" font-family="sans-serif" font-size="13" lengthAdjust="spacing" textLength="86.4501" x="502.0022" y="296.201">list&lt;MapDTO&gt;</text><polygon fill="#181818" points="68.6559,329.716,58.6559,333.716,68.6559,337.716,64.6559,333.716" style="stroke:#181818;stroke-width:1.0;"/><line style="stroke:#181818;stroke-width:1.0;stroke-dasharray:2.0,2.0;" x1="62.6559" x2="467.5662" y1="333.716" y2="333.716"/><text fill="#000000" font-family="sans-serif" font-size="13" font-weight="bold" lengthAdjust="spacing" textLength="7.436" x="74.6559" y="327.907">5</text><text fill="#000000" font-family="sans-serif" font-size="13" lengthAdjust="spacing" textLength="228.2802" x="86.0919" y="327.907">shows map list and asks to select one</text><polygon fill="#181818" points="451.5662,361.4221,461.5662,365.4221,451.5662,369.4221,455.5662,365.4221" style="stroke:#181818;stroke-width:1.0;"/><line style="stroke:#181818;stroke-width:1.0;" x1="57.6559" x2="457.5662" y1="365.4221" y2="365.4221"/><text fill="#000000" font-family="sans-serif" font-size="13" font-weight="bold" lengthAdjust="spacing" textLength="7.436" x="64.6559" y="359.6131">6</text><text fill="#000000" font-family="sans-serif" font-size="13" lengthAdjust="spacing" textLength="82.9011" x="76.0919" y="359.6131">selects a map</text><polygon fill="#181818" points="68.6559,393.1281,58.6559,397.1281,68.6559,401.1281,64.6559,397.1281" style="stroke:#181818;stroke-width:1.0;"/><line style="stroke:#181818;stroke-width:1.0;" x1="62.6559" x2="467.5662" y1="397.1281" y2="397.1281"/><text fill="#000000" font-family="sans-serif" font-size="13" font-weight="bold" lengthAdjust="spacing" textLength="7.436" x="74.6559" y="391.3191">7</text><text fill="#000000" font-family="sans-serif" font-size="13" lengthAdjust="spacing" textLength="370.4742" x="86.0919" y="391.3191">asks for city name, coordinates, and number of house blocks</text><polygon fill="#181818" points="451.5662,424.8341,461.5662,428.8341,451.5662,432.8341,455.5662,428.8341" style="stroke:#181818;stroke-width:1.0;"/><line style="stroke:#181818;stroke-width:1.0;" x1="57.6559" x2="457.5662" y1="428.8341" y2="428.8341"/><text fill="#000000" font-family="sans-serif" font-size="13" font-weight="bold" lengthAdjust="spacing" textLength="7.436" x="64.6559" y="423.0251">8</text><text fill="#000000" font-family="sans-serif" font-size="13" lengthAdjust="spacing" textLength="129.2201" x="76.0919" y="423.0251">types requested data</text><polygon fill="#181818" points="868.9311,456.5401,878.9311,460.5401,868.9311,464.5401,872.9311,460.5401" style="stroke:#181818;stroke-width:1.0;"/><line style="stroke:#181818;stroke-width:1.0;" x1="473.5662" x2="874.9311" y1="460.5401" y2="460.5401"/><text fill="#000000" font-family="sans-serif" font-size="13" font-weight="bold" lengthAdjust="spacing" textLength="7.436" x="480.5662" y="454.7311">9</text><text fill="#000000" font-family="sans-serif" font-size="13" lengthAdjust="spacing" textLength="283.9333" x="492.0022" y="454.7311">createCityDTO(name, coordinates, numBlocks)</text><polygon fill="#181818" points="68.6559,488.2461,58.6559,492.2461,68.6559,496.2461,64.6559,492.2461" style="stroke:#181818;stroke-width:1.0;"/><line style="stroke:#181818;stroke-width:1.0;stroke-dasharray:2.0,2.0;" x1="62.6559" x2="467.5662" y1="492.2461" y2="492.2461"/><text fill="#000000" font-family="sans-serif" font-size="13" font-weight="bold" lengthAdjust="spacing" textLength="14.872" x="74.6559" y="486.4371">10</text><text fill="#000000" font-family="sans-serif" font-size="13" lengthAdjust="spacing" textLength="214.4092" x="93.5279" y="486.4371">ask if blocks are assigned manually</text><polygon fill="#181818" points="451.5662,519.9521,461.5662,523.9521,451.5662,527.9521,455.5662,523.9521" style="stroke:#181818;stroke-width:1.0;"/><line style="stroke:#181818;stroke-width:1.0;" x1="57.6559" x2="457.5662" y1="523.9521" y2="523.9521"/><text fill="#000000" font-family="sans-serif" font-size="13" font-weight="bold" lengthAdjust="spacing" textLength="14.872" x="64.6559" y="518.1431">11</text><text fill="#000000" font-family="sans-serif" font-size="13" lengthAdjust="spacing" textLength="85.7091" x="83.5279" y="518.1431">selects yes/no</text><path d="M10,538.9521 L72.303,538.9521 L72.303,548.6582 L62.303,558.6582 L10,558.6582 L10,538.9521 " fill="#EEEEEE" style="stroke:#000000;stroke-width:1.5;"/><rect fill="none" height="422.1423" style="stroke:#000000;stroke-width:1.5;" width="926.603" x="10" y="538.9521"/><text fill="#000000" font-family="sans-serif" font-size="13" font-weight="bold" lengthAdjust="spacing" textLength="17.303" x="25" y="553.8492">alt</text><text fill="#000000" font-family="sans-serif" font-size="11" font-weight="bold" lengthAdjust="spacing" textLength="128.2481" x="87.303" y="552.7111">[User selects "manual"]</text><path d="M20,565.6582 L93.34,565.6582 L93.34,575.3642 L83.34,585.3642 L20,585.3642 L20,565.6582 " fill="#EEEEEE" style="stroke:#000000;stroke-width:1.5;"/><rect fill="none" height="227.2862" style="stroke:#000000;stroke-width:1.5;" width="906.603" x="20" y="565.6582"/><text fill="#000000" font-family="sans-serif" font-size="13" font-weight="bold" lengthAdjust="spacing" textLength="28.34" x="35" y="580.5552">loop</text><text fill="#000000" font-family="sans-serif" font-size="11" font-weight="bold" lengthAdjust="spacing" textLength="187.3836" x="108.34" y="579.4171">[for each block (i in 1..numBlocks)]</text><polygon fill="#181818" points="68.6559,605.0702,58.6559,609.0702,68.6559,613.0702,64.6559,609.0702" style="stroke:#181818;stroke-width:1.0;"/><line style="stroke:#181818;stroke-width:1.0;stroke-dasharray:2.0,2.0;" x1="62.6559" x2="462.5662" y1="609.0702" y2="609.0702"/><text fill="#000000" font-family="sans-serif" font-size="13" font-weight="bold" lengthAdjust="spacing" textLength="14.872" x="74.6559" y="603.2612">12</text><text fill="#000000" font-family="sans-serif" font-size="13" lengthAdjust="spacing" textLength="159.7051" x="93.5279" y="603.2612">ask coordinates for block i</text><polygon fill="#181818" points="451.5662,636.7762,461.5662,640.7762,451.5662,644.7762,455.5662,640.7762" style="stroke:#181818;stroke-width:1.0;"/><line style="stroke:#181818;stroke-width:1.0;" x1="57.6559" x2="457.5662" y1="640.7762" y2="640.7762"/><text fill="#000000" font-family="sans-serif" font-size="13" font-weight="bold" lengthAdjust="spacing" textLength="14.872" x="64.6559" y="634.9672">13</text><text fill="#000000" font-family="sans-serif" font-size="13" lengthAdjust="spacing" textLength="113.9841" x="83.5279" y="634.9672">inputs coordinates</text><polygon fill="#181818" points="750.8844,668.4822,760.8844,672.4822,750.8844,676.4822,754.8844,672.4822" style="stroke:#181818;stroke-width:1.0;"/><line style="stroke:#181818;stroke-width:1.0;" x1="473.5662" x2="756.8844" y1="672.4822" y2="672.4822"/><text fill="#000000" font-family="sans-serif" font-size="13" font-weight="bold" lengthAdjust="spacing" textLength="14.872" x="480.5662" y="666.6732">14</text><text fill="#000000" font-family="sans-serif" font-size="13" lengthAdjust="spacing" textLength="251.4462" x="499.4382" y="666.6732">createHouseBlockDTO(map, coordinates)</text><rect fill="none" height="44.0501" style="stroke:#000000;stroke-width:1.5;" width="140.7495" x="697.5096" y="680.4822"/><path d="M697.5096,680.4822 L760.5096,680.4822 L760.5096,689.4822 L750.5096,699.4822 L697.5096,699.4822 L697.5096,680.4822 " fill="#EEEEEE" style="stroke:#000000;stroke-width:2.0;"/><text fill="#000000" font-family="sans-serif" font-size="13" font-weight="bold" lengthAdjust="spacing" textLength="18.603" x="710.5096" y="696.3792">ref</text><text fill="#000000" font-family="sans-serif" font-size="12" lengthAdjust="spacing" textLength="131.4729" x="702.1479" y="716.3103">Create HouseBlockDTO</text><polygon fill="#181818" points="484.5662,749.2384,474.5662,753.2384,484.5662,757.2384,480.5662,753.2384" style="stroke:#181818;stroke-width:1.0;"/><line style="stroke:#181818;stroke-width:1.0;stroke-dasharray:2.0,2.0;" x1="478.5662" x2="766.8844" y1="753.2384" y2="753.2384"/><text fill="#000000" font-family="sans-serif" font-size="13" font-weight="bold" lengthAdjust="spacing" textLength="14.872" x="490.5662" y="747.4294">15</text><text fill="#000000" font-family="sans-serif" font-size="13" lengthAdjust="spacing" textLength="97.2141" x="509.4382" y="747.4294">houseBlockDTO</text><polygon fill="#181818" points="868.9311,780.9444,878.9311,784.9444,868.9311,788.9444,872.9311,784.9444" style="stroke:#181818;stroke-width:1.0;"/><line style="stroke:#181818;stroke-width:1.0;" x1="473.5662" x2="874.9311" y1="784.9444" y2="784.9444"/><text fill="#000000" font-family="sans-serif" font-size="13" font-weight="bold" lengthAdjust="spacing" textLength="14.872" x="480.5662" y="779.1354">16</text><text fill="#000000" font-family="sans-serif" font-size="13" lengthAdjust="spacing" textLength="200.2392" x="499.4382" y="779.1354">addHouseBlock(houseBlockDTO)</text><line style="stroke:#000000;stroke-width:1.0;stroke-dasharray:2.0,2.0;" x1="10" x2="936.603" y1="800.9444" y2="800.9444"/><text fill="#000000" font-family="sans-serif" font-size="11" font-weight="bold" lengthAdjust="spacing" textLength="143.208" x="15" y="812.7033">[User selects "automatic"]</text><polygon fill="#181818" points="750.8844,836.6323,760.8844,840.6323,750.8844,844.6323,754.8844,840.6323" style="stroke:#181818;stroke-width:1.0;"/><line style="stroke:#181818;stroke-width:1.0;" x1="473.5662" x2="756.8844" y1="840.6323" y2="840.6323"/><text fill="#000000" font-family="sans-serif" font-size="13" font-weight="bold" lengthAdjust="spacing" textLength="14.872" x="480.5662" y="834.8233">17</text><text fill="#000000" font-family="sans-serif" font-size="13" lengthAdjust="spacing" textLength="239.4862" x="499.4382" y="834.8233">createListHouseBlocksDTO(numBlocks)</text><rect fill="none" height="44.0501" style="stroke:#000000;stroke-width:1.5;" width="152.157" x="697.5096" y="848.6323"/><path d="M697.5096,848.6323 L760.5096,848.6323 L760.5096,857.6323 L750.5096,867.6323 L697.5096,867.6323 L697.5096,848.6323 " fill="#EEEEEE" style="stroke:#000000;stroke-width:2.0;"/><text fill="#000000" font-family="sans-serif" font-size="13" font-weight="bold" lengthAdjust="spacing" textLength="18.603" x="710.5096" y="864.5293">ref</text><text fill="#000000" font-family="sans-serif" font-size="12" lengthAdjust="spacing" textLength="144.157" x="701.5096" y="884.4604">CreateListAutoBlocksDTO</text><polygon fill="#181818" points="484.5662,917.3884,474.5662,921.3884,484.5662,925.3884,480.5662,921.3884" style="stroke:#181818;stroke-width:1.0;"/><line style="stroke:#181818;stroke-width:1.0;stroke-dasharray:2.0,2.0;" x1="478.5662" x2="766.8844" y1="921.3884" y2="921.3884"/><text fill="#000000" font-family="sans-serif" font-size="13" font-weight="bold" lengthAdjust="spacing" textLength="14.872" x="490.5662" y="915.5794">18</text><text fill="#000000" font-family="sans-serif" font-size="13" lengthAdjust="spacing" textLength="131.3131" x="509.4382" y="915.5794">list&lt;HouseBlockDTO&gt;</text><polygon fill="#181818" points="868.9311,949.0945,878.9311,953.0945,868.9311,957.0945,872.9311,953.0945" style="stroke:#181818;stroke-width:1.0;"/><line style="stroke:#181818;stroke-width:1.0;" x1="473.5662" x2="874.9311" y1="953.0945" y2="953.0945"/><text fill="#000000" font-family="sans-serif" font-size="13" font-weight="bold" lengthAdjust="spacing" textLength="14.872" x="480.5662" y="947.2855">19</text><text fill="#000000" font-family="sans-serif" font-size="13" lengthAdjust="spacing" textLength="254.8653" x="499.4382" y="947.2855">addHouseBlocksList(houseBlocksListDTO)</text><polygon fill="#181818" points="68.6559,987.8005,58.6559,991.8005,68.6559,995.8005,64.6559,991.8005" style="stroke:#181818;stroke-width:1.0;"/><line style="stroke:#181818;stroke-width:1.0;stroke-dasharray:2.0,2.0;" x1="62.6559" x2="462.5662" y1="991.8005" y2="991.8005"/><text fill="#000000" font-family="sans-serif" font-size="13" font-weight="bold" lengthAdjust="spacing" textLength="14.872" x="74.6559" y="985.9915">20</text><text fill="#000000" font-family="sans-serif" font-size="13" lengthAdjust="spacing" textLength="129.8831" x="93.5279" y="985.9915">asks for confirmation</text><polygon fill="#181818" points="451.5662,1019.5065,461.5662,1023.5065,451.5662,1027.5065,455.5662,1023.5065" style="stroke:#181818;stroke-width:1.0;"/><line style="stroke:#181818;stroke-width:1.0;" x1="57.6559" x2="457.5662" y1="1023.5065" y2="1023.5065"/><text fill="#000000" font-family="sans-serif" font-size="13" font-weight="bold" lengthAdjust="spacing" textLength="14.872" x="64.6559" y="1017.6975">21</text><text fill="#000000" font-family="sans-serif" font-size="13" lengthAdjust="spacing" textLength="53.716" x="83.5279" y="1017.6975">confirms</text><polygon fill="#181818" points="750.8844,1051.2125,760.8844,1055.2125,750.8844,1059.2125,754.8844,1055.2125" style="stroke:#181818;stroke-width:1.0;"/><line style="stroke:#181818;stroke-width:1.0;" x1="473.5662" x2="756.8844" y1="1055.2125" y2="1055.2125"/><text fill="#000000" font-family="sans-serif" font-size="13" font-weight="bold" lengthAdjust="spacing" textLength="14.872" x="480.5662" y="1049.4035">22</text><text fill="#000000" font-family="sans-serif" font-size="13" lengthAdjust="spacing" textLength="167.1152" x="499.4382" y="1049.4035">saveCity(mapDTO, cityDTO)</text><rect fill="none" height="44.0501" style="stroke:#000000;stroke-width:1.5;" width="140.7495" x="697.5096" y="1063.2125"/><path d="M697.5096,1063.2125 L760.5096,1063.2125 L760.5096,1072.2125 L750.5096,1082.2125 L697.5096,1082.2125 L697.5096,1063.2125 " fill="#EEEEEE" style="stroke:#000000;stroke-width:2.0;"/><text fill="#000000" font-family="sans-serif" font-size="13" font-weight="bold" lengthAdjust="spacing" textLength="18.603" x="710.5096" y="1079.1095">ref</text><text fill="#000000" font-family="sans-serif" font-size="12" lengthAdjust="spacing" textLength="50.4364" x="742.6662" y="1099.0406">Save City</text><polygon fill="#181818" points="484.5662,1131.9687,474.5662,1135.9687,484.5662,1139.9687,480.5662,1135.9687" style="stroke:#181818;stroke-width:1.0;"/><line style="stroke:#181818;stroke-width:1.0;stroke-dasharray:2.0,2.0;" x1="478.5662" x2="766.8844" y1="1135.9687" y2="1135.9687"/><text fill="#000000" font-family="sans-serif" font-size="13" font-weight="bold" lengthAdjust="spacing" textLength="14.872" x="490.5662" y="1130.1597">23</text><text fill="#000000" font-family="sans-serif" font-size="13" lengthAdjust="spacing" textLength="49.7641" x="509.4382" y="1130.1597">CityDTO</text><polygon fill="#181818" points="68.6559,1163.6747,58.6559,1167.6747,68.6559,1171.6747,64.6559,1167.6747" style="stroke:#181818;stroke-width:1.0;"/><line style="stroke:#181818;stroke-width:1.0;stroke-dasharray:2.0,2.0;" x1="62.6559" x2="467.5662" y1="1167.6747" y2="1167.6747"/><text fill="#000000" font-family="sans-serif" font-size="13" font-weight="bold" lengthAdjust="spacing" textLength="14.872" x="74.6559" y="1161.8657">24</text><text fill="#000000" font-family="sans-serif" font-size="13" lengthAdjust="spacing" textLength="241.0462" x="93.5279" y="1161.8657">shows city details and success message</text><!--SRC=[bLN1Rjim3BthAuYSKg3jDkmM30MwTDWAREWXomUmDfq8aILFb5FaxqV9iMDxThRv4DlHu-FJ8qNpGTiAFPPGEkkolNSbGV0rAUvMAimEkADDE1a2Jrb0kpDz0EynTs_Qxg10mwIm3ixMvIjvfO8E4hKvSQ0IDlIh9fiHF6dSnSWLR3VlFy8TFEOv8AnrE2c5MN0UlkHQRaeo19tf2cs0nKfW4RDzNW0oR9-dbzVE1k-C8PzWbzSHF6AVVhuqeEOvPTT73DGAKCqTxXuadmX6FZ041vWKPr5n5oA212F8Iqg9o3p9ulBcWkifcWhOKVYkERmKFx1YYVDKW3lAKYyEvFfA0GGYiY7Y5TbSzOZkMib65Zyrm0ULqwmCmPytkvAQkZU64giK3MZpRkTCHfe0dAK-cUnzR5K3PB59U2PSwf8bva8UevrWiQHRo9ppkROImBSfVTDHu0hOkve9NetB3lmN2U5K4KlJIjz91-QGOy21ajR_flnTjSxlomajekDpIdtpfsko4T35MHgW9_c7zSvAvX9jZSQS_j6p4_4xwuPIqGJOidZGWXODwI9rWt6kIYOA_xwH04iDsiA7-_kUQ3XVKzfx6qrK3OlkOaPYPG3K8gCNDM2VF0VVOl6IbkYlDCR0tekykQPlhtLYWm5T1uWdeNsUQlUEPEAqx2SPfu_DQBTT4ybmk0XR3XYR7KQ1YcHOZWeQHsU9CgEQciww6C_x9GEdLXsMU4xkDL_N7VUZwEYeLT_IsG4pgCI3kcxQLSCuAkYvbjwJTScsYSOzJmzd2-sZVSwEpzLvZIS7BkCndVZOZfBdDisXb71A_vo36s5fFc5pWxZzoFpN34upCQU0sd0QX5nd6R4CP_cHx_9eeFm6]--></g></svg>