<svg xmlns="http://www.w3.org/2000/svg" xmlns:xlink="http://www.w3.org/1999/xlink" contentStyleType="text/css" height="1097px" preserveAspectRatio="none" style="width:1350px;height:1097px;background:#FFFFFF;" version="1.1" viewBox="0 0 1350 1097" width="1350px" zoomAndPan="magnify"><defs/><g><rect fill="#FFFFFF" height="930.8218" style="stroke:#181818;stroke-width:1.0;" width="10" x="127.2731" y="91.8419"/><rect fill="#FFFFFF" height="31.706" style="stroke:#181818;stroke-width:1.0;" width="10" x="258.8782" y="150.2539"/><rect fill="#FFFFFF" height="31.706" style="stroke:#181818;stroke-width:1.0;" width="10" x="366.2759" y="213.6659"/><rect fill="#FFFFFF" height="315.3719" style="stroke:#181818;stroke-width:1.0;" width="10" x="484.5935" y="277.0779"/><rect fill="#FFFFFF" height="251.9599" style="stroke:#181818;stroke-width:1.0;" width="10" x="632.9557" y="308.784"/><rect fill="#FFFFFF" height="30" style="stroke:#181818;stroke-width:1.0;" width="10" x="757.2938" y="430.3318"/><rect fill="#FFFFFF" height="359.8018" style="stroke:#181818;stroke-width:1.0;" width="10" x="859.2945" y="624.1559"/><rect fill="#FFFFFF" height="36.706" style="stroke:#181818;stroke-width:1.0;" width="10" x="864.2945" y="815.4098"/><rect fill="#FFFFFF" height="30" style="stroke:#181818;stroke-width:1.0;" width="10" x="1066.4376" y="492.0378"/><rect fill="#FFFFFF" height="30" style="stroke:#181818;stroke-width:1.0;" width="10" x="1066.4376" y="745.7038"/><rect fill="#FFFFFF" height="30" style="stroke:#181818;stroke-width:1.0;" width="10" x="1176.5443" y="915.2516"/><rect fill="none" height="885.1158" style="stroke:#000000;stroke-width:1.5;" width="1289.7855" x="54.8983" y="106.8419"/><rect fill="none" height="143.118" style="stroke:#000000;stroke-width:1.5;" width="523.1108" x="601.1457" y="386.9198"/><rect fill="none" height="250.9599" style="stroke:#000000;stroke-width:1.5;" width="529.5713" x="805.1126" y="702.2917"/><line style="stroke:#181818;stroke-width:0.5;stroke-dasharray:5.0,5.0;" x1="131.8983" x2="131.8983" y1="58.1358" y2="1040.6637"/><line style="stroke:#181818;stroke-width:0.5;stroke-dasharray:5.0,5.0;" x1="263.1174" x2="263.1174" y1="58.1358" y2="1040.6637"/><line style="stroke:#181818;stroke-width:0.5;stroke-dasharray:5.0,5.0;" x1="370.6391" x2="370.6391" y1="58.1358" y2="1040.6637"/><line style="stroke:#181818;stroke-width:0.5;stroke-dasharray:5.0,5.0;" x1="488.9127" x2="488.9127" y1="58.1358" y2="1040.6637"/><line style="stroke:#181818;stroke-width:0.5;stroke-dasharray:5.0,5.0;" x1="637.1457" x2="637.1457" y1="58.1358" y2="1040.6637"/><line style="stroke:#181818;stroke-width:0.5;stroke-dasharray:5.0,5.0;" x1="761.4749" x2="761.4749" y1="58.1358" y2="1040.6637"/><line style="stroke:#181818;stroke-width:0.5;stroke-dasharray:5.0,5.0;" x1="864.1126" x2="864.1126" y1="58.1358" y2="1040.6637"/><line style="stroke:#181818;stroke-width:0.5;stroke-dasharray:5.0,5.0;" x1="1070.6188" x2="1070.6188" y1="358.3519" y2="1040.6637"/><line style="stroke:#181818;stroke-width:0.5;stroke-dasharray:5.0,5.0;" x1="1181.2565" x2="1181.2565" y1="673.7238" y2="1040.6637"/><line style="stroke:#181818;stroke-width:0.5;stroke-dasharray:5.0,5.0;" x1="1285.8321" x2="1285.8321" y1="869.9777" y2="1040.6637"/><rect fill="#E3E3E3" height="33.0679" rx="2.5" ry="2.5" style="stroke:#181818;stroke-width:0.5;" width="134.7495" x="64.8983" y="24.0679"/><text fill="#000000" font-family="sans-serif" font-size="14" lengthAdjust="spacing" textLength="120.7495" x="71.8983" y="46.0339">:AddCityController</text><rect fill="#E3E3E3" height="33.0679" rx="2.5" ry="2.5" style="stroke:#181818;stroke-width:0.5;" width="134.7495" x="64.8983" y="1039.6637"/><text fill="#000000" font-family="sans-serif" font-size="14" lengthAdjust="spacing" textLength="120.7495" x="71.8983" y="1061.6296">:AddCityController</text><rect fill="#E3E3E3" height="33.0679" rx="2.5" ry="2.5" style="stroke:#181818;stroke-width:0.5;" width="95.5217" x="216.1174" y="24.0679"/><text fill="#000000" font-family="sans-serif" font-size="14" lengthAdjust="spacing" textLength="81.5217" x="223.1174" y="46.0339">Repositories</text><rect fill="#E3E3E3" height="33.0679" rx="2.5" ry="2.5" style="stroke:#181818;stroke-width:0.5;" width="95.5217" x="216.1174" y="1039.6637"/><text fill="#000000" font-family="sans-serif" font-size="14" lengthAdjust="spacing" textLength="81.5217" x="223.1174" y="1061.6296">Repositories</text><rect fill="#E3E3E3" height="52.1358" rx="2.5" ry="2.5" style="stroke:#181818;stroke-width:0.5;" width="99.2737" x="321.6391" y="5"/><text fill="#000000" font-family="sans-serif" font-size="14" lengthAdjust="spacing" textLength="78.5957" x="331.978" y="26.9659">repositories</text><text fill="#000000" font-family="sans-serif" font-size="14" lengthAdjust="spacing" textLength="85.2737" x="328.6391" y="46.0339">:Repositories</text><rect fill="#E3E3E3" height="52.1358" rx="2.5" ry="2.5" style="stroke:#181818;stroke-width:0.5;" width="99.2737" x="321.6391" y="1039.6637"/><text fill="#000000" font-family="sans-serif" font-size="14" lengthAdjust="spacing" textLength="78.5957" x="331.978" y="1061.6296">repositories</text><text fill="#000000" font-family="sans-serif" font-size="14" lengthAdjust="spacing" textLength="85.2737" x="328.6391" y="1080.6975">:Repositories</text><rect fill="#E3E3E3" height="52.1358" rx="2.5" ry="2.5" style="stroke:#181818;stroke-width:0.5;" width="117.3616" x="430.9127" y="5"/><text fill="#000000" font-family="sans-serif" font-size="14" lengthAdjust="spacing" textLength="100.0016" x="439.5927" y="26.9659">mapRepository</text><text fill="#000000" font-family="sans-serif" font-size="14" lengthAdjust="spacing" textLength="103.3616" x="437.9127" y="46.0339">:MapRepository</text><rect fill="#E3E3E3" height="52.1358" rx="2.5" ry="2.5" style="stroke:#181818;stroke-width:0.5;" width="117.3616" x="430.9127" y="1039.6637"/><text fill="#000000" font-family="sans-serif" font-size="14" lengthAdjust="spacing" textLength="100.0016" x="439.5927" y="1061.6296">mapRepository</text><text fill="#000000" font-family="sans-serif" font-size="14" lengthAdjust="spacing" textLength="103.3616" x="437.9127" y="1080.6975">:MapRepository</text><rect fill="#E3E3E3" height="52.1358" rx="2.5" ry="2.5" style="stroke:#181818;stroke-width:0.5;" width="53.6199" x="611.1457" y="5"/><text fill="#000000" font-family="sans-serif" font-size="14" lengthAdjust="spacing" textLength="36.2599" x="619.8257" y="26.9659">maps</text><text fill="#000000" font-family="sans-serif" font-size="14" lengthAdjust="spacing" textLength="39.6199" x="618.1457" y="46.0339">:Maps</text><rect fill="#E3E3E3" height="52.1358" rx="2.5" ry="2.5" style="stroke:#181818;stroke-width:0.5;" width="53.6199" x="611.1457" y="1039.6637"/><text fill="#000000" font-family="sans-serif" font-size="14" lengthAdjust="spacing" textLength="36.2599" x="619.8257" y="1061.6296">maps</text><text fill="#000000" font-family="sans-serif" font-size="14" lengthAdjust="spacing" textLength="39.6199" x="618.1457" y="1080.6975">:Maps</text><rect fill="#E3E3E3" height="33.0679" rx="2.5" ry="2.5" style="stroke:#181818;stroke-width:0.5;" width="85.6377" x="719.4749" y="24.0679"/><text fill="#000000" font-family="sans-serif" font-size="14" lengthAdjust="spacing" textLength="71.6377" x="726.4749" y="46.0339">:List&lt;Map&gt;</text><rect fill="#E3E3E3" height="33.0679" rx="2.5" ry="2.5" style="stroke:#181818;stroke-width:0.5;" width="85.6377" x="719.4749" y="1039.6637"/><text fill="#000000" font-family="sans-serif" font-size="14" lengthAdjust="spacing" textLength="71.6377" x="726.4749" y="1061.6296">:List&lt;Map&gt;</text><rect fill="#E3E3E3" height="33.0679" rx="2.5" ry="2.5" style="stroke:#181818;stroke-width:0.5;" width="98.3637" x="815.1126" y="24.0679"/><text fill="#000000" font-family="sans-serif" font-size="14" lengthAdjust="spacing" textLength="84.3637" x="822.1126" y="46.0339">:MapMapper</text><rect fill="#E3E3E3" height="33.0679" rx="2.5" ry="2.5" style="stroke:#181818;stroke-width:0.5;" width="98.3637" x="815.1126" y="1039.6637"/><text fill="#000000" font-family="sans-serif" font-size="14" lengthAdjust="spacing" textLength="84.3637" x="822.1126" y="1061.6296">:MapMapper</text><rect fill="#E3E3E3" height="52.1358" rx="2.5" ry="2.5" style="stroke:#181818;stroke-width:0.5;" width="85.6377" x="1028.6188" y="1039.6637"/><text fill="#000000" font-family="sans-serif" font-size="14" lengthAdjust="spacing" textLength="48.1458" x="1047.3647" y="1061.6296">listMap</text><text fill="#000000" font-family="sans-serif" font-size="14" lengthAdjust="spacing" textLength="71.6377" x="1035.6188" y="1080.6975">:List&lt;Map&gt;</text><rect fill="#E3E3E3" height="52.1358" rx="2.5" ry="2.5" style="stroke:#181818;stroke-width:0.5;" width="114.5756" x="1124.2565" y="1039.6637"/><text fill="#000000" font-family="sans-serif" font-size="14" lengthAdjust="spacing" textLength="77.0837" x="1143.0024" y="1061.6296">listMapDTO</text><text fill="#000000" font-family="sans-serif" font-size="14" lengthAdjust="spacing" textLength="100.5756" x="1131.2565" y="1080.6975">:List&lt;MapDTO&gt;</text><rect fill="#E3E3E3" height="52.1358" rx="2.5" ry="2.5" style="stroke:#181818;stroke-width:0.5;" width="75.8518" x="1248.8321" y="1039.6637"/><text fill="#000000" font-family="sans-serif" font-size="14" lengthAdjust="spacing" textLength="58.4918" x="1257.5121" y="1061.6296">mapDTO</text><text fill="#000000" font-family="sans-serif" font-size="14" lengthAdjust="spacing" textLength="61.8518" x="1255.8321" y="1080.6975">:MapDTO</text><rect fill="#FFFFFF" height="930.8218" style="stroke:#181818;stroke-width:1.0;" width="10" x="127.2731" y="91.8419"/><rect fill="#FFFFFF" height="31.706" style="stroke:#181818;stroke-width:1.0;" width="10" x="258.8782" y="150.2539"/><rect fill="#FFFFFF" height="31.706" style="stroke:#181818;stroke-width:1.0;" width="10" x="366.2759" y="213.6659"/><rect fill="#FFFFFF" height="315.3719" style="stroke:#181818;stroke-width:1.0;" width="10" x="484.5935" y="277.0779"/><rect fill="#FFFFFF" height="251.9599" style="stroke:#181818;stroke-width:1.0;" width="10" x="632.9557" y="308.784"/><rect fill="#FFFFFF" height="30" style="stroke:#181818;stroke-width:1.0;" width="10" x="757.2938" y="430.3318"/><rect fill="#FFFFFF" height="359.8018" style="stroke:#181818;stroke-width:1.0;" width="10" x="859.2945" y="624.1559"/><rect fill="#FFFFFF" height="36.706" style="stroke:#181818;stroke-width:1.0;" width="10" x="864.2945" y="815.4098"/><rect fill="#FFFFFF" height="30" style="stroke:#181818;stroke-width:1.0;" width="10" x="1066.4376" y="492.0378"/><rect fill="#FFFFFF" height="30" style="stroke:#181818;stroke-width:1.0;" width="10" x="1066.4376" y="745.7038"/><rect fill="#FFFFFF" height="30" style="stroke:#181818;stroke-width:1.0;" width="10" x="1176.5443" y="915.2516"/><polygon fill="#181818" points="115.2731,87.8419,125.2731,91.8419,115.2731,95.8419,119.2731,91.8419" style="stroke:#181818;stroke-width:1.0;"/><line style="stroke:#181818;stroke-width:1.0;" x1="0" x2="121.2731" y1="91.8419" y2="91.8419"/><text fill="#000000" font-family="sans-serif" font-size="13" font-weight="bold" lengthAdjust="spacing" textLength="7.436" x="7" y="86.0328">3</text><text fill="#000000" font-family="sans-serif" font-size="13" lengthAdjust="spacing" textLength="96.8371" x="18.436" y="86.0328">getListOfMaps()</text><path d="M54.8983,106.8419 L208.3574,106.8419 L208.3574,116.5479 L198.3574,126.5479 L54.8983,126.5479 L54.8983,106.8419 " fill="#EEEEEE" style="stroke:#000000;stroke-width:1.5;"/><rect fill="none" height="885.1158" style="stroke:#000000;stroke-width:1.5;" width="1289.7855" x="54.8983" y="106.8419"/><text fill="#000000" font-family="sans-serif" font-size="13" font-weight="bold" lengthAdjust="spacing" textLength="108.4591" x="69.8983" y="121.7389">Get MapDTO List</text><polygon fill="#181818" points="246.8782,146.2539,256.8782,150.2539,246.8782,154.2539,250.8782,150.2539" style="stroke:#181818;stroke-width:1.0;"/><line style="stroke:#181818;stroke-width:1.0;" x1="137.2731" x2="252.8782" y1="150.2539" y2="150.2539"/><text fill="#000000" font-family="sans-serif" font-size="13" font-weight="bold" lengthAdjust="spacing" textLength="18.525" x="144.2731" y="144.4449">3.1</text><text fill="#000000" font-family="sans-serif" font-size="13" lengthAdjust="spacing" textLength="80.0801" x="166.7981" y="144.4449">getInstance()</text><polygon fill="#181818" points="148.2731,177.9599,138.2731,181.9599,148.2731,185.9599,144.2731,181.9599" style="stroke:#181818;stroke-width:1.0;"/><line style="stroke:#181818;stroke-width:1.0;stroke-dasharray:2.0,2.0;" x1="142.2731" x2="262.8782" y1="181.9599" y2="181.9599"/><text fill="#000000" font-family="sans-serif" font-size="13" font-weight="bold" lengthAdjust="spacing" textLength="18.525" x="154.2731" y="176.1509">3.2</text><text fill="#000000" font-family="sans-serif" font-size="13" lengthAdjust="spacing" textLength="72.9821" x="176.7981" y="176.1509">repositories</text><polygon fill="#181818" points="354.2759,209.6659,364.2759,213.6659,354.2759,217.6659,358.2759,213.6659" style="stroke:#181818;stroke-width:1.0;"/><line style="stroke:#181818;stroke-width:1.0;" x1="137.2731" x2="360.2759" y1="213.6659" y2="213.6659"/><text fill="#000000" font-family="sans-serif" font-size="13" font-weight="bold" lengthAdjust="spacing" textLength="18.525" x="144.2731" y="207.8569">3.3</text><text fill="#000000" font-family="sans-serif" font-size="13" lengthAdjust="spacing" textLength="120.3151" x="166.7981" y="207.8569">getMapRepository()</text><polygon fill="#181818" points="148.2731,241.3719,138.2731,245.3719,148.2731,249.3719,144.2731,245.3719" style="stroke:#181818;stroke-width:1.0;"/><line style="stroke:#181818;stroke-width:1.0;stroke-dasharray:2.0,2.0;" x1="142.2731" x2="370.2759" y1="245.3719" y2="245.3719"/><text fill="#000000" font-family="sans-serif" font-size="13" font-weight="bold" lengthAdjust="spacing" textLength="18.525" x="154.2731" y="239.5629">3.4</text><text fill="#000000" font-family="sans-serif" font-size="13" lengthAdjust="spacing" textLength="92.8591" x="176.7981" y="239.5629">mapRepository</text><polygon fill="#181818" points="472.5935,273.0779,482.5935,277.0779,472.5935,281.0779,476.5935,277.0779" style="stroke:#181818;stroke-width:1.0;"/><line style="stroke:#181818;stroke-width:1.0;" x1="137.2731" x2="478.5935" y1="277.0779" y2="277.0779"/><text fill="#000000" font-family="sans-serif" font-size="13" font-weight="bold" lengthAdjust="spacing" textLength="18.525" x="144.2731" y="271.2689">3.5</text><text fill="#000000" font-family="sans-serif" font-size="13" lengthAdjust="spacing" textLength="96.8371" x="166.7981" y="271.2689">getListOfMaps()</text><polygon fill="#181818" points="620.9557,304.784,630.9557,308.784,620.9557,312.784,624.9557,308.784" style="stroke:#181818;stroke-width:1.0;"/><line style="stroke:#181818;stroke-width:1.0;" x1="494.5935" x2="626.9557" y1="308.784" y2="308.784"/><text fill="#000000" font-family="sans-serif" font-size="13" font-weight="bold" lengthAdjust="spacing" textLength="18.525" x="501.5935" y="302.975">3.6</text><text fill="#000000" font-family="sans-serif" font-size="13" lengthAdjust="spacing" textLength="96.8371" x="524.1186" y="302.975">getListOfMaps()</text><polygon fill="#181818" points="1016.6188,336.49,1026.6188,340.49,1016.6188,344.49,1020.6188,340.49" style="stroke:#181818;stroke-width:1.0;"/><line style="stroke:#181818;stroke-width:1.0;stroke-dasharray:2.0,2.0;" x1="642.9557" x2="1022.6188" y1="340.49" y2="340.49"/><text fill="#000000" font-family="sans-serif" font-size="13" font-weight="bold" lengthAdjust="spacing" textLength="18.525" x="649.9557" y="334.681">3.7</text><text fill="#000000" font-family="sans-serif" font-size="13" lengthAdjust="spacing" textLength="46.059" x="672.4807" y="334.681">create()</text><rect fill="#E3E3E3" height="52.1358" rx="2.5" ry="2.5" style="stroke:#181818;stroke-width:0.5;" width="85.6377" x="1028.6188" y="316.784"/><text fill="#000000" font-family="sans-serif" font-size="14" lengthAdjust="spacing" textLength="48.1458" x="1047.3647" y="338.7499">listMap</text><text fill="#000000" font-family="sans-serif" font-size="14" lengthAdjust="spacing" textLength="71.6377" x="1035.6188" y="357.8178">:List&lt;Map&gt;</text><path d="M601.1457,386.9198 L674.4857,386.9198 L674.4857,396.6258 L664.4857,406.6258 L601.1457,406.6258 L601.1457,386.9198 " fill="#EEEEEE" style="stroke:#000000;stroke-width:1.5;"/><rect fill="none" height="143.118" style="stroke:#000000;stroke-width:1.5;" width="523.1108" x="601.1457" y="386.9198"/><text fill="#000000" font-family="sans-serif" font-size="13" font-weight="bold" lengthAdjust="spacing" textLength="28.34" x="616.1457" y="401.8168">loop</text><text fill="#000000" font-family="sans-serif" font-size="11" font-weight="bold" lengthAdjust="spacing" textLength="119.2171" x="689.4857" y="400.6787">[for each known Map]</text><polygon fill="#181818" points="745.2938,426.3318,755.2938,430.3318,745.2938,434.3318,749.2938,430.3318" style="stroke:#181818;stroke-width:1.0;"/><line style="stroke:#181818;stroke-width:1.0;" x1="642.9557" x2="751.2938" y1="430.3318" y2="430.3318"/><text fill="#000000" font-family="sans-serif" font-size="13" font-weight="bold" lengthAdjust="spacing" textLength="18.525" x="649.9557" y="424.5228">3.8</text><text fill="#000000" font-family="sans-serif" font-size="13" lengthAdjust="spacing" textLength="72.8131" x="672.4807" y="424.5228">map = get(i)</text><polygon fill="#181818" points="1054.4376,488.0378,1064.4376,492.0378,1054.4376,496.0378,1058.4376,492.0378" style="stroke:#181818;stroke-width:1.0;"/><line style="stroke:#181818;stroke-width:1.0;" x1="642.9557" x2="1060.4376" y1="492.0378" y2="492.0378"/><text fill="#000000" font-family="sans-serif" font-size="13" font-weight="bold" lengthAdjust="spacing" textLength="18.525" x="649.9557" y="486.2288">3.9</text><text fill="#000000" font-family="sans-serif" font-size="13" lengthAdjust="spacing" textLength="58.5261" x="672.4807" y="486.2288">add(map)</text><polygon fill="#181818" points="505.5935,556.7439,495.5935,560.7439,505.5935,564.7439,501.5935,560.7439" style="stroke:#181818;stroke-width:1.0;"/><line style="stroke:#181818;stroke-width:1.0;stroke-dasharray:2.0,2.0;" x1="499.5935" x2="636.9557" y1="560.7439" y2="560.7439"/><text fill="#000000" font-family="sans-serif" font-size="13" font-weight="bold" lengthAdjust="spacing" textLength="25.961" x="511.5935" y="554.9349">3.10</text><text fill="#000000" font-family="sans-serif" font-size="13" lengthAdjust="spacing" textLength="44.707" x="541.5546" y="554.9349">listMap</text><polygon fill="#181818" points="148.2731,588.4499,138.2731,592.4499,148.2731,596.4499,144.2731,592.4499" style="stroke:#181818;stroke-width:1.0;"/><line style="stroke:#181818;stroke-width:1.0;stroke-dasharray:2.0,2.0;" x1="142.2731" x2="488.5935" y1="592.4499" y2="592.4499"/><text fill="#000000" font-family="sans-serif" font-size="13" font-weight="bold" lengthAdjust="spacing" textLength="25.961" x="154.2731" y="586.6409">3.11</text><text fill="#000000" font-family="sans-serif" font-size="13" lengthAdjust="spacing" textLength="44.707" x="184.2341" y="586.6409">listMap</text><polygon fill="#181818" points="847.2945,620.1559,857.2945,624.1559,847.2945,628.1559,851.2945,624.1559" style="stroke:#181818;stroke-width:1.0;"/><line style="stroke:#181818;stroke-width:1.0;" x1="137.2731" x2="853.2945" y1="624.1559" y2="624.1559"/><text fill="#000000" font-family="sans-serif" font-size="13" font-weight="bold" lengthAdjust="spacing" textLength="25.961" x="144.2731" y="618.3469">3.12</text><text fill="#000000" font-family="sans-serif" font-size="13" lengthAdjust="spacing" textLength="91.9361" x="174.2341" y="618.3469">toDTO(listMap)</text><polygon fill="#181818" points="1112.2565,651.8619,1122.2565,655.8619,1112.2565,659.8619,1116.2565,655.8619" style="stroke:#181818;stroke-width:1.0;"/><line style="stroke:#181818;stroke-width:1.0;stroke-dasharray:2.0,2.0;" x1="869.2945" x2="1118.2565" y1="655.8619" y2="655.8619"/><text fill="#000000" font-family="sans-serif" font-size="13" font-weight="bold" lengthAdjust="spacing" textLength="25.961" x="876.2945" y="650.0529">3.13</text><text fill="#000000" font-family="sans-serif" font-size="13" lengthAdjust="spacing" textLength="46.059" x="906.2555" y="650.0529">create()</text><rect fill="#E3E3E3" height="52.1358" rx="2.5" ry="2.5" style="stroke:#181818;stroke-width:0.5;" width="114.5756" x="1124.2565" y="632.1559"/><text fill="#000000" font-family="sans-serif" font-size="14" lengthAdjust="spacing" textLength="77.0837" x="1143.0024" y="654.1218">listMapDTO</text><text fill="#000000" font-family="sans-serif" font-size="14" lengthAdjust="spacing" textLength="100.5756" x="1131.2565" y="673.1898">:List&lt;MapDTO&gt;</text><path d="M805.1126,702.2917 L878.4526,702.2917 L878.4526,711.9977 L868.4526,721.9977 L805.1126,721.9977 L805.1126,702.2917 " fill="#EEEEEE" style="stroke:#000000;stroke-width:1.5;"/><rect fill="none" height="250.9599" style="stroke:#000000;stroke-width:1.5;" width="529.5713" x="805.1126" y="702.2917"/><text fill="#000000" font-family="sans-serif" font-size="13" font-weight="bold" lengthAdjust="spacing" textLength="28.34" x="820.1126" y="717.1887">loop</text><text fill="#000000" font-family="sans-serif" font-size="11" font-weight="bold" lengthAdjust="spacing" textLength="146.09" x="893.4526" y="716.0506">[for each object in listMap]</text><polygon fill="#181818" points="1054.4376,741.7038,1064.4376,745.7038,1054.4376,749.7038,1058.4376,745.7038" style="stroke:#181818;stroke-width:1.0;"/><line style="stroke:#181818;stroke-width:1.0;" x1="869.2945" x2="1060.4376" y1="745.7038" y2="745.7038"/><text fill="#000000" font-family="sans-serif" font-size="13" font-weight="bold" lengthAdjust="spacing" textLength="25.961" x="876.2945" y="739.8948">3.14</text><text fill="#000000" font-family="sans-serif" font-size="13" lengthAdjust="spacing" textLength="72.8131" x="906.2555" y="739.8948">map = get(i)</text><line style="stroke:#181818;stroke-width:1.0;" x1="869.2945" x2="916.2945" y1="802.4098" y2="802.4098"/><line style="stroke:#181818;stroke-width:1.0;" x1="916.2945" x2="916.2945" y1="802.4098" y2="815.4098"/><line style="stroke:#181818;stroke-width:1.0;" x1="875.2945" x2="916.2945" y1="815.4098" y2="815.4098"/><polygon fill="#181818" points="885.2945,811.4098,875.2945,815.4098,885.2945,819.4098,881.2945,815.4098" style="stroke:#181818;stroke-width:1.0;"/><text fill="#000000" font-family="sans-serif" font-size="13" font-weight="bold" lengthAdjust="spacing" textLength="25.961" x="881.2945" y="796.6008">3.15</text><text fill="#000000" font-family="sans-serif" font-size="13" lengthAdjust="spacing" textLength="143.1822" x="911.2555" y="796.6008">mapDTO = toDTO(map)</text><polygon fill="#181818" points="1236.8321,848.1158,1246.8321,852.1158,1236.8321,856.1158,1240.8321,852.1158" style="stroke:#181818;stroke-width:1.0;"/><line style="stroke:#181818;stroke-width:1.0;stroke-dasharray:2.0,2.0;" x1="869.2945" x2="1242.8321" y1="852.1158" y2="852.1158"/><text fill="#000000" font-family="sans-serif" font-size="13" font-weight="bold" lengthAdjust="spacing" textLength="25.961" x="876.2945" y="846.3068">3.16</text><text fill="#000000" font-family="sans-serif" font-size="13" lengthAdjust="spacing" textLength="46.059" x="906.2555" y="846.3068">create()</text><rect fill="#E3E3E3" height="52.1358" rx="2.5" ry="2.5" style="stroke:#181818;stroke-width:0.5;" width="75.8518" x="1248.8321" y="828.4098"/><text fill="#000000" font-family="sans-serif" font-size="14" lengthAdjust="spacing" textLength="58.4918" x="1257.5121" y="850.3757">mapDTO</text><text fill="#000000" font-family="sans-serif" font-size="14" lengthAdjust="spacing" textLength="61.8518" x="1255.8321" y="869.4436">:MapDTO</text><polygon fill="#181818" points="1164.5443,911.2516,1174.5443,915.2516,1164.5443,919.2516,1168.5443,915.2516" style="stroke:#181818;stroke-width:1.0;"/><line style="stroke:#181818;stroke-width:1.0;" x1="869.2945" x2="1170.5443" y1="915.2516" y2="915.2516"/><text fill="#000000" font-family="sans-serif" font-size="13" font-weight="bold" lengthAdjust="spacing" textLength="25.961" x="876.2945" y="909.4426">3.17</text><text fill="#000000" font-family="sans-serif" font-size="13" lengthAdjust="spacing" textLength="85.3971" x="906.2555" y="909.4426">add(mapDTO)</text><polygon fill="#181818" points="148.2731,979.9576,138.2731,983.9576,148.2731,987.9576,144.2731,983.9576" style="stroke:#181818;stroke-width:1.0;"/><line style="stroke:#181818;stroke-width:1.0;stroke-dasharray:2.0,2.0;" x1="142.2731" x2="863.2945" y1="983.9576" y2="983.9576"/><text fill="#000000" font-family="sans-serif" font-size="13" font-weight="bold" lengthAdjust="spacing" textLength="25.961" x="154.2731" y="978.1486">3.18</text><text fill="#000000" font-family="sans-serif" font-size="13" lengthAdjust="spacing" textLength="71.5781" x="184.2341" y="978.1486">listMapDTO</text><polygon fill="#181818" points="11,1018.6637,1,1022.6637,11,1026.6637,7,1022.6637" style="stroke:#181818;stroke-width:1.0;"/><line style="stroke:#181818;stroke-width:1.0;stroke-dasharray:2.0,2.0;" x1="5" x2="131.2731" y1="1022.6637" y2="1022.6637"/><text fill="#000000" font-family="sans-serif" font-size="13" font-weight="bold" lengthAdjust="spacing" textLength="7.436" x="17" y="1016.8547">4</text><text fill="#000000" font-family="sans-serif" font-size="13" lengthAdjust="spacing" textLength="71.5781" x="28.436" y="1016.8547">listMapDTO</text><!--SRC=[bLLTY-8m57tlhxZCapFWmBBxL6Q5mPL1S4PH7nSaqyQQjIObYJluxpSVRKoQLhj1GPDpppsvzoGHHq8hnD49JeooxC3P2OFaPvm8jrAXx8WAl96N4WF7cKIqA7s0EA2SVH5Qm1wL0YU9cfOa8nMY4XxIrpoV4dcPCYevAqlC7m09c6xNYn2unXKJH39Ei32GzMort8GOxc5-qxGxPBUPVxmjPjlbHnXyGfKBkAZeT_-_2Nz_NUqqHHGdB5mqg9QiT464V560YG4ivfjj2w3MrAUgDw_pgEzgjWvXfQ9HC9Ki9DJucBH6_zeklG3rBupPgPbeFpR6mXrQ0nDqbeoUJv-Om_TaF35zIg70KYTOxdKHHeyXxFbRWZ99_YA9RLj1ZOApSmLlM8BD0Ze-CKjwQ1meUjCmC0dcL2XhPLZHDoX7Qwq0th21OwVGTuO3vhZ5q9t_QXWZ9F15hnhFPP6kwvgdCB1VhqIFDbRR-3DkIAJHMRbPQIPgdiqm3gzaDOajUkEkfwSKCeuLMhl2XvQCLR1d7DG63t2ax8jgAmIOA-N471fJ9FYfbOt8OmHrminPW8xXLTDWUhCr-bD0UJvIMMzaSwVlJiPE7ARvZHBQPjO7EUddZTjGzzAvwpw7jKEdf-nTb89awgIEQgeUKzNtLgJ7pWVcq3VAK8Empp_gQG52EtVIJk8tS9Xb_hk90_8tPRCNgX9XwtVVJNKDkwHqbB9TnG4xw6fIVmrr1dSGrEy1PJIFnS1IHjZWJBGs7BZP3xonGyVdlKe_pCJBU6oD7b1wLEQzIlu1]--></g></svg>