<svg xmlns="http://www.w3.org/2000/svg" xmlns:xlink="http://www.w3.org/1999/xlink" contentStyleType="text/css" height="1739px" preserveAspectRatio="none" style="width:899px;height:1739px;background:#FFFFFF;" version="1.1" viewBox="0 0 899 1739" width="899px" zoomAndPan="magnify"><title>Class Diagram - Create City &amp; Assign HouseBlocks</title><defs/><g><text fill="#000000" font-family="sans-serif" font-size="14" font-weight="bold" lengthAdjust="spacing" textLength="344.6786" x="270.5993" y="24.9659">Class Diagram - Create City &amp; Assign HouseBlocks</text><!--class AddCityUI--><g id="elem_AddCityUI"><rect codeLine="5" fill="#F1F1F1" height="48" id="AddCityUI" rx="2.5" ry="2.5" style="stroke:#181818;stroke-width:0.5;" width="97.7998" x="322.5" y="47.0679"/><ellipse cx="337.5" cy="63.0679" fill="#C2C2C2" rx="11" ry="11" style="stroke:#181818;stroke-width:1.0;"/><path d="M336.9688,69.9898 Q335.2188,69.9898 334.0781,69.2554 Q332.9531,68.5054 332.3906,67.1617 Q331.8438,65.8023 331.8438,64.0054 Q331.8438,61.9742 332.5,60.521 Q333.1563,59.0679 334.4375,58.2867 Q335.7188,57.5054 337.5938,57.5054 Q338.4844,57.5054 339.1563,57.6929 Q339.8281,57.8648 340.5156,58.2085 L339.7031,60.2242 Q339.0781,59.9117 338.5313,59.7867 Q338,59.6617 337.5156,59.6617 Q336.3438,59.6617 335.6406,60.1929 Q334.9375,60.7242 334.6406,61.6773 Q334.3438,62.6304 334.3438,63.896 Q334.3438,65.9117 335.0625,66.8804 Q335.7813,67.8335 337.375,67.8335 Q337.9688,67.8335 338.5938,67.6773 Q339.2188,67.521 340.0469,67.146 L340.0469,69.3648 Q339.3125,69.6773 338.5156,69.8335 Q337.7344,69.9898 336.9688,69.9898 Z " fill="#000000"/><text fill="#000000" font-family="sans-serif" font-size="14" lengthAdjust="spacing" textLength="65.7998" x="351.5" y="68.4999">AddCityUI</text><line style="stroke:#181818;stroke-width:0.5;" x1="323.5" x2="419.2998" y1="79.0679" y2="79.0679"/><line style="stroke:#181818;stroke-width:0.5;" x1="323.5" x2="419.2998" y1="87.0679" y2="87.0679"/></g><!--class AddCityController--><g id="elem_AddCityController"><rect codeLine="8" fill="#F1F1F1" height="143.3396" id="AddCityController" rx="2.5" ry="2.5" style="stroke:#181818;stroke-width:0.5;" width="552.762" x="95" y="155.0679"/><ellipse cx="308.6322" cy="171.0679" fill="#C2C2C2" rx="11" ry="11" style="stroke:#181818;stroke-width:1.0;"/><path d="M308.101,177.9898 Q306.351,177.9898 305.2103,177.2554 Q304.0853,176.5054 303.5228,175.1617 Q302.976,173.8023 302.976,172.0054 Q302.976,169.9742 303.6322,168.521 Q304.2885,167.0679 305.5697,166.2867 Q306.851,165.5054 308.726,165.5054 Q309.6166,165.5054 310.2885,165.6929 Q310.9603,165.8648 311.6478,166.2085 L310.8353,168.2242 Q310.2103,167.9117 309.6635,167.7867 Q309.1322,167.6617 308.6478,167.6617 Q307.476,167.6617 306.7728,168.1929 Q306.0697,168.7242 305.7728,169.6773 Q305.476,170.6304 305.476,171.896 Q305.476,173.9117 306.1947,174.8804 Q306.9135,175.8335 308.5072,175.8335 Q309.101,175.8335 309.726,175.6773 Q310.351,175.521 311.1791,175.146 L311.1791,177.3648 Q310.4447,177.6773 309.6478,177.8335 Q308.8666,177.9898 308.101,177.9898 Z " fill="#000000"/><text fill="#000000" font-family="sans-serif" font-size="14" lengthAdjust="spacing" textLength="116.9976" x="329.1322" y="176.4999">AddCityController</text><line style="stroke:#181818;stroke-width:0.5;" x1="96" x2="646.762" y1="187.0679" y2="187.0679"/><line style="stroke:#181818;stroke-width:0.5;" x1="96" x2="646.762" y1="195.0679" y2="195.0679"/><text fill="#000000" font-family="sans-serif" font-size="14" lengthAdjust="spacing" textLength="194.7112" x="101" y="214.0339">+createCity(cityDTO: CityDTO)</text><text fill="#000000" font-family="sans-serif" font-size="14" lengthAdjust="spacing" textLength="216.5092" x="101" y="233.1018">+getListOfMaps(): List&lt;MapDTO&gt;</text><text fill="#000000" font-family="sans-serif" font-size="14" lengthAdjust="spacing" textLength="540.762" x="101" y="252.1697">+createHouseBlockDTO(mapDTO: MapDTO, coordinate: Position): HouseBlockDTO</text><text fill="#000000" font-family="sans-serif" font-size="14" lengthAdjust="spacing" textLength="501.0021" x="101" y="271.2376">+createListOfHouseBlocksDTO(numHouseBlocks: int): List&lt;HouseBlockDTO&gt;</text><text fill="#000000" font-family="sans-serif" font-size="14" lengthAdjust="spacing" textLength="314.4528" x="101" y="290.3055">+saveCity(cityDTO: CityDTO, mapDTO: MapDTO)</text></g><!--class MapRepository--><g id="elem_MapRepository"><rect codeLine="16" fill="#F1F1F1" height="86.1358" id="MapRepository" rx="2.5" ry="2.5" style="stroke:#181818;stroke-width:0.5;" width="206.9913" x="7" y="504.0679"/><ellipse cx="56.4408" cy="520.0679" fill="#C2C2C2" rx="11" ry="11" style="stroke:#181818;stroke-width:1.0;"/><path d="M55.9096,526.9898 Q54.1596,526.9898 53.0189,526.2554 Q51.8939,525.5054 51.3314,524.1617 Q50.7846,522.8023 50.7846,521.0054 Q50.7846,518.9742 51.4408,517.521 Q52.0971,516.0679 53.3783,515.2867 Q54.6596,514.5054 56.5346,514.5054 Q57.4252,514.5054 58.0971,514.6929 Q58.7689,514.8648 59.4564,515.2085 L58.6439,517.2242 Q58.0189,516.9117 57.4721,516.7867 Q56.9408,516.6617 56.4564,516.6617 Q55.2846,516.6617 54.5814,517.1929 Q53.8783,517.7242 53.5814,518.6773 Q53.2846,519.6304 53.2846,520.896 Q53.2846,522.9117 54.0033,523.8804 Q54.7221,524.8335 56.3158,524.8335 Q56.9096,524.8335 57.5346,524.6773 Q58.1596,524.521 58.9877,524.146 L58.9877,526.3648 Q58.2533,526.6773 57.4564,526.8335 Q56.6752,526.9898 55.9096,526.9898 Z " fill="#000000"/><text fill="#000000" font-family="sans-serif" font-size="14" lengthAdjust="spacing" textLength="99.6096" x="76.9408" y="525.4999">MapRepository</text><line style="stroke:#181818;stroke-width:0.5;" x1="8" x2="212.9913" y1="536.0679" y2="536.0679"/><line style="stroke:#181818;stroke-width:0.5;" x1="8" x2="212.9913" y1="544.0679" y2="544.0679"/><text fill="#000000" font-family="sans-serif" font-size="14" lengthAdjust="spacing" textLength="187.5713" x="13" y="563.0339">+getListOfMaps(): List&lt;Map&gt;</text><text fill="#000000" font-family="sans-serif" font-size="14" lengthAdjust="spacing" textLength="194.9913" x="13" y="582.1018">+getMap(mapID: String): Map</text></g><!--class Repositories--><g id="elem_Repositories"><rect codeLine="21" fill="#F1F1F1" height="86.1358" id="Repositories" rx="2.5" ry="2.5" style="stroke:#181818;stroke-width:0.5;" width="256.5791" x="22" y="358.0679"/><ellipse cx="105.2787" cy="374.0679" fill="#C2C2C2" rx="11" ry="11" style="stroke:#181818;stroke-width:1.0;"/><path d="M104.7474,380.9898 Q102.9974,380.9898 101.8568,380.2554 Q100.7318,379.5054 100.1693,378.1617 Q99.6224,376.8023 99.6224,375.0054 Q99.6224,372.9742 100.2787,371.521 Q100.9349,370.0679 102.2162,369.2867 Q103.4974,368.5054 105.3724,368.5054 Q106.2631,368.5054 106.9349,368.6929 Q107.6068,368.8648 108.2943,369.2085 L107.4818,371.2242 Q106.8568,370.9117 106.3099,370.7867 Q105.7787,370.6617 105.2943,370.6617 Q104.1224,370.6617 103.4193,371.1929 Q102.7162,371.7242 102.4193,372.6773 Q102.1224,373.6304 102.1224,374.896 Q102.1224,376.9117 102.8412,377.8804 Q103.5599,378.8335 105.1537,378.8335 Q105.7474,378.8335 106.3724,378.6773 Q106.9974,378.521 107.8256,378.146 L107.8256,380.3648 Q107.0912,380.6773 106.2943,380.8335 Q105.5131,380.9898 104.7474,380.9898 Z " fill="#000000"/><text fill="#000000" font-family="sans-serif" font-size="14" lengthAdjust="spacing" textLength="81.5217" x="125.7787" y="379.4999">Repositories</text><line style="stroke:#181818;stroke-width:0.5;" x1="23" x2="277.5791" y1="390.0679" y2="390.0679"/><line style="stroke:#181818;stroke-width:0.5;" x1="23" x2="277.5791" y1="398.0679" y2="398.0679"/><text fill="#000000" font-family="sans-serif" font-size="14" lengthAdjust="spacing" textLength="183.1613" x="28" y="417.0339">+getInstance(): Repositories</text><text fill="#000000" font-family="sans-serif" font-size="14" lengthAdjust="spacing" textLength="244.5791" x="28" y="436.1018">+getMapRepository(): MapRepository</text></g><!--class Maps--><g id="elem_Maps"><rect codeLine="26" fill="#F1F1F1" height="86.1358" id="Maps" rx="2.5" ry="2.5" style="stroke:#181818;stroke-width:0.5;" width="206.9913" x="46" y="650.0679"/><ellipse cx="127.3117" cy="666.0679" fill="#C2C2C2" rx="11" ry="11" style="stroke:#181818;stroke-width:1.0;"/><path d="M126.7804,672.9898 Q125.0304,672.9898 123.8898,672.2554 Q122.7648,671.5054 122.2023,670.1617 Q121.6554,668.8023 121.6554,667.0054 Q121.6554,664.9742 122.3117,663.521 Q122.9679,662.0679 124.2492,661.2867 Q125.5304,660.5054 127.4054,660.5054 Q128.2961,660.5054 128.9679,660.6929 Q129.6398,660.8648 130.3273,661.2085 L129.5148,663.2242 Q128.8898,662.9117 128.3429,662.7867 Q127.8117,662.6617 127.3273,662.6617 Q126.1554,662.6617 125.4523,663.1929 Q124.7492,663.7242 124.4523,664.6773 Q124.1554,665.6304 124.1554,666.896 Q124.1554,668.9117 124.8742,669.8804 Q125.5929,670.8335 127.1867,670.8335 Q127.7804,670.8335 128.4054,670.6773 Q129.0304,670.521 129.8586,670.146 L129.8586,672.3648 Q129.1242,672.6773 128.3273,672.8335 Q127.5461,672.9898 126.7804,672.9898 Z " fill="#000000"/><text fill="#000000" font-family="sans-serif" font-size="14" lengthAdjust="spacing" textLength="35.8679" x="147.8117" y="671.4999">Maps</text><line style="stroke:#181818;stroke-width:0.5;" x1="47" x2="251.9913" y1="682.0679" y2="682.0679"/><line style="stroke:#181818;stroke-width:0.5;" x1="47" x2="251.9913" y1="690.0679" y2="690.0679"/><text fill="#000000" font-family="sans-serif" font-size="14" lengthAdjust="spacing" textLength="187.5713" x="52" y="709.0339">+getListOfMaps(): List&lt;Map&gt;</text><text fill="#000000" font-family="sans-serif" font-size="14" lengthAdjust="spacing" textLength="194.9913" x="52" y="728.1018">+getMap(mapID: String): Map</text></g><!--class MapMapper--><g id="elem_MapMapper"><rect codeLine="31" fill="#F1F1F1" height="86.1358" id="MapMapper" rx="2.5" ry="2.5" style="stroke:#181818;stroke-width:0.5;" width="243.7551" x="249.5" y="504.0679"/><ellipse cx="326.8217" cy="520.0679" fill="#C2C2C2" rx="11" ry="11" style="stroke:#181818;stroke-width:1.0;"/><path d="M326.2905,526.9898 Q324.5405,526.9898 323.3998,526.2554 Q322.2748,525.5054 321.7123,524.1617 Q321.1655,522.8023 321.1655,521.0054 Q321.1655,518.9742 321.8217,517.521 Q322.478,516.0679 323.7592,515.2867 Q325.0405,514.5054 326.9155,514.5054 Q327.8061,514.5054 328.478,514.6929 Q329.1498,514.8648 329.8373,515.2085 L329.0248,517.2242 Q328.3998,516.9117 327.853,516.7867 Q327.3217,516.6617 326.8373,516.6617 Q325.6655,516.6617 324.9623,517.1929 Q324.2592,517.7242 323.9623,518.6773 Q323.6655,519.6304 323.6655,520.896 Q323.6655,522.9117 324.3842,523.8804 Q325.103,524.8335 326.6967,524.8335 Q327.2905,524.8335 327.9155,524.6773 Q328.5405,524.521 329.3686,524.146 L329.3686,526.3648 Q328.6342,526.6773 327.8373,526.8335 Q327.0561,526.9898 326.2905,526.9898 Z " fill="#000000"/><text fill="#000000" font-family="sans-serif" font-size="14" lengthAdjust="spacing" textLength="80.6117" x="347.3217" y="525.4999">MapMapper</text><line style="stroke:#181818;stroke-width:0.5;" x1="250.5" x2="492.2551" y1="536.0679" y2="536.0679"/><line style="stroke:#181818;stroke-width:0.5;" x1="250.5" x2="492.2551" y1="544.0679" y2="544.0679"/><text fill="#000000" font-family="sans-serif" font-size="14" lengthAdjust="spacing" textLength="190.4693" x="255.5" y="563.0339">+toDTO(map: Map): MapDTO</text><text fill="#000000" font-family="sans-serif" font-size="14" lengthAdjust="spacing" textLength="231.7551" x="255.5" y="582.1018">+toModel(mapDTO: MapDTO): Map</text></g><!--class Map--><g id="elem_Map"><rect codeLine="36" fill="#F1F1F1" height="162.4075" id="Map" rx="2.5" ry="2.5" style="stroke:#181818;stroke-width:0.5;" width="301.3509" x="24" y="796.0679"/><ellipse cx="155.8445" cy="812.0679" fill="#C2C2C2" rx="11" ry="11" style="stroke:#181818;stroke-width:1.0;"/><path d="M155.3133,818.9898 Q153.5633,818.9898 152.4226,818.2554 Q151.2976,817.5054 150.7351,816.1617 Q150.1883,814.8023 150.1883,813.0054 Q150.1883,810.9742 150.8445,809.521 Q151.5008,808.0679 152.782,807.2867 Q154.0633,806.5054 155.9383,806.5054 Q156.8289,806.5054 157.5008,806.6929 Q158.1726,806.8648 158.8601,807.2085 L158.0476,809.2242 Q157.4226,808.9117 156.8758,808.7867 Q156.3445,808.6617 155.8601,808.6617 Q154.6883,808.6617 153.9851,809.1929 Q153.282,809.7242 152.9851,810.6773 Q152.6883,811.6304 152.6883,812.896 Q152.6883,814.9117 153.407,815.8804 Q154.1258,816.8335 155.7195,816.8335 Q156.3133,816.8335 156.9383,816.6773 Q157.5633,816.521 158.3914,816.146 L158.3914,818.3648 Q157.657,818.6773 156.8601,818.8335 Q156.0789,818.9898 155.3133,818.9898 Z " fill="#000000"/><text fill="#000000" font-family="sans-serif" font-size="14" lengthAdjust="spacing" textLength="29.1619" x="176.3445" y="817.4999">Map</text><line style="stroke:#181818;stroke-width:0.5;" x1="25" x2="324.3509" y1="828.0679" y2="828.0679"/><text fill="#000000" font-family="sans-serif" font-size="14" lengthAdjust="spacing" textLength="81.2277" x="30" y="847.0339">-cities: Cities</text><text fill="#000000" font-family="sans-serif" font-size="14" lengthAdjust="spacing" textLength="163.5614" x="30" y="866.1018">-positions: List&lt;Position&gt;</text><line style="stroke:#181818;stroke-width:0.5;" x1="25" x2="324.3509" y1="874.2038" y2="874.2038"/><text fill="#000000" font-family="sans-serif" font-size="14" lengthAdjust="spacing" textLength="194.7112" x="30" y="893.1697">+createCity(cityDTO: CityDTO)</text><text fill="#000000" font-family="sans-serif" font-size="14" lengthAdjust="spacing" textLength="237.1171" x="30" y="912.2376">+getCityBoundaries(): List&lt;Position&gt;</text><text fill="#000000" font-family="sans-serif" font-size="14" lengthAdjust="spacing" textLength="289.3509" x="30" y="931.3055">+getAvailablePositions(n: int): List&lt;Position&gt;</text><text fill="#000000" font-family="sans-serif" font-size="14" lengthAdjust="spacing" textLength="249.6331" x="30" y="950.3734">+markPositionOccupied(pos: Position)</text></g><!--class Cities--><g id="elem_Cities"><rect codeLine="45" fill="#F1F1F1" height="86.1358" id="Cities" rx="2.5" ry="2.5" style="stroke:#181818;stroke-width:0.5;" width="220.1932" x="84.5" y="1018.0679"/><ellipse cx="172.4827" cy="1034.0679" fill="#C2C2C2" rx="11" ry="11" style="stroke:#181818;stroke-width:1.0;"/><path d="M171.9514,1040.9898 Q170.2014,1040.9898 169.0608,1040.2554 Q167.9358,1039.5054 167.3733,1038.1617 Q166.8264,1036.8023 166.8264,1035.0054 Q166.8264,1032.9742 167.4827,1031.521 Q168.1389,1030.0679 169.4202,1029.2867 Q170.7014,1028.5054 172.5764,1028.5054 Q173.467,1028.5054 174.1389,1028.6929 Q174.8108,1028.8648 175.4983,1029.2085 L174.6858,1031.2242 Q174.0608,1030.9117 173.5139,1030.7867 Q172.9827,1030.6617 172.4983,1030.6617 Q171.3264,1030.6617 170.6233,1031.1929 Q169.9202,1031.7242 169.6233,1032.6773 Q169.3264,1033.6304 169.3264,1034.896 Q169.3264,1036.9117 170.0452,1037.8804 Q170.7639,1038.8335 172.3577,1038.8335 Q172.9514,1038.8335 173.5764,1038.6773 Q174.2014,1038.521 175.0295,1038.146 L175.0295,1040.3648 Q174.2952,1040.6773 173.4983,1040.8335 Q172.717,1040.9898 171.9514,1040.9898 Z " fill="#000000"/><text fill="#000000" font-family="sans-serif" font-size="14" lengthAdjust="spacing" textLength="35.7279" x="192.9827" y="1039.4999">Cities</text><line style="stroke:#181818;stroke-width:0.5;" x1="85.5" x2="303.6932" y1="1050.0679" y2="1050.0679"/><line style="stroke:#181818;stroke-width:0.5;" x1="85.5" x2="303.6932" y1="1058.0679" y2="1058.0679"/><text fill="#000000" font-family="sans-serif" font-size="14" lengthAdjust="spacing" textLength="120.7075" x="90.5" y="1077.0339">+addCity(city: City)</text><text fill="#000000" font-family="sans-serif" font-size="14" lengthAdjust="spacing" textLength="208.1932" x="90.5" y="1096.1018">+validateCity(city: City): boolean</text></g><!--class City--><g id="elem_City"><rect codeLine="50" fill="#F1F1F1" height="162.4075" id="City" rx="2.5" ry="2.5" style="stroke:#181818;stroke-width:0.5;" width="338.2967" x="25.5" y="1164.0679"/><ellipse cx="178.0714" cy="1180.0679" fill="#C2C2C2" rx="11" ry="11" style="stroke:#181818;stroke-width:1.0;"/><path d="M177.5401,1186.9898 Q175.7901,1186.9898 174.6495,1186.2554 Q173.5245,1185.5054 172.962,1184.1617 Q172.4151,1182.8023 172.4151,1181.0054 Q172.4151,1178.9742 173.0714,1177.521 Q173.7276,1176.0679 175.0089,1175.2867 Q176.2901,1174.5054 178.1651,1174.5054 Q179.0558,1174.5054 179.7276,1174.6929 Q180.3995,1174.8648 181.087,1175.2085 L180.2745,1177.2242 Q179.6495,1176.9117 179.1026,1176.7867 Q178.5714,1176.6617 178.087,1176.6617 Q176.9151,1176.6617 176.212,1177.1929 Q175.5089,1177.7242 175.212,1178.6773 Q174.9151,1179.6304 174.9151,1180.896 Q174.9151,1182.9117 175.6339,1183.8804 Q176.3526,1184.8335 177.9464,1184.8335 Q178.5401,1184.8335 179.1651,1184.6773 Q179.7901,1184.521 180.6183,1184.146 L180.6183,1186.3648 Q179.8839,1186.6773 179.087,1186.8335 Q178.3058,1186.9898 177.5401,1186.9898 Z " fill="#000000"/><text fill="#000000" font-family="sans-serif" font-size="14" lengthAdjust="spacing" textLength="24.6539" x="198.5714" y="1185.4999">City</text><line style="stroke:#181818;stroke-width:0.5;" x1="26.5" x2="362.7967" y1="1196.0679" y2="1196.0679"/><text fill="#000000" font-family="sans-serif" font-size="14" lengthAdjust="spacing" textLength="103.7536" x="31.5" y="1215.0339">-nameID: String</text><text fill="#000000" font-family="sans-serif" font-size="14" lengthAdjust="spacing" textLength="118.1316" x="31.5" y="1234.1018">-position: Position</text><text fill="#000000" font-family="sans-serif" font-size="14" lengthAdjust="spacing" textLength="210.5592" x="31.5" y="1253.1697">-houseBlocks: List&lt;HouseBlock&gt;</text><line style="stroke:#181818;stroke-width:0.5;" x1="26.5" x2="362.7967" y1="1261.2717" y2="1261.2717"/><text fill="#000000" font-family="sans-serif" font-size="14" lengthAdjust="spacing" textLength="277.8709" x="31.5" y="1280.2376">+create(nameID: String, position: Position)</text><text fill="#000000" font-family="sans-serif" font-size="14" lengthAdjust="spacing" textLength="279.5789" x="31.5" y="1299.3055">+addHouseBlock(houseBlock: HouseBlock)</text><text fill="#000000" font-family="sans-serif" font-size="14" lengthAdjust="spacing" textLength="326.2967" x="31.5" y="1318.3734">+setHouseBlocks(houseBlocks: List&lt;HouseBlock&gt;)</text></g><!--class HouseBlock--><g id="elem_HouseBlock"><rect codeLine="59" fill="#F1F1F1" height="86.1358" id="HouseBlock" rx="2.5" ry="2.5" style="stroke:#181818;stroke-width:0.5;" width="167.2314" x="111" y="1424.0679"/><ellipse cx="151.9901" cy="1440.0679" fill="#C2C2C2" rx="11" ry="11" style="stroke:#181818;stroke-width:1.0;"/><path d="M151.4588,1446.9898 Q149.7088,1446.9898 148.5682,1446.2554 Q147.4432,1445.5054 146.8807,1444.1617 Q146.3338,1442.8023 146.3338,1441.0054 Q146.3338,1438.9742 146.9901,1437.521 Q147.6463,1436.0679 148.9276,1435.2867 Q150.2088,1434.5054 152.0838,1434.5054 Q152.9744,1434.5054 153.6463,1434.6929 Q154.3182,1434.8648 155.0057,1435.2085 L154.1932,1437.2242 Q153.5682,1436.9117 153.0213,1436.7867 Q152.4901,1436.6617 152.0057,1436.6617 Q150.8338,1436.6617 150.1307,1437.1929 Q149.4276,1437.7242 149.1307,1438.6773 Q148.8338,1439.6304 148.8338,1440.896 Q148.8338,1442.9117 149.5526,1443.8804 Q150.2713,1444.8335 151.8651,1444.8335 Q152.4588,1444.8335 153.0838,1444.6773 Q153.7088,1444.521 154.5369,1444.146 L154.5369,1446.3648 Q153.8026,1446.6773 153.0057,1446.8335 Q152.2244,1446.9898 151.4588,1446.9898 Z " fill="#000000"/><text fill="#000000" font-family="sans-serif" font-size="14" lengthAdjust="spacing" textLength="77.4757" x="171.7656" y="1445.4999">HouseBlock</text><line style="stroke:#181818;stroke-width:0.5;" x1="112" x2="277.2314" y1="1456.0679" y2="1456.0679"/><text fill="#000000" font-family="sans-serif" font-size="14" lengthAdjust="spacing" textLength="118.1316" x="117" y="1475.0339">-position: Position</text><text fill="#000000" font-family="sans-serif" font-size="14" lengthAdjust="spacing" textLength="155.2314" x="117" y="1494.1018">-autoAssigned: boolean</text><line style="stroke:#181818;stroke-width:0.5;" x1="112" x2="277.2314" y1="1502.2038" y2="1502.2038"/></g><!--class HouseBlockDTO--><g id="elem_HouseBlockDTO"><rect codeLine="64" fill="#F1F1F1" height="124.2717" id="HouseBlockDTO" rx="2.5" ry="2.5" style="stroke:#181818;stroke-width:0.5;" width="236.3771" x="656.5" y="1405.0679"/><ellipse cx="717.2318" cy="1421.0679" fill="#C2C2C2" rx="11" ry="11" style="stroke:#181818;stroke-width:1.0;"/><path d="M716.7005,1427.9898 Q714.9505,1427.9898 713.8099,1427.2554 Q712.6849,1426.5054 712.1224,1425.1617 Q711.5755,1423.8023 711.5755,1422.0054 Q711.5755,1419.9742 712.2318,1418.521 Q712.888,1417.0679 714.1693,1416.2867 Q715.4505,1415.5054 717.3255,1415.5054 Q718.2162,1415.5054 718.888,1415.6929 Q719.5599,1415.8648 720.2474,1416.2085 L719.4349,1418.2242 Q718.8099,1417.9117 718.263,1417.7867 Q717.7318,1417.6617 717.2474,1417.6617 Q716.0755,1417.6617 715.3724,1418.1929 Q714.6693,1418.7242 714.3724,1419.6773 Q714.0755,1420.6304 714.0755,1421.896 Q714.0755,1423.9117 714.7943,1424.8804 Q715.513,1425.8335 717.1068,1425.8335 Q717.7005,1425.8335 718.3255,1425.6773 Q718.9505,1425.521 719.7787,1425.146 L719.7787,1427.3648 Q719.0443,1427.6773 718.2474,1427.8335 Q717.4662,1427.9898 716.7005,1427.9898 Z " fill="#000000"/><text fill="#000000" font-family="sans-serif" font-size="14" lengthAdjust="spacing" textLength="106.4136" x="737.7318" y="1426.4999">HouseBlockDTO</text><line style="stroke:#181818;stroke-width:0.5;" x1="657.5" x2="891.8771" y1="1437.0679" y2="1437.0679"/><text fill="#000000" font-family="sans-serif" font-size="14" lengthAdjust="spacing" textLength="121.6315" x="662.5" y="1456.0339">+position: Position</text><text fill="#000000" font-family="sans-serif" font-size="14" lengthAdjust="spacing" textLength="158.7314" x="662.5" y="1475.1018">+autoAssigned: boolean</text><line style="stroke:#181818;stroke-width:0.5;" x1="657.5" x2="891.8771" y1="1483.2038" y2="1483.2038"/><text fill="#000000" font-family="sans-serif" font-size="14" lengthAdjust="spacing" textLength="151.4514" x="662.5" y="1502.1697">+getPosition(): Position</text><text fill="#000000" font-family="sans-serif" font-size="14" lengthAdjust="spacing" textLength="224.3771" x="662.5" y="1521.2376">+isAutomaticPlacement(): boolean</text></g><!--class Position--><g id="elem_Position"><rect codeLine="73" fill="#F1F1F1" height="124.2717" id="Position" rx="2.5" ry="2.5" style="stroke:#181818;stroke-width:0.5;" width="189.3513" x="236" y="1608.0679"/><ellipse cx="299.9027" cy="1624.0679" fill="#C2C2C2" rx="11" ry="11" style="stroke:#181818;stroke-width:1.0;"/><path d="M299.3715,1630.9898 Q297.6215,1630.9898 296.4809,1630.2554 Q295.3559,1629.5054 294.7934,1628.1617 Q294.2465,1626.8023 294.2465,1625.0054 Q294.2465,1622.9742 294.9027,1621.521 Q295.559,1620.0679 296.8402,1619.2867 Q298.1215,1618.5054 299.9965,1618.5054 Q300.8871,1618.5054 301.559,1618.6929 Q302.2309,1618.8648 302.9184,1619.2085 L302.1059,1621.2242 Q301.4809,1620.9117 300.934,1620.7867 Q300.4027,1620.6617 299.9184,1620.6617 Q298.7465,1620.6617 298.0434,1621.1929 Q297.3402,1621.7242 297.0434,1622.6773 Q296.7465,1623.6304 296.7465,1624.896 Q296.7465,1626.9117 297.4652,1627.8804 Q298.184,1628.8335 299.7777,1628.8335 Q300.3715,1628.8335 300.9965,1628.6773 Q301.6215,1628.521 302.4496,1628.146 L302.4496,1630.3648 Q301.7152,1630.6773 300.9184,1630.8335 Q300.1371,1630.9898 299.3715,1630.9898 Z " fill="#000000"/><text fill="#000000" font-family="sans-serif" font-size="14" lengthAdjust="spacing" textLength="53.0458" x="320.4027" y="1629.4999">Position</text><line style="stroke:#181818;stroke-width:0.5;" x1="237" x2="424.3513" y1="1640.0679" y2="1640.0679"/><text fill="#000000" font-family="sans-serif" font-size="14" lengthAdjust="spacing" textLength="36.6239" x="242" y="1659.0339">-x: int</text><text fill="#000000" font-family="sans-serif" font-size="14" lengthAdjust="spacing" textLength="36.3578" x="242" y="1678.1018">-y: int</text><text fill="#000000" font-family="sans-serif" font-size="14" lengthAdjust="spacing" textLength="124.7535" x="242" y="1697.1697">-occupied: boolean</text><line style="stroke:#181818;stroke-width:0.5;" x1="237" x2="424.3513" y1="1705.2717" y2="1705.2717"/><text fill="#000000" font-family="sans-serif" font-size="14" lengthAdjust="spacing" textLength="177.3513" x="242" y="1724.2376">+setOccupied(val: boolean)</text></g><!--class CityMapper--><g id="elem_CityMapper"><rect codeLine="80" fill="#F1F1F1" height="86.1358" id="CityMapper" rx="2.5" ry="2.5" style="stroke:#181818;stroke-width:0.5;" width="227.7111" x="408.5" y="1202.0679"/><ellipse cx="480.0537" cy="1218.0679" fill="#C2C2C2" rx="11" ry="11" style="stroke:#181818;stroke-width:1.0;"/><path d="M479.5225,1224.9898 Q477.7725,1224.9898 476.6318,1224.2554 Q475.5068,1223.5054 474.9443,1222.1617 Q474.3975,1220.8023 474.3975,1219.0054 Q474.3975,1216.9742 475.0537,1215.521 Q475.71,1214.0679 476.9912,1213.2867 Q478.2725,1212.5054 480.1475,1212.5054 Q481.0381,1212.5054 481.71,1212.6929 Q482.3818,1212.8648 483.0693,1213.2085 L482.2568,1215.2242 Q481.6318,1214.9117 481.085,1214.7867 Q480.5537,1214.6617 480.0693,1214.6617 Q478.8975,1214.6617 478.1943,1215.1929 Q477.4912,1215.7242 477.1943,1216.6773 Q476.8975,1217.6304 476.8975,1218.896 Q476.8975,1220.9117 477.6162,1221.8804 Q478.335,1222.8335 479.9287,1222.8335 Q480.5225,1222.8335 481.1475,1222.6773 Q481.7725,1222.521 482.6006,1222.146 L482.6006,1224.3648 Q481.8662,1224.6773 481.0693,1224.8335 Q480.2881,1224.9898 479.5225,1224.9898 Z " fill="#000000"/><text fill="#000000" font-family="sans-serif" font-size="14" lengthAdjust="spacing" textLength="76.1037" x="500.5537" y="1223.4999">CityMapper</text><line style="stroke:#181818;stroke-width:0.5;" x1="409.5" x2="635.2111" y1="1234.0679" y2="1234.0679"/><line style="stroke:#181818;stroke-width:0.5;" x1="409.5" x2="635.2111" y1="1242.0679" y2="1242.0679"/><text fill="#000000" font-family="sans-serif" font-size="14" lengthAdjust="spacing" textLength="215.7111" x="414.5" y="1261.0339">+toModel(cityDTO: CityDTO): City</text><text fill="#000000" font-family="sans-serif" font-size="14" lengthAdjust="spacing" textLength="174.4253" x="414.5" y="1280.1018">+toDTO(city: City): CityDTO</text></g><!--class CityDTO--><g id="elem_CityDTO"><rect codeLine="85" fill="#F1F1F1" height="162.4075" id="CityDTO" rx="2.5" ry="2.5" style="stroke:#181818;stroke-width:0.5;" width="307.6088" x="313.5" y="1386.0679"/><ellipse cx="436.2585" cy="1402.0679" fill="#C2C2C2" rx="11" ry="11" style="stroke:#181818;stroke-width:1.0;"/><path d="M435.7273,1408.9898 Q433.9773,1408.9898 432.8366,1408.2554 Q431.7116,1407.5054 431.1491,1406.1617 Q430.6023,1404.8023 430.6023,1403.0054 Q430.6023,1400.9742 431.2585,1399.521 Q431.9148,1398.0679 433.196,1397.2867 Q434.4773,1396.5054 436.3523,1396.5054 Q437.2429,1396.5054 437.9148,1396.6929 Q438.5866,1396.8648 439.2741,1397.2085 L438.4616,1399.2242 Q437.8366,1398.9117 437.2898,1398.7867 Q436.7585,1398.6617 436.2741,1398.6617 Q435.1023,1398.6617 434.3991,1399.1929 Q433.696,1399.7242 433.3991,1400.6773 Q433.1023,1401.6304 433.1023,1402.896 Q433.1023,1404.9117 433.821,1405.8804 Q434.5398,1406.8335 436.1335,1406.8335 Q436.7273,1406.8335 437.3523,1406.6773 Q437.9773,1406.521 438.8054,1406.146 L438.8054,1408.3648 Q438.071,1408.6773 437.2741,1408.8335 Q436.4929,1408.9898 435.7273,1408.9898 Z " fill="#000000"/><text fill="#000000" font-family="sans-serif" font-size="14" lengthAdjust="spacing" textLength="53.5918" x="456.7585" y="1407.4999">CityDTO</text><line style="stroke:#181818;stroke-width:0.5;" x1="314.5" x2="620.1088" y1="1418.0679" y2="1418.0679"/><text fill="#000000" font-family="sans-serif" font-size="14" lengthAdjust="spacing" textLength="107.2536" x="319.5" y="1437.0339">+nameID: String</text><text fill="#000000" font-family="sans-serif" font-size="14" lengthAdjust="spacing" textLength="121.6315" x="319.5" y="1456.1018">+position: Position</text><text fill="#000000" font-family="sans-serif" font-size="14" lengthAdjust="spacing" textLength="271.9349" x="319.5" y="1475.1697">+houseBlockDTOs: List&lt;HouseBlockDTO&gt;</text><line style="stroke:#181818;stroke-width:0.5;" x1="314.5" x2="620.1088" y1="1483.2717" y2="1483.2717"/><text fill="#000000" font-family="sans-serif" font-size="14" lengthAdjust="spacing" textLength="131.1935" x="319.5" y="1502.2376">getNameID(): String</text><text fill="#000000" font-family="sans-serif" font-size="14" lengthAdjust="spacing" textLength="143.4435" x="319.5" y="1521.3055">getPosition(): Position</text><text fill="#000000" font-family="sans-serif" font-size="14" lengthAdjust="spacing" textLength="295.6088" x="319.5" y="1540.3734">getHouseBlocksDTO(): List&lt;HouseBlockDTO&gt;</text></g><!--class MapDTO--><g id="elem_MapDTO"><rect codeLine="95" fill="#F1F1F1" height="67.0679" id="MapDTO" rx="2.5" ry="2.5" style="stroke:#181818;stroke-width:0.5;" width="90.0998" x="326.5" y="659.5679"/><ellipse cx="341.5" cy="675.5679" fill="#C2C2C2" rx="11" ry="11" style="stroke:#181818;stroke-width:1.0;"/><path d="M340.9688,682.4898 Q339.2188,682.4898 338.0781,681.7554 Q336.9531,681.0054 336.3906,679.6617 Q335.8438,678.3023 335.8438,676.5054 Q335.8438,674.4742 336.5,673.021 Q337.1563,671.5679 338.4375,670.7867 Q339.7188,670.0054 341.5938,670.0054 Q342.4844,670.0054 343.1563,670.1929 Q343.8281,670.3648 344.5156,670.7085 L343.7031,672.7242 Q343.0781,672.4117 342.5313,672.2867 Q342,672.1617 341.5156,672.1617 Q340.3438,672.1617 339.6406,672.6929 Q338.9375,673.2242 338.6406,674.1773 Q338.3438,675.1304 338.3438,676.396 Q338.3438,678.4117 339.0625,679.3804 Q339.7813,680.3335 341.375,680.3335 Q341.9688,680.3335 342.5938,680.1773 Q343.2188,680.021 344.0469,679.646 L344.0469,681.8648 Q343.3125,682.1773 342.5156,682.3335 Q341.7344,682.4898 340.9688,682.4898 Z " fill="#000000"/><text fill="#000000" font-family="sans-serif" font-size="14" lengthAdjust="spacing" textLength="58.0998" x="355.5" y="680.9999">MapDTO</text><line style="stroke:#181818;stroke-width:0.5;" x1="327.5" x2="415.5998" y1="691.5679" y2="691.5679"/><text fill="#000000" font-family="sans-serif" font-size="14" lengthAdjust="spacing" textLength="67.0177" x="332.5" y="710.5339">+id: String</text><line style="stroke:#181818;stroke-width:0.5;" x1="327.5" x2="415.5998" y1="718.6358" y2="718.6358"/></g><!--link AddCityUI to AddCityController--><g id="link_AddCityUI_AddCityController"><path codeLine="100" d="M371.5,95.3779 C371.5,111.3179 371.5,127.3479 371.5,148.7679 " fill="none" id="AddCityUI-to-AddCityController" style="stroke:#181818;stroke-width:1.0;"/><polygon fill="#181818" points="371.5,154.7679,375.5,145.7679,371.5,149.7679,367.5,145.7679,371.5,154.7679" style="stroke:#181818;stroke-width:1.0;"/></g><!--link AddCityController to Repositories--><g id="link_AddCityController_Repositories"><path codeLine="101" d="M280.97,298.2279 C254.99,318.5079 232.2104,336.2969 209.1804,354.2669 " fill="none" id="AddCityController-to-Repositories" style="stroke:#181818;stroke-width:1.0;"/><polygon fill="#181818" points="204.45,357.9579,214.0062,355.5749,208.392,354.8821,209.0848,349.2678,204.45,357.9579" style="stroke:#181818;stroke-width:1.0;"/></g><!--link AddCityController to MapMapper--><g id="link_AddCityController_MapMapper"><path codeLine="102" d="M371.5,298.2579 C371.5,361.2979 371.5,445.4979 371.5,497.8979 " fill="none" id="AddCityController-to-MapMapper" style="stroke:#181818;stroke-width:1.0;"/><polygon fill="#181818" points="371.5,503.8979,375.5,494.8979,371.5,498.8979,367.5,494.8979,371.5,503.8979" style="stroke:#181818;stroke-width:1.0;"/></g><!--link MapMapper to MapDTO--><g id="link_MapMapper_MapDTO"><path codeLine="103" d="M371.5,590.1079 C371.5,612.1879 371.5,632.8479 371.5,653.3679 " fill="none" id="MapMapper-to-MapDTO" style="stroke:#181818;stroke-width:1.0;"/><polygon fill="#181818" points="371.5,659.3679,375.5,650.3679,371.5,654.3679,367.5,650.3679,371.5,659.3679" style="stroke:#181818;stroke-width:1.0;"/></g><!--link MapRepository to MapMapper--><g id="link_MapRepository_MapMapper"><path codeLine="104" d="M214.24,547.0679 C225.91,547.0679 231.58,547.0679 243.25,547.0679 " fill="none" id="MapRepository-to-MapMapper" style="stroke:#181818;stroke-width:1.0;"/><polygon fill="#181818" points="249.25,547.0679,240.25,543.0679,244.25,547.0679,240.25,551.0679,249.25,547.0679" style="stroke:#181818;stroke-width:1.0;"/></g><!--link Repositories to MapRepository--><g id="link_Repositories_MapRepository"><path codeLine="105" d="M138.82,444.1079 C133.61,462.8679 129.0852,479.1466 123.8652,497.9466 " fill="none" id="Repositories-to-MapRepository" style="stroke:#181818;stroke-width:1.0;"/><polygon fill="#181818" points="122.26,503.7279,128.522,496.1261,123.5977,498.9102,120.8137,493.9858,122.26,503.7279" style="stroke:#181818;stroke-width:1.0;"/></g><!--link MapRepository to Maps--><g id="link_MapRepository_Maps"><path codeLine="106" d="M121.89,590.1079 C126.97,608.8679 131.372,625.1364 136.462,643.9364 " fill="none" id="MapRepository-to-Maps" style="stroke:#181818;stroke-width:1.0;"/><polygon fill="#181818" points="138.03,649.7279,139.539,639.9953,136.7233,644.9017,131.817,642.086,138.03,649.7279" style="stroke:#181818;stroke-width:1.0;"/></g><!--link Maps to Map--><g id="link_Maps_Map"><path codeLine="107" d="M155.3,736.2779 C157.74,754.0279 159.8431,769.3438 162.6631,789.8638 " fill="none" id="Maps-to-Map" style="stroke:#181818;stroke-width:1.0;"/><polygon fill="#181818" points="163.48,795.8079,166.2174,786.3471,162.7993,790.8545,158.2919,787.4363,163.48,795.8079" style="stroke:#181818;stroke-width:1.0;"/></g><!--link Map to Cities--><g id="link_Map_Cities"><path codeLine="108" d="M183.3,958.1579 C185.57,978.7579 187.2537,994.1539 189.2137,1011.9639 " fill="none" id="Map-to-Cities" style="stroke:#181818;stroke-width:1.0;"/><polygon fill="#181818" points="189.87,1017.9279,192.8615,1008.5444,189.323,1012.9579,184.9095,1009.4195,189.87,1017.9279" style="stroke:#181818;stroke-width:1.0;"/></g><!--link Cities to City--><g id="link_Cities_City"><path codeLine="109" d="M194.5,1104.2779 C194.5,1122.0279 194.5,1137.2879 194.5,1157.8079 " fill="none" id="Cities-to-City" style="stroke:#181818;stroke-width:1.0;"/><polygon fill="#181818" points="194.5,1163.8079,198.5,1154.8079,194.5,1158.8079,190.5,1154.8079,194.5,1163.8079" style="stroke:#181818;stroke-width:1.0;"/></g><!--link Cities to CityMapper--><g id="link_Cities_CityMapper"><path codeLine="110" d="M271.98,1104.2979 C305.41,1122.5879 344.93,1144.2979 380.5,1164.0679 C402.51,1176.3079 421.1525,1186.7529 442.9325,1199.0229 " fill="none" id="Cities-to-CityMapper" style="stroke:#181818;stroke-width:1.0;"/><polygon fill="#181818" points="448.16,1201.9679,442.282,1194.0654,443.8037,1199.5138,438.3554,1201.0355,448.16,1201.9679" style="stroke:#181818;stroke-width:1.0;"/></g><!--link CityMapper to CityDTO--><g id="link_CityMapper_CityDTO"><path codeLine="111" d="M511.96,1288.2279 C505.07,1315.7979 497.2952,1346.8871 489.0352,1379.9271 " fill="none" id="CityMapper-to-CityDTO" style="stroke:#181818;stroke-width:1.0;"/><polygon fill="#181818" points="487.58,1385.7479,493.6434,1377.9868,488.7927,1380.8972,485.8823,1376.0465,487.58,1385.7479" style="stroke:#181818;stroke-width:1.0;"/></g><!--link CityMapper to HouseBlockDTO--><g id="link_CityMapper_HouseBlockDTO"><path codeLine="112" d="M570.79,1288.2279 C608.66,1321.2879 657.3798,1363.8223 699.9398,1400.9723 " fill="none" id="CityMapper-to-HouseBlockDTO" style="stroke:#181818;stroke-width:1.0;"/><polygon fill="#181818" points="704.46,1404.9179,700.3101,1395.986,700.6932,1401.6299,695.0493,1402.013,704.46,1404.9179" style="stroke:#181818;stroke-width:1.0;"/></g><!--link City to HouseBlock--><g id="link_City_HouseBlock"><path codeLine="113" d="M194.5,1326.1179 C194.5,1359.2879 194.5,1390.3879 194.5,1418.0579 " fill="none" id="City-to-HouseBlock" style="stroke:#181818;stroke-width:1.0;"/><polygon fill="#181818" points="194.5,1424.0579,198.5,1415.0579,194.5,1419.0579,190.5,1415.0579,194.5,1424.0579" style="stroke:#181818;stroke-width:1.0;"/></g><!--link HouseBlock to Position--><g id="link_HouseBlock_Position"><path codeLine="114" d="M223.01,1510.2079 C242.17,1538.5179 264.3681,1571.3282 285.7581,1602.9482 " fill="none" id="HouseBlock-to-Position" style="stroke:#181818;stroke-width:1.0;"/><polygon fill="#181818" points="289.12,1607.9179,287.3903,1598.2221,286.3185,1603.7765,280.7641,1602.7046,289.12,1607.9179" style="stroke:#181818;stroke-width:1.0;"/></g><!--link CityDTO to Position--><g id="link_CityDTO_Position"><path codeLine="115" d="M412.96,1548.0879 C399.38,1568.0079 388.4096,1584.1003 375.5596,1602.9503 " fill="none" id="CityDTO-to-Position" style="stroke:#181818;stroke-width:1.0;"/><polygon fill="#181818" points="372.18,1607.9079,380.5545,1602.7245,374.9963,1603.7765,373.9443,1598.2184,372.18,1607.9079" style="stroke:#181818;stroke-width:1.0;"/></g><!--link AddCityController to CityMapper--><g id="link_AddCityController_CityMapper"><path codeLine="116" d="M437.16,298.0979 C486.82,358.9679 546.5,451.7479 546.5,546.0679 C546.5,546.0679 546.5,546.0679 546.5,878.0679 C546.5,995.5579 534.6404,1127.829 527.6804,1195.889 " fill="none" id="AddCityController-to-CityMapper" style="stroke:#181818;stroke-width:1.0;"/><polygon fill="#181818" points="527.07,1201.8579,531.9648,1193.3115,527.5787,1196.8839,524.0063,1192.4977,527.07,1201.8579" style="stroke:#181818;stroke-width:1.0;"/></g><!--SRC=[ZLNRRjim37ttL-XfSv0OsBCn172J0JNGDa7JVO1gQuaGMp8iELWsxDz7NQoBusmjWa8YgUD3wf0IPyewtECMjPpnwjJpbY3P3oGHpbCrM8X2ofw-3vAK5MS7-ekWBucaiY5eezneI_5H1MTeqnCimKpb5Nr2XH3qoD0Z7mHvQ7Xr5acY0L5HrohcUub-9tycnWrdikTDGtfm8lXRLXfL-T8A_ctVThd-12mM9k98v1CLSlVZ6NSYNUH8xRx21aBM8OZd0fwqrG4vCe4hL77UrvH1N8xsN519EGEmw528PhuPvAT0sT06bXnH9aT24P3b9V1bFhKLYkajVAN0y4ewHP3tLrsb-nLOkmh1HcLSRdDqW0jbnuM6zh0EanBXK4ic96OLKPXXGE90FPNK87f3H5byWEc7UC86VfqLo59oUvSwR37MoxYUUKsQoKNFu6ca3Au0CjCtO3BCEgi2OMcEgj1S_wDBbOlQFl21rLZLp6KRmK1OSS6qmUyD6HqYPP5oeWCjxi-ZOLTLGqT9dGBJGBG-EPEBgHGs7QRP6ggQvmKtj0upiRuSlNFU4CmYD2EuZE6M-2iAQ-LfAEifx8L95qIjcSQ8AtIBPxiTql0OgVz0sAasL10PD6FwJp91qRpL93kV6XuaDpEEr3ErYhhTNC0ipd8UnqfZ35JQ2Gw1aue23hPOqchVu8gqXCaqk3JFP3ndalcfbQLMLxVYLaR-j2cUanTenFbYTLtZNZGDTzCFPcM8cuQDX6R3Oc1NjXkjpHSIxAUmvc9-x48arFL5OwfwELHjlrllOoGbbS6TiHxE5PS2hTs7mFyPlNvxAjxAtSlXiTmV4lyUPjdwzY5CRfz65HUDu_aGDoeJFpIjNPKxVaYY-EWni4U2mJuvQVmYqMFUxjH6h-qujPF8MgxJlVrkeAZHevXEpF6JhATIR4w25bOUTvMZi2BZVF42Ldy1]--></g></svg>