<svg xmlns="http://www.w3.org/2000/svg" xmlns:xlink="http://www.w3.org/1999/xlink" contentStyleType="text/css" height="507px" preserveAspectRatio="none" style="width:461px;height:507px;background:#FFFFFF;" version="1.1" viewBox="0 0 461 507" width="461px" zoomAndPan="magnify"><title>System Sequence Diagram : US07 - List stations and view details</title><defs/><g><text fill="#000000" font-family="sans-serif" font-size="14" font-weight="bold" lengthAdjust="spacing" textLength="433.3643" x="10" y="30.1074">System Sequence Diagram : US07 - List stations and view details</text><rect fill="#FFFFFF" height="282.6191" style="stroke:#181818;stroke-width:1.0;" width="10" x="90.0593" y="133.2422"/><rect fill="#FFFFFF" height="31.291" style="stroke:#181818;stroke-width:1.0;" width="10" x="344.8635" y="156.5332"/><rect fill="#FFFFFF" height="31.291" style="stroke:#181818;stroke-width:1.0;" width="10" x="344.8635" y="219.1152"/><rect fill="#FFFFFF" height="62.582" style="stroke:#181818;stroke-width:1.0;" width="10" x="344.8635" y="281.6973"/><rect fill="#FFFFFF" height="31.291" style="stroke:#181818;stroke-width:1.0;" width="10" x="344.8635" y="375.5703"/><line style="stroke:#181818;stroke-width:0.5;stroke-dasharray:5.0,5.0;" x1="94.218" x2="94.218" y1="123.2422" y2="424.8613"/><line style="stroke:#181818;stroke-width:0.5;stroke-dasharray:5.0,5.0;" x1="349.5808" x2="349.5808" y1="123.2422" y2="424.8613"/><text fill="#000000" font-family="sans-serif" font-size="14" lengthAdjust="spacing" textLength="39.6826" x="72.218" y="119.7285">Player</text><ellipse cx="95.0593" cy="53.1211" fill="#E3E3E3" rx="8" ry="8" style="stroke:#181818;stroke-width:0.5;"/><path d="M95.0593,61.1211 L95.0593,88.1211 M82.0593,69.1211 L108.0593,69.1211 M95.0593,88.1211 L82.0593,103.1211 M95.0593,88.1211 L108.0593,103.1211 " fill="none" style="stroke:#181818;stroke-width:0.5;"/><text fill="#000000" font-family="sans-serif" font-size="14" lengthAdjust="spacing" textLength="39.6826" x="72.218" y="438.9688">Player</text><ellipse cx="95.0593" cy="450.9824" fill="#E3E3E3" rx="8" ry="8" style="stroke:#181818;stroke-width:0.5;"/><path d="M95.0593,458.9824 L95.0593,485.9824 M82.0593,466.9824 L108.0593,466.9824 M95.0593,485.9824 L82.0593,500.9824 M95.0593,485.9824 L108.0593,500.9824 " fill="none" style="stroke:#181818;stroke-width:0.5;"/><rect fill="#E3E3E3" height="32.6211" rx="2.5" ry="2.5" style="stroke:#181818;stroke-width:0.5;" width="64.5654" x="317.5808" y="89.6211"/><text fill="#000000" font-family="sans-serif" font-size="14" lengthAdjust="spacing" textLength="50.5654" x="324.5808" y="111.7285">:System</text><rect fill="#E3E3E3" height="32.6211" rx="2.5" ry="2.5" style="stroke:#181818;stroke-width:0.5;" width="64.5654" x="317.5808" y="423.8613"/><text fill="#000000" font-family="sans-serif" font-size="14" lengthAdjust="spacing" textLength="50.5654" x="324.5808" y="445.9688">:System</text><rect fill="#FFFFFF" height="282.6191" style="stroke:#181818;stroke-width:1.0;" width="10" x="90.0593" y="133.2422"/><rect fill="#FFFFFF" height="31.291" style="stroke:#181818;stroke-width:1.0;" width="10" x="344.8635" y="156.5332"/><rect fill="#FFFFFF" height="31.291" style="stroke:#181818;stroke-width:1.0;" width="10" x="344.8635" y="219.1152"/><rect fill="#FFFFFF" height="62.582" style="stroke:#181818;stroke-width:1.0;" width="10" x="344.8635" y="281.6973"/><rect fill="#FFFFFF" height="31.291" style="stroke:#181818;stroke-width:1.0;" width="10" x="344.8635" y="375.5703"/><polygon fill="#181818" points="332.8635,152.5332,342.8635,156.5332,332.8635,160.5332,336.8635,156.5332" style="stroke:#181818;stroke-width:1.0;"/><line style="stroke:#181818;stroke-width:1.0;" x1="100.0593" x2="338.8635" y1="156.5332" y2="156.5332"/><text fill="#000000" font-family="sans-serif" font-size="13" font-weight="bold" lengthAdjust="spacing" textLength="7.23" x="107.0593" y="151.2705">1</text><text fill="#000000" font-family="sans-serif" font-size="13" lengthAdjust="spacing" textLength="156.0825" x="118.2893" y="151.2705">asks to see available maps</text><polygon fill="#181818" points="111.0593,183.8242,101.0593,187.8242,111.0593,191.8242,107.0593,187.8242" style="stroke:#181818;stroke-width:1.0;"/><line style="stroke:#181818;stroke-width:1.0;stroke-dasharray:2.0,2.0;" x1="105.0593" x2="348.8635" y1="187.8242" y2="187.8242"/><text fill="#000000" font-family="sans-serif" font-size="13" font-weight="bold" lengthAdjust="spacing" textLength="7.23" x="117.0593" y="182.5615">2</text><text fill="#000000" font-family="sans-serif" font-size="13" lengthAdjust="spacing" textLength="203.0425" x="128.2893" y="182.5615">shows list of available maps to play</text><polygon fill="#181818" points="332.8635,215.1152,342.8635,219.1152,332.8635,223.1152,336.8635,219.1152" style="stroke:#181818;stroke-width:1.0;"/><line style="stroke:#181818;stroke-width:1.0;" x1="100.0593" x2="338.8635" y1="219.1152" y2="219.1152"/><text fill="#000000" font-family="sans-serif" font-size="13" font-weight="bold" lengthAdjust="spacing" textLength="7.23" x="107.0593" y="213.8525">3</text><text fill="#000000" font-family="sans-serif" font-size="13" lengthAdjust="spacing" textLength="80.2026" x="118.2893" y="213.8525">selects a map</text><polygon fill="#181818" points="111.0593,246.4063,101.0593,250.4063,111.0593,254.4063,107.0593,250.4063" style="stroke:#181818;stroke-width:1.0;"/><line style="stroke:#181818;stroke-width:1.0;stroke-dasharray:2.0,2.0;" x1="105.0593" x2="348.8635" y1="250.4063" y2="250.4063"/><text fill="#000000" font-family="sans-serif" font-size="13" font-weight="bold" lengthAdjust="spacing" textLength="7.23" x="117.0593" y="245.1436">4</text><text fill="#000000" font-family="sans-serif" font-size="13" lengthAdjust="spacing" textLength="209.5742" x="128.2893" y="245.1436">loads and displays the selected map</text><polygon fill="#181818" points="332.8635,277.6973,342.8635,281.6973,332.8635,285.6973,336.8635,281.6973" style="stroke:#181818;stroke-width:1.0;"/><line style="stroke:#181818;stroke-width:1.0;" x1="100.0593" x2="338.8635" y1="281.6973" y2="281.6973"/><text fill="#000000" font-family="sans-serif" font-size="13" font-weight="bold" lengthAdjust="spacing" textLength="7.23" x="107.0593" y="276.4346">5</text><text fill="#000000" font-family="sans-serif" font-size="13" lengthAdjust="spacing" textLength="125.728" x="118.2893" y="276.4346">request to list stations</text><polygon fill="#181818" points="111.0593,308.9883,101.0593,312.9883,111.0593,316.9883,107.0593,312.9883" style="stroke:#181818;stroke-width:1.0;"/><line style="stroke:#181818;stroke-width:1.0;stroke-dasharray:2.0,2.0;" x1="105.0593" x2="343.8635" y1="312.9883" y2="312.9883"/><text fill="#000000" font-family="sans-serif" font-size="13" font-weight="bold" lengthAdjust="spacing" textLength="7.23" x="117.0593" y="307.7256">6</text><text fill="#000000" font-family="sans-serif" font-size="13" lengthAdjust="spacing" textLength="184.2598" x="128.2893" y="307.7256">displays list of available stations</text><polygon fill="#181818" points="111.0593,340.2793,101.0593,344.2793,111.0593,348.2793,107.0593,344.2793" style="stroke:#181818;stroke-width:1.0;"/><line style="stroke:#181818;stroke-width:1.0;stroke-dasharray:2.0,2.0;" x1="105.0593" x2="348.8635" y1="344.2793" y2="344.2793"/><text fill="#000000" font-family="sans-serif" font-size="13" font-weight="bold" lengthAdjust="spacing" textLength="7.23" x="117.0593" y="339.0166">7</text><text fill="#000000" font-family="sans-serif" font-size="13" lengthAdjust="spacing" textLength="201.6016" x="128.2893" y="339.0166">requests to select a specific station</text><polygon fill="#181818" points="332.8635,371.5703,342.8635,375.5703,332.8635,379.5703,336.8635,375.5703" style="stroke:#181818;stroke-width:1.0;"/><line style="stroke:#181818;stroke-width:1.0;" x1="100.0593" x2="338.8635" y1="375.5703" y2="375.5703"/><text fill="#000000" font-family="sans-serif" font-size="13" font-weight="bold" lengthAdjust="spacing" textLength="7.23" x="107.0593" y="370.3076">8</text><text fill="#000000" font-family="sans-serif" font-size="13" lengthAdjust="spacing" textLength="140.1753" x="118.2893" y="370.3076">selects a specific station</text><polygon fill="#181818" points="111.0593,402.8613,101.0593,406.8613,111.0593,410.8613,107.0593,406.8613" style="stroke:#181818;stroke-width:1.0;"/><line style="stroke:#181818;stroke-width:1.0;stroke-dasharray:2.0,2.0;" x1="105.0593" x2="348.8635" y1="406.8613" y2="406.8613"/><text fill="#000000" font-family="sans-serif" font-size="13" font-weight="bold" lengthAdjust="spacing" textLength="7.23" x="117.0593" y="401.5986">9</text><text fill="#000000" font-family="sans-serif" font-size="13" lengthAdjust="spacing" textLength="113.4517" x="128.2893" y="401.5986">show station details</text><!--SRC=[dP9DQWCn38NtFeN8Fj1T8OkkkYbqKHXo0CLM9YOUUsff9kJsbJF9D3-uaAviiFJflIVptiSUCtRGfPZiBgUEGF90XkUN7kqUMsha60WoMS7OXki2tg5B1nzRs69WCZX8YaEteMoCUD6kviX27JJqFL2q1EyUszAvWdNpyWfB-FGim8BYKsJ0w63qT017WZwmCMWbPLXy1JnINW0oJ5UZ2iHRtsCKMAocEQVtGcmcuFhZ1F0Z2btwfWEMRxU5gWXvpo09c0XmrF6uKGSTzlmBkOFV8fOAdV0hZIOT649nbxPtk3AarphZg0Qkg5Gk1Ls49bL8fYQihYiaT5FEpdCHeMfsTCQIEr6hikhPvR9WzQhEmlL6dqvEMREmn_Hcx1_jPoddLHPR6XRtPFtMsmlX-UZXEli7t3zibXzowP__UrNM3m00]--></g></svg>