<svg xmlns="http://www.w3.org/2000/svg" xmlns:xlink="http://www.w3.org/1999/xlink" contentStyleType="text/css" height="633px" preserveAspectRatio="none" style="width:418px;height:633px;background:#FFFFFF;" version="1.1" viewBox="0 0 418 633" width="418px" zoomAndPan="magnify"><title>System Sequence Diagram: US02 - Add an industry</title><defs/><g><text fill="#000000" font-family="sans-serif" font-size="14" font-weight="bold" lengthAdjust="spacing" textLength="342.3164" x="37.1538" y="30.1074">System Sequence Diagram: US02 - Add an industry</text><rect fill="#FFFFFF" height="407.7832" style="stroke:#181818;stroke-width:1.0;" width="10" x="21.2861" y="133.2422"/><rect fill="#FFFFFF" height="31.291" style="stroke:#181818;stroke-width:1.0;" width="10" x="376.5103" y="156.5332"/><rect fill="#FFFFFF" height="31.291" style="stroke:#181818;stroke-width:1.0;" width="10" x="376.5103" y="219.1152"/><rect fill="#FFFFFF" height="31.291" style="stroke:#181818;stroke-width:1.0;" width="10" x="376.5103" y="281.6973"/><rect fill="#FFFFFF" height="31.291" style="stroke:#181818;stroke-width:1.0;" width="10" x="376.5103" y="344.2793"/><rect fill="#FFFFFF" height="31.291" style="stroke:#181818;stroke-width:1.0;" width="10" x="376.5103" y="406.8613"/><rect fill="#FFFFFF" height="62.582" style="stroke:#181818;stroke-width:1.0;" width="10" x="376.5103" y="469.4434"/><line style="stroke:#181818;stroke-width:0.5;stroke-dasharray:5.0,5.0;" x1="26" x2="26" y1="123.2422" y2="550.0254"/><line style="stroke:#181818;stroke-width:0.5;stroke-dasharray:5.0,5.0;" x1="381.3965" x2="381.3965" y1="123.2422" y2="550.0254"/><text fill="#000000" font-family="sans-serif" font-size="14" lengthAdjust="spacing" textLength="36.5723" x="5" y="119.7285">Editor</text><ellipse cx="26.2861" cy="53.1211" fill="#E3E3E3" rx="8" ry="8" style="stroke:#181818;stroke-width:0.5;"/><path d="M26.2861,61.1211 L26.2861,88.1211 M13.2861,69.1211 L39.2861,69.1211 M26.2861,88.1211 L13.2861,103.1211 M26.2861,88.1211 L39.2861,103.1211 " fill="none" style="stroke:#181818;stroke-width:0.5;"/><text fill="#000000" font-family="sans-serif" font-size="14" lengthAdjust="spacing" textLength="36.5723" x="5" y="564.1328">Editor</text><ellipse cx="26.2861" cy="576.1465" fill="#E3E3E3" rx="8" ry="8" style="stroke:#181818;stroke-width:0.5;"/><path d="M26.2861,584.1465 L26.2861,611.1465 M13.2861,592.1465 L39.2861,592.1465 M26.2861,611.1465 L13.2861,626.1465 M26.2861,611.1465 L39.2861,626.1465 " fill="none" style="stroke:#181818;stroke-width:0.5;"/><rect fill="#E3E3E3" height="32.6211" rx="2.5" ry="2.5" style="stroke:#181818;stroke-width:0.5;" width="62.2275" x="350.3965" y="89.6211"/><text fill="#000000" font-family="sans-serif" font-size="14" lengthAdjust="spacing" textLength="48.2275" x="357.3965" y="111.7285">:system</text><rect fill="#E3E3E3" height="32.6211" rx="2.5" ry="2.5" style="stroke:#181818;stroke-width:0.5;" width="62.2275" x="350.3965" y="549.0254"/><text fill="#000000" font-family="sans-serif" font-size="14" lengthAdjust="spacing" textLength="48.2275" x="357.3965" y="571.1328">:system</text><rect fill="#FFFFFF" height="407.7832" style="stroke:#181818;stroke-width:1.0;" width="10" x="21.2861" y="133.2422"/><rect fill="#FFFFFF" height="31.291" style="stroke:#181818;stroke-width:1.0;" width="10" x="376.5103" y="156.5332"/><rect fill="#FFFFFF" height="31.291" style="stroke:#181818;stroke-width:1.0;" width="10" x="376.5103" y="219.1152"/><rect fill="#FFFFFF" height="31.291" style="stroke:#181818;stroke-width:1.0;" width="10" x="376.5103" y="281.6973"/><rect fill="#FFFFFF" height="31.291" style="stroke:#181818;stroke-width:1.0;" width="10" x="376.5103" y="344.2793"/><rect fill="#FFFFFF" height="31.291" style="stroke:#181818;stroke-width:1.0;" width="10" x="376.5103" y="406.8613"/><rect fill="#FFFFFF" height="62.582" style="stroke:#181818;stroke-width:1.0;" width="10" x="376.5103" y="469.4434"/><polygon fill="#181818" points="364.5103,152.5332,374.5103,156.5332,364.5103,160.5332,368.5103,156.5332" style="stroke:#181818;stroke-width:1.0;"/><line style="stroke:#181818;stroke-width:1.0;" x1="31.2861" x2="370.5103" y1="156.5332" y2="156.5332"/><text fill="#000000" font-family="sans-serif" font-size="13" font-weight="bold" lengthAdjust="spacing" textLength="7.23" x="38.2861" y="151.2705">1</text><text fill="#000000" font-family="sans-serif" font-size="13" lengthAdjust="spacing" textLength="94.6563" x="49.5161" y="151.2705">asks to edit map</text><polygon fill="#181818" points="42.2861,183.8242,32.2861,187.8242,42.2861,191.8242,38.2861,187.8242" style="stroke:#181818;stroke-width:1.0;"/><line style="stroke:#181818;stroke-width:1.0;stroke-dasharray:2.0,2.0;" x1="36.2861" x2="380.5103" y1="187.8242" y2="187.8242"/><text fill="#000000" font-family="sans-serif" font-size="13" font-weight="bold" lengthAdjust="spacing" textLength="7.23" x="48.2861" y="182.5615">2</text><text fill="#000000" font-family="sans-serif" font-size="13" lengthAdjust="spacing" textLength="161.1289" x="59.5161" y="182.5615">shows list of available maps</text><polygon fill="#181818" points="364.5103,215.1152,374.5103,219.1152,364.5103,223.1152,368.5103,219.1152" style="stroke:#181818;stroke-width:1.0;"/><line style="stroke:#181818;stroke-width:1.0;" x1="31.2861" x2="370.5103" y1="219.1152" y2="219.1152"/><text fill="#000000" font-family="sans-serif" font-size="13" font-weight="bold" lengthAdjust="spacing" textLength="7.23" x="38.2861" y="213.8525">3</text><text fill="#000000" font-family="sans-serif" font-size="13" lengthAdjust="spacing" textLength="80.2026" x="49.5161" y="213.8525">selects a map</text><polygon fill="#181818" points="42.2861,246.4063,32.2861,250.4063,42.2861,254.4063,38.2861,250.4063" style="stroke:#181818;stroke-width:1.0;"/><line style="stroke:#181818;stroke-width:1.0;stroke-dasharray:2.0,2.0;" x1="36.2861" x2="380.5103" y1="250.4063" y2="250.4063"/><text fill="#000000" font-family="sans-serif" font-size="13" font-weight="bold" lengthAdjust="spacing" textLength="7.23" x="48.2861" y="245.1436">4</text><text fill="#000000" font-family="sans-serif" font-size="13" lengthAdjust="spacing" textLength="209.5742" x="59.5161" y="245.1436">loads and displays the selected map</text><polygon fill="#181818" points="364.5103,277.6973,374.5103,281.6973,364.5103,285.6973,368.5103,281.6973" style="stroke:#181818;stroke-width:1.0;"/><line style="stroke:#181818;stroke-width:1.0;" x1="31.2861" x2="370.5103" y1="281.6973" y2="281.6973"/><text fill="#000000" font-family="sans-serif" font-size="13" font-weight="bold" lengthAdjust="spacing" textLength="7.23" x="38.2861" y="276.4346">5</text><text fill="#000000" font-family="sans-serif" font-size="13" lengthAdjust="spacing" textLength="115.6162" x="49.5161" y="276.4346">asks to add industry</text><polygon fill="#181818" points="42.2861,308.9883,32.2861,312.9883,42.2861,316.9883,38.2861,312.9883" style="stroke:#181818;stroke-width:1.0;"/><line style="stroke:#181818;stroke-width:1.0;stroke-dasharray:2.0,2.0;" x1="36.2861" x2="380.5103" y1="312.9883" y2="312.9883"/><text fill="#000000" font-family="sans-serif" font-size="13" font-weight="bold" lengthAdjust="spacing" textLength="7.23" x="48.2861" y="307.7256">6</text><text fill="#000000" font-family="sans-serif" font-size="13" lengthAdjust="spacing" textLength="208.1016" x="59.5161" y="307.7256">shows all available industries in alist</text><polygon fill="#181818" points="364.5103,340.2793,374.5103,344.2793,364.5103,348.2793,368.5103,344.2793" style="stroke:#181818;stroke-width:1.0;"/><line style="stroke:#181818;stroke-width:1.0;" x1="31.2861" x2="370.5103" y1="344.2793" y2="344.2793"/><text fill="#000000" font-family="sans-serif" font-size="13" font-weight="bold" lengthAdjust="spacing" textLength="7.23" x="38.2861" y="339.0166">7</text><text fill="#000000" font-family="sans-serif" font-size="13" lengthAdjust="spacing" textLength="89.5908" x="49.5161" y="339.0166">selects industry</text><polygon fill="#181818" points="42.2861,371.5703,32.2861,375.5703,42.2861,379.5703,38.2861,375.5703" style="stroke:#181818;stroke-width:1.0;"/><line style="stroke:#181818;stroke-width:1.0;stroke-dasharray:2.0,2.0;" x1="36.2861" x2="380.5103" y1="375.5703" y2="375.5703"/><text fill="#000000" font-family="sans-serif" font-size="13" font-weight="bold" lengthAdjust="spacing" textLength="7.23" x="48.2861" y="370.3076">8</text><text fill="#000000" font-family="sans-serif" font-size="13" lengthAdjust="spacing" textLength="309.9941" x="59.5161" y="370.3076">requests industry data (nameID, X and Y coordinates)</text><polygon fill="#181818" points="364.5103,402.8613,374.5103,406.8613,364.5103,410.8613,368.5103,406.8613" style="stroke:#181818;stroke-width:1.0;"/><line style="stroke:#181818;stroke-width:1.0;" x1="31.2861" x2="370.5103" y1="406.8613" y2="406.8613"/><text fill="#000000" font-family="sans-serif" font-size="13" font-weight="bold" lengthAdjust="spacing" textLength="7.23" x="38.2861" y="401.5986">9</text><text fill="#000000" font-family="sans-serif" font-size="13" lengthAdjust="spacing" textLength="109.1162" x="49.5161" y="401.5986">types industry data</text><polygon fill="#181818" points="42.2861,434.1523,32.2861,438.1523,42.2861,442.1523,38.2861,438.1523" style="stroke:#181818;stroke-width:1.0;"/><line style="stroke:#181818;stroke-width:1.0;stroke-dasharray:2.0,2.0;" x1="36.2861" x2="380.5103" y1="438.1523" y2="438.1523"/><text fill="#000000" font-family="sans-serif" font-size="13" font-weight="bold" lengthAdjust="spacing" textLength="14.46" x="48.2861" y="432.8896">10</text><text fill="#000000" font-family="sans-serif" font-size="13" lengthAdjust="spacing" textLength="119.9326" x="66.7461" y="432.8896">asks for confirmation</text><polygon fill="#181818" points="364.5103,465.4434,374.5103,469.4434,364.5103,473.4434,368.5103,469.4434" style="stroke:#181818;stroke-width:1.0;"/><line style="stroke:#181818;stroke-width:1.0;" x1="31.2861" x2="370.5103" y1="469.4434" y2="469.4434"/><text fill="#000000" font-family="sans-serif" font-size="13" font-weight="bold" lengthAdjust="spacing" textLength="14.46" x="38.2861" y="464.1807">11</text><text fill="#000000" font-family="sans-serif" font-size="13" lengthAdjust="spacing" textLength="127.1626" x="56.7461" y="464.1807">confirms industry data</text><polygon fill="#181818" points="42.2861,496.7344,32.2861,500.7344,42.2861,504.7344,38.2861,500.7344" style="stroke:#181818;stroke-width:1.0;"/><line style="stroke:#181818;stroke-width:1.0;stroke-dasharray:2.0,2.0;" x1="36.2861" x2="375.5103" y1="500.7344" y2="500.7344"/><text fill="#000000" font-family="sans-serif" font-size="13" font-weight="bold" lengthAdjust="spacing" textLength="14.46" x="48.2861" y="495.4717">12</text><text fill="#000000" font-family="sans-serif" font-size="13" lengthAdjust="spacing" textLength="155.3589" x="66.7461" y="495.4717">displays operation success</text><polygon fill="#181818" points="42.2861,528.0254,32.2861,532.0254,42.2861,536.0254,38.2861,532.0254" style="stroke:#181818;stroke-width:1.0;"/><line style="stroke:#181818;stroke-width:1.0;stroke-dasharray:2.0,2.0;" x1="36.2861" x2="380.5103" y1="532.0254" y2="532.0254"/><text fill="#000000" font-family="sans-serif" font-size="13" font-weight="bold" lengthAdjust="spacing" textLength="14.46" x="48.2861" y="526.7627">13</text><text fill="#000000" font-family="sans-serif" font-size="13" lengthAdjust="spacing" textLength="174.1416" x="66.7461" y="526.7627">shows industry details on map</text><!--SRC=[hP91ImCn48Nl-HL3JmeMn6CFWb0FdXT1ZzDasePcapKpsxB_tccwhcjHQgkvP63olhoy36zyR31Z3NMAoQvpgWaajsHuw3HeDxYYIhf0aCaAnbKO7-0rkhJpSGLB34p6O2ifjlM2iZ7YHMLLnq8rLFJMKhG4SuyhbSxWkRgzWoayE0SOmKVNikHE4LPIXicZyxfF01ceb4Ql56zzWr5WCkF2BVr3MPH-Yq8V0WEw3ZLCx_jZC5F9Xa5IQK6DJJctNmEW9y9ezUgfWWx8cRu-xHY2Pu6q1DoY3xZG9okI1wsZO-gtjfH6GHDcmBzO2WcT8g83vxa9sEb3rzIpoNr1_zBPA33Klne-wfJ37mF344PXzJnFhANsD4rZBa_lB_RoVaPv1067Wd0LiQQd-Gsyb61VmQQKdOyAvUlpdKhNqD4LbvWjVx9Kj4rnwNEDubCytqsl_WT3my2bXd9n0znQIyodH-BpSX8T36N4KwFw3W00]--></g></svg>