<svg xmlns="http://www.w3.org/2000/svg" xmlns:xlink="http://www.w3.org/1999/xlink" contentStyleType="text/css" height="562px" preserveAspectRatio="none" style="width:379px;height:562px;background:#FFFFFF;" version="1.1" viewBox="0 0 379 562" width="379px" zoomAndPan="magnify"><defs/><g><rect fill="#FFFFFF" height="367.4922" style="stroke:#181818;stroke-width:1.0;" width="10" x="21.2861" y="93.6211"/><rect fill="#FFFFFF" height="31.291" style="stroke:#181818;stroke-width:1.0;" width="10" x="337.4849" y="116.9121"/><rect fill="#FFFFFF" height="31.291" style="stroke:#181818;stroke-width:1.0;" width="10" x="337.4849" y="179.4941"/><rect fill="#FFFFFF" height="31.291" style="stroke:#181818;stroke-width:1.0;" width="10" x="337.4849" y="242.0762"/><rect fill="#FFFFFF" height="31.291" style="stroke:#181818;stroke-width:1.0;" width="10" x="337.4849" y="304.6582"/><rect fill="#FFFFFF" height="31.291" style="stroke:#181818;stroke-width:1.0;" width="10" x="337.4849" y="367.2402"/><rect fill="#FFFFFF" height="31.291" style="stroke:#181818;stroke-width:1.0;" width="10" x="337.4849" y="429.8223"/><line style="stroke:#181818;stroke-width:0.5;stroke-dasharray:5.0,5.0;" x1="26" x2="26" y1="83.6211" y2="479.1133"/><line style="stroke:#181818;stroke-width:0.5;stroke-dasharray:5.0,5.0;" x1="342.3711" x2="342.3711" y1="83.6211" y2="479.1133"/><text fill="#000000" font-family="sans-serif" font-size="14" lengthAdjust="spacing" textLength="36.5723" x="5" y="80.1074">Editor</text><ellipse cx="26.2861" cy="13.5" fill="#E3E3E3" rx="8" ry="8" style="stroke:#181818;stroke-width:0.5;"/><path d="M26.2861,21.5 L26.2861,48.5 M13.2861,29.5 L39.2861,29.5 M26.2861,48.5 L13.2861,63.5 M26.2861,48.5 L39.2861,63.5 " fill="none" style="stroke:#181818;stroke-width:0.5;"/><text fill="#000000" font-family="sans-serif" font-size="14" lengthAdjust="spacing" textLength="36.5723" x="5" y="493.2207">Editor</text><ellipse cx="26.2861" cy="505.2344" fill="#E3E3E3" rx="8" ry="8" style="stroke:#181818;stroke-width:0.5;"/><path d="M26.2861,513.2344 L26.2861,540.2344 M13.2861,521.2344 L39.2861,521.2344 M26.2861,540.2344 L13.2861,555.2344 M26.2861,540.2344 L39.2861,555.2344 " fill="none" style="stroke:#181818;stroke-width:0.5;"/><rect fill="#E3E3E3" height="32.6211" rx="2.5" ry="2.5" style="stroke:#181818;stroke-width:0.5;" width="62.2275" x="311.3711" y="50"/><text fill="#000000" font-family="sans-serif" font-size="14" lengthAdjust="spacing" textLength="48.2275" x="318.3711" y="72.1074">:system</text><rect fill="#E3E3E3" height="32.6211" rx="2.5" ry="2.5" style="stroke:#181818;stroke-width:0.5;" width="62.2275" x="311.3711" y="478.1133"/><text fill="#000000" font-family="sans-serif" font-size="14" lengthAdjust="spacing" textLength="48.2275" x="318.3711" y="500.2207">:system</text><rect fill="#FFFFFF" height="367.4922" style="stroke:#181818;stroke-width:1.0;" width="10" x="21.2861" y="93.6211"/><rect fill="#FFFFFF" height="31.291" style="stroke:#181818;stroke-width:1.0;" width="10" x="337.4849" y="116.9121"/><rect fill="#FFFFFF" height="31.291" style="stroke:#181818;stroke-width:1.0;" width="10" x="337.4849" y="179.4941"/><rect fill="#FFFFFF" height="31.291" style="stroke:#181818;stroke-width:1.0;" width="10" x="337.4849" y="242.0762"/><rect fill="#FFFFFF" height="31.291" style="stroke:#181818;stroke-width:1.0;" width="10" x="337.4849" y="304.6582"/><rect fill="#FFFFFF" height="31.291" style="stroke:#181818;stroke-width:1.0;" width="10" x="337.4849" y="367.2402"/><rect fill="#FFFFFF" height="31.291" style="stroke:#181818;stroke-width:1.0;" width="10" x="337.4849" y="429.8223"/><polygon fill="#181818" points="325.4849,112.9121,335.4849,116.9121,325.4849,120.9121,329.4849,116.9121" style="stroke:#181818;stroke-width:1.0;"/><line style="stroke:#181818;stroke-width:1.0;" x1="31.2861" x2="331.4849" y1="116.9121" y2="116.9121"/><text fill="#000000" font-family="sans-serif" font-size="13" font-weight="bold" lengthAdjust="spacing" textLength="7.23" x="38.2861" y="111.6494">1</text><text fill="#000000" font-family="sans-serif" font-size="13" lengthAdjust="spacing" textLength="133.688" x="49.5161" y="111.6494">asks to add an industry</text><polygon fill="#181818" points="42.2861,144.2031,32.2861,148.2031,42.2861,152.2031,38.2861,148.2031" style="stroke:#181818;stroke-width:1.0;"/><line style="stroke:#181818;stroke-width:1.0;stroke-dasharray:2.0,2.0;" x1="36.2861" x2="341.4849" y1="148.2031" y2="148.2031"/><text fill="#000000" font-family="sans-serif" font-size="13" font-weight="bold" lengthAdjust="spacing" textLength="7.23" x="48.2861" y="142.9404">2</text><text fill="#000000" font-family="sans-serif" font-size="13" lengthAdjust="spacing" textLength="171.9707" x="59.5161" y="142.9404">shows a list of available maps</text><polygon fill="#181818" points="325.4849,175.4941,335.4849,179.4941,325.4849,183.4941,329.4849,179.4941" style="stroke:#181818;stroke-width:1.0;"/><line style="stroke:#181818;stroke-width:1.0;" x1="31.2861" x2="331.4849" y1="179.4941" y2="179.4941"/><text fill="#000000" font-family="sans-serif" font-size="13" font-weight="bold" lengthAdjust="spacing" textLength="7.23" x="38.2861" y="174.2314">3</text><text fill="#000000" font-family="sans-serif" font-size="13" lengthAdjust="spacing" textLength="80.2026" x="49.5161" y="174.2314">selects a map</text><polygon fill="#181818" points="42.2861,206.7852,32.2861,210.7852,42.2861,214.7852,38.2861,210.7852" style="stroke:#181818;stroke-width:1.0;"/><line style="stroke:#181818;stroke-width:1.0;stroke-dasharray:2.0,2.0;" x1="36.2861" x2="341.4849" y1="210.7852" y2="210.7852"/><text fill="#000000" font-family="sans-serif" font-size="13" font-weight="bold" lengthAdjust="spacing" textLength="7.23" x="48.2861" y="205.5225">4</text><text fill="#000000" font-family="sans-serif" font-size="13" lengthAdjust="spacing" textLength="149.5825" x="59.5161" y="205.5225">displays the selected map</text><polygon fill="#181818" points="325.4849,238.0762,335.4849,242.0762,325.4849,246.0762,329.4849,242.0762" style="stroke:#181818;stroke-width:1.0;"/><line style="stroke:#181818;stroke-width:1.0;" x1="31.2861" x2="331.4849" y1="242.0762" y2="242.0762"/><text fill="#000000" font-family="sans-serif" font-size="13" font-weight="bold" lengthAdjust="spacing" textLength="7.23" x="38.2861" y="236.8135">5</text><text fill="#000000" font-family="sans-serif" font-size="13" lengthAdjust="spacing" textLength="151.7344" x="49.5161" y="236.8135">confirms the selected map</text><polygon fill="#181818" points="42.2861,269.3672,32.2861,273.3672,42.2861,277.3672,38.2861,273.3672" style="stroke:#181818;stroke-width:1.0;"/><line style="stroke:#181818;stroke-width:1.0;stroke-dasharray:2.0,2.0;" x1="36.2861" x2="341.4849" y1="273.3672" y2="273.3672"/><text fill="#000000" font-family="sans-serif" font-size="13" font-weight="bold" lengthAdjust="spacing" textLength="7.23" x="48.2861" y="268.1045">6</text><text fill="#000000" font-family="sans-serif" font-size="13" lengthAdjust="spacing" textLength="176.2871" x="59.5161" y="268.1045">shows a list of industry sectors</text><polygon fill="#181818" points="325.4849,300.6582,335.4849,304.6582,325.4849,308.6582,329.4849,304.6582" style="stroke:#181818;stroke-width:1.0;"/><line style="stroke:#181818;stroke-width:1.0;" x1="31.2861" x2="331.4849" y1="304.6582" y2="304.6582"/><text fill="#000000" font-family="sans-serif" font-size="13" font-weight="bold" lengthAdjust="spacing" textLength="7.23" x="38.2861" y="299.3955">7</text><text fill="#000000" font-family="sans-serif" font-size="13" lengthAdjust="spacing" textLength="146.6753" x="49.5161" y="299.3955">selects an industry sector</text><polygon fill="#181818" points="42.2861,331.9492,32.2861,335.9492,42.2861,339.9492,38.2861,335.9492" style="stroke:#181818;stroke-width:1.0;"/><line style="stroke:#181818;stroke-width:1.0;stroke-dasharray:2.0,2.0;" x1="36.2861" x2="341.4849" y1="335.9492" y2="335.9492"/><text fill="#000000" font-family="sans-serif" font-size="13" font-weight="bold" lengthAdjust="spacing" textLength="7.23" x="48.2861" y="330.6865">8</text><text fill="#000000" font-family="sans-serif" font-size="13" lengthAdjust="spacing" textLength="123.5571" x="59.5161" y="330.6865">asks for industry data</text><polygon fill="#181818" points="325.4849,363.2402,335.4849,367.2402,325.4849,371.2402,329.4849,367.2402" style="stroke:#181818;stroke-width:1.0;"/><line style="stroke:#181818;stroke-width:1.0;" x1="31.2861" x2="331.4849" y1="367.2402" y2="367.2402"/><text fill="#000000" font-family="sans-serif" font-size="13" font-weight="bold" lengthAdjust="spacing" textLength="7.23" x="38.2861" y="361.9775">9</text><text fill="#000000" font-family="sans-serif" font-size="13" lengthAdjust="spacing" textLength="127.1816" x="49.5161" y="361.9775">provides industry data</text><polygon fill="#181818" points="42.2861,394.5313,32.2861,398.5313,42.2861,402.5313,38.2861,398.5313" style="stroke:#181818;stroke-width:1.0;"/><line style="stroke:#181818;stroke-width:1.0;stroke-dasharray:2.0,2.0;" x1="36.2861" x2="341.4849" y1="398.5313" y2="398.5313"/><text fill="#000000" font-family="sans-serif" font-size="13" font-weight="bold" lengthAdjust="spacing" textLength="14.46" x="48.2861" y="393.2686">10</text><text fill="#000000" font-family="sans-serif" font-size="13" lengthAdjust="spacing" textLength="263.7388" x="66.7461" y="393.2686">shows industry data and asks for confirmation</text><polygon fill="#181818" points="325.4849,425.8223,335.4849,429.8223,325.4849,433.8223,329.4849,429.8223" style="stroke:#181818;stroke-width:1.0;"/><line style="stroke:#181818;stroke-width:1.0;" x1="31.2861" x2="331.4849" y1="429.8223" y2="429.8223"/><text fill="#000000" font-family="sans-serif" font-size="13" font-weight="bold" lengthAdjust="spacing" textLength="14.46" x="38.2861" y="424.5596">11</text><text fill="#000000" font-family="sans-serif" font-size="13" lengthAdjust="spacing" textLength="99.7153" x="56.7461" y="424.5596">confirms the data</text><polygon fill="#181818" points="37.2861,457.1133,27.2861,461.1133,37.2861,465.1133,33.2861,461.1133" style="stroke:#181818;stroke-width:1.0;"/><line style="stroke:#181818;stroke-width:1.0;stroke-dasharray:2.0,2.0;" x1="31.2861" x2="341.4849" y1="461.1133" y2="461.1133"/><text fill="#000000" font-family="sans-serif" font-size="13" font-weight="bold" lengthAdjust="spacing" textLength="14.46" x="43.2861" y="455.8506">12</text><text fill="#000000" font-family="sans-serif" font-size="13" lengthAdjust="spacing" textLength="153.8989" x="61.7461" y="455.8506">displays success message</text><!--SRC=[fPFFRi8m3CRlVGgBEo_0OQTns66QDBZiQ18NekPF5RkWllrC2Hr3gxH23ctK-Flfy-UK6nTRp1WWf9ZC8QT08BcZYiUJ5as3Uzf8xmao6S6uzxS5V42RJYxkeKRFL5NOIOfTs57MlP6KOR6sJjyBG8RrwzlsuxDIhJZZMem2YnNtB1I6yytNPhj-7vJkY49NGGMwBdjOlfGoMAcaOP04Q2rW11TjnvBxeNna52YKLSHBvHJYIjj89mO4xrWWrO17T1vtsdJ0bWUffNlWb2achqcTSIgURSKwRZtssjQ12ehiIFg_2vDYxNAOu3mJpZLbfPu7_70yyPuqszam_bhls0YoA3ZJJvlJqLdYFo3pK_h5q1RjZySo41INuZEpVCZTUAkuCuQO8UX3_-mf8pUVBenl]--></g></svg>