<svg xmlns="http://www.w3.org/2000/svg" xmlns:xlink="http://www.w3.org/1999/xlink" contentStyleType="text/css" height="929px" preserveAspectRatio="none" style="width:1474px;height:929px;background:#FFFFFF;" version="1.1" viewBox="0 0 1474 929" width="1474px" zoomAndPan="magnify"><title>Class Diagram: US07 - List Stations and View Details</title><defs/><g><text fill="#000000" font-family="sans-serif" font-size="14" font-weight="bold" lengthAdjust="spacing" textLength="351.6611" x="554.2739" y="25.1074">Class Diagram: US07 - List Stations and View Details</text><!--class ApplicationSession--><g id="elem_ApplicationSession"><rect codeLine="9" fill="#F1F1F1" height="103.8633" id="ApplicationSession" rx="2.5" ry="2.5" style="stroke:#181818;stroke-width:0.5;" width="150.2959" x="7" y="523.6211"/><ellipse cx="22" cy="539.6211" fill="#ADD1B2" rx="11" ry="11" style="stroke:#181818;stroke-width:1.0;"/><path d="M24.7656,535.4961 Q24.9219,535.2773 25.1094,535.168 Q25.2969,535.0586 25.5156,535.0586 Q25.8906,535.0586 26.125,535.3242 Q26.3594,535.5742 26.3594,536.1836 L26.3594,537.6367 Q26.3594,538.2461 26.125,538.5117 Q25.8906,538.7773 25.5156,538.7773 Q25.1719,538.7773 24.9688,538.5742 Q24.7656,538.3867 24.6563,537.8711 Q24.6094,537.5117 24.4219,537.3242 Q24.0938,536.9492 23.4844,536.7305 Q22.875,536.5117 22.25,536.5117 Q21.4844,536.5117 20.8438,536.8398 Q20.2188,537.168 19.7188,537.918 Q19.2344,538.668 19.2344,539.6992 L19.2344,540.793 Q19.2344,542.0273 20.125,542.8555 Q21.0156,543.668 22.6094,543.668 Q23.5469,543.668 24.2031,543.418 Q24.5938,543.2617 25.0156,542.8242 Q25.2813,542.5586 25.4219,542.4805 Q25.5781,542.4023 25.7813,542.4023 Q26.1094,542.4023 26.3594,542.668 Q26.625,542.918 26.625,543.2617 Q26.625,543.6055 26.2813,544.0117 Q25.7813,544.5898 24.9844,544.918 Q23.9063,545.3711 22.6094,545.3711 Q21.0938,545.3711 19.8906,544.7461 Q18.9063,544.2461 18.2188,543.1836 Q17.5313,542.1055 17.5313,540.8242 L17.5313,539.668 Q17.5313,538.3398 18.1406,537.1992 Q18.7656,536.043 19.8594,535.4336 Q20.9531,534.8086 22.1875,534.8086 Q22.9219,534.8086 23.5625,534.9805 Q24.2188,535.1367 24.7656,535.4961 Z " fill="#000000"/><text fill="#000000" font-family="sans-serif" font-size="14" lengthAdjust="spacing" textLength="118.2959" x="36" y="545.418">ApplicationSession</text><line style="stroke:#181818;stroke-width:0.5;" x1="8" x2="156.2959" y1="555.6211" y2="555.6211"/><line style="stroke:#181818;stroke-width:0.5;" x1="8" x2="156.2959" y1="563.6211" y2="563.6211"/><text fill="#000000" font-family="sans-serif" font-size="14" lengthAdjust="spacing" textLength="132.2822" x="13" y="582.7285">-ApplicationSession()</text><text fill="#000000" font-family="sans-serif" font-size="14" lengthAdjust="spacing" textLength="89.8857" x="13" y="601.3496">+getInstance()</text><text fill="#000000" font-family="sans-serif" font-size="14" lengthAdjust="spacing" textLength="133.4512" x="13" y="619.9707">+getCurrentSession()</text></g><!--class ListStationController--><g id="elem_ListStationController"><rect codeLine="15" fill="#F1F1F1" height="122.4844" id="ListStationController" rx="2.5" ry="2.5" style="stroke:#181818;stroke-width:0.5;" width="286.3125" x="164" y="266.6211"/><ellipse cx="239.8755" cy="282.6211" fill="#ADD1B2" rx="11" ry="11" style="stroke:#181818;stroke-width:1.0;"/><path d="M242.6411,278.4961 Q242.7974,278.2773 242.9849,278.168 Q243.1724,278.0586 243.3911,278.0586 Q243.7661,278.0586 244.0005,278.3242 Q244.2349,278.5742 244.2349,279.1836 L244.2349,280.6367 Q244.2349,281.2461 244.0005,281.5117 Q243.7661,281.7773 243.3911,281.7773 Q243.0474,281.7773 242.8442,281.5742 Q242.6411,281.3867 242.5317,280.8711 Q242.4849,280.5117 242.2974,280.3242 Q241.9692,279.9492 241.3599,279.7305 Q240.7505,279.5117 240.1255,279.5117 Q239.3599,279.5117 238.7192,279.8398 Q238.0942,280.168 237.5942,280.918 Q237.1099,281.668 237.1099,282.6992 L237.1099,283.793 Q237.1099,285.0273 238.0005,285.8555 Q238.8911,286.668 240.4849,286.668 Q241.4224,286.668 242.0786,286.418 Q242.4692,286.2617 242.8911,285.8242 Q243.1567,285.5586 243.2974,285.4805 Q243.4536,285.4023 243.6567,285.4023 Q243.9849,285.4023 244.2349,285.668 Q244.5005,285.918 244.5005,286.2617 Q244.5005,286.6055 244.1567,287.0117 Q243.6567,287.5898 242.8599,287.918 Q241.7817,288.3711 240.4849,288.3711 Q238.9692,288.3711 237.7661,287.7461 Q236.7817,287.2461 236.0942,286.1836 Q235.4067,285.1055 235.4067,283.8242 L235.4067,282.668 Q235.4067,281.3398 236.0161,280.1992 Q236.6411,279.043 237.7349,278.4336 Q238.8286,277.8086 240.063,277.8086 Q240.7974,277.8086 241.438,277.9805 Q242.0942,278.1367 242.6411,278.4961 Z " fill="#000000"/><text fill="#000000" font-family="sans-serif" font-size="14" lengthAdjust="spacing" textLength="126.0615" x="260.3755" y="288.418">ListStationController</text><line style="stroke:#181818;stroke-width:0.5;" x1="165" x2="449.3125" y1="298.6211" y2="298.6211"/><line style="stroke:#181818;stroke-width:0.5;" x1="165" x2="449.3125" y1="306.6211" y2="306.6211"/><text fill="#000000" font-family="sans-serif" font-size="14" lengthAdjust="spacing" textLength="205.0508" x="170" y="325.7285">+getAvailableMaps() : List&lt;Map&gt;</text><text fill="#000000" font-family="sans-serif" font-size="14" lengthAdjust="spacing" textLength="149.0166" x="170" y="344.3496">+loadMap(mapId) : Map</text><text fill="#000000" font-family="sans-serif" font-size="14" lengthAdjust="spacing" textLength="219.8506" x="170" y="362.9707">+getStations(mapId) : List&lt;Station&gt;</text><text fill="#000000" font-family="sans-serif" font-size="14" lengthAdjust="spacing" textLength="274.3125" x="170" y="381.5918">+getStationDetails(stationId) : StationDetails</text></g><!--class Repositories--><g id="elem_Repositories"><rect codeLine="22" fill="#F1F1F1" height="103.8633" id="Repositories" rx="2.5" ry="2.5" style="stroke:#181818;stroke-width:0.5;" width="229.4717" x="192.5" y="523.6211"/><ellipse cx="264.0791" cy="539.6211" fill="#ADD1B2" rx="11" ry="11" style="stroke:#181818;stroke-width:1.0;"/><path d="M266.8447,535.4961 Q267.001,535.2773 267.1885,535.168 Q267.376,535.0586 267.5947,535.0586 Q267.9697,535.0586 268.2041,535.3242 Q268.4385,535.5742 268.4385,536.1836 L268.4385,537.6367 Q268.4385,538.2461 268.2041,538.5117 Q267.9697,538.7773 267.5947,538.7773 Q267.251,538.7773 267.0479,538.5742 Q266.8447,538.3867 266.7354,537.8711 Q266.6885,537.5117 266.501,537.3242 Q266.1729,536.9492 265.5635,536.7305 Q264.9541,536.5117 264.3291,536.5117 Q263.5635,536.5117 262.9229,536.8398 Q262.2979,537.168 261.7979,537.918 Q261.3135,538.668 261.3135,539.6992 L261.3135,540.793 Q261.3135,542.0273 262.2041,542.8555 Q263.0947,543.668 264.6885,543.668 Q265.626,543.668 266.2822,543.418 Q266.6729,543.2617 267.0947,542.8242 Q267.3604,542.5586 267.501,542.4805 Q267.6572,542.4023 267.8604,542.4023 Q268.1885,542.4023 268.4385,542.668 Q268.7041,542.918 268.7041,543.2617 Q268.7041,543.6055 268.3604,544.0117 Q267.8604,544.5898 267.0635,544.918 Q265.9854,545.3711 264.6885,545.3711 Q263.1729,545.3711 261.9697,544.7461 Q260.9854,544.2461 260.2979,543.1836 Q259.6104,542.1055 259.6104,540.8242 L259.6104,539.668 Q259.6104,538.3398 260.2197,537.1992 Q260.8447,536.043 261.9385,535.4336 Q263.0322,534.8086 264.2666,534.8086 Q265.001,534.8086 265.6416,534.9805 Q266.2979,535.1367 266.8447,535.4961 Z " fill="#000000"/><text fill="#000000" font-family="sans-serif" font-size="14" lengthAdjust="spacing" textLength="77.8135" x="284.5791" y="545.418">Repositories</text><line style="stroke:#181818;stroke-width:0.5;" x1="193.5" x2="420.9717" y1="555.6211" y2="555.6211"/><text fill="#000000" font-family="sans-serif" font-size="14" lengthAdjust="spacing" textLength="204.6338" x="198.5" y="574.7285">-mapRepository : MapRepository</text><line style="stroke:#181818;stroke-width:0.5;" x1="193.5" x2="420.9717" y1="582.2422" y2="582.2422"/><text fill="#000000" font-family="sans-serif" font-size="14" lengthAdjust="spacing" textLength="179.3682" x="198.5" y="601.3496">+getInstance() : Repositories</text><text fill="#000000" font-family="sans-serif" font-size="14" lengthAdjust="spacing" textLength="217.4717" x="198.5" y="619.9707">+mapRepository() : MapRepository</text></g><!--class MapRepository--><g id="elem_MapRepository"><rect codeLine="28" fill="#F1F1F1" height="85.2422" id="MapRepository" rx="2.5" ry="2.5" style="stroke:#181818;stroke-width:0.5;" width="160.2373" x="287" y="800.1211"/><ellipse cx="317.3387" cy="816.1211" fill="#ADD1B2" rx="11" ry="11" style="stroke:#181818;stroke-width:1.0;"/><path d="M320.1043,811.9961 Q320.2605,811.7773 320.448,811.668 Q320.6355,811.5586 320.8543,811.5586 Q321.2293,811.5586 321.4637,811.8242 Q321.698,812.0742 321.698,812.6836 L321.698,814.1367 Q321.698,814.7461 321.4637,815.0117 Q321.2293,815.2773 320.8543,815.2773 Q320.5105,815.2773 320.3074,815.0742 Q320.1043,814.8867 319.9949,814.3711 Q319.948,814.0117 319.7605,813.8242 Q319.4324,813.4492 318.823,813.2305 Q318.2137,813.0117 317.5887,813.0117 Q316.823,813.0117 316.1824,813.3398 Q315.5574,813.668 315.0574,814.418 Q314.573,815.168 314.573,816.1992 L314.573,817.293 Q314.573,818.5273 315.4637,819.3555 Q316.3543,820.168 317.948,820.168 Q318.8855,820.168 319.5418,819.918 Q319.9324,819.7617 320.3543,819.3242 Q320.6199,819.0586 320.7605,818.9805 Q320.9168,818.9023 321.1199,818.9023 Q321.448,818.9023 321.698,819.168 Q321.9637,819.418 321.9637,819.7617 Q321.9637,820.1055 321.6199,820.5117 Q321.1199,821.0898 320.323,821.418 Q319.2449,821.8711 317.948,821.8711 Q316.4324,821.8711 315.2293,821.2461 Q314.2449,820.7461 313.5574,819.6836 Q312.8699,818.6055 312.8699,817.3242 L312.8699,816.168 Q312.8699,814.8398 313.4793,813.6992 Q314.1043,812.543 315.198,811.9336 Q316.2918,811.3086 317.5262,811.3086 Q318.2605,811.3086 318.9012,811.4805 Q319.5574,811.6367 320.1043,811.9961 Z " fill="#000000"/><text fill="#000000" font-family="sans-serif" font-size="14" lengthAdjust="spacing" textLength="94.1514" x="334.7473" y="821.918">MapRepository</text><line style="stroke:#181818;stroke-width:0.5;" x1="288" x2="446.2373" y1="832.1211" y2="832.1211"/><line style="stroke:#181818;stroke-width:0.5;" x1="288" x2="446.2373" y1="840.1211" y2="840.1211"/><text fill="#000000" font-family="sans-serif" font-size="14" lengthAdjust="spacing" textLength="148.2373" x="293" y="859.2285">+getMaps() : List&lt;Map&gt;</text><text fill="#000000" font-family="sans-serif" font-size="14" lengthAdjust="spacing" textLength="145.1201" x="293" y="877.8496">+findMap(mapId) : Map</text></g><!--class Map--><g id="elem_Map"><rect codeLine="33" fill="#F1F1F1" height="141.1055" id="Map" rx="2.5" ry="2.5" style="stroke:#181818;stroke-width:0.5;" width="187.0752" x="1131.5" y="46.6211"/><ellipse cx="1207.1704" cy="62.6211" fill="#ADD1B2" rx="11" ry="11" style="stroke:#181818;stroke-width:1.0;"/><path d="M1209.936,58.4961 Q1210.0923,58.2773 1210.2798,58.168 Q1210.4673,58.0586 1210.686,58.0586 Q1211.061,58.0586 1211.2954,58.3242 Q1211.5298,58.5742 1211.5298,59.1836 L1211.5298,60.6367 Q1211.5298,61.2461 1211.2954,61.5117 Q1211.061,61.7773 1210.686,61.7773 Q1210.3423,61.7773 1210.1392,61.5742 Q1209.936,61.3867 1209.8267,60.8711 Q1209.7798,60.5117 1209.5923,60.3242 Q1209.2642,59.9492 1208.6548,59.7305 Q1208.0454,59.5117 1207.4204,59.5117 Q1206.6548,59.5117 1206.0142,59.8398 Q1205.3892,60.168 1204.8892,60.918 Q1204.4048,61.668 1204.4048,62.6992 L1204.4048,63.793 Q1204.4048,65.0273 1205.2954,65.8555 Q1206.186,66.668 1207.7798,66.668 Q1208.7173,66.668 1209.3735,66.418 Q1209.7642,66.2617 1210.186,65.8242 Q1210.4517,65.5586 1210.5923,65.4805 Q1210.7485,65.4023 1210.9517,65.4023 Q1211.2798,65.4023 1211.5298,65.668 Q1211.7954,65.918 1211.7954,66.2617 Q1211.7954,66.6055 1211.4517,67.0117 Q1210.9517,67.5898 1210.1548,67.918 Q1209.0767,68.3711 1207.7798,68.3711 Q1206.2642,68.3711 1205.061,67.7461 Q1204.0767,67.2461 1203.3892,66.1836 Q1202.7017,65.1055 1202.7017,63.8242 L1202.7017,62.668 Q1202.7017,61.3398 1203.311,60.1992 Q1203.936,59.043 1205.0298,58.4336 Q1206.1235,57.8086 1207.3579,57.8086 Q1208.0923,57.8086 1208.7329,57.9805 Q1209.3892,58.1367 1209.936,58.4961 Z " fill="#000000"/><text fill="#000000" font-family="sans-serif" font-size="14" lengthAdjust="spacing" textLength="27.2344" x="1227.6704" y="68.418">Map</text><line style="stroke:#181818;stroke-width:0.5;" x1="1132.5" x2="1317.5752" y1="78.6211" y2="78.6211"/><text fill="#000000" font-family="sans-serif" font-size="14" lengthAdjust="spacing" textLength="101.9238" x="1137.5" y="97.7285">-nameID : String</text><text fill="#000000" font-family="sans-serif" font-size="14" lengthAdjust="spacing" textLength="121.3652" x="1137.5" y="116.3496">-cityList : List&lt;City&gt;</text><text fill="#000000" font-family="sans-serif" font-size="14" lengthAdjust="spacing" textLength="175.0752" x="1137.5" y="134.9707">-industryList : List&lt;Industry&gt;</text><text fill="#000000" font-family="sans-serif" font-size="14" lengthAdjust="spacing" textLength="68.4619" x="1137.5" y="153.5918">-size : Size</text><line style="stroke:#181818;stroke-width:0.5;" x1="1132.5" x2="1317.5752" y1="161.1055" y2="161.1055"/><text fill="#000000" font-family="sans-serif" font-size="14" lengthAdjust="spacing" textLength="145.8857" x="1137.5" y="180.2129">+getCities() : List&lt;City&gt;</text></g><!--class City--><g id="elem_City"><rect codeLine="41" fill="#F1F1F1" height="122.4844" id="City" rx="2.5" ry="2.5" style="stroke:#181818;stroke-width:0.5;" width="192.9404" x="938.5" y="266.6211"/><ellipse cx="1018.665" cy="282.6211" fill="#ADD1B2" rx="11" ry="11" style="stroke:#181818;stroke-width:1.0;"/><path d="M1021.4307,278.4961 Q1021.5869,278.2773 1021.7744,278.168 Q1021.9619,278.0586 1022.1807,278.0586 Q1022.5557,278.0586 1022.79,278.3242 Q1023.0244,278.5742 1023.0244,279.1836 L1023.0244,280.6367 Q1023.0244,281.2461 1022.79,281.5117 Q1022.5557,281.7773 1022.1807,281.7773 Q1021.8369,281.7773 1021.6338,281.5742 Q1021.4307,281.3867 1021.3213,280.8711 Q1021.2744,280.5117 1021.0869,280.3242 Q1020.7588,279.9492 1020.1494,279.7305 Q1019.54,279.5117 1018.915,279.5117 Q1018.1494,279.5117 1017.5088,279.8398 Q1016.8838,280.168 1016.3838,280.918 Q1015.8994,281.668 1015.8994,282.6992 L1015.8994,283.793 Q1015.8994,285.0273 1016.79,285.8555 Q1017.6807,286.668 1019.2744,286.668 Q1020.2119,286.668 1020.8682,286.418 Q1021.2588,286.2617 1021.6807,285.8242 Q1021.9463,285.5586 1022.0869,285.4805 Q1022.2432,285.4023 1022.4463,285.4023 Q1022.7744,285.4023 1023.0244,285.668 Q1023.29,285.918 1023.29,286.2617 Q1023.29,286.6055 1022.9463,287.0117 Q1022.4463,287.5898 1021.6494,287.918 Q1020.5713,288.3711 1019.2744,288.3711 Q1017.7588,288.3711 1016.5557,287.7461 Q1015.5713,287.2461 1014.8838,286.1836 Q1014.1963,285.1055 1014.1963,283.8242 L1014.1963,282.668 Q1014.1963,281.3398 1014.8057,280.1992 Q1015.4307,279.043 1016.5244,278.4336 Q1017.6182,277.8086 1018.8525,277.8086 Q1019.5869,277.8086 1020.2275,277.9805 Q1020.8838,278.1367 1021.4307,278.4961 Z " fill="#000000"/><text fill="#000000" font-family="sans-serif" font-size="14" lengthAdjust="spacing" textLength="24.1104" x="1039.165" y="288.418">City</text><line style="stroke:#181818;stroke-width:0.5;" x1="939.5" x2="1130.4404" y1="298.6211" y2="298.6211"/><text fill="#000000" font-family="sans-serif" font-size="14" lengthAdjust="spacing" textLength="87.9238" x="944.5" y="317.7285">-name : String</text><text fill="#000000" font-family="sans-serif" font-size="14" lengthAdjust="spacing" textLength="114.3926" x="944.5" y="336.3496">-position : Position</text><text fill="#000000" font-family="sans-serif" font-size="14" lengthAdjust="spacing" textLength="146.3027" x="944.5" y="354.9707">-stations : List&lt;Station&gt;</text><line style="stroke:#181818;stroke-width:0.5;" x1="939.5" x2="1130.4404" y1="362.4844" y2="362.4844"/><text fill="#000000" font-family="sans-serif" font-size="14" lengthAdjust="spacing" textLength="180.9404" x="944.5" y="381.5918">+getStations() : List&lt;Station&gt;</text></g><!--class Size--><g id="elem_Size"><rect codeLine="48" fill="#F1F1F1" height="122.4844" id="Size" rx="2.5" ry="2.5" style="stroke:#181818;stroke-width:0.5;" width="115.8857" x="1167" y="266.6211"/><ellipse cx="1207.4931" cy="282.6211" fill="#ADD1B2" rx="11" ry="11" style="stroke:#181818;stroke-width:1.0;"/><path d="M1210.2587,278.4961 Q1210.415,278.2773 1210.6025,278.168 Q1210.79,278.0586 1211.0087,278.0586 Q1211.3837,278.0586 1211.6181,278.3242 Q1211.8525,278.5742 1211.8525,279.1836 L1211.8525,280.6367 Q1211.8525,281.2461 1211.6181,281.5117 Q1211.3837,281.7773 1211.0087,281.7773 Q1210.665,281.7773 1210.4619,281.5742 Q1210.2587,281.3867 1210.1494,280.8711 Q1210.1025,280.5117 1209.915,280.3242 Q1209.5869,279.9492 1208.9775,279.7305 Q1208.3681,279.5117 1207.7431,279.5117 Q1206.9775,279.5117 1206.3369,279.8398 Q1205.7119,280.168 1205.2119,280.918 Q1204.7275,281.668 1204.7275,282.6992 L1204.7275,283.793 Q1204.7275,285.0273 1205.6181,285.8555 Q1206.5087,286.668 1208.1025,286.668 Q1209.04,286.668 1209.6962,286.418 Q1210.0869,286.2617 1210.5087,285.8242 Q1210.7744,285.5586 1210.915,285.4805 Q1211.0712,285.4023 1211.2744,285.4023 Q1211.6025,285.4023 1211.8525,285.668 Q1212.1181,285.918 1212.1181,286.2617 Q1212.1181,286.6055 1211.7744,287.0117 Q1211.2744,287.5898 1210.4775,287.918 Q1209.3994,288.3711 1208.1025,288.3711 Q1206.5869,288.3711 1205.3837,287.7461 Q1204.3994,287.2461 1203.7119,286.1836 Q1203.0244,285.1055 1203.0244,283.8242 L1203.0244,282.668 Q1203.0244,281.3398 1203.6337,280.1992 Q1204.2587,279.043 1205.3525,278.4336 Q1206.4462,277.8086 1207.6806,277.8086 Q1208.415,277.8086 1209.0556,277.9805 Q1209.7119,278.1367 1210.2587,278.4961 Z " fill="#000000"/><text fill="#000000" font-family="sans-serif" font-size="14" lengthAdjust="spacing" textLength="27.2344" x="1227.1583" y="288.418">Size</text><line style="stroke:#181818;stroke-width:0.5;" x1="1168" x2="1281.8857" y1="298.6211" y2="298.6211"/><text fill="#000000" font-family="sans-serif" font-size="14" lengthAdjust="spacing" textLength="63.7998" x="1173" y="317.7285">-width : int</text><text fill="#000000" font-family="sans-serif" font-size="14" lengthAdjust="spacing" textLength="69.2617" x="1173" y="336.3496">-height : int</text><line style="stroke:#181818;stroke-width:0.5;" x1="1168" x2="1281.8857" y1="343.8633" y2="343.8633"/><text fill="#000000" font-family="sans-serif" font-size="14" lengthAdjust="spacing" textLength="99.2031" x="1173" y="362.9707">+getWidth() : int</text><text fill="#000000" font-family="sans-serif" font-size="14" lengthAdjust="spacing" textLength="103.8857" x="1173" y="381.5918">+getHeight() : int</text></g><!--class Station--><g id="elem_Station"><rect codeLine="55" fill="#F1F1F1" height="215.5898" id="Station" rx="2.5" ry="2.5" style="stroke:#181818;stroke-width:0.5;" width="243.5195" x="913" y="467.6211"/><ellipse cx="1008.7168" cy="483.6211" fill="#ADD1B2" rx="11" ry="11" style="stroke:#181818;stroke-width:1.0;"/><path d="M1011.4824,479.4961 Q1011.6387,479.2773 1011.8262,479.168 Q1012.0137,479.0586 1012.2324,479.0586 Q1012.6074,479.0586 1012.8418,479.3242 Q1013.0762,479.5742 1013.0762,480.1836 L1013.0762,481.6367 Q1013.0762,482.2461 1012.8418,482.5117 Q1012.6074,482.7773 1012.2324,482.7773 Q1011.8887,482.7773 1011.6855,482.5742 Q1011.4824,482.3867 1011.373,481.8711 Q1011.3262,481.5117 1011.1387,481.3242 Q1010.8105,480.9492 1010.2012,480.7305 Q1009.5918,480.5117 1008.9668,480.5117 Q1008.2012,480.5117 1007.5605,480.8398 Q1006.9355,481.168 1006.4355,481.918 Q1005.9512,482.668 1005.9512,483.6992 L1005.9512,484.793 Q1005.9512,486.0273 1006.8418,486.8555 Q1007.7324,487.668 1009.3262,487.668 Q1010.2637,487.668 1010.9199,487.418 Q1011.3105,487.2617 1011.7324,486.8242 Q1011.998,486.5586 1012.1387,486.4805 Q1012.2949,486.4023 1012.498,486.4023 Q1012.8262,486.4023 1013.0762,486.668 Q1013.3418,486.918 1013.3418,487.2617 Q1013.3418,487.6055 1012.998,488.0117 Q1012.498,488.5898 1011.7012,488.918 Q1010.623,489.3711 1009.3262,489.3711 Q1007.8105,489.3711 1006.6074,488.7461 Q1005.623,488.2461 1004.9355,487.1836 Q1004.248,486.1055 1004.248,484.8242 L1004.248,483.668 Q1004.248,482.3398 1004.8574,481.1992 Q1005.4824,480.043 1006.5762,479.4336 Q1007.6699,478.8086 1008.9043,478.8086 Q1009.6387,478.8086 1010.2793,478.9805 Q1010.9355,479.1367 1011.4824,479.4961 Z " fill="#000000"/><text fill="#000000" font-family="sans-serif" font-size="14" lengthAdjust="spacing" textLength="43.5859" x="1029.2168" y="489.418">Station</text><line style="stroke:#181818;stroke-width:0.5;" x1="914" x2="1155.5195" y1="499.6211" y2="499.6211"/><text fill="#000000" font-family="sans-serif" font-size="14" lengthAdjust="spacing" textLength="101.9238" x="919" y="518.7285">-nameID : String</text><text fill="#000000" font-family="sans-serif" font-size="14" lengthAdjust="spacing" textLength="132.2822" x="919" y="537.3496">-storageCapacity : int</text><text fill="#000000" font-family="sans-serif" font-size="14" lengthAdjust="spacing" textLength="110.5029" x="919" y="555.9707">-buildingSlots : int</text><text fill="#000000" font-family="sans-serif" font-size="14" lengthAdjust="spacing" textLength="185.9922" x="919" y="574.5918">-availableCargo : List&lt;Cargo&gt;</text><text fill="#000000" font-family="sans-serif" font-size="14" lengthAdjust="spacing" textLength="192.999" x="919" y="593.2129">-requestedCargo : List&lt;Cargo&gt;</text><line style="stroke:#181818;stroke-width:0.5;" x1="914" x2="1155.5195" y1="600.7266" y2="600.7266"/><text fill="#000000" font-family="sans-serif" font-size="14" lengthAdjust="spacing" textLength="177.8027" x="919" y="619.834">+getDetails() : StationDetails</text><text fill="#000000" font-family="sans-serif" font-size="14" lengthAdjust="spacing" textLength="193.3955" x="919" y="638.4551">+getBuildings() : List&lt;Building&gt;</text><text fill="#000000" font-family="sans-serif" font-size="14" lengthAdjust="spacing" textLength="231.5195" x="919" y="657.0762">+getDemandedCargo() : List&lt;Cargo&gt;</text><text fill="#000000" font-family="sans-serif" font-size="14" lengthAdjust="spacing" textLength="205.8369" x="919" y="675.6973">+getSupplyCargo() : List&lt;Cargo&gt;</text></g><!--class StationType--><g id="elem_StationType"><rect codeLine="67" fill="#F1F1F1" height="122.4844" id="StationType" rx="2.5" ry="2.5" style="stroke:#181818;stroke-width:0.5;" width="148.958" x="524.5" y="781.6211"/><ellipse cx="558.5116" cy="797.6211" fill="#ADD1B2" rx="11" ry="11" style="stroke:#181818;stroke-width:1.0;"/><path d="M561.2772,793.4961 Q561.4335,793.2773 561.621,793.168 Q561.8085,793.0586 562.0272,793.0586 Q562.4022,793.0586 562.6366,793.3242 Q562.871,793.5742 562.871,794.1836 L562.871,795.6367 Q562.871,796.2461 562.6366,796.5117 Q562.4022,796.7773 562.0272,796.7773 Q561.6835,796.7773 561.4804,796.5742 Q561.2772,796.3867 561.1679,795.8711 Q561.121,795.5117 560.9335,795.3242 Q560.6054,794.9492 559.996,794.7305 Q559.3866,794.5117 558.7616,794.5117 Q557.996,794.5117 557.3554,794.8398 Q556.7304,795.168 556.2304,795.918 Q555.746,796.668 555.746,797.6992 L555.746,798.793 Q555.746,800.0273 556.6366,800.8555 Q557.5272,801.668 559.121,801.668 Q560.0585,801.668 560.7147,801.418 Q561.1054,801.2617 561.5272,800.8242 Q561.7929,800.5586 561.9335,800.4805 Q562.0897,800.4023 562.2929,800.4023 Q562.621,800.4023 562.871,800.668 Q563.1366,800.918 563.1366,801.2617 Q563.1366,801.6055 562.7929,802.0117 Q562.2929,802.5898 561.496,802.918 Q560.4179,803.3711 559.121,803.3711 Q557.6054,803.3711 556.4022,802.7461 Q555.4179,802.2461 554.7304,801.1836 Q554.0429,800.1055 554.0429,798.8242 L554.0429,797.668 Q554.0429,796.3398 554.6522,795.1992 Q555.2772,794.043 556.371,793.4336 Q557.4647,792.8086 558.6991,792.8086 Q559.4335,792.8086 560.0741,792.9805 Q560.7304,793.1367 561.2772,793.4961 Z " fill="#000000"/><text fill="#000000" font-family="sans-serif" font-size="14" lengthAdjust="spacing" textLength="74.71" x="576.7364" y="803.418">StationType</text><line style="stroke:#181818;stroke-width:0.5;" x1="525.5" x2="672.458" y1="813.6211" y2="813.6211"/><text fill="#000000" font-family="sans-serif" font-size="14" lengthAdjust="spacing" textLength="87.9238" x="530.5" y="832.7285">-name : String</text><text fill="#000000" font-family="sans-serif" font-size="14" lengthAdjust="spacing" textLength="134.6133" x="530.5" y="851.3496">-economicRadius : int</text><text fill="#000000" font-family="sans-serif" font-size="14" lengthAdjust="spacing" textLength="56.793" x="530.5" y="869.9707">-cost : int</text><text fill="#000000" font-family="sans-serif" font-size="14" lengthAdjust="spacing" textLength="136.958" x="530.5" y="888.5918">-centerPoint : Position</text><line style="stroke:#181818;stroke-width:0.5;" x1="525.5" x2="672.458" y1="896.1055" y2="896.1055"/></g><!--class Building--><g id="elem_Building"><rect codeLine="74" fill="#F1F1F1" height="159.7266" id="Building" rx="2.5" ry="2.5" style="stroke:#181818;stroke-width:0.5;" width="166.0957" x="709" y="762.6211"/><ellipse cx="762.8911" cy="778.6211" fill="#ADD1B2" rx="11" ry="11" style="stroke:#181818;stroke-width:1.0;"/><path d="M765.6567,774.4961 Q765.813,774.2773 766.0005,774.168 Q766.188,774.0586 766.4067,774.0586 Q766.7817,774.0586 767.0161,774.3242 Q767.2505,774.5742 767.2505,775.1836 L767.2505,776.6367 Q767.2505,777.2461 767.0161,777.5117 Q766.7817,777.7773 766.4067,777.7773 Q766.063,777.7773 765.8599,777.5742 Q765.6567,777.3867 765.5474,776.8711 Q765.5005,776.5117 765.313,776.3242 Q764.9849,775.9492 764.3755,775.7305 Q763.7661,775.5117 763.1411,775.5117 Q762.3755,775.5117 761.7349,775.8398 Q761.1099,776.168 760.6099,776.918 Q760.1255,777.668 760.1255,778.6992 L760.1255,779.793 Q760.1255,781.0273 761.0161,781.8555 Q761.9067,782.668 763.5005,782.668 Q764.438,782.668 765.0942,782.418 Q765.4849,782.2617 765.9067,781.8242 Q766.1724,781.5586 766.313,781.4805 Q766.4692,781.4023 766.6724,781.4023 Q767.0005,781.4023 767.2505,781.668 Q767.5161,781.918 767.5161,782.2617 Q767.5161,782.6055 767.1724,783.0117 Q766.6724,783.5898 765.8755,783.918 Q764.7974,784.3711 763.5005,784.3711 Q761.9849,784.3711 760.7817,783.7461 Q759.7974,783.2461 759.1099,782.1836 Q758.4224,781.1055 758.4224,779.8242 L758.4224,778.668 Q758.4224,777.3398 759.0317,776.1992 Q759.6567,775.043 760.7505,774.4336 Q761.8442,773.8086 763.0786,773.8086 Q763.813,773.8086 764.4536,773.9805 Q765.1099,774.1367 765.6567,774.4961 Z " fill="#000000"/><text fill="#000000" font-family="sans-serif" font-size="14" lengthAdjust="spacing" textLength="49.8135" x="783.3911" y="784.418">Building</text><line style="stroke:#181818;stroke-width:0.5;" x1="710" x2="874.0957" y1="794.6211" y2="794.6211"/><text fill="#000000" font-family="sans-serif" font-size="14" lengthAdjust="spacing" textLength="101.9238" x="715" y="813.7285">-nameID : String</text><text fill="#000000" font-family="sans-serif" font-size="14" lengthAdjust="spacing" textLength="79.3652" x="715" y="832.3496">-type : String</text><text fill="#000000" font-family="sans-serif" font-size="14" lengthAdjust="spacing" textLength="125.2754" x="715" y="850.9707">-availabilityYear : int</text><text fill="#000000" font-family="sans-serif" font-size="14" lengthAdjust="spacing" textLength="115.9443" x="715" y="869.5918">-evolutionCost : int</text><text fill="#000000" font-family="sans-serif" font-size="14" lengthAdjust="spacing" textLength="154.0957" x="715" y="888.2129">-evolutionStagesLeft : int</text><text fill="#000000" font-family="sans-serif" font-size="14" lengthAdjust="spacing" textLength="87.1445" x="715" y="906.834">-effect : String</text><line style="stroke:#181818;stroke-width:0.5;" x1="710" x2="874.0957" y1="914.3477" y2="914.3477"/></g><!--class Cargo--><g id="elem_Cargo"><rect codeLine="83" fill="#F1F1F1" height="141.1055" id="Cargo" rx="2.5" ry="2.5" style="stroke:#181818;stroke-width:0.5;" width="258.6816" x="910.5" y="772.1211"/><ellipse cx="1016.5254" cy="788.1211" fill="#ADD1B2" rx="11" ry="11" style="stroke:#181818;stroke-width:1.0;"/><path d="M1019.291,783.9961 Q1019.4473,783.7773 1019.6348,783.668 Q1019.8223,783.5586 1020.041,783.5586 Q1020.416,783.5586 1020.6504,783.8242 Q1020.8848,784.0742 1020.8848,784.6836 L1020.8848,786.1367 Q1020.8848,786.7461 1020.6504,787.0117 Q1020.416,787.2773 1020.041,787.2773 Q1019.6973,787.2773 1019.4941,787.0742 Q1019.291,786.8867 1019.1816,786.3711 Q1019.1348,786.0117 1018.9473,785.8242 Q1018.6191,785.4492 1018.0098,785.2305 Q1017.4004,785.0117 1016.7754,785.0117 Q1016.0098,785.0117 1015.3691,785.3398 Q1014.7441,785.668 1014.2441,786.418 Q1013.7598,787.168 1013.7598,788.1992 L1013.7598,789.293 Q1013.7598,790.5273 1014.6504,791.3555 Q1015.541,792.168 1017.1348,792.168 Q1018.0723,792.168 1018.7285,791.918 Q1019.1191,791.7617 1019.541,791.3242 Q1019.8066,791.0586 1019.9473,790.9805 Q1020.1035,790.9023 1020.3066,790.9023 Q1020.6348,790.9023 1020.8848,791.168 Q1021.1504,791.418 1021.1504,791.7617 Q1021.1504,792.1055 1020.8066,792.5117 Q1020.3066,793.0898 1019.5098,793.418 Q1018.4316,793.8711 1017.1348,793.8711 Q1015.6191,793.8711 1014.416,793.2461 Q1013.4316,792.7461 1012.7441,791.6836 Q1012.0566,790.6055 1012.0566,789.3242 L1012.0566,788.168 Q1012.0566,786.8398 1012.666,785.6992 Q1013.291,784.543 1014.3848,783.9336 Q1015.4785,783.3086 1016.7129,783.3086 Q1017.4473,783.3086 1018.0879,783.4805 Q1018.7441,783.6367 1019.291,783.9961 Z " fill="#000000"/><text fill="#000000" font-family="sans-serif" font-size="14" lengthAdjust="spacing" textLength="38.1309" x="1037.0254" y="793.918">Cargo</text><line style="stroke:#181818;stroke-width:0.5;" x1="911.5" x2="1168.1816" y1="804.1211" y2="804.1211"/><text fill="#000000" font-family="sans-serif" font-size="14" lengthAdjust="spacing" textLength="87.9238" x="916.5" y="823.2285">-name : String</text><text fill="#000000" font-family="sans-serif" font-size="14" lengthAdjust="spacing" textLength="77.8135" x="916.5" y="841.8496">-amount : int</text><text fill="#000000" font-family="sans-serif" font-size="14" lengthAdjust="spacing" textLength="79.3721" x="916.5" y="860.4707">-lifespan : int</text><text fill="#000000" font-family="sans-serif" font-size="14" lengthAdjust="spacing" textLength="79.3652" x="916.5" y="879.0918">-type : String</text><text fill="#000000" font-family="sans-serif" font-size="14" lengthAdjust="spacing" textLength="246.6816" x="916.5" y="897.7129">-productionResources : List&lt;Resource&gt;</text><line style="stroke:#181818;stroke-width:0.5;" x1="911.5" x2="1168.1816" y1="905.2266" y2="905.2266"/></g><!--class Position--><g id="elem_Position"><rect codeLine="91" fill="#F1F1F1" height="141.1055" id="Position" rx="2.5" ry="2.5" style="stroke:#181818;stroke-width:0.5;" width="262.209" x="1205" y="772.1211"/><ellipse cx="1306.9512" cy="788.1211" fill="#ADD1B2" rx="11" ry="11" style="stroke:#181818;stroke-width:1.0;"/><path d="M1309.7168,783.9961 Q1309.873,783.7773 1310.0605,783.668 Q1310.248,783.5586 1310.4668,783.5586 Q1310.8418,783.5586 1311.0762,783.8242 Q1311.3105,784.0742 1311.3105,784.6836 L1311.3105,786.1367 Q1311.3105,786.7461 1311.0762,787.0117 Q1310.8418,787.2773 1310.4668,787.2773 Q1310.123,787.2773 1309.9199,787.0742 Q1309.7168,786.8867 1309.6074,786.3711 Q1309.5605,786.0117 1309.373,785.8242 Q1309.0449,785.4492 1308.4355,785.2305 Q1307.8262,785.0117 1307.2012,785.0117 Q1306.4355,785.0117 1305.7949,785.3398 Q1305.1699,785.668 1304.6699,786.418 Q1304.1855,787.168 1304.1855,788.1992 L1304.1855,789.293 Q1304.1855,790.5273 1305.0762,791.3555 Q1305.9668,792.168 1307.5605,792.168 Q1308.498,792.168 1309.1543,791.918 Q1309.5449,791.7617 1309.9668,791.3242 Q1310.2324,791.0586 1310.373,790.9805 Q1310.5293,790.9023 1310.7324,790.9023 Q1311.0605,790.9023 1311.3105,791.168 Q1311.5762,791.418 1311.5762,791.7617 Q1311.5762,792.1055 1311.2324,792.5117 Q1310.7324,793.0898 1309.9355,793.418 Q1308.8574,793.8711 1307.5605,793.8711 Q1306.0449,793.8711 1304.8418,793.2461 Q1303.8574,792.7461 1303.1699,791.6836 Q1302.4824,790.6055 1302.4824,789.3242 L1302.4824,788.168 Q1302.4824,786.8398 1303.0918,785.6992 Q1303.7168,784.543 1304.8105,783.9336 Q1305.9043,783.3086 1307.1387,783.3086 Q1307.873,783.3086 1308.5137,783.4805 Q1309.1699,783.6367 1309.7168,783.9961 Z " fill="#000000"/><text fill="#000000" font-family="sans-serif" font-size="14" lengthAdjust="spacing" textLength="49.8066" x="1327.4512" y="793.918">Position</text><line style="stroke:#181818;stroke-width:0.5;" x1="1206" x2="1466.209" y1="804.1211" y2="804.1211"/><text fill="#000000" font-family="sans-serif" font-size="14" lengthAdjust="spacing" textLength="38.1172" x="1211" y="823.2285">-x : int</text><text fill="#000000" font-family="sans-serif" font-size="14" lengthAdjust="spacing" textLength="38.1172" x="1211" y="841.8496">-y : int</text><text fill="#000000" font-family="sans-serif" font-size="14" lengthAdjust="spacing" textLength="122.1992" x="1211" y="860.4707">-occupied : boolean</text><line style="stroke:#181818;stroke-width:0.5;" x1="1206" x2="1466.209" y1="867.9844" y2="867.9844"/><text fill="#000000" font-family="sans-serif" font-size="14" lengthAdjust="spacing" textLength="148.251" x="1211" y="887.0918">+isOccupied() : boolean</text><text fill="#000000" font-family="sans-serif" font-size="14" lengthAdjust="spacing" textLength="250.209" x="1211" y="905.7129">+setOccupied(occupied : boolean) : void</text></g><!--class ListStationUI--><g id="elem_ListStationUI"><rect codeLine="99" fill="#F1F1F1" height="48" id="ListStationUI" rx="2.5" ry="2.5" style="stroke:#181818;stroke-width:0.5;" width="111.3721" x="251.5" y="93.1211"/><ellipse cx="266.5" cy="109.1211" fill="#ADD1B2" rx="11" ry="11" style="stroke:#181818;stroke-width:1.0;"/><path d="M269.2656,104.9961 Q269.4219,104.7773 269.6094,104.668 Q269.7969,104.5586 270.0156,104.5586 Q270.3906,104.5586 270.625,104.8242 Q270.8594,105.0742 270.8594,105.6836 L270.8594,107.1367 Q270.8594,107.7461 270.625,108.0117 Q270.3906,108.2773 270.0156,108.2773 Q269.6719,108.2773 269.4688,108.0742 Q269.2656,107.8867 269.1563,107.3711 Q269.1094,107.0117 268.9219,106.8242 Q268.5938,106.4492 267.9844,106.2305 Q267.375,106.0117 266.75,106.0117 Q265.9844,106.0117 265.3438,106.3398 Q264.7188,106.668 264.2188,107.418 Q263.7344,108.168 263.7344,109.1992 L263.7344,110.293 Q263.7344,111.5273 264.625,112.3555 Q265.5156,113.168 267.1094,113.168 Q268.0469,113.168 268.7031,112.918 Q269.0938,112.7617 269.5156,112.3242 Q269.7813,112.0586 269.9219,111.9805 Q270.0781,111.9023 270.2813,111.9023 Q270.6094,111.9023 270.8594,112.168 Q271.125,112.418 271.125,112.7617 Q271.125,113.1055 270.7813,113.5117 Q270.2813,114.0898 269.4844,114.418 Q268.4063,114.8711 267.1094,114.8711 Q265.5938,114.8711 264.3906,114.2461 Q263.4063,113.7461 262.7188,112.6836 Q262.0313,111.6055 262.0313,110.3242 L262.0313,109.168 Q262.0313,107.8398 262.6406,106.6992 Q263.2656,105.543 264.3594,104.9336 Q265.4531,104.3086 266.6875,104.3086 Q267.4219,104.3086 268.0625,104.4805 Q268.7188,104.6367 269.2656,104.9961 Z " fill="#000000"/><text fill="#000000" font-family="sans-serif" font-size="14" lengthAdjust="spacing" textLength="79.3721" x="280.5" y="114.918">ListStationUI</text><line style="stroke:#181818;stroke-width:0.5;" x1="252.5" x2="361.8721" y1="125.1211" y2="125.1211"/><line style="stroke:#181818;stroke-width:0.5;" x1="252.5" x2="361.8721" y1="133.1211" y2="133.1211"/></g><!--link ListStationUI to ListStationController--><g id="link_ListStationUI_ListStationController"><path codeLine="103" d="M307,141.2311 C307,171.2411 307,218.7111 307,260.5411 " fill="none" id="ListStationUI-to-ListStationController" style="stroke:#181818;stroke-width:1.0;stroke-dasharray:7.0,7.0;"/><polygon fill="#181818" points="307,266.5411,311,257.5411,307,261.5411,303,257.5411,307,266.5411" style="stroke:#181818;stroke-width:1.0;"/></g><!--link ListStationController to ApplicationSession--><g id="link_ListStationController_ApplicationSession"><path codeLine="104" d="M249.87,388.7811 C214.2,426.3511 175,467.6211 175,467.6211 C175,467.6211 154.3963,491.3228 130.5263,518.7828 " fill="none" id="ListStationController-to-ApplicationSession" style="stroke:#181818;stroke-width:1.0;stroke-dasharray:7.0,7.0;"/><polygon fill="#181818" points="126.59,523.3111,135.5133,519.1428,129.8702,519.5375,129.4756,513.8944,126.59,523.3111" style="stroke:#181818;stroke-width:1.0;"/></g><!--link ListStationController to MapRepository--><g id="link_ListStationController_MapRepository"><path codeLine="105" d="M364.13,388.7811 C399.8,426.3511 439,467.6211 439,467.6211 C439,467.6211 439,683.6211 439,683.6211 C439,683.6211 438,732.6211 438,732.6211 C438,732.6211 417.3857,764.2742 397.3157,795.0742 " fill="none" id="ListStationController-to-MapRepository" style="stroke:#181818;stroke-width:1.0;stroke-dasharray:7.0,7.0;"/><polygon fill="#181818" points="394.04,800.1011,402.3048,794.7445,396.7697,795.912,395.6022,790.3769,394.04,800.1011" style="stroke:#181818;stroke-width:1.0;"/></g><!--link ListStationController to Repositories--><g id="link_ListStationController_Repositories"><path codeLine="106" d="M307,388.8011 C307,430.0511 307,478.1811 307,517.3811 " fill="none" id="ListStationController-to-Repositories" style="stroke:#181818;stroke-width:1.0;stroke-dasharray:7.0,7.0;"/><polygon fill="#181818" points="307,523.3811,311,514.3811,307,518.3811,303,514.3811,307,523.3811" style="stroke:#181818;stroke-width:1.0;"/></g><!--link Repositories to MapRepository--><g id="link_Repositories_MapRepository"><path codeLine="107" d="M318.57,627.7111 C329.91,677.8011 345.6542,747.3694 356.2142,793.9794 " fill="none" id="Repositories-to-MapRepository" style="stroke:#181818;stroke-width:1.0;"/><polygon fill="#181818" points="357.54,799.8311,359.4525,790.1697,356.4352,794.9547,351.6502,791.9374,357.54,799.8311" style="stroke:#181818;stroke-width:1.0;"/><text fill="#000000" font-family="sans-serif" font-size="13" lengthAdjust="spacing" textLength="87.4263" x="342" y="728.6494">mapRepository</text></g><!--reverse link Map to City--><g id="link_Map_City"><path codeLine="108" d="M1153.3858,196.7093 C1130.1858,222.1593 1112.26,241.8411 1089.88,266.3911 " fill="none" id="Map-backto-City" style="stroke:#181818;stroke-width:1.0;"/><polygon fill="#181818" points="1161.47,187.8411,1154.4718,189.5805,1153.3858,196.7093,1160.384,194.9699,1161.47,187.8411" style="stroke:#181818;stroke-width:1.0;"/><text fill="#000000" font-family="sans-serif" font-size="13" lengthAdjust="spacing" textLength="48.4199" x="1131" y="232.6494">contains</text><text fill="#000000" font-family="sans-serif" font-size="13" lengthAdjust="spacing" textLength="7.23" x="1147.8794" y="209.6768">1</text><text fill="#000000" font-family="sans-serif" font-size="13" lengthAdjust="spacing" textLength="5.0591" x="1090.9433" y="255.3457">*</text></g><!--reverse link Map to Size--><g id="link_Map_Size"><path codeLine="109" d="M1225,199.8411 C1225,225.2911 1225,241.8411 1225,266.3911 " fill="none" id="Map-backto-Size" style="stroke:#181818;stroke-width:1.0;"/><polygon fill="#181818" points="1225,187.8411,1221,193.8411,1225,199.8411,1229,193.8411,1225,187.8411" style="stroke:#181818;stroke-width:1.0;"/><text fill="#000000" font-family="sans-serif" font-size="13" lengthAdjust="spacing" textLength="20.96" x="1226" y="232.6494">has</text><text fill="#000000" font-family="sans-serif" font-size="13" lengthAdjust="spacing" textLength="7.23" x="1217.6631" y="209.6768">1</text><text fill="#000000" font-family="sans-serif" font-size="13" lengthAdjust="spacing" textLength="7.23" x="1217.6152" y="255.3457">1</text></g><!--reverse link City to Station--><g id="link_City_Station"><path codeLine="110" d="M1035,400.8011 C1035,424.5511 1035,440.5811 1035,467.5711 " fill="none" id="City-backto-Station" style="stroke:#181818;stroke-width:1.0;"/><polygon fill="#181818" points="1035,388.8011,1031,394.8011,1035,400.8011,1039,394.8011,1035,388.8011" style="stroke:#181818;stroke-width:1.0;"/><text fill="#000000" font-family="sans-serif" font-size="13" lengthAdjust="spacing" textLength="48.4199" x="1036" y="433.6494">contains</text><text fill="#000000" font-family="sans-serif" font-size="13" lengthAdjust="spacing" textLength="7.23" x="1027.5911" y="411.3099">1</text><text fill="#000000" font-family="sans-serif" font-size="13" lengthAdjust="spacing" textLength="5.0591" x="1029.8432" y="456.4291">*</text></g><!--link Station to StationType--><g id="link_Station_StationType"><path codeLine="111" d="M912.75,642.7211 C813.87,696.1811 691,762.6211 691,762.6211 C691,762.6211 686.3422,766.6225 673.7522,777.4325 " fill="none" id="Station-to-StationType" style="stroke:#181818;stroke-width:1.0;"/><polygon fill="#181818" points="669.2,781.3411,678.6341,778.513,672.9935,778.0839,673.4226,772.4434,669.2,781.3411" style="stroke:#181818;stroke-width:1.0;"/><text fill="#000000" font-family="sans-serif" font-size="13" lengthAdjust="spacing" textLength="59.9917" x="776" y="728.6494">defined by</text><text fill="#000000" font-family="sans-serif" font-size="13" lengthAdjust="spacing" textLength="5.0591" x="899.7755" y="643.5259">*</text><text fill="#000000" font-family="sans-serif" font-size="13" lengthAdjust="spacing" textLength="7.23" x="669.9279" y="770.2899">1</text></g><!--reverse link Station to Building--><g id="link_Station_Building"><path codeLine="112" d="M928.7512,692.4868 C904.6512,718.7768 887.38,737.6111 864.71,762.3211 " fill="none" id="Station-backto-Building" style="stroke:#181818;stroke-width:1.0;"/><polygon fill="#181818" points="936.86,683.6411,929.857,685.361,928.7512,692.4868,935.7541,690.7669,936.86,683.6411" style="stroke:#181818;stroke-width:1.0;"/><text fill="#000000" font-family="sans-serif" font-size="13" lengthAdjust="spacing" textLength="48.4199" x="908" y="728.6494">contains</text><text fill="#000000" font-family="sans-serif" font-size="13" lengthAdjust="spacing" textLength="7.23" x="923.3714" y="705.1564">1</text><text fill="#000000" font-family="sans-serif" font-size="13" lengthAdjust="spacing" textLength="5.0591" x="865.9614" y="751.4658">*</text></g><!--reverse link Station to Cargo--><g id="link_Station_Cargo"><path codeLine="113" d="M1037.2459,695.639 C1037.8059,725.379 1038.17,744.8911 1038.68,771.8811 " fill="none" id="Station-backto-Cargo" style="stroke:#181818;stroke-width:1.0;"/><polygon fill="#181818" points="1037.02,683.6411,1033.1337,689.7153,1037.2459,695.639,1041.1323,689.5647,1037.02,683.6411" style="stroke:#181818;stroke-width:1.0;"/><text fill="#000000" font-family="sans-serif" font-size="13" lengthAdjust="spacing" textLength="35.4009" x="1039" y="728.6494">stores</text><text fill="#000000" font-family="sans-serif" font-size="13" lengthAdjust="spacing" textLength="7.23" x="1029.9479" y="705.1564">1</text><text fill="#000000" font-family="sans-serif" font-size="13" lengthAdjust="spacing" textLength="5.0591" x="1033.3055" y="760.7474">*</text></g><!--link Station to Position--><g id="link_Station_Position"><path codeLine="114" d="M1156.56,683.6411 C1190.33,713.3811 1221.6264,740.9266 1252.2864,767.9166 " fill="none" id="Station-to-Position" style="stroke:#181818;stroke-width:1.0;"/><polygon fill="#181818" points="1256.79,771.8811,1252.6776,762.9319,1253.037,768.5773,1247.3916,768.9367,1256.79,771.8811" style="stroke:#181818;stroke-width:1.0;"/><text fill="#000000" font-family="sans-serif" font-size="13" lengthAdjust="spacing" textLength="56.3735" x="1205" y="728.6494">located at</text><text fill="#000000" font-family="sans-serif" font-size="13" lengthAdjust="spacing" textLength="7.23" x="1157.146" y="705.1564">1</text><text fill="#000000" font-family="sans-serif" font-size="13" lengthAdjust="spacing" textLength="7.23" x="1241.2616" y="760.7474">1</text></g><!--link Map to Position--><g id="link_Map_Position"><path codeLine="115" d="M1260.77,188.0211 C1280.49,226.5411 1301,266.6211 1301,266.6211 C1301,266.6211 1322.0754,612.9022 1331.3954,765.9922 " fill="none" id="Map-to-Position" style="stroke:#181818;stroke-width:1.0;"/><polygon fill="#181818" points="1331.76,771.9811,1335.2057,762.7547,1331.4562,766.9903,1327.2205,763.2408,1331.76,771.9811" style="stroke:#181818;stroke-width:1.0;"/><text fill="#000000" font-family="sans-serif" font-size="13" lengthAdjust="spacing" textLength="34.6709" x="1312" y="433.6494">tracks</text><text fill="#000000" font-family="sans-serif" font-size="13" lengthAdjust="spacing" textLength="7.23" x="1256.9542" y="209.8745">1</text><text fill="#000000" font-family="sans-serif" font-size="13" lengthAdjust="spacing" textLength="5.0591" x="1326.0572" y="760.8577">*</text></g><!--SRC=[VLPDRzim3BtxLmYvB6tXeZiD28O0NNfOW0uhwdN3ZehDE48LoHFbTjcm_pvAjYMvTdjoI3uzVeeAFWhLSCEFhE7b8w-Xi2S9p41fkQebP1W0UE2LVXQgPdikCRL8eS2U6c2DbYSd9BPISiHhQutOjHQsfLQ5-0FiAikiiEHfu-piHl2Qq2lsK5nzO3cx5MXPORaLMY7ZgcBV1Jop6x1SICmopygkcqQAqeCAGAGF-vinba_ropFINzHWjmefiHA2OjCQ0yf6tB-1tSNGXx3HoXej9HZlm9sxVg98-4x25zxWyeojFFuZIMk7a9fNz7jvvCssSbOI-fD3Mj7cJ_RgzHZLPxp4JkpmOrkC-1uQZS9g8m2xIf2Be3nrKKHvKX82f1JEFY9OdaqeWk-HEbHflZXxeQR5IPcwu1K_mlR6vsjex9og5FRaPwDdt93iA7DYRD6QaN7Rwpm0tTGH5Ns6pWjBISReEguGXXDZ7ACeV9fksbRihl_fNGpp-cP74uy149pwk-6TFelA7WWeb7NY0KHzi45sV3ySmfD5tMSF2yh8stbwjQv8NQFBl-6q1LpUmU-k5R8YK26rnQZcm_HlkAbrgA0JVBKD_6e1BLJpTXVgCDap0zq1FlMkau8DgiXnfDtGUqawcVefMje6ftd4o_fySqjilkT0cqiVHNdFAz4cbIWrsaIYLGBcJfEO3aVmCoJmQYFy6aqLVQM5fBRy16wYBtZIikssKnf2K5DEDU0jx5FZVa-RFJg8q-xxD9ywF-fM9IHIx04Rhg9c4dLZTDMMBefxGDsQ4iAj61H9zOSwTVv_Hzva47LPjes0YZGxhILmT-Kk17xjzRwtYGN11jFqh0C_QL7DRlk7BGL2XdUq3MLtPm-YmMmCkRnSppyHsVp3uV3JX-aDy7ZHleuRhUpH4v3dBrWewz52pzokNRnViFCyPulpHRVqLencdMwYmh6TlaMtHGySCmzDpmux9Za-g9pP1UCfagksOXNGOq2TsPqYEE4CzsMED8sxNpDkZy4OClYzYqjRQke1EUKs9EXHvoEKDVIF2BF_]--></g></svg>