<svg xmlns="http://www.w3.org/2000/svg" xmlns:xlink="http://www.w3.org/1999/xlink" contentStyleType="text/css" height="1114px" preserveAspectRatio="none" style="width:1578px;height:1114px;background:#FFFFFF;" version="1.1" viewBox="0 0 1578 1114" width="1578px" zoomAndPan="magnify"><defs/><g><rect fill="#FFFFFF" height="956.1481" style="stroke:#181818;stroke-width:1.0;" width="10" x="175.7632" y="91.8419"/><rect fill="#FFFFFF" height="31.706" style="stroke:#181818;stroke-width:1.0;" width="10" x="310.0337" y="150.2539"/><rect fill="#FFFFFF" height="31.706" style="stroke:#181818;stroke-width:1.0;" width="10" x="417.4314" y="213.6659"/><rect fill="#FFFFFF" height="95.118" style="stroke:#181818;stroke-width:1.0;" width="10" x="535.7491" y="277.0779"/><rect fill="#FFFFFF" height="31.706" style="stroke:#181818;stroke-width:1.0;" width="10" x="683.5132" y="308.784"/><rect fill="#FFFFFF" height="31.706" style="stroke:#181818;stroke-width:1.0;" width="10" x="742.1001" y="403.902"/><rect fill="#FFFFFF" height="31.706" style="stroke:#181818;stroke-width:1.0;" width="10" x="796.7599" y="525.7261"/><rect fill="#FFFFFF" height="340.7338" style="stroke:#181818;stroke-width:1.0;" width="10" x="1014.3273" y="659.5501"/><rect fill="#FFFFFF" height="36.706" style="stroke:#181818;stroke-width:1.0;" width="10" x="1019.3273" y="831.7361"/><rect fill="#FFFFFF" height="30" style="stroke:#181818;stroke-width:1.0;" width="10" x="1250.9025" y="762.0301"/><rect fill="#FFFFFF" height="30" style="stroke:#181818;stroke-width:1.0;" width="10" x="1378.2291" y="931.578"/><rect fill="none" height="901.4421" style="stroke:#000000;stroke-width:1.5;" width="1487.9452" x="84.2534" y="106.8419"/><rect fill="none" height="114.8241" style="stroke:#000000;stroke-width:1.5;" width="851.5671" x="94.2534" y="482.314"/><rect fill="none" height="250.9599" style="stroke:#000000;stroke-width:1.5;" width="626.378" x="935.8205" y="718.6181"/><line style="stroke:#181818;stroke-width:0.5;stroke-dasharray:5.0,5.0;" x1="180.2534" x2="180.2534" y1="58.1358" y2="1056.99"/><line style="stroke:#181818;stroke-width:0.5;stroke-dasharray:5.0,5.0;" x1="314.2729" x2="314.2729" y1="58.1358" y2="1056.99"/><line style="stroke:#181818;stroke-width:0.5;stroke-dasharray:5.0,5.0;" x1="421.7946" x2="421.7946" y1="58.1358" y2="1056.99"/><line style="stroke:#181818;stroke-width:0.5;stroke-dasharray:5.0,5.0;" x1="540.0683" x2="540.0683" y1="58.1358" y2="1056.99"/><line style="stroke:#181818;stroke-width:0.5;stroke-dasharray:5.0,5.0;" x1="688.3832" x2="688.3832" y1="58.1358" y2="1056.99"/><line style="stroke:#181818;stroke-width:0.5;stroke-dasharray:5.0,5.0;" x1="746.6431" x2="746.6431" y1="58.1358" y2="1056.99"/><line style="stroke:#181818;stroke-width:0.5;stroke-dasharray:5.0,5.0;" x1="801.557" x2="801.557" y1="58.1358" y2="1056.99"/><line style="stroke:#181818;stroke-width:0.5;stroke-dasharray:5.0,5.0;" x1="883.9629" x2="883.9629" y1="58.1358" y2="1056.99"/><line style="stroke:#181818;stroke-width:0.5;stroke-dasharray:5.0,5.0;" x1="1018.8205" x2="1018.8205" y1="58.1358" y2="1056.99"/><line style="stroke:#181818;stroke-width:0.5;stroke-dasharray:5.0,5.0;" x1="1255.4737" x2="1255.4737" y1="58.1358" y2="1056.99"/><line style="stroke:#181818;stroke-width:0.5;stroke-dasharray:5.0,5.0;" x1="1382.3313" x2="1382.3313" y1="699.5841" y2="1056.99"/><line style="stroke:#181818;stroke-width:0.5;stroke-dasharray:5.0,5.0;" x1="1505.1269" x2="1505.1269" y1="886.304" y2="1056.99"/><rect fill="#E3E3E3" height="33.0679" rx="2.5" ry="2.5" style="stroke:#181818;stroke-width:0.5;" width="153.0195" x="104.2534" y="24.0679"/><text fill="#000000" font-family="sans-serif" font-size="14" lengthAdjust="spacing" textLength="139.0195" x="111.2534" y="46.0339">:ListStationController</text><rect fill="#E3E3E3" height="33.0679" rx="2.5" ry="2.5" style="stroke:#181818;stroke-width:0.5;" width="153.0195" x="104.2534" y="1055.99"/><text fill="#000000" font-family="sans-serif" font-size="14" lengthAdjust="spacing" textLength="139.0195" x="111.2534" y="1077.9559">:ListStationController</text><rect fill="#E3E3E3" height="33.0679" rx="2.5" ry="2.5" style="stroke:#181818;stroke-width:0.5;" width="95.5217" x="267.2729" y="24.0679"/><text fill="#000000" font-family="sans-serif" font-size="14" lengthAdjust="spacing" textLength="81.5217" x="274.2729" y="46.0339">Repositories</text><rect fill="#E3E3E3" height="33.0679" rx="2.5" ry="2.5" style="stroke:#181818;stroke-width:0.5;" width="95.5217" x="267.2729" y="1055.99"/><text fill="#000000" font-family="sans-serif" font-size="14" lengthAdjust="spacing" textLength="81.5217" x="274.2729" y="1077.9559">Repositories</text><rect fill="#E3E3E3" height="52.1358" rx="2.5" ry="2.5" style="stroke:#181818;stroke-width:0.5;" width="99.2737" x="372.7946" y="5"/><text fill="#000000" font-family="sans-serif" font-size="14" lengthAdjust="spacing" textLength="78.5957" x="383.1336" y="26.9659">repositories</text><text fill="#000000" font-family="sans-serif" font-size="14" lengthAdjust="spacing" textLength="85.2737" x="379.7946" y="46.0339">:Repositories</text><rect fill="#E3E3E3" height="52.1358" rx="2.5" ry="2.5" style="stroke:#181818;stroke-width:0.5;" width="99.2737" x="372.7946" y="1055.99"/><text fill="#000000" font-family="sans-serif" font-size="14" lengthAdjust="spacing" textLength="78.5957" x="383.1336" y="1077.9559">repositories</text><text fill="#000000" font-family="sans-serif" font-size="14" lengthAdjust="spacing" textLength="85.2737" x="379.7946" y="1097.0238">:Repositories</text><rect fill="#E3E3E3" height="52.1358" rx="2.5" ry="2.5" style="stroke:#181818;stroke-width:0.5;" width="117.3616" x="482.0683" y="5"/><text fill="#000000" font-family="sans-serif" font-size="14" lengthAdjust="spacing" textLength="100.0016" x="490.7483" y="26.9659">mapRepository</text><text fill="#000000" font-family="sans-serif" font-size="14" lengthAdjust="spacing" textLength="103.3616" x="489.0683" y="46.0339">:MapRepository</text><rect fill="#E3E3E3" height="52.1358" rx="2.5" ry="2.5" style="stroke:#181818;stroke-width:0.5;" width="117.3616" x="482.0683" y="1055.99"/><text fill="#000000" font-family="sans-serif" font-size="14" lengthAdjust="spacing" textLength="100.0016" x="490.7483" y="1077.9559">mapRepository</text><text fill="#000000" font-family="sans-serif" font-size="14" lengthAdjust="spacing" textLength="103.3616" x="489.0683" y="1097.0238">:MapRepository</text><rect fill="#E3E3E3" height="52.1358" rx="2.5" ry="2.5" style="stroke:#181818;stroke-width:0.5;" width="50.2599" x="663.3832" y="5"/><text fill="#000000" font-family="sans-serif" font-size="14" lengthAdjust="spacing" textLength="36.2599" x="670.3832" y="26.9659">maps</text><text fill="#000000" font-family="sans-serif" font-size="14" lengthAdjust="spacing" textLength="32.9139" x="672.0562" y="46.0339">:Map</text><rect fill="#E3E3E3" height="52.1358" rx="2.5" ry="2.5" style="stroke:#181818;stroke-width:0.5;" width="50.2599" x="663.3832" y="1055.99"/><text fill="#000000" font-family="sans-serif" font-size="14" lengthAdjust="spacing" textLength="36.2599" x="670.3832" y="1077.9559">maps</text><text fill="#000000" font-family="sans-serif" font-size="14" lengthAdjust="spacing" textLength="32.9139" x="672.0562" y="1097.0238">:Map</text><rect fill="#E3E3E3" height="52.1358" rx="2.5" ry="2.5" style="stroke:#181818;stroke-width:0.5;" width="46.9139" x="723.6431" y="5"/><text fill="#000000" font-family="sans-serif" font-size="14" lengthAdjust="spacing" textLength="29.5539" x="732.3231" y="26.9659">map</text><text fill="#000000" font-family="sans-serif" font-size="14" lengthAdjust="spacing" textLength="32.9139" x="730.6431" y="46.0339">:Map</text><rect fill="#E3E3E3" height="52.1358" rx="2.5" ry="2.5" style="stroke:#181818;stroke-width:0.5;" width="46.9139" x="723.6431" y="1055.99"/><text fill="#000000" font-family="sans-serif" font-size="14" lengthAdjust="spacing" textLength="29.5539" x="732.3231" y="1077.9559">map</text><text fill="#000000" font-family="sans-serif" font-size="14" lengthAdjust="spacing" textLength="32.9139" x="730.6431" y="1097.0238">:Map</text><rect fill="#E3E3E3" height="52.1358" rx="2.5" ry="2.5" style="stroke:#181818;stroke-width:0.5;" width="42.4059" x="780.557" y="5"/><text fill="#000000" font-family="sans-serif" font-size="14" lengthAdjust="spacing" textLength="22.5259" x="790.497" y="26.9659">city</text><text fill="#000000" font-family="sans-serif" font-size="14" lengthAdjust="spacing" textLength="28.4059" x="787.557" y="46.0339">:City</text><rect fill="#E3E3E3" height="52.1358" rx="2.5" ry="2.5" style="stroke:#181818;stroke-width:0.5;" width="42.4059" x="780.557" y="1055.99"/><text fill="#000000" font-family="sans-serif" font-size="14" lengthAdjust="spacing" textLength="22.5259" x="790.497" y="1077.9559">city</text><text fill="#000000" font-family="sans-serif" font-size="14" lengthAdjust="spacing" textLength="28.4059" x="787.557" y="1097.0238">:City</text><rect fill="#E3E3E3" height="52.1358" rx="2.5" ry="2.5" style="stroke:#181818;stroke-width:0.5;" width="102.8577" x="832.9629" y="5"/><text fill="#000000" font-family="sans-serif" font-size="14" lengthAdjust="spacing" textLength="65.3658" x="851.7088" y="26.9659">listStation</text><text fill="#000000" font-family="sans-serif" font-size="14" lengthAdjust="spacing" textLength="88.8577" x="839.9629" y="46.0339">:List&lt;Station&gt;</text><rect fill="#E3E3E3" height="52.1358" rx="2.5" ry="2.5" style="stroke:#181818;stroke-width:0.5;" width="102.8577" x="832.9629" y="1055.99"/><text fill="#000000" font-family="sans-serif" font-size="14" lengthAdjust="spacing" textLength="65.3658" x="851.7088" y="1077.9559">listStation</text><text fill="#000000" font-family="sans-serif" font-size="14" lengthAdjust="spacing" textLength="88.8577" x="839.9629" y="1097.0238">:List&lt;Station&gt;</text><rect fill="#E3E3E3" height="33.0679" rx="2.5" ry="2.5" style="stroke:#181818;stroke-width:0.5;" width="147.0135" x="945.8205" y="24.0679"/><text fill="#000000" font-family="sans-serif" font-size="14" lengthAdjust="spacing" textLength="133.0135" x="952.8205" y="46.0339">:StationTypeMapper</text><rect fill="#E3E3E3" height="33.0679" rx="2.5" ry="2.5" style="stroke:#181818;stroke-width:0.5;" width="147.0135" x="945.8205" y="1055.99"/><text fill="#000000" font-family="sans-serif" font-size="14" lengthAdjust="spacing" textLength="133.0135" x="952.8205" y="1077.9559">:StationTypeMapper</text><rect fill="#E3E3E3" height="33.0679" rx="2.5" ry="2.5" style="stroke:#181818;stroke-width:0.5;" width="102.8577" x="1204.4737" y="24.0679"/><text fill="#000000" font-family="sans-serif" font-size="14" lengthAdjust="spacing" textLength="88.8577" x="1211.4737" y="46.0339">:List&lt;Station&gt;</text><rect fill="#E3E3E3" height="33.0679" rx="2.5" ry="2.5" style="stroke:#181818;stroke-width:0.5;" width="102.8577" x="1204.4737" y="1055.99"/><text fill="#000000" font-family="sans-serif" font-size="14" lengthAdjust="spacing" textLength="88.8577" x="1211.4737" y="1077.9559">:List&lt;Station&gt;</text><rect fill="#E3E3E3" height="33.0679" rx="2.5" ry="2.5" style="stroke:#181818;stroke-width:0.5;" width="131.7955" x="1317.3313" y="1055.99"/><text fill="#000000" font-family="sans-serif" font-size="14" lengthAdjust="spacing" textLength="117.7955" x="1324.3313" y="1077.9559">:List&lt;StationDTO&gt;</text><rect fill="#E3E3E3" height="52.1358" rx="2.5" ry="2.5" style="stroke:#181818;stroke-width:0.5;" width="93.0717" x="1459.1269" y="1055.99"/><text fill="#000000" font-family="sans-serif" font-size="14" lengthAdjust="spacing" textLength="74.3397" x="1468.4929" y="1077.9559">stationDTO</text><text fill="#000000" font-family="sans-serif" font-size="14" lengthAdjust="spacing" textLength="79.0717" x="1466.1269" y="1097.0238">:StationDTO</text><rect fill="#FFFFFF" height="956.1481" style="stroke:#181818;stroke-width:1.0;" width="10" x="175.7632" y="91.8419"/><rect fill="#FFFFFF" height="31.706" style="stroke:#181818;stroke-width:1.0;" width="10" x="310.0337" y="150.2539"/><rect fill="#FFFFFF" height="31.706" style="stroke:#181818;stroke-width:1.0;" width="10" x="417.4314" y="213.6659"/><rect fill="#FFFFFF" height="95.118" style="stroke:#181818;stroke-width:1.0;" width="10" x="535.7491" y="277.0779"/><rect fill="#FFFFFF" height="31.706" style="stroke:#181818;stroke-width:1.0;" width="10" x="683.5132" y="308.784"/><rect fill="#FFFFFF" height="31.706" style="stroke:#181818;stroke-width:1.0;" width="10" x="742.1001" y="403.902"/><rect fill="#FFFFFF" height="31.706" style="stroke:#181818;stroke-width:1.0;" width="10" x="796.7599" y="525.7261"/><rect fill="#FFFFFF" height="340.7338" style="stroke:#181818;stroke-width:1.0;" width="10" x="1014.3273" y="659.5501"/><rect fill="#FFFFFF" height="36.706" style="stroke:#181818;stroke-width:1.0;" width="10" x="1019.3273" y="831.7361"/><rect fill="#FFFFFF" height="30" style="stroke:#181818;stroke-width:1.0;" width="10" x="1250.9025" y="762.0301"/><rect fill="#FFFFFF" height="30" style="stroke:#181818;stroke-width:1.0;" width="10" x="1378.2291" y="931.578"/><polygon fill="#181818" points="163.7632,87.8419,173.7632,91.8419,163.7632,95.8419,167.7632,91.8419" style="stroke:#181818;stroke-width:1.0;"/><line style="stroke:#181818;stroke-width:1.0;" x1="0" x2="169.7632" y1="91.8419" y2="91.8419"/><text fill="#000000" font-family="sans-serif" font-size="13" font-weight="bold" lengthAdjust="spacing" textLength="7.436" x="7" y="86.0328">2</text><text fill="#000000" font-family="sans-serif" font-size="13" lengthAdjust="spacing" textLength="145.3271" x="18.436" y="86.0328">getStationsDTO(mapID)</text><path d="M84.2534,106.8419 L256.1465,106.8419 L256.1465,116.5479 L246.1465,126.5479 L84.2534,126.5479 L84.2534,106.8419 " fill="#EEEEEE" style="stroke:#000000;stroke-width:1.5;"/><rect fill="none" height="901.4421" style="stroke:#000000;stroke-width:1.5;" width="1487.9452" x="84.2534" y="106.8419"/><text fill="#000000" font-family="sans-serif" font-size="13" font-weight="bold" lengthAdjust="spacing" textLength="126.8931" x="99.2534" y="121.7389">Get StationDTO List</text><polygon fill="#181818" points="298.0337,146.2539,308.0337,150.2539,298.0337,154.2539,302.0337,150.2539" style="stroke:#181818;stroke-width:1.0;"/><line style="stroke:#181818;stroke-width:1.0;" x1="185.7632" x2="304.0337" y1="150.2539" y2="150.2539"/><text fill="#000000" font-family="sans-serif" font-size="13" font-weight="bold" lengthAdjust="spacing" textLength="18.525" x="192.7632" y="144.4449">2.1</text><text fill="#000000" font-family="sans-serif" font-size="13" lengthAdjust="spacing" textLength="80.0801" x="215.2882" y="144.4449">getInstance()</text><polygon fill="#181818" points="196.7632,177.9599,186.7632,181.9599,196.7632,185.9599,192.7632,181.9599" style="stroke:#181818;stroke-width:1.0;"/><line style="stroke:#181818;stroke-width:1.0;stroke-dasharray:2.0,2.0;" x1="190.7632" x2="314.0337" y1="181.9599" y2="181.9599"/><text fill="#000000" font-family="sans-serif" font-size="13" font-weight="bold" lengthAdjust="spacing" textLength="18.525" x="202.7632" y="176.1509">2.2</text><text fill="#000000" font-family="sans-serif" font-size="13" lengthAdjust="spacing" textLength="72.9821" x="225.2882" y="176.1509">repositories</text><polygon fill="#181818" points="405.4314,209.6659,415.4314,213.6659,405.4314,217.6659,409.4314,213.6659" style="stroke:#181818;stroke-width:1.0;"/><line style="stroke:#181818;stroke-width:1.0;" x1="185.7632" x2="411.4314" y1="213.6659" y2="213.6659"/><text fill="#000000" font-family="sans-serif" font-size="13" font-weight="bold" lengthAdjust="spacing" textLength="18.525" x="192.7632" y="207.8569">2.3</text><text fill="#000000" font-family="sans-serif" font-size="13" lengthAdjust="spacing" textLength="120.3151" x="215.2882" y="207.8569">getMapRepository()</text><polygon fill="#181818" points="196.7632,241.3719,186.7632,245.3719,196.7632,249.3719,192.7632,245.3719" style="stroke:#181818;stroke-width:1.0;"/><line style="stroke:#181818;stroke-width:1.0;stroke-dasharray:2.0,2.0;" x1="190.7632" x2="421.4314" y1="245.3719" y2="245.3719"/><text fill="#000000" font-family="sans-serif" font-size="13" font-weight="bold" lengthAdjust="spacing" textLength="18.525" x="202.7632" y="239.5629">2.4</text><text fill="#000000" font-family="sans-serif" font-size="13" lengthAdjust="spacing" textLength="92.8591" x="225.2882" y="239.5629">mapRepository</text><polygon fill="#181818" points="523.7491,273.0779,533.7491,277.0779,523.7491,281.0779,527.7491,277.0779" style="stroke:#181818;stroke-width:1.0;"/><line style="stroke:#181818;stroke-width:1.0;" x1="185.7632" x2="529.7491" y1="277.0779" y2="277.0779"/><text fill="#000000" font-family="sans-serif" font-size="13" font-weight="bold" lengthAdjust="spacing" textLength="18.525" x="192.7632" y="271.2689">2.5</text><text fill="#000000" font-family="sans-serif" font-size="13" lengthAdjust="spacing" textLength="96.2391" x="215.2882" y="271.2689">getMap(mapID)</text><polygon fill="#181818" points="671.5132,304.784,681.5132,308.784,671.5132,312.784,675.5132,308.784" style="stroke:#181818;stroke-width:1.0;"/><line style="stroke:#181818;stroke-width:1.0;" x1="545.7491" x2="677.5132" y1="308.784" y2="308.784"/><text fill="#000000" font-family="sans-serif" font-size="13" font-weight="bold" lengthAdjust="spacing" textLength="18.525" x="552.7491" y="302.975">2.6</text><text fill="#000000" font-family="sans-serif" font-size="13" lengthAdjust="spacing" textLength="96.2391" x="575.2741" y="302.975">getMap(mapID)</text><polygon fill="#181818" points="556.7491,336.49,546.7491,340.49,556.7491,344.49,552.7491,340.49" style="stroke:#181818;stroke-width:1.0;"/><line style="stroke:#181818;stroke-width:1.0;stroke-dasharray:2.0,2.0;" x1="550.7491" x2="687.5132" y1="340.49" y2="340.49"/><text fill="#000000" font-family="sans-serif" font-size="13" font-weight="bold" lengthAdjust="spacing" textLength="18.525" x="562.7491" y="334.681">2.7</text><text fill="#000000" font-family="sans-serif" font-size="13" lengthAdjust="spacing" textLength="27.443" x="585.2741" y="334.681">map</text><polygon fill="#181818" points="196.7632,368.196,186.7632,372.196,196.7632,376.196,192.7632,372.196" style="stroke:#181818;stroke-width:1.0;"/><line style="stroke:#181818;stroke-width:1.0;stroke-dasharray:2.0,2.0;" x1="190.7632" x2="539.7491" y1="372.196" y2="372.196"/><text fill="#000000" font-family="sans-serif" font-size="13" font-weight="bold" lengthAdjust="spacing" textLength="18.525" x="202.7632" y="366.387">2.8</text><text fill="#000000" font-family="sans-serif" font-size="13" lengthAdjust="spacing" textLength="27.443" x="225.2882" y="366.387">map</text><polygon fill="#181818" points="730.1001,399.902,740.1001,403.902,730.1001,407.902,734.1001,403.902" style="stroke:#181818;stroke-width:1.0;"/><line style="stroke:#181818;stroke-width:1.0;" x1="185.7632" x2="736.1001" y1="403.902" y2="403.902"/><text fill="#000000" font-family="sans-serif" font-size="13" font-weight="bold" lengthAdjust="spacing" textLength="18.525" x="192.7632" y="398.093">2.9</text><text fill="#000000" font-family="sans-serif" font-size="13" lengthAdjust="spacing" textLength="60.9961" x="215.2882" y="398.093">getCities()</text><polygon fill="#181818" points="196.7632,431.608,186.7632,435.608,196.7632,439.608,192.7632,435.608" style="stroke:#181818;stroke-width:1.0;"/><line style="stroke:#181818;stroke-width:1.0;stroke-dasharray:2.0,2.0;" x1="190.7632" x2="746.1001" y1="435.608" y2="435.608"/><text fill="#000000" font-family="sans-serif" font-size="13" font-weight="bold" lengthAdjust="spacing" textLength="25.961" x="202.7632" y="429.799">2.10</text><text fill="#000000" font-family="sans-serif" font-size="13" lengthAdjust="spacing" textLength="31.2" x="232.7242" y="429.799">cities</text><polygon fill="#181818" points="872.3917,463.314,882.3917,467.314,872.3917,471.314,876.3917,467.314" style="stroke:#181818;stroke-width:1.0;"/><line style="stroke:#181818;stroke-width:1.0;" x1="185.7632" x2="878.3917" y1="467.314" y2="467.314"/><text fill="#000000" font-family="sans-serif" font-size="13" font-weight="bold" lengthAdjust="spacing" textLength="25.961" x="192.7632" y="461.505">2.11</text><text fill="#000000" font-family="sans-serif" font-size="13" lengthAdjust="spacing" textLength="105.6901" x="222.7242" y="461.505">new ArrayList&lt;&gt;()</text><path d="M94.2534,482.314 L167.5934,482.314 L167.5934,492.0201 L157.5934,502.0201 L94.2534,502.0201 L94.2534,482.314 " fill="#EEEEEE" style="stroke:#000000;stroke-width:1.5;"/><rect fill="none" height="114.8241" style="stroke:#000000;stroke-width:1.5;" width="851.5671" x="94.2534" y="482.314"/><text fill="#000000" font-family="sans-serif" font-size="13" font-weight="bold" lengthAdjust="spacing" textLength="28.34" x="109.2534" y="497.2111">loop</text><text fill="#000000" font-family="sans-serif" font-size="11" font-weight="bold" lengthAdjust="spacing" textLength="120.3282" x="182.5934" y="496.073">[for each city in cities]</text><polygon fill="#181818" points="784.7599,521.7261,794.7599,525.7261,784.7599,529.7261,788.7599,525.7261" style="stroke:#181818;stroke-width:1.0;"/><line style="stroke:#181818;stroke-width:1.0;" x1="185.7632" x2="790.7599" y1="525.7261" y2="525.7261"/><text fill="#000000" font-family="sans-serif" font-size="13" font-weight="bold" lengthAdjust="spacing" textLength="25.961" x="192.7632" y="519.9171">2.12</text><text fill="#000000" font-family="sans-serif" font-size="13" lengthAdjust="spacing" textLength="77.1161" x="222.7242" y="519.9171">getStations()</text><polygon fill="#181818" points="196.7632,553.4321,186.7632,557.4321,196.7632,561.4321,192.7632,557.4321" style="stroke:#181818;stroke-width:1.0;"/><line style="stroke:#181818;stroke-width:1.0;stroke-dasharray:2.0,2.0;" x1="190.7632" x2="800.7599" y1="557.4321" y2="557.4321"/><text fill="#000000" font-family="sans-serif" font-size="13" font-weight="bold" lengthAdjust="spacing" textLength="25.961" x="202.7632" y="551.6231">2.13</text><text fill="#000000" font-family="sans-serif" font-size="13" lengthAdjust="spacing" textLength="110.3831" x="232.7242" y="551.6231">listStationsPerCity</text><polygon fill="#181818" points="872.3917,585.1381,882.3917,589.1381,872.3917,593.1381,876.3917,589.1381" style="stroke:#181818;stroke-width:1.0;"/><line style="stroke:#181818;stroke-width:1.0;" x1="185.7632" x2="878.3917" y1="589.1381" y2="589.1381"/><text fill="#000000" font-family="sans-serif" font-size="13" font-weight="bold" lengthAdjust="spacing" textLength="25.961" x="192.7632" y="583.3291">2.14</text><text fill="#000000" font-family="sans-serif" font-size="13" lengthAdjust="spacing" textLength="145.3661" x="222.7242" y="583.3291">add(listStationsPerCity))</text><polygon fill="#181818" points="196.7632,623.8441,186.7632,627.8441,196.7632,631.8441,192.7632,627.8441" style="stroke:#181818;stroke-width:1.0;"/><line style="stroke:#181818;stroke-width:1.0;" x1="190.7632" x2="883.3917" y1="627.8441" y2="627.8441"/><text fill="#000000" font-family="sans-serif" font-size="13" font-weight="bold" lengthAdjust="spacing" textLength="25.961" x="202.7632" y="622.0351">2.15</text><text fill="#000000" font-family="sans-serif" font-size="13" lengthAdjust="spacing" textLength="60.6971" x="232.7242" y="622.0351">listStation</text><polygon fill="#181818" points="1002.3273,655.5501,1012.3273,659.5501,1002.3273,663.5501,1006.3273,659.5501" style="stroke:#181818;stroke-width:1.0;"/><line style="stroke:#181818;stroke-width:1.0;" x1="185.7632" x2="1008.3273" y1="659.5501" y2="659.5501"/><text fill="#000000" font-family="sans-serif" font-size="13" font-weight="bold" lengthAdjust="spacing" textLength="25.961" x="192.7632" y="653.7411">2.16</text><text fill="#000000" font-family="sans-serif" font-size="13" lengthAdjust="spacing" textLength="107.9261" x="222.7242" y="653.7411">toDTO(listStation)</text><polygon fill="#181818" points="1305.3313,687.2562,1315.3313,691.2562,1305.3313,695.2562,1309.3313,691.2562" style="stroke:#181818;stroke-width:1.0;"/><line style="stroke:#181818;stroke-width:1.0;stroke-dasharray:2.0,2.0;" x1="1024.3273" x2="1311.3313" y1="691.2562" y2="691.2562"/><text fill="#000000" font-family="sans-serif" font-size="13" font-weight="bold" lengthAdjust="spacing" textLength="25.961" x="1031.3273" y="685.4472">2.17</text><text fill="#000000" font-family="sans-serif" font-size="13" lengthAdjust="spacing" textLength="46.059" x="1061.2883" y="685.4472">create()</text><rect fill="#E3E3E3" height="33.0679" rx="2.5" ry="2.5" style="stroke:#181818;stroke-width:0.5;" width="131.7955" x="1317.3313" y="667.5501"/><text fill="#000000" font-family="sans-serif" font-size="14" lengthAdjust="spacing" textLength="117.7955" x="1324.3313" y="689.5161">:List&lt;StationDTO&gt;</text><path d="M935.8205,718.6181 L1009.1606,718.6181 L1009.1606,728.3241 L999.1606,738.3241 L935.8205,738.3241 L935.8205,718.6181 " fill="#EEEEEE" style="stroke:#000000;stroke-width:1.5;"/><rect fill="none" height="250.9599" style="stroke:#000000;stroke-width:1.5;" width="626.378" x="935.8205" y="718.6181"/><text fill="#000000" font-family="sans-serif" font-size="13" font-weight="bold" lengthAdjust="spacing" textLength="28.34" x="950.8205" y="733.5151">loop</text><text fill="#000000" font-family="sans-serif" font-size="11" font-weight="bold" lengthAdjust="spacing" textLength="161.6879" x="1024.1606" y="732.377">[for each object in listStation]</text><polygon fill="#181818" points="1238.9025,758.0301,1248.9025,762.0301,1238.9025,766.0301,1242.9025,762.0301" style="stroke:#181818;stroke-width:1.0;"/><line style="stroke:#181818;stroke-width:1.0;" x1="1024.3273" x2="1244.9025" y1="762.0301" y2="762.0301"/><text fill="#000000" font-family="sans-serif" font-size="13" font-weight="bold" lengthAdjust="spacing" textLength="25.961" x="1031.3273" y="756.2211">2.18</text><text fill="#000000" font-family="sans-serif" font-size="13" lengthAdjust="spacing" textLength="116.7141" x="1061.2883" y="756.2211">stationType = get(i)</text><line style="stroke:#181818;stroke-width:1.0;" x1="1024.3273" x2="1071.3273" y1="818.7361" y2="818.7361"/><line style="stroke:#181818;stroke-width:1.0;" x1="1071.3273" x2="1071.3273" y1="818.7361" y2="831.7361"/><line style="stroke:#181818;stroke-width:1.0;" x1="1030.3273" x2="1071.3273" y1="831.7361" y2="831.7361"/><polygon fill="#181818" points="1040.3273,827.7361,1030.3273,831.7361,1040.3273,835.7361,1036.3273,831.7361" style="stroke:#181818;stroke-width:1.0;"/><text fill="#000000" font-family="sans-serif" font-size="13" font-weight="bold" lengthAdjust="spacing" textLength="25.961" x="1036.3273" y="812.9271">2.19</text><text fill="#000000" font-family="sans-serif" font-size="13" lengthAdjust="spacing" textLength="172.6142" x="1066.2883" y="812.9271">stationDTO = toDTO(station)</text><polygon fill="#181818" points="1447.1269,864.4421,1457.1269,868.4421,1447.1269,872.4421,1451.1269,868.4421" style="stroke:#181818;stroke-width:1.0;"/><line style="stroke:#181818;stroke-width:1.0;stroke-dasharray:2.0,2.0;" x1="1024.3273" x2="1453.1269" y1="868.4421" y2="868.4421"/><text fill="#000000" font-family="sans-serif" font-size="13" font-weight="bold" lengthAdjust="spacing" textLength="25.961" x="1031.3273" y="862.6331">2.20</text><text fill="#000000" font-family="sans-serif" font-size="13" lengthAdjust="spacing" textLength="46.059" x="1061.2883" y="862.6331">create()</text><rect fill="#E3E3E3" height="52.1358" rx="2.5" ry="2.5" style="stroke:#181818;stroke-width:0.5;" width="93.0717" x="1459.1269" y="844.7361"/><text fill="#000000" font-family="sans-serif" font-size="14" lengthAdjust="spacing" textLength="74.3397" x="1468.4929" y="866.702">stationDTO</text><text fill="#000000" font-family="sans-serif" font-size="14" lengthAdjust="spacing" textLength="79.0717" x="1466.1269" y="885.77">:StationDTO</text><polygon fill="#181818" points="1366.2291,927.578,1376.2291,931.578,1366.2291,935.578,1370.2291,931.578" style="stroke:#181818;stroke-width:1.0;"/><line style="stroke:#181818;stroke-width:1.0;" x1="1024.3273" x2="1372.2291" y1="931.578" y2="931.578"/><text fill="#000000" font-family="sans-serif" font-size="13" font-weight="bold" lengthAdjust="spacing" textLength="25.961" x="1031.3273" y="925.769">2.21</text><text fill="#000000" font-family="sans-serif" font-size="13" lengthAdjust="spacing" textLength="100.1131" x="1061.2883" y="925.769">add(stationDTO)</text><polygon fill="#181818" points="196.7632,996.284,186.7632,1000.284,196.7632,1004.284,192.7632,1000.284" style="stroke:#181818;stroke-width:1.0;"/><line style="stroke:#181818;stroke-width:1.0;stroke-dasharray:2.0,2.0;" x1="190.7632" x2="1018.3273" y1="1000.284" y2="1000.284"/><text fill="#000000" font-family="sans-serif" font-size="13" font-weight="bold" lengthAdjust="spacing" textLength="25.961" x="202.7632" y="994.475">2.22</text><text fill="#000000" font-family="sans-serif" font-size="13" lengthAdjust="spacing" textLength="87.5681" x="232.7242" y="994.475">listStationDTO</text><polygon fill="#181818" points="11,1034.99,1,1038.99,11,1042.99,7,1038.99" style="stroke:#181818;stroke-width:1.0;"/><line style="stroke:#181818;stroke-width:1.0;stroke-dasharray:2.0,2.0;" x1="5" x2="174.7632" y1="1038.99" y2="1038.99"/><text fill="#000000" font-family="sans-serif" font-size="13" font-weight="bold" lengthAdjust="spacing" textLength="7.436" x="17" y="1033.181">3</text><text fill="#000000" font-family="sans-serif" font-size="13" lengthAdjust="spacing" textLength="87.5681" x="28.436" y="1033.181">listStationDTO</text><!--SRC=[dLPDQ-Cm4BtxLmmz9OKixExDT0iX3SMG9Y7sPM4Xg8wQUEj8HbAsvD-l9CVso98JMbs2fJTltdn9aUy5guWWHpXonlE3u4SAIfne9DkJYkJlP4zJTIuf29ehmlOb1iW3sV6FWktXZPIIHf7ULaLUL8Gfk8iNXLIf8ghWRCQP4hmigRW38c6MRHOkU4ChBWl5HK6bXMpcwrNgOWJ2_65ns6IR9ildnJnRBLtZ8wbQWxEsVi7VrlnbkjuQ2izErl06b7e0zzmzpWjbtCtqJnrwalrs4MMN9WqqINkuV3vQ2tJUp_1bEpjNL0keBjbDiscMh9PRhMKztmIAul8ty4MIPbV0JzdAns_rhciZMxGEfZDrB8rHH4wAizFnbGhu4KqURK_4iATDh5AZHZgvoTFO1N_x7f5S5V-8edKZWLvxmKyLF5C5dKymyYDxR9R1WdPasmIiguHfkIodet6BQgdh1WIqQiD9gnNtOmlSqHv3s7_NfbQ8qus3Qb1lUxgwCwJGQVf1YOZM4ziCHQEogOWdi9qUhApPl32bGonz9fGrH5NdlkMquJau59Wb2Kl1sOd2fdKaeMJO2FGmwvBhCWNJ426No5jkZGOSHhupDFOwL4O_O2e4ETkHVCI-IyuhUEC2DEF1k3b3mVhkCBEvWfn96mrKmjvL_KAOJHGMaYdNL9XxRgWcOJe_t1Z8RZSA48yxdPJjK0PGgaB21fFU5-7Ud34eRYuXn3JszBU4lLlN0vhbOcmM-xVf_Rrk5K4r8wunNcwz-UjV_JARYeS2lYN0zH-3x1uK-6LQP5IC1ycyqEqB0bSMohzZymMzJOcwzqOBhkibXsfrgsRNf5yfNRzgdyp0jOQvNJFZlHwOBXEVB9bzZxzGja4xPpXl9D4RrX3fZQmPVpQwxb_2pvRZOJAnu-qvYVu3]--></g></svg>