<svg xmlns="http://www.w3.org/2000/svg" xmlns:xlink="http://www.w3.org/1999/xlink" contentStyleType="text/css" height="1168px" preserveAspectRatio="none" style="width:905px;height:1168px;background:#FFFFFF;" version="1.1" viewBox="0 0 905 1168" width="905px" zoomAndPan="magnify"><title>System Sequence Diagram : US07 - List stations and view details</title><defs/><g><text fill="#000000" font-family="sans-serif" font-size="14" font-weight="bold" lengthAdjust="spacing" textLength="433.3643" x="233.6995" y="30.1074">System Sequence Diagram : US07 - List stations and view details</text><rect fill="#FFFFFF" height="942.9922" style="stroke:#181818;stroke-width:1.0;" width="10" x="22.8413" y="133.2422"/><rect fill="#FFFFFF" height="185.7461" style="stroke:#181818;stroke-width:1.0;" width="10" x="294.9619" y="156.5332"/><rect fill="#FFFFFF" height="142.125" style="stroke:#181818;stroke-width:1.0;" width="10" x="294.9619" y="373.5703"/><rect fill="#FFFFFF" height="142.125" style="stroke:#181818;stroke-width:1.0;" width="10" x="294.9619" y="546.9863"/><rect fill="#FFFFFF" height="79.543" style="stroke:#181818;stroke-width:1.0;" width="10" x="508.5972" y="231.4453"/><rect fill="#FFFFFF" height="79.543" style="stroke:#181818;stroke-width:1.0;" width="10" x="508.5972" y="404.8613"/><rect fill="#FFFFFF" height="79.543" style="stroke:#181818;stroke-width:1.0;" width="10" x="508.5972" y="578.2773"/><rect fill="#FFFFFF" height="173.416" style="stroke:#181818;stroke-width:1.0;" width="10" x="618.1899" y="720.4023"/><rect fill="#FFFFFF" height="142.125" style="stroke:#181818;stroke-width:1.0;" width="10" x="618.1899" y="925.1094"/><rect fill="#FFFFFF" height="79.543" style="stroke:#181818;stroke-width:1.0;" width="10" x="821.7324" y="751.6934"/><rect fill="#FFFFFF" height="79.543" style="stroke:#181818;stroke-width:1.0;" width="10" x="821.7324" y="956.4004"/><line style="stroke:#181818;stroke-width:0.5;stroke-dasharray:5.0,5.0;" x1="27" x2="27" y1="123.2422" y2="1085.2344"/><line style="stroke:#181818;stroke-width:0.5;stroke-dasharray:5.0,5.0;" x1="299.3999" x2="299.3999" y1="123.2422" y2="1085.2344"/><line style="stroke:#181818;stroke-width:0.5;stroke-dasharray:5.0,5.0;" x1="512.6904" x2="512.6904" y1="196.3438" y2="1085.2344"/><line style="stroke:#181818;stroke-width:0.5;stroke-dasharray:5.0,5.0;" x1="622.5039" x2="622.5039" y1="123.2422" y2="1085.2344"/><line style="stroke:#181818;stroke-width:0.5;stroke-dasharray:5.0,5.0;" x1="826.7017" x2="826.7017" y1="123.2422" y2="1085.2344"/><text fill="#000000" font-family="sans-serif" font-size="14" lengthAdjust="spacing" textLength="39.6826" x="5" y="119.7285">Player</text><ellipse cx="27.8413" cy="53.1211" fill="#E3E3E3" rx="8" ry="8" style="stroke:#181818;stroke-width:0.5;"/><path d="M27.8413,61.1211 L27.8413,88.1211 M14.8413,69.1211 L40.8413,69.1211 M27.8413,88.1211 L14.8413,103.1211 M27.8413,88.1211 L40.8413,103.1211 " fill="none" style="stroke:#181818;stroke-width:0.5;"/><text fill="#000000" font-family="sans-serif" font-size="14" lengthAdjust="spacing" textLength="39.6826" x="5" y="1099.3418">Player</text><ellipse cx="27.8413" cy="1111.3555" fill="#E3E3E3" rx="8" ry="8" style="stroke:#181818;stroke-width:0.5;"/><path d="M27.8413,1119.3555 L27.8413,1146.3555 M14.8413,1127.3555 L40.8413,1127.3555 M27.8413,1146.3555 L14.8413,1161.3555 M27.8413,1146.3555 L40.8413,1161.3555 " fill="none" style="stroke:#181818;stroke-width:0.5;"/><rect fill="#E3E3E3" height="32.6211" rx="2.5" ry="2.5" style="stroke:#181818;stroke-width:0.5;" width="59.124" x="270.3999" y="89.6211"/><text fill="#000000" font-family="sans-serif" font-size="14" lengthAdjust="spacing" textLength="45.124" x="277.3999" y="111.7285">:MapUI</text><rect fill="#E3E3E3" height="32.6211" rx="2.5" ry="2.5" style="stroke:#181818;stroke-width:0.5;" width="59.124" x="270.3999" y="1084.2344"/><text fill="#000000" font-family="sans-serif" font-size="14" lengthAdjust="spacing" textLength="45.124" x="277.3999" y="1106.3418">:MapUI</text><rect fill="#E3E3E3" height="32.6211" rx="2.5" ry="2.5" style="stroke:#181818;stroke-width:0.5;" width="105.8135" x="460.6904" y="1084.2344"/><text fill="#000000" font-family="sans-serif" font-size="14" lengthAdjust="spacing" textLength="91.8135" x="467.6904" y="1106.3418">:MapController</text><rect fill="#E3E3E3" height="32.6211" rx="2.5" ry="2.5" style="stroke:#181818;stroke-width:0.5;" width="93.3721" x="576.5039" y="89.6211"/><text fill="#000000" font-family="sans-serif" font-size="14" lengthAdjust="spacing" textLength="79.3721" x="583.5039" y="111.7285">ListStationUI</text><rect fill="#E3E3E3" height="32.6211" rx="2.5" ry="2.5" style="stroke:#181818;stroke-width:0.5;" width="93.3721" x="576.5039" y="1084.2344"/><text fill="#000000" font-family="sans-serif" font-size="14" lengthAdjust="spacing" textLength="79.3721" x="583.5039" y="1106.3418">ListStationUI</text><rect fill="#E3E3E3" height="32.6211" rx="2.5" ry="2.5" style="stroke:#181818;stroke-width:0.5;" width="140.0615" x="756.7017" y="89.6211"/><text fill="#000000" font-family="sans-serif" font-size="14" lengthAdjust="spacing" textLength="126.0615" x="763.7017" y="111.7285">ListStationController</text><rect fill="#E3E3E3" height="32.6211" rx="2.5" ry="2.5" style="stroke:#181818;stroke-width:0.5;" width="140.0615" x="756.7017" y="1084.2344"/><text fill="#000000" font-family="sans-serif" font-size="14" lengthAdjust="spacing" textLength="126.0615" x="763.7017" y="1106.3418">ListStationController</text><rect fill="#FFFFFF" height="942.9922" style="stroke:#181818;stroke-width:1.0;" width="10" x="22.8413" y="133.2422"/><rect fill="#FFFFFF" height="185.7461" style="stroke:#181818;stroke-width:1.0;" width="10" x="294.9619" y="156.5332"/><rect fill="#FFFFFF" height="142.125" style="stroke:#181818;stroke-width:1.0;" width="10" x="294.9619" y="373.5703"/><rect fill="#FFFFFF" height="142.125" style="stroke:#181818;stroke-width:1.0;" width="10" x="294.9619" y="546.9863"/><rect fill="#FFFFFF" height="79.543" style="stroke:#181818;stroke-width:1.0;" width="10" x="508.5972" y="231.4453"/><rect fill="#FFFFFF" height="79.543" style="stroke:#181818;stroke-width:1.0;" width="10" x="508.5972" y="404.8613"/><rect fill="#FFFFFF" height="79.543" style="stroke:#181818;stroke-width:1.0;" width="10" x="508.5972" y="578.2773"/><rect fill="#FFFFFF" height="173.416" style="stroke:#181818;stroke-width:1.0;" width="10" x="618.1899" y="720.4023"/><rect fill="#FFFFFF" height="142.125" style="stroke:#181818;stroke-width:1.0;" width="10" x="618.1899" y="925.1094"/><rect fill="#FFFFFF" height="79.543" style="stroke:#181818;stroke-width:1.0;" width="10" x="821.7324" y="751.6934"/><rect fill="#FFFFFF" height="79.543" style="stroke:#181818;stroke-width:1.0;" width="10" x="821.7324" y="956.4004"/><polygon fill="#181818" points="282.9619,152.5332,292.9619,156.5332,282.9619,160.5332,286.9619,156.5332" style="stroke:#181818;stroke-width:1.0;"/><line style="stroke:#181818;stroke-width:1.0;" x1="32.8413" x2="288.9619" y1="156.5332" y2="156.5332"/><text fill="#000000" font-family="sans-serif" font-size="13" font-weight="bold" lengthAdjust="spacing" textLength="7.23" x="39.8413" y="151.2705">1</text><text fill="#000000" font-family="sans-serif" font-size="13" lengthAdjust="spacing" textLength="156.0825" x="51.0713" y="151.2705">asks to see available maps</text><polygon fill="#181818" points="448.6904,183.8242,458.6904,187.8242,448.6904,191.8242,452.6904,187.8242" style="stroke:#181818;stroke-width:1.0;"/><line style="stroke:#181818;stroke-width:1.0;" x1="304.9619" x2="454.6904" y1="187.8242" y2="187.8242"/><text fill="#000000" font-family="sans-serif" font-size="13" font-weight="bold" lengthAdjust="spacing" textLength="7.23" x="311.9619" y="182.5615">2</text><text fill="#000000" font-family="sans-serif" font-size="13" lengthAdjust="spacing" textLength="44.7891" x="323.1919" y="182.5615">create()</text><rect fill="#E3E3E3" height="32.6211" rx="2.5" ry="2.5" style="stroke:#181818;stroke-width:0.5;" width="105.8135" x="460.6904" y="164.5332"/><text fill="#000000" font-family="sans-serif" font-size="14" lengthAdjust="spacing" textLength="91.8135" x="467.6904" y="186.6406">:MapController</text><polygon fill="#181818" points="496.5972,227.4453,506.5972,231.4453,496.5972,235.4453,500.5972,231.4453" style="stroke:#181818;stroke-width:1.0;"/><line style="stroke:#181818;stroke-width:1.0;" x1="304.9619" x2="502.5972" y1="231.4453" y2="231.4453"/><text fill="#000000" font-family="sans-serif" font-size="13" font-weight="bold" lengthAdjust="spacing" textLength="7.23" x="311.9619" y="226.1826">3</text><text fill="#000000" font-family="sans-serif" font-size="13" lengthAdjust="spacing" textLength="111.2744" x="323.1919" y="226.1826">getAvailableMaps()</text><rect fill="none" height="43.252" style="stroke:#000000;stroke-width:1.5;" width="111.8135" x="457.6904" y="239.4453"/><path d="M457.6904,239.4453 L518.6904,239.4453 L518.6904,248.4453 L508.6904,258.4453 L457.6904,258.4453 L457.6904,239.4453 " fill="#EEEEEE" style="stroke:#000000;stroke-width:2.0;"/><text fill="#000000" font-family="sans-serif" font-size="13" font-weight="bold" lengthAdjust="spacing" textLength="16.6182" x="470.6904" y="255.4736">ref</text><text fill="#000000" font-family="sans-serif" font-size="12" lengthAdjust="spacing" textLength="102.7207" x="462.2368" y="275.3945">Get available maps</text><polygon fill="#181818" points="315.9619,306.9883,305.9619,310.9883,315.9619,314.9883,311.9619,310.9883" style="stroke:#181818;stroke-width:1.0;"/><line style="stroke:#181818;stroke-width:1.0;stroke-dasharray:2.0,2.0;" x1="309.9619" x2="512.5972" y1="310.9883" y2="310.9883"/><text fill="#000000" font-family="sans-serif" font-size="13" font-weight="bold" lengthAdjust="spacing" textLength="7.23" x="321.9619" y="305.7256">4</text><text fill="#000000" font-family="sans-serif" font-size="13" lengthAdjust="spacing" textLength="103.3335" x="333.1919" y="305.7256">availableMapsList</text><polygon fill="#181818" points="43.8413,338.2793,33.8413,342.2793,43.8413,346.2793,39.8413,342.2793" style="stroke:#181818;stroke-width:1.0;"/><line style="stroke:#181818;stroke-width:1.0;stroke-dasharray:2.0,2.0;" x1="37.8413" x2="298.9619" y1="342.2793" y2="342.2793"/><text fill="#000000" font-family="sans-serif" font-size="13" font-weight="bold" lengthAdjust="spacing" textLength="7.23" x="49.8413" y="337.0166">5</text><text fill="#000000" font-family="sans-serif" font-size="13" lengthAdjust="spacing" textLength="203.0425" x="61.0713" y="337.0166">shows list of available maps to play</text><polygon fill="#181818" points="282.9619,369.5703,292.9619,373.5703,282.9619,377.5703,286.9619,373.5703" style="stroke:#181818;stroke-width:1.0;"/><line style="stroke:#181818;stroke-width:1.0;" x1="32.8413" x2="288.9619" y1="373.5703" y2="373.5703"/><text fill="#000000" font-family="sans-serif" font-size="13" font-weight="bold" lengthAdjust="spacing" textLength="7.23" x="39.8413" y="368.3076">6</text><text fill="#000000" font-family="sans-serif" font-size="13" lengthAdjust="spacing" textLength="80.2026" x="51.0713" y="368.3076">selects a map</text><polygon fill="#181818" points="496.5972,400.8613,506.5972,404.8613,496.5972,408.8613,500.5972,404.8613" style="stroke:#181818;stroke-width:1.0;"/><line style="stroke:#181818;stroke-width:1.0;" x1="304.9619" x2="502.5972" y1="404.8613" y2="404.8613"/><text fill="#000000" font-family="sans-serif" font-size="13" font-weight="bold" lengthAdjust="spacing" textLength="7.23" x="311.9619" y="399.5986">7</text><text fill="#000000" font-family="sans-serif" font-size="13" lengthAdjust="spacing" textLength="148.1162" x="323.1919" y="399.5986">getMapScenarios(mapID)</text><rect fill="none" height="43.252" style="stroke:#000000;stroke-width:1.5;" width="111.8135" x="457.6904" y="412.8613"/><path d="M457.6904,412.8613 L518.6904,412.8613 L518.6904,421.8613 L508.6904,431.8613 L457.6904,431.8613 L457.6904,412.8613 " fill="#EEEEEE" style="stroke:#000000;stroke-width:2.0;"/><text fill="#000000" font-family="sans-serif" font-size="13" font-weight="bold" lengthAdjust="spacing" textLength="16.6182" x="470.6904" y="428.8896">ref</text><text fill="#000000" font-family="sans-serif" font-size="12" lengthAdjust="spacing" textLength="100.7109" x="463.2417" y="448.8105">Get map scenarios</text><polygon fill="#181818" points="315.9619,480.4043,305.9619,484.4043,315.9619,488.4043,311.9619,484.4043" style="stroke:#181818;stroke-width:1.0;"/><line style="stroke:#181818;stroke-width:1.0;stroke-dasharray:2.0,2.0;" x1="309.9619" x2="512.5972" y1="484.4043" y2="484.4043"/><text fill="#000000" font-family="sans-serif" font-size="13" font-weight="bold" lengthAdjust="spacing" textLength="7.23" x="321.9619" y="479.1416">8</text><text fill="#000000" font-family="sans-serif" font-size="13" lengthAdjust="spacing" textLength="83.0972" x="333.1919" y="479.1416">mapScenarios</text><polygon fill="#181818" points="43.8413,511.6953,33.8413,515.6953,43.8413,519.6953,39.8413,515.6953" style="stroke:#181818;stroke-width:1.0;"/><line style="stroke:#181818;stroke-width:1.0;stroke-dasharray:2.0,2.0;" x1="37.8413" x2="298.9619" y1="515.6953" y2="515.6953"/><text fill="#000000" font-family="sans-serif" font-size="13" font-weight="bold" lengthAdjust="spacing" textLength="7.23" x="49.8413" y="510.4326">9</text><text fill="#000000" font-family="sans-serif" font-size="13" lengthAdjust="spacing" textLength="226.8906" x="61.0713" y="510.4326">shows list of available scenarios to play</text><polygon fill="#181818" points="282.9619,542.9863,292.9619,546.9863,282.9619,550.9863,286.9619,546.9863" style="stroke:#181818;stroke-width:1.0;"/><line style="stroke:#181818;stroke-width:1.0;" x1="32.8413" x2="288.9619" y1="546.9863" y2="546.9863"/><text fill="#000000" font-family="sans-serif" font-size="13" font-weight="bold" lengthAdjust="spacing" textLength="14.46" x="39.8413" y="541.7236">10</text><text fill="#000000" font-family="sans-serif" font-size="13" lengthAdjust="spacing" textLength="104.0508" x="58.3013" y="541.7236">selects a scenario</text><polygon fill="#181818" points="496.5972,574.2773,506.5972,578.2773,496.5972,582.2773,500.5972,578.2773" style="stroke:#181818;stroke-width:1.0;"/><line style="stroke:#181818;stroke-width:1.0;" x1="304.9619" x2="502.5972" y1="578.2773" y2="578.2773"/><text fill="#000000" font-family="sans-serif" font-size="13" font-weight="bold" lengthAdjust="spacing" textLength="14.46" x="311.9619" y="573.0146">11</text><text fill="#000000" font-family="sans-serif" font-size="13" lengthAdjust="spacing" textLength="166.1753" x="330.4219" y="573.0146">loadMap(mapID, scenarioID)</text><rect fill="none" height="43.252" style="stroke:#000000;stroke-width:1.5;" width="111.8135" x="457.6904" y="586.2773"/><path d="M457.6904,586.2773 L518.6904,586.2773 L518.6904,595.2773 L508.6904,605.2773 L457.6904,605.2773 L457.6904,586.2773 " fill="#EEEEEE" style="stroke:#000000;stroke-width:2.0;"/><text fill="#000000" font-family="sans-serif" font-size="13" font-weight="bold" lengthAdjust="spacing" textLength="16.6182" x="470.6904" y="602.3057">ref</text><text fill="#000000" font-family="sans-serif" font-size="12" lengthAdjust="spacing" textLength="53.373" x="486.9106" y="622.2266">Load map</text><polygon fill="#181818" points="315.9619,653.8203,305.9619,657.8203,315.9619,661.8203,311.9619,657.8203" style="stroke:#181818;stroke-width:1.0;"/><line style="stroke:#181818;stroke-width:1.0;stroke-dasharray:2.0,2.0;" x1="309.9619" x2="512.5972" y1="657.8203" y2="657.8203"/><text fill="#000000" font-family="sans-serif" font-size="13" font-weight="bold" lengthAdjust="spacing" textLength="14.46" x="321.9619" y="652.5576">12</text><text fill="#000000" font-family="sans-serif" font-size="13" lengthAdjust="spacing" textLength="64.3208" x="340.4219" y="652.5576">mapLayout</text><polygon fill="#181818" points="43.8413,685.1113,33.8413,689.1113,43.8413,693.1113,39.8413,689.1113" style="stroke:#181818;stroke-width:1.0;"/><line style="stroke:#181818;stroke-width:1.0;stroke-dasharray:2.0,2.0;" x1="37.8413" x2="298.9619" y1="689.1113" y2="689.1113"/><text fill="#000000" font-family="sans-serif" font-size="13" font-weight="bold" lengthAdjust="spacing" textLength="14.46" x="49.8413" y="683.8486">13</text><text fill="#000000" font-family="sans-serif" font-size="13" lengthAdjust="spacing" textLength="209.5742" x="68.3013" y="683.8486">loads and displays the selected map</text><polygon fill="#181818" points="606.1899,716.4023,616.1899,720.4023,606.1899,724.4023,610.1899,720.4023" style="stroke:#181818;stroke-width:1.0;"/><line style="stroke:#181818;stroke-width:1.0;" x1="32.8413" x2="612.1899" y1="720.4023" y2="720.4023"/><text fill="#000000" font-family="sans-serif" font-size="13" font-weight="bold" lengthAdjust="spacing" textLength="14.46" x="39.8413" y="715.1396">14</text><text fill="#000000" font-family="sans-serif" font-size="13" lengthAdjust="spacing" textLength="185.7261" x="58.3013" y="715.1396">request to see available stations</text><polygon fill="#181818" points="809.7324,747.6934,819.7324,751.6934,809.7324,755.6934,813.7324,751.6934" style="stroke:#181818;stroke-width:1.0;"/><line style="stroke:#181818;stroke-width:1.0;stroke-dasharray:2.0,2.0;" x1="628.1899" x2="815.7324" y1="751.6934" y2="751.6934"/><text fill="#000000" font-family="sans-serif" font-size="13" font-weight="bold" lengthAdjust="spacing" textLength="14.46" x="635.1899" y="746.4307">15</text><text fill="#000000" font-family="sans-serif" font-size="13" lengthAdjust="spacing" textLength="109.8335" x="653.6499" y="746.4307">getStations(mapId)</text><rect fill="none" height="43.252" style="stroke:#000000;stroke-width:1.5;" width="146.0615" x="753.7017" y="759.6934"/><path d="M753.7017,759.6934 L814.7017,759.6934 L814.7017,768.6934 L804.7017,778.6934 L753.7017,778.6934 L753.7017,759.6934 " fill="#EEEEEE" style="stroke:#000000;stroke-width:2.0;"/><text fill="#000000" font-family="sans-serif" font-size="13" font-weight="bold" lengthAdjust="spacing" textLength="16.6182" x="766.7017" y="775.7217">ref</text><text fill="#000000" font-family="sans-serif" font-size="12" lengthAdjust="spacing" textLength="114.7324" x="769.3662" y="795.6426">Get available stations</text><polygon fill="#181818" points="639.1899,827.2363,629.1899,831.2363,639.1899,835.2363,635.1899,831.2363" style="stroke:#181818;stroke-width:1.0;"/><line style="stroke:#181818;stroke-width:1.0;stroke-dasharray:2.0,2.0;" x1="633.1899" x2="825.7324" y1="831.2363" y2="831.2363"/><text fill="#000000" font-family="sans-serif" font-size="13" font-weight="bold" lengthAdjust="spacing" textLength="14.46" x="645.1899" y="825.9736">16</text><text fill="#000000" font-family="sans-serif" font-size="13" lengthAdjust="spacing" textLength="65.0317" x="663.6499" y="825.9736">stationsList</text><polygon fill="#181818" points="43.8413,858.5273,33.8413,862.5273,43.8413,866.5273,39.8413,862.5273" style="stroke:#181818;stroke-width:1.0;"/><line style="stroke:#181818;stroke-width:1.0;stroke-dasharray:2.0,2.0;" x1="37.8413" x2="617.1899" y1="862.5273" y2="862.5273"/><text fill="#000000" font-family="sans-serif" font-size="13" font-weight="bold" lengthAdjust="spacing" textLength="14.46" x="49.8413" y="857.2646">17</text><text fill="#000000" font-family="sans-serif" font-size="13" lengthAdjust="spacing" textLength="184.2598" x="68.3013" y="857.2646">displays list of available stations</text><polygon fill="#181818" points="43.8413,889.8184,33.8413,893.8184,43.8413,897.8184,39.8413,893.8184" style="stroke:#181818;stroke-width:1.0;"/><line style="stroke:#181818;stroke-width:1.0;stroke-dasharray:2.0,2.0;" x1="37.8413" x2="622.1899" y1="893.8184" y2="893.8184"/><text fill="#000000" font-family="sans-serif" font-size="13" font-weight="bold" lengthAdjust="spacing" textLength="14.46" x="49.8413" y="888.5557">18</text><text fill="#000000" font-family="sans-serif" font-size="13" lengthAdjust="spacing" textLength="201.6016" x="68.3013" y="888.5557">requests to select a specific station</text><polygon fill="#181818" points="606.1899,921.1094,616.1899,925.1094,606.1899,929.1094,610.1899,925.1094" style="stroke:#181818;stroke-width:1.0;"/><line style="stroke:#181818;stroke-width:1.0;" x1="32.8413" x2="612.1899" y1="925.1094" y2="925.1094"/><text fill="#000000" font-family="sans-serif" font-size="13" font-weight="bold" lengthAdjust="spacing" textLength="14.46" x="39.8413" y="919.8467">19</text><text fill="#000000" font-family="sans-serif" font-size="13" lengthAdjust="spacing" textLength="140.1753" x="58.3013" y="919.8467">selects a specific station</text><polygon fill="#181818" points="809.7324,952.4004,819.7324,956.4004,809.7324,960.4004,813.7324,956.4004" style="stroke:#181818;stroke-width:1.0;"/><line style="stroke:#181818;stroke-width:1.0;stroke-dasharray:2.0,2.0;" x1="628.1899" x2="815.7324" y1="956.4004" y2="956.4004"/><text fill="#000000" font-family="sans-serif" font-size="13" font-weight="bold" lengthAdjust="spacing" textLength="14.46" x="635.1899" y="951.1377">20</text><text fill="#000000" font-family="sans-serif" font-size="13" lengthAdjust="spacing" textLength="156.0825" x="653.6499" y="951.1377">getStationDetails(stationId)</text><rect fill="none" height="43.252" style="stroke:#000000;stroke-width:1.5;" width="146.0615" x="753.7017" y="964.4004"/><path d="M753.7017,964.4004 L814.7017,964.4004 L814.7017,973.4004 L804.7017,983.4004 L753.7017,983.4004 L753.7017,964.4004 " fill="#EEEEEE" style="stroke:#000000;stroke-width:2.0;"/><text fill="#000000" font-family="sans-serif" font-size="13" font-weight="bold" lengthAdjust="spacing" textLength="16.6182" x="766.7017" y="980.4287">ref</text><text fill="#000000" font-family="sans-serif" font-size="12" lengthAdjust="spacing" textLength="96.0527" x="778.7061" y="1000.3496">Get station details</text><polygon fill="#181818" points="639.1899,1031.9434,629.1899,1035.9434,639.1899,1039.9434,635.1899,1035.9434" style="stroke:#181818;stroke-width:1.0;"/><line style="stroke:#181818;stroke-width:1.0;stroke-dasharray:2.0,2.0;" x1="633.1899" x2="825.7324" y1="1035.9434" y2="1035.9434"/><text fill="#000000" font-family="sans-serif" font-size="13" font-weight="bold" lengthAdjust="spacing" textLength="14.46" x="645.1899" y="1030.6807">21</text><text fill="#000000" font-family="sans-serif" font-size="13" lengthAdjust="spacing" textLength="78.0381" x="663.6499" y="1030.6807">stationDetails</text><polygon fill="#181818" points="43.8413,1063.2344,33.8413,1067.2344,43.8413,1071.2344,39.8413,1067.2344" style="stroke:#181818;stroke-width:1.0;"/><line style="stroke:#181818;stroke-width:1.0;stroke-dasharray:2.0,2.0;" x1="37.8413" x2="622.1899" y1="1067.2344" y2="1067.2344"/><text fill="#000000" font-family="sans-serif" font-size="13" font-weight="bold" lengthAdjust="spacing" textLength="14.46" x="49.8413" y="1061.9717">22</text><text fill="#000000" font-family="sans-serif" font-size="13" lengthAdjust="spacing" textLength="113.4517" x="68.3013" y="1061.9717">show station details</text><!--SRC=[lLPHZzem37xFhx3kYJiDQM-J-Z1fEgJf92PDw-u7-5e34MtI9G74lv_JfgLfAOoDMvvAx7x-xCysjLkfAZHOGgcLpZP6bmJEx4ZOpb9XjiKrfUvO41ZA7AfrqNUm6yprGQerhB2m973djDgLRsI4SDBnM-dHEYeXfLyxKXd1GkBQlvd0Q_hn4ynXAQq3wz19hIoWoc4lwG0vEPI55G8pfmqyV2_mIEO1q4BpA9Y1avciK3buIBvXzVfIcql_DBO-Q-MCBee0mbxFFtyi8pzF9MsO311wbXEEgCd9FJfgEGdWqpp3_7D39U5mMmjEWoK2t7DQ-CQLOQEj_VtfW1hsxNNzAo1vkazF2MI6s77sEEcKm9hSbpOEfsvxpiDWTH5WS0ojGEyvXoa7VxwIcygcFQJow2x0mRnNcpvFN-ReXPmckOQi6QcfTyBDg0yM2jzFUZMWvijViPyuZymbFo-TfOBRdllINzogLYq4vvLcfD18RMTiU5cybnXi1zk6-XijoXxL-ylGKRkknHKfMYHnko25nfmLQOJuq26zZoXB3XRrpMrQBF6eT_ym3pxNPgFcqlg2S-Kt5Ef8CRFnE9pg7wr5Njp6xt9MTxJHsYq-bYNUh5rz8k1v7EgqP-in2hVD2EMF5qFqLdJh9aR2NVQFbzieiRw0vz8v8GxJgZivm4NhhgV07wOoBb_GB3a9VcOCXxbSW0bAXpyltpP- -YhAv4fcBTAL32xtKc-efs3ltqIBvjjY5YBzftOAqRelcxlsqc80UjTkyXjzalwawhy1]--></g></svg>