<svg xmlns="http://www.w3.org/2000/svg" xmlns:xlink="http://www.w3.org/1999/xlink" contentStyleType="text/css" height="690px" preserveAspectRatio="none" style="width:571px;height:690px;background:#FFFFFF;" version="1.1" viewBox="0 0 571 690" width="571px" zoomAndPan="magnify"><title>System Sequence Diagram : US07 - Get Station Details</title><defs/><g><text fill="#000000" font-family="sans-serif" font-size="14" font-weight="bold" lengthAdjust="spacing" textLength="373.0005" x="105.6734" y="29.9659">System Sequence Diagram : US07 - Get Station Details</text><rect fill="#FFFFFF" height="545.0023" style="stroke:#181818;stroke-width:1.0;" width="10" x="305.2883" y="89.1358"/><rect fill="#FFFFFF" height="31.706" style="stroke:#181818;stroke-width:1.0;" width="10" x="510.1564" y="197.9599"/><rect fill="#FFFFFF" height="31.706" style="stroke:#181818;stroke-width:1.0;" width="10" x="510.1564" y="288.0779"/><rect fill="#FFFFFF" height="31.706" style="stroke:#181818;stroke-width:1.0;" width="10" x="510.1564" y="351.49"/><rect fill="#FFFFFF" height="31.706" style="stroke:#181818;stroke-width:1.0;" width="10" x="510.1564" y="414.902"/><rect fill="#FFFFFF" height="31.706" style="stroke:#181818;stroke-width:1.0;" width="10" x="510.1564" y="478.314"/><rect fill="none" height="448.8842" style="stroke:#000000;stroke-width:1.5;" width="349.6928" x="215.6545" y="154.5479"/><rect fill="none" height="351.7662" style="stroke:#000000;stroke-width:1.5;" width="329.6928" x="225.6545" y="244.6659"/><rect fill="none" height="19.706" style="stroke:#000000;stroke-width:1.5;" width="87.635" x="245.6545" y="569.7261"/><line style="stroke:#181818;stroke-width:0.5;stroke-dasharray:5.0,5.0;" x1="309.6545" x2="309.6545" y1="79.1358" y2="652.1381"/><line style="stroke:#181818;stroke-width:0.5;stroke-dasharray:5.0,5.0;" x1="514.9655" x2="514.9655" y1="79.1358" y2="652.1381"/><rect fill="#E3E3E3" height="33.0679" rx="2.5" ry="2.5" style="stroke:#181818;stroke-width:0.5;" width="149.2675" x="235.6545" y="45.0679"/><text fill="#000000" font-family="sans-serif" font-size="14" lengthAdjust="spacing" textLength="135.2675" x="242.6545" y="67.0339">ListStationController</text><rect fill="#E3E3E3" height="33.0679" rx="2.5" ry="2.5" style="stroke:#181818;stroke-width:0.5;" width="149.2675" x="235.6545" y="651.1381"/><text fill="#000000" font-family="sans-serif" font-size="14" lengthAdjust="spacing" textLength="135.2675" x="242.6545" y="673.104">ListStationController</text><rect fill="#E3E3E3" height="33.0679" rx="2.5" ry="2.5" style="stroke:#181818;stroke-width:0.5;" width="60.3818" x="484.9655" y="45.0679"/><text fill="#000000" font-family="sans-serif" font-size="14" lengthAdjust="spacing" textLength="46.3818" x="491.9655" y="67.0339">Station</text><rect fill="#E3E3E3" height="33.0679" rx="2.5" ry="2.5" style="stroke:#181818;stroke-width:0.5;" width="60.3818" x="484.9655" y="651.1381"/><text fill="#000000" font-family="sans-serif" font-size="14" lengthAdjust="spacing" textLength="46.3818" x="491.9655" y="673.104">Station</text><rect fill="#FFFFFF" height="545.0023" style="stroke:#181818;stroke-width:1.0;" width="10" x="305.2883" y="89.1358"/><rect fill="#FFFFFF" height="31.706" style="stroke:#181818;stroke-width:1.0;" width="10" x="510.1564" y="197.9599"/><rect fill="#FFFFFF" height="31.706" style="stroke:#181818;stroke-width:1.0;" width="10" x="510.1564" y="288.0779"/><rect fill="#FFFFFF" height="31.706" style="stroke:#181818;stroke-width:1.0;" width="10" x="510.1564" y="351.49"/><rect fill="#FFFFFF" height="31.706" style="stroke:#181818;stroke-width:1.0;" width="10" x="510.1564" y="414.902"/><rect fill="#FFFFFF" height="31.706" style="stroke:#181818;stroke-width:1.0;" width="10" x="510.1564" y="478.314"/><polygon fill="#181818" points="293.2883,108.8419,303.2883,112.8419,293.2883,116.8419,297.2883,112.8419" style="stroke:#181818;stroke-width:1.0;"/><line style="stroke:#181818;stroke-width:1.0;stroke-dasharray:2.0,2.0;" x1="0" x2="299.2883" y1="112.8419" y2="112.8419"/><text fill="#000000" font-family="sans-serif" font-size="13" font-weight="bold" lengthAdjust="spacing" textLength="7.436" x="7" y="107.0328">7</text><text fill="#000000" font-family="sans-serif" font-size="13" lengthAdjust="spacing" textLength="267.8523" x="18.436" y="107.0328">getStationDetails(listStationsDTO, stationId)</text><path d="M215.6545,154.5479 L288.9946,154.5479 L288.9946,164.2539 L278.9946,174.2539 L215.6545,174.2539 L215.6545,154.5479 " fill="#EEEEEE" style="stroke:#000000;stroke-width:1.5;"/><rect fill="none" height="448.8842" style="stroke:#000000;stroke-width:1.5;" width="349.6928" x="215.6545" y="154.5479"/><text fill="#000000" font-family="sans-serif" font-size="13" font-weight="bold" lengthAdjust="spacing" textLength="28.34" x="230.6545" y="169.4449">loop</text><text fill="#000000" font-family="sans-serif" font-size="11" font-weight="bold" lengthAdjust="spacing" textLength="172.0608" x="303.9946" y="168.3068">[for each station in listStations]</text><polygon fill="#181818" points="498.1564,193.9599,508.1564,197.9599,498.1564,201.9599,502.1564,197.9599" style="stroke:#181818;stroke-width:1.0;"/><line style="stroke:#181818;stroke-width:1.0;" x1="315.2883" x2="504.1564" y1="197.9599" y2="197.9599"/><text fill="#000000" font-family="sans-serif" font-size="13" font-weight="bold" lengthAdjust="spacing" textLength="18.525" x="322.2883" y="192.1509">7.1</text><text fill="#000000" font-family="sans-serif" font-size="13" lengthAdjust="spacing" textLength="40.222" x="344.8133" y="192.1509">getId()</text><polygon fill="#181818" points="326.2883,225.6659,316.2883,229.6659,326.2883,233.6659,322.2883,229.6659" style="stroke:#181818;stroke-width:1.0;"/><line style="stroke:#181818;stroke-width:1.0;stroke-dasharray:2.0,2.0;" x1="320.2883" x2="514.1564" y1="229.6659" y2="229.6659"/><text fill="#000000" font-family="sans-serif" font-size="13" font-weight="bold" lengthAdjust="spacing" textLength="18.525" x="332.2883" y="223.8569">7.2</text><text fill="#000000" font-family="sans-serif" font-size="13" lengthAdjust="spacing" textLength="11.349" x="354.8133" y="223.8569">id</text><path d="M225.6545,244.6659 L287.9576,244.6659 L287.9576,254.3719 L277.9576,264.3719 L225.6545,264.3719 L225.6545,244.6659 " fill="#EEEEEE" style="stroke:#000000;stroke-width:1.5;"/><rect fill="none" height="351.7662" style="stroke:#000000;stroke-width:1.5;" width="329.6928" x="225.6545" y="244.6659"/><text fill="#000000" font-family="sans-serif" font-size="13" font-weight="bold" lengthAdjust="spacing" textLength="17.303" x="240.6545" y="259.5629">alt</text><text fill="#000000" font-family="sans-serif" font-size="11" font-weight="bold" lengthAdjust="spacing" textLength="124.7391" x="302.9576" y="258.4248">[if stationId.equals(id)]</text><polygon fill="#181818" points="498.1564,284.0779,508.1564,288.0779,498.1564,292.0779,502.1564,288.0779" style="stroke:#181818;stroke-width:1.0;"/><line style="stroke:#181818;stroke-width:1.0;" x1="315.2883" x2="504.1564" y1="288.0779" y2="288.0779"/><text fill="#000000" font-family="sans-serif" font-size="13" font-weight="bold" lengthAdjust="spacing" textLength="18.525" x="322.2883" y="282.2689">7.3</text><text fill="#000000" font-family="sans-serif" font-size="13" lengthAdjust="spacing" textLength="69.5631" x="344.8133" y="282.2689">getDetails()</text><polygon fill="#181818" points="326.2883,315.784,316.2883,319.784,326.2883,323.784,322.2883,319.784" style="stroke:#181818;stroke-width:1.0;"/><line style="stroke:#181818;stroke-width:1.0;stroke-dasharray:2.0,2.0;" x1="320.2883" x2="514.1564" y1="319.784" y2="319.784"/><text fill="#000000" font-family="sans-serif" font-size="13" font-weight="bold" lengthAdjust="spacing" textLength="18.525" x="332.2883" y="313.975">7.4</text><text fill="#000000" font-family="sans-serif" font-size="13" lengthAdjust="spacing" textLength="98.5011" x="354.8133" y="313.975">stationBasicInfo</text><polygon fill="#181818" points="498.1564,347.49,508.1564,351.49,498.1564,355.49,502.1564,351.49" style="stroke:#181818;stroke-width:1.0;"/><line style="stroke:#181818;stroke-width:1.0;" x1="315.2883" x2="504.1564" y1="351.49" y2="351.49"/><text fill="#000000" font-family="sans-serif" font-size="13" font-weight="bold" lengthAdjust="spacing" textLength="18.525" x="322.2883" y="345.681">7.5</text><text fill="#000000" font-family="sans-serif" font-size="13" lengthAdjust="spacing" textLength="84.6171" x="344.8133" y="345.681">getBuildings()</text><polygon fill="#181818" points="326.2883,379.196,316.2883,383.196,326.2883,387.196,322.2883,383.196" style="stroke:#181818;stroke-width:1.0;"/><line style="stroke:#181818;stroke-width:1.0;stroke-dasharray:2.0,2.0;" x1="320.2883" x2="514.1564" y1="383.196" y2="383.196"/><text fill="#000000" font-family="sans-serif" font-size="13" font-weight="bold" lengthAdjust="spacing" textLength="18.525" x="332.2883" y="377.387">7.6</text><text fill="#000000" font-family="sans-serif" font-size="13" lengthAdjust="spacing" textLength="77.4281" x="354.8133" y="377.387">buildingsList</text><polygon fill="#181818" points="498.1564,410.902,508.1564,414.902,498.1564,418.902,502.1564,414.902" style="stroke:#181818;stroke-width:1.0;"/><line style="stroke:#181818;stroke-width:1.0;" x1="315.2883" x2="504.1564" y1="414.902" y2="414.902"/><text fill="#000000" font-family="sans-serif" font-size="13" font-weight="bold" lengthAdjust="spacing" textLength="18.525" x="322.2883" y="409.093">7.7</text><text fill="#000000" font-family="sans-serif" font-size="13" lengthAdjust="spacing" textLength="132.1841" x="344.8133" y="409.093">getDemandedCargo()</text><polygon fill="#181818" points="326.2883,442.608,316.2883,446.608,326.2883,450.608,322.2883,446.608" style="stroke:#181818;stroke-width:1.0;"/><line style="stroke:#181818;stroke-width:1.0;stroke-dasharray:2.0,2.0;" x1="320.2883" x2="514.1564" y1="446.608" y2="446.608"/><text fill="#000000" font-family="sans-serif" font-size="13" font-weight="bold" lengthAdjust="spacing" textLength="18.525" x="332.2883" y="440.799">7.8</text><text fill="#000000" font-family="sans-serif" font-size="13" lengthAdjust="spacing" textLength="123.9551" x="354.8133" y="440.799">demandedCargoList</text><polygon fill="#181818" points="498.1564,474.314,508.1564,478.314,498.1564,482.314,502.1564,478.314" style="stroke:#181818;stroke-width:1.0;"/><line style="stroke:#181818;stroke-width:1.0;" x1="315.2883" x2="504.1564" y1="478.314" y2="478.314"/><text fill="#000000" font-family="sans-serif" font-size="13" font-weight="bold" lengthAdjust="spacing" textLength="18.525" x="322.2883" y="472.505">7.9</text><text fill="#000000" font-family="sans-serif" font-size="13" lengthAdjust="spacing" textLength="105.7031" x="344.8133" y="472.505">getSupplyCargo()</text><polygon fill="#181818" points="326.2883,506.0201,316.2883,510.0201,326.2883,514.0201,322.2883,510.0201" style="stroke:#181818;stroke-width:1.0;"/><line style="stroke:#181818;stroke-width:1.0;stroke-dasharray:2.0,2.0;" x1="320.2883" x2="514.1564" y1="510.0201" y2="510.0201"/><text fill="#000000" font-family="sans-serif" font-size="13" font-weight="bold" lengthAdjust="spacing" textLength="25.961" x="332.2883" y="504.2111">7.10</text><text fill="#000000" font-family="sans-serif" font-size="13" lengthAdjust="spacing" textLength="98.0591" x="362.2493" y="504.2111">supplyCargoList</text><line style="stroke:#181818;stroke-width:1.0;" x1="315.2883" x2="357.2883" y1="541.7261" y2="541.7261"/><line style="stroke:#181818;stroke-width:1.0;" x1="357.2883" x2="357.2883" y1="541.7261" y2="554.7261"/><line style="stroke:#181818;stroke-width:1.0;" x1="316.2883" x2="357.2883" y1="554.7261" y2="554.7261"/><polygon fill="#181818" points="326.2883,550.7261,316.2883,554.7261,326.2883,558.7261,322.2883,554.7261" style="stroke:#181818;stroke-width:1.0;"/><text fill="#000000" font-family="sans-serif" font-size="13" font-weight="bold" lengthAdjust="spacing" textLength="25.961" x="322.2883" y="535.9171">7.11</text><text fill="#000000" font-family="sans-serif" font-size="13" lengthAdjust="spacing" textLength="140.9071" x="352.2493" y="535.9171">compileStationDetails()</text><path d="M245.6545,569.7261 L328.2896,569.7261 L328.2896,579.4321 L318.2896,589.4321 L245.6545,589.4321 L245.6545,569.7261 " fill="#EEEEEE" style="stroke:#000000;stroke-width:1.5;"/><rect fill="none" height="19.706" style="stroke:#000000;stroke-width:1.5;" width="87.635" x="245.6545" y="569.7261"/><text fill="#000000" font-family="sans-serif" font-size="13" font-weight="bold" lengthAdjust="spacing" textLength="37.635" x="260.6545" y="584.6231">break</text><polygon fill="#181818" points="11,630.1381,1,634.1381,11,638.1381,7,634.1381" style="stroke:#181818;stroke-width:1.0;"/><line style="stroke:#181818;stroke-width:1.0;stroke-dasharray:2.0,2.0;" x1="5" x2="309.2883" y1="634.1381" y2="634.1381"/><text fill="#000000" font-family="sans-serif" font-size="13" font-weight="bold" lengthAdjust="spacing" textLength="7.436" x="17" y="628.3291">8</text><text fill="#000000" font-family="sans-serif" font-size="13" lengthAdjust="spacing" textLength="83.9021" x="28.436" y="628.3291">stationDetails</text><!--SRC=[jLHDQ-Cm4BthLymnWRfiJrrAwQ4DB865FNZx0oRIn1aYIwuqtYN_lhBhhxH9QA4M6AFHcpVlZQs9UtOL1YoXzCxhNV0bWOIQL1nEAjHxB2YNWoK8f0LTOQU0k4FZ_xChO8isai9QlAlB3GMbX2LbvOSeL49EBpKvJR1YB9hCEtZEVzn21hz881SKzWvM9CWsAfNOXJLNw0H-SvGEyEIT16zjefyYkbEbK0l_Gw4pEHDvSAkoxE4qxWuAwgETeeKTWN7rzyyLnBVDsYnL4NnTjJww89ZE1wGrhNbzquQiznLiVG12lHkIsC6qIejiracDaCHtmLRksYoMGyRGXhun_K7VvmlMsGneGn-8nX9MWBTZ5wxJzqr_m8BDAECpug5LttVvEFU2aK_QIUoTmaUChDTkwzzHNFBu5GUFDLkJxi4i7ZOzUGEOoS2AIdI6p1E6mizXmamBp6WahwlA7cQp4KVwxpLnhg3sPSMMtisZvJ7l9X3kXmYvjqlSl9jdElT-AdMVPUTkVpogejJ4p-cH-We0]--></g></svg>