<svg xmlns="http://www.w3.org/2000/svg" xmlns:xlink="http://www.w3.org/1999/xlink" contentStyleType="text/css" height="788px" preserveAspectRatio="none" style="width:608px;height:788px;background:#FFFFFF;" version="1.1" viewBox="0 0 608 788" width="608px" zoomAndPan="magnify"><title>System Sequence Diagram : US07 - Get Station Details</title><defs/><g><text fill="#000000" font-family="sans-serif" font-size="14" font-weight="bold" lengthAdjust="spacing" textLength="364.1162" x="123.4717" y="30.1074">System Sequence Diagram : US07 - Get Station Details</text><rect fill="#FFFFFF" height="644.5293" style="stroke:#181818;stroke-width:1.0;" width="10" x="193.5425" y="88.2422"/><rect fill="#FFFFFF" height="28" style="stroke:#181818;stroke-width:1.0;" width="10" x="198.5425" y="364.8613"/><rect fill="#FFFFFF" height="31.291" style="stroke:#181818;stroke-width:1.0;" width="10" x="402.0913" y="169.1152"/><rect fill="#FFFFFF" height="31.291" style="stroke:#181818;stroke-width:1.0;" width="10" x="402.0913" y="231.6973"/><rect fill="#FFFFFF" height="31.291" style="stroke:#181818;stroke-width:1.0;" width="10" x="498.8564" y="294.2793"/><rect fill="#FFFFFF" height="31.291" style="stroke:#181818;stroke-width:1.0;" width="10" x="558.2666" y="431.1523"/><rect fill="#FFFFFF" height="31.291" style="stroke:#181818;stroke-width:1.0;" width="10" x="558.2666" y="493.7344"/><rect fill="#FFFFFF" height="31.291" style="stroke:#181818;stroke-width:1.0;" width="10" x="558.2666" y="556.3164"/><rect fill="#FFFFFF" height="31.291" style="stroke:#181818;stroke-width:1.0;" width="10" x="558.2666" y="618.8984"/><rect fill="none" height="575.9473" style="stroke:#000000;stroke-width:1.5;" width="483.5479" x="118.5117" y="126.5332"/><line style="stroke:#181818;stroke-width:0.5;stroke-dasharray:5.0,5.0;" x1="198.5117" x2="198.5117" y1="78.2422" y2="750.7715"/><line style="stroke:#181818;stroke-width:0.5;stroke-dasharray:5.0,5.0;" x1="406.9434" x2="406.9434" y1="78.2422" y2="750.7715"/><line style="stroke:#181818;stroke-width:0.5;stroke-dasharray:5.0,5.0;" x1="503.2393" x2="503.2393" y1="78.2422" y2="750.7715"/><line style="stroke:#181818;stroke-width:0.5;stroke-dasharray:5.0,5.0;" x1="562.4736" x2="562.4736" y1="78.2422" y2="750.7715"/><rect fill="#E3E3E3" height="32.6211" rx="2.5" ry="2.5" style="stroke:#181818;stroke-width:0.5;" width="140.0615" x="128.5117" y="44.6211"/><text fill="#000000" font-family="sans-serif" font-size="14" lengthAdjust="spacing" textLength="126.0615" x="135.5117" y="66.7285">ListStationController</text><rect fill="#E3E3E3" height="32.6211" rx="2.5" ry="2.5" style="stroke:#181818;stroke-width:0.5;" width="140.0615" x="128.5117" y="749.7715"/><text fill="#000000" font-family="sans-serif" font-size="14" lengthAdjust="spacing" textLength="126.0615" x="135.5117" y="771.8789">ListStationController</text><rect fill="#E3E3E3" height="32.6211" rx="2.5" ry="2.5" style="stroke:#181818;stroke-width:0.5;" width="132.2959" x="340.9434" y="44.6211"/><text fill="#000000" font-family="sans-serif" font-size="14" lengthAdjust="spacing" textLength="118.2959" x="347.9434" y="66.7285">ApplicationSession</text><rect fill="#E3E3E3" height="32.6211" rx="2.5" ry="2.5" style="stroke:#181818;stroke-width:0.5;" width="132.2959" x="340.9434" y="749.7715"/><text fill="#000000" font-family="sans-serif" font-size="14" lengthAdjust="spacing" textLength="118.2959" x="347.9434" y="771.8789">ApplicationSession</text><rect fill="#E3E3E3" height="32.6211" rx="2.5" ry="2.5" style="stroke:#181818;stroke-width:0.5;" width="41.2344" x="483.2393" y="44.6211"/><text fill="#000000" font-family="sans-serif" font-size="14" lengthAdjust="spacing" textLength="27.2344" x="490.2393" y="66.7285">Map</text><rect fill="#E3E3E3" height="32.6211" rx="2.5" ry="2.5" style="stroke:#181818;stroke-width:0.5;" width="41.2344" x="483.2393" y="749.7715"/><text fill="#000000" font-family="sans-serif" font-size="14" lengthAdjust="spacing" textLength="27.2344" x="490.2393" y="771.8789">Map</text><rect fill="#E3E3E3" height="32.6211" rx="2.5" ry="2.5" style="stroke:#181818;stroke-width:0.5;" width="57.5859" x="534.4736" y="44.6211"/><text fill="#000000" font-family="sans-serif" font-size="14" lengthAdjust="spacing" textLength="43.5859" x="541.4736" y="66.7285">Station</text><rect fill="#E3E3E3" height="32.6211" rx="2.5" ry="2.5" style="stroke:#181818;stroke-width:0.5;" width="57.5859" x="534.4736" y="749.7715"/><text fill="#000000" font-family="sans-serif" font-size="14" lengthAdjust="spacing" textLength="43.5859" x="541.4736" y="771.8789">Station</text><rect fill="#FFFFFF" height="644.5293" style="stroke:#181818;stroke-width:1.0;" width="10" x="193.5425" y="88.2422"/><rect fill="#FFFFFF" height="28" style="stroke:#181818;stroke-width:1.0;" width="10" x="198.5425" y="364.8613"/><rect fill="#FFFFFF" height="31.291" style="stroke:#181818;stroke-width:1.0;" width="10" x="402.0913" y="169.1152"/><rect fill="#FFFFFF" height="31.291" style="stroke:#181818;stroke-width:1.0;" width="10" x="402.0913" y="231.6973"/><rect fill="#FFFFFF" height="31.291" style="stroke:#181818;stroke-width:1.0;" width="10" x="498.8564" y="294.2793"/><rect fill="#FFFFFF" height="31.291" style="stroke:#181818;stroke-width:1.0;" width="10" x="558.2666" y="431.1523"/><rect fill="#FFFFFF" height="31.291" style="stroke:#181818;stroke-width:1.0;" width="10" x="558.2666" y="493.7344"/><rect fill="#FFFFFF" height="31.291" style="stroke:#181818;stroke-width:1.0;" width="10" x="558.2666" y="556.3164"/><rect fill="#FFFFFF" height="31.291" style="stroke:#181818;stroke-width:1.0;" width="10" x="558.2666" y="618.8984"/><polygon fill="#181818" points="181.5425,107.5332,191.5425,111.5332,181.5425,115.5332,185.5425,111.5332" style="stroke:#181818;stroke-width:1.0;"/><line style="stroke:#181818;stroke-width:1.0;stroke-dasharray:2.0,2.0;" x1="0" x2="187.5425" y1="111.5332" y2="111.5332"/><text fill="#000000" font-family="sans-serif" font-size="13" font-weight="bold" lengthAdjust="spacing" textLength="14.46" x="7" y="106.2705">15</text><text fill="#000000" font-family="sans-serif" font-size="13" lengthAdjust="spacing" textLength="156.0825" x="25.46" y="106.2705">getStationDetails(stationId)</text><path d="M118.5117,126.5332 L276.2017,126.5332 L276.2017,135.8242 L266.2017,145.8242 L118.5117,145.8242 L118.5117,126.5332 " fill="#EEEEEE" style="stroke:#000000;stroke-width:1.5;"/><rect fill="none" height="575.9473" style="stroke:#000000;stroke-width:1.5;" width="483.5479" x="118.5117" y="126.5332"/><text fill="#000000" font-family="sans-serif" font-size="13" font-weight="bold" lengthAdjust="spacing" textLength="112.6899" x="133.5117" y="141.5615">Get station details</text><polygon fill="#181818" points="390.0913,165.1152,400.0913,169.1152,390.0913,173.1152,394.0913,169.1152" style="stroke:#181818;stroke-width:1.0;"/><line style="stroke:#181818;stroke-width:1.0;" x1="203.5425" x2="396.0913" y1="169.1152" y2="169.1152"/><text fill="#000000" font-family="sans-serif" font-size="13" font-weight="bold" lengthAdjust="spacing" textLength="25.3018" x="210.5425" y="163.8525">15.1</text><text fill="#000000" font-family="sans-serif" font-size="13" lengthAdjust="spacing" textLength="75.8735" x="239.8442" y="163.8525">getInstance()</text><polygon fill="#181818" points="214.5425,196.4063,204.5425,200.4063,214.5425,204.4063,210.5425,200.4063" style="stroke:#181818;stroke-width:1.0;"/><line style="stroke:#181818;stroke-width:1.0;stroke-dasharray:2.0,2.0;" x1="208.5425" x2="406.0913" y1="200.4063" y2="200.4063"/><text fill="#000000" font-family="sans-serif" font-size="13" font-weight="bold" lengthAdjust="spacing" textLength="25.3018" x="220.5425" y="195.1436">15.2</text><text fill="#000000" font-family="sans-serif" font-size="13" lengthAdjust="spacing" textLength="93.2217" x="249.8442" y="195.1436">sessionInstance</text><polygon fill="#181818" points="390.0913,227.6973,400.0913,231.6973,390.0913,235.6973,394.0913,231.6973" style="stroke:#181818;stroke-width:1.0;"/><line style="stroke:#181818;stroke-width:1.0;" x1="203.5425" x2="396.0913" y1="231.6973" y2="231.6973"/><text fill="#000000" font-family="sans-serif" font-size="13" font-weight="bold" lengthAdjust="spacing" textLength="25.3018" x="210.5425" y="226.4346">15.3</text><text fill="#000000" font-family="sans-serif" font-size="13" lengthAdjust="spacing" textLength="95.3672" x="239.8442" y="226.4346">getCurrentMap()</text><polygon fill="#181818" points="214.5425,258.9883,204.5425,262.9883,214.5425,266.9883,210.5425,262.9883" style="stroke:#181818;stroke-width:1.0;"/><line style="stroke:#181818;stroke-width:1.0;stroke-dasharray:2.0,2.0;" x1="208.5425" x2="406.0913" y1="262.9883" y2="262.9883"/><text fill="#000000" font-family="sans-serif" font-size="13" font-weight="bold" lengthAdjust="spacing" textLength="25.3018" x="220.5425" y="257.7256">15.4</text><text fill="#000000" font-family="sans-serif" font-size="13" lengthAdjust="spacing" textLength="65.749" x="249.8442" y="257.7256">currentMap</text><polygon fill="#181818" points="486.8564,290.2793,496.8564,294.2793,486.8564,298.2793,490.8564,294.2793" style="stroke:#181818;stroke-width:1.0;"/><line style="stroke:#181818;stroke-width:1.0;" x1="203.5425" x2="492.8564" y1="294.2793" y2="294.2793"/><text fill="#000000" font-family="sans-serif" font-size="13" font-weight="bold" lengthAdjust="spacing" textLength="25.3018" x="210.5425" y="289.0166">15.5</text><text fill="#000000" font-family="sans-serif" font-size="13" lengthAdjust="spacing" textLength="59.2363" x="239.8442" y="289.0166">getCities()</text><polygon fill="#181818" points="214.5425,321.5703,204.5425,325.5703,214.5425,329.5703,210.5425,325.5703" style="stroke:#181818;stroke-width:1.0;"/><line style="stroke:#181818;stroke-width:1.0;stroke-dasharray:2.0,2.0;" x1="208.5425" x2="502.8564" y1="325.5703" y2="325.5703"/><text fill="#000000" font-family="sans-serif" font-size="13" font-weight="bold" lengthAdjust="spacing" textLength="25.3018" x="220.5425" y="320.3076">15.6</text><text fill="#000000" font-family="sans-serif" font-size="13" lengthAdjust="spacing" textLength="49.8481" x="249.8442" y="320.3076">citiesList</text><line style="stroke:#181818;stroke-width:1.0;" x1="208.5425" x2="250.5425" y1="356.8613" y2="356.8613"/><line style="stroke:#181818;stroke-width:1.0;" x1="250.5425" x2="250.5425" y1="356.8613" y2="369.8613"/><line style="stroke:#181818;stroke-width:1.0;" x1="209.5425" x2="250.5425" y1="369.8613" y2="369.8613"/><polygon fill="#181818" points="219.5425,365.8613,209.5425,369.8613,219.5425,373.8613,215.5425,369.8613" style="stroke:#181818;stroke-width:1.0;"/><text fill="#000000" font-family="sans-serif" font-size="13" font-weight="bold" lengthAdjust="spacing" textLength="25.3018" x="215.5425" y="351.5986">15.7</text><text fill="#000000" font-family="sans-serif" font-size="13" lengthAdjust="spacing" textLength="145.2471" x="244.8442" y="351.5986">findStationById(stationId)</text><polygon fill="#181818" points="546.2666,427.1523,556.2666,431.1523,546.2666,435.1523,550.2666,431.1523" style="stroke:#181818;stroke-width:1.0;"/><line style="stroke:#181818;stroke-width:1.0;" x1="203.5425" x2="552.2666" y1="431.1523" y2="431.1523"/><text fill="#000000" font-family="sans-serif" font-size="13" font-weight="bold" lengthAdjust="spacing" textLength="25.3018" x="210.5425" y="425.8896">15.8</text><text fill="#000000" font-family="sans-serif" font-size="13" lengthAdjust="spacing" textLength="66.4663" x="239.8442" y="425.8896">getDetails()</text><polygon fill="#181818" points="214.5425,458.4434,204.5425,462.4434,214.5425,466.4434,210.5425,462.4434" style="stroke:#181818;stroke-width:1.0;"/><line style="stroke:#181818;stroke-width:1.0;stroke-dasharray:2.0,2.0;" x1="208.5425" x2="562.2666" y1="462.4434" y2="462.4434"/><text fill="#000000" font-family="sans-serif" font-size="13" font-weight="bold" lengthAdjust="spacing" textLength="25.3018" x="220.5425" y="457.1807">15.9</text><text fill="#000000" font-family="sans-serif" font-size="13" lengthAdjust="spacing" textLength="91.7744" x="249.8442" y="457.1807">stationBasicInfo</text><polygon fill="#181818" points="546.2666,489.7344,556.2666,493.7344,546.2666,497.7344,550.2666,493.7344" style="stroke:#181818;stroke-width:1.0;"/><line style="stroke:#181818;stroke-width:1.0;" x1="203.5425" x2="552.2666" y1="493.7344" y2="493.7344"/><text fill="#000000" font-family="sans-serif" font-size="13" font-weight="bold" lengthAdjust="spacing" textLength="32.5317" x="210.5425" y="488.4717">15.10</text><text fill="#000000" font-family="sans-serif" font-size="13" lengthAdjust="spacing" textLength="79.4854" x="247.0742" y="488.4717">getBuildings()</text><polygon fill="#181818" points="214.5425,521.0254,204.5425,525.0254,214.5425,529.0254,210.5425,525.0254" style="stroke:#181818;stroke-width:1.0;"/><line style="stroke:#181818;stroke-width:1.0;stroke-dasharray:2.0,2.0;" x1="208.5425" x2="562.2666" y1="525.0254" y2="525.0254"/><text fill="#000000" font-family="sans-serif" font-size="13" font-weight="bold" lengthAdjust="spacing" textLength="32.5317" x="220.5425" y="519.7627">15.11</text><text fill="#000000" font-family="sans-serif" font-size="13" lengthAdjust="spacing" textLength="71.5444" x="257.0742" y="519.7627">buildingsList</text><polygon fill="#181818" points="546.2666,552.3164,556.2666,556.3164,546.2666,560.3164,550.2666,556.3164" style="stroke:#181818;stroke-width:1.0;"/><line style="stroke:#181818;stroke-width:1.0;" x1="203.5425" x2="552.2666" y1="556.3164" y2="556.3164"/><text fill="#000000" font-family="sans-serif" font-size="13" font-weight="bold" lengthAdjust="spacing" textLength="32.5317" x="210.5425" y="551.0537">15.12</text><text fill="#000000" font-family="sans-serif" font-size="13" lengthAdjust="spacing" textLength="125.7344" x="247.0742" y="551.0537">getDemandedCargo()</text><polygon fill="#181818" points="214.5425,583.6074,204.5425,587.6074,214.5425,591.6074,210.5425,587.6074" style="stroke:#181818;stroke-width:1.0;"/><line style="stroke:#181818;stroke-width:1.0;stroke-dasharray:2.0,2.0;" x1="208.5425" x2="562.2666" y1="587.6074" y2="587.6074"/><text fill="#000000" font-family="sans-serif" font-size="13" font-weight="bold" lengthAdjust="spacing" textLength="32.5317" x="220.5425" y="582.3447">15.13</text><text fill="#000000" font-family="sans-serif" font-size="13" lengthAdjust="spacing" textLength="117.0762" x="257.0742" y="582.3447">demandedCargoList</text><polygon fill="#181818" points="546.2666,614.8984,556.2666,618.8984,546.2666,622.8984,550.2666,618.8984" style="stroke:#181818;stroke-width:1.0;"/><line style="stroke:#181818;stroke-width:1.0;" x1="203.5425" x2="552.2666" y1="618.8984" y2="618.8984"/><text fill="#000000" font-family="sans-serif" font-size="13" font-weight="bold" lengthAdjust="spacing" textLength="32.5317" x="210.5425" y="613.6357">15.14</text><text fill="#000000" font-family="sans-serif" font-size="13" lengthAdjust="spacing" textLength="101.8862" x="247.0742" y="613.6357">getSupplyCargo()</text><polygon fill="#181818" points="214.5425,646.1895,204.5425,650.1895,214.5425,654.1895,210.5425,650.1895" style="stroke:#181818;stroke-width:1.0;"/><line style="stroke:#181818;stroke-width:1.0;stroke-dasharray:2.0,2.0;" x1="208.5425" x2="562.2666" y1="650.1895" y2="650.1895"/><text fill="#000000" font-family="sans-serif" font-size="13" font-weight="bold" lengthAdjust="spacing" textLength="32.5317" x="220.5425" y="644.9268">15.15</text><text fill="#000000" font-family="sans-serif" font-size="13" lengthAdjust="spacing" textLength="93.2153" x="257.0742" y="644.9268">supplyCargoList</text><line style="stroke:#181818;stroke-width:1.0;" x1="203.5425" x2="245.5425" y1="681.4805" y2="681.4805"/><line style="stroke:#181818;stroke-width:1.0;" x1="245.5425" x2="245.5425" y1="681.4805" y2="694.4805"/><line style="stroke:#181818;stroke-width:1.0;" x1="204.5425" x2="245.5425" y1="694.4805" y2="694.4805"/><polygon fill="#181818" points="214.5425,690.4805,204.5425,694.4805,214.5425,698.4805,210.5425,694.4805" style="stroke:#181818;stroke-width:1.0;"/><text fill="#000000" font-family="sans-serif" font-size="13" font-weight="bold" lengthAdjust="spacing" textLength="32.5317" x="210.5425" y="676.2178">15.16</text><text fill="#000000" font-family="sans-serif" font-size="13" lengthAdjust="spacing" textLength="133.6626" x="247.0742" y="676.2178">compileStationDetails()</text><polygon fill="#181818" points="11,728.7715,1,732.7715,11,736.7715,7,732.7715" style="stroke:#181818;stroke-width:1.0;"/><line style="stroke:#181818;stroke-width:1.0;stroke-dasharray:2.0,2.0;" x1="5" x2="197.5425" y1="732.7715" y2="732.7715"/><text fill="#000000" font-family="sans-serif" font-size="13" font-weight="bold" lengthAdjust="spacing" textLength="14.46" x="17" y="727.5088">16</text><text fill="#000000" font-family="sans-serif" font-size="13" lengthAdjust="spacing" textLength="78.0381" x="35.46" y="727.5088">stationDetails</text><!--SRC=[hPJ1Rjim38RlUWeUcuE7zR0DA8O1Qm8C0RgJiGTW9SObAakkH6_8sqznRCzQRNThwejXYVp_ZpAf-CYkmO0rrDvv_H1yJI2X9HN7dGRr8rPKoj4I1DA2hhBJWFY0nlzYLy41RII5hNZNrlSKb1AMb5KUer0D9Jsrv3J1Zh4wPTx0Z_Bz9oZW6mcKWiBUmOu4sKQbahgmvWQTm1r7wGEstadmrYRvQSJNfh6ikuYIOaolRFixDjbtBwOKQk6VABHWCQa6hZ-eelWo7tW35GshVGLNyVovDnjL1TysNPdz8fY-J4XFvl7kEgtDUa0oVrucTDPxbuJJsLvjKlPOqyoXm9p4Obb9F9vZ1eCaO6ZDu3NqspO4Sf9-qjlpwr7x8lIKtxEoCCMSyon-2babwJ9Fkpd9ANlDUadlmCxqwxV7lPdssuHjlgypW8NMNq4QXhKxaQ7VCzjXm62CNMsolWoChFVku7E-SLZ_bUYsPMlIZNGHq_qWyloF_JVGZcfqXimMG-KlWJ9JeJS0Aziq1iUBiU8VcTT1BSwChnkszDVDkb7aJ7utVrJgSr4iNSunorVgnUR_3G00]--></g></svg>