<svg xmlns="http://www.w3.org/2000/svg" xmlns:xlink="http://www.w3.org/1999/xlink" contentStyleType="text/css" height="550px" preserveAspectRatio="none" style="width:462px;height:550px;background:#FFFFFF;" version="1.1" viewBox="0 0 462 550" width="462px" zoomAndPan="magnify"><defs/><g><!--class Player--><g id="elem_Player"><rect codeLine="10" fill="#ADD8E6" height="55.2422" id="Player" rx="2.5" ry="2.5" style="stroke:#0000FF;stroke-width:0.5;" width="74.2549" x="7" y="7"/><text fill="#000000" font-family="sans-serif" font-size="14" lengthAdjust="spacing" textLength="39.6826" x="24.2861" y="27.1074">Player</text><line style="stroke:#0000FF;stroke-width:0.5;" x1="8" x2="80.2549" y1="35.6211" y2="35.6211"/><text fill="#000000" font-family="sans-serif" font-size="14" lengthAdjust="spacing" textLength="62.2549" x="13" y="54.7285">username</text></g><!--class Station--><g id="elem_Station"><rect codeLine="14" fill="#ADD8E6" height="55.2422" id="Station" rx="2.5" ry="2.5" style="stroke:#0000FF;stroke-width:0.5;" width="61.0205" x="323.5" y="317.5"/><text fill="#000000" font-family="sans-serif" font-size="14" lengthAdjust="spacing" textLength="43.5859" x="332.2173" y="337.6074">Station</text><line style="stroke:#0000FF;stroke-width:0.5;" x1="324.5" x2="383.5205" y1="346.1211" y2="346.1211"/><text fill="#000000" font-family="sans-serif" font-size="14" lengthAdjust="spacing" textLength="49.0205" x="329.5" y="365.2285">nameID</text></g><!--class StationType--><g id="elem_StationType"><rect codeLine="18" fill="#ADD8E6" height="73.8633" id="StationType" rx="2.5" ry="2.5" style="stroke:#0000FF;stroke-width:0.5;" width="80.71" x="226.5" y="470"/><text fill="#000000" font-family="sans-serif" font-size="14" lengthAdjust="spacing" textLength="74.71" x="229.5" y="490.1074">StationType</text><line style="stroke:#0000FF;stroke-width:0.5;" x1="227.5" x2="306.21" y1="498.6211" y2="498.6211"/><text fill="#000000" font-family="sans-serif" font-size="14" lengthAdjust="spacing" textLength="35.0205" x="232.5" y="517.7285">name</text><text fill="#000000" font-family="sans-serif" font-size="14" lengthAdjust="spacing" textLength="26.4619" x="232.5" y="536.3496">type</text></g><!--class RailwayLine--><g id="elem_RailwayLine"><rect codeLine="23" fill="#ADD8E6" height="73.8633" id="RailwayLine" rx="2.5" ry="2.5" style="stroke:#0000FF;stroke-width:0.5;" width="83.5791" x="372" y="143.5"/><text fill="#000000" font-family="sans-serif" font-size="14" lengthAdjust="spacing" textLength="75.4824" x="376.0483" y="163.6074">RailwayLine</text><line style="stroke:#0000FF;stroke-width:0.5;" x1="373" x2="454.5791" y1="172.1211" y2="172.1211"/><text fill="#000000" font-family="sans-serif" font-size="14" lengthAdjust="spacing" textLength="71.5791" x="378" y="191.2285">isElectrified</text><text fill="#000000" font-family="sans-serif" font-size="14" lengthAdjust="spacing" textLength="38.1445" x="378" y="209.8496">length</text></g><!--class RailwayNetwork--><g id="elem_RailwayNetwork"><rect codeLine="28" fill="#ADD8E6" height="55.2422" id="RailwayNetwork" rx="2.5" ry="2.5" style="stroke:#0000FF;stroke-width:0.5;" width="106.3584" x="291" y="7"/><text fill="#000000" font-family="sans-serif" font-size="14" lengthAdjust="spacing" textLength="100.3584" x="294" y="27.1074">RailwayNetwork</text><line style="stroke:#0000FF;stroke-width:0.5;" x1="292" x2="396.3584" y1="35.6211" y2="35.6211"/><text fill="#000000" font-family="sans-serif" font-size="14" lengthAdjust="spacing" textLength="49.0205" x="297" y="54.7285">nameID</text></g><!--class Locomotive--><g id="elem_Locomotive"><rect codeLine="32" fill="#ADD8E6" height="92.4844" id="Locomotive" rx="2.5" ry="2.5" style="stroke:#0000FF;stroke-width:0.5;" width="77.5928" x="30" y="299"/><text fill="#000000" font-family="sans-serif" font-size="14" lengthAdjust="spacing" textLength="71.5928" x="33" y="319.1074">Locomotive</text><line style="stroke:#0000FF;stroke-width:0.5;" x1="31" x2="106.5928" y1="327.6211" y2="327.6211"/><text fill="#000000" font-family="sans-serif" font-size="14" lengthAdjust="spacing" textLength="49.0205" x="36" y="346.7285">nameID</text><text fill="#000000" font-family="sans-serif" font-size="14" lengthAdjust="spacing" textLength="26.4619" x="36" y="365.3496">type</text><text fill="#000000" font-family="sans-serif" font-size="14" lengthAdjust="spacing" textLength="38.1309" x="36" y="383.9707">power</text></g><!--class Train--><g id="elem_Train"><rect codeLine="38" fill="#ADD8E6" height="55.2422" id="Train" rx="2.5" ry="2.5" style="stroke:#0000FF;stroke-width:0.5;" width="61.0205" x="13.5" y="153"/><text fill="#000000" font-family="sans-serif" font-size="14" lengthAdjust="spacing" textLength="31.8965" x="28.062" y="173.1074">Train</text><line style="stroke:#0000FF;stroke-width:0.5;" x1="14.5" x2="73.5205" y1="181.6211" y2="181.6211"/><text fill="#000000" font-family="sans-serif" font-size="14" lengthAdjust="spacing" textLength="49.0205" x="19.5" y="200.7285">nameID</text></g><g id="elem_TrainTypes"><path d="M109.5,141 L109.5,220.1641 L198.4136,220.1641 L198.4136,151 L188.4136,141 L109.5,141 " fill="#FEFFDD" style="stroke:#181818;stroke-width:0.5;"/><path d="M188.4136,141 L188.4136,151 L198.4136,151 L188.4136,141 " fill="#FEFFDD" style="stroke:#181818;stroke-width:1.0;"/><text fill="#000000" font-family="sans-serif" font-size="13" lengthAdjust="spacing" textLength="67.9136" x="115.5" y="160.0283">Train types:</text><text fill="#000000" font-family="sans-serif" font-size="13" lengthAdjust="spacing" textLength="45.5127" x="115.5" y="177.3193">- Steam</text><text fill="#000000" font-family="sans-serif" font-size="13" lengthAdjust="spacing" textLength="44.0654" x="115.5" y="194.6104">- Diesel</text><text fill="#000000" font-family="sans-serif" font-size="13" lengthAdjust="spacing" textLength="50.5591" x="115.5" y="211.9014">- Electric</text></g><g id="elem_StationTypes"><path d="M188,305.5 L188,384.6641 A0,0 0 0 0 188,384.6641 L241.02,384.6641 L260.44,469.82 L249.02,384.6641 L287.7681,384.6641 A0,0 0 0 0 287.7681,384.6641 L287.7681,315.5 L277.7681,305.5 L188,305.5 A0,0 0 0 0 188,305.5 " fill="#FEFFDD" style="stroke:#181818;stroke-width:0.5;"/><path d="M277.7681,305.5 L277.7681,315.5 L287.7681,315.5 L277.7681,305.5 " fill="#FEFFDD" style="stroke:#181818;stroke-width:0.5;"/><text fill="#000000" font-family="sans-serif" font-size="13" lengthAdjust="spacing" textLength="78.7681" x="194" y="324.5283">Station types:</text><text fill="#000000" font-family="sans-serif" font-size="13" lengthAdjust="spacing" textLength="42.6309" x="194" y="341.8193">- Depot</text><text fill="#000000" font-family="sans-serif" font-size="13" lengthAdjust="spacing" textLength="48.4136" x="194" y="359.1104">- Station</text><text fill="#000000" font-family="sans-serif" font-size="13" lengthAdjust="spacing" textLength="58.5063" x="194" y="376.4014">- Terminal</text></g><!--link Player to Train--><g id="link_Player_Train"><path codeLine="43" d="M44,62.25 C44,88.11 44,127.08 44,152.9 " fill="none" id="Player-Train" style="stroke:#181818;stroke-width:1.0;"/><polygon fill="#000000" points="49,106.6455,51.9389,97.6004,46.0611,97.6004,49,106.6455" style="stroke:#000000;stroke-width:1.0;"/><text fill="#000000" font-family="sans-serif" font-size="13" lengthAdjust="spacing" textLength="95.3608" x="58" y="107.0283">verifies travel for</text><text fill="#000000" font-family="sans-serif" font-size="13" lengthAdjust="spacing" textLength="7.23" x="36.2317" y="84.2133">1</text><text fill="#000000" font-family="sans-serif" font-size="13" lengthAdjust="spacing" textLength="5.0591" x="38.4263" y="141.5858">*</text></g><!--link Station to StationType--><g id="link_Station_StationType"><path codeLine="44" d="M339.44,372.78 C324.97,399.38 302.7,440.34 286.67,469.83 " fill="none" id="Station-StationType" style="stroke:#181818;stroke-width:1.0;"/><polygon fill="#000000" points="315.6115,435.0381,322.5142,428.4957,317.3504,425.6879,315.6115,435.0381" style="stroke:#000000;stroke-width:1.0;"/><text fill="#000000" font-family="sans-serif" font-size="13" lengthAdjust="spacing" textLength="59.9917" x="327" y="436.0283">defined by</text><text fill="#000000" font-family="sans-serif" font-size="13" lengthAdjust="spacing" textLength="5.0591" x="330.7123" y="394.7499">*</text><text fill="#000000" font-family="sans-serif" font-size="13" lengthAdjust="spacing" textLength="7.23" x="282.5966" y="458.7614">1</text></g><!--link RailwayLine to Station--><g id="link_RailwayLine_Station"><path codeLine="45" d="M400.68,217.56 C389.53,247.77 373.87,290.18 363.83,317.38 " fill="none" id="RailwayLine-Station" style="stroke:#181818;stroke-width:1.0;"/><polygon fill="#000000" points="390.2684,264.3361,396.1579,256.8686,390.6438,254.8329,390.2684,264.3361" style="stroke:#000000;stroke-width:1.0;"/><text fill="#000000" font-family="sans-serif" font-size="13" lengthAdjust="spacing" textLength="52.0317" x="401" y="265.0283">connects</text><text fill="#000000" font-family="sans-serif" font-size="13" lengthAdjust="spacing" textLength="7.23" x="390.845" y="239.4557">1</text><text fill="#000000" font-family="sans-serif" font-size="13" lengthAdjust="spacing" textLength="7.23" x="358.318" y="306.0612">2</text></g><!--link Train to Locomotive--><g id="link_Train_Locomotive"><path codeLine="46" d="M42.72,208.09 C42.35,225.52 42.73,248.75 46,269 C47.59,278.81 50.14,289.13 52.98,298.86 " fill="none" id="Train-Locomotive" style="stroke:#181818;stroke-width:1.0;"/><polygon fill="#000000" points="51.5616,264.6139,53.466,255.2959,47.6253,255.9561,51.5616,264.6139" style="stroke:#000000;stroke-width:1.0;"/><text fill="#000000" font-family="sans-serif" font-size="13" lengthAdjust="spacing" textLength="67.209" x="60" y="265.0283">powered by</text><text fill="#000000" font-family="sans-serif" font-size="13" lengthAdjust="spacing" textLength="7.23" x="34.6388" y="230.4698">1</text><text fill="#000000" font-family="sans-serif" font-size="13" lengthAdjust="spacing" textLength="7.23" x="43.1598" y="287.8489">1</text></g><!--link RailwayNetwork to RailwayLine--><g id="link_RailwayNetwork_RailwayLine"><path codeLine="47" d="M357,62.25 C368.11,85.1 384.2,118.19 396.45,143.39 " fill="none" id="RailwayNetwork-RailwayLine" style="stroke:#181818;stroke-width:1.0;"/><polygon fill="#000000" points="386.1863,106.1422,384.8744,96.7226,379.5882,99.2927,386.1863,106.1422" style="stroke:#000000;stroke-width:1.0;"/><text fill="#000000" font-family="sans-serif" font-size="13" lengthAdjust="spacing" textLength="48.4199" x="393" y="107.0283">contains</text><text fill="#000000" font-family="sans-serif" font-size="13" lengthAdjust="spacing" textLength="7.23" x="352.0641" y="84.2133">1</text><text fill="#000000" font-family="sans-serif" font-size="13" lengthAdjust="spacing" textLength="5.0591" x="387.9213" y="132.3321">*</text></g><!--link RailwayNetwork to Station--><g id="link_RailwayNetwork_Station"><path codeLine="48" d="M336.21,62.1 C330.44,83.26 323.06,113.75 320,141 C316.08,175.89 315.32,185.2 320,220 C324.62,254.29 336.11,292.51 344.45,317.34 " fill="none" id="RailwayNetwork-Station" style="stroke:#181818;stroke-width:1.0;"/><polygon fill="#000000" points="325.1613,185.6429,327.8069,176.5077,321.9321,176.6974,325.1613,185.6429" style="stroke:#000000;stroke-width:1.0;"/><text fill="#000000" font-family="sans-serif" font-size="13" lengthAdjust="spacing" textLength="20.96" x="334" y="186.0283">has</text><text fill="#000000" font-family="sans-serif" font-size="13" lengthAdjust="spacing" textLength="7.23" x="326.5843" y="84.4821">1</text><text fill="#000000" font-family="sans-serif" font-size="13" lengthAdjust="spacing" textLength="5.0591" x="336.6679" y="306.012">*</text></g><!--link TrainTypes to Locomotive--><g id="link_TrainTypes_Locomotive"><path codeLine="51" d="M148.16,220.32 C144.82,236.01 139.7,253.94 132,269 C125.73,281.26 117.12,293.28 108.28,303.97 " fill="none" id="TrainTypes-Locomotive" style="stroke:#181818;stroke-width:1.0;stroke-dasharray:7.0,7.0;"/></g><!--SRC=[VL5DImCn4BtdLmnx4OIA7xSU1BKUX29YwytBc9rsGxF9aabRglZVdUn7DrJnb4dUc_TcNdXZN8C1Q-0AIxytRWqhj4oAZuYso7mNOp0VsqXFshk5-IIuFAN0bmAuHxrP1xzrvOEtFi3ShAjuRxUKC1zA2jrx-_IjAbCIQ1EqfQwkALQ-PAKwoHUB1mgjyfOfEAnJLmyk8aRZNOicv6ds2riU6ZhYSaIvZwHND7QFXxbn7SdmeoKjYwuCbNAtvDQn-iL_fhZtOVEdxznhN_jeTfJ3lJ50u_SKHlOoe3cT_mnUoRR3SsKQ1cv8oq0QeeUtnTMDwZCfhWgOJA0uBtgPAUoe7PqX1joHXPK4VQk6c18pDKXVdiuKIbf90YLy78ITPp9ON1yxX2t_xoGa5cxdEx3aoBQVThkUo0xHPSFdXgrw557-jsKSfiB4LCv7cROR9oNDqtSt4HfXdOgPP48sLVt_wWAmJpzbm6eiuU8YMsEG7Xn7yHarFdOkBPJA9ONQEBIjUfOng_oI7BAx-W40]--></g></svg>