<svg xmlns="http://www.w3.org/2000/svg" xmlns:xlink="http://www.w3.org/1999/xlink" contentStyleType="text/css" height="417px" preserveAspectRatio="none" style="width:937px;height:417px;background:#FFFFFF;" version="1.1" viewBox="0 0 937 417" width="937px" zoomAndPan="magnify"><defs/><g><rect fill="#FFFFFF" height="252.3281" style="stroke:#181818;stroke-width:1.0;" width="10" x="385.0259" y="90.5332"/><rect fill="#FFFFFF" height="31.291" style="stroke:#181818;stroke-width:1.0;" width="10" x="790.8936" y="148.1152"/><rect fill="#FFFFFF" height="31.291" style="stroke:#181818;stroke-width:1.0;" width="10" x="869.7554" y="210.6973"/><rect fill="#FFFFFF" height="31.291" style="stroke:#181818;stroke-width:1.0;" width="10" x="869.7554" y="273.2793"/><rect fill="none" height="207.0371" style="stroke:#000000;stroke-width:1.5;" width="637.0186" x="294.0366" y="105.5332"/><line style="stroke:#181818;stroke-width:0.5;stroke-dasharray:5.0,5.0;" x1="389.0366" x2="389.0366" y1="57.2422" y2="360.8613"/><line style="stroke:#181818;stroke-width:0.5;stroke-dasharray:5.0,5.0;" x1="795.3315" x2="795.3315" y1="57.2422" y2="360.8613"/><line style="stroke:#181818;stroke-width:0.5;stroke-dasharray:5.0,5.0;" x1="874.4556" x2="874.4556" y1="57.2422" y2="360.8613"/><rect fill="#E2E2F0" height="32.6211" rx="2.5" ry="2.5" style="stroke:#181818;stroke-width:0.5;" width="171.9785" x="304.0366" y="23.6211"/><text fill="#000000" font-family="sans-serif" font-size="14" lengthAdjust="spacing" textLength="157.9785" x="311.0366" y="45.7285">:StationBuildingController</text><rect fill="#E2E2F0" height="32.6211" rx="2.5" ry="2.5" style="stroke:#181818;stroke-width:0.5;" width="171.9785" x="304.0366" y="359.8613"/><text fill="#000000" font-family="sans-serif" font-size="14" lengthAdjust="spacing" textLength="157.9785" x="311.0366" y="381.9688">:StationBuildingController</text><rect fill="#E2E2F0" height="51.2422" rx="2.5" ry="2.5" style="stroke:#181818;stroke-width:0.5;" width="45.124" x="773.3315" y="5"/><text fill="#000000" font-family="sans-serif" font-size="14" lengthAdjust="spacing" textLength="27.2344" x="782.2764" y="27.1074">map</text><text fill="#000000" font-family="sans-serif" font-size="14" lengthAdjust="spacing" textLength="31.124" x="780.3315" y="45.7285">:Map</text><rect fill="#E2E2F0" height="51.2422" rx="2.5" ry="2.5" style="stroke:#181818;stroke-width:0.5;" width="45.124" x="773.3315" y="359.8613"/><text fill="#000000" font-family="sans-serif" font-size="14" lengthAdjust="spacing" textLength="27.2344" x="782.2764" y="381.9688">map</text><text fill="#000000" font-family="sans-serif" font-size="14" lengthAdjust="spacing" textLength="31.124" x="780.3315" y="400.5898">:Map</text><rect fill="#E2E2F0" height="51.2422" rx="2.5" ry="2.5" style="stroke:#181818;stroke-width:0.5;" width="92.5996" x="828.4556" y="5"/><text fill="#000000" font-family="sans-serif" font-size="14" lengthAdjust="spacing" textLength="72.3721" x="838.5693" y="27.1074">stationType</text><text fill="#000000" font-family="sans-serif" font-size="14" lengthAdjust="spacing" textLength="78.5996" x="835.4556" y="45.7285">:StationType</text><rect fill="#E2E2F0" height="51.2422" rx="2.5" ry="2.5" style="stroke:#181818;stroke-width:0.5;" width="92.5996" x="828.4556" y="359.8613"/><text fill="#000000" font-family="sans-serif" font-size="14" lengthAdjust="spacing" textLength="72.3721" x="838.5693" y="381.9688">stationType</text><text fill="#000000" font-family="sans-serif" font-size="14" lengthAdjust="spacing" textLength="78.5996" x="835.4556" y="400.5898">:StationType</text><rect fill="#FFFFFF" height="252.3281" style="stroke:#181818;stroke-width:1.0;" width="10" x="385.0259" y="90.5332"/><rect fill="#FFFFFF" height="31.291" style="stroke:#181818;stroke-width:1.0;" width="10" x="790.8936" y="148.1152"/><rect fill="#FFFFFF" height="31.291" style="stroke:#181818;stroke-width:1.0;" width="10" x="869.7554" y="210.6973"/><rect fill="#FFFFFF" height="31.291" style="stroke:#181818;stroke-width:1.0;" width="10" x="869.7554" y="273.2793"/><polygon fill="#181818" points="373.0259,86.5332,383.0259,90.5332,373.0259,94.5332,377.0259,90.5332" style="stroke:#181818;stroke-width:1.0;"/><line style="stroke:#181818;stroke-width:1.0;" x1="0" x2="379.0259" y1="90.5332" y2="90.5332"/><text fill="#000000" font-family="sans-serif" font-size="13" font-weight="bold" lengthAdjust="spacing" textLength="14.46" x="7" y="85.2705">23</text><text fill="#000000" font-family="sans-serif" font-size="13" lengthAdjust="spacing" textLength="347.5659" x="25.46" y="85.2705">previewStationPlacement(stationType, position, centerPoint)</text><path d="M294.0366,105.5332 L504.4883,105.5332 L504.4883,114.8242 L494.4883,124.8242 L294.0366,124.8242 L294.0366,105.5332 " fill="#EEEEEE" style="stroke:#000000;stroke-width:1.5;"/><rect fill="none" height="207.0371" style="stroke:#000000;stroke-width:1.5;" width="637.0186" x="294.0366" y="105.5332"/><text fill="#000000" font-family="sans-serif" font-size="13" font-weight="bold" lengthAdjust="spacing" textLength="165.4517" x="309.0366" y="120.5615">Preview Station Placement</text><polygon fill="#181818" points="778.8936,144.1152,788.8936,148.1152,778.8936,152.1152,782.8936,148.1152" style="stroke:#181818;stroke-width:1.0;"/><line style="stroke:#181818;stroke-width:1.0;" x1="395.0259" x2="784.8936" y1="148.1152" y2="148.1152"/><text fill="#000000" font-family="sans-serif" font-size="13" font-weight="bold" lengthAdjust="spacing" textLength="25.3018" x="402.0259" y="142.8525">23.1</text><text fill="#000000" font-family="sans-serif" font-size="13" lengthAdjust="spacing" textLength="347.5659" x="431.3276" y="142.8525">previewStationPlacement(stationType, position, centerPoint)</text><polygon fill="#181818" points="406.0259,175.4063,396.0259,179.4063,406.0259,183.4063,402.0259,179.4063" style="stroke:#181818;stroke-width:1.0;"/><line style="stroke:#181818;stroke-width:1.0;stroke-dasharray:2.0,2.0;" x1="400.0259" x2="794.8936" y1="179.4063" y2="179.4063"/><text fill="#000000" font-family="sans-serif" font-size="13" font-weight="bold" lengthAdjust="spacing" textLength="25.3018" x="412.0259" y="174.1436">23.2</text><text fill="#000000" font-family="sans-serif" font-size="13" lengthAdjust="spacing" textLength="44.7954" x="441.3276" y="174.1436">preview</text><polygon fill="#181818" points="857.7554,206.6973,867.7554,210.6973,857.7554,214.6973,861.7554,210.6973" style="stroke:#181818;stroke-width:1.0;"/><line style="stroke:#181818;stroke-width:1.0;" x1="395.0259" x2="863.7554" y1="210.6973" y2="210.6973"/><text fill="#000000" font-family="sans-serif" font-size="13" font-weight="bold" lengthAdjust="spacing" textLength="25.3018" x="402.0259" y="205.4346">23.3</text><text fill="#000000" font-family="sans-serif" font-size="13" lengthAdjust="spacing" textLength="124.2744" x="431.3276" y="205.4346">getEconomicRadius()</text><polygon fill="#181818" points="406.0259,237.9883,396.0259,241.9883,406.0259,245.9883,402.0259,241.9883" style="stroke:#181818;stroke-width:1.0;"/><line style="stroke:#181818;stroke-width:1.0;stroke-dasharray:2.0,2.0;" x1="400.0259" x2="873.7554" y1="241.9883" y2="241.9883"/><text fill="#000000" font-family="sans-serif" font-size="13" font-weight="bold" lengthAdjust="spacing" textLength="25.3018" x="412.0259" y="236.7256">23.4</text><text fill="#000000" font-family="sans-serif" font-size="13" lengthAdjust="spacing" textLength="96.1035" x="441.3276" y="236.7256">economicRadius</text><polygon fill="#181818" points="857.7554,269.2793,867.7554,273.2793,857.7554,277.2793,861.7554,273.2793" style="stroke:#181818;stroke-width:1.0;"/><line style="stroke:#181818;stroke-width:1.0;" x1="395.0259" x2="863.7554" y1="273.2793" y2="273.2793"/><text fill="#000000" font-family="sans-serif" font-size="13" font-weight="bold" lengthAdjust="spacing" textLength="25.3018" x="402.0259" y="268.0166">23.5</text><text fill="#000000" font-family="sans-serif" font-size="13" lengthAdjust="spacing" textLength="53.46" x="431.3276" y="268.0166">getCost()</text><polygon fill="#181818" points="406.0259,300.5703,396.0259,304.5703,406.0259,308.5703,402.0259,304.5703" style="stroke:#181818;stroke-width:1.0;"/><line style="stroke:#181818;stroke-width:1.0;stroke-dasharray:2.0,2.0;" x1="400.0259" x2="873.7554" y1="304.5703" y2="304.5703"/><text fill="#000000" font-family="sans-serif" font-size="13" font-weight="bold" lengthAdjust="spacing" textLength="25.3018" x="412.0259" y="299.3076">23.6</text><text fill="#000000" font-family="sans-serif" font-size="13" lengthAdjust="spacing" textLength="23.8418" x="441.3276" y="299.3076">cost</text><polygon fill="#181818" points="11,338.8613,1,342.8613,11,346.8613,7,342.8613" style="stroke:#181818;stroke-width:1.0;"/><line style="stroke:#181818;stroke-width:1.0;stroke-dasharray:2.0,2.0;" x1="5" x2="389.0259" y1="342.8613" y2="342.8613"/><text fill="#000000" font-family="sans-serif" font-size="13" font-weight="bold" lengthAdjust="spacing" textLength="14.46" x="17" y="337.5986">24</text><text fill="#000000" font-family="sans-serif" font-size="13" lengthAdjust="spacing" textLength="179.188" x="35.46" y="337.5986">preview, economicRadius, cost</text><!--SRC=[fPBBQiCm44Nt_eeXcwPW5_fOXL9eG-Yc0HDxKoYKgJnnHMn9I792_hwo_AZjfDr4Aptkt7j6ajbneL1Z2GhP3dDAxB4WqCGiYhoWmFG2yusPF72HmnOBGq7WjYrdNA6mC5ia5YsNugNYHUP4IocibaL1UWPeO9bktiO59QeFiLYZykVhvtXyR1gxzAZ8oPBVbPSdwMVw7g-202ihHLL-aOQx-o1wya6m0ALfp-dGriK5CYf9sFd0DWGb3QzN8J1tHZgMNDZhYUdDRO3CyZrQQhe0Dt8jAmLn4m9j2lGnNbEFAtWbsy60t88waNXW1-vku4Bkph77hIyL1gEEY4xkg9TaTBPoqWmnAMJ96MZCU6K0HGPCcjE6sZToGJdPLLkryKNpCx3Tamw1Eui1D8sCph5FZVu7Mphq2t16dVy1GI8B_6JuhnxypcCKJLuZd7GODX43Q_y9Vm00]--></g></svg>