<svg xmlns="http://www.w3.org/2000/svg" xmlns:xlink="http://www.w3.org/1999/xlink" contentStyleType="text/css" height="791px" preserveAspectRatio="none" style="width:1301px;height:790px;background:#FFFFFF;" version="1.1" viewBox="0 0 1301 790" width="1302px" zoomAndPan="magnify"><title>Domain Model - US22 : Load a Scenario</title><defs/><g><text fill="#000000" font-family="sans-serif" font-size="9.8" font-weight="bold" lengthAdjust="spacing" textLength="184.6018" x="554.0572" y="17.5752">Domain Model - US22 : Load a Scenario</text><!--class Editor--><g id="elem_Editor"><rect codeLine="12" fill="#ADD8E6" height="64.7391" id="Editor" rx="1.75" ry="1.75" style="stroke:#0000FF;stroke-width:0.3499999999999999;" width="65.0515" x="51.45" y="153.0348"/><text fill="#000000" font-family="sans-serif" font-size="9.8" lengthAdjust="spacing" textLength="25.6006" x="71.1754" y="167.11">Editor</text><line style="stroke:#0000FF;stroke-width:0.3499999999999999;" x1="52.15" x2="115.8015" y1="173.0695" y2="173.0695"/><text fill="#000000" font-family="sans-serif" font-size="9.8" lengthAdjust="spacing" textLength="43.5784" x="55.65" y="186.4447">username</text><text fill="#000000" font-family="sans-serif" font-size="9.8" lengthAdjust="spacing" textLength="41.9419" x="55.65" y="199.4795">password</text><text fill="#000000" font-family="sans-serif" font-size="9.8" lengthAdjust="spacing" textLength="56.6515" x="55.65" y="212.5143">createdMaps</text></g><!--class Map--><g id="elem_Map"><rect codeLine="18" fill="#ADD8E6" height="51.7043" id="Map" rx="1.75" ry="1.75" style="stroke:#0000FF;stroke-width:0.3499999999999999;" width="42.7144" x="82.95" y="370.7348"/><text fill="#000000" font-family="sans-serif" font-size="9.8" lengthAdjust="spacing" textLength="19.0641" x="94.7751" y="384.81">Map</text><line style="stroke:#0000FF;stroke-width:0.3499999999999999;" x1="83.65" x2="124.9644" y1="390.7695" y2="390.7695"/><text fill="#000000" font-family="sans-serif" font-size="9.8" lengthAdjust="spacing" textLength="34.3144" x="87.15" y="404.1447">nameID</text><text fill="#000000" font-family="sans-serif" font-size="9.8" lengthAdjust="spacing" textLength="22.8778" x="87.15" y="417.1795">scale</text></g><!--class Size--><g id="elem_Size"><rect codeLine="23" fill="#ADD8E6" height="51.7043" id="Size" rx="1.75" ry="1.75" style="stroke:#0000FF;stroke-width:0.3499999999999999;" width="35.1012" x="4.9" y="588.4348"/><text fill="#000000" font-family="sans-serif" font-size="9.8" lengthAdjust="spacing" textLength="19.0641" x="12.9186" y="602.51">Size</text><line style="stroke:#0000FF;stroke-width:0.3499999999999999;" x1="5.6" x2="39.3012" y1="608.4695" y2="608.4695"/><text fill="#000000" font-family="sans-serif" font-size="9.8" lengthAdjust="spacing" textLength="22.8778" x="9.1" y="621.8447">width</text><text fill="#000000" font-family="sans-serif" font-size="9.8" lengthAdjust="spacing" textLength="26.7012" x="9.1" y="634.8795">height</text></g><!--class City--><g id="elem_City"><rect codeLine="28" fill="#ADD8E6" height="77.7738" id="City" rx="1.75" ry="1.75" style="stroke:#0000FF;stroke-width:0.3499999999999999;" width="81.4071" x="261.8" y="575.4848"/><text fill="#000000" font-family="sans-serif" font-size="9.8" lengthAdjust="spacing" textLength="16.8772" x="294.0649" y="589.56">City</text><line style="stroke:#0000FF;stroke-width:0.3499999999999999;" x1="262.5" x2="342.5071" y1="595.5195" y2="595.5195"/><text fill="#000000" font-family="sans-serif" font-size="9.8" lengthAdjust="spacing" textLength="34.3144" x="266" y="608.8947">nameID</text><text fill="#000000" font-family="sans-serif" font-size="9.8" lengthAdjust="spacing" textLength="44.6599" x="266" y="621.9295">trafficRate</text><text fill="#000000" font-family="sans-serif" font-size="9.8" lengthAdjust="spacing" textLength="63.1976" x="266" y="634.9643">suppliedCargo</text><text fill="#000000" font-family="sans-serif" font-size="9.8" lengthAdjust="spacing" textLength="73.0071" x="266" y="647.999">demandedCargo</text></g><!--class Industry--><g id="elem_Industry"><rect codeLine="35" fill="#ADD8E6" height="103.8434" id="Industry" rx="1.75" ry="1.75" style="stroke:#0000FF;stroke-width:0.3499999999999999;" width="81.4071" x="156.1" y="562.5348"/><text fill="#000000" font-family="sans-serif" font-size="9.8" lengthAdjust="spacing" textLength="34.8599" x="179.3736" y="576.61">Industry</text><line style="stroke:#0000FF;stroke-width:0.3499999999999999;" x1="156.8" x2="236.8071" y1="582.5695" y2="582.5695"/><text fill="#000000" font-family="sans-serif" font-size="9.8" lengthAdjust="spacing" textLength="34.3144" x="160.3" y="595.9447">nameID</text><text fill="#000000" font-family="sans-serif" font-size="9.8" lengthAdjust="spacing" textLength="18.5233" x="160.3" y="608.9795">type</text><text fill="#000000" font-family="sans-serif" font-size="9.8" lengthAdjust="spacing" textLength="65.9107" x="160.3" y="622.0143">availabilityYear</text><text fill="#000000" font-family="sans-serif" font-size="9.8" lengthAdjust="spacing" textLength="66.4658" x="160.3" y="635.049">productionRate</text><text fill="#000000" font-family="sans-serif" font-size="9.8" lengthAdjust="spacing" textLength="63.1976" x="160.3" y="648.0838">suppliedCargo</text><text fill="#000000" font-family="sans-serif" font-size="9.8" lengthAdjust="spacing" textLength="73.0071" x="160.3" y="661.1186">demandedCargo</text></g><!--class Position--><g id="elem_Position"><rect codeLine="44" fill="#ADD8E6" height="64.7391" id="Position" rx="1.75" ry="1.75" style="stroke:#0000FF;stroke-width:0.3499999999999999;" width="47.6287" x="225.4" y="721.4348"/><text fill="#000000" font-family="sans-serif" font-size="9.8" lengthAdjust="spacing" textLength="34.8646" x="231.782" y="735.51">Position</text><line style="stroke:#0000FF;stroke-width:0.3499999999999999;" x1="226.1" x2="272.3287" y1="741.4695" y2="741.4695"/><text fill="#000000" font-family="sans-serif" font-size="9.8" lengthAdjust="spacing" textLength="4.9" x="229.6" y="754.8447">x</text><text fill="#000000" font-family="sans-serif" font-size="9.8" lengthAdjust="spacing" textLength="4.9" x="229.6" y="767.8795">y</text><text fill="#000000" font-family="sans-serif" font-size="9.8" lengthAdjust="spacing" textLength="39.2287" x="229.6" y="780.9143">occupied</text></g><!--class Locomotive--><g id="elem_Locomotive"><rect codeLine="50" fill="#ADD8E6" height="221.1562" id="Locomotive" rx="1.75" ry="1.75" style="stroke:#0000FF;stroke-width:0.3499999999999999;" width="110.8167" x="266" y="286.0348"/><text fill="#000000" font-family="sans-serif" font-size="9.8" lengthAdjust="spacing" textLength="50.1149" x="296.3509" y="300.11">Locomotive</text><line style="stroke:#0000FF;stroke-width:0.3499999999999999;" x1="266.7" x2="376.1167" y1="306.0695" y2="306.0695"/><text fill="#000000" font-family="sans-serif" font-size="9.8" lengthAdjust="spacing" textLength="34.3144" x="270.2" y="319.4447">nameID</text><text fill="#000000" font-family="sans-serif" font-size="9.8" lengthAdjust="spacing" textLength="26.6916" x="270.2" y="332.4795">owner</text><text fill="#000000" font-family="sans-serif" font-size="9.8" lengthAdjust="spacing" textLength="18.5233" x="270.2" y="345.5143">type</text><text fill="#000000" font-family="sans-serif" font-size="9.8" lengthAdjust="spacing" textLength="26.6916" x="270.2" y="358.549">power</text><text fill="#000000" font-family="sans-serif" font-size="9.8" lengthAdjust="spacing" textLength="52.8425" x="270.2" y="371.5838">acceleration</text><text fill="#000000" font-family="sans-serif" font-size="9.8" lengthAdjust="spacing" textLength="41.961" x="270.2" y="384.6186">topSpeed</text><text fill="#000000" font-family="sans-serif" font-size="9.8" lengthAdjust="spacing" textLength="54.4886" x="270.2" y="397.6533">actualSpeed</text><text fill="#000000" font-family="sans-serif" font-size="9.8" lengthAdjust="spacing" textLength="39.7599" x="270.2" y="410.6881">startYear</text><text fill="#000000" font-family="sans-serif" font-size="9.8" lengthAdjust="spacing" textLength="85.5203" x="270.2" y="423.7229">fuelAcquisitionPrice</text><text fill="#000000" font-family="sans-serif" font-size="9.8" lengthAdjust="spacing" textLength="95.8706" x="270.2" y="436.7576">fuelConsumptionPrice</text><text fill="#000000" font-family="sans-serif" font-size="9.8" lengthAdjust="spacing" textLength="65.9107" x="270.2" y="449.7924">availabilityYear</text><text fill="#000000" font-family="sans-serif" font-size="9.8" lengthAdjust="spacing" textLength="68.6335" x="270.2" y="462.8271">acquisitionPrice</text><text fill="#000000" font-family="sans-serif" font-size="9.8" lengthAdjust="spacing" textLength="97.5167" x="270.2" y="475.8619">baseMaintenanceCost</text><text fill="#000000" font-family="sans-serif" font-size="9.8" lengthAdjust="spacing" textLength="102.4167" x="270.2" y="488.8967">maintenanceFrequency</text><text fill="#000000" font-family="sans-serif" font-size="9.8" lengthAdjust="spacing" textLength="86.6018" x="270.2" y="501.9314">wearAndTearFactor</text></g><!--class IndustrySector--><g id="elem_IndustrySector"><rect codeLine="69" fill="#ADD8E6" height="90.8086" id="IndustrySector" rx="1.75" ry="1.75" style="stroke:#0000FF;stroke-width:0.3499999999999999;" width="79.7562" x="401.1" y="351.1348"/><text fill="#000000" font-family="sans-serif" font-size="9.8" lengthAdjust="spacing" textLength="63.1832" x="409.3865" y="365.21">IndustrySector</text><line style="stroke:#0000FF;stroke-width:0.3499999999999999;" x1="401.8" x2="480.1562" y1="371.1695" y2="371.1695"/><text fill="#000000" font-family="sans-serif" font-size="9.8" lengthAdjust="spacing" textLength="24.5144" x="405.3" y="384.5447">name</text><text fill="#000000" font-family="sans-serif" font-size="9.8" lengthAdjust="spacing" textLength="65.3509" x="405.3" y="397.5795">importsExports</text><text fill="#000000" font-family="sans-serif" font-size="9.8" lengthAdjust="spacing" textLength="70.2796" x="405.3" y="410.6143">generatesCargo</text><text fill="#000000" font-family="sans-serif" font-size="9.8" lengthAdjust="spacing" textLength="71.3562" x="405.3" y="423.649">consumesCargo</text><text fill="#000000" font-family="sans-serif" font-size="9.8" lengthAdjust="spacing" textLength="47.3922" x="405.3" y="436.6838">description</text></g><!--class Station--><g id="elem_Station"><rect codeLine="77" fill="#ADD8E6" height="90.8086" id="Station" rx="1.75" ry="1.75" style="stroke:#0000FF;stroke-width:0.3499999999999999;" width="79.2155" x="639.45" y="351.1348"/><text fill="#000000" font-family="sans-serif" font-size="9.8" lengthAdjust="spacing" textLength="30.5102" x="663.8027" y="365.21">Station</text><line style="stroke:#0000FF;stroke-width:0.3499999999999999;" x1="640.15" x2="717.9655" y1="371.1695" y2="371.1695"/><text fill="#000000" font-family="sans-serif" font-size="9.8" lengthAdjust="spacing" textLength="34.3144" x="643.65" y="384.5447">nameID</text><text fill="#000000" font-family="sans-serif" font-size="9.8" lengthAdjust="spacing" textLength="70.8155" x="643.65" y="397.5795">storageCapacity</text><text fill="#000000" font-family="sans-serif" font-size="9.8" lengthAdjust="spacing" textLength="55.57" x="643.65" y="410.6143">buildingSlots</text><text fill="#000000" font-family="sans-serif" font-size="9.8" lengthAdjust="spacing" textLength="65.3748" x="643.65" y="423.649">availableCargo</text><text fill="#000000" font-family="sans-serif" font-size="9.8" lengthAdjust="spacing" textLength="70.2796" x="643.65" y="436.6838">requestedCargo</text></g><!--class PointOfRoute--><g id="elem_PointOfRoute"><rect codeLine="85" fill="#ADD8E6" height="38.6695" id="PointOfRoute" rx="1.75" ry="1.75" style="stroke:#0000FF;stroke-width:0.3499999999999999;" width="63.0335" x="1042.3" y="165.9848"/><text fill="#000000" font-family="sans-serif" font-size="9.8" lengthAdjust="spacing" textLength="58.8335" x="1044.4" y="180.06">PointOfRoute</text><line style="stroke:#0000FF;stroke-width:0.3499999999999999;" x1="1043" x2="1104.6335" y1="186.0195" y2="186.0195"/><text fill="#000000" font-family="sans-serif" font-size="9.8" lengthAdjust="spacing" textLength="49.0287" x="1046.5" y="199.3947">cargoMode</text></g><!--class Route--><g id="elem_Route"><rect codeLine="89" fill="#ADD8E6" height="51.7043" id="Route" rx="1.75" ry="1.75" style="stroke:#0000FF;stroke-width:0.3499999999999999;" width="81.4119" x="1074.5" y="32.6348"/><text fill="#000000" font-family="sans-serif" font-size="9.8" lengthAdjust="spacing" textLength="26.1509" x="1102.1305" y="46.71">Route</text><line style="stroke:#0000FF;stroke-width:0.3499999999999999;" x1="1075.2" x2="1155.2119" y1="52.6695" y2="52.6695"/><text fill="#000000" font-family="sans-serif" font-size="9.8" lengthAdjust="spacing" textLength="34.3144" x="1078.7" y="66.0447">nameID</text><text fill="#000000" font-family="sans-serif" font-size="9.8" lengthAdjust="spacing" textLength="73.0119" x="1078.7" y="79.0795">stationSequence</text></g><!--class StationType--><g id="elem_StationType"><rect codeLine="94" fill="#ADD8E6" height="77.7738" id="StationType" rx="1.75" ry="1.75" style="stroke:#0000FF;stroke-width:0.3499999999999999;" width="80.8473" x="367.85" y="575.4848"/><text fill="#000000" font-family="sans-serif" font-size="9.8" lengthAdjust="spacing" textLength="52.297" x="382.1251" y="589.56">StationType</text><line style="stroke:#0000FF;stroke-width:0.3499999999999999;" x1="368.55" x2="447.9973" y1="595.5195" y2="595.5195"/><text fill="#000000" font-family="sans-serif" font-size="9.8" lengthAdjust="spacing" textLength="24.5144" x="372.05" y="608.8947">name</text><text fill="#000000" font-family="sans-serif" font-size="9.8" lengthAdjust="spacing" textLength="72.4473" x="372.05" y="621.9295">economicRadius</text><text fill="#000000" font-family="sans-serif" font-size="9.8" lengthAdjust="spacing" textLength="17.973" x="372.05" y="634.9643">cost</text><text fill="#000000" font-family="sans-serif" font-size="9.8" lengthAdjust="spacing" textLength="49.5742" x="372.05" y="647.999">centerPoint</text></g><!--class Building--><g id="elem_Building"><rect codeLine="101" fill="#ADD8E6" height="103.8434" id="Building" rx="1.75" ry="1.75" style="stroke:#0000FF;stroke-width:0.3499999999999999;" width="94.485" x="549.85" y="562.5348"/><text fill="#000000" font-family="sans-serif" font-size="9.8" lengthAdjust="spacing" textLength="34.8694" x="579.6578" y="576.61">Building</text><line style="stroke:#0000FF;stroke-width:0.3499999999999999;" x1="550.55" x2="643.635" y1="582.5695" y2="582.5695"/><text fill="#000000" font-family="sans-serif" font-size="9.8" lengthAdjust="spacing" textLength="34.3144" x="554.05" y="595.9447">nameID</text><text fill="#000000" font-family="sans-serif" font-size="9.8" lengthAdjust="spacing" textLength="18.5233" x="554.05" y="608.9795">type</text><text fill="#000000" font-family="sans-serif" font-size="9.8" lengthAdjust="spacing" textLength="65.9107" x="554.05" y="622.0143">availabilityYear</text><text fill="#000000" font-family="sans-serif" font-size="9.8" lengthAdjust="spacing" textLength="59.379" x="554.05" y="635.049">evolutionCost</text><text fill="#000000" font-family="sans-serif" font-size="9.8" lengthAdjust="spacing" textLength="86.085" x="554.05" y="648.0838">evolutionStagesLeft</text><text fill="#000000" font-family="sans-serif" font-size="9.8" lengthAdjust="spacing" textLength="23.9688" x="554.05" y="661.1186">effect</text></g><!--class TrainSchedule--><g id="elem_TrainSchedule"><rect codeLine="110" fill="#ADD8E6" height="103.8434" id="TrainSchedule" rx="1.75" ry="1.75" style="stroke:#0000FF;stroke-width:0.3499999999999999;" width="117.8844" x="864.5" y="562.5348"/><text fill="#000000" font-family="sans-serif" font-size="9.8" lengthAdjust="spacing" textLength="63.1928" x="891.8458" y="576.61">TrainSchedule</text><line style="stroke:#0000FF;stroke-width:0.3499999999999999;" x1="865.2" x2="981.6844" y1="582.5695" y2="582.5695"/><text fill="#000000" font-family="sans-serif" font-size="9.8" lengthAdjust="spacing" textLength="93.6742" x="868.7" y="595.9447">calculatedArrivalTime</text><text fill="#000000" font-family="sans-serif" font-size="9.8" lengthAdjust="spacing" textLength="109.4844" x="868.7" y="608.9795">calculatedDepartureTime</text><text fill="#000000" font-family="sans-serif" font-size="9.8" lengthAdjust="spacing" textLength="75.6964" x="868.7" y="622.0143">actualArrivalTime</text><text fill="#000000" font-family="sans-serif" font-size="9.8" lengthAdjust="spacing" textLength="91.5065" x="868.7" y="635.049">actualDepartureTime</text><text fill="#000000" font-family="sans-serif" font-size="9.8" lengthAdjust="spacing" textLength="72.4616" x="868.7" y="648.0838">departureStation</text><text fill="#000000" font-family="sans-serif" font-size="9.8" lengthAdjust="spacing" textLength="57.1922" x="868.7" y="661.1186">arrivalStation</text></g><!--class Cargo--><g id="elem_Cargo"><rect codeLine="119" fill="#ADD8E6" height="90.8086" id="Cargo" rx="1.75" ry="1.75" style="stroke:#0000FF;stroke-width:0.3499999999999999;" width="62.3191" x="1042.65" y="568.8348"/><text fill="#000000" font-family="sans-serif" font-size="9.8" lengthAdjust="spacing" textLength="26.6916" x="1060.4638" y="582.91">Cargo</text><line style="stroke:#0000FF;stroke-width:0.3499999999999999;" x1="1043.35" x2="1104.2691" y1="588.8695" y2="588.8695"/><text fill="#000000" font-family="sans-serif" font-size="9.8" lengthAdjust="spacing" textLength="24.5144" x="1046.85" y="602.2447">name</text><text fill="#000000" font-family="sans-serif" font-size="9.8" lengthAdjust="spacing" textLength="32.6874" x="1046.85" y="615.2795">amount</text><text fill="#000000" font-family="sans-serif" font-size="9.8" lengthAdjust="spacing" textLength="33.7784" x="1046.85" y="628.3143">lifespan</text><text fill="#000000" font-family="sans-serif" font-size="9.8" lengthAdjust="spacing" textLength="18.5233" x="1046.85" y="641.349">type</text><text fill="#000000" font-family="sans-serif" font-size="9.8" lengthAdjust="spacing" textLength="53.9191" x="1046.85" y="654.3838">pricePerUnit</text></g><!--class RailwayLine--><g id="elem_RailwayLine"><rect codeLine="126" fill="#ADD8E6" height="77.7738" id="RailwayLine" rx="1.75" ry="1.75" style="stroke:#0000FF;stroke-width:0.3499999999999999;" width="114.6161" x="1183" y="146.3848"/><text fill="#000000" font-family="sans-serif" font-size="9.8" lengthAdjust="spacing" textLength="52.8377" x="1213.8892" y="160.46">RailwayLine</text><line style="stroke:#0000FF;stroke-width:0.3499999999999999;" x1="1183.7" x2="1296.9161" y1="166.4195" y2="166.4195"/><text fill="#000000" font-family="sans-serif" font-size="9.8" lengthAdjust="spacing" textLength="26.7012" x="1187.2" y="179.7947">length</text><text fill="#000000" font-family="sans-serif" font-size="9.8" lengthAdjust="spacing" textLength="67.5425" x="1187.2" y="192.8295">placementPrice</text><text fill="#000000" font-family="sans-serif" font-size="9.8" lengthAdjust="spacing" textLength="106.2161" x="1187.2" y="205.8643">maintenanceCostPerKm</text><text fill="#000000" font-family="sans-serif" font-size="9.8" lengthAdjust="spacing" textLength="86.6018" x="1187.2" y="218.899">wearAndTearFactor</text></g><!--class Scenario--><g id="elem_Scenario"><rect codeLine="132" fill="#ADD8E6" height="90.8086" id="Scenario" rx="1.75" ry="1.75" style="stroke:#0000FF;stroke-width:0.3499999999999999;" width="69.961" x="406" y="139.7348"/><text fill="#000000" font-family="sans-serif" font-size="9.8" lengthAdjust="spacing" textLength="38.6784" x="421.6413" y="153.81">Scenario</text><line style="stroke:#0000FF;stroke-width:0.3499999999999999;" x1="406.7" x2="475.261" y1="159.7695" y2="159.7695"/><text fill="#000000" font-family="sans-serif" font-size="9.8" lengthAdjust="spacing" textLength="34.3144" x="410.2" y="173.1447">nameID</text><text fill="#000000" font-family="sans-serif" font-size="9.8" lengthAdjust="spacing" textLength="39.7599" x="410.2" y="186.1795">startDate</text><text fill="#000000" font-family="sans-serif" font-size="9.8" lengthAdjust="spacing" textLength="37.0515" x="410.2" y="199.2143">endDate</text><text fill="#000000" font-family="sans-serif" font-size="9.8" lengthAdjust="spacing" textLength="53.3928" x="410.2" y="212.249">initialBudget</text><text fill="#000000" font-family="sans-serif" font-size="9.8" lengthAdjust="spacing" textLength="61.561" x="410.2" y="225.2838">currentBudget</text></g><!--link Editor to Map--><g id="link_Editor_Map"><path codeLine="141" d="M82.782,217.7218 C82.418,228.5158 82.075,240.6468 81.9,251.7348 C81.809,257.6428 81.403,259.1478 81.9,265.0348 C85.043,302.0228 93.093,344.2608 98.63,370.5178 " fill="none" id="Editor-Map" style="stroke:#181818;stroke-width:0.6999999999999998;"/><polygon fill="#000000" points="85.7611,261.9679,87.1541,255.4579,83.0616,255.8824,85.7611,261.9679" style="stroke:#000000;stroke-width:0.6999999999999998;"/><text fill="#000000" font-family="sans-serif" font-size="9.1" lengthAdjust="spacing" textLength="21.7547" x="91.7" y="262.2546">loads</text><text fill="#000000" font-family="sans-serif" font-size="9.1" lengthAdjust="spacing" textLength="5.061" x="77.3586" y="233.1771">1</text><text fill="#000000" font-family="sans-serif" font-size="9.1" lengthAdjust="spacing" textLength="3.5414" x="93.8107" y="362.7523">*</text></g><!--link Map to Size--><g id="link_Map_Size"><path codeLine="142" d="M91.707,422.7098 C79.1,448.7568 59.689,490.6798 46.2,528.2348 C39.074,548.0798 32.76,571.1448 28.427,588.2948 " fill="none" id="Map-Size" style="stroke:#181818;stroke-width:0.6999999999999998;"/><polygon fill="#000000" points="48.4506,538.256,52.6325,533.076,48.7891,531.6072,48.4506,538.256" style="stroke:#000000;stroke-width:0.6999999999999998;"/><text fill="#000000" font-family="sans-serif" font-size="9.1" lengthAdjust="spacing" textLength="14.672" x="56" y="538.7546">has</text><text fill="#000000" font-family="sans-serif" font-size="9.1" lengthAdjust="spacing" textLength="5.061" x="84.3276" y="437.8585">1</text><text fill="#000000" font-family="sans-serif" font-size="9.1" lengthAdjust="spacing" textLength="5.061" x="24.1695" y="580.543">1</text></g><!--link Map to City--><g id="link_Map_City"><path codeLine="143" d="M110.054,422.7588 C117.201,448.2388 131.978,486.5708 159.6,507.2348 C201.383,538.4898 235.893,493.8088 275.1,528.2348 C288.61,540.0998 295.484,558.6428 298.963,575.4218 " fill="none" id="Map-City" style="stroke:#181818;stroke-width:0.6999999999999998;"/><polygon fill="#000000" points="292.5222,537.1865,288.8908,531.6068,286.3046,534.8069,292.5222,537.1865" style="stroke:#000000;stroke-width:0.6999999999999998;"/><text fill="#000000" font-family="sans-serif" font-size="9.1" lengthAdjust="spacing" textLength="33.8939" x="296.1" y="538.7546">contains</text><text fill="#000000" font-family="sans-serif" font-size="9.1" lengthAdjust="spacing" textLength="5.061" x="105.7134" y="437.9156">1</text><text fill="#000000" font-family="sans-serif" font-size="9.1" lengthAdjust="spacing" textLength="3.5414" x="294.7878" y="567.6018">*</text></g><!--link Map to Industry--><g id="link_Map_Industry"><path codeLine="144" d="M103.873,422.6888 C104.349,452.6208 108.29,503.1818 127.4,541.5348 C134.407,555.5978 145.117,568.7298 156.044,579.8318 " fill="none" id="Map-Industry" style="stroke:#181818;stroke-width:0.6999999999999998;"/><polygon fill="#000000" points="132.0028,538.3083,131.9603,531.6511,128.0554,532.9475,132.0028,538.3083" style="stroke:#000000;stroke-width:0.6999999999999998;"/><text fill="#000000" font-family="sans-serif" font-size="9.1" lengthAdjust="spacing" textLength="33.8939" x="137.2" y="538.7546">contains</text><text fill="#000000" font-family="sans-serif" font-size="9.1" lengthAdjust="spacing" textLength="5.061" x="98.5086" y="437.834">1</text><text fill="#000000" font-family="sans-serif" font-size="9.1" lengthAdjust="spacing" textLength="3.5414" x="146.8346" y="572.3131">*</text></g><!--link Map to Position--><g id="link_Map_Position"><path codeLine="145" d="M97.293,422.5628 C84.868,472.7598 64.267,587.1188 109.2,666.1348 C134.358,710.3888 192.22,735.0638 225.134,745.9978 " fill="none" id="Map-Position" style="stroke:#181818;stroke-width:0.6999999999999998;"/><polygon fill="#000000" points="113.9866,617.6916,113.5724,611.0471,109.7459,612.5595,113.9866,617.6916" style="stroke:#000000;stroke-width:0.6999999999999998;"/><text fill="#000000" font-family="sans-serif" font-size="9.1" lengthAdjust="spacing" textLength="24.2696" x="119" y="618.2046">tracks</text><text fill="#000000" font-family="sans-serif" font-size="9.1" lengthAdjust="spacing" textLength="5.061" x="90.7802" y="437.8874">1</text><text fill="#000000" font-family="sans-serif" font-size="9.1" lengthAdjust="spacing" textLength="3.5414" x="216.3108" y="741.1013">*</text></g><!--link City to Position--><g id="link_City_Position"><path codeLine="146" d="M287.651,653.2618 C279.377,674.7028 269.185,701.1278 261.373,721.3788 " fill="none" id="City-Position" style="stroke:#181818;stroke-width:0.6999999999999998;"/><polygon fill="#000000" points="276.6403,697.1521,280.8385,691.9853,276.9998,690.5044,276.6403,697.1521" style="stroke:#000000;stroke-width:0.6999999999999998;"/><text fill="#000000" font-family="sans-serif" font-size="9.1" lengthAdjust="spacing" textLength="39.4615" x="284.2" y="697.6546">located at</text><text fill="#000000" font-family="sans-serif" font-size="9.1" lengthAdjust="spacing" textLength="5.061" x="280.6521" y="668.5589">1</text><text fill="#000000" font-family="sans-serif" font-size="9.1" lengthAdjust="spacing" textLength="5.061" x="257.972" y="713.4379">1</text></g><!--link Industry to Position--><g id="link_Industry_Position"><path codeLine="147" d="M199.458,666.3238 C201.271,677.8528 204.127,689.8088 208.6,700.4348 C212.625,709.9898 218.834,719.3208 225.197,727.3918 " fill="none" id="Industry-Position" style="stroke:#181818;stroke-width:0.6999999999999998;"/><polygon fill="#000000" points="213.4594,697.1119,212.896,690.4783,209.1045,692.0764,213.4594,697.1119" style="stroke:#000000;stroke-width:0.6999999999999998;"/><text fill="#000000" font-family="sans-serif" font-size="9.1" lengthAdjust="spacing" textLength="39.4615" x="218.4" y="697.6546">located at</text><text fill="#000000" font-family="sans-serif" font-size="9.1" lengthAdjust="spacing" textLength="5.061" x="194.586" y="681.845">1</text><text fill="#000000" font-family="sans-serif" font-size="9.1" lengthAdjust="spacing" textLength="5.061" x="214.8547" y="718.6578">1</text></g><!--link Scenario to Locomotive--><g id="link_Scenario_Locomotive"><path codeLine="148" d="M405.783,222.2788 C397.901,231.4628 389.984,241.6058 383.6,251.7348 C376.803,262.5218 370.405,274.1768 364.497,286.0208 " fill="none" id="Scenario-Locomotive" style="stroke:#181818;stroke-width:0.6999999999999998;"/><polygon fill="#000000" points="385.1973,261.4243,390.366,257.2284,386.9126,254.9916,385.1973,261.4243" style="stroke:#000000;stroke-width:0.6999999999999998;"/><text fill="#000000" font-family="sans-serif" font-size="9.1" lengthAdjust="spacing" textLength="41.9853" x="393.4" y="262.2546">configures</text><text fill="#000000" font-family="sans-serif" font-size="9.1" lengthAdjust="spacing" textLength="5.061" x="395.3653" y="224.7945">1</text><text fill="#000000" font-family="sans-serif" font-size="9.1" lengthAdjust="spacing" textLength="3.5414" x="363.0003" y="278.3005">*</text></g><!--link Scenario to Industry--><g id="link_Scenario_Industry"><path codeLine="149" d="M405.867,188.9448 C351.4,195.7068 248.052,217.3788 201.6,286.0348 C172.074,329.6728 182.714,481.6988 190.848,562.4018 " fill="none" id="Scenario-Industry" style="stroke:#181818;stroke-width:0.6999999999999998;"/><polygon fill="#000000" points="203.3536,399.7698,208.2957,395.3092,204.73,393.2562,203.3536,399.7698" style="stroke:#000000;stroke-width:0.6999999999999998;"/><text fill="#000000" font-family="sans-serif" font-size="9.1" lengthAdjust="spacing" textLength="41.9853" x="211.4" y="400.5046">configures</text><text fill="#000000" font-family="sans-serif" font-size="9.1" lengthAdjust="spacing" textLength="5.061" x="395.2274" y="186.5518">1</text><text fill="#000000" font-family="sans-serif" font-size="9.1" lengthAdjust="spacing" textLength="3.5414" x="186.5915" y="554.6218">*</text></g><!--link Scenario to IndustrySector--><g id="link_Scenario_IndustrySector"><path codeLine="150" d="M441,230.9868 C441,266.4138 441,315.5468 441,350.9598 " fill="none" id="Scenario-IndustrySector" style="stroke:#181818;stroke-width:0.6999999999999998;"/><polygon fill="#000000" points="444.5,261.9866,446.5572,255.6551,442.4428,255.6551,444.5,261.9866" style="stroke:#000000;stroke-width:0.6999999999999998;"/><text fill="#000000" font-family="sans-serif" font-size="9.1" lengthAdjust="spacing" textLength="41.9853" x="450.8" y="262.2546">configures</text><text fill="#000000" font-family="sans-serif" font-size="9.1" lengthAdjust="spacing" textLength="5.061" x="435.8687" y="245.9155">1</text><text fill="#000000" font-family="sans-serif" font-size="9.1" lengthAdjust="spacing" textLength="3.5414" x="437.3132" y="343.2547">*</text></g><!--link Scenario to Station--><g id="link_Scenario_Station"><path codeLine="151" d="M476.203,205.5488 C497.581,217.9458 525.084,234.7808 548.1,251.7348 C586.075,279.7068 621.53,320.0128 645.939,350.9038 " fill="none" id="Scenario-Station" style="stroke:#181818;stroke-width:0.6999999999999998;"/><polygon fill="#000000" points="571.0584,260.7632,567.5874,255.0823,564.9112,258.2074,571.0584,260.7632" style="stroke:#000000;stroke-width:0.6999999999999998;"/><text fill="#000000" font-family="sans-serif" font-size="9.1" lengthAdjust="spacing" textLength="41.9853" x="574.7" y="262.2546">configures</text><text fill="#000000" font-family="sans-serif" font-size="9.1" lengthAdjust="spacing" textLength="5.061" x="481.512" y="205.5163">1</text><text fill="#000000" font-family="sans-serif" font-size="9.1" lengthAdjust="spacing" textLength="3.5414" x="638.6275" y="343.1926">*</text></g><!--link Scenario to Station--><g id="link_Scenario_Station"><path codeLine="162" d="M476.077,189.9738 C516.32,196.3648 581.938,212.4298 622.3,251.7348 C649.474,278.1948 663.915,319.2568 671.405,350.7988 " fill="none" id="Scenario-Station-1" style="stroke:#181818;stroke-width:0.6999999999999998;"/><polygon fill="#000000" points="639.002,260.7113,635.4217,255.0986,632.8064,258.275,639.002,260.7113" style="stroke:#000000;stroke-width:0.6999999999999998;"/><text fill="#000000" font-family="sans-serif" font-size="9.1" lengthAdjust="spacing" textLength="41.9853" x="642.6" y="262.2546">configures</text><text fill="#000000" font-family="sans-serif" font-size="9.1" lengthAdjust="spacing" textLength="5.061" x="481.6035" y="187.7447">1</text><text fill="#000000" font-family="sans-serif" font-size="9.1" lengthAdjust="spacing" textLength="3.5414" x="666.9375" y="343.3985">*</text></g><!--link Scenario to City--><g id="link_Scenario_City"><path codeLine="152" d="M476.063,216.9378 C485.093,227.0318 493.612,238.9598 498.4,251.7348 C538.272,358.0928 557.438,413.8408 492.8,507.2348 C483.448,520.7518 369.397,553.6098 355.6,562.5348 C349.797,566.2938 344.071,570.7388 338.653,575.4148 " fill="none" id="Scenario-City" style="stroke:#181818;stroke-width:0.6999999999999998;"/><polygon fill="#000000" points="537.7473,400.0048,541.9344,394.829,538.0925,393.3563,537.7473,400.0048" style="stroke:#000000;stroke-width:0.6999999999999998;"/><text fill="#000000" font-family="sans-serif" font-size="9.1" lengthAdjust="spacing" textLength="41.9853" x="545.3" y="400.5046">configures</text><text fill="#000000" font-family="sans-serif" font-size="9.1" lengthAdjust="spacing" textLength="5.061" x="481.5874" y="232.3169">1</text><text fill="#000000" font-family="sans-serif" font-size="9.1" lengthAdjust="spacing" textLength="3.5414" x="343.5115" y="567.5939">*</text></g><!--link Scenario to Map--><g id="link_Scenario_Map"><path codeLine="153" d="M405.895,189.1128 C335.307,196.2038 179.69,215.6078 142.1,251.7348 C109.634,282.9408 103.838,338.3388 103.46,370.6298 " fill="none" id="Scenario-Map" style="stroke:#181818;stroke-width:0.6999999999999998;"/><polygon fill="#000000" points="142.599,260.2878,149.0865,258.7934,146.9692,255.2655,142.599,260.2878" style="stroke:#000000;stroke-width:0.6999999999999998;"/><text fill="#000000" font-family="sans-serif" font-size="9.1" lengthAdjust="spacing" textLength="19.222" x="151.9" y="262.2546">uses</text><text fill="#000000" font-family="sans-serif" font-size="9.1" lengthAdjust="spacing" textLength="3.5414" x="396.7577" y="200.4678">*</text><text fill="#000000" font-family="sans-serif" font-size="9.1" lengthAdjust="spacing" textLength="5.061" x="103.7598" y="362.8843">1</text></g><!--link IndustrySector to Industry--><g id="link_IndustrySector_Industry"><path codeLine="154" d="M430.556,442.3168 C422.828,465.3818 409.822,491.7998 388.5,507.2348 C329.294,550.0958 281.89,481.8598 225.4,528.2348 C214.879,536.8658 208.201,549.4938 203.959,562.4088 " fill="none" id="IndustrySector-Industry" style="stroke:#181818;stroke-width:0.6999999999999998;"/><polygon fill="#000000" points="225.8075,536.6256,232.3653,535.4784,230.4385,531.8429,225.8075,536.6256" style="stroke:#000000;stroke-width:0.6999999999999998;"/><text fill="#000000" font-family="sans-serif" font-size="9.1" lengthAdjust="spacing" textLength="33.8939" x="235.2" y="538.7546">contains</text><text fill="#000000" font-family="sans-serif" font-size="9.1" lengthAdjust="spacing" textLength="5.061" x="424.3369" y="457.4815">1</text><text fill="#000000" font-family="sans-serif" font-size="9.1" lengthAdjust="spacing" textLength="3.5414" x="200.9931" y="554.6295">*</text></g><!--link Station to Building--><g id="link_Station_Building"><path codeLine="155" d="M680.064,442.3938 C679.161,471.8078 674.884,510.3778 660.8,541.5348 C656.6,550.8168 650.79,559.7698 644.371,568.0228 " fill="none" id="Station-Building" style="stroke:#181818;stroke-width:0.6999999999999998;"/><polygon fill="#000000" points="667.5435,538.3534,671.2528,532.8251,667.2949,531.7006,667.5435,538.3534" style="stroke:#000000;stroke-width:0.6999999999999998;"/><text fill="#000000" font-family="sans-serif" font-size="9.1" lengthAdjust="spacing" textLength="57.1683" x="674.8" y="538.7546">upgraded with</text><text fill="#000000" font-family="sans-serif" font-size="9.1" lengthAdjust="spacing" textLength="5.061" x="675.0298" y="457.3231">1</text><text fill="#000000" font-family="sans-serif" font-size="9.1" lengthAdjust="spacing" textLength="3.5414" x="650.0423" y="559.8975">*</text></g><!--link Station to City--><g id="link_Station_City"><path codeLine="156" d="M649.103,442.3518 C632.856,464.1638 611.212,489.4198 587.3,507.2348 C568.295,521.3888 559.419,517.4968 538.3,528.2348 C527.982,533.4848 526.841,537.7478 515.9,541.5348 C447.993,565.0268 420.371,531.4268 355.6,562.5348 C348.789,565.8038 342.293,570.2838 336.322,575.2398 " fill="none" id="Station-City" style="stroke:#181818;stroke-width:0.6999999999999998;"/><polygon fill="#000000" points="538.5787,536.3552,545.2106,535.7728,543.6017,531.9859,538.5787,536.3552" style="stroke:#000000;stroke-width:0.6999999999999998;"/><text fill="#000000" font-family="sans-serif" font-size="9.1" lengthAdjust="spacing" textLength="26.8023" x="548.1" y="538.7546">serves</text><text fill="#000000" font-family="sans-serif" font-size="9.1" lengthAdjust="spacing" textLength="5.061" x="640.8696" y="457.5201">1</text><text fill="#000000" font-family="sans-serif" font-size="9.1" lengthAdjust="spacing" textLength="3.5414" x="336.7329" y="567.6776">*</text></g><!--link Station to Industry--><g id="link_Station_Industry"><path codeLine="157" d="M652.54,442.3938 C636.587,465.4798 614.166,491.8978 587.3,507.2348 C570.773,516.6708 266.196,553.9668 249.2,562.5348 C245.112,564.5998 241.136,567.0918 237.321,569.8498 " fill="none" id="Station-Industry" style="stroke:#181818;stroke-width:0.6999999999999998;"/><polygon fill="#000000" points="466.3541,536.0137,473.0106,536.1224,471.8032,532.189,466.3541,536.0137" style="stroke:#000000;stroke-width:0.6999999999999998;"/><text fill="#000000" font-family="sans-serif" font-size="9.1" lengthAdjust="spacing" textLength="26.8023" x="476" y="538.7546">serves</text><text fill="#000000" font-family="sans-serif" font-size="9.1" lengthAdjust="spacing" textLength="5.061" x="650.1788" y="457.3231">1</text><text fill="#000000" font-family="sans-serif" font-size="9.1" lengthAdjust="spacing" textLength="3.5414" x="243.0035" y="560.9897">*</text></g><!--link Station to Cargo--><g id="link_Station_Cargo"><path codeLine="158" d="M718.753,416.6758 C779.233,446.4188 897.575,505.9048 994.7,562.5348 C1010.8,571.9218 1028.251,583.0798 1042.65,592.5718 " fill="none" id="Station-Cargo" style="stroke:#181818;stroke-width:0.6999999999999998;"/><polygon fill="#000000" points="958.5757,536.6569,953.9935,531.8274,952.0299,535.4432,958.5757,536.6569" style="stroke:#000000;stroke-width:0.6999999999999998;"/><text fill="#000000" font-family="sans-serif" font-size="9.1" lengthAdjust="spacing" textLength="24.7806" x="961.8" y="538.7546">stores</text><text fill="#000000" font-family="sans-serif" font-size="9.1" lengthAdjust="spacing" textLength="5.061" x="724.1632" y="416.4263">1</text><text fill="#000000" font-family="sans-serif" font-size="9.1" lengthAdjust="spacing" textLength="3.5414" x="1033.4972" y="585.7624">*</text></g><!--link Route to PointOfRoute--><g id="link_Route_PointOfRoute"><path codeLine="159" d="M1094.632,84.6588 C1090.341,91.1128 1086.309,98.2598 1083.6,105.4348 C1076.173,125.1118 1074.108,149.3108 1073.66,165.7188 " fill="none" id="Route-PointOfRoute" style="stroke:#181818;stroke-width:0.6999999999999998;"/><polygon fill="#000000" points="1086.2233,115.5751,1089.8009,109.9606,1085.8176,108.93,1086.2233,115.5751" style="stroke:#000000;stroke-width:0.6999999999999998;"/><text fill="#000000" font-family="sans-serif" font-size="9.1" lengthAdjust="spacing" textLength="33.8939" x="1093.4" y="115.9546">contains</text><text fill="#000000" font-family="sans-serif" font-size="9.1" lengthAdjust="spacing" textLength="5.061" x="1085.932" y="99.8156">1</text><text fill="#000000" font-family="sans-serif" font-size="9.1" lengthAdjust="spacing" textLength="3.5414" x="1069.7474" y="158.0716">*</text></g><!--link PointOfRoute to Station--><g id="link_PointOfRoute_Station"><path codeLine="160" d="M1054.291,204.6248 C1035.594,221.8588 1006.033,247.3668 977.2,265.0348 C890.071,318.4378 777.322,361.6838 718.564,382.4948 " fill="none" id="PointOfRoute-Station" style="stroke:#181818;stroke-width:0.6999999999999998;"/><polygon fill="#000000" points="997.2072,260.1252,1003.7652,258.9789,1001.839,255.3431,997.2072,260.1252" style="stroke:#000000;stroke-width:0.6999999999999998;"/><text fill="#000000" font-family="sans-serif" font-size="9.1" lengthAdjust="spacing" textLength="42.9939" x="1006.6" y="262.2546">represents</text><text fill="#000000" font-family="sans-serif" font-size="9.1" lengthAdjust="spacing" textLength="5.061" x="1044.6014" y="219.9915">1</text><text fill="#000000" font-family="sans-serif" font-size="9.1" lengthAdjust="spacing" textLength="5.061" x="724.2127" y="377.7415">1</text></g><!--link PointOfRoute to Cargo--><g id="link_PointOfRoute_Cargo"><path codeLine="161" d="M1073.8,204.5898 C1073.8,267.9748 1073.8,476.2808 1073.8,568.7368 " fill="none" id="PointOfRoute-Cargo" style="stroke:#181818;stroke-width:0.6999999999999998;"/><polygon fill="#000000" points="1077.3,400.2366,1079.3572,393.9051,1075.2428,393.9051,1077.3,400.2366" style="stroke:#000000;stroke-width:0.6999999999999998;"/><text fill="#000000" font-family="sans-serif" font-size="9.1" lengthAdjust="spacing" textLength="24.7806" x="1083.6" y="400.5046">stores</text><text fill="#000000" font-family="sans-serif" font-size="9.1" lengthAdjust="spacing" textLength="3.5414" x="1069.918" y="219.9488">*</text><text fill="#000000" font-family="sans-serif" font-size="9.1" lengthAdjust="spacing" textLength="3.5414" x="1070.1098" y="561.0401">*</text></g><!--link Station to Position--><g id="link_Station_Position"><path codeLine="163" d="M708.596,442.3098 C743.015,500.8368 788.627,603.0438 734.3,666.1348 C673.239,737.0448 362.334,750.1488 273.147,752.4588 " fill="none" id="Station-Position" style="stroke:#181818;stroke-width:0.6999999999999998;"/><polygon fill="#000000" points="759.4492,616.4671,765.7998,614.4696,763.4129,611.1183,759.4492,616.4671" style="stroke:#000000;stroke-width:0.6999999999999998;"/><text fill="#000000" font-family="sans-serif" font-size="9.1" lengthAdjust="spacing" textLength="39.4615" x="768.6" y="618.2046">located at</text><text fill="#000000" font-family="sans-serif" font-size="9.1" lengthAdjust="spacing" textLength="5.061" x="706.4978" y="457.4738">1</text><text fill="#000000" font-family="sans-serif" font-size="9.1" lengthAdjust="spacing" textLength="5.061" x="278.605" y="748.8949">1</text></g><!--link Station to StationType--><g id="link_Station_StationType"><path codeLine="164" d="M657.454,442.1488 C640.437,473.5438 614.068,514.5498 581,541.5348 C570.178,550.3618 496.055,579.7968 448.441,598.2138 " fill="none" id="Station-StationType" style="stroke:#181818;stroke-width:0.6999999999999998;"/><polygon fill="#000000" points="594.9955,537.0807,601.2997,534.9409,598.838,531.6441,594.9955,537.0807" style="stroke:#000000;stroke-width:0.6999999999999998;"/><text fill="#000000" font-family="sans-serif" font-size="9.1" lengthAdjust="spacing" textLength="41.9942" x="604.1" y="538.7546">defined by</text><text fill="#000000" font-family="sans-serif" font-size="9.1" lengthAdjust="spacing" textLength="3.5414" x="655.4087" y="457.2962">*</text><text fill="#000000" font-family="sans-serif" font-size="9.1" lengthAdjust="spacing" textLength="5.061" x="454.1785" y="593.1765">1</text></g><!--link StationType to StationType--><g id="link_StationType_StationType"><path codeLine="165" d="M448.567,599.6348 C462.056,599.6348 472.85,604.5348 472.85,614.3348 C472.85,624.1348 462.056,629.0348 448.567,629.0348 " fill="none" id="StationType-StationType" style="stroke:#181818;stroke-width:0.6999999999999998;"/><polygon fill="#000000" points="476.35,617.9366,478.4072,611.6051,474.2928,611.6051,476.35,617.9366" style="stroke:#000000;stroke-width:0.6999999999999998;"/><text fill="#000000" font-family="sans-serif" font-size="9.1" lengthAdjust="spacing" textLength="47.0552" x="486.15" y="618.2046">can change</text><text fill="#000000" font-family="sans-serif" font-size="9.1" lengthAdjust="spacing" textLength="5.061" x="454.3215" y="608.2875">1</text><text fill="#000000" font-family="sans-serif" font-size="9.1" lengthAdjust="spacing" textLength="3.5414" x="454.2194" y="628.1391">*</text></g><!--link Station to TrainSchedule--><g id="link_Station_TrainSchedule"><path codeLine="166" d="M714.322,442.1698 C739.221,472.2068 774.34,511.5818 809.9,541.5348 C826.581,555.5908 846.209,568.9958 864.395,580.3498 " fill="none" id="Station-TrainSchedule" style="stroke:#181818;stroke-width:0.6999999999999998;"/><polygon fill="#000000" points="815.9748,537.3574,812.7104,531.5552,809.9235,534.5821,815.9748,537.3574" style="stroke:#000000;stroke-width:0.6999999999999998;"/><text fill="#000000" font-family="sans-serif" font-size="9.1" lengthAdjust="spacing" textLength="40.4746" x="819.7" y="538.7546">generates</text><text fill="#000000" font-family="sans-serif" font-size="9.1" lengthAdjust="spacing" textLength="5.061" x="712.8143" y="457.3194">1</text><text fill="#000000" font-family="sans-serif" font-size="9.1" lengthAdjust="spacing" textLength="3.5414" x="855.2922" y="574.5863">*</text></g><!--link Route to Cargo--><g id="link_Route_Cargo"><path codeLine="167" d="M1125.152,84.5258 C1127.364,91.2178 1129.373,98.5048 1130.5,105.4348 C1131.445,111.2728 1130.619,112.8268 1130.5,118.7348 C1126.923,291.5158 1149.239,337.9678 1114.4,507.2348 C1110.116,528.0528 1102.269,550.1518 1094.611,568.7788 " fill="none" id="Route-Cargo" style="stroke:#181818;stroke-width:0.6999999999999998;"/><polygon fill="#000000" points="1135.8797,261.9797,1138.3314,255.7902,1134.2251,255.5312,1135.8797,261.9797" style="stroke:#000000;stroke-width:0.6999999999999998;"/><text fill="#000000" font-family="sans-serif" font-size="9.1" lengthAdjust="spacing" textLength="37.4353" x="1142.4" y="262.2546">manages</text><text fill="#000000" font-family="sans-serif" font-size="9.1" lengthAdjust="spacing" textLength="3.5414" x="1123.0129" y="99.6606">*</text><text fill="#000000" font-family="sans-serif" font-size="9.1" lengthAdjust="spacing" textLength="3.5414" x="1093.197" y="561.0867">*</text></g><!--link Route to RailwayLine--><g id="link_Route_RailwayLine"><path codeLine="168" d="M1142.533,84.6658 C1149.624,91.3578 1157.198,98.6098 1164.1,105.4348 C1177.4,118.5808 1191.694,133.2528 1204.28,146.3568 " fill="none" id="Route-RailwayLine" style="stroke:#181818;stroke-width:0.6999999999999998;"/><polygon fill="#000000" points="1182.676,114.6604,1179.6509,108.73,1176.7428,111.6407,1182.676,114.6604" style="stroke:#000000;stroke-width:0.6999999999999998;"/><text fill="#000000" font-family="sans-serif" font-size="9.1" lengthAdjust="spacing" textLength="33.8939" x="1186.5" y="115.9546">contains</text><text fill="#000000" font-family="sans-serif" font-size="9.1" lengthAdjust="spacing" textLength="13.6589" x="1132.6874" y="99.8238">1..*</text><text fill="#000000" font-family="sans-serif" font-size="9.1" lengthAdjust="spacing" textLength="13.6589" x="1185.5349" y="138.5413">1..*</text></g><!--link Route to TrainSchedule--><g id="link_Route_TrainSchedule"><path codeLine="169" d="M1078.756,84.4558 C1035.209,117.1738 964.628,178.7668 936.6,251.7348 C890.393,372.0508 930.937,412.7418 926.1,541.5348 C925.848,548.2968 925.575,555.4088 925.302,562.4298 " fill="none" id="Route-TrainSchedule" style="stroke:#181818;stroke-width:0.6999999999999998;"/><polygon fill="#000000" points="939.0301,261.8191,942.9243,256.4195,939.0068,255.1617,939.0301,261.8191" style="stroke:#000000;stroke-width:0.6999999999999998;"/><text fill="#000000" font-family="sans-serif" font-size="9.1" lengthAdjust="spacing" textLength="24.7806" x="946.4" y="262.2546">stores</text><text fill="#000000" font-family="sans-serif" font-size="9.1" lengthAdjust="spacing" textLength="5.061" x="1067.1839" y="99.7791">1</text><text fill="#000000" font-family="sans-serif" font-size="9.1" lengthAdjust="spacing" textLength="3.5414" x="921.8148" y="554.6525">*</text></g><!--link Building to Building--><g id="link_Building_Building"><path codeLine="170" d="M644.371,599.6768 C658.161,600.1878 668.85,605.0738 668.85,614.3348 C668.85,623.5958 658.161,628.4818 644.371,628.9928 " fill="none" id="Building-Building" style="stroke:#181818;stroke-width:0.6999999999999998;"/><polygon fill="#000000" points="672.4796,617.9342,674.301,611.5308,670.1893,611.6832,672.4796,617.9342" style="stroke:#000000;stroke-width:0.6999999999999998;"/><text fill="#000000" font-family="sans-serif" font-size="9.1" lengthAdjust="spacing" textLength="48.0549" x="682.15" y="618.2046">evolves into</text><text fill="#000000" font-family="sans-serif" font-size="9.1" lengthAdjust="spacing" textLength="5.061" x="649.8189" y="595.3404">1</text><text fill="#000000" font-family="sans-serif" font-size="9.1" lengthAdjust="spacing" textLength="15.1785" x="650.0292" y="627.8086">0..1</text></g><!--SRC=[bLPDR-Cs4BtxLn2-50YGO7UFFXH8d5qWg8C6SVRGuuGSIKGeKiiFUzsY_xr3Yf8esqcz1qCYvt5ctipmoUvDwWuijCmr8CnUwffLe1mkt6ZX2foxzTxAr-3nWHkzbNyZ-tGCOVyi6Bi3_bPR4xHO6sKisyYwyNSgOBGPAz3s-sdhtqKZ1J8kBLVOlxVe6oFSOk6bLyYMzwO5gTcZ4QZODVk-_VA5hTZ6W630jXmrM6cMYqMVmLSXFJcFYGI7LaCRutPasbDiUkKMmQDuXCvHz7oALkb8X3_SqulZe72o9xeHi9V2D_HiCBAQ06lf3tCFta9LIVvCmQA_q7LAebY3hGsj1RQWnR0UtJne4PotnwuENVG1Ev0ANgMYM7yXsCZB6X6ubqR_MfmdusGybUByfD-1VeRpqD7P2ROntBJ6ontE4p9xZNPAh3Fxj0JEKQ65w3bQJRVj44Mo-01gM3aFrcS6LK1roty4sIVqP2N7lBqsseMsAxVFb01E3x-2mqUQ6K-peJckZVEqsquxtop-2AXvPBqdDxTQlD3Z6wLfRAH_r8ujyc6eya39jZFMkwy_quCsQjIHERgXyZnbFwq5EcvbObFCbOUn3TFiKIoeSGqTSE8P2GMf15tChJ8fM2w3mi5vukFycJuJvp-hPqFNDWNXqHwlqeIPZ4K6AQrjNoKyoVU5-bvM0uciQUEm2nbS8fzAJfVJeqr9J3xkCfbBPnntHeKODVTnN5CoDReDLcctggX9KvGNI-tUyWP5K0DrnOEAT__MMha3zI9JyjF-FPAM-M0nM_gfdQFxlMEa6DQvG17O7nis9gM87IYB1orfPQIWP8Mk0rrSh3ZGJsY_QncfvNvHXVPms4ZTyrAewwH9dGAEBPLyk0Vj_0wGep_QToO-jpUhwSaqM7_VwmjgaTyavIH1tGLHO-fri9PYvpNH_OqzeqhaNID9RBCoBpylsVKrMruja-gkc28bT-ptHLmDHdeaoLsn1evjT32fxIfUCKyKpm167Vq8D8hWAeerVukGvBd8ei0em-EGCF246mDSW1shMiGkb3MbMCcQfiUzWvxJkGoRDUk24uC8NG2T2dyETpMMekyiVO1TKQkSqV-sQSYd08wQGKwxsW9zqUXJx9lpw9mbVVvt-8x38l97iFwohf8a9qmlbhCXAXHsHcDcAGTxBBV5ZhpIfJc5NxsVmg-qy8ZHHqCwGA-E4qrYloA9gqXn17izJEXaEaqZd-2W6Mz0rtY-k3E9NarVqAdCfrMWVpDHz8jEtDmC6QUtKXrdxJZftFmBCHQOeEEq3UXFDpUVPqCOlq5nQAXbXWxy1m00]--></g></svg>