<svg xmlns="http://www.w3.org/2000/svg" xmlns:xlink="http://www.w3.org/1999/xlink" contentStyleType="text/css" height="711.9px" preserveAspectRatio="none" style="width:450px;height:711px;background:#FFFFFF;" version="1.1" viewBox="0 0 450 711" width="450.9px" zoomAndPan="magnify"><title>System Sequence Diagram - US05: Build a Station</title><defs/><g><text fill="#000000" font-family="sans-serif" font-size="12.6" font-weight="bold" lengthAdjust="spacing" textLength="300.382" x="77.0552" y="27.0967">System Sequence Diagram - US05: Build a Station</text><rect fill="#FFFFFF" height="509.6145" style="stroke:#181818;stroke-width:0.9;" width="9" x="34.0572" y="119.918"/><rect fill="#FFFFFF" height="28.1619" style="stroke:#181818;stroke-width:0.9;" width="9" x="403.8381" y="140.8799"/><rect fill="#FFFFFF" height="28.1619" style="stroke:#181818;stroke-width:0.9;" width="9" x="403.8381" y="197.2037"/><rect fill="#FFFFFF" height="28.1619" style="stroke:#181818;stroke-width:0.9;" width="9" x="403.8381" y="253.5275"/><rect fill="#FFFFFF" height="28.1619" style="stroke:#181818;stroke-width:0.9;" width="9" x="403.8381" y="309.8514"/><rect fill="#FFFFFF" height="51.8238" style="stroke:#181818;stroke-width:0.9;" width="9" x="403.8381" y="366.1752"/><rect fill="#FFFFFF" height="90.7857" style="stroke:#181818;stroke-width:0.9;" width="9" x="403.8381" y="446.1609"/><rect fill="#FFFFFF" height="56.3238" style="stroke:#181818;stroke-width:0.9;" width="9" x="403.8381" y="565.1086"/><rect fill="none" height="73.6857" style="stroke:#000000;stroke-width:1.35;" width="437.3925" x="9" y="379.6752"/><line style="stroke:#181818;stroke-width:0.45;stroke-dasharray:5.0,5.0;" x1="37.8" x2="37.8" y1="110.918" y2="637.6324"/><line style="stroke:#181818;stroke-width:0.45;stroke-dasharray:5.0,5.0;" x1="408.0836" x2="408.0836" y1="110.918" y2="637.6324"/><text fill="#000000" font-family="sans-serif" font-size="12.6" lengthAdjust="spacing" textLength="35.7144" x="18" y="107.7557">Player</text><ellipse cx="38.5572" cy="47.809" fill="#E2E2F0" rx="7.2" ry="7.2" style="stroke:#181818;stroke-width:0.45;"/><path d="M38.5572,55.009 L38.5572,79.309 M26.8572,62.209 L50.2572,62.209 M38.5572,79.309 L26.8572,92.809 M38.5572,79.309 L50.2572,92.809 " fill="none" style="stroke:#181818;stroke-width:0.45;"/><text fill="#000000" font-family="sans-serif" font-size="12.6" lengthAdjust="spacing" textLength="35.7144" x="18" y="650.3291">Player</text><ellipse cx="38.5572" cy="661.1414" fill="#E2E2F0" rx="7.2" ry="7.2" style="stroke:#181818;stroke-width:0.45;"/><path d="M38.5572,668.3414 L38.5572,692.6414 M26.8572,675.5414 L50.2572,675.5414 M38.5572,692.6414 L26.8572,706.1414 M38.5572,692.6414 L50.2572,706.1414 " fill="none" style="stroke:#181818;stroke-width:0.45;"/><rect fill="#E2E2F0" height="29.359" rx="2.25" ry="2.25" style="stroke:#181818;stroke-width:0.45;" width="58.1089" x="379.2836" y="80.659"/><text fill="#000000" font-family="sans-serif" font-size="12.6" lengthAdjust="spacing" textLength="45.5089" x="385.5836" y="100.5557">:System</text><rect fill="#E2E2F0" height="29.359" rx="2.25" ry="2.25" style="stroke:#181818;stroke-width:0.45;" width="58.1089" x="379.2836" y="636.7324"/><text fill="#000000" font-family="sans-serif" font-size="12.6" lengthAdjust="spacing" textLength="45.5089" x="385.5836" y="656.6291">:System</text><rect fill="#FFFFFF" height="509.6145" style="stroke:#181818;stroke-width:0.9;" width="9" x="34.0572" y="119.918"/><rect fill="#FFFFFF" height="28.1619" style="stroke:#181818;stroke-width:0.9;" width="9" x="403.8381" y="140.8799"/><rect fill="#FFFFFF" height="28.1619" style="stroke:#181818;stroke-width:0.9;" width="9" x="403.8381" y="197.2037"/><rect fill="#FFFFFF" height="28.1619" style="stroke:#181818;stroke-width:0.9;" width="9" x="403.8381" y="253.5275"/><rect fill="#FFFFFF" height="28.1619" style="stroke:#181818;stroke-width:0.9;" width="9" x="403.8381" y="309.8514"/><rect fill="#FFFFFF" height="51.8238" style="stroke:#181818;stroke-width:0.9;" width="9" x="403.8381" y="366.1752"/><rect fill="#FFFFFF" height="90.7857" style="stroke:#181818;stroke-width:0.9;" width="9" x="403.8381" y="446.1609"/><rect fill="#FFFFFF" height="56.3238" style="stroke:#181818;stroke-width:0.9;" width="9" x="403.8381" y="565.1086"/><polygon fill="#181818" points="393.0381,137.2799,402.0381,140.8799,393.0381,144.4799,396.6381,140.8799" style="stroke:#181818;stroke-width:0.9;"/><line style="stroke:#181818;stroke-width:0.9;" x1="43.0572" x2="398.4381" y1="140.8799" y2="140.8799"/><text fill="#000000" font-family="sans-serif" font-size="11.7" font-weight="bold" lengthAdjust="spacing" textLength="6.507" x="49.3572" y="136.1435">1</text><text fill="#000000" font-family="sans-serif" font-size="11.7" lengthAdjust="spacing" textLength="140.4743" x="59.4642" y="136.1435">asks to see available maps</text><polygon fill="#181818" points="52.9572,165.4418,43.9572,169.0418,52.9572,172.6418,49.3572,169.0418" style="stroke:#181818;stroke-width:0.9;"/><line style="stroke:#181818;stroke-width:0.9;stroke-dasharray:2.0,2.0;" x1="47.5572" x2="407.4381" y1="169.0418" y2="169.0418"/><text fill="#000000" font-family="sans-serif" font-size="11.7" font-weight="bold" lengthAdjust="spacing" textLength="6.507" x="58.3572" y="164.3054">2</text><text fill="#000000" font-family="sans-serif" font-size="11.7" lengthAdjust="spacing" textLength="182.7382" x="68.4642" y="164.3054">shows list of available maps to play</text><polygon fill="#181818" points="393.0381,193.6037,402.0381,197.2037,393.0381,200.8037,396.6381,197.2037" style="stroke:#181818;stroke-width:0.9;"/><line style="stroke:#181818;stroke-width:0.9;" x1="43.0572" x2="398.4381" y1="197.2037" y2="197.2037"/><text fill="#000000" font-family="sans-serif" font-size="11.7" font-weight="bold" lengthAdjust="spacing" textLength="6.507" x="49.3572" y="192.4673">3</text><text fill="#000000" font-family="sans-serif" font-size="11.7" lengthAdjust="spacing" textLength="72.1824" x="59.4642" y="192.4673">selects a map</text><polygon fill="#181818" points="52.9572,221.7656,43.9572,225.3656,52.9572,228.9656,49.3572,225.3656" style="stroke:#181818;stroke-width:0.9;"/><line style="stroke:#181818;stroke-width:0.9;stroke-dasharray:2.0,2.0;" x1="47.5572" x2="407.4381" y1="225.3656" y2="225.3656"/><text fill="#000000" font-family="sans-serif" font-size="11.7" font-weight="bold" lengthAdjust="spacing" textLength="6.507" x="58.3572" y="220.6292">4</text><text fill="#000000" font-family="sans-serif" font-size="11.7" lengthAdjust="spacing" textLength="188.6168" x="68.4642" y="220.6292">loads and displays the selected map</text><polygon fill="#181818" points="393.0381,249.9275,402.0381,253.5275,393.0381,257.1275,396.6381,253.5275" style="stroke:#181818;stroke-width:0.9;"/><line style="stroke:#181818;stroke-width:0.9;" x1="43.0572" x2="398.4381" y1="253.5275" y2="253.5275"/><text fill="#000000" font-family="sans-serif" font-size="11.7" font-weight="bold" lengthAdjust="spacing" textLength="6.507" x="49.3572" y="248.7911">5</text><text fill="#000000" font-family="sans-serif" font-size="11.7" lengthAdjust="spacing" textLength="112.5154" x="59.4642" y="248.7911">asks to build a station</text><polygon fill="#181818" points="52.9572,278.0895,43.9572,281.6895,52.9572,285.2895,49.3572,281.6895" style="stroke:#181818;stroke-width:0.9;"/><line style="stroke:#181818;stroke-width:0.9;stroke-dasharray:2.0,2.0;" x1="47.5572" x2="407.4381" y1="281.6895" y2="281.6895"/><text fill="#000000" font-family="sans-serif" font-size="11.7" font-weight="bold" lengthAdjust="spacing" textLength="6.507" x="58.3572" y="276.953">6</text><text fill="#000000" font-family="sans-serif" font-size="11.7" lengthAdjust="spacing" textLength="282.1711" x="68.4642" y="276.953">requests station type (DEPOT, STATION, TERMINAL)</text><polygon fill="#181818" points="393.0381,306.2514,402.0381,309.8514,393.0381,313.4514,396.6381,309.8514" style="stroke:#181818;stroke-width:0.9;"/><line style="stroke:#181818;stroke-width:0.9;" x1="43.0572" x2="398.4381" y1="309.8514" y2="309.8514"/><text fill="#000000" font-family="sans-serif" font-size="11.7" font-weight="bold" lengthAdjust="spacing" textLength="6.507" x="49.3572" y="305.1149">7</text><text fill="#000000" font-family="sans-serif" font-size="11.7" lengthAdjust="spacing" textLength="99.5014" x="59.4642" y="305.1149">selects station type</text><polygon fill="#181818" points="52.9572,334.4133,43.9572,338.0133,52.9572,341.6133,49.3572,338.0133" style="stroke:#181818;stroke-width:0.9;"/><line style="stroke:#181818;stroke-width:0.9;stroke-dasharray:2.0,2.0;" x1="47.5572" x2="407.4381" y1="338.0133" y2="338.0133"/><text fill="#000000" font-family="sans-serif" font-size="11.7" font-weight="bold" lengthAdjust="spacing" textLength="6.507" x="58.3572" y="333.2769">8</text><text fill="#000000" font-family="sans-serif" font-size="11.7" lengthAdjust="spacing" textLength="257.5371" x="68.4642" y="333.2769">requests location (Position) on map for the station</text><polygon fill="#181818" points="393.0381,362.5752,402.0381,366.1752,393.0381,369.7752,396.6381,366.1752" style="stroke:#181818;stroke-width:0.9;"/><line style="stroke:#181818;stroke-width:0.9;" x1="43.0572" x2="398.4381" y1="366.1752" y2="366.1752"/><text fill="#000000" font-family="sans-serif" font-size="11.7" font-weight="bold" lengthAdjust="spacing" textLength="6.507" x="49.3572" y="361.4388">9</text><text fill="#000000" font-family="sans-serif" font-size="11.7" lengthAdjust="spacing" textLength="151.5401" x="59.4642" y="361.4388">provides location coordinates</text><path d="M9,379.6752 L63.1538,379.6752 L63.1538,388.0371 L54.1538,397.0371 L9,397.0371 L9,379.6752 " fill="#EEEEEE" style="stroke:#000000;stroke-width:1.35;"/><rect fill="none" height="73.6857" style="stroke:#000000;stroke-width:1.35;" width="437.3925" x="9" y="379.6752"/><text fill="#000000" font-family="sans-serif" font-size="11.7" font-weight="bold" lengthAdjust="spacing" textLength="13.6538" x="22.5" y="393.2007">alt</text><text fill="#000000" font-family="sans-serif" font-size="9.9" font-weight="bold" lengthAdjust="spacing" textLength="128.7435" x="76.6538" y="392.1583">[station type is "STATION"]</text><polygon fill="#181818" points="52.9572,414.399,43.9572,417.999,52.9572,421.599,49.3572,417.999" style="stroke:#181818;stroke-width:0.9;"/><line style="stroke:#181818;stroke-width:0.9;stroke-dasharray:2.0,2.0;" x1="47.5572" x2="407.4381" y1="417.999" y2="417.999"/><text fill="#000000" font-family="sans-serif" font-size="11.7" font-weight="bold" lengthAdjust="spacing" textLength="13.014" x="58.3572" y="413.2626">10</text><text fill="#000000" font-family="sans-serif" font-size="11.7" lengthAdjust="spacing" textLength="259.4395" x="74.9711" y="413.2626">requests center point selection (NE, SE, NW, SW)</text><polygon fill="#181818" points="393.0381,442.5609,402.0381,446.1609,393.0381,449.7609,396.6381,446.1609" style="stroke:#181818;stroke-width:0.9;"/><line style="stroke:#181818;stroke-width:0.9;" x1="43.0572" x2="398.4381" y1="446.1609" y2="446.1609"/><text fill="#000000" font-family="sans-serif" font-size="11.7" font-weight="bold" lengthAdjust="spacing" textLength="13.014" x="49.3572" y="441.4245">11</text><text fill="#000000" font-family="sans-serif" font-size="11.7" lengthAdjust="spacing" textLength="100.804" x="65.9711" y="441.4245">selects center point</text><polygon fill="#181818" points="52.9572,477.0229,43.9572,480.6229,52.9572,484.2229,49.3572,480.6229" style="stroke:#181818;stroke-width:0.9;"/><line style="stroke:#181818;stroke-width:0.9;stroke-dasharray:2.0,2.0;" x1="47.5572" x2="402.9381" y1="480.6229" y2="480.6229"/><text fill="#000000" font-family="sans-serif" font-size="11.7" font-weight="bold" lengthAdjust="spacing" textLength="13.014" x="58.3572" y="475.8864">12</text><text fill="#000000" font-family="sans-serif" font-size="11.7" lengthAdjust="spacing" textLength="230.2295" x="74.9711" y="475.8864">proposes station name based on closest city</text><polygon fill="#181818" points="52.9572,505.1848,43.9572,508.7848,52.9572,512.3848,49.3572,508.7848" style="stroke:#181818;stroke-width:0.9;"/><line style="stroke:#181818;stroke-width:0.9;stroke-dasharray:2.0,2.0;" x1="47.5572" x2="402.9381" y1="508.7848" y2="508.7848"/><text fill="#000000" font-family="sans-serif" font-size="11.7" font-weight="bold" lengthAdjust="spacing" textLength="13.014" x="58.3572" y="504.0483">13</text><text fill="#000000" font-family="sans-serif" font-size="11.7" lengthAdjust="spacing" textLength="215.913" x="74.9711" y="504.0483">displays station cost and economic radius</text><polygon fill="#181818" points="52.9572,533.3467,43.9572,536.9467,52.9572,540.5467,49.3572,536.9467" style="stroke:#181818;stroke-width:0.9;"/><line style="stroke:#181818;stroke-width:0.9;stroke-dasharray:2.0,2.0;" x1="47.5572" x2="407.4381" y1="536.9467" y2="536.9467"/><text fill="#000000" font-family="sans-serif" font-size="11.7" font-weight="bold" lengthAdjust="spacing" textLength="13.014" x="58.3572" y="532.2103">14</text><text fill="#000000" font-family="sans-serif" font-size="11.7" lengthAdjust="spacing" textLength="322.5669" x="74.9711" y="532.2103">shows preview of station placement and requests confirmation</text><polygon fill="#181818" points="393.0381,561.5086,402.0381,565.1086,393.0381,568.7086,396.6381,565.1086" style="stroke:#181818;stroke-width:0.9;"/><line style="stroke:#181818;stroke-width:0.9;" x1="43.0572" x2="398.4381" y1="565.1086" y2="565.1086"/><text fill="#000000" font-family="sans-serif" font-size="11.7" font-weight="bold" lengthAdjust="spacing" textLength="13.014" x="49.3572" y="560.3722">15</text><text fill="#000000" font-family="sans-serif" font-size="11.7" lengthAdjust="spacing" textLength="139.1603" x="65.9711" y="560.3722">confirms station placement</text><polygon fill="#181818" points="52.9572,589.6705,43.9572,593.2705,52.9572,596.8705,49.3572,593.2705" style="stroke:#181818;stroke-width:0.9;"/><line style="stroke:#181818;stroke-width:0.9;stroke-dasharray:2.0,2.0;" x1="47.5572" x2="402.9381" y1="593.2705" y2="593.2705"/><text fill="#000000" font-family="sans-serif" font-size="11.7" font-weight="bold" lengthAdjust="spacing" textLength="13.014" x="58.3572" y="588.5341">16</text><text fill="#000000" font-family="sans-serif" font-size="11.7" lengthAdjust="spacing" textLength="139.823" x="74.9711" y="588.5341">displays operation success</text><polygon fill="#181818" points="52.9572,617.8324,43.9572,621.4324,52.9572,625.0324,49.3572,621.4324" style="stroke:#181818;stroke-width:0.9;"/><line style="stroke:#181818;stroke-width:0.9;stroke-dasharray:2.0,2.0;" x1="47.5572" x2="407.4381" y1="621.4324" y2="621.4324"/><text fill="#000000" font-family="sans-serif" font-size="11.7" font-weight="bold" lengthAdjust="spacing" textLength="13.014" x="58.3572" y="616.696">17</text><text fill="#000000" font-family="sans-serif" font-size="11.7" lengthAdjust="spacing" textLength="173.6547" x="74.9711" y="616.696">updates map with the new station</text><!--SRC=[bLDDZzem4BtxLunoMgH5wgKN3fMsMWuhTLdKKEtPs4CPhMEx7WV4l-_aQw4GAeWKnKdclNdp_Aph77nThJ4fbIaxXA8ySCOAIlnJepS8pwH_9rt157wLNxxEu7jDpeA6CkjCmHTAAMroI50idJvWAa0pT4iLTSfaA6gVePXrpEt_RjaYQQSp3W3LFM7whI-1cPH_CEG0Z0XwfydfjUYiTEGZVE3hGLF1Tqmpu6tOCpZY365pHj3GHgbJ5Y-epfK84peqcMLsmQgBvYEzNT1Mwhq5IzmqaevRx8dGjZmtjHuyMFVcSsV-JI9IivCikdiGv4D4U7YUBzzMZr2kdbOlRuj7MCr_lhuiddvCxZFZbFG-EIwO3lgm34pDQWBo9fx0HkBK6jMFUPEYcCAEB9uGcn2I9IymlfIcNVxN4M89V-T6eK2k_uatwBEqZu4asfqNxIYBkLWgz-9Tdk-JbcT4VVFvkgUdv6tfEHwz7SswM103ut5NlAuGrfebQuqVhlcPmL0-ZC4_Gph0JP3g9hveWWyL6KZQKitNprbCk2FSDqTj815AWvMCr38T7Gn-GwcwOuDx15yotnIyp-b2nDGHS6qCykWuTRHDRjeuxYblspnwcUnw9ly2]--></g></svg>