<svg xmlns="http://www.w3.org/2000/svg" xmlns:xlink="http://www.w3.org/1999/xlink" contentStyleType="text/css" height="791px" preserveAspectRatio="none" style="width:501px;height:791px;background:#FFFFFF;" version="1.1" viewBox="0 0 501 791" width="501px" zoomAndPan="magnify"><title>System Sequence Diagram - US05: Build a Station</title><defs/><g><text fill="#000000" font-family="sans-serif" font-size="14" font-weight="bold" lengthAdjust="spacing" textLength="333.7578" x="85.6169" y="30.1074">System Sequence Diagram - US05: Build a Station</text><rect fill="#FFFFFF" height="566.2383" style="stroke:#181818;stroke-width:1.0;" width="10" x="37.8413" y="133.2422"/><rect fill="#FFFFFF" height="23.291" style="stroke:#181818;stroke-width:1.0;" width="10" x="448.709" y="133.2422"/><rect fill="#FFFFFF" height="31.291" style="stroke:#181818;stroke-width:1.0;" width="10" x="448.709" y="187.8242"/><rect fill="#FFFFFF" height="31.291" style="stroke:#181818;stroke-width:1.0;" width="10" x="448.709" y="250.4063"/><rect fill="#FFFFFF" height="31.291" style="stroke:#181818;stroke-width:1.0;" width="10" x="448.709" y="312.9883"/><rect fill="#FFFFFF" height="57.582" style="stroke:#181818;stroke-width:1.0;" width="10" x="448.709" y="375.5703"/><rect fill="#FFFFFF" height="100.873" style="stroke:#181818;stroke-width:1.0;" width="10" x="448.709" y="464.4434"/><rect fill="#FFFFFF" height="93.873" style="stroke:#181818;stroke-width:1.0;" width="10" x="448.709" y="596.6074"/><rect fill="none" height="81.873" style="stroke:#000000;stroke-width:1.5;" width="485.9917" x="10" y="390.5703"/><line style="stroke:#181818;stroke-width:0.5;stroke-dasharray:5.0,5.0;" x1="42" x2="42" y1="123.2422" y2="708.4805"/><line style="stroke:#181818;stroke-width:0.5;stroke-dasharray:5.0,5.0;" x1="453.4263" x2="453.4263" y1="123.2422" y2="708.4805"/><text fill="#000000" font-family="sans-serif" font-size="14" lengthAdjust="spacing" textLength="39.6826" x="20" y="119.7285">Player</text><ellipse cx="42.8413" cy="53.1211" fill="#E2E2F0" rx="8" ry="8" style="stroke:#181818;stroke-width:0.5;"/><path d="M42.8413,61.1211 L42.8413,88.1211 M29.8413,69.1211 L55.8413,69.1211 M42.8413,88.1211 L29.8413,103.1211 M42.8413,88.1211 L55.8413,103.1211 " fill="none" style="stroke:#181818;stroke-width:0.5;"/><text fill="#000000" font-family="sans-serif" font-size="14" lengthAdjust="spacing" textLength="39.6826" x="20" y="722.5879">Player</text><ellipse cx="42.8413" cy="734.6016" fill="#E2E2F0" rx="8" ry="8" style="stroke:#181818;stroke-width:0.5;"/><path d="M42.8413,742.6016 L42.8413,769.6016 M29.8413,750.6016 L55.8413,750.6016 M42.8413,769.6016 L29.8413,784.6016 M42.8413,769.6016 L55.8413,784.6016 " fill="none" style="stroke:#181818;stroke-width:0.5;"/><rect fill="#E2E2F0" height="32.6211" rx="2.5" ry="2.5" style="stroke:#181818;stroke-width:0.5;" width="64.5654" x="421.4263" y="89.6211"/><text fill="#000000" font-family="sans-serif" font-size="14" lengthAdjust="spacing" textLength="50.5654" x="428.4263" y="111.7285">:System</text><rect fill="#E2E2F0" height="32.6211" rx="2.5" ry="2.5" style="stroke:#181818;stroke-width:0.5;" width="64.5654" x="421.4263" y="707.4805"/><text fill="#000000" font-family="sans-serif" font-size="14" lengthAdjust="spacing" textLength="50.5654" x="428.4263" y="729.5879">:System</text><rect fill="#FFFFFF" height="566.2383" style="stroke:#181818;stroke-width:1.0;" width="10" x="37.8413" y="133.2422"/><rect fill="#FFFFFF" height="23.291" style="stroke:#181818;stroke-width:1.0;" width="10" x="448.709" y="133.2422"/><rect fill="#FFFFFF" height="31.291" style="stroke:#181818;stroke-width:1.0;" width="10" x="448.709" y="187.8242"/><rect fill="#FFFFFF" height="31.291" style="stroke:#181818;stroke-width:1.0;" width="10" x="448.709" y="250.4063"/><rect fill="#FFFFFF" height="31.291" style="stroke:#181818;stroke-width:1.0;" width="10" x="448.709" y="312.9883"/><rect fill="#FFFFFF" height="57.582" style="stroke:#181818;stroke-width:1.0;" width="10" x="448.709" y="375.5703"/><rect fill="#FFFFFF" height="100.873" style="stroke:#181818;stroke-width:1.0;" width="10" x="448.709" y="464.4434"/><rect fill="#FFFFFF" height="93.873" style="stroke:#181818;stroke-width:1.0;" width="10" x="448.709" y="596.6074"/><polygon fill="#181818" points="58.8413,152.5332,48.8413,156.5332,58.8413,160.5332,54.8413,156.5332" style="stroke:#181818;stroke-width:1.0;"/><line style="stroke:#181818;stroke-width:1.0;stroke-dasharray:2.0,2.0;" x1="52.8413" x2="452.709" y1="156.5332" y2="156.5332"/><text fill="#000000" font-family="sans-serif" font-size="13" font-weight="bold" lengthAdjust="spacing" textLength="7.23" x="64.8413" y="151.2705">1</text><text fill="#000000" font-family="sans-serif" font-size="13" lengthAdjust="spacing" textLength="203.0425" x="76.0713" y="151.2705">shows list of available maps to play</text><polygon fill="#181818" points="436.709,183.8242,446.709,187.8242,436.709,191.8242,440.709,187.8242" style="stroke:#181818;stroke-width:1.0;"/><line style="stroke:#181818;stroke-width:1.0;" x1="47.8413" x2="442.709" y1="187.8242" y2="187.8242"/><text fill="#000000" font-family="sans-serif" font-size="13" font-weight="bold" lengthAdjust="spacing" textLength="7.23" x="54.8413" y="182.5615">2</text><text fill="#000000" font-family="sans-serif" font-size="13" lengthAdjust="spacing" textLength="80.2026" x="66.0713" y="182.5615">selects a map</text><polygon fill="#181818" points="58.8413,215.1152,48.8413,219.1152,58.8413,223.1152,54.8413,219.1152" style="stroke:#181818;stroke-width:1.0;"/><line style="stroke:#181818;stroke-width:1.0;stroke-dasharray:2.0,2.0;" x1="52.8413" x2="452.709" y1="219.1152" y2="219.1152"/><text fill="#000000" font-family="sans-serif" font-size="13" font-weight="bold" lengthAdjust="spacing" textLength="7.23" x="64.8413" y="213.8525">3</text><text fill="#000000" font-family="sans-serif" font-size="13" lengthAdjust="spacing" textLength="209.5742" x="76.0713" y="213.8525">loads and displays the selected map</text><polygon fill="#181818" points="436.709,246.4063,446.709,250.4063,436.709,254.4063,440.709,250.4063" style="stroke:#181818;stroke-width:1.0;"/><line style="stroke:#181818;stroke-width:1.0;" x1="47.8413" x2="442.709" y1="250.4063" y2="250.4063"/><text fill="#000000" font-family="sans-serif" font-size="13" font-weight="bold" lengthAdjust="spacing" textLength="7.23" x="54.8413" y="245.1436">4</text><text fill="#000000" font-family="sans-serif" font-size="13" lengthAdjust="spacing" textLength="125.0171" x="66.0713" y="245.1436">asks to build a station</text><polygon fill="#181818" points="58.8413,277.6973,48.8413,281.6973,58.8413,285.6973,54.8413,281.6973" style="stroke:#181818;stroke-width:1.0;"/><line style="stroke:#181818;stroke-width:1.0;stroke-dasharray:2.0,2.0;" x1="52.8413" x2="452.709" y1="281.6973" y2="281.6973"/><text fill="#000000" font-family="sans-serif" font-size="13" font-weight="bold" lengthAdjust="spacing" textLength="7.23" x="64.8413" y="276.4346">5</text><text fill="#000000" font-family="sans-serif" font-size="13" lengthAdjust="spacing" textLength="313.5234" x="76.0713" y="276.4346">requests station type (DEPOT, STATION, TERMINAL)</text><polygon fill="#181818" points="436.709,308.9883,446.709,312.9883,436.709,316.9883,440.709,312.9883" style="stroke:#181818;stroke-width:1.0;"/><line style="stroke:#181818;stroke-width:1.0;" x1="47.8413" x2="442.709" y1="312.9883" y2="312.9883"/><text fill="#000000" font-family="sans-serif" font-size="13" font-weight="bold" lengthAdjust="spacing" textLength="7.23" x="54.8413" y="307.7256">6</text><text fill="#000000" font-family="sans-serif" font-size="13" lengthAdjust="spacing" textLength="110.5571" x="66.0713" y="307.7256">selects station type</text><polygon fill="#181818" points="58.8413,340.2793,48.8413,344.2793,58.8413,348.2793,54.8413,344.2793" style="stroke:#181818;stroke-width:1.0;"/><line style="stroke:#181818;stroke-width:1.0;stroke-dasharray:2.0,2.0;" x1="52.8413" x2="452.709" y1="344.2793" y2="344.2793"/><text fill="#000000" font-family="sans-serif" font-size="13" font-weight="bold" lengthAdjust="spacing" textLength="7.23" x="64.8413" y="339.0166">7</text><text fill="#000000" font-family="sans-serif" font-size="13" lengthAdjust="spacing" textLength="286.1523" x="76.0713" y="339.0166">requests location (Position) on map for the station</text><polygon fill="#181818" points="436.709,371.5703,446.709,375.5703,436.709,379.5703,440.709,375.5703" style="stroke:#181818;stroke-width:1.0;"/><line style="stroke:#181818;stroke-width:1.0;" x1="47.8413" x2="442.709" y1="375.5703" y2="375.5703"/><text fill="#000000" font-family="sans-serif" font-size="13" font-weight="bold" lengthAdjust="spacing" textLength="7.23" x="54.8413" y="370.3076">8</text><text fill="#000000" font-family="sans-serif" font-size="13" lengthAdjust="spacing" textLength="168.3779" x="66.0713" y="370.3076">provides location coordinates</text><path d="M10,390.5703 L70.1709,390.5703 L70.1709,399.8613 L60.1709,409.8613 L10,409.8613 L10,390.5703 " fill="#EEEEEE" style="stroke:#000000;stroke-width:1.5;"/><rect fill="none" height="81.873" style="stroke:#000000;stroke-width:1.5;" width="485.9917" x="10" y="390.5703"/><text fill="#000000" font-family="sans-serif" font-size="13" font-weight="bold" lengthAdjust="spacing" textLength="15.1709" x="25" y="405.5986">alt</text><text fill="#000000" font-family="sans-serif" font-size="11" font-weight="bold" lengthAdjust="spacing" textLength="143.0483" x="85.1709" y="404.4404">[station type is "STATION"]</text><polygon fill="#181818" points="58.8413,429.1523,48.8413,433.1523,58.8413,437.1523,54.8413,433.1523" style="stroke:#181818;stroke-width:1.0;"/><line style="stroke:#181818;stroke-width:1.0;stroke-dasharray:2.0,2.0;" x1="52.8413" x2="452.709" y1="433.1523" y2="433.1523"/><text fill="#000000" font-family="sans-serif" font-size="13" font-weight="bold" lengthAdjust="spacing" textLength="7.23" x="64.8413" y="427.8896">9</text><text fill="#000000" font-family="sans-serif" font-size="13" lengthAdjust="spacing" textLength="288.2661" x="76.0713" y="427.8896">requests center point selection (NE, SE, NW, SW)</text><polygon fill="#181818" points="436.709,460.4434,446.709,464.4434,436.709,468.4434,440.709,464.4434" style="stroke:#181818;stroke-width:1.0;"/><line style="stroke:#181818;stroke-width:1.0;" x1="47.8413" x2="442.709" y1="464.4434" y2="464.4434"/><text fill="#000000" font-family="sans-serif" font-size="13" font-weight="bold" lengthAdjust="spacing" textLength="14.46" x="54.8413" y="459.1807">10</text><text fill="#000000" font-family="sans-serif" font-size="13" lengthAdjust="spacing" textLength="112.0044" x="73.3013" y="459.1807">selects center point</text><polygon fill="#181818" points="58.8413,498.7344,48.8413,502.7344,58.8413,506.7344,54.8413,502.7344" style="stroke:#181818;stroke-width:1.0;"/><line style="stroke:#181818;stroke-width:1.0;stroke-dasharray:2.0,2.0;" x1="52.8413" x2="447.709" y1="502.7344" y2="502.7344"/><text fill="#000000" font-family="sans-serif" font-size="13" font-weight="bold" lengthAdjust="spacing" textLength="14.46" x="64.8413" y="497.4717">11</text><text fill="#000000" font-family="sans-serif" font-size="13" lengthAdjust="spacing" textLength="255.8105" x="83.3013" y="497.4717">proposes station name based on closest city</text><polygon fill="#181818" points="58.8413,530.0254,48.8413,534.0254,58.8413,538.0254,54.8413,534.0254" style="stroke:#181818;stroke-width:1.0;"/><line style="stroke:#181818;stroke-width:1.0;stroke-dasharray:2.0,2.0;" x1="52.8413" x2="447.709" y1="534.0254" y2="534.0254"/><text fill="#000000" font-family="sans-serif" font-size="13" font-weight="bold" lengthAdjust="spacing" textLength="14.46" x="64.8413" y="528.7627">12</text><text fill="#000000" font-family="sans-serif" font-size="13" lengthAdjust="spacing" textLength="239.9033" x="83.3013" y="528.7627">displays station cost and economic radius</text><polygon fill="#181818" points="58.8413,561.3164,48.8413,565.3164,58.8413,569.3164,54.8413,565.3164" style="stroke:#181818;stroke-width:1.0;"/><line style="stroke:#181818;stroke-width:1.0;stroke-dasharray:2.0,2.0;" x1="52.8413" x2="452.709" y1="565.3164" y2="565.3164"/><text fill="#000000" font-family="sans-serif" font-size="13" font-weight="bold" lengthAdjust="spacing" textLength="14.46" x="64.8413" y="560.0537">13</text><text fill="#000000" font-family="sans-serif" font-size="13" lengthAdjust="spacing" textLength="358.4077" x="83.3013" y="560.0537">shows preview of station placement and requests confirmation</text><polygon fill="#181818" points="436.709,592.6074,446.709,596.6074,436.709,600.6074,440.709,596.6074" style="stroke:#181818;stroke-width:1.0;"/><line style="stroke:#181818;stroke-width:1.0;" x1="47.8413" x2="442.709" y1="596.6074" y2="596.6074"/><text fill="#000000" font-family="sans-serif" font-size="13" font-weight="bold" lengthAdjust="spacing" textLength="14.46" x="54.8413" y="591.3447">14</text><text fill="#000000" font-family="sans-serif" font-size="13" lengthAdjust="spacing" textLength="154.6226" x="73.3013" y="591.3447">confirms station placement</text><polygon fill="#181818" points="58.8413,623.8984,48.8413,627.8984,58.8413,631.8984,54.8413,627.8984" style="stroke:#181818;stroke-width:1.0;"/><line style="stroke:#181818;stroke-width:1.0;stroke-dasharray:2.0,2.0;" x1="52.8413" x2="447.709" y1="627.8984" y2="627.8984"/><text fill="#000000" font-family="sans-serif" font-size="13" font-weight="bold" lengthAdjust="spacing" textLength="14.46" x="64.8413" y="622.6357">15</text><text fill="#000000" font-family="sans-serif" font-size="13" lengthAdjust="spacing" textLength="195.4126" x="83.3013" y="622.6357">deducts cost from Player's budget</text><polygon fill="#181818" points="58.8413,655.1895,48.8413,659.1895,58.8413,663.1895,54.8413,659.1895" style="stroke:#181818;stroke-width:1.0;"/><line style="stroke:#181818;stroke-width:1.0;stroke-dasharray:2.0,2.0;" x1="52.8413" x2="447.709" y1="659.1895" y2="659.1895"/><text fill="#000000" font-family="sans-serif" font-size="13" font-weight="bold" lengthAdjust="spacing" textLength="14.46" x="64.8413" y="653.9268">16</text><text fill="#000000" font-family="sans-serif" font-size="13" lengthAdjust="spacing" textLength="155.3589" x="83.3013" y="653.9268">displays operation success</text><polygon fill="#181818" points="58.8413,686.4805,48.8413,690.4805,58.8413,694.4805,54.8413,690.4805" style="stroke:#181818;stroke-width:1.0;"/><line style="stroke:#181818;stroke-width:1.0;stroke-dasharray:2.0,2.0;" x1="52.8413" x2="452.709" y1="690.4805" y2="690.4805"/><text fill="#000000" font-family="sans-serif" font-size="13" font-weight="bold" lengthAdjust="spacing" textLength="14.46" x="64.8413" y="685.2178">17</text><text fill="#000000" font-family="sans-serif" font-size="13" lengthAdjust="spacing" textLength="192.9497" x="83.3013" y="685.2178">updates map with the new station</text><!--SRC=[bLF1RXen4BtxAqPxQP22b4il72gb2eT83K65AkV17iAekxRhyOBu-yvwbuOc404ImjZpthnvViOs1zysAqh6PCurGRNOIwO65lId9My97XXV4pOmXb-BkwyJ-DvoxG1XaJ5py9Kn1cqE2QfvZNjA5Q10lpGHKsRB4Ns6Qj8pb_D-MP2ynKm7W3dQ6ce6FUFnjw5e0h89Eu6Q9KDO0swHQrofzWQZG0uGjSuuUizaUZmeKx-ZJ5IJpQBZAFQYtdL0f_NUWMFf6cd73Gr4v0hFHQrHVXUngy5FwVsyI4JgBaTKzm22l8y4Dm_J-VFo5XRB- -NZy-mMbjEVJu-p-n-Zwymu9hrEJXri3xsP1-5kDGBzfvx0MXDIZ1h6l4XHJ67BZew8RGZ9iLUOV9I6TVxV4HRDS-z6PK0_ductvBEsZu4rhRqNPPJPL2tLx-n5Vrz6XUU4-cxxlAV7vANqFPwyCwUyLGjY47gx5OyDmGf5izRvKNU76Ipd_Idulv0Uu3PeTHTVii67XYqaTDpA-NSM4ssPTjrJEv0efQL6HofCRmu6l-RKN7710q8-CbyKF4UkBUvsGwrJQ8QJBwBFohrI_jII42drNQMrbkIa1srqNTXAXdUSDoN4Nkqu7-I_]--></g></svg>