<svg xmlns="http://www.w3.org/2000/svg" xmlns:xlink="http://www.w3.org/1999/xlink" contentStyleType="text/css" height="515px" preserveAspectRatio="none" style="width:966px;height:515px;background:#FFFFFF;" version="1.1" viewBox="0 0 966 515" width="966px" zoomAndPan="magnify"><title>System Sequence Diagram: Assign House Blocks</title><defs/><g><text fill="#000000" font-family="sans-serif" font-size="14" font-weight="bold" lengthAdjust="spacing" textLength="334.9627" x="314.7498" y="29.9659">System Sequence Diagram: Assign House Blocks</text><rect fill="#FFFFFF" height="279.3541" style="stroke:#181818;stroke-width:1.0;" width="10" x="22.6559" y="134.1358"/><rect fill="#FFFFFF" height="223.9421" style="stroke:#181818;stroke-width:1.0;" width="10" x="238.8001" y="189.5479"/><rect fill="#FFFFFF" height="192.2361" style="stroke:#181818;stroke-width:1.0;" width="10" x="654.6244" y="221.2539"/><rect fill="#FFFFFF" height="31.706" style="stroke:#181818;stroke-width:1.0;" width="10" x="861.0705" y="279.6659"/><rect fill="#FFFFFF" height="31.706" style="stroke:#181818;stroke-width:1.0;" width="10" x="936.1353" y="350.0779"/><rect fill="none" height="83.118" style="stroke:#000000;stroke-width:1.5;" width="367.4467" x="554.3617" y="236.2539"/><line style="stroke:#181818;stroke-width:0.5;stroke-dasharray:5.0,5.0;" x1="27" x2="27" y1="124.1358" y2="431.49"/><line style="stroke:#181818;stroke-width:0.5;stroke-dasharray:5.0,5.0;" x1="242.9002" x2="242.9002" y1="124.1358" y2="431.49"/><line style="stroke:#181818;stroke-width:0.5;stroke-dasharray:5.0,5.0;" x1="659.3617" x2="659.3617" y1="124.1358" y2="431.49"/><line style="stroke:#181818;stroke-width:0.5;stroke-dasharray:5.0,5.0;" x1="865.3327" x2="865.3327" y1="124.1358" y2="431.49"/><line style="stroke:#181818;stroke-width:0.5;stroke-dasharray:5.0,5.0;" x1="940.8084" x2="940.8084" y1="124.1358" y2="431.49"/><text fill="#000000" font-family="sans-serif" font-size="14" lengthAdjust="spacing" textLength="39.3119" x="5" y="120.0339">Editor</text><ellipse cx="27.6559" cy="53.5679" fill="#E3E3E3" rx="8" ry="8" style="stroke:#181818;stroke-width:0.5;"/><path d="M27.6559,61.5679 L27.6559,88.5679 M14.6559,69.5679 L40.6559,69.5679 M27.6559,88.5679 L14.6559,103.5679 M27.6559,88.5679 L40.6559,103.5679 " fill="none" style="stroke:#181818;stroke-width:0.5;"/><text fill="#000000" font-family="sans-serif" font-size="14" lengthAdjust="spacing" textLength="39.3119" x="5" y="445.4559">Editor</text><ellipse cx="27.6559" cy="458.0579" fill="#E3E3E3" rx="8" ry="8" style="stroke:#181818;stroke-width:0.5;"/><path d="M27.6559,466.0579 L27.6559,493.0579 M14.6559,474.0579 L40.6559,474.0579 M27.6559,493.0579 L14.6559,508.0579 M27.6559,493.0579 L40.6559,508.0579 " fill="none" style="stroke:#181818;stroke-width:0.5;"/><rect fill="#E3E3E3" height="33.0679" rx="2.5" ry="2.5" style="stroke:#181818;stroke-width:0.5;" width="79.7998" x="203.9002" y="90.0679"/><text fill="#000000" font-family="sans-serif" font-size="14" lengthAdjust="spacing" textLength="65.7998" x="210.9002" y="112.0339">AddCityUI</text><rect fill="#E3E3E3" height="33.0679" rx="2.5" ry="2.5" style="stroke:#181818;stroke-width:0.5;" width="79.7998" x="203.9002" y="430.49"/><text fill="#000000" font-family="sans-serif" font-size="14" lengthAdjust="spacing" textLength="65.7998" x="210.9002" y="452.4559">AddCityUI</text><rect fill="#E3E3E3" height="33.0679" rx="2.5" ry="2.5" style="stroke:#181818;stroke-width:0.5;" width="190.5253" x="564.3617" y="90.0679"/><text fill="#000000" font-family="sans-serif" font-size="14" lengthAdjust="spacing" textLength="176.5253" x="571.3617" y="112.0339">AddHouseBlocksController</text><rect fill="#E3E3E3" height="33.0679" rx="2.5" ry="2.5" style="stroke:#181818;stroke-width:0.5;" width="190.5253" x="564.3617" y="430.49"/><text fill="#000000" font-family="sans-serif" font-size="14" lengthAdjust="spacing" textLength="176.5253" x="571.3617" y="452.4559">AddHouseBlocksController</text><rect fill="#E3E3E3" height="33.0679" rx="2.5" ry="2.5" style="stroke:#181818;stroke-width:0.5;" width="91.4757" x="820.3327" y="90.0679"/><text fill="#000000" font-family="sans-serif" font-size="14" lengthAdjust="spacing" textLength="77.4757" x="827.3327" y="112.0339">HouseBlock</text><rect fill="#E3E3E3" height="33.0679" rx="2.5" ry="2.5" style="stroke:#181818;stroke-width:0.5;" width="91.4757" x="820.3327" y="430.49"/><text fill="#000000" font-family="sans-serif" font-size="14" lengthAdjust="spacing" textLength="77.4757" x="827.3327" y="452.4559">HouseBlock</text><rect fill="#E3E3E3" height="33.0679" rx="2.5" ry="2.5" style="stroke:#181818;stroke-width:0.5;" width="38.6539" x="921.8084" y="90.0679"/><text fill="#000000" font-family="sans-serif" font-size="14" lengthAdjust="spacing" textLength="24.6539" x="928.8084" y="112.0339">City</text><rect fill="#E3E3E3" height="33.0679" rx="2.5" ry="2.5" style="stroke:#181818;stroke-width:0.5;" width="38.6539" x="921.8084" y="430.49"/><text fill="#000000" font-family="sans-serif" font-size="14" lengthAdjust="spacing" textLength="24.6539" x="928.8084" y="452.4559">City</text><rect fill="#FFFFFF" height="279.3541" style="stroke:#181818;stroke-width:1.0;" width="10" x="22.6559" y="134.1358"/><rect fill="#FFFFFF" height="223.9421" style="stroke:#181818;stroke-width:1.0;" width="10" x="238.8001" y="189.5479"/><rect fill="#FFFFFF" height="192.2361" style="stroke:#181818;stroke-width:1.0;" width="10" x="654.6244" y="221.2539"/><rect fill="#FFFFFF" height="31.706" style="stroke:#181818;stroke-width:1.0;" width="10" x="861.0705" y="279.6659"/><rect fill="#FFFFFF" height="31.706" style="stroke:#181818;stroke-width:1.0;" width="10" x="936.1353" y="350.0779"/><polygon fill="#181818" points="43.6559,153.8419,33.6559,157.8419,43.6559,161.8419,39.6559,157.8419" style="stroke:#181818;stroke-width:1.0;"/><line style="stroke:#181818;stroke-width:1.0;" x1="37.6559" x2="242.8001" y1="157.8419" y2="157.8419"/><text fill="#000000" font-family="sans-serif" font-size="13" font-weight="bold" lengthAdjust="spacing" textLength="7.436" x="49.6559" y="152.0328">1</text><text fill="#000000" font-family="sans-serif" font-size="13" lengthAdjust="spacing" textLength="175.7081" x="61.0919" y="152.0328">ask if assign blocks manually</text><polygon fill="#181818" points="226.8001,185.5479,236.8001,189.5479,226.8001,193.5479,230.8001,189.5479" style="stroke:#181818;stroke-width:1.0;"/><line style="stroke:#181818;stroke-width:1.0;" x1="32.6559" x2="232.8001" y1="189.5479" y2="189.5479"/><text fill="#000000" font-family="sans-serif" font-size="13" font-weight="bold" lengthAdjust="spacing" textLength="7.436" x="39.6559" y="183.7389">2</text><text fill="#000000" font-family="sans-serif" font-size="13" lengthAdjust="spacing" textLength="85.7091" x="51.0919" y="183.7389">selects yes/no</text><polygon fill="#181818" points="642.6244,217.2539,652.6244,221.2539,642.6244,225.2539,646.6244,221.2539" style="stroke:#181818;stroke-width:1.0;"/><line style="stroke:#181818;stroke-width:1.0;" x1="248.8001" x2="648.6244" y1="221.2539" y2="221.2539"/><text fill="#000000" font-family="sans-serif" font-size="13" font-weight="bold" lengthAdjust="spacing" textLength="7.436" x="255.8001" y="215.4449">3</text><text fill="#000000" font-family="sans-serif" font-size="13" lengthAdjust="spacing" textLength="375.3883" x="267.2361" y="215.4449">assignBlocks(manual/auto, numBlocks, map, cityCoordinates)</text><path d="M554.3617,236.2539 L627.7017,236.2539 L627.7017,245.9599 L617.7017,255.9599 L554.3617,255.9599 L554.3617,236.2539 " fill="#EEEEEE" style="stroke:#000000;stroke-width:1.5;"/><rect fill="none" height="83.118" style="stroke:#000000;stroke-width:1.5;" width="367.4467" x="554.3617" y="236.2539"/><text fill="#000000" font-family="sans-serif" font-size="13" font-weight="bold" lengthAdjust="spacing" textLength="28.34" x="569.3617" y="251.1509">loop</text><text fill="#000000" font-family="sans-serif" font-size="11" font-weight="bold" lengthAdjust="spacing" textLength="84.6334" x="642.7017" y="250.0128">[for each block]</text><polygon fill="#181818" points="849.0705,275.6659,859.0705,279.6659,849.0705,283.6659,853.0705,279.6659" style="stroke:#181818;stroke-width:1.0;"/><line style="stroke:#181818;stroke-width:1.0;" x1="664.6244" x2="855.0705" y1="279.6659" y2="279.6659"/><text fill="#000000" font-family="sans-serif" font-size="13" font-weight="bold" lengthAdjust="spacing" textLength="7.436" x="671.6244" y="273.8569">4</text><text fill="#000000" font-family="sans-serif" font-size="13" lengthAdjust="spacing" textLength="166.0101" x="683.0604" y="273.8569">setHouseBlockCoordinate()</text><polygon fill="#181818" points="675.6244,307.3719,665.6244,311.3719,675.6244,315.3719,671.6244,311.3719" style="stroke:#181818;stroke-width:1.0;"/><line style="stroke:#181818;stroke-width:1.0;stroke-dasharray:2.0,2.0;" x1="669.6244" x2="865.0705" y1="311.3719" y2="311.3719"/><text fill="#000000" font-family="sans-serif" font-size="13" font-weight="bold" lengthAdjust="spacing" textLength="7.436" x="681.6244" y="305.5629">5</text><text fill="#000000" font-family="sans-serif" font-size="13" lengthAdjust="spacing" textLength="25.428" x="693.0604" y="305.5629">true</text><polygon fill="#181818" points="924.1353,346.0779,934.1353,350.0779,924.1353,354.0779,928.1353,350.0779" style="stroke:#181818;stroke-width:1.0;"/><line style="stroke:#181818;stroke-width:1.0;" x1="664.6244" x2="930.1353" y1="350.0779" y2="350.0779"/><text fill="#000000" font-family="sans-serif" font-size="13" font-weight="bold" lengthAdjust="spacing" textLength="7.436" x="671.6244" y="344.2689">6</text><text fill="#000000" font-family="sans-serif" font-size="13" lengthAdjust="spacing" textLength="70.1611" x="683.0604" y="344.2689">addBlocks()</text><polygon fill="#181818" points="675.6244,377.784,665.6244,381.784,675.6244,385.784,671.6244,381.784" style="stroke:#181818;stroke-width:1.0;"/><line style="stroke:#181818;stroke-width:1.0;stroke-dasharray:2.0,2.0;" x1="669.6244" x2="940.1353" y1="381.784" y2="381.784"/><text fill="#000000" font-family="sans-serif" font-size="13" font-weight="bold" lengthAdjust="spacing" textLength="7.436" x="681.6244" y="375.975">7</text><text fill="#000000" font-family="sans-serif" font-size="13" lengthAdjust="spacing" textLength="25.428" x="693.0604" y="375.975">true</text><polygon fill="#181818" points="254.8001,409.49,244.8001,413.49,254.8001,417.49,250.8001,413.49" style="stroke:#181818;stroke-width:1.0;"/><line style="stroke:#181818;stroke-width:1.0;stroke-dasharray:2.0,2.0;" x1="248.8001" x2="658.6244" y1="413.49" y2="413.49"/><text fill="#000000" font-family="sans-serif" font-size="13" font-weight="bold" lengthAdjust="spacing" textLength="7.436" x="260.8001" y="407.681">8</text><text fill="#000000" font-family="sans-serif" font-size="13" lengthAdjust="spacing" textLength="25.428" x="272.2361" y="407.681">true</text><!--SRC=[bPB1ReCm38RlUGeVEucgznucTTsaxLpj0Tp4fH4XPadOnDil15O2AfLsYd3o-__yOrzfsw336cgsBA-EQuBWMXB-TjEWhB2aK-WCWICPq9OcV-2lgFX7sn8kQ3m9R0FRjZwJ4oBe45MdpWUguKHVBLb9yAgnZCez7BpNfOLtRZt1Ys5PUI5G1dRmfdGyHBG8Mke6RO23KaSTki-FPJNf1_cHRN1i3CsbqujPkM-N3FKt1lhplFd0zdcimHxGLw0lyKZ8v-G6DTeMZUc4ebkN2NFKnYvJopruCZ553ntvdMLnHpS3M9il8VKimyLcGDdrwHSGyn_AHKHi2f2ntP7PAMsZbN-QkTwFJnZc1YwHFuvs7GOMgp0HTBf8GuRfUtBUPCxPFycasySZf-NCmiwQa5NY8M2VQP-QKcDa6KpQXFJWdm19kEww-FTBzMhwT_SfAuwh-Wi0]--></g></svg>