<svg xmlns="http://www.w3.org/2000/svg" xmlns:xlink="http://www.w3.org/1999/xlink" contentStyleType="text/css" height="766px" preserveAspectRatio="none" style="width:929px;height:766px;background:#FFFFFF;" version="1.1" viewBox="0 0 929 766" width="929px" zoomAndPan="magnify"><title>System Sequence Diagram: Show Available Maps</title><defs/><g><text fill="#000000" font-family="sans-serif" font-size="14" font-weight="bold" lengthAdjust="spacing" textLength="339.1767" x="294.0457" y="29.9659">System Sequence Diagram: Show Available Maps</text><rect fill="#FFFFFF" height="531.0023" style="stroke:#181818;stroke-width:1.0;" width="10" x="22.6559" y="134.1358"/><rect fill="#FFFFFF" height="507.2963" style="stroke:#181818;stroke-width:1.0;" width="10" x="198.547" y="157.8419"/><rect fill="#FFFFFF" height="443.8842" style="stroke:#181818;stroke-width:1.0;" width="10" x="359.9951" y="189.5479"/><rect fill="#FFFFFF" height="31.706" style="stroke:#181818;stroke-width:1.0;" width="10" x="508.5263" y="443.196"/><rect fill="#FFFFFF" height="31.706" style="stroke:#181818;stroke-width:1.0;" width="10" x="508.5263" y="506.608"/><rect fill="#FFFFFF" height="31.706" style="stroke:#181818;stroke-width:1.0;" width="10" x="623.0919" y="570.0201"/><rect fill="#FFFFFF" height="31.706" style="stroke:#181818;stroke-width:1.0;" width="10" x="747.0936" y="221.2539"/><rect fill="#FFFFFF" height="31.706" style="stroke:#181818;stroke-width:1.0;" width="10" x="747.0936" y="284.6659"/><rect fill="#FFFFFF" height="31.706" style="stroke:#181818;stroke-width:1.0;" width="10" x="747.0936" y="348.0779"/><line style="stroke:#181818;stroke-width:0.5;stroke-dasharray:5.0,5.0;" x1="27" x2="27" y1="124.1358" y2="683.1381"/><line style="stroke:#181818;stroke-width:0.5;stroke-dasharray:5.0,5.0;" x1="202.6472" x2="202.6472" y1="124.1358" y2="683.1381"/><line style="stroke:#181818;stroke-width:0.5;stroke-dasharray:5.0,5.0;" x1="364.4964" x2="364.4964" y1="124.1358" y2="683.1381"/><line style="stroke:#181818;stroke-width:0.5;stroke-dasharray:5.0,5.0;" x1="512.7654" x2="512.7654" y1="124.1358" y2="683.1381"/><line style="stroke:#181818;stroke-width:0.5;stroke-dasharray:5.0,5.0;" x1="627.2871" x2="627.2871" y1="124.1358" y2="683.1381"/><line style="stroke:#181818;stroke-width:0.5;stroke-dasharray:5.0,5.0;" x1="751.8967" x2="751.8967" y1="124.1358" y2="683.1381"/><line style="stroke:#181818;stroke-width:0.5;stroke-dasharray:5.0,5.0;" x1="870.2904" x2="870.2904" y1="124.1358" y2="683.1381"/><text fill="#000000" font-family="sans-serif" font-size="14" lengthAdjust="spacing" textLength="39.3119" x="5" y="120.0339">Editor</text><ellipse cx="27.6559" cy="53.5679" fill="#E3E3E3" rx="8" ry="8" style="stroke:#181818;stroke-width:0.5;"/><path d="M27.6559,61.5679 L27.6559,88.5679 M14.6559,69.5679 L40.6559,69.5679 M27.6559,88.5679 L14.6559,103.5679 M27.6559,88.5679 L40.6559,103.5679 " fill="none" style="stroke:#181818;stroke-width:0.5;"/><text fill="#000000" font-family="sans-serif" font-size="14" lengthAdjust="spacing" textLength="39.3119" x="5" y="697.104">Editor</text><ellipse cx="27.6559" cy="709.706" fill="#E3E3E3" rx="8" ry="8" style="stroke:#181818;stroke-width:0.5;"/><path d="M27.6559,717.706 L27.6559,744.706 M14.6559,725.706 L40.6559,725.706 M27.6559,744.706 L14.6559,759.706 M27.6559,744.706 L40.6559,759.706 " fill="none" style="stroke:#181818;stroke-width:0.5;"/><rect fill="#E3E3E3" height="33.0679" rx="2.5" ry="2.5" style="stroke:#181818;stroke-width:0.5;" width="79.7998" x="163.6472" y="90.0679"/><text fill="#000000" font-family="sans-serif" font-size="14" lengthAdjust="spacing" textLength="65.7998" x="170.6472" y="112.0339">AddCityUI</text><rect fill="#E3E3E3" height="33.0679" rx="2.5" ry="2.5" style="stroke:#181818;stroke-width:0.5;" width="79.7998" x="163.6472" y="682.1381"/><text fill="#000000" font-family="sans-serif" font-size="14" lengthAdjust="spacing" textLength="65.7998" x="170.6472" y="704.104">AddCityUI</text><rect fill="#E3E3E3" height="33.0679" rx="2.5" ry="2.5" style="stroke:#181818;stroke-width:0.5;" width="130.9976" x="299.4964" y="90.0679"/><text fill="#000000" font-family="sans-serif" font-size="14" lengthAdjust="spacing" textLength="116.9976" x="306.4964" y="112.0339">AddCityController</text><rect fill="#E3E3E3" height="33.0679" rx="2.5" ry="2.5" style="stroke:#181818;stroke-width:0.5;" width="130.9976" x="299.4964" y="682.1381"/><text fill="#000000" font-family="sans-serif" font-size="14" lengthAdjust="spacing" textLength="116.9976" x="306.4964" y="704.104">AddCityController</text><rect fill="#E3E3E3" height="33.0679" rx="2.5" ry="2.5" style="stroke:#181818;stroke-width:0.5;" width="95.5217" x="465.7654" y="90.0679"/><text fill="#000000" font-family="sans-serif" font-size="14" lengthAdjust="spacing" textLength="81.5217" x="472.7654" y="112.0339">Repositories</text><rect fill="#E3E3E3" height="33.0679" rx="2.5" ry="2.5" style="stroke:#181818;stroke-width:0.5;" width="95.5217" x="465.7654" y="682.1381"/><text fill="#000000" font-family="sans-serif" font-size="14" lengthAdjust="spacing" textLength="81.5217" x="472.7654" y="704.104">Repositories</text><rect fill="#E3E3E3" height="33.0679" rx="2.5" ry="2.5" style="stroke:#181818;stroke-width:0.5;" width="113.6096" x="571.2871" y="90.0679"/><text fill="#000000" font-family="sans-serif" font-size="14" lengthAdjust="spacing" textLength="99.6096" x="578.2871" y="112.0339">MapRepository</text><rect fill="#E3E3E3" height="33.0679" rx="2.5" ry="2.5" style="stroke:#181818;stroke-width:0.5;" width="113.6096" x="571.2871" y="682.1381"/><text fill="#000000" font-family="sans-serif" font-size="14" lengthAdjust="spacing" textLength="99.6096" x="578.2871" y="704.104">MapRepository</text><rect fill="#E3E3E3" height="33.0679" rx="2.5" ry="2.5" style="stroke:#181818;stroke-width:0.5;" width="114.3936" x="694.8967" y="90.0679"/><text fill="#000000" font-family="sans-serif" font-size="14" lengthAdjust="spacing" textLength="100.3936" x="701.8967" y="112.0339">CurrentSession</text><rect fill="#E3E3E3" height="33.0679" rx="2.5" ry="2.5" style="stroke:#181818;stroke-width:0.5;" width="114.3936" x="694.8967" y="682.1381"/><text fill="#000000" font-family="sans-serif" font-size="14" lengthAdjust="spacing" textLength="100.3936" x="701.8967" y="704.104">CurrentSession</text><rect fill="#E3E3E3" height="33.0679" rx="2.5" ry="2.5" style="stroke:#181818;stroke-width:0.5;" width="103.9777" x="819.2904" y="90.0679"/><text fill="#000000" font-family="sans-serif" font-size="14" lengthAdjust="spacing" textLength="89.9777" x="826.2904" y="112.0339">CurrentEditor</text><rect fill="#E3E3E3" height="33.0679" rx="2.5" ry="2.5" style="stroke:#181818;stroke-width:0.5;" width="103.9777" x="819.2904" y="682.1381"/><text fill="#000000" font-family="sans-serif" font-size="14" lengthAdjust="spacing" textLength="89.9777" x="826.2904" y="704.104">CurrentEditor</text><rect fill="#FFFFFF" height="531.0023" style="stroke:#181818;stroke-width:1.0;" width="10" x="22.6559" y="134.1358"/><rect fill="#FFFFFF" height="507.2963" style="stroke:#181818;stroke-width:1.0;" width="10" x="198.547" y="157.8419"/><rect fill="#FFFFFF" height="443.8842" style="stroke:#181818;stroke-width:1.0;" width="10" x="359.9951" y="189.5479"/><rect fill="#FFFFFF" height="31.706" style="stroke:#181818;stroke-width:1.0;" width="10" x="508.5263" y="443.196"/><rect fill="#FFFFFF" height="31.706" style="stroke:#181818;stroke-width:1.0;" width="10" x="508.5263" y="506.608"/><rect fill="#FFFFFF" height="31.706" style="stroke:#181818;stroke-width:1.0;" width="10" x="623.0919" y="570.0201"/><rect fill="#FFFFFF" height="31.706" style="stroke:#181818;stroke-width:1.0;" width="10" x="747.0936" y="221.2539"/><rect fill="#FFFFFF" height="31.706" style="stroke:#181818;stroke-width:1.0;" width="10" x="747.0936" y="284.6659"/><rect fill="#FFFFFF" height="31.706" style="stroke:#181818;stroke-width:1.0;" width="10" x="747.0936" y="348.0779"/><polygon fill="#181818" points="186.547,153.8419,196.547,157.8419,186.547,161.8419,190.547,157.8419" style="stroke:#181818;stroke-width:1.0;"/><line style="stroke:#181818;stroke-width:1.0;" x1="32.6559" x2="192.547" y1="157.8419" y2="157.8419"/><text fill="#000000" font-family="sans-serif" font-size="13" font-weight="bold" lengthAdjust="spacing" textLength="7.436" x="39.6559" y="152.0328">1</text><text fill="#000000" font-family="sans-serif" font-size="13" lengthAdjust="spacing" textLength="104.2601" x="51.0919" y="152.0328">asks to add a city</text><polygon fill="#181818" points="347.9951,185.5479,357.9951,189.5479,347.9951,193.5479,351.9951,189.5479" style="stroke:#181818;stroke-width:1.0;"/><line style="stroke:#181818;stroke-width:1.0;stroke-dasharray:2.0,2.0;" x1="208.547" x2="353.9951" y1="189.5479" y2="189.5479"/><text fill="#000000" font-family="sans-serif" font-size="13" font-weight="bold" lengthAdjust="spacing" textLength="7.436" x="215.547" y="183.7389">2</text><text fill="#000000" font-family="sans-serif" font-size="13" lengthAdjust="spacing" textLength="46.059" x="226.983" y="183.7389">create()</text><polygon fill="#181818" points="735.0936,217.2539,745.0936,221.2539,735.0936,225.2539,739.0936,221.2539" style="stroke:#181818;stroke-width:1.0;"/><line style="stroke:#181818;stroke-width:1.0;" x1="369.9951" x2="741.0936" y1="221.2539" y2="221.2539"/><text fill="#000000" font-family="sans-serif" font-size="13" font-weight="bold" lengthAdjust="spacing" textLength="7.436" x="376.9951" y="215.4449">3</text><text fill="#000000" font-family="sans-serif" font-size="13" lengthAdjust="spacing" textLength="80.0801" x="388.4312" y="215.4449">getInstance()</text><polygon fill="#181818" points="380.9951,248.9599,370.9951,252.9599,380.9951,256.9599,376.9951,252.9599" style="stroke:#181818;stroke-width:1.0;"/><line style="stroke:#181818;stroke-width:1.0;stroke-dasharray:2.0,2.0;" x1="374.9951" x2="751.0936" y1="252.9599" y2="252.9599"/><text fill="#000000" font-family="sans-serif" font-size="13" font-weight="bold" lengthAdjust="spacing" textLength="7.436" x="386.9951" y="247.1509">4</text><text fill="#000000" font-family="sans-serif" font-size="13" lengthAdjust="spacing" textLength="69.4591" x="398.4312" y="247.1509">appSession</text><polygon fill="#181818" points="735.0936,280.6659,745.0936,284.6659,735.0936,288.6659,739.0936,284.6659" style="stroke:#181818;stroke-width:1.0;"/><line style="stroke:#181818;stroke-width:1.0;" x1="369.9951" x2="741.0936" y1="284.6659" y2="284.6659"/><text fill="#000000" font-family="sans-serif" font-size="13" font-weight="bold" lengthAdjust="spacing" textLength="7.436" x="376.9951" y="278.8569">5</text><text fill="#000000" font-family="sans-serif" font-size="13" lengthAdjust="spacing" textLength="121.0431" x="388.4312" y="278.8569">getCurrentSession()</text><polygon fill="#181818" points="380.9951,312.3719,370.9951,316.3719,380.9951,320.3719,376.9951,316.3719" style="stroke:#181818;stroke-width:1.0;"/><line style="stroke:#181818;stroke-width:1.0;stroke-dasharray:2.0,2.0;" x1="374.9951" x2="751.0936" y1="316.3719" y2="316.3719"/><text fill="#000000" font-family="sans-serif" font-size="13" font-weight="bold" lengthAdjust="spacing" textLength="7.436" x="386.9951" y="310.5629">6</text><text fill="#000000" font-family="sans-serif" font-size="13" lengthAdjust="spacing" textLength="91.2471" x="398.4312" y="310.5629">currentSession</text><polygon fill="#181818" points="735.0936,344.0779,745.0936,348.0779,735.0936,352.0779,739.0936,348.0779" style="stroke:#181818;stroke-width:1.0;"/><line style="stroke:#181818;stroke-width:1.0;" x1="369.9951" x2="741.0936" y1="348.0779" y2="348.0779"/><text fill="#000000" font-family="sans-serif" font-size="13" font-weight="bold" lengthAdjust="spacing" textLength="7.436" x="376.9951" y="342.2689">7</text><text fill="#000000" font-family="sans-serif" font-size="13" lengthAdjust="spacing" textLength="64.3241" x="388.4312" y="342.2689">getEditor()</text><polygon fill="#181818" points="380.9951,375.784,370.9951,379.784,380.9951,383.784,376.9951,379.784" style="stroke:#181818;stroke-width:1.0;"/><line style="stroke:#181818;stroke-width:1.0;stroke-dasharray:2.0,2.0;" x1="374.9951" x2="751.0936" y1="379.784" y2="379.784"/><text fill="#000000" font-family="sans-serif" font-size="13" font-weight="bold" lengthAdjust="spacing" textLength="7.436" x="386.9951" y="373.975">8</text><text fill="#000000" font-family="sans-serif" font-size="13" lengthAdjust="spacing" textLength="81.5751" x="398.4312" y="373.975">currentEditor</text><polygon fill="#181818" points="347.9951,407.49,357.9951,411.49,347.9951,415.49,351.9951,411.49" style="stroke:#181818;stroke-width:1.0;"/><line style="stroke:#181818;stroke-width:1.0;" x1="208.547" x2="353.9951" y1="411.49" y2="411.49"/><text fill="#000000" font-family="sans-serif" font-size="13" font-weight="bold" lengthAdjust="spacing" textLength="7.436" x="215.547" y="405.681">9</text><text fill="#000000" font-family="sans-serif" font-size="13" lengthAdjust="spacing" textLength="116.0121" x="226.983" y="405.681">getAvailableMaps()</text><polygon fill="#181818" points="496.5263,439.196,506.5263,443.196,496.5263,447.196,500.5263,443.196" style="stroke:#181818;stroke-width:1.0;"/><line style="stroke:#181818;stroke-width:1.0;" x1="369.9951" x2="502.5263" y1="443.196" y2="443.196"/><text fill="#000000" font-family="sans-serif" font-size="13" font-weight="bold" lengthAdjust="spacing" textLength="14.872" x="376.9951" y="437.387">10</text><text fill="#000000" font-family="sans-serif" font-size="13" lengthAdjust="spacing" textLength="80.0801" x="395.8672" y="437.387">getInstance()</text><polygon fill="#181818" points="380.9951,470.902,370.9951,474.902,380.9951,478.902,376.9951,474.902" style="stroke:#181818;stroke-width:1.0;"/><line style="stroke:#181818;stroke-width:1.0;stroke-dasharray:2.0,2.0;" x1="374.9951" x2="512.5263" y1="474.902" y2="474.902"/><text fill="#000000" font-family="sans-serif" font-size="13" font-weight="bold" lengthAdjust="spacing" textLength="14.872" x="386.9951" y="469.093">11</text><text fill="#000000" font-family="sans-serif" font-size="13" lengthAdjust="spacing" textLength="72.9821" x="405.8672" y="469.093">repositories</text><polygon fill="#181818" points="496.5263,502.608,506.5263,506.608,496.5263,510.608,500.5263,506.608" style="stroke:#181818;stroke-width:1.0;"/><line style="stroke:#181818;stroke-width:1.0;" x1="369.9951" x2="502.5263" y1="506.608" y2="506.608"/><text fill="#000000" font-family="sans-serif" font-size="13" font-weight="bold" lengthAdjust="spacing" textLength="14.872" x="376.9951" y="500.799">12</text><text fill="#000000" font-family="sans-serif" font-size="13" lengthAdjust="spacing" textLength="100.6591" x="395.8672" y="500.799">mapRepository()</text><polygon fill="#181818" points="380.9951,534.314,370.9951,538.314,380.9951,542.314,376.9951,538.314" style="stroke:#181818;stroke-width:1.0;"/><line style="stroke:#181818;stroke-width:1.0;stroke-dasharray:2.0,2.0;" x1="374.9951" x2="512.5263" y1="538.314" y2="538.314"/><text fill="#000000" font-family="sans-serif" font-size="13" font-weight="bold" lengthAdjust="spacing" textLength="14.872" x="386.9951" y="532.505">13</text><text fill="#000000" font-family="sans-serif" font-size="13" lengthAdjust="spacing" textLength="92.8591" x="405.8672" y="532.505">mapRepository</text><polygon fill="#181818" points="611.0919,566.0201,621.0919,570.0201,611.0919,574.0201,615.0919,570.0201" style="stroke:#181818;stroke-width:1.0;"/><line style="stroke:#181818;stroke-width:1.0;" x1="369.9951" x2="617.0919" y1="570.0201" y2="570.0201"/><text fill="#000000" font-family="sans-serif" font-size="13" font-weight="bold" lengthAdjust="spacing" textLength="14.872" x="376.9951" y="564.2111">14</text><text fill="#000000" font-family="sans-serif" font-size="13" lengthAdjust="spacing" textLength="61.1261" x="395.8672" y="564.2111">getMaps()</text><polygon fill="#181818" points="380.9951,597.7261,370.9951,601.7261,380.9951,605.7261,376.9951,601.7261" style="stroke:#181818;stroke-width:1.0;"/><line style="stroke:#181818;stroke-width:1.0;stroke-dasharray:2.0,2.0;" x1="374.9951" x2="627.0919" y1="601.7261" y2="601.7261"/><text fill="#000000" font-family="sans-serif" font-size="13" font-weight="bold" lengthAdjust="spacing" textLength="14.872" x="386.9951" y="595.9171">15</text><text fill="#000000" font-family="sans-serif" font-size="13" lengthAdjust="spacing" textLength="54.7561" x="405.8672" y="595.9171">mapsList</text><polygon fill="#181818" points="219.547,629.4321,209.547,633.4321,219.547,637.4321,215.547,633.4321" style="stroke:#181818;stroke-width:1.0;"/><line style="stroke:#181818;stroke-width:1.0;stroke-dasharray:2.0,2.0;" x1="213.547" x2="363.9951" y1="633.4321" y2="633.4321"/><text fill="#000000" font-family="sans-serif" font-size="13" font-weight="bold" lengthAdjust="spacing" textLength="14.872" x="225.547" y="627.6231">16</text><text fill="#000000" font-family="sans-serif" font-size="13" lengthAdjust="spacing" textLength="54.7561" x="244.4191" y="627.6231">mapsList</text><polygon fill="#181818" points="38.6559,661.1381,28.6559,665.1381,38.6559,669.1381,34.6559,665.1381" style="stroke:#181818;stroke-width:1.0;"/><line style="stroke:#181818;stroke-width:1.0;" x1="32.6559" x2="202.547" y1="665.1381" y2="665.1381"/><text fill="#000000" font-family="sans-serif" font-size="13" font-weight="bold" lengthAdjust="spacing" textLength="14.872" x="44.6559" y="659.3291">17</text><text fill="#000000" font-family="sans-serif" font-size="13" lengthAdjust="spacing" textLength="123.0191" x="63.5279" y="659.3291">shows a list of maps</text><!--SRC=[hPJ1Ri8m38RlUGeVjmClm64IOZiWRPTLUm2JcXBH9btYWlhsCwEq2RGJ4vmYnVd_V4viXvsnDNgie7BMwQrt5G7xXbJe8pNg7HQKSLiIUDACjYZZ0s6BkJiOMy06oq0A6tQsgTRabMB3eihQm5H1HjyDMKtmQh0GvHoohJl0Oe-cnBMS-y0wA8MQdOUttCYYv0essjHe6HPvlZJSVgt6TfVEidTbIQdcaseNZaw6GXAGk_fOcqIMZVTaEQCGZBDZeOxjI6hso7I6FIqmUnbGOGuOTW7O0UOv86ZP7eH3IeDYDkY7fCH7UnB9q_ELEafTNGl5BSr8h0hYbGtoaphnkyZyGZR5XNLzLkGqvNKpLxftFvrELGyWFFtomyYwsfa6Kt5jZ5i9LTz5noOIkD5qucwOBeEaPnB9L2e-LaIP94wt45LnLzx7b5Zz3ogP3QTtwbwrDqd7HohuWoYycy0nJEepGdCnJCOyhiT0KZ3TL9hBe7Q782Ee53supQ_NY8yCesYpAyyV]--></g></svg>