<svg xmlns="http://www.w3.org/2000/svg" xmlns:xlink="http://www.w3.org/1999/xlink" contentStyleType="text/css" height="508.8px" preserveAspectRatio="none" style="width:1040px;height:508px;background:#FFFFFF;" version="1.1" viewBox="0 0 1040 508" width="1040.8px" zoomAndPan="magnify"><title>Class Diagram: US03 - Add a city</title><defs/><g><text fill="#000000" font-family="sans-serif" font-size="11.2" font-weight="bold" lengthAdjust="spacing" textLength="177.1049" x="426.508" y="19.9727">Class Diagram: US03 - Add a city</text><!--class ApplicationSession--><g id="elem_ApplicationSession"><rect codeLine="12" fill="#F1F1F1" height="84.163" id="ApplicationSession" rx="2" ry="2" style="stroke:#181818;stroke-width:0.4000000000000001;" width="124.3836" x="146" y="64.0543"/><ellipse cx="158" cy="76.8543" fill="#ADD1B2" rx="8.8" ry="8.8" style="stroke:#181818;stroke-width:0.8000000000000002;"/><path d="M157.575,82.3918 Q156.175,82.3918 155.2625,81.8043 Q154.3625,81.2043 153.9125,80.1293 Q153.475,79.0418 153.475,77.6043 Q153.475,75.9793 154,74.8168 Q154.525,73.6543 155.55,73.0293 Q156.575,72.4043 158.075,72.4043 Q158.7875,72.4043 159.325,72.5543 Q159.8625,72.6918 160.4125,72.9668 L159.7625,74.5793 Q159.2625,74.3293 158.825,74.2293 Q158.4,74.1293 158.0125,74.1293 Q157.075,74.1293 156.5125,74.5543 Q155.95,74.9793 155.7125,75.7418 Q155.475,76.5043 155.475,77.5168 Q155.475,79.1293 156.05,79.9043 Q156.625,80.6668 157.9,80.6668 Q158.375,80.6668 158.875,80.5418 Q159.375,80.4168 160.0375,80.1168 L160.0375,81.8918 Q159.45,82.1418 158.8125,82.2668 Q158.1875,82.3918 157.575,82.3918 Z " fill="#000000"/><text fill="#000000" font-family="sans-serif" font-size="11.2" lengthAdjust="spacing" textLength="98.7836" x="169.2" y="81.1999">ApplicationSession</text><line style="stroke:#181818;stroke-width:0.4000000000000001;" x1="146.8" x2="269.5836" y1="89.6543" y2="89.6543"/><line style="stroke:#181818;stroke-width:0.4000000000000001;" x1="146.8" x2="269.5836" y1="96.0543" y2="96.0543"/><text fill="#000000" font-family="sans-serif" font-size="11.2" lengthAdjust="spacing" textLength="109.11" x="150.8" y="111.2271">-ApplicationSession()</text><text fill="#000000" font-family="sans-serif" font-size="11.2" lengthAdjust="spacing" textLength="75.3981" x="150.8" y="126.4814">+getInstance()</text><text fill="#000000" font-family="sans-serif" font-size="11.2" lengthAdjust="spacing" textLength="110.6892" x="150.8" y="141.7357">+getCurrentSession()</text></g><!--class UserSession--><g id="elem_UserSession"><rect codeLine="17" fill="#F1F1F1" height="53.6543" id="UserSession" rx="2" ry="2" style="stroke:#181818;stroke-width:0.4000000000000001;" width="111.9564" x="5.6" y="79.2543"/><ellipse cx="27.5359" cy="92.0543" fill="#ADD1B2" rx="8.8" ry="8.8" style="stroke:#181818;stroke-width:0.8000000000000002;"/><path d="M27.1109,97.5918 Q25.7109,97.5918 24.7984,97.0043 Q23.8984,96.4043 23.4484,95.3293 Q23.0109,94.2418 23.0109,92.8043 Q23.0109,91.1793 23.5359,90.0168 Q24.0609,88.8543 25.0859,88.2293 Q26.1109,87.6043 27.6109,87.6043 Q28.3234,87.6043 28.8609,87.7543 Q29.3984,87.8918 29.9484,88.1668 L29.2984,89.7793 Q28.7984,89.5293 28.3609,89.4293 Q27.9359,89.3293 27.5484,89.3293 Q26.6109,89.3293 26.0484,89.7543 Q25.4859,90.1793 25.2484,90.9418 Q25.0109,91.7043 25.0109,92.7168 Q25.0109,94.3293 25.5859,95.1043 Q26.1609,95.8668 27.4359,95.8668 Q27.9109,95.8668 28.4109,95.7418 Q28.9109,95.6168 29.5734,95.3168 L29.5734,97.0918 Q28.9859,97.3418 28.3484,97.4668 Q27.7234,97.5918 27.1109,97.5918 Z " fill="#000000"/><text fill="#000000" font-family="sans-serif" font-size="11.2" lengthAdjust="spacing" textLength="64.2766" x="40.9439" y="96.3999">UserSession</text><line style="stroke:#181818;stroke-width:0.4000000000000001;" x1="6.4" x2="116.7564" y1="104.8543" y2="104.8543"/><line style="stroke:#181818;stroke-width:0.4000000000000001;" x1="6.4" x2="116.7564" y1="111.2543" y2="111.2543"/><text fill="#000000" font-family="sans-serif" font-size="11.2" lengthAdjust="spacing" textLength="102.3564" x="10.4" y="126.4271">+getCurrentEditor()</text></g><!--class AddCityController--><g id="elem_AddCityController"><rect codeLine="21" fill="#F1F1F1" height="114.6717" id="AddCityController" rx="2" ry="2" style="stroke:#181818;stroke-width:0.4000000000000001;" width="292.5221" x="404.8" y="48.8543"/><ellipse cx="500.862" cy="61.6543" fill="#ADD1B2" rx="8.8" ry="8.8" style="stroke:#181818;stroke-width:0.8000000000000002;"/><path d="M500.437,67.1918 Q499.037,67.1918 498.1245,66.6043 Q497.2245,66.0043 496.7745,64.9293 Q496.337,63.8418 496.337,62.4043 Q496.337,60.7793 496.862,59.6168 Q497.387,58.4543 498.412,57.8293 Q499.437,57.2043 500.937,57.2043 Q501.6495,57.2043 502.187,57.3543 Q502.7245,57.4918 503.2745,57.7668 L502.6245,59.3793 Q502.1245,59.1293 501.687,59.0293 Q501.262,58.9293 500.8745,58.9293 Q499.937,58.9293 499.3745,59.3543 Q498.812,59.7793 498.5745,60.5418 Q498.337,61.3043 498.337,62.3168 Q498.337,63.9293 498.912,64.7043 Q499.487,65.4668 500.762,65.4668 Q501.237,65.4668 501.737,65.3418 Q502.237,65.2168 502.8995,64.9168 L502.8995,66.6918 Q502.312,66.9418 501.6745,67.0668 Q501.0495,67.1918 500.437,67.1918 Z " fill="#000000"/><text fill="#000000" font-family="sans-serif" font-size="11.2" lengthAdjust="spacing" textLength="93.598" x="517.262" y="65.9999">AddCityController</text><line style="stroke:#181818;stroke-width:0.4000000000000001;" x1="405.6" x2="696.5221" y1="74.4543" y2="74.4543"/><line style="stroke:#181818;stroke-width:0.4000000000000001;" x1="405.6" x2="696.5221" y1="80.8543" y2="80.8543"/><text fill="#000000" font-family="sans-serif" font-size="11.2" lengthAdjust="spacing" textLength="169.489" x="409.6" y="96.0271">+getAvailableMaps() : List&lt;Map&gt;</text><text fill="#000000" font-family="sans-serif" font-size="11.2" lengthAdjust="spacing" textLength="208.0056" x="409.6" y="111.2814">+validateName(name : String) : boolean</text><text fill="#000000" font-family="sans-serif" font-size="11.2" lengthAdjust="spacing" textLength="268.5414" x="409.6" y="126.5357">+validateCoordinates(coordinates : Point) : boolean</text><text fill="#000000" font-family="sans-serif" font-size="11.2" lengthAdjust="spacing" textLength="255.3926" x="409.6" y="141.7901">+validateNumberPositive(number : int) : boolean</text><text fill="#000000" font-family="sans-serif" font-size="11.2" lengthAdjust="spacing" textLength="282.9221" x="409.6" y="157.0444">+saveCity(name : String, coordinates : Point) : boolean</text></g><!--class AddHouseBlocksController--><g id="elem_AddHouseBlocksController"><rect codeLine="30" fill="#F1F1F1" height="53.6543" id="AddHouseBlocksController" rx="2" ry="2" style="stroke:#181818;stroke-width:0.4000000000000001;" width="535.7854" x="69.6" y="264.4543"/><ellipse cx="263.4825" cy="277.2543" fill="#ADD1B2" rx="8.8" ry="8.8" style="stroke:#181818;stroke-width:0.8000000000000002;"/><path d="M263.0575,282.7918 Q261.6575,282.7918 260.745,282.2043 Q259.845,281.6043 259.395,280.5293 Q258.9575,279.4418 258.9575,278.0043 Q258.9575,276.3793 259.4825,275.2168 Q260.0075,274.0543 261.0325,273.4293 Q262.0575,272.8043 263.5575,272.8043 Q264.27,272.8043 264.8075,272.9543 Q265.345,273.0918 265.895,273.3668 L265.245,274.9793 Q264.745,274.7293 264.3075,274.6293 Q263.8825,274.5293 263.495,274.5293 Q262.5575,274.5293 261.995,274.9543 Q261.4325,275.3793 261.195,276.1418 Q260.9575,276.9043 260.9575,277.9168 Q260.9575,279.5293 261.5325,280.3043 Q262.1075,281.0668 263.3825,281.0668 Q263.8575,281.0668 264.3575,280.9418 Q264.8575,280.8168 265.52,280.5168 L265.52,282.2918 Q264.9325,282.5418 264.295,282.6668 Q263.67,282.7918 263.0575,282.7918 Z " fill="#000000"/><text fill="#000000" font-family="sans-serif" font-size="11.2" lengthAdjust="spacing" textLength="141.2203" x="279.8825" y="281.5999">AddHouseBlocksController</text><line style="stroke:#181818;stroke-width:0.4000000000000001;" x1="70.4" x2="604.5854" y1="290.0543" y2="290.0543"/><line style="stroke:#181818;stroke-width:0.4000000000000001;" x1="70.4" x2="604.5854" y1="296.4543" y2="296.4543"/><text fill="#000000" font-family="sans-serif" font-size="11.2" lengthAdjust="spacing" textLength="526.1854" x="74.4" y="311.6271">+assignBlocks(manualMode : boolean, numBlocks : int, map : Map, cityCoordinates : Point) : boolean</text></g><!--class Repositories--><g id="elem_Repositories"><rect codeLine="35" fill="#F1F1F1" height="84.163" id="Repositories" rx="2" ry="2" style="stroke:#181818;stroke-width:0.4000000000000001;" width="181.721" x="854" y="64.0543"/><ellipse cx="908.8518" cy="76.8543" fill="#ADD1B2" rx="8.8" ry="8.8" style="stroke:#181818;stroke-width:0.8000000000000002;"/><path d="M908.4268,82.3918 Q907.0268,82.3918 906.1143,81.8043 Q905.2143,81.2043 904.7643,80.1293 Q904.3268,79.0418 904.3268,77.6043 Q904.3268,75.9793 904.8518,74.8168 Q905.3768,73.6543 906.4018,73.0293 Q907.4268,72.4043 908.9268,72.4043 Q909.6393,72.4043 910.1768,72.5543 Q910.7143,72.6918 911.2643,72.9668 L910.6143,74.5793 Q910.1143,74.3293 909.6768,74.2293 Q909.2518,74.1293 908.8643,74.1293 Q907.9268,74.1293 907.3643,74.5543 Q906.8018,74.9793 906.5643,75.7418 Q906.3268,76.5043 906.3268,77.5168 Q906.3268,79.1293 906.9018,79.9043 Q907.4768,80.6668 908.7518,80.6668 Q909.2268,80.6668 909.7268,80.5418 Q910.2268,80.4168 910.8893,80.1168 L910.8893,81.8918 Q910.3018,82.1418 909.6643,82.2668 Q909.0393,82.3918 908.4268,82.3918 Z " fill="#000000"/><text fill="#000000" font-family="sans-serif" font-size="11.2" lengthAdjust="spacing" textLength="65.2174" x="925.2518" y="81.1999">Repositories</text><line style="stroke:#181818;stroke-width:0.4000000000000001;" x1="854.8" x2="1034.921" y1="89.6543" y2="89.6543"/><text fill="#000000" font-family="sans-serif" font-size="11.2" lengthAdjust="spacing" textLength="172.121" x="858.8" y="104.8271">-mapRepository : MapRepository</text><line style="stroke:#181818;stroke-width:0.4000000000000001;" x1="854.8" x2="1034.921" y1="111.3087" y2="111.3087"/><text fill="#000000" font-family="sans-serif" font-size="11.2" lengthAdjust="spacing" textLength="75.3981" x="858.8" y="126.4814">+getInstance()</text><text fill="#000000" font-family="sans-serif" font-size="11.2" lengthAdjust="spacing" textLength="93.1276" x="858.8" y="141.7357">+mapRepository()</text></g><!--class MapRepository--><g id="elem_MapRepository"><rect codeLine="41" fill="#F1F1F1" height="53.6543" id="MapRepository" rx="2" ry="2" style="stroke:#181818;stroke-width:0.4000000000000001;" width="105.2877" x="892" y="264.4543"/><ellipse cx="904" cy="277.2543" fill="#ADD1B2" rx="8.8" ry="8.8" style="stroke:#181818;stroke-width:0.8000000000000002;"/><path d="M903.575,282.7918 Q902.175,282.7918 901.2625,282.2043 Q900.3625,281.6043 899.9125,280.5293 Q899.475,279.4418 899.475,278.0043 Q899.475,276.3793 900,275.2168 Q900.525,274.0543 901.55,273.4293 Q902.575,272.8043 904.075,272.8043 Q904.7875,272.8043 905.325,272.9543 Q905.8625,273.0918 906.4125,273.3668 L905.7625,274.9793 Q905.2625,274.7293 904.825,274.6293 Q904.4,274.5293 904.0125,274.5293 Q903.075,274.5293 902.5125,274.9543 Q901.95,275.3793 901.7125,276.1418 Q901.475,276.9043 901.475,277.9168 Q901.475,279.5293 902.05,280.3043 Q902.625,281.0668 903.9,281.0668 Q904.375,281.0668 904.875,280.9418 Q905.375,280.8168 906.0375,280.5168 L906.0375,282.2918 Q905.45,282.5418 904.8125,282.6668 Q904.1875,282.7918 903.575,282.7918 Z " fill="#000000"/><text fill="#000000" font-family="sans-serif" font-size="11.2" lengthAdjust="spacing" textLength="79.6877" x="915.2" y="281.5999">MapRepository</text><line style="stroke:#181818;stroke-width:0.4000000000000001;" x1="892.8" x2="996.4877" y1="290.0543" y2="290.0543"/><line style="stroke:#181818;stroke-width:0.4000000000000001;" x1="892.8" x2="996.4877" y1="296.4543" y2="296.4543"/><text fill="#000000" font-family="sans-serif" font-size="11.2" lengthAdjust="spacing" textLength="59.0686" x="896.8" y="311.6271">+getMaps()</text></g><!--class City--><g id="elem_City"><rect codeLine="46" fill="#F1F1F1" height="129.926" id="City" rx="2" ry="2" style="stroke:#181818;stroke-width:0.4000000000000001;" width="178.0473" x="634" y="226.4543"/><ellipse cx="709.7621" cy="239.2543" fill="#ADD1B2" rx="8.8" ry="8.8" style="stroke:#181818;stroke-width:0.8000000000000002;"/><path d="M709.3371,244.7918 Q707.9371,244.7918 707.0246,244.2043 Q706.1246,243.6043 705.6746,242.5293 Q705.2371,241.4418 705.2371,240.0043 Q705.2371,238.3793 705.7621,237.2168 Q706.2871,236.0543 707.3121,235.4293 Q708.3371,234.8043 709.8371,234.8043 Q710.5496,234.8043 711.0871,234.9543 Q711.6246,235.0918 712.1746,235.3668 L711.5246,236.9793 Q711.0246,236.7293 710.5871,236.6293 Q710.1621,236.5293 709.7746,236.5293 Q708.8371,236.5293 708.2746,236.9543 Q707.7121,237.3793 707.4746,238.1418 Q707.2371,238.9043 707.2371,239.9168 Q707.2371,241.5293 707.8121,242.3043 Q708.3871,243.0668 709.6621,243.0668 Q710.1371,243.0668 710.6371,242.9418 Q711.1371,242.8168 711.7996,242.5168 L711.7996,244.2918 Q711.2121,244.5418 710.5746,244.6668 Q709.9496,244.7918 709.3371,244.7918 Z " fill="#000000"/><text fill="#000000" font-family="sans-serif" font-size="11.2" lengthAdjust="spacing" textLength="19.7231" x="726.1621" y="243.5999">City</text><line style="stroke:#181818;stroke-width:0.4000000000000001;" x1="634.8" x2="811.2473" y1="252.0543" y2="252.0543"/><text fill="#000000" font-family="sans-serif" font-size="11.2" lengthAdjust="spacing" textLength="71.0301" x="638.8" y="267.2271">-name: String</text><text fill="#000000" font-family="sans-serif" font-size="11.2" lengthAdjust="spacing" textLength="60.6254" x="638.8" y="282.4814">-xAxis: float</text><text fill="#000000" font-family="sans-serif" font-size="11.2" lengthAdjust="spacing" textLength="60.4126" x="638.8" y="297.7357">-yAxis: float</text><text fill="#000000" font-family="sans-serif" font-size="11.2" lengthAdjust="spacing" textLength="168.4473" x="638.8" y="312.9901">-houseBlocks: List&lt;HouseBlock&gt;</text><line style="stroke:#181818;stroke-width:0.4000000000000001;" x1="634.8" x2="811.2473" y1="319.4717" y2="319.4717"/><text fill="#000000" font-family="sans-serif" font-size="11.2" lengthAdjust="spacing" textLength="128.5643" x="638.8" y="334.6444">+City(name , coordinate)</text><text fill="#000000" font-family="sans-serif" font-size="11.2" lengthAdjust="spacing" textLength="100.1276" x="638.8" y="349.8987">+addBlocks(blocks)</text></g><!--class Map--><g id="elem_Map"><rect codeLine="55" fill="#F1F1F1" height="84.163" id="Map" rx="2" ry="2" style="stroke:#181818;stroke-width:0.4000000000000001;" width="99.614" x="726" y="64.0543"/><ellipse cx="760.808" cy="76.8543" fill="#ADD1B2" rx="8.8" ry="8.8" style="stroke:#181818;stroke-width:0.8000000000000002;"/><path d="M760.383,82.3918 Q758.983,82.3918 758.0705,81.8043 Q757.1705,81.2043 756.7205,80.1293 Q756.283,79.0418 756.283,77.6043 Q756.283,75.9793 756.808,74.8168 Q757.333,73.6543 758.358,73.0293 Q759.383,72.4043 760.883,72.4043 Q761.5955,72.4043 762.133,72.5543 Q762.6705,72.6918 763.2205,72.9668 L762.5705,74.5793 Q762.0705,74.3293 761.633,74.2293 Q761.208,74.1293 760.8205,74.1293 Q759.883,74.1293 759.3205,74.5543 Q758.758,74.9793 758.5205,75.7418 Q758.283,76.5043 758.283,77.5168 Q758.283,79.1293 758.858,79.9043 Q759.433,80.6668 760.708,80.6668 Q761.183,80.6668 761.683,80.5418 Q762.183,80.4168 762.8455,80.1168 L762.8455,81.8918 Q762.258,82.1418 761.6205,82.2668 Q760.9955,82.3918 760.383,82.3918 Z " fill="#000000"/><text fill="#000000" font-family="sans-serif" font-size="11.2" lengthAdjust="spacing" textLength="23.3295" x="777.0765" y="81.1999">Map</text><line style="stroke:#181818;stroke-width:0.4000000000000001;" x1="726.8" x2="824.814" y1="89.6543" y2="89.6543"/><text fill="#000000" font-family="sans-serif" font-size="11.2" lengthAdjust="spacing" textLength="73.9421" x="730.8" y="104.8271">-name : String</text><text fill="#000000" font-family="sans-serif" font-size="11.2" lengthAdjust="spacing" textLength="90.014" x="730.8" y="120.0814">-cities : List&lt;City&gt;</text><line style="stroke:#181818;stroke-width:0.4000000000000001;" x1="726.8" x2="824.814" y1="126.563" y2="126.563"/><text fill="#000000" font-family="sans-serif" font-size="11.2" lengthAdjust="spacing" textLength="70.9293" x="730.8" y="141.7357">+addCity(city)</text></g><!--class HouseBlock--><g id="elem_HouseBlock"><rect codeLine="61" fill="#F1F1F1" height="84.163" id="HouseBlock" rx="2" ry="2" style="stroke:#181818;stroke-width:0.4000000000000001;" width="221.2904" x="419.6" y="419.2543"/><ellipse cx="495.8549" cy="432.0543" fill="#ADD1B2" rx="8.8" ry="8.8" style="stroke:#181818;stroke-width:0.8000000000000002;"/><path d="M495.4299,437.5918 Q494.0299,437.5918 493.1174,437.0043 Q492.2174,436.4043 491.7674,435.3293 Q491.3299,434.2418 491.3299,432.8043 Q491.3299,431.1793 491.8549,430.0168 Q492.3799,428.8543 493.4049,428.2293 Q494.4299,427.6043 495.9299,427.6043 Q496.6424,427.6043 497.1799,427.7543 Q497.7174,427.8918 498.2674,428.1668 L497.6174,429.7793 Q497.1174,429.5293 496.6799,429.4293 Q496.2549,429.3293 495.8674,429.3293 Q494.9299,429.3293 494.3674,429.7543 Q493.8049,430.1793 493.5674,430.9418 Q493.3299,431.7043 493.3299,432.7168 Q493.3299,434.3293 493.9049,435.1043 Q494.4799,435.8668 495.7549,435.8668 Q496.2299,435.8668 496.7299,435.7418 Q497.2299,435.6168 497.8924,435.3168 L497.8924,437.0918 Q497.3049,437.3418 496.6674,437.4668 Q496.0424,437.5918 495.4299,437.5918 Z " fill="#000000"/><text fill="#000000" font-family="sans-serif" font-size="11.2" lengthAdjust="spacing" textLength="61.9806" x="512.2549" y="436.3999">HouseBlock</text><line style="stroke:#181818;stroke-width:0.4000000000000001;" x1="420.4" x2="640.0904" y1="444.8543" y2="444.8543"/><text fill="#000000" font-family="sans-serif" font-size="11.2" lengthAdjust="spacing" textLength="60.6254" x="424.4" y="460.0271">-xAxis: float</text><text fill="#000000" font-family="sans-serif" font-size="11.2" lengthAdjust="spacing" textLength="60.4126" x="424.4" y="475.2814">-yAxis: float</text><line style="stroke:#181818;stroke-width:0.4000000000000001;" x1="420.4" x2="640.0904" y1="481.763" y2="481.763"/><text fill="#000000" font-family="sans-serif" font-size="11.2" lengthAdjust="spacing" textLength="211.6904" x="424.4" y="496.9357">+setHouseBlockCoordinate(coordinates)</text></g><!--class AddCityUI--><g id="elem_AddCityUI"><rect codeLine="68" fill="#F1F1F1" height="53.6543" id="AddCityUI" rx="2" ry="2" style="stroke:#181818;stroke-width:0.4000000000000001;" width="78.2398" x="298.4" y="79.2543"/><ellipse cx="310.4" cy="92.0543" fill="#ADD1B2" rx="8.8" ry="8.8" style="stroke:#181818;stroke-width:0.8000000000000002;"/><path d="M309.975,97.5918 Q308.575,97.5918 307.6625,97.0043 Q306.7625,96.4043 306.3125,95.3293 Q305.875,94.2418 305.875,92.8043 Q305.875,91.1793 306.4,90.0168 Q306.925,88.8543 307.95,88.2293 Q308.975,87.6043 310.475,87.6043 Q311.1875,87.6043 311.725,87.7543 Q312.2625,87.8918 312.8125,88.1668 L312.1625,89.7793 Q311.6625,89.5293 311.225,89.4293 Q310.8,89.3293 310.4125,89.3293 Q309.475,89.3293 308.9125,89.7543 Q308.35,90.1793 308.1125,90.9418 Q307.875,91.7043 307.875,92.7168 Q307.875,94.3293 308.45,95.1043 Q309.025,95.8668 310.3,95.8668 Q310.775,95.8668 311.275,95.7418 Q311.775,95.6168 312.4375,95.3168 L312.4375,97.0918 Q311.85,97.3418 311.2125,97.4668 Q310.5875,97.5918 309.975,97.5918 Z " fill="#000000"/><text fill="#000000" font-family="sans-serif" font-size="11.2" lengthAdjust="spacing" textLength="52.6398" x="321.6" y="96.3999">AddCityUI</text><line style="stroke:#181818;stroke-width:0.4000000000000001;" x1="299.2" x2="375.8398" y1="104.8543" y2="104.8543"/><line style="stroke:#181818;stroke-width:0.4000000000000001;" x1="299.2" x2="375.8398" y1="111.2543" y2="111.2543"/><text fill="#000000" font-family="sans-serif" font-size="11.2" lengthAdjust="spacing" textLength="46.0878" x="303.2" y="126.4271">+create()</text></g><!--link UserSession to ApplicationSession--><g id="link_UserSession_ApplicationSession"><path codeLine="73" d="M117.6,106.0543 C125.024,106.0543 131.968,106.0543 141.088,106.0543 " fill="none" id="UserSession-to-ApplicationSession" style="stroke:#181818;stroke-width:0.8000000000000002;stroke-dasharray:7.0,7.0;"/><polygon fill="#181818" points="145.888,106.0543,138.688,102.8543,141.888,106.0543,138.688,109.2543,145.888,106.0543" style="stroke:#181818;stroke-width:0.8000000000000002;"/></g><!--link ApplicationSession to AddCityUI--><g id="link_ApplicationSession_AddCityUI"><path codeLine="74" d="M270.024,106.0543 C281.664,106.0543 294.4,106.0543 294.4,106.0543 C294.4,106.0543 291.12,106.0543 293.584,106.0543 " fill="none" id="ApplicationSession-to-AddCityUI" style="stroke:#181818;stroke-width:0.8000000000000002;stroke-dasharray:7.0,7.0;"/><polygon fill="#181818" points="298.384,106.0543,291.184,102.8543,294.384,106.0543,291.184,109.2543,298.384,106.0543" style="stroke:#181818;stroke-width:0.8000000000000002;"/></g><!--link Repositories to MapRepository--><g id="link_Repositories_MapRepository"><path codeLine="75" d="M944.8,148.0543 C944.8,183.6863 944.8,229.3023 944.8,259.6063 " fill="none" id="Repositories-to-MapRepository" style="stroke:#181818;stroke-width:0.8000000000000002;"/><polygon fill="#181818" points="944.8,264.4063,948,257.2063,944.8,260.4063,941.6,257.2063,944.8,264.4063" style="stroke:#181818;stroke-width:0.8000000000000002;"/><text fill="#000000" font-family="sans-serif" font-size="10.4" lengthAdjust="spacing" textLength="74.2873" x="945.6" y="199.1719">mapRepository</text></g><!--link AddCityController to Repositories--><g id="link_AddCityController_Repositories"><path codeLine="76" d="M695.952,48.7503 C713.848,41.6623 726,36.8543 726,36.8543 C726,36.8543 826,36.8543 826,36.8543 C826,36.8543 843.5884,47.1023 868.4604,61.5903 " fill="none" id="AddCityController-to-Repositories" style="stroke:#181818;stroke-width:0.8000000000000002;stroke-dasharray:7.0,7.0;"/><polygon fill="#181818" points="872.608,64.0063,867.9972,57.6172,869.1516,61.993,864.7759,63.1474,872.608,64.0063" style="stroke:#181818;stroke-width:0.8000000000000002;"/></g><!--link AddCityController to City--><g id="link_AddCityController_City"><path codeLine="77" d="M604.208,163.4383 C622.864,183.3503 640.6785,202.3672 659.8705,222.8552 " fill="none" id="AddCityController-to-City" style="stroke:#181818;stroke-width:0.8000000000000002;stroke-dasharray:7.0,7.0;"/><polygon fill="#181818" points="663.152,226.3583,660.5651,218.916,660.4174,223.4391,655.8943,223.2914,663.152,226.3583" style="stroke:#181818;stroke-width:0.8000000000000002;"/></g><!--link AddCityController to Map--><g id="link_AddCityController_Map"><path codeLine="78" d="M697.656,106.0543 C699.824,106.0543 701.064,106.0543 701.064,106.0543 C701.064,106.0543 707.36,106.0543 721.008,106.0543 " fill="none" id="AddCityController-to-Map" style="stroke:#181818;stroke-width:0.8000000000000002;stroke-dasharray:7.0,7.0;"/><polygon fill="#181818" points="725.808,106.0543,718.608,102.8543,721.808,106.0543,718.608,109.2543,725.808,106.0543" style="stroke:#181818;stroke-width:0.8000000000000002;"/></g><!--link AddHouseBlocksController to HouseBlock--><g id="link_AddHouseBlocksController_HouseBlock"><path codeLine="79" d="M367.512,318.1823 C398.4,345.1583 443.4169,384.4807 479.5129,416.0087 " fill="none" id="AddHouseBlocksController-to-HouseBlock" style="stroke:#181818;stroke-width:0.8000000000000002;stroke-dasharray:7.0,7.0;"/><polygon fill="#181818" points="483.128,419.1663,479.8104,412.0198,480.1154,416.535,475.6002,416.84,483.128,419.1663" style="stroke:#181818;stroke-width:0.8000000000000002;"/></g><!--link AddHouseBlocksController to City--><g id="link_AddHouseBlocksController_City"><path codeLine="80" d="M605.624,291.2543 C612.728,291.2543 617.928,291.2543 629.12,291.2543 " fill="none" id="AddHouseBlocksController-to-City" style="stroke:#181818;stroke-width:0.8000000000000002;stroke-dasharray:7.0,7.0;"/><polygon fill="#181818" points="633.92,291.2543,626.72,288.0543,629.92,291.2543,626.72,294.4543,633.92,291.2543" style="stroke:#181818;stroke-width:0.8000000000000002;"/></g><!--link AddCityUI to AddCityController--><g id="link_AddCityUI_AddCityController"><path codeLine="81" d="M376.952,106.0543 C388.272,106.0543 394.28,106.0543 399.928,106.0543 " fill="none" id="AddCityUI-to-AddCityController" style="stroke:#181818;stroke-width:0.8000000000000002;stroke-dasharray:7.0,7.0;"/><polygon fill="#181818" points="404.728,106.0543,397.528,102.8543,400.728,106.0543,397.528,109.2543,404.728,106.0543" style="stroke:#181818;stroke-width:0.8000000000000002;"/></g><!--link AddCityUI to AddHouseBlocksController--><g id="link_AddCityUI_AddHouseBlocksController"><path codeLine="82" d="M337.6,133.1583 C337.6,168.0623 337.6,224.5183 337.6,259.3983 " fill="none" id="AddCityUI-to-AddHouseBlocksController" style="stroke:#181818;stroke-width:0.8000000000000002;stroke-dasharray:7.0,7.0;"/><polygon fill="#181818" points="337.6,264.1983,340.8,256.9983,337.6,260.1983,334.4,256.9983,337.6,264.1983" style="stroke:#181818;stroke-width:0.8000000000000002;"/></g><!--reverse link Map to City--><g id="link_Map_City"><path codeLine="83" d="M761.4973,157.28 C754.8653,180.328 749.112,200.3423 741.648,226.3183 " fill="none" id="Map-backto-City" style="stroke:#181818;stroke-width:0.8000000000000002;"/><polygon fill="#181818" points="764.152,148.0543,759.7495,151.7823,761.4973,157.28,765.8999,153.552,764.152,148.0543" style="stroke:#181818;stroke-width:0.8000000000000002;"/><text fill="#000000" font-family="sans-serif" font-size="10.4" lengthAdjust="spacing" textLength="41.392" x="752.8" y="199.1719">contains</text><text fill="#000000" font-family="sans-serif" font-size="10.4" lengthAdjust="spacing" textLength="5.9488" x="756.633" y="165.7564">1</text><text fill="#000000" font-family="sans-serif" font-size="10.4" lengthAdjust="spacing" textLength="17.2536" x="725.8441" y="217.01">1..*</text></g><!--reverse link City to HouseBlock--><g id="link_City_HouseBlock"><path codeLine="84" d="M642.531,362.5151 C618.379,383.6191 599.408,400.1823 577.72,419.1183 " fill="none" id="City-backto-HouseBlock" style="stroke:#181818;stroke-width:0.8000000000000002;"/><polygon fill="#181818" points="649.76,356.1983,644.0399,356.947,642.531,362.5151,648.2511,361.7664,649.76,356.1983" style="stroke:#181818;stroke-width:0.8000000000000002;"/><text fill="#000000" font-family="sans-serif" font-size="10.4" lengthAdjust="spacing" textLength="41.392" x="622.4" y="391.9719">contains</text><text fill="#000000" font-family="sans-serif" font-size="10.4" lengthAdjust="spacing" textLength="5.9488" x="637.164" y="373.9409">1</text><text fill="#000000" font-family="sans-serif" font-size="10.4" lengthAdjust="spacing" textLength="17.2536" x="566.4468" y="409.7826">1..*</text></g><!--SRC=[ZLHTJzim57tthxZYPGKQnBIt2bNgogGX3OHMyGFSv99UuTYHxNPq4_zzrqw37Hh6NXBRzzolSu_jJGlUmDfuRngeo6BfoMWXt1FfLbhPG2lB9rdZokyLGh1BNIlC06uZA_EBT0sFKhdSeaYZtxS8hL7xiCbifPBEBRotjDvwl2cDNj5lX4iXF7dEj0nsk2PPCte63wlBBr30egf0Gab-BqIC08ksLLJAKFKAdUCV_140nV7vv9JFpslqDzfn4oM-7YotrgBs2VTo2FxWqEPHC_2tYhon4Vi9RYLfu1QyDKgXxPhh2wog9TUxJDO-qc8dIScrmblPkiafpE07EN_5ktb0xAIYIdgyamrED7yOi6A-T1sWQsCKIfq3byROYZIltAHCQmRV6zB-7Q-xRRD6UsySUTfnehXbwB67apiChGoBcS87kLu4CvIr_sWiRCpM8QoLAPySD5Apm1ecDL7sFG2-HljRvXX1jUvi4_RTIdLhAamPfy1DTFQkZocdQ7d9p4wZU9R_KV5FR0CdnkwxSM8_q5S3iNUeYDN6yJDyp9Jsex8RU4GP7S8FN5-rqacag-pQD55lWwh2O3hbX-dqmmdxvyKpkHayAYDzL-r-U59i4ja73IRwenJJrFDfnpvaLHr6qKrps4cg2FAIU0OKgO_9GlJv8LRC54QKnKd5z7H_rDAvGv-yqhJpQt4Wy-5cxBRoQPVglBGO74zxKQZufBWDjKxapyF5VEGf4YElKm3sISH0IqKnVpFz6Gna8exV4ewMnnX7X9Dn2wSJxzusjYV3Fs5v0gOkjPXWH-RHO29evkJp2PmL1VylBivEEcNFulFAidSYxjzWCebaoBy0]--></g></svg>