<svg xmlns="http://www.w3.org/2000/svg" xmlns:xlink="http://www.w3.org/1999/xlink" contentStyleType="text/css" height="1373px" preserveAspectRatio="none" style="width:1357px;height:1373px;background:#FFFFFF;" version="1.1" viewBox="0 0 1357 1373" width="1357px" zoomAndPan="magnify"><defs/><g><rect fill="#FFFFFF" height="1178.1226" style="stroke:#181818;stroke-width:1.0;" width="10" x="22.6559" y="94.0679"/><rect fill="#FFFFFF" height="221.9421" style="stroke:#181818;stroke-width:1.0;" width="10" x="253.1081" y="117.7739"/><rect fill="#FFFFFF" height="31.706" style="stroke:#181818;stroke-width:1.0;" width="10" x="253.1081" y="371.4221"/><rect fill="#FFFFFF" height="139.8241" style="stroke:#181818;stroke-width:1.0;" width="10" x="253.1081" y="434.8341"/><rect fill="#FFFFFF" height="95.118" style="stroke:#181818;stroke-width:1.0;" width="10" x="253.1081" y="606.3642"/><rect fill="#FFFFFF" height="95.118" style="stroke:#181818;stroke-width:1.0;" width="10" x="253.1081" y="733.1882"/><rect fill="#FFFFFF" height="412.1782" style="stroke:#181818;stroke-width:1.0;" width="10" x="253.1081" y="860.0123"/><rect fill="#FFFFFF" height="158.5301" style="stroke:#181818;stroke-width:1.0;" width="10" x="503.2083" y="149.4799"/><rect fill="#FFFFFF" height="76.412" style="stroke:#181818;stroke-width:1.0;" width="10" x="503.2083" y="466.5401"/><rect fill="#FFFFFF" height="31.706" style="stroke:#181818;stroke-width:1.0;" width="10" x="503.2083" y="638.0702"/><rect fill="#FFFFFF" height="31.706" style="stroke:#181818;stroke-width:1.0;" width="10" x="503.2083" y="764.8943"/><rect fill="#FFFFFF" height="158.5301" style="stroke:#181818;stroke-width:1.0;" width="10" x="503.2083" y="1081.9544"/><rect fill="#FFFFFF" height="63.412" style="stroke:#181818;stroke-width:1.0;" width="10" x="744.8924" y="212.892"/><rect fill="#FFFFFF" height="31.706" style="stroke:#181818;stroke-width:1.0;" width="10" x="885.9875" y="244.598"/><rect fill="#FFFFFF" height="158.5301" style="stroke:#181818;stroke-width:1.0;" width="10" x="1048.055" y="891.7183"/><rect fill="#FFFFFF" height="31.706" style="stroke:#181818;stroke-width:1.0;" width="10" x="1172.6446" y="986.8364"/><rect fill="#FFFFFF" height="31.706" style="stroke:#181818;stroke-width:1.0;" width="10" x="1172.6446" y="1113.6604"/><rect fill="#FFFFFF" height="31.706" style="stroke:#181818;stroke-width:1.0;" width="10" x="1223.5525" y="1177.0725"/><rect fill="#FFFFFF" height="31.706" style="stroke:#181818;stroke-width:1.0;" width="10" x="1300.8713" y="923.4243"/><line style="stroke:#181818;stroke-width:0.5;stroke-dasharray:5.0,5.0;" x1="27" x2="27" y1="84.0679" y2="1290.1905"/><line style="stroke:#181818;stroke-width:0.5;stroke-dasharray:5.0,5.0;" x1="257.2082" x2="257.2082" y1="84.0679" y2="1290.1905"/><line style="stroke:#181818;stroke-width:0.5;stroke-dasharray:5.0,5.0;" x1="507.7095" x2="507.7095" y1="84.0679" y2="1290.1905"/><line style="stroke:#181818;stroke-width:0.5;stroke-dasharray:5.0,5.0;" x1="749.1316" x2="749.1316" y1="84.0679" y2="1290.1905"/><line style="stroke:#181818;stroke-width:0.5;stroke-dasharray:5.0,5.0;" x1="890.1827" x2="890.1827" y1="84.0679" y2="1290.1905"/><line style="stroke:#181818;stroke-width:0.5;stroke-dasharray:5.0,5.0;" x1="1052.7924" x2="1052.7924" y1="84.0679" y2="1290.1905"/><line style="stroke:#181818;stroke-width:0.5;stroke-dasharray:5.0,5.0;" x1="1177.3177" x2="1177.3177" y1="84.0679" y2="1290.1905"/><line style="stroke:#181818;stroke-width:0.5;stroke-dasharray:5.0,5.0;" x1="1227.9716" x2="1227.9716" y1="84.0679" y2="1290.1905"/><line style="stroke:#181818;stroke-width:0.5;stroke-dasharray:5.0,5.0;" x1="1305.1335" x2="1305.1335" y1="84.0679" y2="1290.1905"/><text fill="#000000" font-family="sans-serif" font-size="14" lengthAdjust="spacing" textLength="39.3119" x="5" y="79.9659">Editor</text><ellipse cx="27.6559" cy="13.5" fill="#E3E3E3" rx="8" ry="8" style="stroke:#181818;stroke-width:0.5;"/><path d="M27.6559,21.5 L27.6559,48.5 M14.6559,29.5 L40.6559,29.5 M27.6559,48.5 L14.6559,63.5 M27.6559,48.5 L40.6559,63.5 " fill="none" style="stroke:#181818;stroke-width:0.5;"/><text fill="#000000" font-family="sans-serif" font-size="14" lengthAdjust="spacing" textLength="39.3119" x="5" y="1304.1565">Editor</text><ellipse cx="27.6559" cy="1316.7584" fill="#E3E3E3" rx="8" ry="8" style="stroke:#181818;stroke-width:0.5;"/><path d="M27.6559,1324.7584 L27.6559,1351.7584 M14.6559,1332.7584 L40.6559,1332.7584 M27.6559,1351.7584 L14.6559,1366.7584 M27.6559,1351.7584 L40.6559,1366.7584 " fill="none" style="stroke:#181818;stroke-width:0.5;"/><rect fill="#E3E3E3" height="33.0679" rx="2.5" ry="2.5" style="stroke:#181818;stroke-width:0.5;" width="79.7998" x="218.2082" y="50"/><text fill="#000000" font-family="sans-serif" font-size="14" lengthAdjust="spacing" textLength="65.7998" x="225.2082" y="71.9659">AddCityUI</text><rect fill="#E3E3E3" height="33.0679" rx="2.5" ry="2.5" style="stroke:#181818;stroke-width:0.5;" width="79.7998" x="218.2082" y="1289.1905"/><text fill="#000000" font-family="sans-serif" font-size="14" lengthAdjust="spacing" textLength="65.7998" x="225.2082" y="1311.1565">AddCityUI</text><rect fill="#E3E3E3" height="33.0679" rx="2.5" ry="2.5" style="stroke:#181818;stroke-width:0.5;" width="130.9976" x="442.7095" y="50"/><text fill="#000000" font-family="sans-serif" font-size="14" lengthAdjust="spacing" textLength="116.9976" x="449.7095" y="71.9659">AddCityController</text><rect fill="#E3E3E3" height="33.0679" rx="2.5" ry="2.5" style="stroke:#181818;stroke-width:0.5;" width="130.9976" x="442.7095" y="1289.1905"/><text fill="#000000" font-family="sans-serif" font-size="14" lengthAdjust="spacing" textLength="116.9976" x="449.7095" y="1311.1565">AddCityController</text><rect fill="#E3E3E3" height="33.0679" rx="2.5" ry="2.5" style="stroke:#181818;stroke-width:0.5;" width="95.5217" x="702.1316" y="50"/><text fill="#000000" font-family="sans-serif" font-size="14" lengthAdjust="spacing" textLength="81.5217" x="709.1316" y="71.9659">Repositories</text><rect fill="#E3E3E3" height="33.0679" rx="2.5" ry="2.5" style="stroke:#181818;stroke-width:0.5;" width="95.5217" x="702.1316" y="1289.1905"/><text fill="#000000" font-family="sans-serif" font-size="14" lengthAdjust="spacing" textLength="81.5217" x="709.1316" y="1311.1565">Repositories</text><rect fill="#E3E3E3" height="33.0679" rx="2.5" ry="2.5" style="stroke:#181818;stroke-width:0.5;" width="113.6096" x="834.1827" y="50"/><text fill="#000000" font-family="sans-serif" font-size="14" lengthAdjust="spacing" textLength="99.6096" x="841.1827" y="71.9659">MapRepository</text><rect fill="#E3E3E3" height="33.0679" rx="2.5" ry="2.5" style="stroke:#181818;stroke-width:0.5;" width="113.6096" x="834.1827" y="1289.1905"/><text fill="#000000" font-family="sans-serif" font-size="14" lengthAdjust="spacing" textLength="99.6096" x="841.1827" y="1311.1565">MapRepository</text><rect fill="#E3E3E3" height="33.0679" rx="2.5" ry="2.5" style="stroke:#181818;stroke-width:0.5;" width="190.5253" x="957.7924" y="50"/><text fill="#000000" font-family="sans-serif" font-size="14" lengthAdjust="spacing" textLength="176.5253" x="964.7924" y="71.9659">AddHouseBlocksController</text><rect fill="#E3E3E3" height="33.0679" rx="2.5" ry="2.5" style="stroke:#181818;stroke-width:0.5;" width="190.5253" x="957.7924" y="1289.1905"/><text fill="#000000" font-family="sans-serif" font-size="14" lengthAdjust="spacing" textLength="176.5253" x="964.7924" y="1311.1565">AddHouseBlocksController</text><rect fill="#E3E3E3" height="33.0679" rx="2.5" ry="2.5" style="stroke:#181818;stroke-width:0.5;" width="38.6539" x="1158.3177" y="50"/><text fill="#000000" font-family="sans-serif" font-size="14" lengthAdjust="spacing" textLength="24.6539" x="1165.3177" y="71.9659">City</text><rect fill="#E3E3E3" height="33.0679" rx="2.5" ry="2.5" style="stroke:#181818;stroke-width:0.5;" width="38.6539" x="1158.3177" y="1289.1905"/><text fill="#000000" font-family="sans-serif" font-size="14" lengthAdjust="spacing" textLength="24.6539" x="1165.3177" y="1311.1565">City</text><rect fill="#E3E3E3" height="33.0679" rx="2.5" ry="2.5" style="stroke:#181818;stroke-width:0.5;" width="43.1619" x="1206.9716" y="50"/><text fill="#000000" font-family="sans-serif" font-size="14" lengthAdjust="spacing" textLength="29.1619" x="1213.9716" y="71.9659">Map</text><rect fill="#E3E3E3" height="33.0679" rx="2.5" ry="2.5" style="stroke:#181818;stroke-width:0.5;" width="43.1619" x="1206.9716" y="1289.1905"/><text fill="#000000" font-family="sans-serif" font-size="14" lengthAdjust="spacing" textLength="29.1619" x="1213.9716" y="1311.1565">Map</text><rect fill="#E3E3E3" height="33.0679" rx="2.5" ry="2.5" style="stroke:#181818;stroke-width:0.5;" width="91.4757" x="1260.1335" y="50"/><text fill="#000000" font-family="sans-serif" font-size="14" lengthAdjust="spacing" textLength="77.4757" x="1267.1335" y="71.9659">HouseBlock</text><rect fill="#E3E3E3" height="33.0679" rx="2.5" ry="2.5" style="stroke:#181818;stroke-width:0.5;" width="91.4757" x="1260.1335" y="1289.1905"/><text fill="#000000" font-family="sans-serif" font-size="14" lengthAdjust="spacing" textLength="77.4757" x="1267.1335" y="1311.1565">HouseBlock</text><rect fill="#FFFFFF" height="1178.1226" style="stroke:#181818;stroke-width:1.0;" width="10" x="22.6559" y="94.0679"/><rect fill="#FFFFFF" height="221.9421" style="stroke:#181818;stroke-width:1.0;" width="10" x="253.1081" y="117.7739"/><rect fill="#FFFFFF" height="31.706" style="stroke:#181818;stroke-width:1.0;" width="10" x="253.1081" y="371.4221"/><rect fill="#FFFFFF" height="139.8241" style="stroke:#181818;stroke-width:1.0;" width="10" x="253.1081" y="434.8341"/><rect fill="#FFFFFF" height="95.118" style="stroke:#181818;stroke-width:1.0;" width="10" x="253.1081" y="606.3642"/><rect fill="#FFFFFF" height="95.118" style="stroke:#181818;stroke-width:1.0;" width="10" x="253.1081" y="733.1882"/><rect fill="#FFFFFF" height="412.1782" style="stroke:#181818;stroke-width:1.0;" width="10" x="253.1081" y="860.0123"/><rect fill="#FFFFFF" height="158.5301" style="stroke:#181818;stroke-width:1.0;" width="10" x="503.2083" y="149.4799"/><rect fill="#FFFFFF" height="76.412" style="stroke:#181818;stroke-width:1.0;" width="10" x="503.2083" y="466.5401"/><rect fill="#FFFFFF" height="31.706" style="stroke:#181818;stroke-width:1.0;" width="10" x="503.2083" y="638.0702"/><rect fill="#FFFFFF" height="31.706" style="stroke:#181818;stroke-width:1.0;" width="10" x="503.2083" y="764.8943"/><rect fill="#FFFFFF" height="158.5301" style="stroke:#181818;stroke-width:1.0;" width="10" x="503.2083" y="1081.9544"/><rect fill="#FFFFFF" height="63.412" style="stroke:#181818;stroke-width:1.0;" width="10" x="744.8924" y="212.892"/><rect fill="#FFFFFF" height="31.706" style="stroke:#181818;stroke-width:1.0;" width="10" x="885.9875" y="244.598"/><rect fill="#FFFFFF" height="158.5301" style="stroke:#181818;stroke-width:1.0;" width="10" x="1048.055" y="891.7183"/><rect fill="#FFFFFF" height="31.706" style="stroke:#181818;stroke-width:1.0;" width="10" x="1172.6446" y="986.8364"/><rect fill="#FFFFFF" height="31.706" style="stroke:#181818;stroke-width:1.0;" width="10" x="1172.6446" y="1113.6604"/><rect fill="#FFFFFF" height="31.706" style="stroke:#181818;stroke-width:1.0;" width="10" x="1223.5525" y="1177.0725"/><rect fill="#FFFFFF" height="31.706" style="stroke:#181818;stroke-width:1.0;" width="10" x="1300.8713" y="923.4243"/><polygon fill="#181818" points="241.1081,113.7739,251.1081,117.7739,241.1081,121.7739,245.1081,117.7739" style="stroke:#181818;stroke-width:1.0;"/><line style="stroke:#181818;stroke-width:1.0;" x1="32.6559" x2="247.1081" y1="117.7739" y2="117.7739"/><text fill="#000000" font-family="sans-serif" font-size="13" font-weight="bold" lengthAdjust="spacing" textLength="7.436" x="39.6559" y="111.9649">1</text><text fill="#000000" font-family="sans-serif" font-size="13" lengthAdjust="spacing" textLength="104.2601" x="51.0919" y="111.9649">asks to add a city</text><polygon fill="#181818" points="491.2083,145.4799,501.2083,149.4799,491.2083,153.4799,495.2083,149.4799" style="stroke:#181818;stroke-width:1.0;"/><line style="stroke:#181818;stroke-width:1.0;" x1="263.1081" x2="497.2083" y1="149.4799" y2="149.4799"/><text fill="#000000" font-family="sans-serif" font-size="13" font-weight="bold" lengthAdjust="spacing" textLength="7.436" x="270.1081" y="143.6709">2</text><text fill="#000000" font-family="sans-serif" font-size="13" lengthAdjust="spacing" textLength="46.059" x="281.5441" y="143.6709">create()</text><polygon fill="#181818" points="491.2083,177.186,501.2083,181.186,491.2083,185.186,495.2083,181.186" style="stroke:#181818;stroke-width:1.0;"/><line style="stroke:#181818;stroke-width:1.0;" x1="263.1081" x2="497.2083" y1="181.186" y2="181.186"/><text fill="#000000" font-family="sans-serif" font-size="13" font-weight="bold" lengthAdjust="spacing" textLength="7.436" x="270.1081" y="175.377">3</text><text fill="#000000" font-family="sans-serif" font-size="13" lengthAdjust="spacing" textLength="116.0121" x="281.5441" y="175.377">getAvailableMaps()</text><polygon fill="#181818" points="732.8924,208.892,742.8924,212.892,732.8924,216.892,736.8924,212.892" style="stroke:#181818;stroke-width:1.0;"/><line style="stroke:#181818;stroke-width:1.0;" x1="513.2083" x2="738.8924" y1="212.892" y2="212.892"/><text fill="#000000" font-family="sans-serif" font-size="13" font-weight="bold" lengthAdjust="spacing" textLength="7.436" x="520.2083" y="207.083">4</text><text fill="#000000" font-family="sans-serif" font-size="13" lengthAdjust="spacing" textLength="80.0801" x="531.6443" y="207.083">getInstance()</text><polygon fill="#181818" points="873.9875,240.598,883.9875,244.598,873.9875,248.598,877.9875,244.598" style="stroke:#181818;stroke-width:1.0;"/><line style="stroke:#181818;stroke-width:1.0;" x1="754.8924" x2="879.9875" y1="244.598" y2="244.598"/><text fill="#000000" font-family="sans-serif" font-size="13" font-weight="bold" lengthAdjust="spacing" textLength="7.436" x="761.8924" y="238.789">5</text><text fill="#000000" font-family="sans-serif" font-size="13" lengthAdjust="spacing" textLength="100.6591" x="773.3284" y="238.789">mapRepository()</text><polygon fill="#181818" points="524.2083,272.304,514.2083,276.304,524.2083,280.304,520.2083,276.304" style="stroke:#181818;stroke-width:1.0;"/><line style="stroke:#181818;stroke-width:1.0;" x1="518.2083" x2="889.9875" y1="276.304" y2="276.304"/><text fill="#000000" font-family="sans-serif" font-size="13" font-weight="bold" lengthAdjust="spacing" textLength="7.436" x="530.2083" y="270.495">6</text><text fill="#000000" font-family="sans-serif" font-size="13" lengthAdjust="spacing" textLength="116.0121" x="541.6443" y="270.495">getAvailableMaps()</text><polygon fill="#181818" points="274.1081,304.01,264.1081,308.01,274.1081,312.01,270.1081,308.01" style="stroke:#181818;stroke-width:1.0;"/><line style="stroke:#181818;stroke-width:1.0;" x1="268.1081" x2="507.2083" y1="308.01" y2="308.01"/><text fill="#000000" font-family="sans-serif" font-size="13" font-weight="bold" lengthAdjust="spacing" textLength="7.436" x="280.1081" y="302.201">7</text><text fill="#000000" font-family="sans-serif" font-size="13" lengthAdjust="spacing" textLength="87.1781" x="291.5441" y="302.201">availableMaps</text><polygon fill="#181818" points="43.6559,335.716,33.6559,339.716,43.6559,343.716,39.6559,339.716" style="stroke:#181818;stroke-width:1.0;"/><line style="stroke:#181818;stroke-width:1.0;" x1="37.6559" x2="257.1081" y1="339.716" y2="339.716"/><text fill="#000000" font-family="sans-serif" font-size="13" font-weight="bold" lengthAdjust="spacing" textLength="7.436" x="49.6559" y="333.907">8</text><text fill="#000000" font-family="sans-serif" font-size="13" lengthAdjust="spacing" textLength="123.0191" x="61.0919" y="333.907">shows a list of maps</text><polygon fill="#181818" points="241.1081,367.4221,251.1081,371.4221,241.1081,375.4221,245.1081,371.4221" style="stroke:#181818;stroke-width:1.0;"/><line style="stroke:#181818;stroke-width:1.0;" x1="32.6559" x2="247.1081" y1="371.4221" y2="371.4221"/><text fill="#000000" font-family="sans-serif" font-size="13" font-weight="bold" lengthAdjust="spacing" textLength="7.436" x="39.6559" y="365.6131">9</text><text fill="#000000" font-family="sans-serif" font-size="13" lengthAdjust="spacing" textLength="82.9011" x="51.0919" y="365.6131">selects a map</text><polygon fill="#181818" points="43.6559,399.1281,33.6559,403.1281,43.6559,407.1281,39.6559,403.1281" style="stroke:#181818;stroke-width:1.0;"/><line style="stroke:#181818;stroke-width:1.0;" x1="37.6559" x2="257.1081" y1="403.1281" y2="403.1281"/><text fill="#000000" font-family="sans-serif" font-size="13" font-weight="bold" lengthAdjust="spacing" textLength="14.872" x="49.6559" y="397.3191">10</text><text fill="#000000" font-family="sans-serif" font-size="13" lengthAdjust="spacing" textLength="110.2661" x="68.5279" y="397.3191">asks for city name</text><polygon fill="#181818" points="241.1081,430.8341,251.1081,434.8341,241.1081,438.8341,245.1081,434.8341" style="stroke:#181818;stroke-width:1.0;"/><line style="stroke:#181818;stroke-width:1.0;" x1="32.6559" x2="247.1081" y1="434.8341" y2="434.8341"/><text fill="#000000" font-family="sans-serif" font-size="13" font-weight="bold" lengthAdjust="spacing" textLength="14.872" x="39.6559" y="429.0251">11</text><text fill="#000000" font-family="sans-serif" font-size="13" lengthAdjust="spacing" textLength="76.5311" x="58.5279" y="429.0251">inputs name</text><polygon fill="#181818" points="491.2083,462.5401,501.2083,466.5401,491.2083,470.5401,495.2083,466.5401" style="stroke:#181818;stroke-width:1.0;"/><line style="stroke:#181818;stroke-width:1.0;" x1="263.1081" x2="497.2083" y1="466.5401" y2="466.5401"/><text fill="#000000" font-family="sans-serif" font-size="13" font-weight="bold" lengthAdjust="spacing" textLength="14.872" x="270.1081" y="460.7311">12</text><text fill="#000000" font-family="sans-serif" font-size="13" lengthAdjust="spacing" textLength="127.1921" x="288.9801" y="460.7311">validateName(name)</text><line style="stroke:#181818;stroke-width:1.0;" x1="513.2083" x2="555.2083" y1="498.2461" y2="498.2461"/><line style="stroke:#181818;stroke-width:1.0;" x1="555.2083" x2="555.2083" y1="498.2461" y2="511.2461"/><line style="stroke:#181818;stroke-width:1.0;" x1="514.2083" x2="555.2083" y1="511.2461" y2="511.2461"/><polygon fill="#181818" points="524.2083,507.2461,514.2083,511.2461,524.2083,515.2461,520.2083,511.2461" style="stroke:#181818;stroke-width:1.0;"/><text fill="#000000" font-family="sans-serif" font-size="13" font-weight="bold" lengthAdjust="spacing" textLength="14.872" x="520.2083" y="492.4371">13</text><text fill="#000000" font-family="sans-serif" font-size="13" lengthAdjust="spacing" textLength="188.8122" x="539.0803" y="492.4371">checkNoDigitsOrSpecialChars()</text><polygon fill="#181818" points="274.1081,538.9521,264.1081,542.9521,274.1081,546.9521,270.1081,542.9521" style="stroke:#181818;stroke-width:1.0;"/><line style="stroke:#181818;stroke-width:1.0;stroke-dasharray:2.0,2.0;" x1="268.1081" x2="507.2083" y1="542.9521" y2="542.9521"/><text fill="#000000" font-family="sans-serif" font-size="13" font-weight="bold" lengthAdjust="spacing" textLength="14.872" x="280.1081" y="537.1431">14</text><text fill="#000000" font-family="sans-serif" font-size="13" lengthAdjust="spacing" textLength="25.428" x="298.9801" y="537.1431">true</text><polygon fill="#181818" points="43.6559,570.6582,33.6559,574.6582,43.6559,578.6582,39.6559,574.6582" style="stroke:#181818;stroke-width:1.0;"/><line style="stroke:#181818;stroke-width:1.0;" x1="37.6559" x2="257.1081" y1="574.6582" y2="574.6582"/><text fill="#000000" font-family="sans-serif" font-size="13" font-weight="bold" lengthAdjust="spacing" textLength="14.872" x="49.6559" y="568.8492">15</text><text fill="#000000" font-family="sans-serif" font-size="13" lengthAdjust="spacing" textLength="123.4221" x="68.5279" y="568.8492">asks for coordinates</text><polygon fill="#181818" points="241.1081,602.3642,251.1081,606.3642,241.1081,610.3642,245.1081,606.3642" style="stroke:#181818;stroke-width:1.0;"/><line style="stroke:#181818;stroke-width:1.0;" x1="32.6559" x2="247.1081" y1="606.3642" y2="606.3642"/><text fill="#000000" font-family="sans-serif" font-size="13" font-weight="bold" lengthAdjust="spacing" textLength="14.872" x="39.6559" y="600.5552">16</text><text fill="#000000" font-family="sans-serif" font-size="13" lengthAdjust="spacing" textLength="113.9841" x="58.5279" y="600.5552">inputs coordinates</text><polygon fill="#181818" points="491.2083,634.0702,501.2083,638.0702,491.2083,642.0702,495.2083,638.0702" style="stroke:#181818;stroke-width:1.0;"/><line style="stroke:#181818;stroke-width:1.0;" x1="263.1081" x2="497.2083" y1="638.0702" y2="638.0702"/><text fill="#000000" font-family="sans-serif" font-size="13" font-weight="bold" lengthAdjust="spacing" textLength="14.872" x="270.1081" y="632.2612">17</text><text fill="#000000" font-family="sans-serif" font-size="13" lengthAdjust="spacing" textLength="202.2282" x="288.9801" y="632.2612">validateCoordinates(coordinates)</text><polygon fill="#181818" points="274.1081,665.7762,264.1081,669.7762,274.1081,673.7762,270.1081,669.7762" style="stroke:#181818;stroke-width:1.0;"/><line style="stroke:#181818;stroke-width:1.0;stroke-dasharray:2.0,2.0;" x1="268.1081" x2="507.2083" y1="669.7762" y2="669.7762"/><text fill="#000000" font-family="sans-serif" font-size="13" font-weight="bold" lengthAdjust="spacing" textLength="14.872" x="280.1081" y="663.9672">18</text><text fill="#000000" font-family="sans-serif" font-size="13" lengthAdjust="spacing" textLength="25.428" x="298.9801" y="663.9672">true</text><polygon fill="#181818" points="43.6559,697.4822,33.6559,701.4822,43.6559,705.4822,39.6559,701.4822" style="stroke:#181818;stroke-width:1.0;"/><line style="stroke:#181818;stroke-width:1.0;" x1="37.6559" x2="257.1081" y1="701.4822" y2="701.4822"/><text fill="#000000" font-family="sans-serif" font-size="13" font-weight="bold" lengthAdjust="spacing" textLength="14.872" x="49.6559" y="695.6732">19</text><text fill="#000000" font-family="sans-serif" font-size="13" lengthAdjust="spacing" textLength="177.5802" x="68.5279" y="695.6732">asks number of house blocks</text><polygon fill="#181818" points="241.1081,729.1882,251.1081,733.1882,241.1081,737.1882,245.1081,733.1882" style="stroke:#181818;stroke-width:1.0;"/><line style="stroke:#181818;stroke-width:1.0;" x1="32.6559" x2="247.1081" y1="733.1882" y2="733.1882"/><text fill="#000000" font-family="sans-serif" font-size="13" font-weight="bold" lengthAdjust="spacing" textLength="14.872" x="39.6559" y="727.3792">20</text><text fill="#000000" font-family="sans-serif" font-size="13" lengthAdjust="spacing" textLength="90.6361" x="58.5279" y="727.3792">inputs number</text><polygon fill="#181818" points="491.2083,760.8943,501.2083,764.8943,491.2083,768.8943,495.2083,764.8943" style="stroke:#181818;stroke-width:1.0;"/><line style="stroke:#181818;stroke-width:1.0;" x1="263.1081" x2="497.2083" y1="764.8943" y2="764.8943"/><text fill="#000000" font-family="sans-serif" font-size="13" font-weight="bold" lengthAdjust="spacing" textLength="14.872" x="270.1081" y="759.0853">21</text><text fill="#000000" font-family="sans-serif" font-size="13" lengthAdjust="spacing" textLength="153.7771" x="288.9801" y="759.0853">validateNumberPositive()</text><polygon fill="#181818" points="274.1081,792.6003,264.1081,796.6003,274.1081,800.6003,270.1081,796.6003" style="stroke:#181818;stroke-width:1.0;"/><line style="stroke:#181818;stroke-width:1.0;stroke-dasharray:2.0,2.0;" x1="268.1081" x2="507.2083" y1="796.6003" y2="796.6003"/><text fill="#000000" font-family="sans-serif" font-size="13" font-weight="bold" lengthAdjust="spacing" textLength="14.872" x="280.1081" y="790.7913">22</text><text fill="#000000" font-family="sans-serif" font-size="13" lengthAdjust="spacing" textLength="25.428" x="298.9801" y="790.7913">true</text><polygon fill="#181818" points="43.6559,824.3063,33.6559,828.3063,43.6559,832.3063,39.6559,828.3063" style="stroke:#181818;stroke-width:1.0;"/><line style="stroke:#181818;stroke-width:1.0;" x1="37.6559" x2="257.1081" y1="828.3063" y2="828.3063"/><text fill="#000000" font-family="sans-serif" font-size="13" font-weight="bold" lengthAdjust="spacing" textLength="14.872" x="49.6559" y="822.4973">23</text><text fill="#000000" font-family="sans-serif" font-size="13" lengthAdjust="spacing" textLength="175.7081" x="68.5279" y="822.4973">ask if assign blocks manually</text><polygon fill="#181818" points="241.1081,856.0123,251.1081,860.0123,241.1081,864.0123,245.1081,860.0123" style="stroke:#181818;stroke-width:1.0;"/><line style="stroke:#181818;stroke-width:1.0;" x1="32.6559" x2="247.1081" y1="860.0123" y2="860.0123"/><text fill="#000000" font-family="sans-serif" font-size="13" font-weight="bold" lengthAdjust="spacing" textLength="14.872" x="39.6559" y="854.2033">24</text><text fill="#000000" font-family="sans-serif" font-size="13" lengthAdjust="spacing" textLength="85.7091" x="58.5279" y="854.2033">selects yes/no</text><polygon fill="#181818" points="1036.055,887.7183,1046.055,891.7183,1036.055,895.7183,1040.055,891.7183" style="stroke:#181818;stroke-width:1.0;"/><line style="stroke:#181818;stroke-width:1.0;" x1="263.1081" x2="1042.055" y1="891.7183" y2="891.7183"/><text fill="#000000" font-family="sans-serif" font-size="13" font-weight="bold" lengthAdjust="spacing" textLength="14.872" x="270.1081" y="885.9093">25</text><text fill="#000000" font-family="sans-serif" font-size="13" lengthAdjust="spacing" textLength="375.3883" x="288.9801" y="885.9093">assignBlocks(manual/auto, numBlocks, map, cityCoordinates)</text><polygon fill="#181818" points="1288.8713,919.4243,1298.8713,923.4243,1288.8713,927.4243,1292.8713,923.4243" style="stroke:#181818;stroke-width:1.0;"/><line style="stroke:#181818;stroke-width:1.0;" x1="1058.055" x2="1294.8713" y1="923.4243" y2="923.4243"/><text fill="#000000" font-family="sans-serif" font-size="13" font-weight="bold" lengthAdjust="spacing" textLength="14.872" x="1065.055" y="917.6153">26</text><text fill="#000000" font-family="sans-serif" font-size="13" lengthAdjust="spacing" textLength="166.0101" x="1083.927" y="917.6153">setHouseBlockCoordinate()</text><polygon fill="#181818" points="1069.055,951.1304,1059.055,955.1304,1069.055,959.1304,1065.055,955.1304" style="stroke:#181818;stroke-width:1.0;"/><line style="stroke:#181818;stroke-width:1.0;stroke-dasharray:2.0,2.0;" x1="1063.055" x2="1304.8713" y1="955.1304" y2="955.1304"/><text fill="#000000" font-family="sans-serif" font-size="13" font-weight="bold" lengthAdjust="spacing" textLength="14.872" x="1075.055" y="949.3214">27</text><text fill="#000000" font-family="sans-serif" font-size="13" lengthAdjust="spacing" textLength="25.428" x="1093.927" y="949.3214">true</text><polygon fill="#181818" points="1160.6446,982.8364,1170.6446,986.8364,1160.6446,990.8364,1164.6446,986.8364" style="stroke:#181818;stroke-width:1.0;"/><line style="stroke:#181818;stroke-width:1.0;" x1="1058.055" x2="1166.6446" y1="986.8364" y2="986.8364"/><text fill="#000000" font-family="sans-serif" font-size="13" font-weight="bold" lengthAdjust="spacing" textLength="14.872" x="1065.055" y="981.0274">28</text><text fill="#000000" font-family="sans-serif" font-size="13" lengthAdjust="spacing" textLength="70.1611" x="1083.927" y="981.0274">addBlocks()</text><polygon fill="#181818" points="1069.055,1014.5424,1059.055,1018.5424,1069.055,1022.5424,1065.055,1018.5424" style="stroke:#181818;stroke-width:1.0;"/><line style="stroke:#181818;stroke-width:1.0;stroke-dasharray:2.0,2.0;" x1="1063.055" x2="1176.6446" y1="1018.5424" y2="1018.5424"/><text fill="#000000" font-family="sans-serif" font-size="13" font-weight="bold" lengthAdjust="spacing" textLength="14.872" x="1075.055" y="1012.7334">29</text><text fill="#000000" font-family="sans-serif" font-size="13" lengthAdjust="spacing" textLength="25.428" x="1093.927" y="1012.7334">true</text><polygon fill="#181818" points="274.1081,1046.2484,264.1081,1050.2484,274.1081,1054.2484,270.1081,1050.2484" style="stroke:#181818;stroke-width:1.0;"/><line style="stroke:#181818;stroke-width:1.0;stroke-dasharray:2.0,2.0;" x1="268.1081" x2="1052.055" y1="1050.2484" y2="1050.2484"/><text fill="#000000" font-family="sans-serif" font-size="13" font-weight="bold" lengthAdjust="spacing" textLength="14.872" x="280.1081" y="1044.4394">30</text><text fill="#000000" font-family="sans-serif" font-size="13" lengthAdjust="spacing" textLength="25.428" x="298.9801" y="1044.4394">true</text><polygon fill="#181818" points="491.2083,1077.9544,501.2083,1081.9544,491.2083,1085.9544,495.2083,1081.9544" style="stroke:#181818;stroke-width:1.0;"/><line style="stroke:#181818;stroke-width:1.0;" x1="263.1081" x2="497.2083" y1="1081.9544" y2="1081.9544"/><text fill="#000000" font-family="sans-serif" font-size="13" font-weight="bold" lengthAdjust="spacing" textLength="14.872" x="270.1081" y="1076.1454">31</text><text fill="#000000" font-family="sans-serif" font-size="13" lengthAdjust="spacing" textLength="172.0941" x="288.9801" y="1076.1454">saveCity(name, coordinates)</text><polygon fill="#181818" points="1160.6446,1109.6604,1170.6446,1113.6604,1160.6446,1117.6604,1164.6446,1113.6604" style="stroke:#181818;stroke-width:1.0;"/><line style="stroke:#181818;stroke-width:1.0;" x1="513.2083" x2="1166.6446" y1="1113.6604" y2="1113.6604"/><text fill="#000000" font-family="sans-serif" font-size="13" font-weight="bold" lengthAdjust="spacing" textLength="14.872" x="520.2083" y="1107.8514">32</text><text fill="#000000" font-family="sans-serif" font-size="13" lengthAdjust="spacing" textLength="160.0041" x="539.0803" y="1107.8514">create(name, coordinates)</text><polygon fill="#181818" points="524.2083,1141.3665,514.2083,1145.3665,524.2083,1149.3665,520.2083,1145.3665" style="stroke:#181818;stroke-width:1.0;"/><line style="stroke:#181818;stroke-width:1.0;stroke-dasharray:2.0,2.0;" x1="518.2083" x2="1176.6446" y1="1145.3665" y2="1145.3665"/><text fill="#000000" font-family="sans-serif" font-size="13" font-weight="bold" lengthAdjust="spacing" textLength="14.872" x="530.2083" y="1139.5575">33</text><text fill="#000000" font-family="sans-serif" font-size="13" lengthAdjust="spacing" textLength="60.6841" x="549.0803" y="1139.5575">cityObject</text><polygon fill="#181818" points="1211.5525,1173.0725,1221.5525,1177.0725,1211.5525,1181.0725,1215.5525,1177.0725" style="stroke:#181818;stroke-width:1.0;"/><line style="stroke:#181818;stroke-width:1.0;" x1="513.2083" x2="1217.5525" y1="1177.0725" y2="1177.0725"/><text fill="#000000" font-family="sans-serif" font-size="13" font-weight="bold" lengthAdjust="spacing" textLength="14.872" x="520.2083" y="1171.2635">34</text><text fill="#000000" font-family="sans-serif" font-size="13" lengthAdjust="spacing" textLength="74.8931" x="539.0803" y="1171.2635">addCity(city)</text><polygon fill="#181818" points="524.2083,1204.7785,514.2083,1208.7785,524.2083,1212.7785,520.2083,1208.7785" style="stroke:#181818;stroke-width:1.0;"/><line style="stroke:#181818;stroke-width:1.0;stroke-dasharray:2.0,2.0;" x1="518.2083" x2="1227.5525" y1="1208.7785" y2="1208.7785"/><text fill="#000000" font-family="sans-serif" font-size="13" font-weight="bold" lengthAdjust="spacing" textLength="14.872" x="530.2083" y="1202.9695">35</text><text fill="#000000" font-family="sans-serif" font-size="13" lengthAdjust="spacing" textLength="25.428" x="549.0803" y="1202.9695">true</text><polygon fill="#181818" points="274.1081,1236.4845,264.1081,1240.4845,274.1081,1244.4845,270.1081,1240.4845" style="stroke:#181818;stroke-width:1.0;"/><line style="stroke:#181818;stroke-width:1.0;stroke-dasharray:2.0,2.0;" x1="268.1081" x2="507.2083" y1="1240.4845" y2="1240.4845"/><text fill="#000000" font-family="sans-serif" font-size="13" font-weight="bold" lengthAdjust="spacing" textLength="14.872" x="280.1081" y="1234.6755">36</text><text fill="#000000" font-family="sans-serif" font-size="13" lengthAdjust="spacing" textLength="25.428" x="298.9801" y="1234.6755">true</text><polygon fill="#181818" points="38.6559,1268.1905,28.6559,1272.1905,38.6559,1276.1905,34.6559,1272.1905" style="stroke:#181818;stroke-width:1.0;"/><line style="stroke:#181818;stroke-width:1.0;" x1="32.6559" x2="257.1081" y1="1272.1905" y2="1272.1905"/><text fill="#000000" font-family="sans-serif" font-size="13" font-weight="bold" lengthAdjust="spacing" textLength="14.872" x="44.6559" y="1266.3815">37</text><text fill="#000000" font-family="sans-serif" font-size="13" lengthAdjust="spacing" textLength="109.7071" x="63.5279" y="1266.3815">operation success</text><!--SRC=[jLPDRzim3BtdL-YO0Ibwxs50bmrO3sk75Vi1ZCmuMcJ94EKK-VUZv3IM4ZbVHK-o9Rr7yf6YH6jbMd3GYCOQArVEDYYywt12-vKMv1fgVFLRZSAXz61gdMwW5LJsJPbQB44JJg3prdJD0jra0j9R9tvKYeS9R_TAgXQC5uzLDLT- -_UfD3ktnZkhDUQOFzXQ2amAALlu1Ur-RNj8-DDsXD-qbMiQuGqc3_co_u4YHgGsuF4zg7uGTr-7aCI305gJy5P0LGaGCXZO0uVG1yG07tna6kcG4TClH-0aahCaDVh73IWD2uqS6J7TyJR6flBsi2T3d6sPEP0b8OCmHPO8vcZI_vGbprWEkpoC2aS8auNCtsBSMTvI2odD6TrtLV30Xy6-4QTSA_B2BeC29HvE_aZb46e-Ou62eQMY6J4SAsx9dw7OX846osRBLlaiTsmqmcufr0reLJ7ccGccWUMIaYsc8Q__5Shri_skQkNfnRssA1Ne-GhSI1KVX1LRsSaidbNJMbSfms2wGSyK_H5PvmFFDE6yLkIhrJaXJj_XGuclGdSKYzXXRwcv_ghuKDL5Yj_XdAlDPUtoauf6g2KFf6gp4uHFiUb0w-qrohptW2tIlR6NI5EyvA9BmPT-OTgxSX_kvrcGlP-UXKOpYsrZFbPQvJjqr2xxD2p4UFpmFnX94vLSiGdqxdHqXvbAI4xv5fGBsbJLJfZ4Z_WMY1kkj1s1urRFrrXPu_E7W623OJAstPduG7lOAxDxTfmYFDBfk7VpnClY7nToIQPZstpZzac9mGHq_bu8huHHOuTwXlsVUD9jYmwyiaPG9oNIIDzB9dUlnVy0]--></g></svg>