<svg xmlns="http://www.w3.org/2000/svg" xmlns:xlink="http://www.w3.org/1999/xlink" contentStyleType="text/css" height="476.8px" preserveAspectRatio="none" style="width:1040px;height:476px;background:#FFFFFF;" version="1.1" viewBox="0 0 1040 476" width="1040.8px" zoomAndPan="magnify"><defs/><g><!--class ApplicationSession--><g id="elem_ApplicationSession"><rect codeLine="9" fill="#F1F1F1" height="84.163" id="ApplicationSession" rx="2" ry="2" style="stroke:#181818;stroke-width:0.4000000000000001;" width="124.3836" x="146" y="32"/><ellipse cx="158" cy="44.8" fill="#ADD1B2" rx="8.8" ry="8.8" style="stroke:#181818;stroke-width:0.8000000000000002;"/><path d="M157.575,50.3375 Q156.175,50.3375 155.2625,49.75 Q154.3625,49.15 153.9125,48.075 Q153.475,46.9875 153.475,45.55 Q153.475,43.925 154,42.7625 Q154.525,41.6 155.55,40.975 Q156.575,40.35 158.075,40.35 Q158.7875,40.35 159.325,40.5 Q159.8625,40.6375 160.4125,40.9125 L159.7625,42.525 Q159.2625,42.275 158.825,42.175 Q158.4,42.075 158.0125,42.075 Q157.075,42.075 156.5125,42.5 Q155.95,42.925 155.7125,43.6875 Q155.475,44.45 155.475,45.4625 Q155.475,47.075 156.05,47.85 Q156.625,48.6125 157.9,48.6125 Q158.375,48.6125 158.875,48.4875 Q159.375,48.3625 160.0375,48.0625 L160.0375,49.8375 Q159.45,50.0875 158.8125,50.2125 Q158.1875,50.3375 157.575,50.3375 Z " fill="#000000"/><text fill="#000000" font-family="sans-serif" font-size="11.2" lengthAdjust="spacing" textLength="98.7836" x="169.2" y="49.1456">ApplicationSession</text><line style="stroke:#181818;stroke-width:0.4000000000000001;" x1="146.8" x2="269.5836" y1="57.6" y2="57.6"/><line style="stroke:#181818;stroke-width:0.4000000000000001;" x1="146.8" x2="269.5836" y1="64" y2="64"/><text fill="#000000" font-family="sans-serif" font-size="11.2" lengthAdjust="spacing" textLength="109.11" x="150.8" y="79.1727">-ApplicationSession()</text><text fill="#000000" font-family="sans-serif" font-size="11.2" lengthAdjust="spacing" textLength="75.3981" x="150.8" y="94.4271">+getInstance()</text><text fill="#000000" font-family="sans-serif" font-size="11.2" lengthAdjust="spacing" textLength="110.6892" x="150.8" y="109.6814">+getCurrentSession()</text></g><!--class UserSession--><g id="elem_UserSession"><rect codeLine="14" fill="#F1F1F1" height="53.6543" id="UserSession" rx="2" ry="2" style="stroke:#181818;stroke-width:0.4000000000000001;" width="111.9564" x="5.6" y="47.2"/><ellipse cx="27.5359" cy="60" fill="#ADD1B2" rx="8.8" ry="8.8" style="stroke:#181818;stroke-width:0.8000000000000002;"/><path d="M27.1109,65.5375 Q25.7109,65.5375 24.7984,64.95 Q23.8984,64.35 23.4484,63.275 Q23.0109,62.1875 23.0109,60.75 Q23.0109,59.125 23.5359,57.9625 Q24.0609,56.8 25.0859,56.175 Q26.1109,55.55 27.6109,55.55 Q28.3234,55.55 28.8609,55.7 Q29.3984,55.8375 29.9484,56.1125 L29.2984,57.725 Q28.7984,57.475 28.3609,57.375 Q27.9359,57.275 27.5484,57.275 Q26.6109,57.275 26.0484,57.7 Q25.4859,58.125 25.2484,58.8875 Q25.0109,59.65 25.0109,60.6625 Q25.0109,62.275 25.5859,63.05 Q26.1609,63.8125 27.4359,63.8125 Q27.9109,63.8125 28.4109,63.6875 Q28.9109,63.5625 29.5734,63.2625 L29.5734,65.0375 Q28.9859,65.2875 28.3484,65.4125 Q27.7234,65.5375 27.1109,65.5375 Z " fill="#000000"/><text fill="#000000" font-family="sans-serif" font-size="11.2" lengthAdjust="spacing" textLength="64.2766" x="40.9439" y="64.3456">UserSession</text><line style="stroke:#181818;stroke-width:0.4000000000000001;" x1="6.4" x2="116.7564" y1="72.8" y2="72.8"/><line style="stroke:#181818;stroke-width:0.4000000000000001;" x1="6.4" x2="116.7564" y1="79.2" y2="79.2"/><text fill="#000000" font-family="sans-serif" font-size="11.2" lengthAdjust="spacing" textLength="102.3564" x="10.4" y="94.3727">+getCurrentEditor()</text></g><!--class AddCityController--><g id="elem_AddCityController"><rect codeLine="18" fill="#F1F1F1" height="114.6717" id="AddCityController" rx="2" ry="2" style="stroke:#181818;stroke-width:0.4000000000000001;" width="292.5221" x="404.8" y="16.8"/><ellipse cx="500.862" cy="29.6" fill="#ADD1B2" rx="8.8" ry="8.8" style="stroke:#181818;stroke-width:0.8000000000000002;"/><path d="M500.437,35.1375 Q499.037,35.1375 498.1245,34.55 Q497.2245,33.95 496.7745,32.875 Q496.337,31.7875 496.337,30.35 Q496.337,28.725 496.862,27.5625 Q497.387,26.4 498.412,25.775 Q499.437,25.15 500.937,25.15 Q501.6495,25.15 502.187,25.3 Q502.7245,25.4375 503.2745,25.7125 L502.6245,27.325 Q502.1245,27.075 501.687,26.975 Q501.262,26.875 500.8745,26.875 Q499.937,26.875 499.3745,27.3 Q498.812,27.725 498.5745,28.4875 Q498.337,29.25 498.337,30.2625 Q498.337,31.875 498.912,32.65 Q499.487,33.4125 500.762,33.4125 Q501.237,33.4125 501.737,33.2875 Q502.237,33.1625 502.8995,32.8625 L502.8995,34.6375 Q502.312,34.8875 501.6745,35.0125 Q501.0495,35.1375 500.437,35.1375 Z " fill="#000000"/><text fill="#000000" font-family="sans-serif" font-size="11.2" lengthAdjust="spacing" textLength="93.598" x="517.262" y="33.9456">AddCityController</text><line style="stroke:#181818;stroke-width:0.4000000000000001;" x1="405.6" x2="696.5221" y1="42.4" y2="42.4"/><line style="stroke:#181818;stroke-width:0.4000000000000001;" x1="405.6" x2="696.5221" y1="48.8" y2="48.8"/><text fill="#000000" font-family="sans-serif" font-size="11.2" lengthAdjust="spacing" textLength="169.489" x="409.6" y="63.9727">+getAvailableMaps() : List&lt;Map&gt;</text><text fill="#000000" font-family="sans-serif" font-size="11.2" lengthAdjust="spacing" textLength="208.0056" x="409.6" y="79.2271">+validateName(name : String) : boolean</text><text fill="#000000" font-family="sans-serif" font-size="11.2" lengthAdjust="spacing" textLength="268.5414" x="409.6" y="94.4814">+validateCoordinates(coordinates : Point) : boolean</text><text fill="#000000" font-family="sans-serif" font-size="11.2" lengthAdjust="spacing" textLength="255.3926" x="409.6" y="109.7357">+validateNumberPositive(number : int) : boolean</text><text fill="#000000" font-family="sans-serif" font-size="11.2" lengthAdjust="spacing" textLength="282.9221" x="409.6" y="124.9901">+saveCity(name : String, coordinates : Point) : boolean</text></g><!--class AddHouseBlocksController--><g id="elem_AddHouseBlocksController"><rect codeLine="27" fill="#F1F1F1" height="53.6543" id="AddHouseBlocksController" rx="2" ry="2" style="stroke:#181818;stroke-width:0.4000000000000001;" width="535.7854" x="69.6" y="232.4"/><ellipse cx="263.4825" cy="245.2" fill="#ADD1B2" rx="8.8" ry="8.8" style="stroke:#181818;stroke-width:0.8000000000000002;"/><path d="M263.0575,250.7375 Q261.6575,250.7375 260.745,250.15 Q259.845,249.55 259.395,248.475 Q258.9575,247.3875 258.9575,245.95 Q258.9575,244.325 259.4825,243.1625 Q260.0075,242 261.0325,241.375 Q262.0575,240.75 263.5575,240.75 Q264.27,240.75 264.8075,240.9 Q265.345,241.0375 265.895,241.3125 L265.245,242.925 Q264.745,242.675 264.3075,242.575 Q263.8825,242.475 263.495,242.475 Q262.5575,242.475 261.995,242.9 Q261.4325,243.325 261.195,244.0875 Q260.9575,244.85 260.9575,245.8625 Q260.9575,247.475 261.5325,248.25 Q262.1075,249.0125 263.3825,249.0125 Q263.8575,249.0125 264.3575,248.8875 Q264.8575,248.7625 265.52,248.4625 L265.52,250.2375 Q264.9325,250.4875 264.295,250.6125 Q263.67,250.7375 263.0575,250.7375 Z " fill="#000000"/><text fill="#000000" font-family="sans-serif" font-size="11.2" lengthAdjust="spacing" textLength="141.2203" x="279.8825" y="249.5456">AddHouseBlocksController</text><line style="stroke:#181818;stroke-width:0.4000000000000001;" x1="70.4" x2="604.5854" y1="258" y2="258"/><line style="stroke:#181818;stroke-width:0.4000000000000001;" x1="70.4" x2="604.5854" y1="264.4" y2="264.4"/><text fill="#000000" font-family="sans-serif" font-size="11.2" lengthAdjust="spacing" textLength="526.1854" x="74.4" y="279.5727">+assignBlocks(manualMode : boolean, numBlocks : int, map : Map, cityCoordinates : Point) : boolean</text></g><!--class Repositories--><g id="elem_Repositories"><rect codeLine="32" fill="#F1F1F1" height="84.163" id="Repositories" rx="2" ry="2" style="stroke:#181818;stroke-width:0.4000000000000001;" width="181.721" x="854" y="32"/><ellipse cx="908.8518" cy="44.8" fill="#ADD1B2" rx="8.8" ry="8.8" style="stroke:#181818;stroke-width:0.8000000000000002;"/><path d="M908.4268,50.3375 Q907.0268,50.3375 906.1143,49.75 Q905.2143,49.15 904.7643,48.075 Q904.3268,46.9875 904.3268,45.55 Q904.3268,43.925 904.8518,42.7625 Q905.3768,41.6 906.4018,40.975 Q907.4268,40.35 908.9268,40.35 Q909.6393,40.35 910.1768,40.5 Q910.7143,40.6375 911.2643,40.9125 L910.6143,42.525 Q910.1143,42.275 909.6768,42.175 Q909.2518,42.075 908.8643,42.075 Q907.9268,42.075 907.3643,42.5 Q906.8018,42.925 906.5643,43.6875 Q906.3268,44.45 906.3268,45.4625 Q906.3268,47.075 906.9018,47.85 Q907.4768,48.6125 908.7518,48.6125 Q909.2268,48.6125 909.7268,48.4875 Q910.2268,48.3625 910.8893,48.0625 L910.8893,49.8375 Q910.3018,50.0875 909.6643,50.2125 Q909.0393,50.3375 908.4268,50.3375 Z " fill="#000000"/><text fill="#000000" font-family="sans-serif" font-size="11.2" lengthAdjust="spacing" textLength="65.2174" x="925.2518" y="49.1456">Repositories</text><line style="stroke:#181818;stroke-width:0.4000000000000001;" x1="854.8" x2="1034.921" y1="57.6" y2="57.6"/><text fill="#000000" font-family="sans-serif" font-size="11.2" lengthAdjust="spacing" textLength="172.121" x="858.8" y="72.7727">-mapRepository : MapRepository</text><line style="stroke:#181818;stroke-width:0.4000000000000001;" x1="854.8" x2="1034.921" y1="79.2543" y2="79.2543"/><text fill="#000000" font-family="sans-serif" font-size="11.2" lengthAdjust="spacing" textLength="75.3981" x="858.8" y="94.4271">+getInstance()</text><text fill="#000000" font-family="sans-serif" font-size="11.2" lengthAdjust="spacing" textLength="93.1276" x="858.8" y="109.6814">+mapRepository()</text></g><!--class MapRepository--><g id="elem_MapRepository"><rect codeLine="38" fill="#F1F1F1" height="53.6543" id="MapRepository" rx="2" ry="2" style="stroke:#181818;stroke-width:0.4000000000000001;" width="105.2877" x="892" y="232.4"/><ellipse cx="904" cy="245.2" fill="#ADD1B2" rx="8.8" ry="8.8" style="stroke:#181818;stroke-width:0.8000000000000002;"/><path d="M903.575,250.7375 Q902.175,250.7375 901.2625,250.15 Q900.3625,249.55 899.9125,248.475 Q899.475,247.3875 899.475,245.95 Q899.475,244.325 900,243.1625 Q900.525,242 901.55,241.375 Q902.575,240.75 904.075,240.75 Q904.7875,240.75 905.325,240.9 Q905.8625,241.0375 906.4125,241.3125 L905.7625,242.925 Q905.2625,242.675 904.825,242.575 Q904.4,242.475 904.0125,242.475 Q903.075,242.475 902.5125,242.9 Q901.95,243.325 901.7125,244.0875 Q901.475,244.85 901.475,245.8625 Q901.475,247.475 902.05,248.25 Q902.625,249.0125 903.9,249.0125 Q904.375,249.0125 904.875,248.8875 Q905.375,248.7625 906.0375,248.4625 L906.0375,250.2375 Q905.45,250.4875 904.8125,250.6125 Q904.1875,250.7375 903.575,250.7375 Z " fill="#000000"/><text fill="#000000" font-family="sans-serif" font-size="11.2" lengthAdjust="spacing" textLength="79.6877" x="915.2" y="249.5456">MapRepository</text><line style="stroke:#181818;stroke-width:0.4000000000000001;" x1="892.8" x2="996.4877" y1="258" y2="258"/><line style="stroke:#181818;stroke-width:0.4000000000000001;" x1="892.8" x2="996.4877" y1="264.4" y2="264.4"/><text fill="#000000" font-family="sans-serif" font-size="11.2" lengthAdjust="spacing" textLength="59.0686" x="896.8" y="279.5727">+getMaps()</text></g><!--class City--><g id="elem_City"><rect codeLine="43" fill="#F1F1F1" height="129.926" id="City" rx="2" ry="2" style="stroke:#181818;stroke-width:0.4000000000000001;" width="178.0473" x="634" y="194.4"/><ellipse cx="709.7621" cy="207.2" fill="#ADD1B2" rx="8.8" ry="8.8" style="stroke:#181818;stroke-width:0.8000000000000002;"/><path d="M709.3371,212.7375 Q707.9371,212.7375 707.0246,212.15 Q706.1246,211.55 705.6746,210.475 Q705.2371,209.3875 705.2371,207.95 Q705.2371,206.325 705.7621,205.1625 Q706.2871,204 707.3121,203.375 Q708.3371,202.75 709.8371,202.75 Q710.5496,202.75 711.0871,202.9 Q711.6246,203.0375 712.1746,203.3125 L711.5246,204.925 Q711.0246,204.675 710.5871,204.575 Q710.1621,204.475 709.7746,204.475 Q708.8371,204.475 708.2746,204.9 Q707.7121,205.325 707.4746,206.0875 Q707.2371,206.85 707.2371,207.8625 Q707.2371,209.475 707.8121,210.25 Q708.3871,211.0125 709.6621,211.0125 Q710.1371,211.0125 710.6371,210.8875 Q711.1371,210.7625 711.7996,210.4625 L711.7996,212.2375 Q711.2121,212.4875 710.5746,212.6125 Q709.9496,212.7375 709.3371,212.7375 Z " fill="#000000"/><text fill="#000000" font-family="sans-serif" font-size="11.2" lengthAdjust="spacing" textLength="19.7231" x="726.1621" y="211.5456">City</text><line style="stroke:#181818;stroke-width:0.4000000000000001;" x1="634.8" x2="811.2473" y1="220" y2="220"/><text fill="#000000" font-family="sans-serif" font-size="11.2" lengthAdjust="spacing" textLength="71.0301" x="638.8" y="235.1727">-name: String</text><text fill="#000000" font-family="sans-serif" font-size="11.2" lengthAdjust="spacing" textLength="60.6254" x="638.8" y="250.4271">-xAxis: float</text><text fill="#000000" font-family="sans-serif" font-size="11.2" lengthAdjust="spacing" textLength="60.4126" x="638.8" y="265.6814">-yAxis: float</text><text fill="#000000" font-family="sans-serif" font-size="11.2" lengthAdjust="spacing" textLength="168.4473" x="638.8" y="280.9357">-houseBlocks: List&lt;HouseBlock&gt;</text><line style="stroke:#181818;stroke-width:0.4000000000000001;" x1="634.8" x2="811.2473" y1="287.4173" y2="287.4173"/><text fill="#000000" font-family="sans-serif" font-size="11.2" lengthAdjust="spacing" textLength="128.5643" x="638.8" y="302.5901">+City(name , coordinate)</text><text fill="#000000" font-family="sans-serif" font-size="11.2" lengthAdjust="spacing" textLength="100.1276" x="638.8" y="317.8444">+addBlocks(blocks)</text></g><!--class Map--><g id="elem_Map"><rect codeLine="52" fill="#F1F1F1" height="84.163" id="Map" rx="2" ry="2" style="stroke:#181818;stroke-width:0.4000000000000001;" width="99.614" x="726" y="32"/><ellipse cx="760.808" cy="44.8" fill="#ADD1B2" rx="8.8" ry="8.8" style="stroke:#181818;stroke-width:0.8000000000000002;"/><path d="M760.383,50.3375 Q758.983,50.3375 758.0705,49.75 Q757.1705,49.15 756.7205,48.075 Q756.283,46.9875 756.283,45.55 Q756.283,43.925 756.808,42.7625 Q757.333,41.6 758.358,40.975 Q759.383,40.35 760.883,40.35 Q761.5955,40.35 762.133,40.5 Q762.6705,40.6375 763.2205,40.9125 L762.5705,42.525 Q762.0705,42.275 761.633,42.175 Q761.208,42.075 760.8205,42.075 Q759.883,42.075 759.3205,42.5 Q758.758,42.925 758.5205,43.6875 Q758.283,44.45 758.283,45.4625 Q758.283,47.075 758.858,47.85 Q759.433,48.6125 760.708,48.6125 Q761.183,48.6125 761.683,48.4875 Q762.183,48.3625 762.8455,48.0625 L762.8455,49.8375 Q762.258,50.0875 761.6205,50.2125 Q760.9955,50.3375 760.383,50.3375 Z " fill="#000000"/><text fill="#000000" font-family="sans-serif" font-size="11.2" lengthAdjust="spacing" textLength="23.3295" x="777.0765" y="49.1456">Map</text><line style="stroke:#181818;stroke-width:0.4000000000000001;" x1="726.8" x2="824.814" y1="57.6" y2="57.6"/><text fill="#000000" font-family="sans-serif" font-size="11.2" lengthAdjust="spacing" textLength="73.9421" x="730.8" y="72.7727">-name : String</text><text fill="#000000" font-family="sans-serif" font-size="11.2" lengthAdjust="spacing" textLength="90.014" x="730.8" y="88.0271">-cities : List&lt;City&gt;</text><line style="stroke:#181818;stroke-width:0.4000000000000001;" x1="726.8" x2="824.814" y1="94.5087" y2="94.5087"/><text fill="#000000" font-family="sans-serif" font-size="11.2" lengthAdjust="spacing" textLength="70.9293" x="730.8" y="109.6814">+addCity(city)</text></g><!--class HouseBlock--><g id="elem_HouseBlock"><rect codeLine="58" fill="#F1F1F1" height="84.163" id="HouseBlock" rx="2" ry="2" style="stroke:#181818;stroke-width:0.4000000000000001;" width="221.2904" x="419.6" y="387.2"/><ellipse cx="495.8549" cy="400" fill="#ADD1B2" rx="8.8" ry="8.8" style="stroke:#181818;stroke-width:0.8000000000000002;"/><path d="M495.4299,405.5375 Q494.0299,405.5375 493.1174,404.95 Q492.2174,404.35 491.7674,403.275 Q491.3299,402.1875 491.3299,400.75 Q491.3299,399.125 491.8549,397.9625 Q492.3799,396.8 493.4049,396.175 Q494.4299,395.55 495.9299,395.55 Q496.6424,395.55 497.1799,395.7 Q497.7174,395.8375 498.2674,396.1125 L497.6174,397.725 Q497.1174,397.475 496.6799,397.375 Q496.2549,397.275 495.8674,397.275 Q494.9299,397.275 494.3674,397.7 Q493.8049,398.125 493.5674,398.8875 Q493.3299,399.65 493.3299,400.6625 Q493.3299,402.275 493.9049,403.05 Q494.4799,403.8125 495.7549,403.8125 Q496.2299,403.8125 496.7299,403.6875 Q497.2299,403.5625 497.8924,403.2625 L497.8924,405.0375 Q497.3049,405.2875 496.6674,405.4125 Q496.0424,405.5375 495.4299,405.5375 Z " fill="#000000"/><text fill="#000000" font-family="sans-serif" font-size="11.2" lengthAdjust="spacing" textLength="61.9806" x="512.2549" y="404.3456">HouseBlock</text><line style="stroke:#181818;stroke-width:0.4000000000000001;" x1="420.4" x2="640.0904" y1="412.8" y2="412.8"/><text fill="#000000" font-family="sans-serif" font-size="11.2" lengthAdjust="spacing" textLength="60.6254" x="424.4" y="427.9727">-xAxis: float</text><text fill="#000000" font-family="sans-serif" font-size="11.2" lengthAdjust="spacing" textLength="60.4126" x="424.4" y="443.2271">-yAxis: float</text><line style="stroke:#181818;stroke-width:0.4000000000000001;" x1="420.4" x2="640.0904" y1="449.7087" y2="449.7087"/><text fill="#000000" font-family="sans-serif" font-size="11.2" lengthAdjust="spacing" textLength="211.6904" x="424.4" y="464.8814">+setHouseBlockCoordinate(coordinates)</text></g><!--class AddCityUI--><g id="elem_AddCityUI"><rect codeLine="65" fill="#F1F1F1" height="53.6543" id="AddCityUI" rx="2" ry="2" style="stroke:#181818;stroke-width:0.4000000000000001;" width="78.2398" x="298.4" y="47.2"/><ellipse cx="310.4" cy="60" fill="#ADD1B2" rx="8.8" ry="8.8" style="stroke:#181818;stroke-width:0.8000000000000002;"/><path d="M309.975,65.5375 Q308.575,65.5375 307.6625,64.95 Q306.7625,64.35 306.3125,63.275 Q305.875,62.1875 305.875,60.75 Q305.875,59.125 306.4,57.9625 Q306.925,56.8 307.95,56.175 Q308.975,55.55 310.475,55.55 Q311.1875,55.55 311.725,55.7 Q312.2625,55.8375 312.8125,56.1125 L312.1625,57.725 Q311.6625,57.475 311.225,57.375 Q310.8,57.275 310.4125,57.275 Q309.475,57.275 308.9125,57.7 Q308.35,58.125 308.1125,58.8875 Q307.875,59.65 307.875,60.6625 Q307.875,62.275 308.45,63.05 Q309.025,63.8125 310.3,63.8125 Q310.775,63.8125 311.275,63.6875 Q311.775,63.5625 312.4375,63.2625 L312.4375,65.0375 Q311.85,65.2875 311.2125,65.4125 Q310.5875,65.5375 309.975,65.5375 Z " fill="#000000"/><text fill="#000000" font-family="sans-serif" font-size="11.2" lengthAdjust="spacing" textLength="52.6398" x="321.6" y="64.3456">AddCityUI</text><line style="stroke:#181818;stroke-width:0.4000000000000001;" x1="299.2" x2="375.8398" y1="72.8" y2="72.8"/><line style="stroke:#181818;stroke-width:0.4000000000000001;" x1="299.2" x2="375.8398" y1="79.2" y2="79.2"/><text fill="#000000" font-family="sans-serif" font-size="11.2" lengthAdjust="spacing" textLength="46.0878" x="303.2" y="94.3727">+create()</text></g><!--link UserSession to ApplicationSession--><g id="link_UserSession_ApplicationSession"><path codeLine="70" d="M117.6,74 C125.024,74 131.968,74 141.088,74 " fill="none" id="UserSession-to-ApplicationSession" style="stroke:#181818;stroke-width:0.8000000000000002;stroke-dasharray:7.0,7.0;"/><polygon fill="#181818" points="145.888,74,138.688,70.8,141.888,74,138.688,77.2,145.888,74" style="stroke:#181818;stroke-width:0.8000000000000002;"/></g><!--link ApplicationSession to AddCityUI--><g id="link_ApplicationSession_AddCityUI"><path codeLine="71" d="M270.024,74 C281.664,74 294.4,74 294.4,74 C294.4,74 291.12,74 293.584,74 " fill="none" id="ApplicationSession-to-AddCityUI" style="stroke:#181818;stroke-width:0.8000000000000002;stroke-dasharray:7.0,7.0;"/><polygon fill="#181818" points="298.384,74,291.184,70.8,294.384,74,291.184,77.2,298.384,74" style="stroke:#181818;stroke-width:0.8000000000000002;"/></g><!--link Repositories to MapRepository--><g id="link_Repositories_MapRepository"><path codeLine="72" d="M944.8,116 C944.8,151.632 944.8,197.248 944.8,227.552 " fill="none" id="Repositories-to-MapRepository" style="stroke:#181818;stroke-width:0.8000000000000002;"/><polygon fill="#181818" points="944.8,232.352,948,225.152,944.8,228.352,941.6,225.152,944.8,232.352" style="stroke:#181818;stroke-width:0.8000000000000002;"/><text fill="#000000" font-family="sans-serif" font-size="10.4" lengthAdjust="spacing" textLength="74.2873" x="945.6" y="167.1176">mapRepository</text></g><!--link AddCityController to Repositories--><g id="link_AddCityController_Repositories"><path codeLine="73" d="M695.952,16.696 C713.848,9.608 726,4.8 726,4.8 C726,4.8 826,4.8 826,4.8 C826,4.8 843.5884,15.048 868.4604,29.536 " fill="none" id="AddCityController-to-Repositories" style="stroke:#181818;stroke-width:0.8000000000000002;stroke-dasharray:7.0,7.0;"/><polygon fill="#181818" points="872.608,31.952,867.9972,25.5629,869.1516,29.9387,864.7759,31.0931,872.608,31.952" style="stroke:#181818;stroke-width:0.8000000000000002;"/></g><!--link AddCityController to City--><g id="link_AddCityController_City"><path codeLine="74" d="M604.208,131.384 C622.864,151.296 640.6785,170.3129 659.8705,190.8009 " fill="none" id="AddCityController-to-City" style="stroke:#181818;stroke-width:0.8000000000000002;stroke-dasharray:7.0,7.0;"/><polygon fill="#181818" points="663.152,194.304,660.5651,186.8617,660.4174,191.3847,655.8943,191.237,663.152,194.304" style="stroke:#181818;stroke-width:0.8000000000000002;"/></g><!--link AddCityController to Map--><g id="link_AddCityController_Map"><path codeLine="75" d="M697.656,74 C699.824,74 701.064,74 701.064,74 C701.064,74 707.36,74 721.008,74 " fill="none" id="AddCityController-to-Map" style="stroke:#181818;stroke-width:0.8000000000000002;stroke-dasharray:7.0,7.0;"/><polygon fill="#181818" points="725.808,74,718.608,70.8,721.808,74,718.608,77.2,725.808,74" style="stroke:#181818;stroke-width:0.8000000000000002;"/></g><!--link AddHouseBlocksController to HouseBlock--><g id="link_AddHouseBlocksController_HouseBlock"><path codeLine="76" d="M367.512,286.128 C398.4,313.104 443.4169,352.4264 479.5129,383.9544 " fill="none" id="AddHouseBlocksController-to-HouseBlock" style="stroke:#181818;stroke-width:0.8000000000000002;stroke-dasharray:7.0,7.0;"/><polygon fill="#181818" points="483.128,387.112,479.8104,379.9654,480.1154,384.4806,475.6002,384.7856,483.128,387.112" style="stroke:#181818;stroke-width:0.8000000000000002;"/></g><!--link AddHouseBlocksController to City--><g id="link_AddHouseBlocksController_City"><path codeLine="77" d="M605.624,259.2 C612.728,259.2 617.928,259.2 629.12,259.2 " fill="none" id="AddHouseBlocksController-to-City" style="stroke:#181818;stroke-width:0.8000000000000002;stroke-dasharray:7.0,7.0;"/><polygon fill="#181818" points="633.92,259.2,626.72,256,629.92,259.2,626.72,262.4,633.92,259.2" style="stroke:#181818;stroke-width:0.8000000000000002;"/></g><!--link AddCityUI to AddCityController--><g id="link_AddCityUI_AddCityController"><path codeLine="78" d="M376.952,74 C388.272,74 394.28,74 399.928,74 " fill="none" id="AddCityUI-to-AddCityController" style="stroke:#181818;stroke-width:0.8000000000000002;stroke-dasharray:7.0,7.0;"/><polygon fill="#181818" points="404.728,74,397.528,70.8,400.728,74,397.528,77.2,404.728,74" style="stroke:#181818;stroke-width:0.8000000000000002;"/></g><!--link AddCityUI to AddHouseBlocksController--><g id="link_AddCityUI_AddHouseBlocksController"><path codeLine="79" d="M337.6,101.104 C337.6,136.008 337.6,192.464 337.6,227.344 " fill="none" id="AddCityUI-to-AddHouseBlocksController" style="stroke:#181818;stroke-width:0.8000000000000002;stroke-dasharray:7.0,7.0;"/><polygon fill="#181818" points="337.6,232.144,340.8,224.944,337.6,228.144,334.4,224.944,337.6,232.144" style="stroke:#181818;stroke-width:0.8000000000000002;"/></g><!--reverse link Map to City--><g id="link_Map_City"><path codeLine="80" d="M761.4973,125.2257 C754.8653,148.2737 749.112,168.288 741.648,194.264 " fill="none" id="Map-backto-City" style="stroke:#181818;stroke-width:0.8000000000000002;"/><polygon fill="#181818" points="764.152,116,759.7495,119.7279,761.4973,125.2257,765.8999,121.4977,764.152,116" style="stroke:#181818;stroke-width:0.8000000000000002;"/><text fill="#000000" font-family="sans-serif" font-size="10.4" lengthAdjust="spacing" textLength="41.392" x="752.8" y="167.1176">contains</text><text fill="#000000" font-family="sans-serif" font-size="10.4" lengthAdjust="spacing" textLength="5.9488" x="756.633" y="133.7021">1</text><text fill="#000000" font-family="sans-serif" font-size="10.4" lengthAdjust="spacing" textLength="17.2536" x="725.8441" y="184.9557">1..*</text></g><!--reverse link City to HouseBlock--><g id="link_City_HouseBlock"><path codeLine="81" d="M642.531,330.4607 C618.379,351.5647 599.408,368.128 577.72,387.064 " fill="none" id="City-backto-HouseBlock" style="stroke:#181818;stroke-width:0.8000000000000002;"/><polygon fill="#181818" points="649.76,324.144,644.0399,324.8927,642.531,330.4607,648.2511,329.712,649.76,324.144" style="stroke:#181818;stroke-width:0.8000000000000002;"/><text fill="#000000" font-family="sans-serif" font-size="10.4" lengthAdjust="spacing" textLength="41.392" x="622.4" y="359.9176">contains</text><text fill="#000000" font-family="sans-serif" font-size="10.4" lengthAdjust="spacing" textLength="5.9488" x="637.164" y="341.8865">1</text><text fill="#000000" font-family="sans-serif" font-size="10.4" lengthAdjust="spacing" textLength="17.2536" x="566.4468" y="377.7282">1..*</text></g><!--SRC=[XLJ1Zjem4BtxAqPS2Wj1xHLLI9HMAb9PhOhs0qmoW8LZHxQXcrRxxnqx13kGtRqajkVDp9kPPpjTWTEmrSxf4WfXC7T2AyRiKQYA6rv2nVCZt-F6rHB1sxdQIqm0zi0B_KUeFUoujAb52eMkhX0gBMk_IMovvDOkd3DYUtAuohNQYBy8dnaB5bXKbHGvzsmsQ2tzu1y3oExFXoCw7-_HhPGbSZbU3vOdOr2vY7kz17-sQDAe2VX78Pms0Vi9rbme86hEQ2dHDAHRWaMn5AvUHciRQN7cGlAjn3Mlx704C_WbhFjAkxb7dBaK1NVuo4iSAleGO4DzK7iFtMejaQiKkDJQ54BHoWxpk2RmanRAlU7rU2gtQ9wq5KwSAL7O4lJUm_8p-bAwP2RmGQvNHXrAojzf0mTziWXRgVEZXP8h4av9JOqj- -a1tuBzjdE447lLs8RaU-9ohGkC6IT0HJJsfeu9fQXeIPqbjc4O7pF-ZPNlYJPrCqvi1ter2FBsZ4Xj53_1XqnntokxZaUGqILyn_MgbKOY3RFlkWnwwx3oWscKxwVJ3iVlNnOlmivW9pLt3TkwUv8TOhCl6epj3rACKq-d7UhWHN4PHJFDRYMH4QIKQ0OYj3uayz7dbrWXanzH4YUIQTlzKKbZYovwnMcdr-BIpETLtssbqoRLE3Ve7KUjA6HuKkn1L9QbpyDqtlCKiPxNoGFR9AoZfIoRtqn_1XsPiFktXAAbCVeH_gJVGkdOcxUDxD7mBYnDGAsB9KROdRat6FEQ6NmPm4EMqNywVHWqofw5vvLaRrdOts0IYIJ8_m00]--></g></svg>