<svg xmlns="http://www.w3.org/2000/svg" xmlns:xlink="http://www.w3.org/1999/xlink" contentStyleType="text/css" height="684px" preserveAspectRatio="none" style="width:1345px;height:684px;background:#FFFFFF;" version="1.1" viewBox="0 0 1345 684" width="1345px" zoomAndPan="magnify"><title>Class Diagram: US03 - Add a city</title><defs/><g><text fill="#000000" font-family="sans-serif" font-size="14" font-weight="bold" lengthAdjust="spacing" textLength="221.3811" x="555.135" y="24.9659">Class Diagram: US03 - Add a city</text><!--class ApplicationSession--><g id="elem_ApplicationSession"><rect codeLine="12" fill="#F1F1F1" height="105.2038" id="ApplicationSession" rx="2.5" ry="2.5" style="stroke:#181818;stroke-width:0.5;" width="155.4795" x="921.5" y="80.0679"/><ellipse cx="936.5" cy="96.0679" fill="#ADD1B2" rx="11" ry="11" style="stroke:#181818;stroke-width:1.0;"/><path d="M935.9688,102.9898 Q934.2188,102.9898 933.0781,102.2554 Q931.9531,101.5054 931.3906,100.1617 Q930.8438,98.8023 930.8438,97.0054 Q930.8438,94.9742 931.5,93.521 Q932.1563,92.0679 933.4375,91.2867 Q934.7188,90.5054 936.5938,90.5054 Q937.4844,90.5054 938.1563,90.6929 Q938.8281,90.8648 939.5156,91.2085 L938.7031,93.2242 Q938.0781,92.9117 937.5313,92.7867 Q937,92.6617 936.5156,92.6617 Q935.3438,92.6617 934.6406,93.1929 Q933.9375,93.7242 933.6406,94.6773 Q933.3438,95.6304 933.3438,96.896 Q933.3438,98.9117 934.0625,99.8804 Q934.7813,100.8335 936.375,100.8335 Q936.9688,100.8335 937.5938,100.6773 Q938.2188,100.521 939.0469,100.146 L939.0469,102.3648 Q938.3125,102.6773 937.5156,102.8335 Q936.7344,102.9898 935.9688,102.9898 Z " fill="#000000"/><text fill="#000000" font-family="sans-serif" font-size="14" lengthAdjust="spacing" textLength="123.4795" x="950.5" y="101.4999">ApplicationSession</text><line style="stroke:#181818;stroke-width:0.5;" x1="922.5" x2="1075.9795" y1="112.0679" y2="112.0679"/><line style="stroke:#181818;stroke-width:0.5;" x1="922.5" x2="1075.9795" y1="120.0679" y2="120.0679"/><text fill="#000000" font-family="sans-serif" font-size="14" lengthAdjust="spacing" textLength="136.3875" x="927.5" y="139.0339">-ApplicationSession()</text><text fill="#000000" font-family="sans-serif" font-size="14" lengthAdjust="spacing" textLength="94.2476" x="927.5" y="158.1018">+getInstance()</text><text fill="#000000" font-family="sans-serif" font-size="14" lengthAdjust="spacing" textLength="138.3615" x="927.5" y="177.1697">+getCurrentSession()</text></g><!--class AddCityController--><g id="elem_AddCityController"><rect codeLine="19" fill="#F1F1F1" height="143.3396" id="AddCityController" rx="2.5" ry="2.5" style="stroke:#181818;stroke-width:0.5;" width="518.742" x="207.5" y="61.0679"/><ellipse cx="404.1222" cy="77.0679" fill="#ADD1B2" rx="11" ry="11" style="stroke:#181818;stroke-width:1.0;"/><path d="M403.591,83.9898 Q401.841,83.9898 400.7003,83.2554 Q399.5753,82.5054 399.0128,81.1617 Q398.466,79.8023 398.466,78.0054 Q398.466,75.9742 399.1222,74.521 Q399.7785,73.0679 401.0597,72.2867 Q402.341,71.5054 404.216,71.5054 Q405.1066,71.5054 405.7785,71.6929 Q406.4503,71.8648 407.1378,72.2085 L406.3253,74.2242 Q405.7003,73.9117 405.1535,73.7867 Q404.6222,73.6617 404.1378,73.6617 Q402.966,73.6617 402.2628,74.1929 Q401.5597,74.7242 401.2628,75.6773 Q400.966,76.6304 400.966,77.896 Q400.966,79.9117 401.6847,80.8804 Q402.4035,81.8335 403.9972,81.8335 Q404.591,81.8335 405.216,81.6773 Q405.841,81.521 406.6691,81.146 L406.6691,83.3648 Q405.9347,83.6773 405.1378,83.8335 Q404.3566,83.9898 403.591,83.9898 Z " fill="#000000"/><text fill="#000000" font-family="sans-serif" font-size="14" lengthAdjust="spacing" textLength="116.9976" x="424.6222" y="82.4999">AddCityController</text><line style="stroke:#181818;stroke-width:0.5;" x1="208.5" x2="725.242" y1="93.0679" y2="93.0679"/><line style="stroke:#181818;stroke-width:0.5;" x1="208.5" x2="725.242" y1="101.0679" y2="101.0679"/><text fill="#000000" font-family="sans-serif" font-size="14" lengthAdjust="spacing" textLength="211.8612" x="213.5" y="120.0339">+getAvailableMaps() : List&lt;Map&gt;</text><text fill="#000000" font-family="sans-serif" font-size="14" lengthAdjust="spacing" textLength="244.8591" x="213.5" y="139.1018">+validateName(name : String) : string</text><text fill="#000000" font-family="sans-serif" font-size="14" lengthAdjust="spacing" textLength="328.4668" x="213.5" y="158.1697">+validateCoordinates(x : float, y : float) Coordinate</text><text fill="#000000" font-family="sans-serif" font-size="14" lengthAdjust="spacing" textLength="251.859" x="213.5" y="177.2376">+validateNumBlocks(number : int) : int</text><text fill="#000000" font-family="sans-serif" font-size="14" lengthAdjust="spacing" textLength="506.742" x="213.5" y="196.3055">+saveCity(name : String, coordinates : Point, houseBlocks : HouseBlock ) : City</text></g><!--class AddHouseBlocksController--><g id="elem_AddHouseBlocksController"><rect codeLine="28" fill="#F1F1F1" height="67.0679" id="AddHouseBlocksController" rx="2.5" ry="2.5" style="stroke:#181818;stroke-width:0.5;" width="312.3408" x="7" y="234.0679"/><ellipse cx="70.6577" cy="250.0679" fill="#ADD1B2" rx="11" ry="11" style="stroke:#181818;stroke-width:1.0;"/><path d="M70.1265,256.9898 Q68.3765,256.9898 67.2359,256.2554 Q66.1109,255.5054 65.5484,254.1617 Q65.0015,252.8023 65.0015,251.0054 Q65.0015,248.9742 65.6577,247.521 Q66.314,246.0679 67.5952,245.2867 Q68.8765,244.5054 70.7515,244.5054 Q71.6421,244.5054 72.314,244.6929 Q72.9859,244.8648 73.6734,245.2085 L72.8609,247.2242 Q72.2359,246.9117 71.689,246.7867 Q71.1577,246.6617 70.6734,246.6617 Q69.5015,246.6617 68.7984,247.1929 Q68.0952,247.7242 67.7984,248.6773 Q67.5015,249.6304 67.5015,250.896 Q67.5015,252.9117 68.2202,253.8804 Q68.939,254.8335 70.5327,254.8335 Q71.1265,254.8335 71.7515,254.6773 Q72.3765,254.521 73.2046,254.146 L73.2046,256.3648 Q72.4702,256.6773 71.6734,256.8335 Q70.8921,256.9898 70.1265,256.9898 Z " fill="#000000"/><text fill="#000000" font-family="sans-serif" font-size="14" lengthAdjust="spacing" textLength="176.5253" x="91.1577" y="255.4999">AddHouseBlocksController</text><line style="stroke:#181818;stroke-width:0.5;" x1="8" x2="318.3408" y1="266.0679" y2="266.0679"/><line style="stroke:#181818;stroke-width:0.5;" x1="8" x2="318.3408" y1="274.0679" y2="274.0679"/><text fill="#000000" font-family="sans-serif" font-size="14" lengthAdjust="spacing" textLength="300.3408" x="13" y="293.0339">+assignBlocks(numBlocks) : List&lt;HouseBlock&gt;</text></g><!--class Repositories--><g id="elem_Repositories"><rect codeLine="33" fill="#F1F1F1" height="105.2038" id="Repositories" rx="2.5" ry="2.5" style="stroke:#181818;stroke-width:0.5;" width="227.1512" x="1111.5" y="80.0679"/><ellipse cx="1180.0648" cy="96.0679" fill="#ADD1B2" rx="11" ry="11" style="stroke:#181818;stroke-width:1.0;"/><path d="M1179.5335,102.9898 Q1177.7835,102.9898 1176.6429,102.2554 Q1175.5179,101.5054 1174.9554,100.1617 Q1174.4085,98.8023 1174.4085,97.0054 Q1174.4085,94.9742 1175.0648,93.521 Q1175.721,92.0679 1177.0023,91.2867 Q1178.2835,90.5054 1180.1585,90.5054 Q1181.0491,90.5054 1181.721,90.6929 Q1182.3929,90.8648 1183.0804,91.2085 L1182.2679,93.2242 Q1181.6429,92.9117 1181.096,92.7867 Q1180.5648,92.6617 1180.0804,92.6617 Q1178.9085,92.6617 1178.2054,93.1929 Q1177.5023,93.7242 1177.2054,94.6773 Q1176.9085,95.6304 1176.9085,96.896 Q1176.9085,98.9117 1177.6273,99.8804 Q1178.346,100.8335 1179.9398,100.8335 Q1180.5335,100.8335 1181.1585,100.6773 Q1181.7835,100.521 1182.6116,100.146 L1182.6116,102.3648 Q1181.8773,102.6773 1181.0804,102.8335 Q1180.2991,102.9898 1179.5335,102.9898 Z " fill="#000000"/><text fill="#000000" font-family="sans-serif" font-size="14" lengthAdjust="spacing" textLength="81.5217" x="1200.5648" y="101.4999">Repositories</text><line style="stroke:#181818;stroke-width:0.5;" x1="1112.5" x2="1337.6512" y1="112.0679" y2="112.0679"/><text fill="#000000" font-family="sans-serif" font-size="14" lengthAdjust="spacing" textLength="215.1512" x="1117.5" y="131.0339">-mapRepository : MapRepository</text><line style="stroke:#181818;stroke-width:0.5;" x1="1112.5" x2="1337.6512" y1="139.1358" y2="139.1358"/><text fill="#000000" font-family="sans-serif" font-size="14" lengthAdjust="spacing" textLength="94.2476" x="1117.5" y="158.1018">+getInstance()</text><text fill="#000000" font-family="sans-serif" font-size="14" lengthAdjust="spacing" textLength="116.4096" x="1117.5" y="177.1697">+mapRepository()</text></g><!--class MapRepository--><g id="elem_MapRepository"><rect codeLine="39" fill="#F1F1F1" height="105.2038" id="MapRepository" rx="2.5" ry="2.5" style="stroke:#181818;stroke-width:0.5;" width="246.0651" x="714" y="359.5679"/><ellipse cx="782.9777" cy="375.5679" fill="#ADD1B2" rx="11" ry="11" style="stroke:#181818;stroke-width:1.0;"/><path d="M782.4465,382.4898 Q780.6965,382.4898 779.5559,381.7554 Q778.4309,381.0054 777.8684,379.6617 Q777.3215,378.3023 777.3215,376.5054 Q777.3215,374.4742 777.9777,373.021 Q778.634,371.5679 779.9152,370.7867 Q781.1965,370.0054 783.0715,370.0054 Q783.9621,370.0054 784.634,370.1929 Q785.3059,370.3648 785.9934,370.7085 L785.1809,372.7242 Q784.5559,372.4117 784.009,372.2867 Q783.4777,372.1617 782.9934,372.1617 Q781.8215,372.1617 781.1184,372.6929 Q780.4152,373.2242 780.1184,374.1773 Q779.8215,375.1304 779.8215,376.396 Q779.8215,378.4117 780.5402,379.3804 Q781.259,380.3335 782.8527,380.3335 Q783.4465,380.3335 784.0715,380.1773 Q784.6965,380.021 785.5246,379.646 L785.5246,381.8648 Q784.7902,382.1773 783.9934,382.3335 Q783.2121,382.4898 782.4465,382.4898 Z " fill="#000000"/><text fill="#000000" font-family="sans-serif" font-size="14" lengthAdjust="spacing" textLength="99.6096" x="803.4777" y="380.9999">MapRepository</text><line style="stroke:#181818;stroke-width:0.5;" x1="715" x2="959.0651" y1="391.5679" y2="391.5679"/><line style="stroke:#181818;stroke-width:0.5;" x1="715" x2="959.0651" y1="399.5679" y2="399.5679"/><text fill="#000000" font-family="sans-serif" font-size="14" lengthAdjust="spacing" textLength="73.8357" x="720" y="418.5339">+getMaps()</text><text fill="#000000" font-family="sans-serif" font-size="14" lengthAdjust="spacing" textLength="144.8855" x="720" y="437.6018">+saveMap(map : Map)</text><text fill="#000000" font-family="sans-serif" font-size="14" lengthAdjust="spacing" textLength="234.0651" x="720" y="456.6697">+getCurrentMap(cMap : Map) : Map</text></g><!--class City--><g id="elem_City"><rect codeLine="46" fill="#F1F1F1" height="162.4075" id="City" rx="2.5" ry="2.5" style="stroke:#181818;stroke-width:0.5;" width="262.557" x="335.5" y="331.0679"/><ellipse cx="450.2016" cy="347.0679" fill="#ADD1B2" rx="11" ry="11" style="stroke:#181818;stroke-width:1.0;"/><path d="M449.6703,353.9898 Q447.9203,353.9898 446.7797,353.2554 Q445.6547,352.5054 445.0922,351.1617 Q444.5453,349.8023 444.5453,348.0054 Q444.5453,345.9742 445.2016,344.521 Q445.8578,343.0679 447.1391,342.2867 Q448.4203,341.5054 450.2953,341.5054 Q451.1859,341.5054 451.8578,341.6929 Q452.5297,341.8648 453.2172,342.2085 L452.4047,344.2242 Q451.7797,343.9117 451.2328,343.7867 Q450.7016,343.6617 450.2172,343.6617 Q449.0453,343.6617 448.3422,344.1929 Q447.6391,344.7242 447.3422,345.6773 Q447.0453,346.6304 447.0453,347.896 Q447.0453,349.9117 447.7641,350.8804 Q448.4828,351.8335 450.0766,351.8335 Q450.6703,351.8335 451.2953,351.6773 Q451.9203,351.521 452.7484,351.146 L452.7484,353.3648 Q452.0141,353.6773 451.2172,353.8335 Q450.4359,353.9898 449.6703,353.9898 Z " fill="#000000"/><text fill="#000000" font-family="sans-serif" font-size="14" lengthAdjust="spacing" textLength="24.6539" x="470.7016" y="352.4999">City</text><line style="stroke:#181818;stroke-width:0.5;" x1="336.5" x2="597.057" y1="363.0679" y2="363.0679"/><text fill="#000000" font-family="sans-serif" font-size="14" lengthAdjust="spacing" textLength="88.7877" x="341.5" y="382.0339">-name: String</text><text fill="#000000" font-family="sans-serif" font-size="14" lengthAdjust="spacing" textLength="75.7817" x="341.5" y="401.1018">-xAxis: float</text><text fill="#000000" font-family="sans-serif" font-size="14" lengthAdjust="spacing" textLength="75.5157" x="341.5" y="420.1697">-yAxis: float</text><text fill="#000000" font-family="sans-serif" font-size="14" lengthAdjust="spacing" textLength="210.5592" x="341.5" y="439.2376">-houseBlocks: List&lt;HouseBlock&gt;</text><line style="stroke:#181818;stroke-width:0.5;" x1="336.5" x2="597.057" y1="447.3396" y2="447.3396"/><text fill="#000000" font-family="sans-serif" font-size="14" lengthAdjust="spacing" textLength="250.557" x="341.5" y="466.3055">+City(name , coordinate, houseBlocks)</text><text fill="#000000" font-family="sans-serif" font-size="14" lengthAdjust="spacing" textLength="125.1595" x="341.5" y="485.3734">+addBlocks(blocks)</text></g><!--class Map--><g id="elem_Map"><rect codeLine="55" fill="#F1F1F1" height="105.2038" id="Map" rx="2.5" ry="2.5" style="stroke:#181818;stroke-width:0.5;" width="124.5175" x="761.5" y="80.0679"/><ellipse cx="805.01" cy="96.0679" fill="#ADD1B2" rx="11" ry="11" style="stroke:#181818;stroke-width:1.0;"/><path d="M804.4788,102.9898 Q802.7288,102.9898 801.5882,102.2554 Q800.4632,101.5054 799.9007,100.1617 Q799.3538,98.8023 799.3538,97.0054 Q799.3538,94.9742 800.01,93.521 Q800.6663,92.0679 801.9475,91.2867 Q803.2288,90.5054 805.1038,90.5054 Q805.9944,90.5054 806.6663,90.6929 Q807.3382,90.8648 808.0257,91.2085 L807.2132,93.2242 Q806.5882,92.9117 806.0413,92.7867 Q805.51,92.6617 805.0257,92.6617 Q803.8538,92.6617 803.1507,93.1929 Q802.4475,93.7242 802.1507,94.6773 Q801.8538,95.6304 801.8538,96.896 Q801.8538,98.9117 802.5725,99.8804 Q803.2913,100.8335 804.885,100.8335 Q805.4788,100.8335 806.1038,100.6773 Q806.7288,100.521 807.5569,100.146 L807.5569,102.3648 Q806.8225,102.6773 806.0257,102.8335 Q805.2444,102.9898 804.4788,102.9898 Z " fill="#000000"/><text fill="#000000" font-family="sans-serif" font-size="14" lengthAdjust="spacing" textLength="29.1619" x="825.3456" y="101.4999">Map</text><line style="stroke:#181818;stroke-width:0.5;" x1="762.5" x2="885.0175" y1="112.0679" y2="112.0679"/><text fill="#000000" font-family="sans-serif" font-size="14" lengthAdjust="spacing" textLength="92.4276" x="767.5" y="131.0339">-name : String</text><text fill="#000000" font-family="sans-serif" font-size="14" lengthAdjust="spacing" textLength="112.5175" x="767.5" y="150.1018">-cities : List&lt;City&gt;</text><line style="stroke:#181818;stroke-width:0.5;" x1="762.5" x2="885.0175" y1="158.2038" y2="158.2038"/><text fill="#000000" font-family="sans-serif" font-size="14" lengthAdjust="spacing" textLength="88.6617" x="767.5" y="177.1697">+addCity(city)</text></g><!--class HouseBlock--><g id="elem_HouseBlock"><rect codeLine="61" fill="#F1F1F1" height="105.2038" id="HouseBlock" rx="2.5" ry="2.5" style="stroke:#181818;stroke-width:0.5;" width="276.613" x="132.5" y="572.0679"/><ellipse cx="227.8187" cy="588.0679" fill="#ADD1B2" rx="11" ry="11" style="stroke:#181818;stroke-width:1.0;"/><path d="M227.2874,594.9898 Q225.5374,594.9898 224.3968,594.2554 Q223.2718,593.5054 222.7093,592.1617 Q222.1624,590.8023 222.1624,589.0054 Q222.1624,586.9742 222.8187,585.521 Q223.4749,584.0679 224.7562,583.2867 Q226.0374,582.5054 227.9124,582.5054 Q228.803,582.5054 229.4749,582.6929 Q230.1468,582.8648 230.8343,583.2085 L230.0218,585.2242 Q229.3968,584.9117 228.8499,584.7867 Q228.3187,584.6617 227.8343,584.6617 Q226.6624,584.6617 225.9593,585.1929 Q225.2562,585.7242 224.9593,586.6773 Q224.6624,587.6304 224.6624,588.896 Q224.6624,590.9117 225.3812,591.8804 Q226.0999,592.8335 227.6937,592.8335 Q228.2874,592.8335 228.9124,592.6773 Q229.5374,592.521 230.3655,592.146 L230.3655,594.3648 Q229.6312,594.6773 228.8343,594.8335 Q228.053,594.9898 227.2874,594.9898 Z " fill="#000000"/><text fill="#000000" font-family="sans-serif" font-size="14" lengthAdjust="spacing" textLength="77.4757" x="248.3187" y="593.4999">HouseBlock</text><line style="stroke:#181818;stroke-width:0.5;" x1="133.5" x2="408.113" y1="604.0679" y2="604.0679"/><text fill="#000000" font-family="sans-serif" font-size="14" lengthAdjust="spacing" textLength="75.7817" x="138.5" y="623.0339">-xAxis: float</text><text fill="#000000" font-family="sans-serif" font-size="14" lengthAdjust="spacing" textLength="75.5157" x="138.5" y="642.1018">-yAxis: float</text><line style="stroke:#181818;stroke-width:0.5;" x1="133.5" x2="408.113" y1="650.2038" y2="650.2038"/><text fill="#000000" font-family="sans-serif" font-size="14" lengthAdjust="spacing" textLength="264.613" x="138.5" y="669.1697">+setHouseBlockCoordinate(coordinates)</text></g><!--class AddCityUI--><g id="elem_AddCityUI"><rect codeLine="68" fill="#F1F1F1" height="48" id="AddCityUI" rx="2.5" ry="2.5" style="stroke:#181818;stroke-width:0.5;" width="97.7998" x="74" y="108.5679"/><ellipse cx="89" cy="124.5679" fill="#ADD1B2" rx="11" ry="11" style="stroke:#181818;stroke-width:1.0;"/><path d="M88.4688,131.4898 Q86.7188,131.4898 85.5781,130.7554 Q84.4531,130.0054 83.8906,128.6617 Q83.3438,127.3023 83.3438,125.5054 Q83.3438,123.4742 84,122.021 Q84.6563,120.5679 85.9375,119.7867 Q87.2188,119.0054 89.0938,119.0054 Q89.9844,119.0054 90.6563,119.1929 Q91.3281,119.3648 92.0156,119.7085 L91.2031,121.7242 Q90.5781,121.4117 90.0313,121.2867 Q89.5,121.1617 89.0156,121.1617 Q87.8438,121.1617 87.1406,121.6929 Q86.4375,122.2242 86.1406,123.1773 Q85.8438,124.1304 85.8438,125.396 Q85.8438,127.4117 86.5625,128.3804 Q87.2813,129.3335 88.875,129.3335 Q89.4688,129.3335 90.0938,129.1773 Q90.7188,129.021 91.5469,128.646 L91.5469,130.8648 Q90.8125,131.1773 90.0156,131.3335 Q89.2344,131.4898 88.4688,131.4898 Z " fill="#000000"/><text fill="#000000" font-family="sans-serif" font-size="14" lengthAdjust="spacing" textLength="65.7998" x="103" y="129.9999">AddCityUI</text><line style="stroke:#181818;stroke-width:0.5;" x1="75" x2="170.7998" y1="140.5679" y2="140.5679"/><line style="stroke:#181818;stroke-width:0.5;" x1="75" x2="170.7998" y1="148.5679" y2="148.5679"/></g><!--link AddCityController to ApplicationSession--><g id="link_AddCityController_ApplicationSession"><path codeLine="72" d="M710.54,61.0379 C740.87,52.1279 761.5,46.0679 761.5,46.0679 C761.5,46.0679 886.5,46.0679 886.5,46.0679 C886.5,46.0679 902.323,58.2413 925.883,76.3513 " fill="none" id="AddCityController-to-ApplicationSession" style="stroke:#181818;stroke-width:1.0;stroke-dasharray:7.0,7.0;"/><polygon fill="#181818" points="930.64,80.0079,925.9422,71.3517,926.6758,76.9607,921.0667,77.6944,930.64,80.0079" style="stroke:#181818;stroke-width:1.0;"/></g><!--link Repositories to MapRepository--><g id="link_Repositories_MapRepository"><path codeLine="73" d="M1152.93,185.1179 C1083.35,234.8779 983.4499,306.317 913.8899,356.077 " fill="none" id="Repositories-to-MapRepository" style="stroke:#181818;stroke-width:1.0;"/><polygon fill="#181818" points="909.01,359.5679,918.6572,357.5849,913.0766,356.6589,914.0026,351.0783,909.01,359.5679" style="stroke:#181818;stroke-width:1.0;"/><text fill="#000000" font-family="sans-serif" font-size="13" lengthAdjust="spacing" textLength="92.8591" x="1078" y="272.9649">mapRepository</text></g><!--link AddCityController to Repositories--><g id="link_AddCityController_Repositories"><path codeLine="74" d="M710.54,61.0379 C740.87,52.1279 761.5,46.0679 761.5,46.0679 C761.5,46.0679 1076.5,46.0679 1076.5,46.0679 C1076.5,46.0679 1098.4855,58.8779 1129.5755,76.9879 " fill="none" id="AddCityController-to-Repositories" style="stroke:#181818;stroke-width:1.0;stroke-dasharray:7.0,7.0;"/><polygon fill="#181818" points="1134.76,80.0079,1128.9965,72.0215,1130.4395,77.4912,1124.9698,78.9343,1134.76,80.0079" style="stroke:#181818;stroke-width:1.0;"/></g><!--link AddCityController to City--><g id="link_AddCityController_City"><path codeLine="75" d="M467,204.3079 C467,242.8479 467,284.6879 467,324.6379 " fill="none" id="AddCityController-to-City" style="stroke:#181818;stroke-width:1.0;stroke-dasharray:7.0,7.0;"/><polygon fill="#181818" points="467,330.6379,471,321.6379,467,325.6379,463,321.6379,467,330.6379" style="stroke:#181818;stroke-width:1.0;"/></g><!--link AddCityController to Map--><g id="link_AddCityController_Map"><path codeLine="76" d="M726.55,132.5679 C736.46,132.5679 742.79,132.5679 755.3,132.5679 " fill="none" id="AddCityController-to-Map" style="stroke:#181818;stroke-width:1.0;stroke-dasharray:7.0,7.0;"/><polygon fill="#181818" points="761.3,132.5679,752.3,128.5679,756.3,132.5679,752.3,136.5679,761.3,132.5679" style="stroke:#181818;stroke-width:1.0;"/></g><!--link AddCityController to MapRepository--><g id="link_AddCityController_MapRepository"><path codeLine="77" d="M531.02,204.1179 C572.56,249.8979 619,301.0679 619,301.0679 C619,301.0679 672.7033,328.165 729.3433,356.745 " fill="none" id="AddCityController-to-MapRepository" style="stroke:#181818;stroke-width:1.0;stroke-dasharray:7.0,7.0;"/><polygon fill="#181818" points="734.7,359.4479,728.4669,351.8224,730.2361,357.1955,724.863,358.9646,734.7,359.4479" style="stroke:#181818;stroke-width:1.0;"/></g><!--link AddHouseBlocksController to HouseBlock--><g id="link_AddHouseBlocksController_HouseBlock"><path codeLine="78" d="M172.97,301.3279 C191.79,363.2079 230.9642,491.9575 253.5242,566.1375 " fill="none" id="AddHouseBlocksController-to-HouseBlock" style="stroke:#181818;stroke-width:1.0;stroke-dasharray:7.0,7.0;"/><polygon fill="#181818" points="255.27,571.8779,256.4782,562.1035,253.8152,567.0943,248.8244,564.4312,255.27,571.8779" style="stroke:#181818;stroke-width:1.0;"/></g><!--link AddCityUI to AddCityController--><g id="link_AddCityUI_AddCityController"><path codeLine="79" d="M172.29,132.5679 C184.19,132.5679 190.56,132.5679 201.3,132.5679 " fill="none" id="AddCityUI-to-AddCityController" style="stroke:#181818;stroke-width:1.0;stroke-dasharray:7.0,7.0;"/><polygon fill="#181818" points="207.3,132.5679,198.3,128.5679,202.3,132.5679,198.3,136.5679,207.3,132.5679" style="stroke:#181818;stroke-width:1.0;"/></g><!--link AddCityUI to AddHouseBlocksController--><g id="link_AddCityUI_AddHouseBlocksController"><path codeLine="80" d="M129.97,156.7379 C136.39,178.0979 144.2613,204.2723 151.4613,228.2023 " fill="none" id="AddCityUI-to-AddHouseBlocksController" style="stroke:#181818;stroke-width:1.0;stroke-dasharray:7.0,7.0;"/><polygon fill="#181818" points="153.19,233.9479,154.4273,224.1771,151.7494,229.1599,146.7666,226.482,153.19,233.9479" style="stroke:#181818;stroke-width:1.0;"/></g><!--reverse link Map to City--><g id="link_Map_City"><path codeLine="81" d="M756.4366,193.1113 C744.2366,203.8613 744,204.0679 744,204.0679 C744,204.0679 652.04,272.7879 574.1,331.0379 " fill="none" id="Map-backto-City" style="stroke:#181818;stroke-width:1.0;"/><polygon fill="#181818" points="765.44,185.1779,758.2938,186.1434,756.4366,193.1113,763.5827,192.1457,765.44,185.1779" style="stroke:#181818;stroke-width:1.0;"/><text fill="#000000" font-family="sans-serif" font-size="13" lengthAdjust="spacing" textLength="51.7401" x="705" y="272.9649">contains</text><text fill="#000000" font-family="sans-serif" font-size="13" lengthAdjust="spacing" textLength="7.436" x="750.1624" y="207.3203">1</text><text fill="#000000" font-family="sans-serif" font-size="13" lengthAdjust="spacing" textLength="21.567" x="562.6588" y="319.1365">1..*</text></g><!--reverse link City to HouseBlock--><g id="link_City_HouseBlock"><path codeLine="82" d="M384.1631,502.0308 C359.6031,528.4108 341.15,548.2279 319.11,571.8979 " fill="none" id="City-backto-HouseBlock" style="stroke:#181818;stroke-width:1.0;"/><polygon fill="#181818" points="392.34,493.2479,385.3239,494.9137,384.1631,502.0308,391.1792,500.365,392.34,493.2479" style="stroke:#181818;stroke-width:1.0;"/><text fill="#000000" font-family="sans-serif" font-size="13" lengthAdjust="spacing" textLength="51.7401" x="365" y="537.9649">contains</text><text fill="#000000" font-family="sans-serif" font-size="13" lengthAdjust="spacing" textLength="7.436" x="378.1751" y="515.4261">1</text><text fill="#000000" font-family="sans-serif" font-size="13" lengthAdjust="spacing" textLength="21.567" x="303.466" y="560.2282">1..*</text></g><!--SRC=[XLJBZfim5DtxAwwo6J8JegcwGrMaDBEOI4rLDPeFCE0GAyP6s4b3e_vxhp5War1rWn_t-DpNkHXLWL6GAcDK2JclMMQuaeJe4vSLhMa95SrEj61xqmW6ravb8LW0q4UQgrzS5d2WGeSMmIKpJSMWKgAnXy2M2QhrsfYQfsV3jfcIU_wRmIiXXXlqjB5sUEEqG7G27_lNpn33Ei-1GiPDGqZB0Ekg4ZoZDkezqneNk160-F4-ckFzIy7CLcfC8cF3nUPSrqmQZ_j3o1FiA9U0SPbQ2S5g5t7lDSyt6CJ6MsyTr_f2kQ2fO3jQwMWE2NpZsdp1qyeYBbJmd1hsdPOialX1m1wB80iBrUqkn6sKgdCkSQUZAo8EGb6pWARVpi4ZHlpdygjGsKb7yboc65y2N9gvMonGqmkpAOo3M632WqEy_Q4Gle2ZEclc-F3oVJY19RGihc91EGwgTgyWTSzAAb559PRPbz0JwVjA8e8NqgVWTaCv_SkLS_sJLKfpe-h6zOdrdHeC71EorAYDabO1Fi5E1-T9aOnUE84u-j7JGGIkztsPyHGXWNDqfpbhotQ3qIqkfJTLjWeSfMEBxGHk-zQtpPwlwolNdIfScitu9WwwE5563Clh8TJ1gFrj-3JFkywatMLO3nyUXF7XqF9MKwrdwshLSRLkxKm7F876kgRzBxyNpOn_vQSY2XJTJVR7TcgOyVRMYqcqFmvzv9KcZxE-N4tyTiX8QN6ykjD60YCHJTE67DE8TjecBLOu_pAC_KxF7IAzWVYYs6plQH_CavJ4gc7sQGRFSOphSlaySm9EslyggbkJzdo72PeV8Fy2]--></g></svg>