<svg xmlns="http://www.w3.org/2000/svg" xmlns:xlink="http://www.w3.org/1999/xlink" contentStyleType="text/css" height="494px" preserveAspectRatio="none" style="width:722px;height:494px;background:#FFFFFF;" version="1.1" viewBox="0 0 722 494" width="722px" zoomAndPan="magnify"><title>System Sequence Diagram : Ref - Get available maps</title><defs/><g><text fill="#000000" font-family="sans-serif" font-size="14" font-weight="bold" lengthAdjust="spacing" textLength="363.7047" x="180.9394" y="29.9659">System Sequence Diagram : Ref - Get available maps</text><rect fill="#FFFFFF" height="311.0602" style="stroke:#181818;stroke-width:1.0;" width="10" x="146.4481" y="108.2038"/><rect fill="#FFFFFF" height="31.706" style="stroke:#181818;stroke-width:1.0;" width="10" x="377.1054" y="285.4398"/><rect fill="#FFFFFF" height="31.706" style="stroke:#181818;stroke-width:1.0;" width="10" x="495.4231" y="348.8519"/><rect fill="#FFFFFF" height="31.706" style="stroke:#181818;stroke-width:1.0;" width="10" x="632.8437" y="222.0278"/><rect fill="none" height="209.9421" style="stroke:#000000;stroke-width:1.5;" width="640.6341" x="75.9493" y="178.6158"/><line style="stroke:#181818;stroke-width:0.5;stroke-dasharray:5.0,5.0;" x1="150.9493" x2="150.9493" y1="98.2038" y2="437.2639"/><line style="stroke:#181818;stroke-width:0.5;stroke-dasharray:5.0,5.0;" x1="273.9469" x2="273.9469" y1="98.2038" y2="437.2639"/><line style="stroke:#181818;stroke-width:0.5;stroke-dasharray:5.0,5.0;" x1="381.4686" x2="381.4686" y1="98.2038" y2="437.2639"/><line style="stroke:#181818;stroke-width:0.5;stroke-dasharray:5.0,5.0;" x1="499.7423" x2="499.7423" y1="98.2038" y2="437.2639"/><line style="stroke:#181818;stroke-width:0.5;stroke-dasharray:5.0,5.0;" x1="637.1039" x2="637.1039" y1="98.2038" y2="437.2639"/><rect fill="#E3E3E3" height="33.0679" rx="2.5" ry="2.5" style="stroke:#181818;stroke-width:0.5;" width="130.9976" x="85.9493" y="64.1358"/><text fill="#000000" font-family="sans-serif" font-size="14" lengthAdjust="spacing" textLength="116.9976" x="92.9493" y="86.1018">AddCityController</text><rect fill="#E3E3E3" height="33.0679" rx="2.5" ry="2.5" style="stroke:#181818;stroke-width:0.5;" width="130.9976" x="85.9493" y="436.2639"/><text fill="#000000" font-family="sans-serif" font-size="14" lengthAdjust="spacing" textLength="116.9976" x="92.9493" y="458.2299">AddCityController</text><rect fill="#E3E3E3" height="33.0679" rx="2.5" ry="2.5" style="stroke:#181818;stroke-width:0.5;" width="95.5217" x="226.9469" y="64.1358"/><text fill="#000000" font-family="sans-serif" font-size="14" lengthAdjust="spacing" textLength="81.5217" x="233.9469" y="86.1018">Repositories</text><rect fill="#E3E3E3" height="33.0679" rx="2.5" ry="2.5" style="stroke:#181818;stroke-width:0.5;" width="95.5217" x="226.9469" y="436.2639"/><text fill="#000000" font-family="sans-serif" font-size="14" lengthAdjust="spacing" textLength="81.5217" x="233.9469" y="458.2299">Repositories</text><rect fill="#E3E3E3" height="52.1358" rx="2.5" ry="2.5" style="stroke:#181818;stroke-width:0.5;" width="99.2737" x="332.4686" y="45.0679"/><text fill="#000000" font-family="sans-serif" font-size="14" lengthAdjust="spacing" textLength="78.5957" x="342.8076" y="67.0339">repositories</text><text fill="#000000" font-family="sans-serif" font-size="14" lengthAdjust="spacing" textLength="85.2737" x="339.4686" y="86.1018">:Repositories</text><rect fill="#E3E3E3" height="52.1358" rx="2.5" ry="2.5" style="stroke:#181818;stroke-width:0.5;" width="99.2737" x="332.4686" y="436.2639"/><text fill="#000000" font-family="sans-serif" font-size="14" lengthAdjust="spacing" textLength="78.5957" x="342.8076" y="458.2299">repositories</text><text fill="#000000" font-family="sans-serif" font-size="14" lengthAdjust="spacing" textLength="85.2737" x="339.4686" y="477.2978">:Repositories</text><rect fill="#E3E3E3" height="52.1358" rx="2.5" ry="2.5" style="stroke:#181818;stroke-width:0.5;" width="117.3616" x="441.7423" y="45.0679"/><text fill="#000000" font-family="sans-serif" font-size="14" lengthAdjust="spacing" textLength="100.0016" x="450.4223" y="67.0339">mapRepository</text><text fill="#000000" font-family="sans-serif" font-size="14" lengthAdjust="spacing" textLength="103.3616" x="448.7423" y="86.1018">:MapRepository</text><rect fill="#E3E3E3" height="52.1358" rx="2.5" ry="2.5" style="stroke:#181818;stroke-width:0.5;" width="117.3616" x="441.7423" y="436.2639"/><text fill="#000000" font-family="sans-serif" font-size="14" lengthAdjust="spacing" textLength="100.0016" x="450.4223" y="458.2299">mapRepository</text><text fill="#000000" font-family="sans-serif" font-size="14" lengthAdjust="spacing" textLength="103.3616" x="448.7423" y="477.2978">:MapRepository</text><rect fill="#E3E3E3" height="33.0679" rx="2.5" ry="2.5" style="stroke:#181818;stroke-width:0.5;" width="137.4795" x="569.1039" y="64.1358"/><text fill="#000000" font-family="sans-serif" font-size="14" lengthAdjust="spacing" textLength="123.4795" x="576.1039" y="86.1018">ApplicationSession</text><rect fill="#E3E3E3" height="33.0679" rx="2.5" ry="2.5" style="stroke:#181818;stroke-width:0.5;" width="137.4795" x="569.1039" y="436.2639"/><text fill="#000000" font-family="sans-serif" font-size="14" lengthAdjust="spacing" textLength="123.4795" x="576.1039" y="458.2299">ApplicationSession</text><rect fill="#FFFFFF" height="311.0602" style="stroke:#181818;stroke-width:1.0;" width="10" x="146.4481" y="108.2038"/><rect fill="#FFFFFF" height="31.706" style="stroke:#181818;stroke-width:1.0;" width="10" x="377.1054" y="285.4398"/><rect fill="#FFFFFF" height="31.706" style="stroke:#181818;stroke-width:1.0;" width="10" x="495.4231" y="348.8519"/><rect fill="#FFFFFF" height="31.706" style="stroke:#181818;stroke-width:1.0;" width="10" x="632.8437" y="222.0278"/><polygon fill="#181818" points="134.4481,127.9098,144.4481,131.9098,134.4481,135.9098,138.4481,131.9098" style="stroke:#181818;stroke-width:1.0;"/><line style="stroke:#181818;stroke-width:1.0;stroke-dasharray:2.0,2.0;" x1="0" x2="140.4481" y1="131.9098" y2="131.9098"/><text fill="#000000" font-family="sans-serif" font-size="13" font-weight="bold" lengthAdjust="spacing" textLength="7.436" x="7" y="126.1008">1</text><text fill="#000000" font-family="sans-serif" font-size="13" lengthAdjust="spacing" textLength="53.9761" x="18.436" y="126.1008">addCity()</text><polygon fill="#181818" points="134.4481,159.6158,144.4481,163.6158,134.4481,167.6158,138.4481,163.6158" style="stroke:#181818;stroke-width:1.0;"/><line style="stroke:#181818;stroke-width:1.0;stroke-dasharray:2.0,2.0;" x1="0" x2="140.4481" y1="163.6158" y2="163.6158"/><text fill="#000000" font-family="sans-serif" font-size="13" font-weight="bold" lengthAdjust="spacing" textLength="7.436" x="7" y="157.8068">2</text><text fill="#000000" font-family="sans-serif" font-size="13" lengthAdjust="spacing" textLength="116.0121" x="18.436" y="157.8068">getAvailableMaps()</text><path d="M75.9493,178.6158 L238.1574,178.6158 L238.1574,188.3218 L228.1574,198.3218 L75.9493,198.3218 L75.9493,178.6158 " fill="#EEEEEE" style="stroke:#000000;stroke-width:1.5;"/><rect fill="none" height="209.9421" style="stroke:#000000;stroke-width:1.5;" width="640.6341" x="75.9493" y="178.6158"/><text fill="#000000" font-family="sans-serif" font-size="13" font-weight="bold" lengthAdjust="spacing" textLength="117.2081" x="90.9493" y="193.5128">GetAvailableMaps</text><polygon fill="#181818" points="620.8437,218.0278,630.8437,222.0278,620.8437,226.0278,624.8437,222.0278" style="stroke:#181818;stroke-width:1.0;"/><line style="stroke:#181818;stroke-width:1.0;" x1="156.4481" x2="626.8437" y1="222.0278" y2="222.0278"/><text fill="#000000" font-family="sans-serif" font-size="13" font-weight="bold" lengthAdjust="spacing" textLength="7.436" x="163.4481" y="216.2188">3</text><text fill="#000000" font-family="sans-serif" font-size="13" lengthAdjust="spacing" textLength="80.0801" x="174.8841" y="216.2188">getInstance()</text><polygon fill="#181818" points="167.4481,249.7338,157.4481,253.7338,167.4481,257.7338,163.4481,253.7338" style="stroke:#181818;stroke-width:1.0;"/><line style="stroke:#181818;stroke-width:1.0;stroke-dasharray:2.0,2.0;" x1="161.4481" x2="636.8437" y1="253.7338" y2="253.7338"/><text fill="#000000" font-family="sans-serif" font-size="13" font-weight="bold" lengthAdjust="spacing" textLength="7.436" x="173.4481" y="247.9248">4</text><text fill="#000000" font-family="sans-serif" font-size="13" lengthAdjust="spacing" textLength="69.4591" x="184.8841" y="247.9248">appSession</text><polygon fill="#181818" points="365.1054,281.4398,375.1054,285.4398,365.1054,289.4398,369.1054,285.4398" style="stroke:#181818;stroke-width:1.0;"/><line style="stroke:#181818;stroke-width:1.0;" x1="156.4481" x2="371.1054" y1="285.4398" y2="285.4398"/><text fill="#000000" font-family="sans-serif" font-size="13" font-weight="bold" lengthAdjust="spacing" textLength="7.436" x="163.4481" y="279.6308">5</text><text fill="#000000" font-family="sans-serif" font-size="13" lengthAdjust="spacing" textLength="120.3151" x="174.8841" y="279.6308">getMapRepository()</text><polygon fill="#181818" points="167.4481,313.1459,157.4481,317.1459,167.4481,321.1459,163.4481,317.1459" style="stroke:#181818;stroke-width:1.0;"/><line style="stroke:#181818;stroke-width:1.0;stroke-dasharray:2.0,2.0;" x1="161.4481" x2="381.1054" y1="317.1459" y2="317.1459"/><text fill="#000000" font-family="sans-serif" font-size="13" font-weight="bold" lengthAdjust="spacing" textLength="7.436" x="173.4481" y="311.3369">6</text><text fill="#000000" font-family="sans-serif" font-size="13" lengthAdjust="spacing" textLength="92.8591" x="184.8841" y="311.3369">mapRepository</text><polygon fill="#181818" points="483.4231,344.8519,493.4231,348.8519,483.4231,352.8519,487.4231,348.8519" style="stroke:#181818;stroke-width:1.0;"/><line style="stroke:#181818;stroke-width:1.0;" x1="156.4481" x2="489.4231" y1="348.8519" y2="348.8519"/><text fill="#000000" font-family="sans-serif" font-size="13" font-weight="bold" lengthAdjust="spacing" textLength="7.436" x="163.4481" y="343.0429">7</text><text fill="#000000" font-family="sans-serif" font-size="13" lengthAdjust="spacing" textLength="61.1261" x="174.8841" y="343.0429">getMaps()</text><polygon fill="#181818" points="167.4481,376.5579,157.4481,380.5579,167.4481,384.5579,163.4481,380.5579" style="stroke:#181818;stroke-width:1.0;"/><line style="stroke:#181818;stroke-width:1.0;stroke-dasharray:2.0,2.0;" x1="161.4481" x2="499.4231" y1="380.5579" y2="380.5579"/><text fill="#000000" font-family="sans-serif" font-size="13" font-weight="bold" lengthAdjust="spacing" textLength="7.436" x="173.4481" y="374.7489">8</text><text fill="#000000" font-family="sans-serif" font-size="13" lengthAdjust="spacing" textLength="54.7561" x="184.8841" y="374.7489">mapsList</text><polygon fill="#181818" points="11,415.2639,1,419.2639,11,423.2639,7,419.2639" style="stroke:#181818;stroke-width:1.0;"/><line style="stroke:#181818;stroke-width:1.0;stroke-dasharray:2.0,2.0;" x1="5" x2="150.4481" y1="419.2639" y2="419.2639"/><text fill="#000000" font-family="sans-serif" font-size="13" font-weight="bold" lengthAdjust="spacing" textLength="7.436" x="17" y="413.4549">9</text><text fill="#000000" font-family="sans-serif" font-size="13" lengthAdjust="spacing" textLength="54.7561" x="28.436" y="413.4549">mapsList</text><!--SRC=[XPBBRi8m44Nt_eeHgtQH7q1LfOWYX5GUmbrMGaCo18l4Tkq95NzVX_9mGcYzYJ9px_Mnntwlj4M75LH6cspdJ4N0hYRXhnsBsHuBadmi2HnbZBeeOu7VOMw-bIvWYwKdWJKRNLSRSaAmuk2IHyzKWQIlcdH6yAQmQ9n3MD4M4fWG0nvGbRW9wWgj5o9aiygKHSsGvlb8yN5aD3jJbY4uxgx86g_OE4M-rHYugFEfXx5m0EXXDLukv5fEvvFtySTYtZO7ZAlX6Dop-3-opz9bsvXQMweCMHajoVlmEQdJvN8jnr9EmqP2OCRgW4mzPqkIr_lg4F2tzFJyI50GfvTB3B0-A4NXJ6sR-srr18Hrbm1Dx0to53ZLFimxev3LU6xKqM7WlA8QF3g3jUShERbowWryZDSPs0cnDPSkPtV25zPE_H5lwmrqaRlP_s67Xt81zlsSpLDg4uRA7sp-NNdknsgYIEVY9KdkaI9pF8AkxWS0]--></g></svg>