<svg xmlns="http://www.w3.org/2000/svg" xmlns:xlink="http://www.w3.org/1999/xlink" contentStyleType="text/css" height="817.2px" preserveAspectRatio="none" style="width:633px;height:817px;background:#FFFFFF;" version="1.1" viewBox="0 0 633 817" width="633px" zoomAndPan="magnify"><title>System Sequence Diagram : US03 - Add a city</title><defs/><g><text fill="#000000" font-family="sans-serif" font-size="8.4" font-weight="bold" lengthAdjust="spacing" textLength="183.9305" x="225.2385" y="18.0645">System Sequence Diagram : US03 - Add a city</text><rect fill="#FFFFFF" height="682.2234" style="stroke:#181818;stroke-width:0.6;" width="6" x="12.7717" y="79.9453"/><rect fill="#FFFFFF" height="85.275" style="stroke:#181818;stroke-width:0.6;" width="6" x="297.443" y="93.9199"/><rect fill="#FFFFFF" height="18.7746" style="stroke:#181818;stroke-width:0.6;" width="6" x="297.443" y="197.9695"/><rect fill="#FFFFFF" height="18.7746" style="stroke:#181818;stroke-width:0.6;" width="6" x="297.443" y="235.5187"/><rect fill="#FFFFFF" height="160.3734" style="stroke:#181818;stroke-width:0.6;" width="6" x="297.443" y="273.068"/><rect fill="#FFFFFF" height="181.7285" style="stroke:#181818;stroke-width:0.6;" width="6" x="297.443" y="452.216"/><rect fill="#FFFFFF" height="104.0496" style="stroke:#181818;stroke-width:0.6;" width="6" x="297.443" y="652.7191"/><rect fill="#FFFFFF" height="66.5004" style="stroke:#181818;stroke-width:0.6;" width="6" x="468.1128" y="93.9199"/><rect fill="#FFFFFF" height="18.7746" style="stroke:#181818;stroke-width:0.6;" width="6" x="468.1128" y="291.8426"/><rect fill="#FFFFFF" height="47.7258" style="stroke:#181818;stroke-width:0.6;" width="6" x="468.1128" y="329.3918"/><rect fill="#FFFFFF" height="18.7746" style="stroke:#181818;stroke-width:0.6;" width="6" x="468.1128" y="395.8922"/><rect fill="#FFFFFF" height="47.7258" style="stroke:#181818;stroke-width:0.6;" width="6" x="468.1128" y="671.4938"/><rect fill="#FFFFFF" height="47.7258" style="stroke:#181818;stroke-width:0.6;" width="6" x="565.6166" y="486.7652"/><rect fill="#FFFFFF" height="47.7258" style="stroke:#181818;stroke-width:0.6;" width="6" x="565.6166" y="563.2441"/><rect fill="none" height="154.5539" style="stroke:#000000;stroke-width:0.8999999999999999;" width="357.6706" x="271.3368" y="461.216"/><line style="stroke:#181818;stroke-width:0.3;stroke-dasharray:5.0,5.0;" x1="15.6" x2="15.6" y1="73.9453" y2="767.5688"/><line style="stroke:#181818;stroke-width:0.3;stroke-dasharray:5.0,5.0;" x1="300.1368" x2="300.1368" y1="73.9453" y2="767.5688"/><line style="stroke:#181818;stroke-width:0.3;stroke-dasharray:5.0,5.0;" x1="470.5998" x2="470.5998" y1="73.9453" y2="767.5688"/><line style="stroke:#181818;stroke-width:0.3;stroke-dasharray:5.0,5.0;" x1="568.2258" x2="568.2258" y1="73.9453" y2="767.5688"/><text fill="#000000" font-family="sans-serif" font-size="8.4" lengthAdjust="spacing" textLength="21.9434" x="3" y="71.8371">Editor</text><ellipse cx="15.7717" cy="31.8727" fill="#E3E3E3" rx="4.8" ry="4.8" style="stroke:#181818;stroke-width:0.3;"/><path d="M15.7717,36.6727 L15.7717,52.8727 M7.9717,41.4727 L23.5717,41.4727 M15.7717,52.8727 L7.9717,61.8727 M15.7717,52.8727 L23.5717,61.8727 " fill="none" style="stroke:#181818;stroke-width:0.3;"/><text fill="#000000" font-family="sans-serif" font-size="8.4" lengthAdjust="spacing" textLength="21.9434" x="3" y="776.0332">Editor</text><ellipse cx="15.7717" cy="783.2414" fill="#E3E3E3" rx="4.8" ry="4.8" style="stroke:#181818;stroke-width:0.3;"/><path d="M15.7717,788.0414 L15.7717,804.2414 M7.9717,792.8414 L23.5717,792.8414 M15.7717,804.2414 L7.9717,813.2414 M15.7717,804.2414 L23.5717,813.2414 " fill="none" style="stroke:#181818;stroke-width:0.3;"/><rect fill="#E3E3E3" height="19.5727" rx="1.5" ry="1.5" style="stroke:#181818;stroke-width:0.3;" width="46.2123" x="277.3368" y="53.7727"/><text fill="#000000" font-family="sans-serif" font-size="8.4" lengthAdjust="spacing" textLength="37.8123" x="281.5368" y="67.0371">AddCityUI</text><rect fill="#E3E3E3" height="19.5727" rx="1.5" ry="1.5" style="stroke:#181818;stroke-width:0.3;" width="46.2123" x="277.3368" y="766.9688"/><text fill="#000000" font-family="sans-serif" font-size="8.4" lengthAdjust="spacing" textLength="37.8123" x="281.5368" y="780.2332">AddCityUI</text><rect fill="#E3E3E3" height="19.5727" rx="1.5" ry="1.5" style="stroke:#181818;stroke-width:0.3;" width="74.226" x="433.9998" y="53.7727"/><text fill="#000000" font-family="sans-serif" font-size="8.4" lengthAdjust="spacing" textLength="65.826" x="438.1998" y="67.0371">AddCityController</text><rect fill="#E3E3E3" height="19.5727" rx="1.5" ry="1.5" style="stroke:#181818;stroke-width:0.3;" width="74.226" x="433.9998" y="766.9688"/><text fill="#000000" font-family="sans-serif" font-size="8.4" lengthAdjust="spacing" textLength="65.826" x="438.1998" y="780.2332">AddCityController</text><rect fill="#E3E3E3" height="19.5727" rx="1.5" ry="1.5" style="stroke:#181818;stroke-width:0.3;" width="108.7816" x="514.2258" y="53.7727"/><text fill="#000000" font-family="sans-serif" font-size="8.4" lengthAdjust="spacing" textLength="100.3816" x="518.4258" y="67.0371">AddHouseBlocksController</text><rect fill="#E3E3E3" height="19.5727" rx="1.5" ry="1.5" style="stroke:#181818;stroke-width:0.3;" width="108.7816" x="514.2258" y="766.9688"/><text fill="#000000" font-family="sans-serif" font-size="8.4" lengthAdjust="spacing" textLength="100.3816" x="518.4258" y="780.2332">AddHouseBlocksController</text><rect fill="#FFFFFF" height="682.2234" style="stroke:#181818;stroke-width:0.6;" width="6" x="12.7717" y="79.9453"/><rect fill="#FFFFFF" height="85.275" style="stroke:#181818;stroke-width:0.6;" width="6" x="297.443" y="93.9199"/><rect fill="#FFFFFF" height="18.7746" style="stroke:#181818;stroke-width:0.6;" width="6" x="297.443" y="197.9695"/><rect fill="#FFFFFF" height="18.7746" style="stroke:#181818;stroke-width:0.6;" width="6" x="297.443" y="235.5187"/><rect fill="#FFFFFF" height="160.3734" style="stroke:#181818;stroke-width:0.6;" width="6" x="297.443" y="273.068"/><rect fill="#FFFFFF" height="181.7285" style="stroke:#181818;stroke-width:0.6;" width="6" x="297.443" y="452.216"/><rect fill="#FFFFFF" height="104.0496" style="stroke:#181818;stroke-width:0.6;" width="6" x="297.443" y="652.7191"/><rect fill="#FFFFFF" height="66.5004" style="stroke:#181818;stroke-width:0.6;" width="6" x="468.1128" y="93.9199"/><rect fill="#FFFFFF" height="18.7746" style="stroke:#181818;stroke-width:0.6;" width="6" x="468.1128" y="291.8426"/><rect fill="#FFFFFF" height="47.7258" style="stroke:#181818;stroke-width:0.6;" width="6" x="468.1128" y="329.3918"/><rect fill="#FFFFFF" height="18.7746" style="stroke:#181818;stroke-width:0.6;" width="6" x="468.1128" y="395.8922"/><rect fill="#FFFFFF" height="47.7258" style="stroke:#181818;stroke-width:0.6;" width="6" x="468.1128" y="671.4938"/><rect fill="#FFFFFF" height="47.7258" style="stroke:#181818;stroke-width:0.6;" width="6" x="565.6166" y="486.7652"/><rect fill="#FFFFFF" height="47.7258" style="stroke:#181818;stroke-width:0.6;" width="6" x="565.6166" y="563.2441"/><polygon fill="#181818" points="290.243,91.5199,296.243,93.9199,290.243,96.3199,292.643,93.9199" style="stroke:#181818;stroke-width:0.6;"/><line style="stroke:#181818;stroke-width:0.6;" x1="18.7717" x2="293.843" y1="93.9199" y2="93.9199"/><text fill="#000000" font-family="sans-serif" font-size="7.8" font-weight="bold" lengthAdjust="spacing" textLength="4.338" x="22.9717" y="90.7623">1</text><text fill="#000000" font-family="sans-serif" font-size="7.8" lengthAdjust="spacing" textLength="56.7937" x="29.7097" y="90.7623">asks to edit map</text><polygon fill="#181818" points="460.9128,110.2945,466.9128,112.6945,460.9128,115.0945,463.3128,112.6945" style="stroke:#181818;stroke-width:0.6;"/><line style="stroke:#181818;stroke-width:0.6;stroke-dasharray:2.0,2.0;" x1="303.443" x2="464.5128" y1="112.6945" y2="112.6945"/><text fill="#000000" font-family="sans-serif" font-size="7.8" font-weight="bold" lengthAdjust="spacing" textLength="4.338" x="307.643" y="109.5369">2</text><text fill="#000000" font-family="sans-serif" font-size="7.8" lengthAdjust="spacing" textLength="66.7646" x="314.381" y="109.5369">getAvailableMaps()</text><rect fill="none" height="25.9512" style="stroke:#000000;stroke-width:0.8999999999999999;" width="77.826" x="432.1998" y="117.4945"/><path d="M432.1998,117.4945 L468.7998,117.4945 L468.7998,122.8945 L462.7998,128.8945 L432.1998,128.8945 L432.1998,117.4945 " fill="#EEEEEE" style="stroke:#000000;stroke-width:1.2;"/><text fill="#000000" font-family="sans-serif" font-size="7.8" font-weight="bold" lengthAdjust="spacing" textLength="9.9709" x="439.9998" y="127.1115">ref</text><text fill="#000000" font-family="sans-serif" font-size="7.2" lengthAdjust="spacing" textLength="58.4297" x="441.8979" y="139.0641">GetAvailableMaps</text><polygon fill="#181818" points="310.043,158.0203,304.043,160.4203,310.043,162.8203,307.643,160.4203" style="stroke:#181818;stroke-width:0.6;"/><line style="stroke:#181818;stroke-width:0.6;stroke-dasharray:2.0,2.0;" x1="306.443" x2="470.5128" y1="160.4203" y2="160.4203"/><text fill="#000000" font-family="sans-serif" font-size="7.8" font-weight="bold" lengthAdjust="spacing" textLength="4.338" x="313.643" y="157.2627">3</text><text fill="#000000" font-family="sans-serif" font-size="7.8" lengthAdjust="spacing" textLength="62.0001" x="320.381" y="157.2627">availableMapsList</text><polygon fill="#181818" points="25.3717,176.7949,19.3717,179.1949,25.3717,181.5949,22.9717,179.1949" style="stroke:#181818;stroke-width:0.6;"/><line style="stroke:#181818;stroke-width:0.6;stroke-dasharray:2.0,2.0;" x1="21.7717" x2="299.843" y1="179.1949" y2="179.1949"/><text fill="#000000" font-family="sans-serif" font-size="7.8" font-weight="bold" lengthAdjust="spacing" textLength="4.338" x="28.9717" y="176.0373">4</text><text fill="#000000" font-family="sans-serif" font-size="7.8" lengthAdjust="spacing" textLength="96.6773" x="35.7097" y="176.0373">shows list of available maps</text><polygon fill="#181818" points="290.243,195.5695,296.243,197.9695,290.243,200.3695,292.643,197.9695" style="stroke:#181818;stroke-width:0.6;"/><line style="stroke:#181818;stroke-width:0.6;" x1="18.7717" x2="293.843" y1="197.9695" y2="197.9695"/><text fill="#000000" font-family="sans-serif" font-size="7.8" font-weight="bold" lengthAdjust="spacing" textLength="4.338" x="22.9717" y="194.8119">5</text><text fill="#000000" font-family="sans-serif" font-size="7.8" lengthAdjust="spacing" textLength="48.1216" x="29.7097" y="194.8119">selects a map</text><polygon fill="#181818" points="25.3717,214.3441,19.3717,216.7441,25.3717,219.1441,22.9717,216.7441" style="stroke:#181818;stroke-width:0.6;"/><line style="stroke:#181818;stroke-width:0.6;stroke-dasharray:2.0,2.0;" x1="21.7717" x2="299.843" y1="216.7441" y2="216.7441"/><text fill="#000000" font-family="sans-serif" font-size="7.8" font-weight="bold" lengthAdjust="spacing" textLength="4.338" x="28.9717" y="213.5865">6</text><text fill="#000000" font-family="sans-serif" font-size="7.8" lengthAdjust="spacing" textLength="125.7445" x="35.7097" y="213.5865">loads and displays the selected map</text><polygon fill="#181818" points="290.243,233.1187,296.243,235.5187,290.243,237.9188,292.643,235.5187" style="stroke:#181818;stroke-width:0.6;"/><line style="stroke:#181818;stroke-width:0.6;" x1="18.7717" x2="293.843" y1="235.5187" y2="235.5187"/><text fill="#000000" font-family="sans-serif" font-size="7.8" font-weight="bold" lengthAdjust="spacing" textLength="4.338" x="22.9717" y="232.3611">7</text><text fill="#000000" font-family="sans-serif" font-size="7.8" lengthAdjust="spacing" textLength="53.7583" x="29.7097" y="232.3611">asks to add city</text><polygon fill="#181818" points="25.3717,251.8934,19.3717,254.2934,25.3717,256.6934,22.9717,254.2934" style="stroke:#181818;stroke-width:0.6;"/><line style="stroke:#181818;stroke-width:0.6;stroke-dasharray:2.0,2.0;" x1="21.7717" x2="299.843" y1="254.2934" y2="254.2934"/><text fill="#000000" font-family="sans-serif" font-size="7.8" font-weight="bold" lengthAdjust="spacing" textLength="4.338" x="28.9717" y="251.1357">8</text><text fill="#000000" font-family="sans-serif" font-size="7.8" lengthAdjust="spacing" textLength="257.5333" x="35.7097" y="251.1357">requests city data (nameID, X and Y coordinates, number of house blocks)</text><polygon fill="#181818" points="290.243,270.668,296.243,273.068,290.243,275.468,292.643,273.068" style="stroke:#181818;stroke-width:0.6;"/><line style="stroke:#181818;stroke-width:0.6;" x1="18.7717" x2="293.843" y1="273.068" y2="273.068"/><text fill="#000000" font-family="sans-serif" font-size="7.8" font-weight="bold" lengthAdjust="spacing" textLength="4.338" x="22.9717" y="269.9104">9</text><text fill="#000000" font-family="sans-serif" font-size="7.8" lengthAdjust="spacing" textLength="49.8583" x="29.7097" y="269.9104">types city data</text><polygon fill="#181818" points="460.9128,289.4426,466.9128,291.8426,460.9128,294.2426,463.3128,291.8426" style="stroke:#181818;stroke-width:0.6;"/><line style="stroke:#181818;stroke-width:0.6;stroke-dasharray:2.0,2.0;" x1="303.443" x2="464.5128" y1="291.8426" y2="291.8426"/><text fill="#000000" font-family="sans-serif" font-size="7.8" font-weight="bold" lengthAdjust="spacing" textLength="8.676" x="307.643" y="288.685">10</text><text fill="#000000" font-family="sans-serif" font-size="7.8" lengthAdjust="spacing" textLength="72.3976" x="318.7189" y="288.685">validateName(name)</text><polygon fill="#181818" points="310.043,308.2172,304.043,310.6172,310.043,313.0172,307.643,310.6172" style="stroke:#181818;stroke-width:0.6;"/><line style="stroke:#181818;stroke-width:0.6;stroke-dasharray:2.0,2.0;" x1="306.443" x2="470.5128" y1="310.6172" y2="310.6172"/><text fill="#000000" font-family="sans-serif" font-size="7.8" font-weight="bold" lengthAdjust="spacing" textLength="8.676" x="313.643" y="307.4596">11</text><text fill="#000000" font-family="sans-serif" font-size="7.8" lengthAdjust="spacing" textLength="19.5114" x="324.7189" y="307.4596">name</text><polygon fill="#181818" points="460.9128,326.9918,466.9128,329.3918,460.9128,331.7918,463.3128,329.3918" style="stroke:#181818;stroke-width:0.6;"/><line style="stroke:#181818;stroke-width:0.6;stroke-dasharray:2.0,2.0;" x1="303.443" x2="464.5128" y1="329.3918" y2="329.3918"/><text fill="#000000" font-family="sans-serif" font-size="7.8" font-weight="bold" lengthAdjust="spacing" textLength="8.676" x="307.643" y="326.2342">12</text><text fill="#000000" font-family="sans-serif" font-size="7.8" lengthAdjust="spacing" textLength="86.2723" x="318.7189" y="326.2342">validateCoordinates(x, y)</text><rect fill="none" height="25.9512" style="stroke:#000000;stroke-width:0.8999999999999999;" width="77.826" x="432.1998" y="334.1918"/><path d="M432.1998,334.1918 L468.7998,334.1918 L468.7998,339.5918 L462.7998,345.5918 L432.1998,345.5918 L432.1998,334.1918 " fill="#EEEEEE" style="stroke:#000000;stroke-width:1.2;"/><text fill="#000000" font-family="sans-serif" font-size="7.8" font-weight="bold" lengthAdjust="spacing" textLength="9.9709" x="439.9998" y="343.8088">ref</text><text fill="#000000" font-family="sans-serif" font-size="7.2" lengthAdjust="spacing" textLength="69.6375" x="436.294" y="355.7613">ValidateCoordinates()</text><polygon fill="#181818" points="310.043,374.7176,304.043,377.1176,310.043,379.5176,307.643,377.1176" style="stroke:#181818;stroke-width:0.6;"/><line style="stroke:#181818;stroke-width:0.6;stroke-dasharray:2.0,2.0;" x1="306.443" x2="470.5128" y1="377.1176" y2="377.1176"/><text fill="#000000" font-family="sans-serif" font-size="7.8" font-weight="bold" lengthAdjust="spacing" textLength="8.676" x="313.643" y="373.96">13</text><text fill="#000000" font-family="sans-serif" font-size="7.8" lengthAdjust="spacing" textLength="26.8849" x="324.7189" y="373.96">position</text><polygon fill="#181818" points="460.9128,393.4922,466.9128,395.8922,460.9128,398.2922,463.3128,395.8922" style="stroke:#181818;stroke-width:0.6;"/><line style="stroke:#181818;stroke-width:0.6;stroke-dasharray:2.0,2.0;" x1="303.443" x2="464.5128" y1="395.8922" y2="395.8922"/><text fill="#000000" font-family="sans-serif" font-size="7.8" font-weight="bold" lengthAdjust="spacing" textLength="8.676" x="307.643" y="392.7346">14</text><text fill="#000000" font-family="sans-serif" font-size="7.8" lengthAdjust="spacing" textLength="109.6685" x="318.7189" y="392.7346">validateNumBlocks(numBlocks)</text><polygon fill="#181818" points="310.043,412.2668,304.043,414.6668,310.043,417.0668,307.643,414.6668" style="stroke:#181818;stroke-width:0.6;"/><line style="stroke:#181818;stroke-width:0.6;stroke-dasharray:2.0,2.0;" x1="306.443" x2="470.5128" y1="414.6668" y2="414.6668"/><text fill="#000000" font-family="sans-serif" font-size="7.8" font-weight="bold" lengthAdjust="spacing" textLength="8.676" x="313.643" y="411.5092">15</text><text fill="#000000" font-family="sans-serif" font-size="7.8" lengthAdjust="spacing" textLength="38.1469" x="324.7189" y="411.5092">numBlocks</text><polygon fill="#181818" points="25.3717,431.0414,19.3717,433.4414,25.3717,435.8414,22.9717,433.4414" style="stroke:#181818;stroke-width:0.6;"/><line style="stroke:#181818;stroke-width:0.6;stroke-dasharray:2.0,2.0;" x1="21.7717" x2="299.843" y1="433.4414" y2="433.4414"/><text fill="#000000" font-family="sans-serif" font-size="7.8" font-weight="bold" lengthAdjust="spacing" textLength="8.676" x="28.9717" y="430.2838">16</text><text fill="#000000" font-family="sans-serif" font-size="7.8" lengthAdjust="spacing" textLength="240.1813" x="40.0477" y="430.2838">asks if the editor wants to assign the blocks manually or automatically</text><polygon fill="#181818" points="290.243,449.816,296.243,452.216,290.243,454.616,292.643,452.216" style="stroke:#181818;stroke-width:0.6;"/><line style="stroke:#181818;stroke-width:0.6;" x1="18.7717" x2="293.843" y1="452.216" y2="452.216"/><text fill="#000000" font-family="sans-serif" font-size="7.8" font-weight="bold" lengthAdjust="spacing" textLength="8.676" x="22.9717" y="449.0584">17</text><text fill="#000000" font-family="sans-serif" font-size="7.8" lengthAdjust="spacing" textLength="49.4241" x="34.0477" y="449.0584">selects yes/no</text><path d="M271.3368,461.216 L307.4394,461.216 L307.4394,466.7906 L301.4394,472.7906 L271.3368,472.7906 L271.3368,461.216 " fill="#EEEEEE" style="stroke:#000000;stroke-width:0.8999999999999999;"/><rect fill="none" height="154.5539" style="stroke:#000000;stroke-width:0.8999999999999999;" width="357.6706" x="271.3368" y="461.216"/><text fill="#000000" font-family="sans-serif" font-size="7.8" font-weight="bold" lengthAdjust="spacing" textLength="9.1025" x="280.3368" y="470.233">alt</text><text fill="#000000" font-family="sans-serif" font-size="6.6" font-weight="bold" lengthAdjust="spacing" textLength="91.7297" x="316.4394" y="469.5381">[User selects "yes" (manual)]</text><polygon fill="#181818" points="558.4166,484.3652,564.4166,486.7652,558.4166,489.1652,560.8166,486.7652" style="stroke:#181818;stroke-width:0.6;"/><line style="stroke:#181818;stroke-width:0.6;stroke-dasharray:2.0,2.0;" x1="303.443" x2="562.0166" y1="486.7652" y2="486.7652"/><text fill="#000000" font-family="sans-serif" font-size="7.8" font-weight="bold" lengthAdjust="spacing" textLength="8.676" x="307.643" y="483.6076">18</text><text fill="#000000" font-family="sans-serif" font-size="7.8" lengthAdjust="spacing" textLength="88.8621" x="318.7189" y="483.6076">assignBlocks(numBlocks)</text><rect fill="none" height="25.9512" style="stroke:#000000;stroke-width:0.8999999999999999;" width="112.3816" x="512.4258" y="491.5652"/><path d="M512.4258,491.5652 L549.0258,491.5652 L549.0258,496.9652 L543.0258,502.9652 L512.4258,502.9652 L512.4258,491.5652 " fill="#EEEEEE" style="stroke:#000000;stroke-width:1.2;"/><text fill="#000000" font-family="sans-serif" font-size="7.8" font-weight="bold" lengthAdjust="spacing" textLength="9.9709" x="520.2258" y="501.1822">ref</text><text fill="#000000" font-family="sans-serif" font-size="7.2" lengthAdjust="spacing" textLength="71.2266" x="533.0033" y="513.1348">AssignManualBlocks()</text><polygon fill="#181818" points="310.043,532.091,304.043,534.491,310.043,536.891,307.643,534.491" style="stroke:#181818;stroke-width:0.6;"/><line style="stroke:#181818;stroke-width:0.6;stroke-dasharray:2.0,2.0;" x1="306.443" x2="568.0166" y1="534.491" y2="534.491"/><text fill="#000000" font-family="sans-serif" font-size="7.8" font-weight="bold" lengthAdjust="spacing" textLength="8.676" x="313.643" y="531.3334">19</text><text fill="#000000" font-family="sans-serif" font-size="7.8" lengthAdjust="spacing" textLength="44.2254" x="324.7189" y="531.3334">houseBlocks</text><line style="stroke:#000000;stroke-width:0.6;stroke-dasharray:2.0,2.0;" x1="271.3368" x2="629.0074" y1="539.891" y2="539.891"/><text fill="#000000" font-family="sans-serif" font-size="6.6" font-weight="bold" lengthAdjust="spacing" textLength="96.8473" x="274.3368" y="547.0131">[User selects "no" (automatic)]</text><polygon fill="#181818" points="558.4166,560.8441,564.4166,563.2441,558.4166,565.6441,560.8166,563.2441" style="stroke:#181818;stroke-width:0.6;"/><line style="stroke:#181818;stroke-width:0.6;stroke-dasharray:2.0,2.0;" x1="303.443" x2="562.0166" y1="563.2441" y2="563.2441"/><text fill="#000000" font-family="sans-serif" font-size="7.8" font-weight="bold" lengthAdjust="spacing" textLength="8.676" x="307.643" y="560.0865">20</text><text fill="#000000" font-family="sans-serif" font-size="7.8" lengthAdjust="spacing" textLength="88.8621" x="318.7189" y="560.0865">assignBlocks(numBlocks)</text><rect fill="none" height="25.9512" style="stroke:#000000;stroke-width:0.8999999999999999;" width="112.3816" x="512.4258" y="568.0441"/><path d="M512.4258,568.0441 L549.0258,568.0441 L549.0258,573.4441 L543.0258,579.4441 L512.4258,579.4441 L512.4258,568.0441 " fill="#EEEEEE" style="stroke:#000000;stroke-width:1.2;"/><text fill="#000000" font-family="sans-serif" font-size="7.8" font-weight="bold" lengthAdjust="spacing" textLength="9.9709" x="520.2258" y="577.6611">ref</text><text fill="#000000" font-family="sans-serif" font-size="7.2" lengthAdjust="spacing" textLength="62.4234" x="537.4049" y="589.6137">AssignAutoBlocks()</text><polygon fill="#181818" points="310.043,608.5699,304.043,610.9699,310.043,613.3699,307.643,610.9699" style="stroke:#181818;stroke-width:0.6;"/><line style="stroke:#181818;stroke-width:0.6;stroke-dasharray:2.0,2.0;" x1="306.443" x2="568.0166" y1="610.9699" y2="610.9699"/><text fill="#000000" font-family="sans-serif" font-size="7.8" font-weight="bold" lengthAdjust="spacing" textLength="8.676" x="313.643" y="607.8123">21</text><text fill="#000000" font-family="sans-serif" font-size="7.8" lengthAdjust="spacing" textLength="44.2254" x="324.7189" y="607.8123">houseBlocks</text><polygon fill="#181818" points="25.3717,631.5445,19.3717,633.9445,25.3717,636.3445,22.9717,633.9445" style="stroke:#181818;stroke-width:0.6;"/><line style="stroke:#181818;stroke-width:0.6;stroke-dasharray:2.0,2.0;" x1="21.7717" x2="299.843" y1="633.9445" y2="633.9445"/><text fill="#000000" font-family="sans-serif" font-size="7.8" font-weight="bold" lengthAdjust="spacing" textLength="8.676" x="28.9717" y="630.7869">22</text><text fill="#000000" font-family="sans-serif" font-size="7.8" lengthAdjust="spacing" textLength="71.9596" x="40.0477" y="630.7869">asks for confirmation</text><polygon fill="#181818" points="290.243,650.3191,296.243,652.7191,290.243,655.1191,292.643,652.7191" style="stroke:#181818;stroke-width:0.6;"/><line style="stroke:#181818;stroke-width:0.6;" x1="18.7717" x2="293.843" y1="652.7191" y2="652.7191"/><text fill="#000000" font-family="sans-serif" font-size="7.8" font-weight="bold" lengthAdjust="spacing" textLength="8.676" x="22.9717" y="649.5615">23</text><text fill="#000000" font-family="sans-serif" font-size="7.8" lengthAdjust="spacing" textLength="60.6861" x="34.0477" y="649.5615">confirms city data</text><polygon fill="#181818" points="460.9128,669.0938,466.9128,671.4938,460.9128,673.8938,463.3128,671.4938" style="stroke:#181818;stroke-width:0.6;"/><line style="stroke:#181818;stroke-width:0.6;stroke-dasharray:2.0,2.0;" x1="303.443" x2="464.5128" y1="671.4938" y2="671.4938"/><text fill="#000000" font-family="sans-serif" font-size="7.8" font-weight="bold" lengthAdjust="spacing" textLength="8.676" x="307.643" y="668.3361">24</text><text fill="#000000" font-family="sans-serif" font-size="7.8" lengthAdjust="spacing" textLength="142.1938" x="318.7189" y="668.3361">saveCity(nameID, position, houseBlocks)</text><rect fill="none" height="25.9512" style="stroke:#000000;stroke-width:0.8999999999999999;" width="77.826" x="432.1998" y="676.2937"/><path d="M432.1998,676.2937 L468.7998,676.2937 L468.7998,681.6938 L462.7998,687.6938 L432.1998,687.6938 L432.1998,676.2937 " fill="#EEEEEE" style="stroke:#000000;stroke-width:1.2;"/><text fill="#000000" font-family="sans-serif" font-size="7.8" font-weight="bold" lengthAdjust="spacing" textLength="9.9709" x="439.9998" y="685.9107">ref</text><text fill="#000000" font-family="sans-serif" font-size="7.2" lengthAdjust="spacing" textLength="27.6082" x="457.3087" y="697.8633">saveCity</text><polygon fill="#181818" points="310.043,716.8195,304.043,719.2195,310.043,721.6195,307.643,719.2195" style="stroke:#181818;stroke-width:0.6;"/><line style="stroke:#181818;stroke-width:0.6;stroke-dasharray:2.0,2.0;" x1="306.443" x2="470.5128" y1="719.2195" y2="719.2195"/><text fill="#000000" font-family="sans-serif" font-size="7.8" font-weight="bold" lengthAdjust="spacing" textLength="8.676" x="313.643" y="716.0619">25</text><text fill="#000000" font-family="sans-serif" font-size="7.8" lengthAdjust="spacing" textLength="28.176" x="324.7189" y="716.0619">success</text><polygon fill="#181818" points="25.3717,735.5941,19.3717,737.9941,25.3717,740.3941,22.9717,737.9941" style="stroke:#181818;stroke-width:0.6;"/><line style="stroke:#181818;stroke-width:0.6;stroke-dasharray:2.0,2.0;" x1="21.7717" x2="296.843" y1="737.9941" y2="737.9941"/><text fill="#000000" font-family="sans-serif" font-size="7.8" font-weight="bold" lengthAdjust="spacing" textLength="8.676" x="28.9717" y="734.8365">26</text><text fill="#000000" font-family="sans-serif" font-size="7.8" lengthAdjust="spacing" textLength="93.2153" x="40.0477" y="734.8365">displays operation success</text><polygon fill="#181818" points="25.3717,754.3688,19.3717,756.7688,25.3717,759.1687,22.9717,756.7688" style="stroke:#181818;stroke-width:0.6;"/><line style="stroke:#181818;stroke-width:0.6;stroke-dasharray:2.0,2.0;" x1="21.7717" x2="299.843" y1="756.7688" y2="756.7688"/><text fill="#000000" font-family="sans-serif" font-size="7.8" font-weight="bold" lengthAdjust="spacing" textLength="8.676" x="28.9717" y="753.6111">27</text><text fill="#000000" font-family="sans-serif" font-size="7.8" lengthAdjust="spacing" textLength="62.8608" x="40.0477" y="753.6111">display city details</text><!--SRC=[pLPBRzD04BxxLunoIgH4877p0Qcq22hHNg8YE4xjIRBAUjTurYd-zypQyOF4TXuKH2wnl3lpVVFuPinRPLBCC8746XjjCfiGk2odW9kJ5ACjhcdf2asGKUJGh7Nt0cymjY_Ah665cYd0t5cJ9y-K1O5JJgoM1JjAO4a_SZ8HmPt2jRSCuMdvzXqiu2QE0I5IhWW2Z9pDOF8nLl8_0MIe7WD1SofIAHhd3MxbzjDztzjRQrncjQOZcyysP_gWRRJbzfA763ehwQWTEgfPL7-mUDzoa3YGjmpE0iaf99W6iFyrvYtZeQCEQdsbXLYqW1tc8Qp9tUnGQNpMz80fJsT1OvtH2knEhWq3V3emRmx8n8SiEhYBm_2xFhueTerjJ2DX3iHPfJYKnh8l35hSWLsr63w_F0BGIN7pq5CryKzQsfcbyywiM3zDRJ4M9oQ6M76giP1EsD3UEyM_EUzbUwAdKCHHIkDAXk8gyyfZ2TNxWHWTmjHWGlTtS_XMKlyEaRLPh8puvJbK-lLfttXPm7EfYzc9E0OpxOgKEk2NHtBKEo7iK2jnHeyIHndCx0fb3VLq2DxZ7tNn2ENRDjNJdtCeBc9-Xgg_zk3Chf5s2AbbvPGrVoiLZtbIpTofgPzUkOwrs_CYE9eS_PeljQbMfT2fwlWNsJ6LNfdLsfH7bMna0fWSjIv0hldjcA0i9V_YWYasEi4AuZV6ZiagGEtWYIK_jSr4Z2OmhRXLEJ-gMl- -3FSXzXUk2zw_Km-xUFXMIQh4UYXfxX4heBgF1taURgbDUoiuJlh0_YVvf3b8dB6IjwQE_ttgReJflq-SW83qN72Ea5RIs94rAvNvZ8uEcxEN-zxVQsyTnXtvTytwh0Val9kbrnxeDUfrCvppA2A-S03sbwlvmh4fPMMjZhoF6kwhGKw-vKvym_q2]--></g></svg>