<svg xmlns="http://www.w3.org/2000/svg" xmlns:xlink="http://www.w3.org/1999/xlink" contentStyleType="text/css" height="599.4px" preserveAspectRatio="none" style="width:1147px;height:599px;background:#FFFFFF;" version="1.1" viewBox="0 0 1147 599" width="1147.2px" zoomAndPan="magnify"><title>Class Diagram: US03 - Add a city</title><defs/><g><text fill="#000000" font-family="sans-serif" font-size="8.4" font-weight="bold" lengthAdjust="spacing" textLength="132.1113" x="503.5518" y="15.0645">Class Diagram: US03 - Add a city</text><!--class ApplicationSession--><g id="elem_ApplicationSession"><rect codeLine="10" fill="#F1F1F1" height="62.318" id="ApplicationSession" rx="1.5" ry="1.5" style="stroke:#181818;stroke-width:0.3;" width="90.1775" x="808.5" y="69.9727"/><ellipse cx="817.5" cy="79.5727" fill="#ADD1B2" rx="6.6" ry="6.6" style="stroke:#181818;stroke-width:0.6;"/><path d="M819.1594,77.0977 Q819.2531,76.9664 819.3656,76.9008 Q819.4781,76.8352 819.6094,76.8352 Q819.8344,76.8352 819.975,76.9945 Q820.1156,77.1445 820.1156,77.5102 L820.1156,78.382 Q820.1156,78.7477 819.975,78.907 Q819.8344,79.0664 819.6094,79.0664 Q819.4031,79.0664 819.2813,78.9445 Q819.1594,78.832 819.0938,78.5227 Q819.0656,78.307 818.9531,78.1945 Q818.7563,77.9695 818.3906,77.8383 Q818.025,77.707 817.65,77.707 Q817.1906,77.707 816.8063,77.9039 Q816.4313,78.1008 816.1313,78.5508 Q815.8406,79.0008 815.8406,79.6195 L815.8406,80.2758 Q815.8406,81.0164 816.375,81.5133 Q816.9094,82.0008 817.8656,82.0008 Q818.4281,82.0008 818.8219,81.8508 Q819.0563,81.757 819.3094,81.4945 Q819.4688,81.3352 819.5531,81.2883 Q819.6469,81.2414 819.7688,81.2414 Q819.9656,81.2414 820.1156,81.4008 Q820.275,81.5508 820.275,81.757 Q820.275,81.9633 820.0688,82.207 Q819.7688,82.5539 819.2906,82.7508 Q818.6438,83.0227 817.8656,83.0227 Q816.9563,83.0227 816.2344,82.6477 Q815.6438,82.3477 815.2312,81.7102 Q814.8188,81.0633 814.8188,80.2945 L814.8188,79.6008 Q814.8188,78.8039 815.1844,78.1195 Q815.5594,77.4258 816.2156,77.0602 Q816.8719,76.6852 817.6125,76.6852 Q818.0531,76.6852 818.4375,76.7883 Q818.8313,76.882 819.1594,77.0977 Z " fill="#000000"/><text fill="#000000" font-family="sans-serif" font-size="8.4" lengthAdjust="spacing" textLength="70.9775" x="825.9" y="83.0508">ApplicationSession</text><line style="stroke:#181818;stroke-width:0.3;" x1="809.1" x2="898.0775" y1="89.1727" y2="89.1727"/><line style="stroke:#181818;stroke-width:0.3;" x1="809.1" x2="898.0775" y1="93.9727" y2="93.9727"/><text fill="#000000" font-family="sans-serif" font-size="8.4" lengthAdjust="spacing" textLength="79.3693" x="812.1" y="105.4371">-ApplicationSession()</text><text fill="#000000" font-family="sans-serif" font-size="8.4" lengthAdjust="spacing" textLength="53.9314" x="812.1" y="116.6098">+getInstance()</text><text fill="#000000" font-family="sans-serif" font-size="8.4" lengthAdjust="spacing" textLength="80.0707" x="812.1" y="127.7824">+getCurrentSession()</text></g><!--class AddCityController--><g id="elem_AddCityController"><rect codeLine="17" fill="#F1F1F1" height="84.6633" id="AddCityController" rx="1.5" ry="1.5" style="stroke:#181818;stroke-width:0.3;" width="327.2408" x="301.8" y="58.8727"/><ellipse cx="429.9574" cy="68.4727" fill="#ADD1B2" rx="6.6" ry="6.6" style="stroke:#181818;stroke-width:0.6;"/><path d="M431.6168,65.9977 Q431.7105,65.8664 431.823,65.8008 Q431.9355,65.7352 432.0668,65.7352 Q432.2918,65.7352 432.4324,65.8945 Q432.573,66.0445 432.573,66.4102 L432.573,67.282 Q432.573,67.6477 432.4324,67.807 Q432.2918,67.9664 432.0668,67.9664 Q431.8605,67.9664 431.7387,67.8445 Q431.6168,67.732 431.5512,67.4227 Q431.523,67.207 431.4105,67.0945 Q431.2137,66.8695 430.848,66.7383 Q430.4824,66.607 430.1074,66.607 Q429.648,66.607 429.2637,66.8039 Q428.8887,67.0008 428.5887,67.4508 Q428.298,67.9008 428.298,68.5195 L428.298,69.1758 Q428.298,69.9164 428.8324,70.4133 Q429.3668,70.9008 430.323,70.9008 Q430.8855,70.9008 431.2793,70.7508 Q431.5137,70.657 431.7668,70.3945 Q431.9262,70.2352 432.0105,70.1883 Q432.1043,70.1414 432.2262,70.1414 Q432.423,70.1414 432.573,70.3008 Q432.7324,70.4508 432.7324,70.657 Q432.7324,70.8633 432.5262,71.107 Q432.2262,71.4539 431.748,71.6508 Q431.1012,71.9227 430.323,71.9227 Q429.4137,71.9227 428.6918,71.5477 Q428.1012,71.2477 427.6887,70.6102 Q427.2762,69.9633 427.2762,69.1945 L427.2762,68.5008 Q427.2762,67.7039 427.6418,67.0195 Q428.0168,66.3258 428.673,65.9602 Q429.3293,65.5852 430.0699,65.5852 Q430.5105,65.5852 430.8949,65.6883 Q431.2887,65.782 431.6168,65.9977 Z " fill="#000000"/><text fill="#000000" font-family="sans-serif" font-size="8.4" lengthAdjust="spacing" textLength="65.826" x="442.2574" y="71.9508">AddCityController</text><line style="stroke:#181818;stroke-width:0.3;" x1="302.4" x2="628.4408" y1="78.0727" y2="78.0727"/><line style="stroke:#181818;stroke-width:0.3;" x1="302.4" x2="628.4408" y1="82.8727" y2="82.8727"/><text fill="#000000" font-family="sans-serif" font-size="8.4" lengthAdjust="spacing" textLength="123.0305" x="305.4" y="94.3371">+getAvailableMaps() : List&lt;Map&gt;</text><text fill="#000000" font-family="sans-serif" font-size="8.4" lengthAdjust="spacing" textLength="140.7615" x="305.4" y="105.5098">+validateName(name : String) : String</text><text fill="#000000" font-family="sans-serif" font-size="8.4" lengthAdjust="spacing" textLength="180.4564" x="305.4" y="116.6824">+validateCoordinates(x : float, y : float) : Position</text><text fill="#000000" font-family="sans-serif" font-size="8.4" lengthAdjust="spacing" textLength="142.1561" x="305.4" y="127.8551">+validateNumBlocks(number : int) : int</text><text fill="#000000" font-family="sans-serif" font-size="8.4" lengthAdjust="spacing" textLength="320.0408" x="305.4" y="139.0277">+saveCity(nameID : String, position : Position, houseBlocks : List&lt;HouseBlock&gt;) : City</text></g><!--class AddHouseBlocksController--><g id="elem_AddHouseBlocksController"><rect codeLine="26" fill="#F1F1F1" height="62.318" id="AddHouseBlocksController" rx="1.5" ry="1.5" style="stroke:#181818;stroke-width:0.3;" width="198.382" x="82.2" y="69.9727"/><ellipse cx="128.6502" cy="79.5727" fill="#ADD1B2" rx="6.6" ry="6.6" style="stroke:#181818;stroke-width:0.6;"/><path d="M130.3096,77.0977 Q130.4033,76.9664 130.5158,76.9008 Q130.6283,76.8352 130.7596,76.8352 Q130.9846,76.8352 131.1252,76.9945 Q131.2658,77.1445 131.2658,77.5102 L131.2658,78.382 Q131.2658,78.7477 131.1252,78.907 Q130.9846,79.0664 130.7596,79.0664 Q130.5533,79.0664 130.4314,78.9445 Q130.3096,78.832 130.2439,78.5227 Q130.2158,78.307 130.1033,78.1945 Q129.9064,77.9695 129.5408,77.8383 Q129.1752,77.707 128.8002,77.707 Q128.3408,77.707 127.9564,77.9039 Q127.5814,78.1008 127.2814,78.5508 Q126.9908,79.0008 126.9908,79.6195 L126.9908,80.2758 Q126.9908,81.0164 127.5252,81.5133 Q128.0596,82.0008 129.0158,82.0008 Q129.5783,82.0008 129.9721,81.8508 Q130.2064,81.757 130.4596,81.4945 Q130.6189,81.3352 130.7033,81.2883 Q130.7971,81.2414 130.9189,81.2414 Q131.1158,81.2414 131.2658,81.4008 Q131.4252,81.5508 131.4252,81.757 Q131.4252,81.9633 131.2189,82.207 Q130.9189,82.5539 130.4408,82.7508 Q129.7939,83.0227 129.0158,83.0227 Q128.1064,83.0227 127.3846,82.6477 Q126.7939,82.3477 126.3814,81.7102 Q125.9689,81.0633 125.9689,80.2945 L125.9689,79.6008 Q125.9689,78.8039 126.3346,78.1195 Q126.7096,77.4258 127.3658,77.0602 Q128.0221,76.6852 128.7627,76.6852 Q129.2033,76.6852 129.5877,76.7883 Q129.9814,76.882 130.3096,77.0977 Z " fill="#000000"/><text fill="#000000" font-family="sans-serif" font-size="8.4" lengthAdjust="spacing" textLength="100.3816" x="140.9502" y="83.0508">AddHouseBlocksController</text><line style="stroke:#181818;stroke-width:0.3;" x1="82.8" x2="279.982" y1="89.1727" y2="89.1727"/><line style="stroke:#181818;stroke-width:0.3;" x1="82.8" x2="279.982" y1="93.9727" y2="93.9727"/><text fill="#000000" font-family="sans-serif" font-size="8.4" lengthAdjust="spacing" textLength="191.182" x="85.8" y="105.4371">+assignBlocks(numBlocks : int) : List&lt;HouseBlock&gt;</text><text fill="#000000" font-family="sans-serif" font-size="8.4" lengthAdjust="spacing" textLength="120.6844" x="85.8" y="116.6098">+promptForCoordinates() : Point</text><text fill="#000000" font-family="sans-serif" font-size="8.4" lengthAdjust="spacing" textLength="111.3533" x="85.8" y="127.7824">+requestNewPosition() : Point</text></g><!--class Repositories--><g id="elem_Repositories"><rect codeLine="33" fill="#F1F1F1" height="62.318" id="Repositories" rx="1.5" ry="1.5" style="stroke:#181818;stroke-width:0.3;" width="137.683" x="649.8" y="69.9727"/><ellipse cx="692.7475" cy="79.5727" fill="#ADD1B2" rx="6.6" ry="6.6" style="stroke:#181818;stroke-width:0.6;"/><path d="M694.4068,77.0977 Q694.5006,76.9664 694.6131,76.9008 Q694.7256,76.8352 694.8568,76.8352 Q695.0818,76.8352 695.2225,76.9945 Q695.3631,77.1445 695.3631,77.5102 L695.3631,78.382 Q695.3631,78.7477 695.2225,78.907 Q695.0818,79.0664 694.8568,79.0664 Q694.6506,79.0664 694.5287,78.9445 Q694.4068,78.832 694.3412,78.5227 Q694.3131,78.307 694.2006,78.1945 Q694.0037,77.9695 693.6381,77.8383 Q693.2725,77.707 692.8975,77.707 Q692.4381,77.707 692.0537,77.9039 Q691.6787,78.1008 691.3787,78.5508 Q691.0881,79.0008 691.0881,79.6195 L691.0881,80.2758 Q691.0881,81.0164 691.6225,81.5133 Q692.1568,82.0008 693.1131,82.0008 Q693.6756,82.0008 694.0693,81.8508 Q694.3037,81.757 694.5568,81.4945 Q694.7162,81.3352 694.8006,81.2883 Q694.8943,81.2414 695.0162,81.2414 Q695.2131,81.2414 695.3631,81.4008 Q695.5225,81.5508 695.5225,81.757 Q695.5225,81.9633 695.3162,82.207 Q695.0162,82.5539 694.5381,82.7508 Q693.8912,83.0227 693.1131,83.0227 Q692.2037,83.0227 691.4818,82.6477 Q690.8912,82.3477 690.4787,81.7102 Q690.0662,81.0633 690.0662,80.2945 L690.0662,79.6008 Q690.0662,78.8039 690.4318,78.1195 Q690.8068,77.4258 691.4631,77.0602 Q692.1193,76.6852 692.86,76.6852 Q693.3006,76.6852 693.685,76.7883 Q694.0787,76.882 694.4068,77.0977 Z " fill="#000000"/><text fill="#000000" font-family="sans-serif" font-size="8.4" lengthAdjust="spacing" textLength="46.6881" x="705.0475" y="83.0508">Repositories</text><line style="stroke:#181818;stroke-width:0.3;" x1="650.4" x2="786.883" y1="89.1727" y2="89.1727"/><text fill="#000000" font-family="sans-serif" font-size="8.4" lengthAdjust="spacing" textLength="122.7803" x="653.4" y="100.6371">-mapRepository : MapRepository</text><line style="stroke:#181818;stroke-width:0.3;" x1="650.4" x2="786.883" y1="105.1453" y2="105.1453"/><text fill="#000000" font-family="sans-serif" font-size="8.4" lengthAdjust="spacing" textLength="107.6209" x="653.4" y="116.6098">+getInstance() : Repositories</text><text fill="#000000" font-family="sans-serif" font-size="8.4" lengthAdjust="spacing" textLength="130.483" x="653.4" y="127.7824">+mapRepository() : MapRepository</text></g><!--class MapRepository--><g id="elem_MapRepository"><rect codeLine="39" fill="#F1F1F1" height="62.318" id="MapRepository" rx="1.5" ry="1.5" style="stroke:#181818;stroke-width:0.3;" width="128.3643" x="425.1" y="241.2727"/><ellipse cx="458.4867" cy="250.8727" fill="#ADD1B2" rx="6.6" ry="6.6" style="stroke:#181818;stroke-width:0.6;"/><path d="M460.1461,248.3977 Q460.2398,248.2664 460.3523,248.2008 Q460.4648,248.1352 460.5961,248.1352 Q460.8211,248.1352 460.9617,248.2945 Q461.1023,248.4445 461.1023,248.8102 L461.1023,249.682 Q461.1023,250.0477 460.9617,250.207 Q460.8211,250.3664 460.5961,250.3664 Q460.3898,250.3664 460.268,250.2445 Q460.1461,250.132 460.0805,249.8227 Q460.0523,249.607 459.9398,249.4945 Q459.743,249.2695 459.3773,249.1383 Q459.0117,249.007 458.6367,249.007 Q458.1773,249.007 457.793,249.2039 Q457.418,249.4008 457.118,249.8508 Q456.8273,250.3008 456.8273,250.9195 L456.8273,251.5758 Q456.8273,252.3164 457.3617,252.8133 Q457.8961,253.3008 458.8523,253.3008 Q459.4148,253.3008 459.8086,253.1508 Q460.043,253.057 460.2961,252.7945 Q460.4555,252.6352 460.5398,252.5883 Q460.6336,252.5414 460.7555,252.5414 Q460.9523,252.5414 461.1023,252.7008 Q461.2617,252.8508 461.2617,253.057 Q461.2617,253.2633 461.0555,253.507 Q460.7555,253.8539 460.2773,254.0508 Q459.6305,254.3227 458.8523,254.3227 Q457.943,254.3227 457.2211,253.9477 Q456.6305,253.6477 456.218,253.0102 Q455.8055,252.3633 455.8055,251.5945 L455.8055,250.9008 Q455.8055,250.1039 456.1711,249.4195 Q456.5461,248.7258 457.2023,248.3602 Q457.8586,247.9852 458.5992,247.9852 Q459.0398,247.9852 459.4242,248.0883 Q459.818,248.182 460.1461,248.3977 Z " fill="#000000"/><text fill="#000000" font-family="sans-serif" font-size="8.4" lengthAdjust="spacing" textLength="56.4908" x="470.7867" y="254.3508">MapRepository</text><line style="stroke:#181818;stroke-width:0.3;" x1="425.7" x2="552.8643" y1="260.4727" y2="260.4727"/><line style="stroke:#181818;stroke-width:0.3;" x1="425.7" x2="552.8643" y1="265.2727" y2="265.2727"/><text fill="#000000" font-family="sans-serif" font-size="8.4" lengthAdjust="spacing" textLength="88.9424" x="428.7" y="276.7371">+getMaps() : List&lt;Map&gt;</text><text fill="#000000" font-family="sans-serif" font-size="8.4" lengthAdjust="spacing" textLength="121.1643" x="428.7" y="287.9098">+saveMap(map : Map) : boolean</text><text fill="#000000" font-family="sans-serif" font-size="8.4" lengthAdjust="spacing" textLength="89.8693" x="428.7" y="299.0824">+getCurrentMap() : Map</text></g><!--class City--><g id="elem_City"><rect codeLine="46" fill="#F1F1F1" height="118.1812" id="City" rx="1.5" ry="1.5" style="stroke:#181818;stroke-width:0.3;" width="288.0299" x="593.1" y="213.3727"/><ellipse cx="727.3318" cy="222.9727" fill="#ADD1B2" rx="6.6" ry="6.6" style="stroke:#181818;stroke-width:0.6;"/><path d="M728.9912,220.4977 Q729.085,220.3664 729.1975,220.3008 Q729.31,220.2352 729.4412,220.2352 Q729.6662,220.2352 729.8068,220.3945 Q729.9475,220.5445 729.9475,220.9102 L729.9475,221.782 Q729.9475,222.1477 729.8068,222.307 Q729.6662,222.4664 729.4412,222.4664 Q729.235,222.4664 729.1131,222.3445 Q728.9912,222.232 728.9256,221.9227 Q728.8975,221.707 728.785,221.5945 Q728.5881,221.3695 728.2225,221.2383 Q727.8568,221.107 727.4818,221.107 Q727.0225,221.107 726.6381,221.3039 Q726.2631,221.5008 725.9631,221.9508 Q725.6725,222.4008 725.6725,223.0195 L725.6725,223.6758 Q725.6725,224.4164 726.2068,224.9133 Q726.7412,225.4008 727.6975,225.4008 Q728.26,225.4008 728.6537,225.2508 Q728.8881,225.157 729.1412,224.8945 Q729.3006,224.7352 729.385,224.6883 Q729.4787,224.6414 729.6006,224.6414 Q729.7975,224.6414 729.9475,224.8008 Q730.1068,224.9508 730.1068,225.157 Q730.1068,225.3633 729.9006,225.607 Q729.6006,225.9539 729.1225,226.1508 Q728.4756,226.4227 727.6975,226.4227 Q726.7881,226.4227 726.0662,226.0477 Q725.4756,225.7477 725.0631,225.1102 Q724.6506,224.4633 724.6506,223.6945 L724.6506,223.0008 Q724.6506,222.2039 725.0162,221.5195 Q725.3912,220.8258 726.0475,220.4602 Q726.7037,220.0852 727.4443,220.0852 Q727.885,220.0852 728.2693,220.1883 Q728.6631,220.282 728.9912,220.4977 Z " fill="#000000"/><text fill="#000000" font-family="sans-serif" font-size="8.4" lengthAdjust="spacing" textLength="14.4662" x="739.6318" y="226.4508">City</text><line style="stroke:#181818;stroke-width:0.3;" x1="593.7" x2="880.5299" y1="232.5727" y2="232.5727"/><text fill="#000000" font-family="sans-serif" font-size="8.4" lengthAdjust="spacing" textLength="58.8205" x="596.7" y="244.0371">-nameID: String</text><text fill="#000000" font-family="sans-serif" font-size="8.4" lengthAdjust="spacing" textLength="66.3018" x="596.7" y="255.2098">-position: Position</text><text fill="#000000" font-family="sans-serif" font-size="8.4" lengthAdjust="spacing" textLength="122.7967" x="596.7" y="266.3824">-houseBlocks: List&lt;HouseBlock&gt;</text><text fill="#000000" font-family="sans-serif" font-size="8.4" lengthAdjust="spacing" textLength="61.6219" x="596.7" y="277.5551">-trafficRate: float</text><text fill="#000000" font-family="sans-serif" font-size="8.4" lengthAdjust="spacing" textLength="70.5059" x="596.7" y="288.7277">-suppliedCargo: int</text><text fill="#000000" font-family="sans-serif" font-size="8.4" lengthAdjust="spacing" textLength="78.9141" x="596.7" y="299.9004">-demandedCargo: int</text><line style="stroke:#181818;stroke-width:0.3;" x1="593.7" x2="880.5299" y1="304.4086" y2="304.4086"/><text fill="#000000" font-family="sans-serif" font-size="8.4" lengthAdjust="spacing" textLength="280.8299" x="596.7" y="315.873">+City(nameID : String, position : Position, houseBlocks : List&lt;HouseBlock&gt;)</text><text fill="#000000" font-family="sans-serif" font-size="8.4" lengthAdjust="spacing" textLength="184.6688" x="596.7" y="327.0457">+addBlocks(blocks : List&lt;HouseBlock&gt;) : boolean</text></g><!--class Map--><g id="elem_Map"><rect codeLine="57" fill="#F1F1F1" height="129.3539" id="Map" rx="1.5" ry="1.5" style="stroke:#181818;stroke-width:0.3;" width="223.6148" x="919.8" y="36.3727"/><ellipse cx="1020.8871" cy="45.9727" fill="#ADD1B2" rx="6.6" ry="6.6" style="stroke:#181818;stroke-width:0.6;"/><path d="M1022.5465,43.4977 Q1022.6402,43.3664 1022.7527,43.3008 Q1022.8652,43.2352 1022.9965,43.2352 Q1023.2215,43.2352 1023.3621,43.3945 Q1023.5027,43.5445 1023.5027,43.9102 L1023.5027,44.782 Q1023.5027,45.1477 1023.3621,45.307 Q1023.2215,45.4664 1022.9965,45.4664 Q1022.7902,45.4664 1022.6684,45.3445 Q1022.5465,45.232 1022.4809,44.9227 Q1022.4527,44.707 1022.3402,44.5945 Q1022.1434,44.3695 1021.7777,44.2383 Q1021.4121,44.107 1021.0371,44.107 Q1020.5777,44.107 1020.1934,44.3039 Q1019.8184,44.5008 1019.5184,44.9508 Q1019.2277,45.4008 1019.2277,46.0195 L1019.2277,46.6758 Q1019.2277,47.4164 1019.7621,47.9133 Q1020.2965,48.4008 1021.2527,48.4008 Q1021.8152,48.4008 1022.209,48.2508 Q1022.4434,48.157 1022.6965,47.8945 Q1022.8559,47.7352 1022.9402,47.6883 Q1023.034,47.6414 1023.1559,47.6414 Q1023.3527,47.6414 1023.5027,47.8008 Q1023.6621,47.9508 1023.6621,48.157 Q1023.6621,48.3633 1023.4559,48.607 Q1023.1559,48.9539 1022.6777,49.1508 Q1022.0309,49.4227 1021.2527,49.4227 Q1020.3434,49.4227 1019.6215,49.0477 Q1019.0309,48.7477 1018.6184,48.1102 Q1018.2059,47.4633 1018.2059,46.6945 L1018.2059,46.0008 Q1018.2059,45.2039 1018.5715,44.5195 Q1018.9465,43.8258 1019.6027,43.4602 Q1020.259,43.0852 1020.9996,43.0852 Q1021.4402,43.0852 1021.8246,43.1883 Q1022.2184,43.282 1022.5465,43.4977 Z " fill="#000000"/><text fill="#000000" font-family="sans-serif" font-size="8.4" lengthAdjust="spacing" textLength="16.3406" x="1033.1871" y="49.4508">Map</text><line style="stroke:#181818;stroke-width:0.3;" x1="920.4" x2="1142.8148" y1="55.5727" y2="55.5727"/><text fill="#000000" font-family="sans-serif" font-size="8.4" lengthAdjust="spacing" textLength="61.1543" x="923.4" y="67.0371">-nameID : String</text><text fill="#000000" font-family="sans-serif" font-size="8.4" lengthAdjust="spacing" textLength="66.2854" x="923.4" y="78.2098">-cities : List&lt;City&gt;</text><text fill="#000000" font-family="sans-serif" font-size="8.4" lengthAdjust="spacing" textLength="98.5113" x="923.4" y="89.3824">-industries : List&lt;Industry&gt;</text><text fill="#000000" font-family="sans-serif" font-size="8.4" lengthAdjust="spacing" textLength="41.0771" x="923.4" y="100.5551">-size : Size</text><line style="stroke:#181818;stroke-width:0.3;" x1="920.4" x2="1142.8148" y1="105.0633" y2="105.0633"/><text fill="#000000" font-family="sans-serif" font-size="8.4" lengthAdjust="spacing" textLength="109.9465" x="923.4" y="116.5277">+addCity(city : City) : boolean</text><text fill="#000000" font-family="sans-serif" font-size="8.4" lengthAdjust="spacing" textLength="176.2605" x="923.4" y="127.7004">+isPositionAvailable(x : float, y : float) : boolean</text><text fill="#000000" font-family="sans-serif" font-size="8.4" lengthAdjust="spacing" textLength="197.2729" x="923.4" y="138.873">+markPositionOccupied(position : Position) : boolean</text><text fill="#000000" font-family="sans-serif" font-size="8.4" lengthAdjust="spacing" textLength="123.9656" x="923.4" y="150.0457">+getCityBoundaries() : Rectangle</text><text fill="#000000" font-family="sans-serif" font-size="8.4" lengthAdjust="spacing" textLength="216.4148" x="923.4" y="161.2184">+getAvailablePositions(numPositions : int) : List&lt;Position&gt;</text></g><!--class HouseBlock--><g id="elem_HouseBlock"><rect codeLine="69" fill="#F1F1F1" height="73.4906" id="HouseBlock" rx="1.5" ry="1.5" style="stroke:#181818;stroke-width:0.3;" width="213.3404" x="529.5" y="378.9727"/><ellipse cx="611.2093" cy="388.5727" fill="#ADD1B2" rx="6.6" ry="6.6" style="stroke:#181818;stroke-width:0.6;"/><path d="M612.8687,386.0977 Q612.9624,385.9664 613.0749,385.9008 Q613.1874,385.8352 613.3187,385.8352 Q613.5437,385.8352 613.6843,385.9945 Q613.8249,386.1445 613.8249,386.5102 L613.8249,387.382 Q613.8249,387.7477 613.6843,387.907 Q613.5437,388.0664 613.3187,388.0664 Q613.1124,388.0664 612.9905,387.9445 Q612.8687,387.832 612.803,387.5227 Q612.7749,387.307 612.6624,387.1945 Q612.4655,386.9695 612.0999,386.8383 Q611.7343,386.707 611.3593,386.707 Q610.8999,386.707 610.5155,386.9039 Q610.1405,387.1008 609.8405,387.5508 Q609.5499,388.0008 609.5499,388.6195 L609.5499,389.2758 Q609.5499,390.0164 610.0843,390.5133 Q610.6187,391.0008 611.5749,391.0008 Q612.1374,391.0008 612.5312,390.8508 Q612.7655,390.757 613.0187,390.4945 Q613.178,390.3352 613.2624,390.2883 Q613.3562,390.2414 613.478,390.2414 Q613.6749,390.2414 613.8249,390.4008 Q613.9843,390.5508 613.9843,390.757 Q613.9843,390.9633 613.778,391.207 Q613.478,391.5539 612.9999,391.7508 Q612.353,392.0227 611.5749,392.0227 Q610.6655,392.0227 609.9437,391.6477 Q609.353,391.3477 608.9405,390.7102 Q608.528,390.0633 608.528,389.2945 L608.528,388.6008 Q608.528,387.8039 608.8937,387.1195 Q609.2687,386.4258 609.9249,386.0602 Q610.5812,385.6852 611.3218,385.6852 Q611.7624,385.6852 612.1468,385.7883 Q612.5405,385.882 612.8687,386.0977 Z " fill="#000000"/><text fill="#000000" font-family="sans-serif" font-size="8.4" lengthAdjust="spacing" textLength="44.8219" x="623.5093" y="392.0508">HouseBlock</text><line style="stroke:#181818;stroke-width:0.3;" x1="530.1" x2="742.2404" y1="398.1727" y2="398.1727"/><text fill="#000000" font-family="sans-serif" font-size="8.4" lengthAdjust="spacing" textLength="66.3018" x="533.1" y="409.6371">-position: Position</text><text fill="#000000" font-family="sans-serif" font-size="8.4" lengthAdjust="spacing" textLength="113.4656" x="533.1" y="420.8098">-automaticPlacement: boolean</text><line style="stroke:#181818;stroke-width:0.3;" x1="530.1" x2="742.2404" y1="425.318" y2="425.318"/><text fill="#000000" font-family="sans-serif" font-size="8.4" lengthAdjust="spacing" textLength="206.1404" x="533.1" y="436.7824">+HouseBlock(position : Position, isAutomatic : boolean)</text><text fill="#000000" font-family="sans-serif" font-size="8.4" lengthAdjust="spacing" textLength="139.8387" x="533.1" y="447.9551">+setPosition(position : Position) : void</text></g><!--class Position--><g id="elem_Position"><rect codeLine="76" fill="#F1F1F1" height="95.8359" id="Position" rx="1.5" ry="1.5" style="stroke:#181818;stroke-width:0.3;" width="157.3254" x="706.5" y="499.5727"/><ellipse cx="767.6707" cy="509.1727" fill="#ADD1B2" rx="6.6" ry="6.6" style="stroke:#181818;stroke-width:0.6;"/><path d="M769.3301,506.6977 Q769.4238,506.5664 769.5363,506.5008 Q769.6488,506.4352 769.7801,506.4352 Q770.0051,506.4352 770.1457,506.5945 Q770.2863,506.7445 770.2863,507.1102 L770.2863,507.982 Q770.2863,508.3477 770.1457,508.507 Q770.0051,508.6664 769.7801,508.6664 Q769.5738,508.6664 769.452,508.5445 Q769.3301,508.432 769.2645,508.1227 Q769.2363,507.907 769.1238,507.7945 Q768.927,507.5695 768.5613,507.4383 Q768.1957,507.307 767.8207,507.307 Q767.3613,507.307 766.977,507.5039 Q766.602,507.7008 766.302,508.1508 Q766.0113,508.6008 766.0113,509.2195 L766.0113,509.8758 Q766.0113,510.6164 766.5457,511.1133 Q767.0801,511.6008 768.0363,511.6008 Q768.5988,511.6008 768.9926,511.4508 Q769.227,511.357 769.4801,511.0945 Q769.6395,510.9352 769.7238,510.8883 Q769.8176,510.8414 769.9395,510.8414 Q770.1363,510.8414 770.2863,511.0008 Q770.4457,511.1508 770.4457,511.357 Q770.4457,511.5633 770.2395,511.807 Q769.9395,512.1539 769.4613,512.3508 Q768.8145,512.6227 768.0363,512.6227 Q767.127,512.6227 766.4051,512.2477 Q765.8145,511.9477 765.402,511.3102 Q764.9895,510.6633 764.9895,509.8945 L764.9895,509.2008 Q764.9895,508.4039 765.3551,507.7195 Q765.7301,507.0258 766.3863,506.6602 Q767.0426,506.2852 767.7832,506.2852 Q768.2238,506.2852 768.6082,506.3883 Q769.002,506.482 769.3301,506.6977 Z " fill="#000000"/><text fill="#000000" font-family="sans-serif" font-size="8.4" lengthAdjust="spacing" textLength="29.884" x="779.9707" y="512.6508">Position</text><line style="stroke:#181818;stroke-width:0.3;" x1="707.1" x2="863.2254" y1="518.7727" y2="518.7727"/><text fill="#000000" font-family="sans-serif" font-size="8.4" lengthAdjust="spacing" textLength="27.542" x="710.1" y="530.2371">-x: float</text><text fill="#000000" font-family="sans-serif" font-size="8.4" lengthAdjust="spacing" textLength="27.542" x="710.1" y="541.4098">-y: float</text><text fill="#000000" font-family="sans-serif" font-size="8.4" lengthAdjust="spacing" textLength="70.9857" x="710.1" y="552.5824">-occupied: boolean</text><line style="stroke:#181818;stroke-width:0.3;" x1="707.1" x2="863.2254" y1="557.0906" y2="557.0906"/><text fill="#000000" font-family="sans-serif" font-size="8.4" lengthAdjust="spacing" textLength="99.2086" x="710.1" y="568.5551">+Position(x : float, y : float)</text><text fill="#000000" font-family="sans-serif" font-size="8.4" lengthAdjust="spacing" textLength="88.9506" x="710.1" y="579.7277">+isOccupied() : boolean</text><text fill="#000000" font-family="sans-serif" font-size="8.4" lengthAdjust="spacing" textLength="150.1254" x="710.1" y="590.9004">+setOccupied(occupied : boolean) : void</text></g><!--class Size--><g id="elem_Size"><rect codeLine="85" fill="#F1F1F1" height="84.6633" id="Size" rx="1.5" ry="1.5" style="stroke:#181818;stroke-width:0.3;" width="112.9506" x="975.3" y="230.1727"/><ellipse cx="1021.055" cy="239.7727" fill="#ADD1B2" rx="6.6" ry="6.6" style="stroke:#181818;stroke-width:0.6;"/><path d="M1022.7144,237.2977 Q1022.8081,237.1664 1022.9206,237.1008 Q1023.0331,237.0352 1023.1644,237.0352 Q1023.3894,237.0352 1023.53,237.1945 Q1023.6706,237.3445 1023.6706,237.7102 L1023.6706,238.582 Q1023.6706,238.9477 1023.53,239.107 Q1023.3894,239.2664 1023.1644,239.2664 Q1022.9581,239.2664 1022.8362,239.1445 Q1022.7144,239.032 1022.6487,238.7227 Q1022.6206,238.507 1022.5081,238.3945 Q1022.3112,238.1695 1021.9456,238.0383 Q1021.58,237.907 1021.205,237.907 Q1020.7456,237.907 1020.3612,238.1039 Q1019.9862,238.3008 1019.6862,238.7508 Q1019.3956,239.2008 1019.3956,239.8195 L1019.3956,240.4758 Q1019.3956,241.2164 1019.93,241.7133 Q1020.4644,242.2008 1021.4206,242.2008 Q1021.9831,242.2008 1022.3769,242.0508 Q1022.6112,241.957 1022.8644,241.6945 Q1023.0237,241.5352 1023.1081,241.4883 Q1023.2019,241.4414 1023.3237,241.4414 Q1023.5206,241.4414 1023.6706,241.6008 Q1023.83,241.7508 1023.83,241.957 Q1023.83,242.1633 1023.6237,242.407 Q1023.3237,242.7539 1022.8456,242.9508 Q1022.1987,243.2227 1021.4206,243.2227 Q1020.5112,243.2227 1019.7894,242.8477 Q1019.1987,242.5477 1018.7862,241.9102 Q1018.3737,241.2633 1018.3737,240.4945 L1018.3737,239.8008 Q1018.3737,239.0039 1018.7394,238.3195 Q1019.1144,237.6258 1019.7706,237.2602 Q1020.4269,236.8852 1021.1675,236.8852 Q1021.6081,236.8852 1021.9925,236.9883 Q1022.3862,237.082 1022.7144,237.2977 Z " fill="#000000"/><text fill="#000000" font-family="sans-serif" font-size="8.4" lengthAdjust="spacing" textLength="16.3406" x="1033.355" y="243.2508">Size</text><line style="stroke:#181818;stroke-width:0.3;" x1="975.9" x2="1087.6506" y1="249.3727" y2="249.3727"/><text fill="#000000" font-family="sans-serif" font-size="8.4" lengthAdjust="spacing" textLength="35.9461" x="978.9" y="260.8371">-width: int</text><text fill="#000000" font-family="sans-serif" font-size="8.4" lengthAdjust="spacing" textLength="39.2232" x="978.9" y="272.0098">-height: int</text><line style="stroke:#181818;stroke-width:0.3;" x1="975.9" x2="1087.6506" y1="276.518" y2="276.518"/><text fill="#000000" font-family="sans-serif" font-size="8.4" lengthAdjust="spacing" textLength="105.7506" x="978.9" y="287.9824">+Size(width : int, height : int)</text><text fill="#000000" font-family="sans-serif" font-size="8.4" lengthAdjust="spacing" textLength="59.5219" x="978.9" y="299.1551">+getWidth() : int</text><text fill="#000000" font-family="sans-serif" font-size="8.4" lengthAdjust="spacing" textLength="62.3314" x="978.9" y="310.3277">+getHeight() : int</text></g><!--class AddCityUI--><g id="elem_AddCityUI"><rect codeLine="94" fill="#F1F1F1" height="28.8" id="AddCityUI" rx="1.5" ry="1.5" style="stroke:#181818;stroke-width:0.3;" width="57.0123" x="4.2" y="86.7727"/><ellipse cx="13.2" cy="96.3727" fill="#ADD1B2" rx="6.6" ry="6.6" style="stroke:#181818;stroke-width:0.6;"/><path d="M14.8594,93.8977 Q14.9531,93.7664 15.0656,93.7008 Q15.1781,93.6352 15.3094,93.6352 Q15.5344,93.6352 15.675,93.7945 Q15.8156,93.9445 15.8156,94.3102 L15.8156,95.182 Q15.8156,95.5477 15.675,95.707 Q15.5344,95.8664 15.3094,95.8664 Q15.1031,95.8664 14.9813,95.7445 Q14.8594,95.632 14.7938,95.3227 Q14.7656,95.107 14.6531,94.9945 Q14.4562,94.7695 14.0906,94.6383 Q13.725,94.507 13.35,94.507 Q12.8906,94.507 12.5063,94.7039 Q12.1313,94.9008 11.8312,95.3508 Q11.5406,95.8008 11.5406,96.4195 L11.5406,97.0758 Q11.5406,97.8164 12.075,98.3133 Q12.6094,98.8008 13.5656,98.8008 Q14.1281,98.8008 14.5219,98.6508 Q14.7563,98.557 15.0094,98.2945 Q15.1688,98.1352 15.2531,98.0883 Q15.3469,98.0414 15.4688,98.0414 Q15.6656,98.0414 15.8156,98.2008 Q15.975,98.3508 15.975,98.557 Q15.975,98.7633 15.7687,99.007 Q15.4688,99.3539 14.9906,99.5508 Q14.3438,99.8227 13.5656,99.8227 Q12.6563,99.8227 11.9344,99.4477 Q11.3438,99.1477 10.9313,98.5102 Q10.5187,97.8633 10.5187,97.0945 L10.5187,96.4008 Q10.5187,95.6039 10.8844,94.9195 Q11.2594,94.2258 11.9156,93.8602 Q12.5719,93.4852 13.3125,93.4852 Q13.7531,93.4852 14.1375,93.5883 Q14.5313,93.682 14.8594,93.8977 Z " fill="#000000"/><text fill="#000000" font-family="sans-serif" font-size="8.4" lengthAdjust="spacing" textLength="37.8123" x="21.6" y="99.8508">AddCityUI</text><line style="stroke:#181818;stroke-width:0.3;" x1="4.8" x2="60.6123" y1="105.9727" y2="105.9727"/><line style="stroke:#181818;stroke-width:0.3;" x1="4.8" x2="60.6123" y1="110.7727" y2="110.7727"/></g><!--link AddCityController to ApplicationSession--><g id="link_AddCityController_ApplicationSession"><path codeLine="98" d="M571.29,58.7767 C612.408,42.3307 649.8,27.3727 649.8,27.3727 C649.8,27.3727 787.2,27.3727 787.2,27.3727 C787.2,27.3727 797.7,36.3727 797.7,36.3727 C797.7,36.3727 809.9611,50.6125 824.2291,67.1845 " fill="none" id="AddCityController-to-ApplicationSession" style="stroke:#181818;stroke-width:0.6;stroke-dasharray:7.0,7.0;"/><polygon fill="#181818" points="826.578,69.9127,824.8735,64.2545,824.6206,67.6392,821.2359,67.3863,826.578,69.9127" style="stroke:#181818;stroke-width:0.6;"/></g><!--link Repositories to MapRepository--><g id="link_Repositories_MapRepository"><path codeLine="99" d="M680.526,132.5587 C660.198,149.0347 639.3,165.9727 639.3,165.9727 C639.3,165.9727 579.9248,207.8882 535.6268,239.1662 " fill="none" id="Repositories-to-MapRepository" style="stroke:#181818;stroke-width:0.6;"/><polygon fill="#181818" points="532.686,241.2427,538.4815,240.0885,535.1367,239.5123,535.7129,236.1674,532.686,241.2427" style="stroke:#181818;stroke-width:0.6;"/><text fill="#000000" font-family="sans-serif" font-size="7.8" lengthAdjust="spacing" textLength="52.4558" x="611.1" y="192.9896">mapRepository</text></g><!--link AddCityController to Repositories--><g id="link_AddCityController_Repositories"><path codeLine="100" d="M628.818,101.1727 C632.142,101.1727 634.098,101.1727 634.098,101.1727 C634.098,101.1727 636.9,101.1727 646.176,101.1727 " fill="none" id="AddCityController-to-Repositories" style="stroke:#181818;stroke-width:0.6;stroke-dasharray:7.0,7.0;"/><polygon fill="#181818" points="649.776,101.1727,644.376,98.7727,646.776,101.1727,644.376,103.5727,649.776,101.1727" style="stroke:#181818;stroke-width:0.6;"/></g><!--link AddCityController to City--><g id="link_AddCityController_City"><path codeLine="101" d="M568.488,143.4727 C618.84,163.8247 668.7,183.9727 668.7,183.9727 C668.7,183.9727 676.7191,194.2776 689.2651,210.3996 " fill="none" id="AddCityController-to-City" style="stroke:#181818;stroke-width:0.6;stroke-dasharray:7.0,7.0;"/><polygon fill="#181818" points="691.476,213.2407,690.0537,207.5051,689.6336,210.8731,686.2656,210.453,691.476,213.2407" style="stroke:#181818;stroke-width:0.6;"/></g><!--link AddCityController to Map--><g id="link_AddCityController_Map"><path codeLine="102" d="M571.29,58.7767 C612.408,42.3307 649.8,27.3727 649.8,27.3727 C649.8,27.3727 898.8,27.3727 898.8,27.3727 C898.8,27.3727 903.9565,30.2394 916.4185,37.1574 " fill="none" id="AddCityController-to-Map" style="stroke:#181818;stroke-width:0.6;stroke-dasharray:7.0,7.0;"/><polygon fill="#181818" points="919.566,38.9047,916.0095,34.1854,916.9431,37.4486,913.6798,38.3821,919.566,38.9047" style="stroke:#181818;stroke-width:0.6;"/></g><!--link AddCityController to MapRepository--><g id="link_AddCityController_MapRepository"><path codeLine="103" d="M471.204,143.5987 C475.464,173.8027 480.6193,210.3359 484.4653,237.6059 " fill="none" id="AddCityController-to-MapRepository" style="stroke:#181818;stroke-width:0.6;stroke-dasharray:7.0,7.0;"/><polygon fill="#181818" points="484.968,241.1707,486.5904,235.4884,484.549,238.2001,481.8374,236.1587,484.968,241.1707" style="stroke:#181818;stroke-width:0.6;"/></g><!--link AddHouseBlocksController to HouseBlock--><g id="link_AddHouseBlocksController_HouseBlock"><path codeLine="104" d="M212.652,132.5287 C276.09,195.1447 414.3,331.5727 414.3,331.5727 C414.3,331.5727 476.9659,355.1167 537.0079,377.6707 " fill="none" id="AddHouseBlocksController-to-HouseBlock" style="stroke:#181818;stroke-width:0.6;stroke-dasharray:7.0,7.0;"/><polygon fill="#181818" points="540.378,378.9367,536.1668,374.791,537.5696,377.8817,534.4789,379.2845,540.378,378.9367" style="stroke:#181818;stroke-width:0.6;"/></g><!--link AddHouseBlocksController to Map--><g id="link_AddHouseBlocksController_Map"><path codeLine="105" d="M232.518,69.8767 C265.308,49.7587 301.8,27.3727 301.8,27.3727 C301.8,27.3727 898.8,27.3727 898.8,27.3727 C898.8,27.3727 903.9565,30.2394 916.4185,37.1574 " fill="none" id="AddHouseBlocksController-to-Map" style="stroke:#181818;stroke-width:0.6;stroke-dasharray:7.0,7.0;"/><polygon fill="#181818" points="919.566,38.9047,916.0095,34.1854,916.9431,37.4486,913.6798,38.3821,919.566,38.9047" style="stroke:#181818;stroke-width:0.6;"/></g><!--link AddCityUI to AddCityController--><g id="link_AddCityUI_AddCityController"><path codeLine="106" d="M41.454,86.6287 C52.95,67.5247 71.7,36.3727 71.7,36.3727 C71.7,36.3727 82.2,27.3727 82.2,27.3727 C82.2,27.3727 280.8,27.3727 280.8,27.3727 C280.8,27.3727 314.8495,40.9937 355.9675,57.4397 " fill="none" id="AddCityUI-to-AddCityController" style="stroke:#181818;stroke-width:0.6;stroke-dasharray:7.0,7.0;"/><polygon fill="#181818" points="359.31,58.7767,355.1875,54.5429,356.5245,57.6626,353.4049,58.9996,359.31,58.7767" style="stroke:#181818;stroke-width:0.6;"/></g><!--link AddCityUI to AddHouseBlocksController--><g id="link_AddCityUI_AddHouseBlocksController"><path codeLine="107" d="M61.266,101.1727 C71.604,101.1727 77.442,101.1727 78.582,101.1727 " fill="none" id="AddCityUI-to-AddHouseBlocksController" style="stroke:#181818;stroke-width:0.6;stroke-dasharray:7.0,7.0;"/><polygon fill="#181818" points="82.182,101.1727,76.782,98.7727,79.182,101.1727,76.782,103.5727,82.182,101.1727" style="stroke:#181818;stroke-width:0.6;"/></g><!--reverse link Map to City--><g id="link_Map_City"><path codeLine="108" d="M913.4027,169.3014 C894.8147,179.9094 887.7,183.9727 887.7,183.9727 C887.7,183.9727 865.062,197.1847 837.342,213.3667 " fill="none" id="Map-backto-City" style="stroke:#181818;stroke-width:0.6;"/><polygon fill="#181818" points="919.656,165.7327,915.3398,165.4326,913.4027,169.3014,917.7189,169.6015,919.656,165.7327" style="stroke:#181818;stroke-width:0.6;"/><text fill="#000000" font-family="sans-serif" font-size="7.8" lengthAdjust="spacing" textLength="29.052" x="888.3" y="192.9896">contains</text><text fill="#000000" font-family="sans-serif" font-size="7.8" lengthAdjust="spacing" textLength="4.338" x="910.6474" y="166.467">1</text><text fill="#000000" font-family="sans-serif" font-size="7.8" lengthAdjust="spacing" textLength="11.7076" x="833.191" y="206.6753">1..*</text></g><!--reverse link City to HouseBlock--><g id="link_City_HouseBlock"><path codeLine="109" d="M691.3505,337.4785 C679.9625,353.5105 672.12,364.5427 661.92,378.9127 " fill="none" id="City-backto-HouseBlock" style="stroke:#181818;stroke-width:0.6;"/><polygon fill="#181818" points="695.52,331.6087,691.4786,333.1537,691.3505,337.4785,695.3919,335.9334,695.52,331.6087" style="stroke:#181818;stroke-width:0.6;"/><text fill="#000000" font-family="sans-serif" font-size="7.8" lengthAdjust="spacing" textLength="29.052" x="680.7" y="358.5896">contains</text><text fill="#000000" font-family="sans-serif" font-size="7.8" lengthAdjust="spacing" textLength="4.338" x="688.1162" y="344.7501">1</text><text fill="#000000" font-family="sans-serif" font-size="7.8" lengthAdjust="spacing" textLength="11.7076" x="652.856" y="372.2944">1..*</text></g><!--reverse link Map to Size--><g id="link_Map_Size"><path codeLine="110" d="M1031.7,173.2807 C1031.7,194.7307 1031.7,210.8587 1031.7,230.1307 " fill="none" id="Map-backto-Size" style="stroke:#181818;stroke-width:0.6;"/><polygon fill="#181818" points="1031.7,166.0807,1029.3,169.6807,1031.7,173.2807,1034.1,169.6807,1031.7,166.0807" style="stroke:#181818;stroke-width:0.6;"/><text fill="#000000" font-family="sans-serif" font-size="7.8" lengthAdjust="spacing" textLength="12.576" x="1032.3" y="192.9896">has</text><text fill="#000000" font-family="sans-serif" font-size="7.8" lengthAdjust="spacing" textLength="4.338" x="1027.3758" y="178.996">1</text><text fill="#000000" font-family="sans-serif" font-size="7.8" lengthAdjust="spacing" textLength="4.338" x="1027.2828" y="223.4609">1</text></g><!--link HouseBlock to Position--><g id="link_HouseBlock_Position"><path codeLine="111" d="M677.352,452.2627 C693.954,466.8547 713.352,483.9067 731.076,499.4827 " fill="none" id="HouseBlock-Position" style="stroke:#181818;stroke-width:0.6;"/><polygon fill="#000000" points="715.9533,477.9405,713.0411,473.0332,710.7129,475.6821,715.9533,477.9405" style="stroke:#000000;stroke-width:0.6;"/><text fill="#000000" font-family="sans-serif" font-size="7.8" lengthAdjust="spacing" textLength="12.576" x="719.1" y="479.1896">has</text><text fill="#000000" font-family="sans-serif" font-size="7.8" lengthAdjust="spacing" textLength="4.338" x="677.9235" y="465.7657">1</text><text fill="#000000" font-family="sans-serif" font-size="7.8" lengthAdjust="spacing" textLength="4.338" x="721.7026" y="492.8118">1</text></g><!--link City to Position--><g id="link_City_Position"><path codeLine="112" d="M747.366,331.6627 C756.138,381.7147 768.6,452.8147 776.766,499.4047 " fill="none" id="City-Position" style="stroke:#181818;stroke-width:0.6;"/><polygon fill="#000000" points="771.2179,418.6149,772.0179,412.9649,768.5441,413.5738,771.2179,418.6149" style="stroke:#000000;stroke-width:0.6;"/><text fill="#000000" font-family="sans-serif" font-size="7.8" lengthAdjust="spacing" textLength="33.8241" x="776.1" y="418.8896">located at</text><text fill="#000000" font-family="sans-serif" font-size="7.8" lengthAdjust="spacing" textLength="4.338" x="743.7697" y="344.808">1</text><text fill="#000000" font-family="sans-serif" font-size="7.8" lengthAdjust="spacing" textLength="4.338" x="771.6373" y="492.8925">1</text></g><!--link Map to Position--><g id="link_Map_Position"><path codeLine="113" d="M993.342,166.0447 C978.54,190.8547 965.1,213.3727 965.1,213.3727 C965.1,213.3727 860.394,407.4307 810.696,499.5307 " fill="none" id="Map-Position" style="stroke:#181818;stroke-width:0.6;"/><polygon fill="#000000" points="891.0589,357.9912,895.2124,354.0783,892.1193,352.3842,891.0589,357.9912" style="stroke:#000000;stroke-width:0.6;"/><text fill="#000000" font-family="sans-serif" font-size="7.8" lengthAdjust="spacing" textLength="20.8025" x="897.9" y="358.5896">tracks</text><text fill="#000000" font-family="sans-serif" font-size="7.8" lengthAdjust="spacing" textLength="4.338" x="986.5605" y="178.9577">1</text><text fill="#000000" font-family="sans-serif" font-size="7.8" lengthAdjust="spacing" textLength="3.0354" x="809.9132" y="492.8642">*</text></g><!--SRC=[hLPTRziW57tthq1vcVlXgjFUeYbIccfgfBMh6bLx9eOug1Wym6spglzz5p0OEswVzXBRznuEz-DmYNvYei4ArwZ1vHEkwCOSE4MAbWQBYjDCHu3UOo9VcAZG3dETUZWJr1mQYXh93_OZyPKSQxqqHh5jQ-Ywb6B3_b9qcMM66TXfPVteck4Aq7FqkBdyXWgq90HXL39po3B7W9PDmrc93GC2gZKyq5k6K75ipq_0VbPHinOQaYXfDAnQfQWmFUuzoxwWMym4WhYCafnJvICEknAoWY1MlVUjure-OyRnbjDRtEZy1CtHJwRDT_XQMCGpvenWG-zmJNC1Fm3OG154THBVKjnAIaMOW3UTlm9YnoKsv-WGNksgUwcPpNF0tzPNN9PFEXTjlONuveW9XuQ71MhyJ6qABeZrTTpy79hbwHBcSxINhQQUCQHq4qqBosl9VE6IgkoayalHrg-jiG0nrL3jlf8zaHuN512i4dqcCO8kcN4WTasZPDsO7rAbjVDrwd9Nz4zBjRcZBo71nEzIUA2k2b8TVDjfQ7nqCAgzq6hS9EWvo2RvFb8S058AwnyGECIGuZr8VM2EWflMcMqllET0xWajOYibfrWCLMzHtQO-zsjPE-KFyhRTzVbwlIHQBO9W1aei4iLCzgam2kzsh7o0_dHYjbRTseDBoGghIWQr5eI2SCZ8UlR_zEkqHaWdjErdEWz5JDkILYOznWLCAYkKZid6wr9dWhJQgCIrzXRlrdOI0Wqyki1SfdRiTGTjr4scGwPn_7muBP9bDLPFOU6licmRg7i-KRu9xK0CLx8L1DiaEbc7gs4q20EBEy3nOtI6WttHrxMlko_ljCnmQq2lXfNt79Tki0nYxKdoILqmlGm4VP9E3fgQE1q-gCcpPAIFDtXyjA-9fW_9k-pgF8WoRZJPDD_XsA1HDo3Ew0haIIf7ORfhreNumeZPnoEsfwpQctYsB2nt2DyfE48EqFMjQ_9l2yYJQmLiDmuNZMwcFAwdha-mleLvozrLhVUiqTdnxNgncBZeiy4mBeh5Q4BEqM2qJjCEfl4ambrianuxCZzo3FUTlk80sJi-XIKxGT5iDSRR7hadkJ8xh6PVP-YqAE1vSN4wywDzxlxfmDpNcViUOPApc227P3ClhJdQOvqb2wod0zptvmX0QD7lTGo0jN0pmDyz0xYmauMT3c1mYzXPlSZ-0G00]--></g></svg>