<svg xmlns="http://www.w3.org/2000/svg" xmlns:xlink="http://www.w3.org/1999/xlink" contentStyleType="text/css" height="519px" preserveAspectRatio="none" style="width:696px;height:519px;background:#FFFFFF;" version="1.1" viewBox="0 0 696 519" width="696px" zoomAndPan="magnify"><title>System Sequence Diagram : Ref - Get available maps</title><defs/><g><text fill="#000000" font-family="sans-serif" font-size="14" font-weight="bold" lengthAdjust="spacing" textLength="354.0264" x="172.5933" y="30.1074">System Sequence Diagram : Ref - Get available maps</text><rect fill="#FFFFFF" height="338.2012" style="stroke:#181818;stroke-width:1.0;" width="10" x="141.5044" y="106.8633"/><rect fill="#FFFFFF" height="31.291" style="stroke:#181818;stroke-width:1.0;" width="10" x="363.0244" y="250.3184"/><rect fill="#FFFFFF" height="31.291" style="stroke:#181818;stroke-width:1.0;" width="10" x="363.0244" y="312.9004"/><rect fill="#FFFFFF" height="31.291" style="stroke:#181818;stroke-width:1.0;" width="10" x="476.8965" y="375.4824"/><rect fill="#FFFFFF" height="31.291" style="stroke:#181818;stroke-width:1.0;" width="10" x="609.0649" y="187.7363"/><rect fill="none" height="269.6191" style="stroke:#000000;stroke-width:1.5;" width="615.5635" x="74.6494" y="145.1543"/><line style="stroke:#181818;stroke-width:0.5;stroke-dasharray:5.0,5.0;" x1="145.6494" x2="145.6494" y1="96.8633" y2="463.0645"/><line style="stroke:#181818;stroke-width:0.5;stroke-dasharray:5.0,5.0;" x1="263.3594" x2="263.3594" y1="96.8633" y2="463.0645"/><line style="stroke:#181818;stroke-width:0.5;stroke-dasharray:5.0,5.0;" x1="367.1729" x2="367.1729" y1="96.8633" y2="463.0645"/><line style="stroke:#181818;stroke-width:0.5;stroke-dasharray:5.0,5.0;" x1="481.876" x2="481.876" y1="96.8633" y2="463.0645"/><line style="stroke:#181818;stroke-width:0.5;stroke-dasharray:5.0,5.0;" x1="613.917" x2="613.917" y1="96.8633" y2="463.0645"/><rect fill="#E3E3E3" height="32.6211" rx="2.5" ry="2.5" style="stroke:#181818;stroke-width:0.5;" width="123.71" x="84.6494" y="63.2422"/><text fill="#000000" font-family="sans-serif" font-size="14" lengthAdjust="spacing" textLength="109.71" x="91.6494" y="85.3496">AddCityController</text><rect fill="#E3E3E3" height="32.6211" rx="2.5" ry="2.5" style="stroke:#181818;stroke-width:0.5;" width="123.71" x="84.6494" y="462.0645"/><text fill="#000000" font-family="sans-serif" font-size="14" lengthAdjust="spacing" textLength="109.71" x="91.6494" y="484.1719">AddCityController</text><rect fill="#E3E3E3" height="32.6211" rx="2.5" ry="2.5" style="stroke:#181818;stroke-width:0.5;" width="91.8135" x="218.3594" y="63.2422"/><text fill="#000000" font-family="sans-serif" font-size="14" lengthAdjust="spacing" textLength="77.8135" x="225.3594" y="85.3496">Repositories</text><rect fill="#E3E3E3" height="32.6211" rx="2.5" ry="2.5" style="stroke:#181818;stroke-width:0.5;" width="91.8135" x="218.3594" y="462.0645"/><text fill="#000000" font-family="sans-serif" font-size="14" lengthAdjust="spacing" textLength="77.8135" x="225.3594" y="484.1719">Repositories</text><rect fill="#E3E3E3" height="51.2422" rx="2.5" ry="2.5" style="stroke:#181818;stroke-width:0.5;" width="95.7031" x="320.1729" y="44.6211"/><text fill="#000000" font-family="sans-serif" font-size="14" lengthAdjust="spacing" textLength="72.3652" x="331.8418" y="66.7285">repositories</text><text fill="#000000" font-family="sans-serif" font-size="14" lengthAdjust="spacing" textLength="81.7031" x="327.1729" y="85.3496">:Repositories</text><rect fill="#E3E3E3" height="51.2422" rx="2.5" ry="2.5" style="stroke:#181818;stroke-width:0.5;" width="95.7031" x="320.1729" y="462.0645"/><text fill="#000000" font-family="sans-serif" font-size="14" lengthAdjust="spacing" textLength="72.3652" x="331.8418" y="484.1719">repositories</text><text fill="#000000" font-family="sans-serif" font-size="14" lengthAdjust="spacing" textLength="81.7031" x="327.1729" y="502.793">:Repositories</text><rect fill="#E3E3E3" height="51.2422" rx="2.5" ry="2.5" style="stroke:#181818;stroke-width:0.5;" width="112.041" x="425.876" y="44.6211"/><text fill="#000000" font-family="sans-serif" font-size="14" lengthAdjust="spacing" textLength="94.1514" x="434.8208" y="66.7285">mapRepository</text><text fill="#000000" font-family="sans-serif" font-size="14" lengthAdjust="spacing" textLength="98.041" x="432.876" y="85.3496">:MapRepository</text><rect fill="#E3E3E3" height="51.2422" rx="2.5" ry="2.5" style="stroke:#181818;stroke-width:0.5;" width="112.041" x="425.876" y="462.0645"/><text fill="#000000" font-family="sans-serif" font-size="14" lengthAdjust="spacing" textLength="94.1514" x="434.8208" y="484.1719">mapRepository</text><text fill="#000000" font-family="sans-serif" font-size="14" lengthAdjust="spacing" textLength="98.041" x="432.876" y="502.793">:MapRepository</text><rect fill="#E3E3E3" height="32.6211" rx="2.5" ry="2.5" style="stroke:#181818;stroke-width:0.5;" width="132.2959" x="547.917" y="63.2422"/><text fill="#000000" font-family="sans-serif" font-size="14" lengthAdjust="spacing" textLength="118.2959" x="554.917" y="85.3496">ApplicationSession</text><rect fill="#E3E3E3" height="32.6211" rx="2.5" ry="2.5" style="stroke:#181818;stroke-width:0.5;" width="132.2959" x="547.917" y="462.0645"/><text fill="#000000" font-family="sans-serif" font-size="14" lengthAdjust="spacing" textLength="118.2959" x="554.917" y="484.1719">ApplicationSession</text><rect fill="#FFFFFF" height="338.2012" style="stroke:#181818;stroke-width:1.0;" width="10" x="141.5044" y="106.8633"/><rect fill="#FFFFFF" height="31.291" style="stroke:#181818;stroke-width:1.0;" width="10" x="363.0244" y="250.3184"/><rect fill="#FFFFFF" height="31.291" style="stroke:#181818;stroke-width:1.0;" width="10" x="363.0244" y="312.9004"/><rect fill="#FFFFFF" height="31.291" style="stroke:#181818;stroke-width:1.0;" width="10" x="476.8965" y="375.4824"/><rect fill="#FFFFFF" height="31.291" style="stroke:#181818;stroke-width:1.0;" width="10" x="609.0649" y="187.7363"/><polygon fill="#181818" points="129.5044,126.1543,139.5044,130.1543,129.5044,134.1543,133.5044,130.1543" style="stroke:#181818;stroke-width:1.0;"/><line style="stroke:#181818;stroke-width:1.0;stroke-dasharray:2.0,2.0;" x1="0" x2="135.5044" y1="130.1543" y2="130.1543"/><text fill="#000000" font-family="sans-serif" font-size="13" font-weight="bold" lengthAdjust="spacing" textLength="7.23" x="7" y="124.8916">2</text><text fill="#000000" font-family="sans-serif" font-size="13" lengthAdjust="spacing" textLength="111.2744" x="18.23" y="124.8916">getAvailableMaps()</text><path d="M74.6494,145.1543 L231.6348,145.1543 L231.6348,154.4453 L221.6348,164.4453 L74.6494,164.4453 L74.6494,145.1543 " fill="#EEEEEE" style="stroke:#000000;stroke-width:1.5;"/><rect fill="none" height="269.6191" style="stroke:#000000;stroke-width:1.5;" width="615.5635" x="74.6494" y="145.1543"/><text fill="#000000" font-family="sans-serif" font-size="13" font-weight="bold" lengthAdjust="spacing" textLength="111.9854" x="89.6494" y="160.1826">GetAvailableMaps</text><polygon fill="#181818" points="597.0649,183.7363,607.0649,187.7363,597.0649,191.7363,601.0649,187.7363" style="stroke:#181818;stroke-width:1.0;"/><line style="stroke:#181818;stroke-width:1.0;" x1="151.5044" x2="603.0649" y1="187.7363" y2="187.7363"/><text fill="#000000" font-family="sans-serif" font-size="13" font-weight="bold" lengthAdjust="spacing" textLength="18.0718" x="158.5044" y="182.4736">2.1</text><text fill="#000000" font-family="sans-serif" font-size="13" lengthAdjust="spacing" textLength="75.8735" x="180.5762" y="182.4736">getInstance()</text><polygon fill="#181818" points="162.5044,215.0273,152.5044,219.0273,162.5044,223.0273,158.5044,219.0273" style="stroke:#181818;stroke-width:1.0;"/><line style="stroke:#181818;stroke-width:1.0;stroke-dasharray:2.0,2.0;" x1="156.5044" x2="613.0649" y1="219.0273" y2="219.0273"/><text fill="#000000" font-family="sans-serif" font-size="13" font-weight="bold" lengthAdjust="spacing" textLength="18.0718" x="168.5044" y="213.7646">2.2</text><text fill="#000000" font-family="sans-serif" font-size="13" lengthAdjust="spacing" textLength="67.939" x="190.5762" y="213.7646">appSession</text><polygon fill="#181818" points="351.0244,246.3184,361.0244,250.3184,351.0244,254.3184,355.0244,250.3184" style="stroke:#181818;stroke-width:1.0;"/><line style="stroke:#181818;stroke-width:1.0;" x1="151.5044" x2="357.0244" y1="250.3184" y2="250.3184"/><text fill="#000000" font-family="sans-serif" font-size="13" font-weight="bold" lengthAdjust="spacing" textLength="18.0718" x="158.5044" y="245.0557">2.3</text><text fill="#000000" font-family="sans-serif" font-size="13" lengthAdjust="spacing" textLength="75.8735" x="180.5762" y="245.0557">getInstance()</text><polygon fill="#181818" points="162.5044,277.6094,152.5044,281.6094,162.5044,285.6094,158.5044,281.6094" style="stroke:#181818;stroke-width:1.0;"/><line style="stroke:#181818;stroke-width:1.0;stroke-dasharray:2.0,2.0;" x1="156.5044" x2="367.0244" y1="281.6094" y2="281.6094"/><text fill="#000000" font-family="sans-serif" font-size="13" font-weight="bold" lengthAdjust="spacing" textLength="18.0718" x="168.5044" y="276.3467">2.4</text><text fill="#000000" font-family="sans-serif" font-size="13" lengthAdjust="spacing" textLength="67.1963" x="190.5762" y="276.3467">repositories</text><polygon fill="#181818" points="351.0244,308.9004,361.0244,312.9004,351.0244,316.9004,355.0244,312.9004" style="stroke:#181818;stroke-width:1.0;"/><line style="stroke:#181818;stroke-width:1.0;" x1="151.5044" x2="357.0244" y1="312.9004" y2="312.9004"/><text fill="#000000" font-family="sans-serif" font-size="13" font-weight="bold" lengthAdjust="spacing" textLength="18.0718" x="158.5044" y="307.6377">2.5</text><text fill="#000000" font-family="sans-serif" font-size="13" lengthAdjust="spacing" textLength="96.0845" x="180.5762" y="307.6377">mapRepository()</text><polygon fill="#181818" points="162.5044,340.1914,152.5044,344.1914,162.5044,348.1914,158.5044,344.1914" style="stroke:#181818;stroke-width:1.0;"/><line style="stroke:#181818;stroke-width:1.0;stroke-dasharray:2.0,2.0;" x1="156.5044" x2="367.0244" y1="344.1914" y2="344.1914"/><text fill="#000000" font-family="sans-serif" font-size="13" font-weight="bold" lengthAdjust="spacing" textLength="18.0718" x="168.5044" y="338.9287">2.6</text><text fill="#000000" font-family="sans-serif" font-size="13" lengthAdjust="spacing" textLength="87.4263" x="190.5762" y="338.9287">mapRepository</text><polygon fill="#181818" points="464.8965,371.4824,474.8965,375.4824,464.8965,379.4824,468.8965,375.4824" style="stroke:#181818;stroke-width:1.0;"/><line style="stroke:#181818;stroke-width:1.0;" x1="151.5044" x2="470.8965" y1="375.4824" y2="375.4824"/><text fill="#000000" font-family="sans-serif" font-size="13" font-weight="bold" lengthAdjust="spacing" textLength="18.0718" x="158.5044" y="370.2197">2.7</text><text fill="#000000" font-family="sans-serif" font-size="13" lengthAdjust="spacing" textLength="58.519" x="180.5762" y="370.2197">getMaps()</text><polygon fill="#181818" points="162.5044,402.7734,152.5044,406.7734,162.5044,410.7734,158.5044,406.7734" style="stroke:#181818;stroke-width:1.0;"/><line style="stroke:#181818;stroke-width:1.0;stroke-dasharray:2.0,2.0;" x1="156.5044" x2="480.8965" y1="406.7734" y2="406.7734"/><text fill="#000000" font-family="sans-serif" font-size="13" font-weight="bold" lengthAdjust="spacing" textLength="18.0718" x="168.5044" y="401.5107">2.8</text><text fill="#000000" font-family="sans-serif" font-size="13" lengthAdjust="spacing" textLength="103.3335" x="190.5762" y="401.5107">availableMapsList</text><polygon fill="#181818" points="11,441.0645,1,445.0645,11,449.0645,7,445.0645" style="stroke:#181818;stroke-width:1.0;"/><line style="stroke:#181818;stroke-width:1.0;stroke-dasharray:2.0,2.0;" x1="5" x2="145.5044" y1="445.0645" y2="445.0645"/><text fill="#000000" font-family="sans-serif" font-size="13" font-weight="bold" lengthAdjust="spacing" textLength="7.23" x="17" y="439.8018">3</text><text fill="#000000" font-family="sans-serif" font-size="13" lengthAdjust="spacing" textLength="103.3335" x="28.23" y="439.8018">availableMapsList</text><!--SRC=[hPDHIyCm4CVVyoaEd_IXWlesH2Wwna2tiVWeoDdUkh0sYSbLsRStBPjBkquHx4lftVt_zylbwZTAMtHOGMMqoTREL0JiQXB-EsCnss11ahSbWQECKHTbNE3Nc9jFfGjOOUb9OCr6rzKREI5OSL39hMUgGD9xJJeZU51ODCeHB6a52Ko80JzGbVWMgYkqNeZWpIfJ5ZL3ckVtYhVtHhCpPHcCu-oIhF6AZLFaEuap5sLUz2WkF0Fqi1mlvl9LJcUJn_7pVDOL1unlmJQed-BlIFwKBhh2rDfIPSZAQ4dUXrTRdIuMht8ivJGq4h1x3hE2Qo4mO_M1J0C7JfAxu-W82k9qFxW0wCyl1gqlhuGedAbjC-gEe2q_CeQcsu6txJFLFbnzHhiM1zReNFlUKGnEaAErk-cqgfm63K_ZzUxkHyJ-FUynU_5JgF4QzM67hFy0tLcoVyRkUF_6_HjpsF9snD6IzRoQ_w1B628dRp_UmKVbUPYlyIIT3-qqt0XncoJ7o4FcyNOT_LfV]--></g></svg>