<svg xmlns="http://www.w3.org/2000/svg" xmlns:xlink="http://www.w3.org/1999/xlink" contentStyleType="text/css" height="487px" preserveAspectRatio="none" style="width:695px;height:487px;background:#FFFFFF;" version="1.1" viewBox="0 0 695 487" width="695px" zoomAndPan="magnify"><title>SaveCity</title><defs/><g><text fill="#000000" font-family="sans-serif" font-size="14" font-weight="bold" lengthAdjust="spacing" textLength="59.6958" x="319.4477" y="29.9659">SaveCity</text><rect fill="#FFFFFF" height="31.706" style="stroke:#181818;stroke-width:1.0;" width="10" x="372.971" y="139.5479"/><rect fill="#FFFFFF" height="31.706" style="stroke:#181818;stroke-width:1.0;" width="10" x="423.8789" y="202.9599"/><rect fill="#FFFFFF" height="31.706" style="stroke:#181818;stroke-width:1.0;" width="10" x="503.2207" y="266.3719"/><rect fill="#FFFFFF" height="31.706" style="stroke:#181818;stroke-width:1.0;" width="10" x="503.2207" y="329.784"/><rect fill="#FFFFFF" height="31.706" style="stroke:#181818;stroke-width:1.0;" width="10" x="617.7864" y="393.196"/><rect fill="none" height="336.7662" style="stroke:#000000;stroke-width:1.5;" width="679.5912" x="10" y="96.1358"/><line style="stroke:#181818;stroke-width:0.5;stroke-dasharray:5.0,5.0;" x1="85" x2="85" y1="79.1358" y2="449.902"/><line style="stroke:#181818;stroke-width:0.5;stroke-dasharray:5.0,5.0;" x1="377.6441" x2="377.6441" y1="79.1358" y2="449.902"/><line style="stroke:#181818;stroke-width:0.5;stroke-dasharray:5.0,5.0;" x1="428.298" x2="428.298" y1="79.1358" y2="449.902"/><line style="stroke:#181818;stroke-width:0.5;stroke-dasharray:5.0,5.0;" x1="507.4599" x2="507.4599" y1="79.1358" y2="449.902"/><line style="stroke:#181818;stroke-width:0.5;stroke-dasharray:5.0,5.0;" x1="621.9816" x2="621.9816" y1="79.1358" y2="449.902"/><rect fill="#E3E3E3" height="33.0679" rx="2.5" ry="2.5" style="stroke:#181818;stroke-width:0.5;" width="130.9976" x="20" y="45.0679"/><text fill="#000000" font-family="sans-serif" font-size="14" lengthAdjust="spacing" textLength="116.9976" x="27" y="67.0339">AddCityController</text><rect fill="#E3E3E3" height="33.0679" rx="2.5" ry="2.5" style="stroke:#181818;stroke-width:0.5;" width="130.9976" x="20" y="448.902"/><text fill="#000000" font-family="sans-serif" font-size="14" lengthAdjust="spacing" textLength="116.9976" x="27" y="470.868">AddCityController</text><rect fill="#E3E3E3" height="33.0679" rx="2.5" ry="2.5" style="stroke:#181818;stroke-width:0.5;" width="38.6539" x="358.6441" y="45.0679"/><text fill="#000000" font-family="sans-serif" font-size="14" lengthAdjust="spacing" textLength="24.6539" x="365.6441" y="67.0339">City</text><rect fill="#E3E3E3" height="33.0679" rx="2.5" ry="2.5" style="stroke:#181818;stroke-width:0.5;" width="38.6539" x="358.6441" y="448.902"/><text fill="#000000" font-family="sans-serif" font-size="14" lengthAdjust="spacing" textLength="24.6539" x="365.6441" y="470.868">City</text><rect fill="#E3E3E3" height="33.0679" rx="2.5" ry="2.5" style="stroke:#181818;stroke-width:0.5;" width="43.1619" x="407.298" y="45.0679"/><text fill="#000000" font-family="sans-serif" font-size="14" lengthAdjust="spacing" textLength="29.1619" x="414.298" y="67.0339">Map</text><rect fill="#E3E3E3" height="33.0679" rx="2.5" ry="2.5" style="stroke:#181818;stroke-width:0.5;" width="43.1619" x="407.298" y="448.902"/><text fill="#000000" font-family="sans-serif" font-size="14" lengthAdjust="spacing" textLength="29.1619" x="414.298" y="470.868">Map</text><rect fill="#E3E3E3" height="33.0679" rx="2.5" ry="2.5" style="stroke:#181818;stroke-width:0.5;" width="95.5217" x="460.4599" y="45.0679"/><text fill="#000000" font-family="sans-serif" font-size="14" lengthAdjust="spacing" textLength="81.5217" x="467.4599" y="67.0339">Repositories</text><rect fill="#E3E3E3" height="33.0679" rx="2.5" ry="2.5" style="stroke:#181818;stroke-width:0.5;" width="95.5217" x="460.4599" y="448.902"/><text fill="#000000" font-family="sans-serif" font-size="14" lengthAdjust="spacing" textLength="81.5217" x="467.4599" y="470.868">Repositories</text><rect fill="#E3E3E3" height="33.0679" rx="2.5" ry="2.5" style="stroke:#181818;stroke-width:0.5;" width="113.6096" x="565.9816" y="45.0679"/><text fill="#000000" font-family="sans-serif" font-size="14" lengthAdjust="spacing" textLength="99.6096" x="572.9816" y="67.0339">MapRepository</text><rect fill="#E3E3E3" height="33.0679" rx="2.5" ry="2.5" style="stroke:#181818;stroke-width:0.5;" width="113.6096" x="565.9816" y="448.902"/><text fill="#000000" font-family="sans-serif" font-size="14" lengthAdjust="spacing" textLength="99.6096" x="572.9816" y="470.868">MapRepository</text><rect fill="#FFFFFF" height="31.706" style="stroke:#181818;stroke-width:1.0;" width="10" x="372.971" y="139.5479"/><rect fill="#FFFFFF" height="31.706" style="stroke:#181818;stroke-width:1.0;" width="10" x="423.8789" y="202.9599"/><rect fill="#FFFFFF" height="31.706" style="stroke:#181818;stroke-width:1.0;" width="10" x="503.2207" y="266.3719"/><rect fill="#FFFFFF" height="31.706" style="stroke:#181818;stroke-width:1.0;" width="10" x="503.2207" y="329.784"/><rect fill="#FFFFFF" height="31.706" style="stroke:#181818;stroke-width:1.0;" width="10" x="617.7864" y="393.196"/><path d="M10,96.1358 L185.8581,96.1358 L185.8581,105.8419 L175.8581,115.8419 L10,115.8419 L10,96.1358 " fill="#EEEEEE" style="stroke:#000000;stroke-width:1.5;"/><rect fill="none" height="336.7662" style="stroke:#000000;stroke-width:1.5;" width="679.5912" x="10" y="96.1358"/><text fill="#000000" font-family="sans-serif" font-size="13" font-weight="bold" lengthAdjust="spacing" textLength="130.8581" x="25" y="111.0328">Create and save city</text><polygon fill="#181818" points="360.971,135.5479,370.971,139.5479,360.971,143.5479,364.971,139.5479" style="stroke:#181818;stroke-width:1.0;"/><line style="stroke:#181818;stroke-width:1.0;" x1="85.4988" x2="366.971" y1="139.5479" y2="139.5479"/><text fill="#000000" font-family="sans-serif" font-size="13" font-weight="bold" lengthAdjust="spacing" textLength="7.436" x="92.4988" y="133.7389">1</text><text fill="#000000" font-family="sans-serif" font-size="13" lengthAdjust="spacing" textLength="257.0363" x="103.9348" y="133.7389">new City(name, coordinates, houseBlocks)</text><polygon fill="#181818" points="96.4988,167.2539,86.4988,171.2539,96.4988,175.2539,92.4988,171.2539" style="stroke:#181818;stroke-width:1.0;"/><line style="stroke:#181818;stroke-width:1.0;stroke-dasharray:2.0,2.0;" x1="90.4988" x2="376.971" y1="171.2539" y2="171.2539"/><text fill="#000000" font-family="sans-serif" font-size="13" font-weight="bold" lengthAdjust="spacing" textLength="7.436" x="102.4988" y="165.4449">2</text><text fill="#000000" font-family="sans-serif" font-size="13" lengthAdjust="spacing" textLength="60.6841" x="113.9348" y="165.4449">cityObject</text><polygon fill="#181818" points="411.8789,198.9599,421.8789,202.9599,411.8789,206.9599,415.8789,202.9599" style="stroke:#181818;stroke-width:1.0;"/><line style="stroke:#181818;stroke-width:1.0;" x1="85.4988" x2="417.8789" y1="202.9599" y2="202.9599"/><text fill="#000000" font-family="sans-serif" font-size="13" font-weight="bold" lengthAdjust="spacing" textLength="7.436" x="92.4988" y="197.1509">3</text><text fill="#000000" font-family="sans-serif" font-size="13" lengthAdjust="spacing" textLength="74.8931" x="103.9348" y="197.1509">addCity(city)</text><polygon fill="#181818" points="96.4988,230.6659,86.4988,234.6659,96.4988,238.6659,92.4988,234.6659" style="stroke:#181818;stroke-width:1.0;"/><line style="stroke:#181818;stroke-width:1.0;stroke-dasharray:2.0,2.0;" x1="90.4988" x2="427.8789" y1="234.6659" y2="234.6659"/><text fill="#000000" font-family="sans-serif" font-size="13" font-weight="bold" lengthAdjust="spacing" textLength="7.436" x="102.4988" y="228.8569">4</text><text fill="#000000" font-family="sans-serif" font-size="13" lengthAdjust="spacing" textLength="46.527" x="113.9348" y="228.8569">success</text><polygon fill="#181818" points="491.2207,262.3719,501.2207,266.3719,491.2207,270.3719,495.2207,266.3719" style="stroke:#181818;stroke-width:1.0;"/><line style="stroke:#181818;stroke-width:1.0;" x1="85.4988" x2="497.2207" y1="266.3719" y2="266.3719"/><text fill="#000000" font-family="sans-serif" font-size="13" font-weight="bold" lengthAdjust="spacing" textLength="7.436" x="92.4988" y="260.5629">5</text><text fill="#000000" font-family="sans-serif" font-size="13" lengthAdjust="spacing" textLength="80.0801" x="103.9348" y="260.5629">getInstance()</text><polygon fill="#181818" points="96.4988,294.0779,86.4988,298.0779,96.4988,302.0779,92.4988,298.0779" style="stroke:#181818;stroke-width:1.0;"/><line style="stroke:#181818;stroke-width:1.0;stroke-dasharray:2.0,2.0;" x1="90.4988" x2="507.2207" y1="298.0779" y2="298.0779"/><text fill="#000000" font-family="sans-serif" font-size="13" font-weight="bold" lengthAdjust="spacing" textLength="7.436" x="102.4988" y="292.2689">6</text><text fill="#000000" font-family="sans-serif" font-size="13" lengthAdjust="spacing" textLength="72.9821" x="113.9348" y="292.2689">repositories</text><polygon fill="#181818" points="491.2207,325.784,501.2207,329.784,491.2207,333.784,495.2207,329.784" style="stroke:#181818;stroke-width:1.0;"/><line style="stroke:#181818;stroke-width:1.0;" x1="85.4988" x2="497.2207" y1="329.784" y2="329.784"/><text fill="#000000" font-family="sans-serif" font-size="13" font-weight="bold" lengthAdjust="spacing" textLength="7.436" x="92.4988" y="323.975">7</text><text fill="#000000" font-family="sans-serif" font-size="13" lengthAdjust="spacing" textLength="100.6591" x="103.9348" y="323.975">mapRepository()</text><polygon fill="#181818" points="96.4988,357.49,86.4988,361.49,96.4988,365.49,92.4988,361.49" style="stroke:#181818;stroke-width:1.0;"/><line style="stroke:#181818;stroke-width:1.0;stroke-dasharray:2.0,2.0;" x1="90.4988" x2="507.2207" y1="361.49" y2="361.49"/><text fill="#000000" font-family="sans-serif" font-size="13" font-weight="bold" lengthAdjust="spacing" textLength="7.436" x="102.4988" y="355.681">8</text><text fill="#000000" font-family="sans-serif" font-size="13" lengthAdjust="spacing" textLength="92.8591" x="113.9348" y="355.681">mapRepository</text><polygon fill="#181818" points="605.7864,389.196,615.7864,393.196,605.7864,397.196,609.7864,393.196" style="stroke:#181818;stroke-width:1.0;"/><line style="stroke:#181818;stroke-width:1.0;" x1="85.4988" x2="611.7864" y1="393.196" y2="393.196"/><text fill="#000000" font-family="sans-serif" font-size="13" font-weight="bold" lengthAdjust="spacing" textLength="7.436" x="92.4988" y="387.387">9</text><text fill="#000000" font-family="sans-serif" font-size="13" lengthAdjust="spacing" textLength="62.6991" x="103.9348" y="387.387">save(map)</text><polygon fill="#181818" points="96.4988,420.902,86.4988,424.902,96.4988,428.902,92.4988,424.902" style="stroke:#181818;stroke-width:1.0;"/><line style="stroke:#181818;stroke-width:1.0;stroke-dasharray:2.0,2.0;" x1="90.4988" x2="621.7864" y1="424.902" y2="424.902"/><text fill="#000000" font-family="sans-serif" font-size="13" font-weight="bold" lengthAdjust="spacing" textLength="14.872" x="102.4988" y="419.093">10</text><text fill="#000000" font-family="sans-serif" font-size="13" lengthAdjust="spacing" textLength="46.527" x="121.3708" y="419.093">success</text><!--SRC=[hLFDQiCm3BxxANJCe7s17WPRJZkCmVe4ggEbNXChs4fBttwo1yLE2MnZEIMIlf_e9vwSdp3W22DxjiV08u64cKoyPIQq9-nfBzU1890LzFrG5iGZTdnnleSF728Pd8NzF1ue62DE5BN7CxLEhiOeGfnr4tg1fwvBmPQz11u6BI-pkRuClE9KVR_JnD491qTnMNZBgMGVU9wW3OH2WBw3g6x0PZkWpvqDs3vcTTY1fqj-RJoEj07B73hdbIXkuCXpfEU1xIa-P2Aquiv995jFaSooLRfxZLrsy7Rur8Rcsevg_Bet_J-5utUgIJGB_TIf54Y5Q-fnjfPYN4edwBfosNBbw4bUVDHziDGiB5J3IPaAkcOgB565iuhnnnR7SXV-nsH5-KUNrOgcQUXADafyFyY5L0ty_N3Bmo2zXNmSvWi0]--></g></svg>