<svg xmlns="http://www.w3.org/2000/svg" xmlns:xlink="http://www.w3.org/1999/xlink" contentStyleType="text/css" height="1474px" preserveAspectRatio="none" style="width:1093px;height:1474px;background:#FFFFFF;" version="1.1" viewBox="0 0 1093 1474" width="1093px" zoomAndPan="magnify"><title>System Sequence Diagram : US03 - Add a city</title><defs/><g><text fill="#000000" font-family="sans-serif" font-size="14" font-weight="bold" lengthAdjust="spacing" textLength="310.9388" x="392.4215" y="29.9659">System Sequence Diagram : US03 - Add a city</text><rect fill="#FFFFFF" height="1247.3953" style="stroke:#181818;stroke-width:1.0;" width="10" x="22.6559" y="134.1358"/><rect fill="#FFFFFF" height="144.1682" style="stroke:#181818;stroke-width:1.0;" width="10" x="502.3574" y="157.8419"/><rect fill="#FFFFFF" height="31.706" style="stroke:#181818;stroke-width:1.0;" width="10" x="502.3574" y="333.716"/><rect fill="#FFFFFF" height="95.118" style="stroke:#181818;stroke-width:1.0;" width="10" x="502.3574" y="397.1281"/><rect fill="#FFFFFF" height="144.1682" style="stroke:#181818;stroke-width:1.0;" width="10" x="502.3574" y="523.9521"/><rect fill="#FFFFFF" height="95.118" style="stroke:#181818;stroke-width:1.0;" width="10" x="502.3574" y="699.8263"/><rect fill="#FFFFFF" height="242.8884" style="stroke:#181818;stroke-width:1.0;" width="10" x="502.3574" y="885.0624"/><rect fill="#FFFFFF" height="174.1682" style="stroke:#181818;stroke-width:1.0;" width="10" x="502.3574" y="1198.3629"/><rect fill="#FFFFFF" height="112.4622" style="stroke:#181818;stroke-width:1.0;" width="10" x="805.7576" y="157.8419"/><rect fill="#FFFFFF" height="31.706" style="stroke:#181818;stroke-width:1.0;" width="10" x="805.7576" y="428.8341"/><rect fill="#FFFFFF" height="80.7561" style="stroke:#181818;stroke-width:1.0;" width="10" x="805.7576" y="555.6582"/><rect fill="#FFFFFF" height="31.706" style="stroke:#181818;stroke-width:1.0;" width="10" x="805.7576" y="731.5324"/><rect fill="#FFFFFF" height="80.7561" style="stroke:#181818;stroke-width:1.0;" width="10" x="805.7576" y="1260.0689"/><rect fill="#FFFFFF" height="113.4444" style="stroke:#181818;stroke-width:1.0;" width="10" x="976.5191" y="885.0624"/><rect fill="#FFFFFF" height="80.7561" style="stroke:#181818;stroke-width:1.0;" width="10" x="976.5191" y="1047.1947"/><rect fill="none" height="294.3005" style="stroke:#000000;stroke-width:1.5;" width="629.3242" x="457.4575" y="841.6504"/><line style="stroke:#181818;stroke-width:0.5;stroke-dasharray:5.0,5.0;" x1="27" x2="27" y1="124.1358" y2="1390.5311"/><line style="stroke:#181818;stroke-width:0.5;stroke-dasharray:5.0,5.0;" x1="506.4575" x2="506.4575" y1="124.1358" y2="1390.5311"/><line style="stroke:#181818;stroke-width:0.5;stroke-dasharray:5.0,5.0;" x1="810.2588" x2="810.2588" y1="124.1358" y2="1390.5311"/><line style="stroke:#181818;stroke-width:0.5;stroke-dasharray:5.0,5.0;" x1="981.2564" x2="981.2564" y1="124.1358" y2="1390.5311"/><text fill="#000000" font-family="sans-serif" font-size="14" lengthAdjust="spacing" textLength="39.3119" x="5" y="120.0339">Editor</text><ellipse cx="27.6559" cy="53.5679" fill="#E3E3E3" rx="8" ry="8" style="stroke:#181818;stroke-width:0.5;"/><path d="M27.6559,61.5679 L27.6559,88.5679 M14.6559,69.5679 L40.6559,69.5679 M27.6559,88.5679 L14.6559,103.5679 M27.6559,88.5679 L40.6559,103.5679 " fill="none" style="stroke:#181818;stroke-width:0.5;"/><text fill="#000000" font-family="sans-serif" font-size="14" lengthAdjust="spacing" textLength="39.3119" x="5" y="1404.497">Editor</text><ellipse cx="27.6559" cy="1417.099" fill="#E3E3E3" rx="8" ry="8" style="stroke:#181818;stroke-width:0.5;"/><path d="M27.6559,1425.099 L27.6559,1452.099 M14.6559,1433.099 L40.6559,1433.099 M27.6559,1452.099 L14.6559,1467.099 M27.6559,1452.099 L40.6559,1467.099 " fill="none" style="stroke:#181818;stroke-width:0.5;"/><rect fill="#E3E3E3" height="33.0679" rx="2.5" ry="2.5" style="stroke:#181818;stroke-width:0.5;" width="79.7998" x="467.4575" y="90.0679"/><text fill="#000000" font-family="sans-serif" font-size="14" lengthAdjust="spacing" textLength="65.7998" x="474.4575" y="112.0339">AddCityUI</text><rect fill="#E3E3E3" height="33.0679" rx="2.5" ry="2.5" style="stroke:#181818;stroke-width:0.5;" width="79.7998" x="467.4575" y="1389.5311"/><text fill="#000000" font-family="sans-serif" font-size="14" lengthAdjust="spacing" textLength="65.7998" x="474.4575" y="1411.497">AddCityUI</text><rect fill="#E3E3E3" height="33.0679" rx="2.5" ry="2.5" style="stroke:#181818;stroke-width:0.5;" width="130.9976" x="745.2588" y="90.0679"/><text fill="#000000" font-family="sans-serif" font-size="14" lengthAdjust="spacing" textLength="116.9976" x="752.2588" y="112.0339">AddCityController</text><rect fill="#E3E3E3" height="33.0679" rx="2.5" ry="2.5" style="stroke:#181818;stroke-width:0.5;" width="130.9976" x="745.2588" y="1389.5311"/><text fill="#000000" font-family="sans-serif" font-size="14" lengthAdjust="spacing" textLength="116.9976" x="752.2588" y="1411.497">AddCityController</text><rect fill="#E3E3E3" height="33.0679" rx="2.5" ry="2.5" style="stroke:#181818;stroke-width:0.5;" width="190.5253" x="886.2564" y="90.0679"/><text fill="#000000" font-family="sans-serif" font-size="14" lengthAdjust="spacing" textLength="176.5253" x="893.2564" y="112.0339">AddHouseBlocksController</text><rect fill="#E3E3E3" height="33.0679" rx="2.5" ry="2.5" style="stroke:#181818;stroke-width:0.5;" width="190.5253" x="886.2564" y="1389.5311"/><text fill="#000000" font-family="sans-serif" font-size="14" lengthAdjust="spacing" textLength="176.5253" x="893.2564" y="1411.497">AddHouseBlocksController</text><rect fill="#FFFFFF" height="1247.3953" style="stroke:#181818;stroke-width:1.0;" width="10" x="22.6559" y="134.1358"/><rect fill="#FFFFFF" height="144.1682" style="stroke:#181818;stroke-width:1.0;" width="10" x="502.3574" y="157.8419"/><rect fill="#FFFFFF" height="31.706" style="stroke:#181818;stroke-width:1.0;" width="10" x="502.3574" y="333.716"/><rect fill="#FFFFFF" height="95.118" style="stroke:#181818;stroke-width:1.0;" width="10" x="502.3574" y="397.1281"/><rect fill="#FFFFFF" height="144.1682" style="stroke:#181818;stroke-width:1.0;" width="10" x="502.3574" y="523.9521"/><rect fill="#FFFFFF" height="95.118" style="stroke:#181818;stroke-width:1.0;" width="10" x="502.3574" y="699.8263"/><rect fill="#FFFFFF" height="242.8884" style="stroke:#181818;stroke-width:1.0;" width="10" x="502.3574" y="885.0624"/><rect fill="#FFFFFF" height="174.1682" style="stroke:#181818;stroke-width:1.0;" width="10" x="502.3574" y="1198.3629"/><rect fill="#FFFFFF" height="112.4622" style="stroke:#181818;stroke-width:1.0;" width="10" x="805.7576" y="157.8419"/><rect fill="#FFFFFF" height="31.706" style="stroke:#181818;stroke-width:1.0;" width="10" x="805.7576" y="428.8341"/><rect fill="#FFFFFF" height="80.7561" style="stroke:#181818;stroke-width:1.0;" width="10" x="805.7576" y="555.6582"/><rect fill="#FFFFFF" height="31.706" style="stroke:#181818;stroke-width:1.0;" width="10" x="805.7576" y="731.5324"/><rect fill="#FFFFFF" height="80.7561" style="stroke:#181818;stroke-width:1.0;" width="10" x="805.7576" y="1260.0689"/><rect fill="#FFFFFF" height="113.4444" style="stroke:#181818;stroke-width:1.0;" width="10" x="976.5191" y="885.0624"/><rect fill="#FFFFFF" height="80.7561" style="stroke:#181818;stroke-width:1.0;" width="10" x="976.5191" y="1047.1947"/><polygon fill="#181818" points="490.3574,153.8419,500.3574,157.8419,490.3574,161.8419,494.3574,157.8419" style="stroke:#181818;stroke-width:1.0;"/><line style="stroke:#181818;stroke-width:1.0;" x1="32.6559" x2="496.3574" y1="157.8419" y2="157.8419"/><text fill="#000000" font-family="sans-serif" font-size="13" font-weight="bold" lengthAdjust="spacing" textLength="7.436" x="39.6559" y="152.0328">1</text><text fill="#000000" font-family="sans-serif" font-size="13" lengthAdjust="spacing" textLength="93.5871" x="51.0919" y="152.0328">asks to add city</text><polygon fill="#181818" points="793.7576,185.5479,803.7576,189.5479,793.7576,193.5479,797.7576,189.5479" style="stroke:#181818;stroke-width:1.0;"/><line style="stroke:#181818;stroke-width:1.0;stroke-dasharray:2.0,2.0;" x1="512.3574" x2="799.7576" y1="189.5479" y2="189.5479"/><text fill="#000000" font-family="sans-serif" font-size="13" font-weight="bold" lengthAdjust="spacing" textLength="7.436" x="519.3574" y="183.7389">2</text><text fill="#000000" font-family="sans-serif" font-size="13" lengthAdjust="spacing" textLength="116.0121" x="530.7934" y="183.7389">getAvailableMaps()</text><rect fill="none" height="44.0501" style="stroke:#000000;stroke-width:1.5;" width="136.9976" x="742.2588" y="197.5479"/><path d="M742.2588,197.5479 L805.2588,197.5479 L805.2588,206.5479 L795.2588,216.5479 L742.2588,216.5479 L742.2588,197.5479 " fill="#EEEEEE" style="stroke:#000000;stroke-width:2.0;"/><text fill="#000000" font-family="sans-serif" font-size="13" font-weight="bold" lengthAdjust="spacing" textLength="18.603" x="755.2588" y="213.4449">ref</text><text fill="#000000" font-family="sans-serif" font-size="12" lengthAdjust="spacing" textLength="101.2447" x="760.1353" y="233.376">GetAvailableMaps</text><polygon fill="#181818" points="523.3574,266.304,513.3574,270.304,523.3574,274.304,519.3574,270.304" style="stroke:#181818;stroke-width:1.0;"/><line style="stroke:#181818;stroke-width:1.0;stroke-dasharray:2.0,2.0;" x1="517.3574" x2="809.7576" y1="270.304" y2="270.304"/><text fill="#000000" font-family="sans-serif" font-size="13" font-weight="bold" lengthAdjust="spacing" textLength="7.436" x="529.3574" y="264.495">3</text><text fill="#000000" font-family="sans-serif" font-size="13" lengthAdjust="spacing" textLength="54.7561" x="540.7934" y="264.495">mapsList</text><polygon fill="#181818" points="43.6559,298.01,33.6559,302.01,43.6559,306.01,39.6559,302.01" style="stroke:#181818;stroke-width:1.0;"/><line style="stroke:#181818;stroke-width:1.0;stroke-dasharray:2.0,2.0;" x1="37.6559" x2="506.3574" y1="302.01" y2="302.01"/><text fill="#000000" font-family="sans-serif" font-size="13" font-weight="bold" lengthAdjust="spacing" textLength="7.436" x="49.6559" y="296.201">4</text><text fill="#000000" font-family="sans-serif" font-size="13" lengthAdjust="spacing" textLength="122.6551" x="61.0919" y="296.201">shows a list of Maps</text><polygon fill="#181818" points="490.3574,329.716,500.3574,333.716,490.3574,337.716,494.3574,333.716" style="stroke:#181818;stroke-width:1.0;"/><line style="stroke:#181818;stroke-width:1.0;" x1="32.6559" x2="496.3574" y1="333.716" y2="333.716"/><text fill="#000000" font-family="sans-serif" font-size="13" font-weight="bold" lengthAdjust="spacing" textLength="7.436" x="39.6559" y="327.907">5</text><text fill="#000000" font-family="sans-serif" font-size="13" lengthAdjust="spacing" textLength="82.9011" x="51.0919" y="327.907">selects a map</text><polygon fill="#181818" points="43.6559,361.4221,33.6559,365.4221,43.6559,369.4221,39.6559,365.4221" style="stroke:#181818;stroke-width:1.0;"/><line style="stroke:#181818;stroke-width:1.0;stroke-dasharray:2.0,2.0;" x1="37.6559" x2="506.3574" y1="365.4221" y2="365.4221"/><text fill="#000000" font-family="sans-serif" font-size="13" font-weight="bold" lengthAdjust="spacing" textLength="7.436" x="49.6559" y="359.6131">6</text><text fill="#000000" font-family="sans-serif" font-size="13" lengthAdjust="spacing" textLength="110.2661" x="61.0919" y="359.6131">asks for city name</text><polygon fill="#181818" points="490.3574,393.1281,500.3574,397.1281,490.3574,401.1281,494.3574,397.1281" style="stroke:#181818;stroke-width:1.0;"/><line style="stroke:#181818;stroke-width:1.0;" x1="32.6559" x2="496.3574" y1="397.1281" y2="397.1281"/><text fill="#000000" font-family="sans-serif" font-size="13" font-weight="bold" lengthAdjust="spacing" textLength="7.436" x="39.6559" y="391.3191">7</text><text fill="#000000" font-family="sans-serif" font-size="13" lengthAdjust="spacing" textLength="76.5311" x="51.0919" y="391.3191">inputs name</text><polygon fill="#181818" points="793.7576,424.8341,803.7576,428.8341,793.7576,432.8341,797.7576,428.8341" style="stroke:#181818;stroke-width:1.0;"/><line style="stroke:#181818;stroke-width:1.0;stroke-dasharray:2.0,2.0;" x1="512.3574" x2="799.7576" y1="428.8341" y2="428.8341"/><text fill="#000000" font-family="sans-serif" font-size="13" font-weight="bold" lengthAdjust="spacing" textLength="7.436" x="519.3574" y="423.0251">8</text><text fill="#000000" font-family="sans-serif" font-size="13" lengthAdjust="spacing" textLength="127.1921" x="530.7934" y="423.0251">validateName(name)</text><polygon fill="#181818" points="523.3574,456.5401,513.3574,460.5401,523.3574,464.5401,519.3574,460.5401" style="stroke:#181818;stroke-width:1.0;"/><line style="stroke:#181818;stroke-width:1.0;stroke-dasharray:2.0,2.0;" x1="517.3574" x2="809.7576" y1="460.5401" y2="460.5401"/><text fill="#000000" font-family="sans-serif" font-size="13" font-weight="bold" lengthAdjust="spacing" textLength="7.436" x="529.3574" y="454.7311">9</text><text fill="#000000" font-family="sans-serif" font-size="13" lengthAdjust="spacing" textLength="34.814" x="540.7934" y="454.7311">name</text><polygon fill="#181818" points="43.6559,488.2461,33.6559,492.2461,43.6559,496.2461,39.6559,492.2461" style="stroke:#181818;stroke-width:1.0;"/><line style="stroke:#181818;stroke-width:1.0;stroke-dasharray:2.0,2.0;" x1="37.6559" x2="506.3574" y1="492.2461" y2="492.2461"/><text fill="#000000" font-family="sans-serif" font-size="13" font-weight="bold" lengthAdjust="spacing" textLength="14.872" x="49.6559" y="486.4371">10</text><text fill="#000000" font-family="sans-serif" font-size="13" lengthAdjust="spacing" textLength="123.4221" x="68.5279" y="486.4371">asks for coordinates</text><polygon fill="#181818" points="490.3574,519.9521,500.3574,523.9521,490.3574,527.9521,494.3574,523.9521" style="stroke:#181818;stroke-width:1.0;"/><line style="stroke:#181818;stroke-width:1.0;" x1="32.6559" x2="496.3574" y1="523.9521" y2="523.9521"/><text fill="#000000" font-family="sans-serif" font-size="13" font-weight="bold" lengthAdjust="spacing" textLength="14.872" x="39.6559" y="518.1431">11</text><text fill="#000000" font-family="sans-serif" font-size="13" lengthAdjust="spacing" textLength="113.9841" x="58.5279" y="518.1431">inputs coordinates</text><polygon fill="#181818" points="793.7576,551.6582,803.7576,555.6582,793.7576,559.6582,797.7576,555.6582" style="stroke:#181818;stroke-width:1.0;"/><line style="stroke:#181818;stroke-width:1.0;stroke-dasharray:2.0,2.0;" x1="512.3574" x2="799.7576" y1="555.6582" y2="555.6582"/><text fill="#000000" font-family="sans-serif" font-size="13" font-weight="bold" lengthAdjust="spacing" textLength="14.872" x="519.3574" y="549.8492">12</text><text fill="#000000" font-family="sans-serif" font-size="13" lengthAdjust="spacing" textLength="150.3321" x="538.2294" y="549.8492">validateCoordinates(x, y)</text><rect fill="none" height="44.0501" style="stroke:#000000;stroke-width:1.5;" width="136.9976" x="742.2588" y="563.6582"/><path d="M742.2588,563.6582 L805.2588,563.6582 L805.2588,572.6582 L795.2588,582.6582 L742.2588,582.6582 L742.2588,563.6582 " fill="#EEEEEE" style="stroke:#000000;stroke-width:2.0;"/><text fill="#000000" font-family="sans-serif" font-size="13" font-weight="bold" lengthAdjust="spacing" textLength="18.603" x="755.2588" y="579.5552">ref</text><text fill="#000000" font-family="sans-serif" font-size="12" lengthAdjust="spacing" textLength="121.0689" x="750.2232" y="599.4863">ValidateCoordinates()</text><polygon fill="#181818" points="523.3574,632.4143,513.3574,636.4143,523.3574,640.4143,519.3574,636.4143" style="stroke:#181818;stroke-width:1.0;"/><line style="stroke:#181818;stroke-width:1.0;stroke-dasharray:2.0,2.0;" x1="517.3574" x2="809.7576" y1="636.4143" y2="636.4143"/><text fill="#000000" font-family="sans-serif" font-size="13" font-weight="bold" lengthAdjust="spacing" textLength="14.872" x="529.3574" y="630.6053">13</text><text fill="#000000" font-family="sans-serif" font-size="13" lengthAdjust="spacing" textLength="72.2671" x="548.2294" y="630.6053">coordinates</text><polygon fill="#181818" points="43.6559,664.1203,33.6559,668.1203,43.6559,672.1203,39.6559,668.1203" style="stroke:#181818;stroke-width:1.0;"/><line style="stroke:#181818;stroke-width:1.0;stroke-dasharray:2.0,2.0;" x1="37.6559" x2="506.3574" y1="668.1203" y2="668.1203"/><text fill="#000000" font-family="sans-serif" font-size="13" font-weight="bold" lengthAdjust="spacing" textLength="14.872" x="49.6559" y="662.3113">14</text><text fill="#000000" font-family="sans-serif" font-size="13" lengthAdjust="spacing" textLength="177.5802" x="68.5279" y="662.3113">asks number of house blocks</text><polygon fill="#181818" points="490.3574,695.8263,500.3574,699.8263,490.3574,703.8263,494.3574,699.8263" style="stroke:#181818;stroke-width:1.0;"/><line style="stroke:#181818;stroke-width:1.0;" x1="32.6559" x2="496.3574" y1="699.8263" y2="699.8263"/><text fill="#000000" font-family="sans-serif" font-size="13" font-weight="bold" lengthAdjust="spacing" textLength="14.872" x="39.6559" y="694.0173">15</text><text fill="#000000" font-family="sans-serif" font-size="13" lengthAdjust="spacing" textLength="90.6361" x="58.5279" y="694.0173">inputs number</text><polygon fill="#181818" points="793.7576,727.5324,803.7576,731.5324,793.7576,735.5324,797.7576,731.5324" style="stroke:#181818;stroke-width:1.0;"/><line style="stroke:#181818;stroke-width:1.0;stroke-dasharray:2.0,2.0;" x1="512.3574" x2="799.7576" y1="731.5324" y2="731.5324"/><text fill="#000000" font-family="sans-serif" font-size="13" font-weight="bold" lengthAdjust="spacing" textLength="14.872" x="519.3574" y="725.7234">16</text><text fill="#000000" font-family="sans-serif" font-size="13" lengthAdjust="spacing" textLength="192.1662" x="538.2294" y="725.7234">validateNumBlocks(numBlocks)</text><polygon fill="#181818" points="523.3574,759.2384,513.3574,763.2384,523.3574,767.2384,519.3574,763.2384" style="stroke:#181818;stroke-width:1.0;"/><line style="stroke:#181818;stroke-width:1.0;stroke-dasharray:2.0,2.0;" x1="517.3574" x2="809.7576" y1="763.2384" y2="763.2384"/><text fill="#000000" font-family="sans-serif" font-size="13" font-weight="bold" lengthAdjust="spacing" textLength="14.872" x="529.3574" y="757.4294">17</text><text fill="#000000" font-family="sans-serif" font-size="13" lengthAdjust="spacing" textLength="67.3011" x="548.2294" y="757.4294">numBlocks</text><polygon fill="#181818" points="43.6559,790.9444,33.6559,794.9444,43.6559,798.9444,39.6559,794.9444" style="stroke:#181818;stroke-width:1.0;"/><line style="stroke:#181818;stroke-width:1.0;stroke-dasharray:2.0,2.0;" x1="37.6559" x2="506.3574" y1="794.9444" y2="794.9444"/><text fill="#000000" font-family="sans-serif" font-size="13" font-weight="bold" lengthAdjust="spacing" textLength="14.872" x="49.6559" y="789.1354">18</text><text fill="#000000" font-family="sans-serif" font-size="13" lengthAdjust="spacing" textLength="426.8294" x="68.5279" y="789.1354">asks if the editor wants to assign the blocks manually or automatically</text><polygon fill="#181818" points="495.3574,822.6504,505.3574,826.6504,495.3574,830.6504,499.3574,826.6504" style="stroke:#181818;stroke-width:1.0;"/><line style="stroke:#181818;stroke-width:1.0;" x1="32.6559" x2="501.3574" y1="826.6504" y2="826.6504"/><text fill="#000000" font-family="sans-serif" font-size="13" font-weight="bold" lengthAdjust="spacing" textLength="14.872" x="39.6559" y="820.8414">19</text><text fill="#000000" font-family="sans-serif" font-size="13" lengthAdjust="spacing" textLength="85.7091" x="58.5279" y="820.8414">selects yes/no</text><path d="M457.4575,841.6504 L519.7605,841.6504 L519.7605,851.3564 L509.7605,861.3564 L457.4575,861.3564 L457.4575,841.6504 " fill="#EEEEEE" style="stroke:#000000;stroke-width:1.5;"/><rect fill="none" height="294.3005" style="stroke:#000000;stroke-width:1.5;" width="629.3242" x="457.4575" y="841.6504"/><text fill="#000000" font-family="sans-serif" font-size="13" font-weight="bold" lengthAdjust="spacing" textLength="17.303" x="472.4575" y="856.5474">alt</text><text fill="#000000" font-family="sans-serif" font-size="11" font-weight="bold" lengthAdjust="spacing" textLength="156.9359" x="534.7605" y="855.4093">[User selects "yes" (manual)]</text><polygon fill="#181818" points="964.5191,881.0624,974.5191,885.0624,964.5191,889.0624,968.5191,885.0624" style="stroke:#181818;stroke-width:1.0;"/><line style="stroke:#181818;stroke-width:1.0;stroke-dasharray:2.0,2.0;" x1="512.3574" x2="970.5191" y1="885.0624" y2="885.0624"/><text fill="#000000" font-family="sans-serif" font-size="13" font-weight="bold" lengthAdjust="spacing" textLength="14.872" x="519.3574" y="879.2534">20</text><text fill="#000000" font-family="sans-serif" font-size="13" lengthAdjust="spacing" textLength="153.3092" x="538.2294" y="879.2534">assignBlocks(numBlocks)</text><rect fill="none" height="76.7384" style="stroke:#000000;stroke-width:1.5;" width="196.5253" x="883.2564" y="893.0624"/><path d="M883.2564,893.0624 L946.2564,893.0624 L946.2564,902.0624 L936.2564,912.0624 L883.2564,912.0624 L883.2564,893.0624 " fill="#EEEEEE" style="stroke:#000000;stroke-width:2.0;"/><text fill="#000000" font-family="sans-serif" font-size="13" font-weight="bold" lengthAdjust="spacing" textLength="18.603" x="896.2564" y="908.9595">ref</text><text fill="#000000" font-family="sans-serif" font-size="12" lengthAdjust="spacing" textLength="3.12" x="979.959" y="928.8905">&#160;</text><text fill="#000000" font-family="sans-serif" font-size="12" lengthAdjust="spacing" textLength="3.12" x="979.959" y="945.2346">&#160;</text><text fill="#000000" font-family="sans-serif" font-size="12" lengthAdjust="spacing" textLength="122.6049" x="920.2166" y="961.5788">AssignManualBlocks()</text><polygon fill="#181818" points="523.3574,994.5068,513.3574,998.5068,523.3574,1002.5068,519.3574,998.5068" style="stroke:#181818;stroke-width:1.0;"/><line style="stroke:#181818;stroke-width:1.0;stroke-dasharray:2.0,2.0;" x1="517.3574" x2="980.5191" y1="998.5068" y2="998.5068"/><text fill="#000000" font-family="sans-serif" font-size="13" font-weight="bold" lengthAdjust="spacing" textLength="14.872" x="529.3574" y="992.6978">21</text><text fill="#000000" font-family="sans-serif" font-size="13" lengthAdjust="spacing" textLength="76.5701" x="548.2294" y="992.6978">houseBlocks</text><line style="stroke:#000000;stroke-width:1.0;stroke-dasharray:2.0,2.0;" x1="457.4575" x2="1086.7817" y1="1007.5068" y2="1007.5068"/><text fill="#000000" font-family="sans-serif" font-size="11" font-weight="bold" lengthAdjust="spacing" textLength="167.5508" x="462.4575" y="1019.2657">[User selects "no" (automatic)]</text><polygon fill="#181818" points="964.5191,1043.1947,974.5191,1047.1947,964.5191,1051.1947,968.5191,1047.1947" style="stroke:#181818;stroke-width:1.0;"/><line style="stroke:#181818;stroke-width:1.0;stroke-dasharray:2.0,2.0;" x1="512.3574" x2="970.5191" y1="1047.1947" y2="1047.1947"/><text fill="#000000" font-family="sans-serif" font-size="13" font-weight="bold" lengthAdjust="spacing" textLength="14.872" x="519.3574" y="1041.3857">22</text><text fill="#000000" font-family="sans-serif" font-size="13" lengthAdjust="spacing" textLength="153.3092" x="538.2294" y="1041.3857">assignBlocks(numBlocks)</text><rect fill="none" height="44.0501" style="stroke:#000000;stroke-width:1.5;" width="196.5253" x="883.2564" y="1055.1947"/><path d="M883.2564,1055.1947 L946.2564,1055.1947 L946.2564,1064.1947 L936.2564,1074.1947 L883.2564,1074.1947 L883.2564,1055.1947 " fill="#EEEEEE" style="stroke:#000000;stroke-width:2.0;"/><text fill="#000000" font-family="sans-serif" font-size="13" font-weight="bold" lengthAdjust="spacing" textLength="18.603" x="896.2564" y="1071.0917">ref</text><text fill="#000000" font-family="sans-serif" font-size="12" lengthAdjust="spacing" textLength="107.0048" x="928.0167" y="1091.0228">AssignAutoBlocks()</text><polygon fill="#181818" points="518.3574,1123.9509,508.3574,1127.9509,518.3574,1131.9509,514.3574,1127.9509" style="stroke:#181818;stroke-width:1.0;"/><line style="stroke:#181818;stroke-width:1.0;stroke-dasharray:2.0,2.0;" x1="512.3574" x2="980.5191" y1="1127.9509" y2="1127.9509"/><text fill="#000000" font-family="sans-serif" font-size="13" font-weight="bold" lengthAdjust="spacing" textLength="14.872" x="524.3574" y="1122.1419">23</text><text fill="#000000" font-family="sans-serif" font-size="13" lengthAdjust="spacing" textLength="76.5701" x="543.2294" y="1122.1419">houseBlocks</text><polygon fill="#181818" points="43.6559,1162.6569,33.6559,1166.6569,43.6559,1170.6569,39.6559,1166.6569" style="stroke:#181818;stroke-width:1.0;"/><line style="stroke:#181818;stroke-width:1.0;stroke-dasharray:2.0,2.0;" x1="37.6559" x2="506.3574" y1="1166.6569" y2="1166.6569"/><text fill="#000000" font-family="sans-serif" font-size="13" font-weight="bold" lengthAdjust="spacing" textLength="14.872" x="49.6559" y="1160.8479">24</text><text fill="#000000" font-family="sans-serif" font-size="13" lengthAdjust="spacing" textLength="129.8831" x="68.5279" y="1160.8479">asks for confirmation</text><polygon fill="#181818" points="490.3574,1194.3629,500.3574,1198.3629,490.3574,1202.3629,494.3574,1198.3629" style="stroke:#181818;stroke-width:1.0;"/><line style="stroke:#181818;stroke-width:1.0;" x1="32.6559" x2="496.3574" y1="1198.3629" y2="1198.3629"/><text fill="#000000" font-family="sans-serif" font-size="13" font-weight="bold" lengthAdjust="spacing" textLength="14.872" x="39.6559" y="1192.5539">25</text><text fill="#000000" font-family="sans-serif" font-size="13" lengthAdjust="spacing" textLength="53.716" x="58.5279" y="1192.5539">confirms</text><polygon fill="#181818" points="793.7576,1256.0689,803.7576,1260.0689,793.7576,1264.0689,797.7576,1260.0689" style="stroke:#181818;stroke-width:1.0;"/><line style="stroke:#181818;stroke-width:1.0;stroke-dasharray:2.0,2.0;" x1="512.3574" x2="799.7576" y1="1260.0689" y2="1260.0689"/><text fill="#000000" font-family="sans-serif" font-size="13" font-weight="bold" lengthAdjust="spacing" textLength="14.872" x="519.3574" y="1254.2599">26</text><text fill="#000000" font-family="sans-serif" font-size="13" lengthAdjust="spacing" textLength="255.5282" x="538.2294" y="1254.2599">saveCity(name, coordinates, houseBlocks)</text><rect fill="none" height="44.0501" style="stroke:#000000;stroke-width:1.5;" width="136.9976" x="742.2588" y="1268.0689"/><path d="M742.2588,1268.0689 L805.2588,1268.0689 L805.2588,1277.0689 L795.2588,1287.0689 L742.2588,1287.0689 L742.2588,1268.0689 " fill="#EEEEEE" style="stroke:#000000;stroke-width:2.0;"/><text fill="#000000" font-family="sans-serif" font-size="13" font-weight="bold" lengthAdjust="spacing" textLength="18.603" x="755.2588" y="1283.9659">ref</text><text fill="#000000" font-family="sans-serif" font-size="12" lengthAdjust="spacing" textLength="46.4763" x="787.5194" y="1303.897">saveCity</text><polygon fill="#181818" points="523.3574,1336.8251,513.3574,1340.8251,523.3574,1344.8251,519.3574,1340.8251" style="stroke:#181818;stroke-width:1.0;"/><line style="stroke:#181818;stroke-width:1.0;stroke-dasharray:2.0,2.0;" x1="517.3574" x2="809.7576" y1="1340.8251" y2="1340.8251"/><text fill="#000000" font-family="sans-serif" font-size="13" font-weight="bold" lengthAdjust="spacing" textLength="14.872" x="529.3574" y="1335.0161">27</text><text fill="#000000" font-family="sans-serif" font-size="13" lengthAdjust="spacing" textLength="125.2681" x="548.2294" y="1335.0161">city details + success</text><polygon fill="#181818" points="43.6559,1368.5311,33.6559,1372.5311,43.6559,1376.5311,39.6559,1372.5311" style="stroke:#181818;stroke-width:1.0;"/><line style="stroke:#181818;stroke-width:1.0;stroke-dasharray:2.0,2.0;" x1="37.6559" x2="506.3574" y1="1372.5311" y2="1372.5311"/><text fill="#000000" font-family="sans-serif" font-size="13" font-weight="bold" lengthAdjust="spacing" textLength="14.872" x="49.6559" y="1366.7221">28</text><text fill="#000000" font-family="sans-serif" font-size="13" lengthAdjust="spacing" textLength="171.4962" x="68.5279" y="1366.7221">display city details + success</text><!--SRC=[nLPDZzem4BtxLumuiUgYLkgDGoMMLcsbRY-8teTa00l7fh43pR_lE24acwyDIwfo8VACtxnvOy_O7gG-OemHH4QRO1-RYC352GbxjHmnEE2ELYvL13453lLELHti7aDpbde7MrIM12REw2JQK2o4auvthLBhA88L_Kv81mIV9UxypZciLny-mWmMOGW8WNIf41Wu4yFaIoZvVm9e8VyK7Ct9G1vHExzXoTxhxsshIwDTR9IYnfvl9h7qf4nmiAMJ3y6sfrPZnaUUq5518_-3sQUI12U2zc316K3E9Ci3Bh_hzf9oVQaIhOISbG4gLEUm8xSueLIuKVICHpjz42AcBPWJcvk0NslkWdGechYpMZeHk_wGrecGUjXUatn9ErTepWV3d2tNLJ4Gc2rayOijJM1MfZ2sQCnmfFZqUK1crwTl7wkYL5l-z7K2ZH7rayhJRAN4Lo1XHXd6xOmQWixXX4g6lFSd8quzx4CdRAKEDVYkkivVIxORibRPKa9Zub1gnXXGsJu9su36479Puax_F49wavuzzwfm-TKIfupXBzlWuWpJyhOQvNtONxwzxswmoThRVQMwzFPHZtiIvOrtgeklaGz-0JkQid8BRaz0kL1d7Z1v_xTMxdHcohNcPgKJL2e5TlEZCKAUI7xXZLKesc1Azhqs0fM3jUMCY_K96oOmpSFcAZRgq3xhijxewRVNeagoOrZsd8VgNUeQjQNk6OtdB8KBcPn3SQ6wSwXFidtf9PfYTp4XViZKPDM6LRqMy3y8Eq31b_ejcEm_LQzIte6oQdxdAJTykkYjZBtUHj_nSBZ0sDuHVKzZQEbi5a_arx8X_bZjxOzLKSSUHqNODquW_o0AoV5xqS8xi4aGa1sbPORI7XMcNH5UUO3z1G00]--></g></svg>