<svg xmlns="http://www.w3.org/2000/svg" xmlns:xlink="http://www.w3.org/1999/xlink" contentStyleType="text/css" height="724px" preserveAspectRatio="none" style="width:701px;height:724px;background:#FFFFFF;" version="1.1" viewBox="0 0 701 724" width="701px" zoomAndPan="magnify"><title>ManualBlockAssignment</title><defs/><g><text fill="#000000" font-family="sans-serif" font-size="14" font-weight="bold" lengthAdjust="spacing" textLength="173.5433" x="265.705" y="29.9659">ManualBlockAssignment</text><rect fill="#FFFFFF" height="496.8661" style="stroke:#181818;stroke-width:1.0;" width="10" x="57.6559" y="134.1358"/><rect fill="#FFFFFF" height="474.8661" style="stroke:#181818;stroke-width:1.0;" width="10" x="249.251" y="134.1358"/><rect fill="#FFFFFF" height="31.706" style="stroke:#181818;stroke-width:1.0;" width="10" x="615.2154" y="346.0779"/><rect fill="#FFFFFF" height="31.706" style="stroke:#181818;stroke-width:1.0;" width="10" x="615.2154" y="577.2959"/><rect fill="none" height="307.336" style="stroke:#000000;stroke-width:1.5;" width="685.9532" x="10" y="141.1358"/><rect fill="none" height="273.63" style="stroke:#000000;stroke-width:1.5;" width="665.9532" x="20" y="167.8419"/><rect fill="none" height="131.806" style="stroke:#000000;stroke-width:1.5;" width="645.9532" x="30" y="302.6659"/><rect fill="none" height="161.5301" style="stroke:#000000;stroke-width:1.5;" width="546.9648" x="138.9884" y="462.4719"/><rect fill="none" height="83.118" style="stroke:#000000;stroke-width:1.5;" width="526.9648" x="148.9884" y="533.8839"/><line style="stroke:#181818;stroke-width:0.5;stroke-dasharray:5.0,5.0;" x1="62" x2="62" y1="124.1358" y2="641.002"/><line style="stroke:#181818;stroke-width:0.5;stroke-dasharray:5.0,5.0;" x1="253.9884" x2="253.9884" y1="124.1358" y2="641.002"/><line style="stroke:#181818;stroke-width:0.5;stroke-dasharray:5.0,5.0;" x1="619.4775" x2="619.4775" y1="124.1358" y2="641.002"/><text fill="#000000" font-family="sans-serif" font-size="14" lengthAdjust="spacing" textLength="39.3119" x="40" y="120.0339">Editor</text><ellipse cx="62.6559" cy="53.5679" fill="#E3E3E3" rx="8" ry="8" style="stroke:#181818;stroke-width:0.5;"/><path d="M62.6559,61.5679 L62.6559,88.5679 M49.6559,69.5679 L75.6559,69.5679 M62.6559,88.5679 L49.6559,103.5679 M62.6559,88.5679 L75.6559,103.5679 " fill="none" style="stroke:#181818;stroke-width:0.5;"/><text fill="#000000" font-family="sans-serif" font-size="14" lengthAdjust="spacing" textLength="39.3119" x="40" y="654.9679">Editor</text><ellipse cx="62.6559" cy="667.5699" fill="#E3E3E3" rx="8" ry="8" style="stroke:#181818;stroke-width:0.5;"/><path d="M62.6559,675.5699 L62.6559,702.5699 M49.6559,683.5699 L75.6559,683.5699 M62.6559,702.5699 L49.6559,717.5699 M62.6559,702.5699 L75.6559,717.5699 " fill="none" style="stroke:#181818;stroke-width:0.5;"/><rect fill="#E3E3E3" height="33.0679" rx="2.5" ry="2.5" style="stroke:#181818;stroke-width:0.5;" width="190.5253" x="158.9884" y="90.0679"/><text fill="#000000" font-family="sans-serif" font-size="14" lengthAdjust="spacing" textLength="176.5253" x="165.9884" y="112.0339">AddHouseBlocksController</text><rect fill="#E3E3E3" height="33.0679" rx="2.5" ry="2.5" style="stroke:#181818;stroke-width:0.5;" width="190.5253" x="158.9884" y="640.002"/><text fill="#000000" font-family="sans-serif" font-size="14" lengthAdjust="spacing" textLength="176.5253" x="165.9884" y="661.9679">AddHouseBlocksController</text><rect fill="#E3E3E3" height="33.0679" rx="2.5" ry="2.5" style="stroke:#181818;stroke-width:0.5;" width="91.4757" x="574.4775" y="90.0679"/><text fill="#000000" font-family="sans-serif" font-size="14" lengthAdjust="spacing" textLength="77.4757" x="581.4775" y="112.0339">HouseBlock</text><rect fill="#E3E3E3" height="33.0679" rx="2.5" ry="2.5" style="stroke:#181818;stroke-width:0.5;" width="91.4757" x="574.4775" y="640.002"/><text fill="#000000" font-family="sans-serif" font-size="14" lengthAdjust="spacing" textLength="77.4757" x="581.4775" y="661.9679">HouseBlock</text><rect fill="#FFFFFF" height="496.8661" style="stroke:#181818;stroke-width:1.0;" width="10" x="57.6559" y="134.1358"/><rect fill="#FFFFFF" height="474.8661" style="stroke:#181818;stroke-width:1.0;" width="10" x="249.251" y="134.1358"/><rect fill="#FFFFFF" height="31.706" style="stroke:#181818;stroke-width:1.0;" width="10" x="615.2154" y="346.0779"/><rect fill="#FFFFFF" height="31.706" style="stroke:#181818;stroke-width:1.0;" width="10" x="615.2154" y="577.2959"/><path d="M10,141.1358 L271.8922,141.1358 L271.8922,150.8419 L261.8922,160.8419 L10,160.8419 L10,141.1358 " fill="#EEEEEE" style="stroke:#000000;stroke-width:1.5;"/><rect fill="none" height="307.336" style="stroke:#000000;stroke-width:1.5;" width="685.9532" x="10" y="141.1358"/><text fill="#000000" font-family="sans-serif" font-size="13" font-weight="bold" lengthAdjust="spacing" textLength="216.8922" x="25" y="156.0328">Manual assignment of each block</text><path d="M20,167.8419 L93.34,167.8419 L93.34,177.5479 L83.34,187.5479 L20,187.5479 L20,167.8419 " fill="#EEEEEE" style="stroke:#000000;stroke-width:1.5;"/><rect fill="none" height="273.63" style="stroke:#000000;stroke-width:1.5;" width="665.9532" x="20" y="167.8419"/><text fill="#000000" font-family="sans-serif" font-size="13" font-weight="bold" lengthAdjust="spacing" textLength="28.34" x="35" y="182.7389">loop</text><text fill="#000000" font-family="sans-serif" font-size="11" font-weight="bold" lengthAdjust="spacing" textLength="84.6334" x="108.34" y="181.6008">[for each block]</text><polygon fill="#181818" points="78.6559,207.2539,68.6559,211.2539,78.6559,215.2539,74.6559,211.2539" style="stroke:#181818;stroke-width:1.0;"/><line style="stroke:#181818;stroke-width:1.0;" x1="72.6559" x2="248.251" y1="211.2539" y2="211.2539"/><text fill="#000000" font-family="sans-serif" font-size="13" font-weight="bold" lengthAdjust="spacing" textLength="7.436" x="84.6559" y="205.4449">1</text><text fill="#000000" font-family="sans-serif" font-size="13" lengthAdjust="spacing" textLength="122.6291" x="96.0919" y="205.4449">request coordinates</text><polygon fill="#181818" points="237.251,238.9599,247.251,242.9599,237.251,246.9599,241.251,242.9599" style="stroke:#181818;stroke-width:1.0;"/><line style="stroke:#181818;stroke-width:1.0;stroke-dasharray:2.0,2.0;" x1="67.6559" x2="243.251" y1="242.9599" y2="242.9599"/><text fill="#000000" font-family="sans-serif" font-size="13" font-weight="bold" lengthAdjust="spacing" textLength="7.436" x="74.6559" y="237.1509">2</text><text fill="#000000" font-family="sans-serif" font-size="13" lengthAdjust="spacing" textLength="72.2671" x="86.0919" y="237.1509">coordinates</text><line style="stroke:#181818;stroke-width:1.0;" x1="259.251" x2="301.251" y1="274.6659" y2="274.6659"/><line style="stroke:#181818;stroke-width:1.0;" x1="301.251" x2="301.251" y1="274.6659" y2="287.6659"/><line style="stroke:#181818;stroke-width:1.0;" x1="260.251" x2="301.251" y1="287.6659" y2="287.6659"/><polygon fill="#181818" points="270.251,283.6659,260.251,287.6659,270.251,291.6659,266.251,287.6659" style="stroke:#181818;stroke-width:1.0;"/><text fill="#000000" font-family="sans-serif" font-size="13" font-weight="bold" lengthAdjust="spacing" textLength="7.436" x="266.251" y="268.8569">3</text><text fill="#000000" font-family="sans-serif" font-size="13" lengthAdjust="spacing" textLength="301.2753" x="277.687" y="268.8569">validateCoordinatesWithinCityLimits(coordinates)</text><path d="M30,302.6659 L92.303,302.6659 L92.303,312.3719 L82.303,322.3719 L30,322.3719 L30,302.6659 " fill="#EEEEEE" style="stroke:#000000;stroke-width:1.5;"/><rect fill="none" height="131.806" style="stroke:#000000;stroke-width:1.5;" width="645.9532" x="30" y="302.6659"/><text fill="#000000" font-family="sans-serif" font-size="13" font-weight="bold" lengthAdjust="spacing" textLength="17.303" x="45" y="317.5629">alt</text><text fill="#000000" font-family="sans-serif" font-size="11" font-weight="bold" lengthAdjust="spacing" textLength="101.7163" x="107.303" y="316.4248">[valid coordinates]</text><polygon fill="#181818" points="603.2154,342.0779,613.2154,346.0779,603.2154,350.0779,607.2154,346.0779" style="stroke:#181818;stroke-width:1.0;"/><line style="stroke:#181818;stroke-width:1.0;" x1="259.251" x2="609.2154" y1="346.0779" y2="346.0779"/><text fill="#000000" font-family="sans-serif" font-size="13" font-weight="bold" lengthAdjust="spacing" textLength="7.436" x="266.251" y="340.2689">4</text><text fill="#000000" font-family="sans-serif" font-size="13" lengthAdjust="spacing" textLength="244.5042" x="277.687" y="340.2689">setHouseBlockCoordinates(coordinates)</text><polygon fill="#181818" points="270.251,373.784,260.251,377.784,270.251,381.784,266.251,377.784" style="stroke:#181818;stroke-width:1.0;"/><line style="stroke:#181818;stroke-width:1.0;stroke-dasharray:2.0,2.0;" x1="264.251" x2="619.2154" y1="377.784" y2="377.784"/><text fill="#000000" font-family="sans-serif" font-size="13" font-weight="bold" lengthAdjust="spacing" textLength="7.436" x="276.251" y="371.975">5</text><text fill="#000000" font-family="sans-serif" font-size="13" lengthAdjust="spacing" textLength="46.527" x="287.687" y="371.975">success</text><line style="stroke:#000000;stroke-width:1.0;stroke-dasharray:2.0,2.0;" x1="30" x2="675.9532" y1="386.784" y2="386.784"/><text fill="#000000" font-family="sans-serif" font-size="11" font-weight="bold" lengthAdjust="spacing" textLength="44.1097" x="35" y="398.5429">[invalid]</text><polygon fill="#181818" points="78.6559,422.4719,68.6559,426.4719,78.6559,430.4719,74.6559,426.4719" style="stroke:#181818;stroke-width:1.0;"/><line style="stroke:#181818;stroke-width:1.0;stroke-dasharray:2.0,2.0;" x1="72.6559" x2="248.251" y1="426.4719" y2="426.4719"/><text fill="#000000" font-family="sans-serif" font-size="13" font-weight="bold" lengthAdjust="spacing" textLength="7.436" x="84.6559" y="420.6629">6</text><text fill="#000000" font-family="sans-serif" font-size="13" lengthAdjust="spacing" textLength="146.1591" x="96.0919" y="420.6629">ask for new coordinates</text><path d="M138.9884,462.4719 L401.0625,462.4719 L401.0625,472.1779 L391.0625,482.1779 L138.9884,482.1779 L138.9884,462.4719 " fill="#EEEEEE" style="stroke:#000000;stroke-width:1.5;"/><rect fill="none" height="161.5301" style="stroke:#000000;stroke-width:1.5;" width="546.9648" x="138.9884" y="462.4719"/><text fill="#000000" font-family="sans-serif" font-size="13" font-weight="bold" lengthAdjust="spacing" textLength="217.0741" x="153.9884" y="477.3689">Automatic coordinate generation</text><line style="stroke:#181818;stroke-width:1.0;" x1="259.251" x2="301.251" y1="505.8839" y2="505.8839"/><line style="stroke:#181818;stroke-width:1.0;" x1="301.251" x2="301.251" y1="505.8839" y2="518.8839"/><line style="stroke:#181818;stroke-width:1.0;" x1="260.251" x2="301.251" y1="518.8839" y2="518.8839"/><polygon fill="#181818" points="270.251,514.8839,260.251,518.8839,270.251,522.8839,266.251,518.8839" style="stroke:#181818;stroke-width:1.0;"/><text fill="#000000" font-family="sans-serif" font-size="13" font-weight="bold" lengthAdjust="spacing" textLength="7.436" x="266.251" y="500.0749">7</text><text fill="#000000" font-family="sans-serif" font-size="13" lengthAdjust="spacing" textLength="320.5283" x="277.687" y="500.0749">generateRandomCoordinates(numBlocks, cityLimits)</text><path d="M148.9884,533.8839 L222.3284,533.8839 L222.3284,543.5899 L212.3284,553.5899 L148.9884,553.5899 L148.9884,533.8839 " fill="#EEEEEE" style="stroke:#000000;stroke-width:1.5;"/><rect fill="none" height="83.118" style="stroke:#000000;stroke-width:1.5;" width="526.9648" x="148.9884" y="533.8839"/><text fill="#000000" font-family="sans-serif" font-size="13" font-weight="bold" lengthAdjust="spacing" textLength="28.34" x="163.9884" y="548.7809">loop</text><text fill="#000000" font-family="sans-serif" font-size="11" font-weight="bold" lengthAdjust="spacing" textLength="174.5908" x="237.3284" y="547.6428">[for each generated coordinate]</text><polygon fill="#181818" points="603.2154,573.2959,613.2154,577.2959,603.2154,581.2959,607.2154,577.2959" style="stroke:#181818;stroke-width:1.0;"/><line style="stroke:#181818;stroke-width:1.0;" x1="259.251" x2="609.2154" y1="577.2959" y2="577.2959"/><text fill="#000000" font-family="sans-serif" font-size="13" font-weight="bold" lengthAdjust="spacing" textLength="7.436" x="266.251" y="571.4869">8</text><text fill="#000000" font-family="sans-serif" font-size="13" lengthAdjust="spacing" textLength="238.2772" x="277.687" y="571.4869">setHouseBlockCoordinates(coordinate)</text><polygon fill="#181818" points="265.251,605.002,255.251,609.002,265.251,613.002,261.251,609.002" style="stroke:#181818;stroke-width:1.0;"/><line style="stroke:#181818;stroke-width:1.0;stroke-dasharray:2.0,2.0;" x1="259.251" x2="619.2154" y1="609.002" y2="609.002"/><text fill="#000000" font-family="sans-serif" font-size="13" font-weight="bold" lengthAdjust="spacing" textLength="7.436" x="271.251" y="603.1929">9</text><text fill="#000000" font-family="sans-serif" font-size="13" lengthAdjust="spacing" textLength="46.527" x="282.687" y="603.1929">success</text><!--SRC=[jLJ1Ri8m3BtdAtmSqlO372O1chJ3TjaEEtk9AH6ftIKkQ7-_K0eDKs58QBsqZVtUS-BdfBNd1YFMK0kBNKMf2JIsPD8nqg1TOqNl-Xq88bb5haAPa5RePEkvWYM6H0PR5MxhJuh6gDUCUaLkCSo3sFKi9LznJQp6e5M9yEHyVfdCfTxw1bbXvjopj8awH5e8QvGGA0AcNMm-6ZnX638w6Rz1fODI5QLj-feouw4Ua2KGsXLy_eATLpIGdo3Im39lf013_vo5miDZNmvCyw5-jPGKh4XqdhDcEZBqIGyv_ppPz0HwdVebjWq6xpBNOc3zyBholF3w_U9hh-ckK9mCaXXqZnxTp9z53O5SHI8T_ejIJgLBxcFBYlQNyOB-hmDDhRMKJajtT4c0ilV1SxVxQtTSkW3JkhCHqtRqy8ZTxdXD_stCRg7pikajFSk3LsEUWG8F5J75l2XiRl94pqDlo4xgiXrvrlVvzs2F_fYC3SU1etI7-HTZ3BwurB8R_73P2qNq_EqnqiW2rrzMLp6P7m00]--></g></svg>