<svg xmlns="http://www.w3.org/2000/svg" xmlns:xlink="http://www.w3.org/1999/xlink" contentStyleType="text/css" height="753px" preserveAspectRatio="none" style="width:1317px;height:753px;background:#FFFFFF;" version="1.1" viewBox="0 0 1317 753" width="1317px" zoomAndPan="magnify"><title>AssignAutoBlocks</title><defs/><g><text fill="#000000" font-family="sans-serif" font-size="14" font-weight="bold" lengthAdjust="spacing" textLength="124.4619" x="597.8008" y="30.1074">AssignAutoBlocks</text><rect fill="#FFFFFF" height="585.9375" style="stroke:#181818;stroke-width:1.0;" width="10" x="185.5635" y="111.5332"/><rect fill="#FFFFFF" height="31.291" style="stroke:#181818;stroke-width:1.0;" width="10" x="479.3418" y="169.1152"/><rect fill="#FFFFFF" height="31.291" style="stroke:#181818;stroke-width:1.0;" width="10" x="479.3418" y="231.6973"/><rect fill="#FFFFFF" height="119.2031" style="stroke:#181818;stroke-width:1.0;" width="10" x="479.3418" y="294.2793"/><rect fill="#FFFFFF" height="31.291" style="stroke:#181818;stroke-width:1.0;" width="10" x="479.3418" y="620.8887"/><rect fill="#FFFFFF" height="33.6211" style="stroke:#181818;stroke-width:1.0;" width="10" x="1223.4258" y="524.6855"/><rect fill="none" height="540.6465" style="stroke:#000000;stroke-width:1.5;" width="1231.1514" x="79.9121" y="126.5332"/><rect fill="none" height="188.0762" style="stroke:#000000;stroke-width:1.5;" width="1211.1514" x="89.9121" y="472.1035"/><line style="stroke:#181818;stroke-width:0.5;stroke-dasharray:5.0,5.0;" x1="189.9121" x2="189.9121" y1="78.2422" y2="715.4707"/><line style="stroke:#181818;stroke-width:0.5;stroke-dasharray:5.0,5.0;" x1="335.2148" x2="335.2148" y1="78.2422" y2="715.4707"/><line style="stroke:#181818;stroke-width:0.5;stroke-dasharray:5.0,5.0;" x1="420.918" x2="420.918" y1="78.2422" y2="715.4707"/><line style="stroke:#181818;stroke-width:0.5;stroke-dasharray:5.0,5.0;" x1="483.7246" x2="483.7246" y1="78.2422" y2="715.4707"/><line style="stroke:#181818;stroke-width:0.5;stroke-dasharray:5.0,5.0;" x1="843.6865" x2="843.6865" y1="334.0898" y2="715.4707"/><line style="stroke:#181818;stroke-width:0.5;stroke-dasharray:5.0,5.0;" x1="1059.5889" x2="1059.5889" y1="453.293" y2="715.4707"/><line style="stroke:#181818;stroke-width:0.5;stroke-dasharray:5.0,5.0;" x1="1227.7881" x2="1227.7881" y1="523.2051" y2="715.4707"/><rect fill="#E3E3E3" height="32.6211" rx="2.5" ry="2.5" style="stroke:#181818;stroke-width:0.5;" width="181.3027" x="99.9121" y="44.6211"/><text fill="#000000" font-family="sans-serif" font-size="14" lengthAdjust="spacing" textLength="167.3027" x="106.9121" y="66.7285">AddHouseBlocksController</text><rect fill="#E3E3E3" height="32.6211" rx="2.5" ry="2.5" style="stroke:#181818;stroke-width:0.5;" width="181.3027" x="99.9121" y="714.4707"/><text fill="#000000" font-family="sans-serif" font-size="14" lengthAdjust="spacing" textLength="167.3027" x="106.9121" y="736.5781">AddHouseBlocksController</text><rect fill="#E3E3E3" height="32.6211" rx="2.5" ry="2.5" style="stroke:#181818;stroke-width:0.5;" width="88.7031" x="291.2148" y="44.6211"/><text fill="#000000" font-family="sans-serif" font-size="14" lengthAdjust="spacing" textLength="74.7031" x="298.2148" y="66.7285">HouseBlock</text><rect fill="#E3E3E3" height="32.6211" rx="2.5" ry="2.5" style="stroke:#181818;stroke-width:0.5;" width="88.7031" x="291.2148" y="714.4707"/><text fill="#000000" font-family="sans-serif" font-size="14" lengthAdjust="spacing" textLength="74.7031" x="298.2148" y="736.5781">HouseBlock</text><rect fill="#E3E3E3" height="32.6211" rx="2.5" ry="2.5" style="stroke:#181818;stroke-width:0.5;" width="63.8066" x="389.918" y="44.6211"/><text fill="#000000" font-family="sans-serif" font-size="14" lengthAdjust="spacing" textLength="49.8066" x="396.918" y="66.7285">Position</text><rect fill="#E3E3E3" height="32.6211" rx="2.5" ry="2.5" style="stroke:#181818;stroke-width:0.5;" width="63.8066" x="389.918" y="714.4707"/><text fill="#000000" font-family="sans-serif" font-size="14" lengthAdjust="spacing" textLength="49.8066" x="396.918" y="736.5781">Position</text><rect fill="#E3E3E3" height="32.6211" rx="2.5" ry="2.5" style="stroke:#181818;stroke-width:0.5;" width="41.2344" x="463.7246" y="44.6211"/><text fill="#000000" font-family="sans-serif" font-size="14" lengthAdjust="spacing" textLength="27.2344" x="470.7246" y="66.7285">Map</text><rect fill="#E3E3E3" height="32.6211" rx="2.5" ry="2.5" style="stroke:#181818;stroke-width:0.5;" width="41.2344" x="463.7246" y="714.4707"/><text fill="#000000" font-family="sans-serif" font-size="14" lengthAdjust="spacing" textLength="27.2344" x="470.7246" y="736.5781">Map</text><rect fill="#E3E3E3" height="32.6211" rx="2.5" ry="2.5" style="stroke:#181818;stroke-width:0.5;" width="217.9023" x="735.6865" y="714.4707"/><text fill="#000000" font-family="sans-serif" font-size="14" lengthAdjust="spacing" textLength="203.9023" x="742.6865" y="736.5781">availablePositions:List&lt;Position&gt;</text><rect fill="#E3E3E3" height="32.6211" rx="2.5" ry="2.5" style="stroke:#181818;stroke-width:0.5;" width="192.1992" x="963.5889" y="714.4707"/><text fill="#000000" font-family="sans-serif" font-size="14" lengthAdjust="spacing" textLength="178.1992" x="970.5889" y="736.5781">blocksList:List&lt;HouseBlock&gt;</text><rect fill="#E3E3E3" height="32.6211" rx="2.5" ry="2.5" style="stroke:#181818;stroke-width:0.5;" width="125.2754" x="1165.7881" y="714.4707"/><text fill="#000000" font-family="sans-serif" font-size="14" lengthAdjust="spacing" textLength="111.2754" x="1172.7881" y="736.5781">block:HouseBlock</text><rect fill="#FFFFFF" height="585.9375" style="stroke:#181818;stroke-width:1.0;" width="10" x="185.5635" y="111.5332"/><rect fill="#FFFFFF" height="31.291" style="stroke:#181818;stroke-width:1.0;" width="10" x="479.3418" y="169.1152"/><rect fill="#FFFFFF" height="31.291" style="stroke:#181818;stroke-width:1.0;" width="10" x="479.3418" y="231.6973"/><rect fill="#FFFFFF" height="119.2031" style="stroke:#181818;stroke-width:1.0;" width="10" x="479.3418" y="294.2793"/><rect fill="#FFFFFF" height="31.291" style="stroke:#181818;stroke-width:1.0;" width="10" x="479.3418" y="620.8887"/><rect fill="#FFFFFF" height="33.6211" style="stroke:#181818;stroke-width:1.0;" width="10" x="1223.4258" y="524.6855"/><polygon fill="#181818" points="173.5635,107.5332,183.5635,111.5332,173.5635,115.5332,177.5635,111.5332" style="stroke:#181818;stroke-width:1.0;"/><line style="stroke:#181818;stroke-width:1.0;" x1="0" x2="179.5635" y1="111.5332" y2="111.5332"/><text fill="#000000" font-family="sans-serif" font-size="13" font-weight="bold" lengthAdjust="spacing" textLength="14.46" x="7" y="106.2705">18</text><text fill="#000000" font-family="sans-serif" font-size="13" lengthAdjust="spacing" textLength="148.1035" x="25.46" y="106.2705">assignBlocks(numBlocks)</text><path d="M79.9121,126.5332 L305.4966,126.5332 L305.4966,135.8242 L295.4966,145.8242 L79.9121,145.8242 L79.9121,126.5332 " fill="#EEEEEE" style="stroke:#000000;stroke-width:1.5;"/><rect fill="none" height="540.6465" style="stroke:#000000;stroke-width:1.5;" width="1231.1514" x="79.9121" y="126.5332"/><text fill="#000000" font-family="sans-serif" font-size="13" font-weight="bold" lengthAdjust="spacing" textLength="180.5845" x="94.9121" y="141.5615">Automatic Block Assignment</text><polygon fill="#181818" points="467.3418,165.1152,477.3418,169.1152,467.3418,173.1152,471.3418,169.1152" style="stroke:#181818;stroke-width:1.0;"/><line style="stroke:#181818;stroke-width:1.0;" x1="195.5635" x2="473.3418" y1="169.1152" y2="169.1152"/><text fill="#000000" font-family="sans-serif" font-size="13" font-weight="bold" lengthAdjust="spacing" textLength="25.3018" x="202.5635" y="163.8525">18.1</text><text fill="#000000" font-family="sans-serif" font-size="13" lengthAdjust="spacing" textLength="95.3672" x="231.8652" y="163.8525">getCurrentMap()</text><polygon fill="#181818" points="206.5635,196.4063,196.5635,200.4063,206.5635,204.4063,202.5635,200.4063" style="stroke:#181818;stroke-width:1.0;"/><line style="stroke:#181818;stroke-width:1.0;stroke-dasharray:2.0,2.0;" x1="200.5635" x2="483.3418" y1="200.4063" y2="200.4063"/><text fill="#000000" font-family="sans-serif" font-size="13" font-weight="bold" lengthAdjust="spacing" textLength="25.3018" x="212.5635" y="195.1436">18.2</text><text fill="#000000" font-family="sans-serif" font-size="13" lengthAdjust="spacing" textLength="25.2891" x="241.8652" y="195.1436">map</text><polygon fill="#181818" points="467.3418,227.6973,477.3418,231.6973,467.3418,235.6973,471.3418,231.6973" style="stroke:#181818;stroke-width:1.0;"/><line style="stroke:#181818;stroke-width:1.0;" x1="195.5635" x2="473.3418" y1="231.6973" y2="231.6973"/><text fill="#000000" font-family="sans-serif" font-size="13" font-weight="bold" lengthAdjust="spacing" textLength="25.3018" x="202.5635" y="226.4346">18.3</text><text fill="#000000" font-family="sans-serif" font-size="13" lengthAdjust="spacing" textLength="114.8862" x="231.8652" y="226.4346">getCityBoundaries()</text><polygon fill="#181818" points="206.5635,258.9883,196.5635,262.9883,206.5635,266.9883,202.5635,262.9883" style="stroke:#181818;stroke-width:1.0;"/><line style="stroke:#181818;stroke-width:1.0;stroke-dasharray:2.0,2.0;" x1="200.5635" x2="483.3418" y1="262.9883" y2="262.9883"/><text fill="#000000" font-family="sans-serif" font-size="13" font-weight="bold" lengthAdjust="spacing" textLength="25.3018" x="212.5635" y="257.7256">18.4</text><text fill="#000000" font-family="sans-serif" font-size="13" lengthAdjust="spacing" textLength="64.3271" x="241.8652" y="257.7256">boundaries</text><polygon fill="#181818" points="467.3418,290.2793,477.3418,294.2793,467.3418,298.2793,471.3418,294.2793" style="stroke:#181818;stroke-width:1.0;"/><line style="stroke:#181818;stroke-width:1.0;" x1="195.5635" x2="473.3418" y1="294.2793" y2="294.2793"/><text fill="#000000" font-family="sans-serif" font-size="13" font-weight="bold" lengthAdjust="spacing" textLength="25.3018" x="202.5635" y="289.0166">18.5</text><text fill="#000000" font-family="sans-serif" font-size="13" lengthAdjust="spacing" textLength="195.8125" x="231.8652" y="289.0166">getAvailablePositions(numBlocks)</text><polygon fill="#181818" points="723.6865,321.5703,733.6865,325.5703,723.6865,329.5703,727.6865,325.5703" style="stroke:#181818;stroke-width:1.0;"/><line style="stroke:#181818;stroke-width:1.0;" x1="489.3418" x2="729.6865" y1="325.5703" y2="325.5703"/><text fill="#000000" font-family="sans-serif" font-size="13" font-weight="bold" lengthAdjust="spacing" textLength="25.3018" x="496.3418" y="320.3076">18.6</text><text fill="#000000" font-family="sans-serif" font-size="13" lengthAdjust="spacing" textLength="102.5908" x="525.6436" y="320.3076">new ArrayList&lt;&gt;()</text><rect fill="#E3E3E3" height="32.6211" rx="2.5" ry="2.5" style="stroke:#181818;stroke-width:0.5;" width="217.9023" x="735.6865" y="302.2793"/><text fill="#000000" font-family="sans-serif" font-size="14" lengthAdjust="spacing" textLength="203.9023" x="742.6865" y="324.3867">availablePositions:List&lt;Position&gt;</text><line style="stroke:#181818;stroke-width:1.0;" x1="489.3418" x2="531.3418" y1="369.1914" y2="369.1914"/><line style="stroke:#181818;stroke-width:1.0;" x1="531.3418" x2="531.3418" y1="369.1914" y2="382.1914"/><line style="stroke:#181818;stroke-width:1.0;" x1="490.3418" x2="531.3418" y1="382.1914" y2="382.1914"/><polygon fill="#181818" points="500.3418,378.1914,490.3418,382.1914,500.3418,386.1914,496.3418,382.1914" style="stroke:#181818;stroke-width:1.0;"/><text fill="#000000" font-family="sans-serif" font-size="13" font-weight="bold" lengthAdjust="spacing" textLength="25.3018" x="496.3418" y="363.9287">18.7</text><text fill="#000000" font-family="sans-serif" font-size="13" lengthAdjust="spacing" textLength="296.9941" x="525.6436" y="363.9287">generateRandomPositions(numBlocks, boundaries)</text><polygon fill="#181818" points="206.5635,409.4824,196.5635,413.4824,206.5635,417.4824,202.5635,413.4824" style="stroke:#181818;stroke-width:1.0;"/><line style="stroke:#181818;stroke-width:1.0;stroke-dasharray:2.0,2.0;" x1="200.5635" x2="483.3418" y1="413.4824" y2="413.4824"/><text fill="#000000" font-family="sans-serif" font-size="13" font-weight="bold" lengthAdjust="spacing" textLength="25.3018" x="212.5635" y="408.2197">18.8</text><text fill="#000000" font-family="sans-serif" font-size="13" lengthAdjust="spacing" textLength="104.0635" x="241.8652" y="408.2197">availablePositions</text><polygon fill="#181818" points="951.5889,440.7734,961.5889,444.7734,951.5889,448.7734,955.5889,444.7734" style="stroke:#181818;stroke-width:1.0;"/><line style="stroke:#181818;stroke-width:1.0;" x1="195.5635" x2="957.5889" y1="444.7734" y2="444.7734"/><text fill="#000000" font-family="sans-serif" font-size="13" font-weight="bold" lengthAdjust="spacing" textLength="25.3018" x="202.5635" y="439.5107">18.9</text><text fill="#000000" font-family="sans-serif" font-size="13" lengthAdjust="spacing" textLength="102.5908" x="231.8652" y="439.5107">new ArrayList&lt;&gt;()</text><rect fill="#E3E3E3" height="32.6211" rx="2.5" ry="2.5" style="stroke:#181818;stroke-width:0.5;" width="192.1992" x="963.5889" y="421.4824"/><text fill="#000000" font-family="sans-serif" font-size="14" lengthAdjust="spacing" textLength="178.1992" x="970.5889" y="443.5898">blocksList:List&lt;HouseBlock&gt;</text><path d="M89.9121,472.1035 L162.3467,472.1035 L162.3467,481.3945 L152.3467,491.3945 L89.9121,491.3945 L89.9121,472.1035 " fill="#EEEEEE" style="stroke:#000000;stroke-width:1.5;"/><rect fill="none" height="188.0762" style="stroke:#000000;stroke-width:1.5;" width="1211.1514" x="89.9121" y="472.1035"/><text fill="#000000" font-family="sans-serif" font-size="13" font-weight="bold" lengthAdjust="spacing" textLength="27.4346" x="104.9121" y="487.1318">loop</text><text fill="#000000" font-family="sans-serif" font-size="11" font-weight="bold" lengthAdjust="spacing" textLength="207.813" x="177.3467" y="485.9736">[for each position in availablePositions]</text><polygon fill="#181818" points="1153.7881,510.6855,1163.7881,514.6855,1153.7881,518.6855,1157.7881,514.6855" style="stroke:#181818;stroke-width:1.0;"/><line style="stroke:#181818;stroke-width:1.0;" x1="195.5635" x2="1159.7881" y1="514.6855" y2="514.6855"/><text fill="#000000" font-family="sans-serif" font-size="13" font-weight="bold" lengthAdjust="spacing" textLength="32.5317" x="202.5635" y="509.4229">18.10</text><text fill="#000000" font-family="sans-serif" font-size="13" lengthAdjust="spacing" textLength="179.918" x="239.0952" y="509.4229">new HouseBlock(position, true)</text><rect fill="#E3E3E3" height="32.6211" rx="2.5" ry="2.5" style="stroke:#181818;stroke-width:0.5;" width="125.2754" x="1165.7881" y="491.3945"/><text fill="#000000" font-family="sans-serif" font-size="14" lengthAdjust="spacing" textLength="111.2754" x="1172.7881" y="513.502">block:HouseBlock</text><polygon fill="#181818" points="206.5635,554.3066,196.5635,558.3066,206.5635,562.3066,202.5635,558.3066" style="stroke:#181818;stroke-width:1.0;"/><line style="stroke:#181818;stroke-width:1.0;stroke-dasharray:2.0,2.0;" x1="200.5635" x2="1227.4258" y1="558.3066" y2="558.3066"/><text fill="#000000" font-family="sans-serif" font-size="13" font-weight="bold" lengthAdjust="spacing" textLength="32.5317" x="212.5635" y="553.0439">18.11</text><text fill="#000000" font-family="sans-serif" font-size="13" lengthAdjust="spacing" textLength="30.3481" x="249.0952" y="553.0439">block</text><polygon fill="#181818" points="1047.6885,585.5977,1057.6885,589.5977,1047.6885,593.5977,1051.6885,589.5977" style="stroke:#181818;stroke-width:1.0;"/><line style="stroke:#181818;stroke-width:1.0;" x1="195.5635" x2="1053.6885" y1="589.5977" y2="589.5977"/><text fill="#000000" font-family="sans-serif" font-size="13" font-weight="bold" lengthAdjust="spacing" textLength="32.5317" x="202.5635" y="584.335">18.12</text><text fill="#000000" font-family="sans-serif" font-size="13" lengthAdjust="spacing" textLength="60.6963" x="239.0952" y="584.335">add(block)</text><polygon fill="#181818" points="467.3418,616.8887,477.3418,620.8887,467.3418,624.8887,471.3418,620.8887" style="stroke:#181818;stroke-width:1.0;"/><line style="stroke:#181818;stroke-width:1.0;" x1="195.5635" x2="473.3418" y1="620.8887" y2="620.8887"/><text fill="#000000" font-family="sans-serif" font-size="13" font-weight="bold" lengthAdjust="spacing" textLength="32.5317" x="202.5635" y="615.626">18.13</text><text fill="#000000" font-family="sans-serif" font-size="13" lengthAdjust="spacing" textLength="183.5234" x="239.0952" y="615.626">markPositionOccupied(position)</text><polygon fill="#181818" points="206.5635,648.1797,196.5635,652.1797,206.5635,656.1797,202.5635,652.1797" style="stroke:#181818;stroke-width:1.0;"/><line style="stroke:#181818;stroke-width:1.0;stroke-dasharray:2.0,2.0;" x1="200.5635" x2="483.3418" y1="652.1797" y2="652.1797"/><text fill="#000000" font-family="sans-serif" font-size="13" font-weight="bold" lengthAdjust="spacing" textLength="32.5317" x="212.5635" y="646.917">18.14</text><text fill="#000000" font-family="sans-serif" font-size="13" lengthAdjust="spacing" textLength="46.96" x="249.0952" y="646.917">success</text><polygon fill="#181818" points="11,693.4707,1,697.4707,11,701.4707,7,697.4707" style="stroke:#181818;stroke-width:1.0;"/><line style="stroke:#181818;stroke-width:1.0;stroke-dasharray:2.0,2.0;" x1="5" x2="189.5635" y1="697.4707" y2="697.4707"/><text fill="#000000" font-family="sans-serif" font-size="13" font-weight="bold" lengthAdjust="spacing" textLength="14.46" x="17" y="692.208">19</text><text fill="#000000" font-family="sans-serif" font-size="13" lengthAdjust="spacing" textLength="73.709" x="35.46" y="692.208">houseBlocks</text><!--SRC=[fPJ9Rjim48RlV8f1JZOG5yWjDG83SYuzj4ZHFi6OdCY4kGXS4lZjIotKKbjoWWYmO0rdVdx_S41_agP2XngqDPOVdTK4mKLYlb-fa9-mfB_Xh0WSyO2cLEC4VqHXtwKfuHML9uOnM1FrWHnZGOPKLNWlIrEa-5vPVlACfSeWkQpG12Y4-66ZftRjsPhWh5AfUfmqP4p2lwsNGLep2Vx2YeqeuE6HRNQpssm16xmslaerxRyrGnxa6mQQ9sIiT3PMK5lJc02WIUaCQpA1GNecBDyUcjYS9YJKP02sK59uZiubaVIzMhTA6QdsM0VgrCs2kwIZkrH15zMV897XlBVH27II_1Te3ht8rw6ADvGA3uho64oExofXy-AEwjWTNjHlVqeVdlBdxYxDHZrZTNGmkCkXH67e7GhdyDmKxhh6Z7CphI6NDls3HbXzXVT-r9d_HPOxUkbYiRFP_A5Hgh5RquDyQtlVhzyya25rkIFAsWfUhOE4TeIgmmLfvZnSy6u7XW6oJxt9sE4DIQiCSTzSU-jUgk_TT8TMvTQ8Jqf6vp3L-ZXsRYqAiMh4rvyJQKTGeplbzhvm7Yj9elT_nNcUcW-EeO-Sa_VNV6SbCeBLlydb_9qzRJPBmiSXpaQYivVoFm00]--></g></svg>