<svg xmlns="http://www.w3.org/2000/svg" xmlns:xlink="http://www.w3.org/1999/xlink" contentStyleType="text/css" height="878px" preserveAspectRatio="none" style="width:1061px;height:878px;background:#FFFFFF;" version="1.1" viewBox="0 0 1061 878" width="1061px" zoomAndPan="magnify"><title>AssignManualBlocks</title><defs/><g><text fill="#000000" font-family="sans-serif" font-size="14" font-weight="bold" lengthAdjust="spacing" textLength="140.8135" x="461.7927" y="30.1074">AssignManualBlocks</text><rect fill="#FFFFFF" height="711.4414" style="stroke:#181818;stroke-width:1.0;" width="10" x="185.5635" y="111.5332"/><rect fill="#FFFFFF" height="31.291" style="stroke:#181818;stroke-width:1.0;" width="10" x="536.356" y="169.1152"/><rect fill="#FFFFFF" height="31.291" style="stroke:#181818;stroke-width:1.0;" width="10" x="536.356" y="231.6973"/><rect fill="#FFFFFF" height="31.291" style="stroke:#181818;stroke-width:1.0;" width="10" x="536.356" y="408.4824"/><rect fill="#FFFFFF" height="31.291" style="stroke:#181818;stroke-width:1.0;" width="10" x="536.356" y="678.4707"/><rect fill="#FFFFFF" height="33.6211" style="stroke:#181818;stroke-width:1.0;" width="10" x="827.1479" y="507.3555"/><rect fill="#FFFFFF" height="33.6211" style="stroke:#181818;stroke-width:1.0;" width="10" x="957.7612" y="582.2676"/><rect fill="none" height="666.1504" style="stroke:#000000;stroke-width:1.5;" width="985.4868" x="69.9121" y="126.5332"/><rect fill="none" height="464.0742" style="stroke:#000000;stroke-width:1.5;" width="965.4868" x="79.9121" y="321.6094"/><rect fill="none" height="323.9102" style="stroke:#000000;stroke-width:1.5;" width="945.4868" x="89.9121" y="454.7734"/><line style="stroke:#181818;stroke-width:0.5;stroke-dasharray:5.0,5.0;" x1="189.9121" x2="189.9121" y1="78.2422" y2="840.9746"/><line style="stroke:#181818;stroke-width:0.5;stroke-dasharray:5.0,5.0;" x1="392.229" x2="392.229" y1="78.2422" y2="840.9746"/><line style="stroke:#181818;stroke-width:0.5;stroke-dasharray:5.0,5.0;" x1="477.9321" x2="477.9321" y1="78.2422" y2="840.9746"/><line style="stroke:#181818;stroke-width:0.5;stroke-dasharray:5.0,5.0;" x1="540.7388" x2="540.7388" y1="78.2422" y2="840.9746"/><line style="stroke:#181818;stroke-width:0.5;stroke-dasharray:5.0,5.0;" x1="667.9731" x2="667.9731" y1="302.7988" y2="840.9746"/><line style="stroke:#181818;stroke-width:0.5;stroke-dasharray:5.0,5.0;" x1="831.1724" x2="831.1724" y1="505.875" y2="840.9746"/><line style="stroke:#181818;stroke-width:0.5;stroke-dasharray:5.0,5.0;" x1="962.1235" x2="962.1235" y1="580.7871" y2="840.9746"/><rect fill="#E3E3E3" height="32.6211" rx="2.5" ry="2.5" style="stroke:#181818;stroke-width:0.5;" width="181.3027" x="99.9121" y="44.6211"/><text fill="#000000" font-family="sans-serif" font-size="14" lengthAdjust="spacing" textLength="167.3027" x="106.9121" y="66.7285">AddHouseBlocksController</text><rect fill="#E3E3E3" height="32.6211" rx="2.5" ry="2.5" style="stroke:#181818;stroke-width:0.5;" width="181.3027" x="99.9121" y="839.9746"/><text fill="#000000" font-family="sans-serif" font-size="14" lengthAdjust="spacing" textLength="167.3027" x="106.9121" y="862.082">AddHouseBlocksController</text><rect fill="#E3E3E3" height="32.6211" rx="2.5" ry="2.5" style="stroke:#181818;stroke-width:0.5;" width="88.7031" x="348.229" y="44.6211"/><text fill="#000000" font-family="sans-serif" font-size="14" lengthAdjust="spacing" textLength="74.7031" x="355.229" y="66.7285">HouseBlock</text><rect fill="#E3E3E3" height="32.6211" rx="2.5" ry="2.5" style="stroke:#181818;stroke-width:0.5;" width="88.7031" x="348.229" y="839.9746"/><text fill="#000000" font-family="sans-serif" font-size="14" lengthAdjust="spacing" textLength="74.7031" x="355.229" y="862.082">HouseBlock</text><rect fill="#E3E3E3" height="32.6211" rx="2.5" ry="2.5" style="stroke:#181818;stroke-width:0.5;" width="63.8066" x="446.9321" y="44.6211"/><text fill="#000000" font-family="sans-serif" font-size="14" lengthAdjust="spacing" textLength="49.8066" x="453.9321" y="66.7285">Position</text><rect fill="#E3E3E3" height="32.6211" rx="2.5" ry="2.5" style="stroke:#181818;stroke-width:0.5;" width="63.8066" x="446.9321" y="839.9746"/><text fill="#000000" font-family="sans-serif" font-size="14" lengthAdjust="spacing" textLength="49.8066" x="453.9321" y="862.082">Position</text><rect fill="#E3E3E3" height="32.6211" rx="2.5" ry="2.5" style="stroke:#181818;stroke-width:0.5;" width="41.2344" x="520.7388" y="44.6211"/><text fill="#000000" font-family="sans-serif" font-size="14" lengthAdjust="spacing" textLength="27.2344" x="527.7388" y="66.7285">Map</text><rect fill="#E3E3E3" height="32.6211" rx="2.5" ry="2.5" style="stroke:#181818;stroke-width:0.5;" width="41.2344" x="520.7388" y="839.9746"/><text fill="#000000" font-family="sans-serif" font-size="14" lengthAdjust="spacing" textLength="27.2344" x="527.7388" y="862.082">Map</text><rect fill="#E3E3E3" height="32.6211" rx="2.5" ry="2.5" style="stroke:#181818;stroke-width:0.5;" width="192.1992" x="571.9731" y="839.9746"/><text fill="#000000" font-family="sans-serif" font-size="14" lengthAdjust="spacing" textLength="178.1992" x="578.9731" y="862.082">blocksList:List&lt;HouseBlock&gt;</text><rect fill="#E3E3E3" height="32.6211" rx="2.5" ry="2.5" style="stroke:#181818;stroke-width:0.5;" width="115.9512" x="774.1724" y="839.9746"/><text fill="#000000" font-family="sans-serif" font-size="14" lengthAdjust="spacing" textLength="101.9512" x="781.1724" y="862.082">position:Position</text><rect fill="#E3E3E3" height="32.6211" rx="2.5" ry="2.5" style="stroke:#181818;stroke-width:0.5;" width="125.2754" x="900.1235" y="839.9746"/><text fill="#000000" font-family="sans-serif" font-size="14" lengthAdjust="spacing" textLength="111.2754" x="907.1235" y="862.082">block:HouseBlock</text><rect fill="#FFFFFF" height="711.4414" style="stroke:#181818;stroke-width:1.0;" width="10" x="185.5635" y="111.5332"/><rect fill="#FFFFFF" height="31.291" style="stroke:#181818;stroke-width:1.0;" width="10" x="536.356" y="169.1152"/><rect fill="#FFFFFF" height="31.291" style="stroke:#181818;stroke-width:1.0;" width="10" x="536.356" y="231.6973"/><rect fill="#FFFFFF" height="31.291" style="stroke:#181818;stroke-width:1.0;" width="10" x="536.356" y="408.4824"/><rect fill="#FFFFFF" height="31.291" style="stroke:#181818;stroke-width:1.0;" width="10" x="536.356" y="678.4707"/><rect fill="#FFFFFF" height="33.6211" style="stroke:#181818;stroke-width:1.0;" width="10" x="827.1479" y="507.3555"/><rect fill="#FFFFFF" height="33.6211" style="stroke:#181818;stroke-width:1.0;" width="10" x="957.7612" y="582.2676"/><polygon fill="#181818" points="173.5635,107.5332,183.5635,111.5332,173.5635,115.5332,177.5635,111.5332" style="stroke:#181818;stroke-width:1.0;"/><line style="stroke:#181818;stroke-width:1.0;" x1="0" x2="179.5635" y1="111.5332" y2="111.5332"/><text fill="#000000" font-family="sans-serif" font-size="13" font-weight="bold" lengthAdjust="spacing" textLength="14.46" x="7" y="106.2705">18</text><text fill="#000000" font-family="sans-serif" font-size="13" lengthAdjust="spacing" textLength="148.1035" x="25.46" y="106.2705">assignBlocks(numBlocks)</text><path d="M69.9121,126.5332 L276.7202,126.5332 L276.7202,135.8242 L266.7202,145.8242 L69.9121,145.8242 L69.9121,126.5332 " fill="#EEEEEE" style="stroke:#000000;stroke-width:1.5;"/><rect fill="none" height="666.1504" style="stroke:#000000;stroke-width:1.5;" width="985.4868" x="69.9121" y="126.5332"/><text fill="#000000" font-family="sans-serif" font-size="13" font-weight="bold" lengthAdjust="spacing" textLength="161.8081" x="84.9121" y="141.5615">Manual Block Assignment</text><polygon fill="#181818" points="524.356,165.1152,534.356,169.1152,524.356,173.1152,528.356,169.1152" style="stroke:#181818;stroke-width:1.0;"/><line style="stroke:#181818;stroke-width:1.0;" x1="195.5635" x2="530.356" y1="169.1152" y2="169.1152"/><text fill="#000000" font-family="sans-serif" font-size="13" font-weight="bold" lengthAdjust="spacing" textLength="25.3018" x="202.5635" y="163.8525">18.1</text><text fill="#000000" font-family="sans-serif" font-size="13" lengthAdjust="spacing" textLength="95.3672" x="231.8652" y="163.8525">getCurrentMap()</text><polygon fill="#181818" points="206.5635,196.4063,196.5635,200.4063,206.5635,204.4063,202.5635,200.4063" style="stroke:#181818;stroke-width:1.0;"/><line style="stroke:#181818;stroke-width:1.0;stroke-dasharray:2.0,2.0;" x1="200.5635" x2="540.356" y1="200.4063" y2="200.4063"/><text fill="#000000" font-family="sans-serif" font-size="13" font-weight="bold" lengthAdjust="spacing" textLength="25.3018" x="212.5635" y="195.1436">18.2</text><text fill="#000000" font-family="sans-serif" font-size="13" lengthAdjust="spacing" textLength="25.2891" x="241.8652" y="195.1436">map</text><polygon fill="#181818" points="524.356,227.6973,534.356,231.6973,524.356,235.6973,528.356,231.6973" style="stroke:#181818;stroke-width:1.0;"/><line style="stroke:#181818;stroke-width:1.0;" x1="195.5635" x2="530.356" y1="231.6973" y2="231.6973"/><text fill="#000000" font-family="sans-serif" font-size="13" font-weight="bold" lengthAdjust="spacing" textLength="25.3018" x="202.5635" y="226.4346">18.3</text><text fill="#000000" font-family="sans-serif" font-size="13" lengthAdjust="spacing" textLength="114.8862" x="231.8652" y="226.4346">getCityBoundaries()</text><polygon fill="#181818" points="206.5635,258.9883,196.5635,262.9883,206.5635,266.9883,202.5635,262.9883" style="stroke:#181818;stroke-width:1.0;"/><line style="stroke:#181818;stroke-width:1.0;stroke-dasharray:2.0,2.0;" x1="200.5635" x2="540.356" y1="262.9883" y2="262.9883"/><text fill="#000000" font-family="sans-serif" font-size="13" font-weight="bold" lengthAdjust="spacing" textLength="25.3018" x="212.5635" y="257.7256">18.4</text><text fill="#000000" font-family="sans-serif" font-size="13" lengthAdjust="spacing" textLength="64.3271" x="241.8652" y="257.7256">boundaries</text><polygon fill="#181818" points="559.9731,290.2793,569.9731,294.2793,559.9731,298.2793,563.9731,294.2793" style="stroke:#181818;stroke-width:1.0;"/><line style="stroke:#181818;stroke-width:1.0;" x1="195.5635" x2="565.9731" y1="294.2793" y2="294.2793"/><text fill="#000000" font-family="sans-serif" font-size="13" font-weight="bold" lengthAdjust="spacing" textLength="25.3018" x="202.5635" y="289.0166">18.5</text><text fill="#000000" font-family="sans-serif" font-size="13" lengthAdjust="spacing" textLength="102.5908" x="231.8652" y="289.0166">new ArrayList&lt;&gt;()</text><rect fill="#E3E3E3" height="32.6211" rx="2.5" ry="2.5" style="stroke:#181818;stroke-width:0.5;" width="192.1992" x="571.9731" y="270.9883"/><text fill="#000000" font-family="sans-serif" font-size="14" lengthAdjust="spacing" textLength="178.1992" x="578.9731" y="293.0957">blocksList:List&lt;HouseBlock&gt;</text><path d="M79.9121,321.6094 L152.3467,321.6094 L152.3467,330.9004 L142.3467,340.9004 L79.9121,340.9004 L79.9121,321.6094 " fill="#EEEEEE" style="stroke:#000000;stroke-width:1.5;"/><rect fill="none" height="464.0742" style="stroke:#000000;stroke-width:1.5;" width="965.4868" x="79.9121" y="321.6094"/><text fill="#000000" font-family="sans-serif" font-size="13" font-weight="bold" lengthAdjust="spacing" textLength="27.4346" x="94.9121" y="336.6377">loop</text><text fill="#000000" font-family="sans-serif" font-size="11" font-weight="bold" lengthAdjust="spacing" textLength="174.1899" x="167.3467" y="335.4795">[for each block (1 to numBlocks)]</text><line style="stroke:#181818;stroke-width:1.0;" x1="195.5635" x2="237.5635" y1="364.1914" y2="364.1914"/><line style="stroke:#181818;stroke-width:1.0;" x1="237.5635" x2="237.5635" y1="364.1914" y2="377.1914"/><line style="stroke:#181818;stroke-width:1.0;" x1="196.5635" x2="237.5635" y1="377.1914" y2="377.1914"/><polygon fill="#181818" points="206.5635,373.1914,196.5635,377.1914,206.5635,381.1914,202.5635,377.1914" style="stroke:#181818;stroke-width:1.0;"/><text fill="#000000" font-family="sans-serif" font-size="13" font-weight="bold" lengthAdjust="spacing" textLength="25.3018" x="202.5635" y="358.9287">18.6</text><text fill="#000000" font-family="sans-serif" font-size="13" lengthAdjust="spacing" textLength="138.7153" x="231.8652" y="358.9287">promptForCoordinates()</text><polygon fill="#181818" points="524.356,404.4824,534.356,408.4824,524.356,412.4824,528.356,408.4824" style="stroke:#181818;stroke-width:1.0;"/><line style="stroke:#181818;stroke-width:1.0;" x1="195.5635" x2="530.356" y1="408.4824" y2="408.4824"/><text fill="#000000" font-family="sans-serif" font-size="13" font-weight="bold" lengthAdjust="spacing" textLength="25.3018" x="202.5635" y="403.2197">18.7</text><text fill="#000000" font-family="sans-serif" font-size="13" lengthAdjust="spacing" textLength="137.2744" x="231.8652" y="403.2197">isPositionAvailable(x, y)</text><polygon fill="#181818" points="206.5635,435.7734,196.5635,439.7734,206.5635,443.7734,202.5635,439.7734" style="stroke:#181818;stroke-width:1.0;"/><line style="stroke:#181818;stroke-width:1.0;stroke-dasharray:2.0,2.0;" x1="200.5635" x2="540.356" y1="439.7734" y2="439.7734"/><text fill="#000000" font-family="sans-serif" font-size="13" font-weight="bold" lengthAdjust="spacing" textLength="25.3018" x="212.5635" y="434.5107">18.8</text><text fill="#000000" font-family="sans-serif" font-size="13" lengthAdjust="spacing" textLength="62.1436" x="241.8652" y="434.5107">isAvailable</text><path d="M89.9121,454.7734 L150.083,454.7734 L150.083,464.0645 L140.083,474.0645 L89.9121,474.0645 L89.9121,454.7734 " fill="#EEEEEE" style="stroke:#000000;stroke-width:1.5;"/><rect fill="none" height="323.9102" style="stroke:#000000;stroke-width:1.5;" width="945.4868" x="89.9121" y="454.7734"/><text fill="#000000" font-family="sans-serif" font-size="13" font-weight="bold" lengthAdjust="spacing" textLength="15.1709" x="104.9121" y="469.8018">alt</text><text fill="#000000" font-family="sans-serif" font-size="11" font-weight="bold" lengthAdjust="spacing" textLength="78.2192" x="165.083" y="468.6436">[valid position]</text><polygon fill="#181818" points="762.1724,493.3555,772.1724,497.3555,762.1724,501.3555,766.1724,497.3555" style="stroke:#181818;stroke-width:1.0;"/><line style="stroke:#181818;stroke-width:1.0;" x1="195.5635" x2="768.1724" y1="497.3555" y2="497.3555"/><text fill="#000000" font-family="sans-serif" font-size="13" font-weight="bold" lengthAdjust="spacing" textLength="25.3018" x="202.5635" y="492.0928">18.9</text><text fill="#000000" font-family="sans-serif" font-size="13" lengthAdjust="spacing" textLength="102.5908" x="231.8652" y="492.0928">new Position(x, y)</text><rect fill="#E3E3E3" height="32.6211" rx="2.5" ry="2.5" style="stroke:#181818;stroke-width:0.5;" width="115.9512" x="774.1724" y="474.0645"/><text fill="#000000" font-family="sans-serif" font-size="14" lengthAdjust="spacing" textLength="101.9512" x="781.1724" y="496.1719">position:Position</text><polygon fill="#181818" points="206.5635,536.9766,196.5635,540.9766,206.5635,544.9766,202.5635,540.9766" style="stroke:#181818;stroke-width:1.0;"/><line style="stroke:#181818;stroke-width:1.0;stroke-dasharray:2.0,2.0;" x1="200.5635" x2="831.1479" y1="540.9766" y2="540.9766"/><text fill="#000000" font-family="sans-serif" font-size="13" font-weight="bold" lengthAdjust="spacing" textLength="32.5317" x="212.5635" y="535.7139">18.10</text><text fill="#000000" font-family="sans-serif" font-size="13" lengthAdjust="spacing" textLength="44.8081" x="249.0952" y="535.7139">position</text><polygon fill="#181818" points="888.1235,568.2676,898.1235,572.2676,888.1235,576.2676,892.1235,572.2676" style="stroke:#181818;stroke-width:1.0;"/><line style="stroke:#181818;stroke-width:1.0;" x1="195.5635" x2="894.1235" y1="572.2676" y2="572.2676"/><text fill="#000000" font-family="sans-serif" font-size="13" font-weight="bold" lengthAdjust="spacing" textLength="32.5317" x="202.5635" y="567.0049">18.11</text><text fill="#000000" font-family="sans-serif" font-size="13" lengthAdjust="spacing" textLength="184.9771" x="239.0952" y="567.0049">new HouseBlock(position, false)</text><rect fill="#E3E3E3" height="32.6211" rx="2.5" ry="2.5" style="stroke:#181818;stroke-width:0.5;" width="125.2754" x="900.1235" y="548.9766"/><text fill="#000000" font-family="sans-serif" font-size="14" lengthAdjust="spacing" textLength="111.2754" x="907.1235" y="571.084">block:HouseBlock</text><polygon fill="#181818" points="206.5635,611.8887,196.5635,615.8887,206.5635,619.8887,202.5635,615.8887" style="stroke:#181818;stroke-width:1.0;"/><line style="stroke:#181818;stroke-width:1.0;stroke-dasharray:2.0,2.0;" x1="200.5635" x2="961.7612" y1="615.8887" y2="615.8887"/><text fill="#000000" font-family="sans-serif" font-size="13" font-weight="bold" lengthAdjust="spacing" textLength="32.5317" x="212.5635" y="610.626">18.12</text><text fill="#000000" font-family="sans-serif" font-size="13" lengthAdjust="spacing" textLength="30.3481" x="249.0952" y="610.626">block</text><polygon fill="#181818" points="656.0728,643.1797,666.0728,647.1797,656.0728,651.1797,660.0728,647.1797" style="stroke:#181818;stroke-width:1.0;"/><line style="stroke:#181818;stroke-width:1.0;" x1="195.5635" x2="662.0728" y1="647.1797" y2="647.1797"/><text fill="#000000" font-family="sans-serif" font-size="13" font-weight="bold" lengthAdjust="spacing" textLength="32.5317" x="202.5635" y="641.917">18.13</text><text fill="#000000" font-family="sans-serif" font-size="13" lengthAdjust="spacing" textLength="60.6963" x="239.0952" y="641.917">add(block)</text><polygon fill="#181818" points="524.356,674.4707,534.356,678.4707,524.356,682.4707,528.356,678.4707" style="stroke:#181818;stroke-width:1.0;"/><line style="stroke:#181818;stroke-width:1.0;" x1="195.5635" x2="530.356" y1="678.4707" y2="678.4707"/><text fill="#000000" font-family="sans-serif" font-size="13" font-weight="bold" lengthAdjust="spacing" textLength="32.5317" x="202.5635" y="673.208">18.14</text><text fill="#000000" font-family="sans-serif" font-size="13" lengthAdjust="spacing" textLength="183.5234" x="239.0952" y="673.208">markPositionOccupied(position)</text><polygon fill="#181818" points="206.5635,705.7617,196.5635,709.7617,206.5635,713.7617,202.5635,709.7617" style="stroke:#181818;stroke-width:1.0;"/><line style="stroke:#181818;stroke-width:1.0;stroke-dasharray:2.0,2.0;" x1="200.5635" x2="540.356" y1="709.7617" y2="709.7617"/><text fill="#000000" font-family="sans-serif" font-size="13" font-weight="bold" lengthAdjust="spacing" textLength="32.5317" x="212.5635" y="704.499">18.15</text><text fill="#000000" font-family="sans-serif" font-size="13" lengthAdjust="spacing" textLength="46.96" x="249.0952" y="704.499">success</text><line style="stroke:#000000;stroke-width:1.0;stroke-dasharray:2.0,2.0;" x1="89.9121" x2="1035.3989" y1="718.7617" y2="718.7617"/><text fill="#000000" font-family="sans-serif" font-size="11" font-weight="bold" lengthAdjust="spacing" textLength="87.9946" x="94.9121" y="730.6318">[invalid position]</text><line style="stroke:#181818;stroke-width:1.0;" x1="195.5635" x2="237.5635" y1="757.6836" y2="757.6836"/><line style="stroke:#181818;stroke-width:1.0;" x1="237.5635" x2="237.5635" y1="757.6836" y2="770.6836"/><line style="stroke:#181818;stroke-width:1.0;" x1="196.5635" x2="237.5635" y1="770.6836" y2="770.6836"/><polygon fill="#181818" points="206.5635,766.6836,196.5635,770.6836,206.5635,774.6836,202.5635,770.6836" style="stroke:#181818;stroke-width:1.0;"/><text fill="#000000" font-family="sans-serif" font-size="13" font-weight="bold" lengthAdjust="spacing" textLength="32.5317" x="202.5635" y="752.4209">18.16</text><text fill="#000000" font-family="sans-serif" font-size="13" lengthAdjust="spacing" textLength="124.2744" x="239.0952" y="752.4209">requestNewPosition()</text><path d="M384.8062,742.8926 L384.8062,769.8926 L630.8062,769.8926 L630.8062,752.8926 L620.8062,742.8926 L384.8062,742.8926 " fill="#FAFAFA" style="stroke:#181818;stroke-width:0.5;"/><path d="M620.8062,742.8926 L620.8062,752.8926 L630.8062,752.8926 L620.8062,742.8926 " fill="#FAFAFA" style="stroke:#181818;stroke-width:0.5;"/><text fill="#000000" font-family="sans-serif" font-size="13" lengthAdjust="spacing" textLength="225.4688" x="390.8062" y="761.9209">Repeat until a valid position is provided</text><polygon fill="#181818" points="11,818.9746,1,822.9746,11,826.9746,7,822.9746" style="stroke:#181818;stroke-width:1.0;"/><line style="stroke:#181818;stroke-width:1.0;stroke-dasharray:2.0,2.0;" x1="5" x2="189.5635" y1="822.9746" y2="822.9746"/><text fill="#000000" font-family="sans-serif" font-size="13" font-weight="bold" lengthAdjust="spacing" textLength="14.46" x="17" y="817.7119">19</text><text fill="#000000" font-family="sans-serif" font-size="13" lengthAdjust="spacing" textLength="73.709" x="35.46" y="817.7119">houseBlocks</text><!--SRC=[fLNRZjem47ttLupsAKXB9TxQQ8N48bLzwBPL-mL3F1ii73lr1ShVrud93KXWToD1al7CyJbpSUnEg18D5b1efREjqGM1CvwORLTAp7QOqnztb0I6CeSgbtq7kqMk3qBby8hI4aFljFB5XWnZJhWGjR9MvEe5bKVvB7Msiuo5M2SoKQ9oiEByc_QMujfQAsUqb26-xzHv3Co_j1LEQ3Kmlc39UZnWyPdDbwFRf80rmMXFGanycZ7CdDYZet66ZEL6-nAYEAZNJteBKev1k0P4FYrgsnWW19w1FQIGarjxOm98U4zc4QdXKmci39NhV49Qm2bEhfmkej_0HBZZi_QAen5aFy1cqu9CaieCLRQ7JOtmNLYNLdzF7Upo8LGjvhjUlwcbSmqq51rWPGmUQzHb45J7IwrBUDK60gqjr9j3iW2deTSKSBgcDfl8G1c6h7HVjLbhRRXGGMUJq5R-VNKHjcd-rHw5n8savDyZ73kmY-JUMILXMyGsx4gf1dnHEjYZ51pAPYIXTpKLRHRJXdjTn_0oy9uI7tnF5MmWpbGFb9yZLz4tr5_btvD_3dbLPzqyQRT5rwvt2us7IPJQEIKDlSTutexeljmgmjsQpukmdl1BpBTfQQOFEK_gZMRl0uljNw3PDHtmCyjyAOYtoHd9Ihzpxvm5wxECh1tBoJbY-qAXDY3Kn4Yyym0nzDUJTJ_eqFR_KAtIWPSH-TQby9lAq8_WbHCIy6n0mvnNnz5USE8TRnMVgtlr6tn7lx2d-NoAtBQpirwMHh-V_m40]--></g></svg>