<svg xmlns="http://www.w3.org/2000/svg" xmlns:xlink="http://www.w3.org/1999/xlink" contentStyleType="text/css" height="414px" preserveAspectRatio="none" style="width:520px;height:414px;background:#FFFFFF;" version="1.1" viewBox="0 0 520 414" width="520px" zoomAndPan="magnify"><title>System Sequence Diagram: US09 - Buy a Locomotive</title><defs/><g><text fill="#000000" font-family="sans-serif" font-size="14" font-weight="bold" lengthAdjust="spacing" textLength="356.3369" x="80.9983" y="30.1074">System Sequence Diagram: US09 - Buy a Locomotive</text><rect fill="#FFFFFF" height="188.7461" style="stroke:#181818;stroke-width:1.0;" width="10" x="22.8413" y="133.2422"/><rect fill="#FFFFFF" height="31.291" style="stroke:#181818;stroke-width:1.0;" width="10" x="477.0508" y="156.5332"/><rect fill="#FFFFFF" height="31.291" style="stroke:#181818;stroke-width:1.0;" width="10" x="477.0508" y="219.1152"/><rect fill="#FFFFFF" height="31.291" style="stroke:#181818;stroke-width:1.0;" width="10" x="477.0508" y="281.6973"/><line style="stroke:#181818;stroke-width:0.5;stroke-dasharray:5.0,5.0;" x1="27" x2="27" y1="123.2422" y2="330.9883"/><line style="stroke:#181818;stroke-width:0.5;stroke-dasharray:5.0,5.0;" x1="481.7681" x2="481.7681" y1="123.2422" y2="330.9883"/><text fill="#000000" font-family="sans-serif" font-size="14" lengthAdjust="spacing" textLength="39.6826" x="5" y="119.7285">Player</text><ellipse cx="27.8413" cy="53.1211" fill="#E3E3E3" rx="8" ry="8" style="stroke:#181818;stroke-width:0.5;"/><path d="M27.8413,61.1211 L27.8413,88.1211 M14.8413,69.1211 L40.8413,69.1211 M27.8413,88.1211 L14.8413,103.1211 M27.8413,88.1211 L40.8413,103.1211 " fill="none" style="stroke:#181818;stroke-width:0.5;"/><text fill="#000000" font-family="sans-serif" font-size="14" lengthAdjust="spacing" textLength="39.6826" x="5" y="345.0957">Player</text><ellipse cx="27.8413" cy="357.1094" fill="#E3E3E3" rx="8" ry="8" style="stroke:#181818;stroke-width:0.5;"/><path d="M27.8413,365.1094 L27.8413,392.1094 M14.8413,373.1094 L40.8413,373.1094 M27.8413,392.1094 L14.8413,407.1094 M27.8413,392.1094 L40.8413,407.1094 " fill="none" style="stroke:#181818;stroke-width:0.5;"/><rect fill="#E3E3E3" height="32.6211" rx="2.5" ry="2.5" style="stroke:#181818;stroke-width:0.5;" width="64.5654" x="449.7681" y="89.6211"/><text fill="#000000" font-family="sans-serif" font-size="14" lengthAdjust="spacing" textLength="50.5654" x="456.7681" y="111.7285">:System</text><rect fill="#E3E3E3" height="32.6211" rx="2.5" ry="2.5" style="stroke:#181818;stroke-width:0.5;" width="64.5654" x="449.7681" y="329.9883"/><text fill="#000000" font-family="sans-serif" font-size="14" lengthAdjust="spacing" textLength="50.5654" x="456.7681" y="352.0957">:System</text><rect fill="#FFFFFF" height="188.7461" style="stroke:#181818;stroke-width:1.0;" width="10" x="22.8413" y="133.2422"/><rect fill="#FFFFFF" height="31.291" style="stroke:#181818;stroke-width:1.0;" width="10" x="477.0508" y="156.5332"/><rect fill="#FFFFFF" height="31.291" style="stroke:#181818;stroke-width:1.0;" width="10" x="477.0508" y="219.1152"/><rect fill="#FFFFFF" height="31.291" style="stroke:#181818;stroke-width:1.0;" width="10" x="477.0508" y="281.6973"/><polygon fill="#181818" points="465.0508,152.5332,475.0508,156.5332,465.0508,160.5332,469.0508,156.5332" style="stroke:#181818;stroke-width:1.0;"/><line style="stroke:#181818;stroke-width:1.0;" x1="32.8413" x2="471.0508" y1="156.5332" y2="156.5332"/><text fill="#000000" font-family="sans-serif" font-size="13" font-weight="bold" lengthAdjust="spacing" textLength="7.23" x="39.8413" y="151.2705">1</text><text fill="#000000" font-family="sans-serif" font-size="13" lengthAdjust="spacing" textLength="142.3462" x="51.0713" y="151.2705">asks to buy a locomotive</text><polygon fill="#181818" points="43.8413,183.8242,33.8413,187.8242,43.8413,191.8242,39.8413,187.8242" style="stroke:#181818;stroke-width:1.0;"/><line style="stroke:#181818;stroke-width:1.0;stroke-dasharray:2.0,2.0;" x1="37.8413" x2="481.0508" y1="187.8242" y2="187.8242"/><text fill="#000000" font-family="sans-serif" font-size="13" font-weight="bold" lengthAdjust="spacing" textLength="7.23" x="49.8413" y="182.5615">2</text><text fill="#000000" font-family="sans-serif" font-size="13" lengthAdjust="spacing" textLength="408.9795" x="61.0713" y="182.5615">shows a list of available locomotives (for the scenario and current date)</text><polygon fill="#181818" points="465.0508,215.1152,475.0508,219.1152,465.0508,223.1152,469.0508,219.1152" style="stroke:#181818;stroke-width:1.0;"/><line style="stroke:#181818;stroke-width:1.0;" x1="32.8413" x2="471.0508" y1="219.1152" y2="219.1152"/><text fill="#000000" font-family="sans-serif" font-size="13" font-weight="bold" lengthAdjust="spacing" textLength="7.23" x="39.8413" y="213.8525">3</text><text fill="#000000" font-family="sans-serif" font-size="13" lengthAdjust="spacing" textLength="117.0508" x="51.0713" y="213.8525">selects a locomotive</text><polygon fill="#181818" points="43.8413,246.4063,33.8413,250.4063,43.8413,254.4063,39.8413,250.4063" style="stroke:#181818;stroke-width:1.0;"/><line style="stroke:#181818;stroke-width:1.0;stroke-dasharray:2.0,2.0;" x1="37.8413" x2="481.0508" y1="250.4063" y2="250.4063"/><text fill="#000000" font-family="sans-serif" font-size="13" font-weight="bold" lengthAdjust="spacing" textLength="7.23" x="49.8413" y="245.1436">4</text><text fill="#000000" font-family="sans-serif" font-size="13" lengthAdjust="spacing" textLength="296.9814" x="61.0713" y="245.1436">shows locomotive details and requests confirmation</text><polygon fill="#181818" points="465.0508,277.6973,475.0508,281.6973,465.0508,285.6973,469.0508,281.6973" style="stroke:#181818;stroke-width:1.0;"/><line style="stroke:#181818;stroke-width:1.0;" x1="32.8413" x2="471.0508" y1="281.6973" y2="281.6973"/><text fill="#000000" font-family="sans-serif" font-size="13" font-weight="bold" lengthAdjust="spacing" textLength="7.23" x="39.8413" y="276.4346">5</text><text fill="#000000" font-family="sans-serif" font-size="13" lengthAdjust="spacing" textLength="106.209" x="51.0713" y="276.4346">confirms purchase</text><polygon fill="#181818" points="43.8413,308.9883,33.8413,312.9883,43.8413,316.9883,39.8413,312.9883" style="stroke:#181818;stroke-width:1.0;"/><line style="stroke:#181818;stroke-width:1.0;stroke-dasharray:2.0,2.0;" x1="37.8413" x2="481.0508" y1="312.9883" y2="312.9883"/><text fill="#000000" font-family="sans-serif" font-size="13" font-weight="bold" lengthAdjust="spacing" textLength="7.23" x="49.8413" y="307.7256">6</text><text fill="#000000" font-family="sans-serif" font-size="13" lengthAdjust="spacing" textLength="155.3589" x="61.0713" y="307.7256">displays operation success</text><!--SRC=[hP6zRiCm38HtFmMHgHq2TAs73aN73WMCFW0ZqxOGINH5Ae7VllHFaWxjqAAS251tznqaHvz6p1WXSc8tP8u4cWjLShsCw8xOKwDJ8CZa55CVlZwG0Li- -zH3Xq6egh0efn8FbAjAlPgicKGfGaCVXP8ZUF7OcxI6z-RX4VRmN2P0U6N7aTMVPW-dd67t5d2Yl0CKMDVACjKxFs9IsDMhyN9VrqNfJwXq4O3DkiB-wK9Ic-8ee0o79JhSekVtLu-BAMopoVVcj7dMrf_FCdjuKU0Ey8G-uC5gtrm5xZhhemE1E4gOFGEc5bp9cQn9Qs7tIqfBtuP_qq0es6_8lz3V70n0ZLyMl3n_c5Y6uzJv754zfrzYRbA1iMGteFo1iVKosYx08-M50QGuHo8_i7m2]--></g></svg>