<svg xmlns="http://www.w3.org/2000/svg" xmlns:xlink="http://www.w3.org/1999/xlink" contentStyleType="text/css" height="1240px" preserveAspectRatio="none" style="width:1998px;height:1240px;background:#FFFFFF;" version="1.1" viewBox="0 0 1998 1240" width="1998px" zoomAndPan="magnify"><defs/><g><rect fill="#FFFFFF" height="1075.7598" style="stroke:#181818;stroke-width:1.0;" width="10" x="232.5234" y="90.5332"/><rect fill="#FFFFFF" height="31.291" style="stroke:#181818;stroke-width:1.0;" width="10" x="376.3574" y="148.1152"/><rect fill="#FFFFFF" height="31.291" style="stroke:#181818;stroke-width:1.0;" width="10" x="480.1157" y="210.6973"/><rect fill="#FFFFFF" height="31.291" style="stroke:#181818;stroke-width:1.0;" width="10" x="575.3052" y="273.2793"/><rect fill="#FFFFFF" height="437.1523" style="stroke:#181818;stroke-width:1.0;" width="10" x="678.6636" y="335.8613"/><rect fill="#FFFFFF" height="374.5703" style="stroke:#181818;stroke-width:1.0;" width="10" x="952.2651" y="367.1523"/><rect fill="#FFFFFF" height="311.9883" style="stroke:#181818;stroke-width:1.0;" width="10" x="1093.6577" y="398.4434"/><rect fill="#FFFFFF" height="249.4063" style="stroke:#181818;stroke-width:1.0;" width="10" x="1242.2803" y="429.7344"/><rect fill="#FFFFFF" height="30" style="stroke:#181818;stroke-width:1.0;" width="10" x="1397.7646" y="549.5586"/><rect fill="#FFFFFF" height="323.6973" style="stroke:#181818;stroke-width:1.0;" width="10" x="1518.2573" y="804.3047"/><rect fill="#FFFFFF" height="28" style="stroke:#181818;stroke-width:1.0;" width="10" x="1523.2573" y="993.4199"/><rect fill="#FFFFFF" height="30" style="stroke:#181818;stroke-width:1.0;" width="10" x="1769.0244" y="610.8496"/><rect fill="#FFFFFF" height="30" style="stroke:#181818;stroke-width:1.0;" width="10" x="1769.0244" y="924.1289"/><rect fill="#FFFFFF" height="30" style="stroke:#181818;stroke-width:1.0;" width="10" x="1899.6274" y="1059.7109"/><rect fill="none" height="1030.4688" style="stroke:#000000;stroke-width:1.5;" width="1852.7207" x="139.5962" y="105.5332"/><rect fill="none" height="141.873" style="stroke:#000000;stroke-width:1.5;" width="638.9507" x="1197.9873" y="506.9766"/><rect fill="none" height="216.1641" style="stroke:#000000;stroke-width:1.5;" width="526.6387" x="1455.6782" y="881.5469"/><line style="stroke:#181818;stroke-width:0.5;stroke-dasharray:5.0,5.0;" x1="236.5962" x2="236.5962" y1="57.2422" y2="1184.293"/><line style="stroke:#181818;stroke-width:0.5;stroke-dasharray:5.0,5.0;" x1="380.4507" x2="380.4507" y1="57.2422" y2="1184.293"/><line style="stroke:#181818;stroke-width:0.5;stroke-dasharray:5.0,5.0;" x1="484.2642" x2="484.2642" y1="57.2422" y2="1184.293"/><line style="stroke:#181818;stroke-width:0.5;stroke-dasharray:5.0,5.0;" x1="579.9673" x2="579.9673" y1="57.2422" y2="1184.293"/><line style="stroke:#181818;stroke-width:0.5;stroke-dasharray:5.0,5.0;" x1="683.6431" x2="683.6431" y1="57.2422" y2="1184.293"/><line style="stroke:#181818;stroke-width:0.5;stroke-dasharray:5.0,5.0;" x1="957.2031" x2="957.2031" y1="57.2422" y2="1184.293"/><line style="stroke:#181818;stroke-width:0.5;stroke-dasharray:5.0,5.0;" x1="1098.0957" x2="1098.0957" y1="57.2422" y2="1184.293"/><line style="stroke:#181818;stroke-width:0.5;stroke-dasharray:5.0,5.0;" x1="1246.9873" x2="1246.9873" y1="57.2422" y2="1184.293"/><line style="stroke:#181818;stroke-width:0.5;stroke-dasharray:5.0,5.0;" x1="1401.8511" x2="1401.8511" y1="57.2422" y2="1184.293"/><line style="stroke:#181818;stroke-width:0.5;stroke-dasharray:5.0,5.0;" x1="1522.6782" x2="1522.6782" y1="57.2422" y2="1184.293"/><line style="stroke:#181818;stroke-width:0.5;stroke-dasharray:5.0,5.0;" x1="1773.1108" x2="1773.1108" y1="478.8555" y2="1184.293"/><line style="stroke:#181818;stroke-width:0.5;stroke-dasharray:5.0,5.0;" x1="1903.938" x2="1903.938" y1="853.4258" y2="1184.293"/><rect fill="#E3E3E3" height="32.6211" rx="2.5" ry="2.5" style="stroke:#181818;stroke-width:0.5;" width="175.8545" x="149.5962" y="23.6211"/><text fill="#000000" font-family="sans-serif" font-size="14" lengthAdjust="spacing" textLength="161.8545" x="156.5962" y="45.7285">:CreateScenarioController</text><rect fill="#E3E3E3" height="32.6211" rx="2.5" ry="2.5" style="stroke:#181818;stroke-width:0.5;" width="175.8545" x="149.5962" y="1183.293"/><text fill="#000000" font-family="sans-serif" font-size="14" lengthAdjust="spacing" textLength="161.8545" x="156.5962" y="1205.4004">:CreateScenarioController</text><rect fill="#E3E3E3" height="32.6211" rx="2.5" ry="2.5" style="stroke:#181818;stroke-width:0.5;" width="91.8135" x="335.4507" y="23.6211"/><text fill="#000000" font-family="sans-serif" font-size="14" lengthAdjust="spacing" textLength="77.8135" x="342.4507" y="45.7285">Repositories</text><rect fill="#E3E3E3" height="32.6211" rx="2.5" ry="2.5" style="stroke:#181818;stroke-width:0.5;" width="91.8135" x="335.4507" y="1183.293"/><text fill="#000000" font-family="sans-serif" font-size="14" lengthAdjust="spacing" textLength="77.8135" x="342.4507" y="1205.4004">Repositories</text><rect fill="#E3E3E3" height="51.2422" rx="2.5" ry="2.5" style="stroke:#181818;stroke-width:0.5;" width="95.7031" x="437.2642" y="5"/><text fill="#000000" font-family="sans-serif" font-size="14" lengthAdjust="spacing" textLength="72.3652" x="448.9331" y="27.1074">repositories</text><text fill="#000000" font-family="sans-serif" font-size="14" lengthAdjust="spacing" textLength="81.7031" x="444.2642" y="45.7285">:Repositories</text><rect fill="#E3E3E3" height="51.2422" rx="2.5" ry="2.5" style="stroke:#181818;stroke-width:0.5;" width="95.7031" x="437.2642" y="1183.293"/><text fill="#000000" font-family="sans-serif" font-size="14" lengthAdjust="spacing" textLength="72.3652" x="448.9331" y="1205.4004">repositories</text><text fill="#000000" font-family="sans-serif" font-size="14" lengthAdjust="spacing" textLength="81.7031" x="444.2642" y="1224.0215">:Repositories</text><rect fill="#E3E3E3" height="51.2422" rx="2.5" ry="2.5" style="stroke:#181818;stroke-width:0.5;" width="74.6758" x="542.9673" y="5"/><text fill="#000000" font-family="sans-serif" font-size="14" lengthAdjust="spacing" textLength="56.7861" x="551.9121" y="27.1074">mapDTO</text><text fill="#000000" font-family="sans-serif" font-size="14" lengthAdjust="spacing" textLength="60.6758" x="549.9673" y="45.7285">:MapDTO</text><rect fill="#E3E3E3" height="51.2422" rx="2.5" ry="2.5" style="stroke:#181818;stroke-width:0.5;" width="74.6758" x="542.9673" y="1183.293"/><text fill="#000000" font-family="sans-serif" font-size="14" lengthAdjust="spacing" textLength="56.7861" x="551.9121" y="1205.4004">mapDTO</text><text fill="#000000" font-family="sans-serif" font-size="14" lengthAdjust="spacing" textLength="60.6758" x="549.9673" y="1224.0215">:MapDTO</text><rect fill="#E3E3E3" height="51.2422" rx="2.5" ry="2.5" style="stroke:#181818;stroke-width:0.5;" width="112.041" x="627.6431" y="5"/><text fill="#000000" font-family="sans-serif" font-size="14" lengthAdjust="spacing" textLength="94.1514" x="636.5879" y="27.1074">mapRepository</text><text fill="#000000" font-family="sans-serif" font-size="14" lengthAdjust="spacing" textLength="98.041" x="634.6431" y="45.7285">:MapRepository</text><rect fill="#E3E3E3" height="51.2422" rx="2.5" ry="2.5" style="stroke:#181818;stroke-width:0.5;" width="112.041" x="627.6431" y="1183.293"/><text fill="#000000" font-family="sans-serif" font-size="14" lengthAdjust="spacing" textLength="94.1514" x="636.5879" y="1205.4004">mapRepository</text><text fill="#000000" font-family="sans-serif" font-size="14" lengthAdjust="spacing" textLength="98.041" x="634.6431" y="1224.0215">:MapRepository</text><rect fill="#E3E3E3" height="51.2422" rx="2.5" ry="2.5" style="stroke:#181818;stroke-width:0.5;" width="52.124" x="931.2031" y="5"/><text fill="#000000" font-family="sans-serif" font-size="14" lengthAdjust="spacing" textLength="34.2344" x="940.1479" y="27.1074">maps</text><text fill="#000000" font-family="sans-serif" font-size="14" lengthAdjust="spacing" textLength="38.124" x="938.2031" y="45.7285">:Maps</text><rect fill="#E3E3E3" height="51.2422" rx="2.5" ry="2.5" style="stroke:#181818;stroke-width:0.5;" width="52.124" x="931.2031" y="1183.293"/><text fill="#000000" font-family="sans-serif" font-size="14" lengthAdjust="spacing" textLength="34.2344" x="940.1479" y="1205.4004">maps</text><text fill="#000000" font-family="sans-serif" font-size="14" lengthAdjust="spacing" textLength="38.124" x="938.2031" y="1224.0215">:Maps</text><rect fill="#E3E3E3" height="51.2422" rx="2.5" ry="2.5" style="stroke:#181818;stroke-width:0.5;" width="45.124" x="1076.0957" y="5"/><text fill="#000000" font-family="sans-serif" font-size="14" lengthAdjust="spacing" textLength="27.2344" x="1085.0405" y="27.1074">map</text><text fill="#000000" font-family="sans-serif" font-size="14" lengthAdjust="spacing" textLength="31.124" x="1083.0957" y="45.7285">:Map</text><rect fill="#E3E3E3" height="51.2422" rx="2.5" ry="2.5" style="stroke:#181818;stroke-width:0.5;" width="45.124" x="1076.0957" y="1183.293"/><text fill="#000000" font-family="sans-serif" font-size="14" lengthAdjust="spacing" textLength="27.2344" x="1085.0405" y="1205.4004">map</text><text fill="#000000" font-family="sans-serif" font-size="14" lengthAdjust="spacing" textLength="31.124" x="1083.0957" y="1224.0215">:Map</text><rect fill="#E3E3E3" height="51.2422" rx="2.5" ry="2.5" style="stroke:#181818;stroke-width:0.5;" width="78.5859" x="1207.9873" y="5"/><text fill="#000000" font-family="sans-serif" font-size="14" lengthAdjust="spacing" textLength="59.917" x="1217.3218" y="27.1074">industries</text><text fill="#000000" font-family="sans-serif" font-size="14" lengthAdjust="spacing" textLength="64.5859" x="1214.9873" y="45.7285">:Industries</text><rect fill="#E3E3E3" height="51.2422" rx="2.5" ry="2.5" style="stroke:#181818;stroke-width:0.5;" width="78.5859" x="1207.9873" y="1183.293"/><text fill="#000000" font-family="sans-serif" font-size="14" lengthAdjust="spacing" textLength="59.917" x="1217.3218" y="1205.4004">industries</text><text fill="#000000" font-family="sans-serif" font-size="14" lengthAdjust="spacing" textLength="64.5859" x="1214.9873" y="1224.0215">:Industries</text><rect fill="#E3E3E3" height="32.6211" rx="2.5" ry="2.5" style="stroke:#181818;stroke-width:0.5;" width="105.8271" x="1349.8511" y="23.6211"/><text fill="#000000" font-family="sans-serif" font-size="14" lengthAdjust="spacing" textLength="91.8271" x="1356.8511" y="45.7285">:List&lt;Industry&gt;</text><rect fill="#E3E3E3" height="32.6211" rx="2.5" ry="2.5" style="stroke:#181818;stroke-width:0.5;" width="105.8271" x="1349.8511" y="1183.293"/><text fill="#000000" font-family="sans-serif" font-size="14" lengthAdjust="spacing" textLength="91.8271" x="1356.8511" y="1205.4004">:List&lt;Industry&gt;</text><rect fill="#E3E3E3" height="32.6211" rx="2.5" ry="2.5" style="stroke:#181818;stroke-width:0.5;" width="115.1582" x="1465.6782" y="23.6211"/><text fill="#000000" font-family="sans-serif" font-size="14" lengthAdjust="spacing" textLength="101.1582" x="1472.6782" y="45.7285">:IndustryMapper</text><rect fill="#E3E3E3" height="32.6211" rx="2.5" ry="2.5" style="stroke:#181818;stroke-width:0.5;" width="115.1582" x="1465.6782" y="1183.293"/><text fill="#000000" font-family="sans-serif" font-size="14" lengthAdjust="spacing" textLength="101.1582" x="1472.6782" y="1205.4004">:IndustryMapper</text><rect fill="#E3E3E3" height="51.2422" rx="2.5" ry="2.5" style="stroke:#181818;stroke-width:0.5;" width="105.8271" x="1721.1108" y="1183.293"/><text fill="#000000" font-family="sans-serif" font-size="14" lengthAdjust="spacing" textLength="66.9102" x="1740.5693" y="1205.4004">listIndustry</text><text fill="#000000" font-family="sans-serif" font-size="14" lengthAdjust="spacing" textLength="91.8271" x="1728.1108" y="1224.0215">:List&lt;Industry&gt;</text><rect fill="#E3E3E3" height="51.2422" rx="2.5" ry="2.5" style="stroke:#181818;stroke-width:0.5;" width="135.3789" x="1836.938" y="1183.293"/><text fill="#000000" font-family="sans-serif" font-size="14" lengthAdjust="spacing" textLength="96.4619" x="1856.3965" y="1205.4004">listIndustryDTO</text><text fill="#000000" font-family="sans-serif" font-size="14" lengthAdjust="spacing" textLength="121.3789" x="1843.938" y="1224.0215">:List&lt;IndustryDTO&gt;</text><rect fill="#FFFFFF" height="1075.7598" style="stroke:#181818;stroke-width:1.0;" width="10" x="232.5234" y="90.5332"/><rect fill="#FFFFFF" height="31.291" style="stroke:#181818;stroke-width:1.0;" width="10" x="376.3574" y="148.1152"/><rect fill="#FFFFFF" height="31.291" style="stroke:#181818;stroke-width:1.0;" width="10" x="480.1157" y="210.6973"/><rect fill="#FFFFFF" height="31.291" style="stroke:#181818;stroke-width:1.0;" width="10" x="575.3052" y="273.2793"/><rect fill="#FFFFFF" height="437.1523" style="stroke:#181818;stroke-width:1.0;" width="10" x="678.6636" y="335.8613"/><rect fill="#FFFFFF" height="374.5703" style="stroke:#181818;stroke-width:1.0;" width="10" x="952.2651" y="367.1523"/><rect fill="#FFFFFF" height="311.9883" style="stroke:#181818;stroke-width:1.0;" width="10" x="1093.6577" y="398.4434"/><rect fill="#FFFFFF" height="249.4063" style="stroke:#181818;stroke-width:1.0;" width="10" x="1242.2803" y="429.7344"/><rect fill="#FFFFFF" height="30" style="stroke:#181818;stroke-width:1.0;" width="10" x="1397.7646" y="549.5586"/><rect fill="#FFFFFF" height="323.6973" style="stroke:#181818;stroke-width:1.0;" width="10" x="1518.2573" y="804.3047"/><rect fill="#FFFFFF" height="28" style="stroke:#181818;stroke-width:1.0;" width="10" x="1523.2573" y="993.4199"/><rect fill="#FFFFFF" height="30" style="stroke:#181818;stroke-width:1.0;" width="10" x="1769.0244" y="610.8496"/><rect fill="#FFFFFF" height="30" style="stroke:#181818;stroke-width:1.0;" width="10" x="1769.0244" y="924.1289"/><rect fill="#FFFFFF" height="30" style="stroke:#181818;stroke-width:1.0;" width="10" x="1899.6274" y="1059.7109"/><polygon fill="#181818" points="220.5234,86.5332,230.5234,90.5332,220.5234,94.5332,224.5234,90.5332" style="stroke:#181818;stroke-width:1.0;"/><line style="stroke:#181818;stroke-width:1.0;" x1="0" x2="226.5234" y1="90.5332" y2="90.5332"/><text fill="#000000" font-family="sans-serif" font-size="13" font-weight="bold" lengthAdjust="spacing" textLength="14.46" x="7" y="85.2705">15</text><text fill="#000000" font-family="sans-serif" font-size="13" lengthAdjust="spacing" textLength="195.0635" x="25.46" y="85.2705">getListOfMapIndustries(mapDTO)</text><path d="M139.5962,105.5332 L315.3262,105.5332 L315.3262,114.8242 L305.3262,124.8242 L139.5962,124.8242 L139.5962,105.5332 " fill="#EEEEEE" style="stroke:#000000;stroke-width:1.5;"/><rect fill="none" height="1030.4688" style="stroke:#000000;stroke-width:1.5;" width="1852.7207" x="139.5962" y="105.5332"/><text fill="#000000" font-family="sans-serif" font-size="13" font-weight="bold" lengthAdjust="spacing" textLength="130.73" x="154.5962" y="120.5615">Get IndustryDTO List</text><polygon fill="#181818" points="364.3574,144.1152,374.3574,148.1152,364.3574,152.1152,368.3574,148.1152" style="stroke:#181818;stroke-width:1.0;"/><line style="stroke:#181818;stroke-width:1.0;" x1="242.5234" x2="370.3574" y1="148.1152" y2="148.1152"/><text fill="#000000" font-family="sans-serif" font-size="13" font-weight="bold" lengthAdjust="spacing" textLength="25.3018" x="249.5234" y="142.8525">15.1</text><text fill="#000000" font-family="sans-serif" font-size="13" lengthAdjust="spacing" textLength="75.8735" x="278.8252" y="142.8525">getInstance()</text><polygon fill="#181818" points="253.5234,175.4063,243.5234,179.4063,253.5234,183.4063,249.5234,179.4063" style="stroke:#181818;stroke-width:1.0;"/><line style="stroke:#181818;stroke-width:1.0;stroke-dasharray:2.0,2.0;" x1="247.5234" x2="380.3574" y1="179.4063" y2="179.4063"/><text fill="#000000" font-family="sans-serif" font-size="13" font-weight="bold" lengthAdjust="spacing" textLength="25.3018" x="259.5234" y="174.1436">15.2</text><text fill="#000000" font-family="sans-serif" font-size="13" lengthAdjust="spacing" textLength="67.1963" x="288.8252" y="174.1436">repositories</text><polygon fill="#181818" points="468.1157,206.6973,478.1157,210.6973,468.1157,214.6973,472.1157,210.6973" style="stroke:#181818;stroke-width:1.0;"/><line style="stroke:#181818;stroke-width:1.0;" x1="242.5234" x2="474.1157" y1="210.6973" y2="210.6973"/><text fill="#000000" font-family="sans-serif" font-size="13" font-weight="bold" lengthAdjust="spacing" textLength="25.3018" x="249.5234" y="205.4346">15.3</text><text fill="#000000" font-family="sans-serif" font-size="13" lengthAdjust="spacing" textLength="114.1563" x="278.8252" y="205.4346">getMapRepository()</text><polygon fill="#181818" points="253.5234,237.9883,243.5234,241.9883,253.5234,245.9883,249.5234,241.9883" style="stroke:#181818;stroke-width:1.0;"/><line style="stroke:#181818;stroke-width:1.0;stroke-dasharray:2.0,2.0;" x1="247.5234" x2="484.1157" y1="241.9883" y2="241.9883"/><text fill="#000000" font-family="sans-serif" font-size="13" font-weight="bold" lengthAdjust="spacing" textLength="25.3018" x="259.5234" y="236.7256">15.4</text><text fill="#000000" font-family="sans-serif" font-size="13" lengthAdjust="spacing" textLength="87.4263" x="288.8252" y="236.7256">mapRepository</text><polygon fill="#181818" points="563.3052,269.2793,573.3052,273.2793,563.3052,277.2793,567.3052,273.2793" style="stroke:#181818;stroke-width:1.0;"/><line style="stroke:#181818;stroke-width:1.0;" x1="242.5234" x2="569.3052" y1="273.2793" y2="273.2793"/><text fill="#000000" font-family="sans-serif" font-size="13" font-weight="bold" lengthAdjust="spacing" textLength="25.3018" x="249.5234" y="268.0166">15.5</text><text fill="#000000" font-family="sans-serif" font-size="13" lengthAdjust="spacing" textLength="74.4072" x="278.8252" y="268.0166">getNameID()</text><polygon fill="#181818" points="253.5234,300.5703,243.5234,304.5703,253.5234,308.5703,249.5234,304.5703" style="stroke:#181818;stroke-width:1.0;"/><line style="stroke:#181818;stroke-width:1.0;stroke-dasharray:2.0,2.0;" x1="247.5234" x2="579.3052" y1="304.5703" y2="304.5703"/><text fill="#000000" font-family="sans-serif" font-size="13" font-weight="bold" lengthAdjust="spacing" textLength="25.3018" x="259.5234" y="299.3076">15.6</text><text fill="#000000" font-family="sans-serif" font-size="13" lengthAdjust="spacing" textLength="72.9663" x="288.8252" y="299.3076">mapNameID</text><polygon fill="#181818" points="666.6636,331.8613,676.6636,335.8613,666.6636,339.8613,670.6636,335.8613" style="stroke:#181818;stroke-width:1.0;"/><line style="stroke:#181818;stroke-width:1.0;" x1="242.5234" x2="672.6636" y1="335.8613" y2="335.8613"/><text fill="#000000" font-family="sans-serif" font-size="13" font-weight="bold" lengthAdjust="spacing" textLength="25.3018" x="249.5234" y="330.5986">15.7</text><text fill="#000000" font-family="sans-serif" font-size="13" lengthAdjust="spacing" textLength="215.2998" x="278.8252" y="330.5986">getListOfMapIndustries(mapNameID)</text><polygon fill="#181818" points="940.2651,363.1523,950.2651,367.1523,940.2651,371.1523,944.2651,367.1523" style="stroke:#181818;stroke-width:1.0;"/><line style="stroke:#181818;stroke-width:1.0;" x1="688.6636" x2="946.2651" y1="367.1523" y2="367.1523"/><text fill="#000000" font-family="sans-serif" font-size="13" font-weight="bold" lengthAdjust="spacing" textLength="25.3018" x="695.6636" y="361.8896">15.8</text><text fill="#000000" font-family="sans-serif" font-size="13" lengthAdjust="spacing" textLength="215.2998" x="724.9653" y="361.8896">getListOfMapIndustries(mapNameID)</text><polygon fill="#181818" points="1081.6577,394.4434,1091.6577,398.4434,1081.6577,402.4434,1085.6577,398.4434" style="stroke:#181818;stroke-width:1.0;"/><line style="stroke:#181818;stroke-width:1.0;" x1="962.2651" x2="1087.6577" y1="398.4434" y2="398.4434"/><text fill="#000000" font-family="sans-serif" font-size="13" font-weight="bold" lengthAdjust="spacing" textLength="25.3018" x="969.2651" y="393.1807">15.9</text><text fill="#000000" font-family="sans-serif" font-size="13" lengthAdjust="spacing" textLength="83.0908" x="998.5669" y="393.1807">getIndustries()</text><polygon fill="#181818" points="1230.2803,425.7344,1240.2803,429.7344,1230.2803,433.7344,1234.2803,429.7344" style="stroke:#181818;stroke-width:1.0;"/><line style="stroke:#181818;stroke-width:1.0;stroke-dasharray:2.0,2.0;" x1="1103.6577" x2="1236.2803" y1="429.7344" y2="429.7344"/><text fill="#000000" font-family="sans-serif" font-size="13" font-weight="bold" lengthAdjust="spacing" textLength="32.5317" x="1110.6577" y="424.4717">15.10</text><text fill="#000000" font-family="sans-serif" font-size="13" lengthAdjust="spacing" textLength="83.0908" x="1147.1895" y="424.4717">getIndustries()</text><polygon fill="#181818" points="1709.1108,457.0254,1719.1108,461.0254,1709.1108,465.0254,1713.1108,461.0254" style="stroke:#181818;stroke-width:1.0;"/><line style="stroke:#181818;stroke-width:1.0;stroke-dasharray:2.0,2.0;" x1="1252.2803" x2="1715.1108" y1="461.0254" y2="461.0254"/><text fill="#000000" font-family="sans-serif" font-size="13" font-weight="bold" lengthAdjust="spacing" textLength="32.5317" x="1259.2803" y="455.7627">15.11</text><text fill="#000000" font-family="sans-serif" font-size="13" lengthAdjust="spacing" textLength="44.7891" x="1295.812" y="455.7627">create()</text><rect fill="#E3E3E3" height="51.2422" rx="2.5" ry="2.5" style="stroke:#181818;stroke-width:0.5;" width="105.8271" x="1721.1108" y="437.7344"/><text fill="#000000" font-family="sans-serif" font-size="14" lengthAdjust="spacing" textLength="66.9102" x="1740.5693" y="459.8418">listIndustry</text><text fill="#000000" font-family="sans-serif" font-size="14" lengthAdjust="spacing" textLength="91.8271" x="1728.1108" y="478.4629">:List&lt;Industry&gt;</text><path d="M1197.9873,506.9766 L1270.4219,506.9766 L1270.4219,516.2676 L1260.4219,526.2676 L1197.9873,526.2676 L1197.9873,506.9766 " fill="#EEEEEE" style="stroke:#000000;stroke-width:1.5;"/><rect fill="none" height="141.873" style="stroke:#000000;stroke-width:1.5;" width="638.9507" x="1197.9873" y="506.9766"/><text fill="#000000" font-family="sans-serif" font-size="13" font-weight="bold" lengthAdjust="spacing" textLength="27.4346" x="1212.9873" y="522.0049">loop</text><text fill="#000000" font-family="sans-serif" font-size="11" font-weight="bold" lengthAdjust="spacing" textLength="134.4546" x="1285.4219" y="520.8467">[for each known Industry]</text><polygon fill="#181818" points="1385.7646,545.5586,1395.7646,549.5586,1385.7646,553.5586,1389.7646,549.5586" style="stroke:#181818;stroke-width:1.0;"/><line style="stroke:#181818;stroke-width:1.0;stroke-dasharray:2.0,2.0;" x1="1252.2803" x2="1391.7646" y1="549.5586" y2="549.5586"/><text fill="#000000" font-family="sans-serif" font-size="13" font-weight="bold" lengthAdjust="spacing" textLength="32.5317" x="1259.2803" y="544.2959">15.12</text><text fill="#000000" font-family="sans-serif" font-size="13" lengthAdjust="spacing" textLength="89.9526" x="1295.812" y="544.2959">industry = get(i)</text><polygon fill="#181818" points="1757.0244,606.8496,1767.0244,610.8496,1757.0244,614.8496,1761.0244,610.8496" style="stroke:#181818;stroke-width:1.0;"/><line style="stroke:#181818;stroke-width:1.0;stroke-dasharray:2.0,2.0;" x1="1252.2803" x2="1763.0244" y1="610.8496" y2="610.8496"/><text fill="#000000" font-family="sans-serif" font-size="13" font-weight="bold" lengthAdjust="spacing" textLength="32.5317" x="1259.2803" y="605.5869">15.13</text><text fill="#000000" font-family="sans-serif" font-size="13" lengthAdjust="spacing" textLength="75.8672" x="1295.812" y="605.5869">add(industry)</text><polygon fill="#181818" points="1114.6577,675.1406,1104.6577,679.1406,1114.6577,683.1406,1110.6577,679.1406" style="stroke:#181818;stroke-width:1.0;"/><line style="stroke:#181818;stroke-width:1.0;stroke-dasharray:2.0,2.0;" x1="1108.6577" x2="1246.2803" y1="679.1406" y2="679.1406"/><text fill="#000000" font-family="sans-serif" font-size="13" font-weight="bold" lengthAdjust="spacing" textLength="32.5317" x="1120.6577" y="673.8779">15.14</text><text fill="#000000" font-family="sans-serif" font-size="13" lengthAdjust="spacing" textLength="62.1309" x="1157.1895" y="673.8779">listIndustry</text><polygon fill="#181818" points="973.2651,706.4316,963.2651,710.4316,973.2651,714.4316,969.2651,710.4316" style="stroke:#181818;stroke-width:1.0;"/><line style="stroke:#181818;stroke-width:1.0;stroke-dasharray:2.0,2.0;" x1="967.2651" x2="1097.6577" y1="710.4316" y2="710.4316"/><text fill="#000000" font-family="sans-serif" font-size="13" font-weight="bold" lengthAdjust="spacing" textLength="32.5317" x="979.2651" y="705.1689">15.15</text><text fill="#000000" font-family="sans-serif" font-size="13" lengthAdjust="spacing" textLength="62.1309" x="1015.7969" y="705.1689">listIndustry</text><polygon fill="#181818" points="699.6636,737.7227,689.6636,741.7227,699.6636,745.7227,695.6636,741.7227" style="stroke:#181818;stroke-width:1.0;"/><line style="stroke:#181818;stroke-width:1.0;stroke-dasharray:2.0,2.0;" x1="693.6636" x2="956.2651" y1="741.7227" y2="741.7227"/><text fill="#000000" font-family="sans-serif" font-size="13" font-weight="bold" lengthAdjust="spacing" textLength="32.5317" x="705.6636" y="736.46">15.16</text><text fill="#000000" font-family="sans-serif" font-size="13" lengthAdjust="spacing" textLength="62.1309" x="742.1953" y="736.46">listIndustry</text><polygon fill="#181818" points="253.5234,769.0137,243.5234,773.0137,253.5234,777.0137,249.5234,773.0137" style="stroke:#181818;stroke-width:1.0;"/><line style="stroke:#181818;stroke-width:1.0;stroke-dasharray:2.0,2.0;" x1="247.5234" x2="682.6636" y1="773.0137" y2="773.0137"/><text fill="#000000" font-family="sans-serif" font-size="13" font-weight="bold" lengthAdjust="spacing" textLength="32.5317" x="259.5234" y="767.751">15.17</text><text fill="#000000" font-family="sans-serif" font-size="13" lengthAdjust="spacing" textLength="62.1309" x="296.0552" y="767.751">listIndustry</text><polygon fill="#181818" points="1506.2573,800.3047,1516.2573,804.3047,1506.2573,808.3047,1510.2573,804.3047" style="stroke:#181818;stroke-width:1.0;"/><line style="stroke:#181818;stroke-width:1.0;" x1="242.5234" x2="1512.2573" y1="804.3047" y2="804.3047"/><text fill="#000000" font-family="sans-serif" font-size="13" font-weight="bold" lengthAdjust="spacing" textLength="32.5317" x="249.5234" y="799.042">15.18</text><text fill="#000000" font-family="sans-serif" font-size="13" lengthAdjust="spacing" textLength="109.0718" x="286.0552" y="799.042">toDTO(listIndustry)</text><polygon fill="#181818" points="1824.938,831.5957,1834.938,835.5957,1824.938,839.5957,1828.938,835.5957" style="stroke:#181818;stroke-width:1.0;"/><line style="stroke:#181818;stroke-width:1.0;stroke-dasharray:2.0,2.0;" x1="1528.2573" x2="1830.938" y1="835.5957" y2="835.5957"/><text fill="#000000" font-family="sans-serif" font-size="13" font-weight="bold" lengthAdjust="spacing" textLength="32.5317" x="1535.2573" y="830.333">15.19</text><text fill="#000000" font-family="sans-serif" font-size="13" lengthAdjust="spacing" textLength="44.7891" x="1571.7891" y="830.333">create()</text><rect fill="#E3E3E3" height="51.2422" rx="2.5" ry="2.5" style="stroke:#181818;stroke-width:0.5;" width="135.3789" x="1836.938" y="812.3047"/><text fill="#000000" font-family="sans-serif" font-size="14" lengthAdjust="spacing" textLength="96.4619" x="1856.3965" y="834.4121">listIndustryDTO</text><text fill="#000000" font-family="sans-serif" font-size="14" lengthAdjust="spacing" textLength="121.3789" x="1843.938" y="853.0332">:List&lt;IndustryDTO&gt;</text><path d="M1455.6782,881.5469 L1528.1128,881.5469 L1528.1128,890.8379 L1518.1128,900.8379 L1455.6782,900.8379 L1455.6782,881.5469 " fill="#EEEEEE" style="stroke:#000000;stroke-width:1.5;"/><rect fill="none" height="216.1641" style="stroke:#000000;stroke-width:1.5;" width="526.6387" x="1455.6782" y="881.5469"/><text fill="#000000" font-family="sans-serif" font-size="13" font-weight="bold" lengthAdjust="spacing" textLength="27.4346" x="1470.6782" y="896.5752">loop</text><text fill="#000000" font-family="sans-serif" font-size="11" font-weight="bold" lengthAdjust="spacing" textLength="160.7407" x="1543.1128" y="895.417">[for each object in listIndustry]</text><polygon fill="#181818" points="1757.0244,920.1289,1767.0244,924.1289,1757.0244,928.1289,1761.0244,924.1289" style="stroke:#181818;stroke-width:1.0;"/><line style="stroke:#181818;stroke-width:1.0;" x1="1528.2573" x2="1763.0244" y1="924.1289" y2="924.1289"/><text fill="#000000" font-family="sans-serif" font-size="13" font-weight="bold" lengthAdjust="spacing" textLength="32.5317" x="1535.2573" y="918.8662">15.20</text><text fill="#000000" font-family="sans-serif" font-size="13" lengthAdjust="spacing" textLength="89.9526" x="1571.7891" y="918.8662">industry = get(i)</text><line style="stroke:#181818;stroke-width:1.0;" x1="1533.2573" x2="1575.2573" y1="985.4199" y2="985.4199"/><line style="stroke:#181818;stroke-width:1.0;" x1="1575.2573" x2="1575.2573" y1="985.4199" y2="998.4199"/><line style="stroke:#181818;stroke-width:1.0;" x1="1534.2573" x2="1575.2573" y1="998.4199" y2="998.4199"/><polygon fill="#181818" points="1544.2573,994.4199,1534.2573,998.4199,1544.2573,1002.4199,1540.2573,998.4199" style="stroke:#181818;stroke-width:1.0;"/><text fill="#000000" font-family="sans-serif" font-size="13" font-weight="bold" lengthAdjust="spacing" textLength="32.5317" x="1540.2573" y="980.1572">15.21</text><text fill="#000000" font-family="sans-serif" font-size="13" lengthAdjust="spacing" textLength="180.2354" x="1576.7891" y="980.1572">industryDTO = toDTO(industry)</text><polygon fill="#181818" points="1887.6274,1055.7109,1897.6274,1059.7109,1887.6274,1063.7109,1891.6274,1059.7109" style="stroke:#181818;stroke-width:1.0;"/><line style="stroke:#181818;stroke-width:1.0;" x1="1528.2573" x2="1893.6274" y1="1059.7109" y2="1059.7109"/><text fill="#000000" font-family="sans-serif" font-size="13" font-weight="bold" lengthAdjust="spacing" textLength="32.5317" x="1535.2573" y="1054.4482">15.22</text><text fill="#000000" font-family="sans-serif" font-size="13" lengthAdjust="spacing" textLength="103.3081" x="1571.7891" y="1054.4482">add(industryDTO)</text><polygon fill="#181818" points="253.5234,1124.002,243.5234,1128.002,253.5234,1132.002,249.5234,1128.002" style="stroke:#181818;stroke-width:1.0;"/><line style="stroke:#181818;stroke-width:1.0;stroke-dasharray:2.0,2.0;" x1="247.5234" x2="1522.2573" y1="1128.002" y2="1128.002"/><text fill="#000000" font-family="sans-serif" font-size="13" font-weight="bold" lengthAdjust="spacing" textLength="32.5317" x="259.5234" y="1122.7393">15.23</text><text fill="#000000" font-family="sans-serif" font-size="13" lengthAdjust="spacing" textLength="89.5718" x="296.0552" y="1122.7393">listIndustryDTO</text><polygon fill="#181818" points="11,1162.293,1,1166.293,11,1170.293,7,1166.293" style="stroke:#181818;stroke-width:1.0;"/><line style="stroke:#181818;stroke-width:1.0;stroke-dasharray:2.0,2.0;" x1="5" x2="236.5234" y1="1166.293" y2="1166.293"/><text fill="#000000" font-family="sans-serif" font-size="13" font-weight="bold" lengthAdjust="spacing" textLength="14.46" x="17" y="1161.0303">16</text><text fill="#000000" font-family="sans-serif" font-size="13" lengthAdjust="spacing" textLength="89.5718" x="35.46" y="1161.0303">listIndustryDTO</text><!--SRC=[dLPDR-8m4BtdLunwWagirCFk8MehLO2gI1GGuRXIvIO6iWGxSinM_FlrHsBis85eVKhiDszUnc_irCU2L8YX4vmeeTc1qHC6piuugirAXR8ZskEKNqeC36SSaNrf0-e3okbtGVQmGsMDeqXCyo8hAaGuFCHJXX77QOO9OWMTKi8PBKlC7W3LCDrk5Yv-WojQ5voo0jSAifclLwcBOHRcDud38PzfidnVpBUhfHjyGjLikn9X7-f11NoyhJ_5imSqp1UDlxwRC9dBYwirl6vHgOVGW7RTNIv8Vgvvyt69UL7WP3dhaCMBekRF3Upogb2B9DrsK2r0PAsQuWkkJv5yFT-us58Gjd2X8C0l8_qSTfmkiHCgfjneLV88dJabvzCNPl3qCvgyAa_4iCTSHgzsGl2r1YEzU-DEs8-d26My-2kCfYq5OkmPFLVmZZbO2a2IHcfT3Wa6aLCv1bJMXDJ2uXaUZGtAS6ilWZLquCJ8jgrfW3dkC8JpNnshX3X-wrLZsTpJTLsp53gsxfLeqNfYcsvH8fVeX9DPI5tRKxQgPivLeob2IbgAe08fyvPDD6sFCDMraIrBpZJKwV_IfWvbsj0rhZ8auTYeMoXL9Ddk_V4EXpePe3FaP4kaUkxnCOPCdSY2nuENb5Qmemp47XpWIEWtCStZevq4aZo6vkYwm8iKFIh6mI2ZMPqXq3Ci8oZSxVpj1yQ0ydpKwhYJtvnZ0pGOh0V697SdZIYr-_Qn6FMJfs47Q3yEuN1CfFtdj4gGmurFGprXUdK0GTDONiDUhveOE1KzFRB90XrXtKtTqZRppgxBOwBVsgwjwTSVyHSZhDfVrMucsrxtBJxCNeEivOjegrXOTzfBKzD-ruVgEa1KQ0VwQwCl1Rlzr5LzjppUDN6ZH1xMQRwEEtpRsj4tljMGsdyPlzJCysIYNUqJMuJg9oJw1m00]--></g></svg>