<svg xmlns="http://www.w3.org/2000/svg" xmlns:xlink="http://www.w3.org/1999/xlink" contentStyleType="text/css" height="1352px" preserveAspectRatio="none" style="width:2210px;height:1352px;background:#FFFFFF;" version="1.1" viewBox="0 0 2210 1352" width="2210px" zoomAndPan="magnify"><defs/><g><rect fill="#FFFFFF" height="1187.4395" style="stroke:#181818;stroke-width:1.0;" width="10" x="270.0889" y="90.5332"/><rect fill="#FFFFFF" height="31.291" style="stroke:#181818;stroke-width:1.0;" width="10" x="438.9033" y="148.1152"/><rect fill="#FFFFFF" height="31.291" style="stroke:#181818;stroke-width:1.0;" width="10" x="438.9033" y="271.9883"/><rect fill="#FFFFFF" height="905.1113" style="stroke:#181818;stroke-width:1.0;" width="10" x="581.2559" y="334.5703"/><rect fill="#FFFFFF" height="842.5293" style="stroke:#181818;stroke-width:1.0;" width="10" x="892.4229" y="365.8613"/><rect fill="#FFFFFF" height="779.9473" style="stroke:#181818;stroke-width:1.0;" width="10" x="1203.5898" y="397.1523"/><rect fill="#FFFFFF" height="717.3652" style="stroke:#181818;stroke-width:1.0;" width="10" x="1434.5669" y="428.4434"/><rect fill="#FFFFFF" height="130.873" style="stroke:#181818;stroke-width:1.0;" width="10" x="1439.5669" y="976.6445"/><rect fill="#FFFFFF" height="42.291" style="stroke:#181818;stroke-width:1.0;" width="10" x="1444.5669" y="1020.9355"/><rect fill="#FFFFFF" height="477.6191" style="stroke:#181818;stroke-width:1.0;" width="10" x="1695.5366" y="459.7344"/><rect fill="#FFFFFF" height="30" style="stroke:#181818;stroke-width:1.0;" width="10" x="2002.0317" y="210.6973"/><rect fill="#FFFFFF" height="30" style="stroke:#181818;stroke-width:1.0;" width="10" x="2002.0317" y="491.0254"/><rect fill="#FFFFFF" height="30" style="stroke:#181818;stroke-width:1.0;" width="10" x="2002.0317" y="552.3164"/><rect fill="#FFFFFF" height="30" style="stroke:#181818;stroke-width:1.0;" width="10" x="2002.0317" y="613.6074"/><rect fill="#FFFFFF" height="30" style="stroke:#181818;stroke-width:1.0;" width="10" x="2002.0317" y="674.8984"/><rect fill="#FFFFFF" height="30" style="stroke:#181818;stroke-width:1.0;" width="10" x="2002.0317" y="736.1895"/><rect fill="#FFFFFF" height="30" style="stroke:#181818;stroke-width:1.0;" width="10" x="2002.0317" y="797.4805"/><rect fill="#FFFFFF" height="30" style="stroke:#181818;stroke-width:1.0;" width="10" x="2002.0317" y="858.7715"/><rect fill="none" height="1142.1484" style="stroke:#000000;stroke-width:1.5;" width="2027.2798" x="177.1616" y="105.5332"/><line style="stroke:#181818;stroke-width:0.5;stroke-dasharray:5.0,5.0;" x1="274.1616" x2="274.1616" y1="57.2422" y2="1295.9727"/><line style="stroke:#181818;stroke-width:0.5;stroke-dasharray:5.0,5.0;" x1="443.5654" x2="443.5654" y1="57.2422" y2="1295.9727"/><line style="stroke:#181818;stroke-width:0.5;stroke-dasharray:5.0,5.0;" x1="586.2354" x2="586.2354" y1="57.2422" y2="1295.9727"/><line style="stroke:#181818;stroke-width:0.5;stroke-dasharray:5.0,5.0;" x1="897.3608" x2="897.3608" y1="57.2422" y2="1295.9727"/><line style="stroke:#181818;stroke-width:0.5;stroke-dasharray:5.0,5.0;" x1="1208.0278" x2="1208.0278" y1="57.2422" y2="1295.9727"/><line style="stroke:#181818;stroke-width:0.5;stroke-dasharray:5.0,5.0;" x1="1439.5361" x2="1439.5361" y1="57.2422" y2="1295.9727"/><line style="stroke:#181818;stroke-width:0.5;stroke-dasharray:5.0,5.0;" x1="1700.23" x2="1700.23" y1="57.2422" y2="1295.9727"/><line style="stroke:#181818;stroke-width:0.5;stroke-dasharray:5.0,5.0;" x1="2006.6836" x2="2006.6836" y1="57.2422" y2="1295.9727"/><line style="stroke:#181818;stroke-width:0.5;stroke-dasharray:5.0,5.0;" x1="2131.3799" x2="2131.3799" y1="931.0625" y2="1295.9727"/><rect fill="#E3E3E3" height="32.6211" rx="2.5" ry="2.5" style="stroke:#181818;stroke-width:0.5;" width="175.8545" x="187.1616" y="23.6211"/><text fill="#000000" font-family="sans-serif" font-size="14" lengthAdjust="spacing" textLength="161.8545" x="194.1616" y="45.7285">:CreateScenarioController</text><rect fill="#E3E3E3" height="32.6211" rx="2.5" ry="2.5" style="stroke:#181818;stroke-width:0.5;" width="175.8545" x="187.1616" y="1294.9727"/><text fill="#000000" font-family="sans-serif" font-size="14" lengthAdjust="spacing" textLength="161.8545" x="194.1616" y="1317.0801">:CreateScenarioController</text><rect fill="#E3E3E3" height="51.2422" rx="2.5" ry="2.5" style="stroke:#181818;stroke-width:0.5;" width="74.6758" x="406.5654" y="5"/><text fill="#000000" font-family="sans-serif" font-size="14" lengthAdjust="spacing" textLength="56.7861" x="415.5103" y="27.1074">mapDTO</text><text fill="#000000" font-family="sans-serif" font-size="14" lengthAdjust="spacing" textLength="60.6758" x="413.5654" y="45.7285">:MapDTO</text><rect fill="#E3E3E3" height="51.2422" rx="2.5" ry="2.5" style="stroke:#181818;stroke-width:0.5;" width="74.6758" x="406.5654" y="1294.9727"/><text fill="#000000" font-family="sans-serif" font-size="14" lengthAdjust="spacing" textLength="56.7861" x="415.5103" y="1317.0801">mapDTO</text><text fill="#000000" font-family="sans-serif" font-size="14" lengthAdjust="spacing" textLength="60.6758" x="413.5654" y="1335.7012">:MapDTO</text><rect fill="#E3E3E3" height="51.2422" rx="2.5" ry="2.5" style="stroke:#181818;stroke-width:0.5;" width="112.041" x="530.2354" y="5"/><text fill="#000000" font-family="sans-serif" font-size="14" lengthAdjust="spacing" textLength="94.1514" x="539.1802" y="27.1074">mapRepository</text><text fill="#000000" font-family="sans-serif" font-size="14" lengthAdjust="spacing" textLength="98.041" x="537.2354" y="45.7285">:MapRepository</text><rect fill="#E3E3E3" height="51.2422" rx="2.5" ry="2.5" style="stroke:#181818;stroke-width:0.5;" width="112.041" x="530.2354" y="1294.9727"/><text fill="#000000" font-family="sans-serif" font-size="14" lengthAdjust="spacing" textLength="94.1514" x="539.1802" y="1317.0801">mapRepository</text><text fill="#000000" font-family="sans-serif" font-size="14" lengthAdjust="spacing" textLength="98.041" x="537.2354" y="1335.7012">:MapRepository</text><rect fill="#E3E3E3" height="51.2422" rx="2.5" ry="2.5" style="stroke:#181818;stroke-width:0.5;" width="52.124" x="871.3608" y="5"/><text fill="#000000" font-family="sans-serif" font-size="14" lengthAdjust="spacing" textLength="34.2344" x="880.3057" y="27.1074">maps</text><text fill="#000000" font-family="sans-serif" font-size="14" lengthAdjust="spacing" textLength="38.124" x="878.3608" y="45.7285">:Maps</text><rect fill="#E3E3E3" height="51.2422" rx="2.5" ry="2.5" style="stroke:#181818;stroke-width:0.5;" width="52.124" x="871.3608" y="1294.9727"/><text fill="#000000" font-family="sans-serif" font-size="14" lengthAdjust="spacing" textLength="34.2344" x="880.3057" y="1317.0801">maps</text><text fill="#000000" font-family="sans-serif" font-size="14" lengthAdjust="spacing" textLength="38.124" x="878.3608" y="1335.7012">:Maps</text><rect fill="#E3E3E3" height="51.2422" rx="2.5" ry="2.5" style="stroke:#181818;stroke-width:0.5;" width="45.124" x="1186.0278" y="5"/><text fill="#000000" font-family="sans-serif" font-size="14" lengthAdjust="spacing" textLength="27.2344" x="1194.9727" y="27.1074">map</text><text fill="#000000" font-family="sans-serif" font-size="14" lengthAdjust="spacing" textLength="31.124" x="1193.0278" y="45.7285">:Map</text><rect fill="#E3E3E3" height="51.2422" rx="2.5" ry="2.5" style="stroke:#181818;stroke-width:0.5;" width="45.124" x="1186.0278" y="1294.9727"/><text fill="#000000" font-family="sans-serif" font-size="14" lengthAdjust="spacing" textLength="27.2344" x="1194.9727" y="1317.0801">map</text><text fill="#000000" font-family="sans-serif" font-size="14" lengthAdjust="spacing" textLength="31.124" x="1193.0278" y="1335.7012">:Map</text><rect fill="#E3E3E3" height="32.6211" rx="2.5" ry="2.5" style="stroke:#181818;stroke-width:0.5;" width="140.0615" x="1369.5361" y="23.6211"/><text fill="#000000" font-family="sans-serif" font-size="14" lengthAdjust="spacing" textLength="126.0615" x="1376.5361" y="45.7285">scenarios:Scenarios</text><rect fill="#E3E3E3" height="32.6211" rx="2.5" ry="2.5" style="stroke:#181818;stroke-width:0.5;" width="140.0615" x="1369.5361" y="1294.9727"/><text fill="#000000" font-family="sans-serif" font-size="14" lengthAdjust="spacing" textLength="126.0615" x="1376.5361" y="1317.0801">scenarios:Scenarios</text><rect fill="#E3E3E3" height="32.6211" rx="2.5" ry="2.5" style="stroke:#181818;stroke-width:0.5;" width="120.6133" x="1640.23" y="23.6211"/><text fill="#000000" font-family="sans-serif" font-size="14" lengthAdjust="spacing" textLength="106.6133" x="1647.23" y="45.7285">:ScenarioMapper</text><rect fill="#E3E3E3" height="32.6211" rx="2.5" ry="2.5" style="stroke:#181818;stroke-width:0.5;" width="120.6133" x="1640.23" y="1294.9727"/><text fill="#000000" font-family="sans-serif" font-size="14" lengthAdjust="spacing" textLength="106.6133" x="1647.23" y="1317.0801">:ScenarioMapper</text><rect fill="#E3E3E3" height="51.2422" rx="2.5" ry="2.5" style="stroke:#181818;stroke-width:0.5;" width="102.6963" x="1955.6836" y="5"/><text fill="#000000" font-family="sans-serif" font-size="14" lengthAdjust="spacing" textLength="82.4688" x="1965.7974" y="27.1074">scenarioDTO</text><text fill="#000000" font-family="sans-serif" font-size="14" lengthAdjust="spacing" textLength="88.6963" x="1962.6836" y="45.7285">:ScenarioDTO</text><rect fill="#E3E3E3" height="51.2422" rx="2.5" ry="2.5" style="stroke:#181818;stroke-width:0.5;" width="102.6963" x="1955.6836" y="1294.9727"/><text fill="#000000" font-family="sans-serif" font-size="14" lengthAdjust="spacing" textLength="82.4688" x="1965.7974" y="1317.0801">scenarioDTO</text><text fill="#000000" font-family="sans-serif" font-size="14" lengthAdjust="spacing" textLength="88.6963" x="1962.6836" y="1335.7012">:ScenarioDTO</text><rect fill="#E3E3E3" height="32.6211" rx="2.5" ry="2.5" style="stroke:#181818;stroke-width:0.5;" width="126.0615" x="2068.3799" y="1294.9727"/><text fill="#000000" font-family="sans-serif" font-size="14" lengthAdjust="spacing" textLength="112.0615" x="2075.3799" y="1317.0801">scenario:Scenario</text><rect fill="#FFFFFF" height="1187.4395" style="stroke:#181818;stroke-width:1.0;" width="10" x="270.0889" y="90.5332"/><rect fill="#FFFFFF" height="31.291" style="stroke:#181818;stroke-width:1.0;" width="10" x="438.9033" y="148.1152"/><rect fill="#FFFFFF" height="31.291" style="stroke:#181818;stroke-width:1.0;" width="10" x="438.9033" y="271.9883"/><rect fill="#FFFFFF" height="905.1113" style="stroke:#181818;stroke-width:1.0;" width="10" x="581.2559" y="334.5703"/><rect fill="#FFFFFF" height="842.5293" style="stroke:#181818;stroke-width:1.0;" width="10" x="892.4229" y="365.8613"/><rect fill="#FFFFFF" height="779.9473" style="stroke:#181818;stroke-width:1.0;" width="10" x="1203.5898" y="397.1523"/><rect fill="#FFFFFF" height="717.3652" style="stroke:#181818;stroke-width:1.0;" width="10" x="1434.5669" y="428.4434"/><rect fill="#FFFFFF" height="130.873" style="stroke:#181818;stroke-width:1.0;" width="10" x="1439.5669" y="976.6445"/><rect fill="#FFFFFF" height="42.291" style="stroke:#181818;stroke-width:1.0;" width="10" x="1444.5669" y="1020.9355"/><rect fill="#FFFFFF" height="477.6191" style="stroke:#181818;stroke-width:1.0;" width="10" x="1695.5366" y="459.7344"/><rect fill="#FFFFFF" height="30" style="stroke:#181818;stroke-width:1.0;" width="10" x="2002.0317" y="210.6973"/><rect fill="#FFFFFF" height="30" style="stroke:#181818;stroke-width:1.0;" width="10" x="2002.0317" y="491.0254"/><rect fill="#FFFFFF" height="30" style="stroke:#181818;stroke-width:1.0;" width="10" x="2002.0317" y="552.3164"/><rect fill="#FFFFFF" height="30" style="stroke:#181818;stroke-width:1.0;" width="10" x="2002.0317" y="613.6074"/><rect fill="#FFFFFF" height="30" style="stroke:#181818;stroke-width:1.0;" width="10" x="2002.0317" y="674.8984"/><rect fill="#FFFFFF" height="30" style="stroke:#181818;stroke-width:1.0;" width="10" x="2002.0317" y="736.1895"/><rect fill="#FFFFFF" height="30" style="stroke:#181818;stroke-width:1.0;" width="10" x="2002.0317" y="797.4805"/><rect fill="#FFFFFF" height="30" style="stroke:#181818;stroke-width:1.0;" width="10" x="2002.0317" y="858.7715"/><polygon fill="#181818" points="258.0889,86.5332,268.0889,90.5332,258.0889,94.5332,262.0889,90.5332" style="stroke:#181818;stroke-width:1.0;"/><line style="stroke:#181818;stroke-width:1.0;" x1="0" x2="264.0889" y1="90.5332" y2="90.5332"/><text fill="#000000" font-family="sans-serif" font-size="13" font-weight="bold" lengthAdjust="spacing" textLength="14.46" x="7" y="85.2705">22</text><text fill="#000000" font-family="sans-serif" font-size="13" lengthAdjust="spacing" textLength="232.6289" x="25.46" y="85.2705">createScenario(mapDTO, scenarioDTO)</text><path d="M177.1616,105.5332 L365.2188,105.5332 L365.2188,114.8242 L355.2188,124.8242 L177.1616,124.8242 L177.1616,105.5332 " fill="#EEEEEE" style="stroke:#000000;stroke-width:1.5;"/><rect fill="none" height="1142.1484" style="stroke:#000000;stroke-width:1.5;" width="2027.2798" x="177.1616" y="105.5332"/><text fill="#000000" font-family="sans-serif" font-size="13" font-weight="bold" lengthAdjust="spacing" textLength="143.0571" x="192.1616" y="120.5615">Create Scenario Object</text><polygon fill="#181818" points="426.9033,144.1152,436.9033,148.1152,426.9033,152.1152,430.9033,148.1152" style="stroke:#181818;stroke-width:1.0;"/><line style="stroke:#181818;stroke-width:1.0;" x1="280.0889" x2="432.9033" y1="148.1152" y2="148.1152"/><text fill="#000000" font-family="sans-serif" font-size="13" font-weight="bold" lengthAdjust="spacing" textLength="25.3018" x="287.0889" y="142.8525">22.1</text><text fill="#000000" font-family="sans-serif" font-size="13" lengthAdjust="spacing" textLength="110.5127" x="316.3906" y="142.8525">getListOfCityDTO()</text><polygon fill="#181818" points="291.0889,175.4063,281.0889,179.4063,291.0889,183.4063,287.0889,179.4063" style="stroke:#181818;stroke-width:1.0;"/><line style="stroke:#181818;stroke-width:1.0;stroke-dasharray:2.0,2.0;" x1="285.0889" x2="442.9033" y1="179.4063" y2="179.4063"/><text fill="#000000" font-family="sans-serif" font-size="13" font-weight="bold" lengthAdjust="spacing" textLength="25.3018" x="297.0889" y="174.1436">22.2</text><text fill="#000000" font-family="sans-serif" font-size="13" lengthAdjust="spacing" textLength="65.7173" x="326.3906" y="174.1436">listCityDTO</text><polygon fill="#181818" points="1990.0317,206.6973,2000.0317,210.6973,1990.0317,214.6973,1994.0317,210.6973" style="stroke:#181818;stroke-width:1.0;"/><line style="stroke:#181818;stroke-width:1.0;" x1="280.0889" x2="1996.0317" y1="210.6973" y2="210.6973"/><text fill="#000000" font-family="sans-serif" font-size="13" font-weight="bold" lengthAdjust="spacing" textLength="25.3018" x="287.0889" y="205.4346">22.3</text><text fill="#000000" font-family="sans-serif" font-size="13" lengthAdjust="spacing" textLength="128.5718" x="316.3906" y="205.4346">addCities(listCityDTO)</text><polygon fill="#181818" points="426.9033,267.9883,436.9033,271.9883,426.9033,275.9883,430.9033,271.9883" style="stroke:#181818;stroke-width:1.0;"/><line style="stroke:#181818;stroke-width:1.0;" x1="280.0889" x2="432.9033" y1="271.9883" y2="271.9883"/><text fill="#000000" font-family="sans-serif" font-size="13" font-weight="bold" lengthAdjust="spacing" textLength="25.3018" x="287.0889" y="266.7256">22.4</text><text fill="#000000" font-family="sans-serif" font-size="13" lengthAdjust="spacing" textLength="74.4072" x="316.3906" y="266.7256">getNameID()</text><polygon fill="#181818" points="291.0889,299.2793,281.0889,303.2793,291.0889,307.2793,287.0889,303.2793" style="stroke:#181818;stroke-width:1.0;"/><line style="stroke:#181818;stroke-width:1.0;stroke-dasharray:2.0,2.0;" x1="285.0889" x2="442.9033" y1="303.2793" y2="303.2793"/><text fill="#000000" font-family="sans-serif" font-size="13" font-weight="bold" lengthAdjust="spacing" textLength="25.3018" x="297.0889" y="298.0166">22.5</text><text fill="#000000" font-family="sans-serif" font-size="13" lengthAdjust="spacing" textLength="72.9663" x="326.3906" y="298.0166">mapNameID</text><polygon fill="#181818" points="569.2559,330.5703,579.2559,334.5703,569.2559,338.5703,573.2559,334.5703" style="stroke:#181818;stroke-width:1.0;"/><line style="stroke:#181818;stroke-width:1.0;" x1="280.0889" x2="575.2559" y1="334.5703" y2="334.5703"/><text fill="#000000" font-family="sans-serif" font-size="13" font-weight="bold" lengthAdjust="spacing" textLength="25.3018" x="287.0889" y="329.3076">22.6</text><text fill="#000000" font-family="sans-serif" font-size="13" lengthAdjust="spacing" textLength="252.8652" x="316.3906" y="329.3076">createScenario(scenarioDTO, mapNameID)</text><polygon fill="#181818" points="880.4229,361.8613,890.4229,365.8613,880.4229,369.8613,884.4229,365.8613" style="stroke:#181818;stroke-width:1.0;"/><line style="stroke:#181818;stroke-width:1.0;" x1="591.2559" x2="886.4229" y1="365.8613" y2="365.8613"/><text fill="#000000" font-family="sans-serif" font-size="13" font-weight="bold" lengthAdjust="spacing" textLength="25.3018" x="598.2559" y="360.5986">22.7</text><text fill="#000000" font-family="sans-serif" font-size="13" lengthAdjust="spacing" textLength="252.8652" x="627.5576" y="360.5986">createScenario(scenarioDTO, mapNameID)</text><polygon fill="#181818" points="1191.5898,393.1523,1201.5898,397.1523,1191.5898,401.1523,1195.5898,397.1523" style="stroke:#181818;stroke-width:1.0;"/><line style="stroke:#181818;stroke-width:1.0;" x1="902.4229" x2="1197.5898" y1="397.1523" y2="397.1523"/><text fill="#000000" font-family="sans-serif" font-size="13" font-weight="bold" lengthAdjust="spacing" textLength="25.3018" x="909.4229" y="391.8896">22.8</text><text fill="#000000" font-family="sans-serif" font-size="13" lengthAdjust="spacing" textLength="252.8652" x="938.7246" y="391.8896">createScenario(scenarioDTO, mapNameID)</text><polygon fill="#181818" points="1422.5669,424.4434,1432.5669,428.4434,1422.5669,432.4434,1426.5669,428.4434" style="stroke:#181818;stroke-width:1.0;"/><line style="stroke:#181818;stroke-width:1.0;" x1="1213.5898" x2="1428.5669" y1="428.4434" y2="428.4434"/><text fill="#000000" font-family="sans-serif" font-size="13" font-weight="bold" lengthAdjust="spacing" textLength="25.3018" x="1220.5898" y="423.1807">22.9</text><text fill="#000000" font-family="sans-serif" font-size="13" lengthAdjust="spacing" textLength="172.6753" x="1249.8916" y="423.1807">createScenario(scenarioDTO)</text><polygon fill="#181818" points="1683.5366,455.7344,1693.5366,459.7344,1683.5366,463.7344,1687.5366,459.7344" style="stroke:#181818;stroke-width:1.0;"/><line style="stroke:#181818;stroke-width:1.0;" x1="1444.5669" x2="1689.5366" y1="459.7344" y2="459.7344"/><text fill="#000000" font-family="sans-serif" font-size="13" font-weight="bold" lengthAdjust="spacing" textLength="32.5317" x="1451.5669" y="454.4717">22.10</text><text fill="#000000" font-family="sans-serif" font-size="13" lengthAdjust="spacing" textLength="195.438" x="1488.0986" y="454.4717">scenario = toModel(scenarioDTO)</text><polygon fill="#181818" points="1990.0317,487.0254,2000.0317,491.0254,1990.0317,495.0254,1994.0317,491.0254" style="stroke:#181818;stroke-width:1.0;"/><line style="stroke:#181818;stroke-width:1.0;" x1="1705.5366" x2="1996.0317" y1="491.0254" y2="491.0254"/><text fill="#000000" font-family="sans-serif" font-size="13" font-weight="bold" lengthAdjust="spacing" textLength="32.5317" x="1712.5366" y="485.7627">22.11</text><text fill="#000000" font-family="sans-serif" font-size="13" lengthAdjust="spacing" textLength="134.7417" x="1749.0684" y="485.7627">nameID = getNameID()</text><polygon fill="#181818" points="1990.0317,548.3164,2000.0317,552.3164,1990.0317,556.3164,1994.0317,552.3164" style="stroke:#181818;stroke-width:1.0;"/><line style="stroke:#181818;stroke-width:1.0;" x1="1705.5366" x2="1996.0317" y1="552.3164" y2="552.3164"/><text fill="#000000" font-family="sans-serif" font-size="13" font-weight="bold" lengthAdjust="spacing" textLength="32.5317" x="1712.5366" y="547.0537">22.12</text><text fill="#000000" font-family="sans-serif" font-size="13" lengthAdjust="spacing" textLength="149.2017" x="1749.0684" y="547.0537">startDate = getStartDate()</text><polygon fill="#181818" points="1990.0317,609.6074,2000.0317,613.6074,1990.0317,617.6074,1994.0317,613.6074" style="stroke:#181818;stroke-width:1.0;"/><line style="stroke:#181818;stroke-width:1.0;" x1="1705.5366" x2="1996.0317" y1="613.6074" y2="613.6074"/><text fill="#000000" font-family="sans-serif" font-size="13" font-weight="bold" lengthAdjust="spacing" textLength="32.5317" x="1712.5366" y="608.3447">22.13</text><text fill="#000000" font-family="sans-serif" font-size="13" lengthAdjust="spacing" textLength="141.2861" x="1749.0684" y="608.3447">endDate = getEndDate()</text><polygon fill="#181818" points="1990.0317,670.8984,2000.0317,674.8984,1990.0317,678.8984,1994.0317,674.8984" style="stroke:#181818;stroke-width:1.0;"/><line style="stroke:#181818;stroke-width:1.0;" x1="1705.5366" x2="1996.0317" y1="674.8984" y2="674.8984"/><text fill="#000000" font-family="sans-serif" font-size="13" font-weight="bold" lengthAdjust="spacing" textLength="32.5317" x="1712.5366" y="669.6357">22.14</text><text fill="#000000" font-family="sans-serif" font-size="13" lengthAdjust="spacing" textLength="183.9233" x="1749.0684" y="669.6357">initialBudget = getInitialBudget()</text><polygon fill="#181818" points="1990.0317,732.1895,2000.0317,736.1895,1990.0317,740.1895,1994.0317,736.1895" style="stroke:#181818;stroke-width:1.0;"/><line style="stroke:#181818;stroke-width:1.0;" x1="1705.5366" x2="1996.0317" y1="736.1895" y2="736.1895"/><text fill="#000000" font-family="sans-serif" font-size="13" font-weight="bold" lengthAdjust="spacing" textLength="32.5317" x="1712.5366" y="730.9268">22.15</text><text fill="#000000" font-family="sans-serif" font-size="13" lengthAdjust="spacing" textLength="153.5435" x="1749.0684" y="730.9268">industries = getIndustries()</text><polygon fill="#181818" points="1990.0317,793.4805,2000.0317,797.4805,1990.0317,801.4805,1994.0317,797.4805" style="stroke:#181818;stroke-width:1.0;"/><line style="stroke:#181818;stroke-width:1.0;" x1="1705.5366" x2="1996.0317" y1="797.4805" y2="797.4805"/><text fill="#000000" font-family="sans-serif" font-size="13" font-weight="bold" lengthAdjust="spacing" textLength="32.5317" x="1712.5366" y="792.2178">22.16</text><text fill="#000000" font-family="sans-serif" font-size="13" lengthAdjust="spacing" textLength="103.6699" x="1749.0684" y="792.2178">cities = getCities()</text><polygon fill="#181818" points="1990.0317,854.7715,2000.0317,858.7715,1990.0317,862.7715,1994.0317,858.7715" style="stroke:#181818;stroke-width:1.0;"/><line style="stroke:#181818;stroke-width:1.0;" x1="1705.5366" x2="1996.0317" y1="858.7715" y2="858.7715"/><text fill="#000000" font-family="sans-serif" font-size="13" font-weight="bold" lengthAdjust="spacing" textLength="32.5317" x="1712.5366" y="853.5088">22.17</text><text fill="#000000" font-family="sans-serif" font-size="13" lengthAdjust="spacing" textLength="240.9634" x="1749.0684" y="853.5088">locomotiveTypes = getLocomotiveTypes()</text><polygon fill="#181818" points="2056.3799,933.3535,2066.3799,937.3535,2056.3799,941.3535,2060.3799,937.3535" style="stroke:#181818;stroke-width:1.0;"/><line style="stroke:#181818;stroke-width:1.0;" x1="1700.5366" x2="2062.3799" y1="937.3535" y2="937.3535"/><text fill="#000000" font-family="sans-serif" font-size="13" font-weight="bold" lengthAdjust="spacing" textLength="32.5317" x="1707.5366" y="923.4453">22.18</text><text fill="#000000" font-family="sans-serif" font-size="13" lengthAdjust="spacing" textLength="283.9814" x="1744.0684" y="914.7998">create(nameID, startDate, endDate, initialBudget,</text><text fill="#000000" font-family="sans-serif" font-size="13" lengthAdjust="spacing" textLength="201.5698" x="1744.0684" y="932.0908">industries, cities, locomotiveTypes)</text><rect fill="#E3E3E3" height="32.6211" rx="2.5" ry="2.5" style="stroke:#181818;stroke-width:0.5;" width="126.0615" x="2068.3799" y="901.7324"/><text fill="#000000" font-family="sans-serif" font-size="14" lengthAdjust="spacing" textLength="112.0615" x="2075.3799" y="923.8398">scenario:Scenario</text><line style="stroke:#181818;stroke-width:1.0;" x1="1444.5669" x2="1491.5669" y1="963.6445" y2="963.6445"/><line style="stroke:#181818;stroke-width:1.0;" x1="1491.5669" x2="1491.5669" y1="963.6445" y2="976.6445"/><line style="stroke:#181818;stroke-width:1.0;" x1="1450.5669" x2="1491.5669" y1="976.6445" y2="976.6445"/><polygon fill="#181818" points="1460.5669,972.6445,1450.5669,976.6445,1460.5669,980.6445,1456.5669,976.6445" style="stroke:#181818;stroke-width:1.0;"/><text fill="#000000" font-family="sans-serif" font-size="13" font-weight="bold" lengthAdjust="spacing" textLength="32.5317" x="1456.5669" y="958.3818">22.19</text><text fill="#000000" font-family="sans-serif" font-size="13" lengthAdjust="spacing" textLength="130.7935" x="1493.0986" y="958.3818">addScenario(scenario)</text><line style="stroke:#181818;stroke-width:1.0;" x1="1449.5669" x2="1496.5669" y1="1007.9355" y2="1007.9355"/><line style="stroke:#181818;stroke-width:1.0;" x1="1496.5669" x2="1496.5669" y1="1007.9355" y2="1020.9355"/><line style="stroke:#181818;stroke-width:1.0;" x1="1455.5669" x2="1496.5669" y1="1020.9355" y2="1020.9355"/><polygon fill="#181818" points="1465.5669,1016.9355,1455.5669,1020.9355,1465.5669,1024.9355,1461.5669,1020.9355" style="stroke:#181818;stroke-width:1.0;"/><text fill="#000000" font-family="sans-serif" font-size="13" font-weight="bold" lengthAdjust="spacing" textLength="32.5317" x="1461.5669" y="1002.6729">22.20</text><text fill="#000000" font-family="sans-serif" font-size="13" lengthAdjust="spacing" textLength="153.9116" x="1498.0986" y="1002.6729">validateScenario(scenario)</text><line style="stroke:#181818;stroke-width:1.0;stroke-dasharray:2.0,2.0;" x1="1454.5669" x2="1496.5669" y1="1062.2266" y2="1062.2266"/><line style="stroke:#181818;stroke-width:1.0;stroke-dasharray:2.0,2.0;" x1="1496.5669" x2="1496.5669" y1="1062.2266" y2="1075.2266"/><line style="stroke:#181818;stroke-width:1.0;stroke-dasharray:2.0,2.0;" x1="1449.5669" x2="1496.5669" y1="1075.2266" y2="1075.2266"/><polygon fill="#181818" points="1459.5669,1071.2266,1449.5669,1075.2266,1459.5669,1079.2266,1455.5669,1075.2266" style="stroke:#181818;stroke-width:1.0;"/><text fill="#000000" font-family="sans-serif" font-size="13" font-weight="bold" lengthAdjust="spacing" textLength="32.5317" x="1461.5669" y="1056.9639">22.21</text><text fill="#000000" font-family="sans-serif" font-size="13" lengthAdjust="spacing" textLength="22.4009" x="1498.0986" y="1056.9639">true</text><line style="stroke:#181818;stroke-width:1.0;stroke-dasharray:2.0,2.0;" x1="1449.5669" x2="1491.5669" y1="1106.5176" y2="1106.5176"/><line style="stroke:#181818;stroke-width:1.0;stroke-dasharray:2.0,2.0;" x1="1491.5669" x2="1491.5669" y1="1106.5176" y2="1119.5176"/><line style="stroke:#181818;stroke-width:1.0;stroke-dasharray:2.0,2.0;" x1="1444.5669" x2="1491.5669" y1="1119.5176" y2="1119.5176"/><polygon fill="#181818" points="1454.5669,1115.5176,1444.5669,1119.5176,1454.5669,1123.5176,1450.5669,1119.5176" style="stroke:#181818;stroke-width:1.0;"/><text fill="#000000" font-family="sans-serif" font-size="13" font-weight="bold" lengthAdjust="spacing" textLength="32.5317" x="1456.5669" y="1101.2549">22.22</text><text fill="#000000" font-family="sans-serif" font-size="13" lengthAdjust="spacing" textLength="22.4009" x="1493.0986" y="1101.2549">true</text><polygon fill="#181818" points="1224.5898,1141.8086,1214.5898,1145.8086,1224.5898,1149.8086,1220.5898,1145.8086" style="stroke:#181818;stroke-width:1.0;"/><line style="stroke:#181818;stroke-width:1.0;stroke-dasharray:2.0,2.0;" x1="1218.5898" x2="1438.5669" y1="1145.8086" y2="1145.8086"/><text fill="#000000" font-family="sans-serif" font-size="13" font-weight="bold" lengthAdjust="spacing" textLength="32.5317" x="1230.5898" y="1140.5459">22.23</text><text fill="#000000" font-family="sans-serif" font-size="13" lengthAdjust="spacing" textLength="46.96" x="1267.1216" y="1140.5459">success</text><polygon fill="#181818" points="913.4229,1173.0996,903.4229,1177.0996,913.4229,1181.0996,909.4229,1177.0996" style="stroke:#181818;stroke-width:1.0;"/><line style="stroke:#181818;stroke-width:1.0;stroke-dasharray:2.0,2.0;" x1="907.4229" x2="1207.5898" y1="1177.0996" y2="1177.0996"/><text fill="#000000" font-family="sans-serif" font-size="13" font-weight="bold" lengthAdjust="spacing" textLength="32.5317" x="919.4229" y="1171.8369">22.24</text><text fill="#000000" font-family="sans-serif" font-size="13" lengthAdjust="spacing" textLength="46.96" x="955.9546" y="1171.8369">success</text><polygon fill="#181818" points="602.2559,1204.3906,592.2559,1208.3906,602.2559,1212.3906,598.2559,1208.3906" style="stroke:#181818;stroke-width:1.0;"/><line style="stroke:#181818;stroke-width:1.0;stroke-dasharray:2.0,2.0;" x1="596.2559" x2="896.4229" y1="1208.3906" y2="1208.3906"/><text fill="#000000" font-family="sans-serif" font-size="13" font-weight="bold" lengthAdjust="spacing" textLength="32.5317" x="608.2559" y="1203.1279">22.25</text><text fill="#000000" font-family="sans-serif" font-size="13" lengthAdjust="spacing" textLength="46.96" x="644.7876" y="1203.1279">success</text><polygon fill="#181818" points="291.0889,1235.6816,281.0889,1239.6816,291.0889,1243.6816,287.0889,1239.6816" style="stroke:#181818;stroke-width:1.0;"/><line style="stroke:#181818;stroke-width:1.0;stroke-dasharray:2.0,2.0;" x1="285.0889" x2="585.2559" y1="1239.6816" y2="1239.6816"/><text fill="#000000" font-family="sans-serif" font-size="13" font-weight="bold" lengthAdjust="spacing" textLength="32.5317" x="297.0889" y="1234.4189">22.26</text><text fill="#000000" font-family="sans-serif" font-size="13" lengthAdjust="spacing" textLength="46.96" x="333.6206" y="1234.4189">success</text><polygon fill="#181818" points="11,1273.9727,1,1277.9727,11,1281.9727,7,1277.9727" style="stroke:#181818;stroke-width:1.0;"/><line style="stroke:#181818;stroke-width:1.0;stroke-dasharray:2.0,2.0;" x1="5" x2="274.0889" y1="1277.9727" y2="1277.9727"/><text fill="#000000" font-family="sans-serif" font-size="13" font-weight="bold" lengthAdjust="spacing" textLength="14.46" x="17" y="1272.71">23</text><text fill="#000000" font-family="sans-serif" font-size="13" lengthAdjust="spacing" textLength="46.96" x="35.46" y="1272.71">success</text><!--SRC=[lLPDR-CW4BtxLw2UaifPQRitQtUbtII7IaaJXHmhLTIcALiRB8ExohzVp9TDyCTMbUAJWJTltZ3307yZj4GLAa31A4jVArPW8AeQHzojb2XzGoSCnJd7eCAfGFIKTm7y5MNiBw4dy89oZgD8JWkIaX9H0MwIPOMHm33555M4BHaL5SjpNDq0nC7oUDZu-0ALg-FkaIPRzQDGsr_x9_aV00-uP9m8LfqrlXqxiyDw7zfn3USM1GE41jXrVvcRK7XYWz94SFbmGUG0agiq4KlKawJShm_zh3fus8wSLR03riIXBJIA8bGBHklY6LVWxYvQ_5GxdO3KIyPCRtOCEixd5xPVlaOe5UHTckbi0VcTAbQNG6SMM3QmU_uZooDIYEPhu42wDkbBm0cB3U5Yzx8auYndPdE7TJvihjrAyvb9i721v9B7i3XaXeTPh1QpaGb0MIRj2UQp3bMF7hlpNJaTHtPvDEW7LE3xrLYquy7AD6cA3uLgop_8UYVRSSizzqHuzEeG1HgRMUC7Vje73FYXuVuqTS1iwc1Kz02TEkFUKZDZ2qkVwyGT9_032BPb6Sw7gODYCyqX0BLhNXrJ5Rtqr5Td_rNDKnKz8O0BsPDMZQNI0EtmoZ8mpLeHQpsuiWH2PKD1-UywanAqaFlkrDNbP3KNbMnnLeiTNrb8glgi5c5wxdK5v2nb1PF6-7WkhPADFtarIRUtjk_CzDcDsoCKspAE_MAA7scRpTXiQ7mPrtnAu4XhWMrJb3TZq177DmS6go7hEyf9rjTivxt6q_Ij2-T3lLo7iFvUZ4cUvhlaYWQ9r0N6wpJ5d4SVeb4NbRjU-oZyHq3V1Ugz0gOfuD0bxruYqnoTnuAiPVtJVL1-KpFV5mlzJcafEpJgdHdz0m00]--></g></svg>