<svg xmlns="http://www.w3.org/2000/svg" xmlns:xlink="http://www.w3.org/1999/xlink" contentStyleType="text/css" height="1022px" preserveAspectRatio="none" style="width:2004px;height:1022px;background:#FFFFFF;" version="1.1" viewBox="0 0 2004 1022" width="2004px" zoomAndPan="magnify"><defs/><g><rect fill="#FFFFFF" height="857.6738" style="stroke:#181818;stroke-width:1.0;" width="10" x="200.0234" y="90.5332"/><rect fill="#FFFFFF" height="31.291" style="stroke:#181818;stroke-width:1.0;" width="10" x="442.5723" y="148.1152"/><rect fill="#FFFFFF" height="311.9883" style="stroke:#181818;stroke-width:1.0;" width="10" x="594.1855" y="210.6973"/><rect fill="#FFFFFF" height="249.4063" style="stroke:#181818;stroke-width:1.0;" width="10" x="815.0508" y="241.9883"/><rect fill="#FFFFFF" height="30" style="stroke:#181818;stroke-width:1.0;" width="10" x="1020.7466" y="361.8125"/><rect fill="#FFFFFF" height="355.9395" style="stroke:#181818;stroke-width:1.0;" width="10" x="1194.1563" y="553.9766"/><rect fill="#FFFFFF" height="36.291" style="stroke:#181818;stroke-width:1.0;" width="10" x="1199.1563" y="743.0918"/><rect fill="#FFFFFF" height="30" style="stroke:#181818;stroke-width:1.0;" width="10" x="1535.9614" y="423.1035"/><rect fill="#FFFFFF" height="30" style="stroke:#181818;stroke-width:1.0;" width="10" x="1535.9614" y="673.8008"/><rect fill="#FFFFFF" height="30" style="stroke:#181818;stroke-width:1.0;" width="10" x="1719.4814" y="841.625"/><rect fill="none" height="812.3828" style="stroke:#000000;stroke-width:1.5;" width="1891.6914" x="107.0962" y="105.5332"/><rect fill="none" height="141.873" style="stroke:#000000;stroke-width:1.5;" width="936.6064" x="693.7271" y="319.2305"/><rect fill="none" height="248.4063" style="stroke:#000000;stroke-width:1.5;" width="883.6689" x="1105.1187" y="631.2188"/><line style="stroke:#181818;stroke-width:0.5;stroke-dasharray:5.0,5.0;" x1="204.0962" x2="204.0962" y1="57.2422" y2="966.207"/><line style="stroke:#181818;stroke-width:0.5;stroke-dasharray:5.0,5.0;" x1="446.7207" x2="446.7207" y1="57.2422" y2="966.207"/><line style="stroke:#181818;stroke-width:0.5;stroke-dasharray:5.0,5.0;" x1="598.4238" x2="598.4238" y1="57.2422" y2="966.207"/><line style="stroke:#181818;stroke-width:0.5;stroke-dasharray:5.0,5.0;" x1="819.7271" x2="819.7271" y1="57.2422" y2="966.207"/><line style="stroke:#181818;stroke-width:0.5;stroke-dasharray:5.0,5.0;" x1="1025.3745" x2="1025.3745" y1="57.2422" y2="966.207"/><line style="stroke:#181818;stroke-width:0.5;stroke-dasharray:5.0,5.0;" x1="1199.1187" x2="1199.1187" y1="57.2422" y2="966.207"/><line style="stroke:#181818;stroke-width:0.5;stroke-dasharray:5.0,5.0;" x1="1540.5894" x2="1540.5894" y1="291.1094" y2="966.207"/><line style="stroke:#181818;stroke-width:0.5;stroke-dasharray:5.0,5.0;" x1="1724.3335" x2="1724.3335" y1="603.0977" y2="966.207"/><line style="stroke:#181818;stroke-width:0.5;stroke-dasharray:5.0,5.0;" x1="1903.6294" x2="1903.6294" y1="797.2129" y2="966.207"/><rect fill="#E3E3E3" height="32.6211" rx="2.5" ry="2.5" style="stroke:#181818;stroke-width:0.5;" width="175.8545" x="117.0962" y="23.6211"/><text fill="#000000" font-family="sans-serif" font-size="14" lengthAdjust="spacing" textLength="161.8545" x="124.0962" y="45.7285">:CreateScenarioController</text><rect fill="#E3E3E3" height="32.6211" rx="2.5" ry="2.5" style="stroke:#181818;stroke-width:0.5;" width="175.8545" x="117.0962" y="965.207"/><text fill="#000000" font-family="sans-serif" font-size="14" lengthAdjust="spacing" textLength="161.8545" x="124.0962" y="987.3145">:CreateScenarioController</text><rect fill="#E3E3E3" height="51.2422" rx="2.5" ry="2.5" style="stroke:#181818;stroke-width:0.5;" width="95.7031" x="399.7207" y="5"/><text fill="#000000" font-family="sans-serif" font-size="14" lengthAdjust="spacing" textLength="72.3652" x="411.3896" y="27.1074">repositories</text><text fill="#000000" font-family="sans-serif" font-size="14" lengthAdjust="spacing" textLength="81.7031" x="406.7207" y="45.7285">:Repositories</text><rect fill="#E3E3E3" height="51.2422" rx="2.5" ry="2.5" style="stroke:#181818;stroke-width:0.5;" width="95.7031" x="399.7207" y="965.207"/><text fill="#000000" font-family="sans-serif" font-size="14" lengthAdjust="spacing" textLength="72.3652" x="411.3896" y="987.3145">repositories</text><text fill="#000000" font-family="sans-serif" font-size="14" lengthAdjust="spacing" textLength="81.7031" x="406.7207" y="1005.9355">:Repositories</text><rect fill="#E3E3E3" height="51.2422" rx="2.5" ry="2.5" style="stroke:#181818;stroke-width:0.5;" width="187.5234" x="505.4238" y="5"/><text fill="#000000" font-family="sans-serif" font-size="14" lengthAdjust="spacing" textLength="164.958" x="516.7065" y="27.1074">locomotiveTypeRepository</text><text fill="#000000" font-family="sans-serif" font-size="14" lengthAdjust="spacing" textLength="173.5234" x="512.4238" y="45.7285">:LocomotiveTypeRepository</text><rect fill="#E3E3E3" height="51.2422" rx="2.5" ry="2.5" style="stroke:#181818;stroke-width:0.5;" width="187.5234" x="505.4238" y="965.207"/><text fill="#000000" font-family="sans-serif" font-size="14" lengthAdjust="spacing" textLength="164.958" x="516.7065" y="987.3145">locomotiveTypeRepository</text><text fill="#000000" font-family="sans-serif" font-size="14" lengthAdjust="spacing" textLength="173.5234" x="512.4238" y="1005.9355">:LocomotiveTypeRepository</text><rect fill="#E3E3E3" height="32.6211" rx="2.5" ry="2.5" style="stroke:#181818;stroke-width:0.5;" width="232.6475" x="703.7271" y="23.6211"/><text fill="#000000" font-family="sans-serif" font-size="14" lengthAdjust="spacing" textLength="218.6475" x="710.7271" y="45.7285">locomotiveTypes:LocomotiveTypes</text><rect fill="#E3E3E3" height="32.6211" rx="2.5" ry="2.5" style="stroke:#181818;stroke-width:0.5;" width="232.6475" x="703.7271" y="965.207"/><text fill="#000000" font-family="sans-serif" font-size="14" lengthAdjust="spacing" textLength="218.6475" x="710.7271" y="987.3145">locomotiveTypes:LocomotiveTypes</text><rect fill="#E3E3E3" height="32.6211" rx="2.5" ry="2.5" style="stroke:#181818;stroke-width:0.5;" width="158.7441" x="946.3745" y="23.6211"/><text fill="#000000" font-family="sans-serif" font-size="14" lengthAdjust="spacing" textLength="144.7441" x="953.3745" y="45.7285">:List&lt;LocomotiveType&gt;</text><rect fill="#E3E3E3" height="32.6211" rx="2.5" ry="2.5" style="stroke:#181818;stroke-width:0.5;" width="158.7441" x="946.3745" y="965.207"/><text fill="#000000" font-family="sans-serif" font-size="14" lengthAdjust="spacing" textLength="144.7441" x="953.3745" y="987.3145">:List&lt;LocomotiveType&gt;</text><rect fill="#E3E3E3" height="32.6211" rx="2.5" ry="2.5" style="stroke:#181818;stroke-width:0.5;" width="168.0752" x="1115.1187" y="23.6211"/><text fill="#000000" font-family="sans-serif" font-size="14" lengthAdjust="spacing" textLength="154.0752" x="1122.1187" y="45.7285">:LocomotiveTypeMapper</text><rect fill="#E3E3E3" height="32.6211" rx="2.5" ry="2.5" style="stroke:#181818;stroke-width:0.5;" width="168.0752" x="1115.1187" y="965.207"/><text fill="#000000" font-family="sans-serif" font-size="14" lengthAdjust="spacing" textLength="154.0752" x="1122.1187" y="987.3145">:LocomotiveTypeMapper</text><rect fill="#E3E3E3" height="51.2422" rx="2.5" ry="2.5" style="stroke:#181818;stroke-width:0.5;" width="158.7441" x="1461.5894" y="965.207"/><text fill="#000000" font-family="sans-serif" font-size="14" lengthAdjust="spacing" textLength="119.8271" x="1481.0479" y="987.3145">listLocomotiveType</text><text fill="#000000" font-family="sans-serif" font-size="14" lengthAdjust="spacing" textLength="144.7441" x="1468.5894" y="1005.9355">:List&lt;LocomotiveType&gt;</text><rect fill="#E3E3E3" height="51.2422" rx="2.5" ry="2.5" style="stroke:#181818;stroke-width:0.5;" width="188.2959" x="1630.3335" y="965.207"/><text fill="#000000" font-family="sans-serif" font-size="14" lengthAdjust="spacing" textLength="149.3789" x="1649.792" y="987.3145">listLocomotiveTypeDTO</text><text fill="#000000" font-family="sans-serif" font-size="14" lengthAdjust="spacing" textLength="174.2959" x="1637.3335" y="1005.9355">:List&lt;LocomotiveTypeDTO&gt;</text><rect fill="#E3E3E3" height="51.2422" rx="2.5" ry="2.5" style="stroke:#181818;stroke-width:0.5;" width="150.1582" x="1828.6294" y="965.207"/><text fill="#000000" font-family="sans-serif" font-size="14" lengthAdjust="spacing" textLength="127.5928" x="1839.9121" y="987.3145">locomotiveTypeDTO</text><text fill="#000000" font-family="sans-serif" font-size="14" lengthAdjust="spacing" textLength="136.1582" x="1835.6294" y="1005.9355">:LocomotiveTypeDTO</text><rect fill="#FFFFFF" height="857.6738" style="stroke:#181818;stroke-width:1.0;" width="10" x="200.0234" y="90.5332"/><rect fill="#FFFFFF" height="31.291" style="stroke:#181818;stroke-width:1.0;" width="10" x="442.5723" y="148.1152"/><rect fill="#FFFFFF" height="311.9883" style="stroke:#181818;stroke-width:1.0;" width="10" x="594.1855" y="210.6973"/><rect fill="#FFFFFF" height="249.4063" style="stroke:#181818;stroke-width:1.0;" width="10" x="815.0508" y="241.9883"/><rect fill="#FFFFFF" height="30" style="stroke:#181818;stroke-width:1.0;" width="10" x="1020.7466" y="361.8125"/><rect fill="#FFFFFF" height="355.9395" style="stroke:#181818;stroke-width:1.0;" width="10" x="1194.1563" y="553.9766"/><rect fill="#FFFFFF" height="36.291" style="stroke:#181818;stroke-width:1.0;" width="10" x="1199.1563" y="743.0918"/><rect fill="#FFFFFF" height="30" style="stroke:#181818;stroke-width:1.0;" width="10" x="1535.9614" y="423.1035"/><rect fill="#FFFFFF" height="30" style="stroke:#181818;stroke-width:1.0;" width="10" x="1535.9614" y="673.8008"/><rect fill="#FFFFFF" height="30" style="stroke:#181818;stroke-width:1.0;" width="10" x="1719.4814" y="841.625"/><polygon fill="#181818" points="188.0234,86.5332,198.0234,90.5332,188.0234,94.5332,192.0234,90.5332" style="stroke:#181818;stroke-width:1.0;"/><line style="stroke:#181818;stroke-width:1.0;" x1="0" x2="194.0234" y1="90.5332" y2="90.5332"/><text fill="#000000" font-family="sans-serif" font-size="13" font-weight="bold" lengthAdjust="spacing" textLength="14.46" x="7" y="85.2705">10</text><text fill="#000000" font-family="sans-serif" font-size="13" lengthAdjust="spacing" textLength="162.5635" x="25.46" y="85.2705">getListOfLocomotiveTypes()</text><path d="M107.0962,105.5332 L334.8389,105.5332 L334.8389,114.8242 L324.8389,124.8242 L107.0962,124.8242 L107.0962,105.5332 " fill="#EEEEEE" style="stroke:#000000;stroke-width:1.5;"/><rect fill="none" height="812.3828" style="stroke:#000000;stroke-width:1.5;" width="1891.6914" x="107.0962" y="105.5332"/><text fill="#000000" font-family="sans-serif" font-size="13" font-weight="bold" lengthAdjust="spacing" textLength="182.7427" x="122.0962" y="120.5615">Get LocomotiveTypeDTO List</text><polygon fill="#181818" points="430.5723,144.1152,440.5723,148.1152,430.5723,152.1152,434.5723,148.1152" style="stroke:#181818;stroke-width:1.0;"/><line style="stroke:#181818;stroke-width:1.0;" x1="210.0234" x2="436.5723" y1="148.1152" y2="148.1152"/><text fill="#000000" font-family="sans-serif" font-size="13" font-weight="bold" lengthAdjust="spacing" textLength="25.3018" x="217.0234" y="142.8525">10.1</text><text fill="#000000" font-family="sans-serif" font-size="13" lengthAdjust="spacing" textLength="184.2471" x="246.3252" y="142.8525">getLocomotiveTypeRepository()</text><polygon fill="#181818" points="221.0234,175.4063,211.0234,179.4063,221.0234,183.4063,217.0234,179.4063" style="stroke:#181818;stroke-width:1.0;"/><line style="stroke:#181818;stroke-width:1.0;stroke-dasharray:2.0,2.0;" x1="215.0234" x2="446.5723" y1="179.4063" y2="179.4063"/><text fill="#000000" font-family="sans-serif" font-size="13" font-weight="bold" lengthAdjust="spacing" textLength="25.3018" x="227.0234" y="174.1436">10.2</text><text fill="#000000" font-family="sans-serif" font-size="13" lengthAdjust="spacing" textLength="153.1753" x="256.3252" y="174.1436">locomotiveTypeRepository</text><polygon fill="#181818" points="582.1855,206.6973,592.1855,210.6973,582.1855,214.6973,586.1855,210.6973" style="stroke:#181818;stroke-width:1.0;"/><line style="stroke:#181818;stroke-width:1.0;" x1="210.0234" x2="588.1855" y1="210.6973" y2="210.6973"/><text fill="#000000" font-family="sans-serif" font-size="13" font-weight="bold" lengthAdjust="spacing" textLength="25.3018" x="217.0234" y="205.4346">10.3</text><text fill="#000000" font-family="sans-serif" font-size="13" lengthAdjust="spacing" textLength="162.5635" x="246.3252" y="205.4346">getListOfLocomotiveTypes()</text><polygon fill="#181818" points="803.0508,237.9883,813.0508,241.9883,803.0508,245.9883,807.0508,241.9883" style="stroke:#181818;stroke-width:1.0;"/><line style="stroke:#181818;stroke-width:1.0;" x1="604.1855" x2="809.0508" y1="241.9883" y2="241.9883"/><text fill="#000000" font-family="sans-serif" font-size="13" font-weight="bold" lengthAdjust="spacing" textLength="25.3018" x="611.1855" y="236.7256">10.4</text><text fill="#000000" font-family="sans-serif" font-size="13" lengthAdjust="spacing" textLength="162.5635" x="640.4873" y="236.7256">getListOfLocomotiveTypes()</text><polygon fill="#181818" points="1449.5894,269.2793,1459.5894,273.2793,1449.5894,277.2793,1453.5894,273.2793" style="stroke:#181818;stroke-width:1.0;"/><line style="stroke:#181818;stroke-width:1.0;stroke-dasharray:2.0,2.0;" x1="825.0508" x2="1455.5894" y1="273.2793" y2="273.2793"/><text fill="#000000" font-family="sans-serif" font-size="13" font-weight="bold" lengthAdjust="spacing" textLength="25.3018" x="832.0508" y="268.0166">10.5</text><text fill="#000000" font-family="sans-serif" font-size="13" lengthAdjust="spacing" textLength="44.7891" x="861.3525" y="268.0166">create()</text><rect fill="#E3E3E3" height="51.2422" rx="2.5" ry="2.5" style="stroke:#181818;stroke-width:0.5;" width="158.7441" x="1461.5894" y="249.9883"/><text fill="#000000" font-family="sans-serif" font-size="14" lengthAdjust="spacing" textLength="119.8271" x="1481.0479" y="272.0957">listLocomotiveType</text><text fill="#000000" font-family="sans-serif" font-size="14" lengthAdjust="spacing" textLength="144.7441" x="1468.5894" y="290.7168">:List&lt;LocomotiveType&gt;</text><path d="M693.7271,319.2305 L766.1616,319.2305 L766.1616,328.5215 L756.1616,338.5215 L693.7271,338.5215 L693.7271,319.2305 " fill="#EEEEEE" style="stroke:#000000;stroke-width:1.5;"/><rect fill="none" height="141.873" style="stroke:#000000;stroke-width:1.5;" width="936.6064" x="693.7271" y="319.2305"/><text fill="#000000" font-family="sans-serif" font-size="13" font-weight="bold" lengthAdjust="spacing" textLength="27.4346" x="708.7271" y="334.2588">loop</text><text fill="#000000" font-family="sans-serif" font-size="11" font-weight="bold" lengthAdjust="spacing" textLength="178.4653" x="781.1616" y="333.1006">[for each known LocomotiveType]</text><polygon fill="#181818" points="1008.7466,357.8125,1018.7466,361.8125,1008.7466,365.8125,1012.7466,361.8125" style="stroke:#181818;stroke-width:1.0;"/><line style="stroke:#181818;stroke-width:1.0;" x1="825.0508" x2="1014.7466" y1="361.8125" y2="361.8125"/><text fill="#000000" font-family="sans-serif" font-size="13" font-weight="bold" lengthAdjust="spacing" textLength="25.3018" x="832.0508" y="356.5498">10.6</text><text fill="#000000" font-family="sans-serif" font-size="13" lengthAdjust="spacing" textLength="135.4717" x="861.3525" y="356.5498">locomotiveType = get(i)</text><polygon fill="#181818" points="1523.9614,419.1035,1533.9614,423.1035,1523.9614,427.1035,1527.9614,423.1035" style="stroke:#181818;stroke-width:1.0;"/><line style="stroke:#181818;stroke-width:1.0;" x1="825.0508" x2="1529.9614" y1="423.1035" y2="423.1035"/><text fill="#000000" font-family="sans-serif" font-size="13" font-weight="bold" lengthAdjust="spacing" textLength="25.3018" x="832.0508" y="417.8408">10.7</text><text fill="#000000" font-family="sans-serif" font-size="13" lengthAdjust="spacing" textLength="121.3862" x="861.3525" y="417.8408">add(locomotiveType)</text><polygon fill="#181818" points="615.1855,487.3945,605.1855,491.3945,615.1855,495.3945,611.1855,491.3945" style="stroke:#181818;stroke-width:1.0;"/><line style="stroke:#181818;stroke-width:1.0;stroke-dasharray:2.0,2.0;" x1="609.1855" x2="819.0508" y1="491.3945" y2="491.3945"/><text fill="#000000" font-family="sans-serif" font-size="13" font-weight="bold" lengthAdjust="spacing" textLength="25.3018" x="621.1855" y="486.1318">10.8</text><text fill="#000000" font-family="sans-serif" font-size="13" lengthAdjust="spacing" textLength="111.2681" x="650.4873" y="486.1318">listLocomotiveType</text><polygon fill="#181818" points="221.0234,518.6855,211.0234,522.6855,221.0234,526.6855,217.0234,522.6855" style="stroke:#181818;stroke-width:1.0;"/><line style="stroke:#181818;stroke-width:1.0;stroke-dasharray:2.0,2.0;" x1="215.0234" x2="598.1855" y1="522.6855" y2="522.6855"/><text fill="#000000" font-family="sans-serif" font-size="13" font-weight="bold" lengthAdjust="spacing" textLength="25.3018" x="227.0234" y="517.4229">10.9</text><text fill="#000000" font-family="sans-serif" font-size="13" lengthAdjust="spacing" textLength="111.2681" x="256.3252" y="517.4229">listLocomotiveType</text><polygon fill="#181818" points="1182.1563,549.9766,1192.1563,553.9766,1182.1563,557.9766,1186.1563,553.9766" style="stroke:#181818;stroke-width:1.0;"/><line style="stroke:#181818;stroke-width:1.0;" x1="210.0234" x2="1188.1563" y1="553.9766" y2="553.9766"/><text fill="#000000" font-family="sans-serif" font-size="13" font-weight="bold" lengthAdjust="spacing" textLength="32.5317" x="217.0234" y="548.7139">10.10</text><text fill="#000000" font-family="sans-serif" font-size="13" lengthAdjust="spacing" textLength="158.209" x="253.5552" y="548.7139">toDTO(listLocomotiveType)</text><polygon fill="#181818" points="1618.3335,581.2676,1628.3335,585.2676,1618.3335,589.2676,1622.3335,585.2676" style="stroke:#181818;stroke-width:1.0;"/><line style="stroke:#181818;stroke-width:1.0;stroke-dasharray:2.0,2.0;" x1="1204.1563" x2="1624.3335" y1="585.2676" y2="585.2676"/><text fill="#000000" font-family="sans-serif" font-size="13" font-weight="bold" lengthAdjust="spacing" textLength="32.5317" x="1211.1563" y="580.0049">10.11</text><text fill="#000000" font-family="sans-serif" font-size="13" lengthAdjust="spacing" textLength="44.7891" x="1247.688" y="580.0049">create()</text><rect fill="#E3E3E3" height="51.2422" rx="2.5" ry="2.5" style="stroke:#181818;stroke-width:0.5;" width="188.2959" x="1630.3335" y="561.9766"/><text fill="#000000" font-family="sans-serif" font-size="14" lengthAdjust="spacing" textLength="149.3789" x="1649.792" y="584.084">listLocomotiveTypeDTO</text><text fill="#000000" font-family="sans-serif" font-size="14" lengthAdjust="spacing" textLength="174.2959" x="1637.3335" y="602.7051">:List&lt;LocomotiveTypeDTO&gt;</text><path d="M1105.1187,631.2188 L1177.5532,631.2188 L1177.5532,640.5098 L1167.5532,650.5098 L1105.1187,650.5098 L1105.1187,631.2188 " fill="#EEEEEE" style="stroke:#000000;stroke-width:1.5;"/><rect fill="none" height="248.4063" style="stroke:#000000;stroke-width:1.5;" width="883.6689" x="1105.1187" y="631.2188"/><text fill="#000000" font-family="sans-serif" font-size="13" font-weight="bold" lengthAdjust="spacing" textLength="27.4346" x="1120.1187" y="646.2471">loop</text><text fill="#000000" font-family="sans-serif" font-size="11" font-weight="bold" lengthAdjust="spacing" textLength="204.7515" x="1192.5532" y="645.0889">[for each object in listLocomotiveType]</text><polygon fill="#181818" points="1523.9614,669.8008,1533.9614,673.8008,1523.9614,677.8008,1527.9614,673.8008" style="stroke:#181818;stroke-width:1.0;"/><line style="stroke:#181818;stroke-width:1.0;" x1="1204.1563" x2="1529.9614" y1="673.8008" y2="673.8008"/><text fill="#000000" font-family="sans-serif" font-size="13" font-weight="bold" lengthAdjust="spacing" textLength="32.5317" x="1211.1563" y="668.5381">10.12</text><text fill="#000000" font-family="sans-serif" font-size="13" lengthAdjust="spacing" textLength="135.4717" x="1247.688" y="668.5381">locomotiveType = get(i)</text><line style="stroke:#181818;stroke-width:1.0;" x1="1204.1563" x2="1251.1563" y1="730.0918" y2="730.0918"/><line style="stroke:#181818;stroke-width:1.0;" x1="1251.1563" x2="1251.1563" y1="730.0918" y2="743.0918"/><line style="stroke:#181818;stroke-width:1.0;" x1="1210.1563" x2="1251.1563" y1="743.0918" y2="743.0918"/><polygon fill="#181818" points="1220.1563,739.0918,1210.1563,743.0918,1220.1563,747.0918,1216.1563,743.0918" style="stroke:#181818;stroke-width:1.0;"/><text fill="#000000" font-family="sans-serif" font-size="13" font-weight="bold" lengthAdjust="spacing" textLength="32.5317" x="1216.1563" y="724.8291">10.13</text><text fill="#000000" font-family="sans-serif" font-size="13" lengthAdjust="spacing" textLength="271.2734" x="1252.688" y="724.8291">locomotiveTypeDTO = toDTO(locomotiveType)</text><polygon fill="#181818" points="1816.6294,775.3828,1826.6294,779.3828,1816.6294,783.3828,1820.6294,779.3828" style="stroke:#181818;stroke-width:1.0;"/><line style="stroke:#181818;stroke-width:1.0;stroke-dasharray:2.0,2.0;" x1="1204.1563" x2="1822.6294" y1="779.3828" y2="779.3828"/><text fill="#000000" font-family="sans-serif" font-size="13" font-weight="bold" lengthAdjust="spacing" textLength="32.5317" x="1211.1563" y="774.1201">10.14</text><text fill="#000000" font-family="sans-serif" font-size="13" lengthAdjust="spacing" textLength="44.7891" x="1247.688" y="774.1201">create()</text><rect fill="#E3E3E3" height="51.2422" rx="2.5" ry="2.5" style="stroke:#181818;stroke-width:0.5;" width="150.1582" x="1828.6294" y="756.0918"/><text fill="#000000" font-family="sans-serif" font-size="14" lengthAdjust="spacing" textLength="127.5928" x="1839.9121" y="778.1992">locomotiveTypeDTO</text><text fill="#000000" font-family="sans-serif" font-size="14" lengthAdjust="spacing" textLength="136.1582" x="1835.6294" y="796.8203">:LocomotiveTypeDTO</text><polygon fill="#181818" points="1707.4814,837.625,1717.4814,841.625,1707.4814,845.625,1711.4814,841.625" style="stroke:#181818;stroke-width:1.0;"/><line style="stroke:#181818;stroke-width:1.0;" x1="1204.1563" x2="1713.4814" y1="841.625" y2="841.625"/><text fill="#000000" font-family="sans-serif" font-size="13" font-weight="bold" lengthAdjust="spacing" textLength="32.5317" x="1211.1563" y="836.3623">10.15</text><text fill="#000000" font-family="sans-serif" font-size="13" lengthAdjust="spacing" textLength="148.8271" x="1247.688" y="836.3623">add(locomotiveTypeDTO)</text><polygon fill="#181818" points="221.0234,905.916,211.0234,909.916,221.0234,913.916,217.0234,909.916" style="stroke:#181818;stroke-width:1.0;"/><line style="stroke:#181818;stroke-width:1.0;stroke-dasharray:2.0,2.0;" x1="215.0234" x2="1198.1563" y1="909.916" y2="909.916"/><text fill="#000000" font-family="sans-serif" font-size="13" font-weight="bold" lengthAdjust="spacing" textLength="32.5317" x="227.0234" y="904.6533">10.16</text><text fill="#000000" font-family="sans-serif" font-size="13" lengthAdjust="spacing" textLength="138.709" x="263.5552" y="904.6533">listLocomotiveTypeDTO</text><polygon fill="#181818" points="11,944.207,1,948.207,11,952.207,7,948.207" style="stroke:#181818;stroke-width:1.0;"/><line style="stroke:#181818;stroke-width:1.0;stroke-dasharray:2.0,2.0;" x1="5" x2="204.0234" y1="948.207" y2="948.207"/><text fill="#000000" font-family="sans-serif" font-size="13" font-weight="bold" lengthAdjust="spacing" textLength="14.46" x="17" y="942.9443">11</text><text fill="#000000" font-family="sans-serif" font-size="13" lengthAdjust="spacing" textLength="138.709" x="35.46" y="942.9443">listLocomotiveTypeDTO</text><!--SRC=[dLLDQ-Cm4BtxLmmzfOKicwlf1fPiA8Mq3h4l2mj1jPL46qSoijAIVrz9Tbnz-2lrpPgPDszctaZbaT02SNI24wCiFN1smY3u6GTbOobGUaHx78jBZe7ZL22wpqs7ye0oza7e7dOeBt4Go6D1Kb8WAk0kN72C18vJJ14dRC6eu2pFCRy3LC8YsQniVuuBLXB1EC7bFnfkZ5yTiLcketWRFxy-hPP9z6e7vonb9oR8Equk1MvYBn9erM7IeAjeiKt-hfTRXTu7MJeufHKUEwMlI2aUxO1v5V0S9wwlvVQ2Yg9kKSFjvVTwlTmux6G6ErALsfds2kNdzu7-954xbZIqm6tbSL_dQZZtp0PI604w2qRFfpVCOVOpcCwrI4BOOw78H3jd0fDx9-J7B42fD4lLLVe2-UqvEnVmX0Lu54311jfBVIe4P5P7Q1M13X593jVm9hKhL30-nmRJfiek1JVX6UxCuDTWwRgtXHvzUoKQktLifeY_1nyRh4tyMFV4KjZ3GmYflapKoCsWdB42Teo3xCq1ZfHzK6VCbhkJPwxNqMqz_5BrJCYz5_fLWzeYQFcC6McVWUncaI6WB9lOLFeeM1iznANJ6TDir1Wg6VbtHJ2GiMlAjOg-r7ypiYDFJ_ZLfHc2O7BJ9pv-d_Bh2xUTUMNqLQhkiB5APM__vNiAX0uLtfhPKyxj0lw-UcwYTns2zo98ZlLWRXPyFPmsqhqpSiSpjkesCOmPYqhOjjJoUEnazBDuotIy06k_szhJjNucq51NcYJcQppJ9u_JQRMQNJaCRFra1vy0]--></g></svg>