<svg xmlns="http://www.w3.org/2000/svg" xmlns:xlink="http://www.w3.org/1999/xlink" contentStyleType="text/css" height="1279px" preserveAspectRatio="none" style="width:1590px;height:1279px;background:#FFFFFF;" version="1.1" viewBox="0 0 1590 1279" width="1590px" zoomAndPan="magnify"><defs/><g><rect fill="#FFFFFF" height="1084.5156" style="stroke:#181818;stroke-width:1.0;" width="10" x="22.8413" y="93.6211"/><rect fill="#FFFFFF" height="308.9492" style="stroke:#181818;stroke-width:1.0;" width="10" x="364.2783" y="116.9121"/><rect fill="#FFFFFF" height="31.291" style="stroke:#181818;stroke-width:1.0;" width="10" x="364.2783" y="457.1523"/><rect fill="#FFFFFF" height="31.291" style="stroke:#181818;stroke-width:1.0;" width="10" x="364.2783" y="519.7344"/><rect fill="#FFFFFF" height="31.291" style="stroke:#181818;stroke-width:1.0;" width="10" x="364.2783" y="582.3164"/><rect fill="#FFFFFF" height="533.2383" style="stroke:#181818;stroke-width:1.0;" width="10" x="364.2783" y="644.8984"/><rect fill="#FFFFFF" height="202.7461" style="stroke:#181818;stroke-width:1.0;" width="10" x="707.228" y="191.8242"/><rect fill="#FFFFFF" height="401.4922" style="stroke:#181818;stroke-width:1.0;" width="10" x="707.228" y="676.1895"/><rect fill="#FFFFFF" height="126.1641" style="stroke:#181818;stroke-width:1.0;" width="10" x="1128.0762" y="223.1152"/><rect fill="#FFFFFF" height="119.873" style="stroke:#181818;stroke-width:1.0;" width="10" x="1128.0762" y="707.4805"/><rect fill="#FFFFFF" height="42.291" style="stroke:#181818;stroke-width:1.0;" width="10" x="1133.0762" y="746.7715"/><rect fill="#FFFFFF" height="62.582" style="stroke:#181818;stroke-width:1.0;" width="10" x="1128.0762" y="858.6445"/><rect fill="#FFFFFF" height="31.291" style="stroke:#181818;stroke-width:1.0;" width="10" x="1440.644" y="952.5176"/><rect fill="#FFFFFF" height="31.291" style="stroke:#181818;stroke-width:1.0;" width="10" x="1440.644" y="1015.0996"/><rect fill="#FFFFFF" height="31.291" style="stroke:#181818;stroke-width:1.0;" width="10" x="1535.8164" y="254.4063"/><rect fill="#FFFFFF" height="31.291" style="stroke:#181818;stroke-width:1.0;" width="10" x="1535.8164" y="889.9355"/><rect fill="none" height="63.582" style="stroke:#000000;stroke-width:1.5;" width="330.0674" x="1033.9902" y="300.6973"/><line style="stroke:#181818;stroke-width:0.5;stroke-dasharray:5.0,5.0;" x1="27" x2="27" y1="83.6211" y2="1196.1367"/><line style="stroke:#181818;stroke-width:0.5;stroke-dasharray:5.0,5.0;" x1="369.2578" x2="369.2578" y1="83.6211" y2="1196.1367"/><line style="stroke:#181818;stroke-width:0.5;stroke-dasharray:5.0,5.0;" x1="711.8628" x2="711.8628" y1="156.7227" y2="1196.1367"/><line style="stroke:#181818;stroke-width:0.5;stroke-dasharray:5.0,5.0;" x1="1132.9902" x2="1132.9902" y1="83.6211" y2="1196.1367"/><line style="stroke:#181818;stroke-width:0.5;stroke-dasharray:5.0,5.0;" x1="1445.0337" x2="1445.0337" y1="83.6211" y2="1196.1367"/><line style="stroke:#181818;stroke-width:0.5;stroke-dasharray:5.0,5.0;" x1="1540.2544" x2="1540.2544" y1="83.6211" y2="1196.1367"/><text fill="#000000" font-family="sans-serif" font-size="14" lengthAdjust="spacing" textLength="39.6826" x="5" y="80.1074">Player</text><ellipse cx="27.8413" cy="13.5" fill="#E2E2F0" rx="8" ry="8" style="stroke:#181818;stroke-width:0.5;"/><path d="M27.8413,21.5 L27.8413,48.5 M14.8413,29.5 L40.8413,29.5 M27.8413,48.5 L14.8413,63.5 M27.8413,48.5 L40.8413,63.5 " fill="none" style="stroke:#181818;stroke-width:0.5;"/><text fill="#000000" font-family="sans-serif" font-size="14" lengthAdjust="spacing" textLength="39.6826" x="5" y="1210.2441">Player</text><ellipse cx="27.8413" cy="1222.2578" fill="#E2E2F0" rx="8" ry="8" style="stroke:#181818;stroke-width:0.5;"/><path d="M27.8413,1230.2578 L27.8413,1257.2578 M14.8413,1238.2578 L40.8413,1238.2578 M27.8413,1257.2578 L14.8413,1272.2578 M27.8413,1257.2578 L40.8413,1272.2578 " fill="none" style="stroke:#181818;stroke-width:0.5;"/><rect fill="#E2E2F0" height="32.6211" rx="2.5" ry="2.5" style="stroke:#181818;stroke-width:0.5;" width="140.041" x="299.2578" y="50"/><text fill="#000000" font-family="sans-serif" font-size="14" lengthAdjust="spacing" textLength="126.041" x="306.2578" y="72.1074">:TrainConnectivityUI</text><rect fill="#E2E2F0" height="32.6211" rx="2.5" ry="2.5" style="stroke:#181818;stroke-width:0.5;" width="140.041" x="299.2578" y="1195.1367"/><text fill="#000000" font-family="sans-serif" font-size="14" lengthAdjust="spacing" textLength="126.041" x="306.2578" y="1217.2441">:TrainConnectivityUI</text><rect fill="#E2E2F0" height="32.6211" rx="2.5" ry="2.5" style="stroke:#181818;stroke-width:0.5;" width="186.7305" x="618.8628" y="1195.1367"/><text fill="#000000" font-family="sans-serif" font-size="14" lengthAdjust="spacing" textLength="172.7305" x="625.8628" y="1217.2441">:TrainConnectivityController</text><rect fill="#E2E2F0" height="51.2422" rx="2.5" ry="2.5" style="stroke:#181818;stroke-width:0.5;" width="178.1719" x="1043.9902" y="31.3789"/><text fill="#000000" font-family="sans-serif" font-size="14" lengthAdjust="spacing" textLength="49.0205" x="1108.5659" y="53.4863">checker</text><text fill="#000000" font-family="sans-serif" font-size="14" lengthAdjust="spacing" textLength="164.1719" x="1050.9902" y="72.1074">:TrainConnectivityChecker</text><rect fill="#E2E2F0" height="51.2422" rx="2.5" ry="2.5" style="stroke:#181818;stroke-width:0.5;" width="178.1719" x="1043.9902" y="1195.1367"/><text fill="#000000" font-family="sans-serif" font-size="14" lengthAdjust="spacing" textLength="49.0205" x="1108.5659" y="1217.2441">checker</text><text fill="#000000" font-family="sans-serif" font-size="14" lengthAdjust="spacing" textLength="164.1719" x="1050.9902" y="1235.8652">:TrainConnectivityChecker</text><rect fill="#E2E2F0" height="51.2422" rx="2.5" ry="2.5" style="stroke:#181818;stroke-width:0.5;" width="83.2207" x="1404.0337" y="31.3789"/><text fill="#000000" font-family="sans-serif" font-size="14" lengthAdjust="spacing" textLength="65.3311" x="1412.9785" y="53.4863">matrixUtils</text><text fill="#000000" font-family="sans-serif" font-size="14" lengthAdjust="spacing" textLength="69.2207" x="1411.0337" y="72.1074">:MatrixUtils</text><rect fill="#E2E2F0" height="51.2422" rx="2.5" ry="2.5" style="stroke:#181818;stroke-width:0.5;" width="83.2207" x="1404.0337" y="1195.1367"/><text fill="#000000" font-family="sans-serif" font-size="14" lengthAdjust="spacing" textLength="65.3311" x="1412.9785" y="1217.2441">matrixUtils</text><text fill="#000000" font-family="sans-serif" font-size="14" lengthAdjust="spacing" textLength="69.2207" x="1411.0337" y="1235.8652">:MatrixUtils</text><rect fill="#E2E2F0" height="32.6211" rx="2.5" ry="2.5" style="stroke:#181818;stroke-width:0.5;" width="87.124" x="1497.2544" y="50"/><text fill="#000000" font-family="sans-serif" font-size="14" lengthAdjust="spacing" textLength="73.124" x="1504.2544" y="72.1074">:FileSystem</text><rect fill="#E2E2F0" height="32.6211" rx="2.5" ry="2.5" style="stroke:#181818;stroke-width:0.5;" width="87.124" x="1497.2544" y="1195.1367"/><text fill="#000000" font-family="sans-serif" font-size="14" lengthAdjust="spacing" textLength="73.124" x="1504.2544" y="1217.2441">:FileSystem</text><rect fill="#FFFFFF" height="1084.5156" style="stroke:#181818;stroke-width:1.0;" width="10" x="22.8413" y="93.6211"/><rect fill="#FFFFFF" height="308.9492" style="stroke:#181818;stroke-width:1.0;" width="10" x="364.2783" y="116.9121"/><rect fill="#FFFFFF" height="31.291" style="stroke:#181818;stroke-width:1.0;" width="10" x="364.2783" y="457.1523"/><rect fill="#FFFFFF" height="31.291" style="stroke:#181818;stroke-width:1.0;" width="10" x="364.2783" y="519.7344"/><rect fill="#FFFFFF" height="31.291" style="stroke:#181818;stroke-width:1.0;" width="10" x="364.2783" y="582.3164"/><rect fill="#FFFFFF" height="533.2383" style="stroke:#181818;stroke-width:1.0;" width="10" x="364.2783" y="644.8984"/><rect fill="#FFFFFF" height="202.7461" style="stroke:#181818;stroke-width:1.0;" width="10" x="707.228" y="191.8242"/><rect fill="#FFFFFF" height="401.4922" style="stroke:#181818;stroke-width:1.0;" width="10" x="707.228" y="676.1895"/><rect fill="#FFFFFF" height="126.1641" style="stroke:#181818;stroke-width:1.0;" width="10" x="1128.0762" y="223.1152"/><rect fill="#FFFFFF" height="119.873" style="stroke:#181818;stroke-width:1.0;" width="10" x="1128.0762" y="707.4805"/><rect fill="#FFFFFF" height="42.291" style="stroke:#181818;stroke-width:1.0;" width="10" x="1133.0762" y="746.7715"/><rect fill="#FFFFFF" height="62.582" style="stroke:#181818;stroke-width:1.0;" width="10" x="1128.0762" y="858.6445"/><rect fill="#FFFFFF" height="31.291" style="stroke:#181818;stroke-width:1.0;" width="10" x="1440.644" y="952.5176"/><rect fill="#FFFFFF" height="31.291" style="stroke:#181818;stroke-width:1.0;" width="10" x="1440.644" y="1015.0996"/><rect fill="#FFFFFF" height="31.291" style="stroke:#181818;stroke-width:1.0;" width="10" x="1535.8164" y="254.4063"/><rect fill="#FFFFFF" height="31.291" style="stroke:#181818;stroke-width:1.0;" width="10" x="1535.8164" y="889.9355"/><polygon fill="#181818" points="352.2783,112.9121,362.2783,116.9121,352.2783,120.9121,356.2783,116.9121" style="stroke:#181818;stroke-width:1.0;"/><line style="stroke:#181818;stroke-width:1.0;" x1="32.8413" x2="358.2783" y1="116.9121" y2="116.9121"/><text fill="#000000" font-family="sans-serif" font-size="13" font-weight="bold" lengthAdjust="spacing" textLength="7.23" x="39.8413" y="111.6494">1</text><text fill="#000000" font-family="sans-serif" font-size="13" lengthAdjust="spacing" textLength="241.3315" x="51.0713" y="111.6494">asks to verify train travel between stations</text><polygon fill="#181818" points="606.8628,144.2031,616.8628,148.2031,606.8628,152.2031,610.8628,148.2031" style="stroke:#181818;stroke-width:1.0;"/><line style="stroke:#181818;stroke-width:1.0;stroke-dasharray:2.0,2.0;" x1="374.2783" x2="612.8628" y1="148.2031" y2="148.2031"/><text fill="#000000" font-family="sans-serif" font-size="13" font-weight="bold" lengthAdjust="spacing" textLength="7.23" x="381.2783" y="142.9404">2</text><text fill="#000000" font-family="sans-serif" font-size="13" lengthAdjust="spacing" textLength="44.7891" x="392.5083" y="142.9404">create()</text><rect fill="#E2E2F0" height="32.6211" rx="2.5" ry="2.5" style="stroke:#181818;stroke-width:0.5;" width="186.7305" x="618.8628" y="124.9121"/><text fill="#000000" font-family="sans-serif" font-size="14" lengthAdjust="spacing" textLength="172.7305" x="625.8628" y="147.0195">:TrainConnectivityController</text><polygon fill="#181818" points="695.228,187.8242,705.228,191.8242,695.228,195.8242,699.228,191.8242" style="stroke:#181818;stroke-width:1.0;"/><line style="stroke:#181818;stroke-width:1.0;" x1="374.2783" x2="701.228" y1="191.8242" y2="191.8242"/><text fill="#000000" font-family="sans-serif" font-size="13" font-weight="bold" lengthAdjust="spacing" textLength="7.23" x="381.2783" y="186.5615">3</text><text fill="#000000" font-family="sans-serif" font-size="13" lengthAdjust="spacing" textLength="106.209" x="392.5083" y="186.5615">loadRailwayData()</text><polygon fill="#181818" points="1116.0762,219.1152,1126.0762,223.1152,1116.0762,227.1152,1120.0762,223.1152" style="stroke:#181818;stroke-width:1.0;"/><line style="stroke:#181818;stroke-width:1.0;" x1="717.228" x2="1122.0762" y1="223.1152" y2="223.1152"/><text fill="#000000" font-family="sans-serif" font-size="13" font-weight="bold" lengthAdjust="spacing" textLength="7.23" x="724.228" y="217.8525">4</text><text fill="#000000" font-family="sans-serif" font-size="13" lengthAdjust="spacing" textLength="311.9873" x="735.458" y="217.8525">loadCSV("docs/mdisc/us13/data/scenario4_lines.csv")</text><polygon fill="#181818" points="1523.8164,250.4063,1533.8164,254.4063,1523.8164,258.4063,1527.8164,254.4063" style="stroke:#181818;stroke-width:1.0;"/><line style="stroke:#181818;stroke-width:1.0;" x1="1138.0762" x2="1529.8164" y1="254.4063" y2="254.4063"/><text fill="#000000" font-family="sans-serif" font-size="13" font-weight="bold" lengthAdjust="spacing" textLength="7.23" x="1145.0762" y="249.1436">5</text><text fill="#000000" font-family="sans-serif" font-size="13" lengthAdjust="spacing" textLength="76.5908" x="1156.3062" y="249.1436">read CSV file</text><polygon fill="#181818" points="1149.0762,281.6973,1139.0762,285.6973,1149.0762,289.6973,1145.0762,285.6973" style="stroke:#181818;stroke-width:1.0;"/><line style="stroke:#181818;stroke-width:1.0;stroke-dasharray:2.0,2.0;" x1="1143.0762" x2="1539.8164" y1="285.6973" y2="285.6973"/><text fill="#000000" font-family="sans-serif" font-size="13" font-weight="bold" lengthAdjust="spacing" textLength="7.23" x="1155.0762" y="280.4346">6</text><text fill="#000000" font-family="sans-serif" font-size="13" lengthAdjust="spacing" textLength="69.3735" x="1166.3062" y="280.4346">file contents</text><path d="M1033.9902,300.6973 L1106.4248,300.6973 L1106.4248,309.9883 L1096.4248,319.9883 L1033.9902,319.9883 L1033.9902,300.6973 " fill="#EEEEEE" style="stroke:#000000;stroke-width:1.5;"/><rect fill="none" height="63.582" style="stroke:#000000;stroke-width:1.5;" width="330.0674" x="1033.9902" y="300.6973"/><text fill="#000000" font-family="sans-serif" font-size="13" font-weight="bold" lengthAdjust="spacing" textLength="27.4346" x="1048.9902" y="315.7256">loop</text><text fill="#000000" font-family="sans-serif" font-size="11" font-weight="bold" lengthAdjust="spacing" textLength="110.6284" x="1121.4248" y="314.5674">[for each line in CSV]</text><line style="stroke:#181818;stroke-width:1.0;" x1="1138.0762" x2="1180.0762" y1="348.2793" y2="348.2793"/><line style="stroke:#181818;stroke-width:1.0;" x1="1180.0762" x2="1180.0762" y1="348.2793" y2="361.2793"/><line style="stroke:#181818;stroke-width:1.0;" x1="1133.0762" x2="1180.0762" y1="361.2793" y2="361.2793"/><polygon fill="#181818" points="1143.0762,357.2793,1133.0762,361.2793,1143.0762,365.2793,1139.0762,361.2793" style="stroke:#181818;stroke-width:1.0;"/><text fill="#000000" font-family="sans-serif" font-size="13" font-weight="bold" lengthAdjust="spacing" textLength="7.23" x="1145.0762" y="343.0166">7</text><text fill="#000000" font-family="sans-serif" font-size="13" lengthAdjust="spacing" textLength="185.7515" x="1156.3062" y="343.0166">add stations and edges to graph</text><polygon fill="#181818" points="385.2783,390.5703,375.2783,394.5703,385.2783,398.5703,381.2783,394.5703" style="stroke:#181818;stroke-width:1.0;"/><line style="stroke:#181818;stroke-width:1.0;stroke-dasharray:2.0,2.0;" x1="379.2783" x2="711.228" y1="394.5703" y2="394.5703"/><text fill="#000000" font-family="sans-serif" font-size="13" font-weight="bold" lengthAdjust="spacing" textLength="7.23" x="391.2783" y="389.3076">8</text><text fill="#000000" font-family="sans-serif" font-size="13" lengthAdjust="spacing" textLength="67.9517" x="402.5083" y="389.3076">data loaded</text><polygon fill="#181818" points="43.8413,421.8613,33.8413,425.8613,43.8413,429.8613,39.8413,425.8613" style="stroke:#181818;stroke-width:1.0;"/><line style="stroke:#181818;stroke-width:1.0;stroke-dasharray:2.0,2.0;" x1="37.8413" x2="368.2783" y1="425.8613" y2="425.8613"/><text fill="#000000" font-family="sans-serif" font-size="13" font-weight="bold" lengthAdjust="spacing" textLength="7.23" x="49.8413" y="420.5986">9</text><text fill="#000000" font-family="sans-serif" font-size="13" lengthAdjust="spacing" textLength="120.6689" x="61.0713" y="420.5986">requests start station</text><polygon fill="#181818" points="352.2783,453.1523,362.2783,457.1523,352.2783,461.1523,356.2783,457.1523" style="stroke:#181818;stroke-width:1.0;"/><line style="stroke:#181818;stroke-width:1.0;" x1="32.8413" x2="358.2783" y1="457.1523" y2="457.1523"/><text fill="#000000" font-family="sans-serif" font-size="13" font-weight="bold" lengthAdjust="spacing" textLength="14.46" x="39.8413" y="451.8896">10</text><text fill="#000000" font-family="sans-serif" font-size="13" lengthAdjust="spacing" textLength="106.939" x="58.3013" y="451.8896">enters start station</text><polygon fill="#181818" points="43.8413,484.4434,33.8413,488.4434,43.8413,492.4434,39.8413,488.4434" style="stroke:#181818;stroke-width:1.0;"/><line style="stroke:#181818;stroke-width:1.0;stroke-dasharray:2.0,2.0;" x1="37.8413" x2="368.2783" y1="488.4434" y2="488.4434"/><text fill="#000000" font-family="sans-serif" font-size="13" font-weight="bold" lengthAdjust="spacing" textLength="14.46" x="49.8413" y="483.1807">11</text><text fill="#000000" font-family="sans-serif" font-size="13" lengthAdjust="spacing" textLength="117.0762" x="68.3013" y="483.1807">requests end station</text><polygon fill="#181818" points="352.2783,515.7344,362.2783,519.7344,352.2783,523.7344,356.2783,519.7344" style="stroke:#181818;stroke-width:1.0;"/><line style="stroke:#181818;stroke-width:1.0;" x1="32.8413" x2="358.2783" y1="519.7344" y2="519.7344"/><text fill="#000000" font-family="sans-serif" font-size="13" font-weight="bold" lengthAdjust="spacing" textLength="14.46" x="39.8413" y="514.4717">12</text><text fill="#000000" font-family="sans-serif" font-size="13" lengthAdjust="spacing" textLength="103.3462" x="58.3013" y="514.4717">enters end station</text><polygon fill="#181818" points="43.8413,547.0254,33.8413,551.0254,43.8413,555.0254,39.8413,551.0254" style="stroke:#181818;stroke-width:1.0;"/><line style="stroke:#181818;stroke-width:1.0;stroke-dasharray:2.0,2.0;" x1="37.8413" x2="368.2783" y1="551.0254" y2="551.0254"/><text fill="#000000" font-family="sans-serif" font-size="13" font-weight="bold" lengthAdjust="spacing" textLength="14.46" x="49.8413" y="545.7627">13</text><text fill="#000000" font-family="sans-serif" font-size="13" lengthAdjust="spacing" textLength="288.9771" x="68.3013" y="545.7627">requests train type (STEAM, DIESEL, ELECTRIC)</text><polygon fill="#181818" points="352.2783,578.3164,362.2783,582.3164,352.2783,586.3164,356.2783,582.3164" style="stroke:#181818;stroke-width:1.0;"/><line style="stroke:#181818;stroke-width:1.0;" x1="32.8413" x2="358.2783" y1="582.3164" y2="582.3164"/><text fill="#000000" font-family="sans-serif" font-size="13" font-weight="bold" lengthAdjust="spacing" textLength="14.46" x="39.8413" y="577.0537">14</text><text fill="#000000" font-family="sans-serif" font-size="13" lengthAdjust="spacing" textLength="97.5444" x="58.3013" y="577.0537">selects train type</text><polygon fill="#181818" points="43.8413,609.6074,33.8413,613.6074,43.8413,617.6074,39.8413,613.6074" style="stroke:#181818;stroke-width:1.0;"/><line style="stroke:#181818;stroke-width:1.0;stroke-dasharray:2.0,2.0;" x1="37.8413" x2="368.2783" y1="613.6074" y2="613.6074"/><text fill="#000000" font-family="sans-serif" font-size="13" font-weight="bold" lengthAdjust="spacing" textLength="14.46" x="49.8413" y="608.3447">15</text><text fill="#000000" font-family="sans-serif" font-size="13" lengthAdjust="spacing" textLength="263.7451" x="68.3013" y="608.3447">requests station type (depot, station, terminal)</text><polygon fill="#181818" points="352.2783,640.8984,362.2783,644.8984,352.2783,648.8984,356.2783,644.8984" style="stroke:#181818;stroke-width:1.0;"/><line style="stroke:#181818;stroke-width:1.0;" x1="32.8413" x2="358.2783" y1="644.8984" y2="644.8984"/><text fill="#000000" font-family="sans-serif" font-size="13" font-weight="bold" lengthAdjust="spacing" textLength="14.46" x="39.8413" y="639.6357">16</text><text fill="#000000" font-family="sans-serif" font-size="13" lengthAdjust="spacing" textLength="110.5571" x="58.3013" y="639.6357">selects station type</text><polygon fill="#181818" points="695.228,672.1895,705.228,676.1895,695.228,680.1895,699.228,676.1895" style="stroke:#181818;stroke-width:1.0;"/><line style="stroke:#181818;stroke-width:1.0;" x1="374.2783" x2="701.228" y1="676.1895" y2="676.1895"/><text fill="#000000" font-family="sans-serif" font-size="13" font-weight="bold" lengthAdjust="spacing" textLength="14.46" x="381.2783" y="670.9268">17</text><text fill="#000000" font-family="sans-serif" font-size="13" lengthAdjust="spacing" textLength="295.4897" x="399.7383" y="670.9268">verifyTrainTravel(start, end, trainType, stationType)</text><polygon fill="#181818" points="1116.0762,703.4805,1126.0762,707.4805,1116.0762,711.4805,1120.0762,707.4805" style="stroke:#181818;stroke-width:1.0;"/><line style="stroke:#181818;stroke-width:1.0;" x1="717.228" x2="1122.0762" y1="707.4805" y2="707.4805"/><text fill="#000000" font-family="sans-serif" font-size="13" font-weight="bold" lengthAdjust="spacing" textLength="14.46" x="724.228" y="702.2178">18</text><text fill="#000000" font-family="sans-serif" font-size="13" lengthAdjust="spacing" textLength="255.7725" x="742.688" y="702.2178">canTravel(start, end, trainType, stationType)</text><line style="stroke:#181818;stroke-width:1.0;" x1="1138.0762" x2="1185.0762" y1="733.7715" y2="733.7715"/><line style="stroke:#181818;stroke-width:1.0;" x1="1185.0762" x2="1185.0762" y1="733.7715" y2="746.7715"/><line style="stroke:#181818;stroke-width:1.0;" x1="1144.0762" x2="1185.0762" y1="746.7715" y2="746.7715"/><polygon fill="#181818" points="1154.0762,742.7715,1144.0762,746.7715,1154.0762,750.7715,1150.0762,746.7715" style="stroke:#181818;stroke-width:1.0;"/><text fill="#000000" font-family="sans-serif" font-size="13" font-weight="bold" lengthAdjust="spacing" textLength="14.46" x="1150.0762" y="728.5088">19</text><text fill="#000000" font-family="sans-serif" font-size="13" lengthAdjust="spacing" textLength="260.1079" x="1168.5361" y="728.5088">dfs(start, end, trainType, stationType, visited)</text><line style="stroke:#181818;stroke-width:1.0;stroke-dasharray:2.0,2.0;" x1="1143.0762" x2="1185.0762" y1="788.0625" y2="788.0625"/><line style="stroke:#181818;stroke-width:1.0;stroke-dasharray:2.0,2.0;" x1="1185.0762" x2="1185.0762" y1="788.0625" y2="801.0625"/><line style="stroke:#181818;stroke-width:1.0;stroke-dasharray:2.0,2.0;" x1="1138.0762" x2="1185.0762" y1="801.0625" y2="801.0625"/><polygon fill="#181818" points="1148.0762,797.0625,1138.0762,801.0625,1148.0762,805.0625,1144.0762,801.0625" style="stroke:#181818;stroke-width:1.0;"/><text fill="#000000" font-family="sans-serif" font-size="13" font-weight="bold" lengthAdjust="spacing" textLength="14.46" x="1150.0762" y="782.7998">20</text><text fill="#000000" font-family="sans-serif" font-size="13" lengthAdjust="spacing" textLength="59.9727" x="1168.5361" y="782.7998">pathExists</text><polygon fill="#181818" points="728.228,823.3535,718.228,827.3535,728.228,831.3535,724.228,827.3535" style="stroke:#181818;stroke-width:1.0;"/><line style="stroke:#181818;stroke-width:1.0;stroke-dasharray:2.0,2.0;" x1="722.228" x2="1132.0762" y1="827.3535" y2="827.3535"/><text fill="#000000" font-family="sans-serif" font-size="13" font-weight="bold" lengthAdjust="spacing" textLength="14.46" x="734.228" y="822.0908">21</text><text fill="#000000" font-family="sans-serif" font-size="13" lengthAdjust="spacing" textLength="31.7891" x="752.688" y="822.0908">result</text><polygon fill="#181818" points="1116.0762,854.6445,1126.0762,858.6445,1116.0762,862.6445,1120.0762,858.6445" style="stroke:#181818;stroke-width:1.0;"/><line style="stroke:#181818;stroke-width:1.0;" x1="717.228" x2="1122.0762" y1="858.6445" y2="858.6445"/><text fill="#000000" font-family="sans-serif" font-size="13" font-weight="bold" lengthAdjust="spacing" textLength="14.46" x="724.228" y="853.3818">22</text><text fill="#000000" font-family="sans-serif" font-size="13" lengthAdjust="spacing" textLength="373.3882" x="742.688" y="853.3818">exportToDOT("docs/mdisc/us13/graphstream/dot/scenario4.dot")</text><polygon fill="#181818" points="1523.8164,885.9355,1533.8164,889.9355,1523.8164,893.9355,1527.8164,889.9355" style="stroke:#181818;stroke-width:1.0;"/><line style="stroke:#181818;stroke-width:1.0;" x1="1138.0762" x2="1529.8164" y1="889.9355" y2="889.9355"/><text fill="#000000" font-family="sans-serif" font-size="13" font-weight="bold" lengthAdjust="spacing" textLength="14.46" x="1145.0762" y="884.6729">23</text><text fill="#000000" font-family="sans-serif" font-size="13" lengthAdjust="spacing" textLength="78.73" x="1163.5361" y="884.6729">write DOT file</text><polygon fill="#181818" points="1144.0762,917.2266,1134.0762,921.2266,1144.0762,925.2266,1140.0762,921.2266" style="stroke:#181818;stroke-width:1.0;"/><line style="stroke:#181818;stroke-width:1.0;stroke-dasharray:2.0,2.0;" x1="1138.0762" x2="1539.8164" y1="921.2266" y2="921.2266"/><text fill="#000000" font-family="sans-serif" font-size="13" font-weight="bold" lengthAdjust="spacing" textLength="14.46" x="1150.0762" y="915.9639">24</text><text fill="#000000" font-family="sans-serif" font-size="13" lengthAdjust="spacing" textLength="58.519" x="1168.5361" y="915.9639">file written</text><polygon fill="#181818" points="1428.644,948.5176,1438.644,952.5176,1428.644,956.5176,1432.644,952.5176" style="stroke:#181818;stroke-width:1.0;"/><line style="stroke:#181818;stroke-width:1.0;" x1="717.228" x2="1434.644" y1="952.5176" y2="952.5176"/><text fill="#000000" font-family="sans-serif" font-size="13" font-weight="bold" lengthAdjust="spacing" textLength="14.46" x="724.228" y="947.2549">25</text><text fill="#000000" font-family="sans-serif" font-size="13" lengthAdjust="spacing" textLength="283.9434" x="742.688" y="947.2549">computeWalksMatrix(length, graph, stationOrder)</text><polygon fill="#181818" points="728.228,979.8086,718.228,983.8086,728.228,987.8086,724.228,983.8086" style="stroke:#181818;stroke-width:1.0;"/><line style="stroke:#181818;stroke-width:1.0;stroke-dasharray:2.0,2.0;" x1="722.228" x2="1444.644" y1="983.8086" y2="983.8086"/><text fill="#000000" font-family="sans-serif" font-size="13" font-weight="bold" lengthAdjust="spacing" textLength="14.46" x="734.228" y="978.5459">26</text><text fill="#000000" font-family="sans-serif" font-size="13" lengthAdjust="spacing" textLength="71.5063" x="752.688" y="978.5459">walks matrix</text><polygon fill="#181818" points="1428.644,1011.0996,1438.644,1015.0996,1428.644,1019.0996,1432.644,1015.0996" style="stroke:#181818;stroke-width:1.0;"/><line style="stroke:#181818;stroke-width:1.0;" x1="717.228" x2="1434.644" y1="1015.0996" y2="1015.0996"/><text fill="#000000" font-family="sans-serif" font-size="13" font-weight="bold" lengthAdjust="spacing" textLength="14.46" x="724.228" y="1009.8369">27</text><text fill="#000000" font-family="sans-serif" font-size="13" lengthAdjust="spacing" textLength="271.667" x="742.688" y="1009.8369">computeTransitiveClosure(graph, stationOrder)</text><polygon fill="#181818" points="728.228,1042.3906,718.228,1046.3906,728.228,1050.3906,724.228,1046.3906" style="stroke:#181818;stroke-width:1.0;"/><line style="stroke:#181818;stroke-width:1.0;stroke-dasharray:2.0,2.0;" x1="722.228" x2="1444.644" y1="1046.3906" y2="1046.3906"/><text fill="#000000" font-family="sans-serif" font-size="13" font-weight="bold" lengthAdjust="spacing" textLength="14.46" x="734.228" y="1041.1279">28</text><text fill="#000000" font-family="sans-serif" font-size="13" lengthAdjust="spacing" textLength="80.9072" x="752.688" y="1041.1279">closure matrix</text><polygon fill="#181818" points="385.2783,1073.6816,375.2783,1077.6816,385.2783,1081.6816,381.2783,1077.6816" style="stroke:#181818;stroke-width:1.0;"/><line style="stroke:#181818;stroke-width:1.0;stroke-dasharray:2.0,2.0;" x1="379.2783" x2="711.228" y1="1077.6816" y2="1077.6816"/><text fill="#000000" font-family="sans-serif" font-size="13" font-weight="bold" lengthAdjust="spacing" textLength="14.46" x="391.2783" y="1072.4189">29</text><text fill="#000000" font-family="sans-serif" font-size="13" lengthAdjust="spacing" textLength="104.0381" x="409.7383" y="1072.4189">verification results</text><polygon fill="#181818" points="38.8413,1174.1367,28.8413,1178.1367,38.8413,1182.1367,34.8413,1178.1367" style="stroke:#181818;stroke-width:1.0;"/><line style="stroke:#181818;stroke-width:1.0;stroke-dasharray:2.0,2.0;" x1="32.8413" x2="368.2783" y1="1178.1367" y2="1178.1367"/><text fill="#000000" font-family="sans-serif" font-size="13" font-weight="bold" lengthAdjust="spacing" textLength="14.46" x="44.8413" y="1138.292">30</text><text fill="#000000" font-family="sans-serif" font-size="13" lengthAdjust="spacing" textLength="50.5781" x="63.3013" y="1103.71">displays:</text><text fill="#000000" font-family="sans-serif" font-size="13" lengthAdjust="spacing" textLength="204.4897" x="63.3013" y="1121.001">- if train can travel between stations</text><text fill="#000000" font-family="sans-serif" font-size="13" lengthAdjust="spacing" textLength="127.8862" x="63.3013" y="1138.292">- network visualization</text><text fill="#000000" font-family="sans-serif" font-size="13" lengthAdjust="spacing" textLength="108.3608" x="63.3013" y="1155.583">- walk count matrix</text><text fill="#000000" font-family="sans-serif" font-size="13" lengthAdjust="spacing" textLength="144.479" x="63.3013" y="1172.874">- transitive closure matrix</text><!--SRC=[jLPRRzem57xFhpZYfJ11qRGzzM5IHQc6HjKAw2vIfScD3yJ2iJFRWR9Vl-CaG0Xtjla1aVYSxtpdai- -ibEX4cPO3B5MEeoCZX6SIJ5OxoGidB893jr28XWC7LCJMJQm4UDwBjG4nanQ30AMEgtI-1LD45n5WYECjNQl-YrWeTC6Qa-IBT3KW5buwj_-w0u2Gd8Y50bJ3cet8yE4wcYbA9gO2RTuxcN6pxrZXlJV6IrbWTuP3VgRBc64uHJDYzhXcs_bZf-xdIzLNZ5pHhmzEo4j-J-idpANXzlHeFUzGl1UI1mkhCCuixaV1hu6OiOSBbCFW5R-7rgVA4Uu8TEf1QTXXaQC5zGHekf_PoZX5TqSKO5rp0cjREQ_0gKIGR48gKM0lWRltX5eQ90iwerWmo8te6sf6Hym8UTiSSSS8xkbsGeyAoUKLkRg8V9o5IYTuTTwZUlGjcCkRDXExViFRKwORHkYOaReZp-bK6YlGpkhDJOGrx6A3a1bBKDHrFiX1QIaE51465EfjwnNS5HvsB48ehN1twD0I5E4ojaj5uw70BTUIAqJcdq3v1Q1JnceZqHs9vTIPci-ZFDLfu4f3iWdcCt6nB0aEiHmNmLHyHrDN8wUxrFMHLnRbK7z25H7h9XUtunVALfdFMNZbiI32WRDwAwXfugZsULwOBYt8rDsbyMjEfuLjVX25mb2VJZgtZuquQxN7NRxJUZskrIqNgTn8XsBaXIf37a-dIAFWX37HBlcycKJADrOA2RFPLH6FSXffIcvVcLAEyhKgvvrj-cBtSmp717OYfj_k4ntGdP9X7CLPnsFZ-q9aPem4rOuv8tzohGlx4ReZTW9Sr7tJTZ30dKqdNMR3DfKkk08q94Eu5kYZHlfkyVHjlfdOcKTYNNSvjgj3u9hUlhR8s1kgCH0SV_b6U11wH0uumWujMJvHS7Fh8wJrE4t9gSslqtK9Qg9YvgvkAz6wT5mD7kAL5mxgZIB8AKcptqOoEym-tWNO2VHfizDqMoB6NQajgd1-dyW7URG5zDUIbWcH2BCzIiVTtl-yKRpdD3LrTwyg1Q8SI7H93txxcRUJj4xRQPU2L8cnUzins_uXb0nKxeevkdvbsvLrLsvLxIwz5XS9ly0]--></g></svg>