<svg xmlns="http://www.w3.org/2000/svg" xmlns:xlink="http://www.w3.org/1999/xlink" contentStyleType="text/css" height="738px" preserveAspectRatio="none" style="width:879px;height:738px;background:#FFFFFF;" version="1.1" viewBox="0 0 879 738" width="879px" zoomAndPan="magnify"><defs/><g><rect fill="#FFFFFF" height="596.6563" style="stroke:#181818;stroke-width:1.0;" width="10" x="93.3652" y="67.2422"/><rect fill="#FFFFFF" height="315.3281" style="stroke:#181818;stroke-width:1.0;" width="10" x="506.9834" y="90.5332"/><rect fill="#FFFFFF" height="175.1641" style="stroke:#181818;stroke-width:1.0;" width="10" x="511.9834" y="129.8242"/><rect fill="#FFFFFF" height="119.873" style="stroke:#181818;stroke-width:1.0;" width="10" x="661.3105" y="437.1523"/><rect fill="#FFFFFF" height="75.582" style="stroke:#181818;stroke-width:1.0;" width="10" x="661.3105" y="588.3164"/><rect fill="#FFFFFF" height="31.291" style="stroke:#181818;stroke-width:1.0;" width="10" x="825.0195" y="343.2793"/><line style="stroke:#181818;stroke-width:0.5;stroke-dasharray:5.0,5.0;" x1="98" x2="98" y1="57.2422" y2="681.8984"/><line style="stroke:#181818;stroke-width:0.5;stroke-dasharray:5.0,5.0;" x1="511.8975" x2="511.8975" y1="57.2422" y2="681.8984"/><line style="stroke:#181818;stroke-width:0.5;stroke-dasharray:5.0,5.0;" x1="665.7002" x2="665.7002" y1="57.2422" y2="681.8984"/><line style="stroke:#181818;stroke-width:0.5;stroke-dasharray:5.0,5.0;" x1="829.4575" x2="829.4575" y1="57.2422" y2="681.8984"/><rect fill="#E3E3E3" height="32.6211" rx="2.5" ry="2.5" style="stroke:#181818;stroke-width:0.5;" width="186.7305" x="5" y="23.6211"/><text fill="#000000" font-family="sans-serif" font-size="14" lengthAdjust="spacing" textLength="172.7305" x="12" y="45.7285">:TrainConnectivityController</text><rect fill="#E3E3E3" height="32.6211" rx="2.5" ry="2.5" style="stroke:#181818;stroke-width:0.5;" width="186.7305" x="5" y="680.8984"/><text fill="#000000" font-family="sans-serif" font-size="14" lengthAdjust="spacing" textLength="172.7305" x="12" y="703.0059">:TrainConnectivityController</text><rect fill="#E3E3E3" height="51.2422" rx="2.5" ry="2.5" style="stroke:#181818;stroke-width:0.5;" width="178.1719" x="422.8975" y="5"/><text fill="#000000" font-family="sans-serif" font-size="14" lengthAdjust="spacing" textLength="49.0205" x="487.4731" y="27.1074">checker</text><text fill="#000000" font-family="sans-serif" font-size="14" lengthAdjust="spacing" textLength="164.1719" x="429.8975" y="45.7285">:TrainConnectivityChecker</text><rect fill="#E3E3E3" height="51.2422" rx="2.5" ry="2.5" style="stroke:#181818;stroke-width:0.5;" width="178.1719" x="422.8975" y="680.8984"/><text fill="#000000" font-family="sans-serif" font-size="14" lengthAdjust="spacing" textLength="49.0205" x="487.4731" y="703.0059">checker</text><text fill="#000000" font-family="sans-serif" font-size="14" lengthAdjust="spacing" textLength="164.1719" x="429.8975" y="721.627">:TrainConnectivityChecker</text><rect fill="#E3E3E3" height="51.2422" rx="2.5" ry="2.5" style="stroke:#181818;stroke-width:0.5;" width="83.2207" x="624.7002" y="5"/><text fill="#000000" font-family="sans-serif" font-size="14" lengthAdjust="spacing" textLength="65.3311" x="633.645" y="27.1074">matrixUtils</text><text fill="#000000" font-family="sans-serif" font-size="14" lengthAdjust="spacing" textLength="69.2207" x="631.7002" y="45.7285">:MatrixUtils</text><rect fill="#E3E3E3" height="51.2422" rx="2.5" ry="2.5" style="stroke:#181818;stroke-width:0.5;" width="83.2207" x="624.7002" y="680.8984"/><text fill="#000000" font-family="sans-serif" font-size="14" lengthAdjust="spacing" textLength="65.3311" x="633.645" y="703.0059">matrixUtils</text><text fill="#000000" font-family="sans-serif" font-size="14" lengthAdjust="spacing" textLength="69.2207" x="631.7002" y="721.627">:MatrixUtils</text><rect fill="#E3E3E3" height="32.6211" rx="2.5" ry="2.5" style="stroke:#181818;stroke-width:0.5;" width="87.124" x="786.4575" y="23.6211"/><text fill="#000000" font-family="sans-serif" font-size="14" lengthAdjust="spacing" textLength="73.124" x="793.4575" y="45.7285">:FileSystem</text><rect fill="#E3E3E3" height="32.6211" rx="2.5" ry="2.5" style="stroke:#181818;stroke-width:0.5;" width="87.124" x="786.4575" y="680.8984"/><text fill="#000000" font-family="sans-serif" font-size="14" lengthAdjust="spacing" textLength="73.124" x="793.4575" y="703.0059">:FileSystem</text><rect fill="#FFFFFF" height="596.6563" style="stroke:#181818;stroke-width:1.0;" width="10" x="93.3652" y="67.2422"/><rect fill="#FFFFFF" height="315.3281" style="stroke:#181818;stroke-width:1.0;" width="10" x="506.9834" y="90.5332"/><rect fill="#FFFFFF" height="175.1641" style="stroke:#181818;stroke-width:1.0;" width="10" x="511.9834" y="129.8242"/><rect fill="#FFFFFF" height="119.873" style="stroke:#181818;stroke-width:1.0;" width="10" x="661.3105" y="437.1523"/><rect fill="#FFFFFF" height="75.582" style="stroke:#181818;stroke-width:1.0;" width="10" x="661.3105" y="588.3164"/><rect fill="#FFFFFF" height="31.291" style="stroke:#181818;stroke-width:1.0;" width="10" x="825.0195" y="343.2793"/><polygon fill="#181818" points="494.9834,86.5332,504.9834,90.5332,494.9834,94.5332,498.9834,90.5332" style="stroke:#181818;stroke-width:1.0;"/><line style="stroke:#181818;stroke-width:1.0;" x1="103.3652" x2="500.9834" y1="90.5332" y2="90.5332"/><text fill="#000000" font-family="sans-serif" font-size="13" font-weight="bold" lengthAdjust="spacing" textLength="7.23" x="110.3652" y="85.2705">1</text><text fill="#000000" font-family="sans-serif" font-size="13" lengthAdjust="spacing" textLength="373.3882" x="121.5952" y="85.2705">exportToDOT("docs/mdisc/us13/graphstream/dot/scenario4.dot")</text><line style="stroke:#181818;stroke-width:1.0;" x1="516.9834" x2="563.9834" y1="116.8242" y2="116.8242"/><line style="stroke:#181818;stroke-width:1.0;" x1="563.9834" x2="563.9834" y1="116.8242" y2="129.8242"/><line style="stroke:#181818;stroke-width:1.0;" x1="522.9834" x2="563.9834" y1="129.8242" y2="129.8242"/><polygon fill="#181818" points="532.9834,125.8242,522.9834,129.8242,532.9834,133.8242,528.9834,129.8242" style="stroke:#181818;stroke-width:1.0;"/><text fill="#000000" font-family="sans-serif" font-size="13" font-weight="bold" lengthAdjust="spacing" textLength="7.23" x="528.9834" y="111.5615">2</text><text fill="#000000" font-family="sans-serif" font-size="13" lengthAdjust="spacing" textLength="109.0972" x="540.2134" y="111.5615">buildDOTContent()</text><line style="stroke:#181818;stroke-width:1.0;" x1="521.9834" x2="563.9834" y1="166.1152" y2="166.1152"/><line style="stroke:#181818;stroke-width:1.0;" x1="563.9834" x2="563.9834" y1="166.1152" y2="179.1152"/><line style="stroke:#181818;stroke-width:1.0;" x1="522.9834" x2="563.9834" y1="179.1152" y2="179.1152"/><polygon fill="#181818" points="532.9834,175.1152,522.9834,179.1152,532.9834,183.1152,528.9834,179.1152" style="stroke:#181818;stroke-width:1.0;"/><text fill="#000000" font-family="sans-serif" font-size="13" font-weight="bold" lengthAdjust="spacing" textLength="7.23" x="528.9834" y="160.8525">3</text><text fill="#000000" font-family="sans-serif" font-size="13" lengthAdjust="spacing" textLength="67.9263" x="540.2134" y="160.8525">addNodes()</text><line style="stroke:#181818;stroke-width:1.0;" x1="521.9834" x2="563.9834" y1="210.4063" y2="210.4063"/><line style="stroke:#181818;stroke-width:1.0;" x1="563.9834" x2="563.9834" y1="210.4063" y2="223.4063"/><line style="stroke:#181818;stroke-width:1.0;" x1="522.9834" x2="563.9834" y1="223.4063" y2="223.4063"/><polygon fill="#181818" points="532.9834,219.4063,522.9834,223.4063,532.9834,227.4063,528.9834,223.4063" style="stroke:#181818;stroke-width:1.0;"/><text fill="#000000" font-family="sans-serif" font-size="13" font-weight="bold" lengthAdjust="spacing" textLength="7.23" x="528.9834" y="205.1436">4</text><text fill="#000000" font-family="sans-serif" font-size="13" lengthAdjust="spacing" textLength="67.209" x="540.2134" y="205.1436">addEdges()</text><line style="stroke:#181818;stroke-width:1.0;" x1="521.9834" x2="563.9834" y1="254.6973" y2="254.6973"/><line style="stroke:#181818;stroke-width:1.0;" x1="563.9834" x2="563.9834" y1="254.6973" y2="267.6973"/><line style="stroke:#181818;stroke-width:1.0;" x1="522.9834" x2="563.9834" y1="267.6973" y2="267.6973"/><polygon fill="#181818" points="532.9834,263.6973,522.9834,267.6973,532.9834,271.6973,528.9834,267.6973" style="stroke:#181818;stroke-width:1.0;"/><text fill="#000000" font-family="sans-serif" font-size="13" font-weight="bold" lengthAdjust="spacing" textLength="7.23" x="528.9834" y="249.4346">5</text><text fill="#000000" font-family="sans-serif" font-size="13" lengthAdjust="spacing" textLength="93.9263" x="540.2134" y="249.4346">setEdgeColors()</text><line style="stroke:#181818;stroke-width:1.0;stroke-dasharray:2.0,2.0;" x1="521.9834" x2="563.9834" y1="303.9883" y2="303.9883"/><line style="stroke:#181818;stroke-width:1.0;stroke-dasharray:2.0,2.0;" x1="563.9834" x2="563.9834" y1="303.9883" y2="316.9883"/><line style="stroke:#181818;stroke-width:1.0;stroke-dasharray:2.0,2.0;" x1="516.9834" x2="563.9834" y1="316.9883" y2="316.9883"/><polygon fill="#181818" points="526.9834,312.9883,516.9834,316.9883,526.9834,320.9883,522.9834,316.9883" style="stroke:#181818;stroke-width:1.0;"/><text fill="#000000" font-family="sans-serif" font-size="13" font-weight="bold" lengthAdjust="spacing" textLength="7.23" x="528.9834" y="298.7256">6</text><text fill="#000000" font-family="sans-serif" font-size="13" lengthAdjust="spacing" textLength="73.6963" x="540.2134" y="298.7256">DOT content</text><polygon fill="#181818" points="813.0195,339.2793,823.0195,343.2793,813.0195,347.2793,817.0195,343.2793" style="stroke:#181818;stroke-width:1.0;"/><line style="stroke:#181818;stroke-width:1.0;" x1="516.9834" x2="819.0195" y1="343.2793" y2="343.2793"/><text fill="#000000" font-family="sans-serif" font-size="13" font-weight="bold" lengthAdjust="spacing" textLength="7.23" x="523.9834" y="338.0166">7</text><text fill="#000000" font-family="sans-serif" font-size="13" lengthAdjust="spacing" textLength="78.73" x="535.2134" y="338.0166">write DOT file</text><polygon fill="#181818" points="527.9834,370.5703,517.9834,374.5703,527.9834,378.5703,523.9834,374.5703" style="stroke:#181818;stroke-width:1.0;"/><line style="stroke:#181818;stroke-width:1.0;stroke-dasharray:2.0,2.0;" x1="521.9834" x2="829.0195" y1="374.5703" y2="374.5703"/><text fill="#000000" font-family="sans-serif" font-size="13" font-weight="bold" lengthAdjust="spacing" textLength="7.23" x="533.9834" y="369.3076">8</text><text fill="#000000" font-family="sans-serif" font-size="13" lengthAdjust="spacing" textLength="58.519" x="545.2134" y="369.3076">file written</text><polygon fill="#181818" points="114.3652,401.8613,104.3652,405.8613,114.3652,409.8613,110.3652,405.8613" style="stroke:#181818;stroke-width:1.0;"/><line style="stroke:#181818;stroke-width:1.0;stroke-dasharray:2.0,2.0;" x1="108.3652" x2="510.9834" y1="405.8613" y2="405.8613"/><text fill="#000000" font-family="sans-serif" font-size="13" font-weight="bold" lengthAdjust="spacing" textLength="7.23" x="120.3652" y="400.5986">9</text><text fill="#000000" font-family="sans-serif" font-size="13" lengthAdjust="spacing" textLength="125.0171" x="131.5952" y="400.5986">visualization exported</text><polygon fill="#181818" points="649.3105,433.1523,659.3105,437.1523,649.3105,441.1523,653.3105,437.1523" style="stroke:#181818;stroke-width:1.0;"/><line style="stroke:#181818;stroke-width:1.0;" x1="103.3652" x2="655.3105" y1="437.1523" y2="437.1523"/><text fill="#000000" font-family="sans-serif" font-size="13" font-weight="bold" lengthAdjust="spacing" textLength="14.46" x="110.3652" y="431.8896">10</text><text fill="#000000" font-family="sans-serif" font-size="13" lengthAdjust="spacing" textLength="283.9434" x="128.8252" y="431.8896">computeWalksMatrix(length, graph, stationOrder)</text><line style="stroke:#181818;stroke-width:1.0;" x1="671.3105" x2="713.3105" y1="468.4434" y2="468.4434"/><line style="stroke:#181818;stroke-width:1.0;" x1="713.3105" x2="713.3105" y1="468.4434" y2="481.4434"/><line style="stroke:#181818;stroke-width:1.0;" x1="672.3105" x2="713.3105" y1="481.4434" y2="481.4434"/><polygon fill="#181818" points="682.3105,477.4434,672.3105,481.4434,682.3105,485.4434,678.3105,481.4434" style="stroke:#181818;stroke-width:1.0;"/><text fill="#000000" font-family="sans-serif" font-size="13" font-weight="bold" lengthAdjust="spacing" textLength="14.46" x="678.3105" y="463.1807">11</text><text fill="#000000" font-family="sans-serif" font-size="13" lengthAdjust="spacing" textLength="90.2891" x="696.7705" y="463.1807">initializeMatrix()</text><line style="stroke:#181818;stroke-width:1.0;" x1="671.3105" x2="713.3105" y1="512.7344" y2="512.7344"/><line style="stroke:#181818;stroke-width:1.0;" x1="713.3105" x2="713.3105" y1="512.7344" y2="525.7344"/><line style="stroke:#181818;stroke-width:1.0;" x1="672.3105" x2="713.3105" y1="525.7344" y2="525.7344"/><polygon fill="#181818" points="682.3105,521.7344,672.3105,525.7344,682.3105,529.7344,678.3105,525.7344" style="stroke:#181818;stroke-width:1.0;"/><text fill="#000000" font-family="sans-serif" font-size="13" font-weight="bold" lengthAdjust="spacing" textLength="14.46" x="678.3105" y="507.4717">12</text><text fill="#000000" font-family="sans-serif" font-size="13" lengthAdjust="spacing" textLength="93.209" x="696.7705" y="507.4717">calculatePaths()</text><polygon fill="#181818" points="114.3652,553.0254,104.3652,557.0254,114.3652,561.0254,110.3652,557.0254" style="stroke:#181818;stroke-width:1.0;"/><line style="stroke:#181818;stroke-width:1.0;stroke-dasharray:2.0,2.0;" x1="108.3652" x2="665.3105" y1="557.0254" y2="557.0254"/><text fill="#000000" font-family="sans-serif" font-size="13" font-weight="bold" lengthAdjust="spacing" textLength="14.46" x="120.3652" y="551.7627">13</text><text fill="#000000" font-family="sans-serif" font-size="13" lengthAdjust="spacing" textLength="71.5063" x="138.8252" y="551.7627">walks matrix</text><polygon fill="#181818" points="649.3105,584.3164,659.3105,588.3164,649.3105,592.3164,653.3105,588.3164" style="stroke:#181818;stroke-width:1.0;"/><line style="stroke:#181818;stroke-width:1.0;" x1="103.3652" x2="655.3105" y1="588.3164" y2="588.3164"/><text fill="#000000" font-family="sans-serif" font-size="13" font-weight="bold" lengthAdjust="spacing" textLength="14.46" x="110.3652" y="583.0537">14</text><text fill="#000000" font-family="sans-serif" font-size="13" lengthAdjust="spacing" textLength="271.667" x="128.8252" y="583.0537">computeTransitiveClosure(graph, stationOrder)</text><line style="stroke:#181818;stroke-width:1.0;" x1="671.3105" x2="713.3105" y1="619.6074" y2="619.6074"/><line style="stroke:#181818;stroke-width:1.0;" x1="713.3105" x2="713.3105" y1="619.6074" y2="632.6074"/><line style="stroke:#181818;stroke-width:1.0;" x1="672.3105" x2="713.3105" y1="632.6074" y2="632.6074"/><polygon fill="#181818" points="682.3105,628.6074,672.3105,632.6074,682.3105,636.6074,678.3105,632.6074" style="stroke:#181818;stroke-width:1.0;"/><text fill="#000000" font-family="sans-serif" font-size="13" font-weight="bold" lengthAdjust="spacing" textLength="14.46" x="678.3105" y="614.3447">15</text><text fill="#000000" font-family="sans-serif" font-size="13" lengthAdjust="spacing" textLength="111.249" x="696.7705" y="614.3447">warshallAlgorithm()</text><polygon fill="#181818" points="109.3652,659.8984,99.3652,663.8984,109.3652,667.8984,105.3652,663.8984" style="stroke:#181818;stroke-width:1.0;"/><line style="stroke:#181818;stroke-width:1.0;stroke-dasharray:2.0,2.0;" x1="103.3652" x2="665.3105" y1="663.8984" y2="663.8984"/><text fill="#000000" font-family="sans-serif" font-size="13" font-weight="bold" lengthAdjust="spacing" textLength="14.46" x="115.3652" y="658.6357">16</text><text fill="#000000" font-family="sans-serif" font-size="13" lengthAdjust="spacing" textLength="80.9072" x="133.8252" y="658.6357">closure matrix</text><!--SRC=[hLHDZzCm5BpdLrWzjTAo4O9J3qYhq0e4ow8s20vStjfl4wkE7TalxPPVptEIVcxQvK1EYJ8pRyOUEwoqhS539IfddIozgr2GRp09-pyro1KKkAIjGU5H4jZ270D22Sfjj2t44vY0IG8DETjKZ-YJX26afQx1aXXDSm_QPivQbj5hJLj-9- -CGJyI44IMBxwUKcI9SeN-jntWThywugTPzcMsEELMG5u__o1j0lFl3ryjvVukNtp-TMPmhWqkju6mQZ7p9QU9uu2mCoVuYI_YpOVTK34L-5mxJxdx-92FHyh9a5PA1vasuUsxjF1Gbu4yGfKgHscGQC5hz_wMlqQJLl8mf0yY-cStusJSOwEDubbnzT3IUBA7NzIvg0LAVNCAmv78DUnC5V-63KWHcpdZ_4N22OC32TabsgCLlaWqj3Jp9VCtNZCigZpnBhvS4jxCOnFCEPqVMQq8EnWo4Cimc23MOIhMEZHWz1yWxMpV25J9jHIx8dLLP0tfgheX_0bc5Rg-ZWtQWieRqRReHWHgzH-yGdzMdRxGEukzwB6yjffqz8Yz-EGQMeAHZM7bxq1b6C0Uic-YOT6Tj_F4lQshWVbisy3UrfWP5ngFu_yHTmEUxoPZxapXU5lBwce6sKr-9SNnLiRxu2y0]--></g></svg>