<svg xmlns="http://www.w3.org/2000/svg" xmlns:xlink="http://www.w3.org/1999/xlink" contentStyleType="text/css" height="424px" preserveAspectRatio="none" style="width:706px;height:424px;background:#FFFFFF;" version="1.1" viewBox="0 0 706 424" width="706px" zoomAndPan="magnify"><defs/><g><rect fill="#FFFFFF" height="283.3281" style="stroke:#181818;stroke-width:1.0;" width="10" x="93.3652" y="67.2422"/><rect fill="#FFFFFF" height="260.0371" style="stroke:#181818;stroke-width:1.0;" width="10" x="445.5825" y="90.5332"/><rect fill="#FFFFFF" height="31.291" style="stroke:#181818;stroke-width:1.0;" width="10" x="651.9541" y="121.8242"/><rect fill="none" height="152.1641" style="stroke:#000000;stroke-width:1.5;" width="305.4575" x="351.4966" y="168.1152"/><line style="stroke:#181818;stroke-width:0.5;stroke-dasharray:5.0,5.0;" x1="98" x2="98" y1="57.2422" y2="368.5703"/><line style="stroke:#181818;stroke-width:0.5;stroke-dasharray:5.0,5.0;" x1="450.4966" x2="450.4966" y1="57.2422" y2="368.5703"/><line style="stroke:#181818;stroke-width:0.5;stroke-dasharray:5.0,5.0;" x1="656.3921" x2="656.3921" y1="57.2422" y2="368.5703"/><rect fill="#E3E3E3" height="32.6211" rx="2.5" ry="2.5" style="stroke:#181818;stroke-width:0.5;" width="186.7305" x="5" y="23.6211"/><text fill="#000000" font-family="sans-serif" font-size="14" lengthAdjust="spacing" textLength="172.7305" x="12" y="45.7285">:TrainConnectivityController</text><rect fill="#E3E3E3" height="32.6211" rx="2.5" ry="2.5" style="stroke:#181818;stroke-width:0.5;" width="186.7305" x="5" y="367.5703"/><text fill="#000000" font-family="sans-serif" font-size="14" lengthAdjust="spacing" textLength="172.7305" x="12" y="389.6777">:TrainConnectivityController</text><rect fill="#E3E3E3" height="51.2422" rx="2.5" ry="2.5" style="stroke:#181818;stroke-width:0.5;" width="178.1719" x="361.4966" y="5"/><text fill="#000000" font-family="sans-serif" font-size="14" lengthAdjust="spacing" textLength="49.0205" x="426.0723" y="27.1074">checker</text><text fill="#000000" font-family="sans-serif" font-size="14" lengthAdjust="spacing" textLength="164.1719" x="368.4966" y="45.7285">:TrainConnectivityChecker</text><rect fill="#E3E3E3" height="51.2422" rx="2.5" ry="2.5" style="stroke:#181818;stroke-width:0.5;" width="178.1719" x="361.4966" y="367.5703"/><text fill="#000000" font-family="sans-serif" font-size="14" lengthAdjust="spacing" textLength="49.0205" x="426.0723" y="389.6777">checker</text><text fill="#000000" font-family="sans-serif" font-size="14" lengthAdjust="spacing" textLength="164.1719" x="368.4966" y="408.2988">:TrainConnectivityChecker</text><rect fill="#E3E3E3" height="32.6211" rx="2.5" ry="2.5" style="stroke:#181818;stroke-width:0.5;" width="87.124" x="613.3921" y="23.6211"/><text fill="#000000" font-family="sans-serif" font-size="14" lengthAdjust="spacing" textLength="73.124" x="620.3921" y="45.7285">:FileSystem</text><rect fill="#E3E3E3" height="32.6211" rx="2.5" ry="2.5" style="stroke:#181818;stroke-width:0.5;" width="87.124" x="613.3921" y="367.5703"/><text fill="#000000" font-family="sans-serif" font-size="14" lengthAdjust="spacing" textLength="73.124" x="620.3921" y="389.6777">:FileSystem</text><rect fill="#FFFFFF" height="283.3281" style="stroke:#181818;stroke-width:1.0;" width="10" x="93.3652" y="67.2422"/><rect fill="#FFFFFF" height="260.0371" style="stroke:#181818;stroke-width:1.0;" width="10" x="445.5825" y="90.5332"/><rect fill="#FFFFFF" height="31.291" style="stroke:#181818;stroke-width:1.0;" width="10" x="651.9541" y="121.8242"/><polygon fill="#181818" points="433.5825,86.5332,443.5825,90.5332,433.5825,94.5332,437.5825,90.5332" style="stroke:#181818;stroke-width:1.0;"/><line style="stroke:#181818;stroke-width:1.0;" x1="103.3652" x2="439.5825" y1="90.5332" y2="90.5332"/><text fill="#000000" font-family="sans-serif" font-size="13" font-weight="bold" lengthAdjust="spacing" textLength="7.23" x="110.3652" y="85.2705">1</text><text fill="#000000" font-family="sans-serif" font-size="13" lengthAdjust="spacing" textLength="311.9873" x="121.5952" y="85.2705">loadCSV("docs/mdisc/us13/data/scenario4_lines.csv")</text><polygon fill="#181818" points="639.9541,117.8242,649.9541,121.8242,639.9541,125.8242,643.9541,121.8242" style="stroke:#181818;stroke-width:1.0;"/><line style="stroke:#181818;stroke-width:1.0;" x1="455.5825" x2="645.9541" y1="121.8242" y2="121.8242"/><text fill="#000000" font-family="sans-serif" font-size="13" font-weight="bold" lengthAdjust="spacing" textLength="7.23" x="462.5825" y="116.5615">2</text><text fill="#000000" font-family="sans-serif" font-size="13" lengthAdjust="spacing" textLength="76.5908" x="473.8125" y="116.5615">read CSV file</text><polygon fill="#181818" points="466.5825,149.1152,456.5825,153.1152,466.5825,157.1152,462.5825,153.1152" style="stroke:#181818;stroke-width:1.0;"/><line style="stroke:#181818;stroke-width:1.0;stroke-dasharray:2.0,2.0;" x1="460.5825" x2="655.9541" y1="153.1152" y2="153.1152"/><text fill="#000000" font-family="sans-serif" font-size="13" font-weight="bold" lengthAdjust="spacing" textLength="7.23" x="472.5825" y="147.8525">3</text><text fill="#000000" font-family="sans-serif" font-size="13" lengthAdjust="spacing" textLength="69.3735" x="483.8125" y="147.8525">file contents</text><path d="M351.4966,168.1152 L423.9312,168.1152 L423.9312,177.4063 L413.9312,187.4063 L351.4966,187.4063 L351.4966,168.1152 " fill="#EEEEEE" style="stroke:#000000;stroke-width:1.5;"/><rect fill="none" height="152.1641" style="stroke:#000000;stroke-width:1.5;" width="305.4575" x="351.4966" y="168.1152"/><text fill="#000000" font-family="sans-serif" font-size="13" font-weight="bold" lengthAdjust="spacing" textLength="27.4346" x="366.4966" y="183.1436">loop</text><text fill="#000000" font-family="sans-serif" font-size="11" font-weight="bold" lengthAdjust="spacing" textLength="110.6284" x="438.9312" y="181.9854">[for each line in CSV]</text><line style="stroke:#181818;stroke-width:1.0;" x1="455.5825" x2="497.5825" y1="210.6973" y2="210.6973"/><line style="stroke:#181818;stroke-width:1.0;" x1="497.5825" x2="497.5825" y1="210.6973" y2="223.6973"/><line style="stroke:#181818;stroke-width:1.0;" x1="456.5825" x2="497.5825" y1="223.6973" y2="223.6973"/><polygon fill="#181818" points="466.5825,219.6973,456.5825,223.6973,466.5825,227.6973,462.5825,223.6973" style="stroke:#181818;stroke-width:1.0;"/><text fill="#000000" font-family="sans-serif" font-size="13" font-weight="bold" lengthAdjust="spacing" textLength="7.23" x="462.5825" y="205.4346">4</text><text fill="#000000" font-family="sans-serif" font-size="13" lengthAdjust="spacing" textLength="161.1416" x="473.8125" y="205.4346">stations.putIfAbsent(station)</text><line style="stroke:#181818;stroke-width:1.0;" x1="455.5825" x2="497.5825" y1="254.9883" y2="254.9883"/><line style="stroke:#181818;stroke-width:1.0;" x1="497.5825" x2="497.5825" y1="254.9883" y2="267.9883"/><line style="stroke:#181818;stroke-width:1.0;" x1="456.5825" x2="497.5825" y1="267.9883" y2="267.9883"/><polygon fill="#181818" points="466.5825,263.9883,456.5825,267.9883,466.5825,271.9883,462.5825,267.9883" style="stroke:#181818;stroke-width:1.0;"/><text fill="#000000" font-family="sans-serif" font-size="13" font-weight="bold" lengthAdjust="spacing" textLength="7.23" x="462.5825" y="249.7256">5</text><text fill="#000000" font-family="sans-serif" font-size="13" lengthAdjust="spacing" textLength="143.7935" x="473.8125" y="249.7256">stationOrder.add(station)</text><line style="stroke:#181818;stroke-width:1.0;" x1="455.5825" x2="497.5825" y1="299.2793" y2="299.2793"/><line style="stroke:#181818;stroke-width:1.0;" x1="497.5825" x2="497.5825" y1="299.2793" y2="312.2793"/><line style="stroke:#181818;stroke-width:1.0;" x1="456.5825" x2="497.5825" y1="312.2793" y2="312.2793"/><polygon fill="#181818" points="466.5825,308.2793,456.5825,312.2793,466.5825,316.2793,462.5825,312.2793" style="stroke:#181818;stroke-width:1.0;"/><text fill="#000000" font-family="sans-serif" font-size="13" font-weight="bold" lengthAdjust="spacing" textLength="7.23" x="462.5825" y="294.0166">6</text><text fill="#000000" font-family="sans-serif" font-size="13" lengthAdjust="spacing" textLength="140.207" x="473.8125" y="294.0166">graph.putIfAbsent(edge)</text><polygon fill="#181818" points="109.3652,346.5703,99.3652,350.5703,109.3652,354.5703,105.3652,350.5703" style="stroke:#181818;stroke-width:1.0;"/><line style="stroke:#181818;stroke-width:1.0;stroke-dasharray:2.0,2.0;" x1="103.3652" x2="449.5825" y1="350.5703" y2="350.5703"/><text fill="#000000" font-family="sans-serif" font-size="13" font-weight="bold" lengthAdjust="spacing" textLength="7.23" x="115.3652" y="345.3076">7</text><text fill="#000000" font-family="sans-serif" font-size="13" lengthAdjust="spacing" textLength="67.9517" x="126.5952" y="345.3076">data loaded</text><!--SRC=[bL9BQyCm3BxdLuYSsaCRndRgOJ12oyO6WwRiD1YghIIcZXnifwF_VdOVQRBjiEbafE-5PBTJtAB51Xh3HjJMD0JUTfIuVjAYs655XJze0al28rTw270rIlEfk88IjQCamSuRxfejsIG94A-4Qf4zf8kDHSMvOGuoQg_y8RozDLgJJG4Tv9lrovWYQX8xik_y2_SqEX4Vb_dpSltDRgKq5GVdgJc2LaN85idewMG5eU83PlSN2LY0DYZpucsIIYDSraZbHDQvczjCeiVC2MAqojnzQCNaviBjq-bHwQfzJWFdkaW7brKH32oXXE00PGZOetfwo0c32fJPA5zaWGYR8_QkXqeQ2lHjRKmBfR4GnZN4oA0uceyy1WclFiwZLuRTlEtyK_cmTS5lScvE_qn_jPBi7ANy1xMosDOZMv8LNOd4ClcvtIWHZxc0UAZZ6KacttPpkKqoxCM_y0K0]--></g></svg>