<svg xmlns="http://www.w3.org/2000/svg" xmlns:xlink="http://www.w3.org/1999/xlink" contentStyleType="text/css" height="499px" preserveAspectRatio="none" style="width:349px;height:499px;background:#FFFFFF;" version="1.1" viewBox="0 0 349 499" width="349px" zoomAndPan="magnify"><defs/><g><rect fill="#FFFFFF" height="304.9102" style="stroke:#181818;stroke-width:1.0;" width="10" x="22.8413" y="93.6211"/><rect fill="#FFFFFF" height="31.291" style="stroke:#181818;stroke-width:1.0;" width="10" x="307.9873" y="116.9121"/><rect fill="#FFFFFF" height="31.291" style="stroke:#181818;stroke-width:1.0;" width="10" x="307.9873" y="179.4941"/><rect fill="#FFFFFF" height="62.582" style="stroke:#181818;stroke-width:1.0;" width="10" x="307.9873" y="242.0762"/><rect fill="#FFFFFF" height="62.582" style="stroke:#181818;stroke-width:1.0;" width="10" x="307.9873" y="335.9492"/><line style="stroke:#181818;stroke-width:0.5;stroke-dasharray:5.0,5.0;" x1="27" x2="27" y1="83.6211" y2="416.5313"/><line style="stroke:#181818;stroke-width:0.5;stroke-dasharray:5.0,5.0;" x1="312.6494" x2="312.6494" y1="83.6211" y2="416.5313"/><text fill="#000000" font-family="sans-serif" font-size="14" lengthAdjust="spacing" textLength="39.6826" x="5" y="80.1074">Player</text><ellipse cx="27.8413" cy="13.5" fill="#E3E3E3" rx="8" ry="8" style="stroke:#181818;stroke-width:0.5;"/><path d="M27.8413,21.5 L27.8413,48.5 M14.8413,29.5 L40.8413,29.5 M27.8413,48.5 L14.8413,63.5 M27.8413,48.5 L40.8413,63.5 " fill="none" style="stroke:#181818;stroke-width:0.5;"/><text fill="#000000" font-family="sans-serif" font-size="14" lengthAdjust="spacing" textLength="39.6826" x="5" y="430.6387">Player</text><ellipse cx="27.8413" cy="442.6523" fill="#E3E3E3" rx="8" ry="8" style="stroke:#181818;stroke-width:0.5;"/><path d="M27.8413,450.6523 L27.8413,477.6523 M14.8413,458.6523 L40.8413,458.6523 M27.8413,477.6523 L14.8413,492.6523 M27.8413,477.6523 L40.8413,492.6523 " fill="none" style="stroke:#181818;stroke-width:0.5;"/><rect fill="#E3E3E3" height="32.6211" rx="2.5" ry="2.5" style="stroke:#181818;stroke-width:0.5;" width="60.6758" x="282.6494" y="50"/><text fill="#000000" font-family="sans-serif" font-size="14" lengthAdjust="spacing" textLength="46.6758" x="289.6494" y="72.1074">System</text><rect fill="#E3E3E3" height="32.6211" rx="2.5" ry="2.5" style="stroke:#181818;stroke-width:0.5;" width="60.6758" x="282.6494" y="415.5313"/><text fill="#000000" font-family="sans-serif" font-size="14" lengthAdjust="spacing" textLength="46.6758" x="289.6494" y="437.6387">System</text><rect fill="#FFFFFF" height="304.9102" style="stroke:#181818;stroke-width:1.0;" width="10" x="22.8413" y="93.6211"/><rect fill="#FFFFFF" height="31.291" style="stroke:#181818;stroke-width:1.0;" width="10" x="307.9873" y="116.9121"/><rect fill="#FFFFFF" height="31.291" style="stroke:#181818;stroke-width:1.0;" width="10" x="307.9873" y="179.4941"/><rect fill="#FFFFFF" height="62.582" style="stroke:#181818;stroke-width:1.0;" width="10" x="307.9873" y="242.0762"/><rect fill="#FFFFFF" height="62.582" style="stroke:#181818;stroke-width:1.0;" width="10" x="307.9873" y="335.9492"/><polygon fill="#181818" points="295.9873,112.9121,305.9873,116.9121,295.9873,120.9121,299.9873,116.9121" style="stroke:#181818;stroke-width:1.0;"/><line style="stroke:#181818;stroke-width:1.0;" x1="32.8413" x2="301.9873" y1="116.9121" y2="116.9121"/><text fill="#000000" font-family="sans-serif" font-size="13" font-weight="bold" lengthAdjust="spacing" textLength="7.23" x="39.8413" y="111.6494">1</text><text fill="#000000" font-family="sans-serif" font-size="13" lengthAdjust="spacing" textLength="158.9961" x="51.0713" y="111.6494">Chooses station to upgrade</text><polygon fill="#181818" points="43.8413,144.2031,33.8413,148.2031,43.8413,152.2031,39.8413,148.2031" style="stroke:#181818;stroke-width:1.0;"/><line style="stroke:#181818;stroke-width:1.0;" x1="37.8413" x2="311.9873" y1="148.2031" y2="148.2031"/><text fill="#000000" font-family="sans-serif" font-size="13" font-weight="bold" lengthAdjust="spacing" textLength="7.23" x="49.8413" y="142.9404">2</text><text fill="#000000" font-family="sans-serif" font-size="13" lengthAdjust="spacing" textLength="158.958" x="61.0713" y="142.9404">Displays station information</text><polygon fill="#181818" points="295.9873,175.4941,305.9873,179.4941,295.9873,183.4941,299.9873,179.4941" style="stroke:#181818;stroke-width:1.0;"/><line style="stroke:#181818;stroke-width:1.0;" x1="32.8413" x2="301.9873" y1="179.4941" y2="179.4941"/><text fill="#000000" font-family="sans-serif" font-size="13" font-weight="bold" lengthAdjust="spacing" textLength="7.23" x="39.8413" y="174.2314">3</text><text fill="#000000" font-family="sans-serif" font-size="13" lengthAdjust="spacing" textLength="149.4238" x="51.0713" y="174.2314">Selects "Upgrade Station"</text><polygon fill="#181818" points="43.8413,206.7852,33.8413,210.7852,43.8413,214.7852,39.8413,210.7852" style="stroke:#181818;stroke-width:1.0;"/><line style="stroke:#181818;stroke-width:1.0;" x1="37.8413" x2="311.9873" y1="210.7852" y2="210.7852"/><text fill="#000000" font-family="sans-serif" font-size="13" font-weight="bold" lengthAdjust="spacing" textLength="7.23" x="49.8413" y="205.5225">4</text><text fill="#000000" font-family="sans-serif" font-size="13" lengthAdjust="spacing" textLength="145.9771" x="61.0713" y="205.5225">Displays upgrade options</text><polygon fill="#181818" points="295.9873,238.0762,305.9873,242.0762,295.9873,246.0762,299.9873,242.0762" style="stroke:#181818;stroke-width:1.0;"/><line style="stroke:#181818;stroke-width:1.0;" x1="32.8413" x2="301.9873" y1="242.0762" y2="242.0762"/><text fill="#000000" font-family="sans-serif" font-size="13" font-weight="bold" lengthAdjust="spacing" textLength="7.23" x="39.8413" y="236.8135">5</text><text fill="#000000" font-family="sans-serif" font-size="13" lengthAdjust="spacing" textLength="193.6924" x="51.0713" y="236.8135">Chooses building type to upgrade</text><polygon fill="#181818" points="43.8413,269.3672,33.8413,273.3672,43.8413,277.3672,39.8413,273.3672" style="stroke:#181818;stroke-width:1.0;"/><line style="stroke:#181818;stroke-width:1.0;" x1="37.8413" x2="306.9873" y1="273.3672" y2="273.3672"/><text fill="#000000" font-family="sans-serif" font-size="13" font-weight="bold" lengthAdjust="spacing" textLength="7.23" x="49.8413" y="268.1045">6</text><text fill="#000000" font-family="sans-serif" font-size="13" lengthAdjust="spacing" textLength="193.6543" x="61.0713" y="268.1045">Displays building type information</text><polygon fill="#181818" points="43.8413,300.6582,33.8413,304.6582,43.8413,308.6582,39.8413,304.6582" style="stroke:#181818;stroke-width:1.0;"/><line style="stroke:#181818;stroke-width:1.0;" x1="37.8413" x2="311.9873" y1="304.6582" y2="304.6582"/><text fill="#000000" font-family="sans-serif" font-size="13" font-weight="bold" lengthAdjust="spacing" textLength="7.23" x="49.8413" y="299.3955">7</text><text fill="#000000" font-family="sans-serif" font-size="13" lengthAdjust="spacing" textLength="121.3735" x="61.0713" y="299.3955">Asks for confirmation</text><polygon fill="#181818" points="295.9873,331.9492,305.9873,335.9492,295.9873,339.9492,299.9873,335.9492" style="stroke:#181818;stroke-width:1.0;"/><line style="stroke:#181818;stroke-width:1.0;" x1="32.8413" x2="301.9873" y1="335.9492" y2="335.9492"/><text fill="#000000" font-family="sans-serif" font-size="13" font-weight="bold" lengthAdjust="spacing" textLength="7.23" x="39.8413" y="330.6865">8</text><text fill="#000000" font-family="sans-serif" font-size="13" lengthAdjust="spacing" textLength="103.3271" x="51.0713" y="330.6865">Confirms upgrade</text><polygon fill="#181818" points="43.8413,363.2402,33.8413,367.2402,43.8413,371.2402,39.8413,367.2402" style="stroke:#181818;stroke-width:1.0;"/><line style="stroke:#181818;stroke-width:1.0;" x1="37.8413" x2="306.9873" y1="367.2402" y2="367.2402"/><text fill="#000000" font-family="sans-serif" font-size="13" font-weight="bold" lengthAdjust="spacing" textLength="7.23" x="49.8413" y="361.9775">9</text><text fill="#000000" font-family="sans-serif" font-size="13" lengthAdjust="spacing" textLength="179.9053" x="61.0713" y="361.9775">Displays confirmation message</text><polygon fill="#181818" points="38.8413,394.5313,28.8413,398.5313,38.8413,402.5313,34.8413,398.5313" style="stroke:#181818;stroke-width:1.0;"/><line style="stroke:#181818;stroke-width:1.0;" x1="32.8413" x2="311.9873" y1="398.5313" y2="398.5313"/><text fill="#000000" font-family="sans-serif" font-size="13" font-weight="bold" lengthAdjust="spacing" textLength="14.46" x="44.8413" y="393.2686">10</text><text fill="#000000" font-family="sans-serif" font-size="13" lengthAdjust="spacing" textLength="232.686" x="63.3013" y="393.2686">Displays station and building information</text><!--SRC=[hP9DJiGm38NtFONLFHVe0Wd10P0g3k1ftJPg4aUnEwYt9_sT0SgVcAoU4hzFzekbDpvWH0UEFLTTP4UWSQ1CzfU0LOyjbJfQWaYLec_jTO5qMFEhyIqqQ8Mo30TbFxWJnQGhvGZviyMHOWue46QP9Q-QoWJq2davYfARdsMMiz6SKMchpo2THSFT_Le61Jnsp4B9fwY6FIZ34Dg8DSsEwUoebRtThun4MxW5F1cPv8LcVCFHpNgtrVGHUDXR0INP59T0_h8q1EL2pV_JsJeSS9XGyarNnqrjUPq6O-lfqtGCTAFKtZEFiljiVf1U81L2nRunFsVznLIBMMunnNKZu4WaRVzVTWPzVKdYbmjqTRLmtm00]--></g></svg>